<?xml version="1.0" encoding="UTF-8" standalone="no"?>
<!DOCTYPE svg PUBLIC "-//W3C//DTD SVG 1.1//EN"
 "http://www.w3.org/Graphics/SVG/1.1/DTD/svg11.dtd">
<!-- Generated by graphviz version 2.38.0 (20140413.2041)
 -->
<!-- Title: hpd_rest_xml_parse_value Pages: 1 -->
<svg width="359pt" height="39pt"
 viewBox="0.00 0.00 359.00 39.00" xmlns="http://www.w3.org/2000/svg" xmlns:xlink="http://www.w3.org/1999/xlink">
<g id="graph0" class="graph" transform="scale(1 1) rotate(0) translate(4 35)">
<title>hpd_rest_xml_parse_value</title>
<!-- Node1 -->
<g id="node1" class="node"><title>Node1</title>
<polygon fill="#bfbfbf" stroke="black" points="0,-0.5 0,-30.5 104,-30.5 104,-0.5 0,-0.5"/>
<text text-anchor="start" x="8" y="-18.5" font-family="Helvetica,sans-Serif" font-size="10.00">hpd_rest_xml_parse</text>
<text text-anchor="middle" x="52" y="-7.5" font-family="Helvetica,sans-Serif" font-size="10.00">_value</text>
</g>
<!-- Node2 -->
<g id="node2" class="node"><title>Node2</title>
<g id="a_node2"><a xlink:href="a00034.html#a1ef7ff8e866ae31ab0edb443eb4777a1" target="_top" xlink:title="rest_on_req_cmpl">
<polygon fill="none" stroke="black" points="140,-6 140,-25 234,-25 234,-6 140,-6"/>
<text text-anchor="middle" x="187" y="-13" font-family="Helvetica,sans-Serif" font-size="10.00">rest_on_req_cmpl</text>
</a>
</g>
</g>
<!-- Node1&#45;&gt;Node2 -->
<g id="edge1" class="edge"><title>Node1&#45;&gt;Node2</title>
<path fill="none" stroke="midnightblue" d="M114.056,-15.5C122.666,-15.5 131.398,-15.5 139.67,-15.5"/>
<polygon fill="midnightblue" stroke="midnightblue" points="114.041,-12.0001 104.041,-15.5 114.041,-19.0001 114.041,-12.0001"/>
</g>
<!-- Node3 -->
<g id="node3" class="node"><title>Node3</title>
<g id="a_node3"><a xlink:href="a00034.html#a02090c3feb19ea4c6e1fa9b5e6392752" target="_top" xlink:title="rest_on_create">
<polygon fill="none" stroke="black" points="270,-6 270,-25 351,-25 351,-6 270,-6"/>
<text text-anchor="middle" x="310.5" y="-13" font-family="Helvetica,sans-Serif" font-size="10.00">rest_on_create</text>
</a>
</g>
</g>
<!-- Node2&#45;&gt;Node3 -->
<g id="edge2" class="edge"><title>Node2&#45;&gt;Node3</title>
<path fill="none" stroke="midnightblue" d="M244.544,-15.5C253.04,-15.5 261.646,-15.5 269.694,-15.5"/>
<polygon fill="midnightblue" stroke="midnightblue" points="244.281,-12.0001 234.281,-15.5 244.281,-19.0001 244.281,-12.0001"/>
</g>
</g>
</svg>
