<?xml version="1.0" encoding="UTF-8" standalone="no"?>
<!DOCTYPE svg PUBLIC "-//W3C//DTD SVG 1.1//EN"
 "http://www.w3.org/Graphics/SVG/1.1/DTD/svg11.dtd">
<!-- Generated by graphviz version 2.38.0 (20140413.2041)
 -->
<!-- Title: add_parameters Pages: 1 -->
<svg width="535pt" height="142pt"
 viewBox="0.00 0.00 535.00 142.00" xmlns="http://www.w3.org/2000/svg" xmlns:xlink="http://www.w3.org/1999/xlink">
<g id="graph0" class="graph" transform="scale(1 1) rotate(0) translate(4 138)">
<title>add_parameters</title>
<!-- Node1 -->
<g id="node1" class="node"><title>Node1</title>
<polygon fill="#bfbfbf" stroke="black" points="0,-38.5 0,-57.5 86,-57.5 86,-38.5 0,-38.5"/>
<text text-anchor="middle" x="43" y="-45.5" font-family="Helvetica,sans-Serif" font-size="10.00">add_parameters</text>
</g>
<!-- Node2 -->
<g id="node2" class="node"><title>Node2</title>
<g id="a_node2"><a xlink:href="a00080.html#af86403a1e06bf3f39721b1cb53ee156a" target="_top" xlink:title="add_parameter">
<polygon fill="none" stroke="black" points="122,-38.5 122,-57.5 203,-57.5 203,-38.5 122,-38.5"/>
<text text-anchor="middle" x="162.5" y="-45.5" font-family="Helvetica,sans-Serif" font-size="10.00">add_parameter</text>
</a>
</g>
</g>
<!-- Node1&#45;&gt;Node2 -->
<g id="edge1" class="edge"><title>Node1&#45;&gt;Node2</title>
<path fill="none" stroke="midnightblue" d="M86.0883,-48C94.3278,-48 103.044,-48 111.512,-48"/>
<polygon fill="midnightblue" stroke="midnightblue" points="111.669,-51.5001 121.669,-48 111.669,-44.5001 111.669,-51.5001"/>
</g>
<!-- Node3 -->
<g id="node3" class="node"><title>Node3</title>
<g id="a_node3"><a xlink:href="a00060.html#a43c7d86904fd4d8c82ec9e52ce52a188" target="_top" xlink:title="[hpd_service_t functions] ">
<polygon fill="none" stroke="black" points="239,-76.5 239,-95.5 352,-95.5 352,-76.5 239,-76.5"/>
<text text-anchor="middle" x="295.5" y="-83.5" font-family="Helvetica,sans-Serif" font-size="10.00">hpd_parameter_get_id</text>
</a>
</g>
</g>
<!-- Node2&#45;&gt;Node3 -->
<g id="edge2" class="edge"><title>Node2&#45;&gt;Node3</title>
<path fill="none" stroke="midnightblue" d="M196.557,-57.589C213.313,-62.4494 233.858,-68.4091 251.797,-73.6127"/>
<polygon fill="midnightblue" stroke="midnightblue" points="250.875,-76.9895 261.454,-76.4141 252.825,-70.2666 250.875,-76.9895"/>
</g>
<!-- Node6 -->
<g id="node6" class="node"><title>Node6</title>
<g id="a_node6"><a xlink:href="a00080.html#aa181e2f731323873699902e5cf92eea8" target="_top" xlink:title="add">
<polygon fill="none" stroke="black" points="441.5,-38.5 441.5,-57.5 473.5,-57.5 473.5,-38.5 441.5,-38.5"/>
<text text-anchor="middle" x="457.5" y="-45.5" font-family="Helvetica,sans-Serif" font-size="10.00">add</text>
</a>
</g>
</g>
<!-- Node2&#45;&gt;Node6 -->
<g id="edge5" class="edge"><title>Node2&#45;&gt;Node6</title>
<path fill="none" stroke="midnightblue" d="M203.015,-48C264.136,-48 379.885,-48 431.066,-48"/>
<polygon fill="midnightblue" stroke="midnightblue" points="431.243,-51.5001 441.243,-48 431.243,-44.5001 431.243,-51.5001"/>
</g>
<!-- Node7 -->
<g id="node7" class="node"><title>Node7</title>
<g id="a_node7"><a xlink:href="a00080.html#ae8f63d2ca9864211a681b077c4431a33" target="_top" xlink:title="add_attr">
<polygon fill="none" stroke="black" points="269.5,-0.5 269.5,-19.5 321.5,-19.5 321.5,-0.5 269.5,-0.5"/>
<text text-anchor="middle" x="295.5" y="-7.5" font-family="Helvetica,sans-Serif" font-size="10.00">add_attr</text>
</a>
</g>
</g>
<!-- Node2&#45;&gt;Node7 -->
<g id="edge6" class="edge"><title>Node2&#45;&gt;Node7</title>
<path fill="none" stroke="midnightblue" d="M196.557,-38.411C215.791,-32.8315 240.019,-25.8035 259.566,-20.1335"/>
<polygon fill="midnightblue" stroke="midnightblue" points="260.681,-23.4545 269.31,-17.3071 258.731,-16.7317 260.681,-23.4545"/>
</g>
<!-- Node4 -->
<g id="node4" class="node"><title>Node4</title>
<g id="a_node4"><a xlink:href="a00011.html#a2348a6596051f9e054ab671a5bdeb11a" target="_top" xlink:title="discovery_find_parameter">
<polygon fill="none" stroke="black" points="393.5,-114.5 393.5,-133.5 521.5,-133.5 521.5,-114.5 393.5,-114.5"/>
<text text-anchor="middle" x="457.5" y="-121.5" font-family="Helvetica,sans-Serif" font-size="10.00">discovery_find_parameter</text>
</a>
</g>
</g>
<!-- Node3&#45;&gt;Node4 -->
<g id="edge3" class="edge"><title>Node3&#45;&gt;Node4</title>
<path fill="none" stroke="midnightblue" d="M336.875,-95.589C357.988,-100.604 384.029,-106.788 406.417,-112.105"/>
<polygon fill="midnightblue" stroke="midnightblue" points="405.877,-115.574 416.416,-114.48 407.495,-108.764 405.877,-115.574"/>
</g>
<!-- Node5 -->
<g id="node5" class="node"><title>Node5</title>
<g id="a_node5"><a xlink:href="a00063.html#a38635fc999dfcdb5d1273a3aed037fbf" target="_top" xlink:title="discovery_get_parameter_id">
<polygon fill="none" stroke="black" points="388,-76.5 388,-95.5 527,-95.5 527,-76.5 388,-76.5"/>
<text text-anchor="middle" x="457.5" y="-83.5" font-family="Helvetica,sans-Serif" font-size="10.00">discovery_get_parameter_id</text>
</a>
</g>
</g>
<!-- Node3&#45;&gt;Node5 -->
<g id="edge4" class="edge"><title>Node3&#45;&gt;Node5</title>
<path fill="none" stroke="midnightblue" d="M352.011,-86C360.315,-86 369.008,-86 377.683,-86"/>
<polygon fill="midnightblue" stroke="midnightblue" points="377.833,-89.5001 387.833,-86 377.833,-82.5001 377.833,-89.5001"/>
</g>
<!-- Node7&#45;&gt;Node6 -->
<g id="edge8" class="edge"><title>Node7&#45;&gt;Node6</title>
<path fill="none" stroke="midnightblue" d="M321.852,-16.0212C351.831,-23.1412 401.422,-34.919 431.324,-42.0207"/>
<polygon fill="midnightblue" stroke="midnightblue" points="430.839,-45.5027 441.377,-44.4082 432.456,-38.6921 430.839,-45.5027"/>
</g>
<!-- Node8 -->
<g id="node8" class="node"><title>Node8</title>
<g id="a_node8"><a xlink:href="a00046.html#ad8de9589846a9987ae60b199fc05094d" target="_top" xlink:title="hpd_pair_get">
<polygon fill="none" stroke="black" points="421.5,-0.5 421.5,-19.5 493.5,-19.5 493.5,-0.5 421.5,-0.5"/>
<text text-anchor="middle" x="457.5" y="-7.5" font-family="Helvetica,sans-Serif" font-size="10.00">hpd_pair_get</text>
</a>
</g>
</g>
<!-- Node7&#45;&gt;Node8 -->
<g id="edge7" class="edge"><title>Node7&#45;&gt;Node8</title>
<path fill="none" stroke="midnightblue" d="M321.852,-10C345.789,-10 382.227,-10 411.164,-10"/>
<polygon fill="midnightblue" stroke="midnightblue" points="411.448,-13.5001 421.448,-10 411.448,-6.5001 411.448,-13.5001"/>
</g>
</g>
</svg>
