<?xml version="1.0" encoding="UTF-8" standalone="no"?>
<!DOCTYPE svg PUBLIC "-//W3C//DTD SVG 1.1//EN"
 "http://www.w3.org/Graphics/SVG/1.1/DTD/svg11.dtd">
<!-- Generated by graphviz version 2.38.0 (20140413.2041)
 -->
<!-- Title: discovery_free_did Pages: 1 -->
<!--zoomable 536 -->
<svg id="main" version="1.1" xmlns="http://www.w3.org/2000/svg" xmlns:xlink="http://www.w3.org/1999/xlink" xml:space="preserve" onload="init(evt)">
<style type="text/css"><![CDATA[
.edge:hover path { stroke: red; }
.edge:hover polygon { stroke: red; fill: red; }
]]></style>
<script type="text/javascript"><![CDATA[
var edges = document.getElementsByTagName('g');
if (edges && edges.length) {
  for (var i=0;i<edges.length;i++) {
    if (edges[i].id.substr(0,4)=='edge') {
      edges[i].setAttribute('class','edge');
    }
  }
}
]]></script>
        <defs>
                <circle id="rim" cx="0" cy="0" r="7"/>
                <circle id="rim2" cx="0" cy="0" r="3.5"/>
                <g id="zoomPlus">
                        <use xlink:href="#rim" fill="#404040">
                                <set attributeName="fill" to="#808080" begin="zoomplus.mouseover" end="zoomplus.mouseout"/>
                        </use>
                        <path d="M-4,0h8M0,-4v8" fill="none" stroke="white" stroke-width="1.5" pointer-events="none"/>
                </g>
                <g id="zoomMin">
                        <use xlink:href="#rim" fill="#404040">
                                <set attributeName="fill" to="#808080" begin="zoomminus.mouseover" end="zoomminus.mouseout"/>
                        </use>
                        <path d="M-4,0h8" fill="none" stroke="white" stroke-width="1.5" pointer-events="none"/>
                </g>
                <g id="dirArrow">
                        <path fill="none" stroke="white" stroke-width="1.5" d="M0,-3.0v7 M-2.5,-0.5L0,-3.0L2.5,-0.5"/>
                </g>
               <g id="resetDef">
                       <use xlink:href="#rim2" fill="#404040">
                               <set attributeName="fill" to="#808080" begin="reset.mouseover" end="reset.mouseout"/>
                       </use>
               </g>
        </defs>

<script type="text/javascript">
var viewWidth = 2152;
var viewHeight = 536;
var sectionId = 'dynsection-71';
</script>
<script xlink:href="svgpan.js"/>
<svg id="graph" class="graph">
<g id="viewport">
<title>discovery_free_did</title>
<!-- Node1 -->
<g id="node1" class="node"><title>Node1</title>
<polygon fill="#bfbfbf" stroke="black" points="0,-135 0,-154 98,-154 98,-135 0,-135"/>
<text text-anchor="middle" x="49" y="-142" font-family="Helvetica,sans-Serif" font-size="10.00">discovery_free_did</text>
</g>
<!-- Node2 -->
<g id="node2" class="node"><title>Node2</title>
<g id="a_node2"><a xlink:href="a00009.html#affd72e7fb83ddd29450361c75672ddd4" target="_top" xlink:title="daemon_start">
<polygon fill="none" stroke="black" points="160,-416 160,-435 236,-435 236,-416 160,-416"/>
<text text-anchor="middle" x="198" y="-423" font-family="Helvetica,sans-Serif" font-size="10.00">daemon_start</text>
</a>
</g>
</g>
<!-- Node1&#45;&gt;Node2 -->
<g id="edge1" class="edge"><title>Node1&#45;&gt;Node2</title>
<path fill="none" stroke="midnightblue" d="M58.2445,-163.704C72.5913,-196.702 103.538,-266.061 134,-322.5 153.016,-357.732 178.726,-397.727 190.556,-415.765"/>
<polygon fill="midnightblue" stroke="midnightblue" points="61.3729,-162.12 54.1914,-154.33 54.9478,-164.898 61.3729,-162.12"/>
</g>
<!-- Node6 -->
<g id="node6" class="node"><title>Node6</title>
<g id="a_node6"><a xlink:href="a00064.html#a9a00d602f27e6ec01adf931e9daaeb42" target="_top" xlink:title="hpd_device_id_free">
<polygon fill="none" stroke="black" points="147.5,-294 147.5,-313 248.5,-313 248.5,-294 147.5,-294"/>
<text text-anchor="middle" x="198" y="-301" font-family="Helvetica,sans-Serif" font-size="10.00">hpd_device_id_free</text>
</a>
</g>
</g>
<!-- Node1&#45;&gt;Node6 -->
<g id="edge5" class="edge"><title>Node1&#45;&gt;Node6</title>
<path fill="none" stroke="midnightblue" d="M64.2817,-162.14C80.6285,-182.096 108.448,-215.35 134,-242.5 151.738,-261.347 173.699,-282.063 186.453,-293.854"/>
<polygon fill="midnightblue" stroke="midnightblue" points="66.8544,-159.757 57.8229,-154.217 61.4288,-164.18 66.8544,-159.757"/>
</g>
<!-- Node19 -->
<g id="node19" class="node"><title>Node19</title>
<g id="a_node19"><a xlink:href="a00064.html#a1cbcbcbc95d12b0038514663b26a5f10" target="_top" xlink:title="hpd_next_device">
<polygon fill="none" stroke="black" points="153,-40 153,-59 243,-59 243,-40 153,-40"/>
<text text-anchor="middle" x="198" y="-47" font-family="Helvetica,sans-Serif" font-size="10.00">hpd_next_device</text>
</a>
</g>
</g>
<!-- Node1&#45;&gt;Node19 -->
<g id="edge18" class="edge"><title>Node1&#45;&gt;Node19</title>
<path fill="none" stroke="midnightblue" d="M64.8144,-127.208C80.4111,-110.021 106.482,-84.0437 134,-68.5 140.764,-64.6794 148.38,-61.5479 155.917,-59.009"/>
<polygon fill="midnightblue" stroke="midnightblue" points="62.0512,-125.049 58.0388,-134.855 67.2904,-129.691 62.0512,-125.049"/>
</g>
<!-- Node20 -->
<g id="node20" class="node"><title>Node20</title>
<g id="a_node20"><a xlink:href="a00064.html#a109baeb2fb75c9d1d2ff6506e0176d8e" target="_top" xlink:title="hpd_adapter_next_device">
<polygon fill="none" stroke="black" points="134,-2 134,-21 262,-21 262,-2 134,-2"/>
<text text-anchor="middle" x="198" y="-9" font-family="Helvetica,sans-Serif" font-size="10.00">hpd_adapter_next_device</text>
</a>
</g>
</g>
<!-- Node1&#45;&gt;Node20 -->
<g id="edge19" class="edge"><title>Node1&#45;&gt;Node20</title>
<path fill="none" stroke="midnightblue" d="M58.9774,-125.651C72.0006,-100.305 98.5106,-55.5342 134,-30.5 139.508,-26.6148 145.823,-23.5112 152.281,-21.0354"/>
<polygon fill="midnightblue" stroke="midnightblue" points="55.688,-124.406 54.3743,-134.919 61.9573,-127.52 55.688,-124.406"/>
</g>
<!-- Node21 -->
<g id="node21" class="node"><title>Node21</title>
<g id="a_node21"><a xlink:href="a00065.html#aebd10ac1c18be51340c39d6d5a54e6d1" target="_top" xlink:title="discovery_alloc_did">
<polygon fill="none" stroke="black" points="147,-214 147,-233 249,-233 249,-214 147,-214"/>
<text text-anchor="middle" x="198" y="-221" font-family="Helvetica,sans-Serif" font-size="10.00">discovery_alloc_did</text>
</a>
</g>
</g>
<!-- Node1&#45;&gt;Node21 -->
<g id="edge20" class="edge"><title>Node1&#45;&gt;Node21</title>
<path fill="none" stroke="midnightblue" d="M76.7226,-158.861C106.459,-174.842 153.675,-200.216 179.205,-213.937"/>
<polygon fill="midnightblue" stroke="midnightblue" points="78.1971,-155.68 67.7316,-154.029 74.8833,-161.846 78.1971,-155.68"/>
</g>
<!-- Node31 -->
<g id="node31" class="node"><title>Node31</title>
<g id="a_node31"><a xlink:href="a00067.html#ac3592bf060b0cb5e2831a42bf8e70983" target="_top" xlink:title="event_foreach_attached">
<polygon fill="none" stroke="black" points="300.5,-143 300.5,-162 421.5,-162 421.5,-143 300.5,-143"/>
<text text-anchor="middle" x="361" y="-150" font-family="Helvetica,sans-Serif" font-size="10.00">event_foreach_attached</text>
</a>
</g>
</g>
<!-- Node1&#45;&gt;Node31 -->
<g id="edge48" class="edge"><title>Node1&#45;&gt;Node31</title>
<path fill="none" stroke="midnightblue" d="M108.362,-146.006C163.257,-147.423 245.06,-149.534 300.367,-150.961"/>
<polygon fill="midnightblue" stroke="midnightblue" points="108.184,-142.5 98.0974,-145.741 108.004,-149.498 108.184,-142.5"/>
</g>
<!-- Node47 -->
<g id="node47" class="node"><title>Node47</title>
<g id="a_node47"><a xlink:href="a00066.html#ab03ad99da20d6555b77df4bb73a2eb9f" target="_top" xlink:title="on_attached">
<polygon fill="none" stroke="black" points="163,-116 163,-135 233,-135 233,-116 163,-116"/>
<text text-anchor="middle" x="198" y="-123" font-family="Helvetica,sans-Serif" font-size="10.00">on_attached</text>
</a>
</g>
</g>
<!-- Node1&#45;&gt;Node47 -->
<g id="edge49" class="edge"><title>Node1&#45;&gt;Node47</title>
<path fill="none" stroke="midnightblue" d="M108.226,-136.974C126.698,-134.587 146.517,-132.025 162.732,-129.929"/>
<polygon fill="midnightblue" stroke="midnightblue" points="107.602,-133.526 98.1333,-138.279 108.499,-140.468 107.602,-133.526"/>
</g>
<!-- Node48 -->
<g id="node48" class="node"><title>Node48</title>
<g id="a_node48"><a xlink:href="a00066.html#a55a69c4d4f322c2d707eb69a3d2225f6" target="_top" xlink:title="on_detached">
<polygon fill="none" stroke="black" points="162,-78 162,-97 234,-97 234,-78 162,-78"/>
<text text-anchor="middle" x="198" y="-85" font-family="Helvetica,sans-Serif" font-size="10.00">on_detached</text>
</a>
</g>
</g>
<!-- Node1&#45;&gt;Node48 -->
<g id="edge51" class="edge"><title>Node1&#45;&gt;Node48</title>
<path fill="none" stroke="midnightblue" d="M78.7421,-130.361C94.7854,-122.759 115.26,-113.53 134,-106.5 143.092,-103.09 153.092,-99.8491 162.394,-97.0419"/>
<polygon fill="midnightblue" stroke="midnightblue" points="76.8842,-127.37 69.3807,-134.85 79.911,-133.682 76.8842,-127.37"/>
</g>
<!-- Node3 -->
<g id="node3" class="node"><title>Node3</title>
<g id="a_node3"><a xlink:href="a00062.html#a4a5e670df4a5790a7955aaef5483c08a" target="_top" xlink:title="hpd_start">
<polygon fill="none" stroke="black" points="332.5,-470 332.5,-489 389.5,-489 389.5,-470 332.5,-470"/>
<text text-anchor="middle" x="361" y="-477" font-family="Helvetica,sans-Serif" font-size="10.00">hpd_start</text>
</a>
</g>
</g>
<!-- Node2&#45;&gt;Node3 -->
<g id="edge2" class="edge"><title>Node2&#45;&gt;Node3</title>
<path fill="none" stroke="midnightblue" d="M236.91,-438.215C266.211,-448.043 306.084,-461.417 332.409,-470.246"/>
<polygon fill="midnightblue" stroke="midnightblue" points="238.007,-434.891 227.413,-435.03 235.781,-441.528 238.007,-434.891"/>
</g>
<!-- Node4 -->
<g id="node4" class="node"><title>Node4</title>
<g id="a_node4"><a xlink:href="a00055.html#a0ddf1224851353fc92bfbff6f499fa97" target="_top" xlink:title="main">
<polygon fill="none" stroke="black" points="508,-508 508,-527 546,-527 546,-508 508,-508"/>
<text text-anchor="middle" x="527" y="-515" font-family="Helvetica,sans-Serif" font-size="10.00">main</text>
</a>
</g>
</g>
<!-- Node3&#45;&gt;Node4 -->
<g id="edge3" class="edge"><title>Node3&#45;&gt;Node4</title>
<path fill="none" stroke="midnightblue" d="M399.819,-488.263C433.645,-496.101 481.773,-507.252 507.724,-513.265"/>
<polygon fill="midnightblue" stroke="midnightblue" points="400.352,-484.794 389.82,-485.946 398.772,-491.613 400.352,-484.794"/>
</g>
<!-- Node5 -->
<g id="node5" class="node"><title>Node5</title>
<g id="a_node5"><a xlink:href="a00030.html#a5de92b31931f2f5155c682379a06da32" target="_top" xlink:title="TEST">
<polygon fill="none" stroke="black" points="506,-470 506,-489 548,-489 548,-470 506,-470"/>
<text text-anchor="middle" x="527" y="-477" font-family="Helvetica,sans-Serif" font-size="10.00">TEST</text>
</a>
</g>
</g>
<!-- Node3&#45;&gt;Node5 -->
<g id="edge4" class="edge"><title>Node3&#45;&gt;Node5</title>
<path fill="none" stroke="midnightblue" d="M400.019,-479.5C433.022,-479.5 479.525,-479.5 505.818,-479.5"/>
<polygon fill="midnightblue" stroke="midnightblue" points="399.82,-476 389.82,-479.5 399.82,-483 399.82,-476"/>
</g>
<!-- Node7 -->
<g id="node7" class="node"><title>Node7</title>
<g id="a_node7"><a xlink:href="a00079.html#ae30c92f3bb2ebffcbb82054ad60c1ac5" target="_top" xlink:title="hpd_rest_url_create">
<polygon fill="none" stroke="black" points="644.5,-331 644.5,-350 746.5,-350 746.5,-331 644.5,-331"/>
<text text-anchor="middle" x="695.5" y="-338" font-family="Helvetica,sans-Serif" font-size="10.00">hpd_rest_url_create</text>
</a>
</g>
</g>
<!-- Node6&#45;&gt;Node7 -->
<g id="edge6" class="edge"><title>Node6&#45;&gt;Node7</title>
<path fill="none" stroke="midnightblue" d="M207.796,-322.111C222.161,-350.022 253.574,-401.67 298,-422.5 436.109,-487.256 624.974,-383.312 679.313,-350.138"/>
<polygon fill="midnightblue" stroke="midnightblue" points="210.859,-320.408 203.283,-313.002 204.587,-323.516 210.859,-320.408"/>
</g>
<!-- Node8 -->
<g id="node8" class="node"><title>Node8</title>
<g id="a_node8"><a xlink:href="a00080.html#aa3eb7c0c809c6c24396cb9321b6b57dc" target="_top" xlink:title="add_service">
<polygon fill="none" stroke="black" points="814.5,-331 814.5,-350 883.5,-350 883.5,-331 814.5,-331"/>
<text text-anchor="middle" x="849" y="-338" font-family="Helvetica,sans-Serif" font-size="10.00">add_service</text>
</a>
</g>
</g>
<!-- Node7&#45;&gt;Node8 -->
<g id="edge7" class="edge"><title>Node7&#45;&gt;Node8</title>
<path fill="none" stroke="midnightblue" d="M756.621,-340.5C776.236,-340.5 797.313,-340.5 814.276,-340.5"/>
<polygon fill="midnightblue" stroke="midnightblue" points="756.527,-337 746.527,-340.5 756.527,-344 756.527,-337"/>
</g>
<!-- Node9 -->
<g id="node9" class="node"><title>Node9</title>
<g id="a_node9"><a xlink:href="a00080.html#a2e3a16674e810068b936c145267184bb" target="_top" xlink:title="add_services">
<polygon fill="none" stroke="black" points="962,-331 962,-350 1036,-350 1036,-331 962,-331"/>
<text text-anchor="middle" x="999" y="-338" font-family="Helvetica,sans-Serif" font-size="10.00">add_services</text>
</a>
</g>
</g>
<!-- Node8&#45;&gt;Node9 -->
<g id="edge8" class="edge"><title>Node8&#45;&gt;Node9</title>
<path fill="none" stroke="midnightblue" d="M893.86,-340.5C915.562,-340.5 941.436,-340.5 961.964,-340.5"/>
<polygon fill="midnightblue" stroke="midnightblue" points="893.584,-337 883.583,-340.5 893.583,-344 893.584,-337"/>
</g>
<!-- Node10 -->
<g id="node10" class="node"><title>Node10</title>
<g id="a_node10"><a xlink:href="a00080.html#a57ebcecdb1a111267049578c1d9c51de" target="_top" xlink:title="add_device">
<polygon fill="none" stroke="black" points="1097,-331 1097,-350 1163,-350 1163,-331 1097,-331"/>
<text text-anchor="middle" x="1130" y="-338" font-family="Helvetica,sans-Serif" font-size="10.00">add_device</text>
</a>
</g>
</g>
<!-- Node9&#45;&gt;Node10 -->
<g id="edge9" class="edge"><title>Node9&#45;&gt;Node10</title>
<path fill="none" stroke="midnightblue" d="M1046.43,-340.5C1063.18,-340.5 1081.7,-340.5 1096.95,-340.5"/>
<polygon fill="midnightblue" stroke="midnightblue" points="1046.28,-337 1036.28,-340.5 1046.28,-344 1046.28,-337"/>
</g>
<!-- Node11 -->
<g id="node11" class="node"><title>Node11</title>
<g id="a_node11"><a xlink:href="a00080.html#a4028efc20daa3dbda3727bcb6fdd0635" target="_top" xlink:title="add_devices">
<polygon fill="none" stroke="black" points="1199,-331 1199,-350 1270,-350 1270,-331 1199,-331"/>
<text text-anchor="middle" x="1234.5" y="-338" font-family="Helvetica,sans-Serif" font-size="10.00">add_devices</text>
</a>
</g>
</g>
<!-- Node10&#45;&gt;Node11 -->
<g id="edge10" class="edge"><title>Node10&#45;&gt;Node11</title>
<path fill="none" stroke="midnightblue" d="M1173.33,-340.5C1181.87,-340.5 1190.75,-340.5 1198.98,-340.5"/>
<polygon fill="midnightblue" stroke="midnightblue" points="1173.15,-337 1163.15,-340.5 1173.15,-344 1173.15,-337"/>
</g>
<!-- Node12 -->
<g id="node12" class="node"><title>Node12</title>
<g id="a_node12"><a xlink:href="a00080.html#aa21890dddb121282884859a2c8bfd134" target="_top" xlink:title="add_adapter">
<polygon fill="none" stroke="black" points="1306,-331 1306,-350 1376,-350 1376,-331 1306,-331"/>
<text text-anchor="middle" x="1341" y="-338" font-family="Helvetica,sans-Serif" font-size="10.00">add_adapter</text>
</a>
</g>
</g>
<!-- Node11&#45;&gt;Node12 -->
<g id="edge11" class="edge"><title>Node11&#45;&gt;Node12</title>
<path fill="none" stroke="midnightblue" d="M1280.27,-340.5C1288.85,-340.5 1297.71,-340.5 1305.89,-340.5"/>
<polygon fill="midnightblue" stroke="midnightblue" points="1280.01,-337 1270.01,-340.5 1280.01,-344 1280.01,-337"/>
</g>
<!-- Node13 -->
<g id="node13" class="node"><title>Node13</title>
<g id="a_node13"><a xlink:href="a00080.html#a9a90e4e11e2111c0d0b29f277b1d24c4" target="_top" xlink:title="add_adapters">
<polygon fill="none" stroke="black" points="1412,-331 1412,-350 1487,-350 1487,-331 1412,-331"/>
<text text-anchor="middle" x="1449.5" y="-338" font-family="Helvetica,sans-Serif" font-size="10.00">add_adapters</text>
</a>
</g>
</g>
<!-- Node12&#45;&gt;Node13 -->
<g id="edge12" class="edge"><title>Node12&#45;&gt;Node13</title>
<path fill="none" stroke="midnightblue" d="M1386.36,-340.5C1394.8,-340.5 1403.54,-340.5 1411.71,-340.5"/>
<polygon fill="midnightblue" stroke="midnightblue" points="1386.28,-337 1376.28,-340.5 1386.28,-344 1386.28,-337"/>
</g>
<!-- Node14 -->
<g id="node14" class="node"><title>Node14</title>
<g id="a_node14"><a xlink:href="a00080.html#ab8e279d4c33ab258d7118b3e2f28400e" target="_top" xlink:title="add_configuration">
<polygon fill="none" stroke="black" points="1523,-331 1523,-350 1616,-350 1616,-331 1523,-331"/>
<text text-anchor="middle" x="1569.5" y="-338" font-family="Helvetica,sans-Serif" font-size="10.00">add_configuration</text>
</a>
</g>
</g>
<!-- Node13&#45;&gt;Node14 -->
<g id="edge13" class="edge"><title>Node13&#45;&gt;Node14</title>
<path fill="none" stroke="midnightblue" d="M1497.2,-340.5C1505.58,-340.5 1514.31,-340.5 1522.67,-340.5"/>
<polygon fill="midnightblue" stroke="midnightblue" points="1497.19,-337 1487.19,-340.5 1497.19,-344 1497.19,-337"/>
</g>
<!-- Node15 -->
<g id="node15" class="node"><title>Node15</title>
<g id="a_node15"><a xlink:href="a00081.html#a0f69305250a2916043c87e8e3865b28d" target="_top" xlink:title="hpd_rest_json_get_configuration">
<polygon fill="none" stroke="black" points="1652,-331 1652,-350 1809,-350 1809,-331 1652,-331"/>
<text text-anchor="middle" x="1730.5" y="-338" font-family="Helvetica,sans-Serif" font-size="10.00">hpd_rest_json_get_configuration</text>
</a>
</g>
</g>
<!-- Node14&#45;&gt;Node15 -->
<g id="edge14" class="edge"><title>Node14&#45;&gt;Node15</title>
<path fill="none" stroke="midnightblue" d="M1626.3,-340.5C1634.56,-340.5 1643.19,-340.5 1651.8,-340.5"/>
<polygon fill="midnightblue" stroke="midnightblue" points="1626.06,-337 1616.06,-340.5 1626.06,-344 1626.06,-337"/>
</g>
<!-- Node16 -->
<g id="node16" class="node"><title>Node16</title>
<g id="a_node16"><a xlink:href="a00025.html#a144860c2e3dfe3d8d9fd021968bbd8ff" target="_top" xlink:title="reply_devices">
<polygon fill="none" stroke="black" points="1845,-331 1845,-350 1922,-350 1922,-331 1845,-331"/>
<text text-anchor="middle" x="1883.5" y="-338" font-family="Helvetica,sans-Serif" font-size="10.00">reply_devices</text>
</a>
</g>
</g>
<!-- Node15&#45;&gt;Node16 -->
<g id="edge15" class="edge"><title>Node15&#45;&gt;Node16</title>
<path fill="none" stroke="midnightblue" d="M1819.36,-340.5C1828.29,-340.5 1836.98,-340.5 1844.91,-340.5"/>
<polygon fill="midnightblue" stroke="midnightblue" points="1819.21,-337 1809.21,-340.5 1819.21,-344 1819.21,-337"/>
</g>
<!-- Node17 -->
<g id="node17" class="node"><title>Node17</title>
<g id="a_node17"><a xlink:href="a00025.html#abd6f4422cb70766aae33a18dc6b6cb74" target="_top" xlink:title="on_req_hdr_cmpl">
<polygon fill="none" stroke="black" points="1958,-331 1958,-350 2049,-350 2049,-331 1958,-331"/>
<text text-anchor="middle" x="2003.5" y="-338" font-family="Helvetica,sans-Serif" font-size="10.00">on_req_hdr_cmpl</text>
</a>
</g>
</g>
<!-- Node16&#45;&gt;Node17 -->
<g id="edge16" class="edge"><title>Node16&#45;&gt;Node17</title>
<path fill="none" stroke="midnightblue" d="M1932.24,-340.5C1940.68,-340.5 1949.43,-340.5 1957.78,-340.5"/>
<polygon fill="midnightblue" stroke="midnightblue" points="1932.16,-337 1922.16,-340.5 1932.16,-344 1932.16,-337"/>
</g>
<!-- Node18 -->
<g id="node18" class="node"><title>Node18</title>
<g id="a_node18"><a xlink:href="a00025.html#ad079431c7eba97c5dd5e4e202cdf6102" target="_top" xlink:title="on_create">
<polygon fill="none" stroke="black" points="2085,-331 2085,-350 2144,-350 2144,-331 2085,-331"/>
<text text-anchor="middle" x="2114.5" y="-338" font-family="Helvetica,sans-Serif" font-size="10.00">on_create</text>
</a>
</g>
</g>
<!-- Node17&#45;&gt;Node18 -->
<g id="edge17" class="edge"><title>Node17&#45;&gt;Node18</title>
<path fill="none" stroke="midnightblue" d="M2059.18,-340.5C2068.11,-340.5 2077.04,-340.5 2085,-340.5"/>
<polygon fill="midnightblue" stroke="midnightblue" points="2059.15,-337 2049.15,-340.5 2059.15,-344 2059.15,-337"/>
</g>
<!-- Node22 -->
<g id="node22" class="node"><title>Node22</title>
<g id="a_node22"><a xlink:href="a00064.html#a990c7b89fc6040ae81d835df174980d4" target="_top" xlink:title="hpd_device_id_alloc">
<polygon fill="none" stroke="black" points="309,-181 309,-200 413,-200 413,-181 309,-181"/>
<text text-anchor="middle" x="361" y="-188" font-family="Helvetica,sans-Serif" font-size="10.00">hpd_device_id_alloc</text>
</a>
</g>
</g>
<!-- Node21&#45;&gt;Node22 -->
<g id="edge21" class="edge"><title>Node21&#45;&gt;Node22</title>
<path fill="none" stroke="midnightblue" d="M255.574,-211.904C274.534,-208.018 295.442,-203.732 313.537,-200.024"/>
<polygon fill="midnightblue" stroke="midnightblue" points="254.661,-208.518 245.568,-213.955 256.067,-215.376 254.661,-208.518"/>
</g>
<!-- Node23 -->
<g id="node23" class="node"><title>Node23</title>
<g id="a_node23"><a xlink:href="a00064.html#ad992dfa91c033da312b4c34d32607fbd" target="_top" xlink:title="hpd_first_device">
<polygon fill="none" stroke="black" points="317,-394 317,-413 405,-413 405,-394 317,-394"/>
<text text-anchor="middle" x="361" y="-401" font-family="Helvetica,sans-Serif" font-size="10.00">hpd_first_device</text>
</a>
</g>
</g>
<!-- Node21&#45;&gt;Node23 -->
<g id="edge22" class="edge"><title>Node21&#45;&gt;Node23</title>
<path fill="none" stroke="midnightblue" d="M219.954,-239.52C233.526,-250.827 250.712,-267.026 262,-284.5 287.631,-324.178 263.804,-351.913 298,-384.5 303.298,-389.548 309.902,-393.258 316.808,-395.983"/>
<polygon fill="midnightblue" stroke="midnightblue" points="222.035,-236.702 212.055,-233.145 217.638,-242.149 222.035,-236.702"/>
</g>
<!-- Node24 -->
<g id="node24" class="node"><title>Node24</title>
<g id="a_node24"><a xlink:href="a00064.html#a7966f9ec00cca8aee9fca41c2f32e56c" target="_top" xlink:title="hpd_adapter_first_device">
<polygon fill="none" stroke="black" points="298.5,-356 298.5,-375 423.5,-375 423.5,-356 298.5,-356"/>
<text text-anchor="middle" x="361" y="-363" font-family="Helvetica,sans-Serif" font-size="10.00">hpd_adapter_first_device</text>
</a>
</g>
</g>
<!-- Node21&#45;&gt;Node24 -->
<g id="edge23" class="edge"><title>Node21&#45;&gt;Node24</title>
<path fill="none" stroke="midnightblue" d="M218.244,-239.602C231.478,-251.251 248.95,-267.817 262,-284.5 281.632,-309.598 273.045,-326.687 298,-346.5 302.849,-350.35 308.477,-353.423 314.324,-355.875"/>
<polygon fill="midnightblue" stroke="midnightblue" points="220.485,-236.913 210.629,-233.027 215.911,-242.211 220.485,-236.913"/>
</g>
<!-- Node25 -->
<g id="node25" class="node"><title>Node25</title>
<g id="a_node25"><a xlink:href="a00065.html#ae05923fe2e53a249f3cfdd4cb7cb90df" target="_top" xlink:title="discovery_copy_did">
<polygon fill="none" stroke="black" points="309.5,-318 309.5,-337 412.5,-337 412.5,-318 309.5,-318"/>
<text text-anchor="middle" x="361" y="-325" font-family="Helvetica,sans-Serif" font-size="10.00">discovery_copy_did</text>
</a>
</g>
</g>
<!-- Node21&#45;&gt;Node25 -->
<g id="edge24" class="edge"><title>Node21&#45;&gt;Node25</title>
<path fill="none" stroke="midnightblue" d="M214.52,-240.517C232.781,-259.592 264.837,-290.236 298,-308.5 304.804,-312.247 312.445,-315.355 319.976,-317.896"/>
<polygon fill="midnightblue" stroke="midnightblue" points="216.972,-238.015 207.576,-233.12 211.869,-242.806 216.972,-238.015"/>
</g>
<!-- Node27 -->
<g id="node27" class="node"><title>Node27</title>
<g id="a_node27"><a xlink:href="a00065.html#a13836bde11385c514c661edc269fe122" target="_top" xlink:title="discovery_get_service\l_device">
<polygon fill="none" stroke="black" points="304,-219.5 304,-249.5 418,-249.5 418,-219.5 304,-219.5"/>
<text text-anchor="start" x="312" y="-237.5" font-family="Helvetica,sans-Serif" font-size="10.00">discovery_get_service</text>
<text text-anchor="middle" x="361" y="-226.5" font-family="Helvetica,sans-Serif" font-size="10.00">_device</text>
</a>
</g>
</g>
<!-- Node21&#45;&gt;Node27 -->
<g id="edge26" class="edge"><title>Node21&#45;&gt;Node27</title>
<path fill="none" stroke="midnightblue" d="M259.451,-227.63C273.99,-228.624 289.46,-229.68 303.796,-230.66"/>
<polygon fill="midnightblue" stroke="midnightblue" points="259.274,-224.11 249.059,-226.92 258.797,-231.094 259.274,-224.11"/>
</g>
<!-- Node29 -->
<g id="node29" class="node"><title>Node29</title>
<g id="a_node29"><a xlink:href="a00065.html#ae8689c0b6a6675a877392d103c4ee399" target="_top" xlink:title="discovery_get_parameter\l_device">
<polygon fill="none" stroke="black" points="298,-268.5 298,-298.5 424,-298.5 424,-268.5 298,-268.5"/>
<text text-anchor="start" x="306" y="-286.5" font-family="Helvetica,sans-Serif" font-size="10.00">discovery_get_parameter</text>
<text text-anchor="middle" x="361" y="-275.5" font-family="Helvetica,sans-Serif" font-size="10.00">_device</text>
</a>
</g>
</g>
<!-- Node21&#45;&gt;Node29 -->
<g id="edge29" class="edge"><title>Node21&#45;&gt;Node29</title>
<path fill="none" stroke="midnightblue" d="M234.032,-236.556C259.211,-245.939 293.22,-258.613 319.555,-268.427"/>
<polygon fill="midnightblue" stroke="midnightblue" points="235.104,-233.22 224.511,-233.007 232.659,-239.779 235.104,-233.22"/>
</g>
<!-- Node21&#45;&gt;Node31 -->
<g id="edge31" class="edge"><title>Node21&#45;&gt;Node31</title>
<path fill="none" stroke="midnightblue" d="M223.919,-208.747C243.574,-197.524 271.927,-182.233 298,-171.5 306.537,-167.986 315.966,-164.774 324.84,-162.03"/>
<polygon fill="midnightblue" stroke="midnightblue" points="221.924,-205.858 215.018,-213.892 225.427,-211.918 221.924,-205.858"/>
</g>
<!-- Node33 -->
<g id="node33" class="node"><title>Node33</title>
<g id="a_node33"><a xlink:href="a00067.html#a8e77eacc816b401e7f31d4cf625edc71" target="_top" xlink:title="event_inform_device\l_attached">
<polygon fill="none" stroke="black" points="307.5,-93.5 307.5,-123.5 414.5,-123.5 414.5,-93.5 307.5,-93.5"/>
<text text-anchor="start" x="315.5" y="-111.5" font-family="Helvetica,sans-Serif" font-size="10.00">event_inform_device</text>
<text text-anchor="middle" x="361" y="-100.5" font-family="Helvetica,sans-Serif" font-size="10.00">_attached</text>
</a>
</g>
</g>
<!-- Node21&#45;&gt;Node33 -->
<g id="edge33" class="edge"><title>Node21&#45;&gt;Node33</title>
<path fill="none" stroke="midnightblue" d="M214.336,-206.262C232.641,-186.523 264.949,-154.247 298,-133.5 303.898,-129.798 310.437,-126.458 316.993,-123.513"/>
<polygon fill="midnightblue" stroke="midnightblue" points="211.538,-204.136 207.386,-213.883 216.71,-208.852 211.538,-204.136"/>
</g>
<!-- Node40 -->
<g id="node40" class="node"><title>Node40</title>
<g id="a_node40"><a xlink:href="a00067.html#a38f3fa1f45b7832adcbdd3f1af2bd9a4" target="_top" xlink:title="event_inform_device\l_detached">
<polygon fill="none" stroke="black" points="307.5,-44.5 307.5,-74.5 414.5,-74.5 414.5,-44.5 307.5,-44.5"/>
<text text-anchor="start" x="315.5" y="-62.5" font-family="Helvetica,sans-Serif" font-size="10.00">event_inform_device</text>
<text text-anchor="middle" x="361" y="-51.5" font-family="Helvetica,sans-Serif" font-size="10.00">_detached</text>
</a>
</g>
</g>
<!-- Node21&#45;&gt;Node40 -->
<g id="edge41" class="edge"><title>Node21&#45;&gt;Node40</title>
<path fill="none" stroke="midnightblue" d="M214.288,-205.813C227.532,-190.153 246.887,-166.441 262,-144.5 279.858,-118.575 273.993,-103.864 298,-83.5 302.049,-80.0654 306.645,-77.0903 311.46,-74.5203"/>
<polygon fill="midnightblue" stroke="midnightblue" points="211.453,-203.743 207.625,-213.622 216.778,-208.287 211.453,-203.743"/>
</g>
<!-- Node26 -->
<g id="node26" class="node"><title>Node26</title>
<g id="a_node26"><a xlink:href="a00064.html#a3d2f9767d135be08697ceeff15ef46bf" target="_top" xlink:title="hpd_device_id_copy">
<polygon fill="none" stroke="black" points="474.5,-318 474.5,-337 579.5,-337 579.5,-318 474.5,-318"/>
<text text-anchor="middle" x="527" y="-325" font-family="Helvetica,sans-Serif" font-size="10.00">hpd_device_id_copy</text>
</a>
</g>
</g>
<!-- Node25&#45;&gt;Node26 -->
<g id="edge25" class="edge"><title>Node25&#45;&gt;Node26</title>
<path fill="none" stroke="midnightblue" d="M422.91,-327.5C439.872,-327.5 458.127,-327.5 474.492,-327.5"/>
<polygon fill="midnightblue" stroke="midnightblue" points="422.544,-324 412.544,-327.5 422.544,-331 422.544,-324"/>
</g>
<!-- Node28 -->
<g id="node28" class="node"><title>Node28</title>
<g id="a_node28"><a xlink:href="a00064.html#a73e474ba372ed4e985f1f3cb186c3e0b" target="_top" xlink:title="hpd_service_get_device">
<polygon fill="none" stroke="black" points="466,-230 466,-249 588,-249 588,-230 466,-230"/>
<text text-anchor="middle" x="527" y="-237" font-family="Helvetica,sans-Serif" font-size="10.00">hpd_service_get_device</text>
</a>
</g>
</g>
<!-- Node27&#45;&gt;Node28 -->
<g id="edge27" class="edge"><title>Node27&#45;&gt;Node28</title>
<path fill="none" stroke="midnightblue" d="M428.636,-236.532C440.939,-236.907 453.72,-237.296 465.818,-237.665"/>
<polygon fill="midnightblue" stroke="midnightblue" points="428.542,-233.027 418.439,-236.221 428.328,-240.024 428.542,-233.027"/>
</g>
<!-- Node28&#45;&gt;Node7 -->
<g id="edge28" class="edge"><title>Node28&#45;&gt;Node7</title>
<path fill="none" stroke="midnightblue" d="M568.319,-252.677C577.001,-256.087 585.974,-260.066 594,-264.5 629.613,-284.177 666.529,-315.381 684.055,-330.974"/>
<polygon fill="midnightblue" stroke="midnightblue" points="569.3,-249.307 558.708,-249.075 566.844,-255.862 569.3,-249.307"/>
</g>
<!-- Node30 -->
<g id="node30" class="node"><title>Node30</title>
<g id="a_node30"><a xlink:href="a00064.html#aadf61544da511e800cd725fe915fc07e" target="_top" xlink:title="hpd_parameter_get_device">
<polygon fill="none" stroke="black" points="460,-274 460,-293 594,-293 594,-274 460,-274"/>
<text text-anchor="middle" x="527" y="-281" font-family="Helvetica,sans-Serif" font-size="10.00">hpd_parameter_get_device</text>
</a>
</g>
</g>
<!-- Node29&#45;&gt;Node30 -->
<g id="edge30" class="edge"><title>Node29&#45;&gt;Node30</title>
<path fill="none" stroke="midnightblue" d="M434.269,-283.5C442.764,-283.5 451.4,-283.5 459.806,-283.5"/>
<polygon fill="midnightblue" stroke="midnightblue" points="434.001,-280 424.001,-283.5 434.001,-287 434.001,-280"/>
</g>
<!-- Node32 -->
<g id="node32" class="node"><title>Node32</title>
<g id="a_node32"><a xlink:href="a00068.html#a2378ed927b904fdc33551792fe841d90" target="_top" xlink:title="hpd_foreach_attached">
<polygon fill="none" stroke="black" points="470.5,-176 470.5,-195 583.5,-195 583.5,-176 470.5,-176"/>
<text text-anchor="middle" x="527" y="-183" font-family="Helvetica,sans-Serif" font-size="10.00">hpd_foreach_attached</text>
</a>
</g>
</g>
<!-- Node31&#45;&gt;Node32 -->
<g id="edge32" class="edge"><title>Node31&#45;&gt;Node32</title>
<path fill="none" stroke="midnightblue" d="M419.361,-164.042C438.745,-167.943 460.154,-172.25 478.671,-175.976"/>
<polygon fill="midnightblue" stroke="midnightblue" points="419.93,-160.586 409.436,-162.045 418.549,-167.449 419.93,-160.586"/>
</g>
<!-- Node34 -->
<g id="node34" class="node"><title>Node34</title>
<g id="a_node34"><a xlink:href="a00011.html#affbbf9ded6a14798e8b3336886c72e0a" target="_top" xlink:title="discovery_attach_device">
<polygon fill="none" stroke="black" points="464.5,-138 464.5,-157 589.5,-157 589.5,-138 464.5,-138"/>
<text text-anchor="middle" x="527" y="-145" font-family="Helvetica,sans-Serif" font-size="10.00">discovery_attach_device</text>
</a>
</g>
</g>
<!-- Node33&#45;&gt;Node34 -->
<g id="edge34" class="edge"><title>Node33&#45;&gt;Node34</title>
<path fill="none" stroke="midnightblue" d="M424.697,-123.41C445.199,-128.285 467.408,-133.567 485.793,-137.938"/>
<polygon fill="midnightblue" stroke="midnightblue" points="425.332,-119.963 414.793,-121.055 423.712,-126.773 425.332,-119.963"/>
</g>
<!-- Node37 -->
<g id="node37" class="node"><title>Node37</title>
<g id="a_node37"><a xlink:href="a00067.html#a7ef81e99623c1b5b75b3282aa9a25703" target="_top" xlink:title="event_inform_adapter\l_attached">
<polygon fill="none" stroke="black" points="472,-88.5 472,-118.5 582,-118.5 582,-88.5 472,-88.5"/>
<text text-anchor="start" x="480" y="-106.5" font-family="Helvetica,sans-Serif" font-size="10.00">event_inform_adapter</text>
<text text-anchor="middle" x="527" y="-95.5" font-family="Helvetica,sans-Serif" font-size="10.00">_attached</text>
</a>
</g>
</g>
<!-- Node33&#45;&gt;Node37 -->
<g id="edge37" class="edge"><title>Node33&#45;&gt;Node37</title>
<path fill="none" stroke="midnightblue" d="M424.826,-106.585C440.345,-106.111 456.834,-105.609 471.897,-105.149"/>
<polygon fill="midnightblue" stroke="midnightblue" points="424.682,-103.087 414.793,-106.89 424.895,-110.084 424.682,-103.087"/>
</g>
<!-- Node35 -->
<g id="node35" class="node"><title>Node35</title>
<g id="a_node35"><a xlink:href="a00064.html#a7fb3db782a5ba49583a5abf615f260bd" target="_top" xlink:title="hpd_device_attach">
<polygon fill="none" stroke="black" points="800,-136 800,-155 898,-155 898,-136 800,-136"/>
<text text-anchor="middle" x="849" y="-143" font-family="Helvetica,sans-Serif" font-size="10.00">hpd_device_attach</text>
</a>
</g>
</g>
<!-- Node34&#45;&gt;Node35 -->
<g id="edge35" class="edge"><title>Node34&#45;&gt;Node35</title>
<path fill="none" stroke="midnightblue" d="M600.011,-147.05C660.917,-146.669 746.511,-146.134 799.551,-145.803"/>
<polygon fill="midnightblue" stroke="midnightblue" points="599.677,-143.552 589.699,-147.114 599.721,-150.552 599.677,-143.552"/>
</g>
<!-- Node36 -->
<g id="node36" class="node"><title>Node36</title>
<g id="a_node36"><a xlink:href="a00012.html#a723fb54ea3963ea674c9830e41a40e00" target="_top" xlink:title="hpd_demo_adapter_start">
<polygon fill="none" stroke="black" points="937,-117 937,-136 1061,-136 1061,-117 937,-117"/>
<text text-anchor="middle" x="999" y="-124" font-family="Helvetica,sans-Serif" font-size="10.00">hpd_demo_adapter_start</text>
</a>
</g>
</g>
<!-- Node35&#45;&gt;Node36 -->
<g id="edge36" class="edge"><title>Node35&#45;&gt;Node36</title>
<path fill="none" stroke="midnightblue" d="M908.143,-138.036C917.604,-136.821 927.427,-135.56 936.954,-134.337"/>
<polygon fill="midnightblue" stroke="midnightblue" points="907.524,-134.586 898.051,-139.331 908.416,-141.529 907.524,-134.586"/>
</g>
<!-- Node38 -->
<g id="node38" class="node"><title>Node38</title>
<g id="a_node38"><a xlink:href="a00011.html#afa5616fcf36352f0af085bb5f1ac3686" target="_top" xlink:title="discovery_attach_adapter">
<polygon fill="none" stroke="black" points="631.5,-96 631.5,-115 759.5,-115 759.5,-96 631.5,-96"/>
<text text-anchor="middle" x="695.5" y="-103" font-family="Helvetica,sans-Serif" font-size="10.00">discovery_attach_adapter</text>
</a>
</g>
</g>
<!-- Node37&#45;&gt;Node38 -->
<g id="edge38" class="edge"><title>Node37&#45;&gt;Node38</title>
<path fill="none" stroke="midnightblue" d="M592.221,-104.271C605.096,-104.426 618.613,-104.588 631.448,-104.743"/>
<polygon fill="midnightblue" stroke="midnightblue" points="592.099,-100.77 582.058,-104.149 592.015,-107.769 592.099,-100.77"/>
</g>
<!-- Node39 -->
<g id="node39" class="node"><title>Node39</title>
<g id="a_node39"><a xlink:href="a00064.html#a247f5a01789cd6bd85a2f1238d36c29c" target="_top" xlink:title="hpd_adapter_attach">
<polygon fill="none" stroke="black" points="798,-97 798,-116 900,-116 900,-97 798,-97"/>
<text text-anchor="middle" x="849" y="-104" font-family="Helvetica,sans-Serif" font-size="10.00">hpd_adapter_attach</text>
</a>
</g>
</g>
<!-- Node38&#45;&gt;Node39 -->
<g id="edge39" class="edge"><title>Node38&#45;&gt;Node39</title>
<path fill="none" stroke="midnightblue" d="M770.024,-105.985C779.422,-106.047 788.866,-106.11 797.776,-106.168"/>
<polygon fill="midnightblue" stroke="midnightblue" points="769.895,-102.484 759.872,-105.918 769.848,-109.484 769.895,-102.484"/>
</g>
<!-- Node39&#45;&gt;Node36 -->
<g id="edge40" class="edge"><title>Node39&#45;&gt;Node36</title>
<path fill="none" stroke="midnightblue" d="M910.268,-114.644C919.056,-115.832 928.111,-117.056 936.915,-118.245"/>
<polygon fill="midnightblue" stroke="midnightblue" points="910.485,-111.142 900.106,-113.271 909.547,-118.079 910.485,-111.142"/>
</g>
<!-- Node41 -->
<g id="node41" class="node"><title>Node41</title>
<g id="a_node41"><a xlink:href="a00011.html#a8d6472e9a8006949786f5975d5b02648" target="_top" xlink:title="discovery_detach_device">
<polygon fill="none" stroke="black" points="463.5,-50 463.5,-69 590.5,-69 590.5,-50 463.5,-50"/>
<text text-anchor="middle" x="527" y="-57" font-family="Helvetica,sans-Serif" font-size="10.00">discovery_detach_device</text>
</a>
</g>
</g>
<!-- Node40&#45;&gt;Node41 -->
<g id="edge42" class="edge"><title>Node40&#45;&gt;Node41</title>
<path fill="none" stroke="midnightblue" d="M425.133,-59.5C437.649,-59.5 450.786,-59.5 463.287,-59.5"/>
<polygon fill="midnightblue" stroke="midnightblue" points="424.793,-56.0001 414.793,-59.5 424.793,-63.0001 424.793,-56.0001"/>
</g>
<!-- Node43 -->
<g id="node43" class="node"><title>Node43</title>
<g id="a_node43"><a xlink:href="a00067.html#ab3279e57e3faeb9689b5b60283103ef2" target="_top" xlink:title="event_inform_adapter\l_detached">
<polygon fill="none" stroke="black" points="472,-0.5 472,-30.5 582,-30.5 582,-0.5 472,-0.5"/>
<text text-anchor="start" x="480" y="-18.5" font-family="Helvetica,sans-Serif" font-size="10.00">event_inform_adapter</text>
<text text-anchor="middle" x="527" y="-7.5" font-family="Helvetica,sans-Serif" font-size="10.00">_detached</text>
</a>
</g>
</g>
<!-- Node40&#45;&gt;Node43 -->
<g id="edge44" class="edge"><title>Node40&#45;&gt;Node43</title>
<path fill="none" stroke="midnightblue" d="M424.826,-42.6441C440.345,-38.4806 456.834,-34.0567 471.897,-30.0154"/>
<polygon fill="midnightblue" stroke="midnightblue" points="423.545,-39.3641 414.793,-45.3359 425.359,-46.125 423.545,-39.3641"/>
</g>
<!-- Node42 -->
<g id="node42" class="node"><title>Node42</title>
<g id="a_node42"><a xlink:href="a00064.html#a228c00929674efd7d29edec9043b2da6" target="_top" xlink:title="hpd_device_detach">
<polygon fill="none" stroke="black" points="645,-50 645,-69 746,-69 746,-50 645,-50"/>
<text text-anchor="middle" x="695.5" y="-57" font-family="Helvetica,sans-Serif" font-size="10.00">hpd_device_detach</text>
</a>
</g>
</g>
<!-- Node41&#45;&gt;Node42 -->
<g id="edge43" class="edge"><title>Node41&#45;&gt;Node42</title>
<path fill="none" stroke="midnightblue" d="M601.112,-59.5C615.931,-59.5 631.184,-59.5 644.957,-59.5"/>
<polygon fill="midnightblue" stroke="midnightblue" points="600.947,-56.0001 590.947,-59.5 600.946,-63.0001 600.947,-56.0001"/>
</g>
<!-- Node44 -->
<g id="node44" class="node"><title>Node44</title>
<g id="a_node44"><a xlink:href="a00011.html#adb9f3d73fc28b0ec1c15d72b03db7239" target="_top" xlink:title="discovery_detach_adapter">
<polygon fill="none" stroke="black" points="630,-6 630,-25 761,-25 761,-6 630,-6"/>
<text text-anchor="middle" x="695.5" y="-13" font-family="Helvetica,sans-Serif" font-size="10.00">discovery_detach_adapter</text>
</a>
</g>
</g>
<!-- Node43&#45;&gt;Node44 -->
<g id="edge45" class="edge"><title>Node43&#45;&gt;Node44</title>
<path fill="none" stroke="midnightblue" d="M592.281,-15.5C604.646,-15.5 617.602,-15.5 629.975,-15.5"/>
<polygon fill="midnightblue" stroke="midnightblue" points="592.058,-12.0001 582.058,-15.5 592.058,-19.0001 592.058,-12.0001"/>
</g>
<!-- Node45 -->
<g id="node45" class="node"><title>Node45</title>
<g id="a_node45"><a xlink:href="a00064.html#ace6bdcd24107e5a84d35a2dc90d3c58e" target="_top" xlink:title="hpd_adapter_detach">
<polygon fill="none" stroke="black" points="797,-6 797,-25 901,-25 901,-6 797,-6"/>
<text text-anchor="middle" x="849" y="-13" font-family="Helvetica,sans-Serif" font-size="10.00">hpd_adapter_detach</text>
</a>
</g>
</g>
<!-- Node44&#45;&gt;Node45 -->
<g id="edge46" class="edge"><title>Node44&#45;&gt;Node45</title>
<path fill="none" stroke="midnightblue" d="M771.294,-15.5C779.93,-15.5 788.584,-15.5 796.805,-15.5"/>
<polygon fill="midnightblue" stroke="midnightblue" points="771.189,-12.0001 761.189,-15.5 771.189,-19.0001 771.189,-12.0001"/>
</g>
<!-- Node46 -->
<g id="node46" class="node"><title>Node46</title>
<g id="a_node46"><a xlink:href="a00012.html#a51ee1d39c3be7ad828e223b971bd1a96" target="_top" xlink:title="hpd_demo_adapter_stop">
<polygon fill="none" stroke="black" points="937.5,-6 937.5,-25 1060.5,-25 1060.5,-6 937.5,-6"/>
<text text-anchor="middle" x="999" y="-13" font-family="Helvetica,sans-Serif" font-size="10.00">hpd_demo_adapter_stop</text>
</a>
</g>
</g>
<!-- Node45&#45;&gt;Node46 -->
<g id="edge47" class="edge"><title>Node45&#45;&gt;Node46</title>
<path fill="none" stroke="midnightblue" d="M911.586,-15.5C920.097,-15.5 928.834,-15.5 937.328,-15.5"/>
<polygon fill="midnightblue" stroke="midnightblue" points="911.348,-12.0001 901.348,-15.5 911.348,-19.0001 911.348,-12.0001"/>
</g>
<!-- Node47&#45;&gt;Node33 -->
<g id="edge50" class="edge"><title>Node47&#45;&gt;Node33</title>
<path fill="none" stroke="midnightblue" d="M243.129,-120.84C262.939,-118.749 286.469,-116.264 307.206,-114.075"/>
<polygon fill="midnightblue" stroke="midnightblue" points="242.721,-117.364 233.144,-121.895 243.456,-124.325 242.721,-117.364"/>
</g>
<!-- Node48&#45;&gt;Node40 -->
<g id="edge52" class="edge"><title>Node48&#45;&gt;Node40</title>
<path fill="none" stroke="midnightblue" d="M244.237,-79.6327C263.846,-76.2224 286.935,-72.2069 307.313,-68.6629"/>
<polygon fill="midnightblue" stroke="midnightblue" points="243.585,-76.1935 234.332,-81.3553 244.784,-83.09 243.585,-76.1935"/>
</g>
</g>
</svg>
        <g id="navigator" transform="translate(0 0)" fill="#404254">
                <rect fill="#f2f5e9" fill-opacity="0.5" stroke="#606060" stroke-width=".5" x="0" y="0" width="60" height="60"/>
                <use id="zoomplus" xlink:href="#zoomPlus" x="17" y="9" onmousedown="handleZoom(evt,'in')"/>
                <use id="zoomminus" xlink:href="#zoomMin" x="42" y="9" onmousedown="handleZoom(evt,'out')"/>
                <use id="reset" xlink:href="#resetDef" x="30" y="36" onmousedown="handleReset()"/>
                <g id="arrowUp" xlink:href="#dirArrow" transform="translate(30 24)" onmousedown="handlePan(0,-1)">
                  <use xlink:href="#rim" fill="#404040">
                        <set attributeName="fill" to="#808080" begin="arrowUp.mouseover" end="arrowUp.mouseout"/>
                  </use>
                  <path fill="none" stroke="white" stroke-width="1.5" d="M0,-3.0v7 M-2.5,-0.5L0,-3.0L2.5,-0.5"/>
                </g>
                <g id="arrowRight" xlink:href="#dirArrow" transform="rotate(90) translate(36 -43)" onmousedown="handlePan(1,0)">
                  <use xlink:href="#rim" fill="#404040">
                        <set attributeName="fill" to="#808080" begin="arrowRight.mouseover" end="arrowRight.mouseout"/>
                  </use>
                  <path fill="none" stroke="white" stroke-width="1.5" d="M0,-3.0v7 M-2.5,-0.5L0,-3.0L2.5,-0.5"/>
                </g>
                <g id="arrowDown" xlink:href="#dirArrow" transform="rotate(180) translate(-30 -48)" onmousedown="handlePan(0,1)">
                  <use xlink:href="#rim" fill="#404040">
                        <set attributeName="fill" to="#808080" begin="arrowDown.mouseover" end="arrowDown.mouseout"/>
                  </use>
                  <path fill="none" stroke="white" stroke-width="1.5" d="M0,-3.0v7 M-2.5,-0.5L0,-3.0L2.5,-0.5"/>
                </g>
                <g id="arrowLeft" xlink:href="#dirArrow" transform="rotate(270) translate(-36 17)" onmousedown="handlePan(-1,0)">
                  <use xlink:href="#rim" fill="#404040">
                        <set attributeName="fill" to="#808080" begin="arrowLeft.mouseover" end="arrowLeft.mouseout"/>
                  </use>
                  <path fill="none" stroke="white" stroke-width="1.5" d="M0,-3.0v7 M-2.5,-0.5L0,-3.0L2.5,-0.5"/>
                </g>
        </g>
        <svg viewBox="0 0 15 15" width="100%" height="30px" preserveAspectRatio="xMaxYMin meet">
         <g id="arrow_out" transform="scale(0.3 0.3)">
          <a xlink:href="a00011_ae1a000b225c8b3f365c2cec8362b8483_icgraph_org.svg" target="_base">
           <rect id="button" ry="5" rx="5" y="6" x="6" height="38" width="38"
                fill="#f2f5e9" fill-opacity="0.5" stroke="#606060" stroke-width="1.0"/>
           <path id="arrow"
             d="M 11.500037,31.436501 C 11.940474,20.09759 22.043105,11.32322 32.158766,21.979434 L 37.068811,17.246167 C 37.068811,17.246167 37.088388,32 37.088388,32 L 22.160133,31.978069 C 22.160133,31.978069 26.997745,27.140456 26.997745,27.140456 C 18.528582,18.264221 13.291696,25.230495 11.500037,31.436501 z"
             style="fill:#404040;"/>
          </a>
         </g>
        </svg>
</svg>
