<?xml version="1.0" encoding="UTF-8" standalone="no"?>
<!DOCTYPE svg PUBLIC "-//W3C//DTD SVG 1.1//EN"
 "http://www.w3.org/Graphics/SVG/1.1/DTD/svg11.dtd">
<!-- Generated by graphviz version 2.38.0 (20140413.2041)
 -->
<!-- Title: hpd_device_free Pages: 1 -->
<svg width="424pt" height="28pt"
 viewBox="0.00 0.00 424.00 28.00" xmlns="http://www.w3.org/2000/svg" xmlns:xlink="http://www.w3.org/1999/xlink">
<g id="graph0" class="graph" transform="scale(1 1) rotate(0) translate(4 24)">
<title>hpd_device_free</title>
<!-- Node1 -->
<g id="node1" class="node"><title>Node1</title>
<polygon fill="#bfbfbf" stroke="black" points="0,-0.5 0,-19.5 88,-19.5 88,-0.5 0,-0.5"/>
<text text-anchor="middle" x="44" y="-7.5" font-family="Helvetica,sans-Serif" font-size="10.00">hpd_device_free</text>
</g>
<!-- Node2 -->
<g id="node2" class="node"><title>Node2</title>
<g id="a_node2"><a xlink:href="a00013.html#abfc239c18fce4bcc601e14074ddfabf8" target="_top" xlink:title="[create_service] ">
<polygon fill="none" stroke="black" points="124,-0.5 124,-19.5 261,-19.5 261,-0.5 124,-0.5"/>
<text text-anchor="middle" x="192.5" y="-7.5" font-family="Helvetica,sans-Serif" font-size="10.00">demo_adapter_create_lamp</text>
</a>
</g>
</g>
<!-- Node1&#45;&gt;Node2 -->
<g id="edge1" class="edge"><title>Node1&#45;&gt;Node2</title>
<path fill="none" stroke="midnightblue" d="M98.4265,-10C106.712,-10 115.364,-10 123.912,-10"/>
<polygon fill="midnightblue" stroke="midnightblue" points="98.1625,-6.5001 88.1625,-10 98.1624,-13.5001 98.1625,-6.5001"/>
</g>
<!-- Node3 -->
<g id="node3" class="node"><title>Node3</title>
<g id="a_node3"><a xlink:href="a00013.html#a9f84d5de2ac16bde89480bd48efdff51" target="_top" xlink:title="[create_lamp] ">
<polygon fill="none" stroke="black" points="297,-0.5 297,-19.5 416,-19.5 416,-0.5 297,-0.5"/>
<text text-anchor="middle" x="356.5" y="-7.5" font-family="Helvetica,sans-Serif" font-size="10.00">demo_adapter_on_start</text>
</a>
</g>
</g>
<!-- Node2&#45;&gt;Node3 -->
<g id="edge2" class="edge"><title>Node2&#45;&gt;Node3</title>
<path fill="none" stroke="midnightblue" d="M271.281,-10C279.853,-10 288.473,-10 296.757,-10"/>
<polygon fill="midnightblue" stroke="midnightblue" points="271.264,-6.5001 261.264,-10 271.264,-13.5001 271.264,-6.5001"/>
</g>
</g>
</svg>
