<?xml version="1.0" encoding="UTF-8" standalone="no"?>
<!DOCTYPE svg PUBLIC "-//W3C//DTD SVG 1.1//EN"
 "http://www.w3.org/Graphics/SVG/1.1/DTD/svg11.dtd">
<!-- Generated by graphviz version 2.38.0 (20140413.2041)
 -->
<!-- Title: rest_json_add_configuration Pages: 1 -->
<svg width="1990pt" height="838pt"
 viewBox="0.00 0.00 1990.00 837.53" xmlns="http://www.w3.org/2000/svg" xmlns:xlink="http://www.w3.org/1999/xlink">
<g id="graph0" class="graph" transform="scale(1 1) rotate(0) translate(4 833.528)">
<title>rest_json_add_configuration</title>
<!-- Node1 -->
<g id="node1" class="node"><title>Node1</title>
<polygon fill="#bfbfbf" stroke="black" points="0,-626.972 0,-645.972 138,-645.972 138,-626.972 0,-626.972"/>
<text text-anchor="middle" x="69" y="-633.972" font-family="Helvetica,sans-Serif" font-size="10.00">rest_json_add_configuration</text>
</g>
<!-- Node2 -->
<g id="node2" class="node"><title>Node2</title>
<g id="a_node2"><a xlink:href="a00096.html#ae4e968e97aed037e4fa91cd31ae27a42" target="_top" xlink:title="rest_json_add">
<polygon fill="none" stroke="black" points="1609,-171.972 1609,-190.972 1686,-190.972 1686,-171.972 1609,-171.972"/>
<text text-anchor="middle" x="1647.5" y="-178.972" font-family="Helvetica,sans-Serif" font-size="10.00">rest_json_add</text>
</a>
</g>
</g>
<!-- Node1&#45;&gt;Node2 -->
<g id="edge1" class="edge"><title>Node1&#45;&gt;Node2</title>
<path fill="none" stroke="midnightblue" d="M79.0735,-646.075C114.57,-682.552 248.864,-810.472 386.5,-810.472 386.5,-810.472 386.5,-810.472 1316,-810.472 1416.8,-810.472 1471.44,-863.458 1542,-791.472 1629.76,-701.942 1516.07,-337.476 1578,-228.472 1586.05,-214.31 1600.32,-203.496 1613.77,-195.832"/>
<polygon fill="midnightblue" stroke="midnightblue" points="1615.65,-198.795 1622.86,-191.028 1612.38,-192.607 1615.65,-198.795"/>
</g>
<!-- Node3 -->
<g id="node3" class="node"><title>Node3</title>
<g id="a_node3"><a xlink:href="a00096.html#a99b3728ca81ef813ed208afd6de9a9b3" target="_top" xlink:title="rest_json_add_adapters">
<polygon fill="none" stroke="black" points="174,-452.972 174,-471.972 294,-471.972 294,-452.972 174,-452.972"/>
<text text-anchor="middle" x="234" y="-459.972" font-family="Helvetica,sans-Serif" font-size="10.00">rest_json_add_adapters</text>
</a>
</g>
</g>
<!-- Node1&#45;&gt;Node3 -->
<g id="edge2" class="edge"><title>Node1&#45;&gt;Node3</title>
<path fill="none" stroke="midnightblue" d="M78.9958,-626.869C105.428,-598.653 183.116,-515.723 216.949,-479.607"/>
<polygon fill="midnightblue" stroke="midnightblue" points="219.549,-481.951 223.831,-472.26 214.44,-477.165 219.549,-481.951"/>
</g>
<!-- Node4 -->
<g id="node4" class="node"><title>Node4</title>
<g id="a_node4"><a xlink:href="a00096.html#a640b87b4cf374466c27940092542bbec" target="_top" xlink:title="rest_json_add_adapter">
<polygon fill="none" stroke="black" points="330,-190.972 330,-209.972 445,-209.972 445,-190.972 330,-190.972"/>
<text text-anchor="middle" x="387.5" y="-197.972" font-family="Helvetica,sans-Serif" font-size="10.00">rest_json_add_adapter</text>
</a>
</g>
</g>
<!-- Node3&#45;&gt;Node4 -->
<g id="edge3" class="edge"><title>Node3&#45;&gt;Node4</title>
<path fill="none" stroke="midnightblue" d="M240.572,-452.837C262.889,-414.241 346.052,-270.422 375.818,-218.945"/>
<polygon fill="midnightblue" stroke="midnightblue" points="378.902,-220.604 380.878,-210.195 372.842,-217.1 378.902,-220.604"/>
</g>
<!-- Node4&#45;&gt;Node2 -->
<g id="edge7" class="edge"><title>Node4&#45;&gt;Node2</title>
<path fill="none" stroke="midnightblue" d="M398.37,-190.776C434.003,-156.843 560.62,-45.4723 687.5,-45.4723 687.5,-45.4723 687.5,-45.4723 840.5,-45.4723 1153.31,-45.4723 1261.41,35.7953 1542,-102.472 1562.87,-112.756 1559.85,-125.918 1578,-140.472 1590.53,-150.519 1605.75,-159.871 1618.66,-167.099"/>
<polygon fill="midnightblue" stroke="midnightblue" points="1617.12,-170.248 1627.58,-171.965 1620.48,-164.103 1617.12,-170.248"/>
</g>
<!-- Node5 -->
<g id="node5" class="node"><title>Node5</title>
<g id="a_node5"><a xlink:href="a00075.html#afd02a1458a4f43210ef9ad2ca1cd92b2" target="_top" xlink:title="[id_t functions] ">
<polygon fill="none" stroke="black" points="1264.5,-705.972 1264.5,-724.972 1365.5,-724.972 1365.5,-705.972 1264.5,-705.972"/>
<text text-anchor="middle" x="1315" y="-712.972" font-family="Helvetica,sans-Serif" font-size="10.00">hpd_adapter_get_id</text>
</a>
</g>
</g>
<!-- Node4&#45;&gt;Node5 -->
<g id="edge4" class="edge"><title>Node4&#45;&gt;Node5</title>
<path fill="none" stroke="midnightblue" d="M389.623,-210.001C398.116,-277.229 458.307,-677.472 687.5,-677.472 687.5,-677.472 687.5,-677.472 993,-677.472 1084.76,-677.472 1190.25,-692.973 1254.5,-704.174"/>
<polygon fill="midnightblue" stroke="midnightblue" points="1253.99,-707.639 1264.45,-705.932 1255.21,-700.746 1253.99,-707.639"/>
</g>
<!-- Node8 -->
<g id="node8" class="node"><title>Node8</title>
<g id="a_node8"><a xlink:href="a00096.html#afde08d12e91a7aeff9f4a4691a0f5f6b" target="_top" xlink:title="rest_json_add_attr">
<polygon fill="none" stroke="black" points="1429.5,-111.972 1429.5,-130.972 1526.5,-130.972 1526.5,-111.972 1429.5,-111.972"/>
<text text-anchor="middle" x="1478" y="-118.972" font-family="Helvetica,sans-Serif" font-size="10.00">rest_json_add_attr</text>
</a>
</g>
</g>
<!-- Node4&#45;&gt;Node8 -->
<g id="edge8" class="edge"><title>Node4&#45;&gt;Node8</title>
<path fill="none" stroke="midnightblue" d="M390.547,-190.722C397.349,-160.99 422.192,-71.0911 481,-31.4723 557.628,20.1518 595.104,-7.47226 687.5,-7.47226 687.5,-7.47226 687.5,-7.47226 840.5,-7.47226 1081.89,-7.47226 1143.9,-26.584 1378,-85.4723 1400.96,-91.2472 1426.01,-100.386 1445.17,-108.01"/>
<polygon fill="midnightblue" stroke="midnightblue" points="1444.02,-111.323 1454.61,-111.833 1446.65,-104.835 1444.02,-111.323"/>
</g>
<!-- Node10 -->
<g id="node10" class="node"><title>Node10</title>
<g id="a_node10"><a xlink:href="a00096.html#ad6d08cc22d78268f5dc0b229af37c54c" target="_top" xlink:title="rest_json_add_devices">
<polygon fill="none" stroke="black" points="481,-190.972 481,-209.972 597,-209.972 597,-190.972 481,-190.972"/>
<text text-anchor="middle" x="539" y="-197.972" font-family="Helvetica,sans-Serif" font-size="10.00">rest_json_add_devices</text>
</a>
</g>
</g>
<!-- Node4&#45;&gt;Node10 -->
<g id="edge11" class="edge"><title>Node4&#45;&gt;Node10</title>
<path fill="none" stroke="midnightblue" d="M445.02,-200.472C453.459,-200.472 462.228,-200.472 470.861,-200.472"/>
<polygon fill="midnightblue" stroke="midnightblue" points="470.904,-203.972 480.904,-200.472 470.904,-196.972 470.904,-203.972"/>
</g>
<!-- Node6 -->
<g id="node6" class="node"><title>Node6</title>
<g id="a_node6"><a xlink:href="a00020.html#adbc376ab1130f0595796c540f0b5e515" target="_top" xlink:title="discovery_find_adapter">
<polygon fill="none" stroke="black" points="1419.5,-724.972 1419.5,-743.972 1536.5,-743.972 1536.5,-724.972 1419.5,-724.972"/>
<text text-anchor="middle" x="1478" y="-731.972" font-family="Helvetica,sans-Serif" font-size="10.00">discovery_find_adapter</text>
</a>
</g>
</g>
<!-- Node5&#45;&gt;Node6 -->
<g id="edge5" class="edge"><title>Node5&#45;&gt;Node6</title>
<path fill="none" stroke="midnightblue" d="M1365.62,-721.328C1379.43,-722.958 1394.67,-724.757 1409.33,-726.487"/>
<polygon fill="midnightblue" stroke="midnightblue" points="1409.02,-729.974 1419.37,-727.671 1409.84,-723.023 1409.02,-729.974"/>
</g>
<!-- Node7 -->
<g id="node7" class="node"><title>Node7</title>
<g id="a_node7"><a xlink:href="a00078.html#af7f7554fd8858506bf900674f0dd07be" target="_top" xlink:title="discovery_get_adapter_id">
<polygon fill="none" stroke="black" points="1414,-762.972 1414,-781.972 1542,-781.972 1542,-762.972 1414,-762.972"/>
<text text-anchor="middle" x="1478" y="-769.972" font-family="Helvetica,sans-Serif" font-size="10.00">discovery_get_adapter_id</text>
</a>
</g>
</g>
<!-- Node5&#45;&gt;Node7 -->
<g id="edge6" class="edge"><title>Node5&#45;&gt;Node7</title>
<path fill="none" stroke="midnightblue" d="M1339.18,-725.041C1358.92,-733.05 1388.12,-744.566 1414,-753.472 1420.39,-755.67 1427.18,-757.866 1433.86,-759.944"/>
<polygon fill="midnightblue" stroke="midnightblue" points="1432.91,-763.313 1443.5,-762.89 1434.96,-756.619 1432.91,-763.313"/>
</g>
<!-- Node8&#45;&gt;Node2 -->
<g id="edge10" class="edge"><title>Node8&#45;&gt;Node2</title>
<path fill="none" stroke="midnightblue" d="M1505.54,-130.979C1533.76,-141.087 1578.57,-157.141 1610.08,-168.427"/>
<polygon fill="midnightblue" stroke="midnightblue" points="1609.21,-171.833 1619.81,-171.91 1611.57,-165.243 1609.21,-171.833"/>
</g>
<!-- Node9 -->
<g id="node9" class="node"><title>Node9</title>
<g id="a_node9"><a xlink:href="a00056.html#a234fa0db60fda58722702273bf7e82a2" target="_top" xlink:title="hpd_pair_get">
<polygon fill="none" stroke="black" points="1611.5,-111.972 1611.5,-130.972 1683.5,-130.972 1683.5,-111.972 1611.5,-111.972"/>
<text text-anchor="middle" x="1647.5" y="-118.972" font-family="Helvetica,sans-Serif" font-size="10.00">hpd_pair_get</text>
</a>
</g>
</g>
<!-- Node8&#45;&gt;Node9 -->
<g id="edge9" class="edge"><title>Node8&#45;&gt;Node9</title>
<path fill="none" stroke="midnightblue" d="M1526.55,-121.472C1549.95,-121.472 1578.02,-121.472 1601.12,-121.472"/>
<polygon fill="midnightblue" stroke="midnightblue" points="1601.35,-124.972 1611.35,-121.472 1601.35,-117.972 1601.35,-124.972"/>
</g>
<!-- Node11 -->
<g id="node11" class="node"><title>Node11</title>
<g id="a_node11"><a xlink:href="a00096.html#a41c2f37e46c89b97a3b4f5bb4e8ede49" target="_top" xlink:title="rest_json_add_device">
<polygon fill="none" stroke="black" points="633,-190.972 633,-209.972 744,-209.972 744,-190.972 633,-190.972"/>
<text text-anchor="middle" x="688.5" y="-197.972" font-family="Helvetica,sans-Serif" font-size="10.00">rest_json_add_device</text>
</a>
</g>
</g>
<!-- Node10&#45;&gt;Node11 -->
<g id="edge12" class="edge"><title>Node10&#45;&gt;Node11</title>
<path fill="none" stroke="midnightblue" d="M597.027,-200.472C605.327,-200.472 613.924,-200.472 622.369,-200.472"/>
<polygon fill="midnightblue" stroke="midnightblue" points="622.563,-203.972 632.563,-200.472 622.563,-196.972 622.563,-203.972"/>
</g>
<!-- Node11&#45;&gt;Node2 -->
<g id="edge16" class="edge"><title>Node11&#45;&gt;Node2</title>
<path fill="none" stroke="midnightblue" d="M732.19,-190.963C790.386,-178.851 898.027,-159.472 991,-159.472 991,-159.472 991,-159.472 1316,-159.472 1416.77,-159.472 1534.45,-169.782 1598.67,-176.286"/>
<polygon fill="midnightblue" stroke="midnightblue" points="1598.58,-179.795 1608.88,-177.334 1599.29,-172.831 1598.58,-179.795"/>
</g>
<!-- Node11&#45;&gt;Node8 -->
<g id="edge17" class="edge"><title>Node11&#45;&gt;Node8</title>
<path fill="none" stroke="midnightblue" d="M703.191,-190.898C744.53,-162.955 872.53,-83.4723 991,-83.4723 991,-83.4723 991,-83.4723 1151.5,-83.4723 1245.87,-83.4723 1354.61,-99.4263 1419.47,-110.659"/>
<polygon fill="midnightblue" stroke="midnightblue" points="1419.04,-114.137 1429.49,-112.419 1420.25,-107.243 1419.04,-114.137"/>
</g>
<!-- Node12 -->
<g id="node12" class="node"><title>Node12</title>
<g id="a_node12"><a xlink:href="a00075.html#a7d1ad44eb960013e7af0d33f8fed3f6b" target="_top" xlink:title="[hpd_adapter_t functions] ">
<polygon fill="none" stroke="black" points="1266,-633.972 1266,-652.972 1364,-652.972 1364,-633.972 1266,-633.972"/>
<text text-anchor="middle" x="1315" y="-640.972" font-family="Helvetica,sans-Serif" font-size="10.00">hpd_device_get_id</text>
</a>
</g>
</g>
<!-- Node11&#45;&gt;Node12 -->
<g id="edge13" class="edge"><title>Node11&#45;&gt;Node12</title>
<path fill="none" stroke="midnightblue" d="M697.642,-210.237C736.257,-255.986 906.506,-451.428 1085,-559.472 1142.33,-594.173 1216.28,-618.07 1264.4,-631.261"/>
<polygon fill="midnightblue" stroke="midnightblue" points="1263.7,-634.696 1274.27,-633.913 1265.52,-627.936 1263.7,-634.696"/>
</g>
<!-- Node15 -->
<g id="node15" class="node"><title>Node15</title>
<g id="a_node15"><a xlink:href="a00096.html#acedf1d82686baa037179bbc8eff51293" target="_top" xlink:title="rest_json_add_services">
<polygon fill="none" stroke="black" points="780,-231.972 780,-250.972 899,-250.972 899,-231.972 780,-231.972"/>
<text text-anchor="middle" x="839.5" y="-238.972" font-family="Helvetica,sans-Serif" font-size="10.00">rest_json_add_services</text>
</a>
</g>
</g>
<!-- Node11&#45;&gt;Node15 -->
<g id="edge18" class="edge"><title>Node11&#45;&gt;Node15</title>
<path fill="none" stroke="midnightblue" d="M724.058,-209.982C744.858,-215.705 771.555,-223.051 793.931,-229.208"/>
<polygon fill="midnightblue" stroke="midnightblue" points="793.301,-232.665 803.872,-231.944 795.158,-225.916 793.301,-232.665"/>
</g>
<!-- Node13 -->
<g id="node13" class="node"><title>Node13</title>
<g id="a_node13"><a xlink:href="a00020.html#af178de2e51304e31fefe0ae13d2481ab" target="_top" xlink:title="discovery_find_device">
<polygon fill="none" stroke="black" points="1421.5,-648.972 1421.5,-667.972 1534.5,-667.972 1534.5,-648.972 1421.5,-648.972"/>
<text text-anchor="middle" x="1478" y="-655.972" font-family="Helvetica,sans-Serif" font-size="10.00">discovery_find_device</text>
</a>
</g>
</g>
<!-- Node12&#45;&gt;Node13 -->
<g id="edge14" class="edge"><title>Node12&#45;&gt;Node13</title>
<path fill="none" stroke="midnightblue" d="M1364.31,-647.973C1379.05,-649.346 1395.51,-650.88 1411.2,-652.342"/>
<polygon fill="midnightblue" stroke="midnightblue" points="1411.1,-655.847 1421.38,-653.29 1411.75,-648.877 1411.1,-655.847"/>
</g>
<!-- Node14 -->
<g id="node14" class="node"><title>Node14</title>
<g id="a_node14"><a xlink:href="a00078.html#a01d64284d4ff469a8dffa0260a92eea2" target="_top" xlink:title="discovery_get_device_id">
<polygon fill="none" stroke="black" points="1416,-686.972 1416,-705.972 1540,-705.972 1540,-686.972 1416,-686.972"/>
<text text-anchor="middle" x="1478" y="-693.972" font-family="Helvetica,sans-Serif" font-size="10.00">discovery_get_device_id</text>
</a>
</g>
</g>
<!-- Node12&#45;&gt;Node14 -->
<g id="edge15" class="edge"><title>Node12&#45;&gt;Node14</title>
<path fill="none" stroke="midnightblue" d="M1342.52,-653.004C1362.18,-659.989 1389.67,-669.588 1414,-677.472 1420.64,-679.626 1427.71,-681.834 1434.61,-683.949"/>
<polygon fill="midnightblue" stroke="midnightblue" points="1433.96,-687.409 1444.55,-686.962 1435.99,-680.71 1433.96,-687.409"/>
</g>
<!-- Node16 -->
<g id="node16" class="node"><title>Node16</title>
<g id="a_node16"><a xlink:href="a00096.html#aa6c7dd70ed7b9b3a371a58ed6122b940" target="_top" xlink:title="rest_json_add_service">
<polygon fill="none" stroke="black" points="935,-256.972 935,-275.972 1049,-275.972 1049,-256.972 935,-256.972"/>
<text text-anchor="middle" x="992" y="-263.972" font-family="Helvetica,sans-Serif" font-size="10.00">rest_json_add_service</text>
</a>
</g>
</g>
<!-- Node15&#45;&gt;Node16 -->
<g id="edge19" class="edge"><title>Node15&#45;&gt;Node16</title>
<path fill="none" stroke="midnightblue" d="M897.827,-250.995C906.639,-252.459 915.799,-253.98 924.784,-255.473"/>
<polygon fill="midnightblue" stroke="midnightblue" points="924.389,-258.955 934.827,-257.141 925.536,-252.05 924.389,-258.955"/>
</g>
<!-- Node16&#45;&gt;Node2 -->
<g id="edge23" class="edge"><title>Node16&#45;&gt;Node2</title>
<path fill="none" stroke="midnightblue" d="M1049.01,-270.444C1124.16,-274.867 1261.62,-279.779 1378,-266.472 1452.34,-257.973 1471.1,-252.375 1542,-228.472 1568.85,-219.42 1598.17,-205.89 1618.91,-195.668"/>
<polygon fill="midnightblue" stroke="midnightblue" points="1620.68,-198.692 1628.06,-191.092 1617.55,-192.431 1620.68,-198.692"/>
</g>
<!-- Node16&#45;&gt;Node8 -->
<g id="edge52" class="edge"><title>Node16&#45;&gt;Node8</title>
<path fill="none" stroke="midnightblue" d="M1000.97,-256.811C1015.65,-239.74 1048.78,-204.443 1085,-187.472 1195.35,-135.771 1339.96,-123.991 1419.08,-121.659"/>
<polygon fill="midnightblue" stroke="midnightblue" points="1419.42,-125.152 1429.33,-121.399 1419.24,-118.154 1419.42,-125.152"/>
</g>
<!-- Node17 -->
<g id="node17" class="node"><title>Node17</title>
<g id="a_node17"><a xlink:href="a00075.html#a5537ebbc8e732a33b7cf084b86b61a4e" target="_top" xlink:title="[hpd_device_t functions] ">
<polygon fill="none" stroke="black" points="1264.5,-579.972 1264.5,-598.972 1365.5,-598.972 1365.5,-579.972 1264.5,-579.972"/>
<text text-anchor="middle" x="1315" y="-586.972" font-family="Helvetica,sans-Serif" font-size="10.00">hpd_service_get_id</text>
</a>
</g>
</g>
<!-- Node16&#45;&gt;Node17 -->
<g id="edge20" class="edge"><title>Node16&#45;&gt;Node17</title>
<path fill="none" stroke="midnightblue" d="M993.708,-276.081C996.907,-312.512 1013.17,-443.596 1085,-513.472 1130.74,-557.969 1203.14,-576.421 1254.27,-584.068"/>
<polygon fill="midnightblue" stroke="midnightblue" points="1253.81,-587.537 1264.2,-585.458 1254.78,-580.605 1253.81,-587.537"/>
</g>
<!-- Node20 -->
<g id="node20" class="node"><title>Node20</title>
<g id="a_node20"><a xlink:href="a00034.html#ae30c92f3bb2ebffcbb82054ad60c1ac5" target="_top" xlink:title="hpd_rest_url_create">
<polygon fill="none" stroke="black" points="1099.5,-484.972 1099.5,-503.972 1201.5,-503.972 1201.5,-484.972 1099.5,-484.972"/>
<text text-anchor="middle" x="1150.5" y="-491.972" font-family="Helvetica,sans-Serif" font-size="10.00">hpd_rest_url_create</text>
</a>
</g>
</g>
<!-- Node16&#45;&gt;Node20 -->
<g id="edge24" class="edge"><title>Node16&#45;&gt;Node20</title>
<path fill="none" stroke="midnightblue" d="M999.525,-275.979C1023.34,-310.671 1105.8,-430.812 1137.22,-476.577"/>
<polygon fill="midnightblue" stroke="midnightblue" points="1134.4,-478.661 1142.95,-484.925 1140.17,-474.7 1134.4,-478.661"/>
</g>
<!-- Node26 -->
<g id="node26" class="node"><title>Node26</title>
<g id="a_node26"><a xlink:href="a00012.html#adf46370d9c211c3be22966b4606ba9b0" target="_top" xlink:title="free">
<polygon fill="none" stroke="black" points="1918,-408.972 1918,-427.972 1951,-427.972 1951,-408.972 1918,-408.972"/>
<text text-anchor="middle" x="1934.5" y="-415.972" font-family="Helvetica,sans-Serif" font-size="10.00">free</text>
</a>
</g>
</g>
<!-- Node16&#45;&gt;Node26 -->
<g id="edge49" class="edge"><title>Node16&#45;&gt;Node26</title>
<path fill="none" stroke="midnightblue" d="M1025.02,-276.013C1082.38,-292.239 1206.74,-323.472 1314,-323.472 1314,-323.472 1314,-323.472 1648.5,-323.472 1739.83,-323.472 1766.87,-322.907 1851,-358.472 1875.5,-368.83 1899.65,-387.685 1915.42,-401.503"/>
<polygon fill="midnightblue" stroke="midnightblue" points="1913.5,-404.484 1923.28,-408.575 1918.19,-399.282 1913.5,-404.484"/>
</g>
<!-- Node37 -->
<g id="node37" class="node"><title>Node37</title>
<g id="a_node37"><a xlink:href="a00075.html#a7a562b3767c599041b288d9aeb5cf487" target="_top" xlink:title="[model foreach loops] ">
<polygon fill="none" stroke="black" points="1090.5,-196.972 1090.5,-215.972 1210.5,-215.972 1210.5,-196.972 1090.5,-196.972"/>
<text text-anchor="middle" x="1150.5" y="-203.972" font-family="Helvetica,sans-Serif" font-size="10.00">hpd_action_get_method</text>
</a>
</g>
</g>
<!-- Node16&#45;&gt;Node37 -->
<g id="edge50" class="edge"><title>Node16&#45;&gt;Node37</title>
<path fill="none" stroke="midnightblue" d="M1015.15,-256.863C1033.69,-248.932 1060.9,-237.548 1085,-228.472 1093.2,-225.385 1102.05,-222.244 1110.49,-219.337"/>
<polygon fill="midnightblue" stroke="midnightblue" points="1111.8,-222.587 1120.14,-216.051 1109.55,-215.96 1111.8,-222.587"/>
</g>
<!-- Node39 -->
<g id="node39" class="node"><title>Node39</title>
<g id="a_node39"><a xlink:href="a00096.html#a29dd9572008f1f083b15f6867f0dfad4" target="_top" xlink:title="rest_json_add_parameters">
<polygon fill="none" stroke="black" points="1085,-237.972 1085,-256.972 1216,-256.972 1216,-237.972 1085,-237.972"/>
<text text-anchor="middle" x="1150.5" y="-244.972" font-family="Helvetica,sans-Serif" font-size="10.00">rest_json_add_parameters</text>
</a>
</g>
</g>
<!-- Node16&#45;&gt;Node39 -->
<g id="edge53" class="edge"><title>Node16&#45;&gt;Node39</title>
<path fill="none" stroke="midnightblue" d="M1049.06,-259.666C1057.38,-258.656 1066.07,-257.602 1074.7,-256.554"/>
<polygon fill="midnightblue" stroke="midnightblue" points="1075.27,-260.01 1084.78,-255.33 1074.43,-253.061 1075.27,-260.01"/>
</g>
<!-- Node18 -->
<g id="node18" class="node"><title>Node18</title>
<g id="a_node18"><a xlink:href="a00020.html#a6ca3b5d1e545bf48e3f2b57c3e323831" target="_top" xlink:title="discovery_find_service">
<polygon fill="none" stroke="black" points="1420,-610.972 1420,-629.972 1536,-629.972 1536,-610.972 1420,-610.972"/>
<text text-anchor="middle" x="1478" y="-617.972" font-family="Helvetica,sans-Serif" font-size="10.00">discovery_find_service</text>
</a>
</g>
</g>
<!-- Node17&#45;&gt;Node18 -->
<g id="edge21" class="edge"><title>Node17&#45;&gt;Node18</title>
<path fill="none" stroke="midnightblue" d="M1365.62,-599.026C1382.07,-602.194 1400.55,-605.752 1417.66,-609.046"/>
<polygon fill="midnightblue" stroke="midnightblue" points="1417.06,-612.496 1427.54,-610.95 1418.39,-605.622 1417.06,-612.496"/>
</g>
<!-- Node19 -->
<g id="node19" class="node"><title>Node19</title>
<g id="a_node19"><a xlink:href="a00078.html#a0c24b895ea333fedf685a75e27e64c37" target="_top" xlink:title="discovery_get_service_id">
<polygon fill="none" stroke="black" points="1414.5,-572.972 1414.5,-591.972 1541.5,-591.972 1541.5,-572.972 1414.5,-572.972"/>
<text text-anchor="middle" x="1478" y="-579.972" font-family="Helvetica,sans-Serif" font-size="10.00">discovery_get_service_id</text>
</a>
</g>
</g>
<!-- Node17&#45;&gt;Node19 -->
<g id="edge22" class="edge"><title>Node17&#45;&gt;Node19</title>
<path fill="none" stroke="midnightblue" d="M1365.62,-587.315C1377.79,-586.786 1391.08,-586.208 1404.1,-585.642"/>
<polygon fill="midnightblue" stroke="midnightblue" points="1404.62,-589.123 1414.46,-585.192 1404.31,-582.129 1404.62,-589.123"/>
</g>
<!-- Node20&#45;&gt;Node5 -->
<g id="edge40" class="edge"><title>Node20&#45;&gt;Node5</title>
<path fill="none" stroke="midnightblue" d="M1155.96,-504.28C1168.55,-531.312 1206.39,-608.462 1252,-662.472 1263.8,-676.449 1279.48,-689.816 1292.12,-699.63"/>
<polygon fill="midnightblue" stroke="midnightblue" points="1290.21,-702.575 1300.3,-705.82 1294.44,-696.994 1290.21,-702.575"/>
</g>
<!-- Node20&#45;&gt;Node12 -->
<g id="edge39" class="edge"><title>Node20&#45;&gt;Node12</title>
<path fill="none" stroke="midnightblue" d="M1158.16,-503.994C1173.11,-524.865 1211.21,-575.413 1252,-608.472 1261.73,-616.358 1273.47,-623.484 1284.1,-629.216"/>
<polygon fill="midnightblue" stroke="midnightblue" points="1282.6,-632.379 1293.09,-633.88 1285.82,-626.166 1282.6,-632.379"/>
</g>
<!-- Node20&#45;&gt;Node17 -->
<g id="edge38" class="edge"><title>Node20&#45;&gt;Node17</title>
<path fill="none" stroke="midnightblue" d="M1167.35,-504.077C1180.7,-512.394 1200.11,-525.016 1216,-537.472 1233.08,-550.865 1233.16,-559.694 1252,-570.472 1255.74,-572.611 1259.74,-574.534 1263.85,-576.259"/>
<polygon fill="midnightblue" stroke="midnightblue" points="1262.96,-579.664 1273.55,-579.932 1265.44,-573.118 1262.96,-579.664"/>
</g>
<!-- Node21 -->
<g id="node21" class="node"><title>Node21</title>
<g id="a_node21"><a xlink:href="a00075.html#a43dfdac4b9fea4a35e2709a22778250e" target="_top" xlink:title="hpd_service_get_adapter">
<polygon fill="none" stroke="black" points="1252.5,-541.972 1252.5,-560.972 1377.5,-560.972 1377.5,-541.972 1252.5,-541.972"/>
<text text-anchor="middle" x="1315" y="-548.972" font-family="Helvetica,sans-Serif" font-size="10.00">hpd_service_get_adapter</text>
</a>
</g>
</g>
<!-- Node20&#45;&gt;Node21 -->
<g id="edge25" class="edge"><title>Node20&#45;&gt;Node21</title>
<path fill="none" stroke="midnightblue" d="M1178.7,-504.013C1205.65,-513.466 1247.12,-528.012 1277.04,-538.509"/>
<polygon fill="midnightblue" stroke="midnightblue" points="1276.12,-541.893 1286.71,-541.901 1278.43,-535.288 1276.12,-541.893"/>
</g>
<!-- Node20&#45;&gt;Node26 -->
<g id="edge48" class="edge"><title>Node20&#45;&gt;Node26</title>
<path fill="none" stroke="midnightblue" d="M1157.32,-484.744C1170.83,-463.134 1206.68,-411.249 1252,-388.472 1341.99,-343.243 1376.28,-361.472 1477,-361.472 1477,-361.472 1477,-361.472 1648.5,-361.472 1738.9,-361.472 1763.7,-357.007 1851,-380.472 1871.3,-385.93 1892.84,-396.01 1908.81,-404.418"/>
<polygon fill="midnightblue" stroke="midnightblue" points="1907.52,-407.697 1917.98,-409.38 1910.85,-401.541 1907.52,-407.697"/>
</g>
<!-- Node27 -->
<g id="node27" class="node"><title>Node27</title>
<g id="a_node27"><a xlink:href="a00075.html#a73e474ba372ed4e985f1f3cb186c3e0b" target="_top" xlink:title="hpd_service_get_device">
<polygon fill="none" stroke="black" points="1254,-465.972 1254,-484.972 1376,-484.972 1376,-465.972 1254,-465.972"/>
<text text-anchor="middle" x="1315" y="-472.972" font-family="Helvetica,sans-Serif" font-size="10.00">hpd_service_get_device</text>
</a>
</g>
</g>
<!-- Node20&#45;&gt;Node27 -->
<g id="edge31" class="edge"><title>Node20&#45;&gt;Node27</title>
<path fill="none" stroke="midnightblue" d="M1201.58,-488.617C1214.86,-487.064 1229.46,-485.357 1243.6,-483.704"/>
<polygon fill="midnightblue" stroke="midnightblue" points="1244.27,-487.149 1253.8,-482.511 1243.46,-480.196 1244.27,-487.149"/>
</g>
<!-- Node32 -->
<g id="node32" class="node"><title>Node32</title>
<g id="a_node32"><a xlink:href="a00075.html#a9a00d602f27e6ec01adf931e9daaeb42" target="_top" xlink:title="hpd_device_id_free">
<polygon fill="none" stroke="black" points="1597,-481.972 1597,-500.972 1698,-500.972 1698,-481.972 1597,-481.972"/>
<text text-anchor="middle" x="1647.5" y="-488.972" font-family="Helvetica,sans-Serif" font-size="10.00">hpd_device_id_free</text>
</a>
</g>
</g>
<!-- Node20&#45;&gt;Node32 -->
<g id="edge41" class="edge"><title>Node20&#45;&gt;Node32</title>
<path fill="none" stroke="midnightblue" d="M1201.88,-494.633C1247.78,-494.742 1317.44,-494.811 1378,-494.472 1449.6,-494.072 1531.94,-493.072 1586.36,-492.336"/>
<polygon fill="midnightblue" stroke="midnightblue" points="1586.57,-495.834 1596.52,-492.197 1586.47,-488.834 1586.57,-495.834"/>
</g>
<!-- Node34 -->
<g id="node34" class="node"><title>Node34</title>
<g id="a_node34"><a xlink:href="a00075.html#a6dfca5e2723ca3a11d12fe545e69923e" target="_top" xlink:title="hpd_adapter_id_free">
<polygon fill="none" stroke="black" points="1595.5,-389.972 1595.5,-408.972 1699.5,-408.972 1699.5,-389.972 1595.5,-389.972"/>
<text text-anchor="middle" x="1647.5" y="-396.972" font-family="Helvetica,sans-Serif" font-size="10.00">hpd_adapter_id_free</text>
</a>
</g>
</g>
<!-- Node20&#45;&gt;Node34 -->
<g id="edge44" class="edge"><title>Node20&#45;&gt;Node34</title>
<path fill="none" stroke="midnightblue" d="M1160.3,-484.747C1176.49,-467.64 1212.93,-432.638 1252,-418.472 1363.97,-377.878 1505.62,-383.624 1585.12,-391.514"/>
<polygon fill="midnightblue" stroke="midnightblue" points="1585.13,-395.035 1595.44,-392.586 1585.86,-388.072 1585.13,-395.035"/>
</g>
<!-- Node36 -->
<g id="node36" class="node"><title>Node36</title>
<g id="a_node36"><a xlink:href="a00034.html#a987ed5bf58c296df5d6f2afb93d44d4f" target="_top" xlink:title="rest_url_encode">
<polygon fill="none" stroke="black" points="1272,-427.972 1272,-446.972 1358,-446.972 1358,-427.972 1272,-427.972"/>
<text text-anchor="middle" x="1315" y="-434.972" font-family="Helvetica,sans-Serif" font-size="10.00">rest_url_encode</text>
</a>
</g>
</g>
<!-- Node20&#45;&gt;Node36 -->
<g id="edge47" class="edge"><title>Node20&#45;&gt;Node36</title>
<path fill="none" stroke="midnightblue" d="M1175.71,-484.818C1195.97,-476.861 1225.7,-465.464 1252,-456.472 1258.37,-454.294 1265.15,-452.097 1271.79,-450.009"/>
<polygon fill="midnightblue" stroke="midnightblue" points="1272.86,-453.343 1281.37,-447.042 1270.79,-446.657 1272.86,-453.343"/>
</g>
<!-- Node22 -->
<g id="node22" class="node"><title>Node22</title>
<g id="a_node22"><a xlink:href="a00020.html#a6f562c4265080ac8d026ac15e9d042b1" target="_top" xlink:title="discovery_get_service\l_adapter">
<polygon fill="none" stroke="black" points="1421,-523.472 1421,-553.472 1535,-553.472 1535,-523.472 1421,-523.472"/>
<text text-anchor="start" x="1429" y="-541.472" font-family="Helvetica,sans-Serif" font-size="10.00">discovery_get_service</text>
<text text-anchor="middle" x="1478" y="-530.472" font-family="Helvetica,sans-Serif" font-size="10.00">_adapter</text>
</a>
</g>
</g>
<!-- Node21&#45;&gt;Node22 -->
<g id="edge26" class="edge"><title>Node21&#45;&gt;Node22</title>
<path fill="none" stroke="midnightblue" d="M1377.79,-546.483C1388.54,-545.615 1399.76,-544.709 1410.63,-543.831"/>
<polygon fill="midnightblue" stroke="midnightblue" points="1411.23,-547.294 1420.92,-543.001 1410.67,-540.317 1411.23,-547.294"/>
</g>
<!-- Node23 -->
<g id="node23" class="node"><title>Node23</title>
<g id="a_node23"><a xlink:href="a00080.html#a1915dc6bbbb6b1a2a587723caa22069d" target="_top" xlink:title="discovery_alloc_aid">
<polygon fill="none" stroke="black" points="1596.5,-541.972 1596.5,-560.972 1698.5,-560.972 1698.5,-541.972 1596.5,-541.972"/>
<text text-anchor="middle" x="1647.5" y="-548.972" font-family="Helvetica,sans-Serif" font-size="10.00">discovery_alloc_aid</text>
</a>
</g>
</g>
<!-- Node22&#45;&gt;Node23 -->
<g id="edge27" class="edge"><title>Node22&#45;&gt;Node23</title>
<path fill="none" stroke="midnightblue" d="M1535.24,-542.837C1551.61,-544.108 1569.56,-545.501 1586.17,-546.79"/>
<polygon fill="midnightblue" stroke="midnightblue" points="1586.07,-550.293 1596.32,-547.577 1586.62,-543.314 1586.07,-550.293"/>
</g>
<!-- Node24 -->
<g id="node24" class="node"><title>Node24</title>
<g id="a_node24"><a xlink:href="a00080.html#af2f553cfc3af4678b87a8fc75f35a5c6" target="_top" xlink:title="HPD_E_ALLOC: id might be partially updated. ">
<polygon fill="none" stroke="black" points="1887,-541.972 1887,-560.972 1982,-560.972 1982,-541.972 1887,-541.972"/>
<text text-anchor="middle" x="1934.5" y="-548.972" font-family="Helvetica,sans-Serif" font-size="10.00">discovery_set_aid</text>
</a>
</g>
</g>
<!-- Node23&#45;&gt;Node24 -->
<g id="edge28" class="edge"><title>Node23&#45;&gt;Node24</title>
<path fill="none" stroke="midnightblue" d="M1690.97,-560.984C1709.86,-564.749 1732.43,-568.618 1753,-570.472 1796.38,-574.384 1807.72,-575.391 1851,-570.472 1863.91,-569.005 1877.73,-566.287 1890.31,-563.356"/>
<polygon fill="midnightblue" stroke="midnightblue" points="1891.19,-566.743 1900.08,-560.98 1889.54,-559.941 1891.19,-566.743"/>
</g>
<!-- Node25 -->
<g id="node25" class="node"><title>Node25</title>
<g id="a_node25"><a xlink:href="a00080.html#a2bd026e829a41663810ae68fa3797987" target="_top" xlink:title="discovery_free_aid">
<polygon fill="none" stroke="black" points="1753,-541.972 1753,-560.972 1851,-560.972 1851,-541.972 1753,-541.972"/>
<text text-anchor="middle" x="1802" y="-548.972" font-family="Helvetica,sans-Serif" font-size="10.00">discovery_free_aid</text>
</a>
</g>
</g>
<!-- Node23&#45;&gt;Node25 -->
<g id="edge29" class="edge"><title>Node23&#45;&gt;Node25</title>
<path fill="none" stroke="midnightblue" d="M1698.86,-551.472C1712.82,-551.472 1728.1,-551.472 1742.48,-551.472"/>
<polygon fill="midnightblue" stroke="midnightblue" points="1742.77,-554.972 1752.77,-551.472 1742.77,-547.972 1742.77,-554.972"/>
</g>
<!-- Node25&#45;&gt;Node26 -->
<g id="edge30" class="edge"><title>Node25&#45;&gt;Node26</title>
<path fill="none" stroke="midnightblue" d="M1834.6,-541.943C1840.38,-539.396 1846.12,-536.267 1851,-532.472 1884.91,-506.121 1911.15,-462.209 1924.26,-437.276"/>
<polygon fill="midnightblue" stroke="midnightblue" points="1927.49,-438.645 1928.92,-428.147 1921.26,-435.463 1927.49,-438.645"/>
</g>
<!-- Node28 -->
<g id="node28" class="node"><title>Node28</title>
<g id="a_node28"><a xlink:href="a00020.html#a13836bde11385c514c661edc269fe122" target="_top" xlink:title="discovery_get_service\l_device">
<polygon fill="none" stroke="black" points="1421,-435.472 1421,-465.472 1535,-465.472 1535,-435.472 1421,-435.472"/>
<text text-anchor="start" x="1429" y="-453.472" font-family="Helvetica,sans-Serif" font-size="10.00">discovery_get_service</text>
<text text-anchor="middle" x="1478" y="-442.472" font-family="Helvetica,sans-Serif" font-size="10.00">_device</text>
</a>
</g>
</g>
<!-- Node27&#45;&gt;Node28 -->
<g id="edge32" class="edge"><title>Node27&#45;&gt;Node28</title>
<path fill="none" stroke="midnightblue" d="M1376.41,-466.092C1387.66,-464.345 1399.47,-462.512 1410.88,-460.74"/>
<polygon fill="midnightblue" stroke="midnightblue" points="1411.43,-464.196 1420.78,-459.203 1410.36,-457.279 1411.43,-464.196"/>
</g>
<!-- Node29 -->
<g id="node29" class="node"><title>Node29</title>
<g id="a_node29"><a xlink:href="a00080.html#aebd10ac1c18be51340c39d6d5a54e6d1" target="_top" xlink:title="discovery_alloc_did">
<polygon fill="none" stroke="black" points="1596.5,-440.972 1596.5,-459.972 1698.5,-459.972 1698.5,-440.972 1596.5,-440.972"/>
<text text-anchor="middle" x="1647.5" y="-447.972" font-family="Helvetica,sans-Serif" font-size="10.00">discovery_alloc_did</text>
</a>
</g>
</g>
<!-- Node28&#45;&gt;Node29 -->
<g id="edge33" class="edge"><title>Node28&#45;&gt;Node29</title>
<path fill="none" stroke="midnightblue" d="M1535.24,-450.472C1551.61,-450.472 1569.56,-450.472 1586.17,-450.472"/>
<polygon fill="midnightblue" stroke="midnightblue" points="1586.32,-453.972 1596.32,-450.472 1586.32,-446.972 1586.32,-453.972"/>
</g>
<!-- Node30 -->
<g id="node30" class="node"><title>Node30</title>
<g id="a_node30"><a xlink:href="a00080.html#acd5e8c2bf3e761abc7e2fd2294238a74" target="_top" xlink:title="HPD_E_ALLOC: id might be partially updated. ">
<polygon fill="none" stroke="black" points="1754.5,-503.972 1754.5,-522.972 1849.5,-522.972 1849.5,-503.972 1754.5,-503.972"/>
<text text-anchor="middle" x="1802" y="-510.972" font-family="Helvetica,sans-Serif" font-size="10.00">discovery_set_did</text>
</a>
</g>
</g>
<!-- Node29&#45;&gt;Node30 -->
<g id="edge34" class="edge"><title>Node29&#45;&gt;Node30</title>
<path fill="none" stroke="midnightblue" d="M1683.6,-459.986C1694.51,-463.407 1706.44,-467.633 1717,-472.472 1734.05,-480.283 1736.22,-486.102 1753,-494.472 1756.83,-496.385 1760.91,-498.246 1765.01,-500.008"/>
<polygon fill="midnightblue" stroke="midnightblue" points="1763.91,-503.341 1774.49,-503.917 1766.58,-496.869 1763.91,-503.341"/>
</g>
<!-- Node31 -->
<g id="node31" class="node"><title>Node31</title>
<g id="a_node31"><a xlink:href="a00080.html#ae1a000b225c8b3f365c2cec8362b8483" target="_top" xlink:title="discovery_free_did">
<polygon fill="none" stroke="black" points="1753,-427.972 1753,-446.972 1851,-446.972 1851,-427.972 1753,-427.972"/>
<text text-anchor="middle" x="1802" y="-434.972" font-family="Helvetica,sans-Serif" font-size="10.00">discovery_free_did</text>
</a>
</g>
</g>
<!-- Node29&#45;&gt;Node31 -->
<g id="edge36" class="edge"><title>Node29&#45;&gt;Node31</title>
<path fill="none" stroke="midnightblue" d="M1698.86,-446.18C1712.82,-444.989 1728.1,-443.687 1742.48,-442.461"/>
<polygon fill="midnightblue" stroke="midnightblue" points="1743.1,-445.921 1752.77,-441.584 1742.51,-438.946 1743.1,-445.921"/>
</g>
<!-- Node30&#45;&gt;Node24 -->
<g id="edge35" class="edge"><title>Node30&#45;&gt;Node24</title>
<path fill="none" stroke="midnightblue" d="M1835.93,-523.061C1852.62,-527.922 1873.09,-533.881 1890.96,-539.085"/>
<polygon fill="midnightblue" stroke="midnightblue" points="1890,-542.451 1900.58,-541.886 1891.96,-535.73 1890,-542.451"/>
</g>
<!-- Node31&#45;&gt;Node26 -->
<g id="edge37" class="edge"><title>Node31&#45;&gt;Node26</title>
<path fill="none" stroke="midnightblue" d="M1851.22,-430.451C1870.34,-427.669 1891.55,-424.581 1907.64,-422.237"/>
<polygon fill="midnightblue" stroke="midnightblue" points="1908.49,-425.65 1917.88,-420.746 1907.48,-418.723 1908.49,-425.65"/>
</g>
<!-- Node33 -->
<g id="node33" class="node"><title>Node33</title>
<g id="a_node33"><a xlink:href="a00020.html#ae1a000b225c8b3f365c2cec8362b8483" target="_top" xlink:title="discovery_free_did">
<polygon fill="none" stroke="black" points="1753,-465.972 1753,-484.972 1851,-484.972 1851,-465.972 1753,-465.972"/>
<text text-anchor="middle" x="1802" y="-472.972" font-family="Helvetica,sans-Serif" font-size="10.00">discovery_free_did</text>
</a>
</g>
</g>
<!-- Node32&#45;&gt;Node33 -->
<g id="edge42" class="edge"><title>Node32&#45;&gt;Node33</title>
<path fill="none" stroke="midnightblue" d="M1698.01,-486.278C1712.29,-484.78 1727.99,-483.132 1742.74,-481.584"/>
<polygon fill="midnightblue" stroke="midnightblue" points="1743.2,-485.056 1752.78,-480.532 1742.47,-478.094 1743.2,-485.056"/>
</g>
<!-- Node33&#45;&gt;Node26 -->
<g id="edge43" class="edge"><title>Node33&#45;&gt;Node26</title>
<path fill="none" stroke="midnightblue" d="M1828.02,-465.868C1835.45,-462.935 1843.58,-459.645 1851,-456.472 1870.45,-448.151 1892.17,-438.115 1908.44,-430.447"/>
<polygon fill="midnightblue" stroke="midnightblue" points="1910.26,-433.459 1917.8,-426.016 1907.26,-427.133 1910.26,-433.459"/>
</g>
<!-- Node35 -->
<g id="node35" class="node"><title>Node35</title>
<g id="a_node35"><a xlink:href="a00020.html#a2bd026e829a41663810ae68fa3797987" target="_top" xlink:title="discovery_free_aid">
<polygon fill="none" stroke="black" points="1753,-389.972 1753,-408.972 1851,-408.972 1851,-389.972 1753,-389.972"/>
<text text-anchor="middle" x="1802" y="-396.972" font-family="Helvetica,sans-Serif" font-size="10.00">discovery_free_aid</text>
</a>
</g>
</g>
<!-- Node34&#45;&gt;Node35 -->
<g id="edge45" class="edge"><title>Node34&#45;&gt;Node35</title>
<path fill="none" stroke="midnightblue" d="M1699.7,-399.472C1713.49,-399.472 1728.51,-399.472 1742.65,-399.472"/>
<polygon fill="midnightblue" stroke="midnightblue" points="1742.77,-402.972 1752.77,-399.472 1742.77,-395.972 1742.77,-402.972"/>
</g>
<!-- Node35&#45;&gt;Node26 -->
<g id="edge46" class="edge"><title>Node35&#45;&gt;Node26</title>
<path fill="none" stroke="midnightblue" d="M1851.22,-406.493C1870.34,-409.276 1891.55,-412.364 1907.64,-414.708"/>
<polygon fill="midnightblue" stroke="midnightblue" points="1907.48,-418.221 1917.88,-416.198 1908.49,-411.294 1907.48,-418.221"/>
</g>
<!-- Node38 -->
<g id="node38" class="node"><title>Node38</title>
<g id="a_node38"><a xlink:href="a00078.html#a16b425a49499b003e1f23b1cf2ea923d" target="_top" xlink:title="discovery_get_action\l_method">
<polygon fill="none" stroke="black" points="1260.5,-188.472 1260.5,-218.472 1369.5,-218.472 1369.5,-188.472 1260.5,-188.472"/>
<text text-anchor="start" x="1268.5" y="-206.472" font-family="Helvetica,sans-Serif" font-size="10.00">discovery_get_action</text>
<text text-anchor="middle" x="1315" y="-195.472" font-family="Helvetica,sans-Serif" font-size="10.00">_method</text>
</a>
</g>
</g>
<!-- Node37&#45;&gt;Node38 -->
<g id="edge51" class="edge"><title>Node37&#45;&gt;Node38</title>
<path fill="none" stroke="midnightblue" d="M1210.63,-205.381C1223.44,-205.144 1237.06,-204.893 1250.05,-204.653"/>
<polygon fill="midnightblue" stroke="midnightblue" points="1250.38,-208.148 1260.31,-204.463 1250.25,-201.149 1250.38,-208.148"/>
</g>
<!-- Node40 -->
<g id="node40" class="node"><title>Node40</title>
<g id="a_node40"><a xlink:href="a00096.html#a33e7e5cafd18916279922d40ee76d6fc" target="_top" xlink:title="rest_json_add_parameter">
<polygon fill="none" stroke="black" points="1252,-237.972 1252,-256.972 1378,-256.972 1378,-237.972 1252,-237.972"/>
<text text-anchor="middle" x="1315" y="-244.972" font-family="Helvetica,sans-Serif" font-size="10.00">rest_json_add_parameter</text>
</a>
</g>
</g>
<!-- Node39&#45;&gt;Node40 -->
<g id="edge54" class="edge"><title>Node39&#45;&gt;Node40</title>
<path fill="none" stroke="midnightblue" d="M1216.19,-247.472C1224.56,-247.472 1233.17,-247.472 1241.66,-247.472"/>
<polygon fill="midnightblue" stroke="midnightblue" points="1241.91,-250.972 1251.91,-247.472 1241.91,-243.972 1241.91,-250.972"/>
</g>
<!-- Node40&#45;&gt;Node2 -->
<g id="edge58" class="edge"><title>Node40&#45;&gt;Node2</title>
<path fill="none" stroke="midnightblue" d="M1363.7,-237.946C1426.36,-225.434 1535.75,-203.588 1598.54,-191.051"/>
<polygon fill="midnightblue" stroke="midnightblue" points="1599.45,-194.437 1608.57,-189.047 1598.08,-187.573 1599.45,-194.437"/>
</g>
<!-- Node40&#45;&gt;Node8 -->
<g id="edge59" class="edge"><title>Node40&#45;&gt;Node8</title>
<path fill="none" stroke="midnightblue" d="M1356.04,-237.862C1363.65,-235.135 1371.32,-231.716 1378,-227.472 1379.26,-226.67 1433.26,-168.593 1460.96,-138.757"/>
<polygon fill="midnightblue" stroke="midnightblue" points="1463.77,-140.872 1468.01,-131.162 1458.64,-136.11 1463.77,-140.872"/>
</g>
<!-- Node41 -->
<g id="node41" class="node"><title>Node41</title>
<g id="a_node41"><a xlink:href="a00075.html#a40fef652549700bdbd8050b2e0023722" target="_top" xlink:title="[hpd_service_t functions] ">
<polygon fill="none" stroke="black" points="1421.5,-275.972 1421.5,-294.972 1534.5,-294.972 1534.5,-275.972 1421.5,-275.972"/>
<text text-anchor="middle" x="1478" y="-282.972" font-family="Helvetica,sans-Serif" font-size="10.00">hpd_parameter_get_id</text>
</a>
</g>
</g>
<!-- Node40&#45;&gt;Node41 -->
<g id="edge55" class="edge"><title>Node40&#45;&gt;Node41</title>
<path fill="none" stroke="midnightblue" d="M1356.63,-257.061C1377.97,-262.098 1404.31,-268.316 1426.91,-273.649"/>
<polygon fill="midnightblue" stroke="midnightblue" points="1426.13,-277.061 1436.67,-275.952 1427.74,-270.249 1426.13,-277.061"/>
</g>
<!-- Node42 -->
<g id="node42" class="node"><title>Node42</title>
<g id="a_node42"><a xlink:href="a00020.html#aac3897ffde835ef54f9289037159307f" target="_top" xlink:title="discovery_find_parameter">
<polygon fill="none" stroke="black" points="1583.5,-275.972 1583.5,-294.972 1711.5,-294.972 1711.5,-275.972 1583.5,-275.972"/>
<text text-anchor="middle" x="1647.5" y="-282.972" font-family="Helvetica,sans-Serif" font-size="10.00">discovery_find_parameter</text>
</a>
</g>
</g>
<!-- Node41&#45;&gt;Node42 -->
<g id="edge56" class="edge"><title>Node41&#45;&gt;Node42</title>
<path fill="none" stroke="midnightblue" d="M1534.78,-285.472C1547.09,-285.472 1560.32,-285.472 1573.21,-285.472"/>
<polygon fill="midnightblue" stroke="midnightblue" points="1573.45,-288.972 1583.45,-285.472 1573.45,-281.972 1573.45,-288.972"/>
</g>
<!-- Node43 -->
<g id="node43" class="node"><title>Node43</title>
<g id="a_node43"><a xlink:href="a00078.html#a38635fc999dfcdb5d1273a3aed037fbf" target="_top" xlink:title="discovery_get_parameter_id">
<polygon fill="none" stroke="black" points="1578,-237.972 1578,-256.972 1717,-256.972 1717,-237.972 1578,-237.972"/>
<text text-anchor="middle" x="1647.5" y="-244.972" font-family="Helvetica,sans-Serif" font-size="10.00">discovery_get_parameter_id</text>
</a>
</g>
</g>
<!-- Node41&#45;&gt;Node43 -->
<g id="edge57" class="edge"><title>Node41&#45;&gt;Node43</title>
<path fill="none" stroke="midnightblue" d="M1521.27,-275.883C1543.57,-270.824 1571.12,-264.573 1594.7,-259.223"/>
<polygon fill="midnightblue" stroke="midnightblue" points="1595.56,-262.618 1604.54,-256.992 1594.01,-255.792 1595.56,-262.618"/>
</g>
</g>
</svg>
