<?xml version="1.0" encoding="UTF-8" standalone="no"?>
<!DOCTYPE svg PUBLIC "-//W3C//DTD SVG 1.1//EN"
 "http://www.w3.org/Graphics/SVG/1.1/DTD/svg11.dtd">
<!-- Generated by graphviz version 2.38.0 (20140413.2041)
 -->
<!-- Title: discovery_get_device_adapter Pages: 1 -->
<svg width="710pt" height="66pt"
 viewBox="0.00 0.00 710.00 66.00" xmlns="http://www.w3.org/2000/svg" xmlns:xlink="http://www.w3.org/1999/xlink">
<g id="graph0" class="graph" transform="scale(1 1) rotate(0) translate(4 62)">
<title>discovery_get_device_adapter</title>
<!-- Node1 -->
<g id="node1" class="node"><title>Node1</title>
<polygon fill="#bfbfbf" stroke="black" points="0,-14 0,-44 111,-44 111,-14 0,-14"/>
<text text-anchor="start" x="8" y="-32" font-family="Helvetica,sans-Serif" font-size="10.00">discovery_get_device</text>
<text text-anchor="middle" x="55.5" y="-21" font-family="Helvetica,sans-Serif" font-size="10.00">_adapter</text>
</g>
<!-- Node2 -->
<g id="node2" class="node"><title>Node2</title>
<g id="a_node2"><a xlink:href="a00079.html#a50b0521e638f13c35f0d7f4860d8064d" target="_top" xlink:title="hpd_device_get_adapter">
<polygon fill="none" stroke="black" points="147,-19.5 147,-38.5 269,-38.5 269,-19.5 147,-19.5"/>
<text text-anchor="middle" x="208" y="-26.5" font-family="Helvetica,sans-Serif" font-size="10.00">hpd_device_get_adapter</text>
</a>
</g>
</g>
<!-- Node1&#45;&gt;Node2 -->
<g id="edge1" class="edge"><title>Node1&#45;&gt;Node2</title>
<path fill="none" stroke="midnightblue" d="M121.464,-29C129.926,-29 138.565,-29 146.942,-29"/>
<polygon fill="midnightblue" stroke="midnightblue" points="121.26,-25.5001 111.26,-29 121.26,-32.5001 121.26,-25.5001"/>
</g>
<!-- Node3 -->
<g id="node3" class="node"><title>Node3</title>
<g id="a_node3"><a xlink:href="a00014.html#a47420cd34ff6783c48a215b947bca110" target="_top" xlink:title="demo_app_on_device">
<polygon fill="none" stroke="black" points="305,-19.5 305,-38.5 416,-38.5 416,-19.5 305,-19.5"/>
<text text-anchor="middle" x="360.5" y="-26.5" font-family="Helvetica,sans-Serif" font-size="10.00">demo_app_on_device</text>
</a>
</g>
</g>
<!-- Node2&#45;&gt;Node3 -->
<g id="edge2" class="edge"><title>Node2&#45;&gt;Node3</title>
<path fill="none" stroke="midnightblue" d="M279.376,-29C287.976,-29 296.661,-29 304.98,-29"/>
<polygon fill="midnightblue" stroke="midnightblue" points="279.347,-25.5001 269.347,-29 279.347,-32.5001 279.347,-25.5001"/>
</g>
<!-- Node4 -->
<g id="node4" class="node"><title>Node4</title>
<g id="a_node4"><a xlink:href="a00014.html#a192157935b7f185b56921b919e981f3a" target="_top" xlink:title="demo_app_on_attach">
<polygon fill="none" stroke="black" points="453,-38.5 453,-57.5 563,-57.5 563,-38.5 453,-38.5"/>
<text text-anchor="middle" x="508" y="-45.5" font-family="Helvetica,sans-Serif" font-size="10.00">demo_app_on_attach</text>
</a>
</g>
</g>
<!-- Node3&#45;&gt;Node4 -->
<g id="edge3" class="edge"><title>Node3&#45;&gt;Node4</title>
<path fill="none" stroke="midnightblue" d="M426.01,-37.424C434.882,-38.5825 443.919,-39.7626 452.585,-40.8943"/>
<polygon fill="midnightblue" stroke="midnightblue" points="426.462,-33.9534 416.093,-36.129 425.555,-40.8944 426.462,-33.9534"/>
</g>
<!-- Node6 -->
<g id="node6" class="node"><title>Node6</title>
<g id="a_node6"><a xlink:href="a00014.html#a5bac6eb6e610cdc6e322879ee4eaf514" target="_top" xlink:title="demo_app_on_detach">
<polygon fill="none" stroke="black" points="452,-0.5 452,-19.5 564,-19.5 564,-0.5 452,-0.5"/>
<text text-anchor="middle" x="508" y="-7.5" font-family="Helvetica,sans-Serif" font-size="10.00">demo_app_on_detach</text>
</a>
</g>
</g>
<!-- Node3&#45;&gt;Node6 -->
<g id="edge5" class="edge"><title>Node3&#45;&gt;Node6</title>
<path fill="none" stroke="midnightblue" d="M426.018,-20.575C434.557,-19.4599 443.25,-18.3248 451.617,-17.2322"/>
<polygon fill="midnightblue" stroke="midnightblue" points="425.555,-17.1056 416.093,-21.871 426.462,-24.0466 425.555,-17.1056"/>
</g>
<!-- Node5 -->
<g id="node5" class="node"><title>Node5</title>
<g id="a_node5"><a xlink:href="a00014.html#aa8f03492cc097968d466bb5ea9a043d1" target="_top" xlink:title="demo_app_on_start">
<polygon fill="none" stroke="black" points="600,-19.5 600,-38.5 702,-38.5 702,-19.5 600,-19.5"/>
<text text-anchor="middle" x="651" y="-26.5" font-family="Helvetica,sans-Serif" font-size="10.00">demo_app_on_start</text>
</a>
</g>
</g>
<!-- Node4&#45;&gt;Node5 -->
<g id="edge4" class="edge"><title>Node4&#45;&gt;Node5</title>
<path fill="none" stroke="midnightblue" d="M573.171,-39.3528C582.161,-38.1414 591.29,-36.9113 599.966,-35.7421"/>
<polygon fill="midnightblue" stroke="midnightblue" points="572.554,-35.9043 563.111,-40.7084 573.489,-42.8416 572.554,-35.9043"/>
</g>
<!-- Node6&#45;&gt;Node5 -->
<g id="edge6" class="edge"><title>Node6&#45;&gt;Node5</title>
<path fill="none" stroke="midnightblue" d="M574.326,-18.8028C582.914,-19.96 591.605,-21.1312 599.885,-22.247"/>
<polygon fill="midnightblue" stroke="midnightblue" points="574.7,-15.3217 564.322,-17.4548 573.765,-22.259 574.7,-15.3217"/>
</g>
</g>
</svg>
