<?xml version="1.0" encoding="UTF-8" standalone="no"?>
<!DOCTYPE svg PUBLIC "-//W3C//DTD SVG 1.1//EN"
 "http://www.w3.org/Graphics/SVG/1.1/DTD/svg11.dtd">
<!-- Generated by graphviz version 2.38.0 (20140413.2041)
 -->
<!-- Title: hp_destroy Pages: 1 -->
<svg width="252pt" height="47pt"
 viewBox="0.00 0.00 252.00 47.00" xmlns="http://www.w3.org/2000/svg" xmlns:xlink="http://www.w3.org/1999/xlink">
<g id="graph0" class="graph" transform="scale(1 1) rotate(0) translate(4 43)">
<title>hp_destroy</title>
<!-- Node1 -->
<g id="node1" class="node"><title>Node1</title>
<polygon fill="#bfbfbf" stroke="black" points="0,-0.5 0,-19.5 65,-19.5 65,-0.5 0,-0.5"/>
<text text-anchor="middle" x="32.5" y="-7.5" font-family="Helvetica,sans-Serif" font-size="10.00">hp_destroy</text>
</g>
<!-- Node2 -->
<g id="node2" class="node"><title>Node2</title>
<g id="a_node2"><a xlink:href="a00007.html#a4a72a85de59013ac5e3e6ce45e8f7aee" target="_top" xlink:title="reset_buffers">
<polygon fill="none" stroke="black" points="101,-19.5 101,-38.5 175,-38.5 175,-19.5 101,-19.5"/>
<text text-anchor="middle" x="138" y="-26.5" font-family="Helvetica,sans-Serif" font-size="10.00">reset_buffers</text>
</a>
</g>
</g>
<!-- Node1&#45;&gt;Node2 -->
<g id="edge1" class="edge"><title>Node1&#45;&gt;Node2</title>
<path fill="none" stroke="midnightblue" d="M65.1158,-15.8039C73.2342,-17.2942 82.1358,-18.9283 90.8253,-20.5235"/>
<polygon fill="midnightblue" stroke="midnightblue" points="90.4012,-24.004 100.869,-22.3672 91.6652,-17.1191 90.4012,-24.004"/>
</g>
<!-- Node3 -->
<g id="node3" class="node"><title>Node3</title>
<g id="a_node3"><a xlink:href="a00006.html#adf46370d9c211c3be22966b4606ba9b0" target="_top" xlink:title="free">
<polygon fill="none" stroke="black" points="211,-0.5 211,-19.5 244,-19.5 244,-0.5 211,-0.5"/>
<text text-anchor="middle" x="227.5" y="-7.5" font-family="Helvetica,sans-Serif" font-size="10.00">free</text>
</a>
</g>
</g>
<!-- Node1&#45;&gt;Node3 -->
<g id="edge3" class="edge"><title>Node1&#45;&gt;Node3</title>
<path fill="none" stroke="midnightblue" d="M65.37,-10C103.048,-10 165.053,-10 200.144,-10"/>
<polygon fill="midnightblue" stroke="midnightblue" points="200.526,-13.5001 210.526,-10 200.526,-6.5001 200.526,-13.5001"/>
</g>
<!-- Node2&#45;&gt;Node3 -->
<g id="edge2" class="edge"><title>Node2&#45;&gt;Node3</title>
<path fill="none" stroke="midnightblue" d="M175.095,-21.1623C183.736,-19.2859 192.789,-17.3202 200.847,-15.5704"/>
<polygon fill="midnightblue" stroke="midnightblue" points="201.72,-18.9625 210.749,-13.4201 200.234,-12.1219 201.72,-18.9625"/>
</g>
</g>
</svg>
