<?xml version="1.0" encoding="UTF-8" standalone="no"?>
<!DOCTYPE svg PUBLIC "-//W3C//DTD SVG 1.1//EN"
 "http://www.w3.org/Graphics/SVG/1.1/DTD/svg11.dtd">
<!-- Generated by graphviz version 2.38.0 (20140413.2041)
 -->
<!-- Title: event_on_detached Pages: 1 -->
<svg width="312pt" height="47pt"
 viewBox="0.00 0.00 312.00 47.00" xmlns="http://www.w3.org/2000/svg" xmlns:xlink="http://www.w3.org/1999/xlink">
<g id="graph0" class="graph" transform="scale(1 1) rotate(0) translate(4 43)">
<title>event_on_detached</title>
<!-- Node1 -->
<g id="node1" class="node"><title>Node1</title>
<polygon fill="#bfbfbf" stroke="black" points="0,-19.5 0,-38.5 101,-38.5 101,-19.5 0,-19.5"/>
<text text-anchor="middle" x="50.5" y="-26.5" font-family="Helvetica,sans-Serif" font-size="10.00">event_on_detached</text>
</g>
<!-- Node2 -->
<g id="node2" class="node"><title>Node2</title>
<g id="a_node2"><a xlink:href="a00012.html#adf46370d9c211c3be22966b4606ba9b0" target="_top" xlink:title="free">
<polygon fill="none" stroke="black" points="271,-19.5 271,-38.5 304,-38.5 304,-19.5 271,-19.5"/>
<text text-anchor="middle" x="287.5" y="-26.5" font-family="Helvetica,sans-Serif" font-size="10.00">free</text>
</a>
</g>
</g>
<!-- Node1&#45;&gt;Node2 -->
<g id="edge1" class="edge"><title>Node1&#45;&gt;Node2</title>
<path fill="none" stroke="midnightblue" d="M101.05,-29C149.83,-29 222.415,-29 260.704,-29"/>
<polygon fill="midnightblue" stroke="midnightblue" points="260.984,-32.5001 270.984,-29 260.984,-25.5001 260.984,-32.5001"/>
</g>
<!-- Node3 -->
<g id="node3" class="node"><title>Node3</title>
<g id="a_node3"><a xlink:href="a00020.html#ae1a000b225c8b3f365c2cec8362b8483" target="_top" xlink:title="discovery_free_did">
<polygon fill="none" stroke="black" points="137,-0.5 137,-19.5 235,-19.5 235,-0.5 137,-0.5"/>
<text text-anchor="middle" x="186" y="-7.5" font-family="Helvetica,sans-Serif" font-size="10.00">discovery_free_did</text>
</a>
</g>
</g>
<!-- Node1&#45;&gt;Node3 -->
<g id="edge2" class="edge"><title>Node1&#45;&gt;Node3</title>
<path fill="none" stroke="midnightblue" d="M101.21,-21.9251C109.432,-20.755 118.024,-19.5322 126.439,-18.3346"/>
<polygon fill="midnightblue" stroke="midnightblue" points="127.172,-21.7655 136.579,-16.8913 126.186,-14.8354 127.172,-21.7655"/>
</g>
<!-- Node3&#45;&gt;Node2 -->
<g id="edge3" class="edge"><title>Node3&#45;&gt;Node2</title>
<path fill="none" stroke="midnightblue" d="M235.001,-19.1661C243.884,-20.8623 252.842,-22.5728 260.739,-24.0808"/>
<polygon fill="midnightblue" stroke="midnightblue" points="260.265,-27.5535 270.744,-25.9914 261.578,-20.6777 260.265,-27.5535"/>
</g>
</g>
</svg>
