<?xml version="1.0" encoding="UTF-8" standalone="no"?>
<!DOCTYPE svg PUBLIC "-//W3C//DTD SVG 1.1//EN"
 "http://www.w3.org/Graphics/SVG/1.1/DTD/svg11.dtd">
<!-- Generated by graphviz version 2.38.0 (20140413.2041)
 -->
<!-- Title: hpd_device_first_service Pages: 1 -->
<svg width="679pt" height="135pt"
 viewBox="0.00 0.00 679.00 135.00" xmlns="http://www.w3.org/2000/svg" xmlns:xlink="http://www.w3.org/1999/xlink">
<g id="graph0" class="graph" transform="scale(1 1) rotate(0) translate(4 131)">
<title>hpd_device_first_service</title>
<!-- Node1 -->
<g id="node1" class="node"><title>Node1</title>
<polygon fill="#bfbfbf" stroke="black" points="0,-63.5 0,-82.5 125,-82.5 125,-63.5 0,-63.5"/>
<text text-anchor="middle" x="62.5" y="-70.5" font-family="Helvetica,sans-Serif" font-size="10.00">hpd_device_first_service</text>
</g>
<!-- Node2 -->
<g id="node2" class="node"><title>Node2</title>
<g id="a_node2"><a xlink:href="a00011.html#af178de2e51304e31fefe0ae13d2481ab" target="_top" xlink:title="discovery_find_device">
<polygon fill="none" stroke="black" points="161.5,-107.5 161.5,-126.5 274.5,-126.5 274.5,-107.5 161.5,-107.5"/>
<text text-anchor="middle" x="218" y="-114.5" font-family="Helvetica,sans-Serif" font-size="10.00">discovery_find_device</text>
</a>
</g>
</g>
<!-- Node1&#45;&gt;Node2 -->
<g id="edge1" class="edge"><title>Node1&#45;&gt;Node2</title>
<path fill="none" stroke="midnightblue" d="M96.8072,-82.5473C119.436,-89.0339 149.579,-97.674 174.016,-104.679"/>
<polygon fill="midnightblue" stroke="midnightblue" points="173.18,-108.08 183.758,-107.471 175.109,-101.351 173.18,-108.08"/>
</g>
<!-- Node3 -->
<g id="node3" class="node"><title>Node3</title>
<g id="a_node3"><a xlink:href="a00059.html#a94b7a9d277ee25e386221477f0148531" target="_top" xlink:title="discovery_first_device\l_service">
<polygon fill="none" stroke="black" points="161,-58 161,-88 275,-88 275,-58 161,-58"/>
<text text-anchor="start" x="169" y="-76" font-family="Helvetica,sans-Serif" font-size="10.00">discovery_first_device</text>
<text text-anchor="middle" x="218" y="-65" font-family="Helvetica,sans-Serif" font-size="10.00">_service</text>
</a>
</g>
</g>
<!-- Node1&#45;&gt;Node3 -->
<g id="edge2" class="edge"><title>Node1&#45;&gt;Node3</title>
<path fill="none" stroke="midnightblue" d="M125.05,-73C133.47,-73 142.145,-73 150.646,-73"/>
<polygon fill="midnightblue" stroke="midnightblue" points="150.901,-76.5001 160.901,-73 150.901,-69.5001 150.901,-76.5001"/>
</g>
<!-- Node4 -->
<g id="node4" class="node"><title>Node4</title>
<g id="a_node4"><a xlink:href="a00011.html#ac0d919fcb7633d9bf5d99cc7ad39fe2e" target="_top" xlink:title="discovery_alloc_sid">
<polygon fill="none" stroke="black" points="167,-19.5 167,-38.5 269,-38.5 269,-19.5 167,-19.5"/>
<text text-anchor="middle" x="218" y="-26.5" font-family="Helvetica,sans-Serif" font-size="10.00">discovery_alloc_sid</text>
</a>
</g>
</g>
<!-- Node1&#45;&gt;Node4 -->
<g id="edge3" class="edge"><title>Node1&#45;&gt;Node4</title>
<path fill="none" stroke="midnightblue" d="M96.8072,-63.4527C119.436,-56.9661 149.579,-48.326 174.016,-41.3211"/>
<polygon fill="midnightblue" stroke="midnightblue" points="175.109,-44.6488 183.758,-38.5287 173.18,-37.9198 175.109,-44.6488"/>
</g>
<!-- Node5 -->
<g id="node5" class="node"><title>Node5</title>
<g id="a_node5"><a xlink:href="a00061.html#a9788f216196637a4e9c0a0110e81bab1" target="_top" xlink:title="discovery_set_sid">
<polygon fill="none" stroke="black" points="312.5,-38.5 312.5,-57.5 407.5,-57.5 407.5,-38.5 312.5,-38.5"/>
<text text-anchor="middle" x="360" y="-45.5" font-family="Helvetica,sans-Serif" font-size="10.00">discovery_set_sid</text>
</a>
</g>
</g>
<!-- Node4&#45;&gt;Node5 -->
<g id="edge4" class="edge"><title>Node4&#45;&gt;Node5</title>
<path fill="none" stroke="midnightblue" d="M269.148,-35.8058C279.961,-37.2732 291.462,-38.8342 302.499,-40.332"/>
<polygon fill="midnightblue" stroke="midnightblue" points="302.09,-43.8085 312.47,-41.6852 303.032,-36.8721 302.09,-43.8085"/>
</g>
<!-- Node8 -->
<g id="node8" class="node"><title>Node8</title>
<g id="a_node8"><a xlink:href="a00061.html#a8922de7d42124afa8ab5fd339fe695ee" target="_top" xlink:title="discovery_free_sid">
<polygon fill="none" stroke="black" points="311,-0.5 311,-19.5 409,-19.5 409,-0.5 311,-0.5"/>
<text text-anchor="middle" x="360" y="-7.5" font-family="Helvetica,sans-Serif" font-size="10.00">discovery_free_sid</text>
</a>
</g>
</g>
<!-- Node4&#45;&gt;Node8 -->
<g id="edge7" class="edge"><title>Node4&#45;&gt;Node8</title>
<path fill="none" stroke="midnightblue" d="M269.148,-22.1942C279.269,-20.8206 289.994,-19.3651 300.376,-17.9561"/>
<polygon fill="midnightblue" stroke="midnightblue" points="301.17,-21.3805 310.609,-16.5674 300.229,-14.4441 301.17,-21.3805"/>
</g>
<!-- Node6 -->
<g id="node6" class="node"><title>Node6</title>
<g id="a_node6"><a xlink:href="a00061.html#acd5e8c2bf3e761abc7e2fd2294238a74" target="_top" xlink:title="discovery_set_did">
<polygon fill="none" stroke="black" points="445,-38.5 445,-57.5 540,-57.5 540,-38.5 445,-38.5"/>
<text text-anchor="middle" x="492.5" y="-45.5" font-family="Helvetica,sans-Serif" font-size="10.00">discovery_set_did</text>
</a>
</g>
</g>
<!-- Node5&#45;&gt;Node6 -->
<g id="edge5" class="edge"><title>Node5&#45;&gt;Node6</title>
<path fill="none" stroke="midnightblue" d="M407.745,-48C416.459,-48 425.654,-48 434.634,-48"/>
<polygon fill="midnightblue" stroke="midnightblue" points="434.643,-51.5001 444.643,-48 434.643,-44.5001 434.643,-51.5001"/>
</g>
<!-- Node7 -->
<g id="node7" class="node"><title>Node7</title>
<g id="a_node7"><a xlink:href="a00061.html#af2f553cfc3af4678b87a8fc75f35a5c6" target="_top" xlink:title="discovery_set_aid">
<polygon fill="none" stroke="black" points="576,-38.5 576,-57.5 671,-57.5 671,-38.5 576,-38.5"/>
<text text-anchor="middle" x="623.5" y="-45.5" font-family="Helvetica,sans-Serif" font-size="10.00">discovery_set_aid</text>
</a>
</g>
</g>
<!-- Node6&#45;&gt;Node7 -->
<g id="edge6" class="edge"><title>Node6&#45;&gt;Node7</title>
<path fill="none" stroke="midnightblue" d="M540.072,-48C548.475,-48 557.319,-48 565.969,-48"/>
<polygon fill="midnightblue" stroke="midnightblue" points="565.996,-51.5001 575.996,-48 565.996,-44.5001 565.996,-51.5001"/>
</g>
<!-- Node9 -->
<g id="node9" class="node"><title>Node9</title>
<g id="a_node9"><a xlink:href="a00006.html#adf46370d9c211c3be22966b4606ba9b0" target="_top" xlink:title="free">
<polygon fill="none" stroke="black" points="476,-0.5 476,-19.5 509,-19.5 509,-0.5 476,-0.5"/>
<text text-anchor="middle" x="492.5" y="-7.5" font-family="Helvetica,sans-Serif" font-size="10.00">free</text>
</a>
</g>
</g>
<!-- Node8&#45;&gt;Node9 -->
<g id="edge8" class="edge"><title>Node8&#45;&gt;Node9</title>
<path fill="none" stroke="midnightblue" d="M409.223,-10C428.336,-10 449.546,-10 465.643,-10"/>
<polygon fill="midnightblue" stroke="midnightblue" points="465.882,-13.5001 475.882,-10 465.882,-6.5001 465.882,-13.5001"/>
</g>
</g>
</svg>
