<?xml version="1.0" encoding="UTF-8" standalone="no"?>
<!DOCTYPE svg PUBLIC "-//W3C//DTD SVG 1.1//EN"
 "http://www.w3.org/Graphics/SVG/1.1/DTD/svg11.dtd">
<!-- Generated by graphviz version 2.38.0 (20140413.2041)
 -->
<!-- Title: on_req_url_cmpl Pages: 1 -->
<svg width="300pt" height="28pt"
 viewBox="0.00 0.00 300.00 28.00" xmlns="http://www.w3.org/2000/svg" xmlns:xlink="http://www.w3.org/1999/xlink">
<g id="graph0" class="graph" transform="scale(1 1) rotate(0) translate(4 24)">
<title>on_req_url_cmpl</title>
<!-- Node1 -->
<g id="node1" class="node"><title>Node1</title>
<polygon fill="#bfbfbf" stroke="black" points="0,-0.5 0,-19.5 88,-19.5 88,-0.5 0,-0.5"/>
<text text-anchor="middle" x="44" y="-7.5" font-family="Helvetica,sans-Serif" font-size="10.00">on_req_url_cmpl</text>
</g>
<!-- Node2 -->
<g id="node2" class="node"><title>Node2</title>
<g id="a_node2"><a xlink:href="a00052.html#acc5092ba6e99d5115efd06882999687f" target="_top" xlink:title="Webserver thread. ">
<polygon fill="none" stroke="black" points="124,-0.5 124,-19.5 218,-19.5 218,-0.5 124,-0.5"/>
<text text-anchor="middle" x="171" y="-7.5" font-family="Helvetica,sans-Serif" font-size="10.00">webserver_thread</text>
</a>
</g>
</g>
<!-- Node1&#45;&gt;Node2 -->
<g id="edge1" class="edge"><title>Node1&#45;&gt;Node2</title>
<path fill="none" stroke="midnightblue" d="M98.2661,-10C106.799,-10 115.567,-10 123.915,-10"/>
<polygon fill="midnightblue" stroke="midnightblue" points="98.0179,-6.5001 88.0179,-10 98.0179,-13.5001 98.0179,-6.5001"/>
</g>
<!-- Node3 -->
<g id="node3" class="node"><title>Node3</title>
<g id="a_node3"><a xlink:href="a00052.html#a0ddf1224851353fc92bfbff6f499fa97" target="_top" xlink:title="Main function. ">
<polygon fill="none" stroke="black" points="254,-0.5 254,-19.5 292,-19.5 292,-0.5 254,-0.5"/>
<text text-anchor="middle" x="273" y="-7.5" font-family="Helvetica,sans-Serif" font-size="10.00">main</text>
</a>
</g>
</g>
<!-- Node2&#45;&gt;Node3 -->
<g id="edge2" class="edge"><title>Node2&#45;&gt;Node3</title>
<path fill="none" stroke="midnightblue" d="M228.316,-10C237.594,-10 246.577,-10 253.96,-10"/>
<polygon fill="midnightblue" stroke="midnightblue" points="228.195,-6.5001 218.195,-10 228.195,-13.5001 228.195,-6.5001"/>
</g>
</g>
</svg>
