<?xml version="1.0" encoding="UTF-8" standalone="no"?>
<!DOCTYPE svg PUBLIC "-//W3C//DTD SVG 1.1//EN"
 "http://www.w3.org/Graphics/SVG/1.1/DTD/svg11.dtd">
<!-- Generated by graphviz version 2.38.0 (20140413.2041)
 -->
<!-- Title: request_get_request_value Pages: 1 -->
<svg width="558pt" height="39pt"
 viewBox="0.00 0.00 558.00 39.00" xmlns="http://www.w3.org/2000/svg" xmlns:xlink="http://www.w3.org/1999/xlink">
<g id="graph0" class="graph" transform="scale(1 1) rotate(0) translate(4 35)">
<title>request_get_request_value</title>
<!-- Node1 -->
<g id="node1" class="node"><title>Node1</title>
<polygon fill="#bfbfbf" stroke="black" points="0,-0.5 0,-30.5 105,-30.5 105,-0.5 0,-0.5"/>
<text text-anchor="start" x="8" y="-18.5" font-family="Helvetica,sans-Serif" font-size="10.00">request_get_request</text>
<text text-anchor="middle" x="52.5" y="-7.5" font-family="Helvetica,sans-Serif" font-size="10.00">_value</text>
</g>
<!-- Node2 -->
<g id="node2" class="node"><title>Node2</title>
<g id="a_node2"><a xlink:href="a00074.html#aef0a17399a2346728d501e98602c0516" target="_top" xlink:title="hpd_request_get_value">
<polygon fill="none" stroke="black" points="141,-6 141,-25 258,-25 258,-6 141,-6"/>
<text text-anchor="middle" x="199.5" y="-13" font-family="Helvetica,sans-Serif" font-size="10.00">hpd_request_get_value</text>
</a>
</g>
</g>
<!-- Node1&#45;&gt;Node2 -->
<g id="edge1" class="edge"><title>Node1&#45;&gt;Node2</title>
<path fill="none" stroke="midnightblue" d="M115.217,-15.5C123.676,-15.5 132.335,-15.5 140.72,-15.5"/>
<polygon fill="midnightblue" stroke="midnightblue" points="115.03,-12.0001 105.03,-15.5 115.03,-19.0001 115.03,-12.0001"/>
</g>
<!-- Node3 -->
<g id="node3" class="node"><title>Node3</title>
<g id="a_node3"><a xlink:href="a00012.html#abd3f7d3d11402e13ef30d122ce9c8516" target="_top" xlink:title="hpd_demo_on_put">
<polygon fill="none" stroke="black" points="294,-6 294,-25 390,-25 390,-6 294,-6"/>
<text text-anchor="middle" x="342" y="-13" font-family="Helvetica,sans-Serif" font-size="10.00">hpd_demo_on_put</text>
</a>
</g>
</g>
<!-- Node2&#45;&gt;Node3 -->
<g id="edge2" class="edge"><title>Node2&#45;&gt;Node3</title>
<path fill="none" stroke="midnightblue" d="M268.114,-15.5C276.732,-15.5 285.403,-15.5 293.608,-15.5"/>
<polygon fill="midnightblue" stroke="midnightblue" points="268.052,-12.0001 258.052,-15.5 268.052,-19.0001 268.052,-12.0001"/>
</g>
<!-- Node4 -->
<g id="node4" class="node"><title>Node4</title>
<g id="a_node4"><a xlink:href="a00012.html#a723fb54ea3963ea674c9830e41a40e00" target="_top" xlink:title="hpd_demo_adapter_start">
<polygon fill="none" stroke="black" points="426,-6 426,-25 550,-25 550,-6 426,-6"/>
<text text-anchor="middle" x="488" y="-13" font-family="Helvetica,sans-Serif" font-size="10.00">hpd_demo_adapter_start</text>
</a>
</g>
</g>
<!-- Node3&#45;&gt;Node4 -->
<g id="edge3" class="edge"><title>Node3&#45;&gt;Node4</title>
<path fill="none" stroke="midnightblue" d="M400.243,-15.5C408.658,-15.5 417.353,-15.5 425.843,-15.5"/>
<polygon fill="midnightblue" stroke="midnightblue" points="400.151,-12.0001 390.151,-15.5 400.151,-19.0001 400.151,-12.0001"/>
</g>
</g>
</svg>
