<?xml version="1.0" encoding="UTF-8" standalone="no"?>
<!DOCTYPE svg PUBLIC "-//W3C//DTD SVG 1.1//EN"
 "http://www.w3.org/Graphics/SVG/1.1/DTD/svg11.dtd">
<!-- Generated by graphviz version 2.38.0 (20140413.2041)
 -->
<!-- Title: hpd_device_get_adapter Pages: 1 -->
<svg width="563pt" height="66pt"
 viewBox="0.00 0.00 563.00 66.00" xmlns="http://www.w3.org/2000/svg" xmlns:xlink="http://www.w3.org/1999/xlink">
<g id="graph0" class="graph" transform="scale(1 1) rotate(0) translate(4 62)">
<title>hpd_device_get_adapter</title>
<!-- Node1 -->
<g id="node1" class="node"><title>Node1</title>
<polygon fill="#bfbfbf" stroke="black" points="0,-19.5 0,-38.5 122,-38.5 122,-19.5 0,-19.5"/>
<text text-anchor="middle" x="61" y="-26.5" font-family="Helvetica,sans-Serif" font-size="10.00">hpd_device_get_adapter</text>
</g>
<!-- Node2 -->
<g id="node2" class="node"><title>Node2</title>
<g id="a_node2"><a xlink:href="a00014.html#a47420cd34ff6783c48a215b947bca110" target="_top" xlink:title="demo_app_on_device">
<polygon fill="none" stroke="black" points="158,-19.5 158,-38.5 269,-38.5 269,-19.5 158,-19.5"/>
<text text-anchor="middle" x="213.5" y="-26.5" font-family="Helvetica,sans-Serif" font-size="10.00">demo_app_on_device</text>
</a>
</g>
</g>
<!-- Node1&#45;&gt;Node2 -->
<g id="edge1" class="edge"><title>Node1&#45;&gt;Node2</title>
<path fill="none" stroke="midnightblue" d="M132.376,-29C140.976,-29 149.661,-29 157.98,-29"/>
<polygon fill="midnightblue" stroke="midnightblue" points="132.347,-25.5001 122.347,-29 132.347,-32.5001 132.347,-25.5001"/>
</g>
<!-- Node3 -->
<g id="node3" class="node"><title>Node3</title>
<g id="a_node3"><a xlink:href="a00014.html#a192157935b7f185b56921b919e981f3a" target="_top" xlink:title="demo_app_on_attach">
<polygon fill="none" stroke="black" points="306,-38.5 306,-57.5 416,-57.5 416,-38.5 306,-38.5"/>
<text text-anchor="middle" x="361" y="-45.5" font-family="Helvetica,sans-Serif" font-size="10.00">demo_app_on_attach</text>
</a>
</g>
</g>
<!-- Node2&#45;&gt;Node3 -->
<g id="edge2" class="edge"><title>Node2&#45;&gt;Node3</title>
<path fill="none" stroke="midnightblue" d="M279.01,-37.424C287.882,-38.5825 296.919,-39.7626 305.585,-40.8943"/>
<polygon fill="midnightblue" stroke="midnightblue" points="279.462,-33.9534 269.093,-36.129 278.555,-40.8944 279.462,-33.9534"/>
</g>
<!-- Node5 -->
<g id="node5" class="node"><title>Node5</title>
<g id="a_node5"><a xlink:href="a00014.html#a5bac6eb6e610cdc6e322879ee4eaf514" target="_top" xlink:title="demo_app_on_detach">
<polygon fill="none" stroke="black" points="305,-0.5 305,-19.5 417,-19.5 417,-0.5 305,-0.5"/>
<text text-anchor="middle" x="361" y="-7.5" font-family="Helvetica,sans-Serif" font-size="10.00">demo_app_on_detach</text>
</a>
</g>
</g>
<!-- Node2&#45;&gt;Node5 -->
<g id="edge4" class="edge"><title>Node2&#45;&gt;Node5</title>
<path fill="none" stroke="midnightblue" d="M279.018,-20.575C287.557,-19.4599 296.25,-18.3248 304.617,-17.2322"/>
<polygon fill="midnightblue" stroke="midnightblue" points="278.555,-17.1056 269.093,-21.871 279.462,-24.0466 278.555,-17.1056"/>
</g>
<!-- Node4 -->
<g id="node4" class="node"><title>Node4</title>
<g id="a_node4"><a xlink:href="a00014.html#aa8f03492cc097968d466bb5ea9a043d1" target="_top" xlink:title="demo_app_on_start">
<polygon fill="none" stroke="black" points="453,-19.5 453,-38.5 555,-38.5 555,-19.5 453,-19.5"/>
<text text-anchor="middle" x="504" y="-26.5" font-family="Helvetica,sans-Serif" font-size="10.00">demo_app_on_start</text>
</a>
</g>
</g>
<!-- Node3&#45;&gt;Node4 -->
<g id="edge3" class="edge"><title>Node3&#45;&gt;Node4</title>
<path fill="none" stroke="midnightblue" d="M426.171,-39.3528C435.161,-38.1414 444.29,-36.9113 452.966,-35.7421"/>
<polygon fill="midnightblue" stroke="midnightblue" points="425.554,-35.9043 416.111,-40.7084 426.489,-42.8416 425.554,-35.9043"/>
</g>
<!-- Node5&#45;&gt;Node4 -->
<g id="edge5" class="edge"><title>Node5&#45;&gt;Node4</title>
<path fill="none" stroke="midnightblue" d="M427.326,-18.8028C435.914,-19.96 444.605,-21.1312 452.885,-22.247"/>
<polygon fill="midnightblue" stroke="midnightblue" points="427.7,-15.3217 417.322,-17.4548 426.765,-22.259 427.7,-15.3217"/>
</g>
</g>
</svg>
