<?xml version="1.0" encoding="UTF-8" standalone="no"?>
<!DOCTYPE svg PUBLIC "-//W3C//DTD SVG 1.1//EN"
 "http://www.w3.org/Graphics/SVG/1.1/DTD/svg11.dtd">
<!-- Generated by graphviz version 2.38.0 (20140413.2041)
 -->
<!-- Title: event_subscribe Pages: 1 -->
<svg width="350pt" height="28pt"
 viewBox="0.00 0.00 350.00 28.00" xmlns="http://www.w3.org/2000/svg" xmlns:xlink="http://www.w3.org/1999/xlink">
<g id="graph0" class="graph" transform="scale(1 1) rotate(0) translate(4 24)">
<title>event_subscribe</title>
<!-- Node1 -->
<g id="node1" class="node"><title>Node1</title>
<polygon fill="#bfbfbf" stroke="black" points="0,-0.5 0,-19.5 88,-19.5 88,-0.5 0,-0.5"/>
<text text-anchor="middle" x="44" y="-7.5" font-family="Helvetica,sans-Serif" font-size="10.00">event_subscribe</text>
</g>
<!-- Node2 -->
<g id="node2" class="node"><title>Node2</title>
<g id="a_node2"><a xlink:href="a00083.html#ac154bd8740424c2a5488b54cbd75f524" target="_top" xlink:title="hpd_subscribe">
<polygon fill="none" stroke="black" points="124,-0.5 124,-19.5 204,-19.5 204,-0.5 124,-0.5"/>
<text text-anchor="middle" x="164" y="-7.5" font-family="Helvetica,sans-Serif" font-size="10.00">hpd_subscribe</text>
</a>
</g>
</g>
<!-- Node1&#45;&gt;Node2 -->
<g id="edge1" class="edge"><title>Node1&#45;&gt;Node2</title>
<path fill="none" stroke="midnightblue" d="M98.4788,-10C106.95,-10 115.575,-10 123.646,-10"/>
<polygon fill="midnightblue" stroke="midnightblue" points="98.2688,-6.5001 88.2688,-10 98.2688,-13.5001 98.2688,-6.5001"/>
</g>
<!-- Node3 -->
<g id="node3" class="node"><title>Node3</title>
<g id="a_node3"><a xlink:href="a00014.html#aa8f03492cc097968d466bb5ea9a043d1" target="_top" xlink:title="demo_app_on_start">
<polygon fill="none" stroke="black" points="240,-0.5 240,-19.5 342,-19.5 342,-0.5 240,-0.5"/>
<text text-anchor="middle" x="291" y="-7.5" font-family="Helvetica,sans-Serif" font-size="10.00">demo_app_on_start</text>
</a>
</g>
</g>
<!-- Node2&#45;&gt;Node3 -->
<g id="edge2" class="edge"><title>Node2&#45;&gt;Node3</title>
<path fill="none" stroke="midnightblue" d="M214.272,-10C222.695,-10 231.454,-10 239.899,-10"/>
<polygon fill="midnightblue" stroke="midnightblue" points="214.208,-6.5001 204.208,-10 214.208,-13.5001 214.208,-6.5001"/>
</g>
</g>
</svg>
