<?xml version="1.0" encoding="UTF-8" standalone="no"?>
<!DOCTYPE svg PUBLIC "-//W3C//DTD SVG 1.1//EN"
 "http://www.w3.org/Graphics/SVG/1.1/DTD/svg11.dtd">
<!-- Generated by graphviz version 2.38.0 (20140413.2041)
 -->
<!-- Title: basic_get_contains_test Pages: 1 -->
<svg width="569pt" height="58pt"
 viewBox="0.00 0.00 569.00 57.50" xmlns="http://www.w3.org/2000/svg" xmlns:xlink="http://www.w3.org/1999/xlink">
<g id="graph0" class="graph" transform="scale(1 1) rotate(0) translate(4 53.5)">
<title>basic_get_contains_test</title>
<!-- Node1 -->
<g id="node1" class="node"><title>Node1</title>
<polygon fill="#bfbfbf" stroke="black" points="0,-0.5 0,-19.5 122,-19.5 122,-0.5 0,-0.5"/>
<text text-anchor="middle" x="61" y="-7.5" font-family="Helvetica,sans-Serif" font-size="10.00">basic_get_contains_test</text>
</g>
<!-- Node2 -->
<g id="node2" class="node"><title>Node2</title>
<g id="a_node2"><a xlink:href="a00040.html#a46e90a73cf2ceec5920442647a8cabec" target="_top" xlink:title="get_mt_loop">
<polygon fill="none" stroke="black" points="158,-21.5 158,-40.5 228,-40.5 228,-21.5 158,-21.5"/>
<text text-anchor="middle" x="193" y="-28.5" font-family="Helvetica,sans-Serif" font-size="10.00">get_mt_loop</text>
</a>
</g>
</g>
<!-- Node1&#45;&gt;Node2 -->
<g id="edge1" class="edge"><title>Node1&#45;&gt;Node2</title>
<path fill="none" stroke="midnightblue" d="M131.008,-21.1474C140.304,-22.649 149.49,-24.1329 157.802,-25.4756"/>
<polygon fill="midnightblue" stroke="midnightblue" points="131.344,-17.6565 120.914,-19.5169 130.228,-24.5669 131.344,-17.6565"/>
</g>
<!-- Node4 -->
<g id="node4" class="node"><title>Node4</title>
<g id="a_node4"><a xlink:href="a00040.html#aca68378f576a44735a13cce291603838" target="_top" xlink:title="test_thread">
<polygon fill="none" stroke="black" points="422,-2.5 422,-21.5 487,-21.5 487,-2.5 422,-2.5"/>
<text text-anchor="middle" x="454.5" y="-9.5" font-family="Helvetica,sans-Serif" font-size="10.00">test_thread</text>
</a>
</g>
</g>
<!-- Node1&#45;&gt;Node4 -->
<g id="edge5" class="edge"><title>Node1&#45;&gt;Node4</title>
<path fill="none" stroke="midnightblue" d="M132.247,-8.75946C197.881,-7.84327 298.589,-7.0585 386,-9 397.727,-9.26048 410.592,-9.77522 421.917,-10.3058"/>
<polygon fill="midnightblue" stroke="midnightblue" points="131.971,-5.263 122.022,-8.90723 132.072,-12.2623 131.971,-5.263"/>
</g>
<!-- Node3 -->
<g id="node3" class="node"><title>Node3</title>
<g id="a_node3"><a xlink:href="a00040.html#ae6951d531f2b616ec2d687c980bc0fae" target="_top" xlink:title="basic_get_multithreaded\l_stress_test">
<polygon fill="none" stroke="black" points="264,-19 264,-49 386,-49 386,-19 264,-19"/>
<text text-anchor="start" x="272" y="-37" font-family="Helvetica,sans-Serif" font-size="10.00">basic_get_multithreaded</text>
<text text-anchor="middle" x="325" y="-26" font-family="Helvetica,sans-Serif" font-size="10.00">_stress_test</text>
</a>
</g>
</g>
<!-- Node2&#45;&gt;Node3 -->
<g id="edge2" class="edge"><title>Node2&#45;&gt;Node3</title>
<path fill="none" stroke="midnightblue" d="M238.296,-32.0222C246.548,-32.2126 255.297,-32.4145 263.929,-32.6137"/>
<polygon fill="midnightblue" stroke="midnightblue" points="238.234,-28.52 228.156,-31.7882 238.073,-35.5181 238.234,-28.52"/>
</g>
<!-- Node3&#45;&gt;Node4 -->
<g id="edge3" class="edge"><title>Node3&#45;&gt;Node4</title>
<path fill="none" stroke="midnightblue" d="M395.903,-21.9382C404.986,-20.371 413.901,-18.8327 421.901,-17.4523"/>
<polygon fill="midnightblue" stroke="midnightblue" points="395.276,-18.4947 386.017,-23.6442 396.466,-25.3928 395.276,-18.4947"/>
</g>
<!-- Node5 -->
<g id="node5" class="node"><title>Node5</title>
<g id="a_node5"><a xlink:href="a00040.html#a0ddf1224851353fc92bfbff6f499fa97" target="_top" xlink:title="main">
<polygon fill="none" stroke="black" points="523,-2.5 523,-21.5 561,-21.5 561,-2.5 523,-2.5"/>
<text text-anchor="middle" x="542" y="-9.5" font-family="Helvetica,sans-Serif" font-size="10.00">main</text>
</a>
</g>
</g>
<!-- Node4&#45;&gt;Node5 -->
<g id="edge4" class="edge"><title>Node4&#45;&gt;Node5</title>
<path fill="none" stroke="midnightblue" d="M497.342,-12C506.298,-12 515.307,-12 522.796,-12"/>
<polygon fill="midnightblue" stroke="midnightblue" points="497.337,-8.5001 487.337,-12 497.337,-15.5001 497.337,-8.5001"/>
</g>
</g>
</svg>
