<?xml version="1.0" encoding="UTF-8" standalone="no"?>
<!DOCTYPE svg PUBLIC "-//W3C//DTD SVG 1.1//EN"
 "http://www.w3.org/Graphics/SVG/1.1/DTD/svg11.dtd">
<!-- Generated by graphviz version 2.38.0 (20140413.2041)
 -->
<!-- Title: hpd_changed Pages: 1 -->
<!--zoomable 294 -->
<svg id="main" version="1.1" xmlns="http://www.w3.org/2000/svg" xmlns:xlink="http://www.w3.org/1999/xlink" xml:space="preserve" onload="init(evt)">
<style type="text/css"><![CDATA[
.edge:hover path { stroke: red; }
.edge:hover polygon { stroke: red; fill: red; }
]]></style>
<script type="text/javascript"><![CDATA[
var edges = document.getElementsByTagName('g');
if (edges && edges.length) {
  for (var i=0;i<edges.length;i++) {
    if (edges[i].id.substr(0,4)=='edge') {
      edges[i].setAttribute('class','edge');
    }
  }
}
]]></script>
        <defs>
                <circle id="rim" cx="0" cy="0" r="7"/>
                <circle id="rim2" cx="0" cy="0" r="3.5"/>
                <g id="zoomPlus">
                        <use xlink:href="#rim" fill="#404040">
                                <set attributeName="fill" to="#808080" begin="zoomplus.mouseover" end="zoomplus.mouseout"/>
                        </use>
                        <path d="M-4,0h8M0,-4v8" fill="none" stroke="white" stroke-width="1.5" pointer-events="none"/>
                </g>
                <g id="zoomMin">
                        <use xlink:href="#rim" fill="#404040">
                                <set attributeName="fill" to="#808080" begin="zoomminus.mouseover" end="zoomminus.mouseout"/>
                        </use>
                        <path d="M-4,0h8" fill="none" stroke="white" stroke-width="1.5" pointer-events="none"/>
                </g>
                <g id="dirArrow">
                        <path fill="none" stroke="white" stroke-width="1.5" d="M0,-3.0v7 M-2.5,-0.5L0,-3.0L2.5,-0.5"/>
                </g>
               <g id="resetDef">
                       <use xlink:href="#rim2" fill="#404040">
                               <set attributeName="fill" to="#808080" begin="reset.mouseover" end="reset.mouseout"/>
                       </use>
               </g>
        </defs>

<script type="text/javascript">
var viewWidth = 877;
var viewHeight = 294;
var sectionId = 'dynsection-15';
</script>
<script xlink:href="svgpan.js"/>
<svg id="graph" class="graph">
<g id="viewport">
<title>hpd_changed</title>
<!-- Node1 -->
<g id="node1" class="node"><title>Node1</title>
<polygon fill="#bfbfbf" stroke="black" points="0,-190.5 0,-209.5 74,-209.5 74,-190.5 0,-190.5"/>
<text text-anchor="middle" x="37" y="-197.5" font-family="Helvetica,sans-Serif" font-size="10.00">hpd_changed</text>
</g>
<!-- Node2 -->
<g id="node2" class="node"><title>Node2</title>
<g id="a_node2"><a xlink:href="a00062.html#a4fe0122223191a771d05d2d1454cdee9" target="_top" xlink:title="event_changed">
<polygon fill="none" stroke="black" points="110,-190.5 110,-209.5 193,-209.5 193,-190.5 110,-190.5"/>
<text text-anchor="middle" x="151.5" y="-197.5" font-family="Helvetica,sans-Serif" font-size="10.00">event_changed</text>
</a>
</g>
</g>
<!-- Node1&#45;&gt;Node2 -->
<g id="edge1" class="edge"><title>Node1&#45;&gt;Node2</title>
<path fill="none" stroke="midnightblue" d="M74.215,-200C82.2521,-200 90.917,-200 99.4228,-200"/>
<polygon fill="midnightblue" stroke="midnightblue" points="99.6662,-203.5 109.666,-200 99.6661,-196.5 99.6662,-203.5"/>
</g>
<!-- Node3 -->
<g id="node3" class="node"><title>Node3</title>
<g id="a_node3"><a xlink:href="a00011.html#adc3810426cc8c5e8191f9701821a3aa3" target="_top" xlink:title="discovery_copy_sid">
<polygon fill="none" stroke="black" points="229,-228.5 229,-247.5 332,-247.5 332,-228.5 229,-228.5"/>
<text text-anchor="middle" x="280.5" y="-235.5" font-family="Helvetica,sans-Serif" font-size="10.00">discovery_copy_sid</text>
</a>
</g>
</g>
<!-- Node2&#45;&gt;Node3 -->
<g id="edge2" class="edge"><title>Node2&#45;&gt;Node3</title>
<path fill="none" stroke="midnightblue" d="M184.547,-209.589C200.641,-214.404 220.341,-220.299 237.617,-225.468"/>
<polygon fill="midnightblue" stroke="midnightblue" points="236.879,-228.901 247.463,-228.414 238.886,-222.194 236.879,-228.901"/>
</g>
<!-- Node9 -->
<g id="node9" class="node"><title>Node9</title>
<g id="a_node9"><a xlink:href="a00006.html#adf46370d9c211c3be22966b4606ba9b0" target="_top" xlink:title="free">
<polygon fill="none" stroke="black" points="805,-114.5 805,-133.5 838,-133.5 838,-114.5 805,-114.5"/>
<text text-anchor="middle" x="821.5" y="-121.5" font-family="Helvetica,sans-Serif" font-size="10.00">free</text>
</a>
</g>
</g>
<!-- Node2&#45;&gt;Node9 -->
<g id="edge19" class="edge"><title>Node2&#45;&gt;Node9</title>
<path fill="none" stroke="midnightblue" d="M193.435,-200C245.582,-200 338.488,-200 418,-200 418,-200 418,-200 556,-200 647.25,-200 749.562,-157.7 795.643,-136.215"/>
<polygon fill="midnightblue" stroke="midnightblue" points="797.317,-139.295 804.852,-131.847 794.317,-132.971 797.317,-139.295"/>
</g>
<!-- Node10 -->
<g id="node10" class="node"><title>Node10</title>
<g id="a_node10"><a xlink:href="a00062.html#a6374d2e83db65d351dbf00869fbe8e76" target="_top" xlink:title="on_changed">
<polygon fill="none" stroke="black" points="246,-133.5 246,-152.5 315,-152.5 315,-133.5 246,-133.5"/>
<text text-anchor="middle" x="280.5" y="-140.5" font-family="Helvetica,sans-Serif" font-size="10.00">on_changed</text>
</a>
</g>
</g>
<!-- Node2&#45;&gt;Node10 -->
<g id="edge9" class="edge"><title>Node2&#45;&gt;Node10</title>
<path fill="none" stroke="midnightblue" d="M173.757,-190.459C194.27,-181.253 225.547,-167.215 248.769,-156.793"/>
<polygon fill="midnightblue" stroke="midnightblue" points="250.484,-159.86 258.174,-152.572 247.617,-153.473 250.484,-159.86"/>
</g>
<!-- Node4 -->
<g id="node4" class="node"><title>Node4</title>
<g id="a_node4"><a xlink:href="a00061.html#ac0d919fcb7633d9bf5d99cc7ad39fe2e" target="_top" xlink:title="discovery_alloc_sid">
<polygon fill="none" stroke="black" points="368,-228.5 368,-247.5 470,-247.5 470,-228.5 368,-228.5"/>
<text text-anchor="middle" x="419" y="-235.5" font-family="Helvetica,sans-Serif" font-size="10.00">discovery_alloc_sid</text>
</a>
</g>
</g>
<!-- Node3&#45;&gt;Node4 -->
<g id="edge3" class="edge"><title>Node3&#45;&gt;Node4</title>
<path fill="none" stroke="midnightblue" d="M332.328,-238C340.519,-238 349.068,-238 357.461,-238"/>
<polygon fill="midnightblue" stroke="midnightblue" points="357.585,-241.5 367.584,-238 357.584,-234.5 357.585,-241.5"/>
</g>
<!-- Node5 -->
<g id="node5" class="node"><title>Node5</title>
<g id="a_node5"><a xlink:href="a00061.html#a9788f216196637a4e9c0a0110e81bab1" target="_top" xlink:title="discovery_set_sid">
<polygon fill="none" stroke="black" points="507.5,-266.5 507.5,-285.5 602.5,-285.5 602.5,-266.5 507.5,-266.5"/>
<text text-anchor="middle" x="555" y="-273.5" font-family="Helvetica,sans-Serif" font-size="10.00">discovery_set_sid</text>
</a>
</g>
</g>
<!-- Node4&#45;&gt;Node5 -->
<g id="edge4" class="edge"><title>Node4&#45;&gt;Node5</title>
<path fill="none" stroke="midnightblue" d="M453.814,-247.589C471.033,-252.472 492.164,-258.464 510.573,-263.685"/>
<polygon fill="midnightblue" stroke="midnightblue" points="509.621,-267.053 520.197,-266.414 511.531,-260.319 509.621,-267.053"/>
</g>
<!-- Node8 -->
<g id="node8" class="node"><title>Node8</title>
<g id="a_node8"><a xlink:href="a00061.html#a8922de7d42124afa8ab5fd339fe695ee" target="_top" xlink:title="discovery_free_sid">
<polygon fill="none" stroke="black" points="640,-228.5 640,-247.5 738,-247.5 738,-228.5 640,-228.5"/>
<text text-anchor="middle" x="689" y="-235.5" font-family="Helvetica,sans-Serif" font-size="10.00">discovery_free_sid</text>
</a>
</g>
</g>
<!-- Node4&#45;&gt;Node8 -->
<g id="edge7" class="edge"><title>Node4&#45;&gt;Node8</title>
<path fill="none" stroke="midnightblue" d="M470.094,-238C515.402,-238 582.124,-238 629.787,-238"/>
<polygon fill="midnightblue" stroke="midnightblue" points="629.955,-241.5 639.955,-238 629.955,-234.5 629.955,-241.5"/>
</g>
<!-- Node6 -->
<g id="node6" class="node"><title>Node6</title>
<g id="a_node6"><a xlink:href="a00061.html#acd5e8c2bf3e761abc7e2fd2294238a74" target="_top" xlink:title="discovery_set_did">
<polygon fill="none" stroke="black" points="641.5,-266.5 641.5,-285.5 736.5,-285.5 736.5,-266.5 641.5,-266.5"/>
<text text-anchor="middle" x="689" y="-273.5" font-family="Helvetica,sans-Serif" font-size="10.00">discovery_set_did</text>
</a>
</g>
</g>
<!-- Node5&#45;&gt;Node6 -->
<g id="edge5" class="edge"><title>Node5&#45;&gt;Node6</title>
<path fill="none" stroke="midnightblue" d="M602.538,-276C611.805,-276 621.634,-276 631.199,-276"/>
<polygon fill="midnightblue" stroke="midnightblue" points="631.437,-279.5 641.437,-276 631.437,-272.5 631.437,-279.5"/>
</g>
<!-- Node7 -->
<g id="node7" class="node"><title>Node7</title>
<g id="a_node7"><a xlink:href="a00061.html#af2f553cfc3af4678b87a8fc75f35a5c6" target="_top" xlink:title="discovery_set_aid">
<polygon fill="none" stroke="black" points="774,-266.5 774,-285.5 869,-285.5 869,-266.5 774,-266.5"/>
<text text-anchor="middle" x="821.5" y="-273.5" font-family="Helvetica,sans-Serif" font-size="10.00">discovery_set_aid</text>
</a>
</g>
</g>
<!-- Node6&#45;&gt;Node7 -->
<g id="edge6" class="edge"><title>Node6&#45;&gt;Node7</title>
<path fill="none" stroke="midnightblue" d="M736.745,-276C745.459,-276 754.654,-276 763.634,-276"/>
<polygon fill="midnightblue" stroke="midnightblue" points="763.643,-279.5 773.643,-276 763.643,-272.5 763.643,-279.5"/>
</g>
<!-- Node8&#45;&gt;Node9 -->
<g id="edge8" class="edge"><title>Node8&#45;&gt;Node9</title>
<path fill="none" stroke="midnightblue" d="M713.463,-228.376C721.611,-224.5 730.562,-219.611 738,-214 766.029,-192.858 792.324,-161.399 807.395,-141.823"/>
<polygon fill="midnightblue" stroke="midnightblue" points="810.262,-143.834 813.496,-133.745 804.676,-139.615 810.262,-143.834"/>
</g>
<!-- Node10&#45;&gt;Node9 -->
<g id="edge10" class="edge"><title>Node10&#45;&gt;Node9</title>
<path fill="none" stroke="midnightblue" d="M315.172,-144.919C331.171,-145.738 350.566,-146.597 368,-147 532.449,-150.8 574.374,-154.863 738,-138 757.204,-136.021 778.702,-132.324 794.937,-129.226"/>
<polygon fill="midnightblue" stroke="midnightblue" points="795.627,-132.657 804.768,-127.301 794.282,-125.788 795.627,-132.657"/>
</g>
<!-- Node11 -->
<g id="node11" class="node"><title>Node11</title>
<g id="a_node11"><a xlink:href="a00011.html#a8922de7d42124afa8ab5fd339fe695ee" target="_top" xlink:title="discovery_free_sid">
<polygon fill="none" stroke="black" points="506,-114.5 506,-133.5 604,-133.5 604,-114.5 506,-114.5"/>
<text text-anchor="middle" x="555" y="-121.5" font-family="Helvetica,sans-Serif" font-size="10.00">discovery_free_sid</text>
</a>
</g>
</g>
<!-- Node10&#45;&gt;Node11 -->
<g id="edge11" class="edge"><title>Node10&#45;&gt;Node11</title>
<path fill="none" stroke="midnightblue" d="M315.187,-140.651C360.136,-137.517 440.432,-131.918 495.407,-128.085"/>
<polygon fill="midnightblue" stroke="midnightblue" points="495.972,-131.555 505.704,-127.367 495.485,-124.572 495.972,-131.555"/>
</g>
<!-- Node12 -->
<g id="node12" class="node"><title>Node12</title>
<g id="a_node12"><a xlink:href="a00071.html#a1ec3b1d4547e5080bcec544c877852da" target="_top" xlink:title="value_free">
<polygon fill="none" stroke="black" points="388,-76.5 388,-95.5 450,-95.5 450,-76.5 388,-76.5"/>
<text text-anchor="middle" x="419" y="-83.5" font-family="Helvetica,sans-Serif" font-size="10.00">value_free</text>
</a>
</g>
</g>
<!-- Node10&#45;&gt;Node12 -->
<g id="edge13" class="edge"><title>Node10&#45;&gt;Node12</title>
<path fill="none" stroke="midnightblue" d="M304.347,-133.459C326.591,-124.171 360.612,-109.964 385.637,-99.5143"/>
<polygon fill="midnightblue" stroke="midnightblue" points="387.199,-102.655 395.078,-95.5716 384.502,-96.1953 387.199,-102.655"/>
</g>
<!-- Node11&#45;&gt;Node9 -->
<g id="edge12" class="edge"><title>Node11&#45;&gt;Node9</title>
<path fill="none" stroke="midnightblue" d="M604.206,-124C660.251,-124 750.679,-124 794.727,-124"/>
<polygon fill="midnightblue" stroke="midnightblue" points="794.878,-127.5 804.878,-124 794.878,-120.5 794.878,-127.5"/>
</g>
<!-- Node12&#45;&gt;Node9 -->
<g id="edge18" class="edge"><title>Node12&#45;&gt;Node9</title>
<path fill="none" stroke="midnightblue" d="M450.103,-88.8562C525.908,-96.0487 723.672,-114.813 794.662,-121.548"/>
<polygon fill="midnightblue" stroke="midnightblue" points="794.643,-125.062 804.929,-122.523 795.304,-118.094 794.643,-125.062"/>
</g>
<!-- Node13 -->
<g id="node13" class="node"><title>Node13</title>
<g id="a_node13"><a xlink:href="a00042.html#a195d511a075f2349200563af1c5d1fd7" target="_top" xlink:title="hpd_map_free">
<polygon fill="none" stroke="black" points="516,-38.5 516,-57.5 594,-57.5 594,-38.5 516,-38.5"/>
<text text-anchor="middle" x="555" y="-45.5" font-family="Helvetica,sans-Serif" font-size="10.00">hpd_map_free</text>
</a>
</g>
</g>
<!-- Node12&#45;&gt;Node13 -->
<g id="edge14" class="edge"><title>Node12&#45;&gt;Node13</title>
<path fill="none" stroke="midnightblue" d="M450.072,-77.4721C467.895,-72.4178 490.788,-65.9258 510.549,-60.3218"/>
<polygon fill="midnightblue" stroke="midnightblue" points="511.592,-63.6642 520.258,-57.5687 509.682,-56.9298 511.592,-63.6642"/>
</g>
<!-- Node13&#45;&gt;Node9 -->
<g id="edge17" class="edge"><title>Node13&#45;&gt;Node9</title>
<path fill="none" stroke="midnightblue" d="M594.061,-48.3083C631.676,-49.691 690.342,-54.7783 738,-72 761.377,-80.4474 785.074,-96.308 801.036,-108.301"/>
<polygon fill="midnightblue" stroke="midnightblue" points="799.003,-111.153 809.057,-114.494 803.281,-105.612 799.003,-111.153"/>
</g>
<!-- Node14 -->
<g id="node14" class="node"><title>Node14</title>
<g id="a_node14"><a xlink:href="a00022.html#ae1085dd4fd40466d18b02ec077ef4d6d" target="_top" xlink:title="hpd_map_remove">
<polygon fill="none" stroke="black" points="642,-0.5 642,-19.5 736,-19.5 736,-0.5 642,-0.5"/>
<text text-anchor="middle" x="689" y="-7.5" font-family="Helvetica,sans-Serif" font-size="10.00">hpd_map_remove</text>
</a>
</g>
</g>
<!-- Node13&#45;&gt;Node14 -->
<g id="edge15" class="edge"><title>Node13&#45;&gt;Node14</title>
<path fill="none" stroke="midnightblue" d="M589.309,-38.411C606.193,-33.5506 626.895,-27.5909 644.971,-22.3873"/>
<polygon fill="midnightblue" stroke="midnightblue" points="646.06,-25.7158 654.701,-19.5859 644.123,-18.989 646.06,-25.7158"/>
</g>
<!-- Node14&#45;&gt;Node9 -->
<g id="edge16" class="edge"><title>Node14&#45;&gt;Node9</title>
<path fill="none" stroke="midnightblue" d="M713.463,-19.6244C721.611,-23.4999 730.562,-28.3894 738,-34 766.029,-55.142 792.324,-86.6013 807.395,-106.177"/>
<polygon fill="midnightblue" stroke="midnightblue" points="804.676,-108.385 813.496,-114.255 810.262,-104.166 804.676,-108.385"/>
</g>
</g>
</svg>
        <g id="navigator" transform="translate(0 0)" fill="#404254">
                <rect fill="#f2f5e9" fill-opacity="0.5" stroke="#606060" stroke-width=".5" x="0" y="0" width="60" height="60"/>
                <use id="zoomplus" xlink:href="#zoomPlus" x="17" y="9" onmousedown="handleZoom(evt,'in')"/>
                <use id="zoomminus" xlink:href="#zoomMin" x="42" y="9" onmousedown="handleZoom(evt,'out')"/>
                <use id="reset" xlink:href="#resetDef" x="30" y="36" onmousedown="handleReset()"/>
                <g id="arrowUp" xlink:href="#dirArrow" transform="translate(30 24)" onmousedown="handlePan(0,-1)">
                  <use xlink:href="#rim" fill="#404040">
                        <set attributeName="fill" to="#808080" begin="arrowUp.mouseover" end="arrowUp.mouseout"/>
                  </use>
                  <path fill="none" stroke="white" stroke-width="1.5" d="M0,-3.0v7 M-2.5,-0.5L0,-3.0L2.5,-0.5"/>
                </g>
                <g id="arrowRight" xlink:href="#dirArrow" transform="rotate(90) translate(36 -43)" onmousedown="handlePan(1,0)">
                  <use xlink:href="#rim" fill="#404040">
                        <set attributeName="fill" to="#808080" begin="arrowRight.mouseover" end="arrowRight.mouseout"/>
                  </use>
                  <path fill="none" stroke="white" stroke-width="1.5" d="M0,-3.0v7 M-2.5,-0.5L0,-3.0L2.5,-0.5"/>
                </g>
                <g id="arrowDown" xlink:href="#dirArrow" transform="rotate(180) translate(-30 -48)" onmousedown="handlePan(0,1)">
                  <use xlink:href="#rim" fill="#404040">
                        <set attributeName="fill" to="#808080" begin="arrowDown.mouseover" end="arrowDown.mouseout"/>
                  </use>
                  <path fill="none" stroke="white" stroke-width="1.5" d="M0,-3.0v7 M-2.5,-0.5L0,-3.0L2.5,-0.5"/>
                </g>
                <g id="arrowLeft" xlink:href="#dirArrow" transform="rotate(270) translate(-36 17)" onmousedown="handlePan(-1,0)">
                  <use xlink:href="#rim" fill="#404040">
                        <set attributeName="fill" to="#808080" begin="arrowLeft.mouseover" end="arrowLeft.mouseout"/>
                  </use>
                  <path fill="none" stroke="white" stroke-width="1.5" d="M0,-3.0v7 M-2.5,-0.5L0,-3.0L2.5,-0.5"/>
                </g>
        </g>
        <svg viewBox="0 0 15 15" width="100%" height="30px" preserveAspectRatio="xMaxYMin meet">
         <g id="arrow_out" transform="scale(0.3 0.3)">
          <a xlink:href="a00052_a4e10a7a459f294991735e9bcd384b03a_cgraph_org.svg" target="_base">
           <rect id="button" ry="5" rx="5" y="6" x="6" height="38" width="38"
                fill="#f2f5e9" fill-opacity="0.5" stroke="#606060" stroke-width="1.0"/>
           <path id="arrow"
             d="M 11.500037,31.436501 C 11.940474,20.09759 22.043105,11.32322 32.158766,21.979434 L 37.068811,17.246167 C 37.068811,17.246167 37.088388,32 37.088388,32 L 22.160133,31.978069 C 22.160133,31.978069 26.997745,27.140456 26.997745,27.140456 C 18.528582,18.264221 13.291696,25.230495 11.500037,31.436501 z"
             style="fill:#404040;"/>
          </a>
         </g>
        </svg>
</svg>
