<?xml version="1.0" encoding="UTF-8" standalone="no"?>
<!DOCTYPE svg PUBLIC "-//W3C//DTD SVG 1.1//EN"
 "http://www.w3.org/Graphics/SVG/1.1/DTD/svg11.dtd">
<!-- Generated by graphviz version 2.38.0 (20140413.2041)
 -->
<!-- Title: event_inform_device_detached Pages: 1 -->
<svg width="744pt" height="78pt"
 viewBox="0.00 0.00 744.00 77.50" xmlns="http://www.w3.org/2000/svg" xmlns:xlink="http://www.w3.org/1999/xlink">
<g id="graph0" class="graph" transform="scale(1 1) rotate(0) translate(4 73.5)">
<title>event_inform_device_detached</title>
<!-- Node1 -->
<g id="node1" class="node"><title>Node1</title>
<polygon fill="#bfbfbf" stroke="black" points="0,-22.5 0,-52.5 107,-52.5 107,-22.5 0,-22.5"/>
<text text-anchor="start" x="8" y="-40.5" font-family="Helvetica,sans-Serif" font-size="10.00">event_inform_device</text>
<text text-anchor="middle" x="53.5" y="-29.5" font-family="Helvetica,sans-Serif" font-size="10.00">_detached</text>
</g>
<!-- Node2 -->
<g id="node2" class="node"><title>Node2</title>
<g id="a_node2"><a xlink:href="a00011.html#a8d6472e9a8006949786f5975d5b02648" target="_top" xlink:title="discovery_detach_device">
<polygon fill="none" stroke="black" points="143,-50 143,-69 270,-69 270,-50 143,-50"/>
<text text-anchor="middle" x="206.5" y="-57" font-family="Helvetica,sans-Serif" font-size="10.00">discovery_detach_device</text>
</a>
</g>
</g>
<!-- Node1&#45;&gt;Node2 -->
<g id="edge1" class="edge"><title>Node1&#45;&gt;Node2</title>
<path fill="none" stroke="midnightblue" d="M117.433,-46.6691C125.841,-47.8941 134.463,-49.1503 142.866,-50.3746"/>
<polygon fill="midnightblue" stroke="midnightblue" points="117.713,-43.1729 107.312,-45.1945 116.703,-50.0998 117.713,-43.1729"/>
</g>
<!-- Node4 -->
<g id="node4" class="node"><title>Node4</title>
<g id="a_node4"><a xlink:href="a00067.html#ab3279e57e3faeb9689b5b60283103ef2" target="_top" xlink:title="event_inform_adapter\l_detached">
<polygon fill="none" stroke="black" points="151.5,-0.5 151.5,-30.5 261.5,-30.5 261.5,-0.5 151.5,-0.5"/>
<text text-anchor="start" x="159.5" y="-18.5" font-family="Helvetica,sans-Serif" font-size="10.00">event_inform_adapter</text>
<text text-anchor="middle" x="206.5" y="-7.5" font-family="Helvetica,sans-Serif" font-size="10.00">_detached</text>
</a>
</g>
</g>
<!-- Node1&#45;&gt;Node4 -->
<g id="edge3" class="edge"><title>Node1&#45;&gt;Node4</title>
<path fill="none" stroke="midnightblue" d="M117.526,-28.3175C128.796,-26.6754 140.448,-24.9778 151.439,-23.3765"/>
<polygon fill="midnightblue" stroke="midnightblue" points="116.703,-24.9002 107.312,-29.8055 117.713,-31.8271 116.703,-24.9002"/>
</g>
<!-- Node3 -->
<g id="node3" class="node"><title>Node3</title>
<g id="a_node3"><a xlink:href="a00064.html#a228c00929674efd7d29edec9043b2da6" target="_top" xlink:title="hpd_device_detach">
<polygon fill="none" stroke="black" points="321,-50 321,-69 422,-69 422,-50 321,-50"/>
<text text-anchor="middle" x="371.5" y="-57" font-family="Helvetica,sans-Serif" font-size="10.00">hpd_device_detach</text>
</a>
</g>
</g>
<!-- Node2&#45;&gt;Node3 -->
<g id="edge2" class="edge"><title>Node2&#45;&gt;Node3</title>
<path fill="none" stroke="midnightblue" d="M280.399,-59.5C294.044,-59.5 308.015,-59.5 320.757,-59.5"/>
<polygon fill="midnightblue" stroke="midnightblue" points="280.054,-56.0001 270.054,-59.5 280.054,-63.0001 280.054,-56.0001"/>
</g>
<!-- Node5 -->
<g id="node5" class="node"><title>Node5</title>
<g id="a_node5"><a xlink:href="a00011.html#adb9f3d73fc28b0ec1c15d72b03db7239" target="_top" xlink:title="discovery_detach_adapter">
<polygon fill="none" stroke="black" points="306,-6 306,-25 437,-25 437,-6 306,-6"/>
<text text-anchor="middle" x="371.5" y="-13" font-family="Helvetica,sans-Serif" font-size="10.00">discovery_detach_adapter</text>
</a>
</g>
</g>
<!-- Node4&#45;&gt;Node5 -->
<g id="edge4" class="edge"><title>Node4&#45;&gt;Node5</title>
<path fill="none" stroke="midnightblue" d="M271.918,-15.5C283.127,-15.5 294.788,-15.5 305.999,-15.5"/>
<polygon fill="midnightblue" stroke="midnightblue" points="271.777,-12.0001 261.777,-15.5 271.777,-19.0001 271.777,-12.0001"/>
</g>
<!-- Node6 -->
<g id="node6" class="node"><title>Node6</title>
<g id="a_node6"><a xlink:href="a00064.html#ace6bdcd24107e5a84d35a2dc90d3c58e" target="_top" xlink:title="hpd_adapter_detach">
<polygon fill="none" stroke="black" points="473,-6 473,-25 577,-25 577,-6 473,-6"/>
<text text-anchor="middle" x="525" y="-13" font-family="Helvetica,sans-Serif" font-size="10.00">hpd_adapter_detach</text>
</a>
</g>
</g>
<!-- Node5&#45;&gt;Node6 -->
<g id="edge5" class="edge"><title>Node5&#45;&gt;Node6</title>
<path fill="none" stroke="midnightblue" d="M447.294,-15.5C455.93,-15.5 464.584,-15.5 472.805,-15.5"/>
<polygon fill="midnightblue" stroke="midnightblue" points="447.189,-12.0001 437.189,-15.5 447.189,-19.0001 447.189,-12.0001"/>
</g>
<!-- Node7 -->
<g id="node7" class="node"><title>Node7</title>
<g id="a_node7"><a xlink:href="a00012.html#a51ee1d39c3be7ad828e223b971bd1a96" target="_top" xlink:title="hpd_demo_adapter_stop">
<polygon fill="none" stroke="black" points="613,-6 613,-25 736,-25 736,-6 613,-6"/>
<text text-anchor="middle" x="674.5" y="-13" font-family="Helvetica,sans-Serif" font-size="10.00">hpd_demo_adapter_stop</text>
</a>
</g>
</g>
<!-- Node6&#45;&gt;Node7 -->
<g id="edge6" class="edge"><title>Node6&#45;&gt;Node7</title>
<path fill="none" stroke="midnightblue" d="M587.304,-15.5C595.724,-15.5 604.367,-15.5 612.776,-15.5"/>
<polygon fill="midnightblue" stroke="midnightblue" points="587.174,-12.0001 577.174,-15.5 587.174,-19.0001 587.174,-12.0001"/>
</g>
</g>
</svg>
