<?xml version="1.0" encoding="UTF-8" standalone="no"?>
<!DOCTYPE svg PUBLIC "-//W3C//DTD SVG 1.1//EN"
 "http://www.w3.org/Graphics/SVG/1.1/DTD/svg11.dtd">
<!-- Generated by graphviz version 2.38.0 (20140413.2041)
 -->
<!-- Title: rest_json_add_parameters Pages: 1 -->
<svg width="625pt" height="142pt"
 viewBox="0.00 0.00 625.00 142.00" xmlns="http://www.w3.org/2000/svg" xmlns:xlink="http://www.w3.org/1999/xlink">
<g id="graph0" class="graph" transform="scale(1 1) rotate(0) translate(4 138)">
<title>rest_json_add_parameters</title>
<!-- Node1 -->
<g id="node1" class="node"><title>Node1</title>
<polygon fill="#bfbfbf" stroke="black" points="0,-38.5 0,-57.5 131,-57.5 131,-38.5 0,-38.5"/>
<text text-anchor="middle" x="65.5" y="-45.5" font-family="Helvetica,sans-Serif" font-size="10.00">rest_json_add_parameters</text>
</g>
<!-- Node2 -->
<g id="node2" class="node"><title>Node2</title>
<g id="a_node2"><a xlink:href="a00096.html#a33e7e5cafd18916279922d40ee76d6fc" target="_top" xlink:title="rest_json_add_parameter">
<polygon fill="none" stroke="black" points="167,-38.5 167,-57.5 293,-57.5 293,-38.5 167,-38.5"/>
<text text-anchor="middle" x="230" y="-45.5" font-family="Helvetica,sans-Serif" font-size="10.00">rest_json_add_parameter</text>
</a>
</g>
</g>
<!-- Node1&#45;&gt;Node2 -->
<g id="edge1" class="edge"><title>Node1&#45;&gt;Node2</title>
<path fill="none" stroke="midnightblue" d="M131.191,-48C139.56,-48 148.174,-48 156.656,-48"/>
<polygon fill="midnightblue" stroke="midnightblue" points="156.913,-51.5001 166.913,-48 156.913,-44.5001 156.913,-51.5001"/>
</g>
<!-- Node3 -->
<g id="node3" class="node"><title>Node3</title>
<g id="a_node3"><a xlink:href="a00075.html#a40fef652549700bdbd8050b2e0023722" target="_top" xlink:title="[hpd_service_t functions] ">
<polygon fill="none" stroke="black" points="329,-76.5 329,-95.5 442,-95.5 442,-76.5 329,-76.5"/>
<text text-anchor="middle" x="385.5" y="-83.5" font-family="Helvetica,sans-Serif" font-size="10.00">hpd_parameter_get_id</text>
</a>
</g>
</g>
<!-- Node2&#45;&gt;Node3 -->
<g id="edge2" class="edge"><title>Node2&#45;&gt;Node3</title>
<path fill="none" stroke="midnightblue" d="M269.735,-57.589C289.899,-62.5809 314.748,-68.7324 336.161,-74.0334"/>
<polygon fill="midnightblue" stroke="midnightblue" points="335.496,-77.4743 346.044,-76.4799 337.178,-70.6794 335.496,-77.4743"/>
</g>
<!-- Node6 -->
<g id="node6" class="node"><title>Node6</title>
<g id="a_node6"><a xlink:href="a00096.html#ae4e968e97aed037e4fa91cd31ae27a42" target="_top" xlink:title="rest_json_add">
<polygon fill="none" stroke="black" points="509,-38.5 509,-57.5 586,-57.5 586,-38.5 509,-38.5"/>
<text text-anchor="middle" x="547.5" y="-45.5" font-family="Helvetica,sans-Serif" font-size="10.00">rest_json_add</text>
</a>
</g>
</g>
<!-- Node2&#45;&gt;Node6 -->
<g id="edge5" class="edge"><title>Node2&#45;&gt;Node6</title>
<path fill="none" stroke="midnightblue" d="M293.333,-48C353.562,-48 443.516,-48 498.409,-48"/>
<polygon fill="midnightblue" stroke="midnightblue" points="498.568,-51.5001 508.568,-48 498.568,-44.5001 498.568,-51.5001"/>
</g>
<!-- Node7 -->
<g id="node7" class="node"><title>Node7</title>
<g id="a_node7"><a xlink:href="a00096.html#afde08d12e91a7aeff9f4a4691a0f5f6b" target="_top" xlink:title="rest_json_add_attr">
<polygon fill="none" stroke="black" points="337,-0.5 337,-19.5 434,-19.5 434,-0.5 337,-0.5"/>
<text text-anchor="middle" x="385.5" y="-7.5" font-family="Helvetica,sans-Serif" font-size="10.00">rest_json_add_attr</text>
</a>
</g>
</g>
<!-- Node2&#45;&gt;Node7 -->
<g id="edge6" class="edge"><title>Node2&#45;&gt;Node7</title>
<path fill="none" stroke="midnightblue" d="M269.735,-38.411C289.899,-33.4191 314.748,-27.2676 336.161,-21.9666"/>
<polygon fill="midnightblue" stroke="midnightblue" points="337.178,-25.3206 346.044,-19.5201 335.496,-18.5257 337.178,-25.3206"/>
</g>
<!-- Node4 -->
<g id="node4" class="node"><title>Node4</title>
<g id="a_node4"><a xlink:href="a00020.html#aac3897ffde835ef54f9289037159307f" target="_top" xlink:title="discovery_find_parameter">
<polygon fill="none" stroke="black" points="483.5,-114.5 483.5,-133.5 611.5,-133.5 611.5,-114.5 483.5,-114.5"/>
<text text-anchor="middle" x="547.5" y="-121.5" font-family="Helvetica,sans-Serif" font-size="10.00">discovery_find_parameter</text>
</a>
</g>
</g>
<!-- Node3&#45;&gt;Node4 -->
<g id="edge3" class="edge"><title>Node3&#45;&gt;Node4</title>
<path fill="none" stroke="midnightblue" d="M426.875,-95.589C447.988,-100.604 474.029,-106.788 496.417,-112.105"/>
<polygon fill="midnightblue" stroke="midnightblue" points="495.877,-115.574 506.416,-114.48 497.495,-108.764 495.877,-115.574"/>
</g>
<!-- Node5 -->
<g id="node5" class="node"><title>Node5</title>
<g id="a_node5"><a xlink:href="a00078.html#a38635fc999dfcdb5d1273a3aed037fbf" target="_top" xlink:title="discovery_get_parameter_id">
<polygon fill="none" stroke="black" points="478,-76.5 478,-95.5 617,-95.5 617,-76.5 478,-76.5"/>
<text text-anchor="middle" x="547.5" y="-83.5" font-family="Helvetica,sans-Serif" font-size="10.00">discovery_get_parameter_id</text>
</a>
</g>
</g>
<!-- Node3&#45;&gt;Node5 -->
<g id="edge4" class="edge"><title>Node3&#45;&gt;Node5</title>
<path fill="none" stroke="midnightblue" d="M442.011,-86C450.315,-86 459.008,-86 467.683,-86"/>
<polygon fill="midnightblue" stroke="midnightblue" points="467.833,-89.5001 477.833,-86 467.833,-82.5001 467.833,-89.5001"/>
</g>
<!-- Node7&#45;&gt;Node6 -->
<g id="edge8" class="edge"><title>Node7&#45;&gt;Node6</title>
<path fill="none" stroke="midnightblue" d="M426.875,-19.589C448.809,-24.7985 476.061,-31.2707 499.011,-36.7214"/>
<polygon fill="midnightblue" stroke="midnightblue" points="498.348,-40.1612 508.886,-39.0667 499.965,-33.3506 498.348,-40.1612"/>
</g>
<!-- Node8 -->
<g id="node8" class="node"><title>Node8</title>
<g id="a_node8"><a xlink:href="a00056.html#a234fa0db60fda58722702273bf7e82a2" target="_top" xlink:title="hpd_pair_get">
<polygon fill="none" stroke="black" points="511.5,-0.5 511.5,-19.5 583.5,-19.5 583.5,-0.5 511.5,-0.5"/>
<text text-anchor="middle" x="547.5" y="-7.5" font-family="Helvetica,sans-Serif" font-size="10.00">hpd_pair_get</text>
</a>
</g>
</g>
<!-- Node7&#45;&gt;Node8 -->
<g id="edge7" class="edge"><title>Node7&#45;&gt;Node8</title>
<path fill="none" stroke="midnightblue" d="M434.072,-10C455.27,-10 480.124,-10 501.066,-10"/>
<polygon fill="midnightblue" stroke="midnightblue" points="501.309,-13.5001 511.309,-10 501.309,-6.5001 501.309,-13.5001"/>
</g>
</g>
</svg>
