<?xml version="1.0" encoding="UTF-8" standalone="no"?>
<!DOCTYPE svg PUBLIC "-//W3C//DTD SVG 1.1//EN"
 "http://www.w3.org/Graphics/SVG/1.1/DTD/svg11.dtd">
<!-- Generated by graphviz version 2.38.0 (20140413.2041)
 -->
<!-- Title: hpd_demo_adapter_start Pages: 1 -->
<svg width="1026pt" height="1041pt"
 viewBox="0.00 0.00 1026.00 1040.93" xmlns="http://www.w3.org/2000/svg" xmlns:xlink="http://www.w3.org/1999/xlink">
<g id="graph0" class="graph" transform="scale(1 1) rotate(0) translate(4 1036.93)">
<title>hpd_demo_adapter_start</title>
<!-- Node1 -->
<g id="node1" class="node"><title>Node1</title>
<polygon fill="#bfbfbf" stroke="black" points="0,-661.5 0,-680.5 124,-680.5 124,-661.5 0,-661.5"/>
<text text-anchor="middle" x="62" y="-668.5" font-family="Helvetica,sans-Serif" font-size="10.00">hpd_demo_adapter_start</text>
</g>
<!-- Node2 -->
<g id="node2" class="node"><title>Node2</title>
<g id="a_node2"><a xlink:href="a00052.html#aec51fa5c17a707a90a1634358ae1a9b4" target="_top" xlink:title="[hpd_adapter_t functions] ">
<polygon fill="none" stroke="black" points="175,-1010.5 175,-1029.5 270,-1029.5 270,-1010.5 175,-1010.5"/>
<text text-anchor="middle" x="222.5" y="-1017.5" font-family="Helvetica,sans-Serif" font-size="10.00">hpd_adapter_alloc</text>
</a>
</g>
</g>
<!-- Node1&#45;&gt;Node2 -->
<g id="edge1" class="edge"><title>Node1&#45;&gt;Node2</title>
<path fill="none" stroke="midnightblue" d="M62.7649,-680.716C62.2514,-724.536 66.0683,-905.767 160,-1001 161.854,-1002.88 163.889,-1004.57 166.057,-1006.1"/>
<polygon fill="midnightblue" stroke="midnightblue" points="164.553,-1009.27 174.97,-1011.2 168.031,-1003.2 164.553,-1009.27"/>
</g>
<!-- Node8 -->
<g id="node8" class="node"><title>Node8</title>
<g id="a_node8"><a xlink:href="a00006.html#adf46370d9c211c3be22966b4606ba9b0" target="_top" xlink:title="free">
<polygon fill="none" stroke="black" points="985,-820.5 985,-839.5 1018,-839.5 1018,-820.5 985,-820.5"/>
<text text-anchor="middle" x="1001.5" y="-827.5" font-family="Helvetica,sans-Serif" font-size="10.00">free</text>
</a>
</g>
</g>
<!-- Node1&#45;&gt;Node8 -->
<g id="edge66" class="edge"><title>Node1&#45;&gt;Node8</title>
<path fill="none" stroke="midnightblue" d="M67.2596,-680.834C78.5375,-705.683 111.658,-771.395 160,-805 245.97,-864.763 282.298,-868 387,-868 387,-868 387,-868 710,-868 816.756,-868 844.021,-863.402 949,-844 957.584,-842.413 966.826,-840.098 975.078,-837.806"/>
<polygon fill="midnightblue" stroke="midnightblue" points="976.244,-841.112 984.878,-834.971 974.299,-834.388 976.244,-841.112"/>
</g>
<!-- Node9 -->
<g id="node9" class="node"><title>Node9</title>
<g id="a_node9"><a xlink:href="a00052.html#a0d5ca643908e5c921d763ad9f5c9ba8e" target="_top" xlink:title="hpd_adapter_set_attr">
<polygon fill="none" stroke="black" points="168.5,-462.5 168.5,-481.5 276.5,-481.5 276.5,-462.5 168.5,-462.5"/>
<text text-anchor="middle" x="222.5" y="-469.5" font-family="Helvetica,sans-Serif" font-size="10.00">hpd_adapter_set_attr</text>
</a>
</g>
</g>
<!-- Node1&#45;&gt;Node9 -->
<g id="edge10" class="edge"><title>Node1&#45;&gt;Node9</title>
<path fill="none" stroke="midnightblue" d="M66.2905,-661.381C76.2523,-633.505 108.591,-551.573 160,-503 167.289,-496.113 176.403,-490.412 185.363,-485.858"/>
<polygon fill="midnightblue" stroke="midnightblue" points="187.006,-488.953 194.563,-481.526 184.024,-482.62 187.006,-488.953"/>
</g>
<!-- Node12 -->
<g id="node12" class="node"><title>Node12</title>
<g id="a_node12"><a xlink:href="a00052.html#a247f5a01789cd6bd85a2f1238d36c29c" target="_top" xlink:title="hpd_adapter_attach">
<polygon fill="none" stroke="black" points="171.5,-776.5 171.5,-795.5 273.5,-795.5 273.5,-776.5 171.5,-776.5"/>
<text text-anchor="middle" x="222.5" y="-783.5" font-family="Helvetica,sans-Serif" font-size="10.00">hpd_adapter_attach</text>
</a>
</g>
</g>
<!-- Node1&#45;&gt;Node12 -->
<g id="edge13" class="edge"><title>Node1&#45;&gt;Node12</title>
<path fill="none" stroke="midnightblue" d="M76.241,-680.607C103.561,-700.429 166.405,-746.026 199.769,-770.233"/>
<polygon fill="midnightblue" stroke="midnightblue" points="197.811,-773.137 207.961,-776.177 201.922,-767.471 197.811,-773.137"/>
</g>
<!-- Node16 -->
<g id="node16" class="node"><title>Node16</title>
<g id="a_node16"><a xlink:href="a00056.html#aaf24eefdbdf2debbf530eb19db96bd86" target="_top" xlink:title="[log functions] ">
<polygon fill="none" stroke="black" points="168.5,-710.5 168.5,-729.5 276.5,-729.5 276.5,-710.5 168.5,-710.5"/>
<text text-anchor="middle" x="222.5" y="-717.5" font-family="Helvetica,sans-Serif" font-size="10.00">hpd_adapter_id_alloc</text>
</a>
</g>
</g>
<!-- Node1&#45;&gt;Node16 -->
<g id="edge18" class="edge"><title>Node1&#45;&gt;Node16</title>
<path fill="none" stroke="midnightblue" d="M93.9367,-680.564C118.81,-688.254 153.951,-699.117 181.054,-707.496"/>
<polygon fill="midnightblue" stroke="midnightblue" points="180.054,-710.85 190.641,-710.46 182.121,-704.163 180.054,-710.85"/>
</g>
<!-- Node20 -->
<g id="node20" class="node"><title>Node20</title>
<g id="a_node20"><a xlink:href="a00052.html#a10a4b84cc7128e1900008dc1de4653a2" target="_top" xlink:title="[hpd_adapter_t functions] ">
<polygon fill="none" stroke="black" points="176.5,-972.5 176.5,-991.5 268.5,-991.5 268.5,-972.5 176.5,-972.5"/>
<text text-anchor="middle" x="222.5" y="-979.5" font-family="Helvetica,sans-Serif" font-size="10.00">hpd_device_alloc</text>
</a>
</g>
</g>
<!-- Node1&#45;&gt;Node20 -->
<g id="edge23" class="edge"><title>Node1&#45;&gt;Node20</title>
<path fill="none" stroke="midnightblue" d="M63.1946,-680.693C64.5471,-721.374 75.2659,-880.034 160,-963 162.243,-965.196 164.735,-967.14 167.393,-968.859"/>
<polygon fill="midnightblue" stroke="midnightblue" points="165.879,-972.017 176.351,-973.622 169.165,-965.837 165.879,-972.017"/>
</g>
<!-- Node22 -->
<g id="node22" class="node"><title>Node22</title>
<g id="a_node22"><a xlink:href="a00052.html#aa52044afe11425f0febeba4f6094e48f" target="_top" xlink:title="hpd_device_set_attr">
<polygon fill="none" stroke="black" points="170.5,-401.5 170.5,-420.5 274.5,-420.5 274.5,-401.5 170.5,-401.5"/>
<text text-anchor="middle" x="222.5" y="-408.5" font-family="Helvetica,sans-Serif" font-size="10.00">hpd_device_set_attr</text>
</a>
</g>
</g>
<!-- Node1&#45;&gt;Node22 -->
<g id="edge27" class="edge"><title>Node1&#45;&gt;Node22</title>
<path fill="none" stroke="midnightblue" d="M65.2777,-661.279C73.3104,-628.672 102.956,-521.398 160,-453 169.083,-442.11 181.671,-432.841 193.095,-425.804"/>
<polygon fill="midnightblue" stroke="midnightblue" points="195.048,-428.717 201.917,-420.651 191.517,-422.673 195.048,-428.717"/>
</g>
<!-- Node24 -->
<g id="node24" class="node"><title>Node24</title>
<g id="a_node24"><a xlink:href="a00052.html#ae265c33796304a96d8a0e670e61e7a3a" target="_top" xlink:title="[hpd_device_t functions] ">
<polygon fill="none" stroke="black" points="175,-896.5 175,-915.5 270,-915.5 270,-896.5 175,-896.5"/>
<text text-anchor="middle" x="222.5" y="-903.5" font-family="Helvetica,sans-Serif" font-size="10.00">hpd_service_alloc</text>
</a>
</g>
</g>
<!-- Node1&#45;&gt;Node24 -->
<g id="edge30" class="edge"><title>Node1&#45;&gt;Node24</title>
<path fill="none" stroke="midnightblue" d="M64.814,-680.927C71.3801,-714.127 96.9299,-822.536 160,-882 164.274,-886.03 169.301,-889.408 174.609,-892.233"/>
<polygon fill="midnightblue" stroke="midnightblue" points="173.182,-895.429 183.724,-896.485 176.141,-889.086 173.182,-895.429"/>
</g>
<!-- Node26 -->
<g id="node26" class="node"><title>Node26</title>
<g id="a_node26"><a xlink:href="a00052.html#a8a4f9edb085f44b1eb5d9b31447f06c9" target="_top" xlink:title="hpd_service_set_actions">
<polygon fill="none" stroke="black" points="160,-316.5 160,-335.5 285,-335.5 285,-316.5 160,-316.5"/>
<text text-anchor="middle" x="222.5" y="-323.5" font-family="Helvetica,sans-Serif" font-size="10.00">hpd_service_set_actions</text>
</a>
</g>
</g>
<!-- Node1&#45;&gt;Node26 -->
<g id="edge34" class="edge"><title>Node1&#45;&gt;Node26</title>
<path fill="none" stroke="midnightblue" d="M64.81,-661.482C72.1207,-624.605 101.9,-488.409 160,-392 171.381,-373.115 188.843,-355.041 202.256,-342.597"/>
<polygon fill="midnightblue" stroke="midnightblue" points="204.912,-344.916 209.994,-335.62 200.224,-339.717 204.912,-344.916"/>
</g>
<!-- Node29 -->
<g id="node29" class="node"><title>Node29</title>
<g id="a_node29"><a xlink:href="a00012.html#ab9d884c8b98aaa2f2d23e6884afdeffe" target="_top" xlink:title="hpd_demo_on_get">
<polygon fill="none" stroke="black" points="174.5,-190.5 174.5,-209.5 270.5,-209.5 270.5,-190.5 174.5,-190.5"/>
<text text-anchor="middle" x="222.5" y="-197.5" font-family="Helvetica,sans-Serif" font-size="10.00">hpd_demo_on_get</text>
</a>
</g>
</g>
<!-- Node1&#45;&gt;Node29 -->
<g id="edge37" class="edge"><title>Node1&#45;&gt;Node29</title>
<path fill="none" stroke="midnightblue" d="M64.5993,-661.424C71.9197,-618.756 104.287,-442.134 160,-307 173.598,-274.018 195.523,-238.677 209.191,-217.997"/>
<polygon fill="midnightblue" stroke="midnightblue" points="212.167,-219.842 214.831,-209.588 206.354,-215.943 212.167,-219.842"/>
</g>
<!-- Node36 -->
<g id="node36" class="node"><title>Node36</title>
<g id="a_node36"><a xlink:href="a00012.html#abd3f7d3d11402e13ef30d122ce9c8516" target="_top" xlink:title="hpd_demo_on_put">
<polygon fill="none" stroke="black" points="174.5,-95.5 174.5,-114.5 270.5,-114.5 270.5,-95.5 174.5,-95.5"/>
<text text-anchor="middle" x="222.5" y="-102.5" font-family="Helvetica,sans-Serif" font-size="10.00">hpd_demo_on_put</text>
</a>
</g>
</g>
<!-- Node1&#45;&gt;Node36 -->
<g id="edge44" class="edge"><title>Node1&#45;&gt;Node36</title>
<path fill="none" stroke="midnightblue" d="M63.2088,-661.464C64.6688,-609.937 75.9775,-360.46 160,-181 170.688,-158.173 189.67,-136.255 203.728,-121.873"/>
<polygon fill="midnightblue" stroke="midnightblue" points="206.32,-124.232 210.947,-114.701 201.386,-119.266 206.32,-124.232"/>
</g>
<!-- Node39 -->
<g id="node39" class="node"><title>Node39</title>
<g id="a_node39"><a xlink:href="a00052.html#a510d8b9b58d0cf4d661e7e433004ca10" target="_top" xlink:title="[hpd_service_t functions] ">
<polygon fill="none" stroke="black" points="169,-934.5 169,-953.5 276,-953.5 276,-934.5 169,-934.5"/>
<text text-anchor="middle" x="222.5" y="-941.5" font-family="Helvetica,sans-Serif" font-size="10.00">hpd_parameter_alloc</text>
</a>
</g>
</g>
<!-- Node1&#45;&gt;Node39 -->
<g id="edge50" class="edge"><title>Node1&#45;&gt;Node39</title>
<path fill="none" stroke="midnightblue" d="M63.7421,-680.698C67.1271,-718.066 84.3881,-854.161 160,-925 161.69,-926.583 163.509,-928.034 165.425,-929.365"/>
<polygon fill="midnightblue" stroke="midnightblue" points="163.931,-932.542 174.351,-934.458 167.4,-926.462 163.931,-932.542"/>
</g>
<!-- Node41 -->
<g id="node41" class="node"><title>Node41</title>
<g id="a_node41"><a xlink:href="a00052.html#add11419bd4fd209882bbe83c8ce8442a" target="_top" xlink:title="hpd_parameter_attach">
<polygon fill="none" stroke="black" points="166,-661.5 166,-680.5 279,-680.5 279,-661.5 166,-661.5"/>
<text text-anchor="middle" x="222.5" y="-668.5" font-family="Helvetica,sans-Serif" font-size="10.00">hpd_parameter_attach</text>
</a>
</g>
</g>
<!-- Node1&#45;&gt;Node41 -->
<g id="edge53" class="edge"><title>Node1&#45;&gt;Node41</title>
<path fill="none" stroke="midnightblue" d="M124.28,-671C134.538,-671 145.219,-671 155.587,-671"/>
<polygon fill="midnightblue" stroke="midnightblue" points="155.823,-674.5 165.823,-671 155.823,-667.5 155.823,-674.5"/>
</g>
<!-- Node44 -->
<g id="node44" class="node"><title>Node44</title>
<g id="a_node44"><a xlink:href="a00052.html#af441be40a9cec089a7bd655e5b7bc61c" target="_top" xlink:title="hpd_service_attach">
<polygon fill="none" stroke="black" points="172,-606.5 172,-625.5 273,-625.5 273,-606.5 172,-606.5"/>
<text text-anchor="middle" x="222.5" y="-613.5" font-family="Helvetica,sans-Serif" font-size="10.00">hpd_service_attach</text>
</a>
</g>
</g>
<!-- Node1&#45;&gt;Node44 -->
<g id="edge57" class="edge"><title>Node1&#45;&gt;Node44</title>
<path fill="none" stroke="midnightblue" d="M90.6086,-661.42C116.553,-652.417 155.575,-638.876 184.264,-628.921"/>
<polygon fill="midnightblue" stroke="midnightblue" points="185.642,-632.148 193.942,-625.563 183.348,-625.534 185.642,-632.148"/>
</g>
<!-- Node47 -->
<g id="node47" class="node"><title>Node47</title>
<g id="a_node47"><a xlink:href="a00052.html#a7fb3db782a5ba49583a5abf615f260bd" target="_top" xlink:title="hpd_device_attach">
<polygon fill="none" stroke="black" points="173.5,-512.5 173.5,-531.5 271.5,-531.5 271.5,-512.5 173.5,-512.5"/>
<text text-anchor="middle" x="222.5" y="-519.5" font-family="Helvetica,sans-Serif" font-size="10.00">hpd_device_attach</text>
</a>
</g>
</g>
<!-- Node1&#45;&gt;Node47 -->
<g id="edge61" class="edge"><title>Node1&#45;&gt;Node47</title>
<path fill="none" stroke="midnightblue" d="M73.3996,-661.224C99.9387,-636.275 170.42,-570.018 203.667,-538.764"/>
<polygon fill="midnightblue" stroke="midnightblue" points="206.379,-541.018 211.268,-531.619 201.585,-535.918 206.379,-541.018"/>
</g>
<!-- Node3 -->
<g id="node3" class="node"><title>Node3</title>
<g id="a_node3"><a xlink:href="a00059.html#a3c736bc96933454ab82040c3617275a3" target="_top" xlink:title="discovery_alloc_adapter">
<polygon fill="none" stroke="black" points="327,-1010.5 327,-1029.5 449,-1029.5 449,-1010.5 327,-1010.5"/>
<text text-anchor="middle" x="388" y="-1017.5" font-family="Helvetica,sans-Serif" font-size="10.00">discovery_alloc_adapter</text>
</a>
</g>
</g>
<!-- Node2&#45;&gt;Node3 -->
<g id="edge2" class="edge"><title>Node2&#45;&gt;Node3</title>
<path fill="none" stroke="midnightblue" d="M270.353,-1020C284.828,-1020 301.1,-1020 316.793,-1020"/>
<polygon fill="midnightblue" stroke="midnightblue" points="316.997,-1023.5 326.997,-1020 316.997,-1016.5 316.997,-1023.5"/>
</g>
<!-- Node4 -->
<g id="node4" class="node"><title>Node4</title>
<g id="a_node4"><a xlink:href="a00042.html#a8d23b888fb4bb3f951c7d48f1928ee9a" target="_top" xlink:title="hpd_map_alloc">
<polygon fill="none" stroke="black" points="509,-934.5 509,-953.5 591,-953.5 591,-934.5 509,-934.5"/>
<text text-anchor="middle" x="550" y="-941.5" font-family="Helvetica,sans-Serif" font-size="10.00">hpd_map_alloc</text>
</a>
</g>
</g>
<!-- Node3&#45;&gt;Node4 -->
<g id="edge3" class="edge"><title>Node3&#45;&gt;Node4</title>
<path fill="none" stroke="midnightblue" d="M428.691,-1010.42C437.51,-1007.79 446.699,-1004.63 455,-1001 481.143,-989.554 508.816,-972.032 527.313,-959.437"/>
<polygon fill="midnightblue" stroke="midnightblue" points="529.376,-962.266 535.609,-953.698 525.393,-956.509 529.376,-962.266"/>
</g>
<!-- Node5 -->
<g id="node5" class="node"><title>Node5</title>
<g id="a_node5"><a xlink:href="a00059.html#aec714553397f80039bf246b3b0800420" target="_top" xlink:title="discovery_free_adapter">
<polygon fill="none" stroke="red" points="491,-1010.5 491,-1029.5 609,-1029.5 609,-1010.5 491,-1010.5"/>
<text text-anchor="middle" x="550" y="-1017.5" font-family="Helvetica,sans-Serif" font-size="10.00">discovery_free_adapter</text>
</a>
</g>
</g>
<!-- Node3&#45;&gt;Node5 -->
<g id="edge4" class="edge"><title>Node3&#45;&gt;Node5</title>
<path fill="none" stroke="midnightblue" d="M449.033,-1020C459.382,-1020 470.206,-1020 480.752,-1020"/>
<polygon fill="midnightblue" stroke="midnightblue" points="480.754,-1023.5 490.754,-1020 480.754,-1016.5 480.754,-1023.5"/>
</g>
<!-- Node6 -->
<g id="node6" class="node"><title>Node6</title>
<g id="a_node6"><a xlink:href="a00059.html#a3c72fb9020b183238e0205b722d7ea95" target="_top" xlink:title="discovery_free_device">
<polygon fill="none" stroke="red" points="652,-962.5 652,-981.5 766,-981.5 766,-962.5 652,-962.5"/>
<text text-anchor="middle" x="709" y="-969.5" font-family="Helvetica,sans-Serif" font-size="10.00">discovery_free_device</text>
</a>
</g>
</g>
<!-- Node5&#45;&gt;Node6 -->
<g id="edge5" class="edge"><title>Node5&#45;&gt;Node6</title>
<path fill="none" stroke="midnightblue" d="M582.394,-1010.4C606.675,-1002.98 640.497,-992.638 666.928,-984.557"/>
<polygon fill="midnightblue" stroke="midnightblue" points="668.121,-987.852 676.66,-981.582 666.074,-981.158 668.121,-987.852"/>
</g>
<!-- Node5&#45;&gt;Node8 -->
<g id="edge9" class="edge"><title>Node5&#45;&gt;Node8</title>
<path fill="none" stroke="midnightblue" d="M609.256,-1028.42C693.868,-1037.25 851.297,-1040.42 949,-961 983.318,-933.104 994.853,-879.181 998.666,-849.971"/>
<polygon fill="midnightblue" stroke="midnightblue" points="1002.17,-850.092 999.811,-839.764 995.218,-849.311 1002.17,-850.092"/>
</g>
<!-- Node7 -->
<g id="node7" class="node"><title>Node7</title>
<g id="a_node7"><a xlink:href="a00059.html#a562bd655fd329da0289d21ec36973322" target="_top" xlink:title="discovery_free_service">
<polygon fill="none" stroke="red" points="820.5,-896.5 820.5,-915.5 937.5,-915.5 937.5,-896.5 820.5,-896.5"/>
<text text-anchor="middle" x="879" y="-903.5" font-family="Helvetica,sans-Serif" font-size="10.00">discovery_free_service</text>
</a>
</g>
</g>
<!-- Node6&#45;&gt;Node7 -->
<g id="edge6" class="edge"><title>Node6&#45;&gt;Node7</title>
<path fill="none" stroke="midnightblue" d="M734.429,-962.403C763.377,-951.031 811.772,-932.018 844.276,-919.249"/>
<polygon fill="midnightblue" stroke="midnightblue" points="845.787,-922.416 853.814,-915.501 843.227,-915.9 845.787,-922.416"/>
</g>
<!-- Node6&#45;&gt;Node8 -->
<g id="edge8" class="edge"><title>Node6&#45;&gt;Node8</title>
<path fill="none" stroke="midnightblue" d="M766.086,-973.988C818.236,-973.044 895.685,-964.209 949,-925 974.341,-906.363 988.58,-871.386 995.388,-849.468"/>
<polygon fill="midnightblue" stroke="midnightblue" points="998.821,-850.197 998.221,-839.619 992.093,-848.262 998.821,-850.197"/>
</g>
<!-- Node7&#45;&gt;Node8 -->
<g id="edge7" class="edge"><title>Node7&#45;&gt;Node8</title>
<path fill="none" stroke="midnightblue" d="M917.232,-896.492C927.949,-892.861 939.344,-888.087 949,-882 963.561,-872.821 977.132,-858.795 986.685,-847.622"/>
<polygon fill="midnightblue" stroke="midnightblue" points="989.502,-849.707 993.155,-839.762 984.097,-845.258 989.502,-849.707"/>
</g>
<!-- Node10 -->
<g id="node10" class="node"><title>Node10</title>
<g id="a_node10"><a xlink:href="a00059.html#a1ace8e13428ce953dc195ed8cf5105c7" target="_top" xlink:title="discovery_set_adapter_attr">
<polygon fill="none" stroke="black" points="321,-392.5 321,-411.5 455,-411.5 455,-392.5 321,-392.5"/>
<text text-anchor="middle" x="388" y="-399.5" font-family="Helvetica,sans-Serif" font-size="10.00">discovery_set_adapter_attr</text>
</a>
</g>
</g>
<!-- Node9&#45;&gt;Node10 -->
<g id="edge11" class="edge"><title>Node9&#45;&gt;Node10</title>
<path fill="none" stroke="midnightblue" d="M239.245,-462.494C258.14,-451.388 291.032,-433.008 321,-421 326.811,-418.672 333.014,-416.499 339.204,-414.516"/>
<polygon fill="midnightblue" stroke="midnightblue" points="340.324,-417.834 348.863,-411.562 338.277,-411.14 340.324,-417.834"/>
</g>
<!-- Node11 -->
<g id="node11" class="node"><title>Node11</title>
<g id="a_node11"><a xlink:href="a00042.html#a230c25a2f8e5de7ce61623a4ce8a809f" target="_top" xlink:title="hpd_map_set">
<polygon fill="none" stroke="red" points="512.5,-373.5 512.5,-392.5 587.5,-392.5 587.5,-373.5 512.5,-373.5"/>
<text text-anchor="middle" x="550" y="-380.5" font-family="Helvetica,sans-Serif" font-size="10.00">hpd_map_set</text>
</a>
</g>
</g>
<!-- Node10&#45;&gt;Node11 -->
<g id="edge12" class="edge"><title>Node10&#45;&gt;Node11</title>
<path fill="none" stroke="midnightblue" d="M455.002,-394.162C470.949,-392.269 487.661,-390.284 502.498,-388.522"/>
<polygon fill="midnightblue" stroke="midnightblue" points="502.919,-391.997 512.437,-387.342 502.094,-385.046 502.919,-391.997"/>
</g>
<!-- Node13 -->
<g id="node13" class="node"><title>Node13</title>
<g id="a_node13"><a xlink:href="a00059.html#aac31bf6cd5b56cc59af2d3b8ea2862ae" target="_top" xlink:title="discovery_is_adapter\l_id_unique">
<polygon fill="none" stroke="black" points="333.5,-771 333.5,-801 442.5,-801 442.5,-771 333.5,-771"/>
<text text-anchor="start" x="341.5" y="-789" font-family="Helvetica,sans-Serif" font-size="10.00">discovery_is_adapter</text>
<text text-anchor="middle" x="388" y="-778" font-family="Helvetica,sans-Serif" font-size="10.00">_id_unique</text>
</a>
</g>
</g>
<!-- Node12&#45;&gt;Node13 -->
<g id="edge14" class="edge"><title>Node12&#45;&gt;Node13</title>
<path fill="none" stroke="midnightblue" d="M273.889,-786C289.508,-786 306.926,-786 323.322,-786"/>
<polygon fill="midnightblue" stroke="midnightblue" points="323.375,-789.5 333.375,-786 323.375,-782.5 323.375,-789.5"/>
</g>
<!-- Node14 -->
<g id="node14" class="node"><title>Node14</title>
<g id="a_node14"><a xlink:href="a00059.html#afa5616fcf36352f0af085bb5f1ac3686" target="_top" xlink:title="discovery_attach_adapter">
<polygon fill="none" stroke="black" points="324,-820.5 324,-839.5 452,-839.5 452,-820.5 324,-820.5"/>
<text text-anchor="middle" x="388" y="-827.5" font-family="Helvetica,sans-Serif" font-size="10.00">discovery_attach_adapter</text>
</a>
</g>
</g>
<!-- Node12&#45;&gt;Node14 -->
<g id="edge15" class="edge"><title>Node12&#45;&gt;Node14</title>
<path fill="none" stroke="midnightblue" d="M258.977,-795.547C283.295,-802.092 315.758,-810.828 341.909,-817.865"/>
<polygon fill="midnightblue" stroke="midnightblue" points="341.026,-821.252 351.592,-820.471 342.845,-814.493 341.026,-821.252"/>
</g>
<!-- Node14&#45;&gt;Node8 -->
<g id="edge17" class="edge"><title>Node14&#45;&gt;Node8</title>
<path fill="none" stroke="midnightblue" d="M452.138,-830C584.251,-830 885.029,-830 974.765,-830"/>
<polygon fill="midnightblue" stroke="midnightblue" points="974.864,-833.5 984.864,-830 974.864,-826.5 974.864,-833.5"/>
</g>
<!-- Node15 -->
<g id="node15" class="node"><title>Node15</title>
<g id="a_node15"><a xlink:href="a00062.html#a7ef81e99623c1b5b75b3282aa9a25703" target="_top" xlink:title="event_inform_adapter\l_attached">
<polygon fill="none" stroke="red" points="495,-771 495,-801 605,-801 605,-771 495,-771"/>
<text text-anchor="start" x="503" y="-789" font-family="Helvetica,sans-Serif" font-size="10.00">event_inform_adapter</text>
<text text-anchor="middle" x="550" y="-778" font-family="Helvetica,sans-Serif" font-size="10.00">_attached</text>
</a>
</g>
</g>
<!-- Node14&#45;&gt;Node15 -->
<g id="edge16" class="edge"><title>Node14&#45;&gt;Node15</title>
<path fill="none" stroke="midnightblue" d="M423.718,-820.453C441.649,-815.521 464.106,-809.346 485.037,-803.59"/>
<polygon fill="midnightblue" stroke="midnightblue" points="486.128,-806.92 494.842,-800.894 484.272,-800.17 486.128,-806.92"/>
</g>
<!-- Node17 -->
<g id="node17" class="node"><title>Node17</title>
<g id="a_node17"><a xlink:href="a00011.html#a1915dc6bbbb6b1a2a587723caa22069d" target="_top" xlink:title="discovery_alloc_aid">
<polygon fill="none" stroke="black" points="337,-732.5 337,-751.5 439,-751.5 439,-732.5 337,-732.5"/>
<text text-anchor="middle" x="388" y="-739.5" font-family="Helvetica,sans-Serif" font-size="10.00">discovery_alloc_aid</text>
</a>
</g>
</g>
<!-- Node16&#45;&gt;Node17 -->
<g id="edge19" class="edge"><title>Node16&#45;&gt;Node17</title>
<path fill="none" stroke="midnightblue" d="M276.584,-727.143C292.645,-729.304 310.397,-731.693 326.883,-733.911"/>
<polygon fill="midnightblue" stroke="midnightblue" points="326.581,-737.402 336.959,-735.267 327.515,-730.464 326.581,-737.402"/>
</g>
<!-- Node18 -->
<g id="node18" class="node"><title>Node18</title>
<g id="a_node18"><a xlink:href="a00061.html#af2f553cfc3af4678b87a8fc75f35a5c6" target="_top" xlink:title="discovery_set_aid">
<polygon fill="none" stroke="black" points="502.5,-694.5 502.5,-713.5 597.5,-713.5 597.5,-694.5 502.5,-694.5"/>
<text text-anchor="middle" x="550" y="-701.5" font-family="Helvetica,sans-Serif" font-size="10.00">discovery_set_aid</text>
</a>
</g>
</g>
<!-- Node17&#45;&gt;Node18 -->
<g id="edge20" class="edge"><title>Node17&#45;&gt;Node18</title>
<path fill="none" stroke="midnightblue" d="M429.375,-732.411C450.488,-727.396 476.529,-721.212 498.917,-715.895"/>
<polygon fill="midnightblue" stroke="midnightblue" points="499.995,-719.236 508.916,-713.52 498.377,-712.426 499.995,-719.236"/>
</g>
<!-- Node19 -->
<g id="node19" class="node"><title>Node19</title>
<g id="a_node19"><a xlink:href="a00061.html#a2bd026e829a41663810ae68fa3797987" target="_top" xlink:title="discovery_free_aid">
<polygon fill="none" stroke="black" points="660,-744.5 660,-763.5 758,-763.5 758,-744.5 660,-744.5"/>
<text text-anchor="middle" x="709" y="-751.5" font-family="Helvetica,sans-Serif" font-size="10.00">discovery_free_aid</text>
</a>
</g>
</g>
<!-- Node17&#45;&gt;Node19 -->
<g id="edge21" class="edge"><title>Node17&#45;&gt;Node19</title>
<path fill="none" stroke="midnightblue" d="M439.195,-743.888C496.335,-746.038 589.536,-749.544 649.807,-751.811"/>
<polygon fill="midnightblue" stroke="midnightblue" points="649.799,-755.313 659.924,-752.191 650.062,-748.318 649.799,-755.313"/>
</g>
<!-- Node19&#45;&gt;Node8 -->
<g id="edge22" class="edge"><title>Node19&#45;&gt;Node8</title>
<path fill="none" stroke="midnightblue" d="M747.293,-763.532C794.348,-775.591 877.741,-797.072 949,-816 957.437,-818.241 966.64,-820.729 974.902,-822.978"/>
<polygon fill="midnightblue" stroke="midnightblue" points="974.166,-826.406 984.735,-825.663 976.01,-819.653 974.166,-826.406"/>
</g>
<!-- Node21 -->
<g id="node21" class="node"><title>Node21</title>
<g id="a_node21"><a xlink:href="a00059.html#a9f30460be089f53c8d995635aedc1097" target="_top" xlink:title="discovery_alloc_device">
<polygon fill="none" stroke="black" points="329,-972.5 329,-991.5 447,-991.5 447,-972.5 329,-972.5"/>
<text text-anchor="middle" x="388" y="-979.5" font-family="Helvetica,sans-Serif" font-size="10.00">discovery_alloc_device</text>
</a>
</g>
</g>
<!-- Node20&#45;&gt;Node21 -->
<g id="edge24" class="edge"><title>Node20&#45;&gt;Node21</title>
<path fill="none" stroke="midnightblue" d="M268.61,-982C284.03,-982 301.644,-982 318.487,-982"/>
<polygon fill="midnightblue" stroke="midnightblue" points="318.848,-985.5 328.848,-982 318.848,-978.5 318.848,-985.5"/>
</g>
<!-- Node21&#45;&gt;Node4 -->
<g id="edge25" class="edge"><title>Node21&#45;&gt;Node4</title>
<path fill="none" stroke="midnightblue" d="M429.375,-972.411C450.488,-967.396 476.529,-961.212 498.917,-955.895"/>
<polygon fill="midnightblue" stroke="midnightblue" points="499.995,-959.236 508.916,-953.52 498.377,-952.426 499.995,-959.236"/>
</g>
<!-- Node21&#45;&gt;Node6 -->
<g id="edge26" class="edge"><title>Node21&#45;&gt;Node6</title>
<path fill="none" stroke="midnightblue" d="M447.139,-980.177C502.066,-978.456 584.377,-975.875 641.803,-974.075"/>
<polygon fill="midnightblue" stroke="midnightblue" points="641.981,-977.571 651.867,-973.76 641.762,-970.575 641.981,-977.571"/>
</g>
<!-- Node23 -->
<g id="node23" class="node"><title>Node23</title>
<g id="a_node23"><a xlink:href="a00059.html#a56b004be3282718fac95524a7446748c" target="_top" xlink:title="discovery_set_device_attr">
<polygon fill="none" stroke="black" points="322.5,-354.5 322.5,-373.5 453.5,-373.5 453.5,-354.5 322.5,-354.5"/>
<text text-anchor="middle" x="388" y="-361.5" font-family="Helvetica,sans-Serif" font-size="10.00">discovery_set_device_attr</text>
</a>
</g>
</g>
<!-- Node22&#45;&gt;Node23 -->
<g id="edge28" class="edge"><title>Node22&#45;&gt;Node23</title>
<path fill="none" stroke="midnightblue" d="M256.587,-401.489C281.767,-394.25 316.633,-384.228 343.98,-376.367"/>
<polygon fill="midnightblue" stroke="midnightblue" points="345.039,-379.704 353.682,-373.578 343.105,-372.977 345.039,-379.704"/>
</g>
<!-- Node23&#45;&gt;Node11 -->
<g id="edge29" class="edge"><title>Node23&#45;&gt;Node11</title>
<path fill="none" stroke="midnightblue" d="M453.617,-371.673C469.825,-373.598 486.908,-375.627 502.068,-377.427"/>
<polygon fill="midnightblue" stroke="midnightblue" points="501.879,-380.929 512.222,-378.633 502.705,-373.978 501.879,-380.929"/>
</g>
<!-- Node25 -->
<g id="node25" class="node"><title>Node25</title>
<g id="a_node25"><a xlink:href="a00059.html#a9ac69d02cab7b0cff5d24b6eed07ca8d" target="_top" xlink:title="discovery_alloc_service">
<polygon fill="none" stroke="black" points="327.5,-896.5 327.5,-915.5 448.5,-915.5 448.5,-896.5 327.5,-896.5"/>
<text text-anchor="middle" x="388" y="-903.5" font-family="Helvetica,sans-Serif" font-size="10.00">discovery_alloc_service</text>
</a>
</g>
</g>
<!-- Node24&#45;&gt;Node25 -->
<g id="edge31" class="edge"><title>Node24&#45;&gt;Node25</title>
<path fill="none" stroke="midnightblue" d="M270.353,-906C284.905,-906 301.274,-906 317.045,-906"/>
<polygon fill="midnightblue" stroke="midnightblue" points="317.297,-909.5 327.297,-906 317.297,-902.5 317.297,-909.5"/>
</g>
<!-- Node25&#45;&gt;Node4 -->
<g id="edge32" class="edge"><title>Node25&#45;&gt;Node4</title>
<path fill="none" stroke="midnightblue" d="M429.375,-915.589C450.488,-920.604 476.529,-926.788 498.917,-932.105"/>
<polygon fill="midnightblue" stroke="midnightblue" points="498.377,-935.574 508.916,-934.48 499.995,-928.764 498.377,-935.574"/>
</g>
<!-- Node25&#45;&gt;Node7 -->
<g id="edge33" class="edge"><title>Node25&#45;&gt;Node7</title>
<path fill="none" stroke="midnightblue" d="M448.961,-906C540.375,-906 714.071,-906 810.038,-906"/>
<polygon fill="midnightblue" stroke="midnightblue" points="810.211,-909.5 820.211,-906 810.211,-902.5 810.211,-909.5"/>
</g>
<!-- Node27 -->
<g id="node27" class="node"><title>Node27</title>
<g id="a_node27"><a xlink:href="a00059.html#a643fa7550b6c59f0e1ac333ada9e9c34" target="_top" xlink:title="discovery_set_service\l_actions_v">
<polygon fill="none" stroke="black" points="331,-305 331,-335 445,-335 445,-305 331,-305"/>
<text text-anchor="start" x="339" y="-323" font-family="Helvetica,sans-Serif" font-size="10.00">discovery_set_service</text>
<text text-anchor="middle" x="388" y="-312" font-family="Helvetica,sans-Serif" font-size="10.00">_actions_v</text>
</a>
</g>
</g>
<!-- Node26&#45;&gt;Node27 -->
<g id="edge35" class="edge"><title>Node26&#45;&gt;Node27</title>
<path fill="none" stroke="midnightblue" d="M285.312,-323.732C296.853,-323.308 308.958,-322.864 320.629,-322.436"/>
<polygon fill="midnightblue" stroke="midnightblue" points="320.884,-325.929 330.749,-322.064 320.627,-318.933 320.884,-325.929"/>
</g>
<!-- Node28 -->
<g id="node28" class="node"><title>Node28</title>
<g id="a_node28"><a xlink:href="a00059.html#a12840172fcaa82f6903016d664e05cc5" target="_top" xlink:title="discovery_set_service\l_action">
<polygon fill="none" stroke="black" points="493,-305 493,-335 607,-335 607,-305 493,-305"/>
<text text-anchor="start" x="501" y="-323" font-family="Helvetica,sans-Serif" font-size="10.00">discovery_set_service</text>
<text text-anchor="middle" x="550" y="-312" font-family="Helvetica,sans-Serif" font-size="10.00">_action</text>
</a>
</g>
</g>
<!-- Node27&#45;&gt;Node28 -->
<g id="edge36" class="edge"><title>Node27&#45;&gt;Node28</title>
<path fill="none" stroke="midnightblue" d="M445.41,-320C457.43,-320 470.229,-320 482.584,-320"/>
<polygon fill="midnightblue" stroke="midnightblue" points="482.83,-323.5 492.83,-320 482.83,-316.5 482.83,-323.5"/>
</g>
<!-- Node30 -->
<g id="node30" class="node"><title>Node30</title>
<g id="a_node30"><a xlink:href="a00052.html#aca2889acbf34cd741e8b152ffc8a21db" target="_top" xlink:title="[hpd_parameter_t functions] ">
<polygon fill="none" stroke="red" points="325.5,-266.5 325.5,-285.5 450.5,-285.5 450.5,-266.5 325.5,-266.5"/>
<text text-anchor="middle" x="388" y="-273.5" font-family="Helvetica,sans-Serif" font-size="10.00">hpd_request_get_service</text>
</a>
</g>
</g>
<!-- Node29&#45;&gt;Node30 -->
<g id="edge38" class="edge"><title>Node29&#45;&gt;Node30</title>
<path fill="none" stroke="midnightblue" d="M237.449,-209.664C255.866,-222.062 289.638,-243.568 321,-257 326.407,-259.316 332.18,-261.444 337.979,-263.372"/>
<polygon fill="midnightblue" stroke="midnightblue" points="337.11,-266.768 347.7,-266.425 339.207,-260.09 337.11,-266.768"/>
</g>
<!-- Node31 -->
<g id="node31" class="node"><title>Node31</title>
<g id="a_node31"><a xlink:href="a00056.html#a90138cb6c91b2b93f66c4f8a76495394" target="_top" xlink:title="[hpd_device_t functions] ">
<polygon fill="none" stroke="red" points="337.5,-228.5 337.5,-247.5 438.5,-247.5 438.5,-228.5 337.5,-228.5"/>
<text text-anchor="middle" x="388" y="-235.5" font-family="Helvetica,sans-Serif" font-size="10.00">hpd_service_get_id</text>
</a>
</g>
</g>
<!-- Node29&#45;&gt;Node31 -->
<g id="edge39" class="edge"><title>Node29&#45;&gt;Node31</title>
<path fill="none" stroke="midnightblue" d="M264.758,-209.589C286.431,-214.626 313.183,-220.844 336.13,-226.177"/>
<polygon fill="midnightblue" stroke="midnightblue" points="335.506,-229.625 346.039,-228.48 337.091,-222.807 335.506,-229.625"/>
</g>
<!-- Node32 -->
<g id="node32" class="node"><title>Node32</title>
<g id="a_node32"><a xlink:href="a00056.html#a344d7fd8e951958c7ce52209d60f2ccf" target="_top" xlink:title="[Browsing foreach loops] ">
<polygon fill="none" stroke="red" points="345,-190.5 345,-209.5 431,-209.5 431,-190.5 345,-190.5"/>
<text text-anchor="middle" x="388" y="-197.5" font-family="Helvetica,sans-Serif" font-size="10.00">hpd_value_alloc</text>
</a>
</g>
</g>
<!-- Node29&#45;&gt;Node32 -->
<g id="edge40" class="edge"><title>Node29&#45;&gt;Node32</title>
<path fill="none" stroke="midnightblue" d="M270.791,-200C290.8,-200 314.18,-200 334.702,-200"/>
<polygon fill="midnightblue" stroke="midnightblue" points="334.828,-203.5 344.828,-200 334.828,-196.5 334.828,-203.5"/>
</g>
<!-- Node33 -->
<g id="node33" class="node"><title>Node33</title>
<g id="a_node33"><a xlink:href="a00052.html#aff4eae061b1220e0bb55de72f8129493" target="_top" xlink:title="[hpd_request_t functions] ">
<polygon fill="none" stroke="red" points="336.5,-152.5 336.5,-171.5 439.5,-171.5 439.5,-152.5 336.5,-152.5"/>
<text text-anchor="middle" x="388" y="-159.5" font-family="Helvetica,sans-Serif" font-size="10.00">hpd_response_alloc</text>
</a>
</g>
</g>
<!-- Node29&#45;&gt;Node33 -->
<g id="edge41" class="edge"><title>Node29&#45;&gt;Node33</title>
<path fill="none" stroke="midnightblue" d="M264.758,-190.411C286.431,-185.374 313.183,-179.156 336.13,-173.823"/>
<polygon fill="midnightblue" stroke="midnightblue" points="337.091,-177.193 346.039,-171.52 335.506,-170.375 337.091,-177.193"/>
</g>
<!-- Node34 -->
<g id="node34" class="node"><title>Node34</title>
<g id="a_node34"><a xlink:href="a00052.html#a23aa9a2e797738188778c906be59221a" target="_top" xlink:title="hpd_response_set_value">
<polygon fill="none" stroke="red" points="325.5,-114.5 325.5,-133.5 450.5,-133.5 450.5,-114.5 325.5,-114.5"/>
<text text-anchor="middle" x="388" y="-121.5" font-family="Helvetica,sans-Serif" font-size="10.00">hpd_response_set_value</text>
</a>
</g>
</g>
<!-- Node29&#45;&gt;Node34 -->
<g id="edge42" class="edge"><title>Node29&#45;&gt;Node34</title>
<path fill="none" stroke="midnightblue" d="M237.449,-190.336C255.866,-177.938 289.638,-156.432 321,-143 326.407,-140.684 332.18,-138.556 337.979,-136.628"/>
<polygon fill="midnightblue" stroke="midnightblue" points="339.207,-139.91 347.7,-133.575 337.11,-133.232 339.207,-139.91"/>
</g>
<!-- Node35 -->
<g id="node35" class="node"><title>Node35</title>
<g id="a_node35"><a xlink:href="a00052.html#a0f52d1f4e06fe16eb27a1b394bcd6d86" target="_top" xlink:title="hpd_respond">
<polygon fill="none" stroke="red" points="352,-76.5 352,-95.5 424,-95.5 424,-76.5 352,-76.5"/>
<text text-anchor="middle" x="388" y="-83.5" font-family="Helvetica,sans-Serif" font-size="10.00">hpd_respond</text>
</a>
</g>
</g>
<!-- Node29&#45;&gt;Node35 -->
<g id="edge43" class="edge"><title>Node29&#45;&gt;Node35</title>
<path fill="none" stroke="midnightblue" d="M230.682,-190.333C245.439,-171.154 281.152,-128.153 321,-105 327.45,-101.252 334.689,-98.2016 341.947,-95.7311"/>
<polygon fill="midnightblue" stroke="midnightblue" points="343.25,-98.9922 351.782,-92.7108 341.195,-92.3006 343.25,-98.9922"/>
</g>
<!-- Node36&#45;&gt;Node33 -->
<g id="edge47" class="edge"><title>Node36&#45;&gt;Node33</title>
<path fill="none" stroke="midnightblue" d="M246.136,-114.501C265.76,-122.573 295.012,-134.215 321,-143 327.603,-145.232 334.631,-147.435 341.547,-149.506"/>
<polygon fill="midnightblue" stroke="midnightblue" points="340.954,-152.98 351.535,-152.435 342.924,-146.263 340.954,-152.98"/>
</g>
<!-- Node36&#45;&gt;Node34 -->
<g id="edge48" class="edge"><title>Node36&#45;&gt;Node34</title>
<path fill="none" stroke="midnightblue" d="M270.791,-110.496C284.661,-112.107 300.15,-113.907 315.185,-115.655"/>
<polygon fill="midnightblue" stroke="midnightblue" points="315.158,-119.175 325.495,-116.853 315.966,-112.222 315.158,-119.175"/>
</g>
<!-- Node36&#45;&gt;Node35 -->
<g id="edge49" class="edge"><title>Node36&#45;&gt;Node35</title>
<path fill="none" stroke="midnightblue" d="M270.791,-99.5044C293.099,-96.912 319.598,-93.8326 341.655,-91.2695"/>
<polygon fill="midnightblue" stroke="midnightblue" points="342.236,-94.7256 351.765,-90.0946 341.428,-87.7724 342.236,-94.7256"/>
</g>
<!-- Node37 -->
<g id="node37" class="node"><title>Node37</title>
<g id="a_node37"><a xlink:href="a00052.html#aef0a17399a2346728d501e98602c0516" target="_top" xlink:title="hpd_request_get_value">
<polygon fill="none" stroke="red" points="329.5,-38.5 329.5,-57.5 446.5,-57.5 446.5,-38.5 329.5,-38.5"/>
<text text-anchor="middle" x="388" y="-45.5" font-family="Helvetica,sans-Serif" font-size="10.00">hpd_request_get_value</text>
</a>
</g>
</g>
<!-- Node36&#45;&gt;Node37 -->
<g id="edge45" class="edge"><title>Node36&#45;&gt;Node37</title>
<path fill="none" stroke="midnightblue" d="M246.136,-95.4994C265.76,-87.4269 295.012,-75.7846 321,-67 327.603,-64.7681 334.631,-62.5649 341.547,-60.4935"/>
<polygon fill="midnightblue" stroke="midnightblue" points="342.924,-63.7372 351.535,-57.5653 340.954,-57.0199 342.924,-63.7372"/>
</g>
<!-- Node38 -->
<g id="node38" class="node"><title>Node38</title>
<g id="a_node38"><a xlink:href="a00056.html#a8b5be61f356ac1d72634654e16794610" target="_top" xlink:title="hpd_value_copy">
<polygon fill="none" stroke="red" points="344.5,-0.5 344.5,-19.5 431.5,-19.5 431.5,-0.5 344.5,-0.5"/>
<text text-anchor="middle" x="388" y="-7.5" font-family="Helvetica,sans-Serif" font-size="10.00">hpd_value_copy</text>
</a>
</g>
</g>
<!-- Node36&#45;&gt;Node38 -->
<g id="edge46" class="edge"><title>Node36&#45;&gt;Node38</title>
<path fill="none" stroke="midnightblue" d="M233.137,-95.3834C249.698,-79.3737 285.24,-47.2192 321,-29 325.532,-26.6911 330.386,-24.6241 335.329,-22.7825"/>
<polygon fill="midnightblue" stroke="midnightblue" points="336.554,-26.0626 344.883,-19.5145 334.289,-19.4394 336.554,-26.0626"/>
</g>
<!-- Node40 -->
<g id="node40" class="node"><title>Node40</title>
<g id="a_node40"><a xlink:href="a00059.html#a3f84f32d27f7748c7fb9b0dbf24e4dc4" target="_top" xlink:title="discovery_alloc_parameter">
<polygon fill="none" stroke="red" points="321.5,-934.5 321.5,-953.5 454.5,-953.5 454.5,-934.5 321.5,-934.5"/>
<text text-anchor="middle" x="388" y="-941.5" font-family="Helvetica,sans-Serif" font-size="10.00">discovery_alloc_parameter</text>
</a>
</g>
</g>
<!-- Node39&#45;&gt;Node40 -->
<g id="edge51" class="edge"><title>Node39&#45;&gt;Node40</title>
<path fill="none" stroke="midnightblue" d="M276.132,-944C287.252,-944 299.197,-944 310.983,-944"/>
<polygon fill="midnightblue" stroke="midnightblue" points="311.275,-947.5 321.275,-944 311.275,-940.5 311.275,-947.5"/>
</g>
<!-- Node40&#45;&gt;Node4 -->
<g id="edge52" class="edge"><title>Node40&#45;&gt;Node4</title>
<path fill="none" stroke="midnightblue" d="M454.54,-944C469.119,-944 484.362,-944 498.242,-944"/>
<polygon fill="midnightblue" stroke="midnightblue" points="498.557,-947.5 508.557,-944 498.557,-940.5 498.557,-947.5"/>
</g>
<!-- Node42 -->
<g id="node42" class="node"><title>Node42</title>
<g id="a_node42"><a xlink:href="a00059.html#a1ae657e03b1c4f82381c46c4966ee313" target="_top" xlink:title="discovery_is_parameter\l_id_unique">
<polygon fill="none" stroke="black" points="328,-645 328,-675 448,-675 448,-645 328,-645"/>
<text text-anchor="start" x="336" y="-663" font-family="Helvetica,sans-Serif" font-size="10.00">discovery_is_parameter</text>
<text text-anchor="middle" x="388" y="-652" font-family="Helvetica,sans-Serif" font-size="10.00">_id_unique</text>
</a>
</g>
</g>
<!-- Node41&#45;&gt;Node42 -->
<g id="edge54" class="edge"><title>Node41&#45;&gt;Node42</title>
<path fill="none" stroke="midnightblue" d="M279.31,-667.245C291.646,-666.415 304.862,-665.526 317.662,-664.665"/>
<polygon fill="midnightblue" stroke="midnightblue" points="318.07,-668.145 327.813,-663.982 317.601,-661.161 318.07,-668.145"/>
</g>
<!-- Node43 -->
<g id="node43" class="node"><title>Node43</title>
<g id="a_node43"><a xlink:href="a00059.html#a1c0f6aea78a0a20196e4a03641c30755" target="_top" xlink:title="discovery_attach_parameter">
<polygon fill="none" stroke="black" points="809,-688.5 809,-707.5 949,-707.5 949,-688.5 809,-688.5"/>
<text text-anchor="middle" x="879" y="-695.5" font-family="Helvetica,sans-Serif" font-size="10.00">discovery_attach_parameter</text>
</a>
</g>
</g>
<!-- Node41&#45;&gt;Node43 -->
<g id="edge55" class="edge"><title>Node41&#45;&gt;Node43</title>
<path fill="none" stroke="midnightblue" d="M279.06,-679.668C292.737,-681.454 307.37,-683.072 321,-684 352.926,-686.175 577.011,-684.172 609,-685 672.889,-686.654 745.243,-690.248 798.808,-693.239"/>
<polygon fill="midnightblue" stroke="midnightblue" points="798.742,-696.74 808.923,-693.809 799.136,-689.751 798.742,-696.74"/>
</g>
<!-- Node43&#45;&gt;Node8 -->
<g id="edge56" class="edge"><title>Node43&#45;&gt;Node8</title>
<path fill="none" stroke="midnightblue" d="M894.556,-707.602C909.317,-717.774 932.303,-734.848 949,-753 965.59,-771.036 980.676,-794.881 990.171,-811.23"/>
<polygon fill="midnightblue" stroke="midnightblue" points="987.349,-813.348 995.324,-820.322 993.438,-809.896 987.349,-813.348"/>
</g>
<!-- Node45 -->
<g id="node45" class="node"><title>Node45</title>
<g id="a_node45"><a xlink:href="a00059.html#a08b48adff4a5e7d078589e6a9b9070f7" target="_top" xlink:title="discovery_is_service\l_id_unique">
<polygon fill="none" stroke="black" points="334,-557 334,-587 442,-587 442,-557 334,-557"/>
<text text-anchor="start" x="342" y="-575" font-family="Helvetica,sans-Serif" font-size="10.00">discovery_is_service</text>
<text text-anchor="middle" x="388" y="-564" font-family="Helvetica,sans-Serif" font-size="10.00">_id_unique</text>
</a>
</g>
</g>
<!-- Node44&#45;&gt;Node45 -->
<g id="edge58" class="edge"><title>Node44&#45;&gt;Node45</title>
<path fill="none" stroke="midnightblue" d="M258.977,-606.453C278.039,-601.323 302.107,-594.846 324.215,-588.896"/>
<polygon fill="midnightblue" stroke="midnightblue" points="325.132,-592.274 333.879,-586.296 323.313,-585.515 325.132,-592.274"/>
</g>
<!-- Node46 -->
<g id="node46" class="node"><title>Node46</title>
<g id="a_node46"><a xlink:href="a00059.html#ab4f92e53eeaf47d2ee95e64a990dc022" target="_top" xlink:title="discovery_attach_service">
<polygon fill="none" stroke="black" points="645,-612.5 645,-631.5 773,-631.5 773,-612.5 645,-612.5"/>
<text text-anchor="middle" x="709" y="-619.5" font-family="Helvetica,sans-Serif" font-size="10.00">discovery_attach_service</text>
</a>
</g>
</g>
<!-- Node44&#45;&gt;Node46 -->
<g id="edge59" class="edge"><title>Node44&#45;&gt;Node46</title>
<path fill="none" stroke="midnightblue" d="M273.073,-616.614C358.763,-617.675 534.966,-619.857 634.797,-621.093"/>
<polygon fill="midnightblue" stroke="midnightblue" points="634.763,-624.593 644.805,-621.217 634.849,-617.594 634.763,-624.593"/>
</g>
<!-- Node46&#45;&gt;Node8 -->
<g id="edge60" class="edge"><title>Node46&#45;&gt;Node8</title>
<path fill="none" stroke="midnightblue" d="M773.063,-621.001C826.268,-623.535 901.194,-635.514 949,-679 987.123,-713.678 997.035,-777.713 999.605,-810.113"/>
<polygon fill="midnightblue" stroke="midnightblue" points="996.116,-810.395 1000.24,-820.154 1003.1,-809.952 996.116,-810.395"/>
</g>
<!-- Node48 -->
<g id="node48" class="node"><title>Node48</title>
<g id="a_node48"><a xlink:href="a00011.html#a690059fc206d49f639837d41fd5ced05" target="_top" xlink:title="discovery_find_adapter">
<polygon fill="none" stroke="black" points="329.5,-480.5 329.5,-499.5 446.5,-499.5 446.5,-480.5 329.5,-480.5"/>
<text text-anchor="middle" x="388" y="-487.5" font-family="Helvetica,sans-Serif" font-size="10.00">discovery_find_adapter</text>
</a>
</g>
</g>
<!-- Node47&#45;&gt;Node48 -->
<g id="edge62" class="edge"><title>Node47&#45;&gt;Node48</title>
<path fill="none" stroke="midnightblue" d="M271.671,-512.572C289.477,-509.087 309.855,-505.099 328.479,-501.454"/>
<polygon fill="midnightblue" stroke="midnightblue" points="329.184,-504.882 338.325,-499.527 327.839,-498.013 329.184,-504.882"/>
</g>
<!-- Node49 -->
<g id="node49" class="node"><title>Node49</title>
<g id="a_node49"><a xlink:href="a00059.html#ab36fdf5db19b4fa411dcb53a85a023eb" target="_top" xlink:title="discovery_is_device\l_id_unique">
<polygon fill="none" stroke="black" points="335.5,-431 335.5,-461 440.5,-461 440.5,-431 335.5,-431"/>
<text text-anchor="start" x="343.5" y="-449" font-family="Helvetica,sans-Serif" font-size="10.00">discovery_is_device</text>
<text text-anchor="middle" x="388" y="-438" font-family="Helvetica,sans-Serif" font-size="10.00">_id_unique</text>
</a>
</g>
</g>
<!-- Node47&#45;&gt;Node49 -->
<g id="edge63" class="edge"><title>Node47&#45;&gt;Node49</title>
<path fill="none" stroke="midnightblue" d="M242.992,-512.425C255.137,-506.397 271.052,-498.386 285,-491 301.175,-482.435 304.398,-478.706 321,-471 325.421,-468.948 330.062,-466.93 334.748,-464.984"/>
<polygon fill="midnightblue" stroke="midnightblue" points="336.404,-468.09 344.372,-461.107 333.788,-461.598 336.404,-468.09"/>
</g>
<!-- Node50 -->
<g id="node50" class="node"><title>Node50</title>
<g id="a_node50"><a xlink:href="a00059.html#affbbf9ded6a14798e8b3336886c72e0a" target="_top" xlink:title="discovery_attach_device">
<polygon fill="none" stroke="red" points="816.5,-554.5 816.5,-573.5 941.5,-573.5 941.5,-554.5 816.5,-554.5"/>
<text text-anchor="middle" x="879" y="-561.5" font-family="Helvetica,sans-Serif" font-size="10.00">discovery_attach_device</text>
</a>
</g>
</g>
<!-- Node47&#45;&gt;Node50 -->
<g id="edge64" class="edge"><title>Node47&#45;&gt;Node50</title>
<path fill="none" stroke="midnightblue" d="M271.627,-525.088C385.419,-532.391 671.555,-550.752 806.042,-559.382"/>
<polygon fill="midnightblue" stroke="midnightblue" points="806.035,-562.889 816.239,-560.037 806.483,-555.903 806.035,-562.889"/>
</g>
<!-- Node50&#45;&gt;Node8 -->
<g id="edge65" class="edge"><title>Node50&#45;&gt;Node8</title>
<path fill="none" stroke="midnightblue" d="M895.935,-573.654C911.794,-584.097 935.641,-602.211 949,-624 986.195,-684.665 996.579,-770.967 999.436,-809.752"/>
<polygon fill="midnightblue" stroke="midnightblue" points="995.972,-810.426 1000.1,-820.182 1002.96,-809.98 995.972,-810.426"/>
</g>
</g>
</svg>
