<?xml version="1.0" encoding="UTF-8" standalone="no"?>
<!DOCTYPE svg PUBLIC "-//W3C//DTD SVG 1.1//EN"
 "http://www.w3.org/Graphics/SVG/1.1/DTD/svg11.dtd">
<!-- Generated by graphviz version 2.38.0 (20140413.2041)
 -->
<!-- Title: hpd_adapter_get_id Pages: 1 -->
<svg width="273pt" height="66pt"
 viewBox="0.00 0.00 273.00 66.00" xmlns="http://www.w3.org/2000/svg" xmlns:xlink="http://www.w3.org/1999/xlink">
<g id="graph0" class="graph" transform="scale(1 1) rotate(0) translate(4 62)">
<title>hpd_adapter_get_id</title>
<!-- Node1 -->
<g id="node1" class="node"><title>Node1</title>
<polygon fill="#bfbfbf" stroke="black" points="0,-19.5 0,-38.5 101,-38.5 101,-19.5 0,-19.5"/>
<text text-anchor="middle" x="50.5" y="-26.5" font-family="Helvetica,sans-Serif" font-size="10.00">hpd_adapter_get_id</text>
</g>
<!-- Node2 -->
<g id="node2" class="node"><title>Node2</title>
<g id="a_node2"><a xlink:href="a00011.html#a690059fc206d49f639837d41fd5ced05" target="_top" xlink:title="discovery_find_adapter">
<polygon fill="none" stroke="black" points="142.5,-38.5 142.5,-57.5 259.5,-57.5 259.5,-38.5 142.5,-38.5"/>
<text text-anchor="middle" x="201" y="-45.5" font-family="Helvetica,sans-Serif" font-size="10.00">discovery_find_adapter</text>
</a>
</g>
</g>
<!-- Node1&#45;&gt;Node2 -->
<g id="edge1" class="edge"><title>Node1&#45;&gt;Node2</title>
<path fill="none" stroke="midnightblue" d="M101.361,-35.3796C111.323,-36.6541 121.942,-38.0128 132.386,-39.349"/>
<polygon fill="midnightblue" stroke="midnightblue" points="131.954,-42.8222 142.317,-40.6197 132.842,-35.8788 131.954,-42.8222"/>
</g>
<!-- Node3 -->
<g id="node3" class="node"><title>Node3</title>
<g id="a_node3"><a xlink:href="a00059.html#af7f7554fd8858506bf900674f0dd07be" target="_top" xlink:title="discovery_get_adapter_id">
<polygon fill="none" stroke="black" points="137,-0.5 137,-19.5 265,-19.5 265,-0.5 137,-0.5"/>
<text text-anchor="middle" x="201" y="-7.5" font-family="Helvetica,sans-Serif" font-size="10.00">discovery_get_adapter_id</text>
</a>
</g>
</g>
<!-- Node1&#45;&gt;Node3 -->
<g id="edge2" class="edge"><title>Node1&#45;&gt;Node3</title>
<path fill="none" stroke="midnightblue" d="M101.361,-22.6204C109.537,-21.5744 118.157,-20.4715 126.758,-19.371"/>
<polygon fill="midnightblue" stroke="midnightblue" points="127.345,-22.8245 136.82,-18.0836 126.457,-15.8811 127.345,-22.8245"/>
</g>
</g>
</svg>
