<?xml version="1.0" encoding="UTF-8" standalone="no"?>
<!DOCTYPE svg PUBLIC "-//W3C//DTD SVG 1.1//EN"
 "http://www.w3.org/Graphics/SVG/1.1/DTD/svg11.dtd">
<!-- Generated by graphviz version 2.38.0 (20140413.2041)
 -->
<!-- Title: test_thread Pages: 1 -->
<svg width="443pt" height="85pt"
 viewBox="0.00 0.00 443.00 85.00" xmlns="http://www.w3.org/2000/svg" xmlns:xlink="http://www.w3.org/1999/xlink">
<g id="graph0" class="graph" transform="scale(1 1) rotate(0) translate(4 81)">
<title>test_thread</title>
<!-- Node1 -->
<g id="node1" class="node"><title>Node1</title>
<polygon fill="#bfbfbf" stroke="black" points="0,-19.5 0,-38.5 65,-38.5 65,-19.5 0,-19.5"/>
<text text-anchor="middle" x="32.5" y="-26.5" font-family="Helvetica,sans-Serif" font-size="10.00">test_thread</text>
</g>
<!-- Node2 -->
<g id="node2" class="node"><title>Node2</title>
<g id="a_node2"><a xlink:href="a00046.html#a82037186db801b2bc2e45efd5e58deb9" target="_top" xlink:title="basic_get_test">
<polygon fill="none" stroke="black" points="101,-19.5 101,-38.5 181,-38.5 181,-19.5 101,-19.5"/>
<text text-anchor="middle" x="141" y="-26.5" font-family="Helvetica,sans-Serif" font-size="10.00">basic_get_test</text>
</a>
</g>
</g>
<!-- Node1&#45;&gt;Node2 -->
<g id="edge1" class="edge"><title>Node1&#45;&gt;Node2</title>
<path fill="none" stroke="midnightblue" d="M65.1652,-29C73.1859,-29 81.9932,-29 90.6614,-29"/>
<polygon fill="midnightblue" stroke="midnightblue" points="90.718,-32.5001 100.718,-29 90.7179,-25.5001 90.718,-32.5001"/>
</g>
<!-- Node3 -->
<g id="node3" class="node"><title>Node3</title>
<g id="a_node3"><a xlink:href="a00046.html#adee3ed193c880b748e304af40508a8f9" target="_top" xlink:title="simple_get_request">
<polygon fill="none" stroke="black" points="217,-38.5 217,-57.5 318,-57.5 318,-38.5 217,-38.5"/>
<text text-anchor="middle" x="267.5" y="-45.5" font-family="Helvetica,sans-Serif" font-size="10.00">simple_get_request</text>
</a>
</g>
</g>
<!-- Node2&#45;&gt;Node3 -->
<g id="edge2" class="edge"><title>Node2&#45;&gt;Node3</title>
<path fill="none" stroke="midnightblue" d="M181.051,-34.9596C189.149,-36.1955 197.859,-37.5247 206.51,-38.845"/>
<polygon fill="midnightblue" stroke="midnightblue" points="206.186,-42.3359 216.599,-40.3847 207.242,-35.416 206.186,-42.3359"/>
</g>
<!-- Node6 -->
<g id="node6" class="node"><title>Node6</title>
<g id="a_node6"><a xlink:href="a00006.html#adf46370d9c211c3be22966b4606ba9b0" target="_top" xlink:title="free">
<polygon fill="none" stroke="black" points="251,-0.5 251,-19.5 284,-19.5 284,-0.5 251,-0.5"/>
<text text-anchor="middle" x="267.5" y="-7.5" font-family="Helvetica,sans-Serif" font-size="10.00">free</text>
</a>
</g>
</g>
<!-- Node2&#45;&gt;Node6 -->
<g id="edge5" class="edge"><title>Node2&#45;&gt;Node6</title>
<path fill="none" stroke="midnightblue" d="M181.051,-23.0404C200.539,-20.0663 223.567,-16.552 240.805,-13.9214"/>
<polygon fill="midnightblue" stroke="midnightblue" points="241.348,-17.3791 250.705,-12.4104 240.292,-10.4592 241.348,-17.3791"/>
</g>
<!-- Node4 -->
<g id="node4" class="node"><title>Node4</title>
<g id="a_node4"><a xlink:href="a00046.html#a7f408e810f259536ad88eb6544321c97" target="_top" xlink:title="data_from_curl">
<polygon fill="none" stroke="black" points="354,-57.5 354,-76.5 435,-76.5 435,-57.5 354,-57.5"/>
<text text-anchor="middle" x="394.5" y="-64.5" font-family="Helvetica,sans-Serif" font-size="10.00">data_from_curl</text>
</a>
</g>
</g>
<!-- Node3&#45;&gt;Node4 -->
<g id="edge3" class="edge"><title>Node3&#45;&gt;Node4</title>
<path fill="none" stroke="midnightblue" d="M318.262,-55.5639C326.685,-56.8441 335.429,-58.1732 343.848,-59.4529"/>
<polygon fill="midnightblue" stroke="midnightblue" points="343.501,-62.9402 353.913,-60.9828 344.553,-56.0197 343.501,-62.9402"/>
</g>
<!-- Node5 -->
<g id="node5" class="node"><title>Node5</title>
<g id="a_node5"><a xlink:href="a00046.html#a68f272ec552814c8ec9ccda720fe9869" target="_top" xlink:title="data_to_curl">
<polygon fill="none" stroke="black" points="359.5,-19.5 359.5,-38.5 429.5,-38.5 429.5,-19.5 359.5,-19.5"/>
<text text-anchor="middle" x="394.5" y="-26.5" font-family="Helvetica,sans-Serif" font-size="10.00">data_to_curl</text>
</a>
</g>
</g>
<!-- Node3&#45;&gt;Node5 -->
<g id="edge4" class="edge"><title>Node3&#45;&gt;Node5</title>
<path fill="none" stroke="midnightblue" d="M318.262,-40.4361C328.47,-38.8846 339.15,-37.2612 349.151,-35.741"/>
<polygon fill="midnightblue" stroke="midnightblue" points="349.919,-39.1645 359.28,-34.2014 348.868,-32.244 349.919,-39.1645"/>
</g>
</g>
</svg>
