<?xml version="1.0" encoding="UTF-8" standalone="no"?>
<!DOCTYPE svg PUBLIC "-//W3C//DTD SVG 1.1//EN"
 "http://www.w3.org/Graphics/SVG/1.1/DTD/svg11.dtd">
<!-- Generated by graphviz version 2.38.0 (20140413.2041)
 -->
<!-- Title: basic_get_multithreaded_stress_test Pages: 1 -->
<svg width="648pt" height="100pt"
 viewBox="0.00 0.00 648.00 99.50" xmlns="http://www.w3.org/2000/svg" xmlns:xlink="http://www.w3.org/1999/xlink">
<g id="graph0" class="graph" transform="scale(1 1) rotate(0) translate(4 95.5)">
<title>basic_get_multithreaded_stress_test</title>
<!-- Node1 -->
<g id="node1" class="node"><title>Node1</title>
<polygon fill="#bfbfbf" stroke="black" points="0,-0.5 0,-30.5 122,-30.5 122,-0.5 0,-0.5"/>
<text text-anchor="start" x="8" y="-18.5" font-family="Helvetica,sans-Serif" font-size="10.00">basic_get_multithreaded</text>
<text text-anchor="middle" x="61" y="-7.5" font-family="Helvetica,sans-Serif" font-size="10.00">_stress_test</text>
</g>
<!-- Node2 -->
<g id="node2" class="node"><title>Node2</title>
<g id="a_node2"><a xlink:href="a00031.html#a46e90a73cf2ceec5920442647a8cabec" target="_top" xlink:title="get_mt_loop">
<polygon fill="none" stroke="black" points="158,-28 158,-47 228,-47 228,-28 158,-28"/>
<text text-anchor="middle" x="193" y="-35" font-family="Helvetica,sans-Serif" font-size="10.00">get_mt_loop</text>
</a>
</g>
</g>
<!-- Node1&#45;&gt;Node2 -->
<g id="edge1" class="edge"><title>Node1&#45;&gt;Node2</title>
<path fill="none" stroke="midnightblue" d="M122.053,-25.6628C130.66,-27.1194 139.384,-28.5957 147.615,-29.9887"/>
<polygon fill="midnightblue" stroke="midnightblue" points="147.289,-33.4831 157.732,-31.7009 148.457,-26.5813 147.289,-33.4831"/>
</g>
<!-- Node6 -->
<g id="node6" class="node"><title>Node6</title>
<g id="a_node6"><a xlink:href="a00006.html#adf46370d9c211c3be22966b4606ba9b0" target="_top" xlink:title="free">
<polygon fill="none" stroke="black" points="456,-9 456,-28 489,-28 489,-9 456,-9"/>
<text text-anchor="middle" x="472.5" y="-16" font-family="Helvetica,sans-Serif" font-size="10.00">free</text>
</a>
</g>
</g>
<!-- Node1&#45;&gt;Node6 -->
<g id="edge7" class="edge"><title>Node1&#45;&gt;Node6</title>
<path fill="none" stroke="midnightblue" d="M122.034,-13.3553C187.09,-11.4024 293.943,-9.2739 386,-12.5 406.006,-13.2011 428.597,-14.8223 445.532,-16.203"/>
<polygon fill="midnightblue" stroke="midnightblue" points="445.501,-19.7126 455.759,-17.0634 446.088,-12.7373 445.501,-19.7126"/>
</g>
<!-- Node3 -->
<g id="node3" class="node"><title>Node3</title>
<g id="a_node3"><a xlink:href="a00031.html#ad1803275aed905051c4d618367423cc9" target="_top" xlink:title="basic_get_contains_test">
<polygon fill="none" stroke="black" points="264,-72 264,-91 386,-91 386,-72 264,-72"/>
<text text-anchor="middle" x="325" y="-79" font-family="Helvetica,sans-Serif" font-size="10.00">basic_get_contains_test</text>
</a>
</g>
</g>
<!-- Node2&#45;&gt;Node3 -->
<g id="edge2" class="edge"><title>Node2&#45;&gt;Node3</title>
<path fill="none" stroke="midnightblue" d="M220.181,-47.1051C233.298,-51.8521 249.447,-57.5987 264,-62.5 270.184,-64.5826 276.748,-66.7275 283.178,-68.7923"/>
<polygon fill="midnightblue" stroke="midnightblue" points="282.508,-72.252 293.098,-71.9506 284.631,-65.5818 282.508,-72.252"/>
</g>
<!-- Node7 -->
<g id="node7" class="node"><title>Node7</title>
<g id="a_node7"><a xlink:href="a00031.html#a8261f9c3d2b399387668421b4db70342" target="_top" xlink:title="set_bad_multithreaded\l_result">
<polygon fill="none" stroke="black" points="267.5,-22.5 267.5,-52.5 382.5,-52.5 382.5,-22.5 267.5,-22.5"/>
<text text-anchor="start" x="275.5" y="-40.5" font-family="Helvetica,sans-Serif" font-size="10.00">set_bad_multithreaded</text>
<text text-anchor="middle" x="325" y="-29.5" font-family="Helvetica,sans-Serif" font-size="10.00">_result</text>
</a>
</g>
</g>
<!-- Node2&#45;&gt;Node7 -->
<g id="edge6" class="edge"><title>Node2&#45;&gt;Node7</title>
<path fill="none" stroke="midnightblue" d="M228.156,-37.5C237.183,-37.5 247.244,-37.5 257.358,-37.5"/>
<polygon fill="midnightblue" stroke="midnightblue" points="257.453,-41.0001 267.453,-37.5 257.453,-34.0001 257.453,-41.0001"/>
</g>
<!-- Node4 -->
<g id="node4" class="node"><title>Node4</title>
<g id="a_node4"><a xlink:href="a00031.html#adee3ed193c880b748e304af40508a8f9" target="_top" xlink:title="simple_get_request">
<polygon fill="none" stroke="black" points="422,-72 422,-91 523,-91 523,-72 422,-72"/>
<text text-anchor="middle" x="472.5" y="-79" font-family="Helvetica,sans-Serif" font-size="10.00">simple_get_request</text>
</a>
</g>
</g>
<!-- Node3&#45;&gt;Node4 -->
<g id="edge3" class="edge"><title>Node3&#45;&gt;Node4</title>
<path fill="none" stroke="midnightblue" d="M386.02,-81.5C394.48,-81.5 403.176,-81.5 411.632,-81.5"/>
<polygon fill="midnightblue" stroke="midnightblue" points="411.796,-85.0001 421.796,-81.5 411.796,-78.0001 411.796,-85.0001"/>
</g>
<!-- Node3&#45;&gt;Node6 -->
<g id="edge5" class="edge"><title>Node3&#45;&gt;Node6</title>
<path fill="none" stroke="midnightblue" d="M359.681,-71.9316C368.361,-69.1684 377.615,-65.9561 386,-62.5 407.03,-53.8314 429.896,-41.9255 446.685,-32.6843"/>
<polygon fill="midnightblue" stroke="midnightblue" points="448.779,-35.5237 455.808,-27.5958 445.369,-29.4103 448.779,-35.5237"/>
</g>
<!-- Node5 -->
<g id="node5" class="node"><title>Node5</title>
<g id="a_node5"><a xlink:href="a00031.html#a7f408e810f259536ad88eb6544321c97" target="_top" xlink:title="data_from_curl">
<polygon fill="none" stroke="black" points="559,-72 559,-91 640,-91 640,-72 559,-72"/>
<text text-anchor="middle" x="599.5" y="-79" font-family="Helvetica,sans-Serif" font-size="10.00">data_from_curl</text>
</a>
</g>
</g>
<!-- Node4&#45;&gt;Node5 -->
<g id="edge4" class="edge"><title>Node4&#45;&gt;Node5</title>
<path fill="none" stroke="midnightblue" d="M523.262,-81.5C531.685,-81.5 540.429,-81.5 548.848,-81.5"/>
<polygon fill="midnightblue" stroke="midnightblue" points="548.913,-85.0001 558.913,-81.5 548.913,-78.0001 548.913,-85.0001"/>
</g>
</g>
</svg>
