<?xml version="1.0" encoding="UTF-8" standalone="no"?>
<!DOCTYPE svg PUBLIC "-//W3C//DTD SVG 1.1//EN"
 "http://www.w3.org/Graphics/SVG/1.1/DTD/svg11.dtd">
<!-- Generated by graphviz version 2.38.0 (20140413.2041)
 -->
<!-- Title: on_req_url_cmpl Pages: 1 -->
<svg width="254pt" height="66pt"
 viewBox="0.00 0.00 254.00 66.00" xmlns="http://www.w3.org/2000/svg" xmlns:xlink="http://www.w3.org/1999/xlink">
<g id="graph0" class="graph" transform="scale(1 1) rotate(0) translate(4 62)">
<title>on_req_url_cmpl</title>
<!-- Node1 -->
<g id="node1" class="node"><title>Node1</title>
<polygon fill="#bfbfbf" stroke="black" points="0,-19.5 0,-38.5 88,-38.5 88,-19.5 0,-19.5"/>
<text text-anchor="middle" x="44" y="-26.5" font-family="Helvetica,sans-Serif" font-size="10.00">on_req_url_cmpl</text>
</g>
<!-- Node2 -->
<g id="node2" class="node"><title>Node2</title>
<g id="a_node2"><a xlink:href="a00042.html#a3e22da197083e90a2456a4ccd8a374d0" target="_top" xlink:title="ASSERT_EQUAL">
<polygon fill="none" stroke="black" points="137,-38.5 137,-57.5 233,-57.5 233,-38.5 137,-38.5"/>
<text text-anchor="middle" x="185" y="-45.5" font-family="Helvetica,sans-Serif" font-size="10.00">ASSERT_EQUAL</text>
</a>
</g>
</g>
<!-- Node1&#45;&gt;Node2 -->
<g id="edge1" class="edge"><title>Node1&#45;&gt;Node2</title>
<path fill="none" stroke="midnightblue" d="M88.2185,-34.9076C100.418,-36.5751 113.885,-38.4159 126.77,-40.1772"/>
<polygon fill="midnightblue" stroke="midnightblue" points="126.562,-43.6812 136.944,-41.5679 127.51,-36.7457 126.562,-43.6812"/>
</g>
<!-- Node3 -->
<g id="node3" class="node"><title>Node3</title>
<g id="a_node3"><a xlink:href="a00006.html#a51f456ebe77d933182a7f264e8aad6e9" target="_top" xlink:title="ASSERT_STR_EQUAL">
<polygon fill="none" stroke="black" points="124,-0.5 124,-19.5 246,-19.5 246,-0.5 124,-0.5"/>
<text text-anchor="middle" x="185" y="-7.5" font-family="Helvetica,sans-Serif" font-size="10.00">ASSERT_STR_EQUAL</text>
</a>
</g>
</g>
<!-- Node1&#45;&gt;Node3 -->
<g id="edge2" class="edge"><title>Node1&#45;&gt;Node3</title>
<path fill="none" stroke="midnightblue" d="M88.2185,-23.0924C96.4408,-21.9685 105.239,-20.7659 114.046,-19.562"/>
<polygon fill="midnightblue" stroke="midnightblue" points="114.53,-23.0285 123.964,-18.2063 113.582,-16.093 114.53,-23.0285"/>
</g>
</g>
</svg>
