<?xml version="1.0" encoding="UTF-8" standalone="no"?>
<!DOCTYPE svg PUBLIC "-//W3C//DTD SVG 1.1//EN"
 "http://www.w3.org/Graphics/SVG/1.1/DTD/svg11.dtd">
<!-- Generated by graphviz version 2.38.0 (20140413.2041)
 -->
<!-- Title: hpd_respond Pages: 1 -->
<svg width="872pt" height="66pt"
 viewBox="0.00 0.00 872.00 66.00" xmlns="http://www.w3.org/2000/svg" xmlns:xlink="http://www.w3.org/1999/xlink">
<g id="graph0" class="graph" transform="scale(1 1) rotate(0) translate(4 62)">
<title>hpd_respond</title>
<!-- Node1 -->
<g id="node1" class="node"><title>Node1</title>
<polygon fill="#bfbfbf" stroke="black" points="0,-19.5 0,-38.5 72,-38.5 72,-19.5 0,-19.5"/>
<text text-anchor="middle" x="36" y="-26.5" font-family="Helvetica,sans-Serif" font-size="10.00">hpd_respond</text>
</g>
<!-- Node2 -->
<g id="node2" class="node"><title>Node2</title>
<g id="a_node2"><a xlink:href="a00013.html#a1d3cd6fde2598f29c88786537becfbb3" target="_top" xlink:title="[definition] ">
<polygon fill="none" stroke="black" points="108,-19.5 108,-38.5 241,-38.5 241,-19.5 108,-19.5"/>
<text text-anchor="middle" x="174.5" y="-26.5" font-family="Helvetica,sans-Serif" font-size="10.00">demo_adapter_send_value</text>
</a>
</g>
</g>
<!-- Node1&#45;&gt;Node2 -->
<g id="edge1" class="edge"><title>Node1&#45;&gt;Node2</title>
<path fill="none" stroke="midnightblue" d="M82.2872,-29C90.5361,-29 99.2916,-29 107.988,-29"/>
<polygon fill="midnightblue" stroke="midnightblue" points="82.1522,-25.5001 72.1521,-29 82.1521,-32.5001 82.1522,-25.5001"/>
</g>
<!-- Node3 -->
<g id="node3" class="node"><title>Node3</title>
<g id="a_node3"><a xlink:href="a00013.html#ad12964278a8b6998fccbae23e084a8a7" target="_top" xlink:title="[set] ">
<polygon fill="none" stroke="black" points="277,-38.5 277,-57.5 390,-57.5 390,-38.5 277,-38.5"/>
<text text-anchor="middle" x="333.5" y="-45.5" font-family="Helvetica,sans-Serif" font-size="10.00">demo_adapter_on_get</text>
</a>
</g>
</g>
<!-- Node2&#45;&gt;Node3 -->
<g id="edge2" class="edge"><title>Node2&#45;&gt;Node3</title>
<path fill="none" stroke="midnightblue" d="M251.168,-38.1572C259.72,-39.1923 268.318,-40.2327 276.553,-41.2294"/>
<polygon fill="midnightblue" stroke="midnightblue" points="251.521,-34.6745 241.172,-36.9476 250.679,-41.6238 251.521,-34.6745"/>
</g>
<!-- Node7 -->
<g id="node7" class="node"><title>Node7</title>
<g id="a_node7"><a xlink:href="a00013.html#a00981c2b16f03b852495746fb9ecb2c9" target="_top" xlink:title="[on_get] ">
<polygon fill="none" stroke="black" points="277,-0.5 277,-19.5 390,-19.5 390,-0.5 277,-0.5"/>
<text text-anchor="middle" x="333.5" y="-7.5" font-family="Helvetica,sans-Serif" font-size="10.00">demo_adapter_on_put</text>
</a>
</g>
</g>
<!-- Node2&#45;&gt;Node7 -->
<g id="edge6" class="edge"><title>Node2&#45;&gt;Node7</title>
<path fill="none" stroke="midnightblue" d="M251.168,-19.8428C259.72,-18.8077 268.318,-17.7673 276.553,-16.7706"/>
<polygon fill="midnightblue" stroke="midnightblue" points="250.679,-16.3762 241.172,-21.0524 251.521,-23.3255 250.679,-16.3762"/>
</g>
<!-- Node4 -->
<g id="node4" class="node"><title>Node4</title>
<g id="a_node4"><a xlink:href="a00013.html#aca3f96055b6405843c652ef5efd1c3e8" target="_top" xlink:title="[create_parameter] ">
<polygon fill="none" stroke="black" points="426,-14 426,-44 536,-44 536,-14 426,-14"/>
<text text-anchor="start" x="434" y="-32" font-family="Helvetica,sans-Serif" font-size="10.00">demo_adapter_create</text>
<text text-anchor="middle" x="481" y="-21" font-family="Helvetica,sans-Serif" font-size="10.00">_service</text>
</a>
</g>
</g>
<!-- Node3&#45;&gt;Node4 -->
<g id="edge3" class="edge"><title>Node3&#45;&gt;Node4</title>
<path fill="none" stroke="midnightblue" d="M400.328,-39.4039C408.913,-38.2828 417.628,-37.1447 425.989,-36.053"/>
<polygon fill="midnightblue" stroke="midnightblue" points="399.801,-35.943 390.338,-40.7084 400.707,-42.884 399.801,-35.943"/>
</g>
<!-- Node5 -->
<g id="node5" class="node"><title>Node5</title>
<g id="a_node5"><a xlink:href="a00013.html#abfc239c18fce4bcc601e14074ddfabf8" target="_top" xlink:title="[create_service] ">
<polygon fill="none" stroke="black" points="572,-19.5 572,-38.5 709,-38.5 709,-19.5 572,-19.5"/>
<text text-anchor="middle" x="640.5" y="-26.5" font-family="Helvetica,sans-Serif" font-size="10.00">demo_adapter_create_lamp</text>
</a>
</g>
</g>
<!-- Node4&#45;&gt;Node5 -->
<g id="edge4" class="edge"><title>Node4&#45;&gt;Node5</title>
<path fill="none" stroke="midnightblue" d="M546.324,-29C554.736,-29 563.375,-29 571.84,-29"/>
<polygon fill="midnightblue" stroke="midnightblue" points="546.203,-25.5001 536.203,-29 546.203,-32.5001 546.203,-25.5001"/>
</g>
<!-- Node6 -->
<g id="node6" class="node"><title>Node6</title>
<g id="a_node6"><a xlink:href="a00013.html#a9f84d5de2ac16bde89480bd48efdff51" target="_top" xlink:title="[create_lamp] ">
<polygon fill="none" stroke="black" points="745,-19.5 745,-38.5 864,-38.5 864,-19.5 745,-19.5"/>
<text text-anchor="middle" x="804.5" y="-26.5" font-family="Helvetica,sans-Serif" font-size="10.00">demo_adapter_on_start</text>
</a>
</g>
</g>
<!-- Node5&#45;&gt;Node6 -->
<g id="edge5" class="edge"><title>Node5&#45;&gt;Node6</title>
<path fill="none" stroke="midnightblue" d="M719.281,-29C727.853,-29 736.473,-29 744.757,-29"/>
<polygon fill="midnightblue" stroke="midnightblue" points="719.264,-25.5001 709.264,-29 719.264,-32.5001 719.264,-25.5001"/>
</g>
<!-- Node7&#45;&gt;Node4 -->
<g id="edge7" class="edge"><title>Node7&#45;&gt;Node4</title>
<path fill="none" stroke="midnightblue" d="M400.328,-18.5961C408.913,-19.7172 417.628,-20.8553 425.989,-21.947"/>
<polygon fill="midnightblue" stroke="midnightblue" points="400.707,-15.116 390.338,-17.2916 399.801,-22.057 400.707,-15.116"/>
</g>
</g>
</svg>
