<?xml version="1.0" encoding="UTF-8" standalone="no"?>
<!DOCTYPE svg PUBLIC "-//W3C//DTD SVG 1.1//EN"
 "http://www.w3.org/Graphics/SVG/1.1/DTD/svg11.dtd">
<!-- Generated by graphviz version 2.38.0 (20140413.2041)
 -->
<!-- Title: hpd_rest_url_create Pages: 1 -->
<!--zoomable 66 -->
<svg id="main" version="1.1" xmlns="http://www.w3.org/2000/svg" xmlns:xlink="http://www.w3.org/1999/xlink" xml:space="preserve" onload="init(evt)">
<style type="text/css"><![CDATA[
.edge:hover path { stroke: red; }
.edge:hover polygon { stroke: red; fill: red; }
]]></style>
<script type="text/javascript"><![CDATA[
var edges = document.getElementsByTagName('g');
if (edges && edges.length) {
  for (var i=0;i<edges.length;i++) {
    if (edges[i].id.substr(0,4)=='edge') {
      edges[i].setAttribute('class','edge');
    }
  }
}
]]></script>
        <defs>
                <circle id="rim" cx="0" cy="0" r="7"/>
                <circle id="rim2" cx="0" cy="0" r="3.5"/>
                <g id="zoomPlus">
                        <use xlink:href="#rim" fill="#404040">
                                <set attributeName="fill" to="#808080" begin="zoomplus.mouseover" end="zoomplus.mouseout"/>
                        </use>
                        <path d="M-4,0h8M0,-4v8" fill="none" stroke="white" stroke-width="1.5" pointer-events="none"/>
                </g>
                <g id="zoomMin">
                        <use xlink:href="#rim" fill="#404040">
                                <set attributeName="fill" to="#808080" begin="zoomminus.mouseover" end="zoomminus.mouseout"/>
                        </use>
                        <path d="M-4,0h8" fill="none" stroke="white" stroke-width="1.5" pointer-events="none"/>
                </g>
                <g id="dirArrow">
                        <path fill="none" stroke="white" stroke-width="1.5" d="M0,-3.0v7 M-2.5,-0.5L0,-3.0L2.5,-0.5"/>
                </g>
               <g id="resetDef">
                       <use xlink:href="#rim2" fill="#404040">
                               <set attributeName="fill" to="#808080" begin="reset.mouseover" end="reset.mouseout"/>
                       </use>
               </g>
        </defs>

<script type="text/javascript">
var viewWidth = 1844;
var viewHeight = 66;
var sectionId = 'dynsection-5';
</script>
<script xlink:href="svgpan.js"/>
<svg id="graph" class="graph">
<g id="viewport">
<title>hpd_rest_url_create</title>
<!-- Node1 -->
<g id="node1" class="node"><title>Node1</title>
<polygon fill="#bfbfbf" stroke="black" points="0,-19.5 0,-38.5 102,-38.5 102,-19.5 0,-19.5"/>
<text text-anchor="middle" x="51" y="-26.5" font-family="Helvetica,sans-Serif" font-size="10.00">hpd_rest_url_create</text>
</g>
<!-- Node2 -->
<g id="node2" class="node"><title>Node2</title>
<g id="a_node2"><a xlink:href="a00096.html#aa6c7dd70ed7b9b3a371a58ed6122b940" target="_top" xlink:title="rest_json_add_service">
<polygon fill="none" stroke="black" points="138,-38.5 138,-57.5 252,-57.5 252,-38.5 138,-38.5"/>
<text text-anchor="middle" x="195" y="-45.5" font-family="Helvetica,sans-Serif" font-size="10.00">rest_json_add_service</text>
</a>
</g>
</g>
<!-- Node1&#45;&gt;Node2 -->
<g id="edge1" class="edge"><title>Node1&#45;&gt;Node2</title>
<path fill="none" stroke="midnightblue" d="M112.204,-37.0554C120.628,-38.1826 129.26,-39.3376 137.61,-40.4549"/>
<polygon fill="midnightblue" stroke="midnightblue" points="112.44,-33.5559 102.064,-35.6987 111.511,-40.4941 112.44,-33.5559"/>
</g>
<!-- Node13 -->
<g id="node13" class="node"><title>Node13</title>
<g id="a_node13"><a xlink:href="a00098.html#a8a91d98306eb64c151d1c19465421c0c" target="_top" xlink:title="rest_xml_add_service">
<polygon fill="none" stroke="black" points="291.5,-0.5 291.5,-19.5 403.5,-19.5 403.5,-0.5 291.5,-0.5"/>
<text text-anchor="middle" x="347.5" y="-7.5" font-family="Helvetica,sans-Serif" font-size="10.00">rest_xml_add_service</text>
</a>
</g>
</g>
<!-- Node1&#45;&gt;Node13 -->
<g id="edge12" class="edge"><title>Node1&#45;&gt;Node13</title>
<path fill="none" stroke="midnightblue" d="M112.482,-25.0979C165.034,-21.7075 240.507,-16.8383 291.409,-13.5542"/>
<polygon fill="midnightblue" stroke="midnightblue" points="112.046,-21.6187 102.292,-25.7554 112.496,-28.6042 112.046,-21.6187"/>
</g>
<!-- Node3 -->
<g id="node3" class="node"><title>Node3</title>
<g id="a_node3"><a xlink:href="a00096.html#acedf1d82686baa037179bbc8eff51293" target="_top" xlink:title="rest_json_add_services">
<polygon fill="none" stroke="black" points="288,-38.5 288,-57.5 407,-57.5 407,-38.5 288,-38.5"/>
<text text-anchor="middle" x="347.5" y="-45.5" font-family="Helvetica,sans-Serif" font-size="10.00">rest_json_add_services</text>
</a>
</g>
</g>
<!-- Node2&#45;&gt;Node3 -->
<g id="edge2" class="edge"><title>Node2&#45;&gt;Node3</title>
<path fill="none" stroke="midnightblue" d="M262.043,-48C270.65,-48 279.421,-48 287.895,-48"/>
<polygon fill="midnightblue" stroke="midnightblue" points="262.041,-44.5001 252.041,-48 262.041,-51.5001 262.041,-44.5001"/>
</g>
<!-- Node4 -->
<g id="node4" class="node"><title>Node4</title>
<g id="a_node4"><a xlink:href="a00096.html#a41c2f37e46c89b97a3b4f5bb4e8ede49" target="_top" xlink:title="rest_json_add_device">
<polygon fill="none" stroke="black" points="443,-38.5 443,-57.5 554,-57.5 554,-38.5 443,-38.5"/>
<text text-anchor="middle" x="498.5" y="-45.5" font-family="Helvetica,sans-Serif" font-size="10.00">rest_json_add_device</text>
</a>
</g>
</g>
<!-- Node3&#45;&gt;Node4 -->
<g id="edge3" class="edge"><title>Node3&#45;&gt;Node4</title>
<path fill="none" stroke="midnightblue" d="M417.652,-48C426.128,-48 434.697,-48 442.917,-48"/>
<polygon fill="midnightblue" stroke="midnightblue" points="417.389,-44.5001 407.389,-48 417.389,-51.5001 417.389,-44.5001"/>
</g>
<!-- Node5 -->
<g id="node5" class="node"><title>Node5</title>
<g id="a_node5"><a xlink:href="a00096.html#ad6d08cc22d78268f5dc0b229af37c54c" target="_top" xlink:title="rest_json_add_devices">
<polygon fill="none" stroke="black" points="590,-38.5 590,-57.5 706,-57.5 706,-38.5 590,-38.5"/>
<text text-anchor="middle" x="648" y="-45.5" font-family="Helvetica,sans-Serif" font-size="10.00">rest_json_add_devices</text>
</a>
</g>
</g>
<!-- Node4&#45;&gt;Node5 -->
<g id="edge4" class="edge"><title>Node4&#45;&gt;Node5</title>
<path fill="none" stroke="midnightblue" d="M564.252,-48C572.744,-48 581.398,-48 589.753,-48"/>
<polygon fill="midnightblue" stroke="midnightblue" points="564.005,-44.5001 554.004,-48 564.004,-51.5001 564.005,-44.5001"/>
</g>
<!-- Node6 -->
<g id="node6" class="node"><title>Node6</title>
<g id="a_node6"><a xlink:href="a00096.html#a640b87b4cf374466c27940092542bbec" target="_top" xlink:title="rest_json_add_adapter">
<polygon fill="none" stroke="black" points="752.5,-38.5 752.5,-57.5 867.5,-57.5 867.5,-38.5 752.5,-38.5"/>
<text text-anchor="middle" x="810" y="-45.5" font-family="Helvetica,sans-Serif" font-size="10.00">rest_json_add_adapter</text>
</a>
</g>
</g>
<!-- Node5&#45;&gt;Node6 -->
<g id="edge5" class="edge"><title>Node5&#45;&gt;Node6</title>
<path fill="none" stroke="midnightblue" d="M716.641,-48C728.535,-48 740.802,-48 752.357,-48"/>
<polygon fill="midnightblue" stroke="midnightblue" points="716.312,-44.5001 706.312,-48 716.312,-51.5001 716.312,-44.5001"/>
</g>
<!-- Node7 -->
<g id="node7" class="node"><title>Node7</title>
<g id="a_node7"><a xlink:href="a00096.html#a99b3728ca81ef813ed208afd6de9a9b3" target="_top" xlink:title="rest_json_add_adapters">
<polygon fill="none" stroke="black" points="931.5,-38.5 931.5,-57.5 1051.5,-57.5 1051.5,-38.5 931.5,-38.5"/>
<text text-anchor="middle" x="991.5" y="-45.5" font-family="Helvetica,sans-Serif" font-size="10.00">rest_json_add_adapters</text>
</a>
</g>
</g>
<!-- Node6&#45;&gt;Node7 -->
<g id="edge6" class="edge"><title>Node6&#45;&gt;Node7</title>
<path fill="none" stroke="midnightblue" d="M877.941,-48C895.455,-48 914.21,-48 931.29,-48"/>
<polygon fill="midnightblue" stroke="midnightblue" points="877.795,-44.5001 867.795,-48 877.795,-51.5001 877.795,-44.5001"/>
</g>
<!-- Node8 -->
<g id="node8" class="node"><title>Node8</title>
<g id="a_node8"><a xlink:href="a00096.html#a28e31077cb0239c2f21c335da42223e2" target="_top" xlink:title="rest_json_add_configuration">
<polygon fill="none" stroke="black" points="1105,-38.5 1105,-57.5 1243,-57.5 1243,-38.5 1105,-38.5"/>
<text text-anchor="middle" x="1174" y="-45.5" font-family="Helvetica,sans-Serif" font-size="10.00">rest_json_add_configuration</text>
</a>
</g>
</g>
<!-- Node7&#45;&gt;Node8 -->
<g id="edge7" class="edge"><title>Node7&#45;&gt;Node8</title>
<path fill="none" stroke="midnightblue" d="M1061.78,-48C1075.95,-48 1090.86,-48 1104.99,-48"/>
<polygon fill="midnightblue" stroke="midnightblue" points="1061.6,-44.5001 1051.6,-48 1061.6,-51.5001 1061.6,-44.5001"/>
</g>
<!-- Node9 -->
<g id="node9" class="node"><title>Node9</title>
<g id="a_node9"><a xlink:href="a00097.html#aeb80ec3253d248a129513864cdc53817" target="_top" xlink:title="hpd_rest_json_get_configuration">
<polygon fill="none" stroke="black" points="1279,-38.5 1279,-57.5 1436,-57.5 1436,-38.5 1279,-38.5"/>
<text text-anchor="middle" x="1357.5" y="-45.5" font-family="Helvetica,sans-Serif" font-size="10.00">hpd_rest_json_get_configuration</text>
</a>
</g>
</g>
<!-- Node8&#45;&gt;Node9 -->
<g id="edge8" class="edge"><title>Node8&#45;&gt;Node9</title>
<path fill="none" stroke="midnightblue" d="M1253.33,-48C1261.8,-48 1270.41,-48 1278.87,-48"/>
<polygon fill="midnightblue" stroke="midnightblue" points="1253.1,-44.5001 1243.1,-48 1253.1,-51.5001 1253.1,-44.5001"/>
</g>
<!-- Node10 -->
<g id="node10" class="node"><title>Node10</title>
<g id="a_node10"><a xlink:href="a00034.html#ac0f2724b4617f1adb53492f1a57a4e4b" target="_top" xlink:title="rest_reply_devices">
<polygon fill="none" stroke="black" points="1472,-19.5 1472,-38.5 1570,-38.5 1570,-19.5 1472,-19.5"/>
<text text-anchor="middle" x="1521" y="-26.5" font-family="Helvetica,sans-Serif" font-size="10.00">rest_reply_devices</text>
</a>
</g>
</g>
<!-- Node9&#45;&gt;Node10 -->
<g id="edge9" class="edge"><title>Node9&#45;&gt;Node10</title>
<path fill="none" stroke="midnightblue" d="M1446.62,-37.6334C1455.29,-36.6135 1463.84,-35.6071 1471.88,-34.6616"/>
<polygon fill="midnightblue" stroke="midnightblue" points="1445.93,-34.1894 1436.41,-38.8339 1446.75,-41.1415 1445.93,-34.1894"/>
</g>
<!-- Node11 -->
<g id="node11" class="node"><title>Node11</title>
<g id="a_node11"><a xlink:href="a00034.html#a2731aca6e6807e771bcf9c94dbec968c" target="_top" xlink:title="rest_on_req_hdr_cmpl">
<polygon fill="none" stroke="black" points="1606,-19.5 1606,-38.5 1719,-38.5 1719,-19.5 1606,-19.5"/>
<text text-anchor="middle" x="1662.5" y="-26.5" font-family="Helvetica,sans-Serif" font-size="10.00">rest_on_req_hdr_cmpl</text>
</a>
</g>
</g>
<!-- Node10&#45;&gt;Node11 -->
<g id="edge10" class="edge"><title>Node10&#45;&gt;Node11</title>
<path fill="none" stroke="midnightblue" d="M1580.17,-29C1588.63,-29 1597.32,-29 1605.72,-29"/>
<polygon fill="midnightblue" stroke="midnightblue" points="1580.01,-25.5001 1570.01,-29 1580.01,-32.5001 1580.01,-25.5001"/>
</g>
<!-- Node12 -->
<g id="node12" class="node"><title>Node12</title>
<g id="a_node12"><a xlink:href="a00034.html#a02090c3feb19ea4c6e1fa9b5e6392752" target="_top" xlink:title="rest_on_create">
<polygon fill="none" stroke="black" points="1755,-19.5 1755,-38.5 1836,-38.5 1836,-19.5 1755,-19.5"/>
<text text-anchor="middle" x="1795.5" y="-26.5" font-family="Helvetica,sans-Serif" font-size="10.00">rest_on_create</text>
</a>
</g>
</g>
<!-- Node11&#45;&gt;Node12 -->
<g id="edge11" class="edge"><title>Node11&#45;&gt;Node12</title>
<path fill="none" stroke="midnightblue" d="M1729.25,-29C1737.96,-29 1746.66,-29 1754.75,-29"/>
<polygon fill="midnightblue" stroke="midnightblue" points="1729.06,-25.5001 1719.06,-29 1729.06,-32.5001 1729.06,-25.5001"/>
</g>
<!-- Node14 -->
<g id="node14" class="node"><title>Node14</title>
<g id="a_node14"><a xlink:href="a00098.html#a1225e8ad884c053761d73179e1ee1855" target="_top" xlink:title="rest_xml_add_device">
<polygon fill="none" stroke="black" points="444,-0.5 444,-19.5 553,-19.5 553,-0.5 444,-0.5"/>
<text text-anchor="middle" x="498.5" y="-7.5" font-family="Helvetica,sans-Serif" font-size="10.00">rest_xml_add_device</text>
</a>
</g>
</g>
<!-- Node13&#45;&gt;Node14 -->
<g id="edge13" class="edge"><title>Node13&#45;&gt;Node14</title>
<path fill="none" stroke="midnightblue" d="M413.831,-10C423.794,-10 433.98,-10 443.66,-10"/>
<polygon fill="midnightblue" stroke="midnightblue" points="413.559,-6.5001 403.559,-10 413.559,-13.5001 413.559,-6.5001"/>
</g>
<!-- Node15 -->
<g id="node15" class="node"><title>Node15</title>
<g id="a_node15"><a xlink:href="a00098.html#a8a0a8fd989454b355fdaf3da1f129187" target="_top" xlink:title="rest_xml_add_adapter">
<polygon fill="none" stroke="black" points="591.5,-0.5 591.5,-19.5 704.5,-19.5 704.5,-0.5 591.5,-0.5"/>
<text text-anchor="middle" x="648" y="-7.5" font-family="Helvetica,sans-Serif" font-size="10.00">rest_xml_add_adapter</text>
</a>
</g>
</g>
<!-- Node14&#45;&gt;Node15 -->
<g id="edge14" class="edge"><title>Node14&#45;&gt;Node15</title>
<path fill="none" stroke="midnightblue" d="M563.455,-10C572.672,-10 582.097,-10 591.14,-10"/>
<polygon fill="midnightblue" stroke="midnightblue" points="563.168,-6.5001 553.168,-10 563.168,-13.5001 563.168,-6.5001"/>
</g>
<!-- Node16 -->
<g id="node16" class="node"><title>Node16</title>
<g id="a_node16"><a xlink:href="a00098.html#aca121ba7e7fc75cee1159bd654566d5e" target="_top" xlink:title="rest_xml_add_configuration">
<polygon fill="none" stroke="black" points="742,-0.5 742,-19.5 878,-19.5 878,-0.5 742,-0.5"/>
<text text-anchor="middle" x="810" y="-7.5" font-family="Helvetica,sans-Serif" font-size="10.00">rest_xml_add_configuration</text>
</a>
</g>
</g>
<!-- Node15&#45;&gt;Node16 -->
<g id="edge15" class="edge"><title>Node15&#45;&gt;Node16</title>
<path fill="none" stroke="midnightblue" d="M714.516,-10C723.494,-10 732.724,-10 741.733,-10"/>
<polygon fill="midnightblue" stroke="midnightblue" points="714.511,-6.5001 704.511,-10 714.511,-13.5001 714.511,-6.5001"/>
</g>
<!-- Node17 -->
<g id="node17" class="node"><title>Node17</title>
<g id="a_node17"><a xlink:href="a00099.html#a5f45c0580c596d22c41495ecc83e6e85" target="_top" xlink:title="hpd_rest_xml_get_configuration">
<polygon fill="none" stroke="black" points="914,-0.5 914,-19.5 1069,-19.5 1069,-0.5 914,-0.5"/>
<text text-anchor="middle" x="991.5" y="-7.5" font-family="Helvetica,sans-Serif" font-size="10.00">hpd_rest_xml_get_configuration</text>
</a>
</g>
</g>
<!-- Node16&#45;&gt;Node17 -->
<g id="edge16" class="edge"><title>Node16&#45;&gt;Node17</title>
<path fill="none" stroke="midnightblue" d="M888.314,-10C896.77,-10 905.376,-10 913.824,-10"/>
<polygon fill="midnightblue" stroke="midnightblue" points="888.094,-6.5001 878.094,-10 888.094,-13.5001 888.094,-6.5001"/>
</g>
<!-- Node17&#45;&gt;Node10 -->
<g id="edge17" class="edge"><title>Node17&#45;&gt;Node10</title>
<path fill="none" stroke="midnightblue" d="M1079.48,-13.1328C1191.69,-17.1746 1383.01,-24.0656 1471.93,-27.2686"/>
<polygon fill="midnightblue" stroke="midnightblue" points="1079.32,-9.62508 1069.2,-12.7628 1079.07,-16.6205 1079.32,-9.62508"/>
</g>
</g>
</svg>
        <g id="navigator" transform="translate(0 0)" fill="#404254">
                <rect fill="#f2f5e9" fill-opacity="0.5" stroke="#606060" stroke-width=".5" x="0" y="0" width="60" height="60"/>
                <use id="zoomplus" xlink:href="#zoomPlus" x="17" y="9" onmousedown="handleZoom(evt,'in')"/>
                <use id="zoomminus" xlink:href="#zoomMin" x="42" y="9" onmousedown="handleZoom(evt,'out')"/>
                <use id="reset" xlink:href="#resetDef" x="30" y="36" onmousedown="handleReset()"/>
                <g id="arrowUp" xlink:href="#dirArrow" transform="translate(30 24)" onmousedown="handlePan(0,-1)">
                  <use xlink:href="#rim" fill="#404040">
                        <set attributeName="fill" to="#808080" begin="arrowUp.mouseover" end="arrowUp.mouseout"/>
                  </use>
                  <path fill="none" stroke="white" stroke-width="1.5" d="M0,-3.0v7 M-2.5,-0.5L0,-3.0L2.5,-0.5"/>
                </g>
                <g id="arrowRight" xlink:href="#dirArrow" transform="rotate(90) translate(36 -43)" onmousedown="handlePan(1,0)">
                  <use xlink:href="#rim" fill="#404040">
                        <set attributeName="fill" to="#808080" begin="arrowRight.mouseover" end="arrowRight.mouseout"/>
                  </use>
                  <path fill="none" stroke="white" stroke-width="1.5" d="M0,-3.0v7 M-2.5,-0.5L0,-3.0L2.5,-0.5"/>
                </g>
                <g id="arrowDown" xlink:href="#dirArrow" transform="rotate(180) translate(-30 -48)" onmousedown="handlePan(0,1)">
                  <use xlink:href="#rim" fill="#404040">
                        <set attributeName="fill" to="#808080" begin="arrowDown.mouseover" end="arrowDown.mouseout"/>
                  </use>
                  <path fill="none" stroke="white" stroke-width="1.5" d="M0,-3.0v7 M-2.5,-0.5L0,-3.0L2.5,-0.5"/>
                </g>
                <g id="arrowLeft" xlink:href="#dirArrow" transform="rotate(270) translate(-36 17)" onmousedown="handlePan(-1,0)">
                  <use xlink:href="#rim" fill="#404040">
                        <set attributeName="fill" to="#808080" begin="arrowLeft.mouseover" end="arrowLeft.mouseout"/>
                  </use>
                  <path fill="none" stroke="white" stroke-width="1.5" d="M0,-3.0v7 M-2.5,-0.5L0,-3.0L2.5,-0.5"/>
                </g>
        </g>
        <svg viewBox="0 0 15 15" width="100%" height="30px" preserveAspectRatio="xMaxYMin meet">
         <g id="arrow_out" transform="scale(0.3 0.3)">
          <a xlink:href="a00034_ae30c92f3bb2ebffcbb82054ad60c1ac5_icgraph_org.svg" target="_base">
           <rect id="button" ry="5" rx="5" y="6" x="6" height="38" width="38"
                fill="#f2f5e9" fill-opacity="0.5" stroke="#606060" stroke-width="1.0"/>
           <path id="arrow"
             d="M 11.500037,31.436501 C 11.940474,20.09759 22.043105,11.32322 32.158766,21.979434 L 37.068811,17.246167 C 37.068811,17.246167 37.088388,32 37.088388,32 L 22.160133,31.978069 C 22.160133,31.978069 26.997745,27.140456 26.997745,27.140456 C 18.528582,18.264221 13.291696,25.230495 11.500037,31.436501 z"
             style="fill:#404040;"/>
          </a>
         </g>
        </svg>
</svg>
