<?xml version="1.0" encoding="UTF-8" standalone="no"?>
<!DOCTYPE svg PUBLIC "-//W3C//DTD SVG 1.1//EN"
 "http://www.w3.org/Graphics/SVG/1.1/DTD/svg11.dtd">
<!-- Generated by graphviz version 2.38.0 (20140413.2041)
 -->
<!-- Title: hpd_parameter_id_alloc Pages: 1 -->
<svg width="792pt" height="66pt"
 viewBox="0.00 0.00 792.00 66.00" xmlns="http://www.w3.org/2000/svg" xmlns:xlink="http://www.w3.org/1999/xlink">
<g id="graph0" class="graph" transform="scale(1 1) rotate(0) translate(4 62)">
<title>hpd_parameter_id_alloc</title>
<!-- Node1 -->
<g id="node1" class="node"><title>Node1</title>
<polygon fill="#bfbfbf" stroke="black" points="0,-19.5 0,-38.5 119,-38.5 119,-19.5 0,-19.5"/>
<text text-anchor="middle" x="59.5" y="-26.5" font-family="Helvetica,sans-Serif" font-size="10.00">hpd_parameter_id_alloc</text>
</g>
<!-- Node2 -->
<g id="node2" class="node"><title>Node2</title>
<g id="a_node2"><a xlink:href="a00011.html#a346f5beb62cb1df721f8428b245c1ecb" target="_top" xlink:title="discovery_alloc_pid">
<polygon fill="none" stroke="black" points="155,-19.5 155,-38.5 257,-38.5 257,-19.5 155,-19.5"/>
<text text-anchor="middle" x="206" y="-26.5" font-family="Helvetica,sans-Serif" font-size="10.00">discovery_alloc_pid</text>
</a>
</g>
</g>
<!-- Node1&#45;&gt;Node2 -->
<g id="edge1" class="edge"><title>Node1&#45;&gt;Node2</title>
<path fill="none" stroke="midnightblue" d="M119.274,-29C127.606,-29 136.187,-29 144.55,-29"/>
<polygon fill="midnightblue" stroke="midnightblue" points="144.613,-32.5001 154.613,-29 144.613,-25.5001 144.613,-32.5001"/>
</g>
<!-- Node3 -->
<g id="node3" class="node"><title>Node3</title>
<g id="a_node3"><a xlink:href="a00065.html#ad3d7a6ed73866fd46206a11556792147" target="_top" xlink:title="discovery_set_pid">
<polygon fill="none" stroke="black" points="294.5,-38.5 294.5,-57.5 389.5,-57.5 389.5,-38.5 294.5,-38.5"/>
<text text-anchor="middle" x="342" y="-45.5" font-family="Helvetica,sans-Serif" font-size="10.00">discovery_set_pid</text>
</a>
</g>
</g>
<!-- Node2&#45;&gt;Node3 -->
<g id="edge2" class="edge"><title>Node2&#45;&gt;Node3</title>
<path fill="none" stroke="midnightblue" d="M257.278,-36.129C266.127,-37.3837 275.392,-38.6973 284.399,-39.9745"/>
<polygon fill="midnightblue" stroke="midnightblue" points="284.032,-43.4574 294.424,-41.396 285.015,-36.5267 284.032,-43.4574"/>
</g>
<!-- Node7 -->
<g id="node7" class="node"><title>Node7</title>
<g id="a_node7"><a xlink:href="a00065.html#a81855733900ba555393c8b122be70989" target="_top" xlink:title="discovery_free_pid">
<polygon fill="none" stroke="black" points="293,-0.5 293,-19.5 391,-19.5 391,-0.5 293,-0.5"/>
<text text-anchor="middle" x="342" y="-7.5" font-family="Helvetica,sans-Serif" font-size="10.00">discovery_free_pid</text>
</a>
</g>
</g>
<!-- Node2&#45;&gt;Node7 -->
<g id="edge6" class="edge"><title>Node2&#45;&gt;Node7</title>
<path fill="none" stroke="midnightblue" d="M257.278,-21.871C265.514,-20.7032 274.111,-19.4843 282.525,-18.2913"/>
<polygon fill="midnightblue" stroke="midnightblue" points="283.252,-21.7233 292.661,-16.854 282.269,-14.7926 283.252,-21.7233"/>
</g>
<!-- Node4 -->
<g id="node4" class="node"><title>Node4</title>
<g id="a_node4"><a xlink:href="a00065.html#a9788f216196637a4e9c0a0110e81bab1" target="_top" xlink:title="discovery_set_sid">
<polygon fill="none" stroke="black" points="427,-38.5 427,-57.5 522,-57.5 522,-38.5 427,-38.5"/>
<text text-anchor="middle" x="474.5" y="-45.5" font-family="Helvetica,sans-Serif" font-size="10.00">discovery_set_sid</text>
</a>
</g>
</g>
<!-- Node3&#45;&gt;Node4 -->
<g id="edge3" class="edge"><title>Node3&#45;&gt;Node4</title>
<path fill="none" stroke="midnightblue" d="M389.745,-48C398.459,-48 407.654,-48 416.634,-48"/>
<polygon fill="midnightblue" stroke="midnightblue" points="416.643,-51.5001 426.643,-48 416.643,-44.5001 416.643,-51.5001"/>
</g>
<!-- Node5 -->
<g id="node5" class="node"><title>Node5</title>
<g id="a_node5"><a xlink:href="a00065.html#acd5e8c2bf3e761abc7e2fd2294238a74" target="_top" xlink:title="discovery_set_did">
<polygon fill="none" stroke="black" points="558,-38.5 558,-57.5 653,-57.5 653,-38.5 558,-38.5"/>
<text text-anchor="middle" x="605.5" y="-45.5" font-family="Helvetica,sans-Serif" font-size="10.00">discovery_set_did</text>
</a>
</g>
</g>
<!-- Node4&#45;&gt;Node5 -->
<g id="edge4" class="edge"><title>Node4&#45;&gt;Node5</title>
<path fill="none" stroke="midnightblue" d="M522.072,-48C530.475,-48 539.319,-48 547.969,-48"/>
<polygon fill="midnightblue" stroke="midnightblue" points="547.996,-51.5001 557.996,-48 547.996,-44.5001 547.996,-51.5001"/>
</g>
<!-- Node6 -->
<g id="node6" class="node"><title>Node6</title>
<g id="a_node6"><a xlink:href="a00065.html#af2f553cfc3af4678b87a8fc75f35a5c6" target="_top" xlink:title="discovery_set_aid">
<polygon fill="none" stroke="black" points="689,-38.5 689,-57.5 784,-57.5 784,-38.5 689,-38.5"/>
<text text-anchor="middle" x="736.5" y="-45.5" font-family="Helvetica,sans-Serif" font-size="10.00">discovery_set_aid</text>
</a>
</g>
</g>
<!-- Node5&#45;&gt;Node6 -->
<g id="edge5" class="edge"><title>Node5&#45;&gt;Node6</title>
<path fill="none" stroke="midnightblue" d="M653.072,-48C661.475,-48 670.319,-48 678.969,-48"/>
<polygon fill="midnightblue" stroke="midnightblue" points="678.996,-51.5001 688.996,-48 678.996,-44.5001 678.996,-51.5001"/>
</g>
<!-- Node8 -->
<g id="node8" class="node"><title>Node8</title>
<g id="a_node8"><a xlink:href="a00006.html#adf46370d9c211c3be22966b4606ba9b0" target="_top" xlink:title="free">
<polygon fill="none" stroke="black" points="458,-0.5 458,-19.5 491,-19.5 491,-0.5 458,-0.5"/>
<text text-anchor="middle" x="474.5" y="-7.5" font-family="Helvetica,sans-Serif" font-size="10.00">free</text>
</a>
</g>
</g>
<!-- Node7&#45;&gt;Node8 -->
<g id="edge7" class="edge"><title>Node7&#45;&gt;Node8</title>
<path fill="none" stroke="midnightblue" d="M391.223,-10C410.336,-10 431.546,-10 447.643,-10"/>
<polygon fill="midnightblue" stroke="midnightblue" points="447.882,-13.5001 457.882,-10 447.882,-6.5001 447.882,-13.5001"/>
</g>
</g>
</svg>
