<?xml version="1.0" encoding="UTF-8" standalone="no"?>
<!DOCTYPE svg PUBLIC "-//W3C//DTD SVG 1.1//EN"
 "http://www.w3.org/Graphics/SVG/1.1/DTD/svg11.dtd">
<!-- Generated by graphviz version 2.38.0 (20140413.2041)
 -->
<!-- Title: url_parser_key_value Pages: 1 -->
<svg width="575pt" height="66pt"
 viewBox="0.00 0.00 575.00 66.00" xmlns="http://www.w3.org/2000/svg" xmlns:xlink="http://www.w3.org/1999/xlink">
<g id="graph0" class="graph" transform="scale(1 1) rotate(0) translate(4 62)">
<title>url_parser_key_value</title>
<!-- Node1 -->
<g id="node1" class="node"><title>Node1</title>
<polygon fill="#bfbfbf" stroke="black" points="0,-19.5 0,-38.5 109,-38.5 109,-19.5 0,-19.5"/>
<text text-anchor="middle" x="54.5" y="-26.5" font-family="Helvetica,sans-Serif" font-size="10.00">url_parser_key_value</text>
</g>
<!-- Node2 -->
<g id="node2" class="node"><title>Node2</title>
<g id="a_node2"><a xlink:href="a00040.html#a64ce145f4bd2b212ac9494fb18b43615" target="_top" xlink:title="Create a new ws_request. ">
<polygon fill="none" stroke="black" points="145,-19.5 145,-38.5 248,-38.5 248,-19.5 145,-19.5"/>
<text text-anchor="middle" x="196.5" y="-26.5" font-family="Helvetica,sans-Serif" font-size="10.00">http_request_create</text>
</a>
</g>
</g>
<!-- Node1&#45;&gt;Node2 -->
<g id="edge1" class="edge"><title>Node1&#45;&gt;Node2</title>
<path fill="none" stroke="midnightblue" d="M119.238,-29C127.843,-29 136.574,-29 144.907,-29"/>
<polygon fill="midnightblue" stroke="midnightblue" points="119.227,-25.5001 109.227,-29 119.227,-32.5001 119.227,-25.5001"/>
</g>
<!-- Node3 -->
<g id="node3" class="node"><title>Node3</title>
<g id="a_node3"><a xlink:href="a00015.html#acbf369331509bd9760bf346f6292376a" target="_top" xlink:title="Callback for tcpd library. ">
<polygon fill="none" stroke="black" points="284,-19.5 284,-38.5 351,-38.5 351,-19.5 284,-19.5"/>
<text text-anchor="middle" x="317.5" y="-26.5" font-family="Helvetica,sans-Serif" font-size="10.00">on_connect</text>
</a>
</g>
</g>
<!-- Node2&#45;&gt;Node3 -->
<g id="edge2" class="edge"><title>Node2&#45;&gt;Node3</title>
<path fill="none" stroke="midnightblue" d="M258.509,-29C267.216,-29 275.881,-29 283.755,-29"/>
<polygon fill="midnightblue" stroke="midnightblue" points="258.312,-25.5001 248.312,-29 258.312,-32.5001 258.312,-25.5001"/>
</g>
<!-- Node4 -->
<g id="node4" class="node"><title>Node4</title>
<g id="a_node4"><a xlink:href="a00015.html#a8287f77cb41a94d39f282b607616df70" target="_top" xlink:title="Create a new httpd instance. ">
<polygon fill="none" stroke="black" points="387,-19.5 387,-38.5 479,-38.5 479,-19.5 387,-19.5"/>
<text text-anchor="middle" x="433" y="-26.5" font-family="Helvetica,sans-Serif" font-size="10.00">hpd_httpd_create</text>
</a>
</g>
</g>
<!-- Node3&#45;&gt;Node4 -->
<g id="edge3" class="edge"><title>Node3&#45;&gt;Node4</title>
<path fill="none" stroke="midnightblue" d="M361.289,-29C369.619,-29 378.378,-29 386.784,-29"/>
<polygon fill="midnightblue" stroke="midnightblue" points="361.025,-25.5001 351.025,-29 361.025,-32.5001 361.025,-25.5001"/>
</g>
<!-- Node5 -->
<g id="node5" class="node"><title>Node5</title>
<g id="a_node5"><a xlink:href="a00038.html#a0ddf1224851353fc92bfbff6f499fa97" target="_top" xlink:title="main">
<polygon fill="none" stroke="black" points="522,-38.5 522,-57.5 560,-57.5 560,-38.5 522,-38.5"/>
<text text-anchor="middle" x="541" y="-45.5" font-family="Helvetica,sans-Serif" font-size="10.00">main</text>
</a>
</g>
</g>
<!-- Node4&#45;&gt;Node5 -->
<g id="edge4" class="edge"><title>Node4&#45;&gt;Node5</title>
<path fill="none" stroke="midnightblue" d="M489.153,-38.8859C500.951,-41.0006 512.606,-43.0897 521.775,-44.7333"/>
<polygon fill="midnightblue" stroke="midnightblue" points="489.722,-35.4321 479.261,-37.1128 488.487,-42.3223 489.722,-35.4321"/>
</g>
<!-- Node6 -->
<g id="node6" class="node"><title>Node6</title>
<g id="a_node6"><a xlink:href="a00025.html#a665691f420dff4eebb8f4b4af62d7a49" target="_top" xlink:title="on_start">
<polygon fill="none" stroke="black" points="515,-0.5 515,-19.5 567,-19.5 567,-0.5 515,-0.5"/>
<text text-anchor="middle" x="541" y="-7.5" font-family="Helvetica,sans-Serif" font-size="10.00">on_start</text>
</a>
</g>
</g>
<!-- Node4&#45;&gt;Node6 -->
<g id="edge5" class="edge"><title>Node4&#45;&gt;Node6</title>
<path fill="none" stroke="midnightblue" d="M489.302,-19.0874C498.211,-17.4906 507.032,-15.9093 514.758,-14.5246"/>
<polygon fill="midnightblue" stroke="midnightblue" points="488.487,-15.6777 479.261,-20.8872 489.722,-22.5679 488.487,-15.6777"/>
</g>
</g>
</svg>
