<?xml version="1.0" encoding="UTF-8" standalone="no"?>
<!DOCTYPE svg PUBLIC "-//W3C//DTD SVG 1.1//EN"
 "http://www.w3.org/Graphics/SVG/1.1/DTD/svg11.dtd">
<!-- Generated by graphviz version 2.38.0 (20140413.2041)
 -->
<!-- Title: on_req_hdr_cmpl Pages: 1 -->
<svg width="1343pt" height="1082pt"
 viewBox="0.00 0.00 1343.00 1081.50" xmlns="http://www.w3.org/2000/svg" xmlns:xlink="http://www.w3.org/1999/xlink">
<g id="graph0" class="graph" transform="scale(1 1) rotate(0) translate(4 1077.5)">
<title>on_req_hdr_cmpl</title>
<!-- Node1 -->
<g id="node1" class="node"><title>Node1</title>
<polygon fill="#bfbfbf" stroke="black" points="0,-205 0,-224 91,-224 91,-205 0,-205"/>
<text text-anchor="middle" x="45.5" y="-212" font-family="Helvetica,sans-Serif" font-size="10.00">on_req_hdr_cmpl</text>
</g>
<!-- Node2 -->
<g id="node2" class="node"><title>Node2</title>
<g id="a_node2"><a xlink:href="a00018.html#a22e218d575f4b42004377a401c38812d" target="_top" xlink:title="Get a linked map of all headers for a request. ">
<polygon fill="none" stroke="black" points="135,-366.5 135,-396.5 251,-396.5 251,-366.5 135,-366.5"/>
<text text-anchor="start" x="143" y="-384.5" font-family="Helvetica,sans-Serif" font-size="10.00">hpd_httpd_request_get</text>
<text text-anchor="middle" x="193" y="-373.5" font-family="Helvetica,sans-Serif" font-size="10.00">_headers</text>
</a>
</g>
</g>
<!-- Node1&#45;&gt;Node2 -->
<g id="edge1" class="edge"><title>Node1&#45;&gt;Node2</title>
<path fill="none" stroke="midnightblue" d="M49.4514,-224.274C57.5977,-249.668 82.7713,-318.398 127,-356.5 128.964,-358.192 131.054,-359.775 133.237,-361.257"/>
<polygon fill="midnightblue" stroke="midnightblue" points="131.651,-364.386 142.037,-366.482 135.225,-358.367 131.651,-364.386"/>
</g>
<!-- Node3 -->
<g id="node3" class="node"><title>Node3</title>
<g id="a_node3"><a xlink:href="a00025.html#a78818d54ff3643716564aad97c70c7e2" target="_top" xlink:title="reply_internal_server\l_error">
<polygon fill="none" stroke="black" points="320,-126.5 320,-156.5 427,-156.5 427,-126.5 320,-126.5"/>
<text text-anchor="start" x="328" y="-144.5" font-family="Helvetica,sans-Serif" font-size="10.00">reply_internal_server</text>
<text text-anchor="middle" x="373.5" y="-133.5" font-family="Helvetica,sans-Serif" font-size="10.00">_error</text>
</a>
</g>
</g>
<!-- Node1&#45;&gt;Node3 -->
<g id="edge2" class="edge"><title>Node1&#45;&gt;Node3</title>
<path fill="none" stroke="midnightblue" d="M62.878,-204.973C78.7471,-196.182 103.759,-183.469 127,-176.5 187.571,-158.337 259.454,-149.495 309.728,-145.256"/>
<polygon fill="midnightblue" stroke="midnightblue" points="310.113,-148.737 319.8,-144.444 309.551,-141.759 310.113,-148.737"/>
</g>
<!-- Node15 -->
<g id="node15" class="node"><title>Node15</title>
<g id="a_node15"><a xlink:href="a00018.html#a52623947d02344728eab0b54b56cb623" target="_top" xlink:title="Get the method of the http request. ">
<polygon fill="none" stroke="black" points="135,-262.5 135,-292.5 251,-292.5 251,-262.5 135,-262.5"/>
<text text-anchor="start" x="143" y="-280.5" font-family="Helvetica,sans-Serif" font-size="10.00">hpd_httpd_request_get</text>
<text text-anchor="middle" x="193" y="-269.5" font-family="Helvetica,sans-Serif" font-size="10.00">_method</text>
</a>
</g>
</g>
<!-- Node1&#45;&gt;Node15 -->
<g id="edge17" class="edge"><title>Node1&#45;&gt;Node15</title>
<path fill="none" stroke="midnightblue" d="M65.8372,-224.121C82.0309,-232.058 105.827,-243.446 127,-252.5 131.81,-254.557 136.85,-256.633 141.906,-258.662"/>
<polygon fill="midnightblue" stroke="midnightblue" points="141.005,-262.069 151.592,-262.49 143.579,-255.559 141.005,-262.069"/>
</g>
<!-- Node16 -->
<g id="node16" class="node"><title>Node16</title>
<g id="a_node16"><a xlink:href="a00025.html#a42ad587cb76c2d3459b78fce5b211c73" target="_top" xlink:title="method_to_method">
<polygon fill="none" stroke="black" points="143,-224 143,-243 243,-243 243,-224 143,-224"/>
<text text-anchor="middle" x="193" y="-231" font-family="Helvetica,sans-Serif" font-size="10.00">method_to_method</text>
</a>
</g>
</g>
<!-- Node1&#45;&gt;Node16 -->
<g id="edge18" class="edge"><title>Node1&#45;&gt;Node16</title>
<path fill="none" stroke="midnightblue" d="M91.342,-220.356C104.444,-222.067 118.97,-223.963 132.816,-225.771"/>
<polygon fill="midnightblue" stroke="midnightblue" points="132.378,-229.244 142.747,-227.068 133.285,-222.303 132.378,-229.244"/>
</g>
<!-- Node17 -->
<g id="node17" class="node"><title>Node17</title>
<g id="a_node17"><a xlink:href="a00025.html#a144860c2e3dfe3d8d9fd021968bbd8ff" target="_top" xlink:title="reply_devices">
<polygon fill="none" stroke="black" points="154.5,-328 154.5,-347 231.5,-347 231.5,-328 154.5,-328"/>
<text text-anchor="middle" x="193" y="-335" font-family="Helvetica,sans-Serif" font-size="10.00">reply_devices</text>
</a>
</g>
</g>
<!-- Node1&#45;&gt;Node17 -->
<g id="edge19" class="edge"><title>Node1&#45;&gt;Node17</title>
<path fill="none" stroke="midnightblue" d="M53.6579,-224.056C66.7928,-241.137 96.2326,-277.374 127,-301.5 137.548,-309.771 150.241,-317.258 161.601,-323.236"/>
<polygon fill="midnightblue" stroke="midnightblue" points="160.253,-326.477 170.754,-327.886 163.424,-320.236 160.253,-326.477"/>
</g>
<!-- Node46 -->
<g id="node46" class="node"><title>Node46</title>
<g id="a_node46"><a xlink:href="a00056.html#af976ab216b0e38ff248e50283dcff1e9" target="_top" xlink:title="hpd_service_has_action">
<polygon fill="none" stroke="black" points="132,-50 132,-69 254,-69 254,-50 132,-50"/>
<text text-anchor="middle" x="193" y="-57" font-family="Helvetica,sans-Serif" font-size="10.00">hpd_service_has_action</text>
</a>
</g>
</g>
<!-- Node1&#45;&gt;Node46 -->
<g id="edge65" class="edge"><title>Node1&#45;&gt;Node46</title>
<path fill="none" stroke="midnightblue" d="M50.0024,-204.972C59.1021,-181.455 85.6964,-120.057 127,-85.5 133.03,-80.4549 140.163,-76.2994 147.456,-72.906"/>
<polygon fill="midnightblue" stroke="midnightblue" points="148.854,-76.1151 156.709,-69.0057 146.135,-69.6647 148.854,-76.1151"/>
</g>
<!-- Node49 -->
<g id="node49" class="node"><title>Node49</title>
<g id="a_node49"><a xlink:href="a00025.html#a8352457dd87933b3ad1f5d5746480c61" target="_top" xlink:title="reply_not_found">
<polygon fill="none" stroke="black" points="150,-186 150,-205 236,-205 236,-186 150,-186"/>
<text text-anchor="middle" x="193" y="-193" font-family="Helvetica,sans-Serif" font-size="10.00">reply_not_found</text>
</a>
</g>
</g>
<!-- Node1&#45;&gt;Node49 -->
<g id="edge68" class="edge"><title>Node1&#45;&gt;Node49</title>
<path fill="none" stroke="midnightblue" d="M91.342,-208.644C106.548,-206.659 123.671,-204.423 139.424,-202.366"/>
<polygon fill="midnightblue" stroke="midnightblue" points="140.082,-205.81 149.544,-201.044 139.175,-198.868 140.082,-205.81"/>
</g>
<!-- Node50 -->
<g id="node50" class="node"><title>Node50</title>
<g id="a_node50"><a xlink:href="a00025.html#af80e97c85acb30ce80480d39ae70fdac" target="_top" xlink:title="reply_method_not_allowed">
<polygon fill="none" stroke="black" points="127,-95 127,-114 259,-114 259,-95 127,-95"/>
<text text-anchor="middle" x="193" y="-102" font-family="Helvetica,sans-Serif" font-size="10.00">reply_method_not_allowed</text>
</a>
</g>
</g>
<!-- Node1&#45;&gt;Node50 -->
<g id="edge70" class="edge"><title>Node1&#45;&gt;Node50</title>
<path fill="none" stroke="midnightblue" d="M54.353,-204.951C67.8732,-188.969 96.9975,-156.492 127,-135.5 136.49,-128.86 147.624,-122.966 157.969,-118.148"/>
<polygon fill="midnightblue" stroke="midnightblue" points="159.474,-121.309 167.178,-114.035 156.62,-114.917 159.474,-121.309"/>
</g>
<!-- Node4 -->
<g id="node4" class="node"><title>Node4</title>
<g id="a_node4"><a xlink:href="a00025.html#afb08e2b5fbac2394319e24be39ac931a" target="_top" xlink:title="reply">
<polygon fill="none" stroke="black" points="521,-214 521,-233 559,-233 559,-214 521,-214"/>
<text text-anchor="middle" x="540" y="-221" font-family="Helvetica,sans-Serif" font-size="10.00">reply</text>
</a>
</g>
</g>
<!-- Node3&#45;&gt;Node4 -->
<g id="edge3" class="edge"><title>Node3&#45;&gt;Node4</title>
<path fill="none" stroke="midnightblue" d="M404.672,-156.54C435.172,-171.744 481.902,-195.038 511.435,-209.759"/>
<polygon fill="midnightblue" stroke="midnightblue" points="510.231,-213.07 520.742,-214.399 513.354,-206.805 510.231,-213.07"/>
</g>
<!-- Node5 -->
<g id="node5" class="node"><title>Node5</title>
<g id="a_node5"><a xlink:href="a00018.html#a3b100e8d7e1214067cf1b90ad577745c" target="_top" xlink:title="Create the reponse and constructs the status line. ">
<polygon fill="none" stroke="black" points="628,-360.5 628,-390.5 732,-390.5 732,-360.5 628,-360.5"/>
<text text-anchor="start" x="636" y="-378.5" font-family="Helvetica,sans-Serif" font-size="10.00">hpd_httpd_response</text>
<text text-anchor="middle" x="680" y="-367.5" font-family="Helvetica,sans-Serif" font-size="10.00">_create</text>
</a>
</g>
</g>
<!-- Node4&#45;&gt;Node5 -->
<g id="edge4" class="edge"><title>Node4&#45;&gt;Node5</title>
<path fill="none" stroke="midnightblue" d="M549.633,-233.008C571.156,-256.715 627.671,-318.964 658.396,-352.806"/>
<polygon fill="midnightblue" stroke="midnightblue" points="655.944,-355.312 665.258,-360.363 661.127,-350.607 655.944,-355.312"/>
</g>
<!-- Node14 -->
<g id="node14" class="node"><title>Node14</title>
<g id="a_node14"><a xlink:href="a00018.html#a36a5feca39485163b3ef446c9e3171a3" target="_top" xlink:title="Destroy a hpd_httpd_response. ">
<polygon fill="none" stroke="black" points="628,-222.5 628,-252.5 732,-252.5 732,-222.5 628,-222.5"/>
<text text-anchor="start" x="636" y="-240.5" font-family="Helvetica,sans-Serif" font-size="10.00">hpd_httpd_response</text>
<text text-anchor="middle" x="680" y="-229.5" font-family="Helvetica,sans-Serif" font-size="10.00">_destroy</text>
</a>
</g>
</g>
<!-- Node4&#45;&gt;Node14 -->
<g id="edge14" class="edge"><title>Node4&#45;&gt;Node14</title>
<path fill="none" stroke="midnightblue" d="M559.041,-225.33C574.115,-226.859 596.52,-229.132 617.9,-231.301"/>
<polygon fill="midnightblue" stroke="midnightblue" points="617.646,-234.794 627.948,-232.321 618.352,-227.829 617.646,-234.794"/>
</g>
<!-- Node6 -->
<g id="node6" class="node"><title>Node6</title>
<g id="a_node6"><a xlink:href="a00016.html#a228cee03d1174febd4a716e0285542c2" target="_top" xlink:title="http_request_get_context">
<polygon fill="none" stroke="black" points="775.5,-280 775.5,-299 902.5,-299 902.5,-280 775.5,-280"/>
<text text-anchor="middle" x="839" y="-287" font-family="Helvetica,sans-Serif" font-size="10.00">http_request_get_context</text>
</a>
</g>
</g>
<!-- Node5&#45;&gt;Node6 -->
<g id="edge5" class="edge"><title>Node5&#45;&gt;Node6</title>
<path fill="none" stroke="midnightblue" d="M696.692,-360.305C713.184,-345.126 740.506,-322.144 768,-308.5 772.674,-306.18 777.669,-304.114 782.759,-302.279"/>
<polygon fill="midnightblue" stroke="midnightblue" points="784.203,-305.489 792.603,-299.032 782.01,-298.841 784.203,-305.489"/>
</g>
<!-- Node7 -->
<g id="node7" class="node"><title>Node7</title>
<g id="a_node7"><a xlink:href="a00017.html#a867d6248acd2a1ad498594ec818cb718" target="_top" xlink:title="Convert a status code to string. ">
<polygon fill="none" stroke="black" points="775.5,-456 775.5,-475 902.5,-475 902.5,-456 775.5,-456"/>
<text text-anchor="middle" x="839" y="-463" font-family="Helvetica,sans-Serif" font-size="10.00">http_status_codes_to_str</text>
</a>
</g>
</g>
<!-- Node5&#45;&gt;Node7 -->
<g id="edge6" class="edge"><title>Node5&#45;&gt;Node7</title>
<path fill="none" stroke="midnightblue" d="M695.994,-390.748C712.343,-406.562 739.941,-430.966 768,-445.5 773.248,-448.219 778.915,-450.611 784.673,-452.707"/>
<polygon fill="midnightblue" stroke="midnightblue" points="783.795,-456.104 794.389,-455.957 786.016,-449.465 783.795,-456.104"/>
</g>
<!-- Node8 -->
<g id="node8" class="node"><title>Node8</title>
<g id="a_node8"><a xlink:href="a00017.html#a36a5feca39485163b3ef446c9e3171a3" target="_top" xlink:title="Destroy a hpd_httpd_response. ">
<polygon fill="none" stroke="black" points="787,-406.5 787,-436.5 891,-436.5 891,-406.5 787,-406.5"/>
<text text-anchor="start" x="795" y="-424.5" font-family="Helvetica,sans-Serif" font-size="10.00">hpd_httpd_response</text>
<text text-anchor="middle" x="839" y="-413.5" font-family="Helvetica,sans-Serif" font-size="10.00">_destroy</text>
</a>
</g>
</g>
<!-- Node5&#45;&gt;Node8 -->
<g id="edge7" class="edge"><title>Node5&#45;&gt;Node8</title>
<path fill="none" stroke="midnightblue" d="M732.408,-390.562C746.577,-394.714 762.088,-399.258 776.754,-403.555"/>
<polygon fill="midnightblue" stroke="midnightblue" points="776.164,-407.03 786.745,-406.483 778.133,-400.312 776.164,-407.03"/>
</g>
<!-- Node12 -->
<g id="node12" class="node"><title>Node12</title>
<g id="a_node12"><a xlink:href="a00016.html#a1568fdba259271965551fb5aa1f07006" target="_top" xlink:title="Get the connection of a request. ">
<polygon fill="none" stroke="black" points="768,-368 768,-387 910,-387 910,-368 768,-368"/>
<text text-anchor="middle" x="839" y="-375" font-family="Helvetica,sans-Serif" font-size="10.00">http_request_get_connection</text>
</a>
</g>
</g>
<!-- Node5&#45;&gt;Node12 -->
<g id="edge12" class="edge"><title>Node5&#45;&gt;Node12</title>
<path fill="none" stroke="midnightblue" d="M732.408,-376.155C740.571,-376.259 749.18,-376.369 757.816,-376.479"/>
<polygon fill="midnightblue" stroke="midnightblue" points="757.897,-379.98 767.941,-376.608 757.986,-372.98 757.897,-379.98"/>
</g>
<!-- Node13 -->
<g id="node13" class="node"><title>Node13</title>
<g id="a_node13"><a xlink:href="a00017.html#a3aabea0eb8be381d54ece47fa1fd6a75" target="_top" xlink:title="Add header to a response. ">
<polygon fill="none" stroke="black" points="787,-318.5 787,-348.5 891,-348.5 891,-318.5 787,-318.5"/>
<text text-anchor="start" x="795" y="-336.5" font-family="Helvetica,sans-Serif" font-size="10.00">hpd_httpd_response</text>
<text text-anchor="middle" x="839" y="-325.5" font-family="Helvetica,sans-Serif" font-size="10.00">_add_header</text>
</a>
</g>
</g>
<!-- Node5&#45;&gt;Node13 -->
<g id="edge13" class="edge"><title>Node5&#45;&gt;Node13</title>
<path fill="none" stroke="midnightblue" d="M732.408,-361.748C746.577,-357.957 762.088,-353.808 776.754,-349.884"/>
<polygon fill="midnightblue" stroke="midnightblue" points="777.989,-353.177 786.745,-347.212 776.18,-346.415 777.989,-353.177"/>
</g>
<!-- Node9 -->
<g id="node9" class="node"><title>Node9</title>
<g id="a_node9"><a xlink:href="a00029.html#a494a1841a6c8963c10f5d3a6b662f014" target="_top" xlink:title="Close a connection, after the remaining data has been sent. ">
<polygon fill="none" stroke="black" points="949,-374 949,-393 1060,-393 1060,-374 949,-374"/>
<text text-anchor="middle" x="1004.5" y="-381" font-family="Helvetica,sans-Serif" font-size="10.00">hpd_tcpd_conn_close</text>
</a>
</g>
</g>
<!-- Node8&#45;&gt;Node9 -->
<g id="edge8" class="edge"><title>Node8&#45;&gt;Node9</title>
<path fill="none" stroke="midnightblue" d="M891.284,-409.581C910.822,-405.04 933.071,-399.869 952.576,-395.336"/>
<polygon fill="midnightblue" stroke="midnightblue" points="953.549,-398.703 962.497,-393.03 951.964,-391.885 953.549,-398.703"/>
</g>
<!-- Node11 -->
<g id="node11" class="node"><title>Node11</title>
<g id="a_node11"><a xlink:href="a00006.html#adf46370d9c211c3be22966b4606ba9b0" target="_top" xlink:title="free">
<polygon fill="none" stroke="black" points="1282.5,-393 1282.5,-412 1315.5,-412 1315.5,-393 1282.5,-393"/>
<text text-anchor="middle" x="1299" y="-400" font-family="Helvetica,sans-Serif" font-size="10.00">free</text>
</a>
</g>
</g>
<!-- Node8&#45;&gt;Node11 -->
<g id="edge11" class="edge"><title>Node8&#45;&gt;Node11</title>
<path fill="none" stroke="midnightblue" d="M891.205,-419.376C988.897,-415.323 1198.69,-406.62 1272.04,-403.577"/>
<polygon fill="midnightblue" stroke="midnightblue" points="1272.38,-407.066 1282.22,-403.155 1272.09,-400.072 1272.38,-407.066"/>
</g>
<!-- Node10 -->
<g id="node10" class="node"><title>Node10</title>
<g id="a_node10"><a xlink:href="a00045.html#a58068e1a4c60b401bc6fc99c25e9a3f6" target="_top" xlink:title="Kill and clean up after a connection. ">
<polygon fill="none" stroke="black" points="1113,-374 1113,-393 1213,-393 1213,-374 1113,-374"/>
<text text-anchor="middle" x="1163" y="-381" font-family="Helvetica,sans-Serif" font-size="10.00">hpd_tcpd_conn_kill</text>
</a>
</g>
</g>
<!-- Node9&#45;&gt;Node10 -->
<g id="edge9" class="edge"><title>Node9&#45;&gt;Node10</title>
<path fill="none" stroke="midnightblue" d="M1060.24,-383.5C1073.86,-383.5 1088.54,-383.5 1102.39,-383.5"/>
<polygon fill="midnightblue" stroke="midnightblue" points="1102.78,-387 1112.78,-383.5 1102.78,-380 1102.78,-387"/>
</g>
<!-- Node10&#45;&gt;Node11 -->
<g id="edge10" class="edge"><title>Node10&#45;&gt;Node11</title>
<path fill="none" stroke="midnightblue" d="M1213.14,-390.467C1233.23,-393.317 1255.64,-396.494 1272.39,-398.868"/>
<polygon fill="midnightblue" stroke="midnightblue" points="1272.1,-402.362 1282.49,-400.301 1273.08,-395.431 1272.1,-402.362"/>
</g>
<!-- Node14&#45;&gt;Node9 -->
<g id="edge15" class="edge"><title>Node14&#45;&gt;Node9</title>
<path fill="none" stroke="midnightblue" d="M732.114,-234.648C780.864,-234.186 854.828,-239.542 910,-270.5 949.775,-292.818 979.663,-339.224 994.028,-365.085"/>
<polygon fill="midnightblue" stroke="midnightblue" points="990.946,-366.744 998.762,-373.897 997.113,-363.431 990.946,-366.744"/>
</g>
<!-- Node14&#45;&gt;Node11 -->
<g id="edge16" class="edge"><title>Node14&#45;&gt;Node11</title>
<path fill="none" stroke="midnightblue" d="M732.038,-230.086C778.817,-224.772 849.753,-220.458 910,-232.5 1056.83,-261.85 1215.54,-352.05 1274.35,-387.741"/>
<polygon fill="midnightblue" stroke="midnightblue" points="1272.56,-390.748 1282.91,-392.984 1276.21,-384.777 1272.56,-390.748"/>
</g>
<!-- Node17&#45;&gt;Node5 -->
<g id="edge54" class="edge"><title>Node17&#45;&gt;Node5</title>
<path fill="none" stroke="midnightblue" d="M231.701,-345.858C250.608,-349.726 273.915,-354.007 295,-356.5 408.323,-369.899 541.541,-373.876 617.544,-375.039"/>
<polygon fill="midnightblue" stroke="midnightblue" points="617.833,-378.543 627.881,-375.185 617.932,-371.544 617.833,-378.543"/>
</g>
<!-- Node17&#45;&gt;Node11 -->
<g id="edge64" class="edge"><title>Node17&#45;&gt;Node11</title>
<path fill="none" stroke="midnightblue" d="M216.933,-327.87C230.151,-321.606 246.558,-312.551 259,-301.5 279.473,-283.315 272.289,-266.799 295,-251.5 368.22,-202.175 400.344,-215.019 488,-204.5 742.152,-174 813.157,-181.801 1063,-237.5 1138.32,-254.291 1166.13,-247.075 1227,-294.5 1257.68,-318.406 1279.37,-359.456 1290.17,-383.472"/>
<polygon fill="midnightblue" stroke="midnightblue" points="1287.07,-385.112 1294.25,-392.903 1293.49,-382.335 1287.07,-385.112"/>
</g>
<!-- Node17&#45;&gt;Node14 -->
<g id="edge63" class="edge"><title>Node17&#45;&gt;Node14</title>
<path fill="none" stroke="midnightblue" d="M211.44,-327.978C224.561,-320.781 242.963,-310.617 259,-301.5 275.103,-292.346 277.416,-286.323 295,-280.5 353.312,-261.189 524.708,-247.502 617.553,-241.274"/>
<polygon fill="midnightblue" stroke="midnightblue" points="617.907,-244.759 627.654,-240.606 617.444,-237.774 617.907,-244.759"/>
</g>
<!-- Node18 -->
<g id="node18" class="node"><title>Node18</title>
<g id="a_node18"><a xlink:href="a00042.html#a3eb33be000f845d28ec16639f235ceb2" target="_top" xlink:title="hpd_map_get">
<polygon fill="none" stroke="black" points="336,-290 336,-309 411,-309 411,-290 336,-290"/>
<text text-anchor="middle" x="373.5" y="-297" font-family="Helvetica,sans-Serif" font-size="10.00">hpd_map_get</text>
</a>
</g>
</g>
<!-- Node17&#45;&gt;Node18 -->
<g id="edge20" class="edge"><title>Node17&#45;&gt;Node18</title>
<path fill="none" stroke="midnightblue" d="M231.855,-329.441C259.319,-323.595 296.631,-315.651 325.923,-309.416"/>
<polygon fill="midnightblue" stroke="midnightblue" points="326.868,-312.793 335.92,-307.287 325.411,-305.946 326.868,-312.793"/>
</g>
<!-- Node19 -->
<g id="node19" class="node"><title>Node19</title>
<g id="a_node19"><a xlink:href="a00025.html#a9f8a053727a04656e484cc74ce1011ec" target="_top" xlink:title="media_type_to_enum">
<polygon fill="none" stroke="black" points="318.5,-480 318.5,-499 428.5,-499 428.5,-480 318.5,-480"/>
<text text-anchor="middle" x="373.5" y="-487" font-family="Helvetica,sans-Serif" font-size="10.00">media_type_to_enum</text>
</a>
</g>
</g>
<!-- Node17&#45;&gt;Node19 -->
<g id="edge21" class="edge"><title>Node17&#45;&gt;Node19</title>
<path fill="none" stroke="midnightblue" d="M231.685,-341.958C241.615,-344.757 251.606,-349.263 259,-356.5 296.972,-393.665 256.22,-434.179 295,-470.5 299.108,-474.347 303.863,-477.452 308.958,-479.953"/>
<polygon fill="midnightblue" stroke="midnightblue" points="307.847,-483.28 318.427,-483.832 310.5,-476.802 307.847,-483.28"/>
</g>
<!-- Node20 -->
<g id="node20" class="node"><title>Node20</title>
<g id="a_node20"><a xlink:href="a00078.html#a8e4fec5aee8ef4584d875f74051b25b0" target="_top" xlink:title="hpd_rest_xml_get_configuration">
<polygon fill="none" stroke="black" points="296,-710 296,-729 451,-729 451,-710 296,-710"/>
<text text-anchor="middle" x="373.5" y="-717" font-family="Helvetica,sans-Serif" font-size="10.00">hpd_rest_xml_get_configuration</text>
</a>
</g>
</g>
<!-- Node17&#45;&gt;Node20 -->
<g id="edge22" class="edge"><title>Node17&#45;&gt;Node20</title>
<path fill="none" stroke="midnightblue" d="M231.696,-341.52C241.744,-344.303 251.795,-348.912 259,-356.5 306.802,-406.846 274.996,-442.02 295,-508.5 316.696,-580.606 349.714,-663.885 364.661,-700.531"/>
<polygon fill="midnightblue" stroke="midnightblue" points="361.498,-702.041 368.531,-709.964 367.974,-699.384 361.498,-702.041"/>
</g>
<!-- Node32 -->
<g id="node32" class="node"><title>Node32</title>
<g id="a_node32"><a xlink:href="a00076.html#a0f69305250a2916043c87e8e3865b28d" target="_top" xlink:title="hpd_rest_json_get_configuration">
<polygon fill="none" stroke="black" points="295,-442 295,-461 452,-461 452,-442 295,-442"/>
<text text-anchor="middle" x="373.5" y="-449" font-family="Helvetica,sans-Serif" font-size="10.00">hpd_rest_json_get_configuration</text>
</a>
</g>
</g>
<!-- Node17&#45;&gt;Node32 -->
<g id="edge41" class="edge"><title>Node17&#45;&gt;Node32</title>
<path fill="none" stroke="midnightblue" d="M231.631,-342.963C241.333,-345.777 251.221,-350.041 259,-356.5 286.22,-379.101 267.961,-404.683 295,-427.5 299.945,-431.673 305.611,-435.121 311.579,-437.97"/>
<polygon fill="midnightblue" stroke="midnightblue" points="310.572,-441.342 321.148,-441.972 313.273,-434.885 310.572,-441.342"/>
</g>
<!-- Node39 -->
<g id="node39" class="node"><title>Node39</title>
<g id="a_node39"><a xlink:href="a00025.html#a06c43484d9f060f5ad9edc943c1b4623" target="_top" xlink:title="reply_unsupported_media_type">
<polygon fill="none" stroke="black" points="297.5,-328 297.5,-347 449.5,-347 449.5,-328 297.5,-328"/>
<text text-anchor="middle" x="373.5" y="-335" font-family="Helvetica,sans-Serif" font-size="10.00">reply_unsupported_media_type</text>
</a>
</g>
</g>
<!-- Node17&#45;&gt;Node39 -->
<g id="edge52" class="edge"><title>Node17&#45;&gt;Node39</title>
<path fill="none" stroke="midnightblue" d="M231.855,-337.5C248.065,-337.5 267.705,-337.5 287.102,-337.5"/>
<polygon fill="midnightblue" stroke="midnightblue" points="287.204,-341 297.204,-337.5 287.204,-334 287.204,-341"/>
</g>
<!-- Node40 -->
<g id="node40" class="node"><title>Node40</title>
<g id="a_node40"><a xlink:href="a00018.html#a38a5c180c63086c4c55a595ad3750cf1" target="_top" xlink:title="Send response to client. ">
<polygon fill="none" stroke="black" points="488,-455.5 488,-485.5 592,-485.5 592,-455.5 488,-455.5"/>
<text text-anchor="start" x="496" y="-473.5" font-family="Helvetica,sans-Serif" font-size="10.00">hpd_httpd_response</text>
<text text-anchor="middle" x="540" y="-462.5" font-family="Helvetica,sans-Serif" font-size="10.00">_sendf</text>
</a>
</g>
</g>
<!-- Node17&#45;&gt;Node40 -->
<g id="edge55" class="edge"><title>Node17&#45;&gt;Node40</title>
<path fill="none" stroke="midnightblue" d="M231.625,-345.341C240.914,-348.117 250.601,-351.767 259,-356.5 277.909,-367.156 276,-379.006 295,-389.5 358.329,-424.479 383.784,-408.402 452,-432.5 467.426,-437.949 483.968,-444.885 498.443,-451.336"/>
<polygon fill="midnightblue" stroke="midnightblue" points="497.069,-454.556 507.623,-455.485 499.952,-448.177 497.069,-454.556"/>
</g>
<!-- Node21 -->
<g id="node21" class="node"><title>Node21</title>
<g id="a_node21"><a xlink:href="a00078.html#ad88fa453c669223e047c6c1fe5d1be2b" target="_top" xlink:title="add_configuration">
<polygon fill="none" stroke="black" points="493.5,-874 493.5,-893 586.5,-893 586.5,-874 493.5,-874"/>
<text text-anchor="middle" x="540" y="-881" font-family="Helvetica,sans-Serif" font-size="10.00">add_configuration</text>
</a>
</g>
</g>
<!-- Node20&#45;&gt;Node21 -->
<g id="edge23" class="edge"><title>Node20&#45;&gt;Node21</title>
<path fill="none" stroke="midnightblue" d="M384.298,-729.268C411.448,-756.336 487.898,-832.553 522.097,-866.648"/>
<polygon fill="midnightblue" stroke="midnightblue" points="519.907,-869.407 529.46,-873.989 524.849,-864.45 519.907,-869.407"/>
</g>
<!-- Node22 -->
<g id="node22" class="node"><title>Node22</title>
<g id="a_node22"><a xlink:href="a00078.html#af23e584d1222fba3c81ac4de7a36e0f0" target="_top" xlink:title="add">
<polygon fill="none" stroke="black" points="1283,-988 1283,-1007 1315,-1007 1315,-988 1283,-988"/>
<text text-anchor="middle" x="1299" y="-995" font-family="Helvetica,sans-Serif" font-size="10.00">add</text>
</a>
</g>
</g>
<!-- Node21&#45;&gt;Node22 -->
<g id="edge24" class="edge"><title>Node21&#45;&gt;Node22</title>
<path fill="none" stroke="midnightblue" d="M548.551,-893.183C579.67,-931.902 702.724,-1073.5 838,-1073.5 838,-1073.5 838,-1073.5 1005.5,-1073.5 1105.7,-1073.5 1131.79,-1062.73 1227,-1031.5 1243.2,-1026.19 1260.46,-1017.98 1273.92,-1010.96"/>
<polygon fill="midnightblue" stroke="midnightblue" points="1275.8,-1013.92 1282.96,-1006.12 1272.5,-1007.75 1275.8,-1013.92"/>
</g>
<!-- Node23 -->
<g id="node23" class="node"><title>Node23</title>
<g id="a_node23"><a xlink:href="a00078.html#a74a4370db05c108f928bce2eb5395cc9" target="_top" xlink:title="add_adapter">
<polygon fill="none" stroke="black" points="645,-874 645,-893 715,-893 715,-874 645,-874"/>
<text text-anchor="middle" x="680" y="-881" font-family="Helvetica,sans-Serif" font-size="10.00">add_adapter</text>
</a>
</g>
</g>
<!-- Node21&#45;&gt;Node23 -->
<g id="edge25" class="edge"><title>Node21&#45;&gt;Node23</title>
<path fill="none" stroke="midnightblue" d="M586.569,-883.5C602.006,-883.5 619.218,-883.5 634.565,-883.5"/>
<polygon fill="midnightblue" stroke="midnightblue" points="634.848,-887 644.847,-883.5 634.847,-880 634.848,-887"/>
</g>
<!-- Node23&#45;&gt;Node22 -->
<g id="edge29" class="edge"><title>Node23&#45;&gt;Node22</title>
<path fill="none" stroke="midnightblue" d="M693.384,-893.026C709.751,-905.275 739.813,-926.619 768,-940.5 903.411,-1007.18 948.218,-1009.62 1099,-1016.5 1155.83,-1019.09 1170.6,-1023.92 1227,-1016.5 1242.73,-1014.43 1259.92,-1009.89 1273.45,-1005.77"/>
<polygon fill="midnightblue" stroke="midnightblue" points="1274.52,-1009.1 1283,-1002.74 1272.41,-1002.43 1274.52,-1009.1"/>
</g>
<!-- Node24 -->
<g id="node24" class="node"><title>Node24</title>
<g id="a_node24"><a xlink:href="a00056.html#af6aa40d0f9745dcbcb332d8d9dfc778d" target="_top" xlink:title="[id_t functions] ">
<polygon fill="none" stroke="black" points="954,-798 954,-817 1055,-817 1055,-798 954,-798"/>
<text text-anchor="middle" x="1004.5" y="-805" font-family="Helvetica,sans-Serif" font-size="10.00">hpd_adapter_get_id</text>
</a>
</g>
</g>
<!-- Node23&#45;&gt;Node24 -->
<g id="edge26" class="edge"><title>Node23&#45;&gt;Node24</title>
<path fill="none" stroke="midnightblue" d="M693.115,-873.878C709.19,-861.695 738.938,-841.136 768,-831.5 825.723,-812.362 895.399,-807.33 943.924,-806.491"/>
<polygon fill="midnightblue" stroke="midnightblue" points="943.988,-809.99 953.946,-806.372 943.905,-802.991 943.988,-809.99"/>
</g>
<!-- Node27 -->
<g id="node27" class="node"><title>Node27</title>
<g id="a_node27"><a xlink:href="a00078.html#a833fc3ab9f2978b3d4afe57805400287" target="_top" xlink:title="add_attr">
<polygon fill="none" stroke="black" points="1137,-912 1137,-931 1189,-931 1189,-912 1137,-912"/>
<text text-anchor="middle" x="1163" y="-919" font-family="Helvetica,sans-Serif" font-size="10.00">add_attr</text>
</a>
</g>
</g>
<!-- Node23&#45;&gt;Node27 -->
<g id="edge30" class="edge"><title>Node23&#45;&gt;Node27</title>
<path fill="none" stroke="midnightblue" d="M715.205,-874.903C782.945,-859.37 938.39,-831.191 1063,-864.5 1092.77,-872.459 1122.88,-891.757 1141.94,-905.696"/>
<polygon fill="midnightblue" stroke="midnightblue" points="1140.03,-908.636 1150.12,-911.849 1144.24,-903.041 1140.03,-908.636"/>
</g>
<!-- Node29 -->
<g id="node29" class="node"><title>Node29</title>
<g id="a_node29"><a xlink:href="a00078.html#a0e06b2640ece880b49d5d39ef432dd2c" target="_top" xlink:title="add_device">
<polygon fill="none" stroke="black" points="806,-912 806,-931 872,-931 872,-912 806,-912"/>
<text text-anchor="middle" x="839" y="-919" font-family="Helvetica,sans-Serif" font-size="10.00">add_device</text>
</a>
</g>
</g>
<!-- Node23&#45;&gt;Node29 -->
<g id="edge33" class="edge"><title>Node23&#45;&gt;Node29</title>
<path fill="none" stroke="midnightblue" d="M715.067,-891.745C738.767,-897.482 770.524,-905.168 795.824,-911.292"/>
<polygon fill="midnightblue" stroke="midnightblue" points="795.332,-914.774 805.875,-913.725 796.979,-907.97 795.332,-914.774"/>
</g>
<!-- Node25 -->
<g id="node25" class="node"><title>Node25</title>
<g id="a_node25"><a xlink:href="a00011.html#a690059fc206d49f639837d41fd5ced05" target="_top" xlink:title="discovery_find_adapter">
<polygon fill="none" stroke="black" points="1104.5,-798 1104.5,-817 1221.5,-817 1221.5,-798 1104.5,-798"/>
<text text-anchor="middle" x="1163" y="-805" font-family="Helvetica,sans-Serif" font-size="10.00">discovery_find_adapter</text>
</a>
</g>
</g>
<!-- Node24&#45;&gt;Node25 -->
<g id="edge27" class="edge"><title>Node24&#45;&gt;Node25</title>
<path fill="none" stroke="midnightblue" d="M1055.02,-807.5C1067.38,-807.5 1080.86,-807.5 1093.95,-807.5"/>
<polygon fill="midnightblue" stroke="midnightblue" points="1094.34,-811 1104.34,-807.5 1094.34,-804 1094.34,-811"/>
</g>
<!-- Node26 -->
<g id="node26" class="node"><title>Node26</title>
<g id="a_node26"><a xlink:href="a00059.html#af7f7554fd8858506bf900674f0dd07be" target="_top" xlink:title="discovery_get_adapter_id">
<polygon fill="none" stroke="black" points="1099,-836 1099,-855 1227,-855 1227,-836 1099,-836"/>
<text text-anchor="middle" x="1163" y="-843" font-family="Helvetica,sans-Serif" font-size="10.00">discovery_get_adapter_id</text>
</a>
</g>
</g>
<!-- Node24&#45;&gt;Node26 -->
<g id="edge28" class="edge"><title>Node24&#45;&gt;Node26</title>
<path fill="none" stroke="midnightblue" d="M1044.99,-817.089C1065.64,-822.104 1091.11,-828.288 1113.01,-833.605"/>
<polygon fill="midnightblue" stroke="midnightblue" points="1112.25,-837.021 1122.79,-835.98 1113.9,-830.219 1112.25,-837.021"/>
</g>
<!-- Node27&#45;&gt;Node22 -->
<g id="edge32" class="edge"><title>Node27&#45;&gt;Node22</title>
<path fill="none" stroke="midnightblue" d="M1189.22,-929.363C1201.02,-933.478 1215.07,-939.014 1227,-945.5 1245.67,-955.655 1265.02,-970.13 1278.79,-981.231"/>
<polygon fill="midnightblue" stroke="midnightblue" points="1276.64,-983.995 1286.59,-987.638 1281.09,-978.586 1276.64,-983.995"/>
</g>
<!-- Node28 -->
<g id="node28" class="node"><title>Node28</title>
<g id="a_node28"><a xlink:href="a00042.html#ad8de9589846a9987ae60b199fc05094d" target="_top" xlink:title="hpd_pair_get">
<polygon fill="none" stroke="black" points="1263,-836 1263,-855 1335,-855 1335,-836 1263,-836"/>
<text text-anchor="middle" x="1299" y="-843" font-family="Helvetica,sans-Serif" font-size="10.00">hpd_pair_get</text>
</a>
</g>
</g>
<!-- Node27&#45;&gt;Node28 -->
<g id="edge31" class="edge"><title>Node27&#45;&gt;Node28</title>
<path fill="none" stroke="midnightblue" d="M1189.22,-913.637C1201.02,-909.522 1215.07,-903.986 1227,-897.5 1245.67,-887.345 1265.02,-872.87 1278.79,-861.769"/>
<polygon fill="midnightblue" stroke="midnightblue" points="1281.09,-864.414 1286.59,-855.362 1276.64,-859.005 1281.09,-864.414"/>
</g>
<!-- Node29&#45;&gt;Node22 -->
<g id="edge35" class="edge"><title>Node29&#45;&gt;Node22</title>
<path fill="none" stroke="midnightblue" d="M853.227,-931.125C872.514,-944.552 909.99,-968.392 946,-978.5 1064.46,-1011.75 1213.95,-1004.49 1272.68,-999.846"/>
<polygon fill="midnightblue" stroke="midnightblue" points="1273.19,-1003.32 1282.87,-998.992 1272.61,-996.34 1273.19,-1003.32"/>
</g>
<!-- Node29&#45;&gt;Node27 -->
<g id="edge36" class="edge"><title>Node29&#45;&gt;Node27</title>
<path fill="none" stroke="midnightblue" d="M872.052,-921.5C932.653,-921.5 1063.6,-921.5 1126.65,-921.5"/>
<polygon fill="midnightblue" stroke="midnightblue" points="1126.89,-925 1136.89,-921.5 1126.89,-918 1126.89,-925"/>
</g>
<!-- Node30 -->
<g id="node30" class="node"><title>Node30</title>
<g id="a_node30"><a xlink:href="a00056.html#a9005887b17466250fc4fc8d6d253034d" target="_top" xlink:title="[hpd_adapter_t functions] ">
<polygon fill="none" stroke="red" points="955.5,-950 955.5,-969 1053.5,-969 1053.5,-950 955.5,-950"/>
<text text-anchor="middle" x="1004.5" y="-957" font-family="Helvetica,sans-Serif" font-size="10.00">hpd_device_get_id</text>
</a>
</g>
</g>
<!-- Node29&#45;&gt;Node30 -->
<g id="edge34" class="edge"><title>Node29&#45;&gt;Node30</title>
<path fill="none" stroke="midnightblue" d="M872.302,-929.008C895.243,-934.339 926.506,-941.605 952.76,-947.707"/>
<polygon fill="midnightblue" stroke="midnightblue" points="952.016,-951.127 962.549,-949.982 953.601,-944.309 952.016,-951.127"/>
</g>
<!-- Node31 -->
<g id="node31" class="node"><title>Node31</title>
<g id="a_node31"><a xlink:href="a00078.html#a795ab169f665e263af4a7c277df38a68" target="_top" xlink:title="add_service">
<polygon fill="none" stroke="red" points="970,-874 970,-893 1039,-893 1039,-874 970,-874"/>
<text text-anchor="middle" x="1004.5" y="-881" font-family="Helvetica,sans-Serif" font-size="10.00">add_service</text>
</a>
</g>
</g>
<!-- Node29&#45;&gt;Node31 -->
<g id="edge37" class="edge"><title>Node29&#45;&gt;Node31</title>
<path fill="none" stroke="midnightblue" d="M872.302,-913.992C897.417,-908.155 932.504,-900.001 960.075,-893.593"/>
<polygon fill="midnightblue" stroke="midnightblue" points="960.912,-896.992 969.86,-891.319 959.327,-890.173 960.912,-896.992"/>
</g>
<!-- Node31&#45;&gt;Node11 -->
<g id="edge39" class="edge"><title>Node31&#45;&gt;Node11</title>
<path fill="none" stroke="midnightblue" d="M1039.06,-892.018C1087.37,-902.069 1176.26,-911.954 1227,-864.5 1292.53,-803.215 1297.83,-503.105 1298.05,-422.474"/>
<polygon fill="midnightblue" stroke="midnightblue" points="1301.55,-422.226 1298.06,-412.225 1294.55,-422.224 1301.55,-422.226"/>
</g>
<!-- Node31&#45;&gt;Node22 -->
<g id="edge38" class="edge"><title>Node31&#45;&gt;Node22</title>
<path fill="none" stroke="midnightblue" d="M1018.81,-893.21C1036.4,-905.658 1068.7,-927.217 1099,-940.5 1159.02,-966.816 1234.51,-984.563 1272.97,-992.596"/>
<polygon fill="midnightblue" stroke="midnightblue" points="1272.3,-996.03 1282.79,-994.603 1273.7,-989.172 1272.3,-996.03"/>
</g>
<!-- Node31&#45;&gt;Node27 -->
<g id="edge40" class="edge"><title>Node31&#45;&gt;Node27</title>
<path fill="none" stroke="midnightblue" d="M1039.07,-891.652C1064.92,-897.928 1100.55,-906.579 1126.8,-912.953"/>
<polygon fill="midnightblue" stroke="midnightblue" points="1126.17,-916.401 1136.71,-915.359 1127.82,-909.599 1126.17,-916.401"/>
</g>
<!-- Node33 -->
<g id="node33" class="node"><title>Node33</title>
<g id="a_node33"><a xlink:href="a00076.html#ab8e279d4c33ab258d7118b3e2f28400e" target="_top" xlink:title="add_configuration">
<polygon fill="none" stroke="black" points="493.5,-646 493.5,-665 586.5,-665 586.5,-646 493.5,-646"/>
<text text-anchor="middle" x="540" y="-653" font-family="Helvetica,sans-Serif" font-size="10.00">add_configuration</text>
</a>
</g>
</g>
<!-- Node32&#45;&gt;Node33 -->
<g id="edge42" class="edge"><title>Node32&#45;&gt;Node33</title>
<path fill="none" stroke="midnightblue" d="M436.213,-461.067C441.898,-463.545 447.283,-466.64 452,-470.5 505.25,-514.076 527.742,-597.746 535.523,-635.795"/>
<polygon fill="midnightblue" stroke="midnightblue" points="532.092,-636.486 537.413,-645.647 538.966,-635.167 532.092,-636.486"/>
</g>
<!-- Node34 -->
<g id="node34" class="node"><title>Node34</title>
<g id="a_node34"><a xlink:href="a00076.html#aa181e2f731323873699902e5cf92eea8" target="_top" xlink:title="add">
<polygon fill="none" stroke="black" points="1147,-722 1147,-741 1179,-741 1179,-722 1147,-722"/>
<text text-anchor="middle" x="1163" y="-729" font-family="Helvetica,sans-Serif" font-size="10.00">add</text>
</a>
</g>
</g>
<!-- Node33&#45;&gt;Node34 -->
<g id="edge43" class="edge"><title>Node33&#45;&gt;Node34</title>
<path fill="none" stroke="midnightblue" d="M586.837,-649.916C679.122,-640.236 893.021,-625.734 1063,-674.5 1092.46,-682.952 1122.43,-701.969 1141.55,-715.716"/>
<polygon fill="midnightblue" stroke="midnightblue" points="1139.66,-718.666 1149.78,-721.789 1143.81,-713.034 1139.66,-718.666"/>
</g>
<!-- Node35 -->
<g id="node35" class="node"><title>Node35</title>
<g id="a_node35"><a xlink:href="a00076.html#a9a90e4e11e2111c0d0b29f277b1d24c4" target="_top" xlink:title="add_adapters">
<polygon fill="none" stroke="black" points="642.5,-703 642.5,-722 717.5,-722 717.5,-703 642.5,-703"/>
<text text-anchor="middle" x="680" y="-710" font-family="Helvetica,sans-Serif" font-size="10.00">add_adapters</text>
</a>
</g>
</g>
<!-- Node33&#45;&gt;Node35 -->
<g id="edge44" class="edge"><title>Node33&#45;&gt;Node35</title>
<path fill="none" stroke="midnightblue" d="M564.098,-665.041C586.587,-674.329 620.981,-688.536 646.281,-698.986"/>
<polygon fill="midnightblue" stroke="midnightblue" points="645.248,-702.346 655.827,-702.928 647.92,-695.876 645.248,-702.346"/>
</g>
<!-- Node36 -->
<g id="node36" class="node"><title>Node36</title>
<g id="a_node36"><a xlink:href="a00076.html#aa21890dddb121282884859a2c8bfd134" target="_top" xlink:title="add_adapter">
<polygon fill="none" stroke="black" points="804,-722 804,-741 874,-741 874,-722 804,-722"/>
<text text-anchor="middle" x="839" y="-729" font-family="Helvetica,sans-Serif" font-size="10.00">add_adapter</text>
</a>
</g>
</g>
<!-- Node35&#45;&gt;Node36 -->
<g id="edge45" class="edge"><title>Node35&#45;&gt;Node36</title>
<path fill="none" stroke="midnightblue" d="M717.81,-716.955C740.468,-719.697 769.656,-723.229 793.593,-726.126"/>
<polygon fill="midnightblue" stroke="midnightblue" points="793.489,-729.639 803.837,-727.366 794.33,-722.69 793.489,-729.639"/>
</g>
<!-- Node36&#45;&gt;Node24 -->
<g id="edge46" class="edge"><title>Node36&#45;&gt;Node24</title>
<path fill="none" stroke="midnightblue" d="M855.731,-741.085C876.06,-753.206 912.794,-774.215 946,-788.5 951.01,-790.655 956.351,-792.717 961.682,-794.635"/>
<polygon fill="midnightblue" stroke="midnightblue" points="960.601,-797.965 971.196,-797.921 962.886,-791.348 960.601,-797.965"/>
</g>
<!-- Node36&#45;&gt;Node34 -->
<g id="edge47" class="edge"><title>Node36&#45;&gt;Node34</title>
<path fill="none" stroke="midnightblue" d="M874.155,-731.5C939.1,-731.5 1079.04,-731.5 1136.54,-731.5"/>
<polygon fill="midnightblue" stroke="midnightblue" points="1136.89,-735 1146.89,-731.5 1136.89,-728 1136.89,-735"/>
</g>
<!-- Node37 -->
<g id="node37" class="node"><title>Node37</title>
<g id="a_node37"><a xlink:href="a00076.html#ae8f63d2ca9864211a681b077c4431a33" target="_top" xlink:title="add_attr">
<polygon fill="none" stroke="black" points="978.5,-760 978.5,-779 1030.5,-779 1030.5,-760 978.5,-760"/>
<text text-anchor="middle" x="1004.5" y="-767" font-family="Helvetica,sans-Serif" font-size="10.00">add_attr</text>
</a>
</g>
</g>
<!-- Node36&#45;&gt;Node37 -->
<g id="edge48" class="edge"><title>Node36&#45;&gt;Node37</title>
<path fill="none" stroke="midnightblue" d="M874.275,-739.466C901.842,-745.873 940.43,-754.842 968.252,-761.308"/>
<polygon fill="midnightblue" stroke="midnightblue" points="967.809,-764.798 978.342,-763.653 969.394,-757.98 967.809,-764.798"/>
</g>
<!-- Node38 -->
<g id="node38" class="node"><title>Node38</title>
<g id="a_node38"><a xlink:href="a00076.html#a4028efc20daa3dbda3727bcb6fdd0635" target="_top" xlink:title="add_devices">
<polygon fill="none" stroke="red" points="969,-684 969,-703 1040,-703 1040,-684 969,-684"/>
<text text-anchor="middle" x="1004.5" y="-691" font-family="Helvetica,sans-Serif" font-size="10.00">add_devices</text>
</a>
</g>
</g>
<!-- Node36&#45;&gt;Node38 -->
<g id="edge51" class="edge"><title>Node36&#45;&gt;Node38</title>
<path fill="none" stroke="midnightblue" d="M874.275,-723.534C898.935,-717.802 932.416,-710.021 959.119,-703.815"/>
<polygon fill="midnightblue" stroke="midnightblue" points="960.041,-707.194 968.989,-701.521 958.456,-700.376 960.041,-707.194"/>
</g>
<!-- Node37&#45;&gt;Node28 -->
<g id="edge49" class="edge"><title>Node37&#45;&gt;Node28</title>
<path fill="none" stroke="midnightblue" d="M1030.84,-767.022C1073.16,-763.882 1160.18,-761.733 1227,-788.5 1248.83,-797.246 1269.27,-815.082 1282.56,-828.486"/>
<polygon fill="midnightblue" stroke="midnightblue" points="1280.08,-830.952 1289.52,-835.764 1285.14,-826.116 1280.08,-830.952"/>
</g>
<!-- Node37&#45;&gt;Node34 -->
<g id="edge50" class="edge"><title>Node37&#45;&gt;Node34</title>
<path fill="none" stroke="midnightblue" d="M1030.64,-763.395C1059.89,-756.294 1107.86,-744.645 1137.03,-737.563"/>
<polygon fill="midnightblue" stroke="midnightblue" points="1137.96,-740.938 1146.86,-735.177 1136.31,-734.136 1137.96,-740.938"/>
</g>
<!-- Node39&#45;&gt;Node4 -->
<g id="edge53" class="edge"><title>Node39&#45;&gt;Node4</title>
<path fill="none" stroke="midnightblue" d="M430.682,-327.937C438.129,-325.476 445.445,-322.384 452,-318.5 484.85,-299.037 512.58,-263.279 527.408,-241.619"/>
<polygon fill="midnightblue" stroke="midnightblue" points="530.498,-243.293 533.118,-233.027 524.668,-239.418 530.498,-243.293"/>
</g>
<!-- Node41 -->
<g id="node41" class="node"><title>Node41</title>
<g id="a_node41"><a xlink:href="a00017.html#ab770a06a1cbfdebf49acdefe64b115b8" target="_top" xlink:title="Send response to client. ">
<polygon fill="none" stroke="black" points="628,-507.5 628,-537.5 732,-537.5 732,-507.5 628,-507.5"/>
<text text-anchor="start" x="636" y="-525.5" font-family="Helvetica,sans-Serif" font-size="10.00">hpd_httpd_response</text>
<text text-anchor="middle" x="680" y="-514.5" font-family="Helvetica,sans-Serif" font-size="10.00">_vsendf</text>
</a>
</g>
</g>
<!-- Node40&#45;&gt;Node41 -->
<g id="edge56" class="edge"><title>Node40&#45;&gt;Node41</title>
<path fill="none" stroke="midnightblue" d="M580.915,-485.541C596.077,-491.254 613.532,-497.831 629.476,-503.839"/>
<polygon fill="midnightblue" stroke="midnightblue" points="628.583,-507.242 639.174,-507.493 631.051,-500.692 628.583,-507.242"/>
</g>
<!-- Node41&#45;&gt;Node7 -->
<g id="edge58" class="edge"><title>Node41&#45;&gt;Node7</title>
<path fill="none" stroke="midnightblue" d="M719.878,-507.447C734.876,-501.72 752.198,-495.204 768,-489.5 778.256,-485.798 789.406,-481.912 799.73,-478.372"/>
<polygon fill="midnightblue" stroke="midnightblue" points="800.984,-481.642 809.319,-475.101 798.724,-475.017 800.984,-481.642"/>
</g>
<!-- Node41&#45;&gt;Node11 -->
<g id="edge61" class="edge"><title>Node41&#45;&gt;Node11</title>
<path fill="none" stroke="midnightblue" d="M732.185,-514.972C829.314,-500.279 1046.77,-465.433 1227,-422.5 1242.14,-418.894 1258.9,-414.205 1272.34,-410.274"/>
<polygon fill="midnightblue" stroke="midnightblue" points="1273.71,-413.517 1282.3,-407.318 1271.72,-406.806 1273.71,-413.517"/>
</g>
<!-- Node42 -->
<g id="node42" class="node"><title>Node42</title>
<g id="a_node42"><a xlink:href="a00029.html#a1ccd6d1acb1660ec22322af9b6349a40" target="_top" xlink:title="Get the IP address of the client. ">
<polygon fill="none" stroke="black" points="782,-608 782,-627 896,-627 896,-608 782,-608"/>
<text text-anchor="middle" x="839" y="-615" font-family="Helvetica,sans-Serif" font-size="10.00">hpd_tcpd_conn_get_ip</text>
</a>
</g>
</g>
<!-- Node41&#45;&gt;Node42 -->
<g id="edge57" class="edge"><title>Node41&#45;&gt;Node42</title>
<path fill="none" stroke="midnightblue" d="M694.243,-537.63C710.11,-554.837 738.295,-582.598 768,-598.5 772.219,-600.758 776.727,-602.765 781.347,-604.545"/>
<polygon fill="midnightblue" stroke="midnightblue" points="780.332,-607.898 790.927,-607.888 782.639,-601.289 780.332,-607.898"/>
</g>
<!-- Node43 -->
<g id="node43" class="node"><title>Node43</title>
<g id="a_node43"><a xlink:href="a00029.html#af1d6e9cdd63ecfa1ff92ab0e38122100" target="_top" xlink:title="Send message on connection. ">
<polygon fill="none" stroke="black" points="783,-570 783,-589 895,-589 895,-570 783,-570"/>
<text text-anchor="middle" x="839" y="-577" font-family="Helvetica,sans-Serif" font-size="10.00">hpd_tcpd_conn_sendf</text>
</a>
</g>
</g>
<!-- Node41&#45;&gt;Node43 -->
<g id="edge59" class="edge"><title>Node41&#45;&gt;Node43</title>
<path fill="none" stroke="midnightblue" d="M712.37,-537.533C728.723,-545.027 749.188,-553.879 768,-560.5 774.778,-562.886 782.012,-565.152 789.163,-567.233"/>
<polygon fill="midnightblue" stroke="midnightblue" points="788.236,-570.608 798.811,-569.951 790.134,-563.87 788.236,-570.608"/>
</g>
<!-- Node45 -->
<g id="node45" class="node"><title>Node45</title>
<g id="a_node45"><a xlink:href="a00029.html#a222b05aa1f3416a31ddb08b5e2bfbff8" target="_top" xlink:title="Send message on connection. ">
<polygon fill="none" stroke="black" points="780.5,-532 780.5,-551 897.5,-551 897.5,-532 780.5,-532"/>
<text text-anchor="middle" x="839" y="-539" font-family="Helvetica,sans-Serif" font-size="10.00">hpd_tcpd_conn_vsendf</text>
</a>
</g>
</g>
<!-- Node41&#45;&gt;Node45 -->
<g id="edge62" class="edge"><title>Node41&#45;&gt;Node45</title>
<path fill="none" stroke="midnightblue" d="M732.408,-528.721C744.474,-530.182 757.514,-531.76 770.177,-533.292"/>
<polygon fill="midnightblue" stroke="midnightblue" points="769.877,-536.781 780.225,-534.508 770.718,-529.832 769.877,-536.781"/>
</g>
<!-- Node44 -->
<g id="node44" class="node"><title>Node44</title>
<g id="a_node44"><a xlink:href="a00045.html#a222b05aa1f3416a31ddb08b5e2bfbff8" target="_top" xlink:title="Send message on connection. ">
<polygon fill="none" stroke="black" points="946,-570 946,-589 1063,-589 1063,-570 946,-570"/>
<text text-anchor="middle" x="1004.5" y="-577" font-family="Helvetica,sans-Serif" font-size="10.00">hpd_tcpd_conn_vsendf</text>
</a>
</g>
</g>
<!-- Node43&#45;&gt;Node44 -->
<g id="edge60" class="edge"><title>Node43&#45;&gt;Node44</title>
<path fill="none" stroke="midnightblue" d="M895.354,-579.5C908.347,-579.5 922.336,-579.5 935.801,-579.5"/>
<polygon fill="midnightblue" stroke="midnightblue" points="935.971,-583 945.971,-579.5 935.971,-576 935.971,-583"/>
</g>
<!-- Node47 -->
<g id="node47" class="node"><title>Node47</title>
<g id="a_node47"><a xlink:href="a00011.html#a0a2ab1d55e44c5a4488fed87c0fbc508" target="_top" xlink:title="discovery_find_service">
<polygon fill="none" stroke="black" points="315.5,-50 315.5,-69 431.5,-69 431.5,-50 315.5,-50"/>
<text text-anchor="middle" x="373.5" y="-57" font-family="Helvetica,sans-Serif" font-size="10.00">discovery_find_service</text>
</a>
</g>
</g>
<!-- Node46&#45;&gt;Node47 -->
<g id="edge66" class="edge"><title>Node46&#45;&gt;Node47</title>
<path fill="none" stroke="midnightblue" d="M254.432,-59.5C270.765,-59.5 288.54,-59.5 305.223,-59.5"/>
<polygon fill="midnightblue" stroke="midnightblue" points="305.446,-63.0001 315.446,-59.5 305.446,-56.0001 305.446,-63.0001"/>
</g>
<!-- Node48 -->
<g id="node48" class="node"><title>Node48</title>
<g id="a_node48"><a xlink:href="a00059.html#a1353cf85bd037bde1c8f25a5fe683b2e" target="_top" xlink:title="discovery_has_service\l_action">
<polygon fill="none" stroke="black" points="315.5,-0.5 315.5,-30.5 431.5,-30.5 431.5,-0.5 315.5,-0.5"/>
<text text-anchor="start" x="323.5" y="-18.5" font-family="Helvetica,sans-Serif" font-size="10.00">discovery_has_service</text>
<text text-anchor="middle" x="373.5" y="-7.5" font-family="Helvetica,sans-Serif" font-size="10.00">_action</text>
</a>
</g>
</g>
<!-- Node46&#45;&gt;Node48 -->
<g id="edge67" class="edge"><title>Node46&#45;&gt;Node48</title>
<path fill="none" stroke="midnightblue" d="M232.732,-49.9527C253.91,-44.7323 280.746,-38.1171 305.23,-32.082"/>
<polygon fill="midnightblue" stroke="midnightblue" points="306.323,-35.4174 315.195,-29.6257 304.648,-28.6208 306.323,-35.4174"/>
</g>
<!-- Node49&#45;&gt;Node4 -->
<g id="edge69" class="edge"><title>Node49&#45;&gt;Node4</title>
<path fill="none" stroke="midnightblue" d="M236.304,-198.933C307.616,-204.721 449.903,-216.269 510.553,-221.191"/>
<polygon fill="midnightblue" stroke="midnightblue" points="510.641,-224.71 520.892,-222.03 511.208,-217.733 510.641,-224.71"/>
</g>
<!-- Node50&#45;&gt;Node4 -->
<g id="edge71" class="edge"><title>Node50&#45;&gt;Node4</title>
<path fill="none" stroke="midnightblue" d="M246.075,-94.9971C300.526,-87.6877 386.947,-83.6757 452,-116.5 489.761,-135.553 516.836,-179.264 529.991,-204.528"/>
<polygon fill="midnightblue" stroke="midnightblue" points="527.027,-206.426 534.628,-213.807 533.289,-203.298 527.027,-206.426"/>
</g>
</g>
</svg>
