<?xml version="1.0" encoding="UTF-8" standalone="no"?>
<!DOCTYPE svg PUBLIC "-//W3C//DTD SVG 1.1//EN"
 "http://www.w3.org/Graphics/SVG/1.1/DTD/svg11.dtd">
<!-- Generated by graphviz version 2.38.0 (20140413.2041)
 -->
<!-- Title: hpd_alloc Pages: 1 -->
<svg width="144pt" height="66pt"
 viewBox="0.00 0.00 144.00 66.00" xmlns="http://www.w3.org/2000/svg" xmlns:xlink="http://www.w3.org/1999/xlink">
<g id="graph0" class="graph" transform="scale(1 1) rotate(0) translate(4 62)">
<title>hpd_alloc</title>
<!-- Node1 -->
<g id="node1" class="node"><title>Node1</title>
<polygon fill="#bfbfbf" stroke="black" points="0,-19.5 0,-38.5 58,-38.5 58,-19.5 0,-19.5"/>
<text text-anchor="middle" x="29" y="-26.5" font-family="Helvetica,sans-Serif" font-size="10.00">hpd_alloc</text>
</g>
<!-- Node2 -->
<g id="node2" class="node"><title>Node2</title>
<g id="a_node2"><a xlink:href="a00051.html#a0ddf1224851353fc92bfbff6f499fa97" target="_top" xlink:title="main">
<polygon fill="none" stroke="black" points="96,-38.5 96,-57.5 134,-57.5 134,-38.5 96,-38.5"/>
<text text-anchor="middle" x="115" y="-45.5" font-family="Helvetica,sans-Serif" font-size="10.00">main</text>
</a>
</g>
</g>
<!-- Node1&#45;&gt;Node2 -->
<g id="edge1" class="edge"><title>Node1&#45;&gt;Node2</title>
<path fill="none" stroke="midnightblue" d="M68.2753,-37.6575C77.8876,-39.8317 87.7622,-42.0653 95.8638,-43.8978"/>
<polygon fill="midnightblue" stroke="midnightblue" points="68.9644,-34.225 58.4386,-35.4325 67.42,-41.0525 68.9644,-34.225"/>
</g>
<!-- Node3 -->
<g id="node3" class="node"><title>Node3</title>
<g id="a_node3"><a xlink:href="a00030.html#aa2ad001cd2039527a6d248f70aaf3fc1" target="_top" xlink:title="TEST">
<polygon fill="none" stroke="black" points="94,-0.5 94,-19.5 136,-19.5 136,-0.5 94,-0.5"/>
<text text-anchor="middle" x="115" y="-7.5" font-family="Helvetica,sans-Serif" font-size="10.00">TEST</text>
</a>
</g>
</g>
<!-- Node1&#45;&gt;Node3 -->
<g id="edge2" class="edge"><title>Node1&#45;&gt;Node3</title>
<path fill="none" stroke="midnightblue" d="M68.2286,-20.353C77.0587,-18.3558 86.1129,-16.3078 93.8131,-14.5661"/>
<polygon fill="midnightblue" stroke="midnightblue" points="67.42,-16.9475 58.4386,-22.5675 68.9644,-23.775 67.42,-16.9475"/>
</g>
</g>
</svg>
