<?xml version="1.0" encoding="UTF-8" standalone="no"?>
<!DOCTYPE svg PUBLIC "-//W3C//DTD SVG 1.1//EN"
 "http://www.w3.org/Graphics/SVG/1.1/DTD/svg11.dtd">
<!-- Generated by graphviz version 2.38.0 (20140413.2041)
 -->
<!-- Title: daemon_add_module Pages: 1 -->
<svg width="300pt" height="66pt"
 viewBox="0.00 0.00 300.00 66.00" xmlns="http://www.w3.org/2000/svg" xmlns:xlink="http://www.w3.org/1999/xlink">
<g id="graph0" class="graph" transform="scale(1 1) rotate(0) translate(4 62)">
<title>daemon_add_module</title>
<!-- Node1 -->
<g id="node1" class="node"><title>Node1</title>
<polygon fill="#bfbfbf" stroke="black" points="0,-19.5 0,-38.5 109,-38.5 109,-19.5 0,-19.5"/>
<text text-anchor="middle" x="54.5" y="-26.5" font-family="Helvetica,sans-Serif" font-size="10.00">daemon_add_module</text>
</g>
<!-- Node2 -->
<g id="node2" class="node"><title>Node2</title>
<g id="a_node2"><a xlink:href="a00062.html#a6539e14b83acd08c031e8c8813d2b13e" target="_top" xlink:title="hpd_module">
<polygon fill="none" stroke="black" points="145,-19.5 145,-38.5 214,-38.5 214,-19.5 145,-19.5"/>
<text text-anchor="middle" x="179.5" y="-26.5" font-family="Helvetica,sans-Serif" font-size="10.00">hpd_module</text>
</a>
</g>
</g>
<!-- Node1&#45;&gt;Node2 -->
<g id="edge1" class="edge"><title>Node1&#45;&gt;Node2</title>
<path fill="none" stroke="midnightblue" d="M119.13,-29C128.034,-29 136.878,-29 144.915,-29"/>
<polygon fill="midnightblue" stroke="midnightblue" points="119.092,-25.5001 109.092,-29 119.092,-32.5001 119.092,-25.5001"/>
</g>
<!-- Node3 -->
<g id="node3" class="node"><title>Node3</title>
<g id="a_node3"><a xlink:href="a00055.html#a0ddf1224851353fc92bfbff6f499fa97" target="_top" xlink:title="main">
<polygon fill="none" stroke="black" points="252,-38.5 252,-57.5 290,-57.5 290,-38.5 252,-38.5"/>
<text text-anchor="middle" x="271" y="-45.5" font-family="Helvetica,sans-Serif" font-size="10.00">main</text>
</a>
</g>
</g>
<!-- Node2&#45;&gt;Node3 -->
<g id="edge2" class="edge"><title>Node2&#45;&gt;Node3</title>
<path fill="none" stroke="midnightblue" d="M224.081,-38.2519C233.776,-40.3101 243.545,-42.3838 251.564,-44.0862"/>
<polygon fill="midnightblue" stroke="midnightblue" points="224.59,-34.782 214.081,-36.129 223.136,-41.6294 224.59,-34.782"/>
</g>
<!-- Node4 -->
<g id="node4" class="node"><title>Node4</title>
<g id="a_node4"><a xlink:href="a00030.html#abf6f5759c7be63784bfaffc8196e3941" target="_top" xlink:title="TEST">
<polygon fill="none" stroke="black" points="250,-0.5 250,-19.5 292,-19.5 292,-0.5 250,-0.5"/>
<text text-anchor="middle" x="271" y="-7.5" font-family="Helvetica,sans-Serif" font-size="10.00">TEST</text>
</a>
</g>
</g>
<!-- Node2&#45;&gt;Node4 -->
<g id="edge3" class="edge"><title>Node2&#45;&gt;Node4</title>
<path fill="none" stroke="midnightblue" d="M224.108,-19.7425C233.08,-17.8378 242.113,-15.9202 249.764,-14.296"/>
<polygon fill="midnightblue" stroke="midnightblue" points="223.136,-16.3706 214.081,-21.871 224.59,-23.218 223.136,-16.3706"/>
</g>
</g>
</svg>
