<?xml version="1.0" encoding="UTF-8" standalone="no"?>
<!DOCTYPE svg PUBLIC "-//W3C//DTD SVG 1.1//EN"
 "http://www.w3.org/Graphics/SVG/1.1/DTD/svg11.dtd">
<!-- Generated by graphviz version 2.38.0 (20140413.2041)
 -->
<!-- Title: hpd_httpd_response_sendf Pages: 1 -->
<svg width="512pt" height="104pt"
 viewBox="0.00 0.00 512.00 104.00" xmlns="http://www.w3.org/2000/svg" xmlns:xlink="http://www.w3.org/1999/xlink">
<g id="graph0" class="graph" transform="scale(1 1) rotate(0) translate(4 100)">
<title>hpd_httpd_response_sendf</title>
<!-- Node1 -->
<g id="node1" class="node"><title>Node1</title>
<polygon fill="#bfbfbf" stroke="black" points="0,-33 0,-63 104,-63 104,-33 0,-33"/>
<text text-anchor="start" x="8" y="-51" font-family="Helvetica,sans-Serif" font-size="10.00">hpd_httpd_response</text>
<text text-anchor="middle" x="52" y="-40" font-family="Helvetica,sans-Serif" font-size="10.00">_sendf</text>
</g>
<!-- Node2 -->
<g id="node2" class="node"><title>Node2</title>
<g id="a_node2"><a xlink:href="a00047.html#a2eb873ac7e610c2dff8e49d216d3aff8" target="_top" xlink:title="handle_request">
<polygon fill="none" stroke="black" points="147.5,-76.5 147.5,-95.5 230.5,-95.5 230.5,-76.5 147.5,-76.5"/>
<text text-anchor="middle" x="189" y="-83.5" font-family="Helvetica,sans-Serif" font-size="10.00">handle_request</text>
</a>
</g>
</g>
<!-- Node1&#45;&gt;Node2 -->
<g id="edge1" class="edge"><title>Node1&#45;&gt;Node2</title>
<path fill="none" stroke="midnightblue" d="M113.969,-65.1616C127.742,-69.0386 141.882,-73.0186 154.065,-76.4478"/>
<polygon fill="midnightblue" stroke="midnightblue" points="114.612,-61.7067 104.038,-62.3662 112.715,-68.4448 114.612,-61.7067"/>
</g>
<!-- Node4 -->
<g id="node4" class="node"><title>Node4</title>
<g id="a_node4"><a xlink:href="a00034.html#ac0f2724b4617f1adb53492f1a57a4e4b" target="_top" xlink:title="rest_reply_devices">
<polygon fill="none" stroke="black" points="140,-38.5 140,-57.5 238,-57.5 238,-38.5 140,-38.5"/>
<text text-anchor="middle" x="189" y="-45.5" font-family="Helvetica,sans-Serif" font-size="10.00">rest_reply_devices</text>
</a>
</g>
</g>
<!-- Node1&#45;&gt;Node4 -->
<g id="edge3" class="edge"><title>Node1&#45;&gt;Node4</title>
<path fill="none" stroke="midnightblue" d="M114.277,-48C122.755,-48 131.365,-48 139.566,-48"/>
<polygon fill="midnightblue" stroke="midnightblue" points="114.038,-44.5001 104.038,-48 114.038,-51.5001 114.038,-44.5001"/>
</g>
<!-- Node7 -->
<g id="node7" class="node"><title>Node7</title>
<g id="a_node7"><a xlink:href="a00034.html#abddef3c3a26e983041c0a09be164cb1b" target="_top" xlink:title="rest_on_response">
<polygon fill="none" stroke="black" points="142,-0.5 142,-19.5 236,-19.5 236,-0.5 142,-0.5"/>
<text text-anchor="middle" x="189" y="-7.5" font-family="Helvetica,sans-Serif" font-size="10.00">rest_on_response</text>
</a>
</g>
</g>
<!-- Node1&#45;&gt;Node7 -->
<g id="edge6" class="edge"><title>Node1&#45;&gt;Node7</title>
<path fill="none" stroke="midnightblue" d="M113.969,-30.8384C127.742,-26.9614 141.882,-22.9814 154.065,-19.5522"/>
<polygon fill="midnightblue" stroke="midnightblue" points="112.715,-27.5552 104.038,-33.6338 114.612,-34.2933 112.715,-27.5552"/>
</g>
<!-- Node3 -->
<g id="node3" class="node"><title>Node3</title>
<g id="a_node3"><a xlink:href="a00047.html#a0ddf1224851353fc92bfbff6f499fa97" target="_top" xlink:title="main">
<polygon fill="none" stroke="black" points="311.5,-76.5 311.5,-95.5 349.5,-95.5 349.5,-76.5 311.5,-76.5"/>
<text text-anchor="middle" x="330.5" y="-83.5" font-family="Helvetica,sans-Serif" font-size="10.00">main</text>
</a>
</g>
</g>
<!-- Node2&#45;&gt;Node3 -->
<g id="edge2" class="edge"><title>Node2&#45;&gt;Node3</title>
<path fill="none" stroke="midnightblue" d="M241.021,-86C265.618,-86 293.571,-86 311.359,-86"/>
<polygon fill="midnightblue" stroke="midnightblue" points="240.724,-82.5001 230.724,-86 240.724,-89.5001 240.724,-82.5001"/>
</g>
<!-- Node5 -->
<g id="node5" class="node"><title>Node5</title>
<g id="a_node5"><a xlink:href="a00034.html#a2731aca6e6807e771bcf9c94dbec968c" target="_top" xlink:title="rest_on_req_hdr_cmpl">
<polygon fill="none" stroke="black" points="274,-38.5 274,-57.5 387,-57.5 387,-38.5 274,-38.5"/>
<text text-anchor="middle" x="330.5" y="-45.5" font-family="Helvetica,sans-Serif" font-size="10.00">rest_on_req_hdr_cmpl</text>
</a>
</g>
</g>
<!-- Node4&#45;&gt;Node5 -->
<g id="edge4" class="edge"><title>Node4&#45;&gt;Node5</title>
<path fill="none" stroke="midnightblue" d="M248.172,-48C256.627,-48 265.317,-48 273.724,-48"/>
<polygon fill="midnightblue" stroke="midnightblue" points="248.008,-44.5001 238.008,-48 248.008,-51.5001 248.008,-44.5001"/>
</g>
<!-- Node6 -->
<g id="node6" class="node"><title>Node6</title>
<g id="a_node6"><a xlink:href="a00034.html#a02090c3feb19ea4c6e1fa9b5e6392752" target="_top" xlink:title="rest_on_create">
<polygon fill="none" stroke="black" points="423,-19.5 423,-38.5 504,-38.5 504,-19.5 423,-19.5"/>
<text text-anchor="middle" x="463.5" y="-26.5" font-family="Helvetica,sans-Serif" font-size="10.00">rest_on_create</text>
</a>
</g>
</g>
<!-- Node5&#45;&gt;Node6 -->
<g id="edge5" class="edge"><title>Node5&#45;&gt;Node6</title>
<path fill="none" stroke="midnightblue" d="M396.963,-38.5053C405.769,-37.2282 414.575,-35.951 422.746,-34.7659"/>
<polygon fill="midnightblue" stroke="midnightblue" points="396.45,-35.0431 387.056,-39.9423 397.455,-41.9706 396.45,-35.0431"/>
</g>
<!-- Node8 -->
<g id="node8" class="node"><title>Node8</title>
<g id="a_node8"><a xlink:href="a00034.html#a1ef7ff8e866ae31ab0edb443eb4777a1" target="_top" xlink:title="rest_on_req_cmpl">
<polygon fill="none" stroke="black" points="283.5,-0.5 283.5,-19.5 377.5,-19.5 377.5,-0.5 283.5,-0.5"/>
<text text-anchor="middle" x="330.5" y="-7.5" font-family="Helvetica,sans-Serif" font-size="10.00">rest_on_req_cmpl</text>
</a>
</g>
</g>
<!-- Node7&#45;&gt;Node8 -->
<g id="edge7" class="edge"><title>Node7&#45;&gt;Node8</title>
<path fill="none" stroke="midnightblue" d="M246.274,-10C258.635,-10 271.583,-10 283.484,-10"/>
<polygon fill="midnightblue" stroke="midnightblue" points="246.064,-6.5001 236.064,-10 246.064,-13.5001 246.064,-6.5001"/>
</g>
<!-- Node8&#45;&gt;Node6 -->
<g id="edge8" class="edge"><title>Node8&#45;&gt;Node6</title>
<path fill="none" stroke="midnightblue" d="M387.881,-18.1773C399.644,-19.8834 411.807,-21.6475 422.812,-23.2438"/>
<polygon fill="midnightblue" stroke="midnightblue" points="388.085,-14.6704 377.686,-16.6987 387.08,-21.5979 388.085,-14.6704"/>
</g>
</g>
</svg>
