<?xml version="1.0" encoding="UTF-8" standalone="no"?>
<!DOCTYPE svg PUBLIC "-//W3C//DTD SVG 1.1//EN"
 "http://www.w3.org/Graphics/SVG/1.1/DTD/svg11.dtd">
<!-- Generated by graphviz version 2.38.0 (20140413.2041)
 -->
<!-- Title: on_free Pages: 1 -->
<!--zoomable 345 -->
<svg id="main" version="1.1" xmlns="http://www.w3.org/2000/svg" xmlns:xlink="http://www.w3.org/1999/xlink" xml:space="preserve" onload="init(evt)">
<style type="text/css"><![CDATA[
.edge:hover path { stroke: red; }
.edge:hover polygon { stroke: red; fill: red; }
]]></style>
<script type="text/javascript"><![CDATA[
var edges = document.getElementsByTagName('g');
if (edges && edges.length) {
  for (var i=0;i<edges.length;i++) {
    if (edges[i].id.substr(0,4)=='edge') {
      edges[i].setAttribute('class','edge');
    }
  }
}
]]></script>
        <defs>
                <circle id="rim" cx="0" cy="0" r="7"/>
                <circle id="rim2" cx="0" cy="0" r="3.5"/>
                <g id="zoomPlus">
                        <use xlink:href="#rim" fill="#404040">
                                <set attributeName="fill" to="#808080" begin="zoomplus.mouseover" end="zoomplus.mouseout"/>
                        </use>
                        <path d="M-4,0h8M0,-4v8" fill="none" stroke="white" stroke-width="1.5" pointer-events="none"/>
                </g>
                <g id="zoomMin">
                        <use xlink:href="#rim" fill="#404040">
                                <set attributeName="fill" to="#808080" begin="zoomminus.mouseover" end="zoomminus.mouseout"/>
                        </use>
                        <path d="M-4,0h8" fill="none" stroke="white" stroke-width="1.5" pointer-events="none"/>
                </g>
                <g id="dirArrow">
                        <path fill="none" stroke="white" stroke-width="1.5" d="M0,-3.0v7 M-2.5,-0.5L0,-3.0L2.5,-0.5"/>
                </g>
               <g id="resetDef">
                       <use xlink:href="#rim2" fill="#404040">
                               <set attributeName="fill" to="#808080" begin="reset.mouseover" end="reset.mouseout"/>
                       </use>
               </g>
        </defs>

<script type="text/javascript">
var viewWidth = 1010;
var viewHeight = 345;
var sectionId = 'dynsection-11';
</script>
<script xlink:href="svgpan.js"/>
<svg id="graph" class="graph">
<g id="viewport">
<title>on_free</title>
<!-- Node1 -->
<g id="node1" class="node"><title>Node1</title>
<polygon fill="#bfbfbf" stroke="black" points="0,-54.4029 0,-73.4029 49,-73.4029 49,-54.4029 0,-54.4029"/>
<text text-anchor="middle" x="24.5" y="-61.4029" font-family="Helvetica,sans-Serif" font-size="10.00">on_free</text>
</g>
<!-- Node2 -->
<g id="node2" class="node"><title>Node2</title>
<g id="a_node2"><a xlink:href="a00025.html#a78818d54ff3643716564aad97c70c7e2" target="_top" xlink:title="reply_internal_server\l_error">
<polygon fill="none" stroke="black" points="85,-92.9029 85,-122.903 192,-122.903 192,-92.9029 85,-92.9029"/>
<text text-anchor="start" x="93" y="-110.903" font-family="Helvetica,sans-Serif" font-size="10.00">reply_internal_server</text>
<text text-anchor="middle" x="138.5" y="-99.9029" font-family="Helvetica,sans-Serif" font-size="10.00">_error</text>
</a>
</g>
</g>
<!-- Node1&#45;&gt;Node2 -->
<g id="edge1" class="edge"><title>Node1&#45;&gt;Node2</title>
<path fill="none" stroke="midnightblue" d="M49.2523,-73.2341C61.0433,-77.8663 75.7276,-83.6351 89.7132,-89.1295"/>
<polygon fill="midnightblue" stroke="midnightblue" points="88.6525,-92.4732 99.2399,-92.8721 91.2121,-85.9579 88.6525,-92.4732"/>
</g>
<!-- Node10 -->
<g id="node10" class="node"><title>Node10</title>
<g id="a_node10"><a xlink:href="a00006.html#adf46370d9c211c3be22966b4606ba9b0" target="_top" xlink:title="free">
<polygon fill="none" stroke="black" points="969,-95.4029 969,-114.403 1002,-114.403 1002,-95.4029 969,-95.4029"/>
<text text-anchor="middle" x="985.5" y="-102.403" font-family="Helvetica,sans-Serif" font-size="10.00">free</text>
</a>
</g>
</g>
<!-- Node1&#45;&gt;Node10 -->
<g id="edge19" class="edge"><title>Node1&#45;&gt;Node10</title>
<path fill="none" stroke="midnightblue" d="M49.2656,-63.9029C94.1562,-63.9029 194.5,-63.9029 279,-63.9029 279,-63.9029 279,-63.9029 742.5,-63.9029 822.414,-63.9029 915.114,-85.9057 958.98,-97.6743"/>
<polygon fill="midnightblue" stroke="midnightblue" points="958.231,-101.098 968.8,-100.359 960.077,-94.3456 958.231,-101.098"/>
</g>
<!-- Node14 -->
<g id="node14" class="node"><title>Node14</title>
<g id="a_node14"><a xlink:href="a00060.html#a19ce779c8a8a82fcb624cd7631eaee20" target="_top" xlink:title="hpd_service_id_free">
<polygon fill="none" stroke="black" points="228,-16.4029 228,-35.4029 332,-35.4029 332,-16.4029 228,-16.4029"/>
<text text-anchor="middle" x="280" y="-23.4029" font-family="Helvetica,sans-Serif" font-size="10.00">hpd_service_id_free</text>
</a>
</g>
</g>
<!-- Node1&#45;&gt;Node14 -->
<g id="edge16" class="edge"><title>Node1&#45;&gt;Node14</title>
<path fill="none" stroke="midnightblue" d="M49.1195,-57.7262C59.99,-55.0434 73.0916,-52.034 85,-49.9029 129.159,-42 179.44,-35.8595 217.746,-31.7685"/>
<polygon fill="midnightblue" stroke="midnightblue" points="218.136,-35.2469 227.716,-30.7211 217.405,-28.2852 218.136,-35.2469"/>
</g>
<!-- Node3 -->
<g id="node3" class="node"><title>Node3</title>
<g id="a_node3"><a xlink:href="a00025.html#afb08e2b5fbac2394319e24be39ac931a" target="_top" xlink:title="reply">
<polygon fill="none" stroke="black" points="261,-98.4029 261,-117.403 299,-117.403 299,-98.4029 261,-98.4029"/>
<text text-anchor="middle" x="280" y="-105.403" font-family="Helvetica,sans-Serif" font-size="10.00">reply</text>
</a>
</g>
</g>
<!-- Node2&#45;&gt;Node3 -->
<g id="edge2" class="edge"><title>Node2&#45;&gt;Node3</title>
<path fill="none" stroke="midnightblue" d="M192.239,-107.903C212.113,-107.903 233.949,-107.903 250.743,-107.903"/>
<polygon fill="midnightblue" stroke="midnightblue" points="250.979,-111.403 260.979,-107.903 250.979,-104.403 250.979,-111.403"/>
</g>
<!-- Node4 -->
<g id="node4" class="node"><title>Node4</title>
<g id="a_node4"><a xlink:href="a00018.html#a3b100e8d7e1214067cf1b90ad577745c" target="_top" xlink:title="Create the reponse and constructs the status line. ">
<polygon fill="none" stroke="black" points="368,-196.903 368,-226.903 472,-226.903 472,-196.903 368,-196.903"/>
<text text-anchor="start" x="376" y="-214.903" font-family="Helvetica,sans-Serif" font-size="10.00">hpd_httpd_response</text>
<text text-anchor="middle" x="420" y="-203.903" font-family="Helvetica,sans-Serif" font-size="10.00">_create</text>
</a>
</g>
</g>
<!-- Node3&#45;&gt;Node4 -->
<g id="edge3" class="edge"><title>Node3&#45;&gt;Node4</title>
<path fill="none" stroke="midnightblue" d="M293.735,-117.501C315.598,-133.977 360.78,-168.027 390.48,-190.41"/>
<polygon fill="midnightblue" stroke="midnightblue" points="388.693,-193.446 398.786,-196.669 392.906,-187.855 388.693,-193.446"/>
</g>
<!-- Node13 -->
<g id="node13" class="node"><title>Node13</title>
<g id="a_node13"><a xlink:href="a00018.html#a36a5feca39485163b3ef446c9e3171a3" target="_top" xlink:title="Destroy a hpd_httpd_response. ">
<polygon fill="none" stroke="black" points="527,-92.9029 527,-122.903 631,-122.903 631,-92.9029 527,-92.9029"/>
<text text-anchor="start" x="535" y="-110.903" font-family="Helvetica,sans-Serif" font-size="10.00">hpd_httpd_response</text>
<text text-anchor="middle" x="579" y="-99.9029" font-family="Helvetica,sans-Serif" font-size="10.00">_destroy</text>
</a>
</g>
</g>
<!-- Node3&#45;&gt;Node13 -->
<g id="edge13" class="edge"><title>Node3&#45;&gt;Node13</title>
<path fill="none" stroke="midnightblue" d="M299.132,-107.903C341.419,-107.903 448.173,-107.903 516.654,-107.903"/>
<polygon fill="midnightblue" stroke="midnightblue" points="516.885,-111.403 526.884,-107.903 516.884,-104.403 516.885,-111.403"/>
</g>
<!-- Node5 -->
<g id="node5" class="node"><title>Node5</title>
<g id="a_node5"><a xlink:href="a00016.html#a228cee03d1174febd4a716e0285542c2" target="_top" xlink:title="http_request_get_context">
<polygon fill="none" stroke="black" points="515.5,-180.403 515.5,-199.403 642.5,-199.403 642.5,-180.403 515.5,-180.403"/>
<text text-anchor="middle" x="579" y="-187.403" font-family="Helvetica,sans-Serif" font-size="10.00">http_request_get_context</text>
</a>
</g>
</g>
<!-- Node4&#45;&gt;Node5 -->
<g id="edge4" class="edge"><title>Node4&#45;&gt;Node5</title>
<path fill="none" stroke="midnightblue" d="M472.408,-204.699C482.883,-203.231 494.093,-201.661 505.152,-200.111"/>
<polygon fill="midnightblue" stroke="midnightblue" points="505.823,-203.551 515.241,-198.697 504.852,-196.619 505.823,-203.551"/>
</g>
<!-- Node6 -->
<g id="node6" class="node"><title>Node6</title>
<g id="a_node6"><a xlink:href="a00017.html#a867d6248acd2a1ad498594ec818cb718" target="_top" xlink:title="Convert a status code to string. ">
<polygon fill="none" stroke="black" points="515.5,-142.403 515.5,-161.403 642.5,-161.403 642.5,-142.403 515.5,-142.403"/>
<text text-anchor="middle" x="579" y="-149.403" font-family="Helvetica,sans-Serif" font-size="10.00">http_status_codes_to_str</text>
</a>
</g>
</g>
<!-- Node4&#45;&gt;Node6 -->
<g id="edge5" class="edge"><title>Node4&#45;&gt;Node6</title>
<path fill="none" stroke="midnightblue" d="M449.851,-196.743C466.533,-188.376 488.1,-178.228 508,-170.903 514.431,-168.535 521.291,-166.316 528.108,-164.288"/>
<polygon fill="midnightblue" stroke="midnightblue" points="529.354,-167.573 538.008,-161.46 527.431,-160.842 529.354,-167.573"/>
</g>
<!-- Node7 -->
<g id="node7" class="node"><title>Node7</title>
<g id="a_node7"><a xlink:href="a00017.html#a36a5feca39485163b3ef446c9e3171a3" target="_top" xlink:title="Destroy a hpd_httpd_response. ">
<polygon fill="none" stroke="black" points="527,-306.903 527,-336.903 631,-336.903 631,-306.903 527,-306.903"/>
<text text-anchor="start" x="535" y="-324.903" font-family="Helvetica,sans-Serif" font-size="10.00">hpd_httpd_response</text>
<text text-anchor="middle" x="579" y="-313.903" font-family="Helvetica,sans-Serif" font-size="10.00">_destroy</text>
</a>
</g>
</g>
<!-- Node4&#45;&gt;Node7 -->
<g id="edge6" class="edge"><title>Node4&#45;&gt;Node7</title>
<path fill="none" stroke="midnightblue" d="M433.004,-227.136C448.512,-245.904 477.197,-277.659 508,-296.903 511.198,-298.901 514.578,-300.768 518.056,-302.509"/>
<polygon fill="midnightblue" stroke="midnightblue" points="516.89,-305.825 527.437,-306.824 519.815,-299.465 516.89,-305.825"/>
</g>
<!-- Node11 -->
<g id="node11" class="node"><title>Node11</title>
<g id="a_node11"><a xlink:href="a00016.html#a1568fdba259271965551fb5aa1f07006" target="_top" xlink:title="Get the connection of a request. ">
<polygon fill="none" stroke="black" points="508,-268.403 508,-287.403 650,-287.403 650,-268.403 508,-268.403"/>
<text text-anchor="middle" x="579" y="-275.403" font-family="Helvetica,sans-Serif" font-size="10.00">http_request_get_connection</text>
</a>
</g>
</g>
<!-- Node4&#45;&gt;Node11 -->
<g id="edge11" class="edge"><title>Node4&#45;&gt;Node11</title>
<path fill="none" stroke="midnightblue" d="M445.391,-227.051C462.438,-237.141 486.001,-250.112 508,-258.903 513.909,-261.264 520.212,-263.434 526.524,-265.395"/>
<polygon fill="midnightblue" stroke="midnightblue" points="525.814,-268.834 536.395,-268.303 527.792,-262.119 525.814,-268.834"/>
</g>
<!-- Node12 -->
<g id="node12" class="node"><title>Node12</title>
<g id="a_node12"><a xlink:href="a00017.html#a3aabea0eb8be381d54ece47fa1fd6a75" target="_top" xlink:title="Add header to a response. ">
<polygon fill="none" stroke="black" points="527,-218.903 527,-248.903 631,-248.903 631,-218.903 527,-218.903"/>
<text text-anchor="start" x="535" y="-236.903" font-family="Helvetica,sans-Serif" font-size="10.00">hpd_httpd_response</text>
<text text-anchor="middle" x="579" y="-225.903" font-family="Helvetica,sans-Serif" font-size="10.00">_add_header</text>
</a>
</g>
</g>
<!-- Node4&#45;&gt;Node12 -->
<g id="edge12" class="edge"><title>Node4&#45;&gt;Node12</title>
<path fill="none" stroke="midnightblue" d="M472.408,-219.106C486.577,-221.092 502.088,-223.265 516.754,-225.321"/>
<polygon fill="midnightblue" stroke="midnightblue" points="516.356,-228.799 526.745,-226.721 517.328,-221.867 516.356,-228.799"/>
</g>
<!-- Node8 -->
<g id="node8" class="node"><title>Node8</title>
<g id="a_node8"><a xlink:href="a00029.html#a494a1841a6c8963c10f5d3a6b662f014" target="_top" xlink:title="Close a connection, after the remaining data has been sent. ">
<polygon fill="none" stroke="black" points="686,-133.403 686,-152.403 797,-152.403 797,-133.403 686,-133.403"/>
<text text-anchor="middle" x="741.5" y="-140.403" font-family="Helvetica,sans-Serif" font-size="10.00">hpd_tcpd_conn_close</text>
</a>
</g>
</g>
<!-- Node7&#45;&gt;Node8 -->
<g id="edge7" class="edge"><title>Node7&#45;&gt;Node8</title>
<path fill="none" stroke="midnightblue" d="M631.222,-308.404C637.951,-305.298 644.432,-301.51 650,-296.903 651.497,-295.664 706.146,-201.928 729.784,-161.322"/>
<polygon fill="midnightblue" stroke="midnightblue" points="732.947,-162.846 734.952,-152.443 726.897,-159.325 732.947,-162.846"/>
</g>
<!-- Node7&#45;&gt;Node10 -->
<g id="edge10" class="edge"><title>Node7&#45;&gt;Node10</title>
<path fill="none" stroke="midnightblue" d="M630.086,-306.819C701.951,-283.569 836.3,-233.986 933,-161.903 947.972,-150.743 961.972,-134.739 971.585,-122.529"/>
<polygon fill="midnightblue" stroke="midnightblue" points="974.479,-124.506 977.76,-114.432 968.913,-120.261 974.479,-124.506"/>
</g>
<!-- Node9 -->
<g id="node9" class="node"><title>Node9</title>
<g id="a_node9"><a xlink:href="a00049.html#a58068e1a4c60b401bc6fc99c25e9a3f6" target="_top" xlink:title="Kill and clean up after a connection. ">
<polygon fill="none" stroke="black" points="833,-133.403 833,-152.403 933,-152.403 933,-133.403 833,-133.403"/>
<text text-anchor="middle" x="883" y="-140.403" font-family="Helvetica,sans-Serif" font-size="10.00">hpd_tcpd_conn_kill</text>
</a>
</g>
</g>
<!-- Node8&#45;&gt;Node9 -->
<g id="edge8" class="edge"><title>Node8&#45;&gt;Node9</title>
<path fill="none" stroke="midnightblue" d="M797.234,-142.903C805.591,-142.903 814.25,-142.903 822.7,-142.903"/>
<polygon fill="midnightblue" stroke="midnightblue" points="822.868,-146.403 832.868,-142.903 822.868,-139.403 822.868,-146.403"/>
</g>
<!-- Node9&#45;&gt;Node10 -->
<g id="edge9" class="edge"><title>Node9&#45;&gt;Node10</title>
<path fill="none" stroke="midnightblue" d="M909.36,-133.314C924.574,-127.562 943.859,-120.27 959.082,-114.514"/>
<polygon fill="midnightblue" stroke="midnightblue" points="960.757,-117.622 968.873,-110.812 958.281,-111.075 960.757,-117.622"/>
</g>
<!-- Node13&#45;&gt;Node8 -->
<g id="edge14" class="edge"><title>Node13&#45;&gt;Node8</title>
<path fill="none" stroke="midnightblue" d="M631.224,-119.073C648.946,-122.938 668.849,-127.278 686.766,-131.185"/>
<polygon fill="midnightblue" stroke="midnightblue" points="686.254,-134.656 696.77,-133.367 687.746,-127.816 686.254,-134.656"/>
</g>
<!-- Node13&#45;&gt;Node10 -->
<g id="edge15" class="edge"><title>Node13&#45;&gt;Node10</title>
<path fill="none" stroke="midnightblue" d="M631.23,-107.523C718.448,-106.876 892.719,-105.584 958.53,-105.095"/>
<polygon fill="midnightblue" stroke="midnightblue" points="958.852,-108.593 968.825,-105.019 958.8,-101.593 958.852,-108.593"/>
</g>
<!-- Node15 -->
<g id="node15" class="node"><title>Node15</title>
<g id="a_node15"><a xlink:href="a00011.html#a8922de7d42124afa8ab5fd339fe695ee" target="_top" xlink:title="discovery_free_sid">
<polygon fill="none" stroke="black" points="371,-16.4029 371,-35.4029 469,-35.4029 469,-16.4029 371,-16.4029"/>
<text text-anchor="middle" x="420" y="-23.4029" font-family="Helvetica,sans-Serif" font-size="10.00">discovery_free_sid</text>
</a>
</g>
</g>
<!-- Node14&#45;&gt;Node15 -->
<g id="edge17" class="edge"><title>Node14&#45;&gt;Node15</title>
<path fill="none" stroke="midnightblue" d="M332.386,-25.9029C341.615,-25.9029 351.295,-25.9029 360.703,-25.9029"/>
<polygon fill="midnightblue" stroke="midnightblue" points="360.771,-29.403 370.771,-25.9029 360.771,-22.403 360.771,-29.403"/>
</g>
<!-- Node15&#45;&gt;Node10 -->
<g id="edge18" class="edge"><title>Node15&#45;&gt;Node10</title>
<path fill="none" stroke="midnightblue" d="M469.332,-16.65C563.6,-1.00779 776.467,22.3691 933,-49.9029 949.82,-57.6687 963.791,-73.6751 972.918,-86.4276"/>
<polygon fill="midnightblue" stroke="midnightblue" points="970.187,-88.6383 978.679,-94.9739 975.992,-84.7255 970.187,-88.6383"/>
</g>
</g>
</svg>
        <g id="navigator" transform="translate(0 0)" fill="#404254">
                <rect fill="#f2f5e9" fill-opacity="0.5" stroke="#606060" stroke-width=".5" x="0" y="0" width="60" height="60"/>
                <use id="zoomplus" xlink:href="#zoomPlus" x="17" y="9" onmousedown="handleZoom(evt,'in')"/>
                <use id="zoomminus" xlink:href="#zoomMin" x="42" y="9" onmousedown="handleZoom(evt,'out')"/>
                <use id="reset" xlink:href="#resetDef" x="30" y="36" onmousedown="handleReset()"/>
                <g id="arrowUp" xlink:href="#dirArrow" transform="translate(30 24)" onmousedown="handlePan(0,-1)">
                  <use xlink:href="#rim" fill="#404040">
                        <set attributeName="fill" to="#808080" begin="arrowUp.mouseover" end="arrowUp.mouseout"/>
                  </use>
                  <path fill="none" stroke="white" stroke-width="1.5" d="M0,-3.0v7 M-2.5,-0.5L0,-3.0L2.5,-0.5"/>
                </g>
                <g id="arrowRight" xlink:href="#dirArrow" transform="rotate(90) translate(36 -43)" onmousedown="handlePan(1,0)">
                  <use xlink:href="#rim" fill="#404040">
                        <set attributeName="fill" to="#808080" begin="arrowRight.mouseover" end="arrowRight.mouseout"/>
                  </use>
                  <path fill="none" stroke="white" stroke-width="1.5" d="M0,-3.0v7 M-2.5,-0.5L0,-3.0L2.5,-0.5"/>
                </g>
                <g id="arrowDown" xlink:href="#dirArrow" transform="rotate(180) translate(-30 -48)" onmousedown="handlePan(0,1)">
                  <use xlink:href="#rim" fill="#404040">
                        <set attributeName="fill" to="#808080" begin="arrowDown.mouseover" end="arrowDown.mouseout"/>
                  </use>
                  <path fill="none" stroke="white" stroke-width="1.5" d="M0,-3.0v7 M-2.5,-0.5L0,-3.0L2.5,-0.5"/>
                </g>
                <g id="arrowLeft" xlink:href="#dirArrow" transform="rotate(270) translate(-36 17)" onmousedown="handlePan(-1,0)">
                  <use xlink:href="#rim" fill="#404040">
                        <set attributeName="fill" to="#808080" begin="arrowLeft.mouseover" end="arrowLeft.mouseout"/>
                  </use>
                  <path fill="none" stroke="white" stroke-width="1.5" d="M0,-3.0v7 M-2.5,-0.5L0,-3.0L2.5,-0.5"/>
                </g>
        </g>
        <svg viewBox="0 0 15 15" width="100%" height="30px" preserveAspectRatio="xMaxYMin meet">
         <g id="arrow_out" transform="scale(0.3 0.3)">
          <a xlink:href="a00025_a65f3fe01ba50f1473cad1a4418cfdf09_cgraph_org.svg" target="_base">
           <rect id="button" ry="5" rx="5" y="6" x="6" height="38" width="38"
                fill="#f2f5e9" fill-opacity="0.5" stroke="#606060" stroke-width="1.0"/>
           <path id="arrow"
             d="M 11.500037,31.436501 C 11.940474,20.09759 22.043105,11.32322 32.158766,21.979434 L 37.068811,17.246167 C 37.068811,17.246167 37.088388,32 37.088388,32 L 22.160133,31.978069 C 22.160133,31.978069 26.997745,27.140456 26.997745,27.140456 C 18.528582,18.264221 13.291696,25.230495 11.500037,31.436501 z"
             style="fill:#404040;"/>
          </a>
         </g>
        </svg>
</svg>
