<?xml version="1.0" encoding="UTF-8" standalone="no"?>
<!DOCTYPE svg PUBLIC "-//W3C//DTD SVG 1.1//EN"
 "http://www.w3.org/Graphics/SVG/1.1/DTD/svg11.dtd">
<!-- Generated by graphviz version 2.38.0 (20140413.2041)
 -->
<!-- Title: hp_reset_buffers Pages: 1 -->
<svg width="898pt" height="85pt"
 viewBox="0.00 0.00 898.00 85.00" xmlns="http://www.w3.org/2000/svg" xmlns:xlink="http://www.w3.org/1999/xlink">
<g id="graph0" class="graph" transform="scale(1 1) rotate(0) translate(4 81)">
<title>hp_reset_buffers</title>
<!-- Node1 -->
<g id="node1" class="node"><title>Node1</title>
<polygon fill="#bfbfbf" stroke="black" points="0,-38.5 0,-57.5 89,-57.5 89,-38.5 0,-38.5"/>
<text text-anchor="middle" x="44.5" y="-45.5" font-family="Helvetica,sans-Serif" font-size="10.00">hp_reset_buffers</text>
</g>
<!-- Node2 -->
<g id="node2" class="node"><title>Node2</title>
<g id="a_node2"><a xlink:href="a00016.html#a3734df5dbe38729c61890828b63ccae0" target="_top" xlink:title="hp_on_header_field">
<polygon fill="none" stroke="black" points="125,-57.5 125,-76.5 226,-76.5 226,-57.5 125,-57.5"/>
<text text-anchor="middle" x="175.5" y="-64.5" font-family="Helvetica,sans-Serif" font-size="10.00">hp_on_header_field</text>
</a>
</g>
</g>
<!-- Node1&#45;&gt;Node2 -->
<g id="edge1" class="edge"><title>Node1&#45;&gt;Node2</title>
<path fill="none" stroke="midnightblue" d="M99.2657,-55.919C107.674,-57.1574 116.333,-58.4327 124.648,-59.6575"/>
<polygon fill="midnightblue" stroke="midnightblue" points="99.5768,-52.4271 89.1735,-54.4325 98.5568,-59.3524 99.5768,-52.4271"/>
</g>
<!-- Node4 -->
<g id="node4" class="node"><title>Node4</title>
<g id="a_node4"><a xlink:href="a00016.html#ad8b6abab7f0f61810a2740c1958b7cfe" target="_top" xlink:title="hp_destroy">
<polygon fill="none" stroke="black" points="143,-19.5 143,-38.5 208,-38.5 208,-19.5 143,-19.5"/>
<text text-anchor="middle" x="175.5" y="-26.5" font-family="Helvetica,sans-Serif" font-size="10.00">hp_destroy</text>
</a>
</g>
</g>
<!-- Node1&#45;&gt;Node4 -->
<g id="edge3" class="edge"><title>Node1&#45;&gt;Node4</title>
<path fill="none" stroke="midnightblue" d="M99.2443,-40.0842C114.027,-37.9068 129.586,-35.6152 142.695,-33.6844"/>
<polygon fill="midnightblue" stroke="midnightblue" points="98.5568,-36.6476 89.1735,-41.5675 99.5768,-43.5729 98.5568,-36.6476"/>
</g>
<!-- Node3 -->
<g id="node3" class="node"><title>Node3</title>
<g id="a_node3"><a xlink:href="a00025.html#a6c84ef26434635eaa329b5ac86202289" target="_top" xlink:title="Header field callback for http_parser. ">
<polygon fill="none" stroke="black" points="273,-57.5 273,-76.5 359,-76.5 359,-57.5 273,-57.5"/>
<text text-anchor="middle" x="316" y="-64.5" font-family="Helvetica,sans-Serif" font-size="10.00">parser_hdr_field</text>
</a>
</g>
</g>
<!-- Node2&#45;&gt;Node3 -->
<g id="edge2" class="edge"><title>Node2&#45;&gt;Node3</title>
<path fill="none" stroke="midnightblue" d="M236.258,-67C248.492,-67 261.128,-67 272.602,-67"/>
<polygon fill="midnightblue" stroke="midnightblue" points="236.111,-63.5001 226.11,-67 236.11,-70.5001 236.111,-63.5001"/>
</g>
<!-- Node5 -->
<g id="node5" class="node"><title>Node5</title>
<g id="a_node5"><a xlink:href="a00049.html#aa1cd13c07d2d143d8a989a651a57e497" target="_top" xlink:title="Destroy a ws_request. ">
<polygon fill="none" stroke="black" points="262,-19.5 262,-38.5 370,-38.5 370,-19.5 262,-19.5"/>
<text text-anchor="middle" x="316" y="-26.5" font-family="Helvetica,sans-Serif" font-size="10.00">http_request_destroy</text>
</a>
</g>
</g>
<!-- Node4&#45;&gt;Node5 -->
<g id="edge4" class="edge"><title>Node4&#45;&gt;Node5</title>
<path fill="none" stroke="midnightblue" d="M218.381,-29C232.09,-29 247.505,-29 261.928,-29"/>
<polygon fill="midnightblue" stroke="midnightblue" points="218.275,-25.5001 208.275,-29 218.275,-32.5001 218.275,-25.5001"/>
</g>
<!-- Node6 -->
<g id="node6" class="node"><title>Node6</title>
<g id="a_node6"><a xlink:href="a00024.html#ae4d4180d5b5dbc0a54bc3f5fddc0daee" target="_top" xlink:title="Callback for tcpd library. ">
<polygon fill="none" stroke="black" points="545,-38.5 545,-57.5 652,-57.5 652,-38.5 545,-38.5"/>
<text text-anchor="middle" x="598.5" y="-45.5" font-family="Helvetica,sans-Serif" font-size="10.00">httpd_on_disconnect</text>
</a>
</g>
</g>
<!-- Node5&#45;&gt;Node6 -->
<g id="edge5" class="edge"><title>Node5&#45;&gt;Node6</title>
<path fill="none" stroke="midnightblue" d="M380.367,-33.2922C429.913,-36.6483 497.985,-41.2593 544.627,-44.4186"/>
<polygon fill="midnightblue" stroke="midnightblue" points="380.303,-29.78 370.09,-32.5961 379.83,-36.764 380.303,-29.78"/>
</g>
<!-- Node10 -->
<g id="node10" class="node"><title>Node10</title>
<g id="a_node10"><a xlink:href="a00049.html#a2b7dc9cb81835f2befb01fda20cc484c" target="_top" xlink:title="Create a new ws_request. ">
<polygon fill="none" stroke="black" points="406,-0.5 406,-19.5 509,-19.5 509,-0.5 406,-0.5"/>
<text text-anchor="middle" x="457.5" y="-7.5" font-family="Helvetica,sans-Serif" font-size="10.00">http_request_create</text>
</a>
</g>
</g>
<!-- Node5&#45;&gt;Node10 -->
<g id="edge9" class="edge"><title>Node5&#45;&gt;Node10</title>
<path fill="none" stroke="midnightblue" d="M380.137,-20.4006C388.736,-19.2295 397.47,-18.0399 405.811,-16.9039"/>
<polygon fill="midnightblue" stroke="midnightblue" points="379.573,-16.9451 370.137,-21.7627 380.518,-23.8811 379.573,-16.9451"/>
</g>
<!-- Node7 -->
<g id="node7" class="node"><title>Node7</title>
<g id="a_node7"><a xlink:href="a00024.html#a1c01ae677a68d0a11edfd93c4aae4929" target="_top" xlink:title="Create a new httpd instance. ">
<polygon fill="none" stroke="black" points="688,-19.5 688,-38.5 780,-38.5 780,-19.5 688,-19.5"/>
<text text-anchor="middle" x="734" y="-26.5" font-family="Helvetica,sans-Serif" font-size="10.00">hpd_httpd_create</text>
</a>
</g>
</g>
<!-- Node6&#45;&gt;Node7 -->
<g id="edge6" class="edge"><title>Node6&#45;&gt;Node7</title>
<path fill="none" stroke="midnightblue" d="M662.335,-39.0572C670.979,-37.8269 679.711,-36.5842 687.948,-35.4118"/>
<polygon fill="midnightblue" stroke="midnightblue" points="661.67,-35.6165 652.263,-40.4907 662.656,-42.5467 661.67,-35.6165"/>
</g>
<!-- Node8 -->
<g id="node8" class="node"><title>Node8</title>
<g id="a_node8"><a xlink:href="a00047.html#a0ddf1224851353fc92bfbff6f499fa97" target="_top" xlink:title="main">
<polygon fill="none" stroke="black" points="834,-38.5 834,-57.5 872,-57.5 872,-38.5 834,-38.5"/>
<text text-anchor="middle" x="853" y="-45.5" font-family="Helvetica,sans-Serif" font-size="10.00">main</text>
</a>
</g>
</g>
<!-- Node7&#45;&gt;Node8 -->
<g id="edge7" class="edge"><title>Node7&#45;&gt;Node8</title>
<path fill="none" stroke="midnightblue" d="M790.425,-38.0006C806.066,-40.5406 822.002,-43.1285 833.742,-45.035"/>
<polygon fill="midnightblue" stroke="midnightblue" points="790.667,-34.4942 780.235,-36.3459 789.545,-41.4037 790.667,-34.4942"/>
</g>
<!-- Node9 -->
<g id="node9" class="node"><title>Node9</title>
<g id="a_node9"><a xlink:href="a00034.html#afb0f14177aa99ed8b660835d80f0abff" target="_top" xlink:title="rest_on_start">
<polygon fill="none" stroke="black" points="816,-0.5 816,-19.5 890,-19.5 890,-0.5 816,-0.5"/>
<text text-anchor="middle" x="853" y="-7.5" font-family="Helvetica,sans-Serif" font-size="10.00">rest_on_start</text>
</a>
</g>
</g>
<!-- Node7&#45;&gt;Node9 -->
<g id="edge8" class="edge"><title>Node7&#45;&gt;Node9</title>
<path fill="none" stroke="midnightblue" d="M790.354,-20.0109C799.049,-18.5989 807.837,-17.1718 815.946,-15.8549"/>
<polygon fill="midnightblue" stroke="midnightblue" points="789.545,-16.5963 780.235,-21.6541 790.667,-23.5058 789.545,-16.5963"/>
</g>
<!-- Node11 -->
<g id="node11" class="node"><title>Node11</title>
<g id="a_node11"><a xlink:href="a00024.html#a117b36b86e1c36650012fe6224aadead" target="_top" xlink:title="Callback for tcpd library. ">
<polygon fill="none" stroke="black" points="551.5,-0.5 551.5,-19.5 645.5,-19.5 645.5,-0.5 551.5,-0.5"/>
<text text-anchor="middle" x="598.5" y="-7.5" font-family="Helvetica,sans-Serif" font-size="10.00">httpd_on_connect</text>
</a>
</g>
</g>
<!-- Node10&#45;&gt;Node11 -->
<g id="edge10" class="edge"><title>Node10&#45;&gt;Node11</title>
<path fill="none" stroke="midnightblue" d="M519.27,-10C530.03,-10 541.073,-10 551.346,-10"/>
<polygon fill="midnightblue" stroke="midnightblue" points="519.075,-6.5001 509.075,-10 519.075,-13.5001 519.075,-6.5001"/>
</g>
<!-- Node11&#45;&gt;Node7 -->
<g id="edge11" class="edge"><title>Node11&#45;&gt;Node7</title>
<path fill="none" stroke="midnightblue" d="M655.849,-18.0197C666.465,-19.5306 677.44,-21.0927 687.666,-22.548"/>
<polygon fill="midnightblue" stroke="midnightblue" points="656.211,-14.536 645.817,-16.592 655.224,-21.4661 656.211,-14.536"/>
</g>
</g>
</svg>
