<?xml version="1.0" encoding="UTF-8" standalone="no"?>
<!DOCTYPE svg PUBLIC "-//W3C//DTD SVG 1.1//EN"
 "http://www.w3.org/Graphics/SVG/1.1/DTD/svg11.dtd">
<!-- Generated by graphviz version 2.38.0 (20140413.2041)
 -->
<!-- Title: demo_adapter_create_adapter Pages: 1 -->
<!--zoomable 611 -->
<svg id="main" version="1.1" xmlns="http://www.w3.org/2000/svg" xmlns:xlink="http://www.w3.org/1999/xlink" xml:space="preserve" onload="init(evt)">
<style type="text/css"><![CDATA[
.edge:hover path { stroke: red; }
.edge:hover polygon { stroke: red; fill: red; }
]]></style>
<script type="text/javascript"><![CDATA[
var edges = document.getElementsByTagName('g');
if (edges && edges.length) {
  for (var i=0;i<edges.length;i++) {
    if (edges[i].id.substr(0,4)=='edge') {
      edges[i].setAttribute('class','edge');
    }
  }
}
]]></script>
        <defs>
                <circle id="rim" cx="0" cy="0" r="7"/>
                <circle id="rim2" cx="0" cy="0" r="3.5"/>
                <g id="zoomPlus">
                        <use xlink:href="#rim" fill="#404040">
                                <set attributeName="fill" to="#808080" begin="zoomplus.mouseover" end="zoomplus.mouseout"/>
                        </use>
                        <path d="M-4,0h8M0,-4v8" fill="none" stroke="white" stroke-width="1.5" pointer-events="none"/>
                </g>
                <g id="zoomMin">
                        <use xlink:href="#rim" fill="#404040">
                                <set attributeName="fill" to="#808080" begin="zoomminus.mouseover" end="zoomminus.mouseout"/>
                        </use>
                        <path d="M-4,0h8" fill="none" stroke="white" stroke-width="1.5" pointer-events="none"/>
                </g>
                <g id="dirArrow">
                        <path fill="none" stroke="white" stroke-width="1.5" d="M0,-3.0v7 M-2.5,-0.5L0,-3.0L2.5,-0.5"/>
                </g>
               <g id="resetDef">
                       <use xlink:href="#rim2" fill="#404040">
                               <set attributeName="fill" to="#808080" begin="reset.mouseover" end="reset.mouseout"/>
                       </use>
               </g>
        </defs>

<script type="text/javascript">
var viewWidth = 1464;
var viewHeight = 611;
var sectionId = 'dynsection-3';
</script>
<script xlink:href="svgpan.js"/>
<svg id="graph" class="graph">
<g id="viewport">
<title>demo_adapter_create_adapter</title>
<!-- Node1 -->
<g id="node1" class="node"><title>Node1</title>
<polygon fill="#bfbfbf" stroke="black" points="0,-318 0,-348 110,-348 110,-318 0,-318"/>
<text text-anchor="start" x="8" y="-336" font-family="Helvetica,sans-Serif" font-size="10.00">demo_adapter_create</text>
<text text-anchor="middle" x="55" y="-325" font-family="Helvetica,sans-Serif" font-size="10.00">_adapter</text>
</g>
<!-- Node2 -->
<g id="node2" class="node"><title>Node2</title>
<g id="a_node2"><a xlink:href="a00075.html#aaf24eefdbdf2debbf530eb19db96bd86" target="_top" xlink:title="[log functions] ">
<polygon fill="none" stroke="black" points="297,-440.5 297,-459.5 405,-459.5 405,-440.5 297,-440.5"/>
<text text-anchor="middle" x="351" y="-447.5" font-family="Helvetica,sans-Serif" font-size="10.00">hpd_adapter_id_alloc</text>
</a>
</g>
</g>
<!-- Node1&#45;&gt;Node2 -->
<g id="edge1" class="edge"><title>Node1&#45;&gt;Node2</title>
<path fill="none" stroke="midnightblue" d="M70.7952,-348.179C87.5386,-364.459 116.358,-389.869 146,-404 190.506,-425.217 245.2,-436.868 286.749,-443.132"/>
<polygon fill="midnightblue" stroke="midnightblue" points="286.348,-446.611 296.745,-444.574 287.347,-439.682 286.348,-446.611"/>
</g>
<!-- Node7 -->
<g id="node7" class="node"><title>Node7</title>
<g id="a_node7"><a xlink:href="a00071.html#aec51fa5c17a707a90a1634358ae1a9b4" target="_top" xlink:title="[hpd_adapter_t functions] ">
<polygon fill="none" stroke="black" points="152.5,-342.5 152.5,-361.5 247.5,-361.5 247.5,-342.5 152.5,-342.5"/>
<text text-anchor="middle" x="200" y="-349.5" font-family="Helvetica,sans-Serif" font-size="10.00">hpd_adapter_alloc</text>
</a>
</g>
</g>
<!-- Node1&#45;&gt;Node7 -->
<g id="edge6" class="edge"><title>Node1&#45;&gt;Node7</title>
<path fill="none" stroke="midnightblue" d="M110.062,-340.183C120.611,-341.585 131.699,-343.058 142.33,-344.47"/>
<polygon fill="midnightblue" stroke="midnightblue" points="141.976,-347.954 152.35,-345.802 142.898,-341.015 141.976,-347.954"/>
</g>
<!-- Node16 -->
<g id="node16" class="node"><title>Node16</title>
<g id="a_node16"><a xlink:href="a00071.html#a0d5ca643908e5c921d763ad9f5c9ba8e" target="_top" xlink:title="hpd_adapter_set_attr">
<polygon fill="none" stroke="black" points="146,-114.5 146,-133.5 254,-133.5 254,-114.5 146,-114.5"/>
<text text-anchor="middle" x="200" y="-121.5" font-family="Helvetica,sans-Serif" font-size="10.00">hpd_adapter_set_attr</text>
</a>
</g>
</g>
<!-- Node1&#45;&gt;Node16 -->
<g id="edge24" class="edge"><title>Node1&#45;&gt;Node16</title>
<path fill="none" stroke="midnightblue" d="M66.2842,-317.969C91.9503,-280.457 158.755,-182.82 186.567,-142.172"/>
<polygon fill="midnightblue" stroke="midnightblue" points="189.56,-143.995 192.318,-133.765 183.783,-140.042 189.56,-143.995"/>
</g>
<!-- Node21 -->
<g id="node21" class="node"><title>Node21</title>
<g id="a_node21"><a xlink:href="a00071.html#a247f5a01789cd6bd85a2f1238d36c29c" target="_top" xlink:title="hpd_adapter_attach">
<polygon fill="none" stroke="black" points="456,-380.5 456,-399.5 558,-399.5 558,-380.5 456,-380.5"/>
<text text-anchor="middle" x="507" y="-387.5" font-family="Helvetica,sans-Serif" font-size="10.00">hpd_adapter_attach</text>
</a>
</g>
</g>
<!-- Node1&#45;&gt;Node21 -->
<g id="edge31" class="edge"><title>Node1&#45;&gt;Node21</title>
<path fill="none" stroke="midnightblue" d="M84.7299,-348.156C101.991,-356.484 124.678,-366.095 146,-371 249.189,-394.739 373.215,-395.4 445.472,-393.118"/>
<polygon fill="midnightblue" stroke="midnightblue" points="445.876,-396.606 455.749,-392.762 445.634,-389.61 445.876,-396.606"/>
</g>
<!-- Node31 -->
<g id="node31" class="node"><title>Node31</title>
<g id="a_node31"><a xlink:href="a00071.html#a0a2b0d9eef603396a0171d5b0c67bbbf" target="_top" xlink:title="hpd_adapter_free">
<polygon fill="none" stroke="black" points="305,-266.5 305,-285.5 397,-285.5 397,-266.5 305,-266.5"/>
<text text-anchor="middle" x="351" y="-273.5" font-family="Helvetica,sans-Serif" font-size="10.00">hpd_adapter_free</text>
</a>
</g>
</g>
<!-- Node1&#45;&gt;Node31 -->
<g id="edge47" class="edge"><title>Node1&#45;&gt;Node31</title>
<path fill="none" stroke="midnightblue" d="M85.2087,-317.968C102.445,-309.791 124.945,-300.291 146,-295 195.294,-282.613 253.115,-278.135 294.587,-276.595"/>
<polygon fill="midnightblue" stroke="midnightblue" points="294.883,-280.088 304.764,-276.264 294.655,-273.091 294.883,-280.088"/>
</g>
<!-- Node32 -->
<g id="node32" class="node"><title>Node32</title>
<g id="a_node32"><a xlink:href="a00075.html#a6dfca5e2723ca3a11d12fe545e69923e" target="_top" xlink:title="hpd_adapter_id_free">
<polygon fill="none" stroke="black" points="148,-304.5 148,-323.5 252,-323.5 252,-304.5 148,-304.5"/>
<text text-anchor="middle" x="200" y="-311.5" font-family="Helvetica,sans-Serif" font-size="10.00">hpd_adapter_id_free</text>
</a>
</g>
</g>
<!-- Node1&#45;&gt;Node32 -->
<g id="edge49" class="edge"><title>Node1&#45;&gt;Node32</title>
<path fill="none" stroke="midnightblue" d="M110.062,-325.817C119.027,-324.626 128.381,-323.383 137.513,-322.17"/>
<polygon fill="midnightblue" stroke="midnightblue" points="138.244,-325.603 147.696,-320.817 137.322,-318.664 138.244,-325.603"/>
</g>
<!-- Node3 -->
<g id="node3" class="node"><title>Node3</title>
<g id="a_node3"><a xlink:href="a00020.html#a1915dc6bbbb6b1a2a587723caa22069d" target="_top" xlink:title="discovery_alloc_aid">
<polygon fill="none" stroke="black" points="1089,-570.5 1089,-589.5 1191,-589.5 1191,-570.5 1089,-570.5"/>
<text text-anchor="middle" x="1140" y="-577.5" font-family="Helvetica,sans-Serif" font-size="10.00">discovery_alloc_aid</text>
</a>
</g>
</g>
<!-- Node2&#45;&gt;Node3 -->
<g id="edge2" class="edge"><title>Node2&#45;&gt;Node3</title>
<path fill="none" stroke="midnightblue" d="M388.808,-459.564C447.015,-473.824 564.071,-499 665,-499 665,-499 665,-499 825.5,-499 932.091,-499 1052.77,-543.438 1108.19,-566.484"/>
<polygon fill="midnightblue" stroke="midnightblue" points="1106.88,-569.729 1117.45,-570.39 1109.6,-563.279 1106.88,-569.729"/>
</g>
<!-- Node4 -->
<g id="node4" class="node"><title>Node4</title>
<g id="a_node4"><a xlink:href="a00080.html#af2f553cfc3af4678b87a8fc75f35a5c6" target="_top" xlink:title="HPD_E_ALLOC: id might be partially updated. ">
<polygon fill="none" stroke="black" points="1361,-570.5 1361,-589.5 1456,-589.5 1456,-570.5 1361,-570.5"/>
<text text-anchor="middle" x="1408.5" y="-577.5" font-family="Helvetica,sans-Serif" font-size="10.00">discovery_set_aid</text>
</a>
</g>
</g>
<!-- Node3&#45;&gt;Node4 -->
<g id="edge3" class="edge"><title>Node3&#45;&gt;Node4</title>
<path fill="none" stroke="midnightblue" d="M1175.86,-589.508C1191.39,-593.273 1209.98,-597.142 1227,-599 1270.3,-603.726 1281.72,-603.919 1325,-599 1337.91,-597.533 1351.73,-594.815 1364.31,-591.884"/>
<polygon fill="midnightblue" stroke="midnightblue" points="1365.19,-595.271 1374.08,-589.507 1363.54,-588.469 1365.19,-595.271"/>
</g>
<!-- Node5 -->
<g id="node5" class="node"><title>Node5</title>
<g id="a_node5"><a xlink:href="a00080.html#a2bd026e829a41663810ae68fa3797987" target="_top" xlink:title="discovery_free_aid">
<polygon fill="none" stroke="black" points="1227,-570.5 1227,-589.5 1325,-589.5 1325,-570.5 1227,-570.5"/>
<text text-anchor="middle" x="1276" y="-577.5" font-family="Helvetica,sans-Serif" font-size="10.00">discovery_free_aid</text>
</a>
</g>
</g>
<!-- Node3&#45;&gt;Node5 -->
<g id="edge4" class="edge"><title>Node3&#45;&gt;Node5</title>
<path fill="none" stroke="midnightblue" d="M1191.28,-580C1199.51,-580 1208.11,-580 1216.52,-580"/>
<polygon fill="midnightblue" stroke="midnightblue" points="1216.66,-583.5 1226.66,-580 1216.66,-576.5 1216.66,-583.5"/>
</g>
<!-- Node6 -->
<g id="node6" class="node"><title>Node6</title>
<g id="a_node6"><a xlink:href="a00012.html#adf46370d9c211c3be22966b4606ba9b0" target="_top" xlink:title="free">
<polygon fill="none" stroke="black" points="1392,-285.5 1392,-304.5 1425,-304.5 1425,-285.5 1392,-285.5"/>
<text text-anchor="middle" x="1408.5" y="-292.5" font-family="Helvetica,sans-Serif" font-size="10.00">free</text>
</a>
</g>
</g>
<!-- Node5&#45;&gt;Node6 -->
<g id="edge5" class="edge"><title>Node5&#45;&gt;Node6</title>
<path fill="none" stroke="midnightblue" d="M1312.38,-570.327C1317.07,-567.873 1321.47,-564.813 1325,-561 1391.93,-488.766 1404.58,-363.1 1406.96,-314.744"/>
<polygon fill="midnightblue" stroke="midnightblue" points="1410.46,-314.802 1407.35,-304.672 1403.46,-314.527 1410.46,-314.802"/>
</g>
<!-- Node8 -->
<g id="node8" class="node"><title>Node8</title>
<g id="a_node8"><a xlink:href="a00078.html#a3c736bc96933454ab82040c3617275a3" target="_top" xlink:title="discovery_alloc_adapter">
<polygon fill="none" stroke="black" points="290,-342.5 290,-361.5 412,-361.5 412,-342.5 290,-342.5"/>
<text text-anchor="middle" x="351" y="-349.5" font-family="Helvetica,sans-Serif" font-size="10.00">discovery_alloc_adapter</text>
</a>
</g>
</g>
<!-- Node7&#45;&gt;Node8 -->
<g id="edge7" class="edge"><title>Node7&#45;&gt;Node8</title>
<path fill="none" stroke="midnightblue" d="M247.736,-352C257.825,-352 268.707,-352 279.478,-352"/>
<polygon fill="midnightblue" stroke="midnightblue" points="279.742,-355.5 289.742,-352 279.742,-348.5 279.742,-355.5"/>
</g>
<!-- Node9 -->
<g id="node9" class="node"><title>Node9</title>
<g id="a_node9"><a xlink:href="a00056.html#a8d23b888fb4bb3f951c7d48f1928ee9a" target="_top" xlink:title="hpd_map_alloc">
<polygon fill="none" stroke="black" points="466,-342.5 466,-361.5 548,-361.5 548,-342.5 466,-342.5"/>
<text text-anchor="middle" x="507" y="-349.5" font-family="Helvetica,sans-Serif" font-size="10.00">hpd_map_alloc</text>
</a>
</g>
</g>
<!-- Node8&#45;&gt;Node9 -->
<g id="edge8" class="edge"><title>Node8&#45;&gt;Node9</title>
<path fill="none" stroke="midnightblue" d="M412.423,-352C426.658,-352 441.688,-352 455.437,-352"/>
<polygon fill="midnightblue" stroke="midnightblue" points="455.667,-355.5 465.667,-352 455.667,-348.5 455.667,-355.5"/>
</g>
<!-- Node10 -->
<g id="node10" class="node"><title>Node10</title>
<g id="a_node10"><a xlink:href="a00078.html#aec714553397f80039bf246b3b0800420" target="_top" xlink:title="discovery_free_adapter">
<polygon fill="none" stroke="black" points="448,-266.5 448,-285.5 566,-285.5 566,-266.5 448,-266.5"/>
<text text-anchor="middle" x="507" y="-273.5" font-family="Helvetica,sans-Serif" font-size="10.00">discovery_free_adapter</text>
</a>
</g>
</g>
<!-- Node8&#45;&gt;Node10 -->
<g id="edge9" class="edge"><title>Node8&#45;&gt;Node10</title>
<path fill="none" stroke="midnightblue" d="M371.504,-342.375C398.234,-329.183 446.44,-305.393 477.295,-290.166"/>
<polygon fill="midnightblue" stroke="midnightblue" points="479.236,-293.111 486.654,-285.547 476.138,-286.834 479.236,-293.111"/>
</g>
<!-- Node10&#45;&gt;Node6 -->
<g id="edge22" class="edge"><title>Node10&#45;&gt;Node6</title>
<path fill="none" stroke="midnightblue" d="M566.149,-276C629.453,-276 733.67,-276 823.5,-276 823.5,-276 823.5,-276 1141,-276 1229.65,-276 1334.46,-286.589 1381.9,-291.957"/>
<polygon fill="midnightblue" stroke="midnightblue" points="1381.57,-295.442 1391.91,-293.109 1382.37,-288.488 1381.57,-295.442"/>
</g>
<!-- Node11 -->
<g id="node11" class="node"><title>Node11</title>
<g id="a_node11"><a xlink:href="a00078.html#a3c72fb9020b183238e0205b722d7ea95" target="_top" xlink:title="discovery_free_device">
<polygon fill="none" stroke="black" points="609,-190.5 609,-209.5 723,-209.5 723,-190.5 609,-190.5"/>
<text text-anchor="middle" x="666" y="-197.5" font-family="Helvetica,sans-Serif" font-size="10.00">discovery_free_device</text>
</a>
</g>
</g>
<!-- Node10&#45;&gt;Node11 -->
<g id="edge10" class="edge"><title>Node10&#45;&gt;Node11</title>
<path fill="none" stroke="midnightblue" d="M527.884,-266.375C555.253,-253.126 604.706,-229.187 636.144,-213.969"/>
<polygon fill="midnightblue" stroke="midnightblue" points="637.801,-217.055 645.277,-209.547 634.751,-210.754 637.801,-217.055"/>
</g>
<!-- Node14 -->
<g id="node14" class="node"><title>Node14</title>
<g id="a_node14"><a xlink:href="a00056.html#a195d511a075f2349200563af1c5d1fd7" target="_top" xlink:title="hpd_map_free">
<polygon fill="none" stroke="black" points="1101,-95.5 1101,-114.5 1179,-114.5 1179,-95.5 1101,-95.5"/>
<text text-anchor="middle" x="1140" y="-102.5" font-family="Helvetica,sans-Serif" font-size="10.00">hpd_map_free</text>
</a>
</g>
</g>
<!-- Node10&#45;&gt;Node14 -->
<g id="edge23" class="edge"><title>Node10&#45;&gt;Node14</title>
<path fill="none" stroke="midnightblue" d="M515.251,-266.332C529.797,-247.53 564.383,-205.72 602,-181 667.388,-138.031 690.086,-135.947 766,-117 879.69,-88.6248 1018.91,-94.3527 1090.84,-100.16"/>
<polygon fill="midnightblue" stroke="midnightblue" points="1090.69,-103.66 1100.95,-101.014 1091.28,-96.6851 1090.69,-103.66"/>
</g>
<!-- Node11&#45;&gt;Node6 -->
<g id="edge20" class="edge"><title>Node11&#45;&gt;Node6</title>
<path fill="none" stroke="midnightblue" d="M716.084,-209.54C778.368,-220.796 889.227,-238 985,-238 985,-238 985,-238 1141,-238 1223.47,-238 1245.2,-241.189 1325,-262 1344.9,-267.19 1366.45,-275.925 1382.53,-283.105"/>
<polygon fill="midnightblue" stroke="midnightblue" points="1381.23,-286.356 1391.78,-287.329 1384.14,-279.989 1381.23,-286.356"/>
</g>
<!-- Node12 -->
<g id="node12" class="node"><title>Node12</title>
<g id="a_node12"><a xlink:href="a00078.html#a562bd655fd329da0289d21ec36973322" target="_top" xlink:title="discovery_free_service">
<polygon fill="none" stroke="black" points="766,-171.5 766,-190.5 883,-190.5 883,-171.5 766,-171.5"/>
<text text-anchor="middle" x="824.5" y="-178.5" font-family="Helvetica,sans-Serif" font-size="10.00">discovery_free_service</text>
</a>
</g>
</g>
<!-- Node11&#45;&gt;Node12 -->
<g id="edge11" class="edge"><title>Node11&#45;&gt;Node12</title>
<path fill="none" stroke="midnightblue" d="M723.058,-193.194C733.735,-191.898 745.013,-190.529 756.002,-189.195"/>
<polygon fill="midnightblue" stroke="midnightblue" points="756.483,-192.662 765.988,-187.982 755.639,-185.713 756.483,-192.662"/>
</g>
<!-- Node11&#45;&gt;Node14 -->
<g id="edge21" class="edge"><title>Node11&#45;&gt;Node14</title>
<path fill="none" stroke="midnightblue" d="M690.866,-190.404C710.831,-182.481 740.123,-171.102 766,-162 833.357,-138.308 848.665,-125.301 919,-113 977.504,-102.768 1046.04,-102.01 1090.88,-102.995"/>
<polygon fill="midnightblue" stroke="midnightblue" points="1090.82,-106.494 1100.91,-103.253 1091,-99.4967 1090.82,-106.494"/>
</g>
<!-- Node12&#45;&gt;Node6 -->
<g id="edge18" class="edge"><title>Node12&#45;&gt;Node6</title>
<path fill="none" stroke="midnightblue" d="M883.304,-181.548C997.266,-183.347 1246.68,-191.047 1325,-224 1352.74,-235.67 1377.89,-260.294 1392.94,-277.24"/>
<polygon fill="midnightblue" stroke="midnightblue" points="1390.68,-279.983 1399.85,-285.293 1395.99,-275.425 1390.68,-279.983"/>
</g>
<!-- Node13 -->
<g id="node13" class="node"><title>Node13</title>
<g id="a_node13"><a xlink:href="a00078.html#ad18143d06649d9220e4fd8d74dbdec79" target="_top" xlink:title="discovery_free_parameter">
<polygon fill="none" stroke="black" points="921.5,-152.5 921.5,-171.5 1050.5,-171.5 1050.5,-152.5 921.5,-152.5"/>
<text text-anchor="middle" x="986" y="-159.5" font-family="Helvetica,sans-Serif" font-size="10.00">discovery_free_parameter</text>
</a>
</g>
</g>
<!-- Node12&#45;&gt;Node13 -->
<g id="edge12" class="edge"><title>Node12&#45;&gt;Node13</title>
<path fill="none" stroke="midnightblue" d="M883.083,-174.141C892.192,-173.056 901.72,-171.921 911.137,-170.799"/>
<polygon fill="midnightblue" stroke="midnightblue" points="911.772,-174.248 921.288,-169.59 910.944,-167.297 911.772,-174.248"/>
</g>
<!-- Node12&#45;&gt;Node14 -->
<g id="edge19" class="edge"><title>Node12&#45;&gt;Node14</title>
<path fill="none" stroke="midnightblue" d="M845.484,-171.41C864.119,-162.823 892.888,-150.467 919,-143 976.91,-126.44 1045.58,-115.982 1090.61,-110.321"/>
<polygon fill="midnightblue" stroke="midnightblue" points="1091.18,-113.776 1100.68,-109.084 1090.33,-106.828 1091.18,-113.776"/>
</g>
<!-- Node13&#45;&gt;Node6 -->
<g id="edge17" class="edge"><title>Node13&#45;&gt;Node6</title>
<path fill="none" stroke="midnightblue" d="M1043.56,-152.476C1114.05,-143.512 1236.05,-137.765 1325,-186 1361.86,-205.986 1387.13,-250.295 1399.26,-275.84"/>
<polygon fill="midnightblue" stroke="midnightblue" points="1396.2,-277.56 1403.52,-285.217 1402.57,-274.665 1396.2,-277.56"/>
</g>
<!-- Node13&#45;&gt;Node14 -->
<g id="edge13" class="edge"><title>Node13&#45;&gt;Node14</title>
<path fill="none" stroke="midnightblue" d="M1013.69,-152.414C1025.72,-148.063 1040.09,-142.822 1053,-138 1070.24,-131.557 1089.37,-124.236 1105.2,-118.129"/>
<polygon fill="midnightblue" stroke="midnightblue" points="1106.51,-121.373 1114.58,-114.503 1103.99,-114.844 1106.51,-121.373"/>
</g>
<!-- Node14&#45;&gt;Node6 -->
<g id="edge16" class="edge"><title>Node14&#45;&gt;Node6</title>
<path fill="none" stroke="midnightblue" d="M1179.28,-105.182C1219.35,-107.226 1282.25,-115.875 1325,-148 1368.53,-180.714 1392.36,-243.527 1402.14,-275.405"/>
<polygon fill="midnightblue" stroke="midnightblue" points="1398.86,-276.669 1405.02,-285.291 1405.58,-274.711 1398.86,-276.669"/>
</g>
<!-- Node15 -->
<g id="node15" class="node"><title>Node15</title>
<g id="a_node15"><a xlink:href="a00031.html#ae1085dd4fd40466d18b02ec077ef4d6d" target="_top" xlink:title="hpd_map_remove">
<polygon fill="none" stroke="black" points="1229,-76.5 1229,-95.5 1323,-95.5 1323,-76.5 1229,-76.5"/>
<text text-anchor="middle" x="1276" y="-83.5" font-family="Helvetica,sans-Serif" font-size="10.00">hpd_map_remove</text>
</a>
</g>
</g>
<!-- Node14&#45;&gt;Node15 -->
<g id="edge14" class="edge"><title>Node14&#45;&gt;Node15</title>
<path fill="none" stroke="midnightblue" d="M1179.04,-99.6062C1191.37,-97.8577 1205.32,-95.8793 1218.69,-93.9837"/>
<polygon fill="midnightblue" stroke="midnightblue" points="1219.36,-97.4246 1228.77,-92.5553 1218.38,-90.494 1219.36,-97.4246"/>
</g>
<!-- Node15&#45;&gt;Node6 -->
<g id="edge15" class="edge"><title>Node15&#45;&gt;Node6</title>
<path fill="none" stroke="midnightblue" d="M1304.06,-95.5442C1311.55,-99.1762 1319.2,-103.941 1325,-110 1371.71,-158.819 1394.78,-238.56 1403.38,-275.313"/>
<polygon fill="midnightblue" stroke="midnightblue" points="1400,-276.258 1405.59,-285.257 1406.84,-274.736 1400,-276.258"/>
</g>
<!-- Node17 -->
<g id="node17" class="node"><title>Node17</title>
<g id="a_node17"><a xlink:href="a00078.html#a1ace8e13428ce953dc195ed8cf5105c7" target="_top" xlink:title="discovery_set_adapter_attr">
<polygon fill="none" stroke="black" points="919,-0.5 919,-19.5 1053,-19.5 1053,-0.5 919,-0.5"/>
<text text-anchor="middle" x="986" y="-7.5" font-family="Helvetica,sans-Serif" font-size="10.00">discovery_set_adapter_attr</text>
</a>
</g>
</g>
<!-- Node16&#45;&gt;Node17 -->
<g id="edge25" class="edge"><title>Node16&#45;&gt;Node17</title>
<path fill="none" stroke="midnightblue" d="M215.203,-114.477C257.484,-87.0778 387.006,-10 506,-10 506,-10 506,-10 667,-10 749.669,-10 844.426,-10 908.846,-10"/>
<polygon fill="midnightblue" stroke="midnightblue" points="908.919,-13.5001 918.918,-10 908.918,-6.5001 908.919,-13.5001"/>
</g>
<!-- Node18 -->
<g id="node18" class="node"><title>Node18</title>
<g id="a_node18"><a xlink:href="a00056.html#a230c25a2f8e5de7ce61623a4ce8a809f" target="_top" xlink:title="hpd_map_set">
<polygon fill="none" stroke="black" points="1102.5,-19.5 1102.5,-38.5 1177.5,-38.5 1177.5,-19.5 1102.5,-19.5"/>
<text text-anchor="middle" x="1140" y="-26.5" font-family="Helvetica,sans-Serif" font-size="10.00">hpd_map_set</text>
</a>
</g>
</g>
<!-- Node17&#45;&gt;Node18 -->
<g id="edge26" class="edge"><title>Node17&#45;&gt;Node18</title>
<path fill="none" stroke="midnightblue" d="M1053.23,-18.2784C1066.35,-19.9191 1079.87,-21.6092 1092.19,-23.1485"/>
<polygon fill="midnightblue" stroke="midnightblue" points="1091.86,-26.6343 1102.21,-24.4018 1092.73,-19.6884 1091.86,-26.6343"/>
</g>
<!-- Node18&#45;&gt;Node15 -->
<g id="edge27" class="edge"><title>Node18&#45;&gt;Node15</title>
<path fill="none" stroke="midnightblue" d="M1162.11,-38.6018C1179.45,-46.4276 1204.72,-57.6706 1227,-67 1231.42,-68.8495 1236.08,-70.7548 1240.7,-72.6119"/>
<polygon fill="midnightblue" stroke="midnightblue" points="1239.43,-75.8725 1250.01,-76.3231 1242.02,-69.3698 1239.43,-75.8725"/>
</g>
<!-- Node19 -->
<g id="node19" class="node"><title>Node19</title>
<g id="a_node19"><a xlink:href="a00031.html#a68e8a71a4dc9b51ca36d2389ed89b336" target="_top" xlink:title="map_insert">
<polygon fill="none" stroke="black" points="1243.5,-38.5 1243.5,-57.5 1308.5,-57.5 1308.5,-38.5 1243.5,-38.5"/>
<text text-anchor="middle" x="1276" y="-45.5" font-family="Helvetica,sans-Serif" font-size="10.00">map_insert</text>
</a>
</g>
</g>
<!-- Node18&#45;&gt;Node19 -->
<g id="edge28" class="edge"><title>Node18&#45;&gt;Node19</title>
<path fill="none" stroke="midnightblue" d="M1177.62,-34.1918C1194.85,-36.635 1215.48,-39.5604 1233.31,-42.0884"/>
<polygon fill="midnightblue" stroke="midnightblue" points="1233.04,-45.5857 1243.43,-43.5243 1234.03,-38.655 1233.04,-45.5857"/>
</g>
<!-- Node20 -->
<g id="node20" class="node"><title>Node20</title>
<g id="a_node20"><a xlink:href="a00031.html#ac16b47a5d68b6eaae2e709e1888982fd" target="_top" xlink:title="map_replace">
<polygon fill="none" stroke="black" points="1240,-0.5 1240,-19.5 1312,-19.5 1312,-0.5 1240,-0.5"/>
<text text-anchor="middle" x="1276" y="-7.5" font-family="Helvetica,sans-Serif" font-size="10.00">map_replace</text>
</a>
</g>
</g>
<!-- Node18&#45;&gt;Node20 -->
<g id="edge30" class="edge"><title>Node18&#45;&gt;Node20</title>
<path fill="none" stroke="midnightblue" d="M1177.62,-23.8082C1193.66,-21.5334 1212.65,-18.8406 1229.58,-16.4397"/>
<polygon fill="midnightblue" stroke="midnightblue" points="1230.41,-19.8582 1239.81,-14.9889 1229.42,-12.9275 1230.41,-19.8582"/>
</g>
<!-- Node19&#45;&gt;Node6 -->
<g id="edge29" class="edge"><title>Node19&#45;&gt;Node6</title>
<path fill="none" stroke="midnightblue" d="M1308.78,-56.1606C1314.74,-58.8411 1320.51,-62.3698 1325,-67 1383.41,-127.168 1400.87,-231.748 1405.74,-275.194"/>
<polygon fill="midnightblue" stroke="midnightblue" points="1402.28,-275.706 1406.77,-285.301 1409.24,-274.999 1402.28,-275.706"/>
</g>
<!-- Node22 -->
<g id="node22" class="node"><title>Node22</title>
<g id="a_node22"><a xlink:href="a00078.html#aac31bf6cd5b56cc59af2d3b8ea2862ae" target="_top" xlink:title="discovery_is_adapter\l_id_unique">
<polygon fill="none" stroke="black" points="611.5,-397 611.5,-427 720.5,-427 720.5,-397 611.5,-397"/>
<text text-anchor="start" x="619.5" y="-415" font-family="Helvetica,sans-Serif" font-size="10.00">discovery_is_adapter</text>
<text text-anchor="middle" x="666" y="-404" font-family="Helvetica,sans-Serif" font-size="10.00">_id_unique</text>
</a>
</g>
</g>
<!-- Node21&#45;&gt;Node22 -->
<g id="edge32" class="edge"><title>Node21&#45;&gt;Node22</title>
<path fill="none" stroke="midnightblue" d="M558.107,-397.021C571.756,-398.934 586.727,-401.032 601.032,-403.036"/>
<polygon fill="midnightblue" stroke="midnightblue" points="600.913,-406.554 611.301,-404.475 601.884,-399.621 600.913,-406.554"/>
</g>
<!-- Node23 -->
<g id="node23" class="node"><title>Node23</title>
<g id="a_node23"><a xlink:href="a00078.html#afa5616fcf36352f0af085bb5f1ac3686" target="_top" xlink:title="discovery_attach_adapter">
<polygon fill="none" stroke="black" points="602,-358.5 602,-377.5 730,-377.5 730,-358.5 602,-358.5"/>
<text text-anchor="middle" x="666" y="-365.5" font-family="Helvetica,sans-Serif" font-size="10.00">discovery_attach_adapter</text>
</a>
</g>
</g>
<!-- Node21&#45;&gt;Node23 -->
<g id="edge33" class="edge"><title>Node21&#45;&gt;Node23</title>
<path fill="none" stroke="midnightblue" d="M558.107,-382.979C568.866,-381.471 580.446,-379.848 591.874,-378.247"/>
<polygon fill="midnightblue" stroke="midnightblue" points="592.436,-381.703 601.853,-376.849 591.464,-374.77 592.436,-381.703"/>
</g>
<!-- Node23&#45;&gt;Node6 -->
<g id="edge46" class="edge"><title>Node23&#45;&gt;Node6</title>
<path fill="none" stroke="midnightblue" d="M730.004,-362.959C794.128,-358.27 896.417,-352 985,-352 985,-352 985,-352 1141,-352 1231.39,-352 1335.29,-320.254 1382.2,-304.145"/>
<polygon fill="midnightblue" stroke="midnightblue" points="1383.54,-307.382 1391.83,-300.779 1381.24,-300.774 1383.54,-307.382"/>
</g>
<!-- Node24 -->
<g id="node24" class="node"><title>Node24</title>
<g id="a_node24"><a xlink:href="a00081.html#a7ef81e99623c1b5b75b3282aa9a25703" target="_top" xlink:title="event_inform_adapter\l_attached">
<polygon fill="none" stroke="black" points="769.5,-424 769.5,-454 879.5,-454 879.5,-424 769.5,-424"/>
<text text-anchor="start" x="777.5" y="-442" font-family="Helvetica,sans-Serif" font-size="10.00">event_inform_adapter</text>
<text text-anchor="middle" x="824.5" y="-431" font-family="Helvetica,sans-Serif" font-size="10.00">_attached</text>
</a>
</g>
</g>
<!-- Node23&#45;&gt;Node24 -->
<g id="edge34" class="edge"><title>Node23&#45;&gt;Node24</title>
<path fill="none" stroke="midnightblue" d="M703.453,-377.544C712.274,-380.248 721.583,-383.439 730,-387 750.977,-395.874 773.31,-408.178 790.888,-418.59"/>
<polygon fill="midnightblue" stroke="midnightblue" points="789.24,-421.683 799.615,-423.834 792.846,-415.683 789.24,-421.683"/>
</g>
<!-- Node25 -->
<g id="node25" class="node"><title>Node25</title>
<g id="a_node25"><a xlink:href="a00081.html#a8e77eacc816b401e7f31d4cf625edc71" target="_top" xlink:title="event_inform_device\l_attached">
<polygon fill="none" stroke="black" points="932.5,-432 932.5,-462 1039.5,-462 1039.5,-432 932.5,-432"/>
<text text-anchor="start" x="940.5" y="-450" font-family="Helvetica,sans-Serif" font-size="10.00">event_inform_device</text>
<text text-anchor="middle" x="986" y="-439" font-family="Helvetica,sans-Serif" font-size="10.00">_attached</text>
</a>
</g>
</g>
<!-- Node24&#45;&gt;Node25 -->
<g id="edge35" class="edge"><title>Node24&#45;&gt;Node25</title>
<path fill="none" stroke="midnightblue" d="M879.945,-441.731C893.597,-442.416 908.354,-443.156 922.37,-443.859"/>
<polygon fill="midnightblue" stroke="midnightblue" points="922.255,-447.357 932.418,-444.363 922.606,-440.366 922.255,-447.357"/>
</g>
<!-- Node25&#45;&gt;Node6 -->
<g id="edge45" class="edge"><title>Node25&#45;&gt;Node6</title>
<path fill="none" stroke="midnightblue" d="M1037.6,-462.024C1107.61,-479.665 1235.49,-500.262 1325,-447 1373.68,-418.032 1395.42,-349.201 1403.48,-315"/>
<polygon fill="midnightblue" stroke="midnightblue" points="1406.99,-315.354 1405.71,-304.836 1400.15,-313.854 1406.99,-315.354"/>
</g>
<!-- Node26 -->
<g id="node26" class="node"><title>Node26</title>
<g id="a_node26"><a xlink:href="a00020.html#aebd10ac1c18be51340c39d6d5a54e6d1" target="_top" xlink:title="discovery_alloc_did">
<polygon fill="none" stroke="black" points="1089,-494.5 1089,-513.5 1191,-513.5 1191,-494.5 1089,-494.5"/>
<text text-anchor="middle" x="1140" y="-501.5" font-family="Helvetica,sans-Serif" font-size="10.00">discovery_alloc_did</text>
</a>
</g>
</g>
<!-- Node25&#45;&gt;Node26 -->
<g id="edge36" class="edge"><title>Node25&#45;&gt;Node26</title>
<path fill="none" stroke="midnightblue" d="M1027.33,-462.125C1051.08,-471.032 1080.84,-482.192 1103.67,-490.75"/>
<polygon fill="midnightblue" stroke="midnightblue" points="1102.71,-494.129 1113.3,-494.363 1105.17,-487.575 1102.71,-494.129"/>
</g>
<!-- Node29 -->
<g id="node29" class="node"><title>Node29</title>
<g id="a_node29"><a xlink:href="a00081.html#a5ff83c3085a8e1ab14f502065c395654" target="_top" xlink:title="event_on_attached">
<polygon fill="none" stroke="black" points="1090.5,-418.5 1090.5,-437.5 1189.5,-437.5 1189.5,-418.5 1090.5,-418.5"/>
<text text-anchor="middle" x="1140" y="-425.5" font-family="Helvetica,sans-Serif" font-size="10.00">event_on_attached</text>
</a>
</g>
</g>
<!-- Node25&#45;&gt;Node29 -->
<g id="edge41" class="edge"><title>Node25&#45;&gt;Node29</title>
<path fill="none" stroke="midnightblue" d="M1039.74,-440.408C1052.85,-438.768 1067,-437 1080.38,-435.328"/>
<polygon fill="midnightblue" stroke="midnightblue" points="1080.95,-438.784 1090.44,-434.07 1080.08,-431.838 1080.95,-438.784"/>
</g>
<!-- Node27 -->
<g id="node27" class="node"><title>Node27</title>
<g id="a_node27"><a xlink:href="a00080.html#acd5e8c2bf3e761abc7e2fd2294238a74" target="_top" xlink:title="HPD_E_ALLOC: id might be partially updated. ">
<polygon fill="none" stroke="black" points="1228.5,-532.5 1228.5,-551.5 1323.5,-551.5 1323.5,-532.5 1228.5,-532.5"/>
<text text-anchor="middle" x="1276" y="-539.5" font-family="Helvetica,sans-Serif" font-size="10.00">discovery_set_did</text>
</a>
</g>
</g>
<!-- Node26&#45;&gt;Node27 -->
<g id="edge37" class="edge"><title>Node26&#45;&gt;Node27</title>
<path fill="none" stroke="midnightblue" d="M1174.81,-513.589C1192.03,-518.472 1213.16,-524.464 1231.57,-529.685"/>
<polygon fill="midnightblue" stroke="midnightblue" points="1230.62,-533.053 1241.2,-532.414 1232.53,-526.319 1230.62,-533.053"/>
</g>
<!-- Node28 -->
<g id="node28" class="node"><title>Node28</title>
<g id="a_node28"><a xlink:href="a00080.html#ae1a000b225c8b3f365c2cec8362b8483" target="_top" xlink:title="discovery_free_did">
<polygon fill="none" stroke="black" points="1227,-494.5 1227,-513.5 1325,-513.5 1325,-494.5 1227,-494.5"/>
<text text-anchor="middle" x="1276" y="-501.5" font-family="Helvetica,sans-Serif" font-size="10.00">discovery_free_did</text>
</a>
</g>
</g>
<!-- Node26&#45;&gt;Node28 -->
<g id="edge39" class="edge"><title>Node26&#45;&gt;Node28</title>
<path fill="none" stroke="midnightblue" d="M1191.28,-504C1199.51,-504 1208.11,-504 1216.52,-504"/>
<polygon fill="midnightblue" stroke="midnightblue" points="1216.66,-507.5 1226.66,-504 1216.66,-500.5 1216.66,-507.5"/>
</g>
<!-- Node27&#45;&gt;Node4 -->
<g id="edge38" class="edge"><title>Node27&#45;&gt;Node4</title>
<path fill="none" stroke="midnightblue" d="M1309.93,-551.589C1326.62,-556.449 1347.09,-562.409 1364.96,-567.613"/>
<polygon fill="midnightblue" stroke="midnightblue" points="1364,-570.979 1374.58,-570.414 1365.96,-564.258 1364,-570.979"/>
</g>
<!-- Node28&#45;&gt;Node6 -->
<g id="edge40" class="edge"><title>Node28&#45;&gt;Node6</title>
<path fill="none" stroke="midnightblue" d="M1304.06,-494.456C1311.55,-490.824 1319.2,-486.059 1325,-480 1371.71,-431.181 1394.78,-351.44 1403.38,-314.687"/>
<polygon fill="midnightblue" stroke="midnightblue" points="1406.84,-315.264 1405.59,-304.743 1400,-313.742 1406.84,-315.264"/>
</g>
<!-- Node29&#45;&gt;Node6 -->
<g id="edge42" class="edge"><title>Node29&#45;&gt;Node6</title>
<path fill="none" stroke="midnightblue" d="M1184.25,-418.459C1222.84,-408.801 1280.04,-391.612 1325,-366 1350.73,-351.344 1375.87,-328.031 1391.5,-312.148"/>
<polygon fill="midnightblue" stroke="midnightblue" points="1394.35,-314.237 1398.76,-304.605 1389.31,-309.382 1394.35,-314.237"/>
</g>
<!-- Node30 -->
<g id="node30" class="node"><title>Node30</title>
<g id="a_node30"><a xlink:href="a00020.html#ae1a000b225c8b3f365c2cec8362b8483" target="_top" xlink:title="discovery_free_did">
<polygon fill="none" stroke="black" points="1227,-418.5 1227,-437.5 1325,-437.5 1325,-418.5 1227,-418.5"/>
<text text-anchor="middle" x="1276" y="-425.5" font-family="Helvetica,sans-Serif" font-size="10.00">discovery_free_did</text>
</a>
</g>
</g>
<!-- Node29&#45;&gt;Node30 -->
<g id="edge43" class="edge"><title>Node29&#45;&gt;Node30</title>
<path fill="none" stroke="midnightblue" d="M1189.76,-428C1198.56,-428 1207.83,-428 1216.87,-428"/>
<polygon fill="midnightblue" stroke="midnightblue" points="1216.95,-431.5 1226.95,-428 1216.95,-424.5 1216.95,-431.5"/>
</g>
<!-- Node30&#45;&gt;Node6 -->
<g id="edge44" class="edge"><title>Node30&#45;&gt;Node6</title>
<path fill="none" stroke="midnightblue" d="M1301.75,-418.292C1309.65,-414.52 1318.12,-409.716 1325,-404 1356.63,-377.724 1383.23,-337.091 1397.13,-313.567"/>
<polygon fill="midnightblue" stroke="midnightblue" points="1400.32,-315.037 1402.28,-304.625 1394.25,-311.541 1400.32,-315.037"/>
</g>
<!-- Node31&#45;&gt;Node10 -->
<g id="edge48" class="edge"><title>Node31&#45;&gt;Node10</title>
<path fill="none" stroke="midnightblue" d="M397.372,-276C409.957,-276 423.906,-276 437.498,-276"/>
<polygon fill="midnightblue" stroke="midnightblue" points="437.793,-279.5 447.793,-276 437.793,-272.5 437.793,-279.5"/>
</g>
<!-- Node33 -->
<g id="node33" class="node"><title>Node33</title>
<g id="a_node33"><a xlink:href="a00020.html#a2bd026e829a41663810ae68fa3797987" target="_top" xlink:title="discovery_free_aid">
<polygon fill="none" stroke="black" points="775.5,-304.5 775.5,-323.5 873.5,-323.5 873.5,-304.5 775.5,-304.5"/>
<text text-anchor="middle" x="824.5" y="-311.5" font-family="Helvetica,sans-Serif" font-size="10.00">discovery_free_aid</text>
</a>
</g>
</g>
<!-- Node32&#45;&gt;Node33 -->
<g id="edge50" class="edge"><title>Node32&#45;&gt;Node33</title>
<path fill="none" stroke="midnightblue" d="M252.206,-314C366.941,-314 644.037,-314 765.175,-314"/>
<polygon fill="midnightblue" stroke="midnightblue" points="765.362,-317.5 775.362,-314 765.362,-310.5 765.362,-317.5"/>
</g>
<!-- Node33&#45;&gt;Node6 -->
<g id="edge51" class="edge"><title>Node33&#45;&gt;Node6</title>
<path fill="none" stroke="midnightblue" d="M873.623,-312.429C991.532,-308.58 1291.77,-298.778 1381.68,-295.843"/>
<polygon fill="midnightblue" stroke="midnightblue" points="1381.92,-299.337 1391.8,-295.512 1381.69,-292.341 1381.92,-299.337"/>
</g>
</g>
</svg>
        <g id="navigator" transform="translate(0 0)" fill="#404254">
                <rect fill="#f2f5e9" fill-opacity="0.5" stroke="#606060" stroke-width=".5" x="0" y="0" width="60" height="60"/>
                <use id="zoomplus" xlink:href="#zoomPlus" x="17" y="9" onmousedown="handleZoom(evt,'in')"/>
                <use id="zoomminus" xlink:href="#zoomMin" x="42" y="9" onmousedown="handleZoom(evt,'out')"/>
                <use id="reset" xlink:href="#resetDef" x="30" y="36" onmousedown="handleReset()"/>
                <g id="arrowUp" xlink:href="#dirArrow" transform="translate(30 24)" onmousedown="handlePan(0,-1)">
                  <use xlink:href="#rim" fill="#404040">
                        <set attributeName="fill" to="#808080" begin="arrowUp.mouseover" end="arrowUp.mouseout"/>
                  </use>
                  <path fill="none" stroke="white" stroke-width="1.5" d="M0,-3.0v7 M-2.5,-0.5L0,-3.0L2.5,-0.5"/>
                </g>
                <g id="arrowRight" xlink:href="#dirArrow" transform="rotate(90) translate(36 -43)" onmousedown="handlePan(1,0)">
                  <use xlink:href="#rim" fill="#404040">
                        <set attributeName="fill" to="#808080" begin="arrowRight.mouseover" end="arrowRight.mouseout"/>
                  </use>
                  <path fill="none" stroke="white" stroke-width="1.5" d="M0,-3.0v7 M-2.5,-0.5L0,-3.0L2.5,-0.5"/>
                </g>
                <g id="arrowDown" xlink:href="#dirArrow" transform="rotate(180) translate(-30 -48)" onmousedown="handlePan(0,1)">
                  <use xlink:href="#rim" fill="#404040">
                        <set attributeName="fill" to="#808080" begin="arrowDown.mouseover" end="arrowDown.mouseout"/>
                  </use>
                  <path fill="none" stroke="white" stroke-width="1.5" d="M0,-3.0v7 M-2.5,-0.5L0,-3.0L2.5,-0.5"/>
                </g>
                <g id="arrowLeft" xlink:href="#dirArrow" transform="rotate(270) translate(-36 17)" onmousedown="handlePan(-1,0)">
                  <use xlink:href="#rim" fill="#404040">
                        <set attributeName="fill" to="#808080" begin="arrowLeft.mouseover" end="arrowLeft.mouseout"/>
                  </use>
                  <path fill="none" stroke="white" stroke-width="1.5" d="M0,-3.0v7 M-2.5,-0.5L0,-3.0L2.5,-0.5"/>
                </g>
        </g>
        <svg viewBox="0 0 15 15" width="100%" height="30px" preserveAspectRatio="xMaxYMin meet">
         <g id="arrow_out" transform="scale(0.3 0.3)">
          <a xlink:href="a00013_a1a305bf3b6bebda2ca16c8adcdb95239_cgraph_org.svg" target="_base">
           <rect id="button" ry="5" rx="5" y="6" x="6" height="38" width="38"
                fill="#f2f5e9" fill-opacity="0.5" stroke="#606060" stroke-width="1.0"/>
           <path id="arrow"
             d="M 11.500037,31.436501 C 11.940474,20.09759 22.043105,11.32322 32.158766,21.979434 L 37.068811,17.246167 C 37.068811,17.246167 37.088388,32 37.088388,32 L 22.160133,31.978069 C 22.160133,31.978069 26.997745,27.140456 26.997745,27.140456 C 18.528582,18.264221 13.291696,25.230495 11.500037,31.436501 z"
             style="fill:#404040;"/>
          </a>
         </g>
        </svg>
</svg>
