<?xml version="1.0" encoding="UTF-8" standalone="no"?>
<!DOCTYPE svg PUBLIC "-//W3C//DTD SVG 1.1//EN"
 "http://www.w3.org/Graphics/SVG/1.1/DTD/svg11.dtd">
<!-- Generated by graphviz version 2.38.0 (20140413.2041)
 -->
<!-- Title: hpd_value_copy Pages: 1 -->
<!--zoomable 256 -->
<svg id="main" version="1.1" xmlns="http://www.w3.org/2000/svg" xmlns:xlink="http://www.w3.org/1999/xlink" xml:space="preserve" onload="init(evt)">
<style type="text/css"><![CDATA[
.edge:hover path { stroke: red; }
.edge:hover polygon { stroke: red; fill: red; }
]]></style>
<script type="text/javascript"><![CDATA[
var edges = document.getElementsByTagName('g');
if (edges && edges.length) {
  for (var i=0;i<edges.length;i++) {
    if (edges[i].id.substr(0,4)=='edge') {
      edges[i].setAttribute('class','edge');
    }
  }
}
]]></script>
        <defs>
                <circle id="rim" cx="0" cy="0" r="7"/>
                <circle id="rim2" cx="0" cy="0" r="3.5"/>
                <g id="zoomPlus">
                        <use xlink:href="#rim" fill="#404040">
                                <set attributeName="fill" to="#808080" begin="zoomplus.mouseover" end="zoomplus.mouseout"/>
                        </use>
                        <path d="M-4,0h8M0,-4v8" fill="none" stroke="white" stroke-width="1.5" pointer-events="none"/>
                </g>
                <g id="zoomMin">
                        <use xlink:href="#rim" fill="#404040">
                                <set attributeName="fill" to="#808080" begin="zoomminus.mouseover" end="zoomminus.mouseout"/>
                        </use>
                        <path d="M-4,0h8" fill="none" stroke="white" stroke-width="1.5" pointer-events="none"/>
                </g>
                <g id="dirArrow">
                        <path fill="none" stroke="white" stroke-width="1.5" d="M0,-3.0v7 M-2.5,-0.5L0,-3.0L2.5,-0.5"/>
                </g>
               <g id="resetDef">
                       <use xlink:href="#rim2" fill="#404040">
                               <set attributeName="fill" to="#808080" begin="reset.mouseover" end="reset.mouseout"/>
                       </use>
               </g>
        </defs>

<script type="text/javascript">
var viewWidth = 757;
var viewHeight = 256;
var sectionId = 'dynsection-87';
</script>
<script xlink:href="svgpan.js"/>
<svg id="graph" class="graph">
<g id="viewport">
<title>hpd_value_copy</title>
<!-- Node1 -->
<g id="node1" class="node"><title>Node1</title>
<polygon fill="#bfbfbf" stroke="black" points="0,-133.5 0,-152.5 87,-152.5 87,-133.5 0,-133.5"/>
<text text-anchor="middle" x="43.5" y="-140.5" font-family="Helvetica,sans-Serif" font-size="10.00">hpd_value_copy</text>
</g>
<!-- Node2 -->
<g id="node2" class="node"><title>Node2</title>
<g id="a_node2"><a xlink:href="a00090.html#acb46c0254b5e6856197be334a0a058ad" target="_top" xlink:title="value_copy">
<polygon fill="none" stroke="black" points="123,-133.5 123,-152.5 189,-152.5 189,-133.5 123,-133.5"/>
<text text-anchor="middle" x="156" y="-140.5" font-family="Helvetica,sans-Serif" font-size="10.00">value_copy</text>
</a>
</g>
</g>
<!-- Node1&#45;&gt;Node2 -->
<g id="edge1" class="edge"><title>Node1&#45;&gt;Node2</title>
<path fill="none" stroke="midnightblue" d="M87.2222,-143C95.5064,-143 104.187,-143 112.465,-143"/>
<polygon fill="midnightblue" stroke="midnightblue" points="112.676,-146.5 122.676,-143 112.676,-139.5 112.676,-146.5"/>
</g>
<!-- Node3 -->
<g id="node3" class="node"><title>Node3</title>
<g id="a_node3"><a xlink:href="a00090.html#a9e0cbc30fcd2121d212f1995c8e834ba" target="_top" xlink:title="value_alloc">
<polygon fill="none" stroke="black" points="239,-190.5 239,-209.5 304,-209.5 304,-190.5 239,-190.5"/>
<text text-anchor="middle" x="271.5" y="-197.5" font-family="Helvetica,sans-Serif" font-size="10.00">value_alloc</text>
</a>
</g>
</g>
<!-- Node2&#45;&gt;Node3 -->
<g id="edge2" class="edge"><title>Node2&#45;&gt;Node3</title>
<path fill="none" stroke="midnightblue" d="M175.997,-152.541C194.166,-161.665 221.784,-175.534 242.478,-185.927"/>
<polygon fill="midnightblue" stroke="midnightblue" points="240.934,-189.068 251.441,-190.428 244.075,-182.813 240.934,-189.068"/>
</g>
<!-- Node6 -->
<g id="node6" class="node"><title>Node6</title>
<g id="a_node6"><a xlink:href="a00090.html#a1ec3b1d4547e5080bcec544c877852da" target="_top" xlink:title="value_free">
<polygon fill="none" stroke="black" points="364,-152.5 364,-171.5 426,-171.5 426,-152.5 364,-152.5"/>
<text text-anchor="middle" x="395" y="-159.5" font-family="Helvetica,sans-Serif" font-size="10.00">value_free</text>
</a>
</g>
</g>
<!-- Node2&#45;&gt;Node6 -->
<g id="edge12" class="edge"><title>Node2&#45;&gt;Node6</title>
<path fill="none" stroke="midnightblue" d="M189.457,-145.602C232.24,-149.032 307.489,-155.065 353.817,-158.779"/>
<polygon fill="midnightblue" stroke="midnightblue" points="353.558,-162.269 363.806,-159.579 354.118,-155.291 353.558,-162.269"/>
</g>
<!-- Node9 -->
<g id="node9" class="node"><title>Node9</title>
<g id="a_node9"><a xlink:href="a00056.html#a234fa0db60fda58722702273bf7e82a2" target="_top" xlink:title="hpd_pair_get">
<polygon fill="none" stroke="black" points="235.5,-114.5 235.5,-133.5 307.5,-133.5 307.5,-114.5 235.5,-114.5"/>
<text text-anchor="middle" x="271.5" y="-121.5" font-family="Helvetica,sans-Serif" font-size="10.00">hpd_pair_get</text>
</a>
</g>
</g>
<!-- Node2&#45;&gt;Node9 -->
<g id="edge11" class="edge"><title>Node2&#45;&gt;Node9</title>
<path fill="none" stroke="midnightblue" d="M189.221,-137.606C200.485,-135.721 213.346,-133.568 225.463,-131.539"/>
<polygon fill="midnightblue" stroke="midnightblue" points="226.129,-134.977 235.414,-129.873 224.973,-128.073 226.129,-134.977"/>
</g>
<!-- Node10 -->
<g id="node10" class="node"><title>Node10</title>
<g id="a_node10"><a xlink:href="a00090.html#a8e74f34c0eb423e170161eadec463df3" target="_top" xlink:title="value_set_header">
<polygon fill="none" stroke="black" points="225,-76.5 225,-95.5 318,-95.5 318,-76.5 225,-76.5"/>
<text text-anchor="middle" x="271.5" y="-83.5" font-family="Helvetica,sans-Serif" font-size="10.00">value_set_header</text>
</a>
</g>
</g>
<!-- Node2&#45;&gt;Node10 -->
<g id="edge13" class="edge"><title>Node2&#45;&gt;Node10</title>
<path fill="none" stroke="midnightblue" d="M172.937,-133.413C186.546,-125.392 206.757,-113.871 225,-105 228.811,-103.147 232.849,-101.3 236.884,-99.5266"/>
<polygon fill="midnightblue" stroke="midnightblue" points="238.365,-102.7 246.186,-95.5522 235.615,-96.2629 238.365,-102.7"/>
</g>
<!-- Node4 -->
<g id="node4" class="node"><title>Node4</title>
<g id="a_node4"><a xlink:href="a00056.html#a8d23b888fb4bb3f951c7d48f1928ee9a" target="_top" xlink:title="hpd_map_alloc">
<polygon fill="none" stroke="black" points="354,-228.5 354,-247.5 436,-247.5 436,-228.5 354,-228.5"/>
<text text-anchor="middle" x="395" y="-235.5" font-family="Helvetica,sans-Serif" font-size="10.00">hpd_map_alloc</text>
</a>
</g>
</g>
<!-- Node3&#45;&gt;Node4 -->
<g id="edge3" class="edge"><title>Node3&#45;&gt;Node4</title>
<path fill="none" stroke="midnightblue" d="M303.16,-209.589C318.412,-214.359 337.051,-220.189 353.467,-225.323"/>
<polygon fill="midnightblue" stroke="midnightblue" points="352.761,-228.769 363.35,-228.414 354.851,-222.089 352.761,-228.769"/>
</g>
<!-- Node5 -->
<g id="node5" class="node"><title>Node5</title>
<g id="a_node5"><a xlink:href="a00012.html#adf46370d9c211c3be22966b4606ba9b0" target="_top" xlink:title="free">
<polygon fill="none" stroke="black" points="716,-114.5 716,-133.5 749,-133.5 749,-114.5 716,-114.5"/>
<text text-anchor="middle" x="732.5" y="-121.5" font-family="Helvetica,sans-Serif" font-size="10.00">free</text>
</a>
</g>
</g>
<!-- Node3&#45;&gt;Node5 -->
<g id="edge4" class="edge"><title>Node3&#45;&gt;Node5</title>
<path fill="none" stroke="midnightblue" d="M304.067,-201.983C374.109,-205.292 546.847,-207.393 680,-159 691.857,-154.691 703.606,-147.037 712.882,-139.983"/>
<polygon fill="midnightblue" stroke="midnightblue" points="715.32,-142.515 720.94,-133.533 710.945,-137.05 715.32,-142.515"/>
</g>
<!-- Node3&#45;&gt;Node6 -->
<g id="edge5" class="edge"><title>Node3&#45;&gt;Node6</title>
<path fill="none" stroke="midnightblue" d="M303.16,-190.411C318.529,-185.604 337.336,-179.722 353.842,-174.56"/>
<polygon fill="midnightblue" stroke="midnightblue" points="355.272,-177.78 363.771,-171.454 353.182,-171.099 355.272,-177.78"/>
</g>
<!-- Node6&#45;&gt;Node5 -->
<g id="edge10" class="edge"><title>Node6&#45;&gt;Node5</title>
<path fill="none" stroke="midnightblue" d="M426.079,-161.245C478.171,-159.541 588.394,-154.184 680,-138 688.597,-136.481 697.841,-134.184 706.093,-131.887"/>
<polygon fill="midnightblue" stroke="midnightblue" points="707.266,-135.191 715.889,-129.036 705.31,-128.47 707.266,-135.191"/>
</g>
<!-- Node7 -->
<g id="node7" class="node"><title>Node7</title>
<g id="a_node7"><a xlink:href="a00056.html#a195d511a075f2349200563af1c5d1fd7" target="_top" xlink:title="hpd_map_free">
<polygon fill="none" stroke="black" points="472,-114.5 472,-133.5 550,-133.5 550,-114.5 472,-114.5"/>
<text text-anchor="middle" x="511" y="-121.5" font-family="Helvetica,sans-Serif" font-size="10.00">hpd_map_free</text>
</a>
</g>
</g>
<!-- Node6&#45;&gt;Node7 -->
<g id="edge6" class="edge"><title>Node6&#45;&gt;Node7</title>
<path fill="none" stroke="midnightblue" d="M424.767,-152.411C438.943,-147.686 456.237,-141.921 471.532,-136.823"/>
<polygon fill="midnightblue" stroke="midnightblue" points="472.862,-140.069 481.242,-133.586 470.649,-133.428 472.862,-140.069"/>
</g>
<!-- Node7&#45;&gt;Node5 -->
<g id="edge9" class="edge"><title>Node7&#45;&gt;Node5</title>
<path fill="none" stroke="midnightblue" d="M550.234,-124C594.728,-124 666.997,-124 705.468,-124"/>
<polygon fill="midnightblue" stroke="midnightblue" points="705.813,-127.5 715.813,-124 705.813,-120.5 705.813,-127.5"/>
</g>
<!-- Node8 -->
<g id="node8" class="node"><title>Node8</title>
<g id="a_node8"><a xlink:href="a00031.html#ae1085dd4fd40466d18b02ec077ef4d6d" target="_top" xlink:title="hpd_map_remove">
<polygon fill="none" stroke="black" points="586,-76.5 586,-95.5 680,-95.5 680,-76.5 586,-76.5"/>
<text text-anchor="middle" x="633" y="-83.5" font-family="Helvetica,sans-Serif" font-size="10.00">hpd_map_remove</text>
</a>
</g>
</g>
<!-- Node7&#45;&gt;Node8 -->
<g id="edge7" class="edge"><title>Node7&#45;&gt;Node8</title>
<path fill="none" stroke="midnightblue" d="M542.281,-114.411C557.346,-109.641 575.754,-103.811 591.967,-98.6771"/>
<polygon fill="midnightblue" stroke="midnightblue" points="593.252,-101.942 601.729,-95.5859 591.139,-95.2682 593.252,-101.942"/>
</g>
<!-- Node8&#45;&gt;Node5 -->
<g id="edge8" class="edge"><title>Node8&#45;&gt;Node5</title>
<path fill="none" stroke="midnightblue" d="M658.603,-95.589C673.179,-101.27 691.608,-108.452 706.289,-114.174"/>
<polygon fill="midnightblue" stroke="midnightblue" points="705.172,-117.495 715.76,-117.866 707.714,-110.973 705.172,-117.495"/>
</g>
<!-- Node11 -->
<g id="node11" class="node"><title>Node11</title>
<g id="a_node11"><a xlink:href="a00056.html#a230c25a2f8e5de7ce61623a4ce8a809f" target="_top" xlink:title="hpd_map_set">
<polygon fill="none" stroke="black" points="473.5,-57.5 473.5,-76.5 548.5,-76.5 548.5,-57.5 473.5,-57.5"/>
<text text-anchor="middle" x="511" y="-64.5" font-family="Helvetica,sans-Serif" font-size="10.00">hpd_map_set</text>
</a>
</g>
</g>
<!-- Node10&#45;&gt;Node11 -->
<g id="edge14" class="edge"><title>Node10&#45;&gt;Node11</title>
<path fill="none" stroke="midnightblue" d="M318.011,-82.3591C359.696,-79.0243 421.134,-74.1093 463.215,-70.7428"/>
<polygon fill="midnightblue" stroke="midnightblue" points="463.519,-74.2298 473.208,-69.9434 462.96,-67.2521 463.519,-74.2298"/>
</g>
<!-- Node11&#45;&gt;Node8 -->
<g id="edge15" class="edge"><title>Node11&#45;&gt;Node8</title>
<path fill="none" stroke="midnightblue" d="M548.656,-72.8039C557.261,-74.1663 566.625,-75.6489 575.866,-77.1121"/>
<polygon fill="midnightblue" stroke="midnightblue" points="575.379,-80.5785 585.803,-78.6855 576.474,-73.6647 575.379,-80.5785"/>
</g>
<!-- Node12 -->
<g id="node12" class="node"><title>Node12</title>
<g id="a_node12"><a xlink:href="a00031.html#a68e8a71a4dc9b51ca36d2389ed89b336" target="_top" xlink:title="map_insert">
<polygon fill="none" stroke="black" points="600.5,-38.5 600.5,-57.5 665.5,-57.5 665.5,-38.5 600.5,-38.5"/>
<text text-anchor="middle" x="633" y="-45.5" font-family="Helvetica,sans-Serif" font-size="10.00">map_insert</text>
</a>
</g>
</g>
<!-- Node11&#45;&gt;Node12 -->
<g id="edge16" class="edge"><title>Node11&#45;&gt;Node12</title>
<path fill="none" stroke="midnightblue" d="M548.656,-61.1961C561.838,-59.109 576.801,-56.7398 590.375,-54.5906"/>
<polygon fill="midnightblue" stroke="midnightblue" points="591.103,-58.0191 600.432,-52.9982 590.008,-51.1052 591.103,-58.0191"/>
</g>
<!-- Node13 -->
<g id="node13" class="node"><title>Node13</title>
<g id="a_node13"><a xlink:href="a00031.html#ac16b47a5d68b6eaae2e709e1888982fd" target="_top" xlink:title="map_replace">
<polygon fill="none" stroke="black" points="597,-0.5 597,-19.5 669,-19.5 669,-0.5 597,-0.5"/>
<text text-anchor="middle" x="633" y="-7.5" font-family="Helvetica,sans-Serif" font-size="10.00">map_replace</text>
</a>
</g>
</g>
<!-- Node11&#45;&gt;Node13 -->
<g id="edge18" class="edge"><title>Node11&#45;&gt;Node13</title>
<path fill="none" stroke="midnightblue" d="M529.739,-57.3665C544.604,-49.4215 566.468,-38.0301 586,-29 589.882,-27.2052 593.983,-25.3941 598.073,-23.6401"/>
<polygon fill="midnightblue" stroke="midnightblue" points="599.623,-26.7853 607.487,-19.6857 596.912,-20.3316 599.623,-26.7853"/>
</g>
<!-- Node12&#45;&gt;Node5 -->
<g id="edge17" class="edge"><title>Node12&#45;&gt;Node5</title>
<path fill="none" stroke="midnightblue" d="M662.766,-57.5703C668.725,-60.1754 674.773,-63.3168 680,-67 695.264,-77.7566 709.237,-93.7978 718.765,-106.125"/>
<polygon fill="midnightblue" stroke="midnightblue" points="716.089,-108.391 724.872,-114.316 721.701,-104.207 716.089,-108.391"/>
</g>
</g>
</svg>
        <g id="navigator" transform="translate(0 0)" fill="#404254">
                <rect fill="#f2f5e9" fill-opacity="0.5" stroke="#606060" stroke-width=".5" x="0" y="0" width="60" height="60"/>
                <use id="zoomplus" xlink:href="#zoomPlus" x="17" y="9" onmousedown="handleZoom(evt,'in')"/>
                <use id="zoomminus" xlink:href="#zoomMin" x="42" y="9" onmousedown="handleZoom(evt,'out')"/>
                <use id="reset" xlink:href="#resetDef" x="30" y="36" onmousedown="handleReset()"/>
                <g id="arrowUp" xlink:href="#dirArrow" transform="translate(30 24)" onmousedown="handlePan(0,-1)">
                  <use xlink:href="#rim" fill="#404040">
                        <set attributeName="fill" to="#808080" begin="arrowUp.mouseover" end="arrowUp.mouseout"/>
                  </use>
                  <path fill="none" stroke="white" stroke-width="1.5" d="M0,-3.0v7 M-2.5,-0.5L0,-3.0L2.5,-0.5"/>
                </g>
                <g id="arrowRight" xlink:href="#dirArrow" transform="rotate(90) translate(36 -43)" onmousedown="handlePan(1,0)">
                  <use xlink:href="#rim" fill="#404040">
                        <set attributeName="fill" to="#808080" begin="arrowRight.mouseover" end="arrowRight.mouseout"/>
                  </use>
                  <path fill="none" stroke="white" stroke-width="1.5" d="M0,-3.0v7 M-2.5,-0.5L0,-3.0L2.5,-0.5"/>
                </g>
                <g id="arrowDown" xlink:href="#dirArrow" transform="rotate(180) translate(-30 -48)" onmousedown="handlePan(0,1)">
                  <use xlink:href="#rim" fill="#404040">
                        <set attributeName="fill" to="#808080" begin="arrowDown.mouseover" end="arrowDown.mouseout"/>
                  </use>
                  <path fill="none" stroke="white" stroke-width="1.5" d="M0,-3.0v7 M-2.5,-0.5L0,-3.0L2.5,-0.5"/>
                </g>
                <g id="arrowLeft" xlink:href="#dirArrow" transform="rotate(270) translate(-36 17)" onmousedown="handlePan(-1,0)">
                  <use xlink:href="#rim" fill="#404040">
                        <set attributeName="fill" to="#808080" begin="arrowLeft.mouseover" end="arrowLeft.mouseout"/>
                  </use>
                  <path fill="none" stroke="white" stroke-width="1.5" d="M0,-3.0v7 M-2.5,-0.5L0,-3.0L2.5,-0.5"/>
                </g>
        </g>
        <svg viewBox="0 0 15 15" width="100%" height="30px" preserveAspectRatio="xMaxYMin meet">
         <g id="arrow_out" transform="scale(0.3 0.3)">
          <a xlink:href="a00075_a8b5be61f356ac1d72634654e16794610_cgraph_org.svg" target="_base">
           <rect id="button" ry="5" rx="5" y="6" x="6" height="38" width="38"
                fill="#f2f5e9" fill-opacity="0.5" stroke="#606060" stroke-width="1.0"/>
           <path id="arrow"
             d="M 11.500037,31.436501 C 11.940474,20.09759 22.043105,11.32322 32.158766,21.979434 L 37.068811,17.246167 C 37.068811,17.246167 37.088388,32 37.088388,32 L 22.160133,31.978069 C 22.160133,31.978069 26.997745,27.140456 26.997745,27.140456 C 18.528582,18.264221 13.291696,25.230495 11.500037,31.436501 z"
             style="fill:#404040;"/>
          </a>
         </g>
        </svg>
</svg>
