<?xml version="1.0" encoding="UTF-8" standalone="no"?>
<!DOCTYPE svg PUBLIC "-//W3C//DTD SVG 1.1//EN"
 "http://www.w3.org/Graphics/SVG/1.1/DTD/svg11.dtd">
<!-- Generated by graphviz version 2.38.0 (20140413.2041)
 -->
<!-- Title: discovery_get_action_method Pages: 1 -->
<svg width="2007pt" height="66pt"
 viewBox="0.00 0.00 2007.00 66.00" xmlns="http://www.w3.org/2000/svg" xmlns:xlink="http://www.w3.org/1999/xlink">
<g id="graph0" class="graph" transform="scale(1 1) rotate(0) translate(4 62)">
<title>discovery_get_action_method</title>
<!-- Node1 -->
<g id="node1" class="node"><title>Node1</title>
<polygon fill="#bfbfbf" stroke="black" points="0,-14 0,-44 109,-44 109,-14 0,-14"/>
<text text-anchor="start" x="8" y="-32" font-family="Helvetica,sans-Serif" font-size="10.00">discovery_get_action</text>
<text text-anchor="middle" x="54.5" y="-21" font-family="Helvetica,sans-Serif" font-size="10.00">_method</text>
</g>
<!-- Node2 -->
<g id="node2" class="node"><title>Node2</title>
<g id="a_node2"><a xlink:href="a00079.html#a7a562b3767c599041b288d9aeb5cf487" target="_top" xlink:title="[model foreach loops] ">
<polygon fill="none" stroke="black" points="145,-19.5 145,-38.5 265,-38.5 265,-19.5 145,-19.5"/>
<text text-anchor="middle" x="205" y="-26.5" font-family="Helvetica,sans-Serif" font-size="10.00">hpd_action_get_method</text>
</a>
</g>
</g>
<!-- Node1&#45;&gt;Node2 -->
<g id="edge1" class="edge"><title>Node1&#45;&gt;Node2</title>
<path fill="none" stroke="midnightblue" d="M119.351,-29C127.846,-29 136.527,-29 144.936,-29"/>
<polygon fill="midnightblue" stroke="midnightblue" points="119.112,-25.5001 109.112,-29 119.112,-32.5001 119.112,-25.5001"/>
</g>
<!-- Node3 -->
<g id="node3" class="node"><title>Node3</title>
<g id="a_node3"><a xlink:href="a00096.html#aa6c7dd70ed7b9b3a371a58ed6122b940" target="_top" xlink:title="rest_json_add_service">
<polygon fill="none" stroke="black" points="301,-38.5 301,-57.5 415,-57.5 415,-38.5 301,-38.5"/>
<text text-anchor="middle" x="358" y="-45.5" font-family="Helvetica,sans-Serif" font-size="10.00">rest_json_add_service</text>
</a>
</g>
</g>
<!-- Node2&#45;&gt;Node3 -->
<g id="edge2" class="edge"><title>Node2&#45;&gt;Node3</title>
<path fill="none" stroke="midnightblue" d="M275.249,-37.7134C283.835,-38.7938 292.53,-39.8879 300.886,-40.9392"/>
<polygon fill="midnightblue" stroke="midnightblue" points="275.605,-34.2307 265.246,-36.4548 274.731,-41.1759 275.605,-34.2307"/>
</g>
<!-- Node14 -->
<g id="node14" class="node"><title>Node14</title>
<g id="a_node14"><a xlink:href="a00098.html#a8a91d98306eb64c151d1c19465421c0c" target="_top" xlink:title="rest_xml_add_service">
<polygon fill="none" stroke="black" points="454.5,-0.5 454.5,-19.5 566.5,-19.5 566.5,-0.5 454.5,-0.5"/>
<text text-anchor="middle" x="510.5" y="-7.5" font-family="Helvetica,sans-Serif" font-size="10.00">rest_xml_add_service</text>
</a>
</g>
</g>
<!-- Node2&#45;&gt;Node14 -->
<g id="edge13" class="edge"><title>Node2&#45;&gt;Node14</title>
<path fill="none" stroke="midnightblue" d="M275.478,-24.6505C329.796,-21.25 404.273,-16.5875 454.497,-13.4433"/>
<polygon fill="midnightblue" stroke="midnightblue" points="275,-21.1734 265.238,-25.2915 275.438,-28.1598 275,-21.1734"/>
</g>
<!-- Node4 -->
<g id="node4" class="node"><title>Node4</title>
<g id="a_node4"><a xlink:href="a00096.html#acedf1d82686baa037179bbc8eff51293" target="_top" xlink:title="rest_json_add_services">
<polygon fill="none" stroke="black" points="451,-38.5 451,-57.5 570,-57.5 570,-38.5 451,-38.5"/>
<text text-anchor="middle" x="510.5" y="-45.5" font-family="Helvetica,sans-Serif" font-size="10.00">rest_json_add_services</text>
</a>
</g>
</g>
<!-- Node3&#45;&gt;Node4 -->
<g id="edge3" class="edge"><title>Node3&#45;&gt;Node4</title>
<path fill="none" stroke="midnightblue" d="M425.043,-48C433.65,-48 442.421,-48 450.895,-48"/>
<polygon fill="midnightblue" stroke="midnightblue" points="425.041,-44.5001 415.041,-48 425.041,-51.5001 425.041,-44.5001"/>
</g>
<!-- Node5 -->
<g id="node5" class="node"><title>Node5</title>
<g id="a_node5"><a xlink:href="a00096.html#a41c2f37e46c89b97a3b4f5bb4e8ede49" target="_top" xlink:title="rest_json_add_device">
<polygon fill="none" stroke="black" points="606,-38.5 606,-57.5 717,-57.5 717,-38.5 606,-38.5"/>
<text text-anchor="middle" x="661.5" y="-45.5" font-family="Helvetica,sans-Serif" font-size="10.00">rest_json_add_device</text>
</a>
</g>
</g>
<!-- Node4&#45;&gt;Node5 -->
<g id="edge4" class="edge"><title>Node4&#45;&gt;Node5</title>
<path fill="none" stroke="midnightblue" d="M580.652,-48C589.128,-48 597.697,-48 605.917,-48"/>
<polygon fill="midnightblue" stroke="midnightblue" points="580.389,-44.5001 570.389,-48 580.389,-51.5001 580.389,-44.5001"/>
</g>
<!-- Node6 -->
<g id="node6" class="node"><title>Node6</title>
<g id="a_node6"><a xlink:href="a00096.html#ad6d08cc22d78268f5dc0b229af37c54c" target="_top" xlink:title="rest_json_add_devices">
<polygon fill="none" stroke="black" points="753,-38.5 753,-57.5 869,-57.5 869,-38.5 753,-38.5"/>
<text text-anchor="middle" x="811" y="-45.5" font-family="Helvetica,sans-Serif" font-size="10.00">rest_json_add_devices</text>
</a>
</g>
</g>
<!-- Node5&#45;&gt;Node6 -->
<g id="edge5" class="edge"><title>Node5&#45;&gt;Node6</title>
<path fill="none" stroke="midnightblue" d="M727.252,-48C735.744,-48 744.398,-48 752.753,-48"/>
<polygon fill="midnightblue" stroke="midnightblue" points="727.005,-44.5001 717.004,-48 727.004,-51.5001 727.005,-44.5001"/>
</g>
<!-- Node7 -->
<g id="node7" class="node"><title>Node7</title>
<g id="a_node7"><a xlink:href="a00096.html#a640b87b4cf374466c27940092542bbec" target="_top" xlink:title="rest_json_add_adapter">
<polygon fill="none" stroke="black" points="915.5,-38.5 915.5,-57.5 1030.5,-57.5 1030.5,-38.5 915.5,-38.5"/>
<text text-anchor="middle" x="973" y="-45.5" font-family="Helvetica,sans-Serif" font-size="10.00">rest_json_add_adapter</text>
</a>
</g>
</g>
<!-- Node6&#45;&gt;Node7 -->
<g id="edge6" class="edge"><title>Node6&#45;&gt;Node7</title>
<path fill="none" stroke="midnightblue" d="M879.641,-48C891.535,-48 903.802,-48 915.357,-48"/>
<polygon fill="midnightblue" stroke="midnightblue" points="879.312,-44.5001 869.312,-48 879.312,-51.5001 879.312,-44.5001"/>
</g>
<!-- Node8 -->
<g id="node8" class="node"><title>Node8</title>
<g id="a_node8"><a xlink:href="a00096.html#a99b3728ca81ef813ed208afd6de9a9b3" target="_top" xlink:title="rest_json_add_adapters">
<polygon fill="none" stroke="black" points="1094.5,-38.5 1094.5,-57.5 1214.5,-57.5 1214.5,-38.5 1094.5,-38.5"/>
<text text-anchor="middle" x="1154.5" y="-45.5" font-family="Helvetica,sans-Serif" font-size="10.00">rest_json_add_adapters</text>
</a>
</g>
</g>
<!-- Node7&#45;&gt;Node8 -->
<g id="edge7" class="edge"><title>Node7&#45;&gt;Node8</title>
<path fill="none" stroke="midnightblue" d="M1040.94,-48C1058.46,-48 1077.21,-48 1094.29,-48"/>
<polygon fill="midnightblue" stroke="midnightblue" points="1040.79,-44.5001 1030.79,-48 1040.79,-51.5001 1040.79,-44.5001"/>
</g>
<!-- Node9 -->
<g id="node9" class="node"><title>Node9</title>
<g id="a_node9"><a xlink:href="a00096.html#a28e31077cb0239c2f21c335da42223e2" target="_top" xlink:title="rest_json_add_configuration">
<polygon fill="none" stroke="black" points="1268,-38.5 1268,-57.5 1406,-57.5 1406,-38.5 1268,-38.5"/>
<text text-anchor="middle" x="1337" y="-45.5" font-family="Helvetica,sans-Serif" font-size="10.00">rest_json_add_configuration</text>
</a>
</g>
</g>
<!-- Node8&#45;&gt;Node9 -->
<g id="edge8" class="edge"><title>Node8&#45;&gt;Node9</title>
<path fill="none" stroke="midnightblue" d="M1224.78,-48C1238.95,-48 1253.86,-48 1267.99,-48"/>
<polygon fill="midnightblue" stroke="midnightblue" points="1224.6,-44.5001 1214.6,-48 1224.6,-51.5001 1224.6,-44.5001"/>
</g>
<!-- Node10 -->
<g id="node10" class="node"><title>Node10</title>
<g id="a_node10"><a xlink:href="a00097.html#aeb80ec3253d248a129513864cdc53817" target="_top" xlink:title="hpd_rest_json_get_configuration">
<polygon fill="none" stroke="black" points="1442,-38.5 1442,-57.5 1599,-57.5 1599,-38.5 1442,-38.5"/>
<text text-anchor="middle" x="1520.5" y="-45.5" font-family="Helvetica,sans-Serif" font-size="10.00">hpd_rest_json_get_configuration</text>
</a>
</g>
</g>
<!-- Node9&#45;&gt;Node10 -->
<g id="edge9" class="edge"><title>Node9&#45;&gt;Node10</title>
<path fill="none" stroke="midnightblue" d="M1416.33,-48C1424.8,-48 1433.41,-48 1441.87,-48"/>
<polygon fill="midnightblue" stroke="midnightblue" points="1416.1,-44.5001 1406.1,-48 1416.1,-51.5001 1416.1,-44.5001"/>
</g>
<!-- Node11 -->
<g id="node11" class="node"><title>Node11</title>
<g id="a_node11"><a xlink:href="a00034.html#ac0f2724b4617f1adb53492f1a57a4e4b" target="_top" xlink:title="rest_reply_devices">
<polygon fill="none" stroke="black" points="1635,-19.5 1635,-38.5 1733,-38.5 1733,-19.5 1635,-19.5"/>
<text text-anchor="middle" x="1684" y="-26.5" font-family="Helvetica,sans-Serif" font-size="10.00">rest_reply_devices</text>
</a>
</g>
</g>
<!-- Node10&#45;&gt;Node11 -->
<g id="edge10" class="edge"><title>Node10&#45;&gt;Node11</title>
<path fill="none" stroke="midnightblue" d="M1609.62,-37.6334C1618.29,-36.6135 1626.84,-35.6071 1634.88,-34.6616"/>
<polygon fill="midnightblue" stroke="midnightblue" points="1608.93,-34.1894 1599.41,-38.8339 1609.75,-41.1415 1608.93,-34.1894"/>
</g>
<!-- Node12 -->
<g id="node12" class="node"><title>Node12</title>
<g id="a_node12"><a xlink:href="a00034.html#a2731aca6e6807e771bcf9c94dbec968c" target="_top" xlink:title="rest_on_req_hdr_cmpl">
<polygon fill="none" stroke="black" points="1769,-19.5 1769,-38.5 1882,-38.5 1882,-19.5 1769,-19.5"/>
<text text-anchor="middle" x="1825.5" y="-26.5" font-family="Helvetica,sans-Serif" font-size="10.00">rest_on_req_hdr_cmpl</text>
</a>
</g>
</g>
<!-- Node11&#45;&gt;Node12 -->
<g id="edge11" class="edge"><title>Node11&#45;&gt;Node12</title>
<path fill="none" stroke="midnightblue" d="M1743.17,-29C1751.63,-29 1760.32,-29 1768.72,-29"/>
<polygon fill="midnightblue" stroke="midnightblue" points="1743.01,-25.5001 1733.01,-29 1743.01,-32.5001 1743.01,-25.5001"/>
</g>
<!-- Node13 -->
<g id="node13" class="node"><title>Node13</title>
<g id="a_node13"><a xlink:href="a00034.html#a02090c3feb19ea4c6e1fa9b5e6392752" target="_top" xlink:title="rest_on_create">
<polygon fill="none" stroke="black" points="1918,-19.5 1918,-38.5 1999,-38.5 1999,-19.5 1918,-19.5"/>
<text text-anchor="middle" x="1958.5" y="-26.5" font-family="Helvetica,sans-Serif" font-size="10.00">rest_on_create</text>
</a>
</g>
</g>
<!-- Node12&#45;&gt;Node13 -->
<g id="edge12" class="edge"><title>Node12&#45;&gt;Node13</title>
<path fill="none" stroke="midnightblue" d="M1892.25,-29C1900.96,-29 1909.66,-29 1917.75,-29"/>
<polygon fill="midnightblue" stroke="midnightblue" points="1892.06,-25.5001 1882.06,-29 1892.06,-32.5001 1892.06,-25.5001"/>
</g>
<!-- Node15 -->
<g id="node15" class="node"><title>Node15</title>
<g id="a_node15"><a xlink:href="a00098.html#a1225e8ad884c053761d73179e1ee1855" target="_top" xlink:title="rest_xml_add_device">
<polygon fill="none" stroke="black" points="607,-0.5 607,-19.5 716,-19.5 716,-0.5 607,-0.5"/>
<text text-anchor="middle" x="661.5" y="-7.5" font-family="Helvetica,sans-Serif" font-size="10.00">rest_xml_add_device</text>
</a>
</g>
</g>
<!-- Node14&#45;&gt;Node15 -->
<g id="edge14" class="edge"><title>Node14&#45;&gt;Node15</title>
<path fill="none" stroke="midnightblue" d="M576.831,-10C586.794,-10 596.98,-10 606.66,-10"/>
<polygon fill="midnightblue" stroke="midnightblue" points="576.559,-6.5001 566.559,-10 576.559,-13.5001 576.559,-6.5001"/>
</g>
<!-- Node16 -->
<g id="node16" class="node"><title>Node16</title>
<g id="a_node16"><a xlink:href="a00098.html#a8a0a8fd989454b355fdaf3da1f129187" target="_top" xlink:title="rest_xml_add_adapter">
<polygon fill="none" stroke="black" points="754.5,-0.5 754.5,-19.5 867.5,-19.5 867.5,-0.5 754.5,-0.5"/>
<text text-anchor="middle" x="811" y="-7.5" font-family="Helvetica,sans-Serif" font-size="10.00">rest_xml_add_adapter</text>
</a>
</g>
</g>
<!-- Node15&#45;&gt;Node16 -->
<g id="edge15" class="edge"><title>Node15&#45;&gt;Node16</title>
<path fill="none" stroke="midnightblue" d="M726.455,-10C735.672,-10 745.097,-10 754.14,-10"/>
<polygon fill="midnightblue" stroke="midnightblue" points="726.168,-6.5001 716.168,-10 726.168,-13.5001 726.168,-6.5001"/>
</g>
<!-- Node17 -->
<g id="node17" class="node"><title>Node17</title>
<g id="a_node17"><a xlink:href="a00098.html#aca121ba7e7fc75cee1159bd654566d5e" target="_top" xlink:title="rest_xml_add_configuration">
<polygon fill="none" stroke="black" points="905,-0.5 905,-19.5 1041,-19.5 1041,-0.5 905,-0.5"/>
<text text-anchor="middle" x="973" y="-7.5" font-family="Helvetica,sans-Serif" font-size="10.00">rest_xml_add_configuration</text>
</a>
</g>
</g>
<!-- Node16&#45;&gt;Node17 -->
<g id="edge16" class="edge"><title>Node16&#45;&gt;Node17</title>
<path fill="none" stroke="midnightblue" d="M877.516,-10C886.494,-10 895.724,-10 904.733,-10"/>
<polygon fill="midnightblue" stroke="midnightblue" points="877.511,-6.5001 867.511,-10 877.511,-13.5001 877.511,-6.5001"/>
</g>
<!-- Node18 -->
<g id="node18" class="node"><title>Node18</title>
<g id="a_node18"><a xlink:href="a00099.html#a5f45c0580c596d22c41495ecc83e6e85" target="_top" xlink:title="hpd_rest_xml_get_configuration">
<polygon fill="none" stroke="black" points="1077,-0.5 1077,-19.5 1232,-19.5 1232,-0.5 1077,-0.5"/>
<text text-anchor="middle" x="1154.5" y="-7.5" font-family="Helvetica,sans-Serif" font-size="10.00">hpd_rest_xml_get_configuration</text>
</a>
</g>
</g>
<!-- Node17&#45;&gt;Node18 -->
<g id="edge17" class="edge"><title>Node17&#45;&gt;Node18</title>
<path fill="none" stroke="midnightblue" d="M1051.31,-10C1059.77,-10 1068.38,-10 1076.82,-10"/>
<polygon fill="midnightblue" stroke="midnightblue" points="1051.09,-6.5001 1041.09,-10 1051.09,-13.5001 1051.09,-6.5001"/>
</g>
<!-- Node18&#45;&gt;Node11 -->
<g id="edge18" class="edge"><title>Node18&#45;&gt;Node11</title>
<path fill="none" stroke="midnightblue" d="M1242.48,-13.1328C1354.69,-17.1746 1546.01,-24.0656 1634.93,-27.2686"/>
<polygon fill="midnightblue" stroke="midnightblue" points="1242.32,-9.62508 1232.2,-12.7628 1242.07,-16.6205 1242.32,-9.62508"/>
</g>
</g>
</svg>
