<?xml version="1.0" encoding="UTF-8" standalone="no"?>
<!DOCTYPE svg PUBLIC "-//W3C//DTD SVG 1.1//EN"
 "http://www.w3.org/Graphics/SVG/1.1/DTD/svg11.dtd">
<!-- Generated by graphviz version 2.38.0 (20140413.2041)
 -->
<!-- Title: discovery_set_service_action Pages: 1 -->
<svg width="598pt" height="78pt"
 viewBox="0.00 0.00 598.00 77.50" xmlns="http://www.w3.org/2000/svg" xmlns:xlink="http://www.w3.org/1999/xlink">
<g id="graph0" class="graph" transform="scale(1 1) rotate(0) translate(4 73.5)">
<title>discovery_set_service_action</title>
<!-- Node1 -->
<g id="node1" class="node"><title>Node1</title>
<polygon fill="#bfbfbf" stroke="black" points="0,-17 0,-47 114,-47 114,-17 0,-17"/>
<text text-anchor="start" x="8" y="-35" font-family="Helvetica,sans-Serif" font-size="10.00">discovery_set_service</text>
<text text-anchor="middle" x="57" y="-24" font-family="Helvetica,sans-Serif" font-size="10.00">_action</text>
</g>
<!-- Node2 -->
<g id="node2" class="node"><title>Node2</title>
<g id="a_node2"><a xlink:href="a00011.html#a643fa7550b6c59f0e1ac333ada9e9c34" target="_top" xlink:title="discovery_set_service\l_actions_v">
<polygon fill="none" stroke="black" points="152.5,-39 152.5,-69 266.5,-69 266.5,-39 152.5,-39"/>
<text text-anchor="start" x="160.5" y="-57" font-family="Helvetica,sans-Serif" font-size="10.00">discovery_set_service</text>
<text text-anchor="middle" x="209.5" y="-46" font-family="Helvetica,sans-Serif" font-size="10.00">_actions_v</text>
</a>
</g>
</g>
<!-- Node1&#45;&gt;Node2 -->
<g id="edge1" class="edge"><title>Node1&#45;&gt;Node2</title>
<path fill="none" stroke="midnightblue" d="M124.163,-41.6717C133.588,-43.0493 143.205,-44.4552 152.413,-45.8012"/>
<polygon fill="midnightblue" stroke="midnightblue" points="124.442,-38.1753 114.041,-40.192 123.429,-45.1017 124.442,-38.1753"/>
</g>
<!-- Node5 -->
<g id="node5" class="node"><title>Node5</title>
<g id="a_node5"><a xlink:href="a00060.html#a66883e77bc53793b588c5768621c477e" target="_top" xlink:title="hpd_service_set_action">
<polygon fill="none" stroke="black" points="150,-0.5 150,-19.5 269,-19.5 269,-0.5 150,-0.5"/>
<text text-anchor="middle" x="209.5" y="-7.5" font-family="Helvetica,sans-Serif" font-size="10.00">hpd_service_set_action</text>
</a>
</g>
</g>
<!-- Node1&#45;&gt;Node5 -->
<g id="edge4" class="edge"><title>Node1&#45;&gt;Node5</title>
<path fill="none" stroke="midnightblue" d="M124.043,-22.3459C132.65,-21.0877 141.421,-19.8056 149.895,-18.5668"/>
<polygon fill="midnightblue" stroke="midnightblue" points="123.429,-18.8983 114.041,-23.808 124.442,-25.8247 123.429,-18.8983"/>
</g>
<!-- Node3 -->
<g id="node3" class="node"><title>Node3</title>
<g id="a_node3"><a xlink:href="a00060.html#a8a4f9edb085f44b1eb5d9b31447f06c9" target="_top" xlink:title="hpd_service_set_actions">
<polygon fill="none" stroke="black" points="305,-44.5 305,-63.5 430,-63.5 430,-44.5 305,-44.5"/>
<text text-anchor="middle" x="367.5" y="-51.5" font-family="Helvetica,sans-Serif" font-size="10.00">hpd_service_set_actions</text>
</a>
</g>
</g>
<!-- Node2&#45;&gt;Node3 -->
<g id="edge2" class="edge"><title>Node2&#45;&gt;Node3</title>
<path fill="none" stroke="midnightblue" d="M276.837,-54C286.175,-54 295.742,-54 304.985,-54"/>
<polygon fill="midnightblue" stroke="midnightblue" points="276.82,-50.5001 266.82,-54 276.82,-57.5001 276.82,-50.5001"/>
</g>
<!-- Node4 -->
<g id="node4" class="node"><title>Node4</title>
<g id="a_node4"><a xlink:href="a00012.html#a723fb54ea3963ea674c9830e41a40e00" target="_top" xlink:title="hpd_demo_adapter_start">
<polygon fill="none" stroke="black" points="466,-44.5 466,-63.5 590,-63.5 590,-44.5 466,-44.5"/>
<text text-anchor="middle" x="528" y="-51.5" font-family="Helvetica,sans-Serif" font-size="10.00">hpd_demo_adapter_start</text>
</a>
</g>
</g>
<!-- Node3&#45;&gt;Node4 -->
<g id="edge3" class="edge"><title>Node3&#45;&gt;Node4</title>
<path fill="none" stroke="midnightblue" d="M440.239,-54C448.828,-54 457.537,-54 465.955,-54"/>
<polygon fill="midnightblue" stroke="midnightblue" points="440.234,-50.5001 430.234,-54 440.234,-57.5001 440.234,-50.5001"/>
</g>
</g>
</svg>
