<?xml version="1.0" encoding="UTF-8" standalone="no"?>
<!DOCTYPE svg PUBLIC "-//W3C//DTD SVG 1.1//EN"
 "http://www.w3.org/Graphics/SVG/1.1/DTD/svg11.dtd">
<!-- Generated by graphviz version 2.38.0 (20140413.2041)
 -->
<!-- Title: TEST Pages: 1 -->
<!--zoomable 703 -->
<svg id="main" version="1.1" xmlns="http://www.w3.org/2000/svg" xmlns:xlink="http://www.w3.org/1999/xlink" xml:space="preserve" onload="init(evt)">
<style type="text/css"><![CDATA[
.edge:hover path { stroke: red; }
.edge:hover polygon { stroke: red; fill: red; }
]]></style>
<script type="text/javascript"><![CDATA[
var edges = document.getElementsByTagName('g');
if (edges && edges.length) {
  for (var i=0;i<edges.length;i++) {
    if (edges[i].id.substr(0,4)=='edge') {
      edges[i].setAttribute('class','edge');
    }
  }
}
]]></script>
        <defs>
                <circle id="rim" cx="0" cy="0" r="7"/>
                <circle id="rim2" cx="0" cy="0" r="3.5"/>
                <g id="zoomPlus">
                        <use xlink:href="#rim" fill="#404040">
                                <set attributeName="fill" to="#808080" begin="zoomplus.mouseover" end="zoomplus.mouseout"/>
                        </use>
                        <path d="M-4,0h8M0,-4v8" fill="none" stroke="white" stroke-width="1.5" pointer-events="none"/>
                </g>
                <g id="zoomMin">
                        <use xlink:href="#rim" fill="#404040">
                                <set attributeName="fill" to="#808080" begin="zoomminus.mouseover" end="zoomminus.mouseout"/>
                        </use>
                        <path d="M-4,0h8" fill="none" stroke="white" stroke-width="1.5" pointer-events="none"/>
                </g>
                <g id="dirArrow">
                        <path fill="none" stroke="white" stroke-width="1.5" d="M0,-3.0v7 M-2.5,-0.5L0,-3.0L2.5,-0.5"/>
                </g>
               <g id="resetDef">
                       <use xlink:href="#rim2" fill="#404040">
                               <set attributeName="fill" to="#808080" begin="reset.mouseover" end="reset.mouseout"/>
                       </use>
               </g>
        </defs>

<script type="text/javascript">
var viewWidth = 1352;
var viewHeight = 703;
var sectionId = 'dynsection-13';
</script>
<script xlink:href="svgpan.js"/>
<svg id="graph" class="graph">
<g id="viewport">
<title>TEST</title>
<!-- Node1 -->
<g id="node1" class="node"><title>Node1</title>
<polygon fill="#bfbfbf" stroke="black" points="0,-85.5 0,-104.5 42,-104.5 42,-85.5 0,-85.5"/>
<text text-anchor="middle" x="21" y="-92.5" font-family="Helvetica,sans-Serif" font-size="10.00">TEST</text>
</g>
<!-- Node2 -->
<g id="node2" class="node"><title>Node2</title>
<g id="a_node2"><a xlink:href="a00055.html#a3d879947af1cc338c9bb9cf68fcce672" target="_top" xlink:title="[hpd_t functions] ">
<polygon fill="none" stroke="black" points="78,-323.5 78,-342.5 136,-342.5 136,-323.5 78,-323.5"/>
<text text-anchor="middle" x="107" y="-330.5" font-family="Helvetica,sans-Serif" font-size="10.00">hpd_alloc</text>
</a>
</g>
</g>
<!-- Node1&#45;&gt;Node2 -->
<g id="edge1" class="edge"><title>Node1&#45;&gt;Node2</title>
<path fill="none" stroke="midnightblue" d="M25.3969,-104.625C37.981,-140.28 82.0961,-265.272 99.175,-313.663"/>
<polygon fill="midnightblue" stroke="midnightblue" points="95.9321,-314.991 102.561,-323.256 102.533,-312.661 95.9321,-314.991"/>
</g>
<!-- Node6 -->
<g id="node6" class="node"><title>Node6</title>
<g id="a_node6"><a xlink:href="a00030.html#a548a458ce737e269e9cf95bdbdcdc12e" target="_top" xlink:title="stop_hpd">
<polygon fill="none" stroke="black" points="79,-0.5 79,-19.5 135,-19.5 135,-0.5 79,-0.5"/>
<text text-anchor="middle" x="107" y="-7.5" font-family="Helvetica,sans-Serif" font-size="10.00">stop_hpd</text>
</a>
</g>
</g>
<!-- Node1&#45;&gt;Node6 -->
<g id="edge5" class="edge"><title>Node1&#45;&gt;Node6</title>
<path fill="none" stroke="midnightblue" d="M30.3883,-85.1576C41.0526,-72.8136 60.2201,-51.1844 78,-34 80.7392,-31.3526 83.7176,-28.6393 86.6762,-26.0338"/>
<polygon fill="midnightblue" stroke="midnightblue" points="88.9721,-28.6756 94.2829,-19.5079 84.4143,-23.3628 88.9721,-28.6756"/>
</g>
<!-- Node9 -->
<g id="node9" class="node"><title>Node9</title>
<g id="a_node9"><a xlink:href="a00055.html#a4a5e670df4a5790a7955aaef5483c08a" target="_top" xlink:title="hpd_start">
<polygon fill="none" stroke="black" points="78.5,-133.5 78.5,-152.5 135.5,-152.5 135.5,-133.5 78.5,-133.5"/>
<text text-anchor="middle" x="107" y="-140.5" font-family="Helvetica,sans-Serif" font-size="10.00">hpd_start</text>
</a>
</g>
</g>
<!-- Node1&#45;&gt;Node9 -->
<g id="edge8" class="edge"><title>Node1&#45;&gt;Node9</title>
<path fill="none" stroke="midnightblue" d="M38.9987,-104.714C50.9176,-111.524 67.0601,-120.749 80.5138,-128.436"/>
<polygon fill="midnightblue" stroke="midnightblue" points="78.8943,-131.542 89.3133,-133.465 82.3674,-125.464 78.8943,-131.542"/>
</g>
<!-- Node26 -->
<g id="node26" class="node"><title>Node26</title>
<g id="a_node26"><a xlink:href="a00055.html#aa833627ad45d82173c0caf687cd30126" target="_top" xlink:title="hpd_free">
<polygon fill="none" stroke="black" points="454,-38.5 454,-57.5 508,-57.5 508,-38.5 454,-38.5"/>
<text text-anchor="middle" x="481" y="-45.5" font-family="Helvetica,sans-Serif" font-size="10.00">hpd_free</text>
</a>
</g>
</g>
<!-- Node1&#45;&gt;Node26 -->
<g id="edge47" class="edge"><title>Node1&#45;&gt;Node26</title>
<path fill="none" stroke="midnightblue" d="M42.2706,-92.9198C113.377,-85.6229 352.102,-61.1249 443.75,-51.72"/>
<polygon fill="midnightblue" stroke="midnightblue" points="444.334,-55.1785 453.925,-50.6758 443.62,-48.215 444.334,-55.1785"/>
</g>
<!-- Node3 -->
<g id="node3" class="node"><title>Node3</title>
<g id="a_node3"><a xlink:href="a00057.html#a9c4bde30e05010d189231e469da9336b" target="_top" xlink:title="daemon_alloc">
<polygon fill="none" stroke="black" points="172,-536.5 172,-555.5 249,-555.5 249,-536.5 172,-536.5"/>
<text text-anchor="middle" x="210.5" y="-543.5" font-family="Helvetica,sans-Serif" font-size="10.00">daemon_alloc</text>
</a>
</g>
</g>
<!-- Node2&#45;&gt;Node3 -->
<g id="edge2" class="edge"><title>Node2&#45;&gt;Node3</title>
<path fill="none" stroke="midnightblue" d="M112.625,-342.706C128.279,-375.556 179.46,-482.96 200.423,-526.951"/>
<polygon fill="midnightblue" stroke="midnightblue" points="197.386,-528.716 204.848,-536.237 203.706,-525.704 197.386,-528.716"/>
</g>
<!-- Node4 -->
<g id="node4" class="node"><title>Node4</title>
<g id="a_node4"><a xlink:href="a00057.html#a136e9884bcc5a6969066966324fd0493" target="_top" xlink:title="sig_cb">
<polygon fill="none" stroke="black" points="313,-536.5 313,-555.5 358,-555.5 358,-536.5 313,-536.5"/>
<text text-anchor="middle" x="335.5" y="-543.5" font-family="Helvetica,sans-Serif" font-size="10.00">sig_cb</text>
</a>
</g>
</g>
<!-- Node3&#45;&gt;Node4 -->
<g id="edge3" class="edge"><title>Node3&#45;&gt;Node4</title>
<path fill="none" stroke="midnightblue" d="M249.072,-546C266.227,-546 286.324,-546 302.714,-546"/>
<polygon fill="midnightblue" stroke="midnightblue" points="302.881,-549.5 312.881,-546 302.881,-542.5 302.881,-549.5"/>
</g>
<!-- Node5 -->
<g id="node5" class="node"><title>Node5</title>
<g id="a_node5"><a xlink:href="a00006.html#adf46370d9c211c3be22966b4606ba9b0" target="_top" xlink:title="free">
<polygon fill="none" stroke="black" points="1311,-361.5 1311,-380.5 1344,-380.5 1344,-361.5 1311,-361.5"/>
<text text-anchor="middle" x="1327.5" y="-368.5" font-family="Helvetica,sans-Serif" font-size="10.00">free</text>
</a>
</g>
</g>
<!-- Node3&#45;&gt;Node5 -->
<g id="edge4" class="edge"><title>Node3&#45;&gt;Node5</title>
<path fill="none" stroke="midnightblue" d="M220.696,-555.711C252.923,-588.637 365.029,-694 480,-694 480,-694 480,-694 1096.5,-694 1178.54,-694 1219.15,-707.087 1275,-647 1309.85,-609.508 1322.18,-447.758 1325.49,-390.876"/>
<polygon fill="midnightblue" stroke="midnightblue" points="1328.99,-390.864 1326.04,-380.688 1322,-390.481 1328.99,-390.864"/>
</g>
<!-- Node7 -->
<g id="node7" class="node"><title>Node7</title>
<g id="a_node7"><a xlink:href="a00055.html#ad279f4f771e132927c09bd599fbe2b1b" target="_top" xlink:title="hpd_stop">
<polygon fill="none" stroke="black" points="182.5,-0.5 182.5,-19.5 238.5,-19.5 238.5,-0.5 182.5,-0.5"/>
<text text-anchor="middle" x="210.5" y="-7.5" font-family="Helvetica,sans-Serif" font-size="10.00">hpd_stop</text>
</a>
</g>
</g>
<!-- Node6&#45;&gt;Node7 -->
<g id="edge6" class="edge"><title>Node6&#45;&gt;Node7</title>
<path fill="none" stroke="midnightblue" d="M135.2,-10C146.464,-10 159.716,-10 171.886,-10"/>
<polygon fill="midnightblue" stroke="midnightblue" points="172.225,-13.5001 182.225,-10 172.225,-6.5001 172.225,-13.5001"/>
</g>
<!-- Node8 -->
<g id="node8" class="node"><title>Node8</title>
<g id="a_node8"><a xlink:href="a00057.html#a47e709c904aab5ba86a017daddfc449c" target="_top" xlink:title="daemon_stop">
<polygon fill="none" stroke="black" points="298,-0.5 298,-19.5 373,-19.5 373,-0.5 298,-0.5"/>
<text text-anchor="middle" x="335.5" y="-7.5" font-family="Helvetica,sans-Serif" font-size="10.00">daemon_stop</text>
</a>
</g>
</g>
<!-- Node7&#45;&gt;Node8 -->
<g id="edge7" class="edge"><title>Node7&#45;&gt;Node8</title>
<path fill="none" stroke="midnightblue" d="M238.798,-10C253.216,-10 271.312,-10 287.876,-10"/>
<polygon fill="midnightblue" stroke="midnightblue" points="287.945,-13.5001 297.945,-10 287.945,-6.5001 287.945,-13.5001"/>
</g>
<!-- Node10 -->
<g id="node10" class="node"><title>Node10</title>
<g id="a_node10"><a xlink:href="a00057.html#affd72e7fb83ddd29450361c75672ddd4" target="_top" xlink:title="daemon_start">
<polygon fill="none" stroke="black" points="172.5,-209.5 172.5,-228.5 248.5,-228.5 248.5,-209.5 172.5,-209.5"/>
<text text-anchor="middle" x="210.5" y="-216.5" font-family="Helvetica,sans-Serif" font-size="10.00">daemon_start</text>
</a>
</g>
</g>
<!-- Node9&#45;&gt;Node10 -->
<g id="edge9" class="edge"><title>Node9&#45;&gt;Node10</title>
<path fill="none" stroke="midnightblue" d="M120.855,-152.625C137.939,-165.417 168.332,-188.175 188.701,-203.427"/>
<polygon fill="midnightblue" stroke="midnightblue" points="186.647,-206.261 196.749,-209.453 190.842,-200.657 186.647,-206.261"/>
</g>
<!-- Node10&#45;&gt;Node5 -->
<g id="edge12" class="edge"><title>Node10&#45;&gt;Node5</title>
<path fill="none" stroke="midnightblue" d="M248.546,-225.087C377.382,-246.055 805.592,-314 944.5,-314 944.5,-314 944.5,-314 1096.5,-314 1173.08,-314 1259.9,-344.139 1301.58,-360.585"/>
<polygon fill="midnightblue" stroke="midnightblue" points="1300.35,-363.865 1310.94,-364.35 1302.97,-357.37 1300.35,-363.865"/>
</g>
<!-- Node11 -->
<g id="node11" class="node"><title>Node11</title>
<g id="a_node11"><a xlink:href="a00057.html#a77e3fe9d5adf1777567645d9720fd1bc" target="_top" xlink:title="daemon_alloc_conf">
<polygon fill="none" stroke="black" points="285,-342.5 285,-361.5 386,-361.5 386,-342.5 285,-342.5"/>
<text text-anchor="middle" x="335.5" y="-349.5" font-family="Helvetica,sans-Serif" font-size="10.00">daemon_alloc_conf</text>
</a>
</g>
</g>
<!-- Node10&#45;&gt;Node11 -->
<g id="edge10" class="edge"><title>Node10&#45;&gt;Node11</title>
<path fill="none" stroke="midnightblue" d="M215.265,-228.715C224.147,-250.427 248.447,-303.301 285,-333 287.137,-334.736 289.449,-336.326 291.868,-337.779"/>
<polygon fill="midnightblue" stroke="midnightblue" points="290.474,-340.998 300.966,-342.468 293.681,-334.776 290.474,-340.998"/>
</g>
<!-- Node12 -->
<g id="node12" class="node"><title>Node12</title>
<g id="a_node12"><a xlink:href="a00057.html#aaf7bc24f3891f0c63a6043f4dc2ab311" target="_top" xlink:title="parse_opt">
<polygon fill="none" stroke="black" points="306,-304.5 306,-323.5 365,-323.5 365,-304.5 306,-304.5"/>
<text text-anchor="middle" x="335.5" y="-311.5" font-family="Helvetica,sans-Serif" font-size="10.00">parse_opt</text>
</a>
</g>
</g>
<!-- Node10&#45;&gt;Node12 -->
<g id="edge11" class="edge"><title>Node10&#45;&gt;Node12</title>
<path fill="none" stroke="midnightblue" d="M219.738,-228.733C232.547,-243.424 258.53,-271.508 285,-290 290.241,-293.661 296.125,-297.049 301.958,-300.055"/>
<polygon fill="midnightblue" stroke="midnightblue" points="300.46,-303.218 310.982,-304.451 303.525,-296.925 300.46,-303.218"/>
</g>
<!-- Node13 -->
<g id="node13" class="node"><title>Node13</title>
<g id="a_node13"><a xlink:href="a00068.html#adc90843b331f5522a8d08d6e4219e126" target="_top" xlink:title="request_free_request">
<polygon fill="none" stroke="black" points="732.5,-152.5 732.5,-171.5 840.5,-171.5 840.5,-152.5 732.5,-152.5"/>
<text text-anchor="middle" x="786.5" y="-159.5" font-family="Helvetica,sans-Serif" font-size="10.00">request_free_request</text>
</a>
</g>
</g>
<!-- Node10&#45;&gt;Node13 -->
<g id="edge13" class="edge"><title>Node10&#45;&gt;Node13</title>
<path fill="none" stroke="midnightblue" d="M248.816,-212.372C260.387,-210.461 273.199,-208.492 285,-207 441.792,-187.178 627.297,-172.877 722.371,-166.208"/>
<polygon fill="midnightblue" stroke="midnightblue" points="722.665,-169.696 732.398,-165.509 722.179,-162.713 722.665,-169.696"/>
</g>
<!-- Node14 -->
<g id="node14" class="node"><title>Node14</title>
<g id="a_node14"><a xlink:href="a00011.html#a8922de7d42124afa8ab5fd339fe695ee" target="_top" xlink:title="discovery_free_sid">
<polygon fill="none" stroke="black" points="896.5,-114.5 896.5,-133.5 994.5,-133.5 994.5,-114.5 896.5,-114.5"/>
<text text-anchor="middle" x="945.5" y="-121.5" font-family="Helvetica,sans-Serif" font-size="10.00">discovery_free_sid</text>
</a>
</g>
</g>
<!-- Node10&#45;&gt;Node14 -->
<g id="edge27" class="edge"><title>Node10&#45;&gt;Node14</title>
<path fill="none" stroke="midnightblue" d="M226.86,-209.368C266.894,-185.216 378.388,-124 480,-124 480,-124 480,-124 635,-124 722.546,-124 824.022,-124 886.236,-124"/>
<polygon fill="midnightblue" stroke="midnightblue" points="886.252,-127.5 896.252,-124 886.252,-120.5 886.252,-127.5"/>
</g>
<!-- Node15 -->
<g id="node15" class="node"><title>Node15</title>
<g id="a_node15"><a xlink:href="a00071.html#a1ec3b1d4547e5080bcec544c877852da" target="_top" xlink:title="value_free">
<polygon fill="none" stroke="black" points="914.5,-266.5 914.5,-285.5 976.5,-285.5 976.5,-266.5 914.5,-266.5"/>
<text text-anchor="middle" x="945.5" y="-273.5" font-family="Helvetica,sans-Serif" font-size="10.00">value_free</text>
</a>
</g>
</g>
<!-- Node10&#45;&gt;Node15 -->
<g id="edge28" class="edge"><title>Node10&#45;&gt;Node15</title>
<path fill="none" stroke="midnightblue" d="M228.767,-228.539C243.321,-236.136 264.926,-246.396 285,-252 369.105,-275.479 392.679,-276 480,-276 480,-276 480,-276 635,-276 731.563,-276 845.072,-276 904.15,-276"/>
<polygon fill="midnightblue" stroke="midnightblue" points="904.188,-279.5 914.187,-276 904.187,-272.5 904.188,-279.5"/>
</g>
<!-- Node18 -->
<g id="node18" class="node"><title>Node18</title>
<g id="a_node18"><a xlink:href="a00068.html#a2477fb8cf085cc2b61dbfacdcdc54b82" target="_top" xlink:title="request_free_response">
<polygon fill="none" stroke="black" points="576,-190.5 576,-209.5 692,-209.5 692,-190.5 576,-190.5"/>
<text text-anchor="middle" x="634" y="-197.5" font-family="Helvetica,sans-Serif" font-size="10.00">request_free_response</text>
</a>
</g>
</g>
<!-- Node10&#45;&gt;Node18 -->
<g id="edge23" class="edge"><title>Node10&#45;&gt;Node18</title>
<path fill="none" stroke="midnightblue" d="M248.536,-217.331C319.525,-214.131 475.669,-207.092 565.604,-203.038"/>
<polygon fill="midnightblue" stroke="midnightblue" points="565.866,-206.53 575.698,-202.583 565.55,-199.537 565.866,-206.53"/>
</g>
<!-- Node19 -->
<g id="node19" class="node"><title>Node19</title>
<g id="a_node19"><a xlink:href="a00011.html#ae1a000b225c8b3f365c2cec8362b8483" target="_top" xlink:title="discovery_free_did">
<polygon fill="none" stroke="black" points="432,-76.5 432,-95.5 530,-95.5 530,-76.5 432,-76.5"/>
<text text-anchor="middle" x="481" y="-83.5" font-family="Helvetica,sans-Serif" font-size="10.00">discovery_free_did</text>
</a>
</g>
</g>
<!-- Node10&#45;&gt;Node19 -->
<g id="edge29" class="edge"><title>Node10&#45;&gt;Node19</title>
<path fill="none" stroke="midnightblue" d="M214.804,-209.389C222.884,-187.499 245.889,-133.978 285,-110 325.882,-84.9358 380.67,-80.1624 421.762,-80.9527"/>
<polygon fill="midnightblue" stroke="midnightblue" points="421.794,-84.4552 431.897,-81.2645 422.01,-77.4585 421.794,-84.4552"/>
</g>
<!-- Node20 -->
<g id="node20" class="node"><title>Node20</title>
<g id="a_node20"><a xlink:href="a00057.html#a975d2ced1742515d1e9a9a8bb0cd8000" target="_top" xlink:title="daemon_free_conf">
<polygon fill="none" stroke="black" points="287,-389.5 287,-408.5 384,-408.5 384,-389.5 287,-389.5"/>
<text text-anchor="middle" x="335.5" y="-396.5" font-family="Helvetica,sans-Serif" font-size="10.00">daemon_free_conf</text>
</a>
</g>
</g>
<!-- Node10&#45;&gt;Node20 -->
<g id="edge31" class="edge"><title>Node10&#45;&gt;Node20</title>
<path fill="none" stroke="midnightblue" d="M213.986,-228.709C221.057,-254.674 243.499,-326.737 285,-371 289.855,-376.178 295.887,-380.656 302.052,-384.419"/>
<polygon fill="midnightblue" stroke="midnightblue" points="300.615,-387.624 311.057,-389.418 304.013,-381.504 300.615,-387.624"/>
</g>
<!-- Node13&#45;&gt;Node5 -->
<g id="edge22" class="edge"><title>Node13&#45;&gt;Node5</title>
<path fill="none" stroke="midnightblue" d="M840.715,-157.107C953.034,-147.948 1209.38,-133.561 1275,-186 1301.06,-206.826 1317.85,-308.14 1323.93,-351.379"/>
<polygon fill="midnightblue" stroke="midnightblue" points="1320.49,-352.044 1325.31,-361.481 1327.43,-351.1 1320.49,-352.044"/>
</g>
<!-- Node13&#45;&gt;Node14 -->
<g id="edge14" class="edge"><title>Node13&#45;&gt;Node14</title>
<path fill="none" stroke="midnightblue" d="M827.118,-152.411C847.836,-147.396 873.388,-141.212 895.356,-135.895"/>
<polygon fill="midnightblue" stroke="midnightblue" points="896.271,-139.274 905.167,-133.52 894.624,-132.471 896.271,-139.274"/>
</g>
<!-- Node13&#45;&gt;Node15 -->
<g id="edge16" class="edge"><title>Node13&#45;&gt;Node15</title>
<path fill="none" stroke="midnightblue" d="M800.616,-171.523C827.677,-191.173 889.926,-236.373 922.975,-260.37"/>
<polygon fill="midnightblue" stroke="midnightblue" points="920.941,-263.218 931.089,-266.262 925.053,-257.554 920.941,-263.218"/>
</g>
<!-- Node14&#45;&gt;Node5 -->
<g id="edge15" class="edge"><title>Node14&#45;&gt;Node5</title>
<path fill="none" stroke="midnightblue" d="M994.757,-120.795C1075.73,-116.487 1234.13,-112.982 1275,-148 1305.93,-174.501 1320.35,-301.593 1324.87,-351.151"/>
<polygon fill="midnightblue" stroke="midnightblue" points="1321.39,-351.578 1325.75,-361.237 1328.36,-350.971 1321.39,-351.578"/>
</g>
<!-- Node15&#45;&gt;Node5 -->
<g id="edge21" class="edge"><title>Node15&#45;&gt;Node5</title>
<path fill="none" stroke="midnightblue" d="M976.504,-270.275C1037.26,-260.296 1177.33,-245.611 1275,-300 1295.6,-311.473 1310.12,-335.046 1318.38,-351.882"/>
<polygon fill="midnightblue" stroke="midnightblue" points="1315.36,-353.696 1322.71,-361.326 1321.73,-350.777 1315.36,-353.696"/>
</g>
<!-- Node16 -->
<g id="node16" class="node"><title>Node16</title>
<g id="a_node16"><a xlink:href="a00042.html#a195d511a075f2349200563af1c5d1fd7" target="_top" xlink:title="hpd_map_free">
<polygon fill="none" stroke="black" points="1056.5,-456.5 1056.5,-475.5 1134.5,-475.5 1134.5,-456.5 1056.5,-456.5"/>
<text text-anchor="middle" x="1095.5" y="-463.5" font-family="Helvetica,sans-Serif" font-size="10.00">hpd_map_free</text>
</a>
</g>
</g>
<!-- Node15&#45;&gt;Node16 -->
<g id="edge17" class="edge"><title>Node15&#45;&gt;Node16</title>
<path fill="none" stroke="midnightblue" d="M954.043,-285.683C977.591,-315.914 1049.99,-408.865 1080.61,-448.163"/>
<polygon fill="midnightblue" stroke="midnightblue" points="1077.89,-450.37 1086.79,-456.108 1083.41,-446.068 1077.89,-450.37"/>
</g>
<!-- Node16&#45;&gt;Node5 -->
<g id="edge20" class="edge"><title>Node16&#45;&gt;Node5</title>
<path fill="none" stroke="midnightblue" d="M1134.58,-470.788C1172.84,-473.676 1232.11,-472.744 1275,-447 1296.59,-434.039 1311.15,-408.129 1319.13,-390.19"/>
<polygon fill="midnightblue" stroke="midnightblue" points="1322.46,-391.284 1323.07,-380.706 1316,-388.596 1322.46,-391.284"/>
</g>
<!-- Node17 -->
<g id="node17" class="node"><title>Node17</title>
<g id="a_node17"><a xlink:href="a00022.html#ae1085dd4fd40466d18b02ec077ef4d6d" target="_top" xlink:title="hpd_map_remove">
<polygon fill="none" stroke="black" points="1181,-418.5 1181,-437.5 1275,-437.5 1275,-418.5 1181,-418.5"/>
<text text-anchor="middle" x="1228" y="-425.5" font-family="Helvetica,sans-Serif" font-size="10.00">hpd_map_remove</text>
</a>
</g>
</g>
<!-- Node16&#45;&gt;Node17 -->
<g id="edge18" class="edge"><title>Node16&#45;&gt;Node17</title>
<path fill="none" stroke="midnightblue" d="M1129.43,-456.411C1146.12,-451.551 1166.59,-445.591 1184.46,-440.387"/>
<polygon fill="midnightblue" stroke="midnightblue" points="1185.46,-443.742 1194.08,-437.586 1183.5,-437.021 1185.46,-443.742"/>
</g>
<!-- Node17&#45;&gt;Node5 -->
<g id="edge19" class="edge"><title>Node17&#45;&gt;Node5</title>
<path fill="none" stroke="midnightblue" d="M1248.46,-418.335C1256.73,-414.099 1266.43,-408.969 1275,-404 1284.55,-398.466 1294.83,-391.988 1303.67,-386.244"/>
<polygon fill="midnightblue" stroke="midnightblue" points="1305.84,-389.007 1312.28,-380.594 1302,-383.154 1305.84,-389.007"/>
</g>
<!-- Node18&#45;&gt;Node5 -->
<g id="edge26" class="edge"><title>Node18&#45;&gt;Node5</title>
<path fill="none" stroke="midnightblue" d="M692.043,-200C754.144,-200 856.378,-200 944.5,-200 944.5,-200 944.5,-200 1096.5,-200 1180.78,-200 1212.38,-207.594 1275,-264 1301.18,-287.585 1315.36,-327.377 1321.89,-351.219"/>
<polygon fill="midnightblue" stroke="midnightblue" points="1318.58,-352.391 1324.44,-361.219 1325.36,-350.664 1318.58,-352.391"/>
</g>
<!-- Node18&#45;&gt;Node13 -->
<g id="edge24" class="edge"><title>Node18&#45;&gt;Node13</title>
<path fill="none" stroke="midnightblue" d="M672.978,-190.411C692.659,-185.442 716.891,-179.323 737.821,-174.039"/>
<polygon fill="midnightblue" stroke="midnightblue" points="738.957,-177.362 747.796,-171.52 737.243,-170.575 738.957,-177.362"/>
</g>
<!-- Node18&#45;&gt;Node15 -->
<g id="edge25" class="edge"><title>Node18&#45;&gt;Node15</title>
<path fill="none" stroke="midnightblue" d="M673.885,-209.548C732.973,-224.058 844.794,-251.517 904.524,-266.184"/>
<polygon fill="midnightblue" stroke="midnightblue" points="903.801,-269.61 914.347,-268.596 905.47,-262.812 903.801,-269.61"/>
</g>
<!-- Node19&#45;&gt;Node5 -->
<g id="edge30" class="edge"><title>Node19&#45;&gt;Node5</title>
<path fill="none" stroke="midnightblue" d="M530.097,-86C589.943,-86 695.267,-86 785.5,-86 785.5,-86 785.5,-86 1096.5,-86 1177.1,-86 1217.34,-61.68 1275,-118 1308.38,-150.61 1321.53,-297.548 1325.28,-351.259"/>
<polygon fill="midnightblue" stroke="midnightblue" points="1321.8,-351.748 1325.95,-361.495 1328.79,-351.286 1321.8,-351.748"/>
</g>
<!-- Node20&#45;&gt;Node5 -->
<g id="edge46" class="edge"><title>Node20&#45;&gt;Node5</title>
<path fill="none" stroke="midnightblue" d="M341.418,-408.761C365.837,-455.705 479.046,-656 633,-656 633,-656 633,-656 1096.5,-656 1178.32,-656 1218.19,-669.872 1275,-611 1305.61,-579.284 1320.38,-442.124 1324.92,-390.632"/>
<polygon fill="midnightblue" stroke="midnightblue" points="1328.42,-390.761 1325.78,-380.501 1321.45,-390.17 1328.42,-390.761"/>
</g>
<!-- Node21 -->
<g id="node21" class="node"><title>Node21</title>
<g id="a_node21"><a xlink:href="a00059.html#aec714553397f80039bf246b3b0800420" target="_top" xlink:title="discovery_free_adapter">
<polygon fill="none" stroke="black" points="422,-408.5 422,-427.5 540,-427.5 540,-408.5 422,-408.5"/>
<text text-anchor="middle" x="481" y="-415.5" font-family="Helvetica,sans-Serif" font-size="10.00">discovery_free_adapter</text>
</a>
</g>
</g>
<!-- Node20&#45;&gt;Node21 -->
<g id="edge32" class="edge"><title>Node20&#45;&gt;Node21</title>
<path fill="none" stroke="midnightblue" d="M384.283,-405.327C393.145,-406.5 402.557,-407.746 411.888,-408.982"/>
<polygon fill="midnightblue" stroke="midnightblue" points="411.577,-412.471 421.95,-410.314 412.496,-405.532 411.577,-412.471"/>
</g>
<!-- Node25 -->
<g id="node25" class="node"><title>Node25</title>
<g id="a_node25"><a xlink:href="a00062.html#a4cc65f197e3ad3f70ea2559bc95a68e9" target="_top" xlink:title="event_free_listener">
<polygon fill="none" stroke="black" points="1046,-342.5 1046,-361.5 1145,-361.5 1145,-342.5 1046,-342.5"/>
<text text-anchor="middle" x="1095.5" y="-349.5" font-family="Helvetica,sans-Serif" font-size="10.00">event_free_listener</text>
</a>
</g>
</g>
<!-- Node20&#45;&gt;Node25 -->
<g id="edge44" class="edge"><title>Node20&#45;&gt;Node25</title>
<path fill="none" stroke="midnightblue" d="M372.724,-389.489C428.301,-375.755 538.145,-352 633,-352 633,-352 633,-352 787.5,-352 873.782,-352 973.705,-352 1035.51,-352"/>
<polygon fill="midnightblue" stroke="midnightblue" points="1035.85,-355.5 1045.85,-352 1035.85,-348.5 1035.85,-355.5"/>
</g>
<!-- Node21&#45;&gt;Node5 -->
<g id="edge42" class="edge"><title>Node21&#45;&gt;Node5</title>
<path fill="none" stroke="midnightblue" d="M540.036,-409.447C601.011,-401.213 699.778,-390 785.5,-390 785.5,-390 785.5,-390 1096.5,-390 1170.95,-390 1258.5,-379.989 1300.91,-374.5"/>
<polygon fill="midnightblue" stroke="midnightblue" points="1301.46,-377.958 1310.92,-373.18 1300.55,-371.018 1301.46,-377.958"/>
</g>
<!-- Node21&#45;&gt;Node16 -->
<g id="edge43" class="edge"><title>Node21&#45;&gt;Node16</title>
<path fill="none" stroke="midnightblue" d="M540.175,-422.559C660.516,-431.99 934.841,-453.488 1046.19,-462.214"/>
<polygon fill="midnightblue" stroke="midnightblue" points="1046.2,-465.726 1056.45,-463.018 1046.75,-458.747 1046.2,-465.726"/>
</g>
<!-- Node22 -->
<g id="node22" class="node"><title>Node22</title>
<g id="a_node22"><a xlink:href="a00059.html#a3c72fb9020b183238e0205b722d7ea95" target="_top" xlink:title="discovery_free_device">
<polygon fill="none" stroke="black" points="577,-494.5 577,-513.5 691,-513.5 691,-494.5 577,-494.5"/>
<text text-anchor="middle" x="634" y="-501.5" font-family="Helvetica,sans-Serif" font-size="10.00">discovery_free_device</text>
</a>
</g>
</g>
<!-- Node21&#45;&gt;Node22 -->
<g id="edge33" class="edge"><title>Node21&#45;&gt;Node22</title>
<path fill="none" stroke="midnightblue" d="M498.737,-427.532C525.041,-442.513 576.25,-471.679 607.262,-489.341"/>
<polygon fill="midnightblue" stroke="midnightblue" points="605.767,-492.518 616.188,-494.425 609.231,-486.435 605.767,-492.518"/>
</g>
<!-- Node22&#45;&gt;Node5 -->
<g id="edge40" class="edge"><title>Node22&#45;&gt;Node5</title>
<path fill="none" stroke="midnightblue" d="M682.76,-513.54C743.367,-524.796 851.251,-542 944.5,-542 944.5,-542 944.5,-542 1096.5,-542 1181.55,-542 1211.96,-530.102 1275,-473 1299.89,-450.453 1314.38,-413.119 1321.34,-390.416"/>
<polygon fill="midnightblue" stroke="midnightblue" points="1324.77,-391.153 1324.17,-380.575 1318.05,-389.221 1324.77,-391.153"/>
</g>
<!-- Node22&#45;&gt;Node16 -->
<g id="edge41" class="edge"><title>Node22&#45;&gt;Node16</title>
<path fill="none" stroke="midnightblue" d="M691.344,-499.34C782.445,-491.807 960.511,-477.081 1046.18,-469.996"/>
<polygon fill="midnightblue" stroke="midnightblue" points="1046.73,-473.462 1056.41,-469.15 1046.15,-466.486 1046.73,-473.462"/>
</g>
<!-- Node23 -->
<g id="node23" class="node"><title>Node23</title>
<g id="a_node23"><a xlink:href="a00059.html#a562bd655fd329da0289d21ec36973322" target="_top" xlink:title="discovery_free_service">
<polygon fill="none" stroke="black" points="728,-570.5 728,-589.5 845,-589.5 845,-570.5 728,-570.5"/>
<text text-anchor="middle" x="786.5" y="-577.5" font-family="Helvetica,sans-Serif" font-size="10.00">discovery_free_service</text>
</a>
</g>
</g>
<!-- Node22&#45;&gt;Node23 -->
<g id="edge34" class="edge"><title>Node22&#45;&gt;Node23</title>
<path fill="none" stroke="midnightblue" d="M650.832,-513.586C669.107,-524.478 700.218,-542.49 728,-556 735.538,-559.666 743.782,-563.312 751.613,-566.613"/>
<polygon fill="midnightblue" stroke="midnightblue" points="750.306,-569.86 760.885,-570.448 752.982,-563.392 750.306,-569.86"/>
</g>
<!-- Node23&#45;&gt;Node5 -->
<g id="edge38" class="edge"><title>Node23&#45;&gt;Node5</title>
<path fill="none" stroke="midnightblue" d="M825.448,-589.51C842.337,-593.275 862.541,-597.143 881,-599 968.197,-607.77 1209.52,-640.242 1275,-582 1303.63,-556.534 1319.26,-438.51 1324.49,-390.946"/>
<polygon fill="midnightblue" stroke="midnightblue" points="1328,-391.021 1325.57,-380.709 1321.04,-390.286 1328,-391.021"/>
</g>
<!-- Node23&#45;&gt;Node16 -->
<g id="edge39" class="edge"><title>Node23&#45;&gt;Node16</title>
<path fill="none" stroke="midnightblue" d="M813.147,-570.477C868,-550.107 996.795,-502.281 1059.27,-479.081"/>
<polygon fill="midnightblue" stroke="midnightblue" points="1060.55,-482.339 1068.71,-475.577 1058.12,-475.777 1060.55,-482.339"/>
</g>
<!-- Node24 -->
<g id="node24" class="node"><title>Node24</title>
<g id="a_node24"><a xlink:href="a00059.html#ad18143d06649d9220e4fd8d74dbdec79" target="_top" xlink:title="discovery_free_parameter">
<polygon fill="none" stroke="black" points="881,-570.5 881,-589.5 1010,-589.5 1010,-570.5 881,-570.5"/>
<text text-anchor="middle" x="945.5" y="-577.5" font-family="Helvetica,sans-Serif" font-size="10.00">discovery_free_parameter</text>
</a>
</g>
</g>
<!-- Node23&#45;&gt;Node24 -->
<g id="edge35" class="edge"><title>Node23&#45;&gt;Node24</title>
<path fill="none" stroke="midnightblue" d="M845.07,-580C853.435,-580 862.143,-580 870.774,-580"/>
<polygon fill="midnightblue" stroke="midnightblue" points="870.845,-583.5 880.845,-580 870.845,-576.5 870.845,-583.5"/>
</g>
<!-- Node24&#45;&gt;Node5 -->
<g id="edge37" class="edge"><title>Node24&#45;&gt;Node5</title>
<path fill="none" stroke="midnightblue" d="M1010.21,-583.729C1094.2,-587.263 1235.9,-588.016 1275,-556 1300.75,-534.918 1317.65,-434.225 1323.85,-390.897"/>
<polygon fill="midnightblue" stroke="midnightblue" points="1327.32,-391.363 1325.23,-380.977 1320.39,-390.402 1327.32,-391.363"/>
</g>
<!-- Node24&#45;&gt;Node16 -->
<g id="edge36" class="edge"><title>Node24&#45;&gt;Node16</title>
<path fill="none" stroke="midnightblue" d="M958.864,-570.477C984.265,-550.911 1042.56,-506.011 1073.81,-481.937"/>
<polygon fill="midnightblue" stroke="midnightblue" points="1076.07,-484.613 1081.86,-475.738 1071.8,-479.068 1076.07,-484.613"/>
</g>
<!-- Node25&#45;&gt;Node5 -->
<g id="edge45" class="edge"><title>Node25&#45;&gt;Node5</title>
<path fill="none" stroke="midnightblue" d="M1145.28,-356.029C1192.8,-359.956 1263.22,-365.773 1300.75,-368.873"/>
<polygon fill="midnightblue" stroke="midnightblue" points="1300.6,-372.372 1310.85,-369.707 1301.17,-365.396 1300.6,-372.372"/>
</g>
<!-- Node27 -->
<g id="node27" class="node"><title>Node27</title>
<g id="a_node27"><a xlink:href="a00057.html#a05bbc5573fc67fa53c2765cf7e5b1920" target="_top" xlink:title="daemon_free">
<polygon fill="none" stroke="black" points="1191.5,-38.5 1191.5,-57.5 1264.5,-57.5 1264.5,-38.5 1191.5,-38.5"/>
<text text-anchor="middle" x="1228" y="-45.5" font-family="Helvetica,sans-Serif" font-size="10.00">daemon_free</text>
</a>
</g>
</g>
<!-- Node26&#45;&gt;Node27 -->
<g id="edge48" class="edge"><title>Node26&#45;&gt;Node27</title>
<path fill="none" stroke="midnightblue" d="M508.388,-48C561.066,-48 683.016,-48 785.5,-48 785.5,-48 785.5,-48 946.5,-48 1029.08,-48 1125.33,-48 1180.91,-48"/>
<polygon fill="midnightblue" stroke="midnightblue" points="1181.13,-51.5001 1191.13,-48 1181.13,-44.5001 1181.13,-51.5001"/>
</g>
<!-- Node27&#45;&gt;Node5 -->
<g id="edge49" class="edge"><title>Node27&#45;&gt;Node5</title>
<path fill="none" stroke="midnightblue" d="M1257.35,-57.6654C1264.06,-61.2018 1270.54,-65.8871 1275,-72 1307.81,-116.982 1321.55,-291.576 1325.34,-351.037"/>
<polygon fill="midnightblue" stroke="midnightblue" points="1321.87,-351.554 1325.97,-361.322 1328.86,-351.127 1321.87,-351.554"/>
</g>
</g>
</svg>
        <g id="navigator" transform="translate(0 0)" fill="#404254">
                <rect fill="#f2f5e9" fill-opacity="0.5" stroke="#606060" stroke-width=".5" x="0" y="0" width="60" height="60"/>
                <use id="zoomplus" xlink:href="#zoomPlus" x="17" y="9" onmousedown="handleZoom(evt,'in')"/>
                <use id="zoomminus" xlink:href="#zoomMin" x="42" y="9" onmousedown="handleZoom(evt,'out')"/>
                <use id="reset" xlink:href="#resetDef" x="30" y="36" onmousedown="handleReset()"/>
                <g id="arrowUp" xlink:href="#dirArrow" transform="translate(30 24)" onmousedown="handlePan(0,-1)">
                  <use xlink:href="#rim" fill="#404040">
                        <set attributeName="fill" to="#808080" begin="arrowUp.mouseover" end="arrowUp.mouseout"/>
                  </use>
                  <path fill="none" stroke="white" stroke-width="1.5" d="M0,-3.0v7 M-2.5,-0.5L0,-3.0L2.5,-0.5"/>
                </g>
                <g id="arrowRight" xlink:href="#dirArrow" transform="rotate(90) translate(36 -43)" onmousedown="handlePan(1,0)">
                  <use xlink:href="#rim" fill="#404040">
                        <set attributeName="fill" to="#808080" begin="arrowRight.mouseover" end="arrowRight.mouseout"/>
                  </use>
                  <path fill="none" stroke="white" stroke-width="1.5" d="M0,-3.0v7 M-2.5,-0.5L0,-3.0L2.5,-0.5"/>
                </g>
                <g id="arrowDown" xlink:href="#dirArrow" transform="rotate(180) translate(-30 -48)" onmousedown="handlePan(0,1)">
                  <use xlink:href="#rim" fill="#404040">
                        <set attributeName="fill" to="#808080" begin="arrowDown.mouseover" end="arrowDown.mouseout"/>
                  </use>
                  <path fill="none" stroke="white" stroke-width="1.5" d="M0,-3.0v7 M-2.5,-0.5L0,-3.0L2.5,-0.5"/>
                </g>
                <g id="arrowLeft" xlink:href="#dirArrow" transform="rotate(270) translate(-36 17)" onmousedown="handlePan(-1,0)">
                  <use xlink:href="#rim" fill="#404040">
                        <set attributeName="fill" to="#808080" begin="arrowLeft.mouseover" end="arrowLeft.mouseout"/>
                  </use>
                  <path fill="none" stroke="white" stroke-width="1.5" d="M0,-3.0v7 M-2.5,-0.5L0,-3.0L2.5,-0.5"/>
                </g>
        </g>
        <svg viewBox="0 0 15 15" width="100%" height="30px" preserveAspectRatio="xMaxYMin meet">
         <g id="arrow_out" transform="scale(0.3 0.3)">
          <a xlink:href="a00030_a5de92b31931f2f5155c682379a06da32_cgraph_org.svg" target="_base">
           <rect id="button" ry="5" rx="5" y="6" x="6" height="38" width="38"
                fill="#f2f5e9" fill-opacity="0.5" stroke="#606060" stroke-width="1.0"/>
           <path id="arrow"
             d="M 11.500037,31.436501 C 11.940474,20.09759 22.043105,11.32322 32.158766,21.979434 L 37.068811,17.246167 C 37.068811,17.246167 37.088388,32 37.088388,32 L 22.160133,31.978069 C 22.160133,31.978069 26.997745,27.140456 26.997745,27.140456 C 18.528582,18.264221 13.291696,25.230495 11.500037,31.436501 z"
             style="fill:#404040;"/>
          </a>
         </g>
        </svg>
</svg>
