<?xml version="1.0" encoding="UTF-8" standalone="no"?>
<!DOCTYPE svg PUBLIC "-//W3C//DTD SVG 1.1//EN"
 "http://www.w3.org/Graphics/SVG/1.1/DTD/svg11.dtd">
<!-- Generated by graphviz version 2.38.0 (20140413.2041)
 -->
<!-- Title: discovery_find_service Pages: 1 -->
<svg width="1848pt" height="477pt"
 viewBox="0.00 0.00 1848.00 477.38" xmlns="http://www.w3.org/2000/svg" xmlns:xlink="http://www.w3.org/1999/xlink">
<g id="graph0" class="graph" transform="scale(1 1) rotate(0) translate(4 473.379)">
<title>discovery_find_service</title>
<!-- Node1 -->
<g id="node1" class="node"><title>Node1</title>
<polygon fill="#bfbfbf" stroke="black" points="0,-221.879 0,-240.879 116,-240.879 116,-221.879 0,-221.879"/>
<text text-anchor="middle" x="58" y="-228.879" font-family="Helvetica,sans-Serif" font-size="10.00">discovery_find_service</text>
</g>
<!-- Node2 -->
<g id="node2" class="node"><title>Node2</title>
<g id="a_node2"><a xlink:href="a00064.html#a2f5dcf91dddd8b49a61f53627740452b" target="_top" xlink:title="hpd_service_detach">
<polygon fill="none" stroke="black" points="170,-449.879 170,-468.879 274,-468.879 274,-449.879 170,-449.879"/>
<text text-anchor="middle" x="222" y="-456.879" font-family="Helvetica,sans-Serif" font-size="10.00">hpd_service_detach</text>
</a>
</g>
</g>
<!-- Node1&#45;&gt;Node2 -->
<g id="edge1" class="edge"><title>Node1&#45;&gt;Node2</title>
<path fill="none" stroke="midnightblue" d="M61.994,-250.893C69.3876,-292.254 92.4296,-389.133 152,-440.379 157.181,-444.835 163.32,-448.254 169.767,-450.875"/>
<polygon fill="midnightblue" stroke="midnightblue" points="65.4402,-250.28 60.3389,-240.994 58.5361,-251.435 65.4402,-250.28"/>
</g>
<!-- Node3 -->
<g id="node3" class="node"><title>Node3</title>
<g id="a_node3"><a xlink:href="a00064.html#ad0fd5e015b802be56562d809b90aec61" target="_top" xlink:title="hpd_service_get_data">
<polygon fill="none" stroke="black" points="166,-411.879 166,-430.879 278,-430.879 278,-411.879 166,-411.879"/>
<text text-anchor="middle" x="222" y="-418.879" font-family="Helvetica,sans-Serif" font-size="10.00">hpd_service_get_data</text>
</a>
</g>
</g>
<!-- Node1&#45;&gt;Node3 -->
<g id="edge2" class="edge"><title>Node1&#45;&gt;Node3</title>
<path fill="none" stroke="midnightblue" d="M64.1268,-250.971C74.4918,-286.646 101.377,-362.215 152,-402.379 156.867,-406.24 162.465,-409.318 168.322,-411.771"/>
<polygon fill="midnightblue" stroke="midnightblue" points="67.4796,-249.964 61.4325,-241.264 60.7346,-251.836 67.4796,-249.964"/>
</g>
<!-- Node4 -->
<g id="node4" class="node"><title>Node4</title>
<g id="a_node4"><a xlink:href="a00064.html#a90138cb6c91b2b93f66c4f8a76495394" target="_top" xlink:title="[hpd_device_t functions] ">
<polygon fill="none" stroke="black" points="171.5,-373.879 171.5,-392.879 272.5,-392.879 272.5,-373.879 171.5,-373.879"/>
<text text-anchor="middle" x="222" y="-380.879" font-family="Helvetica,sans-Serif" font-size="10.00">hpd_service_get_id</text>
</a>
</g>
</g>
<!-- Node1&#45;&gt;Node4 -->
<g id="edge3" class="edge"><title>Node1&#45;&gt;Node4</title>
<path fill="none" stroke="midnightblue" d="M67.1905,-250.603C80.5886,-279.713 109.973,-334.714 152,-364.379 157.786,-368.463 164.416,-371.67 171.228,-374.189"/>
<polygon fill="midnightblue" stroke="midnightblue" points="70.2458,-248.86 62.9839,-241.145 63.8498,-251.705 70.2458,-248.86"/>
</g>
<!-- Node19 -->
<g id="node19" class="node"><title>Node19</title>
<g id="a_node19"><a xlink:href="a00064.html#aab0ca1039ebd394001e1862ea9d545ba" target="_top" xlink:title="hpd_service_get_attr">
<polygon fill="none" stroke="black" points="168.5,-335.879 168.5,-354.879 275.5,-354.879 275.5,-335.879 168.5,-335.879"/>
<text text-anchor="middle" x="222" y="-342.879" font-family="Helvetica,sans-Serif" font-size="10.00">hpd_service_get_attr</text>
</a>
</g>
</g>
<!-- Node1&#45;&gt;Node19 -->
<g id="edge19" class="edge"><title>Node1&#45;&gt;Node19</title>
<path fill="none" stroke="midnightblue" d="M71.8099,-249.359C88.0551,-270.845 118.069,-306.39 152,-326.379 158.53,-330.226 165.866,-333.318 173.253,-335.797"/>
<polygon fill="midnightblue" stroke="midnightblue" points="74.4708,-247.071 65.7194,-241.099 68.8366,-251.225 74.4708,-247.071"/>
</g>
<!-- Node20 -->
<g id="node20" class="node"><title>Node20</title>
<g id="a_node20"><a xlink:href="a00064.html#ab649732a8091d3c716fb1c6e8eaa9a54" target="_top" xlink:title="hpd_service_get_attrs">
<polygon fill="none" stroke="black" points="165.5,-297.879 165.5,-316.879 278.5,-316.879 278.5,-297.879 165.5,-297.879"/>
<text text-anchor="middle" x="222" y="-304.879" font-family="Helvetica,sans-Serif" font-size="10.00">hpd_service_get_attrs</text>
</a>
</g>
</g>
<!-- Node1&#45;&gt;Node20 -->
<g id="edge20" class="edge"><title>Node1&#45;&gt;Node20</title>
<path fill="none" stroke="midnightblue" d="M82.9826,-246.325C101.417,-257.432 127.75,-272.483 152,-283.379 164.147,-288.837 177.938,-293.855 189.98,-297.876"/>
<polygon fill="midnightblue" stroke="midnightblue" points="84.7244,-243.288 74.3638,-241.073 81.0816,-249.266 84.7244,-243.288"/>
</g>
<!-- Node21 -->
<g id="node21" class="node"><title>Node21</title>
<g id="a_node21"><a xlink:href="a00064.html#af976ab216b0e38ff248e50283dcff1e9" target="_top" xlink:title="hpd_service_has_action">
<polygon fill="none" stroke="black" points="844,-259.879 844,-278.879 966,-278.879 966,-259.879 844,-259.879"/>
<text text-anchor="middle" x="905" y="-266.879" font-family="Helvetica,sans-Serif" font-size="10.00">hpd_service_has_action</text>
</a>
</g>
</g>
<!-- Node1&#45;&gt;Node21 -->
<g id="edge21" class="edge"><title>Node1&#45;&gt;Node21</title>
<path fill="none" stroke="midnightblue" d="M110.523,-243.029C123.969,-245.76 138.482,-248.436 152,-250.379 251.774,-264.714 277.201,-269.379 378,-269.379 378,-269.379 378,-269.379 664,-269.379 725.25,-269.379 795.293,-269.379 843.834,-269.379"/>
<polygon fill="midnightblue" stroke="midnightblue" points="110.986,-239.551 100.483,-240.941 109.561,-246.404 110.986,-239.551"/>
</g>
<!-- Node22 -->
<g id="node22" class="node"><title>Node22</title>
<g id="a_node22"><a xlink:href="a00064.html#ad8b2fbfea2b54c6d744c7f4401f17d7f" target="_top" xlink:title="hpd_service_first_action">
<polygon fill="none" stroke="black" points="161,-221.879 161,-240.879 283,-240.879 283,-221.879 161,-221.879"/>
<text text-anchor="middle" x="222" y="-228.879" font-family="Helvetica,sans-Serif" font-size="10.00">hpd_service_first_action</text>
</a>
</g>
</g>
<!-- Node1&#45;&gt;Node22 -->
<g id="edge23" class="edge"><title>Node1&#45;&gt;Node22</title>
<path fill="none" stroke="midnightblue" d="M126.457,-231.379C137.86,-231.379 149.631,-231.379 160.833,-231.379"/>
<polygon fill="midnightblue" stroke="midnightblue" points="126.115,-227.879 116.115,-231.379 126.115,-234.879 126.115,-227.879"/>
</g>
<!-- Node23 -->
<g id="node23" class="node"><title>Node23</title>
<g id="a_node23"><a xlink:href="a00064.html#a3484f905e2600c79e4fcf79fb316285a" target="_top" xlink:title="hpd_service_first_attr">
<polygon fill="none" stroke="black" points="167,-183.879 167,-202.879 277,-202.879 277,-183.879 167,-183.879"/>
<text text-anchor="middle" x="222" y="-190.879" font-family="Helvetica,sans-Serif" font-size="10.00">hpd_service_first_attr</text>
</a>
</g>
</g>
<!-- Node1&#45;&gt;Node23 -->
<g id="edge24" class="edge"><title>Node1&#45;&gt;Node23</title>
<path fill="none" stroke="midnightblue" d="M109.715,-219.483C132.486,-214.141 158.987,-207.925 180.415,-202.899"/>
<polygon fill="midnightblue" stroke="midnightblue" points="108.816,-216.098 99.8794,-221.79 110.415,-222.913 108.816,-216.098"/>
</g>
<!-- Node24 -->
<g id="node24" class="node"><title>Node24</title>
<g id="a_node24"><a xlink:href="a00064.html#a6642489e16ed0070356079e6a2bf4591" target="_top" xlink:title="hpd_service_first_parameter">
<polygon fill="none" stroke="black" points="152,-145.879 152,-164.879 292,-164.879 292,-145.879 152,-145.879"/>
<text text-anchor="middle" x="222" y="-152.879" font-family="Helvetica,sans-Serif" font-size="10.00">hpd_service_first_parameter</text>
</a>
</g>
</g>
<!-- Node1&#45;&gt;Node24 -->
<g id="edge25" class="edge"><title>Node1&#45;&gt;Node24</title>
<path fill="none" stroke="midnightblue" d="M80.0837,-216.067C98.3474,-203.401 125.872,-185.712 152,-174.379 160.549,-170.67 170.011,-167.504 179.118,-164.881"/>
<polygon fill="midnightblue" stroke="midnightblue" points="78.0642,-213.208 71.9085,-221.831 82.0981,-218.929 78.0642,-213.208"/>
</g>
<!-- Node25 -->
<g id="node25" class="node"><title>Node25</title>
<g id="a_node25"><a xlink:href="a00064.html#ae9856eccf954759353ca4f68a1a2839d" target="_top" xlink:title="hpd_next_service">
<polygon fill="none" stroke="black" points="175.5,-107.879 175.5,-126.879 268.5,-126.879 268.5,-107.879 175.5,-107.879"/>
<text text-anchor="middle" x="222" y="-114.879" font-family="Helvetica,sans-Serif" font-size="10.00">hpd_next_service</text>
</a>
</g>
</g>
<!-- Node1&#45;&gt;Node25 -->
<g id="edge26" class="edge"><title>Node1&#45;&gt;Node25</title>
<path fill="none" stroke="midnightblue" d="M71.8099,-213.398C88.0551,-191.913 118.069,-156.368 152,-136.379 159.173,-132.153 167.317,-128.838 175.434,-126.246"/>
<polygon fill="midnightblue" stroke="midnightblue" points="68.8366,-211.533 65.7194,-221.659 74.4708,-215.687 68.8366,-211.533"/>
</g>
<!-- Node26 -->
<g id="node26" class="node"><title>Node26</title>
<g id="a_node26"><a xlink:href="a00064.html#acc19d8881fd760ae0a219a9b70da4eb4" target="_top" xlink:title="hpd_adapter_next_service">
<polygon fill="none" stroke="black" points="156.5,-69.8787 156.5,-88.8787 287.5,-88.8787 287.5,-69.8787 156.5,-69.8787"/>
<text text-anchor="middle" x="222" y="-76.8787" font-family="Helvetica,sans-Serif" font-size="10.00">hpd_adapter_next_service</text>
</a>
</g>
</g>
<!-- Node1&#45;&gt;Node26 -->
<g id="edge27" class="edge"><title>Node1&#45;&gt;Node26</title>
<path fill="none" stroke="midnightblue" d="M67.1905,-212.154C80.5886,-183.045 109.973,-128.043 152,-98.3787 157.482,-94.5096 163.721,-91.4273 170.154,-88.9722"/>
<polygon fill="midnightblue" stroke="midnightblue" points="63.8498,-211.053 62.9839,-221.612 70.2458,-213.897 63.8498,-211.053"/>
</g>
<!-- Node27 -->
<g id="node27" class="node"><title>Node27</title>
<g id="a_node27"><a xlink:href="a00064.html#a928f2263cd4b1d300e9c73936531c544" target="_top" xlink:title="hpd_device_next_service">
<polygon fill="none" stroke="black" points="158.5,-31.8787 158.5,-50.8787 285.5,-50.8787 285.5,-31.8787 158.5,-31.8787"/>
<text text-anchor="middle" x="222" y="-38.8787" font-family="Helvetica,sans-Serif" font-size="10.00">hpd_device_next_service</text>
</a>
</g>
</g>
<!-- Node1&#45;&gt;Node27 -->
<g id="edge28" class="edge"><title>Node1&#45;&gt;Node27</title>
<path fill="none" stroke="midnightblue" d="M64.1268,-211.786C74.4918,-176.112 101.377,-100.542 152,-60.3787 156.867,-56.5175 162.465,-53.4397 168.322,-50.9867"/>
<polygon fill="midnightblue" stroke="midnightblue" points="60.7346,-210.921 61.4325,-221.493 67.4796,-212.794 60.7346,-210.921"/>
</g>
<!-- Node28 -->
<g id="node28" class="node"><title>Node28</title>
<g id="a_node28"><a xlink:href="a00072.html#adae8c0a742917417d73d4e19d9b68810" target="_top" xlink:title="on_request">
<polygon fill="none" stroke="black" points="346.5,-21.8787 346.5,-40.8787 411.5,-40.8787 411.5,-21.8787 346.5,-21.8787"/>
<text text-anchor="middle" x="379" y="-28.8787" font-family="Helvetica,sans-Serif" font-size="10.00">on_request</text>
</a>
</g>
</g>
<!-- Node1&#45;&gt;Node28 -->
<g id="edge29" class="edge"><title>Node1&#45;&gt;Node28</title>
<path fill="none" stroke="midnightblue" d="M60.9051,-211.442C66.2503,-168.046 85.6559,-65.473 152,-22.3787 214.567,18.2622 308.751,-6.38084 353.157,-21.7887"/>
<polygon fill="midnightblue" stroke="midnightblue" points="57.4052,-211.249 59.7855,-221.573 64.3628,-212.018 57.4052,-211.249"/>
</g>
<!-- Node5 -->
<g id="node5" class="node"><title>Node5</title>
<g id="a_node5"><a xlink:href="a00012.html#ab9d884c8b98aaa2f2d23e6884afdeffe" target="_top" xlink:title="hpd_demo_on_get">
<polygon fill="none" stroke="black" points="331,-410.879 331,-429.879 427,-429.879 427,-410.879 331,-410.879"/>
<text text-anchor="middle" x="379" y="-417.879" font-family="Helvetica,sans-Serif" font-size="10.00">hpd_demo_on_get</text>
</a>
</g>
</g>
<!-- Node4&#45;&gt;Node5 -->
<g id="edge4" class="edge"><title>Node4&#45;&gt;Node5</title>
<path fill="none" stroke="midnightblue" d="M272.67,-395.235C293.764,-400.271 318.03,-406.063 337.95,-410.818"/>
<polygon fill="midnightblue" stroke="midnightblue" points="273.456,-391.825 262.916,-392.907 271.83,-398.633 273.456,-391.825"/>
</g>
<!-- Node7 -->
<g id="node7" class="node"><title>Node7</title>
<g id="a_node7"><a xlink:href="a00079.html#ae30c92f3bb2ebffcbb82054ad60c1ac5" target="_top" xlink:title="hpd_rest_url_create">
<polygon fill="none" stroke="black" points="328,-372.879 328,-391.879 430,-391.879 430,-372.879 328,-372.879"/>
<text text-anchor="middle" x="379" y="-379.879" font-family="Helvetica,sans-Serif" font-size="10.00">hpd_rest_url_create</text>
</a>
</g>
</g>
<!-- Node4&#45;&gt;Node7 -->
<g id="edge6" class="edge"><title>Node4&#45;&gt;Node7</title>
<path fill="none" stroke="midnightblue" d="M283.004,-382.992C297.856,-382.896 313.611,-382.794 327.932,-382.702"/>
<polygon fill="midnightblue" stroke="midnightblue" points="282.873,-379.492 272.896,-383.057 282.919,-386.492 282.873,-379.492"/>
</g>
<!-- Node8 -->
<g id="node8" class="node"><title>Node8</title>
<g id="a_node8"><a xlink:href="a00080.html#aa3eb7c0c809c6c24396cb9321b6b57dc" target="_top" xlink:title="add_service">
<polygon fill="none" stroke="black" points="493.5,-334.879 493.5,-353.879 562.5,-353.879 562.5,-334.879 493.5,-334.879"/>
<text text-anchor="middle" x="528" y="-341.879" font-family="Helvetica,sans-Serif" font-size="10.00">add_service</text>
</a>
</g>
</g>
<!-- Node4&#45;&gt;Node8 -->
<g id="edge18" class="edge"><title>Node4&#45;&gt;Node8</title>
<path fill="none" stroke="midnightblue" d="M278.322,-371.843C294.302,-368.782 311.8,-365.69 328,-363.379 385.893,-355.12 453.788,-349.501 493.438,-346.626"/>
<polygon fill="midnightblue" stroke="midnightblue" points="277.214,-368.493 268.069,-373.841 278.554,-375.363 277.214,-368.493"/>
</g>
<!-- Node6 -->
<g id="node6" class="node"><title>Node6</title>
<g id="a_node6"><a xlink:href="a00012.html#a723fb54ea3963ea674c9830e41a40e00" target="_top" xlink:title="hpd_demo_adapter_start">
<polygon fill="none" stroke="black" points="466,-410.879 466,-429.879 590,-429.879 590,-410.879 466,-410.879"/>
<text text-anchor="middle" x="528" y="-417.879" font-family="Helvetica,sans-Serif" font-size="10.00">hpd_demo_adapter_start</text>
</a>
</g>
</g>
<!-- Node5&#45;&gt;Node6 -->
<g id="edge5" class="edge"><title>Node5&#45;&gt;Node6</title>
<path fill="none" stroke="midnightblue" d="M437.59,-420.379C446.848,-420.379 456.46,-420.379 465.8,-420.379"/>
<polygon fill="midnightblue" stroke="midnightblue" points="437.321,-416.879 427.321,-420.379 437.321,-423.879 437.321,-416.879"/>
</g>
<!-- Node7&#45;&gt;Node8 -->
<g id="edge7" class="edge"><title>Node7&#45;&gt;Node8</title>
<path fill="none" stroke="midnightblue" d="M427.059,-370.214C448.663,-364.629 473.785,-358.135 493.436,-353.055"/>
<polygon fill="midnightblue" stroke="midnightblue" points="425.9,-366.898 417.094,-372.79 427.652,-373.675 425.9,-366.898"/>
</g>
<!-- Node9 -->
<g id="node9" class="node"><title>Node9</title>
<g id="a_node9"><a xlink:href="a00080.html#a2e3a16674e810068b936c145267184bb" target="_top" xlink:title="add_services">
<polygon fill="none" stroke="black" points="626,-315.879 626,-334.879 700,-334.879 700,-315.879 626,-315.879"/>
<text text-anchor="middle" x="663" y="-322.879" font-family="Helvetica,sans-Serif" font-size="10.00">add_services</text>
</a>
</g>
</g>
<!-- Node8&#45;&gt;Node9 -->
<g id="edge8" class="edge"><title>Node8&#45;&gt;Node9</title>
<path fill="none" stroke="midnightblue" d="M572.87,-338.112C589.972,-335.668 609.343,-332.901 625.646,-330.572"/>
<polygon fill="midnightblue" stroke="midnightblue" points="571.966,-334.705 562.562,-339.584 572.956,-341.635 571.966,-334.705"/>
</g>
<!-- Node10 -->
<g id="node10" class="node"><title>Node10</title>
<g id="a_node10"><a xlink:href="a00080.html#a57ebcecdb1a111267049578c1d9c51de" target="_top" xlink:title="add_device">
<polygon fill="none" stroke="black" points="739,-306.879 739,-325.879 805,-325.879 805,-306.879 739,-306.879"/>
<text text-anchor="middle" x="772" y="-313.879" font-family="Helvetica,sans-Serif" font-size="10.00">add_device</text>
</a>
</g>
</g>
<!-- Node9&#45;&gt;Node10 -->
<g id="edge9" class="edge"><title>Node9&#45;&gt;Node10</title>
<path fill="none" stroke="midnightblue" d="M710.416,-321.475C719.974,-320.671 729.838,-319.841 738.76,-319.09"/>
<polygon fill="midnightblue" stroke="midnightblue" points="709.897,-318.006 700.225,-322.332 710.484,-324.981 709.897,-318.006"/>
</g>
<!-- Node11 -->
<g id="node11" class="node"><title>Node11</title>
<g id="a_node11"><a xlink:href="a00080.html#a4028efc20daa3dbda3727bcb6fdd0635" target="_top" xlink:title="add_devices">
<polygon fill="none" stroke="black" points="869.5,-301.879 869.5,-320.879 940.5,-320.879 940.5,-301.879 869.5,-301.879"/>
<text text-anchor="middle" x="905" y="-308.879" font-family="Helvetica,sans-Serif" font-size="10.00">add_devices</text>
</a>
</g>
</g>
<!-- Node10&#45;&gt;Node11 -->
<g id="edge10" class="edge"><title>Node10&#45;&gt;Node11</title>
<path fill="none" stroke="midnightblue" d="M815.467,-314.758C832.798,-314.096 852.595,-313.341 869.066,-312.712"/>
<polygon fill="midnightblue" stroke="midnightblue" points="814.905,-311.277 805.046,-315.156 815.172,-318.272 814.905,-311.277"/>
</g>
<!-- Node12 -->
<g id="node12" class="node"><title>Node12</title>
<g id="a_node12"><a xlink:href="a00080.html#aa21890dddb121282884859a2c8bfd134" target="_top" xlink:title="add_adapter">
<polygon fill="none" stroke="black" points="1002,-299.879 1002,-318.879 1072,-318.879 1072,-299.879 1002,-299.879"/>
<text text-anchor="middle" x="1037" y="-306.879" font-family="Helvetica,sans-Serif" font-size="10.00">add_adapter</text>
</a>
</g>
</g>
<!-- Node11&#45;&gt;Node12 -->
<g id="edge11" class="edge"><title>Node11&#45;&gt;Node12</title>
<path fill="none" stroke="midnightblue" d="M950.955,-310.687C967.683,-310.43 986.375,-310.142 1001.97,-309.902"/>
<polygon fill="midnightblue" stroke="midnightblue" points="950.783,-307.189 940.838,-310.843 950.89,-314.188 950.783,-307.189"/>
</g>
<!-- Node13 -->
<g id="node13" class="node"><title>Node13</title>
<g id="a_node13"><a xlink:href="a00080.html#a9a90e4e11e2111c0d0b29f277b1d24c4" target="_top" xlink:title="add_adapters">
<polygon fill="none" stroke="black" points="1108,-298.879 1108,-317.879 1183,-317.879 1183,-298.879 1108,-298.879"/>
<text text-anchor="middle" x="1145.5" y="-305.879" font-family="Helvetica,sans-Serif" font-size="10.00">add_adapters</text>
</a>
</g>
</g>
<!-- Node12&#45;&gt;Node13 -->
<g id="edge12" class="edge"><title>Node12&#45;&gt;Node13</title>
<path fill="none" stroke="midnightblue" d="M1082.36,-308.962C1090.8,-308.883 1099.54,-308.801 1107.71,-308.724"/>
<polygon fill="midnightblue" stroke="midnightblue" points="1082.25,-305.463 1072.28,-309.057 1082.32,-312.463 1082.25,-305.463"/>
</g>
<!-- Node14 -->
<g id="node14" class="node"><title>Node14</title>
<g id="a_node14"><a xlink:href="a00080.html#ab8e279d4c33ab258d7118b3e2f28400e" target="_top" xlink:title="add_configuration">
<polygon fill="none" stroke="black" points="1219,-297.879 1219,-316.879 1312,-316.879 1312,-297.879 1219,-297.879"/>
<text text-anchor="middle" x="1265.5" y="-304.879" font-family="Helvetica,sans-Serif" font-size="10.00">add_configuration</text>
</a>
</g>
</g>
<!-- Node13&#45;&gt;Node14 -->
<g id="edge13" class="edge"><title>Node13&#45;&gt;Node14</title>
<path fill="none" stroke="midnightblue" d="M1193.2,-307.983C1201.58,-307.912 1210.31,-307.838 1218.67,-307.767"/>
<polygon fill="midnightblue" stroke="midnightblue" points="1193.16,-304.483 1183.19,-308.068 1193.22,-311.483 1193.16,-304.483"/>
</g>
<!-- Node15 -->
<g id="node15" class="node"><title>Node15</title>
<g id="a_node15"><a xlink:href="a00081.html#a0f69305250a2916043c87e8e3865b28d" target="_top" xlink:title="hpd_rest_json_get_configuration">
<polygon fill="none" stroke="black" points="1348,-297.879 1348,-316.879 1505,-316.879 1505,-297.879 1348,-297.879"/>
<text text-anchor="middle" x="1426.5" y="-304.879" font-family="Helvetica,sans-Serif" font-size="10.00">hpd_rest_json_get_configuration</text>
</a>
</g>
</g>
<!-- Node14&#45;&gt;Node15 -->
<g id="edge14" class="edge"><title>Node14&#45;&gt;Node15</title>
<path fill="none" stroke="midnightblue" d="M1322.3,-307.379C1330.56,-307.379 1339.19,-307.379 1347.8,-307.379"/>
<polygon fill="midnightblue" stroke="midnightblue" points="1322.06,-303.879 1312.06,-307.379 1322.06,-310.879 1322.06,-303.879"/>
</g>
<!-- Node16 -->
<g id="node16" class="node"><title>Node16</title>
<g id="a_node16"><a xlink:href="a00025.html#a144860c2e3dfe3d8d9fd021968bbd8ff" target="_top" xlink:title="reply_devices">
<polygon fill="none" stroke="black" points="1541,-297.879 1541,-316.879 1618,-316.879 1618,-297.879 1541,-297.879"/>
<text text-anchor="middle" x="1579.5" y="-304.879" font-family="Helvetica,sans-Serif" font-size="10.00">reply_devices</text>
</a>
</g>
</g>
<!-- Node15&#45;&gt;Node16 -->
<g id="edge15" class="edge"><title>Node15&#45;&gt;Node16</title>
<path fill="none" stroke="midnightblue" d="M1515.36,-307.379C1524.29,-307.379 1532.98,-307.379 1540.91,-307.379"/>
<polygon fill="midnightblue" stroke="midnightblue" points="1515.21,-303.879 1505.21,-307.379 1515.21,-310.879 1515.21,-303.879"/>
</g>
<!-- Node17 -->
<g id="node17" class="node"><title>Node17</title>
<g id="a_node17"><a xlink:href="a00025.html#abd6f4422cb70766aae33a18dc6b6cb74" target="_top" xlink:title="on_req_hdr_cmpl">
<polygon fill="none" stroke="black" points="1654,-259.879 1654,-278.879 1745,-278.879 1745,-259.879 1654,-259.879"/>
<text text-anchor="middle" x="1699.5" y="-266.879" font-family="Helvetica,sans-Serif" font-size="10.00">on_req_hdr_cmpl</text>
</a>
</g>
</g>
<!-- Node16&#45;&gt;Node17 -->
<g id="edge16" class="edge"><title>Node16&#45;&gt;Node17</title>
<path fill="none" stroke="midnightblue" d="M1619.88,-294.698C1635.82,-289.564 1653.92,-283.735 1668.73,-278.965"/>
<polygon fill="midnightblue" stroke="midnightblue" points="1618.72,-291.393 1610.28,-297.79 1620.87,-298.056 1618.72,-291.393"/>
</g>
<!-- Node18 -->
<g id="node18" class="node"><title>Node18</title>
<g id="a_node18"><a xlink:href="a00025.html#ad079431c7eba97c5dd5e4e202cdf6102" target="_top" xlink:title="on_create">
<polygon fill="none" stroke="black" points="1781,-235.879 1781,-254.879 1840,-254.879 1840,-235.879 1781,-235.879"/>
<text text-anchor="middle" x="1810.5" y="-242.879" font-family="Helvetica,sans-Serif" font-size="10.00">on_create</text>
</a>
</g>
</g>
<!-- Node17&#45;&gt;Node18 -->
<g id="edge17" class="edge"><title>Node17&#45;&gt;Node18</title>
<path fill="none" stroke="midnightblue" d="M1753.95,-257.61C1763.28,-255.556 1772.65,-253.493 1780.96,-251.662"/>
<polygon fill="midnightblue" stroke="midnightblue" points="1752.91,-254.256 1743.89,-259.824 1754.41,-261.092 1752.91,-254.256"/>
</g>
<!-- Node21&#45;&gt;Node17 -->
<g id="edge22" class="edge"><title>Node21&#45;&gt;Node17</title>
<path fill="none" stroke="midnightblue" d="M976.458,-269.379C1023.94,-269.379 1087.99,-269.379 1144.5,-269.379 1144.5,-269.379 1144.5,-269.379 1427.5,-269.379 1507.25,-269.379 1600.2,-269.379 1653.9,-269.379"/>
<polygon fill="midnightblue" stroke="midnightblue" points="976.282,-265.879 966.282,-269.379 976.282,-272.879 976.282,-265.879"/>
</g>
<!-- Node29 -->
<g id="node29" class="node"><title>Node29</title>
<g id="a_node29"><a xlink:href="a00073.html#a49ae36dd88ac39bfa09a7cfc34323872" target="_top" xlink:title="request_request">
<polygon fill="none" stroke="black" points="485,-50.8787 485,-69.8787 571,-69.8787 571,-50.8787 485,-50.8787"/>
<text text-anchor="middle" x="528" y="-57.8787" font-family="Helvetica,sans-Serif" font-size="10.00">request_request</text>
</a>
</g>
</g>
<!-- Node28&#45;&gt;Node29 -->
<g id="edge30" class="edge"><title>Node28&#45;&gt;Node29</title>
<path fill="none" stroke="midnightblue" d="M421.51,-39.5677C441.334,-43.4786 465.016,-48.1506 484.914,-52.0761"/>
<polygon fill="midnightblue" stroke="midnightblue" points="422.024,-36.1017 411.535,-37.5999 420.669,-42.9693 422.024,-36.1017"/>
</g>
<!-- Node30 -->
<g id="node30" class="node"><title>Node30</title>
<g id="a_node30"><a xlink:href="a00074.html#a077adc41aa1c0f7270a995ff42420424" target="_top" xlink:title="hpd_request">
<polygon fill="none" stroke="black" points="628,-107.879 628,-126.879 698,-126.879 698,-107.879 628,-107.879"/>
<text text-anchor="middle" x="663" y="-114.879" font-family="Helvetica,sans-Serif" font-size="10.00">hpd_request</text>
</a>
</g>
</g>
<!-- Node29&#45;&gt;Node30 -->
<g id="edge31" class="edge"><title>Node29&#45;&gt;Node30</title>
<path fill="none" stroke="midnightblue" d="M560.776,-73.9968C585.108,-84.4252 618.063,-98.5484 639.666,-107.807"/>
<polygon fill="midnightblue" stroke="midnightblue" points="561.831,-70.6415 551.261,-69.9192 559.074,-77.0755 561.831,-70.6415"/>
</g>
<!-- Node31 -->
<g id="node31" class="node"><title>Node31</title>
<g id="a_node31"><a xlink:href="a00025.html#a74ba52adbe4c46e9a9c33649e3b75243" target="_top" xlink:title="on_req_cmpl">
<polygon fill="none" stroke="black" points="736,-164.879 736,-183.879 808,-183.879 808,-164.879 736,-164.879"/>
<text text-anchor="middle" x="772" y="-171.879" font-family="Helvetica,sans-Serif" font-size="10.00">on_req_cmpl</text>
</a>
</g>
</g>
<!-- Node30&#45;&gt;Node31 -->
<g id="edge32" class="edge"><title>Node30&#45;&gt;Node31</title>
<path fill="none" stroke="midnightblue" d="M691.13,-131.831C710.567,-142.186 736.197,-155.839 753.117,-164.852"/>
<polygon fill="midnightblue" stroke="midnightblue" points="692.622,-128.661 682.151,-127.048 689.331,-134.839 692.622,-128.661"/>
</g>
<!-- Node31&#45;&gt;Node18 -->
<g id="edge33" class="edge"><title>Node31&#45;&gt;Node18</title>
<path fill="none" stroke="midnightblue" d="M818.174,-181.02C870.476,-188.123 959.274,-198.379 1036,-198.379 1036,-198.379 1036,-198.379 1580.5,-198.379 1654.37,-198.379 1738.95,-222.134 1781.67,-235.868"/>
<polygon fill="midnightblue" stroke="midnightblue" points="818.599,-177.546 808.215,-179.646 817.642,-184.48 818.599,-177.546"/>
</g>
</g>
</svg>
