<?xml version="1.0" encoding="UTF-8" standalone="no"?>
<!DOCTYPE svg PUBLIC "-//W3C//DTD SVG 1.1//EN"
 "http://www.w3.org/Graphics/SVG/1.1/DTD/svg11.dtd">
<!-- Generated by graphviz version 2.38.0 (20140413.2041)
 -->
<!-- Title: log_vlogf Pages: 1 -->
<svg width="159pt" height="104pt"
 viewBox="0.00 0.00 159.00 104.00" xmlns="http://www.w3.org/2000/svg" xmlns:xlink="http://www.w3.org/1999/xlink">
<g id="graph0" class="graph" transform="scale(1 1) rotate(0) translate(4 100)">
<title>log_vlogf</title>
<!-- Node1 -->
<g id="node1" class="node"><title>Node1</title>
<polygon fill="#bfbfbf" stroke="black" points="0,-38.5 0,-57.5 56,-57.5 56,-38.5 0,-38.5"/>
<text text-anchor="middle" x="28" y="-45.5" font-family="Helvetica,sans-Serif" font-size="10.00">log_vlogf</text>
</g>
<!-- Node2 -->
<g id="node2" class="node"><title>Node2</title>
<g id="a_node2"><a xlink:href="a00066.html#a4157fdbde0bd4f1f113ae29cf9ca4aca" target="_top" xlink:title="log_logf">
<polygon fill="none" stroke="black" points="96.5,-76.5 96.5,-95.5 146.5,-95.5 146.5,-76.5 96.5,-76.5"/>
<text text-anchor="middle" x="121.5" y="-83.5" font-family="Helvetica,sans-Serif" font-size="10.00">log_logf</text>
</a>
</g>
</g>
<!-- Node1&#45;&gt;Node2 -->
<g id="edge1" class="edge"><title>Node1&#45;&gt;Node2</title>
<path fill="none" stroke="midnightblue" d="M61.6478,-61.5587C73.4771,-66.4714 86.5826,-71.9141 97.4181,-76.4141"/>
<polygon fill="midnightblue" stroke="midnightblue" points="62.667,-58.1921 52.0893,-57.589 59.9822,-64.6568 62.667,-58.1921"/>
</g>
<!-- Node3 -->
<g id="node3" class="node"><title>Node3</title>
<g id="a_node3"><a xlink:href="a00067.html#aeae04e52f7ec61b5f07fce88a3380a5f" target="_top" xlink:title="[hpd_t functions] ">
<polygon fill="none" stroke="black" points="95,-38.5 95,-57.5 148,-57.5 148,-38.5 95,-38.5"/>
<text text-anchor="middle" x="121.5" y="-45.5" font-family="Helvetica,sans-Serif" font-size="10.00">hpd_logf</text>
</a>
</g>
</g>
<!-- Node1&#45;&gt;Node3 -->
<g id="edge2" class="edge"><title>Node1&#45;&gt;Node3</title>
<path fill="none" stroke="midnightblue" d="M66.5434,-48C76.0968,-48 86.1438,-48 94.9437,-48"/>
<polygon fill="midnightblue" stroke="midnightblue" points="66.4531,-44.5001 56.453,-48 66.453,-51.5001 66.4531,-44.5001"/>
</g>
<!-- Node4 -->
<g id="node4" class="node"><title>Node4</title>
<g id="a_node4"><a xlink:href="a00067.html#a8ef10c6537eea5fd723aa619bbc2bf4c" target="_top" xlink:title="hpd_vlogf">
<polygon fill="none" stroke="black" points="92,-0.5 92,-19.5 151,-19.5 151,-0.5 92,-0.5"/>
<text text-anchor="middle" x="121.5" y="-7.5" font-family="Helvetica,sans-Serif" font-size="10.00">hpd_vlogf</text>
</a>
</g>
</g>
<!-- Node1&#45;&gt;Node4 -->
<g id="edge3" class="edge"><title>Node1&#45;&gt;Node4</title>
<path fill="none" stroke="midnightblue" d="M61.6478,-34.4413C73.4771,-29.5286 86.5826,-24.0859 97.4181,-19.5859"/>
<polygon fill="midnightblue" stroke="midnightblue" points="59.9822,-31.3432 52.0893,-38.411 62.667,-37.8079 59.9822,-31.3432"/>
</g>
</g>
</svg>
