<?xml version="1.0" encoding="UTF-8" standalone="no"?>
<!DOCTYPE svg PUBLIC "-//W3C//DTD SVG 1.1//EN"
 "http://www.w3.org/Graphics/SVG/1.1/DTD/svg11.dtd">
<!-- Generated by graphviz version 2.38.0 (20140413.2041)
 -->
<!-- Title: discovery_set_service_attrs_v Pages: 1 -->
<svg width="602pt" height="104pt"
 viewBox="0.00 0.00 602.00 104.00" xmlns="http://www.w3.org/2000/svg" xmlns:xlink="http://www.w3.org/1999/xlink">
<g id="graph0" class="graph" transform="scale(1 1) rotate(0) translate(4 100)">
<title>discovery_set_service_attrs_v</title>
<!-- Node1 -->
<g id="node1" class="node"><title>Node1</title>
<polygon fill="#bfbfbf" stroke="black" points="0,-33 0,-63 114,-63 114,-33 0,-33"/>
<text text-anchor="start" x="8" y="-51" font-family="Helvetica,sans-Serif" font-size="10.00">discovery_set_service</text>
<text text-anchor="middle" x="57" y="-40" font-family="Helvetica,sans-Serif" font-size="10.00">_attrs_v</text>
</g>
<!-- Node2 -->
<g id="node2" class="node"><title>Node2</title>
<g id="a_node2"><a xlink:href="a00078.html#a2c62fa50d5ba2ac0e0db8df95d319687" target="_top" xlink:title="discovery_set_service_attr">
<polygon fill="none" stroke="black" points="150,-38.5 150,-57.5 284,-57.5 284,-38.5 150,-38.5"/>
<text text-anchor="middle" x="217" y="-45.5" font-family="Helvetica,sans-Serif" font-size="10.00">discovery_set_service_attr</text>
</a>
</g>
</g>
<!-- Node1&#45;&gt;Node2 -->
<g id="edge1" class="edge"><title>Node1&#45;&gt;Node2</title>
<path fill="none" stroke="midnightblue" d="M114.15,-48C122.438,-48 131.092,-48 139.704,-48"/>
<polygon fill="midnightblue" stroke="midnightblue" points="139.77,-51.5001 149.77,-48 139.77,-44.5001 139.77,-51.5001"/>
</g>
<!-- Node3 -->
<g id="node3" class="node"><title>Node3</title>
<g id="a_node3"><a xlink:href="a00056.html#a230c25a2f8e5de7ce61623a4ce8a809f" target="_top" xlink:title="hpd_map_set">
<polygon fill="none" stroke="black" points="320,-38.5 320,-57.5 395,-57.5 395,-38.5 320,-38.5"/>
<text text-anchor="middle" x="357.5" y="-45.5" font-family="Helvetica,sans-Serif" font-size="10.00">hpd_map_set</text>
</a>
</g>
</g>
<!-- Node2&#45;&gt;Node3 -->
<g id="edge2" class="edge"><title>Node2&#45;&gt;Node3</title>
<path fill="none" stroke="midnightblue" d="M284.005,-48C292.627,-48 301.316,-48 309.536,-48"/>
<polygon fill="midnightblue" stroke="midnightblue" points="309.657,-51.5001 319.657,-48 309.657,-44.5001 309.657,-51.5001"/>
</g>
<!-- Node4 -->
<g id="node4" class="node"><title>Node4</title>
<g id="a_node4"><a xlink:href="a00031.html#ae1085dd4fd40466d18b02ec077ef4d6d" target="_top" xlink:title="hpd_map_remove">
<polygon fill="none" stroke="black" points="431,-76.5 431,-95.5 525,-95.5 525,-76.5 431,-76.5"/>
<text text-anchor="middle" x="478" y="-83.5" font-family="Helvetica,sans-Serif" font-size="10.00">hpd_map_remove</text>
</a>
</g>
</g>
<!-- Node3&#45;&gt;Node4 -->
<g id="edge3" class="edge"><title>Node3&#45;&gt;Node4</title>
<path fill="none" stroke="midnightblue" d="M388.403,-57.589C403.279,-62.3594 421.457,-68.1888 437.467,-73.3229"/>
<polygon fill="midnightblue" stroke="midnightblue" points="436.516,-76.6932 447.107,-76.4141 438.653,-70.0276 436.516,-76.6932"/>
</g>
<!-- Node6 -->
<g id="node6" class="node"><title>Node6</title>
<g id="a_node6"><a xlink:href="a00031.html#a68e8a71a4dc9b51ca36d2389ed89b336" target="_top" xlink:title="map_insert">
<polygon fill="none" stroke="black" points="445.5,-38.5 445.5,-57.5 510.5,-57.5 510.5,-38.5 445.5,-38.5"/>
<text text-anchor="middle" x="478" y="-45.5" font-family="Helvetica,sans-Serif" font-size="10.00">map_insert</text>
</a>
</g>
</g>
<!-- Node3&#45;&gt;Node6 -->
<g id="edge5" class="edge"><title>Node3&#45;&gt;Node6</title>
<path fill="none" stroke="midnightblue" d="M395.021,-48C407.684,-48 421.981,-48 435.047,-48"/>
<polygon fill="midnightblue" stroke="midnightblue" points="435.208,-51.5001 445.208,-48 435.208,-44.5001 435.208,-51.5001"/>
</g>
<!-- Node7 -->
<g id="node7" class="node"><title>Node7</title>
<g id="a_node7"><a xlink:href="a00031.html#ac16b47a5d68b6eaae2e709e1888982fd" target="_top" xlink:title="map_replace">
<polygon fill="none" stroke="black" points="442,-0.5 442,-19.5 514,-19.5 514,-0.5 442,-0.5"/>
<text text-anchor="middle" x="478" y="-7.5" font-family="Helvetica,sans-Serif" font-size="10.00">map_replace</text>
</a>
</g>
</g>
<!-- Node3&#45;&gt;Node7 -->
<g id="edge7" class="edge"><title>Node3&#45;&gt;Node7</title>
<path fill="none" stroke="midnightblue" d="M388.403,-38.411C403.279,-33.6406 421.457,-27.8112 437.467,-22.6771"/>
<polygon fill="midnightblue" stroke="midnightblue" points="438.653,-25.9724 447.107,-19.5859 436.516,-19.3068 438.653,-25.9724"/>
</g>
<!-- Node5 -->
<g id="node5" class="node"><title>Node5</title>
<g id="a_node5"><a xlink:href="a00012.html#adf46370d9c211c3be22966b4606ba9b0" target="_top" xlink:title="free">
<polygon fill="none" stroke="black" points="561,-57.5 561,-76.5 594,-76.5 594,-57.5 561,-57.5"/>
<text text-anchor="middle" x="577.5" y="-64.5" font-family="Helvetica,sans-Serif" font-size="10.00">free</text>
</a>
</g>
</g>
<!-- Node4&#45;&gt;Node5 -->
<g id="edge4" class="edge"><title>Node4&#45;&gt;Node5</title>
<path fill="none" stroke="midnightblue" d="M525.18,-77.0008C533.978,-75.2863 542.888,-73.55 550.76,-72.016"/>
<polygon fill="midnightblue" stroke="midnightblue" points="551.596,-75.419 560.742,-70.0708 550.257,-68.5483 551.596,-75.419"/>
</g>
<!-- Node6&#45;&gt;Node5 -->
<g id="edge6" class="edge"><title>Node6&#45;&gt;Node5</title>
<path fill="none" stroke="midnightblue" d="M510.655,-54.1688C523.643,-56.6997 538.485,-59.5919 550.786,-61.989"/>
<polygon fill="midnightblue" stroke="midnightblue" points="550.346,-65.4691 560.831,-63.9465 551.685,-58.5983 550.346,-65.4691"/>
</g>
</g>
</svg>
