<?xml version="1.0" encoding="UTF-8" standalone="no"?>
<!DOCTYPE svg PUBLIC "-//W3C//DTD SVG 1.1//EN"
 "http://www.w3.org/Graphics/SVG/1.1/DTD/svg11.dtd">
<!-- Generated by graphviz version 2.38.0 (20140413.2041)
 -->
<!-- Title: value_copy Pages: 1 -->
<svg width="634pt" height="256pt"
 viewBox="0.00 0.00 634.00 256.00" xmlns="http://www.w3.org/2000/svg" xmlns:xlink="http://www.w3.org/1999/xlink">
<g id="graph0" class="graph" transform="scale(1 1) rotate(0) translate(4 252)">
<title>value_copy</title>
<!-- Node1 -->
<g id="node1" class="node"><title>Node1</title>
<polygon fill="#bfbfbf" stroke="black" points="0,-133.5 0,-152.5 66,-152.5 66,-133.5 0,-133.5"/>
<text text-anchor="middle" x="33" y="-140.5" font-family="Helvetica,sans-Serif" font-size="10.00">value_copy</text>
</g>
<!-- Node2 -->
<g id="node2" class="node"><title>Node2</title>
<g id="a_node2"><a xlink:href="a00090.html#a9e0cbc30fcd2121d212f1995c8e834ba" target="_top" xlink:title="value_alloc">
<polygon fill="none" stroke="black" points="116,-190.5 116,-209.5 181,-209.5 181,-190.5 116,-190.5"/>
<text text-anchor="middle" x="148.5" y="-197.5" font-family="Helvetica,sans-Serif" font-size="10.00">value_alloc</text>
</a>
</g>
</g>
<!-- Node1&#45;&gt;Node2 -->
<g id="edge1" class="edge"><title>Node1&#45;&gt;Node2</title>
<path fill="none" stroke="midnightblue" d="M52.9973,-152.541C71.1662,-161.665 98.7835,-175.534 119.478,-185.927"/>
<polygon fill="midnightblue" stroke="midnightblue" points="117.934,-189.068 128.441,-190.428 121.075,-182.813 117.934,-189.068"/>
</g>
<!-- Node5 -->
<g id="node5" class="node"><title>Node5</title>
<g id="a_node5"><a xlink:href="a00090.html#a1ec3b1d4547e5080bcec544c877852da" target="_top" xlink:title="value_free">
<polygon fill="none" stroke="black" points="241,-152.5 241,-171.5 303,-171.5 303,-152.5 241,-152.5"/>
<text text-anchor="middle" x="272" y="-159.5" font-family="Helvetica,sans-Serif" font-size="10.00">value_free</text>
</a>
</g>
</g>
<!-- Node1&#45;&gt;Node5 -->
<g id="edge11" class="edge"><title>Node1&#45;&gt;Node5</title>
<path fill="none" stroke="midnightblue" d="M66.4569,-145.602C109.24,-149.032 184.489,-155.065 230.817,-158.779"/>
<polygon fill="midnightblue" stroke="midnightblue" points="230.558,-162.269 240.806,-159.579 231.118,-155.291 230.558,-162.269"/>
</g>
<!-- Node8 -->
<g id="node8" class="node"><title>Node8</title>
<g id="a_node8"><a xlink:href="a00056.html#a234fa0db60fda58722702273bf7e82a2" target="_top" xlink:title="hpd_pair_get">
<polygon fill="none" stroke="black" points="112.5,-114.5 112.5,-133.5 184.5,-133.5 184.5,-114.5 112.5,-114.5"/>
<text text-anchor="middle" x="148.5" y="-121.5" font-family="Helvetica,sans-Serif" font-size="10.00">hpd_pair_get</text>
</a>
</g>
</g>
<!-- Node1&#45;&gt;Node8 -->
<g id="edge10" class="edge"><title>Node1&#45;&gt;Node8</title>
<path fill="none" stroke="midnightblue" d="M66.2209,-137.606C77.4853,-135.721 90.3463,-133.568 102.463,-131.539"/>
<polygon fill="midnightblue" stroke="midnightblue" points="103.129,-134.977 112.414,-129.873 101.973,-128.073 103.129,-134.977"/>
</g>
<!-- Node9 -->
<g id="node9" class="node"><title>Node9</title>
<g id="a_node9"><a xlink:href="a00090.html#a8e74f34c0eb423e170161eadec463df3" target="_top" xlink:title="value_set_header">
<polygon fill="none" stroke="black" points="102,-76.5 102,-95.5 195,-95.5 195,-76.5 102,-76.5"/>
<text text-anchor="middle" x="148.5" y="-83.5" font-family="Helvetica,sans-Serif" font-size="10.00">value_set_header</text>
</a>
</g>
</g>
<!-- Node1&#45;&gt;Node9 -->
<g id="edge12" class="edge"><title>Node1&#45;&gt;Node9</title>
<path fill="none" stroke="midnightblue" d="M49.9373,-133.413C63.5462,-125.392 83.7566,-113.871 102,-105 105.811,-103.147 109.849,-101.3 113.884,-99.5266"/>
<polygon fill="midnightblue" stroke="midnightblue" points="115.365,-102.7 123.186,-95.5522 112.615,-96.2629 115.365,-102.7"/>
</g>
<!-- Node3 -->
<g id="node3" class="node"><title>Node3</title>
<g id="a_node3"><a xlink:href="a00056.html#a8d23b888fb4bb3f951c7d48f1928ee9a" target="_top" xlink:title="hpd_map_alloc">
<polygon fill="none" stroke="black" points="231,-228.5 231,-247.5 313,-247.5 313,-228.5 231,-228.5"/>
<text text-anchor="middle" x="272" y="-235.5" font-family="Helvetica,sans-Serif" font-size="10.00">hpd_map_alloc</text>
</a>
</g>
</g>
<!-- Node2&#45;&gt;Node3 -->
<g id="edge2" class="edge"><title>Node2&#45;&gt;Node3</title>
<path fill="none" stroke="midnightblue" d="M180.16,-209.589C195.412,-214.359 214.051,-220.189 230.467,-225.323"/>
<polygon fill="midnightblue" stroke="midnightblue" points="229.761,-228.769 240.35,-228.414 231.851,-222.089 229.761,-228.769"/>
</g>
<!-- Node4 -->
<g id="node4" class="node"><title>Node4</title>
<g id="a_node4"><a xlink:href="a00012.html#adf46370d9c211c3be22966b4606ba9b0" target="_top" xlink:title="free">
<polygon fill="none" stroke="black" points="593,-114.5 593,-133.5 626,-133.5 626,-114.5 593,-114.5"/>
<text text-anchor="middle" x="609.5" y="-121.5" font-family="Helvetica,sans-Serif" font-size="10.00">free</text>
</a>
</g>
</g>
<!-- Node2&#45;&gt;Node4 -->
<g id="edge3" class="edge"><title>Node2&#45;&gt;Node4</title>
<path fill="none" stroke="midnightblue" d="M181.067,-201.983C251.109,-205.292 423.847,-207.393 557,-159 568.857,-154.691 580.606,-147.037 589.882,-139.983"/>
<polygon fill="midnightblue" stroke="midnightblue" points="592.32,-142.515 597.94,-133.533 587.945,-137.05 592.32,-142.515"/>
</g>
<!-- Node2&#45;&gt;Node5 -->
<g id="edge4" class="edge"><title>Node2&#45;&gt;Node5</title>
<path fill="none" stroke="midnightblue" d="M180.16,-190.411C195.529,-185.604 214.336,-179.722 230.842,-174.56"/>
<polygon fill="midnightblue" stroke="midnightblue" points="232.272,-177.78 240.771,-171.454 230.182,-171.099 232.272,-177.78"/>
</g>
<!-- Node5&#45;&gt;Node4 -->
<g id="edge9" class="edge"><title>Node5&#45;&gt;Node4</title>
<path fill="none" stroke="midnightblue" d="M303.079,-161.245C355.171,-159.541 465.394,-154.184 557,-138 565.597,-136.481 574.841,-134.184 583.093,-131.887"/>
<polygon fill="midnightblue" stroke="midnightblue" points="584.266,-135.191 592.889,-129.036 582.31,-128.47 584.266,-135.191"/>
</g>
<!-- Node6 -->
<g id="node6" class="node"><title>Node6</title>
<g id="a_node6"><a xlink:href="a00056.html#a195d511a075f2349200563af1c5d1fd7" target="_top" xlink:title="hpd_map_free">
<polygon fill="none" stroke="black" points="349,-114.5 349,-133.5 427,-133.5 427,-114.5 349,-114.5"/>
<text text-anchor="middle" x="388" y="-121.5" font-family="Helvetica,sans-Serif" font-size="10.00">hpd_map_free</text>
</a>
</g>
</g>
<!-- Node5&#45;&gt;Node6 -->
<g id="edge5" class="edge"><title>Node5&#45;&gt;Node6</title>
<path fill="none" stroke="midnightblue" d="M301.767,-152.411C315.943,-147.686 333.237,-141.921 348.532,-136.823"/>
<polygon fill="midnightblue" stroke="midnightblue" points="349.862,-140.069 358.242,-133.586 347.649,-133.428 349.862,-140.069"/>
</g>
<!-- Node6&#45;&gt;Node4 -->
<g id="edge8" class="edge"><title>Node6&#45;&gt;Node4</title>
<path fill="none" stroke="midnightblue" d="M427.234,-124C471.728,-124 543.997,-124 582.468,-124"/>
<polygon fill="midnightblue" stroke="midnightblue" points="582.813,-127.5 592.813,-124 582.813,-120.5 582.813,-127.5"/>
</g>
<!-- Node7 -->
<g id="node7" class="node"><title>Node7</title>
<g id="a_node7"><a xlink:href="a00031.html#ae1085dd4fd40466d18b02ec077ef4d6d" target="_top" xlink:title="hpd_map_remove">
<polygon fill="none" stroke="black" points="463,-76.5 463,-95.5 557,-95.5 557,-76.5 463,-76.5"/>
<text text-anchor="middle" x="510" y="-83.5" font-family="Helvetica,sans-Serif" font-size="10.00">hpd_map_remove</text>
</a>
</g>
</g>
<!-- Node6&#45;&gt;Node7 -->
<g id="edge6" class="edge"><title>Node6&#45;&gt;Node7</title>
<path fill="none" stroke="midnightblue" d="M419.281,-114.411C434.346,-109.641 452.754,-103.811 468.967,-98.6771"/>
<polygon fill="midnightblue" stroke="midnightblue" points="470.252,-101.942 478.729,-95.5859 468.139,-95.2682 470.252,-101.942"/>
</g>
<!-- Node7&#45;&gt;Node4 -->
<g id="edge7" class="edge"><title>Node7&#45;&gt;Node4</title>
<path fill="none" stroke="midnightblue" d="M535.603,-95.589C550.179,-101.27 568.608,-108.452 583.289,-114.174"/>
<polygon fill="midnightblue" stroke="midnightblue" points="582.172,-117.495 592.76,-117.866 584.714,-110.973 582.172,-117.495"/>
</g>
<!-- Node10 -->
<g id="node10" class="node"><title>Node10</title>
<g id="a_node10"><a xlink:href="a00056.html#a230c25a2f8e5de7ce61623a4ce8a809f" target="_top" xlink:title="hpd_map_set">
<polygon fill="none" stroke="black" points="350.5,-57.5 350.5,-76.5 425.5,-76.5 425.5,-57.5 350.5,-57.5"/>
<text text-anchor="middle" x="388" y="-64.5" font-family="Helvetica,sans-Serif" font-size="10.00">hpd_map_set</text>
</a>
</g>
</g>
<!-- Node9&#45;&gt;Node10 -->
<g id="edge13" class="edge"><title>Node9&#45;&gt;Node10</title>
<path fill="none" stroke="midnightblue" d="M195.011,-82.3591C236.696,-79.0243 298.134,-74.1093 340.215,-70.7428"/>
<polygon fill="midnightblue" stroke="midnightblue" points="340.519,-74.2298 350.208,-69.9434 339.96,-67.2521 340.519,-74.2298"/>
</g>
<!-- Node10&#45;&gt;Node7 -->
<g id="edge14" class="edge"><title>Node10&#45;&gt;Node7</title>
<path fill="none" stroke="midnightblue" d="M425.656,-72.8039C434.261,-74.1663 443.625,-75.6489 452.866,-77.1121"/>
<polygon fill="midnightblue" stroke="midnightblue" points="452.379,-80.5785 462.803,-78.6855 453.474,-73.6647 452.379,-80.5785"/>
</g>
<!-- Node11 -->
<g id="node11" class="node"><title>Node11</title>
<g id="a_node11"><a xlink:href="a00031.html#a68e8a71a4dc9b51ca36d2389ed89b336" target="_top" xlink:title="map_insert">
<polygon fill="none" stroke="black" points="477.5,-38.5 477.5,-57.5 542.5,-57.5 542.5,-38.5 477.5,-38.5"/>
<text text-anchor="middle" x="510" y="-45.5" font-family="Helvetica,sans-Serif" font-size="10.00">map_insert</text>
</a>
</g>
</g>
<!-- Node10&#45;&gt;Node11 -->
<g id="edge15" class="edge"><title>Node10&#45;&gt;Node11</title>
<path fill="none" stroke="midnightblue" d="M425.656,-61.1961C438.838,-59.109 453.801,-56.7398 467.375,-54.5906"/>
<polygon fill="midnightblue" stroke="midnightblue" points="468.103,-58.0191 477.432,-52.9982 467.008,-51.1052 468.103,-58.0191"/>
</g>
<!-- Node12 -->
<g id="node12" class="node"><title>Node12</title>
<g id="a_node12"><a xlink:href="a00031.html#ac16b47a5d68b6eaae2e709e1888982fd" target="_top" xlink:title="map_replace">
<polygon fill="none" stroke="black" points="474,-0.5 474,-19.5 546,-19.5 546,-0.5 474,-0.5"/>
<text text-anchor="middle" x="510" y="-7.5" font-family="Helvetica,sans-Serif" font-size="10.00">map_replace</text>
</a>
</g>
</g>
<!-- Node10&#45;&gt;Node12 -->
<g id="edge17" class="edge"><title>Node10&#45;&gt;Node12</title>
<path fill="none" stroke="midnightblue" d="M406.739,-57.3665C421.604,-49.4215 443.468,-38.0301 463,-29 466.882,-27.2052 470.983,-25.3941 475.073,-23.6401"/>
<polygon fill="midnightblue" stroke="midnightblue" points="476.623,-26.7853 484.487,-19.6857 473.912,-20.3316 476.623,-26.7853"/>
</g>
<!-- Node11&#45;&gt;Node4 -->
<g id="edge16" class="edge"><title>Node11&#45;&gt;Node4</title>
<path fill="none" stroke="midnightblue" d="M539.766,-57.5703C545.725,-60.1754 551.773,-63.3168 557,-67 572.264,-77.7566 586.237,-93.7978 595.765,-106.125"/>
<polygon fill="midnightblue" stroke="midnightblue" points="593.089,-108.391 601.872,-114.316 598.701,-104.207 593.089,-108.391"/>
</g>
</g>
</svg>
