<?xml version="1.0" encoding="UTF-8" standalone="no"?>
<!DOCTYPE svg PUBLIC "-//W3C//DTD SVG 1.1//EN"
 "http://www.w3.org/Graphics/SVG/1.1/DTD/svg11.dtd">
<!-- Generated by graphviz version 2.38.0 (20140413.2041)
 -->
<!-- Title: hpd_value_get_header Pages: 1 -->
<svg width="362pt" height="28pt"
 viewBox="0.00 0.00 362.00 28.00" xmlns="http://www.w3.org/2000/svg" xmlns:xlink="http://www.w3.org/1999/xlink">
<g id="graph0" class="graph" transform="scale(1 1) rotate(0) translate(4 24)">
<title>hpd_value_get_header</title>
<!-- Node1 -->
<g id="node1" class="node"><title>Node1</title>
<polygon fill="#bfbfbf" stroke="black" points="0,-0.5 0,-19.5 114,-19.5 114,-0.5 0,-0.5"/>
<text text-anchor="middle" x="57" y="-7.5" font-family="Helvetica,sans-Serif" font-size="10.00">hpd_value_get_header</text>
</g>
<!-- Node2 -->
<g id="node2" class="node"><title>Node2</title>
<g id="a_node2"><a xlink:href="a00075.html#a5c3656ff3f657081f5283087fd959727" target="_top" xlink:title="value_get_header">
<polygon fill="none" stroke="black" points="150,-0.5 150,-19.5 243,-19.5 243,-0.5 150,-0.5"/>
<text text-anchor="middle" x="196.5" y="-7.5" font-family="Helvetica,sans-Serif" font-size="10.00">value_get_header</text>
</a>
</g>
</g>
<!-- Node1&#45;&gt;Node2 -->
<g id="edge1" class="edge"><title>Node1&#45;&gt;Node2</title>
<path fill="none" stroke="midnightblue" d="M114.323,-10C122.76,-10 131.454,-10 139.876,-10"/>
<polygon fill="midnightblue" stroke="midnightblue" points="139.977,-13.5001 149.977,-10 139.977,-6.5001 139.977,-13.5001"/>
</g>
<!-- Node3 -->
<g id="node3" class="node"><title>Node3</title>
<g id="a_node3"><a xlink:href="a00046.html#a3eb33be000f845d28ec16639f235ceb2" target="_top" xlink:title="hpd_map_get">
<polygon fill="none" stroke="black" points="279,-0.5 279,-19.5 354,-19.5 354,-0.5 279,-0.5"/>
<text text-anchor="middle" x="316.5" y="-7.5" font-family="Helvetica,sans-Serif" font-size="10.00">hpd_map_get</text>
</a>
</g>
</g>
<!-- Node2&#45;&gt;Node3 -->
<g id="edge2" class="edge"><title>Node2&#45;&gt;Node3</title>
<path fill="none" stroke="midnightblue" d="M243.122,-10C251.513,-10 260.286,-10 268.711,-10"/>
<polygon fill="midnightblue" stroke="midnightblue" points="268.767,-13.5001 278.767,-10 268.767,-6.5001 268.767,-13.5001"/>
</g>
</g>
</svg>
