<?xml version="1.0" encoding="UTF-8" standalone="no"?>
<!DOCTYPE svg PUBLIC "-//W3C//DTD SVG 1.1//EN"
 "http://www.w3.org/Graphics/SVG/1.1/DTD/svg11.dtd">
<!-- Generated by graphviz version 2.38.0 (20140413.2041)
 -->
<!-- Title: hp_create Pages: 1 -->
<svg width="525pt" height="66pt"
 viewBox="0.00 0.00 525.00 66.00" xmlns="http://www.w3.org/2000/svg" xmlns:xlink="http://www.w3.org/1999/xlink">
<g id="graph0" class="graph" transform="scale(1 1) rotate(0) translate(4 62)">
<title>hp_create</title>
<!-- Node1 -->
<g id="node1" class="node"><title>Node1</title>
<polygon fill="#bfbfbf" stroke="black" points="0,-19.5 0,-38.5 59,-38.5 59,-19.5 0,-19.5"/>
<text text-anchor="middle" x="29.5" y="-26.5" font-family="Helvetica,sans-Serif" font-size="10.00">hp_create</text>
</g>
<!-- Node2 -->
<g id="node2" class="node"><title>Node2</title>
<g id="a_node2"><a xlink:href="a00040.html#a64ce145f4bd2b212ac9494fb18b43615" target="_top" xlink:title="Create a new ws_request. ">
<polygon fill="none" stroke="black" points="95,-19.5 95,-38.5 198,-38.5 198,-19.5 95,-19.5"/>
<text text-anchor="middle" x="146.5" y="-26.5" font-family="Helvetica,sans-Serif" font-size="10.00">http_request_create</text>
</a>
</g>
</g>
<!-- Node1&#45;&gt;Node2 -->
<g id="edge1" class="edge"><title>Node1&#45;&gt;Node2</title>
<path fill="none" stroke="midnightblue" d="M69.2436,-29C77.4421,-29 86.2119,-29 94.7782,-29"/>
<polygon fill="midnightblue" stroke="midnightblue" points="69.2227,-25.5001 59.2227,-29 69.2227,-32.5001 69.2227,-25.5001"/>
</g>
<!-- Node3 -->
<g id="node3" class="node"><title>Node3</title>
<g id="a_node3"><a xlink:href="a00015.html#acbf369331509bd9760bf346f6292376a" target="_top" xlink:title="Callback for tcpd library. ">
<polygon fill="none" stroke="black" points="234,-19.5 234,-38.5 301,-38.5 301,-19.5 234,-19.5"/>
<text text-anchor="middle" x="267.5" y="-26.5" font-family="Helvetica,sans-Serif" font-size="10.00">on_connect</text>
</a>
</g>
</g>
<!-- Node2&#45;&gt;Node3 -->
<g id="edge2" class="edge"><title>Node2&#45;&gt;Node3</title>
<path fill="none" stroke="midnightblue" d="M208.509,-29C217.216,-29 225.881,-29 233.755,-29"/>
<polygon fill="midnightblue" stroke="midnightblue" points="208.312,-25.5001 198.312,-29 208.312,-32.5001 208.312,-25.5001"/>
</g>
<!-- Node4 -->
<g id="node4" class="node"><title>Node4</title>
<g id="a_node4"><a xlink:href="a00015.html#a8287f77cb41a94d39f282b607616df70" target="_top" xlink:title="Create a new httpd instance. ">
<polygon fill="none" stroke="black" points="337,-19.5 337,-38.5 429,-38.5 429,-19.5 337,-19.5"/>
<text text-anchor="middle" x="383" y="-26.5" font-family="Helvetica,sans-Serif" font-size="10.00">hpd_httpd_create</text>
</a>
</g>
</g>
<!-- Node3&#45;&gt;Node4 -->
<g id="edge3" class="edge"><title>Node3&#45;&gt;Node4</title>
<path fill="none" stroke="midnightblue" d="M311.289,-29C319.619,-29 328.378,-29 336.784,-29"/>
<polygon fill="midnightblue" stroke="midnightblue" points="311.025,-25.5001 301.025,-29 311.025,-32.5001 311.025,-25.5001"/>
</g>
<!-- Node5 -->
<g id="node5" class="node"><title>Node5</title>
<g id="a_node5"><a xlink:href="a00038.html#a0ddf1224851353fc92bfbff6f499fa97" target="_top" xlink:title="main">
<polygon fill="none" stroke="black" points="472,-38.5 472,-57.5 510,-57.5 510,-38.5 472,-38.5"/>
<text text-anchor="middle" x="491" y="-45.5" font-family="Helvetica,sans-Serif" font-size="10.00">main</text>
</a>
</g>
</g>
<!-- Node4&#45;&gt;Node5 -->
<g id="edge4" class="edge"><title>Node4&#45;&gt;Node5</title>
<path fill="none" stroke="midnightblue" d="M439.153,-38.8859C450.951,-41.0006 462.606,-43.0897 471.775,-44.7333"/>
<polygon fill="midnightblue" stroke="midnightblue" points="439.722,-35.4321 429.261,-37.1128 438.487,-42.3223 439.722,-35.4321"/>
</g>
<!-- Node6 -->
<g id="node6" class="node"><title>Node6</title>
<g id="a_node6"><a xlink:href="a00025.html#a665691f420dff4eebb8f4b4af62d7a49" target="_top" xlink:title="on_start">
<polygon fill="none" stroke="black" points="465,-0.5 465,-19.5 517,-19.5 517,-0.5 465,-0.5"/>
<text text-anchor="middle" x="491" y="-7.5" font-family="Helvetica,sans-Serif" font-size="10.00">on_start</text>
</a>
</g>
</g>
<!-- Node4&#45;&gt;Node6 -->
<g id="edge5" class="edge"><title>Node4&#45;&gt;Node6</title>
<path fill="none" stroke="midnightblue" d="M439.302,-19.0874C448.211,-17.4906 457.032,-15.9093 464.758,-14.5246"/>
<polygon fill="midnightblue" stroke="midnightblue" points="438.487,-15.6777 429.261,-20.8872 439.722,-22.5679 438.487,-15.6777"/>
</g>
</g>
</svg>
