<?xml version="1.0" encoding="UTF-8" standalone="no"?>
<!DOCTYPE svg PUBLIC "-//W3C//DTD SVG 1.1//EN"
 "http://www.w3.org/Graphics/SVG/1.1/DTD/svg11.dtd">
<!-- Generated by graphviz version 2.38.0 (20140413.2041)
 -->
<!-- Title: hp_on_header_field Pages: 1 -->
<svg width="288pt" height="28pt"
 viewBox="0.00 0.00 288.00 28.00" xmlns="http://www.w3.org/2000/svg" xmlns:xlink="http://www.w3.org/1999/xlink">
<g id="graph0" class="graph" transform="scale(1 1) rotate(0) translate(4 24)">
<title>hp_on_header_field</title>
<!-- Node1 -->
<g id="node1" class="node"><title>Node1</title>
<polygon fill="#bfbfbf" stroke="black" points="0,-0.5 0,-19.5 101,-19.5 101,-0.5 0,-0.5"/>
<text text-anchor="middle" x="50.5" y="-7.5" font-family="Helvetica,sans-Serif" font-size="10.00">hp_on_header_field</text>
</g>
<!-- Node2 -->
<g id="node2" class="node"><title>Node2</title>
<g id="a_node2"><a xlink:href="a00007.html#a4a72a85de59013ac5e3e6ce45e8f7aee" target="_top" xlink:title="reset_buffers">
<polygon fill="none" stroke="black" points="137,-0.5 137,-19.5 211,-19.5 211,-0.5 137,-0.5"/>
<text text-anchor="middle" x="174" y="-7.5" font-family="Helvetica,sans-Serif" font-size="10.00">reset_buffers</text>
</a>
</g>
</g>
<!-- Node1&#45;&gt;Node2 -->
<g id="edge1" class="edge"><title>Node1&#45;&gt;Node2</title>
<path fill="none" stroke="midnightblue" d="M101.269,-10C109.656,-10 118.331,-10 126.627,-10"/>
<polygon fill="midnightblue" stroke="midnightblue" points="126.881,-13.5001 136.881,-10 126.881,-6.5001 126.881,-13.5001"/>
</g>
<!-- Node3 -->
<g id="node3" class="node"><title>Node3</title>
<g id="a_node3"><a xlink:href="a00006.html#adf46370d9c211c3be22966b4606ba9b0" target="_top" xlink:title="free">
<polygon fill="none" stroke="black" points="247,-0.5 247,-19.5 280,-19.5 280,-0.5 247,-0.5"/>
<text text-anchor="middle" x="263.5" y="-7.5" font-family="Helvetica,sans-Serif" font-size="10.00">free</text>
</a>
</g>
</g>
<!-- Node2&#45;&gt;Node3 -->
<g id="edge2" class="edge"><title>Node2&#45;&gt;Node3</title>
<path fill="none" stroke="midnightblue" d="M211.095,-10C219.639,-10 228.585,-10 236.575,-10"/>
<polygon fill="midnightblue" stroke="midnightblue" points="236.749,-13.5001 246.749,-10 236.749,-6.5001 236.749,-13.5001"/>
</g>
</g>
</svg>
