<?xml version="1.0" encoding="UTF-8" standalone="no"?>
<!DOCTYPE svg PUBLIC "-//W3C//DTD SVG 1.1//EN"
 "http://www.w3.org/Graphics/SVG/1.1/DTD/svg11.dtd">
<!-- Generated by graphviz version 2.38.0 (20140413.2041)
 -->
<!-- Title: daemon_add_option Pages: 1 -->
<svg width="515pt" height="104pt"
 viewBox="0.00 0.00 515.00 104.00" xmlns="http://www.w3.org/2000/svg" xmlns:xlink="http://www.w3.org/1999/xlink">
<g id="graph0" class="graph" transform="scale(1 1) rotate(0) translate(4 100)">
<title>daemon_add_option</title>
<!-- Node1 -->
<g id="node1" class="node"><title>Node1</title>
<polygon fill="#bfbfbf" stroke="black" points="0,-38.5 0,-57.5 104,-57.5 104,-38.5 0,-38.5"/>
<text text-anchor="middle" x="52" y="-45.5" font-family="Helvetica,sans-Serif" font-size="10.00">daemon_add_option</text>
</g>
<!-- Node2 -->
<g id="node2" class="node"><title>Node2</title>
<g id="a_node2"><a xlink:href="a00058.html#ae215a28ac4e61dfa35bee54fa68f59dc" target="_top" xlink:title="[hpd_t functions] ">
<polygon fill="none" stroke="black" points="140,-38.5 140,-57.5 262,-57.5 262,-38.5 140,-38.5"/>
<text text-anchor="middle" x="201" y="-45.5" font-family="Helvetica,sans-Serif" font-size="10.00">hpd_module_add_option</text>
</a>
</g>
</g>
<!-- Node1&#45;&gt;Node2 -->
<g id="edge1" class="edge"><title>Node1&#45;&gt;Node2</title>
<path fill="none" stroke="midnightblue" d="M114.244,-48C122.76,-48 131.501,-48 139.994,-48"/>
<polygon fill="midnightblue" stroke="midnightblue" points="114.001,-44.5001 104.001,-48 114.001,-51.5001 114.001,-44.5001"/>
</g>
<!-- Node3 -->
<g id="node3" class="node"><title>Node3</title>
<g id="a_node3"><a xlink:href="a00012.html#a24f68c6551abaa7fde28171ba8b6404c" target="_top" xlink:title="hpd_demo_adapter_create">
<polygon fill="none" stroke="black" points="298,-76.5 298,-95.5 429,-95.5 429,-76.5 298,-76.5"/>
<text text-anchor="middle" x="363.5" y="-83.5" font-family="Helvetica,sans-Serif" font-size="10.00">hpd_demo_adapter_create</text>
</a>
</g>
</g>
<!-- Node2&#45;&gt;Node3 -->
<g id="edge2" class="edge"><title>Node2&#45;&gt;Node3</title>
<path fill="none" stroke="midnightblue" d="M252.245,-59.8961C274.805,-65.2374 301.061,-71.4537 322.29,-76.4799"/>
<polygon fill="midnightblue" stroke="midnightblue" points="253.038,-56.4871 242.501,-57.589 251.426,-63.2988 253.038,-56.4871"/>
</g>
<!-- Node4 -->
<g id="node4" class="node"><title>Node4</title>
<g id="a_node4"><a xlink:href="a00030.html#a462aee6a9e8e221141d4ead167805eb5" target="_top" xlink:title="on_create_add_options">
<polygon fill="none" stroke="black" points="305,-38.5 305,-57.5 422,-57.5 422,-38.5 305,-38.5"/>
<text text-anchor="middle" x="363.5" y="-45.5" font-family="Helvetica,sans-Serif" font-size="10.00">on_create_add_options</text>
</a>
</g>
</g>
<!-- Node2&#45;&gt;Node4 -->
<g id="edge3" class="edge"><title>Node2&#45;&gt;Node4</title>
<path fill="none" stroke="midnightblue" d="M272.493,-48C283.312,-48 294.37,-48 304.867,-48"/>
<polygon fill="midnightblue" stroke="midnightblue" points="272.221,-44.5001 262.221,-48 272.221,-51.5001 272.221,-44.5001"/>
</g>
<!-- Node6 -->
<g id="node6" class="node"><title>Node6</title>
<g id="a_node6"><a xlink:href="a00025.html#ad079431c7eba97c5dd5e4e202cdf6102" target="_top" xlink:title="on_create">
<polygon fill="none" stroke="black" points="334,-0.5 334,-19.5 393,-19.5 393,-0.5 334,-0.5"/>
<text text-anchor="middle" x="363.5" y="-7.5" font-family="Helvetica,sans-Serif" font-size="10.00">on_create</text>
</a>
</g>
</g>
<!-- Node2&#45;&gt;Node6 -->
<g id="edge5" class="edge"><title>Node2&#45;&gt;Node6</title>
<path fill="none" stroke="midnightblue" d="M252.47,-36.0506C279.219,-29.7177 311.11,-22.167 333.655,-16.8293"/>
<polygon fill="midnightblue" stroke="midnightblue" points="251.426,-32.7012 242.501,-38.411 253.038,-39.5129 251.426,-32.7012"/>
</g>
<!-- Node5 -->
<g id="node5" class="node"><title>Node5</title>
<g id="a_node5"><a xlink:href="a00030.html#adb53c89b4687405791cefac08be987d4" target="_top" xlink:title="TEST">
<polygon fill="none" stroke="black" points="465,-38.5 465,-57.5 507,-57.5 507,-38.5 465,-38.5"/>
<text text-anchor="middle" x="486" y="-45.5" font-family="Helvetica,sans-Serif" font-size="10.00">TEST</text>
</a>
</g>
</g>
<!-- Node4&#45;&gt;Node5 -->
<g id="edge4" class="edge"><title>Node4&#45;&gt;Node5</title>
<path fill="none" stroke="midnightblue" d="M432.337,-48C444.247,-48 455.755,-48 464.959,-48"/>
<polygon fill="midnightblue" stroke="midnightblue" points="432.279,-44.5001 422.279,-48 432.279,-51.5001 432.279,-44.5001"/>
</g>
</g>
</svg>
