<?xml version="1.0" encoding="UTF-8" standalone="no"?>
<!DOCTYPE svg PUBLIC "-//W3C//DTD SVG 1.1//EN"
 "http://www.w3.org/Graphics/SVG/1.1/DTD/svg11.dtd">
<!-- Generated by graphviz version 2.38.0 (20140413.2041)
 -->
<!-- Title: discovery_set_pid Pages: 1 -->
<svg width="613pt" height="104pt"
 viewBox="0.00 0.00 613.00 104.00" xmlns="http://www.w3.org/2000/svg" xmlns:xlink="http://www.w3.org/1999/xlink">
<g id="graph0" class="graph" transform="scale(1 1) rotate(0) translate(4 100)">
<title>discovery_set_pid</title>
<!-- Node1 -->
<g id="node1" class="node"><title>Node1</title>
<polygon fill="#bfbfbf" stroke="black" points="0,-57.5 0,-76.5 95,-76.5 95,-57.5 0,-57.5"/>
<text text-anchor="middle" x="47.5" y="-64.5" font-family="Helvetica,sans-Serif" font-size="10.00">discovery_set_pid</text>
</g>
<!-- Node2 -->
<g id="node2" class="node"><title>Node2</title>
<g id="a_node2"><a xlink:href="a00079.html#a79ffb29dcdd02248b02806b84bd137ba" target="_top" xlink:title="hpd_service_next_parameter">
<polygon fill="none" stroke="black" points="131,-76.5 131,-95.5 273,-95.5 273,-76.5 131,-76.5"/>
<text text-anchor="middle" x="202" y="-83.5" font-family="Helvetica,sans-Serif" font-size="10.00">hpd_service_next_parameter</text>
</a>
</g>
</g>
<!-- Node1&#45;&gt;Node2 -->
<g id="edge1" class="edge"><title>Node1&#45;&gt;Node2</title>
<path fill="none" stroke="midnightblue" d="M105.111,-74.0531C113.494,-75.0976 122.217,-76.1844 130.835,-77.2581"/>
<polygon fill="midnightblue" stroke="midnightblue" points="105.44,-70.5671 95.0837,-72.8039 104.574,-77.5134 105.44,-70.5671"/>
</g>
<!-- Node3 -->
<g id="node3" class="node"><title>Node3</title>
<g id="a_node3"><a xlink:href="a00080.html#a346f5beb62cb1df721f8428b245c1ecb" target="_top" xlink:title="discovery_alloc_pid">
<polygon fill="none" stroke="black" points="151,-38.5 151,-57.5 253,-57.5 253,-38.5 151,-38.5"/>
<text text-anchor="middle" x="202" y="-45.5" font-family="Helvetica,sans-Serif" font-size="10.00">discovery_alloc_pid</text>
</a>
</g>
</g>
<!-- Node1&#45;&gt;Node3 -->
<g id="edge2" class="edge"><title>Node1&#45;&gt;Node3</title>
<path fill="none" stroke="midnightblue" d="M105.271,-59.9268C120.281,-58.0568 136.371,-56.0522 150.993,-54.2304"/>
<polygon fill="midnightblue" stroke="midnightblue" points="104.574,-56.4866 95.0837,-61.1961 105.44,-63.4329 104.574,-56.4866"/>
</g>
<!-- Node4 -->
<g id="node4" class="node"><title>Node4</title>
<g id="a_node4"><a xlink:href="a00079.html#ac1e2289044cde6f0f992588a434fa891" target="_top" xlink:title="hpd_parameter_id_alloc">
<polygon fill="none" stroke="black" points="319.5,-76.5 319.5,-95.5 438.5,-95.5 438.5,-76.5 319.5,-76.5"/>
<text text-anchor="middle" x="379" y="-83.5" font-family="Helvetica,sans-Serif" font-size="10.00">hpd_parameter_id_alloc</text>
</a>
</g>
</g>
<!-- Node3&#45;&gt;Node4 -->
<g id="edge3" class="edge"><title>Node3&#45;&gt;Node4</title>
<path fill="none" stroke="midnightblue" d="M257.124,-59.7526C281.869,-65.1258 310.803,-71.4086 334.158,-76.4799"/>
<polygon fill="midnightblue" stroke="midnightblue" points="257.675,-56.2908 247.16,-57.589 256.189,-63.1314 257.675,-56.2908"/>
</g>
<!-- Node5 -->
<g id="node5" class="node"><title>Node5</title>
<g id="a_node5"><a xlink:href="a00079.html#a2b22cb2106adec77c580dafd75902efa" target="_top" xlink:title="hpd_service_first_parameter">
<polygon fill="none" stroke="black" points="309,-38.5 309,-57.5 449,-57.5 449,-38.5 309,-38.5"/>
<text text-anchor="middle" x="379" y="-45.5" font-family="Helvetica,sans-Serif" font-size="10.00">hpd_service_first_parameter</text>
</a>
</g>
</g>
<!-- Node3&#45;&gt;Node5 -->
<g id="edge4" class="edge"><title>Node3&#45;&gt;Node5</title>
<path fill="none" stroke="midnightblue" d="M263.151,-48C277.9,-48 293.802,-48 308.934,-48"/>
<polygon fill="midnightblue" stroke="midnightblue" points="263.148,-44.5001 253.148,-48 263.148,-51.5001 263.148,-44.5001"/>
</g>
<!-- Node6 -->
<g id="node6" class="node"><title>Node6</title>
<g id="a_node6"><a xlink:href="a00080.html#a5908c8a69f6b2a261d1be9f7e039f25d" target="_top" xlink:title="discovery_copy_pid">
<polygon fill="none" stroke="black" points="327.5,-0.5 327.5,-19.5 430.5,-19.5 430.5,-0.5 327.5,-0.5"/>
<text text-anchor="middle" x="379" y="-7.5" font-family="Helvetica,sans-Serif" font-size="10.00">discovery_copy_pid</text>
</a>
</g>
</g>
<!-- Node3&#45;&gt;Node6 -->
<g id="edge5" class="edge"><title>Node3&#45;&gt;Node6</title>
<path fill="none" stroke="midnightblue" d="M257.124,-36.2474C281.869,-30.8742 310.803,-24.5914 334.158,-19.5201"/>
<polygon fill="midnightblue" stroke="midnightblue" points="256.189,-32.8686 247.16,-38.411 257.675,-39.7092 256.189,-32.8686"/>
</g>
<!-- Node7 -->
<g id="node7" class="node"><title>Node7</title>
<g id="a_node7"><a xlink:href="a00079.html#ab38acf0351e304f00700cc9ccd9443bd" target="_top" xlink:title="hpd_parameter_id_copy">
<polygon fill="none" stroke="black" points="485,-0.5 485,-19.5 605,-19.5 605,-0.5 485,-0.5"/>
<text text-anchor="middle" x="545" y="-7.5" font-family="Helvetica,sans-Serif" font-size="10.00">hpd_parameter_id_copy</text>
</a>
</g>
</g>
<!-- Node6&#45;&gt;Node7 -->
<g id="edge6" class="edge"><title>Node6&#45;&gt;Node7</title>
<path fill="none" stroke="midnightblue" d="M440.857,-10C455.287,-10 470.654,-10 485,-10"/>
<polygon fill="midnightblue" stroke="midnightblue" points="440.544,-6.5001 430.544,-10 440.544,-13.5001 440.544,-6.5001"/>
</g>
</g>
</svg>
