<?xml version="1.0" encoding="UTF-8" standalone="no"?>
<!DOCTYPE svg PUBLIC "-//W3C//DTD SVG 1.1//EN"
 "http://www.w3.org/Graphics/SVG/1.1/DTD/svg11.dtd">
<!-- Generated by graphviz version 2.38.0 (20140413.2041)
 -->
<!-- Title: hpd_httpd_response_add_header Pages: 1 -->
<!--zoomable 470 -->
<svg id="main" version="1.1" xmlns="http://www.w3.org/2000/svg" xmlns:xlink="http://www.w3.org/1999/xlink" xml:space="preserve" onload="init(evt)">
<style type="text/css"><![CDATA[
.edge:hover path { stroke: red; }
.edge:hover polygon { stroke: red; fill: red; }
]]></style>
<script type="text/javascript"><![CDATA[
var edges = document.getElementsByTagName('g');
if (edges && edges.length) {
  for (var i=0;i<edges.length;i++) {
    if (edges[i].id.substr(0,4)=='edge') {
      edges[i].setAttribute('class','edge');
    }
  }
}
]]></script>
        <defs>
                <circle id="rim" cx="0" cy="0" r="7"/>
                <circle id="rim2" cx="0" cy="0" r="3.5"/>
                <g id="zoomPlus">
                        <use xlink:href="#rim" fill="#404040">
                                <set attributeName="fill" to="#808080" begin="zoomplus.mouseover" end="zoomplus.mouseout"/>
                        </use>
                        <path d="M-4,0h8M0,-4v8" fill="none" stroke="white" stroke-width="1.5" pointer-events="none"/>
                </g>
                <g id="zoomMin">
                        <use xlink:href="#rim" fill="#404040">
                                <set attributeName="fill" to="#808080" begin="zoomminus.mouseover" end="zoomminus.mouseout"/>
                        </use>
                        <path d="M-4,0h8" fill="none" stroke="white" stroke-width="1.5" pointer-events="none"/>
                </g>
                <g id="dirArrow">
                        <path fill="none" stroke="white" stroke-width="1.5" d="M0,-3.0v7 M-2.5,-0.5L0,-3.0L2.5,-0.5"/>
                </g>
               <g id="resetDef">
                       <use xlink:href="#rim2" fill="#404040">
                               <set attributeName="fill" to="#808080" begin="reset.mouseover" end="reset.mouseout"/>
                       </use>
               </g>
        </defs>

<script type="text/javascript">
var viewWidth = 943;
var viewHeight = 470;
var sectionId = 'dynsection-16';
</script>
<script xlink:href="svgpan.js"/>
<svg id="graph" class="graph">
<g id="viewport">
<title>hpd_httpd_response_add_header</title>
<!-- Node1 -->
<g id="node1" class="node"><title>Node1</title>
<polygon fill="#bfbfbf" stroke="black" points="0,-408.105 0,-438.105 104,-438.105 104,-408.105 0,-408.105"/>
<text text-anchor="start" x="8" y="-426.105" font-family="Helvetica,sans-Serif" font-size="10.00">hpd_httpd_response</text>
<text text-anchor="middle" x="52" y="-415.105" font-family="Helvetica,sans-Serif" font-size="10.00">_add_header</text>
</g>
<!-- Node2 -->
<g id="node2" class="node"><title>Node2</title>
<g id="a_node2"><a xlink:href="a00026.html#a3b100e8d7e1214067cf1b90ad577745c" target="_top" xlink:title="Create the reponse and constructs the status line. ">
<polygon fill="none" stroke="black" points="140,-370.105 140,-400.105 244,-400.105 244,-370.105 140,-370.105"/>
<text text-anchor="start" x="148" y="-388.105" font-family="Helvetica,sans-Serif" font-size="10.00">hpd_httpd_response</text>
<text text-anchor="middle" x="192" y="-377.105" font-family="Helvetica,sans-Serif" font-size="10.00">_create</text>
</a>
</g>
</g>
<!-- Node1&#45;&gt;Node2 -->
<g id="edge1" class="edge"><title>Node1&#45;&gt;Node2</title>
<path fill="none" stroke="midnightblue" d="M114.22,-406.248C122.685,-403.917 131.308,-401.542 139.571,-399.267"/>
<polygon fill="midnightblue" stroke="midnightblue" points="113.098,-402.926 104.386,-408.955 114.956,-409.675 113.098,-402.926"/>
</g>
<!-- Node12 -->
<g id="node12" class="node"><title>Node12</title>
<g id="a_node12"><a xlink:href="a00034.html#abddef3c3a26e983041c0a09be164cb1b" target="_top" xlink:title="rest_on_response">
<polygon fill="none" stroke="black" points="564,-377.605 564,-396.605 658,-396.605 658,-377.605 564,-377.605"/>
<text text-anchor="middle" x="611" y="-384.605" font-family="Helvetica,sans-Serif" font-size="10.00">rest_on_response</text>
</a>
</g>
</g>
<!-- Node1&#45;&gt;Node12 -->
<g id="edge36" class="edge"><title>Node1&#45;&gt;Node12</title>
<path fill="none" stroke="midnightblue" d="M114.301,-437.241C204.377,-455.432 376.975,-480.412 517,-442.105 549.387,-433.245 581.951,-409.886 598.61,-396.635"/>
<polygon fill="midnightblue" stroke="midnightblue" points="114.761,-433.763 104.261,-435.172 113.348,-440.619 114.761,-433.763"/>
</g>
<!-- Node3 -->
<g id="node3" class="node"><title>Node3</title>
<g id="a_node3"><a xlink:href="a00047.html#a2eb873ac7e610c2dff8e49d216d3aff8" target="_top" xlink:title="handle_request">
<polygon fill="none" stroke="black" points="280,-413.605 280,-432.605 363,-432.605 363,-413.605 280,-413.605"/>
<text text-anchor="middle" x="321.5" y="-420.605" font-family="Helvetica,sans-Serif" font-size="10.00">handle_request</text>
</a>
</g>
</g>
<!-- Node2&#45;&gt;Node3 -->
<g id="edge2" class="edge"><title>Node2&#45;&gt;Node3</title>
<path fill="none" stroke="midnightblue" d="M253.101,-403.018C265.298,-406.653 277.674,-410.341 288.434,-413.548"/>
<polygon fill="midnightblue" stroke="midnightblue" points="253.975,-399.626 243.391,-400.124 251.975,-406.334 253.975,-399.626"/>
</g>
<!-- Node5 -->
<g id="node5" class="node"><title>Node5</title>
<g id="a_node5"><a xlink:href="a00034.html#a18db249df9c6c163ca09c0d7fadc3c75" target="_top" xlink:title="rest_reply">
<polygon fill="none" stroke="black" points="292,-255.605 292,-274.605 351,-274.605 351,-255.605 292,-255.605"/>
<text text-anchor="middle" x="321.5" y="-262.605" font-family="Helvetica,sans-Serif" font-size="10.00">rest_reply</text>
</a>
</g>
</g>
<!-- Node2&#45;&gt;Node5 -->
<g id="edge4" class="edge"><title>Node2&#45;&gt;Node5</title>
<path fill="none" stroke="midnightblue" d="M216.56,-362.931C244.615,-336.527 290.205,-293.618 310.364,-274.645"/>
<polygon fill="midnightblue" stroke="midnightblue" points="214.031,-360.505 209.148,-369.907 218.829,-365.602 214.031,-360.505"/>
</g>
<!-- Node7 -->
<g id="node7" class="node"><title>Node7</title>
<g id="a_node7"><a xlink:href="a00034.html#ac0f2724b4617f1adb53492f1a57a4e4b" target="_top" xlink:title="rest_reply_devices">
<polygon fill="none" stroke="black" points="562,-111.605 562,-130.605 660,-130.605 660,-111.605 562,-111.605"/>
<text text-anchor="middle" x="611" y="-118.605" font-family="Helvetica,sans-Serif" font-size="10.00">rest_reply_devices</text>
</a>
</g>
</g>
<!-- Node2&#45;&gt;Node7 -->
<g id="edge34" class="edge"><title>Node2&#45;&gt;Node7</title>
<path fill="none" stroke="midnightblue" d="M203.181,-360.274C216.739,-329.856 243.344,-278.401 280,-246.105 362.742,-173.205 492.275,-141.023 561.893,-128.34"/>
<polygon fill="midnightblue" stroke="midnightblue" points="199.85,-359.157 199.087,-369.725 206.274,-361.94 199.85,-359.157"/>
</g>
<!-- Node2&#45;&gt;Node12 -->
<g id="edge35" class="edge"><title>Node2&#45;&gt;Node12</title>
<path fill="none" stroke="midnightblue" d="M254.33,-385.399C338.641,-385.804 488.459,-386.522 563.893,-386.884"/>
<polygon fill="midnightblue" stroke="midnightblue" points="254.149,-381.899 244.132,-385.351 254.115,-388.899 254.149,-381.899"/>
</g>
<!-- Node4 -->
<g id="node4" class="node"><title>Node4</title>
<g id="a_node4"><a xlink:href="a00047.html#a0ddf1224851353fc92bfbff6f499fa97" target="_top" xlink:title="main">
<polygon fill="none" stroke="black" points="439,-413.605 439,-432.605 477,-432.605 477,-413.605 439,-413.605"/>
<text text-anchor="middle" x="458" y="-420.605" font-family="Helvetica,sans-Serif" font-size="10.00">main</text>
</a>
</g>
</g>
<!-- Node3&#45;&gt;Node4 -->
<g id="edge3" class="edge"><title>Node3&#45;&gt;Node4</title>
<path fill="none" stroke="midnightblue" d="M373.224,-423.105C396.253,-423.105 422.039,-423.105 438.842,-423.105"/>
<polygon fill="midnightblue" stroke="midnightblue" points="373.219,-419.605 363.219,-423.105 373.219,-426.605 373.219,-419.605"/>
</g>
<!-- Node6 -->
<g id="node6" class="node"><title>Node6</title>
<g id="a_node6"><a xlink:href="a00034.html#a362db74b5ebb509cd4c0032f5704148f" target="_top" xlink:title="rest_reply_internal\l_server_error">
<polygon fill="none" stroke="black" points="410,-201.105 410,-231.105 506,-231.105 506,-201.105 410,-201.105"/>
<text text-anchor="start" x="418" y="-219.105" font-family="Helvetica,sans-Serif" font-size="10.00">rest_reply_internal</text>
<text text-anchor="middle" x="458" y="-208.105" font-family="Helvetica,sans-Serif" font-size="10.00">_server_error</text>
</a>
</g>
</g>
<!-- Node5&#45;&gt;Node6 -->
<g id="edge5" class="edge"><title>Node5&#45;&gt;Node6</title>
<path fill="none" stroke="midnightblue" d="M358.151,-252.117C375.846,-245.671 397.319,-237.848 415.725,-231.142"/>
<polygon fill="midnightblue" stroke="midnightblue" points="356.95,-248.83 348.752,-255.541 359.346,-255.407 356.95,-248.83"/>
</g>
<!-- Node5&#45;&gt;Node12 -->
<g id="edge33" class="edge"><title>Node5&#45;&gt;Node12</title>
<path fill="none" stroke="midnightblue" d="M360.73,-277.216C415.282,-294.537 509.723,-324.686 517,-328.105 547.284,-342.336 579.623,-364.682 597.056,-377.397"/>
<polygon fill="midnightblue" stroke="midnightblue" points="361.628,-273.829 351.038,-274.14 359.51,-280.501 361.628,-273.829"/>
</g>
<!-- Node16 -->
<g id="node16" class="node"><title>Node16</title>
<g id="a_node16"><a xlink:href="a00034.html#a937794ed7b34e2fa7c387dee33514c50" target="_top" xlink:title="rest_reply_not_found">
<polygon fill="none" stroke="black" points="404.5,-23.6053 404.5,-42.6053 511.5,-42.6053 511.5,-23.6053 404.5,-23.6053"/>
<text text-anchor="middle" x="458" y="-30.6053" font-family="Helvetica,sans-Serif" font-size="10.00">rest_reply_not_found</text>
</a>
</g>
</g>
<!-- Node5&#45;&gt;Node16 -->
<g id="edge22" class="edge"><title>Node5&#45;&gt;Node16</title>
<path fill="none" stroke="midnightblue" d="M333.194,-246.659C360.284,-199.931 430.906,-78.115 451.368,-42.82"/>
<polygon fill="midnightblue" stroke="midnightblue" points="330.096,-245.025 328.108,-255.432 336.152,-248.536 330.096,-245.025"/>
</g>
<!-- Node17 -->
<g id="node17" class="node"><title>Node17</title>
<g id="a_node17"><a xlink:href="a00034.html#a463d2bdadd3f81404991033401807537" target="_top" xlink:title="rest_reply_unsupported\l_media_type">
<polygon fill="none" stroke="black" points="399,-250.105 399,-280.105 517,-280.105 517,-250.105 399,-250.105"/>
<text text-anchor="start" x="407" y="-268.105" font-family="Helvetica,sans-Serif" font-size="10.00">rest_reply_unsupported</text>
<text text-anchor="middle" x="458" y="-257.105" font-family="Helvetica,sans-Serif" font-size="10.00">_media_type</text>
</a>
</g>
</g>
<!-- Node5&#45;&gt;Node17 -->
<g id="edge25" class="edge"><title>Node5&#45;&gt;Node17</title>
<path fill="none" stroke="midnightblue" d="M361.341,-265.105C373.065,-265.105 386.2,-265.105 398.892,-265.105"/>
<polygon fill="midnightblue" stroke="midnightblue" points="361.024,-261.605 351.024,-265.105 361.024,-268.605 361.024,-261.605"/>
</g>
<!-- Node18 -->
<g id="node18" class="node"><title>Node18</title>
<g id="a_node18"><a xlink:href="a00034.html#a84fea4d27b81d8ec1426196dc58d4351" target="_top" xlink:title="rest_reply_bad_request">
<polygon fill="none" stroke="black" points="399,-337.605 399,-356.605 517,-356.605 517,-337.605 399,-337.605"/>
<text text-anchor="middle" x="458" y="-344.605" font-family="Helvetica,sans-Serif" font-size="10.00">rest_reply_bad_request</text>
</a>
</g>
</g>
<!-- Node5&#45;&gt;Node18 -->
<g id="edge29" class="edge"><title>Node5&#45;&gt;Node18</title>
<path fill="none" stroke="midnightblue" d="M341.21,-281.466C356.14,-293.969 377.968,-311.049 399,-323.105 408.643,-328.633 419.81,-333.566 429.755,-337.501"/>
<polygon fill="midnightblue" stroke="midnightblue" points="343.156,-278.527 333.274,-274.706 338.617,-283.855 343.156,-278.527"/>
</g>
<!-- Node19 -->
<g id="node19" class="node"><title>Node19</title>
<g id="a_node19"><a xlink:href="a00034.html#aacbd35e3827023f6cef47ee2b866d2d9" target="_top" xlink:title="rest_reply_method_not\l_allowed">
<polygon fill="none" stroke="black" points="553,-62.1053 553,-92.1053 669,-92.1053 669,-62.1053 553,-62.1053"/>
<text text-anchor="start" x="561" y="-80.1053" font-family="Helvetica,sans-Serif" font-size="10.00">rest_reply_method_not</text>
<text text-anchor="middle" x="611" y="-69.1053" font-family="Helvetica,sans-Serif" font-size="10.00">_allowed</text>
</a>
</g>
</g>
<!-- Node5&#45;&gt;Node19 -->
<g id="edge31" class="edge"><title>Node5&#45;&gt;Node19</title>
<path fill="none" stroke="midnightblue" d="M338.155,-247.69C352.92,-231.841 376.139,-208.355 399,-191.105 456.001,-148.095 531.325,-111.549 574.841,-92.1093"/>
<polygon fill="midnightblue" stroke="midnightblue" points="335.437,-245.475 331.252,-255.208 340.593,-250.209 335.437,-245.475"/>
</g>
<!-- Node6&#45;&gt;Node7 -->
<g id="edge6" class="edge"><title>Node6&#45;&gt;Node7</title>
<path fill="none" stroke="midnightblue" d="M493.297,-195.74C501.277,-190.591 509.599,-184.877 517,-179.105 534.354,-165.571 534.563,-157.123 553,-145.105 561.815,-139.359 572.234,-134.495 581.737,-130.68"/>
<polygon fill="midnightblue" stroke="midnightblue" points="491.421,-192.785 484.831,-201.081 495.156,-198.705 491.421,-192.785"/>
</g>
<!-- Node8 -->
<g id="node8" class="node"><title>Node8</title>
<g id="a_node8"><a xlink:href="a00034.html#a2731aca6e6807e771bcf9c94dbec968c" target="_top" xlink:title="rest_on_req_hdr_cmpl">
<polygon fill="none" stroke="black" points="705,-111.605 705,-130.605 818,-130.605 818,-111.605 705,-111.605"/>
<text text-anchor="middle" x="761.5" y="-118.605" font-family="Helvetica,sans-Serif" font-size="10.00">rest_on_req_hdr_cmpl</text>
</a>
</g>
</g>
<!-- Node6&#45;&gt;Node8 -->
<g id="edge18" class="edge"><title>Node6&#45;&gt;Node8</title>
<path fill="none" stroke="midnightblue" d="M515.991,-198.148C579.621,-178.099 680.211,-146.404 730.211,-130.649"/>
<polygon fill="midnightblue" stroke="midnightblue" points="514.595,-194.918 506.109,-201.262 516.699,-201.594 514.595,-194.918"/>
</g>
<!-- Node10 -->
<g id="node10" class="node"><title>Node10</title>
<g id="a_node10"><a xlink:href="a00034.html#a5b0ee1ed2f7ec4f1d37f392419f9fdf8" target="_top" xlink:title="rest_on_free">
<polygon fill="none" stroke="black" points="575.5,-263.605 575.5,-282.605 646.5,-282.605 646.5,-263.605 575.5,-263.605"/>
<text text-anchor="middle" x="611" y="-270.605" font-family="Helvetica,sans-Serif" font-size="10.00">rest_on_free</text>
</a>
</g>
</g>
<!-- Node6&#45;&gt;Node10 -->
<g id="edge9" class="edge"><title>Node6&#45;&gt;Node10</title>
<path fill="none" stroke="midnightblue" d="M508.548,-234.809C533.925,-244.388 563.754,-255.648 584.472,-263.469"/>
<polygon fill="midnightblue" stroke="midnightblue" points="509.661,-231.488 499.069,-231.231 507.188,-238.037 509.661,-231.488"/>
</g>
<!-- Node11 -->
<g id="node11" class="node"><title>Node11</title>
<g id="a_node11"><a xlink:href="a00034.html#a1ef7ff8e866ae31ab0edb443eb4777a1" target="_top" xlink:title="rest_on_req_cmpl">
<polygon fill="none" stroke="black" points="714.5,-320.605 714.5,-339.605 808.5,-339.605 808.5,-320.605 714.5,-320.605"/>
<text text-anchor="middle" x="761.5" y="-327.605" font-family="Helvetica,sans-Serif" font-size="10.00">rest_on_req_cmpl</text>
</a>
</g>
</g>
<!-- Node6&#45;&gt;Node11 -->
<g id="edge21" class="edge"><title>Node6&#45;&gt;Node11</title>
<path fill="none" stroke="midnightblue" d="M512.118,-236.502C513.808,-237.648 515.441,-238.848 517,-240.105 538.878,-257.754 529.383,-276.861 553,-292.105 579.078,-308.938 661.588,-320.139 714.37,-325.787"/>
<polygon fill="midnightblue" stroke="midnightblue" points="513.667,-233.351 503.287,-231.228 510.077,-239.36 513.667,-233.351"/>
</g>
<!-- Node6&#45;&gt;Node12 -->
<g id="edge12" class="edge"><title>Node6&#45;&gt;Node12</title>
<path fill="none" stroke="midnightblue" d="M513.658,-237.071C514.819,-238.039 515.936,-239.05 517,-240.105 546.13,-268.995 530.791,-290.61 553,-325.105 566.297,-345.759 586.69,-366.006 599.138,-377.485"/>
<polygon fill="midnightblue" stroke="midnightblue" points="515.633,-234.181 505.444,-231.275 511.598,-239.9 515.633,-234.181"/>
</g>
<!-- Node13 -->
<g id="node13" class="node"><title>Node13</title>
<g id="a_node13"><a xlink:href="a00034.html#a29f312bafc931ecd8a0209f0dd3d7e60" target="_top" xlink:title="rest_on_req_begin">
<polygon fill="none" stroke="black" points="713.5,-187.605 713.5,-206.605 809.5,-206.605 809.5,-187.605 713.5,-187.605"/>
<text text-anchor="middle" x="761.5" y="-194.605" font-family="Helvetica,sans-Serif" font-size="10.00">rest_on_req_begin</text>
</a>
</g>
</g>
<!-- Node6&#45;&gt;Node13 -->
<g id="edge14" class="edge"><title>Node6&#45;&gt;Node13</title>
<path fill="none" stroke="midnightblue" d="M516.409,-212.487C573.483,-208.891 659.989,-203.439 713.225,-200.084"/>
<polygon fill="midnightblue" stroke="midnightblue" points="515.869,-209.014 506.109,-213.137 516.31,-216.001 515.869,-209.014"/>
</g>
<!-- Node14 -->
<g id="node14" class="node"><title>Node14</title>
<g id="a_node14"><a xlink:href="a00034.html#a79a1a85df1eb4e5247b27938ee73e32c" target="_top" xlink:title="rest_on_req_url_cmpl">
<polygon fill="none" stroke="black" points="556,-23.6053 556,-42.6053 666,-42.6053 666,-23.6053 556,-23.6053"/>
<text text-anchor="middle" x="611" y="-30.6053" font-family="Helvetica,sans-Serif" font-size="10.00">rest_on_req_url_cmpl</text>
</a>
</g>
</g>
<!-- Node6&#45;&gt;Node14 -->
<g id="edge16" class="edge"><title>Node6&#45;&gt;Node14</title>
<path fill="none" stroke="midnightblue" d="M466.806,-191.345C479.324,-155.557 507.239,-89.5699 553,-52.1053 557.762,-48.2066 563.357,-45.0958 569.147,-42.6167"/>
<polygon fill="midnightblue" stroke="midnightblue" points="463.428,-190.41 463.546,-201.004 470.06,-192.648 463.428,-190.41"/>
</g>
<!-- Node15 -->
<g id="node15" class="node"><title>Node15</title>
<g id="a_node15"><a xlink:href="a00034.html#aa7a4e350f3f59e6410ba02d06b1e125f" target="_top" xlink:title="rest_on_req_body">
<polygon fill="none" stroke="black" points="714.5,-225.605 714.5,-244.605 808.5,-244.605 808.5,-225.605 714.5,-225.605"/>
<text text-anchor="middle" x="761.5" y="-232.605" font-family="Helvetica,sans-Serif" font-size="10.00">rest_on_req_body</text>
</a>
</g>
</g>
<!-- Node6&#45;&gt;Node15 -->
<g id="edge19" class="edge"><title>Node6&#45;&gt;Node15</title>
<path fill="none" stroke="midnightblue" d="M516.115,-219.705C573.54,-223.323 660.977,-228.834 714.216,-232.189"/>
<polygon fill="midnightblue" stroke="midnightblue" points="516.31,-216.21 506.109,-219.074 515.869,-223.196 516.31,-216.21"/>
</g>
<!-- Node7&#45;&gt;Node8 -->
<g id="edge7" class="edge"><title>Node7&#45;&gt;Node8</title>
<path fill="none" stroke="midnightblue" d="M670.426,-121.105C681.739,-121.105 693.565,-121.105 704.788,-121.105"/>
<polygon fill="midnightblue" stroke="midnightblue" points="670.214,-117.605 660.214,-121.105 670.214,-124.605 670.214,-117.605"/>
</g>
<!-- Node9 -->
<g id="node9" class="node"><title>Node9</title>
<g id="a_node9"><a xlink:href="a00034.html#a02090c3feb19ea4c6e1fa9b5e6392752" target="_top" xlink:title="rest_on_create">
<polygon fill="none" stroke="black" points="854,-187.605 854,-206.605 935,-206.605 935,-187.605 854,-187.605"/>
<text text-anchor="middle" x="894.5" y="-194.605" font-family="Helvetica,sans-Serif" font-size="10.00">rest_on_create</text>
</a>
</g>
</g>
<!-- Node8&#45;&gt;Node9 -->
<g id="edge8" class="edge"><title>Node8&#45;&gt;Node9</title>
<path fill="none" stroke="midnightblue" d="M787.76,-135.76C814.087,-151.034 854.574,-174.523 877.043,-187.558"/>
<polygon fill="midnightblue" stroke="midnightblue" points="789.497,-132.722 779.091,-130.731 785.985,-138.776 789.497,-132.722"/>
</g>
<!-- Node10&#45;&gt;Node11 -->
<g id="edge10" class="edge"><title>Node10&#45;&gt;Node11</title>
<path fill="none" stroke="midnightblue" d="M646.397,-286.308C673.664,-296.774 711.12,-311.152 735.563,-320.534"/>
<polygon fill="midnightblue" stroke="midnightblue" points="647.446,-282.962 636.856,-282.646 644.937,-289.497 647.446,-282.962"/>
</g>
<!-- Node11&#45;&gt;Node9 -->
<g id="edge11" class="edge"><title>Node11&#45;&gt;Node9</title>
<path fill="none" stroke="midnightblue" d="M778.946,-313.408C806.598,-285.334 861.559,-229.534 883.811,-206.942"/>
<polygon fill="midnightblue" stroke="midnightblue" points="776.445,-310.96 771.921,-320.54 781.432,-315.872 776.445,-310.96"/>
</g>
<!-- Node12&#45;&gt;Node11 -->
<g id="edge13" class="edge"><title>Node12&#45;&gt;Node11</title>
<path fill="none" stroke="midnightblue" d="M646.397,-373.902C673.664,-363.436 711.12,-349.059 735.563,-339.677"/>
<polygon fill="midnightblue" stroke="midnightblue" points="644.937,-370.714 636.856,-377.565 647.446,-377.249 644.937,-370.714"/>
</g>
<!-- Node13&#45;&gt;Node9 -->
<g id="edge15" class="edge"><title>Node13&#45;&gt;Node9</title>
<path fill="none" stroke="midnightblue" d="M820.063,-197.105C831.387,-197.105 843.032,-197.105 853.618,-197.105"/>
<polygon fill="midnightblue" stroke="midnightblue" points="819.794,-193.605 809.794,-197.105 819.794,-200.605 819.794,-193.605"/>
</g>
<!-- Node14&#45;&gt;Node9 -->
<g id="edge17" class="edge"><title>Node14&#45;&gt;Node9</title>
<path fill="none" stroke="midnightblue" d="M676.008,-44.5743C719.041,-54.5667 775.455,-72.2734 818,-102.105 851.636,-125.69 877.836,-168.466 888.412,-187.511"/>
<polygon fill="midnightblue" stroke="midnightblue" points="676.731,-41.1498 666.208,-42.3776 675.2,-47.9803 676.731,-41.1498"/>
</g>
<!-- Node15&#45;&gt;Node9 -->
<g id="edge20" class="edge"><title>Node15&#45;&gt;Node9</title>
<path fill="none" stroke="midnightblue" d="M805.215,-222.715C823.155,-217.511 843.7,-211.551 860.454,-206.691"/>
<polygon fill="midnightblue" stroke="midnightblue" points="804.186,-219.369 795.557,-225.516 806.136,-226.092 804.186,-219.369"/>
</g>
<!-- Node16&#45;&gt;Node8 -->
<g id="edge24" class="edge"><title>Node16&#45;&gt;Node8</title>
<path fill="none" stroke="midnightblue" d="M492.336,-20.1992C535.287,-5.72296 611.285,12.4805 669,-14.1053 713.845,-34.7623 744.889,-89.4403 755.99,-111.588"/>
<polygon fill="midnightblue" stroke="midnightblue" points="490.951,-16.9757 482.67,-23.5839 493.264,-23.5824 490.951,-16.9757"/>
</g>
<!-- Node16&#45;&gt;Node14 -->
<g id="edge23" class="edge"><title>Node16&#45;&gt;Node14</title>
<path fill="none" stroke="midnightblue" d="M522.026,-33.1053C533.296,-33.1053 544.948,-33.1053 555.939,-33.1053"/>
<polygon fill="midnightblue" stroke="midnightblue" points="521.813,-29.6054 511.812,-33.1053 521.812,-36.6054 521.813,-29.6054"/>
</g>
<!-- Node17&#45;&gt;Node7 -->
<g id="edge26" class="edge"><title>Node17&#45;&gt;Node7</title>
<path fill="none" stroke="midnightblue" d="M509.789,-245.089C512.3,-243.524 514.721,-241.864 517,-240.105 558.725,-207.909 592.261,-152.911 604.744,-130.765"/>
<polygon fill="midnightblue" stroke="midnightblue" points="507.987,-242.087 500.987,-250.039 511.418,-248.188 507.987,-242.087"/>
</g>
<!-- Node17&#45;&gt;Node11 -->
<g id="edge28" class="edge"><title>Node17&#45;&gt;Node11</title>
<path fill="none" stroke="midnightblue" d="M500.271,-285.035C506.005,-288.21 511.731,-291.608 517,-295.105 534.352,-306.624 533.503,-317.78 553,-325.105 605.622,-344.877 671.164,-342.409 714.339,-337.463"/>
<polygon fill="midnightblue" stroke="midnightblue" points="501.786,-281.876 491.317,-280.246 498.484,-288.049 501.786,-281.876"/>
</g>
<!-- Node17&#45;&gt;Node12 -->
<g id="edge27" class="edge"><title>Node17&#45;&gt;Node12</title>
<path fill="none" stroke="midnightblue" d="M505.348,-285.658C509.537,-288.5 513.509,-291.647 517,-295.105 541.296,-319.17 527.775,-340.017 553,-363.105 559.732,-369.267 568.278,-373.983 576.69,-377.534"/>
<polygon fill="midnightblue" stroke="midnightblue" points="506.882,-282.493 496.527,-280.25 503.223,-288.461 506.882,-282.493"/>
</g>
<!-- Node18&#45;&gt;Node11 -->
<g id="edge30" class="edge"><title>Node18&#45;&gt;Node11</title>
<path fill="none" stroke="midnightblue" d="M477.462,-363.162C495.379,-377.596 524.04,-397.77 553,-406.105 602.544,-420.366 620.51,-423.617 669,-406.105 706.097,-392.708 738.772,-356.996 752.974,-339.725"/>
<polygon fill="midnightblue" stroke="midnightblue" points="479.505,-360.308 469.575,-356.613 475.033,-365.694 479.505,-360.308"/>
</g>
<!-- Node19&#45;&gt;Node8 -->
<g id="edge32" class="edge"><title>Node19&#45;&gt;Node8</title>
<path fill="none" stroke="midnightblue" d="M672.513,-95.0351C691.569,-100.681 711.875,-106.698 728.173,-111.527"/>
<polygon fill="midnightblue" stroke="midnightblue" points="673.272,-91.6097 662.69,-92.1245 671.284,-98.3213 673.272,-91.6097"/>
</g>
</g>
</svg>
        <g id="navigator" transform="translate(0 0)" fill="#404254">
                <rect fill="#f2f5e9" fill-opacity="0.5" stroke="#606060" stroke-width=".5" x="0" y="0" width="60" height="60"/>
                <use id="zoomplus" xlink:href="#zoomPlus" x="17" y="9" onmousedown="handleZoom(evt,'in')"/>
                <use id="zoomminus" xlink:href="#zoomMin" x="42" y="9" onmousedown="handleZoom(evt,'out')"/>
                <use id="reset" xlink:href="#resetDef" x="30" y="36" onmousedown="handleReset()"/>
                <g id="arrowUp" xlink:href="#dirArrow" transform="translate(30 24)" onmousedown="handlePan(0,-1)">
                  <use xlink:href="#rim" fill="#404040">
                        <set attributeName="fill" to="#808080" begin="arrowUp.mouseover" end="arrowUp.mouseout"/>
                  </use>
                  <path fill="none" stroke="white" stroke-width="1.5" d="M0,-3.0v7 M-2.5,-0.5L0,-3.0L2.5,-0.5"/>
                </g>
                <g id="arrowRight" xlink:href="#dirArrow" transform="rotate(90) translate(36 -43)" onmousedown="handlePan(1,0)">
                  <use xlink:href="#rim" fill="#404040">
                        <set attributeName="fill" to="#808080" begin="arrowRight.mouseover" end="arrowRight.mouseout"/>
                  </use>
                  <path fill="none" stroke="white" stroke-width="1.5" d="M0,-3.0v7 M-2.5,-0.5L0,-3.0L2.5,-0.5"/>
                </g>
                <g id="arrowDown" xlink:href="#dirArrow" transform="rotate(180) translate(-30 -48)" onmousedown="handlePan(0,1)">
                  <use xlink:href="#rim" fill="#404040">
                        <set attributeName="fill" to="#808080" begin="arrowDown.mouseover" end="arrowDown.mouseout"/>
                  </use>
                  <path fill="none" stroke="white" stroke-width="1.5" d="M0,-3.0v7 M-2.5,-0.5L0,-3.0L2.5,-0.5"/>
                </g>
                <g id="arrowLeft" xlink:href="#dirArrow" transform="rotate(270) translate(-36 17)" onmousedown="handlePan(-1,0)">
                  <use xlink:href="#rim" fill="#404040">
                        <set attributeName="fill" to="#808080" begin="arrowLeft.mouseover" end="arrowLeft.mouseout"/>
                  </use>
                  <path fill="none" stroke="white" stroke-width="1.5" d="M0,-3.0v7 M-2.5,-0.5L0,-3.0L2.5,-0.5"/>
                </g>
        </g>
        <svg viewBox="0 0 15 15" width="100%" height="30px" preserveAspectRatio="xMaxYMin meet">
         <g id="arrow_out" transform="scale(0.3 0.3)">
          <a xlink:href="a00027_a3aabea0eb8be381d54ece47fa1fd6a75_icgraph_org.svg" target="_base">
           <rect id="button" ry="5" rx="5" y="6" x="6" height="38" width="38"
                fill="#f2f5e9" fill-opacity="0.5" stroke="#606060" stroke-width="1.0"/>
           <path id="arrow"
             d="M 11.500037,31.436501 C 11.940474,20.09759 22.043105,11.32322 32.158766,21.979434 L 37.068811,17.246167 C 37.068811,17.246167 37.088388,32 37.088388,32 L 22.160133,31.978069 C 22.160133,31.978069 26.997745,27.140456 26.997745,27.140456 C 18.528582,18.264221 13.291696,25.230495 11.500037,31.436501 z"
             style="fill:#404040;"/>
          </a>
         </g>
        </svg>
</svg>
