<?xml version="1.0" encoding="UTF-8" standalone="no"?>
<!DOCTYPE svg PUBLIC "-//W3C//DTD SVG 1.1//EN"
 "http://www.w3.org/Graphics/SVG/1.1/DTD/svg11.dtd">
<!-- Generated by graphviz version 2.38.0 (20140413.2041)
 -->
<!-- Title: on_free Pages: 1 -->
<!--zoomable 262 -->
<svg id="main" version="1.1" xmlns="http://www.w3.org/2000/svg" xmlns:xlink="http://www.w3.org/1999/xlink" xml:space="preserve" onload="init(evt)">
<style type="text/css"><![CDATA[
.edge:hover path { stroke: red; }
.edge:hover polygon { stroke: red; fill: red; }
]]></style>
<script type="text/javascript"><![CDATA[
var edges = document.getElementsByTagName('g');
if (edges && edges.length) {
  for (var i=0;i<edges.length;i++) {
    if (edges[i].id.substr(0,4)=='edge') {
      edges[i].setAttribute('class','edge');
    }
  }
}
]]></script>
        <defs>
                <circle id="rim" cx="0" cy="0" r="7"/>
                <circle id="rim2" cx="0" cy="0" r="3.5"/>
                <g id="zoomPlus">
                        <use xlink:href="#rim" fill="#404040">
                                <set attributeName="fill" to="#808080" begin="zoomplus.mouseover" end="zoomplus.mouseout"/>
                        </use>
                        <path d="M-4,0h8M0,-4v8" fill="none" stroke="white" stroke-width="1.5" pointer-events="none"/>
                </g>
                <g id="zoomMin">
                        <use xlink:href="#rim" fill="#404040">
                                <set attributeName="fill" to="#808080" begin="zoomminus.mouseover" end="zoomminus.mouseout"/>
                        </use>
                        <path d="M-4,0h8" fill="none" stroke="white" stroke-width="1.5" pointer-events="none"/>
                </g>
                <g id="dirArrow">
                        <path fill="none" stroke="white" stroke-width="1.5" d="M0,-3.0v7 M-2.5,-0.5L0,-3.0L2.5,-0.5"/>
                </g>
               <g id="resetDef">
                       <use xlink:href="#rim2" fill="#404040">
                               <set attributeName="fill" to="#808080" begin="reset.mouseover" end="reset.mouseout"/>
                       </use>
               </g>
        </defs>

<script type="text/javascript">
var viewWidth = 584;
var viewHeight = 262;
var sectionId = 'dynsection-12';
</script>
<script xlink:href="svgpan.js"/>
<svg id="graph" class="graph">
<g id="viewport">
<title>on_free</title>
<!-- Node1 -->
<g id="node1" class="node"><title>Node1</title>
<polygon fill="#bfbfbf" stroke="black" points="0,-120.069 0,-139.069 49,-139.069 49,-120.069 0,-120.069"/>
<text text-anchor="middle" x="24.5" y="-127.069" font-family="Helvetica,sans-Serif" font-size="10.00">on_free</text>
</g>
<!-- Node2 -->
<g id="node2" class="node"><title>Node2</title>
<g id="a_node2"><a xlink:href="a00036.html#ad2fb429643739aa8893774e6d6d16ccc" target="_top" xlink:title="curl_ev_set_data">
<polygon fill="none" stroke="black" points="109,-234.069 109,-253.069 200,-253.069 200,-234.069 109,-234.069"/>
<text text-anchor="middle" x="154.5" y="-241.069" font-family="Helvetica,sans-Serif" font-size="10.00">curl_ev_set_data</text>
</a>
</g>
</g>
<!-- Node1&#45;&gt;Node2 -->
<g id="edge1" class="edge"><title>Node1&#45;&gt;Node2</title>
<path fill="none" stroke="midnightblue" d="M32.5359,-148.762C41.4464,-170.391 58.8596,-205.07 85,-224.569 92.0235,-229.809 100.42,-233.603 108.888,-236.351"/>
<polygon fill="midnightblue" stroke="midnightblue" points="35.7441,-147.355 28.8437,-139.316 29.2244,-149.904 35.7441,-147.355"/>
</g>
<!-- Node3 -->
<g id="node3" class="node"><title>Node3</title>
<g id="a_node3"><a xlink:href="a00011.html#a7d6f0b9bdced07007cfc6513f3a35d22" target="_top" xlink:title="discovery_set_adapter_data">
<polygon fill="none" stroke="black" points="85,-196.069 85,-215.069 224,-215.069 224,-196.069 85,-196.069"/>
<text text-anchor="middle" x="154.5" y="-203.069" font-family="Helvetica,sans-Serif" font-size="10.00">discovery_set_adapter_data</text>
</a>
</g>
</g>
<!-- Node1&#45;&gt;Node3 -->
<g id="edge2" class="edge"><title>Node1&#45;&gt;Node3</title>
<path fill="none" stroke="midnightblue" d="M39.3334,-146.805C50.4211,-159.534 67.049,-176.357 85,-186.569 91.7579,-190.414 99.3382,-193.517 106.927,-196.011"/>
<polygon fill="midnightblue" stroke="midnightblue" points="42.004,-144.543 32.889,-139.142 36.6467,-149.048 42.004,-144.543"/>
</g>
<!-- Node5 -->
<g id="node5" class="node"><title>Node5</title>
<g id="a_node5"><a xlink:href="a00011.html#a2da392ca7e69d9bde8b356d9cf917ff3" target="_top" xlink:title="discovery_set_device_data">
<polygon fill="none" stroke="black" points="87,-158.069 87,-177.069 222,-177.069 222,-158.069 87,-158.069"/>
<text text-anchor="middle" x="154.5" y="-165.069" font-family="Helvetica,sans-Serif" font-size="10.00">discovery_set_device_data</text>
</a>
</g>
</g>
<!-- Node1&#45;&gt;Node5 -->
<g id="edge4" class="edge"><title>Node1&#45;&gt;Node5</title>
<path fill="none" stroke="midnightblue" d="M58.8067,-140.454C67.326,-143.17 76.4855,-146.03 85,-148.569 95.7622,-151.779 107.529,-155.108 118.226,-158.065"/>
<polygon fill="midnightblue" stroke="midnightblue" points="59.7682,-137.087 49.1769,-137.361 57.6272,-143.752 59.7682,-137.087"/>
</g>
<!-- Node7 -->
<g id="node7" class="node"><title>Node7</title>
<g id="a_node7"><a xlink:href="a00011.html#a4c01b35f7a53d7d3b4fcdc53cd3a275a" target="_top" xlink:title="discovery_set_service_data">
<polygon fill="none" stroke="black" points="85.5,-120.069 85.5,-139.069 223.5,-139.069 223.5,-120.069 85.5,-120.069"/>
<text text-anchor="middle" x="154.5" y="-127.069" font-family="Helvetica,sans-Serif" font-size="10.00">discovery_set_service_data</text>
</a>
</g>
</g>
<!-- Node1&#45;&gt;Node7 -->
<g id="edge6" class="edge"><title>Node1&#45;&gt;Node7</title>
<path fill="none" stroke="midnightblue" d="M59.3219,-129.569C67.3713,-129.569 76.2468,-129.569 85.235,-129.569"/>
<polygon fill="midnightblue" stroke="midnightblue" points="59.2759,-126.069 49.2758,-129.569 59.2758,-133.069 59.2759,-126.069"/>
</g>
<!-- Node9 -->
<g id="node9" class="node"><title>Node9</title>
<g id="a_node9"><a xlink:href="a00067.html#a89ff40606fb6eb1f5a0969a5b65ead1d" target="_top" xlink:title="event_set_listener_data">
<polygon fill="none" stroke="black" points="94.5,-82.0693 94.5,-101.069 214.5,-101.069 214.5,-82.0693 94.5,-82.0693"/>
<text text-anchor="middle" x="154.5" y="-89.0693" font-family="Helvetica,sans-Serif" font-size="10.00">event_set_listener_data</text>
</a>
</g>
</g>
<!-- Node1&#45;&gt;Node9 -->
<g id="edge8" class="edge"><title>Node1&#45;&gt;Node9</title>
<path fill="none" stroke="midnightblue" d="M58.8067,-118.684C67.326,-115.969 76.4855,-113.109 85,-110.569 95.7622,-107.36 107.529,-104.031 118.226,-101.074"/>
<polygon fill="midnightblue" stroke="midnightblue" points="57.6272,-115.387 49.1769,-121.778 59.7682,-122.052 57.6272,-115.387"/>
</g>
<!-- Node11 -->
<g id="node11" class="node"><title>Node11</title>
<g id="a_node11"><a xlink:href="a00073.html#af2e70ea5267e6e806be3509474d049e0" target="_top" xlink:title="request_set_request_data">
<polygon fill="none" stroke="black" points="90,-44.0693 90,-63.0693 219,-63.0693 219,-44.0693 90,-44.0693"/>
<text text-anchor="middle" x="154.5" y="-51.0693" font-family="Helvetica,sans-Serif" font-size="10.00">request_set_request_data</text>
</a>
</g>
</g>
<!-- Node1&#45;&gt;Node11 -->
<g id="edge10" class="edge"><title>Node1&#45;&gt;Node11</title>
<path fill="none" stroke="midnightblue" d="M39.3334,-112.334C50.4211,-99.6048 67.049,-82.7821 85,-72.5693 91.7579,-68.7246 99.3382,-65.6215 106.927,-63.1279"/>
<polygon fill="midnightblue" stroke="midnightblue" points="36.6467,-110.09 32.889,-119.997 42.004,-114.596 36.6467,-110.09"/>
</g>
<!-- Node13 -->
<g id="node13" class="node"><title>Node13</title>
<g id="a_node13"><a xlink:href="a00025.html#a74ba52adbe4c46e9a9c33649e3b75243" target="_top" xlink:title="on_req_cmpl">
<polygon fill="none" stroke="black" points="409,-25.0693 409,-44.0693 481,-44.0693 481,-25.0693 409,-25.0693"/>
<text text-anchor="middle" x="445" y="-32.0693" font-family="Helvetica,sans-Serif" font-size="10.00">on_req_cmpl</text>
</a>
</g>
</g>
<!-- Node1&#45;&gt;Node13 -->
<g id="edge14" class="edge"><title>Node1&#45;&gt;Node13</title>
<path fill="none" stroke="midnightblue" d="M31.2035,-110.407C39.1324,-87.6299 55.8979,-50.6812 85,-34.5693 192.283,24.8257 346.713,-7.07592 412.451,-25.0245"/>
<polygon fill="midnightblue" stroke="midnightblue" points="27.8405,-109.432 28.0874,-120.024 34.4996,-111.59 27.8405,-109.432"/>
</g>
<!-- Node4 -->
<g id="node4" class="node"><title>Node4</title>
<g id="a_node4"><a xlink:href="a00064.html#ae4435821a3fd887ed393c05dacd2a79d" target="_top" xlink:title="hpd_adapter_set_data">
<polygon fill="none" stroke="black" points="260,-196.069 260,-215.069 373,-215.069 373,-196.069 260,-196.069"/>
<text text-anchor="middle" x="316.5" y="-203.069" font-family="Helvetica,sans-Serif" font-size="10.00">hpd_adapter_set_data</text>
</a>
</g>
</g>
<!-- Node3&#45;&gt;Node4 -->
<g id="edge3" class="edge"><title>Node3&#45;&gt;Node4</title>
<path fill="none" stroke="midnightblue" d="M234.344,-205.569C242.941,-205.569 251.557,-205.569 259.792,-205.569"/>
<polygon fill="midnightblue" stroke="midnightblue" points="234.283,-202.069 224.283,-205.569 234.283,-209.069 234.283,-202.069"/>
</g>
<!-- Node6 -->
<g id="node6" class="node"><title>Node6</title>
<g id="a_node6"><a xlink:href="a00064.html#a082d6cbdcf9bc2051d3372e9275b7c9f" target="_top" xlink:title="hpd_device_set_data">
<polygon fill="none" stroke="black" points="262,-158.069 262,-177.069 371,-177.069 371,-158.069 262,-158.069"/>
<text text-anchor="middle" x="316.5" y="-165.069" font-family="Helvetica,sans-Serif" font-size="10.00">hpd_device_set_data</text>
</a>
</g>
</g>
<!-- Node5&#45;&gt;Node6 -->
<g id="edge5" class="edge"><title>Node5&#45;&gt;Node6</title>
<path fill="none" stroke="midnightblue" d="M232.699,-167.569C242.599,-167.569 252.557,-167.569 261.965,-167.569"/>
<polygon fill="midnightblue" stroke="midnightblue" points="232.427,-164.069 222.427,-167.569 232.427,-171.069 232.427,-164.069"/>
</g>
<!-- Node8 -->
<g id="node8" class="node"><title>Node8</title>
<g id="a_node8"><a xlink:href="a00064.html#a3974326e212a829eef3dc2a4f554ccf0" target="_top" xlink:title="hpd_service_set_data">
<polygon fill="none" stroke="black" points="260.5,-120.069 260.5,-139.069 372.5,-139.069 372.5,-120.069 260.5,-120.069"/>
<text text-anchor="middle" x="316.5" y="-127.069" font-family="Helvetica,sans-Serif" font-size="10.00">hpd_service_set_data</text>
</a>
</g>
</g>
<!-- Node7&#45;&gt;Node8 -->
<g id="edge7" class="edge"><title>Node7&#45;&gt;Node8</title>
<path fill="none" stroke="midnightblue" d="M233.911,-129.569C242.882,-129.569 251.879,-129.569 260.451,-129.569"/>
<polygon fill="midnightblue" stroke="midnightblue" points="233.819,-126.069 223.819,-129.569 233.818,-133.069 233.819,-126.069"/>
</g>
<!-- Node10 -->
<g id="node10" class="node"><title>Node10</title>
<g id="a_node10"><a xlink:href="a00068.html#a6ed81ad49352be61e2a8710624396e93" target="_top" xlink:title="hpd_listener_set_data">
<polygon fill="none" stroke="black" points="260.5,-82.0693 260.5,-101.069 372.5,-101.069 372.5,-82.0693 260.5,-82.0693"/>
<text text-anchor="middle" x="316.5" y="-89.0693" font-family="Helvetica,sans-Serif" font-size="10.00">hpd_listener_set_data</text>
</a>
</g>
</g>
<!-- Node9&#45;&gt;Node10 -->
<g id="edge9" class="edge"><title>Node9&#45;&gt;Node10</title>
<path fill="none" stroke="midnightblue" d="M224.923,-91.5693C236.765,-91.5693 248.923,-91.5693 260.332,-91.5693"/>
<polygon fill="midnightblue" stroke="midnightblue" points="224.624,-88.0694 214.624,-91.5693 224.623,-95.0694 224.624,-88.0694"/>
</g>
<!-- Node12 -->
<g id="node12" class="node"><title>Node12</title>
<g id="a_node12"><a xlink:href="a00074.html#ac9eeff8f3e494a62942c2ebed8f05cd9" target="_top" xlink:title="hpd_request_set_data">
<polygon fill="none" stroke="black" points="260,-44.0693 260,-63.0693 373,-63.0693 373,-44.0693 260,-44.0693"/>
<text text-anchor="middle" x="316.5" y="-51.0693" font-family="Helvetica,sans-Serif" font-size="10.00">hpd_request_set_data</text>
</a>
</g>
</g>
<!-- Node11&#45;&gt;Node12 -->
<g id="edge11" class="edge"><title>Node11&#45;&gt;Node12</title>
<path fill="none" stroke="midnightblue" d="M229.356,-53.5693C239.586,-53.5693 249.951,-53.5693 259.777,-53.5693"/>
<polygon fill="midnightblue" stroke="midnightblue" points="229.196,-50.0694 219.196,-53.5693 229.196,-57.0694 229.196,-50.0694"/>
</g>
<!-- Node12&#45;&gt;Node13 -->
<g id="edge12" class="edge"><title>Node12&#45;&gt;Node13</title>
<path fill="none" stroke="midnightblue" d="M383.279,-43.6894C392.079,-42.3677 400.813,-41.0559 408.799,-39.8564"/>
<polygon fill="midnightblue" stroke="midnightblue" points="382.722,-40.2338 373.353,-45.1804 383.762,-47.1561 382.722,-40.2338"/>
</g>
<!-- Node14 -->
<g id="node14" class="node"><title>Node14</title>
<g id="a_node14"><a xlink:href="a00025.html#ad079431c7eba97c5dd5e4e202cdf6102" target="_top" xlink:title="on_create">
<polygon fill="none" stroke="black" points="517,-25.0693 517,-44.0693 576,-44.0693 576,-25.0693 517,-25.0693"/>
<text text-anchor="middle" x="546.5" y="-32.0693" font-family="Helvetica,sans-Serif" font-size="10.00">on_create</text>
</a>
</g>
</g>
<!-- Node13&#45;&gt;Node14 -->
<g id="edge13" class="edge"><title>Node13&#45;&gt;Node14</title>
<path fill="none" stroke="midnightblue" d="M491.212,-34.5693C499.974,-34.5693 508.925,-34.5693 516.965,-34.5693"/>
<polygon fill="midnightblue" stroke="midnightblue" points="491.08,-31.0694 481.08,-34.5693 491.08,-38.0694 491.08,-31.0694"/>
</g>
</g>
</svg>
        <g id="navigator" transform="translate(0 0)" fill="#404254">
                <rect fill="#f2f5e9" fill-opacity="0.5" stroke="#606060" stroke-width=".5" x="0" y="0" width="60" height="60"/>
                <use id="zoomplus" xlink:href="#zoomPlus" x="17" y="9" onmousedown="handleZoom(evt,'in')"/>
                <use id="zoomminus" xlink:href="#zoomMin" x="42" y="9" onmousedown="handleZoom(evt,'out')"/>
                <use id="reset" xlink:href="#resetDef" x="30" y="36" onmousedown="handleReset()"/>
                <g id="arrowUp" xlink:href="#dirArrow" transform="translate(30 24)" onmousedown="handlePan(0,-1)">
                  <use xlink:href="#rim" fill="#404040">
                        <set attributeName="fill" to="#808080" begin="arrowUp.mouseover" end="arrowUp.mouseout"/>
                  </use>
                  <path fill="none" stroke="white" stroke-width="1.5" d="M0,-3.0v7 M-2.5,-0.5L0,-3.0L2.5,-0.5"/>
                </g>
                <g id="arrowRight" xlink:href="#dirArrow" transform="rotate(90) translate(36 -43)" onmousedown="handlePan(1,0)">
                  <use xlink:href="#rim" fill="#404040">
                        <set attributeName="fill" to="#808080" begin="arrowRight.mouseover" end="arrowRight.mouseout"/>
                  </use>
                  <path fill="none" stroke="white" stroke-width="1.5" d="M0,-3.0v7 M-2.5,-0.5L0,-3.0L2.5,-0.5"/>
                </g>
                <g id="arrowDown" xlink:href="#dirArrow" transform="rotate(180) translate(-30 -48)" onmousedown="handlePan(0,1)">
                  <use xlink:href="#rim" fill="#404040">
                        <set attributeName="fill" to="#808080" begin="arrowDown.mouseover" end="arrowDown.mouseout"/>
                  </use>
                  <path fill="none" stroke="white" stroke-width="1.5" d="M0,-3.0v7 M-2.5,-0.5L0,-3.0L2.5,-0.5"/>
                </g>
                <g id="arrowLeft" xlink:href="#dirArrow" transform="rotate(270) translate(-36 17)" onmousedown="handlePan(-1,0)">
                  <use xlink:href="#rim" fill="#404040">
                        <set attributeName="fill" to="#808080" begin="arrowLeft.mouseover" end="arrowLeft.mouseout"/>
                  </use>
                  <path fill="none" stroke="white" stroke-width="1.5" d="M0,-3.0v7 M-2.5,-0.5L0,-3.0L2.5,-0.5"/>
                </g>
        </g>
        <svg viewBox="0 0 15 15" width="100%" height="30px" preserveAspectRatio="xMaxYMin meet">
         <g id="arrow_out" transform="scale(0.3 0.3)">
          <a xlink:href="a00025_a65f3fe01ba50f1473cad1a4418cfdf09_icgraph_org.svg" target="_base">
           <rect id="button" ry="5" rx="5" y="6" x="6" height="38" width="38"
                fill="#f2f5e9" fill-opacity="0.5" stroke="#606060" stroke-width="1.0"/>
           <path id="arrow"
             d="M 11.500037,31.436501 C 11.940474,20.09759 22.043105,11.32322 32.158766,21.979434 L 37.068811,17.246167 C 37.068811,17.246167 37.088388,32 37.088388,32 L 22.160133,31.978069 C 22.160133,31.978069 26.997745,27.140456 26.997745,27.140456 C 18.528582,18.264221 13.291696,25.230495 11.500037,31.436501 z"
             style="fill:#404040;"/>
          </a>
         </g>
        </svg>
</svg>
