<?xml version="1.0" encoding="UTF-8" standalone="no"?>
<!DOCTYPE svg PUBLIC "-//W3C//DTD SVG 1.1//EN"
 "http://www.w3.org/Graphics/SVG/1.1/DTD/svg11.dtd">
<!-- Generated by graphviz version 2.38.0 (20140413.2041)
 -->
<!-- Title: hpd_parameter_attach Pages: 1 -->
<svg width="741pt" height="39pt"
 viewBox="0.00 0.00 741.00 39.00" xmlns="http://www.w3.org/2000/svg" xmlns:xlink="http://www.w3.org/1999/xlink">
<g id="graph0" class="graph" transform="scale(1 1) rotate(0) translate(4 35)">
<title>hpd_parameter_attach</title>
<!-- Node1 -->
<g id="node1" class="node"><title>Node1</title>
<polygon fill="#bfbfbf" stroke="black" points="0,-6 0,-25 113,-25 113,-6 0,-6"/>
<text text-anchor="middle" x="56.5" y="-13" font-family="Helvetica,sans-Serif" font-size="10.00">hpd_parameter_attach</text>
</g>
<!-- Node2 -->
<g id="node2" class="node"><title>Node2</title>
<g id="a_node2"><a xlink:href="a00013.html#aae15756770f631aecb995dca162fbc65" target="_top" xlink:title="[create_adapter] ">
<polygon fill="none" stroke="black" points="149,-0.5 149,-30.5 259,-30.5 259,-0.5 149,-0.5"/>
<text text-anchor="start" x="157" y="-18.5" font-family="Helvetica,sans-Serif" font-size="10.00">demo_adapter_create</text>
<text text-anchor="middle" x="204" y="-7.5" font-family="Helvetica,sans-Serif" font-size="10.00">_parameter</text>
</a>
</g>
</g>
<!-- Node1&#45;&gt;Node2 -->
<g id="edge1" class="edge"><title>Node1&#45;&gt;Node2</title>
<path fill="none" stroke="midnightblue" d="M123.608,-15.5C132.103,-15.5 140.719,-15.5 148.989,-15.5"/>
<polygon fill="midnightblue" stroke="midnightblue" points="123.338,-12.0001 113.338,-15.5 123.338,-19.0001 123.338,-12.0001"/>
</g>
<!-- Node3 -->
<g id="node3" class="node"><title>Node3</title>
<g id="a_node3"><a xlink:href="a00013.html#aca3f96055b6405843c652ef5efd1c3e8" target="_top" xlink:title="[create_parameter] ">
<polygon fill="none" stroke="black" points="295,-0.5 295,-30.5 405,-30.5 405,-0.5 295,-0.5"/>
<text text-anchor="start" x="303" y="-18.5" font-family="Helvetica,sans-Serif" font-size="10.00">demo_adapter_create</text>
<text text-anchor="middle" x="350" y="-7.5" font-family="Helvetica,sans-Serif" font-size="10.00">_service</text>
</a>
</g>
</g>
<!-- Node2&#45;&gt;Node3 -->
<g id="edge2" class="edge"><title>Node2&#45;&gt;Node3</title>
<path fill="none" stroke="midnightblue" d="M269.27,-15.5C277.75,-15.5 286.375,-15.5 294.667,-15.5"/>
<polygon fill="midnightblue" stroke="midnightblue" points="269.03,-12.0001 259.03,-15.5 269.03,-19.0001 269.03,-12.0001"/>
</g>
<!-- Node4 -->
<g id="node4" class="node"><title>Node4</title>
<g id="a_node4"><a xlink:href="a00013.html#abfc239c18fce4bcc601e14074ddfabf8" target="_top" xlink:title="[create_service] ">
<polygon fill="none" stroke="black" points="441,-6 441,-25 578,-25 578,-6 441,-6"/>
<text text-anchor="middle" x="509.5" y="-13" font-family="Helvetica,sans-Serif" font-size="10.00">demo_adapter_create_lamp</text>
</a>
</g>
</g>
<!-- Node3&#45;&gt;Node4 -->
<g id="edge3" class="edge"><title>Node3&#45;&gt;Node4</title>
<path fill="none" stroke="midnightblue" d="M415.324,-15.5C423.736,-15.5 432.375,-15.5 440.84,-15.5"/>
<polygon fill="midnightblue" stroke="midnightblue" points="415.203,-12.0001 405.203,-15.5 415.203,-19.0001 415.203,-12.0001"/>
</g>
<!-- Node5 -->
<g id="node5" class="node"><title>Node5</title>
<g id="a_node5"><a xlink:href="a00013.html#a9f84d5de2ac16bde89480bd48efdff51" target="_top" xlink:title="[create_lamp] ">
<polygon fill="none" stroke="black" points="614,-6 614,-25 733,-25 733,-6 614,-6"/>
<text text-anchor="middle" x="673.5" y="-13" font-family="Helvetica,sans-Serif" font-size="10.00">demo_adapter_on_start</text>
</a>
</g>
</g>
<!-- Node4&#45;&gt;Node5 -->
<g id="edge4" class="edge"><title>Node4&#45;&gt;Node5</title>
<path fill="none" stroke="midnightblue" d="M588.281,-15.5C596.853,-15.5 605.473,-15.5 613.757,-15.5"/>
<polygon fill="midnightblue" stroke="midnightblue" points="588.264,-12.0001 578.264,-15.5 588.264,-19.0001 588.264,-12.0001"/>
</g>
</g>
</svg>
