<?xml version="1.0" encoding="UTF-8" standalone="no"?>
<!DOCTYPE svg PUBLIC "-//W3C//DTD SVG 1.1//EN"
 "http://www.w3.org/Graphics/SVG/1.1/DTD/svg11.dtd">
<!-- Generated by graphviz version 2.38.0 (20140413.2041)
 -->
<!-- Title: daemon_loop_run Pages: 1 -->
<svg width="384pt" height="66pt"
 viewBox="0.00 0.00 384.00 66.00" xmlns="http://www.w3.org/2000/svg" xmlns:xlink="http://www.w3.org/1999/xlink">
<g id="graph0" class="graph" transform="scale(1 1) rotate(0) translate(4 62)">
<title>daemon_loop_run</title>
<!-- Node1 -->
<g id="node1" class="node"><title>Node1</title>
<polygon fill="#bfbfbf" stroke="black" points="0,-19.5 0,-38.5 93,-38.5 93,-19.5 0,-19.5"/>
<text text-anchor="middle" x="46.5" y="-26.5" font-family="Helvetica,sans-Serif" font-size="10.00">daemon_loop_run</text>
</g>
<!-- Node2 -->
<g id="node2" class="node"><title>Node2</title>
<g id="a_node2"><a xlink:href="a00017.html#affd72e7fb83ddd29450361c75672ddd4" target="_top" xlink:title="daemon_start">
<polygon fill="none" stroke="black" points="129,-19.5 129,-38.5 205,-38.5 205,-19.5 129,-19.5"/>
<text text-anchor="middle" x="167" y="-26.5" font-family="Helvetica,sans-Serif" font-size="10.00">daemon_start</text>
</a>
</g>
</g>
<!-- Node1&#45;&gt;Node2 -->
<g id="edge1" class="edge"><title>Node1&#45;&gt;Node2</title>
<path fill="none" stroke="midnightblue" d="M103.339,-29C111.952,-29 120.662,-29 128.737,-29"/>
<polygon fill="midnightblue" stroke="midnightblue" points="103.315,-25.5001 93.3152,-29 103.315,-32.5001 103.315,-25.5001"/>
</g>
<!-- Node3 -->
<g id="node3" class="node"><title>Node3</title>
<g id="a_node3"><a xlink:href="a00077.html#a4a5e670df4a5790a7955aaef5483c08a" target="_top" xlink:title="hpd_start">
<polygon fill="none" stroke="black" points="241,-19.5 241,-38.5 298,-38.5 298,-19.5 241,-19.5"/>
<text text-anchor="middle" x="269.5" y="-26.5" font-family="Helvetica,sans-Serif" font-size="10.00">hpd_start</text>
</a>
</g>
</g>
<!-- Node2&#45;&gt;Node3 -->
<g id="edge2" class="edge"><title>Node2&#45;&gt;Node3</title>
<path fill="none" stroke="midnightblue" d="M215.323,-29C224.101,-29 232.999,-29 240.94,-29"/>
<polygon fill="midnightblue" stroke="midnightblue" points="215.137,-25.5001 205.137,-29 215.137,-32.5001 215.137,-25.5001"/>
</g>
<!-- Node4 -->
<g id="node4" class="node"><title>Node4</title>
<g id="a_node4"><a xlink:href="a00065.html#a0ddf1224851353fc92bfbff6f499fa97" target="_top" xlink:title="[file] ">
<polygon fill="none" stroke="black" points="336,-38.5 336,-57.5 374,-57.5 374,-38.5 336,-38.5"/>
<text text-anchor="middle" x="355" y="-45.5" font-family="Helvetica,sans-Serif" font-size="10.00">main</text>
</a>
</g>
</g>
<!-- Node3&#45;&gt;Node4 -->
<g id="edge3" class="edge"><title>Node3&#45;&gt;Node4</title>
<path fill="none" stroke="midnightblue" d="M308.124,-37.5611C317.732,-39.7474 327.635,-42.0007 335.769,-43.8516"/>
<polygon fill="midnightblue" stroke="midnightblue" points="308.832,-34.1328 298.304,-35.3267 307.278,-40.9583 308.832,-34.1328"/>
</g>
<!-- Node5 -->
<g id="node5" class="node"><title>Node5</title>
<g id="a_node5"><a xlink:href="a00039.html#a5de92b31931f2f5155c682379a06da32" target="_top" xlink:title="TEST">
<polygon fill="none" stroke="black" points="334,-0.5 334,-19.5 376,-19.5 376,-0.5 334,-0.5"/>
<text text-anchor="middle" x="355" y="-7.5" font-family="Helvetica,sans-Serif" font-size="10.00">TEST</text>
</a>
</g>
</g>
<!-- Node3&#45;&gt;Node5 -->
<g id="edge4" class="edge"><title>Node3&#45;&gt;Node5</title>
<path fill="none" stroke="midnightblue" d="M308.159,-20.4309C317.059,-18.4057 326.209,-16.3236 333.971,-14.5574"/>
<polygon fill="midnightblue" stroke="midnightblue" points="307.278,-17.0417 298.304,-22.6733 308.832,-23.8672 307.278,-17.0417"/>
</g>
</g>
</svg>
