<?xml version="1.0" encoding="UTF-8" standalone="no"?>
<!DOCTYPE svg PUBLIC "-//W3C//DTD SVG 1.1//EN"
 "http://www.w3.org/Graphics/SVG/1.1/DTD/svg11.dtd">
<!-- Generated by graphviz version 2.38.0 (20140413.2041)
 -->
<!-- Title: discovery_detach_adapter Pages: 1 -->
<svg width="831pt" height="180pt"
 viewBox="0.00 0.00 831.00 180.00" xmlns="http://www.w3.org/2000/svg" xmlns:xlink="http://www.w3.org/1999/xlink">
<g id="graph0" class="graph" transform="scale(1 1) rotate(0) translate(4 176)">
<title>discovery_detach_adapter</title>
<!-- Node1 -->
<g id="node1" class="node"><title>Node1</title>
<polygon fill="#bfbfbf" stroke="black" points="0,-76.5 0,-95.5 131,-95.5 131,-76.5 0,-76.5"/>
<text text-anchor="middle" x="65.5" y="-83.5" font-family="Helvetica,sans-Serif" font-size="10.00">discovery_detach_adapter</text>
</g>
<!-- Node2 -->
<g id="node2" class="node"><title>Node2</title>
<g id="a_node2"><a xlink:href="a00062.html#ab3279e57e3faeb9689b5b60283103ef2" target="_top" xlink:title="event_inform_adapter\l_detached">
<polygon fill="none" stroke="black" points="167,-71 167,-101 277,-101 277,-71 167,-71"/>
<text text-anchor="start" x="175" y="-89" font-family="Helvetica,sans-Serif" font-size="10.00">event_inform_adapter</text>
<text text-anchor="middle" x="222" y="-78" font-family="Helvetica,sans-Serif" font-size="10.00">_detached</text>
</a>
</g>
</g>
<!-- Node1&#45;&gt;Node2 -->
<g id="edge1" class="edge"><title>Node1&#45;&gt;Node2</title>
<path fill="none" stroke="midnightblue" d="M131.127,-86C139.592,-86 148.265,-86 156.725,-86"/>
<polygon fill="midnightblue" stroke="midnightblue" points="156.909,-89.5001 166.909,-86 156.909,-82.5001 156.909,-89.5001"/>
</g>
<!-- Node3 -->
<g id="node3" class="node"><title>Node3</title>
<g id="a_node3"><a xlink:href="a00062.html#a38f3fa1f45b7832adcbdd3f1af2bd9a4" target="_top" xlink:title="event_inform_device\l_detached">
<polygon fill="none" stroke="black" points="313,-71 313,-101 420,-101 420,-71 313,-71"/>
<text text-anchor="start" x="321" y="-89" font-family="Helvetica,sans-Serif" font-size="10.00">event_inform_device</text>
<text text-anchor="middle" x="366.5" y="-78" font-family="Helvetica,sans-Serif" font-size="10.00">_detached</text>
</a>
</g>
</g>
<!-- Node2&#45;&gt;Node3 -->
<g id="edge2" class="edge"><title>Node2&#45;&gt;Node3</title>
<path fill="none" stroke="midnightblue" d="M277.28,-86C285.555,-86 294.156,-86 302.597,-86"/>
<polygon fill="midnightblue" stroke="midnightblue" points="302.783,-89.5001 312.783,-86 302.783,-82.5001 302.783,-89.5001"/>
</g>
<!-- Node4 -->
<g id="node4" class="node"><title>Node4</title>
<g id="a_node4"><a xlink:href="a00011.html#aebd10ac1c18be51340c39d6d5a54e6d1" target="_top" xlink:title="discovery_alloc_did">
<polygon fill="none" stroke="black" points="456,-114.5 456,-133.5 558,-133.5 558,-114.5 456,-114.5"/>
<text text-anchor="middle" x="507" y="-121.5" font-family="Helvetica,sans-Serif" font-size="10.00">discovery_alloc_did</text>
</a>
</g>
</g>
<!-- Node3&#45;&gt;Node4 -->
<g id="edge3" class="edge"><title>Node3&#45;&gt;Node4</title>
<path fill="none" stroke="midnightblue" d="M420.256,-100.475C433.78,-104.185 448.194,-108.14 461.27,-111.727"/>
<polygon fill="midnightblue" stroke="midnightblue" points="460.401,-115.118 470.971,-114.389 462.253,-108.368 460.401,-115.118"/>
</g>
<!-- Node8 -->
<g id="node8" class="node"><title>Node8</title>
<g id="a_node8"><a xlink:href="a00006.html#adf46370d9c211c3be22966b4606ba9b0" target="_top" xlink:title="free">
<polygon fill="none" stroke="black" points="759,-57.5 759,-76.5 792,-76.5 792,-57.5 759,-57.5"/>
<text text-anchor="middle" x="775.5" y="-64.5" font-family="Helvetica,sans-Serif" font-size="10.00">free</text>
</a>
</g>
</g>
<!-- Node3&#45;&gt;Node8 -->
<g id="edge12" class="edge"><title>Node3&#45;&gt;Node8</title>
<path fill="none" stroke="midnightblue" d="M420.052,-83.6072C484.23,-80.6768 596.092,-75.5417 692,-71 710.97,-70.1017 732.392,-69.0623 748.652,-68.2682"/>
<polygon fill="midnightblue" stroke="midnightblue" points="749.174,-71.747 758.991,-67.7624 748.832,-64.7553 749.174,-71.747"/>
</g>
<!-- Node9 -->
<g id="node9" class="node"><title>Node9</title>
<g id="a_node9"><a xlink:href="a00062.html#a55a69c4d4f322c2d707eb69a3d2225f6" target="_top" xlink:title="on_detached">
<polygon fill="none" stroke="black" points="471,-38.5 471,-57.5 543,-57.5 543,-38.5 471,-38.5"/>
<text text-anchor="middle" x="507" y="-45.5" font-family="Helvetica,sans-Serif" font-size="10.00">on_detached</text>
</a>
</g>
</g>
<!-- Node3&#45;&gt;Node9 -->
<g id="edge8" class="edge"><title>Node3&#45;&gt;Node9</title>
<path fill="none" stroke="midnightblue" d="M420.256,-71.5254C433.78,-67.815 448.194,-63.86 461.27,-60.2725"/>
<polygon fill="midnightblue" stroke="midnightblue" points="462.253,-63.6321 470.971,-57.6109 460.401,-56.8816 462.253,-63.6321"/>
</g>
<!-- Node5 -->
<g id="node5" class="node"><title>Node5</title>
<g id="a_node5"><a xlink:href="a00061.html#acd5e8c2bf3e761abc7e2fd2294238a74" target="_top" xlink:title="discovery_set_did">
<polygon fill="none" stroke="black" points="595.5,-152.5 595.5,-171.5 690.5,-171.5 690.5,-152.5 595.5,-152.5"/>
<text text-anchor="middle" x="643" y="-159.5" font-family="Helvetica,sans-Serif" font-size="10.00">discovery_set_did</text>
</a>
</g>
</g>
<!-- Node4&#45;&gt;Node5 -->
<g id="edge4" class="edge"><title>Node4&#45;&gt;Node5</title>
<path fill="none" stroke="midnightblue" d="M541.814,-133.589C559.033,-138.472 580.164,-144.464 598.573,-149.685"/>
<polygon fill="midnightblue" stroke="midnightblue" points="597.621,-153.053 608.197,-152.414 599.531,-146.319 597.621,-153.053"/>
</g>
<!-- Node7 -->
<g id="node7" class="node"><title>Node7</title>
<g id="a_node7"><a xlink:href="a00061.html#ae1a000b225c8b3f365c2cec8362b8483" target="_top" xlink:title="discovery_free_did">
<polygon fill="none" stroke="black" points="594,-114.5 594,-133.5 692,-133.5 692,-114.5 594,-114.5"/>
<text text-anchor="middle" x="643" y="-121.5" font-family="Helvetica,sans-Serif" font-size="10.00">discovery_free_did</text>
</a>
</g>
</g>
<!-- Node4&#45;&gt;Node7 -->
<g id="edge6" class="edge"><title>Node4&#45;&gt;Node7</title>
<path fill="none" stroke="midnightblue" d="M558.278,-124C566.514,-124 575.111,-124 583.525,-124"/>
<polygon fill="midnightblue" stroke="midnightblue" points="583.661,-127.5 593.661,-124 583.661,-120.5 583.661,-127.5"/>
</g>
<!-- Node6 -->
<g id="node6" class="node"><title>Node6</title>
<g id="a_node6"><a xlink:href="a00061.html#af2f553cfc3af4678b87a8fc75f35a5c6" target="_top" xlink:title="discovery_set_aid">
<polygon fill="none" stroke="black" points="728,-152.5 728,-171.5 823,-171.5 823,-152.5 728,-152.5"/>
<text text-anchor="middle" x="775.5" y="-159.5" font-family="Helvetica,sans-Serif" font-size="10.00">discovery_set_aid</text>
</a>
</g>
</g>
<!-- Node5&#45;&gt;Node6 -->
<g id="edge5" class="edge"><title>Node5&#45;&gt;Node6</title>
<path fill="none" stroke="midnightblue" d="M690.745,-162C699.459,-162 708.654,-162 717.634,-162"/>
<polygon fill="midnightblue" stroke="midnightblue" points="717.643,-165.5 727.643,-162 717.643,-158.5 717.643,-165.5"/>
</g>
<!-- Node7&#45;&gt;Node8 -->
<g id="edge7" class="edge"><title>Node7&#45;&gt;Node8</title>
<path fill="none" stroke="midnightblue" d="M665.843,-114.459C688.928,-104.376 725.281,-88.4979 749.498,-77.9206"/>
<polygon fill="midnightblue" stroke="midnightblue" points="750.986,-81.0896 758.75,-73.8795 748.185,-74.6748 750.986,-81.0896"/>
</g>
<!-- Node9&#45;&gt;Node8 -->
<g id="edge9" class="edge"><title>Node9&#45;&gt;Node8</title>
<path fill="none" stroke="midnightblue" d="M543.114,-50.5035C597.401,-54.3738 700.45,-61.7206 748.553,-65.1501"/>
<polygon fill="midnightblue" stroke="midnightblue" points="748.521,-68.6567 758.745,-65.8768 749.019,-61.6744 748.521,-68.6567"/>
</g>
<!-- Node10 -->
<g id="node10" class="node"><title>Node10</title>
<g id="a_node10"><a xlink:href="a00011.html#ae1a000b225c8b3f365c2cec8362b8483" target="_top" xlink:title="discovery_free_did">
<polygon fill="none" stroke="black" points="594,-0.5 594,-19.5 692,-19.5 692,-0.5 594,-0.5"/>
<text text-anchor="middle" x="643" y="-7.5" font-family="Helvetica,sans-Serif" font-size="10.00">discovery_free_did</text>
</a>
</g>
</g>
<!-- Node9&#45;&gt;Node10 -->
<g id="edge10" class="edge"><title>Node9&#45;&gt;Node10</title>
<path fill="none" stroke="midnightblue" d="M541.814,-38.411C559.033,-33.5281 580.164,-27.5357 598.573,-22.315"/>
<polygon fill="midnightblue" stroke="midnightblue" points="599.531,-25.6815 608.197,-19.5859 597.621,-18.947 599.531,-25.6815"/>
</g>
<!-- Node10&#45;&gt;Node8 -->
<g id="edge11" class="edge"><title>Node10&#45;&gt;Node8</title>
<path fill="none" stroke="midnightblue" d="M665.843,-19.5405C688.928,-29.6239 725.281,-45.5021 749.498,-56.0794"/>
<polygon fill="midnightblue" stroke="midnightblue" points="748.185,-59.3252 758.75,-60.1205 750.986,-52.9104 748.185,-59.3252"/>
</g>
</g>
</svg>
