<?xml version="1.0" encoding="UTF-8" standalone="no"?>
<!DOCTYPE svg PUBLIC "-//W3C//DTD SVG 1.1//EN"
 "http://www.w3.org/Graphics/SVG/1.1/DTD/svg11.dtd">
<!-- Generated by graphviz version 2.38.0 (20140413.2041)
 -->
<!-- Title: parser_hdr_field Pages: 1 -->
<svg width="425pt" height="66pt"
 viewBox="0.00 0.00 425.00 66.00" xmlns="http://www.w3.org/2000/svg" xmlns:xlink="http://www.w3.org/1999/xlink">
<g id="graph0" class="graph" transform="scale(1 1) rotate(0) translate(4 62)">
<title>parser_hdr_field</title>
<!-- Node1 -->
<g id="node1" class="node"><title>Node1</title>
<polygon fill="#bfbfbf" stroke="black" points="0,-19.5 0,-38.5 86,-38.5 86,-19.5 0,-19.5"/>
<text text-anchor="middle" x="43" y="-26.5" font-family="Helvetica,sans-Serif" font-size="10.00">parser_hdr_field</text>
</g>
<!-- Node2 -->
<g id="node2" class="node"><title>Node2</title>
<g id="a_node2"><a xlink:href="a00041.html#ac2cf7cc000201a1b2ab1b421af7bd80f" target="_top" xlink:title="Informs the parser that the URL is complete. ">
<polygon fill="none" stroke="black" points="136.5,-38.5 136.5,-57.5 208.5,-57.5 208.5,-38.5 136.5,-38.5"/>
<text text-anchor="middle" x="172.5" y="-45.5" font-family="Helvetica,sans-Serif" font-size="10.00">up_complete</text>
</a>
</g>
</g>
<!-- Node1&#45;&gt;Node2 -->
<g id="edge1" class="edge"><title>Node1&#45;&gt;Node2</title>
<path fill="none" stroke="midnightblue" d="M86.1016,-35.274C98.9222,-37.1845 113.068,-39.2925 126.097,-41.234"/>
<polygon fill="midnightblue" stroke="midnightblue" points="125.852,-44.7362 136.259,-42.7484 126.884,-37.8126 125.852,-44.7362"/>
</g>
<!-- Node3 -->
<g id="node3" class="node"><title>Node3</title>
<g id="a_node3"><a xlink:href="a00015.html#a3734df5dbe38729c61890828b63ccae0" target="_top" xlink:title="hp_on_header_field">
<polygon fill="none" stroke="black" points="122,-0.5 122,-19.5 223,-19.5 223,-0.5 122,-0.5"/>
<text text-anchor="middle" x="172.5" y="-7.5" font-family="Helvetica,sans-Serif" font-size="10.00">hp_on_header_field</text>
</a>
</g>
</g>
<!-- Node1&#45;&gt;Node3 -->
<g id="edge2" class="edge"><title>Node1&#45;&gt;Node3</title>
<path fill="none" stroke="midnightblue" d="M86.1016,-22.726C94.3389,-21.4985 103.123,-20.1895 111.807,-18.8954"/>
<polygon fill="midnightblue" stroke="midnightblue" points="112.541,-22.3248 121.916,-17.389 111.509,-15.4013 112.541,-22.3248"/>
</g>
<!-- Node4 -->
<g id="node4" class="node"><title>Node4</title>
<g id="a_node4"><a xlink:href="a00015.html#a8c26a00f2618ee4901b5c34f15c63042" target="_top" xlink:title="hp_reset_buffers">
<polygon fill="none" stroke="black" points="259,-0.5 259,-19.5 348,-19.5 348,-0.5 259,-0.5"/>
<text text-anchor="middle" x="303.5" y="-7.5" font-family="Helvetica,sans-Serif" font-size="10.00">hp_reset_buffers</text>
</a>
</g>
</g>
<!-- Node3&#45;&gt;Node4 -->
<g id="edge3" class="edge"><title>Node3&#45;&gt;Node4</title>
<path fill="none" stroke="midnightblue" d="M223.006,-10C231.391,-10 240.134,-10 248.625,-10"/>
<polygon fill="midnightblue" stroke="midnightblue" points="248.815,-13.5001 258.815,-10 248.815,-6.5001 248.815,-13.5001"/>
</g>
<!-- Node5 -->
<g id="node5" class="node"><title>Node5</title>
<g id="a_node5"><a xlink:href="a00012.html#adf46370d9c211c3be22966b4606ba9b0" target="_top" xlink:title="free">
<polygon fill="none" stroke="black" points="384,-0.5 384,-19.5 417,-19.5 417,-0.5 384,-0.5"/>
<text text-anchor="middle" x="400.5" y="-7.5" font-family="Helvetica,sans-Serif" font-size="10.00">free</text>
</a>
</g>
</g>
<!-- Node4&#45;&gt;Node5 -->
<g id="edge4" class="edge"><title>Node4&#45;&gt;Node5</title>
<path fill="none" stroke="midnightblue" d="M348.107,-10C356.826,-10 365.721,-10 373.607,-10"/>
<polygon fill="midnightblue" stroke="midnightblue" points="373.623,-13.5001 383.623,-10 373.623,-6.5001 373.623,-13.5001"/>
</g>
</g>
</svg>
