<?xml version="1.0" encoding="UTF-8" standalone="no"?>
<!DOCTYPE svg PUBLIC "-//W3C//DTD SVG 1.1//EN"
 "http://www.w3.org/Graphics/SVG/1.1/DTD/svg11.dtd">
<!-- Generated by graphviz version 2.38.0 (20140413.2041)
 -->
<!-- Title: up_complete Pages: 1 -->
<svg width="205pt" height="66pt"
 viewBox="0.00 0.00 205.00 66.00" xmlns="http://www.w3.org/2000/svg" xmlns:xlink="http://www.w3.org/1999/xlink">
<g id="graph0" class="graph" transform="scale(1 1) rotate(0) translate(4 62)">
<title>up_complete</title>
<!-- Node1 -->
<g id="node1" class="node"><title>Node1</title>
<polygon fill="#bfbfbf" stroke="black" points="0,-19.5 0,-38.5 72,-38.5 72,-19.5 0,-19.5"/>
<text text-anchor="middle" x="36" y="-26.5" font-family="Helvetica,sans-Serif" font-size="10.00">up_complete</text>
</g>
<!-- Node2 -->
<g id="node2" class="node"><title>Node2</title>
<g id="a_node2"><a xlink:href="a00016.html#a6c84ef26434635eaa329b5ac86202289" target="_top" xlink:title="Header field callback for http_parser. ">
<polygon fill="none" stroke="black" points="109.5,-38.5 109.5,-57.5 195.5,-57.5 195.5,-38.5 109.5,-38.5"/>
<text text-anchor="middle" x="152.5" y="-45.5" font-family="Helvetica,sans-Serif" font-size="10.00">parser_hdr_field</text>
</a>
</g>
</g>
<!-- Node1&#45;&gt;Node2 -->
<g id="edge1" class="edge"><title>Node1&#45;&gt;Node2</title>
<path fill="none" stroke="midnightblue" d="M82.1565,-36.4932C91.096,-37.9766 100.448,-39.5284 109.285,-40.9949"/>
<polygon fill="midnightblue" stroke="midnightblue" points="82.7261,-33.04 72.2881,-34.8557 81.5802,-39.9455 82.7261,-33.04"/>
</g>
<!-- Node3 -->
<g id="node3" class="node"><title>Node3</title>
<g id="a_node3"><a xlink:href="a00016.html#a97ff9cb1dd4649f823f0a9e4c480351e" target="_top" xlink:title="Header complete callback for http_parser. ">
<polygon fill="none" stroke="black" points="108,-0.5 108,-19.5 197,-19.5 197,-0.5 108,-0.5"/>
<text text-anchor="middle" x="152.5" y="-7.5" font-family="Helvetica,sans-Serif" font-size="10.00">parser_hdr_cmpl</text>
</a>
</g>
</g>
<!-- Node1&#45;&gt;Node3 -->
<g id="edge2" class="edge"><title>Node1&#45;&gt;Node3</title>
<path fill="none" stroke="midnightblue" d="M82.2537,-21.4907C90.6106,-20.1039 99.3245,-18.6579 107.639,-17.2782"/>
<polygon fill="midnightblue" stroke="midnightblue" points="81.5802,-18.0545 72.2881,-23.1443 82.7261,-24.96 81.5802,-18.0545"/>
</g>
</g>
</svg>
