<?xml version="1.0" encoding="UTF-8" standalone="no"?>
<!DOCTYPE svg PUBLIC "-//W3C//DTD SVG 1.1//EN"
 "http://www.w3.org/Graphics/SVG/1.1/DTD/svg11.dtd">
<!-- Generated by graphviz version 2.38.0 (20140413.2041)
 -->
<!-- Title: insert Pages: 1 -->
<svg width="969pt" height="456pt"
 viewBox="0.00 0.00 969.00 455.50" xmlns="http://www.w3.org/2000/svg" xmlns:xlink="http://www.w3.org/1999/xlink">
<g id="graph0" class="graph" transform="scale(1 1) rotate(0) translate(4 451.5)">
<title>insert</title>
<!-- Node1 -->
<g id="node1" class="node"><title>Node1</title>
<polygon fill="#bfbfbf" stroke="black" points="0,-224.5 0,-243.5 41,-243.5 41,-224.5 0,-224.5"/>
<text text-anchor="middle" x="20.5" y="-231.5" font-family="Helvetica,sans-Serif" font-size="10.00">insert</text>
</g>
<!-- Node2 -->
<g id="node2" class="node"><title>Node2</title>
<g id="a_node2"><a xlink:href="a00022.html#a230c25a2f8e5de7ce61623a4ce8a809f" target="_top" xlink:title="hpd_map_set">
<polygon fill="none" stroke="black" points="77,-224.5 77,-243.5 152,-243.5 152,-224.5 77,-224.5"/>
<text text-anchor="middle" x="114.5" y="-231.5" font-family="Helvetica,sans-Serif" font-size="10.00">hpd_map_set</text>
</a>
</g>
</g>
<!-- Node1&#45;&gt;Node2 -->
<g id="edge1" class="edge"><title>Node1&#45;&gt;Node2</title>
<path fill="none" stroke="midnightblue" d="M51.2219,-234C59.4156,-234 68.4003,-234 76.9327,-234"/>
<polygon fill="midnightblue" stroke="midnightblue" points="51.0109,-230.5 41.0108,-234 51.0108,-237.5 51.0109,-230.5"/>
</g>
<!-- Node3 -->
<g id="node3" class="node"><title>Node3</title>
<g id="a_node3"><a xlink:href="a00011.html#a1ace8e13428ce953dc195ed8cf5105c7" target="_top" xlink:title="discovery_set_adapter_attr">
<polygon fill="none" stroke="black" points="194,-378.5 194,-397.5 328,-397.5 328,-378.5 194,-378.5"/>
<text text-anchor="middle" x="261" y="-385.5" font-family="Helvetica,sans-Serif" font-size="10.00">discovery_set_adapter_attr</text>
</a>
</g>
</g>
<!-- Node2&#45;&gt;Node3 -->
<g id="edge2" class="edge"><title>Node2&#45;&gt;Node3</title>
<path fill="none" stroke="midnightblue" d="M129.887,-251.904C144.168,-269.423 166.915,-296.657 188,-319 208.914,-341.161 235.102,-365.464 249.428,-378.489"/>
<polygon fill="midnightblue" stroke="midnightblue" points="132.259,-249.272 123.244,-243.705 126.82,-253.678 132.259,-249.272"/>
</g>
<!-- Node8 -->
<g id="node8" class="node"><title>Node8</title>
<g id="a_node8"><a xlink:href="a00011.html#a56b004be3282718fac95524a7446748c" target="_top" xlink:title="discovery_set_device_attr">
<polygon fill="none" stroke="black" points="195.5,-290.5 195.5,-309.5 326.5,-309.5 326.5,-290.5 195.5,-290.5"/>
<text text-anchor="middle" x="261" y="-297.5" font-family="Helvetica,sans-Serif" font-size="10.00">discovery_set_device_attr</text>
</a>
</g>
</g>
<!-- Node2&#45;&gt;Node8 -->
<g id="edge7" class="edge"><title>Node2&#45;&gt;Node8</title>
<path fill="none" stroke="midnightblue" d="M145.808,-247.843C173.733,-260.598 214.445,-279.193 238.963,-290.391"/>
<polygon fill="midnightblue" stroke="midnightblue" points="147.062,-244.568 136.512,-243.597 144.154,-250.935 147.062,-244.568"/>
</g>
<!-- Node12 -->
<g id="node12" class="node"><title>Node12</title>
<g id="a_node12"><a xlink:href="a00011.html#a2c62fa50d5ba2ac0e0db8df95d319687" target="_top" xlink:title="discovery_set_service_attr">
<polygon fill="none" stroke="black" points="194,-224.5 194,-243.5 328,-243.5 328,-224.5 194,-224.5"/>
<text text-anchor="middle" x="261" y="-231.5" font-family="Helvetica,sans-Serif" font-size="10.00">discovery_set_service_attr</text>
</a>
</g>
</g>
<!-- Node2&#45;&gt;Node12 -->
<g id="edge12" class="edge"><title>Node2&#45;&gt;Node12</title>
<path fill="none" stroke="midnightblue" d="M162.447,-234C172.441,-234 183.175,-234 193.738,-234"/>
<polygon fill="midnightblue" stroke="midnightblue" points="162.337,-230.5 152.337,-234 162.337,-237.5 162.337,-230.5"/>
</g>
<!-- Node16 -->
<g id="node16" class="node"><title>Node16</title>
<g id="a_node16"><a xlink:href="a00011.html#aa470ecef221797da5ca84c2258474165" target="_top" xlink:title="discovery_set_parameter_attr">
<polygon fill="none" stroke="black" points="188,-158.5 188,-177.5 334,-177.5 334,-158.5 188,-158.5"/>
<text text-anchor="middle" x="261" y="-165.5" font-family="Helvetica,sans-Serif" font-size="10.00">discovery_set_parameter_attr</text>
</a>
</g>
</g>
<!-- Node2&#45;&gt;Node16 -->
<g id="edge16" class="edge"><title>Node2&#45;&gt;Node16</title>
<path fill="none" stroke="midnightblue" d="M145.808,-220.157C173.733,-207.402 214.445,-188.807 238.963,-177.609"/>
<polygon fill="midnightblue" stroke="midnightblue" points="144.154,-217.065 136.512,-224.403 147.062,-223.432 144.154,-217.065"/>
</g>
<!-- Node20 -->
<g id="node20" class="node"><title>Node20</title>
<g id="a_node20"><a xlink:href="a00072.html#a8e74f34c0eb423e170161eadec463df3" target="_top" xlink:title="value_set_header">
<polygon fill="none" stroke="black" points="214.5,-57.5 214.5,-76.5 307.5,-76.5 307.5,-57.5 214.5,-57.5"/>
<text text-anchor="middle" x="261" y="-64.5" font-family="Helvetica,sans-Serif" font-size="10.00">value_set_header</text>
</a>
</g>
</g>
<!-- Node2&#45;&gt;Node20 -->
<g id="edge20" class="edge"><title>Node2&#45;&gt;Node20</title>
<path fill="none" stroke="midnightblue" d="M130.551,-216.204C145.163,-198.963 168.005,-172.105 188,-149 210.811,-122.641 238.027,-91.8118 251.531,-76.5553"/>
<polygon fill="midnightblue" stroke="midnightblue" points="127.509,-214.38 123.718,-224.273 132.852,-218.903 127.509,-214.38"/>
</g>
<!-- Node4 -->
<g id="node4" class="node"><title>Node4</title>
<g id="a_node4"><a xlink:href="a00011.html#ad15d6de47820573ae430df83c83ca378" target="_top" xlink:title="discovery_set_adapter\l_attrs_v">
<polygon fill="none" stroke="black" points="375.5,-417 375.5,-447 490.5,-447 490.5,-417 375.5,-417"/>
<text text-anchor="start" x="383.5" y="-435" font-family="Helvetica,sans-Serif" font-size="10.00">discovery_set_adapter</text>
<text text-anchor="middle" x="433" y="-424" font-family="Helvetica,sans-Serif" font-size="10.00">_attrs_v</text>
</a>
</g>
</g>
<!-- Node3&#45;&gt;Node4 -->
<g id="edge3" class="edge"><title>Node3&#45;&gt;Node4</title>
<path fill="none" stroke="midnightblue" d="M308.686,-400.083C329.328,-405.426 353.783,-411.756 375.45,-417.363"/>
<polygon fill="midnightblue" stroke="midnightblue" points="309.445,-396.665 298.887,-397.547 307.691,-403.441 309.445,-396.665"/>
</g>
<!-- Node6 -->
<g id="node6" class="node"><title>Node6</title>
<g id="a_node6"><a xlink:href="a00060.html#a0d5ca643908e5c921d763ad9f5c9ba8e" target="_top" xlink:title="hpd_adapter_set_attr">
<polygon fill="none" stroke="black" points="693,-353.5 693,-372.5 801,-372.5 801,-353.5 693,-353.5"/>
<text text-anchor="middle" x="747" y="-360.5" font-family="Helvetica,sans-Serif" font-size="10.00">hpd_adapter_set_attr</text>
</a>
</g>
</g>
<!-- Node3&#45;&gt;Node6 -->
<g id="edge5" class="edge"><title>Node3&#45;&gt;Node6</title>
<path fill="none" stroke="midnightblue" d="M338.244,-384.062C437.023,-378.96 606.726,-370.194 692.718,-365.752"/>
<polygon fill="midnightblue" stroke="midnightblue" points="337.837,-380.578 328.031,-384.589 338.198,-387.569 337.837,-380.578"/>
</g>
<!-- Node5 -->
<g id="node5" class="node"><title>Node5</title>
<g id="a_node5"><a xlink:href="a00060.html#a0dc61e22d6abc5a621e53cd3aab2f9ca" target="_top" xlink:title="hpd_adapter_set_attrs">
<polygon fill="none" stroke="black" points="538,-422.5 538,-441.5 651,-441.5 651,-422.5 538,-422.5"/>
<text text-anchor="middle" x="594.5" y="-429.5" font-family="Helvetica,sans-Serif" font-size="10.00">hpd_adapter_set_attrs</text>
</a>
</g>
</g>
<!-- Node4&#45;&gt;Node5 -->
<g id="edge4" class="edge"><title>Node4&#45;&gt;Node5</title>
<path fill="none" stroke="midnightblue" d="M500.883,-432C513.174,-432 525.884,-432 537.804,-432"/>
<polygon fill="midnightblue" stroke="midnightblue" points="500.683,-428.5 490.683,-432 500.683,-435.5 500.683,-428.5"/>
</g>
<!-- Node7 -->
<g id="node7" class="node"><title>Node7</title>
<g id="a_node7"><a xlink:href="a00012.html#a723fb54ea3963ea674c9830e41a40e00" target="_top" xlink:title="hpd_demo_adapter_start">
<polygon fill="none" stroke="black" points="837,-290.5 837,-309.5 961,-309.5 961,-290.5 837,-290.5"/>
<text text-anchor="middle" x="899" y="-297.5" font-family="Helvetica,sans-Serif" font-size="10.00">hpd_demo_adapter_start</text>
</a>
</g>
</g>
<!-- Node6&#45;&gt;Node7 -->
<g id="edge6" class="edge"><title>Node6&#45;&gt;Node7</title>
<path fill="none" stroke="midnightblue" d="M780.309,-349.43C808.828,-337.452 849.696,-320.288 875.004,-309.658"/>
<polygon fill="midnightblue" stroke="midnightblue" points="778.646,-346.332 770.782,-353.432 781.357,-352.786 778.646,-346.332"/>
</g>
<!-- Node9 -->
<g id="node9" class="node"><title>Node9</title>
<g id="a_node9"><a xlink:href="a00011.html#ae15e002e2b5408db4a705d3c5cd98c3a" target="_top" xlink:title="discovery_set_device\l_attrs_v">
<polygon fill="none" stroke="black" points="377.5,-329 377.5,-359 488.5,-359 488.5,-329 377.5,-329"/>
<text text-anchor="start" x="385.5" y="-347" font-family="Helvetica,sans-Serif" font-size="10.00">discovery_set_device</text>
<text text-anchor="middle" x="433" y="-336" font-family="Helvetica,sans-Serif" font-size="10.00">_attrs_v</text>
</a>
</g>
</g>
<!-- Node8&#45;&gt;Node9 -->
<g id="edge8" class="edge"><title>Node8&#45;&gt;Node9</title>
<path fill="none" stroke="midnightblue" d="M308.662,-312.077C329.939,-317.584 355.269,-324.14 377.423,-329.874"/>
<polygon fill="midnightblue" stroke="midnightblue" points="309.445,-308.665 298.887,-309.547 307.691,-315.441 309.445,-308.665"/>
</g>
<!-- Node11 -->
<g id="node11" class="node"><title>Node11</title>
<g id="a_node11"><a xlink:href="a00060.html#aa52044afe11425f0febeba4f6094e48f" target="_top" xlink:title="hpd_device_set_attr">
<polygon fill="none" stroke="black" points="695,-290.5 695,-309.5 799,-309.5 799,-290.5 695,-290.5"/>
<text text-anchor="middle" x="747" y="-297.5" font-family="Helvetica,sans-Serif" font-size="10.00">hpd_device_set_attr</text>
</a>
</g>
</g>
<!-- Node8&#45;&gt;Node11 -->
<g id="edge10" class="edge"><title>Node8&#45;&gt;Node11</title>
<path fill="none" stroke="midnightblue" d="M336.788,-300C436.157,-300 609.118,-300 694.832,-300"/>
<polygon fill="midnightblue" stroke="midnightblue" points="336.522,-296.5 326.522,-300 336.522,-303.5 336.522,-296.5"/>
</g>
<!-- Node10 -->
<g id="node10" class="node"><title>Node10</title>
<g id="a_node10"><a xlink:href="a00060.html#a79a100958212cd7d8be053ceeb15885c" target="_top" xlink:title="hpd_device_set_attrs">
<polygon fill="none" stroke="black" points="539.5,-334.5 539.5,-353.5 649.5,-353.5 649.5,-334.5 539.5,-334.5"/>
<text text-anchor="middle" x="594.5" y="-341.5" font-family="Helvetica,sans-Serif" font-size="10.00">hpd_device_set_attrs</text>
</a>
</g>
</g>
<!-- Node9&#45;&gt;Node10 -->
<g id="edge9" class="edge"><title>Node9&#45;&gt;Node10</title>
<path fill="none" stroke="midnightblue" d="M498.995,-344C512.388,-344 526.357,-344 539.318,-344"/>
<polygon fill="midnightblue" stroke="midnightblue" points="498.891,-340.5 488.891,-344 498.891,-347.5 498.891,-340.5"/>
</g>
<!-- Node11&#45;&gt;Node7 -->
<g id="edge11" class="edge"><title>Node11&#45;&gt;Node7</title>
<path fill="none" stroke="midnightblue" d="M809.336,-300C818.443,-300 827.828,-300 836.929,-300"/>
<polygon fill="midnightblue" stroke="midnightblue" points="809.202,-296.5 799.202,-300 809.202,-303.5 809.202,-296.5"/>
</g>
<!-- Node13 -->
<g id="node13" class="node"><title>Node13</title>
<g id="a_node13"><a xlink:href="a00011.html#a39fdda2b73169dd093a0009131f256bd" target="_top" xlink:title="discovery_set_service\l_attrs_v">
<polygon fill="none" stroke="black" points="376,-241 376,-271 490,-271 490,-241 376,-241"/>
<text text-anchor="start" x="384" y="-259" font-family="Helvetica,sans-Serif" font-size="10.00">discovery_set_service</text>
<text text-anchor="middle" x="433" y="-248" font-family="Helvetica,sans-Serif" font-size="10.00">_attrs_v</text>
</a>
</g>
</g>
<!-- Node12&#45;&gt;Node13 -->
<g id="edge13" class="edge"><title>Node12&#45;&gt;Node13</title>
<path fill="none" stroke="midnightblue" d="M338.283,-243.872C350.936,-245.509 363.849,-247.18 375.885,-248.738"/>
<polygon fill="midnightblue" stroke="midnightblue" points="338.58,-240.381 328.213,-242.569 337.681,-247.323 338.58,-240.381"/>
</g>
<!-- Node15 -->
<g id="node15" class="node"><title>Node15</title>
<g id="a_node15"><a xlink:href="a00060.html#ad7f06997cb2f69f3decb671a16d2bdb6" target="_top" xlink:title="hpd_service_set_attr">
<polygon fill="none" stroke="black" points="379.5,-202.5 379.5,-221.5 486.5,-221.5 486.5,-202.5 379.5,-202.5"/>
<text text-anchor="middle" x="433" y="-209.5" font-family="Helvetica,sans-Serif" font-size="10.00">hpd_service_set_attr</text>
</a>
</g>
</g>
<!-- Node12&#45;&gt;Node15 -->
<g id="edge15" class="edge"><title>Node12&#45;&gt;Node15</title>
<path fill="none" stroke="midnightblue" d="M338.254,-224.132C352.149,-222.334 366.36,-220.495 379.379,-218.81"/>
<polygon fill="midnightblue" stroke="midnightblue" points="337.681,-220.677 328.213,-225.431 338.58,-227.619 337.681,-220.677"/>
</g>
<!-- Node14 -->
<g id="node14" class="node"><title>Node14</title>
<g id="a_node14"><a xlink:href="a00060.html#a436b38305c5c560b7c2d78285ac7e27c" target="_top" xlink:title="hpd_service_set_attrs">
<polygon fill="none" stroke="black" points="538,-246.5 538,-265.5 651,-265.5 651,-246.5 538,-246.5"/>
<text text-anchor="middle" x="594.5" y="-253.5" font-family="Helvetica,sans-Serif" font-size="10.00">hpd_service_set_attrs</text>
</a>
</g>
</g>
<!-- Node13&#45;&gt;Node14 -->
<g id="edge14" class="edge"><title>Node13&#45;&gt;Node14</title>
<path fill="none" stroke="midnightblue" d="M500.515,-256C512.91,-256 525.744,-256 537.774,-256"/>
<polygon fill="midnightblue" stroke="midnightblue" points="500.234,-252.5 490.234,-256 500.234,-259.5 500.234,-252.5"/>
</g>
<!-- Node17 -->
<g id="node17" class="node"><title>Node17</title>
<g id="a_node17"><a xlink:href="a00011.html#a87107b433afd7833f396b6a390751a08" target="_top" xlink:title="discovery_set_parameter\l_attrs_v">
<polygon fill="none" stroke="black" points="370,-153 370,-183 496,-183 496,-153 370,-153"/>
<text text-anchor="start" x="378" y="-171" font-family="Helvetica,sans-Serif" font-size="10.00">discovery_set_parameter</text>
<text text-anchor="middle" x="433" y="-160" font-family="Helvetica,sans-Serif" font-size="10.00">_attrs_v</text>
</a>
</g>
</g>
<!-- Node16&#45;&gt;Node17 -->
<g id="edge17" class="edge"><title>Node16&#45;&gt;Node17</title>
<path fill="none" stroke="midnightblue" d="M344.158,-168C352.763,-168 361.407,-168 369.737,-168"/>
<polygon fill="midnightblue" stroke="midnightblue" points="344.095,-164.5 334.095,-168 344.095,-171.5 344.095,-164.5"/>
</g>
<!-- Node19 -->
<g id="node19" class="node"><title>Node19</title>
<g id="a_node19"><a xlink:href="a00060.html#ac80954392c6e6b03259a057603784b9b" target="_top" xlink:title="hpd_parameter_set_attr">
<polygon fill="none" stroke="black" points="373.5,-114.5 373.5,-133.5 492.5,-133.5 492.5,-114.5 373.5,-114.5"/>
<text text-anchor="middle" x="433" y="-121.5" font-family="Helvetica,sans-Serif" font-size="10.00">hpd_parameter_set_attr</text>
</a>
</g>
</g>
<!-- Node16&#45;&gt;Node19 -->
<g id="edge19" class="edge"><title>Node16&#45;&gt;Node19</title>
<path fill="none" stroke="midnightblue" d="M308.602,-155.938C335.867,-148.882 369.805,-140.098 395.185,-133.529"/>
<polygon fill="midnightblue" stroke="midnightblue" points="307.691,-152.559 298.887,-158.453 309.445,-159.335 307.691,-152.559"/>
</g>
<!-- Node18 -->
<g id="node18" class="node"><title>Node18</title>
<g id="a_node18"><a xlink:href="a00060.html#a386bb8668e01dfbc4a11b3c3d65eb92a" target="_top" xlink:title="hpd_parameter_set_attrs">
<polygon fill="none" stroke="black" points="532,-158.5 532,-177.5 657,-177.5 657,-158.5 532,-158.5"/>
<text text-anchor="middle" x="594.5" y="-165.5" font-family="Helvetica,sans-Serif" font-size="10.00">hpd_parameter_set_attrs</text>
</a>
</g>
</g>
<!-- Node17&#45;&gt;Node18 -->
<g id="edge18" class="edge"><title>Node17&#45;&gt;Node18</title>
<path fill="none" stroke="midnightblue" d="M506.396,-168C514.884,-168 523.485,-168 531.808,-168"/>
<polygon fill="midnightblue" stroke="midnightblue" points="506.124,-164.5 496.124,-168 506.124,-171.5 506.124,-164.5"/>
</g>
<!-- Node21 -->
<g id="node21" class="node"><title>Node21</title>
<g id="a_node21"><a xlink:href="a00072.html#acb46c0254b5e6856197be334a0a058ad" target="_top" xlink:title="value_copy">
<polygon fill="none" stroke="black" points="400,-76.5 400,-95.5 466,-95.5 466,-76.5 400,-76.5"/>
<text text-anchor="middle" x="433" y="-83.5" font-family="Helvetica,sans-Serif" font-size="10.00">value_copy</text>
</a>
</g>
</g>
<!-- Node20&#45;&gt;Node21 -->
<g id="edge21" class="edge"><title>Node20&#45;&gt;Node21</title>
<path fill="none" stroke="midnightblue" d="M317.728,-73.2285C344.921,-76.2676 376.666,-79.8157 399.787,-82.3997"/>
<polygon fill="midnightblue" stroke="midnightblue" points="317.884,-69.7241 307.557,-72.0917 317.106,-76.6808 317.884,-69.7241"/>
</g>
<!-- Node24 -->
<g id="node24" class="node"><title>Node24</title>
<g id="a_node24"><a xlink:href="a00072.html#a0d75ed4c4f2374d031c908cf626dcf4a" target="_top" xlink:title="value_set_headers_v">
<polygon fill="none" stroke="black" points="378.5,-38.5 378.5,-57.5 487.5,-57.5 487.5,-38.5 378.5,-38.5"/>
<text text-anchor="middle" x="433" y="-45.5" font-family="Helvetica,sans-Serif" font-size="10.00">value_set_headers_v</text>
</a>
</g>
</g>
<!-- Node20&#45;&gt;Node24 -->
<g id="edge25" class="edge"><title>Node20&#45;&gt;Node24</title>
<path fill="none" stroke="midnightblue" d="M317.549,-60.7916C337.12,-58.6042 359.068,-56.1512 378.47,-53.9828"/>
<polygon fill="midnightblue" stroke="midnightblue" points="317.106,-57.3192 307.557,-61.9083 317.884,-64.2759 317.106,-57.3192"/>
</g>
<!-- Node26 -->
<g id="node26" class="node"><title>Node26</title>
<g id="a_node26"><a xlink:href="a00073.html#a75b6ef13b716e7b51a4a24b0df588e33" target="_top" xlink:title="hpd_value_set_header">
<polygon fill="none" stroke="black" points="376,-0.5 376,-19.5 490,-19.5 490,-0.5 376,-0.5"/>
<text text-anchor="middle" x="433" y="-7.5" font-family="Helvetica,sans-Serif" font-size="10.00">hpd_value_set_header</text>
</a>
</g>
</g>
<!-- Node20&#45;&gt;Node26 -->
<g id="edge27" class="edge"><title>Node20&#45;&gt;Node26</title>
<path fill="none" stroke="midnightblue" d="M297.566,-54.074C318.567,-46.5446 345.713,-36.9903 370,-29 379.732,-25.7983 390.379,-22.472 400.061,-19.5143"/>
<polygon fill="midnightblue" stroke="midnightblue" points="296.31,-50.8059 288.086,-57.4847 298.68,-57.3925 296.31,-50.8059"/>
</g>
<!-- Node22 -->
<g id="node22" class="node"><title>Node22</title>
<g id="a_node22"><a xlink:href="a00073.html#a8b5be61f356ac1d72634654e16794610" target="_top" xlink:title="hpd_value_copy">
<polygon fill="none" stroke="black" points="551,-98.5 551,-117.5 638,-117.5 638,-98.5 551,-98.5"/>
<text text-anchor="middle" x="594.5" y="-105.5" font-family="Helvetica,sans-Serif" font-size="10.00">hpd_value_copy</text>
</a>
</g>
</g>
<!-- Node21&#45;&gt;Node22 -->
<g id="edge22" class="edge"><title>Node21&#45;&gt;Node22</title>
<path fill="none" stroke="midnightblue" d="M476.452,-91.8554C499.502,-95.0348 527.918,-98.9543 550.98,-102.135"/>
<polygon fill="midnightblue" stroke="midnightblue" points="476.662,-88.3513 466.277,-90.452 475.705,-95.2857 476.662,-88.3513"/>
</g>
<!-- Node23 -->
<g id="node23" class="node"><title>Node23</title>
<g id="a_node23"><a xlink:href="a00012.html#abd3f7d3d11402e13ef30d122ce9c8516" target="_top" xlink:title="hpd_demo_on_put">
<polygon fill="none" stroke="black" points="699,-175.5 699,-194.5 795,-194.5 795,-175.5 699,-175.5"/>
<text text-anchor="middle" x="747" y="-182.5" font-family="Helvetica,sans-Serif" font-size="10.00">hpd_demo_on_put</text>
</a>
</g>
</g>
<!-- Node22&#45;&gt;Node23 -->
<g id="edge23" class="edge"><title>Node22&#45;&gt;Node23</title>
<path fill="none" stroke="midnightblue" d="M623.404,-122.276C653.577,-137.714 700.856,-161.903 727.007,-175.283"/>
<polygon fill="midnightblue" stroke="midnightblue" points="624.753,-119.035 614.257,-117.596 621.565,-125.267 624.753,-119.035"/>
</g>
<!-- Node23&#45;&gt;Node7 -->
<g id="edge24" class="edge"><title>Node23&#45;&gt;Node7</title>
<path fill="none" stroke="midnightblue" d="M768.626,-200.813C800.101,-224.944 859.201,-270.254 885.187,-290.177"/>
<polygon fill="midnightblue" stroke="midnightblue" points="770.597,-197.914 760.531,-194.607 766.337,-203.469 770.597,-197.914"/>
</g>
<!-- Node25 -->
<g id="node25" class="node"><title>Node25</title>
<g id="a_node25"><a xlink:href="a00073.html#a2611edcf1f90741780c5160a1e2d622e" target="_top" xlink:title="hpd_value_set_headers">
<polygon fill="none" stroke="black" points="535,-38.5 535,-57.5 654,-57.5 654,-38.5 535,-38.5"/>
<text text-anchor="middle" x="594.5" y="-45.5" font-family="Helvetica,sans-Serif" font-size="10.00">hpd_value_set_headers</text>
</a>
</g>
</g>
<!-- Node24&#45;&gt;Node25 -->
<g id="edge26" class="edge"><title>Node24&#45;&gt;Node25</title>
<path fill="none" stroke="midnightblue" d="M497.711,-48C509.981,-48 522.78,-48 534.88,-48"/>
<polygon fill="midnightblue" stroke="midnightblue" points="497.555,-44.5001 487.555,-48 497.555,-51.5001 497.555,-44.5001"/>
</g>
</g>
</svg>
