<?xml version="1.0" encoding="UTF-8" standalone="no"?>
<!DOCTYPE svg PUBLIC "-//W3C//DTD SVG 1.1//EN"
 "http://www.w3.org/Graphics/SVG/1.1/DTD/svg11.dtd">
<!-- Generated by graphviz version 2.38.0 (20140413.2041)
 -->
<!-- Title: discovery_set_adapter_data Pages: 1 -->
<!--zoomable 345 -->
<svg id="main" version="1.1" xmlns="http://www.w3.org/2000/svg" xmlns:xlink="http://www.w3.org/1999/xlink" xml:space="preserve" onload="init(evt)">
<style type="text/css"><![CDATA[
.edge:hover path { stroke: red; }
.edge:hover polygon { stroke: red; fill: red; }
]]></style>
<script type="text/javascript"><![CDATA[
var edges = document.getElementsByTagName('g');
if (edges && edges.length) {
  for (var i=0;i<edges.length;i++) {
    if (edges[i].id.substr(0,4)=='edge') {
      edges[i].setAttribute('class','edge');
    }
  }
}
]]></script>
        <defs>
                <circle id="rim" cx="0" cy="0" r="7"/>
                <circle id="rim2" cx="0" cy="0" r="3.5"/>
                <g id="zoomPlus">
                        <use xlink:href="#rim" fill="#404040">
                                <set attributeName="fill" to="#808080" begin="zoomplus.mouseover" end="zoomplus.mouseout"/>
                        </use>
                        <path d="M-4,0h8M0,-4v8" fill="none" stroke="white" stroke-width="1.5" pointer-events="none"/>
                </g>
                <g id="zoomMin">
                        <use xlink:href="#rim" fill="#404040">
                                <set attributeName="fill" to="#808080" begin="zoomminus.mouseover" end="zoomminus.mouseout"/>
                        </use>
                        <path d="M-4,0h8" fill="none" stroke="white" stroke-width="1.5" pointer-events="none"/>
                </g>
                <g id="dirArrow">
                        <path fill="none" stroke="white" stroke-width="1.5" d="M0,-3.0v7 M-2.5,-0.5L0,-3.0L2.5,-0.5"/>
                </g>
               <g id="resetDef">
                       <use xlink:href="#rim2" fill="#404040">
                               <set attributeName="fill" to="#808080" begin="reset.mouseover" end="reset.mouseout"/>
                       </use>
               </g>
        </defs>

<script type="text/javascript">
var viewWidth = 1185;
var viewHeight = 345;
var sectionId = 'dynsection-97';
</script>
<script xlink:href="svgpan.js"/>
<svg id="graph" class="graph">
<g id="viewport">
<title>discovery_set_adapter_data</title>
<!-- Node1 -->
<g id="node1" class="node"><title>Node1</title>
<polygon fill="#bfbfbf" stroke="black" points="0,-54.4029 0,-73.4029 139,-73.4029 139,-54.4029 0,-54.4029"/>
<text text-anchor="middle" x="69.5" y="-61.4029" font-family="Helvetica,sans-Serif" font-size="10.00">discovery_set_adapter_data</text>
</g>
<!-- Node2 -->
<g id="node2" class="node"><title>Node2</title>
<g id="a_node2"><a xlink:href="a00025.html#a65f3fe01ba50f1473cad1a4418cfdf09" target="_top" xlink:title="on_free">
<polygon fill="none" stroke="black" points="175,-54.4029 175,-73.4029 224,-73.4029 224,-54.4029 175,-54.4029"/>
<text text-anchor="middle" x="199.5" y="-61.4029" font-family="Helvetica,sans-Serif" font-size="10.00">on_free</text>
</a>
</g>
</g>
<!-- Node1&#45;&gt;Node2 -->
<g id="edge1" class="edge"><title>Node1&#45;&gt;Node2</title>
<path fill="none" stroke="midnightblue" d="M139.371,-63.9029C148.158,-63.9029 156.822,-63.9029 164.695,-63.9029"/>
<polygon fill="midnightblue" stroke="midnightblue" points="164.878,-67.403 174.878,-63.9029 164.878,-60.403 164.878,-67.403"/>
</g>
<!-- Node3 -->
<g id="node3" class="node"><title>Node3</title>
<g id="a_node3"><a xlink:href="a00025.html#a78818d54ff3643716564aad97c70c7e2" target="_top" xlink:title="reply_internal_server\l_error">
<polygon fill="none" stroke="black" points="260,-92.9029 260,-122.903 367,-122.903 367,-92.9029 260,-92.9029"/>
<text text-anchor="start" x="268" y="-110.903" font-family="Helvetica,sans-Serif" font-size="10.00">reply_internal_server</text>
<text text-anchor="middle" x="313.5" y="-99.9029" font-family="Helvetica,sans-Serif" font-size="10.00">_error</text>
</a>
</g>
</g>
<!-- Node2&#45;&gt;Node3 -->
<g id="edge2" class="edge"><title>Node2&#45;&gt;Node3</title>
<path fill="none" stroke="midnightblue" d="M224.252,-73.2341C236.043,-77.8663 250.728,-83.6351 264.713,-89.1295"/>
<polygon fill="midnightblue" stroke="midnightblue" points="263.653,-92.4732 274.24,-92.8721 266.212,-85.9579 263.653,-92.4732"/>
</g>
<!-- Node11 -->
<g id="node11" class="node"><title>Node11</title>
<g id="a_node11"><a xlink:href="a00006.html#adf46370d9c211c3be22966b4606ba9b0" target="_top" xlink:title="free">
<polygon fill="none" stroke="black" points="1144,-95.4029 1144,-114.403 1177,-114.403 1177,-95.4029 1144,-95.4029"/>
<text text-anchor="middle" x="1160.5" y="-102.403" font-family="Helvetica,sans-Serif" font-size="10.00">free</text>
</a>
</g>
</g>
<!-- Node2&#45;&gt;Node11 -->
<g id="edge20" class="edge"><title>Node2&#45;&gt;Node11</title>
<path fill="none" stroke="midnightblue" d="M224.266,-63.9029C269.156,-63.9029 369.5,-63.9029 454,-63.9029 454,-63.9029 454,-63.9029 917.5,-63.9029 997.414,-63.9029 1090.11,-85.9057 1133.98,-97.6743"/>
<polygon fill="midnightblue" stroke="midnightblue" points="1133.23,-101.098 1143.8,-100.359 1135.08,-94.3456 1133.23,-101.098"/>
</g>
<!-- Node15 -->
<g id="node15" class="node"><title>Node15</title>
<g id="a_node15"><a xlink:href="a00056.html#a19ce779c8a8a82fcb624cd7631eaee20" target="_top" xlink:title="hpd_service_id_free">
<polygon fill="none" stroke="black" points="403,-16.4029 403,-35.4029 507,-35.4029 507,-16.4029 403,-16.4029"/>
<text text-anchor="middle" x="455" y="-23.4029" font-family="Helvetica,sans-Serif" font-size="10.00">hpd_service_id_free</text>
</a>
</g>
</g>
<!-- Node2&#45;&gt;Node15 -->
<g id="edge17" class="edge"><title>Node2&#45;&gt;Node15</title>
<path fill="none" stroke="midnightblue" d="M224.119,-57.7262C234.99,-55.0434 248.092,-52.034 260,-49.9029 304.159,-42 354.44,-35.8595 392.746,-31.7685"/>
<polygon fill="midnightblue" stroke="midnightblue" points="393.136,-35.2469 402.716,-30.7211 392.405,-28.2852 393.136,-35.2469"/>
</g>
<!-- Node4 -->
<g id="node4" class="node"><title>Node4</title>
<g id="a_node4"><a xlink:href="a00025.html#afb08e2b5fbac2394319e24be39ac931a" target="_top" xlink:title="reply">
<polygon fill="none" stroke="black" points="436,-98.4029 436,-117.403 474,-117.403 474,-98.4029 436,-98.4029"/>
<text text-anchor="middle" x="455" y="-105.403" font-family="Helvetica,sans-Serif" font-size="10.00">reply</text>
</a>
</g>
</g>
<!-- Node3&#45;&gt;Node4 -->
<g id="edge3" class="edge"><title>Node3&#45;&gt;Node4</title>
<path fill="none" stroke="midnightblue" d="M367.239,-107.903C387.113,-107.903 408.949,-107.903 425.743,-107.903"/>
<polygon fill="midnightblue" stroke="midnightblue" points="425.979,-111.403 435.979,-107.903 425.979,-104.403 425.979,-111.403"/>
</g>
<!-- Node5 -->
<g id="node5" class="node"><title>Node5</title>
<g id="a_node5"><a xlink:href="a00018.html#a3b100e8d7e1214067cf1b90ad577745c" target="_top" xlink:title="Create the reponse and constructs the status line. ">
<polygon fill="none" stroke="black" points="543,-196.903 543,-226.903 647,-226.903 647,-196.903 543,-196.903"/>
<text text-anchor="start" x="551" y="-214.903" font-family="Helvetica,sans-Serif" font-size="10.00">hpd_httpd_response</text>
<text text-anchor="middle" x="595" y="-203.903" font-family="Helvetica,sans-Serif" font-size="10.00">_create</text>
</a>
</g>
</g>
<!-- Node4&#45;&gt;Node5 -->
<g id="edge4" class="edge"><title>Node4&#45;&gt;Node5</title>
<path fill="none" stroke="midnightblue" d="M468.735,-117.501C490.598,-133.977 535.78,-168.027 565.48,-190.41"/>
<polygon fill="midnightblue" stroke="midnightblue" points="563.693,-193.446 573.786,-196.669 567.906,-187.855 563.693,-193.446"/>
</g>
<!-- Node14 -->
<g id="node14" class="node"><title>Node14</title>
<g id="a_node14"><a xlink:href="a00018.html#a36a5feca39485163b3ef446c9e3171a3" target="_top" xlink:title="Destroy a hpd_httpd_response. ">
<polygon fill="none" stroke="black" points="702,-92.9029 702,-122.903 806,-122.903 806,-92.9029 702,-92.9029"/>
<text text-anchor="start" x="710" y="-110.903" font-family="Helvetica,sans-Serif" font-size="10.00">hpd_httpd_response</text>
<text text-anchor="middle" x="754" y="-99.9029" font-family="Helvetica,sans-Serif" font-size="10.00">_destroy</text>
</a>
</g>
</g>
<!-- Node4&#45;&gt;Node14 -->
<g id="edge14" class="edge"><title>Node4&#45;&gt;Node14</title>
<path fill="none" stroke="midnightblue" d="M474.132,-107.903C516.419,-107.903 623.173,-107.903 691.654,-107.903"/>
<polygon fill="midnightblue" stroke="midnightblue" points="691.885,-111.403 701.884,-107.903 691.884,-104.403 691.885,-111.403"/>
</g>
<!-- Node6 -->
<g id="node6" class="node"><title>Node6</title>
<g id="a_node6"><a xlink:href="a00016.html#a228cee03d1174febd4a716e0285542c2" target="_top" xlink:title="http_request_get_context">
<polygon fill="none" stroke="black" points="690.5,-180.403 690.5,-199.403 817.5,-199.403 817.5,-180.403 690.5,-180.403"/>
<text text-anchor="middle" x="754" y="-187.403" font-family="Helvetica,sans-Serif" font-size="10.00">http_request_get_context</text>
</a>
</g>
</g>
<!-- Node5&#45;&gt;Node6 -->
<g id="edge5" class="edge"><title>Node5&#45;&gt;Node6</title>
<path fill="none" stroke="midnightblue" d="M647.408,-204.699C657.883,-203.231 669.093,-201.661 680.152,-200.111"/>
<polygon fill="midnightblue" stroke="midnightblue" points="680.823,-203.551 690.241,-198.697 679.852,-196.619 680.823,-203.551"/>
</g>
<!-- Node7 -->
<g id="node7" class="node"><title>Node7</title>
<g id="a_node7"><a xlink:href="a00017.html#a867d6248acd2a1ad498594ec818cb718" target="_top" xlink:title="Convert a status code to string. ">
<polygon fill="none" stroke="black" points="690.5,-142.403 690.5,-161.403 817.5,-161.403 817.5,-142.403 690.5,-142.403"/>
<text text-anchor="middle" x="754" y="-149.403" font-family="Helvetica,sans-Serif" font-size="10.00">http_status_codes_to_str</text>
</a>
</g>
</g>
<!-- Node5&#45;&gt;Node7 -->
<g id="edge6" class="edge"><title>Node5&#45;&gt;Node7</title>
<path fill="none" stroke="midnightblue" d="M624.851,-196.743C641.533,-188.376 663.1,-178.228 683,-170.903 689.431,-168.535 696.291,-166.316 703.108,-164.288"/>
<polygon fill="midnightblue" stroke="midnightblue" points="704.354,-167.573 713.008,-161.46 702.431,-160.842 704.354,-167.573"/>
</g>
<!-- Node8 -->
<g id="node8" class="node"><title>Node8</title>
<g id="a_node8"><a xlink:href="a00017.html#a36a5feca39485163b3ef446c9e3171a3" target="_top" xlink:title="Destroy a hpd_httpd_response. ">
<polygon fill="none" stroke="black" points="702,-306.903 702,-336.903 806,-336.903 806,-306.903 702,-306.903"/>
<text text-anchor="start" x="710" y="-324.903" font-family="Helvetica,sans-Serif" font-size="10.00">hpd_httpd_response</text>
<text text-anchor="middle" x="754" y="-313.903" font-family="Helvetica,sans-Serif" font-size="10.00">_destroy</text>
</a>
</g>
</g>
<!-- Node5&#45;&gt;Node8 -->
<g id="edge7" class="edge"><title>Node5&#45;&gt;Node8</title>
<path fill="none" stroke="midnightblue" d="M608.004,-227.136C623.512,-245.904 652.197,-277.659 683,-296.903 686.198,-298.901 689.578,-300.768 693.056,-302.509"/>
<polygon fill="midnightblue" stroke="midnightblue" points="691.89,-305.825 702.437,-306.824 694.815,-299.465 691.89,-305.825"/>
</g>
<!-- Node12 -->
<g id="node12" class="node"><title>Node12</title>
<g id="a_node12"><a xlink:href="a00016.html#a1568fdba259271965551fb5aa1f07006" target="_top" xlink:title="Get the connection of a request. ">
<polygon fill="none" stroke="black" points="683,-268.403 683,-287.403 825,-287.403 825,-268.403 683,-268.403"/>
<text text-anchor="middle" x="754" y="-275.403" font-family="Helvetica,sans-Serif" font-size="10.00">http_request_get_connection</text>
</a>
</g>
</g>
<!-- Node5&#45;&gt;Node12 -->
<g id="edge12" class="edge"><title>Node5&#45;&gt;Node12</title>
<path fill="none" stroke="midnightblue" d="M620.391,-227.051C637.438,-237.141 661.001,-250.112 683,-258.903 688.909,-261.264 695.212,-263.434 701.524,-265.395"/>
<polygon fill="midnightblue" stroke="midnightblue" points="700.814,-268.834 711.395,-268.303 702.792,-262.119 700.814,-268.834"/>
</g>
<!-- Node13 -->
<g id="node13" class="node"><title>Node13</title>
<g id="a_node13"><a xlink:href="a00017.html#a3aabea0eb8be381d54ece47fa1fd6a75" target="_top" xlink:title="Add header to a response. ">
<polygon fill="none" stroke="black" points="702,-218.903 702,-248.903 806,-248.903 806,-218.903 702,-218.903"/>
<text text-anchor="start" x="710" y="-236.903" font-family="Helvetica,sans-Serif" font-size="10.00">hpd_httpd_response</text>
<text text-anchor="middle" x="754" y="-225.903" font-family="Helvetica,sans-Serif" font-size="10.00">_add_header</text>
</a>
</g>
</g>
<!-- Node5&#45;&gt;Node13 -->
<g id="edge13" class="edge"><title>Node5&#45;&gt;Node13</title>
<path fill="none" stroke="midnightblue" d="M647.408,-219.106C661.577,-221.092 677.088,-223.265 691.754,-225.321"/>
<polygon fill="midnightblue" stroke="midnightblue" points="691.356,-228.799 701.745,-226.721 692.328,-221.867 691.356,-228.799"/>
</g>
<!-- Node9 -->
<g id="node9" class="node"><title>Node9</title>
<g id="a_node9"><a xlink:href="a00029.html#a494a1841a6c8963c10f5d3a6b662f014" target="_top" xlink:title="Close a connection, after the remaining data has been sent. ">
<polygon fill="none" stroke="black" points="861,-133.403 861,-152.403 972,-152.403 972,-133.403 861,-133.403"/>
<text text-anchor="middle" x="916.5" y="-140.403" font-family="Helvetica,sans-Serif" font-size="10.00">hpd_tcpd_conn_close</text>
</a>
</g>
</g>
<!-- Node8&#45;&gt;Node9 -->
<g id="edge8" class="edge"><title>Node8&#45;&gt;Node9</title>
<path fill="none" stroke="midnightblue" d="M806.222,-308.404C812.951,-305.298 819.432,-301.51 825,-296.903 826.497,-295.664 881.146,-201.928 904.784,-161.322"/>
<polygon fill="midnightblue" stroke="midnightblue" points="907.947,-162.846 909.952,-152.443 901.897,-159.325 907.947,-162.846"/>
</g>
<!-- Node8&#45;&gt;Node11 -->
<g id="edge11" class="edge"><title>Node8&#45;&gt;Node11</title>
<path fill="none" stroke="midnightblue" d="M805.086,-306.819C876.951,-283.569 1011.3,-233.986 1108,-161.903 1122.97,-150.743 1136.97,-134.739 1146.58,-122.529"/>
<polygon fill="midnightblue" stroke="midnightblue" points="1149.48,-124.506 1152.76,-114.432 1143.91,-120.261 1149.48,-124.506"/>
</g>
<!-- Node10 -->
<g id="node10" class="node"><title>Node10</title>
<g id="a_node10"><a xlink:href="a00045.html#a58068e1a4c60b401bc6fc99c25e9a3f6" target="_top" xlink:title="Kill and clean up after a connection. ">
<polygon fill="none" stroke="black" points="1008,-133.403 1008,-152.403 1108,-152.403 1108,-133.403 1008,-133.403"/>
<text text-anchor="middle" x="1058" y="-140.403" font-family="Helvetica,sans-Serif" font-size="10.00">hpd_tcpd_conn_kill</text>
</a>
</g>
</g>
<!-- Node9&#45;&gt;Node10 -->
<g id="edge9" class="edge"><title>Node9&#45;&gt;Node10</title>
<path fill="none" stroke="midnightblue" d="M972.234,-142.903C980.591,-142.903 989.25,-142.903 997.7,-142.903"/>
<polygon fill="midnightblue" stroke="midnightblue" points="997.868,-146.403 1007.87,-142.903 997.868,-139.403 997.868,-146.403"/>
</g>
<!-- Node10&#45;&gt;Node11 -->
<g id="edge10" class="edge"><title>Node10&#45;&gt;Node11</title>
<path fill="none" stroke="midnightblue" d="M1084.36,-133.314C1099.57,-127.562 1118.86,-120.27 1134.08,-114.514"/>
<polygon fill="midnightblue" stroke="midnightblue" points="1135.76,-117.622 1143.87,-110.812 1133.28,-111.075 1135.76,-117.622"/>
</g>
<!-- Node14&#45;&gt;Node9 -->
<g id="edge15" class="edge"><title>Node14&#45;&gt;Node9</title>
<path fill="none" stroke="midnightblue" d="M806.224,-119.073C823.946,-122.938 843.849,-127.278 861.766,-131.185"/>
<polygon fill="midnightblue" stroke="midnightblue" points="861.254,-134.656 871.77,-133.367 862.746,-127.816 861.254,-134.656"/>
</g>
<!-- Node14&#45;&gt;Node11 -->
<g id="edge16" class="edge"><title>Node14&#45;&gt;Node11</title>
<path fill="none" stroke="midnightblue" d="M806.23,-107.523C893.448,-106.876 1067.72,-105.584 1133.53,-105.095"/>
<polygon fill="midnightblue" stroke="midnightblue" points="1133.85,-108.593 1143.83,-105.019 1133.8,-101.593 1133.85,-108.593"/>
</g>
<!-- Node16 -->
<g id="node16" class="node"><title>Node16</title>
<g id="a_node16"><a xlink:href="a00011.html#a8922de7d42124afa8ab5fd339fe695ee" target="_top" xlink:title="discovery_free_sid">
<polygon fill="none" stroke="black" points="546,-16.4029 546,-35.4029 644,-35.4029 644,-16.4029 546,-16.4029"/>
<text text-anchor="middle" x="595" y="-23.4029" font-family="Helvetica,sans-Serif" font-size="10.00">discovery_free_sid</text>
</a>
</g>
</g>
<!-- Node15&#45;&gt;Node16 -->
<g id="edge18" class="edge"><title>Node15&#45;&gt;Node16</title>
<path fill="none" stroke="midnightblue" d="M507.386,-25.9029C516.615,-25.9029 526.295,-25.9029 535.703,-25.9029"/>
<polygon fill="midnightblue" stroke="midnightblue" points="535.771,-29.403 545.771,-25.9029 535.771,-22.403 535.771,-29.403"/>
</g>
<!-- Node16&#45;&gt;Node11 -->
<g id="edge19" class="edge"><title>Node16&#45;&gt;Node11</title>
<path fill="none" stroke="midnightblue" d="M644.332,-16.65C738.6,-1.00779 951.467,22.3691 1108,-49.9029 1124.82,-57.6687 1138.79,-73.6751 1147.92,-86.4276"/>
<polygon fill="midnightblue" stroke="midnightblue" points="1145.19,-88.6383 1153.68,-94.9739 1150.99,-84.7255 1145.19,-88.6383"/>
</g>
</g>
</svg>
        <g id="navigator" transform="translate(0 0)" fill="#404254">
                <rect fill="#f2f5e9" fill-opacity="0.5" stroke="#606060" stroke-width=".5" x="0" y="0" width="60" height="60"/>
                <use id="zoomplus" xlink:href="#zoomPlus" x="17" y="9" onmousedown="handleZoom(evt,'in')"/>
                <use id="zoomminus" xlink:href="#zoomMin" x="42" y="9" onmousedown="handleZoom(evt,'out')"/>
                <use id="reset" xlink:href="#resetDef" x="30" y="36" onmousedown="handleReset()"/>
                <g id="arrowUp" xlink:href="#dirArrow" transform="translate(30 24)" onmousedown="handlePan(0,-1)">
                  <use xlink:href="#rim" fill="#404040">
                        <set attributeName="fill" to="#808080" begin="arrowUp.mouseover" end="arrowUp.mouseout"/>
                  </use>
                  <path fill="none" stroke="white" stroke-width="1.5" d="M0,-3.0v7 M-2.5,-0.5L0,-3.0L2.5,-0.5"/>
                </g>
                <g id="arrowRight" xlink:href="#dirArrow" transform="rotate(90) translate(36 -43)" onmousedown="handlePan(1,0)">
                  <use xlink:href="#rim" fill="#404040">
                        <set attributeName="fill" to="#808080" begin="arrowRight.mouseover" end="arrowRight.mouseout"/>
                  </use>
                  <path fill="none" stroke="white" stroke-width="1.5" d="M0,-3.0v7 M-2.5,-0.5L0,-3.0L2.5,-0.5"/>
                </g>
                <g id="arrowDown" xlink:href="#dirArrow" transform="rotate(180) translate(-30 -48)" onmousedown="handlePan(0,1)">
                  <use xlink:href="#rim" fill="#404040">
                        <set attributeName="fill" to="#808080" begin="arrowDown.mouseover" end="arrowDown.mouseout"/>
                  </use>
                  <path fill="none" stroke="white" stroke-width="1.5" d="M0,-3.0v7 M-2.5,-0.5L0,-3.0L2.5,-0.5"/>
                </g>
                <g id="arrowLeft" xlink:href="#dirArrow" transform="rotate(270) translate(-36 17)" onmousedown="handlePan(-1,0)">
                  <use xlink:href="#rim" fill="#404040">
                        <set attributeName="fill" to="#808080" begin="arrowLeft.mouseover" end="arrowLeft.mouseout"/>
                  </use>
                  <path fill="none" stroke="white" stroke-width="1.5" d="M0,-3.0v7 M-2.5,-0.5L0,-3.0L2.5,-0.5"/>
                </g>
        </g>
        <svg viewBox="0 0 15 15" width="100%" height="30px" preserveAspectRatio="xMaxYMin meet">
         <g id="arrow_out" transform="scale(0.3 0.3)">
          <a xlink:href="a00059_a7d6f0b9bdced07007cfc6513f3a35d22_cgraph_org.svg" target="_base">
           <rect id="button" ry="5" rx="5" y="6" x="6" height="38" width="38"
                fill="#f2f5e9" fill-opacity="0.5" stroke="#606060" stroke-width="1.0"/>
           <path id="arrow"
             d="M 11.500037,31.436501 C 11.940474,20.09759 22.043105,11.32322 32.158766,21.979434 L 37.068811,17.246167 C 37.068811,17.246167 37.088388,32 37.088388,32 L 22.160133,31.978069 C 22.160133,31.978069 26.997745,27.140456 26.997745,27.140456 C 18.528582,18.264221 13.291696,25.230495 11.500037,31.436501 z"
             style="fill:#404040;"/>
          </a>
         </g>
        </svg>
</svg>
