<?xml version="1.0" encoding="UTF-8" standalone="no"?>
<!DOCTYPE svg PUBLIC "-//W3C//DTD SVG 1.1//EN"
 "http://www.w3.org/Graphics/SVG/1.1/DTD/svg11.dtd">
<!-- Generated by graphviz version 2.38.0 (20140413.2041)
 -->
<!-- Title: request_respond Pages: 1 -->
<!--zoomable 104 -->
<svg id="main" version="1.1" xmlns="http://www.w3.org/2000/svg" xmlns:xlink="http://www.w3.org/1999/xlink" xml:space="preserve" onload="init(evt)">
<style type="text/css"><![CDATA[
.edge:hover path { stroke: red; }
.edge:hover polygon { stroke: red; fill: red; }
]]></style>
<script type="text/javascript"><![CDATA[
var edges = document.getElementsByTagName('g');
if (edges && edges.length) {
  for (var i=0;i<edges.length;i++) {
    if (edges[i].id.substr(0,4)=='edge') {
      edges[i].setAttribute('class','edge');
    }
  }
}
]]></script>
        <defs>
                <circle id="rim" cx="0" cy="0" r="7"/>
                <circle id="rim2" cx="0" cy="0" r="3.5"/>
                <g id="zoomPlus">
                        <use xlink:href="#rim" fill="#404040">
                                <set attributeName="fill" to="#808080" begin="zoomplus.mouseover" end="zoomplus.mouseout"/>
                        </use>
                        <path d="M-4,0h8M0,-4v8" fill="none" stroke="white" stroke-width="1.5" pointer-events="none"/>
                </g>
                <g id="zoomMin">
                        <use xlink:href="#rim" fill="#404040">
                                <set attributeName="fill" to="#808080" begin="zoomminus.mouseover" end="zoomminus.mouseout"/>
                        </use>
                        <path d="M-4,0h8" fill="none" stroke="white" stroke-width="1.5" pointer-events="none"/>
                </g>
                <g id="dirArrow">
                        <path fill="none" stroke="white" stroke-width="1.5" d="M0,-3.0v7 M-2.5,-0.5L0,-3.0L2.5,-0.5"/>
                </g>
               <g id="resetDef">
                       <use xlink:href="#rim2" fill="#404040">
                               <set attributeName="fill" to="#808080" begin="reset.mouseover" end="reset.mouseout"/>
                       </use>
               </g>
        </defs>

<script type="text/javascript">
var viewWidth = 1027;
var viewHeight = 104;
var sectionId = 'dynsection-25';
</script>
<script xlink:href="svgpan.js"/>
<svg id="graph" class="graph">
<g id="viewport">
<title>request_respond</title>
<!-- Node1 -->
<g id="node1" class="node"><title>Node1</title>
<polygon fill="#bfbfbf" stroke="black" points="0,-57.5 0,-76.5 89,-76.5 89,-57.5 0,-57.5"/>
<text text-anchor="middle" x="44.5" y="-64.5" font-family="Helvetica,sans-Serif" font-size="10.00">request_respond</text>
</g>
<!-- Node2 -->
<g id="node2" class="node"><title>Node2</title>
<g id="a_node2"><a xlink:href="a00087.html#ad9eb80a2905c045062172f59c4b08c22" target="_top" xlink:title="request_on_request">
<polygon fill="none" stroke="black" points="125,-76.5 125,-95.5 227,-95.5 227,-76.5 125,-76.5"/>
<text text-anchor="middle" x="176" y="-83.5" font-family="Helvetica,sans-Serif" font-size="10.00">request_on_request</text>
</a>
</g>
</g>
<!-- Node1&#45;&gt;Node2 -->
<g id="edge1" class="edge"><title>Node1&#45;&gt;Node2</title>
<path fill="none" stroke="midnightblue" d="M99.4741,-74.919C107.915,-76.1574 116.607,-77.4327 124.955,-78.6575"/>
<polygon fill="midnightblue" stroke="midnightblue" points="99.745,-71.4213 89.3428,-73.4325 98.7288,-78.3472 99.745,-71.4213"/>
</g>
<!-- Node7 -->
<g id="node7" class="node"><title>Node7</title>
<g id="a_node7"><a xlink:href="a00089.html#a0f52d1f4e06fe16eb27a1b394bcd6d86" target="_top" xlink:title="hpd_respond">
<polygon fill="none" stroke="black" points="140,-38.5 140,-57.5 212,-57.5 212,-38.5 140,-38.5"/>
<text text-anchor="middle" x="176" y="-45.5" font-family="Helvetica,sans-Serif" font-size="10.00">hpd_respond</text>
</a>
</g>
</g>
<!-- Node1&#45;&gt;Node7 -->
<g id="edge6" class="edge"><title>Node1&#45;&gt;Node7</title>
<path fill="none" stroke="midnightblue" d="M99.5668,-59.0674C113.155,-57.0738 127.389,-54.9854 139.785,-53.1667"/>
<polygon fill="midnightblue" stroke="midnightblue" points="98.7288,-55.6528 89.3428,-60.5675 99.745,-62.5787 98.7288,-55.6528"/>
</g>
<!-- Node3 -->
<g id="node3" class="node"><title>Node3</title>
<g id="a_node3"><a xlink:href="a00088.html#a49ae36dd88ac39bfa09a7cfc34323872" target="_top" xlink:title="request_request">
<polygon fill="none" stroke="black" points="286.5,-76.5 286.5,-95.5 372.5,-95.5 372.5,-76.5 286.5,-76.5"/>
<text text-anchor="middle" x="329.5" y="-83.5" font-family="Helvetica,sans-Serif" font-size="10.00">request_request</text>
</a>
</g>
</g>
<!-- Node2&#45;&gt;Node3 -->
<g id="edge2" class="edge"><title>Node2&#45;&gt;Node3</title>
<path fill="none" stroke="midnightblue" d="M237.084,-86C253.495,-86 270.933,-86 286.13,-86"/>
<polygon fill="midnightblue" stroke="midnightblue" points="237.027,-82.5001 227.027,-86 237.027,-89.5001 237.027,-82.5001"/>
</g>
<!-- Node4 -->
<g id="node4" class="node"><title>Node4</title>
<g id="a_node4"><a xlink:href="a00089.html#a077adc41aa1c0f7270a995ff42420424" target="_top" xlink:title="hpd_request">
<polygon fill="none" stroke="black" points="453.5,-76.5 453.5,-95.5 523.5,-95.5 523.5,-76.5 453.5,-76.5"/>
<text text-anchor="middle" x="488.5" y="-83.5" font-family="Helvetica,sans-Serif" font-size="10.00">hpd_request</text>
</a>
</g>
</g>
<!-- Node3&#45;&gt;Node4 -->
<g id="edge3" class="edge"><title>Node3&#45;&gt;Node4</title>
<path fill="none" stroke="midnightblue" d="M382.629,-86C405.867,-86 432.593,-86 453.249,-86"/>
<polygon fill="midnightblue" stroke="midnightblue" points="382.573,-82.5001 372.573,-86 382.573,-89.5001 382.573,-82.5001"/>
</g>
<!-- Node5 -->
<g id="node5" class="node"><title>Node5</title>
<g id="a_node5"><a xlink:href="a00034.html#a1ef7ff8e866ae31ab0edb443eb4777a1" target="_top" xlink:title="rest_on_req_cmpl">
<polygon fill="none" stroke="black" points="589,-76.5 589,-95.5 683,-95.5 683,-76.5 589,-76.5"/>
<text text-anchor="middle" x="636" y="-83.5" font-family="Helvetica,sans-Serif" font-size="10.00">rest_on_req_cmpl</text>
</a>
</g>
</g>
<!-- Node4&#45;&gt;Node5 -->
<g id="edge4" class="edge"><title>Node4&#45;&gt;Node5</title>
<path fill="none" stroke="midnightblue" d="M534.079,-86C551.486,-86 571.438,-86 588.982,-86"/>
<polygon fill="midnightblue" stroke="midnightblue" points="533.613,-82.5001 523.613,-86 533.613,-89.5001 533.613,-82.5001"/>
</g>
<!-- Node6 -->
<g id="node6" class="node"><title>Node6</title>
<g id="a_node6"><a xlink:href="a00034.html#a02090c3feb19ea4c6e1fa9b5e6392752" target="_top" xlink:title="rest_on_create">
<polygon fill="none" stroke="black" points="755,-76.5 755,-95.5 836,-95.5 836,-76.5 755,-76.5"/>
<text text-anchor="middle" x="795.5" y="-83.5" font-family="Helvetica,sans-Serif" font-size="10.00">rest_on_create</text>
</a>
</g>
</g>
<!-- Node5&#45;&gt;Node6 -->
<g id="edge5" class="edge"><title>Node5&#45;&gt;Node6</title>
<path fill="none" stroke="midnightblue" d="M693.482,-86C713.788,-86 736.245,-86 754.82,-86"/>
<polygon fill="midnightblue" stroke="midnightblue" points="693.403,-82.5001 683.403,-86 693.403,-89.5001 693.403,-82.5001"/>
</g>
<!-- Node8 -->
<g id="node8" class="node"><title>Node8</title>
<g id="a_node8"><a xlink:href="a00013.html#a1d3cd6fde2598f29c88786537becfbb3" target="_top" xlink:title="[definition] ">
<polygon fill="none" stroke="black" points="263,-38.5 263,-57.5 396,-57.5 396,-38.5 263,-38.5"/>
<text text-anchor="middle" x="329.5" y="-45.5" font-family="Helvetica,sans-Serif" font-size="10.00">demo_adapter_send_value</text>
</a>
</g>
</g>
<!-- Node7&#45;&gt;Node8 -->
<g id="edge7" class="edge"><title>Node7&#45;&gt;Node8</title>
<path fill="none" stroke="midnightblue" d="M222.462,-48C235.182,-48 249.266,-48 262.904,-48"/>
<polygon fill="midnightblue" stroke="midnightblue" points="222.138,-44.5001 212.138,-48 222.138,-51.5001 222.138,-44.5001"/>
</g>
<!-- Node9 -->
<g id="node9" class="node"><title>Node9</title>
<g id="a_node9"><a xlink:href="a00013.html#ad12964278a8b6998fccbae23e084a8a7" target="_top" xlink:title="[set] ">
<polygon fill="none" stroke="black" points="432,-38.5 432,-57.5 545,-57.5 545,-38.5 432,-38.5"/>
<text text-anchor="middle" x="488.5" y="-45.5" font-family="Helvetica,sans-Serif" font-size="10.00">demo_adapter_on_get</text>
</a>
</g>
</g>
<!-- Node8&#45;&gt;Node9 -->
<g id="edge8" class="edge"><title>Node8&#45;&gt;Node9</title>
<path fill="none" stroke="midnightblue" d="M406.446,-48C414.907,-48 423.407,-48 431.553,-48"/>
<polygon fill="midnightblue" stroke="midnightblue" points="406.172,-44.5001 396.172,-48 406.172,-51.5001 406.172,-44.5001"/>
</g>
<!-- Node13 -->
<g id="node13" class="node"><title>Node13</title>
<g id="a_node13"><a xlink:href="a00013.html#a00981c2b16f03b852495746fb9ecb2c9" target="_top" xlink:title="[on_get] ">
<polygon fill="none" stroke="black" points="432,-0.5 432,-19.5 545,-19.5 545,-0.5 432,-0.5"/>
<text text-anchor="middle" x="488.5" y="-7.5" font-family="Helvetica,sans-Serif" font-size="10.00">demo_adapter_on_put</text>
</a>
</g>
</g>
<!-- Node8&#45;&gt;Node13 -->
<g id="edge12" class="edge"><title>Node8&#45;&gt;Node13</title>
<path fill="none" stroke="midnightblue" d="M379.947,-36.032C401.948,-30.7069 427.494,-24.5238 448.167,-19.5201"/>
<polygon fill="midnightblue" stroke="midnightblue" points="379.014,-32.6567 370.118,-38.411 380.66,-39.4602 379.014,-32.6567"/>
</g>
<!-- Node10 -->
<g id="node10" class="node"><title>Node10</title>
<g id="a_node10"><a xlink:href="a00013.html#aca3f96055b6405843c652ef5efd1c3e8" target="_top" xlink:title="[create_parameter] ">
<polygon fill="none" stroke="black" points="581,-11 581,-41 691,-41 691,-11 581,-11"/>
<text text-anchor="start" x="589" y="-29" font-family="Helvetica,sans-Serif" font-size="10.00">demo_adapter_create</text>
<text text-anchor="middle" x="636" y="-18" font-family="Helvetica,sans-Serif" font-size="10.00">_service</text>
</a>
</g>
</g>
<!-- Node9&#45;&gt;Node10 -->
<g id="edge9" class="edge"><title>Node9&#45;&gt;Node10</title>
<path fill="none" stroke="midnightblue" d="M555.328,-38.0466C563.913,-36.7485 572.628,-35.4308 580.989,-34.1666"/>
<polygon fill="midnightblue" stroke="midnightblue" points="554.702,-34.6014 545.338,-39.5571 555.749,-41.5227 554.702,-34.6014"/>
</g>
<!-- Node11 -->
<g id="node11" class="node"><title>Node11</title>
<g id="a_node11"><a xlink:href="a00013.html#abfc239c18fce4bcc601e14074ddfabf8" target="_top" xlink:title="[create_service] ">
<polygon fill="none" stroke="black" points="727,-16.5 727,-35.5 864,-35.5 864,-16.5 727,-16.5"/>
<text text-anchor="middle" x="795.5" y="-23.5" font-family="Helvetica,sans-Serif" font-size="10.00">demo_adapter_create_lamp</text>
</a>
</g>
</g>
<!-- Node10&#45;&gt;Node11 -->
<g id="edge10" class="edge"><title>Node10&#45;&gt;Node11</title>
<path fill="none" stroke="midnightblue" d="M701.324,-26C709.736,-26 718.375,-26 726.84,-26"/>
<polygon fill="midnightblue" stroke="midnightblue" points="701.203,-22.5001 691.203,-26 701.203,-29.5001 701.203,-22.5001"/>
</g>
<!-- Node12 -->
<g id="node12" class="node"><title>Node12</title>
<g id="a_node12"><a xlink:href="a00013.html#a9f84d5de2ac16bde89480bd48efdff51" target="_top" xlink:title="[create_lamp] ">
<polygon fill="none" stroke="black" points="900,-16.5 900,-35.5 1019,-35.5 1019,-16.5 900,-16.5"/>
<text text-anchor="middle" x="959.5" y="-23.5" font-family="Helvetica,sans-Serif" font-size="10.00">demo_adapter_on_start</text>
</a>
</g>
</g>
<!-- Node11&#45;&gt;Node12 -->
<g id="edge11" class="edge"><title>Node11&#45;&gt;Node12</title>
<path fill="none" stroke="midnightblue" d="M874.281,-26C882.853,-26 891.473,-26 899.757,-26"/>
<polygon fill="midnightblue" stroke="midnightblue" points="874.264,-22.5001 864.264,-26 874.264,-29.5001 874.264,-22.5001"/>
</g>
<!-- Node13&#45;&gt;Node10 -->
<g id="edge13" class="edge"><title>Node13&#45;&gt;Node10</title>
<path fill="none" stroke="midnightblue" d="M555.328,-17.2388C563.913,-18.1829 572.628,-19.1413 580.989,-20.0607"/>
<polygon fill="midnightblue" stroke="midnightblue" points="555.661,-13.7544 545.338,-16.1403 554.895,-20.7124 555.661,-13.7544"/>
</g>
</g>
</svg>
        <g id="navigator" transform="translate(0 0)" fill="#404254">
                <rect fill="#f2f5e9" fill-opacity="0.5" stroke="#606060" stroke-width=".5" x="0" y="0" width="60" height="60"/>
                <use id="zoomplus" xlink:href="#zoomPlus" x="17" y="9" onmousedown="handleZoom(evt,'in')"/>
                <use id="zoomminus" xlink:href="#zoomMin" x="42" y="9" onmousedown="handleZoom(evt,'out')"/>
                <use id="reset" xlink:href="#resetDef" x="30" y="36" onmousedown="handleReset()"/>
                <g id="arrowUp" xlink:href="#dirArrow" transform="translate(30 24)" onmousedown="handlePan(0,-1)">
                  <use xlink:href="#rim" fill="#404040">
                        <set attributeName="fill" to="#808080" begin="arrowUp.mouseover" end="arrowUp.mouseout"/>
                  </use>
                  <path fill="none" stroke="white" stroke-width="1.5" d="M0,-3.0v7 M-2.5,-0.5L0,-3.0L2.5,-0.5"/>
                </g>
                <g id="arrowRight" xlink:href="#dirArrow" transform="rotate(90) translate(36 -43)" onmousedown="handlePan(1,0)">
                  <use xlink:href="#rim" fill="#404040">
                        <set attributeName="fill" to="#808080" begin="arrowRight.mouseover" end="arrowRight.mouseout"/>
                  </use>
                  <path fill="none" stroke="white" stroke-width="1.5" d="M0,-3.0v7 M-2.5,-0.5L0,-3.0L2.5,-0.5"/>
                </g>
                <g id="arrowDown" xlink:href="#dirArrow" transform="rotate(180) translate(-30 -48)" onmousedown="handlePan(0,1)">
                  <use xlink:href="#rim" fill="#404040">
                        <set attributeName="fill" to="#808080" begin="arrowDown.mouseover" end="arrowDown.mouseout"/>
                  </use>
                  <path fill="none" stroke="white" stroke-width="1.5" d="M0,-3.0v7 M-2.5,-0.5L0,-3.0L2.5,-0.5"/>
                </g>
                <g id="arrowLeft" xlink:href="#dirArrow" transform="rotate(270) translate(-36 17)" onmousedown="handlePan(-1,0)">
                  <use xlink:href="#rim" fill="#404040">
                        <set attributeName="fill" to="#808080" begin="arrowLeft.mouseover" end="arrowLeft.mouseout"/>
                  </use>
                  <path fill="none" stroke="white" stroke-width="1.5" d="M0,-3.0v7 M-2.5,-0.5L0,-3.0L2.5,-0.5"/>
                </g>
        </g>
        <svg viewBox="0 0 15 15" width="100%" height="30px" preserveAspectRatio="xMaxYMin meet">
         <g id="arrow_out" transform="scale(0.3 0.3)">
          <a xlink:href="a00087_af9377ab613a971acb84c487a139736d4_icgraph_org.svg" target="_base">
           <rect id="button" ry="5" rx="5" y="6" x="6" height="38" width="38"
                fill="#f2f5e9" fill-opacity="0.5" stroke="#606060" stroke-width="1.0"/>
           <path id="arrow"
             d="M 11.500037,31.436501 C 11.940474,20.09759 22.043105,11.32322 32.158766,21.979434 L 37.068811,17.246167 C 37.068811,17.246167 37.088388,32 37.088388,32 L 22.160133,31.978069 C 22.160133,31.978069 26.997745,27.140456 26.997745,27.140456 C 18.528582,18.264221 13.291696,25.230495 11.500037,31.436501 z"
             style="fill:#404040;"/>
          </a>
         </g>
        </svg>
</svg>
