<?xml version="1.0" encoding="UTF-8" standalone="no"?>
<!DOCTYPE svg PUBLIC "-//W3C//DTD SVG 1.1//EN"
 "http://www.w3.org/Graphics/SVG/1.1/DTD/svg11.dtd">
<!-- Generated by graphviz version 2.38.0 (20140413.2041)
 -->
<!-- Title: rest_xml_add_adapter Pages: 1 -->
<svg width="1313pt" height="699pt"
 viewBox="0.00 0.00 1313.00 699.00" xmlns="http://www.w3.org/2000/svg" xmlns:xlink="http://www.w3.org/1999/xlink">
<g id="graph0" class="graph" transform="scale(1 1) rotate(0) translate(4 695)">
<title>rest_xml_add_adapter</title>
<!-- Node1 -->
<g id="node1" class="node"><title>Node1</title>
<polygon fill="#bfbfbf" stroke="black" points="0,-557.5 0,-576.5 113,-576.5 113,-557.5 0,-557.5"/>
<text text-anchor="middle" x="56.5" y="-564.5" font-family="Helvetica,sans-Serif" font-size="10.00">rest_xml_add_adapter</text>
</g>
<!-- Node2 -->
<g id="node2" class="node"><title>Node2</title>
<g id="a_node2"><a xlink:href="a00075.html#afd02a1458a4f43210ef9ad2ca1cd92b2" target="_top" xlink:title="[id_t functions] ">
<polygon fill="none" stroke="black" points="614,-652.5 614,-671.5 715,-671.5 715,-652.5 614,-652.5"/>
<text text-anchor="middle" x="664.5" y="-659.5" font-family="Helvetica,sans-Serif" font-size="10.00">hpd_adapter_get_id</text>
</a>
</g>
</g>
<!-- Node1&#45;&gt;Node2 -->
<g id="edge1" class="edge"><title>Node1&#45;&gt;Node2</title>
<path fill="none" stroke="midnightblue" d="M65.9308,-576.599C80.8118,-592.762 113.533,-624.922 149,-638 304.782,-695.441 505.248,-682.183 603.626,-670.565"/>
<polygon fill="midnightblue" stroke="midnightblue" points="604.177,-674.024 613.681,-669.341 603.331,-667.075 604.177,-674.024"/>
</g>
<!-- Node5 -->
<g id="node5" class="node"><title>Node5</title>
<g id="a_node5"><a xlink:href="a00098.html#acf4f8323b5a197318d4d984ccae1a932" target="_top" xlink:title="rest_xml_add">
<polygon fill="none" stroke="black" points="795,-538.5 795,-557.5 870,-557.5 870,-538.5 795,-538.5"/>
<text text-anchor="middle" x="832.5" y="-545.5" font-family="Helvetica,sans-Serif" font-size="10.00">rest_xml_add</text>
</a>
</g>
</g>
<!-- Node1&#45;&gt;Node5 -->
<g id="edge4" class="edge"><title>Node1&#45;&gt;Node5</title>
<path fill="none" stroke="midnightblue" d="M86.5091,-576.541C138.506,-592.767 251.282,-624 349,-624 349,-624 349,-624 505,-624 614.483,-624 739.366,-582.962 797.897,-561.197"/>
<polygon fill="midnightblue" stroke="midnightblue" points="799.251,-564.428 807.374,-557.625 796.782,-557.878 799.251,-564.428"/>
</g>
<!-- Node6 -->
<g id="node6" class="node"><title>Node6</title>
<g id="a_node6"><a xlink:href="a00098.html#acede1ef4c58d9c7bd93b4e653ba620e6" target="_top" xlink:title="rest_xml_add_attr">
<polygon fill="none" stroke="black" points="617,-500.5 617,-519.5 712,-519.5 712,-500.5 617,-500.5"/>
<text text-anchor="middle" x="664.5" y="-507.5" font-family="Helvetica,sans-Serif" font-size="10.00">rest_xml_add_attr</text>
</a>
</g>
</g>
<!-- Node1&#45;&gt;Node6 -->
<g id="edge5" class="edge"><title>Node1&#45;&gt;Node6</title>
<path fill="none" stroke="midnightblue" d="M113.155,-561.765C228.185,-550.945 491.038,-526.222 606.885,-515.325"/>
<polygon fill="midnightblue" stroke="midnightblue" points="607.336,-518.798 616.965,-514.377 606.681,-511.829 607.336,-518.798"/>
</g>
<!-- Node8 -->
<g id="node8" class="node"><title>Node8</title>
<g id="a_node8"><a xlink:href="a00098.html#a1225e8ad884c053761d73179e1ee1855" target="_top" xlink:title="rest_xml_add_device">
<polygon fill="none" stroke="black" points="149,-462.5 149,-481.5 258,-481.5 258,-462.5 149,-462.5"/>
<text text-anchor="middle" x="203.5" y="-469.5" font-family="Helvetica,sans-Serif" font-size="10.00">rest_xml_add_device</text>
</a>
</g>
</g>
<!-- Node1&#45;&gt;Node8 -->
<g id="edge8" class="edge"><title>Node1&#45;&gt;Node8</title>
<path fill="none" stroke="midnightblue" d="M68.1522,-557.355C84.6158,-542.777 117.628,-514.84 149,-496 155.098,-492.338 161.853,-488.887 168.452,-485.805"/>
<polygon fill="midnightblue" stroke="midnightblue" points="170.216,-488.85 177.914,-481.571 167.357,-482.461 170.216,-488.85"/>
</g>
<!-- Node3 -->
<g id="node3" class="node"><title>Node3</title>
<g id="a_node3"><a xlink:href="a00020.html#adbc376ab1130f0595796c540f0b5e515" target="_top" xlink:title="discovery_find_adapter">
<polygon fill="none" stroke="black" points="774,-671.5 774,-690.5 891,-690.5 891,-671.5 774,-671.5"/>
<text text-anchor="middle" x="832.5" y="-678.5" font-family="Helvetica,sans-Serif" font-size="10.00">discovery_find_adapter</text>
</a>
</g>
</g>
<!-- Node2&#45;&gt;Node3 -->
<g id="edge2" class="edge"><title>Node2&#45;&gt;Node3</title>
<path fill="none" stroke="midnightblue" d="M715.305,-667.701C730.569,-669.448 747.626,-671.4 763.869,-673.259"/>
<polygon fill="midnightblue" stroke="midnightblue" points="763.521,-676.742 773.854,-674.402 764.317,-669.787 763.521,-676.742"/>
</g>
<!-- Node4 -->
<g id="node4" class="node"><title>Node4</title>
<g id="a_node4"><a xlink:href="a00078.html#af7f7554fd8858506bf900674f0dd07be" target="_top" xlink:title="discovery_get_adapter_id">
<polygon fill="none" stroke="black" points="768.5,-633.5 768.5,-652.5 896.5,-652.5 896.5,-633.5 768.5,-633.5"/>
<text text-anchor="middle" x="832.5" y="-640.5" font-family="Helvetica,sans-Serif" font-size="10.00">discovery_get_adapter_id</text>
</a>
</g>
</g>
<!-- Node2&#45;&gt;Node4 -->
<g id="edge3" class="edge"><title>Node2&#45;&gt;Node4</title>
<path fill="none" stroke="midnightblue" d="M715.305,-656.299C728.884,-654.745 743.883,-653.028 758.465,-651.359"/>
<polygon fill="midnightblue" stroke="midnightblue" points="758.934,-654.829 768.471,-650.214 758.138,-647.874 758.934,-654.829"/>
</g>
<!-- Node6&#45;&gt;Node5 -->
<g id="edge7" class="edge"><title>Node6&#45;&gt;Node5</title>
<path fill="none" stroke="midnightblue" d="M707.389,-519.589C731.11,-525.019 760.824,-531.821 785.231,-537.408"/>
<polygon fill="midnightblue" stroke="midnightblue" points="784.458,-540.822 794.987,-539.642 786.02,-533.998 784.458,-540.822"/>
</g>
<!-- Node7 -->
<g id="node7" class="node"><title>Node7</title>
<g id="a_node7"><a xlink:href="a00056.html#a234fa0db60fda58722702273bf7e82a2" target="_top" xlink:title="hpd_pair_get">
<polygon fill="none" stroke="black" points="796.5,-500.5 796.5,-519.5 868.5,-519.5 868.5,-500.5 796.5,-500.5"/>
<text text-anchor="middle" x="832.5" y="-507.5" font-family="Helvetica,sans-Serif" font-size="10.00">hpd_pair_get</text>
</a>
</g>
</g>
<!-- Node6&#45;&gt;Node7 -->
<g id="edge6" class="edge"><title>Node6&#45;&gt;Node7</title>
<path fill="none" stroke="midnightblue" d="M712.182,-510C735.384,-510 763.301,-510 786.297,-510"/>
<polygon fill="midnightblue" stroke="midnightblue" points="786.482,-513.5 796.482,-510 786.482,-506.5 786.482,-513.5"/>
</g>
<!-- Node8&#45;&gt;Node5 -->
<g id="edge12" class="edge"><title>Node8&#45;&gt;Node5</title>
<path fill="none" stroke="midnightblue" d="M241.413,-481.529C257.518,-485.569 276.649,-490.208 294,-494 430.164,-523.756 463.246,-539.83 602,-553 657.307,-558.25 671.46,-554.328 727,-553 745.91,-552.548 766.728,-551.636 784.772,-550.714"/>
<polygon fill="midnightblue" stroke="midnightblue" points="784.958,-554.209 794.76,-550.188 784.59,-547.218 784.958,-554.209"/>
</g>
<!-- Node8&#45;&gt;Node6 -->
<g id="edge13" class="edge"><title>Node8&#45;&gt;Node6</title>
<path fill="none" stroke="midnightblue" d="M258.201,-474.283C328.898,-477.582 456.997,-484.573 566,-496 579.282,-497.392 593.533,-499.238 606.927,-501.131"/>
<polygon fill="midnightblue" stroke="midnightblue" points="606.574,-504.616 616.972,-502.581 607.575,-497.688 606.574,-504.616"/>
</g>
<!-- Node9 -->
<g id="node9" class="node"><title>Node9</title>
<g id="a_node9"><a xlink:href="a00075.html#a7d1ad44eb960013e7af0d33f8fed3f6b" target="_top" xlink:title="[hpd_adapter_t functions] ">
<polygon fill="none" stroke="black" points="615.5,-32.5 615.5,-51.5 713.5,-51.5 713.5,-32.5 615.5,-32.5"/>
<text text-anchor="middle" x="664.5" y="-39.5" font-family="Helvetica,sans-Serif" font-size="10.00">hpd_device_get_id</text>
</a>
</g>
</g>
<!-- Node8&#45;&gt;Node9 -->
<g id="edge9" class="edge"><title>Node8&#45;&gt;Node9</title>
<path fill="none" stroke="midnightblue" d="M206.859,-462.268C219.826,-411.077 287.552,-171.511 442,-70 490.283,-38.2659 557.436,-33.9945 605.114,-35.9634"/>
<polygon fill="midnightblue" stroke="midnightblue" points="605.112,-39.4679 615.28,-36.4892 605.474,-32.4772 605.112,-39.4679"/>
</g>
<!-- Node12 -->
<g id="node12" class="node"><title>Node12</title>
<g id="a_node12"><a xlink:href="a00098.html#a8a91d98306eb64c151d1c19465421c0c" target="_top" xlink:title="rest_xml_add_service">
<polygon fill="none" stroke="black" points="294,-339.5 294,-358.5 406,-358.5 406,-339.5 294,-339.5"/>
<text text-anchor="middle" x="350" y="-346.5" font-family="Helvetica,sans-Serif" font-size="10.00">rest_xml_add_service</text>
</a>
</g>
</g>
<!-- Node8&#45;&gt;Node12 -->
<g id="edge14" class="edge"><title>Node8&#45;&gt;Node12</title>
<path fill="none" stroke="midnightblue" d="M215.839,-462.348C240.529,-441.331 299.386,-391.232 329.908,-365.251"/>
<polygon fill="midnightblue" stroke="midnightblue" points="332.368,-367.754 337.714,-358.607 327.83,-362.423 332.368,-367.754"/>
</g>
<!-- Node10 -->
<g id="node10" class="node"><title>Node10</title>
<g id="a_node10"><a xlink:href="a00020.html#af178de2e51304e31fefe0ae13d2481ab" target="_top" xlink:title="discovery_find_device">
<polygon fill="none" stroke="black" points="776,-38.5 776,-57.5 889,-57.5 889,-38.5 776,-38.5"/>
<text text-anchor="middle" x="832.5" y="-45.5" font-family="Helvetica,sans-Serif" font-size="10.00">discovery_find_device</text>
</a>
</g>
</g>
<!-- Node9&#45;&gt;Node10 -->
<g id="edge10" class="edge"><title>Node9&#45;&gt;Node10</title>
<path fill="none" stroke="midnightblue" d="M713.514,-43.7354C729.843,-44.3257 748.384,-44.9958 765.851,-45.6271"/>
<polygon fill="midnightblue" stroke="midnightblue" points="765.866,-49.1299 775.986,-45.9935 766.119,-42.1345 765.866,-49.1299"/>
</g>
<!-- Node11 -->
<g id="node11" class="node"><title>Node11</title>
<g id="a_node11"><a xlink:href="a00078.html#a01d64284d4ff469a8dffa0260a92eea2" target="_top" xlink:title="discovery_get_device_id">
<polygon fill="none" stroke="black" points="770.5,-0.5 770.5,-19.5 894.5,-19.5 894.5,-0.5 770.5,-0.5"/>
<text text-anchor="middle" x="832.5" y="-7.5" font-family="Helvetica,sans-Serif" font-size="10.00">discovery_get_device_id</text>
</a>
</g>
</g>
<!-- Node9&#45;&gt;Node11 -->
<g id="edge11" class="edge"><title>Node9&#45;&gt;Node11</title>
<path fill="none" stroke="midnightblue" d="M713.514,-32.7443C731.861,-29.2076 752.999,-25.1327 772.27,-21.4178"/>
<polygon fill="midnightblue" stroke="midnightblue" points="772.996,-24.8424 782.153,-19.5127 771.671,-17.9689 772.996,-24.8424"/>
</g>
<!-- Node12&#45;&gt;Node5 -->
<g id="edge18" class="edge"><title>Node12&#45;&gt;Node5</title>
<path fill="none" stroke="midnightblue" d="M357.542,-358.556C371.273,-378.05 404.914,-422.926 442,-451 505.076,-498.749 525.715,-508.044 602,-529 663.468,-545.886 737.392,-549.108 784.414,-549.137"/>
<polygon fill="midnightblue" stroke="midnightblue" points="784.619,-552.636 794.604,-549.093 784.589,-545.636 784.619,-552.636"/>
</g>
<!-- Node12&#45;&gt;Node6 -->
<g id="edge47" class="edge"><title>Node12&#45;&gt;Node6</title>
<path fill="none" stroke="midnightblue" d="M362.063,-358.702C378.516,-372.727 410.851,-398.758 442,-415 493.722,-441.969 514.738,-430.167 566,-458 583.813,-467.672 584.375,-475.989 602,-486 609.007,-489.98 616.805,-493.584 624.43,-496.719"/>
<polygon fill="midnightblue" stroke="midnightblue" points="623.335,-500.049 633.923,-500.431 625.885,-493.53 623.335,-500.049"/>
</g>
<!-- Node13 -->
<g id="node13" class="node"><title>Node13</title>
<g id="a_node13"><a xlink:href="a00075.html#a5537ebbc8e732a33b7cf084b86b61a4e" target="_top" xlink:title="[hpd_device_t functions] ">
<polygon fill="none" stroke="black" points="614,-120.5 614,-139.5 715,-139.5 715,-120.5 614,-120.5"/>
<text text-anchor="middle" x="664.5" y="-127.5" font-family="Helvetica,sans-Serif" font-size="10.00">hpd_service_get_id</text>
</a>
</g>
</g>
<!-- Node12&#45;&gt;Node13 -->
<g id="edge15" class="edge"><title>Node12&#45;&gt;Node13</title>
<path fill="none" stroke="midnightblue" d="M352.228,-339.193C356.89,-306.512 376.677,-200.739 442,-154 488.598,-120.66 555.432,-117.867 603.481,-121.434"/>
<polygon fill="midnightblue" stroke="midnightblue" points="603.477,-124.946 613.74,-122.312 604.075,-117.972 603.477,-124.946"/>
</g>
<!-- Node16 -->
<g id="node16" class="node"><title>Node16</title>
<g id="a_node16"><a xlink:href="a00034.html#ae30c92f3bb2ebffcbb82054ad60c1ac5" target="_top" xlink:title="hpd_rest_url_create">
<polygon fill="none" stroke="black" points="453,-291.5 453,-310.5 555,-310.5 555,-291.5 453,-291.5"/>
<text text-anchor="middle" x="504" y="-298.5" font-family="Helvetica,sans-Serif" font-size="10.00">hpd_rest_url_create</text>
</a>
</g>
</g>
<!-- Node12&#45;&gt;Node16 -->
<g id="edge19" class="edge"><title>Node12&#45;&gt;Node16</title>
<path fill="none" stroke="midnightblue" d="M381.394,-339.402C404.798,-332.011 437.358,-321.729 462.897,-313.664"/>
<polygon fill="midnightblue" stroke="midnightblue" points="464.177,-316.93 472.659,-310.582 462.069,-310.255 464.177,-316.93"/>
</g>
<!-- Node22 -->
<g id="node22" class="node"><title>Node22</title>
<g id="a_node22"><a xlink:href="a00012.html#adf46370d9c211c3be22966b4606ba9b0" target="_top" xlink:title="free">
<polygon fill="none" stroke="black" points="1241,-253.5 1241,-272.5 1274,-272.5 1274,-253.5 1241,-253.5"/>
<text text-anchor="middle" x="1257.5" y="-260.5" font-family="Helvetica,sans-Serif" font-size="10.00">free</text>
</a>
</g>
</g>
<!-- Node12&#45;&gt;Node22 -->
<g id="edge44" class="edge"><title>Node12&#45;&gt;Node22</title>
<path fill="none" stroke="midnightblue" d="M359.618,-339.269C393.917,-301.673 525.567,-168 663.5,-168 663.5,-168 663.5,-168 990,-168 1073.98,-168 1096.52,-178.607 1174,-211 1196.54,-220.422 1219.88,-235.741 1235.95,-247.317"/>
<polygon fill="midnightblue" stroke="midnightblue" points="1233.96,-250.195 1244.09,-253.302 1238.11,-244.556 1233.96,-250.195"/>
</g>
<!-- Node33 -->
<g id="node33" class="node"><title>Node33</title>
<g id="a_node33"><a xlink:href="a00075.html#a7a562b3767c599041b288d9aeb5cf487" target="_top" xlink:title="[model foreach loops] ">
<polygon fill="none" stroke="black" points="444,-79.5 444,-98.5 564,-98.5 564,-79.5 444,-79.5"/>
<text text-anchor="middle" x="504" y="-86.5" font-family="Helvetica,sans-Serif" font-size="10.00">hpd_action_get_method</text>
</a>
</g>
</g>
<!-- Node12&#45;&gt;Node33 -->
<g id="edge45" class="edge"><title>Node12&#45;&gt;Node33</title>
<path fill="none" stroke="midnightblue" d="M352.157,-339.166C356.767,-304.164 376.859,-184.097 442,-116 447.064,-110.707 453.349,-106.381 459.943,-102.868"/>
<polygon fill="midnightblue" stroke="midnightblue" points="461.496,-106.005 469.04,-98.5657 458.504,-99.6765 461.496,-106.005"/>
</g>
<!-- Node35 -->
<g id="node35" class="node"><title>Node35</title>
<g id="a_node35"><a xlink:href="a00098.html#a2c753178fd12a645f5e3a88d42d590a0" target="_top" xlink:title="rest_xml_add_parameter">
<polygon fill="none" stroke="black" points="442,-386.5 442,-405.5 566,-405.5 566,-386.5 442,-386.5"/>
<text text-anchor="middle" x="504" y="-393.5" font-family="Helvetica,sans-Serif" font-size="10.00">rest_xml_add_parameter</text>
</a>
</g>
</g>
<!-- Node12&#45;&gt;Node35 -->
<g id="edge48" class="edge"><title>Node12&#45;&gt;Node35</title>
<path fill="none" stroke="midnightblue" d="M381.759,-358.511C404.964,-365.686 437.015,-375.597 462.335,-383.426"/>
<polygon fill="midnightblue" stroke="midnightblue" points="461.438,-386.812 472.026,-386.422 463.506,-380.124 461.438,-386.812"/>
</g>
<!-- Node14 -->
<g id="node14" class="node"><title>Node14</title>
<g id="a_node14"><a xlink:href="a00020.html#a6ca3b5d1e545bf48e3f2b57c3e323831" target="_top" xlink:title="discovery_find_service">
<polygon fill="none" stroke="black" points="774.5,-82.5 774.5,-101.5 890.5,-101.5 890.5,-82.5 774.5,-82.5"/>
<text text-anchor="middle" x="832.5" y="-89.5" font-family="Helvetica,sans-Serif" font-size="10.00">discovery_find_service</text>
</a>
</g>
</g>
<!-- Node13&#45;&gt;Node14 -->
<g id="edge16" class="edge"><title>Node13&#45;&gt;Node14</title>
<path fill="none" stroke="midnightblue" d="M707.389,-120.411C729.393,-115.374 756.555,-109.156 779.852,-103.823"/>
<polygon fill="midnightblue" stroke="midnightblue" points="780.946,-107.163 789.912,-101.52 779.384,-100.34 780.946,-107.163"/>
</g>
<!-- Node15 -->
<g id="node15" class="node"><title>Node15</title>
<g id="a_node15"><a xlink:href="a00078.html#a0c24b895ea333fedf685a75e27e64c37" target="_top" xlink:title="discovery_get_service_id">
<polygon fill="none" stroke="black" points="769,-120.5 769,-139.5 896,-139.5 896,-120.5 769,-120.5"/>
<text text-anchor="middle" x="832.5" y="-127.5" font-family="Helvetica,sans-Serif" font-size="10.00">discovery_get_service_id</text>
</a>
</g>
</g>
<!-- Node13&#45;&gt;Node15 -->
<g id="edge17" class="edge"><title>Node13&#45;&gt;Node15</title>
<path fill="none" stroke="midnightblue" d="M715.305,-130C728.962,-130 744.054,-130 758.715,-130"/>
<polygon fill="midnightblue" stroke="midnightblue" points="758.772,-133.5 768.772,-130 758.772,-126.5 758.772,-133.5"/>
</g>
<!-- Node16&#45;&gt;Node2 -->
<g id="edge35" class="edge"><title>Node16&#45;&gt;Node2</title>
<path fill="none" stroke="midnightblue" d="M515.318,-310.789C528.998,-324.356 552.929,-350.245 566,-377 596.475,-439.378 579.317,-463.386 602,-529 616.602,-571.239 640.125,-618.14 653.449,-643.412"/>
<polygon fill="midnightblue" stroke="midnightblue" points="650.379,-645.093 658.171,-652.271 656.556,-641.8 650.379,-645.093"/>
</g>
<!-- Node16&#45;&gt;Node9 -->
<g id="edge34" class="edge"><title>Node16&#45;&gt;Node9</title>
<path fill="none" stroke="midnightblue" d="M507.657,-291.484C519.091,-251.151 565.186,-94.8293 602,-61 603.705,-59.4334 605.537,-57.9959 607.463,-56.6769"/>
<polygon fill="midnightblue" stroke="midnightblue" points="609.435,-59.5832 616.423,-51.6197 605.994,-53.4873 609.435,-59.5832"/>
</g>
<!-- Node16&#45;&gt;Node13 -->
<g id="edge33" class="edge"><title>Node16&#45;&gt;Node13</title>
<path fill="none" stroke="midnightblue" d="M513.391,-291.219C529.995,-271.944 568.348,-227.814 602,-192 616.648,-176.411 633.831,-159.172 646.305,-146.838"/>
<polygon fill="midnightblue" stroke="midnightblue" points="649.08,-149.018 653.749,-139.507 644.168,-144.03 649.08,-149.018"/>
</g>
<!-- Node17 -->
<g id="node17" class="node"><title>Node17</title>
<g id="a_node17"><a xlink:href="a00075.html#a43dfdac4b9fea4a35e2709a22778250e" target="_top" xlink:title="hpd_service_get_adapter">
<polygon fill="none" stroke="black" points="602,-386.5 602,-405.5 727,-405.5 727,-386.5 602,-386.5"/>
<text text-anchor="middle" x="664.5" y="-393.5" font-family="Helvetica,sans-Serif" font-size="10.00">hpd_service_get_adapter</text>
</a>
</g>
</g>
<!-- Node16&#45;&gt;Node17 -->
<g id="edge20" class="edge"><title>Node16&#45;&gt;Node17</title>
<path fill="none" stroke="midnightblue" d="M514.617,-310.545C531.135,-326.448 566.554,-358.451 602,-377 606.233,-379.215 610.767,-381.22 615.384,-383.024"/>
<polygon fill="midnightblue" stroke="midnightblue" points="614.312,-386.358 624.906,-386.445 616.679,-379.77 614.312,-386.358"/>
</g>
<!-- Node16&#45;&gt;Node22 -->
<g id="edge43" class="edge"><title>Node16&#45;&gt;Node22</title>
<path fill="none" stroke="midnightblue" d="M513.471,-291.408C529.055,-274.513 564.156,-239.835 602,-225 697.289,-187.646 729.151,-206 831.5,-206 831.5,-206 831.5,-206 990,-206 1080.39,-206 1184.29,-237.746 1231.2,-253.855"/>
<polygon fill="midnightblue" stroke="midnightblue" points="1230.24,-257.226 1240.83,-257.221 1232.54,-250.618 1230.24,-257.226"/>
</g>
<!-- Node23 -->
<g id="node23" class="node"><title>Node23</title>
<g id="a_node23"><a xlink:href="a00075.html#a73e474ba372ed4e985f1f3cb186c3e0b" target="_top" xlink:title="hpd_service_get_device">
<polygon fill="none" stroke="black" points="603.5,-348.5 603.5,-367.5 725.5,-367.5 725.5,-348.5 603.5,-348.5"/>
<text text-anchor="middle" x="664.5" y="-355.5" font-family="Helvetica,sans-Serif" font-size="10.00">hpd_service_get_device</text>
</a>
</g>
</g>
<!-- Node16&#45;&gt;Node23 -->
<g id="edge26" class="edge"><title>Node16&#45;&gt;Node23</title>
<path fill="none" stroke="midnightblue" d="M527.948,-310.542C547.491,-318.535 576.392,-330.042 602,-339 608.161,-341.155 614.712,-343.316 621.154,-345.367"/>
<polygon fill="midnightblue" stroke="midnightblue" points="620.527,-348.839 631.116,-348.485 622.618,-342.158 620.527,-348.839"/>
</g>
<!-- Node28 -->
<g id="node28" class="node"><title>Node28</title>
<g id="a_node28"><a xlink:href="a00075.html#a9a00d602f27e6ec01adf931e9daaeb42" target="_top" xlink:title="hpd_device_id_free">
<polygon fill="none" stroke="black" points="614,-272.5 614,-291.5 715,-291.5 715,-272.5 614,-272.5"/>
<text text-anchor="middle" x="664.5" y="-279.5" font-family="Helvetica,sans-Serif" font-size="10.00">hpd_device_id_free</text>
</a>
</g>
</g>
<!-- Node16&#45;&gt;Node28 -->
<g id="edge36" class="edge"><title>Node16&#45;&gt;Node28</title>
<path fill="none" stroke="midnightblue" d="M555.15,-294.988C570.551,-293.142 587.654,-291.092 603.636,-289.176"/>
<polygon fill="midnightblue" stroke="midnightblue" points="604.435,-292.605 613.947,-287.94 603.602,-285.655 604.435,-292.605"/>
</g>
<!-- Node30 -->
<g id="node30" class="node"><title>Node30</title>
<g id="a_node30"><a xlink:href="a00075.html#a6dfca5e2723ca3a11d12fe545e69923e" target="_top" xlink:title="hpd_adapter_id_free">
<polygon fill="none" stroke="black" points="612.5,-310.5 612.5,-329.5 716.5,-329.5 716.5,-310.5 612.5,-310.5"/>
<text text-anchor="middle" x="664.5" y="-317.5" font-family="Helvetica,sans-Serif" font-size="10.00">hpd_adapter_id_free</text>
</a>
</g>
</g>
<!-- Node16&#45;&gt;Node30 -->
<g id="edge39" class="edge"><title>Node16&#45;&gt;Node30</title>
<path fill="none" stroke="midnightblue" d="M555.15,-307.012C570.104,-308.804 586.664,-310.789 602.243,-312.657"/>
<polygon fill="midnightblue" stroke="midnightblue" points="601.968,-316.149 612.313,-313.864 602.801,-309.199 601.968,-316.149"/>
</g>
<!-- Node32 -->
<g id="node32" class="node"><title>Node32</title>
<g id="a_node32"><a xlink:href="a00034.html#a987ed5bf58c296df5d6f2afb93d44d4f" target="_top" xlink:title="rest_url_encode">
<polygon fill="none" stroke="black" points="621.5,-234.5 621.5,-253.5 707.5,-253.5 707.5,-234.5 621.5,-234.5"/>
<text text-anchor="middle" x="664.5" y="-241.5" font-family="Helvetica,sans-Serif" font-size="10.00">rest_url_encode</text>
</a>
</g>
</g>
<!-- Node16&#45;&gt;Node32 -->
<g id="edge42" class="edge"><title>Node16&#45;&gt;Node32</title>
<path fill="none" stroke="midnightblue" d="M527.948,-291.458C547.491,-283.465 576.392,-271.958 602,-263 608.161,-260.845 614.712,-258.684 621.154,-256.633"/>
<polygon fill="midnightblue" stroke="midnightblue" points="622.618,-259.842 631.116,-253.515 620.527,-253.161 622.618,-259.842"/>
</g>
<!-- Node18 -->
<g id="node18" class="node"><title>Node18</title>
<g id="a_node18"><a xlink:href="a00020.html#a6f562c4265080ac8d026ac15e9d042b1" target="_top" xlink:title="discovery_get_service\l_adapter">
<polygon fill="none" stroke="black" points="775.5,-375 775.5,-405 889.5,-405 889.5,-375 775.5,-375"/>
<text text-anchor="start" x="783.5" y="-393" font-family="Helvetica,sans-Serif" font-size="10.00">discovery_get_service</text>
<text text-anchor="middle" x="832.5" y="-382" font-family="Helvetica,sans-Serif" font-size="10.00">_adapter</text>
</a>
</g>
</g>
<!-- Node17&#45;&gt;Node18 -->
<g id="edge21" class="edge"><title>Node17&#45;&gt;Node18</title>
<path fill="none" stroke="midnightblue" d="M727.312,-393.766C739.627,-393.321 752.609,-392.851 765.071,-392.401"/>
<polygon fill="midnightblue" stroke="midnightblue" points="765.523,-395.887 775.39,-392.028 765.27,-388.892 765.523,-395.887"/>
</g>
<!-- Node19 -->
<g id="node19" class="node"><title>Node19</title>
<g id="a_node19"><a xlink:href="a00080.html#a1915dc6bbbb6b1a2a587723caa22069d" target="_top" xlink:title="discovery_alloc_aid">
<polygon fill="none" stroke="black" points="938,-386.5 938,-405.5 1040,-405.5 1040,-386.5 938,-386.5"/>
<text text-anchor="middle" x="989" y="-393.5" font-family="Helvetica,sans-Serif" font-size="10.00">discovery_alloc_aid</text>
</a>
</g>
</g>
<!-- Node18&#45;&gt;Node19 -->
<g id="edge22" class="edge"><title>Node18&#45;&gt;Node19</title>
<path fill="none" stroke="midnightblue" d="M889.715,-392.183C902.05,-392.662 915.16,-393.171 927.651,-393.656"/>
<polygon fill="midnightblue" stroke="midnightblue" points="927.838,-397.166 937.966,-394.057 928.109,-390.171 927.838,-397.166"/>
</g>
<!-- Node20 -->
<g id="node20" class="node"><title>Node20</title>
<g id="a_node20"><a xlink:href="a00080.html#af2f553cfc3af4678b87a8fc75f35a5c6" target="_top" xlink:title="HPD_E_ALLOC: id might be partially updated. ">
<polygon fill="none" stroke="black" points="1210,-386.5 1210,-405.5 1305,-405.5 1305,-386.5 1210,-386.5"/>
<text text-anchor="middle" x="1257.5" y="-393.5" font-family="Helvetica,sans-Serif" font-size="10.00">discovery_set_aid</text>
</a>
</g>
</g>
<!-- Node19&#45;&gt;Node20 -->
<g id="edge23" class="edge"><title>Node19&#45;&gt;Node20</title>
<path fill="none" stroke="midnightblue" d="M1024.86,-405.508C1040.39,-409.273 1058.98,-413.142 1076,-415 1119.3,-419.726 1130.72,-419.919 1174,-415 1186.91,-413.533 1200.73,-410.815 1213.31,-407.884"/>
<polygon fill="midnightblue" stroke="midnightblue" points="1214.19,-411.271 1223.08,-405.507 1212.54,-404.469 1214.19,-411.271"/>
</g>
<!-- Node21 -->
<g id="node21" class="node"><title>Node21</title>
<g id="a_node21"><a xlink:href="a00080.html#a2bd026e829a41663810ae68fa3797987" target="_top" xlink:title="discovery_free_aid">
<polygon fill="none" stroke="black" points="1076,-386.5 1076,-405.5 1174,-405.5 1174,-386.5 1076,-386.5"/>
<text text-anchor="middle" x="1125" y="-393.5" font-family="Helvetica,sans-Serif" font-size="10.00">discovery_free_aid</text>
</a>
</g>
</g>
<!-- Node19&#45;&gt;Node21 -->
<g id="edge24" class="edge"><title>Node19&#45;&gt;Node21</title>
<path fill="none" stroke="midnightblue" d="M1040.28,-396C1048.51,-396 1057.11,-396 1065.52,-396"/>
<polygon fill="midnightblue" stroke="midnightblue" points="1065.66,-399.5 1075.66,-396 1065.66,-392.5 1065.66,-399.5"/>
</g>
<!-- Node21&#45;&gt;Node22 -->
<g id="edge25" class="edge"><title>Node21&#45;&gt;Node22</title>
<path fill="none" stroke="midnightblue" d="M1157.6,-386.471C1163.38,-383.924 1169.12,-380.795 1174,-377 1207.91,-350.649 1234.15,-306.736 1247.26,-281.804"/>
<polygon fill="midnightblue" stroke="midnightblue" points="1250.49,-283.173 1251.92,-272.675 1244.26,-279.991 1250.49,-283.173"/>
</g>
<!-- Node24 -->
<g id="node24" class="node"><title>Node24</title>
<g id="a_node24"><a xlink:href="a00020.html#a13836bde11385c514c661edc269fe122" target="_top" xlink:title="discovery_get_service\l_device">
<polygon fill="none" stroke="black" points="775.5,-326 775.5,-356 889.5,-356 889.5,-326 775.5,-326"/>
<text text-anchor="start" x="783.5" y="-344" font-family="Helvetica,sans-Serif" font-size="10.00">discovery_get_service</text>
<text text-anchor="middle" x="832.5" y="-333" font-family="Helvetica,sans-Serif" font-size="10.00">_device</text>
</a>
</g>
</g>
<!-- Node23&#45;&gt;Node24 -->
<g id="edge27" class="edge"><title>Node23&#45;&gt;Node24</title>
<path fill="none" stroke="midnightblue" d="M725.899,-351.815C738.627,-350.511 752.122,-349.129 765.058,-347.804"/>
<polygon fill="midnightblue" stroke="midnightblue" points="765.696,-351.257 775.287,-346.757 764.983,-344.294 765.696,-351.257"/>
</g>
<!-- Node25 -->
<g id="node25" class="node"><title>Node25</title>
<g id="a_node25"><a xlink:href="a00080.html#aebd10ac1c18be51340c39d6d5a54e6d1" target="_top" xlink:title="discovery_alloc_did">
<polygon fill="none" stroke="black" points="938,-331.5 938,-350.5 1040,-350.5 1040,-331.5 938,-331.5"/>
<text text-anchor="middle" x="989" y="-338.5" font-family="Helvetica,sans-Serif" font-size="10.00">discovery_alloc_did</text>
</a>
</g>
</g>
<!-- Node24&#45;&gt;Node25 -->
<g id="edge28" class="edge"><title>Node24&#45;&gt;Node25</title>
<path fill="none" stroke="midnightblue" d="M889.715,-341C902.05,-341 915.16,-341 927.651,-341"/>
<polygon fill="midnightblue" stroke="midnightblue" points="927.966,-344.5 937.966,-341 927.966,-337.5 927.966,-344.5"/>
</g>
<!-- Node26 -->
<g id="node26" class="node"><title>Node26</title>
<g id="a_node26"><a xlink:href="a00080.html#acd5e8c2bf3e761abc7e2fd2294238a74" target="_top" xlink:title="HPD_E_ALLOC: id might be partially updated. ">
<polygon fill="none" stroke="black" points="1077.5,-348.5 1077.5,-367.5 1172.5,-367.5 1172.5,-348.5 1077.5,-348.5"/>
<text text-anchor="middle" x="1125" y="-355.5" font-family="Helvetica,sans-Serif" font-size="10.00">discovery_set_did</text>
</a>
</g>
</g>
<!-- Node25&#45;&gt;Node26 -->
<g id="edge29" class="edge"><title>Node25&#45;&gt;Node26</title>
<path fill="none" stroke="midnightblue" d="M1040.28,-347.379C1049.13,-348.501 1058.39,-349.677 1067.4,-350.819"/>
<polygon fill="midnightblue" stroke="midnightblue" points="1067.06,-354.305 1077.42,-352.091 1067.94,-347.36 1067.06,-354.305"/>
</g>
<!-- Node27 -->
<g id="node27" class="node"><title>Node27</title>
<g id="a_node27"><a xlink:href="a00080.html#ae1a000b225c8b3f365c2cec8362b8483" target="_top" xlink:title="discovery_free_did">
<polygon fill="none" stroke="black" points="1076,-310.5 1076,-329.5 1174,-329.5 1174,-310.5 1076,-310.5"/>
<text text-anchor="middle" x="1125" y="-317.5" font-family="Helvetica,sans-Serif" font-size="10.00">discovery_free_did</text>
</a>
</g>
</g>
<!-- Node25&#45;&gt;Node27 -->
<g id="edge31" class="edge"><title>Node25&#45;&gt;Node27</title>
<path fill="none" stroke="midnightblue" d="M1040.28,-333.121C1048.51,-331.83 1057.11,-330.483 1065.52,-329.164"/>
<polygon fill="midnightblue" stroke="midnightblue" points="1066.32,-332.582 1075.66,-327.575 1065.24,-325.666 1066.32,-332.582"/>
</g>
<!-- Node26&#45;&gt;Node20 -->
<g id="edge30" class="edge"><title>Node26&#45;&gt;Node20</title>
<path fill="none" stroke="midnightblue" d="M1158.93,-367.589C1175.62,-372.449 1196.09,-378.409 1213.96,-383.613"/>
<polygon fill="midnightblue" stroke="midnightblue" points="1213,-386.979 1223.58,-386.414 1214.96,-380.258 1213,-386.979"/>
</g>
<!-- Node27&#45;&gt;Node22 -->
<g id="edge32" class="edge"><title>Node27&#45;&gt;Node22</title>
<path fill="none" stroke="midnightblue" d="M1147.84,-310.459C1170.93,-300.376 1207.28,-284.498 1231.5,-273.921"/>
<polygon fill="midnightblue" stroke="midnightblue" points="1232.99,-277.09 1240.75,-269.88 1230.18,-270.675 1232.99,-277.09"/>
</g>
<!-- Node29 -->
<g id="node29" class="node"><title>Node29</title>
<g id="a_node29"><a xlink:href="a00020.html#ae1a000b225c8b3f365c2cec8362b8483" target="_top" xlink:title="discovery_free_did">
<polygon fill="none" stroke="black" points="940,-236.5 940,-255.5 1038,-255.5 1038,-236.5 940,-236.5"/>
<text text-anchor="middle" x="989" y="-243.5" font-family="Helvetica,sans-Serif" font-size="10.00">discovery_free_did</text>
</a>
</g>
</g>
<!-- Node28&#45;&gt;Node29 -->
<g id="edge37" class="edge"><title>Node28&#45;&gt;Node29</title>
<path fill="none" stroke="midnightblue" d="M715.184,-276.454C772.974,-270.003 868.264,-259.366 929.558,-252.524"/>
<polygon fill="midnightblue" stroke="midnightblue" points="930.291,-255.964 939.841,-251.376 929.514,-249.007 930.291,-255.964"/>
</g>
<!-- Node29&#45;&gt;Node22 -->
<g id="edge38" class="edge"><title>Node29&#45;&gt;Node22</title>
<path fill="none" stroke="midnightblue" d="M1038.26,-249.079C1094.68,-252.677 1185.98,-258.502 1230.47,-261.339"/>
<polygon fill="midnightblue" stroke="midnightblue" points="1230.52,-264.85 1240.72,-261.993 1230.96,-257.864 1230.52,-264.85"/>
</g>
<!-- Node31 -->
<g id="node31" class="node"><title>Node31</title>
<g id="a_node31"><a xlink:href="a00020.html#a2bd026e829a41663810ae68fa3797987" target="_top" xlink:title="discovery_free_aid">
<polygon fill="none" stroke="black" points="940,-278.5 940,-297.5 1038,-297.5 1038,-278.5 940,-278.5"/>
<text text-anchor="middle" x="989" y="-285.5" font-family="Helvetica,sans-Serif" font-size="10.00">discovery_free_aid</text>
</a>
</g>
</g>
<!-- Node30&#45;&gt;Node31 -->
<g id="edge40" class="edge"><title>Node30&#45;&gt;Node31</title>
<path fill="none" stroke="midnightblue" d="M716.601,-314.93C774.525,-309.182 868.774,-299.83 929.57,-293.798"/>
<polygon fill="midnightblue" stroke="midnightblue" points="930.166,-297.256 939.772,-292.785 929.475,-290.29 930.166,-297.256"/>
</g>
<!-- Node31&#45;&gt;Node22 -->
<g id="edge41" class="edge"><title>Node31&#45;&gt;Node22</title>
<path fill="none" stroke="midnightblue" d="M1038.26,-283.473C1094.8,-278.169 1186.37,-269.579 1230.75,-265.416"/>
<polygon fill="midnightblue" stroke="midnightblue" points="1231.09,-268.899 1240.72,-264.48 1230.44,-261.93 1231.09,-268.899"/>
</g>
<!-- Node34 -->
<g id="node34" class="node"><title>Node34</title>
<g id="a_node34"><a xlink:href="a00078.html#a16b425a49499b003e1f23b1cf2ea923d" target="_top" xlink:title="discovery_get_action\l_method">
<polygon fill="none" stroke="black" points="610,-71 610,-101 719,-101 719,-71 610,-71"/>
<text text-anchor="start" x="618" y="-89" font-family="Helvetica,sans-Serif" font-size="10.00">discovery_get_action</text>
<text text-anchor="middle" x="664.5" y="-78" font-family="Helvetica,sans-Serif" font-size="10.00">_method</text>
</a>
</g>
</g>
<!-- Node33&#45;&gt;Node34 -->
<g id="edge46" class="edge"><title>Node33&#45;&gt;Node34</title>
<path fill="none" stroke="midnightblue" d="M564.02,-87.8829C575.66,-87.6626 587.925,-87.4304 599.715,-87.2073"/>
<polygon fill="midnightblue" stroke="midnightblue" points="599.994,-90.7027 609.925,-87.014 599.861,-83.704 599.994,-90.7027"/>
</g>
<!-- Node35&#45;&gt;Node5 -->
<g id="edge52" class="edge"><title>Node35&#45;&gt;Node5</title>
<path fill="none" stroke="midnightblue" d="M535.529,-405.506C545.612,-409.289 556.638,-414.151 566,-420 584.408,-431.5 583.148,-442.243 602,-453 652.433,-481.778 677.612,-460.463 727,-491 746.788,-503.235 743.064,-517.009 763,-529 769.767,-533.07 777.43,-536.292 785.119,-538.837"/>
<polygon fill="midnightblue" stroke="midnightblue" points="784.225,-542.222 794.807,-541.71 786.215,-535.511 784.225,-542.222"/>
</g>
<!-- Node35&#45;&gt;Node6 -->
<g id="edge53" class="edge"><title>Node35&#45;&gt;Node6</title>
<path fill="none" stroke="midnightblue" d="M541.219,-405.504C550.016,-409.029 558.918,-413.749 566,-420 591.051,-442.111 576.919,-463.924 602,-486 606.519,-489.978 611.774,-493.334 617.271,-496.156"/>
<polygon fill="midnightblue" stroke="midnightblue" points="616.112,-499.473 626.665,-500.416 619.003,-493.098 616.112,-499.473"/>
</g>
<!-- Node36 -->
<g id="node36" class="node"><title>Node36</title>
<g id="a_node36"><a xlink:href="a00075.html#a40fef652549700bdbd8050b2e0023722" target="_top" xlink:title="[hpd_service_t functions] ">
<polygon fill="none" stroke="black" points="608,-424.5 608,-443.5 721,-443.5 721,-424.5 608,-424.5"/>
<text text-anchor="middle" x="664.5" y="-431.5" font-family="Helvetica,sans-Serif" font-size="10.00">hpd_parameter_get_id</text>
</a>
</g>
</g>
<!-- Node35&#45;&gt;Node36 -->
<g id="edge49" class="edge"><title>Node35&#45;&gt;Node36</title>
<path fill="none" stroke="midnightblue" d="M544.996,-405.589C565.912,-410.604 591.708,-416.788 613.886,-422.105"/>
<polygon fill="midnightblue" stroke="midnightblue" points="613.251,-425.552 623.791,-424.48 614.883,-418.745 613.251,-425.552"/>
</g>
<!-- Node37 -->
<g id="node37" class="node"><title>Node37</title>
<g id="a_node37"><a xlink:href="a00020.html#aac3897ffde835ef54f9289037159307f" target="_top" xlink:title="discovery_find_parameter">
<polygon fill="none" stroke="black" points="768.5,-462.5 768.5,-481.5 896.5,-481.5 896.5,-462.5 768.5,-462.5"/>
<text text-anchor="middle" x="832.5" y="-469.5" font-family="Helvetica,sans-Serif" font-size="10.00">discovery_find_parameter</text>
</a>
</g>
</g>
<!-- Node36&#45;&gt;Node37 -->
<g id="edge50" class="edge"><title>Node36&#45;&gt;Node37</title>
<path fill="none" stroke="midnightblue" d="M707.389,-443.589C729.393,-448.626 756.555,-454.844 779.852,-460.177"/>
<polygon fill="midnightblue" stroke="midnightblue" points="779.384,-463.66 789.912,-462.48 780.946,-456.837 779.384,-463.66"/>
</g>
<!-- Node38 -->
<g id="node38" class="node"><title>Node38</title>
<g id="a_node38"><a xlink:href="a00078.html#a38635fc999dfcdb5d1273a3aed037fbf" target="_top" xlink:title="discovery_get_parameter_id">
<polygon fill="none" stroke="black" points="763,-424.5 763,-443.5 902,-443.5 902,-424.5 763,-424.5"/>
<text text-anchor="middle" x="832.5" y="-431.5" font-family="Helvetica,sans-Serif" font-size="10.00">discovery_get_parameter_id</text>
</a>
</g>
</g>
<!-- Node36&#45;&gt;Node38 -->
<g id="edge51" class="edge"><title>Node36&#45;&gt;Node38</title>
<path fill="none" stroke="midnightblue" d="M721.237,-434C731.373,-434 742.119,-434 752.771,-434"/>
<polygon fill="midnightblue" stroke="midnightblue" points="752.931,-437.5 762.931,-434 752.931,-430.5 752.931,-437.5"/>
</g>
</g>
</svg>
