<?xml version="1.0" encoding="UTF-8" standalone="no"?>
<!DOCTYPE svg PUBLIC "-//W3C//DTD SVG 1.1//EN"
 "http://www.w3.org/Graphics/SVG/1.1/DTD/svg11.dtd">
<!-- Generated by graphviz version 2.38.0 (20140413.2041)
 -->
<!-- Title: tcpd_on_ev_send Pages: 1 -->
<svg width="306pt" height="47pt"
 viewBox="0.00 0.00 306.00 47.00" xmlns="http://www.w3.org/2000/svg" xmlns:xlink="http://www.w3.org/1999/xlink">
<g id="graph0" class="graph" transform="scale(1 1) rotate(0) translate(4 43)">
<title>tcpd_on_ev_send</title>
<!-- Node1 -->
<g id="node1" class="node"><title>Node1</title>
<polygon fill="#bfbfbf" stroke="black" points="0,-19.5 0,-38.5 93,-38.5 93,-19.5 0,-19.5"/>
<text text-anchor="middle" x="46.5" y="-26.5" font-family="Helvetica,sans-Serif" font-size="10.00">tcpd_on_ev_send</text>
</g>
<!-- Node2 -->
<g id="node2" class="node"><title>Node2</title>
<g id="a_node2"><a xlink:href="a00012.html#adf46370d9c211c3be22966b4606ba9b0" target="_top" xlink:title="free">
<polygon fill="none" stroke="black" points="265,-19.5 265,-38.5 298,-38.5 298,-19.5 265,-19.5"/>
<text text-anchor="middle" x="281.5" y="-26.5" font-family="Helvetica,sans-Serif" font-size="10.00">free</text>
</a>
</g>
</g>
<!-- Node1&#45;&gt;Node2 -->
<g id="edge1" class="edge"><title>Node1&#45;&gt;Node2</title>
<path fill="none" stroke="midnightblue" d="M93.2553,-29C141.487,-29 215.756,-29 254.679,-29"/>
<polygon fill="midnightblue" stroke="midnightblue" points="254.891,-32.5001 264.891,-29 254.891,-25.5001 254.891,-32.5001"/>
</g>
<!-- Node3 -->
<g id="node3" class="node"><title>Node3</title>
<g id="a_node3"><a xlink:href="a00059.html#a58068e1a4c60b401bc6fc99c25e9a3f6" target="_top" xlink:title="Kill and clean up after a connection. ">
<polygon fill="none" stroke="black" points="129,-0.5 129,-19.5 229,-19.5 229,-0.5 129,-0.5"/>
<text text-anchor="middle" x="179" y="-7.5" font-family="Helvetica,sans-Serif" font-size="10.00">hpd_tcpd_conn_kill</text>
</a>
</g>
</g>
<!-- Node1&#45;&gt;Node3 -->
<g id="edge2" class="edge"><title>Node1&#45;&gt;Node3</title>
<path fill="none" stroke="midnightblue" d="M93.1426,-22.3547C101.384,-21.1548 110.085,-19.888 118.65,-18.641"/>
<polygon fill="midnightblue" stroke="midnightblue" points="119.214,-22.0959 128.605,-17.1915 118.205,-15.1689 119.214,-22.0959"/>
</g>
<!-- Node3&#45;&gt;Node2 -->
<g id="edge3" class="edge"><title>Node3&#45;&gt;Node2</title>
<path fill="none" stroke="midnightblue" d="M229.072,-19.2774C237.979,-20.9612 246.935,-22.6543 254.82,-24.1451"/>
<polygon fill="midnightblue" stroke="midnightblue" points="254.328,-27.6139 264.804,-26.0326 255.628,-20.7358 254.328,-27.6139"/>
</g>
</g>
</svg>
