<?xml version="1.0" encoding="UTF-8" standalone="no"?>
<!DOCTYPE svg PUBLIC "-//W3C//DTD SVG 1.1//EN"
 "http://www.w3.org/Graphics/SVG/1.1/DTD/svg11.dtd">
<!-- Generated by graphviz version 2.38.0 (20140413.2041)
 -->
<!-- Title: curl_ev_get_stopped_watcher Pages: 1 -->
<svg width="651pt" height="113pt"
 viewBox="0.00 0.00 651.00 113.00" xmlns="http://www.w3.org/2000/svg" xmlns:xlink="http://www.w3.org/1999/xlink">
<g id="graph0" class="graph" transform="scale(1 1) rotate(0) translate(4 109)">
<title>curl_ev_get_stopped_watcher</title>
<!-- Node1 -->
<g id="node1" class="node"><title>Node1</title>
<polygon fill="#bfbfbf" stroke="black" points="0,-69 0,-99 107,-99 107,-69 0,-69"/>
<text text-anchor="start" x="8" y="-87" font-family="Helvetica,sans-Serif" font-size="10.00">curl_ev_get_stopped</text>
<text text-anchor="middle" x="53.5" y="-76" font-family="Helvetica,sans-Serif" font-size="10.00">_watcher</text>
</g>
<!-- Node2 -->
<g id="node2" class="node"><title>Node2</title>
<g id="a_node2"><a xlink:href="a00012.html#adf46370d9c211c3be22966b4606ba9b0" target="_top" xlink:title="free">
<polygon fill="none" stroke="black" points="580,-85.5 580,-104.5 613,-104.5 613,-85.5 580,-85.5"/>
<text text-anchor="middle" x="596.5" y="-92.5" font-family="Helvetica,sans-Serif" font-size="10.00">free</text>
</a>
</g>
</g>
<!-- Node1&#45;&gt;Node2 -->
<g id="edge1" class="edge"><title>Node1&#45;&gt;Node2</title>
<path fill="none" stroke="midnightblue" d="M107.19,-86.163C175.925,-88.8667 299.931,-93.3407 406,-95 464.43,-95.914 533.007,-95.5597 569.52,-95.257"/>
<polygon fill="midnightblue" stroke="midnightblue" points="569.807,-98.7547 579.776,-95.1662 569.745,-91.755 569.807,-98.7547"/>
</g>
<!-- Node3 -->
<g id="node3" class="node"><title>Node3</title>
<g id="a_node3"><a xlink:href="a00011.html#a6397c61c42e9a1418c14c6e6a973a965" target="_top" xlink:title="curl_ev_on_io">
<polygon fill="none" stroke="black" points="143,-44.5 143,-63.5 220,-63.5 220,-44.5 143,-44.5"/>
<text text-anchor="middle" x="181.5" y="-51.5" font-family="Helvetica,sans-Serif" font-size="10.00">curl_ev_on_io</text>
</a>
</g>
</g>
<!-- Node1&#45;&gt;Node3 -->
<g id="edge2" class="edge"><title>Node1&#45;&gt;Node3</title>
<path fill="none" stroke="midnightblue" d="M107.205,-71.4511C115.833,-69.3969 124.725,-67.2797 133.211,-65.2592"/>
<polygon fill="midnightblue" stroke="midnightblue" points="134.029,-68.6624 142.946,-62.9413 132.408,-61.8528 134.029,-68.6624"/>
</g>
<!-- Node4 -->
<g id="node4" class="node"><title>Node4</title>
<g id="a_node4"><a xlink:href="a00011.html#a30f7e7259072d4e929092bf994dd0f7e" target="_top" xlink:title="curl_ev_socket_action">
<polygon fill="none" stroke="black" points="256,-33.5 256,-52.5 370,-52.5 370,-33.5 256,-33.5"/>
<text text-anchor="middle" x="313" y="-40.5" font-family="Helvetica,sans-Serif" font-size="10.00">curl_ev_socket_action</text>
</a>
</g>
</g>
<!-- Node3&#45;&gt;Node4 -->
<g id="edge3" class="edge"><title>Node3&#45;&gt;Node4</title>
<path fill="none" stroke="midnightblue" d="M220.305,-50.7888C228.246,-50.1142 236.846,-49.3837 245.488,-48.6497"/>
<polygon fill="midnightblue" stroke="midnightblue" points="245.947,-52.1234 255.614,-47.7895 245.354,-45.1485 245.947,-52.1234"/>
</g>
<!-- Node5 -->
<g id="node5" class="node"><title>Node5</title>
<g id="a_node5"><a xlink:href="a00011.html#a51a40a6c8c1a8ecd90e288ab02687ad3" target="_top" xlink:title="hpd_curl_ev_remove\l_handle">
<polygon fill="none" stroke="black" points="406.5,-17 406.5,-47 513.5,-47 513.5,-17 406.5,-17"/>
<text text-anchor="start" x="414.5" y="-35" font-family="Helvetica,sans-Serif" font-size="10.00">hpd_curl_ev_remove</text>
<text text-anchor="middle" x="460" y="-24" font-family="Helvetica,sans-Serif" font-size="10.00">_handle</text>
</a>
</g>
</g>
<!-- Node4&#45;&gt;Node5 -->
<g id="edge4" class="edge"><title>Node4&#45;&gt;Node5</title>
<path fill="none" stroke="midnightblue" d="M370.061,-38.7471C378.653,-38.0953 387.57,-37.4188 396.294,-36.757"/>
<polygon fill="midnightblue" stroke="midnightblue" points="396.71,-40.2356 406.416,-35.9891 396.18,-33.2557 396.71,-40.2356"/>
</g>
<!-- Node7 -->
<g id="node7" class="node"><title>Node7</title>
<g id="a_node7"><a xlink:href="a00043.html#aad3ddbb29440b4b7b4f1266c0432c60c" target="_top" xlink:title="hpd_curl_ev_cleanup">
<polygon fill="none" stroke="black" points="406,-66.5 406,-85.5 514,-85.5 514,-66.5 406,-66.5"/>
<text text-anchor="middle" x="460" y="-73.5" font-family="Helvetica,sans-Serif" font-size="10.00">hpd_curl_ev_cleanup</text>
</a>
</g>
</g>
<!-- Node4&#45;&gt;Node7 -->
<g id="edge7" class="edge"><title>Node4&#45;&gt;Node7</title>
<path fill="none" stroke="midnightblue" d="M355.94,-52.545C371.871,-56.1706 390.212,-60.3447 406.964,-64.1574"/>
<polygon fill="midnightblue" stroke="midnightblue" points="406.627,-67.67 417.154,-66.4765 408.18,-60.8446 406.627,-67.67"/>
</g>
<!-- Node6 -->
<g id="node6" class="node"><title>Node6</title>
<g id="a_node6"><a xlink:href="a00011.html#a3f36a139b8cf22a41850235ce3a3c88c" target="_top" xlink:title="curl_ev_add_next">
<polygon fill="none" stroke="black" points="550,-0.5 550,-19.5 643,-19.5 643,-0.5 550,-0.5"/>
<text text-anchor="middle" x="596.5" y="-7.5" font-family="Helvetica,sans-Serif" font-size="10.00">curl_ev_add_next</text>
</a>
</g>
</g>
<!-- Node5&#45;&gt;Node6 -->
<g id="edge5" class="edge"><title>Node5&#45;&gt;Node6</title>
<path fill="none" stroke="midnightblue" d="M513.772,-23.3682C522.341,-21.9665 531.24,-20.511 539.875,-19.0986"/>
<polygon fill="midnightblue" stroke="midnightblue" points="540.551,-22.5346 549.854,-17.4662 539.421,-15.6264 540.551,-22.5346"/>
</g>
<!-- Node6&#45;&gt;Node4 -->
<g id="edge6" class="edge"><title>Node6&#45;&gt;Node4</title>
<path fill="none" stroke="midnightblue" d="M549.883,-4.17607C511.223,-0.451657 454.499,2.15117 406,-7 383.531,-11.2395 359.515,-20.8261 341.656,-29.0411"/>
<polygon fill="midnightblue" stroke="midnightblue" points="339.954,-25.9748 332.417,-33.4213 342.952,-32.3 339.954,-25.9748"/>
</g>
<!-- Node7&#45;&gt;Node2 -->
<g id="edge8" class="edge"><title>Node7&#45;&gt;Node2</title>
<path fill="none" stroke="midnightblue" d="M514.158,-83.5093C533.369,-86.2231 554.185,-89.1637 569.951,-91.3908"/>
<polygon fill="midnightblue" stroke="midnightblue" points="569.585,-94.8739 579.977,-92.8071 570.565,-87.9427 569.585,-94.8739"/>
</g>
</g>
</svg>
