<?xml version="1.0" encoding="UTF-8" standalone="no"?>
<!DOCTYPE svg PUBLIC "-//W3C//DTD SVG 1.1//EN"
 "http://www.w3.org/Graphics/SVG/1.1/DTD/svg11.dtd">
<!-- Generated by graphviz version 2.38.0 (20140413.2041)
 -->
<!-- Title: daemon_add_option Pages: 1 -->
<svg width="351pt" height="47pt"
 viewBox="0.00 0.00 351.00 47.00" xmlns="http://www.w3.org/2000/svg" xmlns:xlink="http://www.w3.org/1999/xlink">
<g id="graph0" class="graph" transform="scale(1 1) rotate(0) translate(4 43)">
<title>daemon_add_option</title>
<!-- Node1 -->
<g id="node1" class="node"><title>Node1</title>
<polygon fill="#bfbfbf" stroke="black" points="0,-0.5 0,-19.5 104,-19.5 104,-0.5 0,-0.5"/>
<text text-anchor="middle" x="52" y="-7.5" font-family="Helvetica,sans-Serif" font-size="10.00">daemon_add_option</text>
</g>
<!-- Node2 -->
<g id="node2" class="node"><title>Node2</title>
<g id="a_node2"><a xlink:href="a00076.html#a3da1c288975f0004839f81c07ad3bec2" target="_top" xlink:title="daemon_add_global_option">
<polygon fill="none" stroke="black" points="140,-19.5 140,-38.5 274,-38.5 274,-19.5 140,-19.5"/>
<text text-anchor="middle" x="207" y="-26.5" font-family="Helvetica,sans-Serif" font-size="10.00">daemon_add_global_option</text>
</a>
</g>
</g>
<!-- Node1&#45;&gt;Node2 -->
<g id="edge1" class="edge"><title>Node1&#45;&gt;Node2</title>
<path fill="none" stroke="midnightblue" d="M104.372,-16.3796C112.546,-17.3946 121.151,-18.4632 129.751,-19.5312"/>
<polygon fill="midnightblue" stroke="midnightblue" points="129.464,-23.0223 139.819,-20.7815 130.327,-16.0757 129.464,-23.0223"/>
</g>
<!-- Node3 -->
<g id="node3" class="node"><title>Node3</title>
<g id="a_node3"><a xlink:href="a00012.html#adf46370d9c211c3be22966b4606ba9b0" target="_top" xlink:title="free">
<polygon fill="none" stroke="black" points="310,-0.5 310,-19.5 343,-19.5 343,-0.5 310,-0.5"/>
<text text-anchor="middle" x="326.5" y="-7.5" font-family="Helvetica,sans-Serif" font-size="10.00">free</text>
</a>
</g>
</g>
<!-- Node1&#45;&gt;Node3 -->
<g id="edge3" class="edge"><title>Node1&#45;&gt;Node3</title>
<path fill="none" stroke="midnightblue" d="M104.255,-10C162.509,-10 255.276,-10 299.89,-10"/>
<polygon fill="midnightblue" stroke="midnightblue" points="299.897,-13.5001 309.897,-10 299.897,-6.5001 299.897,-13.5001"/>
</g>
<!-- Node2&#45;&gt;Node3 -->
<g id="edge2" class="edge"><title>Node2&#45;&gt;Node3</title>
<path fill="none" stroke="midnightblue" d="M267.094,-19.4443C278.554,-17.5912 289.997,-15.741 299.677,-14.1756"/>
<polygon fill="midnightblue" stroke="midnightblue" points="300.453,-17.5957 309.766,-12.5442 299.335,-10.6855 300.453,-17.5957"/>
</g>
</g>
</svg>
