<?xml version="1.0" encoding="UTF-8" standalone="no"?>
<!DOCTYPE svg PUBLIC "-//W3C//DTD SVG 1.1//EN"
 "http://www.w3.org/Graphics/SVG/1.1/DTD/svg11.dtd">
<!-- Generated by graphviz version 2.38.0 (20140413.2041)
 -->
<!-- Title: event_changed Pages: 1 -->
<!--zoomable 294 -->
<svg id="main" version="1.1" xmlns="http://www.w3.org/2000/svg" xmlns:xlink="http://www.w3.org/1999/xlink" xml:space="preserve" onload="init(evt)">
<style type="text/css"><![CDATA[
.edge:hover path { stroke: red; }
.edge:hover polygon { stroke: red; fill: red; }
]]></style>
<script type="text/javascript"><![CDATA[
var edges = document.getElementsByTagName('g');
if (edges && edges.length) {
  for (var i=0;i<edges.length;i++) {
    if (edges[i].id.substr(0,4)=='edge') {
      edges[i].setAttribute('class','edge');
    }
  }
}
]]></script>
        <defs>
                <circle id="rim" cx="0" cy="0" r="7"/>
                <circle id="rim2" cx="0" cy="0" r="3.5"/>
                <g id="zoomPlus">
                        <use xlink:href="#rim" fill="#404040">
                                <set attributeName="fill" to="#808080" begin="zoomplus.mouseover" end="zoomplus.mouseout"/>
                        </use>
                        <path d="M-4,0h8M0,-4v8" fill="none" stroke="white" stroke-width="1.5" pointer-events="none"/>
                </g>
                <g id="zoomMin">
                        <use xlink:href="#rim" fill="#404040">
                                <set attributeName="fill" to="#808080" begin="zoomminus.mouseover" end="zoomminus.mouseout"/>
                        </use>
                        <path d="M-4,0h8" fill="none" stroke="white" stroke-width="1.5" pointer-events="none"/>
                </g>
                <g id="dirArrow">
                        <path fill="none" stroke="white" stroke-width="1.5" d="M0,-3.0v7 M-2.5,-0.5L0,-3.0L2.5,-0.5"/>
                </g>
               <g id="resetDef">
                       <use xlink:href="#rim2" fill="#404040">
                               <set attributeName="fill" to="#808080" begin="reset.mouseover" end="reset.mouseout"/>
                       </use>
               </g>
        </defs>

<script type="text/javascript">
var viewWidth = 767;
var viewHeight = 294;
var sectionId = 'dynsection-3';
</script>
<script xlink:href="svgpan.js"/>
<svg id="graph" class="graph">
<g id="viewport">
<title>event_changed</title>
<!-- Node1 -->
<g id="node1" class="node"><title>Node1</title>
<polygon fill="#bfbfbf" stroke="black" points="0,-190.5 0,-209.5 83,-209.5 83,-190.5 0,-190.5"/>
<text text-anchor="middle" x="41.5" y="-197.5" font-family="Helvetica,sans-Serif" font-size="10.00">event_changed</text>
</g>
<!-- Node2 -->
<g id="node2" class="node"><title>Node2</title>
<g id="a_node2"><a xlink:href="a00011.html#a5c32745b982186a9c70944b87470fa32" target="_top" xlink:title="discovery_copy_sid">
<polygon fill="none" stroke="black" points="119,-228.5 119,-247.5 222,-247.5 222,-228.5 119,-228.5"/>
<text text-anchor="middle" x="170.5" y="-235.5" font-family="Helvetica,sans-Serif" font-size="10.00">discovery_copy_sid</text>
</a>
</g>
</g>
<!-- Node1&#45;&gt;Node2 -->
<g id="edge1" class="edge"><title>Node1&#45;&gt;Node2</title>
<path fill="none" stroke="midnightblue" d="M74.5475,-209.589C90.6411,-214.404 110.341,-220.299 127.617,-225.468"/>
<polygon fill="midnightblue" stroke="midnightblue" points="126.879,-228.901 137.463,-228.414 128.886,-222.194 126.879,-228.901"/>
</g>
<!-- Node8 -->
<g id="node8" class="node"><title>Node8</title>
<g id="a_node8"><a xlink:href="a00006.html#adf46370d9c211c3be22966b4606ba9b0" target="_top" xlink:title="free">
<polygon fill="none" stroke="black" points="695,-114.5 695,-133.5 728,-133.5 728,-114.5 695,-114.5"/>
<text text-anchor="middle" x="711.5" y="-121.5" font-family="Helvetica,sans-Serif" font-size="10.00">free</text>
</a>
</g>
</g>
<!-- Node1&#45;&gt;Node8 -->
<g id="edge18" class="edge"><title>Node1&#45;&gt;Node8</title>
<path fill="none" stroke="midnightblue" d="M83.4347,-200C135.582,-200 228.488,-200 308,-200 308,-200 308,-200 446,-200 537.25,-200 639.562,-157.7 685.643,-136.215"/>
<polygon fill="midnightblue" stroke="midnightblue" points="687.317,-139.295 694.852,-131.847 684.317,-132.971 687.317,-139.295"/>
</g>
<!-- Node9 -->
<g id="node9" class="node"><title>Node9</title>
<g id="a_node9"><a xlink:href="a00066.html#a6374d2e83db65d351dbf00869fbe8e76" target="_top" xlink:title="on_changed">
<polygon fill="none" stroke="black" points="136,-133.5 136,-152.5 205,-152.5 205,-133.5 136,-133.5"/>
<text text-anchor="middle" x="170.5" y="-140.5" font-family="Helvetica,sans-Serif" font-size="10.00">on_changed</text>
</a>
</g>
</g>
<!-- Node1&#45;&gt;Node9 -->
<g id="edge8" class="edge"><title>Node1&#45;&gt;Node9</title>
<path fill="none" stroke="midnightblue" d="M63.7569,-190.459C84.27,-181.253 115.547,-167.215 138.769,-156.793"/>
<polygon fill="midnightblue" stroke="midnightblue" points="140.484,-159.86 148.174,-152.572 137.617,-153.473 140.484,-159.86"/>
</g>
<!-- Node3 -->
<g id="node3" class="node"><title>Node3</title>
<g id="a_node3"><a xlink:href="a00065.html#ac0d919fcb7633d9bf5d99cc7ad39fe2e" target="_top" xlink:title="discovery_alloc_sid">
<polygon fill="none" stroke="black" points="258,-228.5 258,-247.5 360,-247.5 360,-228.5 258,-228.5"/>
<text text-anchor="middle" x="309" y="-235.5" font-family="Helvetica,sans-Serif" font-size="10.00">discovery_alloc_sid</text>
</a>
</g>
</g>
<!-- Node2&#45;&gt;Node3 -->
<g id="edge2" class="edge"><title>Node2&#45;&gt;Node3</title>
<path fill="none" stroke="midnightblue" d="M222.328,-238C230.519,-238 239.068,-238 247.461,-238"/>
<polygon fill="midnightblue" stroke="midnightblue" points="247.585,-241.5 257.584,-238 247.584,-234.5 247.585,-241.5"/>
</g>
<!-- Node4 -->
<g id="node4" class="node"><title>Node4</title>
<g id="a_node4"><a xlink:href="a00065.html#a9788f216196637a4e9c0a0110e81bab1" target="_top" xlink:title="HPD_E_ALLOC: id might be partially updated. ">
<polygon fill="none" stroke="black" points="397.5,-266.5 397.5,-285.5 492.5,-285.5 492.5,-266.5 397.5,-266.5"/>
<text text-anchor="middle" x="445" y="-273.5" font-family="Helvetica,sans-Serif" font-size="10.00">discovery_set_sid</text>
</a>
</g>
</g>
<!-- Node3&#45;&gt;Node4 -->
<g id="edge3" class="edge"><title>Node3&#45;&gt;Node4</title>
<path fill="none" stroke="midnightblue" d="M343.814,-247.589C361.033,-252.472 382.164,-258.464 400.573,-263.685"/>
<polygon fill="midnightblue" stroke="midnightblue" points="399.621,-267.053 410.197,-266.414 401.531,-260.319 399.621,-267.053"/>
</g>
<!-- Node7 -->
<g id="node7" class="node"><title>Node7</title>
<g id="a_node7"><a xlink:href="a00065.html#a8922de7d42124afa8ab5fd339fe695ee" target="_top" xlink:title="discovery_free_sid">
<polygon fill="none" stroke="black" points="530,-228.5 530,-247.5 628,-247.5 628,-228.5 530,-228.5"/>
<text text-anchor="middle" x="579" y="-235.5" font-family="Helvetica,sans-Serif" font-size="10.00">discovery_free_sid</text>
</a>
</g>
</g>
<!-- Node3&#45;&gt;Node7 -->
<g id="edge6" class="edge"><title>Node3&#45;&gt;Node7</title>
<path fill="none" stroke="midnightblue" d="M360.094,-238C405.402,-238 472.124,-238 519.787,-238"/>
<polygon fill="midnightblue" stroke="midnightblue" points="519.955,-241.5 529.955,-238 519.955,-234.5 519.955,-241.5"/>
</g>
<!-- Node5 -->
<g id="node5" class="node"><title>Node5</title>
<g id="a_node5"><a xlink:href="a00065.html#acd5e8c2bf3e761abc7e2fd2294238a74" target="_top" xlink:title="HPD_E_ALLOC: id might be partially updated. ">
<polygon fill="none" stroke="black" points="531.5,-266.5 531.5,-285.5 626.5,-285.5 626.5,-266.5 531.5,-266.5"/>
<text text-anchor="middle" x="579" y="-273.5" font-family="Helvetica,sans-Serif" font-size="10.00">discovery_set_did</text>
</a>
</g>
</g>
<!-- Node4&#45;&gt;Node5 -->
<g id="edge4" class="edge"><title>Node4&#45;&gt;Node5</title>
<path fill="none" stroke="midnightblue" d="M492.538,-276C501.805,-276 511.634,-276 521.199,-276"/>
<polygon fill="midnightblue" stroke="midnightblue" points="521.437,-279.5 531.437,-276 521.437,-272.5 521.437,-279.5"/>
</g>
<!-- Node6 -->
<g id="node6" class="node"><title>Node6</title>
<g id="a_node6"><a xlink:href="a00065.html#af2f553cfc3af4678b87a8fc75f35a5c6" target="_top" xlink:title="HPD_E_ALLOC: id might be partially updated. ">
<polygon fill="none" stroke="black" points="664,-266.5 664,-285.5 759,-285.5 759,-266.5 664,-266.5"/>
<text text-anchor="middle" x="711.5" y="-273.5" font-family="Helvetica,sans-Serif" font-size="10.00">discovery_set_aid</text>
</a>
</g>
</g>
<!-- Node5&#45;&gt;Node6 -->
<g id="edge5" class="edge"><title>Node5&#45;&gt;Node6</title>
<path fill="none" stroke="midnightblue" d="M626.745,-276C635.459,-276 644.654,-276 653.634,-276"/>
<polygon fill="midnightblue" stroke="midnightblue" points="653.643,-279.5 663.643,-276 653.643,-272.5 653.643,-279.5"/>
</g>
<!-- Node7&#45;&gt;Node8 -->
<g id="edge7" class="edge"><title>Node7&#45;&gt;Node8</title>
<path fill="none" stroke="midnightblue" d="M603.463,-228.376C611.611,-224.5 620.562,-219.611 628,-214 656.029,-192.858 682.324,-161.399 697.395,-141.823"/>
<polygon fill="midnightblue" stroke="midnightblue" points="700.262,-143.834 703.496,-133.745 694.676,-139.615 700.262,-143.834"/>
</g>
<!-- Node9&#45;&gt;Node8 -->
<g id="edge9" class="edge"><title>Node9&#45;&gt;Node8</title>
<path fill="none" stroke="midnightblue" d="M205.172,-144.919C221.171,-145.738 240.566,-146.597 258,-147 422.449,-150.8 464.374,-154.863 628,-138 647.204,-136.021 668.702,-132.324 684.937,-129.226"/>
<polygon fill="midnightblue" stroke="midnightblue" points="685.627,-132.657 694.768,-127.301 684.282,-125.788 685.627,-132.657"/>
</g>
<!-- Node10 -->
<g id="node10" class="node"><title>Node10</title>
<g id="a_node10"><a xlink:href="a00011.html#a8922de7d42124afa8ab5fd339fe695ee" target="_top" xlink:title="discovery_free_sid">
<polygon fill="none" stroke="black" points="396,-114.5 396,-133.5 494,-133.5 494,-114.5 396,-114.5"/>
<text text-anchor="middle" x="445" y="-121.5" font-family="Helvetica,sans-Serif" font-size="10.00">discovery_free_sid</text>
</a>
</g>
</g>
<!-- Node9&#45;&gt;Node10 -->
<g id="edge10" class="edge"><title>Node9&#45;&gt;Node10</title>
<path fill="none" stroke="midnightblue" d="M205.187,-140.651C250.136,-137.517 330.432,-131.918 385.407,-128.085"/>
<polygon fill="midnightblue" stroke="midnightblue" points="385.972,-131.555 395.704,-127.367 385.485,-124.572 385.972,-131.555"/>
</g>
<!-- Node11 -->
<g id="node11" class="node"><title>Node11</title>
<g id="a_node11"><a xlink:href="a00075.html#a1ec3b1d4547e5080bcec544c877852da" target="_top" xlink:title="value_free">
<polygon fill="none" stroke="black" points="278,-76.5 278,-95.5 340,-95.5 340,-76.5 278,-76.5"/>
<text text-anchor="middle" x="309" y="-83.5" font-family="Helvetica,sans-Serif" font-size="10.00">value_free</text>
</a>
</g>
</g>
<!-- Node9&#45;&gt;Node11 -->
<g id="edge12" class="edge"><title>Node9&#45;&gt;Node11</title>
<path fill="none" stroke="midnightblue" d="M194.347,-133.459C216.591,-124.171 250.612,-109.964 275.637,-99.5143"/>
<polygon fill="midnightblue" stroke="midnightblue" points="277.199,-102.655 285.078,-95.5716 274.502,-96.1953 277.199,-102.655"/>
</g>
<!-- Node10&#45;&gt;Node8 -->
<g id="edge11" class="edge"><title>Node10&#45;&gt;Node8</title>
<path fill="none" stroke="midnightblue" d="M494.206,-124C550.251,-124 640.679,-124 684.727,-124"/>
<polygon fill="midnightblue" stroke="midnightblue" points="684.878,-127.5 694.878,-124 684.878,-120.5 684.878,-127.5"/>
</g>
<!-- Node11&#45;&gt;Node8 -->
<g id="edge17" class="edge"><title>Node11&#45;&gt;Node8</title>
<path fill="none" stroke="midnightblue" d="M340.103,-88.8562C415.908,-96.0487 613.672,-114.813 684.662,-121.548"/>
<polygon fill="midnightblue" stroke="midnightblue" points="684.643,-125.062 694.929,-122.523 685.304,-118.094 684.643,-125.062"/>
</g>
<!-- Node12 -->
<g id="node12" class="node"><title>Node12</title>
<g id="a_node12"><a xlink:href="a00046.html#a195d511a075f2349200563af1c5d1fd7" target="_top" xlink:title="hpd_map_free">
<polygon fill="none" stroke="black" points="406,-38.5 406,-57.5 484,-57.5 484,-38.5 406,-38.5"/>
<text text-anchor="middle" x="445" y="-45.5" font-family="Helvetica,sans-Serif" font-size="10.00">hpd_map_free</text>
</a>
</g>
</g>
<!-- Node11&#45;&gt;Node12 -->
<g id="edge13" class="edge"><title>Node11&#45;&gt;Node12</title>
<path fill="none" stroke="midnightblue" d="M340.072,-77.4721C357.895,-72.4178 380.788,-65.9258 400.549,-60.3218"/>
<polygon fill="midnightblue" stroke="midnightblue" points="401.592,-63.6642 410.258,-57.5687 399.682,-56.9298 401.592,-63.6642"/>
</g>
<!-- Node12&#45;&gt;Node8 -->
<g id="edge16" class="edge"><title>Node12&#45;&gt;Node8</title>
<path fill="none" stroke="midnightblue" d="M484.061,-48.3083C521.676,-49.691 580.342,-54.7783 628,-72 651.377,-80.4474 675.074,-96.308 691.036,-108.301"/>
<polygon fill="midnightblue" stroke="midnightblue" points="689.003,-111.153 699.057,-114.494 693.281,-105.612 689.003,-111.153"/>
</g>
<!-- Node13 -->
<g id="node13" class="node"><title>Node13</title>
<g id="a_node13"><a xlink:href="a00022.html#ae1085dd4fd40466d18b02ec077ef4d6d" target="_top" xlink:title="hpd_map_remove">
<polygon fill="none" stroke="black" points="532,-0.5 532,-19.5 626,-19.5 626,-0.5 532,-0.5"/>
<text text-anchor="middle" x="579" y="-7.5" font-family="Helvetica,sans-Serif" font-size="10.00">hpd_map_remove</text>
</a>
</g>
</g>
<!-- Node12&#45;&gt;Node13 -->
<g id="edge14" class="edge"><title>Node12&#45;&gt;Node13</title>
<path fill="none" stroke="midnightblue" d="M479.309,-38.411C496.193,-33.5506 516.895,-27.5909 534.971,-22.3873"/>
<polygon fill="midnightblue" stroke="midnightblue" points="536.06,-25.7158 544.701,-19.5859 534.123,-18.989 536.06,-25.7158"/>
</g>
<!-- Node13&#45;&gt;Node8 -->
<g id="edge15" class="edge"><title>Node13&#45;&gt;Node8</title>
<path fill="none" stroke="midnightblue" d="M603.463,-19.6244C611.611,-23.4999 620.562,-28.3894 628,-34 656.029,-55.142 682.324,-86.6013 697.395,-106.177"/>
<polygon fill="midnightblue" stroke="midnightblue" points="694.676,-108.385 703.496,-114.255 700.262,-104.166 694.676,-108.385"/>
</g>
</g>
</svg>
        <g id="navigator" transform="translate(0 0)" fill="#404254">
                <rect fill="#f2f5e9" fill-opacity="0.5" stroke="#606060" stroke-width=".5" x="0" y="0" width="60" height="60"/>
                <use id="zoomplus" xlink:href="#zoomPlus" x="17" y="9" onmousedown="handleZoom(evt,'in')"/>
                <use id="zoomminus" xlink:href="#zoomMin" x="42" y="9" onmousedown="handleZoom(evt,'out')"/>
                <use id="reset" xlink:href="#resetDef" x="30" y="36" onmousedown="handleReset()"/>
                <g id="arrowUp" xlink:href="#dirArrow" transform="translate(30 24)" onmousedown="handlePan(0,-1)">
                  <use xlink:href="#rim" fill="#404040">
                        <set attributeName="fill" to="#808080" begin="arrowUp.mouseover" end="arrowUp.mouseout"/>
                  </use>
                  <path fill="none" stroke="white" stroke-width="1.5" d="M0,-3.0v7 M-2.5,-0.5L0,-3.0L2.5,-0.5"/>
                </g>
                <g id="arrowRight" xlink:href="#dirArrow" transform="rotate(90) translate(36 -43)" onmousedown="handlePan(1,0)">
                  <use xlink:href="#rim" fill="#404040">
                        <set attributeName="fill" to="#808080" begin="arrowRight.mouseover" end="arrowRight.mouseout"/>
                  </use>
                  <path fill="none" stroke="white" stroke-width="1.5" d="M0,-3.0v7 M-2.5,-0.5L0,-3.0L2.5,-0.5"/>
                </g>
                <g id="arrowDown" xlink:href="#dirArrow" transform="rotate(180) translate(-30 -48)" onmousedown="handlePan(0,1)">
                  <use xlink:href="#rim" fill="#404040">
                        <set attributeName="fill" to="#808080" begin="arrowDown.mouseover" end="arrowDown.mouseout"/>
                  </use>
                  <path fill="none" stroke="white" stroke-width="1.5" d="M0,-3.0v7 M-2.5,-0.5L0,-3.0L2.5,-0.5"/>
                </g>
                <g id="arrowLeft" xlink:href="#dirArrow" transform="rotate(270) translate(-36 17)" onmousedown="handlePan(-1,0)">
                  <use xlink:href="#rim" fill="#404040">
                        <set attributeName="fill" to="#808080" begin="arrowLeft.mouseover" end="arrowLeft.mouseout"/>
                  </use>
                  <path fill="none" stroke="white" stroke-width="1.5" d="M0,-3.0v7 M-2.5,-0.5L0,-3.0L2.5,-0.5"/>
                </g>
        </g>
        <svg viewBox="0 0 15 15" width="100%" height="30px" preserveAspectRatio="xMaxYMin meet">
         <g id="arrow_out" transform="scale(0.3 0.3)">
          <a xlink:href="a00067_a4fe0122223191a771d05d2d1454cdee9_cgraph_org.svg" target="_base">
           <rect id="button" ry="5" rx="5" y="6" x="6" height="38" width="38"
                fill="#f2f5e9" fill-opacity="0.5" stroke="#606060" stroke-width="1.0"/>
           <path id="arrow"
             d="M 11.500037,31.436501 C 11.940474,20.09759 22.043105,11.32322 32.158766,21.979434 L 37.068811,17.246167 C 37.068811,17.246167 37.088388,32 37.088388,32 L 22.160133,31.978069 C 22.160133,31.978069 26.997745,27.140456 26.997745,27.140456 C 18.528582,18.264221 13.291696,25.230495 11.500037,31.436501 z"
             style="fill:#404040;"/>
          </a>
         </g>
        </svg>
</svg>
