<?xml version="1.0" encoding="UTF-8" standalone="no"?>
<!DOCTYPE svg PUBLIC "-//W3C//DTD SVG 1.1//EN"
 "http://www.w3.org/Graphics/SVG/1.1/DTD/svg11.dtd">
<!-- Generated by graphviz version 2.38.0 (20140413.2041)
 -->
<!-- Title: hpd_start Pages: 1 -->
<svg width="143pt" height="66pt"
 viewBox="0.00 0.00 143.00 66.00" xmlns="http://www.w3.org/2000/svg" xmlns:xlink="http://www.w3.org/1999/xlink">
<g id="graph0" class="graph" transform="scale(1 1) rotate(0) translate(4 62)">
<title>hpd_start</title>
<!-- Node1 -->
<g id="node1" class="node"><title>Node1</title>
<polygon fill="#bfbfbf" stroke="black" points="0,-19.5 0,-38.5 57,-38.5 57,-19.5 0,-19.5"/>
<text text-anchor="middle" x="28.5" y="-26.5" font-family="Helvetica,sans-Serif" font-size="10.00">hpd_start</text>
</g>
<!-- Node2 -->
<g id="node2" class="node"><title>Node2</title>
<g id="a_node2"><a xlink:href="a00065.html#a0ddf1224851353fc92bfbff6f499fa97" target="_top" xlink:title="[file] ">
<polygon fill="none" stroke="black" points="95,-38.5 95,-57.5 133,-57.5 133,-38.5 95,-38.5"/>
<text text-anchor="middle" x="114" y="-45.5" font-family="Helvetica,sans-Serif" font-size="10.00">main</text>
</a>
</g>
</g>
<!-- Node1&#45;&gt;Node2 -->
<g id="edge1" class="edge"><title>Node1&#45;&gt;Node2</title>
<path fill="none" stroke="midnightblue" d="M67.124,-37.5611C76.7321,-39.7474 86.6346,-42.0007 94.7691,-43.8516"/>
<polygon fill="midnightblue" stroke="midnightblue" points="67.8316,-34.1328 57.3043,-35.3267 66.2785,-40.9583 67.8316,-34.1328"/>
</g>
<!-- Node3 -->
<g id="node3" class="node"><title>Node3</title>
<g id="a_node3"><a xlink:href="a00039.html#a5de92b31931f2f5155c682379a06da32" target="_top" xlink:title="TEST">
<polygon fill="none" stroke="black" points="93,-0.5 93,-19.5 135,-19.5 135,-0.5 93,-0.5"/>
<text text-anchor="middle" x="114" y="-7.5" font-family="Helvetica,sans-Serif" font-size="10.00">TEST</text>
</a>
</g>
</g>
<!-- Node1&#45;&gt;Node3 -->
<g id="edge2" class="edge"><title>Node1&#45;&gt;Node3</title>
<path fill="none" stroke="midnightblue" d="M67.159,-20.4309C76.059,-18.4057 85.2094,-16.3236 92.9715,-14.5574"/>
<polygon fill="midnightblue" stroke="midnightblue" points="66.2785,-17.0417 57.3043,-22.6733 67.8316,-23.8672 66.2785,-17.0417"/>
</g>
</g>
</svg>
