<?xml version="1.0" encoding="UTF-8" standalone="no"?>
<!DOCTYPE svg PUBLIC "-//W3C//DTD SVG 1.1//EN"
 "http://www.w3.org/Graphics/SVG/1.1/DTD/svg11.dtd">
<!-- Generated by graphviz version 2.38.0 (20140413.2041)
 -->
<!-- Title: url_parser_key_value Pages: 1 -->
<svg width="438pt" height="104pt"
 viewBox="0.00 0.00 438.00 104.00" xmlns="http://www.w3.org/2000/svg" xmlns:xlink="http://www.w3.org/1999/xlink">
<g id="graph0" class="graph" transform="scale(1 1) rotate(0) translate(4 100)">
<title>url_parser_key_value</title>
<!-- Node1 -->
<g id="node1" class="node"><title>Node1</title>
<polygon fill="#bfbfbf" stroke="black" points="0,-38.5 0,-57.5 109,-57.5 109,-38.5 0,-38.5"/>
<text text-anchor="middle" x="54.5" y="-45.5" font-family="Helvetica,sans-Serif" font-size="10.00">url_parser_key_value</text>
</g>
<!-- Node2 -->
<g id="node2" class="node"><title>Node2</title>
<g id="a_node2"><a xlink:href="a00042.html#a6d8c24cdcb1535f26a772f00d90aecec" target="_top" xlink:title="hpd_map_set_n">
<polygon fill="none" stroke="black" points="145,-38.5 145,-57.5 231,-57.5 231,-38.5 145,-38.5"/>
<text text-anchor="middle" x="188" y="-45.5" font-family="Helvetica,sans-Serif" font-size="10.00">hpd_map_set_n</text>
</a>
</g>
</g>
<!-- Node1&#45;&gt;Node2 -->
<g id="edge1" class="edge"><title>Node1&#45;&gt;Node2</title>
<path fill="none" stroke="midnightblue" d="M109.366,-48C117.644,-48 126.183,-48 134.433,-48"/>
<polygon fill="midnightblue" stroke="midnightblue" points="134.687,-51.5001 144.687,-48 134.687,-44.5001 134.687,-51.5001"/>
</g>
<!-- Node3 -->
<g id="node3" class="node"><title>Node3</title>
<g id="a_node3"><a xlink:href="a00022.html#ae1085dd4fd40466d18b02ec077ef4d6d" target="_top" xlink:title="hpd_map_remove">
<polygon fill="none" stroke="black" points="267,-76.5 267,-95.5 361,-95.5 361,-76.5 267,-76.5"/>
<text text-anchor="middle" x="314" y="-83.5" font-family="Helvetica,sans-Serif" font-size="10.00">hpd_map_remove</text>
</a>
</g>
</g>
<!-- Node2&#45;&gt;Node3 -->
<g id="edge2" class="edge"><title>Node2&#45;&gt;Node3</title>
<path fill="none" stroke="midnightblue" d="M220.29,-57.589C236.004,-62.4044 255.238,-68.2988 272.106,-73.468"/>
<polygon fill="midnightblue" stroke="midnightblue" points="271.133,-76.8304 281.72,-76.4141 273.184,-70.1376 271.133,-76.8304"/>
</g>
<!-- Node5 -->
<g id="node5" class="node"><title>Node5</title>
<g id="a_node5"><a xlink:href="a00022.html#a1183d13fe5c6a98f618f676362f52eda" target="_top" xlink:title="insert_n">
<polygon fill="none" stroke="black" points="288.5,-38.5 288.5,-57.5 339.5,-57.5 339.5,-38.5 288.5,-38.5"/>
<text text-anchor="middle" x="314" y="-45.5" font-family="Helvetica,sans-Serif" font-size="10.00">insert_n</text>
</a>
</g>
</g>
<!-- Node2&#45;&gt;Node5 -->
<g id="edge4" class="edge"><title>Node2&#45;&gt;Node5</title>
<path fill="none" stroke="midnightblue" d="M231.327,-48C246.57,-48 263.584,-48 278.12,-48"/>
<polygon fill="midnightblue" stroke="midnightblue" points="278.206,-51.5001 288.206,-48 278.206,-44.5001 278.206,-51.5001"/>
</g>
<!-- Node6 -->
<g id="node6" class="node"><title>Node6</title>
<g id="a_node6"><a xlink:href="a00022.html#a1232e3252bd416a43969d3c26843c674" target="_top" xlink:title="replace_n">
<polygon fill="none" stroke="black" points="284.5,-0.5 284.5,-19.5 343.5,-19.5 343.5,-0.5 284.5,-0.5"/>
<text text-anchor="middle" x="314" y="-7.5" font-family="Helvetica,sans-Serif" font-size="10.00">replace_n</text>
</a>
</g>
</g>
<!-- Node2&#45;&gt;Node6 -->
<g id="edge6" class="edge"><title>Node2&#45;&gt;Node6</title>
<path fill="none" stroke="midnightblue" d="M220.29,-38.411C236.724,-33.375 257.008,-27.1589 274.408,-21.8265"/>
<polygon fill="midnightblue" stroke="midnightblue" points="275.734,-25.081 284.269,-18.8045 273.683,-18.3882 275.734,-25.081"/>
</g>
<!-- Node4 -->
<g id="node4" class="node"><title>Node4</title>
<g id="a_node4"><a xlink:href="a00006.html#adf46370d9c211c3be22966b4606ba9b0" target="_top" xlink:title="free">
<polygon fill="none" stroke="black" points="397,-57.5 397,-76.5 430,-76.5 430,-57.5 397,-57.5"/>
<text text-anchor="middle" x="413.5" y="-64.5" font-family="Helvetica,sans-Serif" font-size="10.00">free</text>
</a>
</g>
</g>
<!-- Node3&#45;&gt;Node4 -->
<g id="edge3" class="edge"><title>Node3&#45;&gt;Node4</title>
<path fill="none" stroke="midnightblue" d="M361.18,-77.0008C369.978,-75.2863 378.888,-73.55 386.76,-72.016"/>
<polygon fill="midnightblue" stroke="midnightblue" points="387.596,-75.419 396.742,-70.0708 386.257,-68.5483 387.596,-75.419"/>
</g>
<!-- Node5&#45;&gt;Node4 -->
<g id="edge5" class="edge"><title>Node5&#45;&gt;Node4</title>
<path fill="none" stroke="midnightblue" d="M339.603,-52.7945C354.039,-55.6076 372.254,-59.1571 386.864,-62.0043"/>
<polygon fill="midnightblue" stroke="midnightblue" points="386.276,-65.4554 396.76,-63.9328 387.615,-58.5846 386.276,-65.4554"/>
</g>
</g>
</svg>
