<?xml version="1.0" encoding="UTF-8" standalone="no"?>
<!DOCTYPE svg PUBLIC "-//W3C//DTD SVG 1.1//EN"
 "http://www.w3.org/Graphics/SVG/1.1/DTD/svg11.dtd">
<!-- Generated by graphviz version 2.38.0 (20140413.2041)
 -->
<!-- Title: request_alloc_response Pages: 1 -->
<svg width="761pt" height="104pt"
 viewBox="0.00 0.00 761.00 104.00" xmlns="http://www.w3.org/2000/svg" xmlns:xlink="http://www.w3.org/1999/xlink">
<g id="graph0" class="graph" transform="scale(1 1) rotate(0) translate(4 100)">
<title>request_alloc_response</title>
<!-- Node1 -->
<g id="node1" class="node"><title>Node1</title>
<polygon fill="#bfbfbf" stroke="black" points="0,-57.5 0,-76.5 119,-76.5 119,-57.5 0,-57.5"/>
<text text-anchor="middle" x="59.5" y="-64.5" font-family="Helvetica,sans-Serif" font-size="10.00">request_alloc_response</text>
</g>
<!-- Node2 -->
<g id="node2" class="node"><title>Node2</title>
<g id="a_node2"><a xlink:href="a00072.html#adae8c0a742917417d73d4e19d9b68810" target="_top" xlink:title="on_request">
<polygon fill="none" stroke="black" points="174,-76.5 174,-95.5 239,-95.5 239,-76.5 174,-76.5"/>
<text text-anchor="middle" x="206.5" y="-83.5" font-family="Helvetica,sans-Serif" font-size="10.00">on_request</text>
</a>
</g>
</g>
<!-- Node1&#45;&gt;Node2 -->
<g id="edge1" class="edge"><title>Node1&#45;&gt;Node2</title>
<path fill="none" stroke="midnightblue" d="M129.237,-76.007C144.823,-78.0493 160.642,-80.122 173.801,-81.8463"/>
<polygon fill="midnightblue" stroke="midnightblue" points="129.429,-72.5022 119.059,-74.6733 128.52,-79.4429 129.429,-72.5022"/>
</g>
<!-- Node7 -->
<g id="node7" class="node"><title>Node7</title>
<g id="a_node7"><a xlink:href="a00074.html#aff4eae061b1220e0bb55de72f8129493" target="_top" xlink:title="[hpd_request_t functions] ">
<polygon fill="none" stroke="black" points="155,-38.5 155,-57.5 258,-57.5 258,-38.5 155,-38.5"/>
<text text-anchor="middle" x="206.5" y="-45.5" font-family="Helvetica,sans-Serif" font-size="10.00">hpd_response_alloc</text>
</a>
</g>
</g>
<!-- Node1&#45;&gt;Node7 -->
<g id="edge6" class="edge"><title>Node1&#45;&gt;Node7</title>
<path fill="none" stroke="midnightblue" d="M129.099,-58.0112C137.705,-56.8835 146.385,-55.7462 154.651,-54.663"/>
<polygon fill="midnightblue" stroke="midnightblue" points="128.52,-54.5571 119.059,-59.3267 129.429,-61.4977 128.52,-54.5571"/>
</g>
<!-- Node3 -->
<g id="node3" class="node"><title>Node3</title>
<g id="a_node3"><a xlink:href="a00073.html#a49ae36dd88ac39bfa09a7cfc34323872" target="_top" xlink:title="request_request">
<polygon fill="none" stroke="black" points="299,-76.5 299,-95.5 385,-95.5 385,-76.5 299,-76.5"/>
<text text-anchor="middle" x="342" y="-83.5" font-family="Helvetica,sans-Serif" font-size="10.00">request_request</text>
</a>
</g>
</g>
<!-- Node2&#45;&gt;Node3 -->
<g id="edge2" class="edge"><title>Node2&#45;&gt;Node3</title>
<path fill="none" stroke="midnightblue" d="M249.19,-86C265.041,-86 283.096,-86 298.977,-86"/>
<polygon fill="midnightblue" stroke="midnightblue" points="249.138,-82.5001 239.138,-86 249.138,-89.5001 249.138,-82.5001"/>
</g>
<!-- Node4 -->
<g id="node4" class="node"><title>Node4</title>
<g id="a_node4"><a xlink:href="a00074.html#a077adc41aa1c0f7270a995ff42420424" target="_top" xlink:title="hpd_request">
<polygon fill="none" stroke="black" points="453,-76.5 453,-95.5 523,-95.5 523,-76.5 453,-76.5"/>
<text text-anchor="middle" x="488" y="-83.5" font-family="Helvetica,sans-Serif" font-size="10.00">hpd_request</text>
</a>
</g>
</g>
<!-- Node3&#45;&gt;Node4 -->
<g id="edge3" class="edge"><title>Node3&#45;&gt;Node4</title>
<path fill="none" stroke="midnightblue" d="M395.171,-86C414.399,-86 435.674,-86 452.9,-86"/>
<polygon fill="midnightblue" stroke="midnightblue" points="395.038,-82.5001 385.038,-86 395.038,-89.5001 395.038,-82.5001"/>
</g>
<!-- Node5 -->
<g id="node5" class="node"><title>Node5</title>
<g id="a_node5"><a xlink:href="a00025.html#a74ba52adbe4c46e9a9c33649e3b75243" target="_top" xlink:title="on_req_cmpl">
<polygon fill="none" stroke="black" points="586,-76.5 586,-95.5 658,-95.5 658,-76.5 586,-76.5"/>
<text text-anchor="middle" x="622" y="-83.5" font-family="Helvetica,sans-Serif" font-size="10.00">on_req_cmpl</text>
</a>
</g>
</g>
<!-- Node4&#45;&gt;Node5 -->
<g id="edge4" class="edge"><title>Node4&#45;&gt;Node5</title>
<path fill="none" stroke="midnightblue" d="M533.633,-86C550.687,-86 569.876,-86 585.916,-86"/>
<polygon fill="midnightblue" stroke="midnightblue" points="533.337,-82.5001 523.337,-86 533.337,-89.5001 533.337,-82.5001"/>
</g>
<!-- Node6 -->
<g id="node6" class="node"><title>Node6</title>
<g id="a_node6"><a xlink:href="a00025.html#ad079431c7eba97c5dd5e4e202cdf6102" target="_top" xlink:title="on_create">
<polygon fill="none" stroke="black" points="694,-76.5 694,-95.5 753,-95.5 753,-76.5 694,-76.5"/>
<text text-anchor="middle" x="723.5" y="-83.5" font-family="Helvetica,sans-Serif" font-size="10.00">on_create</text>
</a>
</g>
</g>
<!-- Node5&#45;&gt;Node6 -->
<g id="edge5" class="edge"><title>Node5&#45;&gt;Node6</title>
<path fill="none" stroke="midnightblue" d="M668.212,-86C676.974,-86 685.925,-86 693.965,-86"/>
<polygon fill="midnightblue" stroke="midnightblue" points="668.08,-82.5001 658.08,-86 668.08,-89.5001 668.08,-82.5001"/>
</g>
<!-- Node8 -->
<g id="node8" class="node"><title>Node8</title>
<g id="a_node8"><a xlink:href="a00012.html#ab9d884c8b98aaa2f2d23e6884afdeffe" target="_top" xlink:title="hpd_demo_on_get">
<polygon fill="none" stroke="black" points="294,-38.5 294,-57.5 390,-57.5 390,-38.5 294,-38.5"/>
<text text-anchor="middle" x="342" y="-45.5" font-family="Helvetica,sans-Serif" font-size="10.00">hpd_demo_on_get</text>
</a>
</g>
</g>
<!-- Node7&#45;&gt;Node8 -->
<g id="edge7" class="edge"><title>Node7&#45;&gt;Node8</title>
<path fill="none" stroke="midnightblue" d="M268.582,-48C277.05,-48 285.64,-48 293.802,-48"/>
<polygon fill="midnightblue" stroke="midnightblue" points="268.351,-44.5001 258.351,-48 268.351,-51.5001 268.351,-44.5001"/>
</g>
<!-- Node10 -->
<g id="node10" class="node"><title>Node10</title>
<g id="a_node10"><a xlink:href="a00012.html#abd3f7d3d11402e13ef30d122ce9c8516" target="_top" xlink:title="hpd_demo_on_put">
<polygon fill="none" stroke="black" points="294,-0.5 294,-19.5 390,-19.5 390,-0.5 294,-0.5"/>
<text text-anchor="middle" x="342" y="-7.5" font-family="Helvetica,sans-Serif" font-size="10.00">hpd_demo_on_put</text>
</a>
</g>
</g>
<!-- Node7&#45;&gt;Node10 -->
<g id="edge9" class="edge"><title>Node7&#45;&gt;Node10</title>
<path fill="none" stroke="midnightblue" d="M251.03,-35.6094C269.312,-30.4055 290.249,-24.4459 307.323,-19.5859"/>
<polygon fill="midnightblue" stroke="midnightblue" points="249.847,-32.3069 241.188,-38.411 251.764,-39.0395 249.847,-32.3069"/>
</g>
<!-- Node9 -->
<g id="node9" class="node"><title>Node9</title>
<g id="a_node9"><a xlink:href="a00012.html#a723fb54ea3963ea674c9830e41a40e00" target="_top" xlink:title="hpd_demo_adapter_start">
<polygon fill="none" stroke="black" points="426,-19.5 426,-38.5 550,-38.5 550,-19.5 426,-19.5"/>
<text text-anchor="middle" x="488" y="-26.5" font-family="Helvetica,sans-Serif" font-size="10.00">hpd_demo_adapter_start</text>
</a>
</g>
</g>
<!-- Node8&#45;&gt;Node9 -->
<g id="edge8" class="edge"><title>Node8&#45;&gt;Node9</title>
<path fill="none" stroke="midnightblue" d="M400.243,-40.4471C408.658,-39.3368 417.353,-38.1895 425.843,-37.0693"/>
<polygon fill="midnightblue" stroke="midnightblue" points="399.607,-37.0006 390.151,-41.7787 400.523,-43.9404 399.607,-37.0006"/>
</g>
<!-- Node10&#45;&gt;Node9 -->
<g id="edge10" class="edge"><title>Node10&#45;&gt;Node9</title>
<path fill="none" stroke="midnightblue" d="M400.243,-17.5529C408.658,-18.6632 417.353,-19.8105 425.843,-20.9307"/>
<polygon fill="midnightblue" stroke="midnightblue" points="400.523,-14.0596 390.151,-16.2213 399.607,-20.9994 400.523,-14.0596"/>
</g>
</g>
</svg>
