<?xml version="1.0" encoding="UTF-8" standalone="no"?>
<!DOCTYPE svg PUBLIC "-//W3C//DTD SVG 1.1//EN"
 "http://www.w3.org/Graphics/SVG/1.1/DTD/svg11.dtd">
<!-- Generated by graphviz version 2.38.0 (20140413.2041)
 -->
<!-- Title: discovery_copy_sid Pages: 1 -->
<svg width="593pt" height="104pt"
 viewBox="0.00 0.00 593.00 104.00" xmlns="http://www.w3.org/2000/svg" xmlns:xlink="http://www.w3.org/1999/xlink">
<g id="graph0" class="graph" transform="scale(1 1) rotate(0) translate(4 100)">
<title>discovery_copy_sid</title>
<!-- Node1 -->
<g id="node1" class="node"><title>Node1</title>
<polygon fill="#bfbfbf" stroke="black" points="0,-38.5 0,-57.5 103,-57.5 103,-38.5 0,-38.5"/>
<text text-anchor="middle" x="51.5" y="-45.5" font-family="Helvetica,sans-Serif" font-size="10.00">discovery_copy_sid</text>
</g>
<!-- Node2 -->
<g id="node2" class="node"><title>Node2</title>
<g id="a_node2"><a xlink:href="a00060.html#a06b25de4929ff540e0f7553404730e56" target="_top" xlink:title="hpd_service_id_copy">
<polygon fill="none" stroke="black" points="141,-76.5 141,-95.5 249,-95.5 249,-76.5 141,-76.5"/>
<text text-anchor="middle" x="195" y="-83.5" font-family="Helvetica,sans-Serif" font-size="10.00">hpd_service_id_copy</text>
</a>
</g>
</g>
<!-- Node1&#45;&gt;Node2 -->
<g id="edge1" class="edge"><title>Node1&#45;&gt;Node2</title>
<path fill="none" stroke="midnightblue" d="M98.101,-60.2462C117.605,-65.484 140.04,-71.5091 158.305,-76.4141"/>
<polygon fill="midnightblue" stroke="midnightblue" points="98.772,-56.8025 88.2064,-57.589 96.9564,-63.5629 98.772,-56.8025"/>
</g>
<!-- Node3 -->
<g id="node3" class="node"><title>Node3</title>
<g id="a_node3"><a xlink:href="a00063.html#a4fe0122223191a771d05d2d1454cdee9" target="_top" xlink:title="event_changed">
<polygon fill="none" stroke="black" points="153.5,-38.5 153.5,-57.5 236.5,-57.5 236.5,-38.5 153.5,-38.5"/>
<text text-anchor="middle" x="195" y="-45.5" font-family="Helvetica,sans-Serif" font-size="10.00">event_changed</text>
</a>
</g>
</g>
<!-- Node1&#45;&gt;Node3 -->
<g id="edge2" class="edge"><title>Node1&#45;&gt;Node3</title>
<path fill="none" stroke="midnightblue" d="M113.399,-48C126.925,-48 140.94,-48 153.416,-48"/>
<polygon fill="midnightblue" stroke="midnightblue" points="113.185,-44.5001 103.185,-48 113.185,-51.5001 113.185,-44.5001"/>
</g>
<!-- Node5 -->
<g id="node5" class="node"><title>Node5</title>
<g id="a_node5"><a xlink:href="a00069.html#af762dc3db213f4a84ba5fe3ab36a78fe" target="_top" xlink:title="request_alloc_request">
<polygon fill="none" stroke="black" points="139,-0.5 139,-19.5 251,-19.5 251,-0.5 139,-0.5"/>
<text text-anchor="middle" x="195" y="-7.5" font-family="Helvetica,sans-Serif" font-size="10.00">request_alloc_request</text>
</a>
</g>
</g>
<!-- Node1&#45;&gt;Node5 -->
<g id="edge4" class="edge"><title>Node1&#45;&gt;Node5</title>
<path fill="none" stroke="midnightblue" d="M98.101,-35.7538C117.605,-30.516 140.04,-24.4909 158.305,-19.5859"/>
<polygon fill="midnightblue" stroke="midnightblue" points="96.9564,-32.4371 88.2064,-38.411 98.772,-39.1975 96.9564,-32.4371"/>
</g>
<!-- Node4 -->
<g id="node4" class="node"><title>Node4</title>
<g id="a_node4"><a xlink:href="a00064.html#a4e10a7a459f294991735e9bcd384b03a" target="_top" xlink:title="[hpd_response_t functions] ">
<polygon fill="none" stroke="black" points="297.5,-38.5 297.5,-57.5 371.5,-57.5 371.5,-38.5 297.5,-38.5"/>
<text text-anchor="middle" x="334.5" y="-45.5" font-family="Helvetica,sans-Serif" font-size="10.00">hpd_changed</text>
</a>
</g>
</g>
<!-- Node3&#45;&gt;Node4 -->
<g id="edge3" class="edge"><title>Node3&#45;&gt;Node4</title>
<path fill="none" stroke="midnightblue" d="M246.757,-48C263.598,-48 281.989,-48 297.486,-48"/>
<polygon fill="midnightblue" stroke="midnightblue" points="246.511,-44.5001 236.511,-48 246.511,-51.5001 246.511,-44.5001"/>
</g>
<!-- Node6 -->
<g id="node6" class="node"><title>Node6</title>
<g id="a_node6"><a xlink:href="a00070.html#ac8e7c21db1c80443994e79d29eae8286" target="_top" xlink:title="[hpd_request_t functions] ">
<polygon fill="none" stroke="black" points="287,-0.5 287,-19.5 382,-19.5 382,-0.5 287,-0.5"/>
<text text-anchor="middle" x="334.5" y="-7.5" font-family="Helvetica,sans-Serif" font-size="10.00">hpd_request_alloc</text>
</a>
</g>
</g>
<!-- Node5&#45;&gt;Node6 -->
<g id="edge5" class="edge"><title>Node5&#45;&gt;Node6</title>
<path fill="none" stroke="midnightblue" d="M261.194,-10C269.821,-10 278.523,-10 286.754,-10"/>
<polygon fill="midnightblue" stroke="midnightblue" points="261.134,-6.5001 251.134,-10 261.134,-13.5001 261.134,-6.5001"/>
</g>
<!-- Node7 -->
<g id="node7" class="node"><title>Node7</title>
<g id="a_node7"><a xlink:href="a00025.html#a74ba52adbe4c46e9a9c33649e3b75243" target="_top" xlink:title="on_req_cmpl">
<polygon fill="none" stroke="black" points="418,-0.5 418,-19.5 490,-19.5 490,-0.5 418,-0.5"/>
<text text-anchor="middle" x="454" y="-7.5" font-family="Helvetica,sans-Serif" font-size="10.00">on_req_cmpl</text>
</a>
</g>
</g>
<!-- Node6&#45;&gt;Node7 -->
<g id="edge6" class="edge"><title>Node6&#45;&gt;Node7</title>
<path fill="none" stroke="midnightblue" d="M392.437,-10C401.152,-10 409.92,-10 417.974,-10"/>
<polygon fill="midnightblue" stroke="midnightblue" points="392.277,-6.5001 382.277,-10 392.277,-13.5001 392.277,-6.5001"/>
</g>
<!-- Node8 -->
<g id="node8" class="node"><title>Node8</title>
<g id="a_node8"><a xlink:href="a00025.html#ad079431c7eba97c5dd5e4e202cdf6102" target="_top" xlink:title="on_create">
<polygon fill="none" stroke="black" points="526,-0.5 526,-19.5 585,-19.5 585,-0.5 526,-0.5"/>
<text text-anchor="middle" x="555.5" y="-7.5" font-family="Helvetica,sans-Serif" font-size="10.00">on_create</text>
</a>
</g>
</g>
<!-- Node7&#45;&gt;Node8 -->
<g id="edge7" class="edge"><title>Node7&#45;&gt;Node8</title>
<path fill="none" stroke="midnightblue" d="M500.212,-10C508.974,-10 517.925,-10 525.965,-10"/>
<polygon fill="midnightblue" stroke="midnightblue" points="500.08,-6.5001 490.08,-10 500.08,-13.5001 500.08,-6.5001"/>
</g>
</g>
</svg>
