<?xml version="1.0" encoding="UTF-8" standalone="no"?>
<!DOCTYPE svg PUBLIC "-//W3C//DTD SVG 1.1//EN"
 "http://www.w3.org/Graphics/SVG/1.1/DTD/svg11.dtd">
<!-- Generated by graphviz version 2.38.0 (20140413.2041)
 -->
<!-- Title: add_attr Pages: 1 -->
<svg width="168pt" height="66pt"
 viewBox="0.00 0.00 168.00 66.00" xmlns="http://www.w3.org/2000/svg" xmlns:xlink="http://www.w3.org/1999/xlink">
<g id="graph0" class="graph" transform="scale(1 1) rotate(0) translate(4 62)">
<title>add_attr</title>
<!-- Node1 -->
<g id="node1" class="node"><title>Node1</title>
<polygon fill="#bfbfbf" stroke="black" points="0,-19.5 0,-38.5 52,-38.5 52,-19.5 0,-19.5"/>
<text text-anchor="middle" x="26" y="-26.5" font-family="Helvetica,sans-Serif" font-size="10.00">add_attr</text>
</g>
<!-- Node2 -->
<g id="node2" class="node"><title>Node2</title>
<g id="a_node2"><a xlink:href="a00046.html#ad8de9589846a9987ae60b199fc05094d" target="_top" xlink:title="hpd_pair_get">
<polygon fill="none" stroke="black" points="88,-38.5 88,-57.5 160,-57.5 160,-38.5 88,-38.5"/>
<text text-anchor="middle" x="124" y="-45.5" font-family="Helvetica,sans-Serif" font-size="10.00">hpd_pair_get</text>
</a>
</g>
</g>
<!-- Node1&#45;&gt;Node2 -->
<g id="edge1" class="edge"><title>Node1&#45;&gt;Node2</title>
<path fill="none" stroke="midnightblue" d="M52.2229,-33.992C60.134,-35.5578 69.1197,-37.3362 77.9702,-39.0878"/>
<polygon fill="midnightblue" stroke="midnightblue" points="77.3515,-42.5332 87.8408,-41.0414 78.7106,-35.6664 77.3515,-42.5332"/>
</g>
<!-- Node3 -->
<g id="node3" class="node"><title>Node3</title>
<g id="a_node3"><a xlink:href="a00080.html#aa181e2f731323873699902e5cf92eea8" target="_top" xlink:title="add">
<polygon fill="none" stroke="black" points="108,-0.5 108,-19.5 140,-19.5 140,-0.5 108,-0.5"/>
<text text-anchor="middle" x="124" y="-7.5" font-family="Helvetica,sans-Serif" font-size="10.00">add</text>
</a>
</g>
</g>
<!-- Node1&#45;&gt;Node3 -->
<g id="edge2" class="edge"><title>Node1&#45;&gt;Node3</title>
<path fill="none" stroke="midnightblue" d="M52.2229,-24.008C66.3004,-21.2218 83.7805,-17.7622 97.8468,-14.9782"/>
<polygon fill="midnightblue" stroke="midnightblue" points="98.6948,-18.3784 107.825,-13.0034 97.3357,-11.5116 98.6948,-18.3784"/>
</g>
</g>
</svg>
