<?xml version="1.0" encoding="UTF-8" standalone="no"?>
<!DOCTYPE svg PUBLIC "-//W3C//DTD SVG 1.1//EN"
 "http://www.w3.org/Graphics/SVG/1.1/DTD/svg11.dtd">
<!-- Generated by graphviz version 2.38.0 (20140413.2041)
 -->
<!-- Title: hpd_curl_ev_init Pages: 1 -->
<svg width="523pt" height="91pt"
 viewBox="0.00 0.00 523.00 91.00" xmlns="http://www.w3.org/2000/svg" xmlns:xlink="http://www.w3.org/1999/xlink">
<g id="graph0" class="graph" transform="scale(1 1) rotate(0) translate(4 87)">
<title>hpd_curl_ev_init</title>
<!-- Node1 -->
<g id="node1" class="node"><title>Node1</title>
<polygon fill="#bfbfbf" stroke="black" points="0,-22.5 0,-41.5 87,-41.5 87,-22.5 0,-22.5"/>
<text text-anchor="middle" x="43.5" y="-29.5" font-family="Helvetica,sans-Serif" font-size="10.00">hpd_curl_ev_init</text>
</g>
<!-- Node2 -->
<g id="node2" class="node"><title>Node2</title>
<g id="a_node2"><a xlink:href="a00045.html#afe0856695882e6b306e8979ff0f6fe2d" target="_top" xlink:title="curl_ev_create_curl\l_handle">
<polygon fill="none" stroke="black" points="123,-39 123,-69 224,-69 224,-39 123,-39"/>
<text text-anchor="start" x="131" y="-57" font-family="Helvetica,sans-Serif" font-size="10.00">curl_ev_create_curl</text>
<text text-anchor="middle" x="173.5" y="-46" font-family="Helvetica,sans-Serif" font-size="10.00">_handle</text>
</a>
</g>
</g>
<!-- Node1&#45;&gt;Node2 -->
<g id="edge1" class="edge"><title>Node1&#45;&gt;Node2</title>
<path fill="none" stroke="midnightblue" d="M87.1221,-39.3257C95.381,-40.7452 104.176,-42.2569 112.864,-43.7501"/>
<polygon fill="midnightblue" stroke="midnightblue" points="112.526,-47.2433 122.975,-45.4878 113.712,-40.3444 112.526,-47.2433"/>
</g>
<!-- Node6 -->
<g id="node6" class="node"><title>Node6</title>
<g id="a_node6"><a xlink:href="a00012.html#adf46370d9c211c3be22966b4606ba9b0" target="_top" xlink:title="free">
<polygon fill="none" stroke="black" points="157,-0.5 157,-19.5 190,-19.5 190,-0.5 157,-0.5"/>
<text text-anchor="middle" x="173.5" y="-7.5" font-family="Helvetica,sans-Serif" font-size="10.00">free</text>
</a>
</g>
</g>
<!-- Node1&#45;&gt;Node6 -->
<g id="edge5" class="edge"><title>Node1&#45;&gt;Node6</title>
<path fill="none" stroke="midnightblue" d="M87.1221,-24.6743C106.809,-21.2906 129.545,-17.3829 146.603,-14.4511"/>
<polygon fill="midnightblue" stroke="midnightblue" points="147.64,-17.8242 156.903,-12.6808 146.454,-10.9254 147.64,-17.8242"/>
</g>
<!-- Node3 -->
<g id="node3" class="node"><title>Node3</title>
<g id="a_node3"><a xlink:href="a00045.html#a0b9f50b8e3238511c2245847c4ae3a59" target="_top" xlink:title="curl_ev_init_curl_handle">
<polygon fill="none" stroke="black" points="260,-44.5 260,-63.5 381,-63.5 381,-44.5 260,-44.5"/>
<text text-anchor="middle" x="320.5" y="-51.5" font-family="Helvetica,sans-Serif" font-size="10.00">curl_ev_init_curl_handle</text>
</a>
</g>
</g>
<!-- Node2&#45;&gt;Node3 -->
<g id="edge2" class="edge"><title>Node2&#45;&gt;Node3</title>
<path fill="none" stroke="midnightblue" d="M224.401,-54C232.496,-54 241.009,-54 249.477,-54"/>
<polygon fill="midnightblue" stroke="midnightblue" points="249.753,-57.5001 259.753,-54 249.753,-50.5001 249.753,-57.5001"/>
</g>
<!-- Node4 -->
<g id="node4" class="node"><title>Node4</title>
<g id="a_node4"><a xlink:href="a00045.html#a0ced84a42ddb41730c1bd167909740ed" target="_top" xlink:title="curl_ev_on_header">
<polygon fill="none" stroke="black" points="417,-63.5 417,-82.5 515,-82.5 515,-63.5 417,-63.5"/>
<text text-anchor="middle" x="466" y="-70.5" font-family="Helvetica,sans-Serif" font-size="10.00">curl_ev_on_header</text>
</a>
</g>
</g>
<!-- Node3&#45;&gt;Node4 -->
<g id="edge3" class="edge"><title>Node3&#45;&gt;Node4</title>
<path fill="none" stroke="midnightblue" d="M381.11,-61.8926C389.541,-63.0089 398.202,-64.1557 406.61,-65.2689"/>
<polygon fill="midnightblue" stroke="midnightblue" points="406.334,-68.7628 416.707,-66.6057 407.252,-61.8234 406.334,-68.7628"/>
</g>
<!-- Node5 -->
<g id="node5" class="node"><title>Node5</title>
<g id="a_node5"><a xlink:href="a00045.html#a87b1ef1482263495bc6743746b5730cd" target="_top" xlink:title="curl_ev_on_body">
<polygon fill="none" stroke="black" points="421,-25.5 421,-44.5 511,-44.5 511,-25.5 421,-25.5"/>
<text text-anchor="middle" x="466" y="-32.5" font-family="Helvetica,sans-Serif" font-size="10.00">curl_ev_on_body</text>
</a>
</g>
</g>
<!-- Node3&#45;&gt;Node5 -->
<g id="edge4" class="edge"><title>Node3&#45;&gt;Node5</title>
<path fill="none" stroke="midnightblue" d="M381.11,-46.1074C390.837,-44.8195 400.87,-43.4911 410.467,-42.2204"/>
<polygon fill="midnightblue" stroke="midnightblue" points="411.219,-45.6514 420.673,-40.869 410.3,-38.712 411.219,-45.6514"/>
</g>
</g>
</svg>
