<?xml version="1.0" encoding="UTF-8" standalone="no"?>
<!DOCTYPE svg PUBLIC "-//W3C//DTD SVG 1.1//EN"
 "http://www.w3.org/Graphics/SVG/1.1/DTD/svg11.dtd">
<!-- Generated by graphviz version 2.38.0 (20140413.2041)
 -->
<!-- Title: http_request_destroy Pages: 1 -->
<svg width="587pt" height="66pt"
 viewBox="0.00 0.00 587.00 66.00" xmlns="http://www.w3.org/2000/svg" xmlns:xlink="http://www.w3.org/1999/xlink">
<g id="graph0" class="graph" transform="scale(1 1) rotate(0) translate(4 62)">
<title>http_request_destroy</title>
<!-- Node1 -->
<g id="node1" class="node"><title>Node1</title>
<polygon fill="#bfbfbf" stroke="black" points="0,-19.5 0,-38.5 108,-38.5 108,-19.5 0,-19.5"/>
<text text-anchor="middle" x="54" y="-26.5" font-family="Helvetica,sans-Serif" font-size="10.00">http_request_destroy</text>
</g>
<!-- Node2 -->
<g id="node2" class="node"><title>Node2</title>
<g id="a_node2"><a xlink:href="a00015.html#a42d99b2bf42ff8eedd6c276afad095e3" target="_top" xlink:title="Callback for tcpd library. ">
<polygon fill="none" stroke="black" points="283,-38.5 283,-57.5 363,-57.5 363,-38.5 283,-38.5"/>
<text text-anchor="middle" x="323" y="-45.5" font-family="Helvetica,sans-Serif" font-size="10.00">on_disconnect</text>
</a>
</g>
</g>
<!-- Node1&#45;&gt;Node2 -->
<g id="edge1" class="edge"><title>Node1&#45;&gt;Node2</title>
<path fill="none" stroke="midnightblue" d="M118.341,-33.5074C169.432,-37.1431 239.672,-42.1415 282.891,-45.2169"/>
<polygon fill="midnightblue" stroke="midnightblue" points="118.293,-29.9952 108.07,-32.7765 117.796,-36.9776 118.293,-29.9952"/>
</g>
<!-- Node6 -->
<g id="node6" class="node"><title>Node6</title>
<g id="a_node6"><a xlink:href="a00036.html#a64ce145f4bd2b212ac9494fb18b43615" target="_top" xlink:title="Create a new ws_request. ">
<polygon fill="none" stroke="black" points="144,-0.5 144,-19.5 247,-19.5 247,-0.5 144,-0.5"/>
<text text-anchor="middle" x="195.5" y="-7.5" font-family="Helvetica,sans-Serif" font-size="10.00">http_request_create</text>
</a>
</g>
</g>
<!-- Node1&#45;&gt;Node6 -->
<g id="edge5" class="edge"><title>Node1&#45;&gt;Node6</title>
<path fill="none" stroke="midnightblue" d="M118.137,-20.4006C126.736,-19.2295 135.47,-18.0399 143.811,-16.9039"/>
<polygon fill="midnightblue" stroke="midnightblue" points="117.573,-16.9451 108.137,-21.7627 118.518,-23.8811 117.573,-16.9451"/>
</g>
<!-- Node3 -->
<g id="node3" class="node"><title>Node3</title>
<g id="a_node3"><a xlink:href="a00015.html#a8287f77cb41a94d39f282b607616df70" target="_top" xlink:title="Create a new httpd instance. ">
<polygon fill="none" stroke="black" points="399,-19.5 399,-38.5 491,-38.5 491,-19.5 399,-19.5"/>
<text text-anchor="middle" x="445" y="-26.5" font-family="Helvetica,sans-Serif" font-size="10.00">hpd_httpd_create</text>
</a>
</g>
</g>
<!-- Node2&#45;&gt;Node3 -->
<g id="edge2" class="edge"><title>Node2&#45;&gt;Node3</title>
<path fill="none" stroke="midnightblue" d="M373.368,-40.1834C381.783,-38.8509 390.487,-37.4729 398.788,-36.1585"/>
<polygon fill="midnightblue" stroke="midnightblue" points="372.622,-36.7578 363.292,-41.7787 373.717,-43.6717 372.622,-36.7578"/>
</g>
<!-- Node4 -->
<g id="node4" class="node"><title>Node4</title>
<g id="a_node4"><a xlink:href="a00034.html#a0ddf1224851353fc92bfbff6f499fa97" target="_top" xlink:title="main">
<polygon fill="none" stroke="black" points="534,-38.5 534,-57.5 572,-57.5 572,-38.5 534,-38.5"/>
<text text-anchor="middle" x="553" y="-45.5" font-family="Helvetica,sans-Serif" font-size="10.00">main</text>
</a>
</g>
</g>
<!-- Node3&#45;&gt;Node4 -->
<g id="edge3" class="edge"><title>Node3&#45;&gt;Node4</title>
<path fill="none" stroke="midnightblue" d="M501.153,-38.8859C512.951,-41.0006 524.606,-43.0897 533.775,-44.7333"/>
<polygon fill="midnightblue" stroke="midnightblue" points="501.722,-35.4321 491.261,-37.1128 500.487,-42.3223 501.722,-35.4321"/>
</g>
<!-- Node5 -->
<g id="node5" class="node"><title>Node5</title>
<g id="a_node5"><a xlink:href="a00025.html#a665691f420dff4eebb8f4b4af62d7a49" target="_top" xlink:title="on_start">
<polygon fill="none" stroke="black" points="527,-0.5 527,-19.5 579,-19.5 579,-0.5 527,-0.5"/>
<text text-anchor="middle" x="553" y="-7.5" font-family="Helvetica,sans-Serif" font-size="10.00">on_start</text>
</a>
</g>
</g>
<!-- Node3&#45;&gt;Node5 -->
<g id="edge4" class="edge"><title>Node3&#45;&gt;Node5</title>
<path fill="none" stroke="midnightblue" d="M501.302,-19.0874C510.211,-17.4906 519.032,-15.9093 526.758,-14.5246"/>
<polygon fill="midnightblue" stroke="midnightblue" points="500.487,-15.6777 491.261,-20.8872 501.722,-22.5679 500.487,-15.6777"/>
</g>
<!-- Node7 -->
<g id="node7" class="node"><title>Node7</title>
<g id="a_node7"><a xlink:href="a00015.html#acbf369331509bd9760bf346f6292376a" target="_top" xlink:title="Callback for tcpd library. ">
<polygon fill="none" stroke="black" points="289.5,-0.5 289.5,-19.5 356.5,-19.5 356.5,-0.5 289.5,-0.5"/>
<text text-anchor="middle" x="323" y="-7.5" font-family="Helvetica,sans-Serif" font-size="10.00">on_connect</text>
</a>
</g>
</g>
<!-- Node6&#45;&gt;Node7 -->
<g id="edge6" class="edge"><title>Node6&#45;&gt;Node7</title>
<path fill="none" stroke="midnightblue" d="M257.234,-10C268.246,-10 279.34,-10 289.16,-10"/>
<polygon fill="midnightblue" stroke="midnightblue" points="257.184,-6.5001 247.184,-10 257.184,-13.5001 257.184,-6.5001"/>
</g>
<!-- Node7&#45;&gt;Node3 -->
<g id="edge7" class="edge"><title>Node7&#45;&gt;Node3</title>
<path fill="none" stroke="midnightblue" d="M366.82,-16.7798C377.147,-18.415 388.216,-20.1675 398.655,-21.8203"/>
<polygon fill="midnightblue" stroke="midnightblue" points="367.215,-13.2988 356.791,-15.1918 366.12,-20.2127 367.215,-13.2988"/>
</g>
</g>
</svg>
