<?xml version="1.0" encoding="UTF-8" standalone="no"?>
<!DOCTYPE svg PUBLIC "-//W3C//DTD SVG 1.1//EN"
 "http://www.w3.org/Graphics/SVG/1.1/DTD/svg11.dtd">
<!-- Generated by graphviz version 2.38.0 (20140413.2041)
 -->
<!-- Title: discovery_free_service Pages: 1 -->
<svg width="1080pt" height="275pt"
 viewBox="0.00 0.00 1080.00 275.00" xmlns="http://www.w3.org/2000/svg" xmlns:xlink="http://www.w3.org/1999/xlink">
<g id="graph0" class="graph" transform="scale(1 1) rotate(0) translate(4 271)">
<title>discovery_free_service</title>
<!-- Node1 -->
<g id="node1" class="node"><title>Node1</title>
<polygon fill="#bfbfbf" stroke="black" points="0,-209.5 0,-228.5 117,-228.5 117,-209.5 0,-209.5"/>
<text text-anchor="middle" x="58.5" y="-216.5" font-family="Helvetica,sans-Serif" font-size="10.00">discovery_free_service</text>
</g>
<!-- Node2 -->
<g id="node2" class="node"><title>Node2</title>
<g id="a_node2"><a xlink:href="a00020.html#a9ac69d02cab7b0cff5d24b6eed07ca8d" target="_top" xlink:title="discovery_alloc_service">
<polygon fill="none" stroke="black" points="153,-247.5 153,-266.5 274,-266.5 274,-247.5 153,-247.5"/>
<text text-anchor="middle" x="213.5" y="-254.5" font-family="Helvetica,sans-Serif" font-size="10.00">discovery_alloc_service</text>
</a>
</g>
</g>
<!-- Node1&#45;&gt;Node2 -->
<g id="edge1" class="edge"><title>Node1&#45;&gt;Node2</title>
<path fill="none" stroke="midnightblue" d="M107.977,-231.04C129.352,-236.349 154.113,-242.499 174.169,-247.48"/>
<polygon fill="midnightblue" stroke="midnightblue" points="108.657,-227.603 98.1084,-228.589 106.97,-234.396 108.657,-227.603"/>
</g>
<!-- Node7 -->
<g id="node7" class="node"><title>Node7</title>
<g id="a_node7"><a xlink:href="a00020.html#a3c72fb9020b183238e0205b722d7ea95" target="_top" xlink:title="discovery_free_device">
<polygon fill="none" stroke="black" points="156.5,-152.5 156.5,-171.5 270.5,-171.5 270.5,-152.5 156.5,-152.5"/>
<text text-anchor="middle" x="213.5" y="-159.5" font-family="Helvetica,sans-Serif" font-size="10.00">discovery_free_device</text>
</a>
</g>
</g>
<!-- Node1&#45;&gt;Node7 -->
<g id="edge6" class="edge"><title>Node1&#45;&gt;Node7</title>
<path fill="none" stroke="midnightblue" d="M94.5705,-205.935C122.694,-195.457 161.514,-180.995 186.808,-171.572"/>
<polygon fill="midnightblue" stroke="midnightblue" points="93.2577,-202.689 85.1088,-209.459 95.7015,-209.248 93.2577,-202.689"/>
</g>
<!-- Node22 -->
<g id="node22" class="node"><title>Node22</title>
<g id="a_node22"><a xlink:href="a00079.html#acebc47c8796cb46b14899df696fae147" target="_top" xlink:title="hpd_service_free">
<polygon fill="none" stroke="black" points="168,-209.5 168,-228.5 259,-228.5 259,-209.5 168,-209.5"/>
<text text-anchor="middle" x="213.5" y="-216.5" font-family="Helvetica,sans-Serif" font-size="10.00">hpd_service_free</text>
</a>
</g>
</g>
<!-- Node1&#45;&gt;Node22 -->
<g id="edge26" class="edge"><title>Node1&#45;&gt;Node22</title>
<path fill="none" stroke="midnightblue" d="M127.681,-219C141.33,-219 155.336,-219 167.934,-219"/>
<polygon fill="midnightblue" stroke="midnightblue" points="127.343,-215.5 117.343,-219 127.343,-222.5 127.343,-215.5"/>
</g>
<!-- Node3 -->
<g id="node3" class="node"><title>Node3</title>
<g id="a_node3"><a xlink:href="a00079.html#ae265c33796304a96d8a0e670e61e7a3a" target="_top" xlink:title="[hpd_device_t functions] ">
<polygon fill="none" stroke="black" points="321.5,-247.5 321.5,-266.5 416.5,-266.5 416.5,-247.5 321.5,-247.5"/>
<text text-anchor="middle" x="369" y="-254.5" font-family="Helvetica,sans-Serif" font-size="10.00">hpd_service_alloc</text>
</a>
</g>
</g>
<!-- Node2&#45;&gt;Node3 -->
<g id="edge2" class="edge"><title>Node2&#45;&gt;Node3</title>
<path fill="none" stroke="midnightblue" d="M284.301,-257C296.888,-257 309.726,-257 321.447,-257"/>
<polygon fill="midnightblue" stroke="midnightblue" points="284.287,-253.5 274.287,-257 284.287,-260.5 284.287,-253.5"/>
</g>
<!-- Node4 -->
<g id="node4" class="node"><title>Node4</title>
<g id="a_node4"><a xlink:href="a00013.html#aca3f96055b6405843c652ef5efd1c3e8" target="_top" xlink:title="[create_parameter] ">
<polygon fill="none" stroke="black" points="472,-210 472,-240 582,-240 582,-210 472,-210"/>
<text text-anchor="start" x="480" y="-228" font-family="Helvetica,sans-Serif" font-size="10.00">demo_adapter_create</text>
<text text-anchor="middle" x="527" y="-217" font-family="Helvetica,sans-Serif" font-size="10.00">_service</text>
</a>
</g>
</g>
<!-- Node3&#45;&gt;Node4 -->
<g id="edge3" class="edge"><title>Node3&#45;&gt;Node4</title>
<path fill="none" stroke="midnightblue" d="M426.422,-245.426C441.224,-242.39 457.152,-239.123 471.834,-236.111"/>
<polygon fill="midnightblue" stroke="midnightblue" points="425.475,-242.047 416.383,-247.486 426.882,-248.905 425.475,-242.047"/>
</g>
<!-- Node5 -->
<g id="node5" class="node"><title>Node5</title>
<g id="a_node5"><a xlink:href="a00013.html#abfc239c18fce4bcc601e14074ddfabf8" target="_top" xlink:title="[create_service] ">
<polygon fill="none" stroke="black" points="626,-164.5 626,-183.5 763,-183.5 763,-164.5 626,-164.5"/>
<text text-anchor="middle" x="694.5" y="-171.5" font-family="Helvetica,sans-Serif" font-size="10.00">demo_adapter_create_lamp</text>
</a>
</g>
</g>
<!-- Node4&#45;&gt;Node5 -->
<g id="edge4" class="edge"><title>Node4&#45;&gt;Node5</title>
<path fill="none" stroke="midnightblue" d="M586.37,-207.013C611.94,-199.133 640.92,-190.203 662.286,-183.619"/>
<polygon fill="midnightblue" stroke="midnightblue" points="585.286,-203.684 576.76,-209.974 587.348,-210.374 585.286,-203.684"/>
</g>
<!-- Node6 -->
<g id="node6" class="node"><title>Node6</title>
<g id="a_node6"><a xlink:href="a00013.html#a9f84d5de2ac16bde89480bd48efdff51" target="_top" xlink:title="[create_lamp] ">
<polygon fill="none" stroke="black" points="953,-101.5 953,-120.5 1072,-120.5 1072,-101.5 953,-101.5"/>
<text text-anchor="middle" x="1012.5" y="-108.5" font-family="Helvetica,sans-Serif" font-size="10.00">demo_adapter_on_start</text>
</a>
</g>
</g>
<!-- Node5&#45;&gt;Node6 -->
<g id="edge5" class="edge"><title>Node5&#45;&gt;Node6</title>
<path fill="none" stroke="midnightblue" d="M766.776,-162.835C810.324,-155.67 867.061,-145.722 917,-135 936.86,-130.736 958.865,-125.196 976.641,-120.513"/>
<polygon fill="midnightblue" stroke="midnightblue" points="766.153,-159.39 756.848,-164.457 767.282,-166.298 766.153,-159.39"/>
</g>
<!-- Node8 -->
<g id="node8" class="node"><title>Node8</title>
<g id="a_node8"><a xlink:href="a00020.html#a9f30460be089f53c8d995635aedc1097" target="_top" xlink:title="discovery_alloc_device">
<polygon fill="none" stroke="black" points="310,-171.5 310,-190.5 428,-190.5 428,-171.5 310,-171.5"/>
<text text-anchor="middle" x="369" y="-178.5" font-family="Helvetica,sans-Serif" font-size="10.00">discovery_alloc_device</text>
</a>
</g>
</g>
<!-- Node7&#45;&gt;Node8 -->
<g id="edge7" class="edge"><title>Node7&#45;&gt;Node8</title>
<path fill="none" stroke="midnightblue" d="M280.782,-170.204C290.479,-171.405 300.403,-172.633 309.919,-173.811"/>
<polygon fill="midnightblue" stroke="midnightblue" points="281.14,-166.722 270.786,-168.967 280.28,-173.669 281.14,-166.722"/>
</g>
<!-- Node10 -->
<g id="node10" class="node"><title>Node10</title>
<g id="a_node10"><a xlink:href="a00020.html#aec714553397f80039bf246b3b0800420" target="_top" xlink:title="discovery_free_adapter">
<polygon fill="none" stroke="black" points="310,-76.5 310,-95.5 428,-95.5 428,-76.5 310,-76.5"/>
<text text-anchor="middle" x="369" y="-83.5" font-family="Helvetica,sans-Serif" font-size="10.00">discovery_free_adapter</text>
</a>
</g>
</g>
<!-- Node7&#45;&gt;Node10 -->
<g id="edge10" class="edge"><title>Node7&#45;&gt;Node10</title>
<path fill="none" stroke="midnightblue" d="M243.294,-147.744C274.117,-132.483 322.159,-108.697 348.717,-95.5473"/>
<polygon fill="midnightblue" stroke="midnightblue" points="241.35,-144.801 233.941,-152.375 244.456,-151.074 241.35,-144.801"/>
</g>
<!-- Node21 -->
<g id="node21" class="node"><title>Node21</title>
<g id="a_node21"><a xlink:href="a00079.html#a7b20f2cfe2e46cdbfe4112b95922446b" target="_top" xlink:title="hpd_device_free">
<polygon fill="none" stroke="black" points="325,-133.5 325,-152.5 413,-152.5 413,-133.5 325,-133.5"/>
<text text-anchor="middle" x="369" y="-140.5" font-family="Helvetica,sans-Serif" font-size="10.00">hpd_device_free</text>
</a>
</g>
</g>
<!-- Node7&#45;&gt;Node21 -->
<g id="edge24" class="edge"><title>Node7&#45;&gt;Node21</title>
<path fill="none" stroke="midnightblue" d="M280.936,-153.777C295.759,-151.942 311.103,-150.043 324.705,-148.359"/>
<polygon fill="midnightblue" stroke="midnightblue" points="280.28,-150.331 270.786,-155.033 281.14,-157.278 280.28,-150.331"/>
</g>
<!-- Node9 -->
<g id="node9" class="node"><title>Node9</title>
<g id="a_node9"><a xlink:href="a00079.html#a10a4b84cc7128e1900008dc1de4653a2" target="_top" xlink:title="A note on reusing IDs: An other module or remote client may have outstanding references to the old ID...">
<polygon fill="none" stroke="black" points="481,-171.5 481,-190.5 573,-190.5 573,-171.5 481,-171.5"/>
<text text-anchor="middle" x="527" y="-178.5" font-family="Helvetica,sans-Serif" font-size="10.00">hpd_device_alloc</text>
</a>
</g>
</g>
<!-- Node8&#45;&gt;Node9 -->
<g id="edge8" class="edge"><title>Node8&#45;&gt;Node9</title>
<path fill="none" stroke="midnightblue" d="M438.373,-181C452.641,-181 467.346,-181 480.538,-181"/>
<polygon fill="midnightblue" stroke="midnightblue" points="438.089,-177.5 428.089,-181 438.089,-184.5 438.089,-177.5"/>
</g>
<!-- Node9&#45;&gt;Node5 -->
<g id="edge9" class="edge"><title>Node9&#45;&gt;Node5</title>
<path fill="none" stroke="midnightblue" d="M583.413,-178.656C597.061,-178.079 611.826,-177.454 625.976,-176.856"/>
<polygon fill="midnightblue" stroke="midnightblue" points="583.067,-175.168 573.224,-179.087 583.363,-182.161 583.067,-175.168"/>
</g>
<!-- Node11 -->
<g id="node11" class="node"><title>Node11</title>
<g id="a_node11"><a xlink:href="a00076.html#a015919d95dc08af72eaa0663e65eaf2e" target="_top" xlink:title="daemon_runtime_destroy">
<polygon fill="none" stroke="black" points="464,-19.5 464,-38.5 590,-38.5 590,-19.5 464,-19.5"/>
<text text-anchor="middle" x="527" y="-26.5" font-family="Helvetica,sans-Serif" font-size="10.00">daemon_runtime_destroy</text>
</a>
</g>
</g>
<!-- Node10&#45;&gt;Node11 -->
<g id="edge11" class="edge"><title>Node10&#45;&gt;Node11</title>
<path fill="none" stroke="midnightblue" d="M405.758,-72.9345C434.433,-62.4572 474.014,-47.9949 499.804,-38.5716"/>
<polygon fill="midnightblue" stroke="midnightblue" points="404.302,-69.7401 396.111,-76.4595 406.705,-76.3149 404.302,-69.7401"/>
</g>
<!-- Node16 -->
<g id="node16" class="node"><title>Node16</title>
<g id="a_node16"><a xlink:href="a00020.html#a3c736bc96933454ab82040c3617275a3" target="_top" xlink:title="discovery_alloc_adapter">
<polygon fill="none" stroke="black" points="466,-95.5 466,-114.5 588,-114.5 588,-95.5 466,-95.5"/>
<text text-anchor="middle" x="527" y="-102.5" font-family="Helvetica,sans-Serif" font-size="10.00">discovery_alloc_adapter</text>
</a>
</g>
</g>
<!-- Node10&#45;&gt;Node16 -->
<g id="edge16" class="edge"><title>Node10&#45;&gt;Node16</title>
<path fill="none" stroke="midnightblue" d="M438.016,-94.284C447.256,-95.4094 456.687,-96.558 465.777,-97.6651"/>
<polygon fill="midnightblue" stroke="midnightblue" points="438.438,-90.8097 428.089,-93.0749 437.592,-97.7583 438.438,-90.8097"/>
</g>
<!-- Node19 -->
<g id="node19" class="node"><title>Node19</title>
<g id="a_node19"><a xlink:href="a00079.html#a0a2b0d9eef603396a0171d5b0c67bbbf" target="_top" xlink:title="hpd_adapter_free">
<polygon fill="none" stroke="black" points="648.5,-57.5 648.5,-76.5 740.5,-76.5 740.5,-57.5 648.5,-57.5"/>
<text text-anchor="middle" x="694.5" y="-64.5" font-family="Helvetica,sans-Serif" font-size="10.00">hpd_adapter_free</text>
</a>
</g>
</g>
<!-- Node10&#45;&gt;Node19 -->
<g id="edge20" class="edge"><title>Node10&#45;&gt;Node19</title>
<path fill="none" stroke="midnightblue" d="M438.486,-81.9776C501.7,-78.2649 593.781,-72.8567 648.269,-69.6565"/>
<polygon fill="midnightblue" stroke="midnightblue" points="437.986,-78.5009 428.209,-82.5812 438.397,-85.4888 437.986,-78.5009"/>
</g>
<!-- Node12 -->
<g id="node12" class="node"><title>Node12</title>
<g id="a_node12"><a xlink:href="a00017.html#affd72e7fb83ddd29450361c75672ddd4" target="_top" xlink:title="daemon_start">
<polygon fill="none" stroke="black" points="656.5,-19.5 656.5,-38.5 732.5,-38.5 732.5,-19.5 656.5,-19.5"/>
<text text-anchor="middle" x="694.5" y="-26.5" font-family="Helvetica,sans-Serif" font-size="10.00">daemon_start</text>
</a>
</g>
</g>
<!-- Node11&#45;&gt;Node12 -->
<g id="edge12" class="edge"><title>Node11&#45;&gt;Node12</title>
<path fill="none" stroke="midnightblue" d="M600.099,-29C619.405,-29 639.498,-29 656.08,-29"/>
<polygon fill="midnightblue" stroke="midnightblue" points="600.097,-25.5001 590.097,-29 600.097,-32.5001 600.097,-25.5001"/>
</g>
<!-- Node13 -->
<g id="node13" class="node"><title>Node13</title>
<g id="a_node13"><a xlink:href="a00077.html#a4a5e670df4a5790a7955aaef5483c08a" target="_top" xlink:title="hpd_start">
<polygon fill="none" stroke="black" points="829.5,-19.5 829.5,-38.5 886.5,-38.5 886.5,-19.5 829.5,-19.5"/>
<text text-anchor="middle" x="858" y="-26.5" font-family="Helvetica,sans-Serif" font-size="10.00">hpd_start</text>
</a>
</g>
</g>
<!-- Node12&#45;&gt;Node13 -->
<g id="edge13" class="edge"><title>Node12&#45;&gt;Node13</title>
<path fill="none" stroke="midnightblue" d="M742.605,-29C770.802,-29 805.664,-29 829.441,-29"/>
<polygon fill="midnightblue" stroke="midnightblue" points="742.551,-25.5001 732.551,-29 742.551,-32.5001 742.551,-25.5001"/>
</g>
<!-- Node14 -->
<g id="node14" class="node"><title>Node14</title>
<g id="a_node14"><a xlink:href="a00065.html#a0ddf1224851353fc92bfbff6f499fa97" target="_top" xlink:title="[file] ">
<polygon fill="none" stroke="black" points="993.5,-38.5 993.5,-57.5 1031.5,-57.5 1031.5,-38.5 993.5,-38.5"/>
<text text-anchor="middle" x="1012.5" y="-45.5" font-family="Helvetica,sans-Serif" font-size="10.00">main</text>
</a>
</g>
</g>
<!-- Node13&#45;&gt;Node14 -->
<g id="edge14" class="edge"><title>Node13&#45;&gt;Node14</title>
<path fill="none" stroke="midnightblue" d="M896.554,-33.6789C927.273,-37.5062 969.393,-42.7539 993.185,-45.7182"/>
<polygon fill="midnightblue" stroke="midnightblue" points="896.973,-30.204 886.617,-32.4408 896.107,-37.1503 896.973,-30.204"/>
</g>
<!-- Node15 -->
<g id="node15" class="node"><title>Node15</title>
<g id="a_node15"><a xlink:href="a00039.html#a5de92b31931f2f5155c682379a06da32" target="_top" xlink:title="TEST">
<polygon fill="none" stroke="black" points="991.5,-0.5 991.5,-19.5 1033.5,-19.5 1033.5,-0.5 991.5,-0.5"/>
<text text-anchor="middle" x="1012.5" y="-7.5" font-family="Helvetica,sans-Serif" font-size="10.00">TEST</text>
</a>
</g>
</g>
<!-- Node13&#45;&gt;Node15 -->
<g id="edge15" class="edge"><title>Node13&#45;&gt;Node15</title>
<path fill="none" stroke="midnightblue" d="M896.715,-24.3011C926.659,-20.5704 967.36,-15.4995 991.387,-12.5059"/>
<polygon fill="midnightblue" stroke="midnightblue" points="896.107,-20.8497 886.617,-25.5592 896.973,-27.796 896.107,-20.8497"/>
</g>
<!-- Node17 -->
<g id="node17" class="node"><title>Node17</title>
<g id="a_node17"><a xlink:href="a00079.html#aec51fa5c17a707a90a1634358ae1a9b4" target="_top" xlink:title="[hpd_adapter_t functions] ">
<polygon fill="none" stroke="black" points="647,-98.5 647,-117.5 742,-117.5 742,-98.5 647,-98.5"/>
<text text-anchor="middle" x="694.5" y="-105.5" font-family="Helvetica,sans-Serif" font-size="10.00">hpd_adapter_alloc</text>
</a>
</g>
</g>
<!-- Node16&#45;&gt;Node17 -->
<g id="edge17" class="edge"><title>Node16&#45;&gt;Node17</title>
<path fill="none" stroke="midnightblue" d="M598.311,-106.275C614.698,-106.572 631.751,-106.881 646.82,-107.154"/>
<polygon fill="midnightblue" stroke="midnightblue" points="598.279,-102.773 588.217,-106.092 598.152,-109.772 598.279,-102.773"/>
</g>
<!-- Node18 -->
<g id="node18" class="node"><title>Node18</title>
<g id="a_node18"><a xlink:href="a00013.html#a1a305bf3b6bebda2ca16c8adcdb95239" target="_top" xlink:title="[on_destroy] ">
<polygon fill="none" stroke="black" points="803,-96 803,-126 913,-126 913,-96 803,-96"/>
<text text-anchor="start" x="811" y="-114" font-family="Helvetica,sans-Serif" font-size="10.00">demo_adapter_create</text>
<text text-anchor="middle" x="858" y="-103" font-family="Helvetica,sans-Serif" font-size="10.00">_adapter</text>
</a>
</g>
</g>
<!-- Node17&#45;&gt;Node18 -->
<g id="edge18" class="edge"><title>Node17&#45;&gt;Node18</title>
<path fill="none" stroke="midnightblue" d="M752.257,-109.054C768.737,-109.36 786.684,-109.694 802.991,-109.997"/>
<polygon fill="midnightblue" stroke="midnightblue" points="752.276,-105.554 742.212,-108.868 752.146,-112.553 752.276,-105.554"/>
</g>
<!-- Node18&#45;&gt;Node6 -->
<g id="edge19" class="edge"><title>Node18&#45;&gt;Node6</title>
<path fill="none" stroke="midnightblue" d="M923.281,-111C933.081,-111 943.151,-111 952.822,-111"/>
<polygon fill="midnightblue" stroke="midnightblue" points="923.195,-107.5 913.195,-111 923.195,-114.5 923.195,-107.5"/>
</g>
<!-- Node19&#45;&gt;Node18 -->
<g id="edge21" class="edge"><title>Node19&#45;&gt;Node18</title>
<path fill="none" stroke="midnightblue" d="M740.343,-79.2172C759.749,-84.5043 782.629,-90.7381 802.963,-96.2779"/>
<polygon fill="midnightblue" stroke="midnightblue" points="741.111,-75.7991 730.543,-76.5473 739.271,-82.553 741.111,-75.7991"/>
</g>
<!-- Node20 -->
<g id="node20" class="node"><title>Node20</title>
<g id="a_node20"><a xlink:href="a00013.html#aa30316159e7cdc14f2f035f0949b6680" target="_top" xlink:title="[on_start] ">
<polygon fill="none" stroke="black" points="799,-57.5 799,-76.5 917,-76.5 917,-57.5 799,-57.5"/>
<text text-anchor="middle" x="858" y="-64.5" font-family="Helvetica,sans-Serif" font-size="10.00">demo_adapter_on_stop</text>
</a>
</g>
</g>
<!-- Node19&#45;&gt;Node20 -->
<g id="edge22" class="edge"><title>Node19&#45;&gt;Node20</title>
<path fill="none" stroke="midnightblue" d="M751.322,-67C766.705,-67 783.427,-67 798.935,-67"/>
<polygon fill="midnightblue" stroke="midnightblue" points="750.917,-63.5001 740.917,-67 750.917,-70.5001 750.917,-63.5001"/>
</g>
<!-- Node20&#45;&gt;Node6 -->
<g id="edge23" class="edge"><title>Node20&#45;&gt;Node6</title>
<path fill="none" stroke="midnightblue" d="M901.773,-79.3412C926.063,-86.3493 956.007,-94.9888 978.474,-101.471"/>
<polygon fill="midnightblue" stroke="midnightblue" points="902.669,-75.9568 892.09,-76.5473 900.728,-82.6824 902.669,-75.9568"/>
</g>
<!-- Node21&#45;&gt;Node5 -->
<g id="edge25" class="edge"><title>Node21&#45;&gt;Node5</title>
<path fill="none" stroke="midnightblue" d="M423.06,-147.145C467.645,-150.732 533.029,-156.238 590,-162 601.608,-163.174 613.937,-164.518 625.887,-165.872"/>
<polygon fill="midnightblue" stroke="midnightblue" points="423.281,-143.651 413.034,-146.342 422.722,-150.629 423.281,-143.651"/>
</g>
<!-- Node22&#45;&gt;Node4 -->
<g id="edge27" class="edge"><title>Node22&#45;&gt;Node4</title>
<path fill="none" stroke="midnightblue" d="M269.39,-220.057C326.389,-221.155 415.009,-222.862 471.764,-223.955"/>
<polygon fill="midnightblue" stroke="midnightblue" points="269.196,-216.553 259.13,-219.86 269.061,-223.552 269.196,-216.553"/>
</g>
</g>
</svg>
