<?xml version="1.0" encoding="UTF-8" standalone="no"?>
<!DOCTYPE svg PUBLIC "-//W3C//DTD SVG 1.1//EN"
 "http://www.w3.org/Graphics/SVG/1.1/DTD/svg11.dtd">
<!-- Generated by graphviz version 2.38.0 (20140413.2041)
 -->
<!-- Title: discovery_alloc_device Pages: 1 -->
<svg width="907pt" height="167pt"
 viewBox="0.00 0.00 907.00 166.71" xmlns="http://www.w3.org/2000/svg" xmlns:xlink="http://www.w3.org/1999/xlink">
<g id="graph0" class="graph" transform="scale(1 1) rotate(0) translate(4 162.712)">
<title>discovery_alloc_device</title>
<!-- Node1 -->
<g id="node1" class="node"><title>Node1</title>
<polygon fill="#bfbfbf" stroke="black" points="0,-51.3302 0,-70.3302 118,-70.3302 118,-51.3302 0,-51.3302"/>
<text text-anchor="middle" x="59" y="-58.3302" font-family="Helvetica,sans-Serif" font-size="10.00">discovery_alloc_device</text>
</g>
<!-- Node2 -->
<g id="node2" class="node"><title>Node2</title>
<g id="a_node2"><a xlink:href="a00042.html#a8d23b888fb4bb3f951c7d48f1928ee9a" target="_top" xlink:title="hpd_map_alloc">
<polygon fill="none" stroke="black" points="170,-70.3302 170,-89.3302 252,-89.3302 252,-70.3302 170,-70.3302"/>
<text text-anchor="middle" x="211" y="-77.3302" font-family="Helvetica,sans-Serif" font-size="10.00">hpd_map_alloc</text>
</a>
</g>
</g>
<!-- Node1&#45;&gt;Node2 -->
<g id="edge1" class="edge"><title>Node1&#45;&gt;Node2</title>
<path fill="none" stroke="midnightblue" d="M118.423,-68.2305C131.924,-69.9407 146.18,-71.7464 159.319,-73.4106"/>
<polygon fill="midnightblue" stroke="midnightblue" points="159.22,-76.926 169.581,-74.7105 160.1,-69.9815 159.22,-76.926"/>
</g>
<!-- Node3 -->
<g id="node3" class="node"><title>Node3</title>
<g id="a_node3"><a xlink:href="a00059.html#a3c72fb9020b183238e0205b722d7ea95" target="_top" xlink:title="discovery_free_device">
<polygon fill="none" stroke="black" points="154,-32.3302 154,-51.3302 268,-51.3302 268,-32.3302 154,-32.3302"/>
<text text-anchor="middle" x="211" y="-39.3302" font-family="Helvetica,sans-Serif" font-size="10.00">discovery_free_device</text>
</a>
</g>
</g>
<!-- Node1&#45;&gt;Node3 -->
<g id="edge2" class="edge"><title>Node1&#45;&gt;Node3</title>
<path fill="none" stroke="midnightblue" d="M118.423,-53.4299C126.728,-52.378 135.318,-51.29 143.758,-50.2209"/>
<polygon fill="midnightblue" stroke="midnightblue" points="144.468,-53.659 153.949,-48.93 143.588,-46.7145 144.468,-53.659"/>
</g>
<!-- Node4 -->
<g id="node4" class="node"><title>Node4</title>
<g id="a_node4"><a xlink:href="a00059.html#a562bd655fd329da0289d21ec36973322" target="_top" xlink:title="discovery_free_service">
<polygon fill="none" stroke="black" points="304,-89.3302 304,-108.33 421,-108.33 421,-89.3302 304,-89.3302"/>
<text text-anchor="middle" x="362.5" y="-96.3302" font-family="Helvetica,sans-Serif" font-size="10.00">discovery_free_service</text>
</a>
</g>
</g>
<!-- Node3&#45;&gt;Node4 -->
<g id="edge3" class="edge"><title>Node3&#45;&gt;Node4</title>
<path fill="none" stroke="midnightblue" d="M241.18,-51.3681C249.849,-54.2992 259.341,-57.605 268,-60.8302 288.643,-68.5194 311.56,-77.8208 329.539,-85.2966"/>
<polygon fill="midnightblue" stroke="midnightblue" points="328.398,-88.6128 338.974,-89.2402 331.097,-82.1543 328.398,-88.6128"/>
</g>
<!-- Node6 -->
<g id="node6" class="node"><title>Node6</title>
<g id="a_node6"><a xlink:href="a00042.html#a195d511a075f2349200563af1c5d1fd7" target="_top" xlink:title="hpd_map_free">
<polygon fill="none" stroke="black" points="622,-70.3302 622,-89.3302 700,-89.3302 700,-70.3302 622,-70.3302"/>
<text text-anchor="middle" x="661" y="-77.3302" font-family="Helvetica,sans-Serif" font-size="10.00">hpd_map_free</text>
</a>
</g>
</g>
<!-- Node3&#45;&gt;Node6 -->
<g id="edge13" class="edge"><title>Node3&#45;&gt;Node6</title>
<path fill="none" stroke="midnightblue" d="M268.286,-46.6045C357.171,-54.1439 528.495,-68.6758 611.954,-75.7549"/>
<polygon fill="midnightblue" stroke="midnightblue" points="611.666,-79.243 621.926,-76.6008 612.258,-72.268 611.666,-79.243"/>
</g>
<!-- Node8 -->
<g id="node8" class="node"><title>Node8</title>
<g id="a_node8"><a xlink:href="a00006.html#adf46370d9c211c3be22966b4606ba9b0" target="_top" xlink:title="free">
<polygon fill="none" stroke="black" points="866,-70.3302 866,-89.3302 899,-89.3302 899,-70.3302 866,-70.3302"/>
<text text-anchor="middle" x="882.5" y="-77.3302" font-family="Helvetica,sans-Serif" font-size="10.00">free</text>
</a>
</g>
</g>
<!-- Node3&#45;&gt;Node8 -->
<g id="edge12" class="edge"><title>Node3&#45;&gt;Node8</title>
<path fill="none" stroke="midnightblue" d="M259.604,-32.2903C320.014,-21.0339 427.547,-3.83024 520.5,-3.83024 520.5,-3.83024 520.5,-3.83024 662,-3.83024 737.143,-3.83024 763.153,11.4907 830,-22.8302 846.994,-31.5553 861.093,-48.3608 870.217,-61.4731"/>
<polygon fill="midnightblue" stroke="midnightblue" points="867.535,-63.7649 875.952,-70.1998 873.385,-59.9206 867.535,-63.7649"/>
</g>
<!-- Node5 -->
<g id="node5" class="node"><title>Node5</title>
<g id="a_node5"><a xlink:href="a00059.html#ad18143d06649d9220e4fd8d74dbdec79" target="_top" xlink:title="discovery_free_parameter">
<polygon fill="none" stroke="black" points="457,-108.33 457,-127.33 586,-127.33 586,-108.33 457,-108.33"/>
<text text-anchor="middle" x="521.5" y="-115.33" font-family="Helvetica,sans-Serif" font-size="10.00">discovery_free_parameter</text>
</a>
</g>
</g>
<!-- Node4&#45;&gt;Node5 -->
<g id="edge4" class="edge"><title>Node4&#45;&gt;Node5</title>
<path fill="none" stroke="midnightblue" d="M421.07,-105.797C429.435,-106.81 438.143,-107.864 446.774,-108.908"/>
<polygon fill="midnightblue" stroke="midnightblue" points="446.497,-112.4 456.845,-110.127 447.338,-105.451 446.497,-112.4"/>
</g>
<!-- Node4&#45;&gt;Node6 -->
<g id="edge11" class="edge"><title>Node4&#45;&gt;Node6</title>
<path fill="none" stroke="midnightblue" d="M421.02,-95.1443C476.594,-91.5831 559.807,-86.2507 611.944,-82.9097"/>
<polygon fill="midnightblue" stroke="midnightblue" points="612.184,-86.4016 621.939,-82.2692 611.736,-79.416 612.184,-86.4016"/>
</g>
<!-- Node4&#45;&gt;Node8 -->
<g id="edge10" class="edge"><title>Node4&#45;&gt;Node8</title>
<path fill="none" stroke="midnightblue" d="M381.133,-108.41C399.47,-117.784 429.313,-131.419 457,-136.83 620.008,-168.69 673.346,-169.024 830,-113.83 841.64,-109.729 853.231,-102.435 862.461,-95.6519"/>
<polygon fill="midnightblue" stroke="midnightblue" points="864.743,-98.3121 870.512,-89.4257 860.46,-92.7749 864.743,-98.3121"/>
</g>
<!-- Node5&#45;&gt;Node6 -->
<g id="edge5" class="edge"><title>Node5&#45;&gt;Node6</title>
<path fill="none" stroke="midnightblue" d="M557.197,-108.241C574.866,-103.358 596.549,-97.3659 615.439,-92.1453"/>
<polygon fill="midnightblue" stroke="midnightblue" points="616.608,-95.4536 625.314,-89.4162 614.743,-88.7065 616.608,-95.4536"/>
</g>
<!-- Node5&#45;&gt;Node8 -->
<g id="edge9" class="edge"><title>Node5&#45;&gt;Node8</title>
<path fill="none" stroke="midnightblue" d="M586.242,-116.336C648.734,-114.055 746.506,-108.305 830,-93.8302 838.601,-92.339 847.847,-90.0491 856.098,-87.7504"/>
<polygon fill="midnightblue" stroke="midnightblue" points="857.274,-91.0534 865.894,-84.8934 855.314,-84.3334 857.274,-91.0534"/>
</g>
<!-- Node7 -->
<g id="node7" class="node"><title>Node7</title>
<g id="a_node7"><a xlink:href="a00022.html#ae1085dd4fd40466d18b02ec077ef4d6d" target="_top" xlink:title="hpd_map_remove">
<polygon fill="none" stroke="black" points="736,-32.3302 736,-51.3302 830,-51.3302 830,-32.3302 736,-32.3302"/>
<text text-anchor="middle" x="783" y="-39.3302" font-family="Helvetica,sans-Serif" font-size="10.00">hpd_map_remove</text>
</a>
</g>
</g>
<!-- Node6&#45;&gt;Node7 -->
<g id="edge6" class="edge"><title>Node6&#45;&gt;Node7</title>
<path fill="none" stroke="midnightblue" d="M692.281,-70.2412C707.346,-65.4708 725.754,-59.6415 741.967,-54.5074"/>
<polygon fill="midnightblue" stroke="midnightblue" points="743.252,-57.7719 751.729,-51.4162 741.139,-51.0985 743.252,-57.7719"/>
</g>
<!-- Node6&#45;&gt;Node8 -->
<g id="edge8" class="edge"><title>Node6&#45;&gt;Node8</title>
<path fill="none" stroke="midnightblue" d="M700.234,-79.8302C744.728,-79.8302 816.997,-79.8302 855.468,-79.8302"/>
<polygon fill="midnightblue" stroke="midnightblue" points="855.813,-83.3303 865.813,-79.8302 855.813,-76.3303 855.813,-83.3303"/>
</g>
<!-- Node7&#45;&gt;Node8 -->
<g id="edge7" class="edge"><title>Node7&#45;&gt;Node8</title>
<path fill="none" stroke="midnightblue" d="M808.603,-51.4192C823.179,-57.1001 841.608,-64.2825 856.289,-70.0043"/>
<polygon fill="midnightblue" stroke="midnightblue" points="855.172,-73.3255 865.76,-73.6959 857.714,-66.8033 855.172,-73.3255"/>
</g>
</g>
</svg>
