<?xml version="1.0" encoding="UTF-8" standalone="no"?>
<!DOCTYPE svg PUBLIC "-//W3C//DTD SVG 1.1//EN"
 "http://www.w3.org/Graphics/SVG/1.1/DTD/svg11.dtd">
<!-- Generated by graphviz version 2.38.0 (20140413.2041)
 -->
<!-- Title: daemon_stop Pages: 1 -->
<svg width="345pt" height="28pt"
 viewBox="0.00 0.00 345.00 28.00" xmlns="http://www.w3.org/2000/svg" xmlns:xlink="http://www.w3.org/1999/xlink">
<g id="graph0" class="graph" transform="scale(1 1) rotate(0) translate(4 24)">
<title>daemon_stop</title>
<!-- Node1 -->
<g id="node1" class="node"><title>Node1</title>
<polygon fill="#bfbfbf" stroke="black" points="0,-0.5 0,-19.5 75,-19.5 75,-0.5 0,-0.5"/>
<text text-anchor="middle" x="37.5" y="-7.5" font-family="Helvetica,sans-Serif" font-size="10.00">daemon_stop</text>
</g>
<!-- Node2 -->
<g id="node2" class="node"><title>Node2</title>
<g id="a_node2"><a xlink:href="a00077.html#ad279f4f771e132927c09bd599fbe2b1b" target="_top" xlink:title="hpd_stop">
<polygon fill="none" stroke="black" points="111,-0.5 111,-19.5 167,-19.5 167,-0.5 111,-0.5"/>
<text text-anchor="middle" x="139" y="-7.5" font-family="Helvetica,sans-Serif" font-size="10.00">hpd_stop</text>
</a>
</g>
</g>
<!-- Node1&#45;&gt;Node2 -->
<g id="edge1" class="edge"><title>Node1&#45;&gt;Node2</title>
<path fill="none" stroke="midnightblue" d="M85.3519,-10C94.043,-10 102.853,-10 110.715,-10"/>
<polygon fill="midnightblue" stroke="midnightblue" points="85.2675,-6.5001 75.2674,-10 85.2674,-13.5001 85.2675,-6.5001"/>
</g>
<!-- Node3 -->
<g id="node3" class="node"><title>Node3</title>
<g id="a_node3"><a xlink:href="a00039.html#a548a458ce737e269e9cf95bdbdcdc12e" target="_top" xlink:title="stop_hpd">
<polygon fill="none" stroke="black" points="203,-0.5 203,-19.5 259,-19.5 259,-0.5 203,-0.5"/>
<text text-anchor="middle" x="231" y="-7.5" font-family="Helvetica,sans-Serif" font-size="10.00">stop_hpd</text>
</a>
</g>
</g>
<!-- Node2&#45;&gt;Node3 -->
<g id="edge2" class="edge"><title>Node2&#45;&gt;Node3</title>
<path fill="none" stroke="midnightblue" d="M177.158,-10C185.713,-10 194.658,-10 202.705,-10"/>
<polygon fill="midnightblue" stroke="midnightblue" points="177.003,-6.5001 167.003,-10 177.003,-13.5001 177.003,-6.5001"/>
</g>
<!-- Node4 -->
<g id="node4" class="node"><title>Node4</title>
<g id="a_node4"><a xlink:href="a00039.html#a5de92b31931f2f5155c682379a06da32" target="_top" xlink:title="TEST">
<polygon fill="none" stroke="black" points="295,-0.5 295,-19.5 337,-19.5 337,-0.5 295,-0.5"/>
<text text-anchor="middle" x="316" y="-7.5" font-family="Helvetica,sans-Serif" font-size="10.00">TEST</text>
</a>
</g>
</g>
<!-- Node3&#45;&gt;Node4 -->
<g id="edge3" class="edge"><title>Node3&#45;&gt;Node4</title>
<path fill="none" stroke="midnightblue" d="M269.3,-10C278.105,-10 287.164,-10 294.872,-10"/>
<polygon fill="midnightblue" stroke="midnightblue" points="269.177,-6.5001 259.177,-10 269.177,-13.5001 269.177,-6.5001"/>
</g>
</g>
</svg>
