<?xml version="1.0" encoding="UTF-8" standalone="no"?>
<!DOCTYPE svg PUBLIC "-//W3C//DTD SVG 1.1//EN"
 "http://www.w3.org/Graphics/SVG/1.1/DTD/svg11.dtd">
<!-- Generated by graphviz version 2.38.0 (20140413.2041)
 -->
<!-- Title: add_service Pages: 1 -->
<svg width="998pt" height="728pt"
 viewBox="0.00 0.00 998.00 728.00" xmlns="http://www.w3.org/2000/svg" xmlns:xlink="http://www.w3.org/1999/xlink">
<g id="graph0" class="graph" transform="scale(1 1) rotate(0) translate(4 724)">
<title>add_service</title>
<!-- Node1 -->
<g id="node1" class="node"><title>Node1</title>
<polygon fill="#bfbfbf" stroke="black" points="0,-183.5 0,-202.5 69,-202.5 69,-183.5 0,-183.5"/>
<text text-anchor="middle" x="34.5" y="-190.5" font-family="Helvetica,sans-Serif" font-size="10.00">add_service</text>
</g>
<!-- Node2 -->
<g id="node2" class="node"><title>Node2</title>
<g id="a_node2"><a xlink:href="a00060.html#a90138cb6c91b2b93f66c4f8a76495394" target="_top" xlink:title="[hpd_device_t functions] ">
<polygon fill="none" stroke="black" points="273,-650.5 273,-669.5 374,-669.5 374,-650.5 273,-650.5"/>
<text text-anchor="middle" x="323.5" y="-657.5" font-family="Helvetica,sans-Serif" font-size="10.00">hpd_service_get_id</text>
</a>
</g>
</g>
<!-- Node1&#45;&gt;Node2 -->
<g id="edge1" class="edge"><title>Node1&#45;&gt;Node2</title>
<path fill="none" stroke="midnightblue" d="M37.1854,-202.563C43.1097,-234.756 64.8226,-341.618 105,-421 157.344,-524.42 171.731,-556.064 261,-630 268.673,-636.355 277.919,-641.766 286.884,-646.169"/>
<polygon fill="midnightblue" stroke="midnightblue" points="285.5,-649.385 296.047,-650.391 288.429,-643.028 285.5,-649.385"/>
</g>
<!-- Node5 -->
<g id="node5" class="node"><title>Node5</title>
<g id="a_node5"><a xlink:href="a00080.html#aa181e2f731323873699902e5cf92eea8" target="_top" xlink:title="add">
<polygon fill="none" stroke="black" points="639.5,-123.5 639.5,-142.5 671.5,-142.5 671.5,-123.5 639.5,-123.5"/>
<text text-anchor="middle" x="655.5" y="-130.5" font-family="Helvetica,sans-Serif" font-size="10.00">add</text>
</a>
</g>
</g>
<!-- Node1&#45;&gt;Node5 -->
<g id="edge4" class="edge"><title>Node1&#45;&gt;Node5</title>
<path fill="none" stroke="midnightblue" d="M69.4169,-192.089C132.086,-190.179 270.196,-184.905 386,-173 476.033,-163.744 582.083,-145.866 629.455,-137.51"/>
<polygon fill="midnightblue" stroke="midnightblue" points="630.188,-140.934 639.421,-135.739 628.963,-134.042 630.188,-140.934"/>
</g>
<!-- Node6 -->
<g id="node6" class="node"><title>Node6</title>
<g id="a_node6"><a xlink:href="a00025.html#ae30c92f3bb2ebffcbb82054ad60c1ac5" target="_top" xlink:title="hpd_rest_url_create">
<polygon fill="none" stroke="black" points="114,-392.5 114,-411.5 216,-411.5 216,-392.5 114,-392.5"/>
<text text-anchor="middle" x="165" y="-399.5" font-family="Helvetica,sans-Serif" font-size="10.00">hpd_rest_url_create</text>
</a>
</g>
</g>
<!-- Node1&#45;&gt;Node6 -->
<g id="edge5" class="edge"><title>Node1&#45;&gt;Node6</title>
<path fill="none" stroke="midnightblue" d="M41.3553,-202.523C61.257,-234.893 126.517,-341.035 152.842,-383.852"/>
<polygon fill="midnightblue" stroke="midnightblue" points="149.891,-385.735 158.11,-392.421 155.854,-382.069 149.891,-385.735"/>
</g>
<!-- Node12 -->
<g id="node12" class="node"><title>Node12</title>
<g id="a_node12"><a xlink:href="a00006.html#adf46370d9c211c3be22966b4606ba9b0" target="_top" xlink:title="free">
<polygon fill="none" stroke="black" points="926,-354.5 926,-373.5 959,-373.5 959,-354.5 926,-354.5"/>
<text text-anchor="middle" x="942.5" y="-361.5" font-family="Helvetica,sans-Serif" font-size="10.00">free</text>
</a>
</g>
</g>
<!-- Node1&#45;&gt;Node12 -->
<g id="edge34" class="edge"><title>Node1&#45;&gt;Node12</title>
<path fill="none" stroke="midnightblue" d="M69.3263,-200.417C122.801,-211.476 230.271,-231 322.5,-231 322.5,-231 322.5,-231 656.5,-231 748.071,-231 779.56,-223.452 859,-269 891.355,-287.551 917.248,-323.613 930.908,-345.578"/>
<polygon fill="midnightblue" stroke="midnightblue" points="927.999,-347.532 936.15,-354.3 933.999,-343.926 927.999,-347.532"/>
</g>
<!-- Node29 -->
<g id="node29" class="node"><title>Node29</title>
<g id="a_node29"><a xlink:href="a00060.html#ae383d9141430bb772cbbc9b036271e9b" target="_top" xlink:title="[model foreach loops] ">
<polygon fill="none" stroke="black" points="105,-142.5 105,-161.5 225,-161.5 225,-142.5 105,-142.5"/>
<text text-anchor="middle" x="165" y="-149.5" font-family="Helvetica,sans-Serif" font-size="10.00">hpd_action_get_method</text>
</a>
</g>
</g>
<!-- Node1&#45;&gt;Node29 -->
<g id="edge35" class="edge"><title>Node1&#45;&gt;Node29</title>
<path fill="none" stroke="midnightblue" d="M65.3035,-183.491C82.8552,-177.891 105.276,-170.737 124.311,-164.663"/>
<polygon fill="midnightblue" stroke="midnightblue" points="125.45,-167.974 133.913,-161.6 123.322,-161.305 125.45,-167.974"/>
</g>
<!-- Node31 -->
<g id="node31" class="node"><title>Node31</title>
<g id="a_node31"><a xlink:href="a00080.html#ae8f63d2ca9864211a681b077c4431a33" target="_top" xlink:title="add_attr">
<polygon fill="none" stroke="black" points="460,-95.5 460,-114.5 512,-114.5 512,-95.5 460,-95.5"/>
<text text-anchor="middle" x="486" y="-102.5" font-family="Helvetica,sans-Serif" font-size="10.00">add_attr</text>
</a>
</g>
</g>
<!-- Node1&#45;&gt;Node31 -->
<g id="edge37" class="edge"><title>Node1&#45;&gt;Node31</title>
<path fill="none" stroke="midnightblue" d="M43.2307,-183.18C54.9019,-169.185 78.4932,-143.984 105,-133 223.337,-83.9609 380.07,-93.0887 449.406,-100.445"/>
<polygon fill="midnightblue" stroke="midnightblue" points="449.438,-103.971 459.765,-101.602 450.215,-97.0138 449.438,-103.971"/>
</g>
<!-- Node33 -->
<g id="node33" class="node"><title>Node33</title>
<g id="a_node33"><a xlink:href="a00080.html#a6c449fb11af835a61a508faa1a37cb9e" target="_top" xlink:title="add_parameters">
<polygon fill="none" stroke="black" points="122,-57.5 122,-76.5 208,-76.5 208,-57.5 122,-57.5"/>
<text text-anchor="middle" x="165" y="-64.5" font-family="Helvetica,sans-Serif" font-size="10.00">add_parameters</text>
</a>
</g>
</g>
<!-- Node1&#45;&gt;Node33 -->
<g id="edge40" class="edge"><title>Node1&#45;&gt;Node33</title>
<path fill="none" stroke="midnightblue" d="M39.6405,-183.471C48.7077,-163.63 72.1627,-117.528 105,-91 109.968,-86.9869 115.696,-83.5631 121.59,-80.6669"/>
<polygon fill="midnightblue" stroke="midnightblue" points="123.177,-83.7921 130.902,-76.5412 120.341,-77.3921 123.177,-83.7921"/>
</g>
<!-- Node3 -->
<g id="node3" class="node"><title>Node3</title>
<g id="a_node3"><a xlink:href="a00011.html#a0a2ab1d55e44c5a4488fed87c0fbc508" target="_top" xlink:title="discovery_find_service">
<polygon fill="none" stroke="black" points="428,-700.5 428,-719.5 544,-719.5 544,-700.5 428,-700.5"/>
<text text-anchor="middle" x="486" y="-707.5" font-family="Helvetica,sans-Serif" font-size="10.00">discovery_find_service</text>
</a>
</g>
</g>
<!-- Node2&#45;&gt;Node3 -->
<g id="edge2" class="edge"><title>Node2&#45;&gt;Node3</title>
<path fill="none" stroke="midnightblue" d="M354.334,-669.613C373.617,-675.794 399.265,-683.958 422,-691 428.745,-693.089 435.906,-695.277 442.889,-697.395"/>
<polygon fill="midnightblue" stroke="midnightblue" points="442.337,-700.884 452.922,-700.427 444.362,-694.184 442.337,-700.884"/>
</g>
<!-- Node4 -->
<g id="node4" class="node"><title>Node4</title>
<g id="a_node4"><a xlink:href="a00063.html#a0c24b895ea333fedf685a75e27e64c37" target="_top" xlink:title="discovery_get_service_id">
<polygon fill="none" stroke="black" points="422.5,-662.5 422.5,-681.5 549.5,-681.5 549.5,-662.5 422.5,-662.5"/>
<text text-anchor="middle" x="486" y="-669.5" font-family="Helvetica,sans-Serif" font-size="10.00">discovery_get_service_id</text>
</a>
</g>
</g>
<!-- Node2&#45;&gt;Node4 -->
<g id="edge3" class="edge"><title>Node2&#45;&gt;Node4</title>
<path fill="none" stroke="midnightblue" d="M374.403,-663.731C386.384,-664.627 399.423,-665.602 412.208,-666.558"/>
<polygon fill="midnightblue" stroke="midnightblue" points="412.148,-670.063 422.381,-667.318 412.67,-663.082 412.148,-670.063"/>
</g>
<!-- Node6&#45;&gt;Node2 -->
<g id="edge19" class="edge"><title>Node6&#45;&gt;Node2</title>
<path fill="none" stroke="midnightblue" d="M171.374,-411.657C182.368,-431.646 207.832,-479.191 225,-521 244.379,-568.194 227.437,-591.576 261,-630 266.729,-636.559 274.221,-641.822 281.996,-645.993"/>
<polygon fill="midnightblue" stroke="midnightblue" points="280.635,-649.222 291.164,-650.4 283.667,-642.913 280.635,-649.222"/>
</g>
<!-- Node7 -->
<g id="node7" class="node"><title>Node7</title>
<g id="a_node7"><a xlink:href="a00060.html#a1ce881941d5fa5be20c50439118ce79c" target="_top" xlink:title="hpd_service_get_adapter">
<polygon fill="none" stroke="black" points="261,-547.5 261,-566.5 386,-566.5 386,-547.5 261,-547.5"/>
<text text-anchor="middle" x="323.5" y="-554.5" font-family="Helvetica,sans-Serif" font-size="10.00">hpd_service_get_adapter</text>
</a>
</g>
</g>
<!-- Node6&#45;&gt;Node7 -->
<g id="edge6" class="edge"><title>Node6&#45;&gt;Node7</title>
<path fill="none" stroke="midnightblue" d="M172.577,-411.653C186.978,-432.355 223.057,-481.905 261,-516 271.845,-525.745 285.179,-534.917 296.655,-542.104"/>
<polygon fill="midnightblue" stroke="midnightblue" points="295.017,-545.204 305.378,-547.416 298.657,-539.225 295.017,-545.204"/>
</g>
<!-- Node6&#45;&gt;Node12 -->
<g id="edge33" class="edge"><title>Node6&#45;&gt;Node12</title>
<path fill="none" stroke="midnightblue" d="M216.223,-397.156C279.022,-391.527 389.852,-383 485,-383 485,-383 485,-383 656.5,-383 752.162,-383 865.487,-372.211 915.533,-366.893"/>
<polygon fill="midnightblue" stroke="midnightblue" points="916.201,-370.341 925.768,-365.787 915.449,-363.382 916.201,-370.341"/>
</g>
<!-- Node13 -->
<g id="node13" class="node"><title>Node13</title>
<g id="a_node13"><a xlink:href="a00060.html#a075014c7d7993dd88aafce4f8365ad4a" target="_top" xlink:title="hpd_service_get_device">
<polygon fill="none" stroke="black" points="262.5,-601.5 262.5,-620.5 384.5,-620.5 384.5,-601.5 262.5,-601.5"/>
<text text-anchor="middle" x="323.5" y="-608.5" font-family="Helvetica,sans-Serif" font-size="10.00">hpd_service_get_device</text>
</a>
</g>
</g>
<!-- Node6&#45;&gt;Node13 -->
<g id="edge12" class="edge"><title>Node6&#45;&gt;Node13</title>
<path fill="none" stroke="midnightblue" d="M171.032,-411.957C188.753,-446.919 247.914,-562.681 261,-576 269.24,-584.387 279.914,-591.394 290.051,-596.882"/>
<polygon fill="midnightblue" stroke="midnightblue" points="288.623,-600.082 299.124,-601.49 291.793,-593.841 288.623,-600.082"/>
</g>
<!-- Node18 -->
<g id="node18" class="node"><title>Node18</title>
<g id="a_node18"><a xlink:href="a00060.html#a9005887b17466250fc4fc8d6d253034d" target="_top" xlink:title="[hpd_adapter_t functions] ">
<polygon fill="none" stroke="black" points="274.5,-487.5 274.5,-506.5 372.5,-506.5 372.5,-487.5 274.5,-487.5"/>
<text text-anchor="middle" x="323.5" y="-494.5" font-family="Helvetica,sans-Serif" font-size="10.00">hpd_device_get_id</text>
</a>
</g>
</g>
<!-- Node6&#45;&gt;Node18 -->
<g id="edge20" class="edge"><title>Node6&#45;&gt;Node18</title>
<path fill="none" stroke="midnightblue" d="M181.867,-411.632C209.168,-428.204 265.217,-462.228 297.708,-481.951"/>
<polygon fill="midnightblue" stroke="midnightblue" points="296.226,-485.145 306.591,-487.343 299.859,-479.162 296.226,-485.145"/>
</g>
<!-- Node21 -->
<g id="node21" class="node"><title>Node21</title>
<g id="a_node21"><a xlink:href="a00060.html#af6aa40d0f9745dcbcb332d8d9dfc778d" target="_top" xlink:title="[id_t functions] ">
<polygon fill="none" stroke="black" points="273,-411.5 273,-430.5 374,-430.5 374,-411.5 273,-411.5"/>
<text text-anchor="middle" x="323.5" y="-418.5" font-family="Helvetica,sans-Serif" font-size="10.00">hpd_adapter_get_id</text>
</a>
</g>
</g>
<!-- Node6&#45;&gt;Node21 -->
<g id="edge23" class="edge"><title>Node6&#45;&gt;Node21</title>
<path fill="none" stroke="midnightblue" d="M216.379,-408.116C231.044,-409.897 247.212,-411.86 262.412,-413.705"/>
<polygon fill="midnightblue" stroke="midnightblue" points="262.402,-417.229 272.751,-414.96 263.245,-410.28 262.402,-417.229"/>
</g>
<!-- Node24 -->
<g id="node24" class="node"><title>Node24</title>
<g id="a_node24"><a xlink:href="a00060.html#a9a00d602f27e6ec01adf931e9daaeb42" target="_top" xlink:title="hpd_device_id_free">
<polygon fill="none" stroke="black" points="605,-335.5 605,-354.5 706,-354.5 706,-335.5 605,-335.5"/>
<text text-anchor="middle" x="655.5" y="-342.5" font-family="Helvetica,sans-Serif" font-size="10.00">hpd_device_id_free</text>
</a>
</g>
</g>
<!-- Node6&#45;&gt;Node24 -->
<g id="edge26" class="edge"><title>Node6&#45;&gt;Node24</title>
<path fill="none" stroke="midnightblue" d="M188.166,-392.357C207.118,-384.588 235.32,-374.142 261,-369 377.572,-345.658 517.115,-342.943 594.787,-343.609"/>
<polygon fill="midnightblue" stroke="midnightblue" points="594.83,-347.11 604.867,-343.718 594.905,-340.11 594.83,-347.11"/>
</g>
<!-- Node26 -->
<g id="node26" class="node"><title>Node26</title>
<g id="a_node26"><a xlink:href="a00060.html#a6dfca5e2723ca3a11d12fe545e69923e" target="_top" xlink:title="hpd_adapter_id_free">
<polygon fill="none" stroke="black" points="603.5,-268.5 603.5,-287.5 707.5,-287.5 707.5,-268.5 603.5,-268.5"/>
<text text-anchor="middle" x="655.5" y="-275.5" font-family="Helvetica,sans-Serif" font-size="10.00">hpd_adapter_id_free</text>
</a>
</g>
</g>
<!-- Node6&#45;&gt;Node26 -->
<g id="edge29" class="edge"><title>Node6&#45;&gt;Node26</title>
<path fill="none" stroke="midnightblue" d="M170.476,-392.294C181.772,-369.117 213.924,-310.783 261,-288 373.147,-233.725 525.135,-251.684 603.338,-266.519"/>
<polygon fill="midnightblue" stroke="midnightblue" points="602.929,-270.005 613.415,-268.491 604.274,-263.135 602.929,-270.005"/>
</g>
<!-- Node28 -->
<g id="node28" class="node"><title>Node28</title>
<g id="a_node28"><a xlink:href="a00025.html#a15a76ff180a00ad13fc98a98cdbb0d65" target="_top" xlink:title="url_encode">
<polygon fill="none" stroke="black" points="291.5,-297.5 291.5,-316.5 355.5,-316.5 355.5,-297.5 291.5,-297.5"/>
<text text-anchor="middle" x="323.5" y="-304.5" font-family="Helvetica,sans-Serif" font-size="10.00">url_encode</text>
</a>
</g>
</g>
<!-- Node6&#45;&gt;Node28 -->
<g id="edge32" class="edge"><title>Node6&#45;&gt;Node28</title>
<path fill="none" stroke="midnightblue" d="M176.733,-392.435C193.668,-377.714 228.059,-349.294 261,-331 268.195,-327.004 276.192,-323.362 283.975,-320.189"/>
<polygon fill="midnightblue" stroke="midnightblue" points="285.247,-323.45 293.295,-316.56 282.706,-316.927 285.247,-323.45"/>
</g>
<!-- Node8 -->
<g id="node8" class="node"><title>Node8</title>
<g id="a_node8"><a xlink:href="a00011.html#a25f79cc6f338b4ff23b5ecdec0dc03af" target="_top" xlink:title="discovery_get_service\l_adapter">
<polygon fill="none" stroke="black" points="429,-564 429,-594 543,-594 543,-564 429,-564"/>
<text text-anchor="start" x="437" y="-582" font-family="Helvetica,sans-Serif" font-size="10.00">discovery_get_service</text>
<text text-anchor="middle" x="486" y="-571" font-family="Helvetica,sans-Serif" font-size="10.00">_adapter</text>
</a>
</g>
</g>
<!-- Node7&#45;&gt;Node8 -->
<g id="edge7" class="edge"><title>Node7&#45;&gt;Node8</title>
<path fill="none" stroke="midnightblue" d="M386.094,-565.443C396.746,-566.903 407.862,-568.427 418.634,-569.903"/>
<polygon fill="midnightblue" stroke="midnightblue" points="418.447,-573.41 428.83,-571.301 419.398,-566.475 418.447,-573.41"/>
</g>
<!-- Node9 -->
<g id="node9" class="node"><title>Node9</title>
<g id="a_node9"><a xlink:href="a00065.html#a1915dc6bbbb6b1a2a587723caa22069d" target="_top" xlink:title="discovery_alloc_aid">
<polygon fill="none" stroke="black" points="604.5,-558.5 604.5,-577.5 706.5,-577.5 706.5,-558.5 604.5,-558.5"/>
<text text-anchor="middle" x="655.5" y="-565.5" font-family="Helvetica,sans-Serif" font-size="10.00">discovery_alloc_aid</text>
</a>
</g>
</g>
<!-- Node8&#45;&gt;Node9 -->
<g id="edge8" class="edge"><title>Node8&#45;&gt;Node9</title>
<path fill="none" stroke="midnightblue" d="M543.241,-575.307C559.612,-574.231 577.56,-573.053 594.171,-571.962"/>
<polygon fill="midnightblue" stroke="midnightblue" points="594.566,-575.444 604.315,-571.296 594.108,-568.459 594.566,-575.444"/>
</g>
<!-- Node10 -->
<g id="node10" class="node"><title>Node10</title>
<g id="a_node10"><a xlink:href="a00065.html#af2f553cfc3af4678b87a8fc75f35a5c6" target="_top" xlink:title="discovery_set_aid">
<polygon fill="none" stroke="black" points="895,-577.5 895,-596.5 990,-596.5 990,-577.5 895,-577.5"/>
<text text-anchor="middle" x="942.5" y="-584.5" font-family="Helvetica,sans-Serif" font-size="10.00">discovery_set_aid</text>
</a>
</g>
</g>
<!-- Node9&#45;&gt;Node10 -->
<g id="edge9" class="edge"><title>Node9&#45;&gt;Node10</title>
<path fill="none" stroke="midnightblue" d="M706.796,-571.353C756.534,-574.669 832.536,-579.736 884.488,-583.199"/>
<polygon fill="midnightblue" stroke="midnightblue" points="884.332,-586.696 894.543,-583.87 884.798,-579.712 884.332,-586.696"/>
</g>
<!-- Node11 -->
<g id="node11" class="node"><title>Node11</title>
<g id="a_node11"><a xlink:href="a00065.html#a2bd026e829a41663810ae68fa3797987" target="_top" xlink:title="discovery_free_aid">
<polygon fill="none" stroke="black" points="761,-421.5 761,-440.5 859,-440.5 859,-421.5 761,-421.5"/>
<text text-anchor="middle" x="810" y="-428.5" font-family="Helvetica,sans-Serif" font-size="10.00">discovery_free_aid</text>
</a>
</g>
</g>
<!-- Node9&#45;&gt;Node11 -->
<g id="edge10" class="edge"><title>Node9&#45;&gt;Node11</title>
<path fill="none" stroke="midnightblue" d="M666.369,-558.298C684.658,-540.42 725.217,-501.246 761,-470 769.856,-462.267 779.918,-454.014 788.534,-447.1"/>
<polygon fill="midnightblue" stroke="midnightblue" points="790.926,-449.67 796.57,-440.703 786.566,-444.193 790.926,-449.67"/>
</g>
<!-- Node11&#45;&gt;Node12 -->
<g id="edge11" class="edge"><title>Node11&#45;&gt;Node12</title>
<path fill="none" stroke="midnightblue" d="M829.697,-421.401C852.57,-409.657 891.367,-389.739 916.711,-376.727"/>
<polygon fill="midnightblue" stroke="midnightblue" points="918.406,-379.791 925.704,-372.11 915.209,-373.564 918.406,-379.791"/>
</g>
<!-- Node14 -->
<g id="node14" class="node"><title>Node14</title>
<g id="a_node14"><a xlink:href="a00011.html#aeb60ac7ee952776c900d1d2bd34a4782" target="_top" xlink:title="discovery_get_service\l_device">
<polygon fill="none" stroke="black" points="429,-613 429,-643 543,-643 543,-613 429,-613"/>
<text text-anchor="start" x="437" y="-631" font-family="Helvetica,sans-Serif" font-size="10.00">discovery_get_service</text>
<text text-anchor="middle" x="486" y="-620" font-family="Helvetica,sans-Serif" font-size="10.00">_device</text>
</a>
</g>
</g>
<!-- Node13&#45;&gt;Node14 -->
<g id="edge13" class="edge"><title>Node13&#45;&gt;Node14</title>
<path fill="none" stroke="midnightblue" d="M384.721,-617.379C395.822,-618.554 407.469,-619.788 418.736,-620.981"/>
<polygon fill="midnightblue" stroke="midnightblue" points="418.637,-624.49 428.95,-622.063 419.375,-617.529 418.637,-624.49"/>
</g>
<!-- Node15 -->
<g id="node15" class="node"><title>Node15</title>
<g id="a_node15"><a xlink:href="a00065.html#aebd10ac1c18be51340c39d6d5a54e6d1" target="_top" xlink:title="discovery_alloc_did">
<polygon fill="none" stroke="black" points="604.5,-596.5 604.5,-615.5 706.5,-615.5 706.5,-596.5 604.5,-596.5"/>
<text text-anchor="middle" x="655.5" y="-603.5" font-family="Helvetica,sans-Serif" font-size="10.00">discovery_alloc_did</text>
</a>
</g>
</g>
<!-- Node14&#45;&gt;Node15 -->
<g id="edge14" class="edge"><title>Node14&#45;&gt;Node15</title>
<path fill="none" stroke="midnightblue" d="M543.241,-620.613C559.612,-618.463 577.56,-616.106 594.171,-613.924"/>
<polygon fill="midnightblue" stroke="midnightblue" points="594.856,-617.364 604.315,-612.591 593.945,-610.424 594.856,-617.364"/>
</g>
<!-- Node16 -->
<g id="node16" class="node"><title>Node16</title>
<g id="a_node16"><a xlink:href="a00065.html#acd5e8c2bf3e761abc7e2fd2294238a74" target="_top" xlink:title="discovery_set_did">
<polygon fill="none" stroke="black" points="762.5,-596.5 762.5,-615.5 857.5,-615.5 857.5,-596.5 762.5,-596.5"/>
<text text-anchor="middle" x="810" y="-603.5" font-family="Helvetica,sans-Serif" font-size="10.00">discovery_set_did</text>
</a>
</g>
</g>
<!-- Node15&#45;&gt;Node16 -->
<g id="edge15" class="edge"><title>Node15&#45;&gt;Node16</title>
<path fill="none" stroke="midnightblue" d="M706.857,-606C721.378,-606 737.321,-606 752.204,-606"/>
<polygon fill="midnightblue" stroke="midnightblue" points="752.308,-609.5 762.308,-606 752.308,-602.5 752.308,-609.5"/>
</g>
<!-- Node17 -->
<g id="node17" class="node"><title>Node17</title>
<g id="a_node17"><a xlink:href="a00065.html#ae1a000b225c8b3f365c2cec8362b8483" target="_top" xlink:title="discovery_free_did">
<polygon fill="none" stroke="black" points="761,-479.5 761,-498.5 859,-498.5 859,-479.5 761,-479.5"/>
<text text-anchor="middle" x="810" y="-486.5" font-family="Helvetica,sans-Serif" font-size="10.00">discovery_free_did</text>
</a>
</g>
</g>
<!-- Node15&#45;&gt;Node17 -->
<g id="edge17" class="edge"><title>Node15&#45;&gt;Node17</title>
<path fill="none" stroke="midnightblue" d="M705.205,-596.377C712.14,-593.916 718.96,-590.841 725,-587 757.285,-566.471 783.869,-529.735 797.996,-507.541"/>
<polygon fill="midnightblue" stroke="midnightblue" points="801.153,-509.091 803.428,-498.743 795.197,-505.413 801.153,-509.091"/>
</g>
<!-- Node16&#45;&gt;Node10 -->
<g id="edge16" class="edge"><title>Node16&#45;&gt;Node10</title>
<path fill="none" stroke="midnightblue" d="M857.745,-599.194C866.459,-597.925 875.654,-596.587 884.634,-595.279"/>
<polygon fill="midnightblue" stroke="midnightblue" points="885.251,-598.726 894.643,-593.822 884.243,-591.799 885.251,-598.726"/>
</g>
<!-- Node17&#45;&gt;Node12 -->
<g id="edge18" class="edge"><title>Node17&#45;&gt;Node12</title>
<path fill="none" stroke="midnightblue" d="M823.584,-479.468C833.478,-471.811 847.468,-460.619 859,-450 883.458,-427.477 909.72,-399.341 925.882,-381.516"/>
<polygon fill="midnightblue" stroke="midnightblue" points="928.863,-383.436 932.953,-373.663 923.661,-378.752 928.863,-383.436"/>
</g>
<!-- Node19 -->
<g id="node19" class="node"><title>Node19</title>
<g id="a_node19"><a xlink:href="a00011.html#af178de2e51304e31fefe0ae13d2481ab" target="_top" xlink:title="discovery_find_device">
<polygon fill="none" stroke="black" points="429.5,-525.5 429.5,-544.5 542.5,-544.5 542.5,-525.5 429.5,-525.5"/>
<text text-anchor="middle" x="486" y="-532.5" font-family="Helvetica,sans-Serif" font-size="10.00">discovery_find_device</text>
</a>
</g>
</g>
<!-- Node18&#45;&gt;Node19 -->
<g id="edge21" class="edge"><title>Node18&#45;&gt;Node19</title>
<path fill="none" stroke="midnightblue" d="M365.001,-506.589C386.181,-511.604 412.302,-517.788 434.76,-523.105"/>
<polygon fill="midnightblue" stroke="midnightblue" points="434.253,-526.582 444.79,-525.48 435.866,-519.77 434.253,-526.582"/>
</g>
<!-- Node20 -->
<g id="node20" class="node"><title>Node20</title>
<g id="a_node20"><a xlink:href="a00063.html#a01d64284d4ff469a8dffa0260a92eea2" target="_top" xlink:title="discovery_get_device_id">
<polygon fill="none" stroke="black" points="424,-487.5 424,-506.5 548,-506.5 548,-487.5 424,-487.5"/>
<text text-anchor="middle" x="486" y="-494.5" font-family="Helvetica,sans-Serif" font-size="10.00">discovery_get_device_id</text>
</a>
</g>
</g>
<!-- Node18&#45;&gt;Node20 -->
<g id="edge22" class="edge"><title>Node18&#45;&gt;Node20</title>
<path fill="none" stroke="midnightblue" d="M372.655,-497C385.584,-497 399.843,-497 413.738,-497"/>
<polygon fill="midnightblue" stroke="midnightblue" points="413.767,-500.5 423.767,-497 413.767,-493.5 413.767,-500.5"/>
</g>
<!-- Node22 -->
<g id="node22" class="node"><title>Node22</title>
<g id="a_node22"><a xlink:href="a00011.html#a690059fc206d49f639837d41fd5ced05" target="_top" xlink:title="discovery_find_adapter">
<polygon fill="none" stroke="black" points="427.5,-449.5 427.5,-468.5 544.5,-468.5 544.5,-449.5 427.5,-449.5"/>
<text text-anchor="middle" x="486" y="-456.5" font-family="Helvetica,sans-Serif" font-size="10.00">discovery_find_adapter</text>
</a>
</g>
</g>
<!-- Node21&#45;&gt;Node22 -->
<g id="edge24" class="edge"><title>Node21&#45;&gt;Node22</title>
<path fill="none" stroke="midnightblue" d="M365.001,-430.589C386.181,-435.604 412.302,-441.788 434.76,-447.105"/>
<polygon fill="midnightblue" stroke="midnightblue" points="434.253,-450.582 444.79,-449.48 435.866,-443.77 434.253,-450.582"/>
</g>
<!-- Node23 -->
<g id="node23" class="node"><title>Node23</title>
<g id="a_node23"><a xlink:href="a00063.html#af7f7554fd8858506bf900674f0dd07be" target="_top" xlink:title="discovery_get_adapter_id">
<polygon fill="none" stroke="black" points="422,-411.5 422,-430.5 550,-430.5 550,-411.5 422,-411.5"/>
<text text-anchor="middle" x="486" y="-418.5" font-family="Helvetica,sans-Serif" font-size="10.00">discovery_get_adapter_id</text>
</a>
</g>
</g>
<!-- Node21&#45;&gt;Node23 -->
<g id="edge25" class="edge"><title>Node21&#45;&gt;Node23</title>
<path fill="none" stroke="midnightblue" d="M374.403,-421C386.239,-421 399.107,-421 411.743,-421"/>
<polygon fill="midnightblue" stroke="midnightblue" points="411.802,-424.5 421.802,-421 411.802,-417.5 411.802,-424.5"/>
</g>
<!-- Node25 -->
<g id="node25" class="node"><title>Node25</title>
<g id="a_node25"><a xlink:href="a00011.html#ae1a000b225c8b3f365c2cec8362b8483" target="_top" xlink:title="discovery_free_did">
<polygon fill="none" stroke="black" points="761,-335.5 761,-354.5 859,-354.5 859,-335.5 761,-335.5"/>
<text text-anchor="middle" x="810" y="-342.5" font-family="Helvetica,sans-Serif" font-size="10.00">discovery_free_did</text>
</a>
</g>
</g>
<!-- Node24&#45;&gt;Node25 -->
<g id="edge27" class="edge"><title>Node24&#45;&gt;Node25</title>
<path fill="none" stroke="midnightblue" d="M706.012,-345C720.286,-345 735.992,-345 750.744,-345"/>
<polygon fill="midnightblue" stroke="midnightblue" points="750.776,-348.5 760.776,-345 750.776,-341.5 750.776,-348.5"/>
</g>
<!-- Node25&#45;&gt;Node12 -->
<g id="edge28" class="edge"><title>Node25&#45;&gt;Node12</title>
<path fill="none" stroke="midnightblue" d="M859.223,-352.021C878.336,-354.804 899.546,-357.892 915.643,-360.235"/>
<polygon fill="midnightblue" stroke="midnightblue" points="915.482,-363.749 925.882,-361.726 916.491,-356.822 915.482,-363.749"/>
</g>
<!-- Node27 -->
<g id="node27" class="node"><title>Node27</title>
<g id="a_node27"><a xlink:href="a00011.html#a2bd026e829a41663810ae68fa3797987" target="_top" xlink:title="discovery_free_aid">
<polygon fill="none" stroke="black" points="761,-278.5 761,-297.5 859,-297.5 859,-278.5 761,-278.5"/>
<text text-anchor="middle" x="810" y="-285.5" font-family="Helvetica,sans-Serif" font-size="10.00">discovery_free_aid</text>
</a>
</g>
</g>
<!-- Node26&#45;&gt;Node27 -->
<g id="edge30" class="edge"><title>Node26&#45;&gt;Node27</title>
<path fill="none" stroke="midnightblue" d="M707.705,-281.358C721.491,-282.262 736.506,-283.246 750.651,-284.174"/>
<polygon fill="midnightblue" stroke="midnightblue" points="750.558,-287.675 760.766,-284.837 751.017,-280.69 750.558,-287.675"/>
</g>
<!-- Node27&#45;&gt;Node12 -->
<g id="edge31" class="edge"><title>Node27&#45;&gt;Node12</title>
<path fill="none" stroke="midnightblue" d="M827.528,-297.625C850.129,-310.788 890.849,-334.502 917.003,-349.733"/>
<polygon fill="midnightblue" stroke="midnightblue" points="915.516,-352.918 925.919,-354.926 919.039,-346.869 915.516,-352.918"/>
</g>
<!-- Node30 -->
<g id="node30" class="node"><title>Node30</title>
<g id="a_node30"><a xlink:href="a00063.html#a73de326a870c6c39c30fedc1f49cb619" target="_top" xlink:title="discovery_get_action\l_method">
<polygon fill="none" stroke="black" points="269,-134 269,-164 378,-164 378,-134 269,-134"/>
<text text-anchor="start" x="277" y="-152" font-family="Helvetica,sans-Serif" font-size="10.00">discovery_get_action</text>
<text text-anchor="middle" x="323.5" y="-141" font-family="Helvetica,sans-Serif" font-size="10.00">_method</text>
</a>
</g>
</g>
<!-- Node29&#45;&gt;Node30 -->
<g id="edge36" class="edge"><title>Node29&#45;&gt;Node30</title>
<path fill="none" stroke="midnightblue" d="M225.166,-150.866C236.167,-150.655 247.704,-150.434 258.833,-150.22"/>
<polygon fill="midnightblue" stroke="midnightblue" points="258.981,-153.718 268.912,-150.027 258.847,-146.72 258.981,-153.718"/>
</g>
<!-- Node31&#45;&gt;Node5 -->
<g id="edge39" class="edge"><title>Node31&#45;&gt;Node5</title>
<path fill="none" stroke="midnightblue" d="M512.076,-109.192C543.589,-114.46 597.373,-123.45 629.057,-128.747"/>
<polygon fill="midnightblue" stroke="midnightblue" points="628.829,-132.257 639.269,-130.454 629.983,-125.353 628.829,-132.257"/>
</g>
<!-- Node32 -->
<g id="node32" class="node"><title>Node32</title>
<g id="a_node32"><a xlink:href="a00046.html#ad8de9589846a9987ae60b199fc05094d" target="_top" xlink:title="hpd_pair_get">
<polygon fill="none" stroke="black" points="619.5,-85.5 619.5,-104.5 691.5,-104.5 691.5,-85.5 619.5,-85.5"/>
<text text-anchor="middle" x="655.5" y="-92.5" font-family="Helvetica,sans-Serif" font-size="10.00">hpd_pair_get</text>
</a>
</g>
</g>
<!-- Node31&#45;&gt;Node32 -->
<g id="edge38" class="edge"><title>Node31&#45;&gt;Node32</title>
<path fill="none" stroke="midnightblue" d="M512.076,-103.503C537.659,-101.976 577.919,-99.572 609.118,-97.7094"/>
<polygon fill="midnightblue" stroke="midnightblue" points="609.543,-101.19 619.316,-97.1005 609.125,-94.2028 609.543,-101.19"/>
</g>
<!-- Node34 -->
<g id="node34" class="node"><title>Node34</title>
<g id="a_node34"><a xlink:href="a00080.html#af86403a1e06bf3f39721b1cb53ee156a" target="_top" xlink:title="add_parameter">
<polygon fill="none" stroke="black" points="283,-57.5 283,-76.5 364,-76.5 364,-57.5 283,-57.5"/>
<text text-anchor="middle" x="323.5" y="-64.5" font-family="Helvetica,sans-Serif" font-size="10.00">add_parameter</text>
</a>
</g>
</g>
<!-- Node33&#45;&gt;Node34 -->
<g id="edge41" class="edge"><title>Node33&#45;&gt;Node34</title>
<path fill="none" stroke="midnightblue" d="M208.351,-67C228.176,-67 251.925,-67 272.615,-67"/>
<polygon fill="midnightblue" stroke="midnightblue" points="272.806,-70.5001 282.806,-67 272.806,-63.5001 272.806,-70.5001"/>
</g>
<!-- Node34&#45;&gt;Node5 -->
<g id="edge45" class="edge"><title>Node34&#45;&gt;Node5</title>
<path fill="none" stroke="midnightblue" d="M364.326,-63.6752C410.62,-61.3002 488.524,-61.9751 550,-86 568.879,-93.3781 567.89,-104.896 586,-114 599.66,-120.867 616.14,-125.537 629.513,-128.529"/>
<polygon fill="midnightblue" stroke="midnightblue" points="628.957,-131.988 639.457,-130.578 630.37,-125.132 628.957,-131.988"/>
</g>
<!-- Node34&#45;&gt;Node31 -->
<g id="edge46" class="edge"><title>Node34&#45;&gt;Node31</title>
<path fill="none" stroke="midnightblue" d="M364.174,-76.3933C390.446,-82.6133 424.59,-90.6974 449.877,-96.6844"/>
<polygon fill="midnightblue" stroke="midnightblue" points="449.244,-100.131 459.781,-99.0292 450.857,-93.3194 449.244,-100.131"/>
</g>
<!-- Node35 -->
<g id="node35" class="node"><title>Node35</title>
<g id="a_node35"><a xlink:href="a00060.html#a43c7d86904fd4d8c82ec9e52ce52a188" target="_top" xlink:title="[hpd_service_t functions] ">
<polygon fill="none" stroke="black" points="429.5,-19.5 429.5,-38.5 542.5,-38.5 542.5,-19.5 429.5,-19.5"/>
<text text-anchor="middle" x="486" y="-26.5" font-family="Helvetica,sans-Serif" font-size="10.00">hpd_parameter_get_id</text>
</a>
</g>
</g>
<!-- Node34&#45;&gt;Node35 -->
<g id="edge42" class="edge"><title>Node34&#45;&gt;Node35</title>
<path fill="none" stroke="midnightblue" d="M364.174,-57.6067C385.522,-52.5524 412.068,-46.2673 434.837,-40.8766"/>
<polygon fill="midnightblue" stroke="midnightblue" points="435.743,-44.259 444.667,-38.5491 434.13,-37.4473 435.743,-44.259"/>
</g>
<!-- Node36 -->
<g id="node36" class="node"><title>Node36</title>
<g id="a_node36"><a xlink:href="a00011.html#a2348a6596051f9e054ab671a5bdeb11a" target="_top" xlink:title="discovery_find_parameter">
<polygon fill="none" stroke="black" points="591.5,-38.5 591.5,-57.5 719.5,-57.5 719.5,-38.5 591.5,-38.5"/>
<text text-anchor="middle" x="655.5" y="-45.5" font-family="Helvetica,sans-Serif" font-size="10.00">discovery_find_parameter</text>
</a>
</g>
</g>
<!-- Node35&#45;&gt;Node36 -->
<g id="edge43" class="edge"><title>Node35&#45;&gt;Node36</title>
<path fill="none" stroke="midnightblue" d="M542.775,-35.3267C555.09,-36.7237 568.317,-38.2241 581.209,-39.6864"/>
<polygon fill="midnightblue" stroke="midnightblue" points="581.121,-43.1987 591.451,-40.8482 581.91,-36.2433 581.121,-43.1987"/>
</g>
<!-- Node37 -->
<g id="node37" class="node"><title>Node37</title>
<g id="a_node37"><a xlink:href="a00063.html#a38635fc999dfcdb5d1273a3aed037fbf" target="_top" xlink:title="discovery_get_parameter_id">
<polygon fill="none" stroke="black" points="586,-0.5 586,-19.5 725,-19.5 725,-0.5 586,-0.5"/>
<text text-anchor="middle" x="655.5" y="-7.5" font-family="Helvetica,sans-Serif" font-size="10.00">discovery_get_parameter_id</text>
</a>
</g>
</g>
<!-- Node35&#45;&gt;Node37 -->
<g id="edge44" class="edge"><title>Node35&#45;&gt;Node37</title>
<path fill="none" stroke="midnightblue" d="M542.775,-22.6733C553.34,-21.4748 564.576,-20.2003 575.696,-18.939"/>
<polygon fill="midnightblue" stroke="midnightblue" points="576.31,-22.3918 585.852,-17.7869 575.521,-15.4364 576.31,-22.3918"/>
</g>
</g>
</svg>
