<?xml version="1.0" encoding="UTF-8" standalone="no"?>
<!DOCTYPE svg PUBLIC "-//W3C//DTD SVG 1.1//EN"
 "http://www.w3.org/Graphics/SVG/1.1/DTD/svg11.dtd">
<!-- Generated by graphviz version 2.38.0 (20140413.2041)
 -->
<!-- Title: discovery_set_parameter_attrs_v Pages: 1 -->
<svg width="626pt" height="104pt"
 viewBox="0.00 0.00 626.00 104.00" xmlns="http://www.w3.org/2000/svg" xmlns:xlink="http://www.w3.org/1999/xlink">
<g id="graph0" class="graph" transform="scale(1 1) rotate(0) translate(4 100)">
<title>discovery_set_parameter_attrs_v</title>
<!-- Node1 -->
<g id="node1" class="node"><title>Node1</title>
<polygon fill="#bfbfbf" stroke="black" points="0,-33 0,-63 126,-63 126,-33 0,-33"/>
<text text-anchor="start" x="8" y="-51" font-family="Helvetica,sans-Serif" font-size="10.00">discovery_set_parameter</text>
<text text-anchor="middle" x="63" y="-40" font-family="Helvetica,sans-Serif" font-size="10.00">_attrs_v</text>
</g>
<!-- Node2 -->
<g id="node2" class="node"><title>Node2</title>
<g id="a_node2"><a xlink:href="a00078.html#aa470ecef221797da5ca84c2258474165" target="_top" xlink:title="discovery_set_parameter_attr">
<polygon fill="none" stroke="black" points="162,-38.5 162,-57.5 308,-57.5 308,-38.5 162,-38.5"/>
<text text-anchor="middle" x="235" y="-45.5" font-family="Helvetica,sans-Serif" font-size="10.00">discovery_set_parameter_attr</text>
</a>
</g>
</g>
<!-- Node1&#45;&gt;Node2 -->
<g id="edge1" class="edge"><title>Node1&#45;&gt;Node2</title>
<path fill="none" stroke="midnightblue" d="M126.336,-48C134.646,-48 143.267,-48 151.849,-48"/>
<polygon fill="midnightblue" stroke="midnightblue" points="151.885,-51.5001 161.885,-48 151.885,-44.5001 151.885,-51.5001"/>
</g>
<!-- Node3 -->
<g id="node3" class="node"><title>Node3</title>
<g id="a_node3"><a xlink:href="a00056.html#a230c25a2f8e5de7ce61623a4ce8a809f" target="_top" xlink:title="hpd_map_set">
<polygon fill="none" stroke="black" points="344,-38.5 344,-57.5 419,-57.5 419,-38.5 344,-38.5"/>
<text text-anchor="middle" x="381.5" y="-45.5" font-family="Helvetica,sans-Serif" font-size="10.00">hpd_map_set</text>
</a>
</g>
</g>
<!-- Node2&#45;&gt;Node3 -->
<g id="edge2" class="edge"><title>Node2&#45;&gt;Node3</title>
<path fill="none" stroke="midnightblue" d="M308.25,-48C316.882,-48 325.514,-48 333.654,-48"/>
<polygon fill="midnightblue" stroke="midnightblue" points="333.663,-51.5001 343.663,-48 333.663,-44.5001 333.663,-51.5001"/>
</g>
<!-- Node4 -->
<g id="node4" class="node"><title>Node4</title>
<g id="a_node4"><a xlink:href="a00031.html#ae1085dd4fd40466d18b02ec077ef4d6d" target="_top" xlink:title="hpd_map_remove">
<polygon fill="none" stroke="black" points="455,-76.5 455,-95.5 549,-95.5 549,-76.5 455,-76.5"/>
<text text-anchor="middle" x="502" y="-83.5" font-family="Helvetica,sans-Serif" font-size="10.00">hpd_map_remove</text>
</a>
</g>
</g>
<!-- Node3&#45;&gt;Node4 -->
<g id="edge3" class="edge"><title>Node3&#45;&gt;Node4</title>
<path fill="none" stroke="midnightblue" d="M412.403,-57.589C427.279,-62.3594 445.457,-68.1888 461.467,-73.3229"/>
<polygon fill="midnightblue" stroke="midnightblue" points="460.516,-76.6932 471.107,-76.4141 462.653,-70.0276 460.516,-76.6932"/>
</g>
<!-- Node6 -->
<g id="node6" class="node"><title>Node6</title>
<g id="a_node6"><a xlink:href="a00031.html#a68e8a71a4dc9b51ca36d2389ed89b336" target="_top" xlink:title="map_insert">
<polygon fill="none" stroke="black" points="469.5,-38.5 469.5,-57.5 534.5,-57.5 534.5,-38.5 469.5,-38.5"/>
<text text-anchor="middle" x="502" y="-45.5" font-family="Helvetica,sans-Serif" font-size="10.00">map_insert</text>
</a>
</g>
</g>
<!-- Node3&#45;&gt;Node6 -->
<g id="edge5" class="edge"><title>Node3&#45;&gt;Node6</title>
<path fill="none" stroke="midnightblue" d="M419.021,-48C431.684,-48 445.981,-48 459.047,-48"/>
<polygon fill="midnightblue" stroke="midnightblue" points="459.208,-51.5001 469.208,-48 459.208,-44.5001 459.208,-51.5001"/>
</g>
<!-- Node7 -->
<g id="node7" class="node"><title>Node7</title>
<g id="a_node7"><a xlink:href="a00031.html#ac16b47a5d68b6eaae2e709e1888982fd" target="_top" xlink:title="map_replace">
<polygon fill="none" stroke="black" points="466,-0.5 466,-19.5 538,-19.5 538,-0.5 466,-0.5"/>
<text text-anchor="middle" x="502" y="-7.5" font-family="Helvetica,sans-Serif" font-size="10.00">map_replace</text>
</a>
</g>
</g>
<!-- Node3&#45;&gt;Node7 -->
<g id="edge7" class="edge"><title>Node3&#45;&gt;Node7</title>
<path fill="none" stroke="midnightblue" d="M412.403,-38.411C427.279,-33.6406 445.457,-27.8112 461.467,-22.6771"/>
<polygon fill="midnightblue" stroke="midnightblue" points="462.653,-25.9724 471.107,-19.5859 460.516,-19.3068 462.653,-25.9724"/>
</g>
<!-- Node5 -->
<g id="node5" class="node"><title>Node5</title>
<g id="a_node5"><a xlink:href="a00012.html#adf46370d9c211c3be22966b4606ba9b0" target="_top" xlink:title="free">
<polygon fill="none" stroke="black" points="585,-57.5 585,-76.5 618,-76.5 618,-57.5 585,-57.5"/>
<text text-anchor="middle" x="601.5" y="-64.5" font-family="Helvetica,sans-Serif" font-size="10.00">free</text>
</a>
</g>
</g>
<!-- Node4&#45;&gt;Node5 -->
<g id="edge4" class="edge"><title>Node4&#45;&gt;Node5</title>
<path fill="none" stroke="midnightblue" d="M549.18,-77.0008C557.978,-75.2863 566.888,-73.55 574.76,-72.016"/>
<polygon fill="midnightblue" stroke="midnightblue" points="575.596,-75.419 584.742,-70.0708 574.257,-68.5483 575.596,-75.419"/>
</g>
<!-- Node6&#45;&gt;Node5 -->
<g id="edge6" class="edge"><title>Node6&#45;&gt;Node5</title>
<path fill="none" stroke="midnightblue" d="M534.655,-54.1688C547.643,-56.6997 562.485,-59.5919 574.786,-61.989"/>
<polygon fill="midnightblue" stroke="midnightblue" points="574.346,-65.4691 584.831,-63.9465 575.685,-58.5983 574.346,-65.4691"/>
</g>
</g>
</svg>
