<?xml version="1.0" encoding="UTF-8" standalone="no"?>
<!DOCTYPE svg PUBLIC "-//W3C//DTD SVG 1.1//EN"
 "http://www.w3.org/Graphics/SVG/1.1/DTD/svg11.dtd">
<!-- Generated by graphviz version 2.38.0 (20140413.2041)
 -->
<!-- Title: hpd_response_free Pages: 1 -->
<!--zoomable 214 -->
<svg id="main" version="1.1" xmlns="http://www.w3.org/2000/svg" xmlns:xlink="http://www.w3.org/1999/xlink" xml:space="preserve" onload="init(evt)">
<style type="text/css"><![CDATA[
.edge:hover path { stroke: red; }
.edge:hover polygon { stroke: red; fill: red; }
]]></style>
<script type="text/javascript"><![CDATA[
var edges = document.getElementsByTagName('g');
if (edges && edges.length) {
  for (var i=0;i<edges.length;i++) {
    if (edges[i].id.substr(0,4)=='edge') {
      edges[i].setAttribute('class','edge');
    }
  }
}
]]></script>
        <defs>
                <circle id="rim" cx="0" cy="0" r="7"/>
                <circle id="rim2" cx="0" cy="0" r="3.5"/>
                <g id="zoomPlus">
                        <use xlink:href="#rim" fill="#404040">
                                <set attributeName="fill" to="#808080" begin="zoomplus.mouseover" end="zoomplus.mouseout"/>
                        </use>
                        <path d="M-4,0h8M0,-4v8" fill="none" stroke="white" stroke-width="1.5" pointer-events="none"/>
                </g>
                <g id="zoomMin">
                        <use xlink:href="#rim" fill="#404040">
                                <set attributeName="fill" to="#808080" begin="zoomminus.mouseover" end="zoomminus.mouseout"/>
                        </use>
                        <path d="M-4,0h8" fill="none" stroke="white" stroke-width="1.5" pointer-events="none"/>
                </g>
                <g id="dirArrow">
                        <path fill="none" stroke="white" stroke-width="1.5" d="M0,-3.0v7 M-2.5,-0.5L0,-3.0L2.5,-0.5"/>
                </g>
               <g id="resetDef">
                       <use xlink:href="#rim2" fill="#404040">
                               <set attributeName="fill" to="#808080" begin="reset.mouseover" end="reset.mouseout"/>
                       </use>
               </g>
        </defs>

<script type="text/javascript">
var viewWidth = 834;
var viewHeight = 214;
var sectionId = 'dynsection-44';
</script>
<script xlink:href="svgpan.js"/>
<svg id="graph" class="graph">
<g id="viewport">
<title>hpd_response_free</title>
<!-- Node1 -->
<g id="node1" class="node"><title>Node1</title>
<polygon fill="#bfbfbf" stroke="black" points="0,-110.452 0,-129.452 99,-129.452 99,-110.452 0,-110.452"/>
<text text-anchor="middle" x="49.5" y="-117.452" font-family="Helvetica,sans-Serif" font-size="10.00">hpd_response_free</text>
</g>
<!-- Node2 -->
<g id="node2" class="node"><title>Node2</title>
<g id="a_node2"><a xlink:href="a00072.html#a2477fb8cf085cc2b61dbfacdcdc54b82" target="_top" xlink:title="request_free_response">
<polygon fill="none" stroke="black" points="135,-110.452 135,-129.452 251,-129.452 251,-110.452 135,-110.452"/>
<text text-anchor="middle" x="193" y="-117.452" font-family="Helvetica,sans-Serif" font-size="10.00">request_free_response</text>
</a>
</g>
</g>
<!-- Node1&#45;&gt;Node2 -->
<g id="edge1" class="edge"><title>Node1&#45;&gt;Node2</title>
<path fill="none" stroke="midnightblue" d="M99.1963,-119.952C107.47,-119.952 116.192,-119.952 124.841,-119.952"/>
<polygon fill="midnightblue" stroke="midnightblue" points="124.931,-123.452 134.931,-119.952 124.931,-116.452 124.931,-123.452"/>
</g>
<!-- Node3 -->
<g id="node3" class="node"><title>Node3</title>
<g id="a_node3"><a xlink:href="a00072.html#adc90843b331f5522a8d08d6e4219e126" target="_top" xlink:title="request_free_request">
<polygon fill="none" stroke="black" points="287,-148.452 287,-167.452 395,-167.452 395,-148.452 287,-148.452"/>
<text text-anchor="middle" x="341" y="-155.452" font-family="Helvetica,sans-Serif" font-size="10.00">request_free_request</text>
</a>
</g>
</g>
<!-- Node2&#45;&gt;Node3 -->
<g id="edge2" class="edge"><title>Node2&#45;&gt;Node3</title>
<path fill="none" stroke="midnightblue" d="M230.842,-129.541C249.848,-134.488 273.229,-140.573 293.469,-145.841"/>
<polygon fill="midnightblue" stroke="midnightblue" points="292.864,-149.3 303.423,-148.432 294.627,-142.526 292.864,-149.3"/>
</g>
<!-- Node5 -->
<g id="node5" class="node"><title>Node5</title>
<g id="a_node5"><a xlink:href="a00006.html#adf46370d9c211c3be22966b4606ba9b0" target="_top" xlink:title="free">
<polygon fill="none" stroke="black" points="793,-91.452 793,-110.452 826,-110.452 826,-91.452 793,-91.452"/>
<text text-anchor="middle" x="809.5" y="-98.452" font-family="Helvetica,sans-Serif" font-size="10.00">free</text>
</a>
</g>
</g>
<!-- Node2&#45;&gt;Node5 -->
<g id="edge13" class="edge"><title>Node2&#45;&gt;Node5</title>
<path fill="none" stroke="midnightblue" d="M206.25,-110.429C242.761,-83.0298 354.903,-5.95202 461,-5.95202 461,-5.95202 461,-5.95202 579,-5.95202 658.561,-5.95202 688.793,16.0068 757,-24.952 778.588,-37.9158 793.145,-63.8253 801.127,-81.7637"/>
<polygon fill="midnightblue" stroke="midnightblue" points="797.999,-83.3569 805.071,-91.2464 804.462,-80.669 797.999,-83.3569"/>
</g>
<!-- Node6 -->
<g id="node6" class="node"><title>Node6</title>
<g id="a_node6"><a xlink:href="a00075.html#a1ec3b1d4547e5080bcec544c877852da" target="_top" xlink:title="value_free">
<polygon fill="none" stroke="black" points="431,-110.452 431,-129.452 493,-129.452 493,-110.452 431,-110.452"/>
<text text-anchor="middle" x="462" y="-117.452" font-family="Helvetica,sans-Serif" font-size="10.00">value_free</text>
</a>
</g>
</g>
<!-- Node2&#45;&gt;Node6 -->
<g id="edge12" class="edge"><title>Node2&#45;&gt;Node6</title>
<path fill="none" stroke="midnightblue" d="M251.278,-119.952C302.205,-119.952 375.386,-119.952 420.471,-119.952"/>
<polygon fill="midnightblue" stroke="midnightblue" points="420.746,-123.452 430.746,-119.952 420.746,-116.452 420.746,-123.452"/>
</g>
<!-- Node4 -->
<g id="node4" class="node"><title>Node4</title>
<g id="a_node4"><a xlink:href="a00011.html#a8922de7d42124afa8ab5fd339fe695ee" target="_top" xlink:title="discovery_free_sid">
<polygon fill="none" stroke="black" points="529,-186.452 529,-205.452 627,-205.452 627,-186.452 529,-186.452"/>
<text text-anchor="middle" x="578" y="-193.452" font-family="Helvetica,sans-Serif" font-size="10.00">discovery_free_sid</text>
</a>
</g>
</g>
<!-- Node3&#45;&gt;Node4 -->
<g id="edge3" class="edge"><title>Node3&#45;&gt;Node4</title>
<path fill="none" stroke="midnightblue" d="M395.032,-166.527C431.939,-172.495 481.138,-180.451 519.072,-186.585"/>
<polygon fill="midnightblue" stroke="midnightblue" points="518.525,-190.042 528.955,-188.183 519.642,-183.132 518.525,-190.042"/>
</g>
<!-- Node3&#45;&gt;Node5 -->
<g id="edge11" class="edge"><title>Node3&#45;&gt;Node5</title>
<path fill="none" stroke="midnightblue" d="M395.224,-158.402C474.988,-157.945 629.757,-152.667 757,-121.952 765.808,-119.826 775.079,-116.436 783.29,-112.996"/>
<polygon fill="midnightblue" stroke="midnightblue" points="784.94,-116.093 792.677,-108.855 782.115,-109.689 784.94,-116.093"/>
</g>
<!-- Node3&#45;&gt;Node6 -->
<g id="edge5" class="edge"><title>Node3&#45;&gt;Node6</title>
<path fill="none" stroke="midnightblue" d="M372.029,-148.363C386.968,-143.593 405.223,-137.763 421.301,-132.629"/>
<polygon fill="midnightblue" stroke="midnightblue" points="422.519,-135.914 430.981,-129.538 420.39,-129.246 422.519,-135.914"/>
</g>
<!-- Node4&#45;&gt;Node5 -->
<g id="edge4" class="edge"><title>Node4&#45;&gt;Node5</title>
<path fill="none" stroke="midnightblue" d="M627.316,-199.397C665.161,-199.858 717.786,-195.386 757,-171.952 777.242,-159.855 791.84,-136.413 800.215,-119.778"/>
<polygon fill="midnightblue" stroke="midnightblue" points="803.509,-120.998 804.62,-110.462 797.181,-118.006 803.509,-120.998"/>
</g>
<!-- Node6&#45;&gt;Node5 -->
<g id="edge10" class="edge"><title>Node6&#45;&gt;Node5</title>
<path fill="none" stroke="midnightblue" d="M493.079,-119.008C546.332,-117.229 660.673,-112.917 757,-105.952 765.348,-105.348 774.441,-104.522 782.631,-103.715"/>
<polygon fill="midnightblue" stroke="midnightblue" points="783.145,-107.18 792.739,-102.685 782.436,-100.216 783.145,-107.18"/>
</g>
<!-- Node7 -->
<g id="node7" class="node"><title>Node7</title>
<g id="a_node7"><a xlink:href="a00046.html#a195d511a075f2349200563af1c5d1fd7" target="_top" xlink:title="hpd_map_free">
<polygon fill="none" stroke="black" points="539,-72.452 539,-91.452 617,-91.452 617,-72.452 539,-72.452"/>
<text text-anchor="middle" x="578" y="-79.452" font-family="Helvetica,sans-Serif" font-size="10.00">hpd_map_free</text>
</a>
</g>
</g>
<!-- Node6&#45;&gt;Node7 -->
<g id="edge6" class="edge"><title>Node6&#45;&gt;Node7</title>
<path fill="none" stroke="midnightblue" d="M491.767,-110.363C505.943,-105.638 523.237,-99.8732 538.532,-94.7746"/>
<polygon fill="midnightblue" stroke="midnightblue" points="539.862,-98.0207 548.242,-91.538 537.649,-91.3799 539.862,-98.0207"/>
</g>
<!-- Node7&#45;&gt;Node5 -->
<g id="edge9" class="edge"><title>Node7&#45;&gt;Node5</title>
<path fill="none" stroke="midnightblue" d="M617.155,-85.1108C664.09,-88.9965 742.49,-95.4871 782.816,-98.8257"/>
<polygon fill="midnightblue" stroke="midnightblue" points="782.639,-102.323 792.894,-99.66 783.217,-95.3468 782.639,-102.323"/>
</g>
<!-- Node8 -->
<g id="node8" class="node"><title>Node8</title>
<g id="a_node8"><a xlink:href="a00022.html#ae1085dd4fd40466d18b02ec077ef4d6d" target="_top" xlink:title="hpd_map_remove">
<polygon fill="none" stroke="black" points="663,-34.452 663,-53.452 757,-53.452 757,-34.452 663,-34.452"/>
<text text-anchor="middle" x="710" y="-41.452" font-family="Helvetica,sans-Serif" font-size="10.00">hpd_map_remove</text>
</a>
</g>
</g>
<!-- Node7&#45;&gt;Node8 -->
<g id="edge7" class="edge"><title>Node7&#45;&gt;Node8</title>
<path fill="none" stroke="midnightblue" d="M611.804,-72.363C628.278,-67.5476 648.443,-61.6532 666.127,-56.484"/>
<polygon fill="midnightblue" stroke="midnightblue" points="667.59,-59.7031 676.206,-53.538 665.626,-52.9843 667.59,-59.7031"/>
</g>
<!-- Node8&#45;&gt;Node5 -->
<g id="edge8" class="edge"><title>Node8&#45;&gt;Node5</title>
<path fill="none" stroke="midnightblue" d="M730.455,-53.6175C738.729,-57.8525 748.428,-62.9825 757,-67.952 766.546,-73.4859 776.827,-79.9641 785.674,-85.7083"/>
<polygon fill="midnightblue" stroke="midnightblue" points="784.002,-88.7977 794.283,-91.3583 787.843,-82.9454 784.002,-88.7977"/>
</g>
</g>
</svg>
        <g id="navigator" transform="translate(0 0)" fill="#404254">
                <rect fill="#f2f5e9" fill-opacity="0.5" stroke="#606060" stroke-width=".5" x="0" y="0" width="60" height="60"/>
                <use id="zoomplus" xlink:href="#zoomPlus" x="17" y="9" onmousedown="handleZoom(evt,'in')"/>
                <use id="zoomminus" xlink:href="#zoomMin" x="42" y="9" onmousedown="handleZoom(evt,'out')"/>
                <use id="reset" xlink:href="#resetDef" x="30" y="36" onmousedown="handleReset()"/>
                <g id="arrowUp" xlink:href="#dirArrow" transform="translate(30 24)" onmousedown="handlePan(0,-1)">
                  <use xlink:href="#rim" fill="#404040">
                        <set attributeName="fill" to="#808080" begin="arrowUp.mouseover" end="arrowUp.mouseout"/>
                  </use>
                  <path fill="none" stroke="white" stroke-width="1.5" d="M0,-3.0v7 M-2.5,-0.5L0,-3.0L2.5,-0.5"/>
                </g>
                <g id="arrowRight" xlink:href="#dirArrow" transform="rotate(90) translate(36 -43)" onmousedown="handlePan(1,0)">
                  <use xlink:href="#rim" fill="#404040">
                        <set attributeName="fill" to="#808080" begin="arrowRight.mouseover" end="arrowRight.mouseout"/>
                  </use>
                  <path fill="none" stroke="white" stroke-width="1.5" d="M0,-3.0v7 M-2.5,-0.5L0,-3.0L2.5,-0.5"/>
                </g>
                <g id="arrowDown" xlink:href="#dirArrow" transform="rotate(180) translate(-30 -48)" onmousedown="handlePan(0,1)">
                  <use xlink:href="#rim" fill="#404040">
                        <set attributeName="fill" to="#808080" begin="arrowDown.mouseover" end="arrowDown.mouseout"/>
                  </use>
                  <path fill="none" stroke="white" stroke-width="1.5" d="M0,-3.0v7 M-2.5,-0.5L0,-3.0L2.5,-0.5"/>
                </g>
                <g id="arrowLeft" xlink:href="#dirArrow" transform="rotate(270) translate(-36 17)" onmousedown="handlePan(-1,0)">
                  <use xlink:href="#rim" fill="#404040">
                        <set attributeName="fill" to="#808080" begin="arrowLeft.mouseover" end="arrowLeft.mouseout"/>
                  </use>
                  <path fill="none" stroke="white" stroke-width="1.5" d="M0,-3.0v7 M-2.5,-0.5L0,-3.0L2.5,-0.5"/>
                </g>
        </g>
        <svg viewBox="0 0 15 15" width="100%" height="30px" preserveAspectRatio="xMaxYMin meet">
         <g id="arrow_out" transform="scale(0.3 0.3)">
          <a xlink:href="a00056_a2f50d49e360ca2689857e43bfcd533b3_cgraph_org.svg" target="_base">
           <rect id="button" ry="5" rx="5" y="6" x="6" height="38" width="38"
                fill="#f2f5e9" fill-opacity="0.5" stroke="#606060" stroke-width="1.0"/>
           <path id="arrow"
             d="M 11.500037,31.436501 C 11.940474,20.09759 22.043105,11.32322 32.158766,21.979434 L 37.068811,17.246167 C 37.068811,17.246167 37.088388,32 37.088388,32 L 22.160133,31.978069 C 22.160133,31.978069 26.997745,27.140456 26.997745,27.140456 C 18.528582,18.264221 13.291696,25.230495 11.500037,31.436501 z"
             style="fill:#404040;"/>
          </a>
         </g>
        </svg>
</svg>
