<?xml version="1.0" encoding="UTF-8" standalone="no"?>
<!DOCTYPE svg PUBLIC "-//W3C//DTD SVG 1.1//EN"
 "http://www.w3.org/Graphics/SVG/1.1/DTD/svg11.dtd">
<!-- Generated by graphviz version 2.38.0 (20140413.2041)
 -->
<!-- Title: demo_adapter_on_create Pages: 1 -->
<!--zoomable 81 -->
<svg id="main" version="1.1" xmlns="http://www.w3.org/2000/svg" xmlns:xlink="http://www.w3.org/1999/xlink" xml:space="preserve" onload="init(evt)">
<style type="text/css"><![CDATA[
.edge:hover path { stroke: red; }
.edge:hover polygon { stroke: red; fill: red; }
]]></style>
<script type="text/javascript"><![CDATA[
var edges = document.getElementsByTagName('g');
if (edges && edges.length) {
  for (var i=0;i<edges.length;i++) {
    if (edges[i].id.substr(0,4)=='edge') {
      edges[i].setAttribute('class','edge');
    }
  }
}
]]></script>
        <defs>
                <circle id="rim" cx="0" cy="0" r="7"/>
                <circle id="rim2" cx="0" cy="0" r="3.5"/>
                <g id="zoomPlus">
                        <use xlink:href="#rim" fill="#404040">
                                <set attributeName="fill" to="#808080" begin="zoomplus.mouseover" end="zoomplus.mouseout"/>
                        </use>
                        <path d="M-4,0h8M0,-4v8" fill="none" stroke="white" stroke-width="1.5" pointer-events="none"/>
                </g>
                <g id="zoomMin">
                        <use xlink:href="#rim" fill="#404040">
                                <set attributeName="fill" to="#808080" begin="zoomminus.mouseover" end="zoomminus.mouseout"/>
                        </use>
                        <path d="M-4,0h8" fill="none" stroke="white" stroke-width="1.5" pointer-events="none"/>
                </g>
                <g id="dirArrow">
                        <path fill="none" stroke="white" stroke-width="1.5" d="M0,-3.0v7 M-2.5,-0.5L0,-3.0L2.5,-0.5"/>
                </g>
               <g id="resetDef">
                       <use xlink:href="#rim2" fill="#404040">
                               <set attributeName="fill" to="#808080" begin="reset.mouseover" end="reset.mouseout"/>
                       </use>
               </g>
        </defs>

<script type="text/javascript">
var viewWidth = 671;
var viewHeight = 81;
var sectionId = 'dynsection-11';
</script>
<script xlink:href="svgpan.js"/>
<svg id="graph" class="graph">
<g id="viewport">
<title>demo_adapter_on_create</title>
<!-- Node1 -->
<g id="node1" class="node"><title>Node1</title>
<polygon fill="#bfbfbf" stroke="black" points="0,-15.4687 0,-34.4687 126,-34.4687 126,-15.4687 0,-15.4687"/>
<text text-anchor="middle" x="63" y="-22.4687" font-family="Helvetica,sans-Serif" font-size="10.00">demo_adapter_on_create</text>
</g>
<!-- Node2 -->
<g id="node2" class="node"><title>Node2</title>
<g id="a_node2"><a xlink:href="a00075.html#a22c32e717ccc176ad124a3ebcc1c9e7b" target="_top" xlink:title="hpd_module_get_id">
<polygon fill="none" stroke="black" points="172.5,-53.4687 172.5,-72.4687 273.5,-72.4687 273.5,-53.4687 172.5,-53.4687"/>
<text text-anchor="middle" x="223" y="-60.4687" font-family="Helvetica,sans-Serif" font-size="10.00">hpd_module_get_id</text>
</a>
</g>
</g>
<!-- Node1&#45;&gt;Node2 -->
<g id="edge1" class="edge"><title>Node1&#45;&gt;Node2</title>
<path fill="none" stroke="midnightblue" d="M103.87,-34.5577C124.72,-39.5722 150.435,-45.7567 172.543,-51.0739"/>
<polygon fill="midnightblue" stroke="midnightblue" points="171.875,-54.5131 182.417,-53.4486 173.512,-47.7072 171.875,-54.5131"/>
</g>
<!-- Node4 -->
<g id="node4" class="node"><title>Node4</title>
<g id="a_node4"><a xlink:href="a00075.html#ae5288c3d07fdd00ff0b0a03f2d26961f" target="_top" xlink:title="[hpd_t functions] ">
<polygon fill="none" stroke="black" points="162,-15.4687 162,-34.4687 284,-34.4687 284,-15.4687 162,-15.4687"/>
<text text-anchor="middle" x="223" y="-22.4687" font-family="Helvetica,sans-Serif" font-size="10.00">hpd_module_add_option</text>
</a>
</g>
</g>
<!-- Node1&#45;&gt;Node4 -->
<g id="edge3" class="edge"><title>Node1&#45;&gt;Node4</title>
<path fill="none" stroke="midnightblue" d="M126.446,-24.9687C134.724,-24.9687 143.257,-24.9687 151.658,-24.9687"/>
<polygon fill="midnightblue" stroke="midnightblue" points="151.813,-28.4688 161.813,-24.9687 151.813,-21.4688 151.813,-28.4688"/>
</g>
<!-- Node7 -->
<g id="node7" class="node"><title>Node7</title>
<g id="a_node7"><a xlink:href="a00012.html#adf46370d9c211c3be22966b4606ba9b0" target="_top" xlink:title="free">
<polygon fill="none" stroke="black" points="630,-15.4687 630,-34.4687 663,-34.4687 663,-15.4687 630,-15.4687"/>
<text text-anchor="middle" x="646.5" y="-22.4687" font-family="Helvetica,sans-Serif" font-size="10.00">free</text>
</a>
</g>
</g>
<!-- Node1&#45;&gt;Node7 -->
<g id="edge8" class="edge"><title>Node1&#45;&gt;Node7</title>
<path fill="none" stroke="midnightblue" d="M103.799,-15.4582C121.506,-11.6931 142.679,-7.82438 162,-5.96866 336.188,10.7611 547.031,-12.315 619.546,-21.494"/>
<polygon fill="midnightblue" stroke="midnightblue" points="619.23,-24.9822 629.596,-22.7905 620.126,-18.0398 619.23,-24.9822"/>
</g>
<!-- Node3 -->
<g id="node3" class="node"><title>Node3</title>
<g id="a_node3"><a xlink:href="a00076.html#a6a958d01d404117e078cb3728c6feef2" target="_top" xlink:title="daemon_get_id">
<polygon fill="none" stroke="black" points="330.5,-53.4687 330.5,-72.4687 413.5,-72.4687 413.5,-53.4687 330.5,-53.4687"/>
<text text-anchor="middle" x="372" y="-60.4687" font-family="Helvetica,sans-Serif" font-size="10.00">daemon_get_id</text>
</a>
</g>
</g>
<!-- Node2&#45;&gt;Node3 -->
<g id="edge2" class="edge"><title>Node2&#45;&gt;Node3</title>
<path fill="none" stroke="midnightblue" d="M273.767,-62.9687C288.656,-62.9687 305,-62.9687 319.968,-62.9687"/>
<polygon fill="midnightblue" stroke="midnightblue" points="320.077,-66.4688 330.077,-62.9687 320.077,-59.4688 320.077,-66.4688"/>
</g>
<!-- Node5 -->
<g id="node5" class="node"><title>Node5</title>
<g id="a_node5"><a xlink:href="a00076.html#aa28ce93ac8eee4dcd694433efbf62e82" target="_top" xlink:title="daemon_add_option">
<polygon fill="none" stroke="black" points="320,-15.4687 320,-34.4687 424,-34.4687 424,-15.4687 320,-15.4687"/>
<text text-anchor="middle" x="372" y="-22.4687" font-family="Helvetica,sans-Serif" font-size="10.00">daemon_add_option</text>
</a>
</g>
</g>
<!-- Node4&#45;&gt;Node5 -->
<g id="edge4" class="edge"><title>Node4&#45;&gt;Node5</title>
<path fill="none" stroke="midnightblue" d="M284.215,-24.9687C292.557,-24.9687 301.136,-24.9687 309.502,-24.9687"/>
<polygon fill="midnightblue" stroke="midnightblue" points="309.57,-28.4688 319.57,-24.9687 309.57,-21.4688 309.57,-28.4688"/>
</g>
<!-- Node6 -->
<g id="node6" class="node"><title>Node6</title>
<g id="a_node6"><a xlink:href="a00076.html#a3da1c288975f0004839f81c07ad3bec2" target="_top" xlink:title="daemon_add_global_option">
<polygon fill="none" stroke="black" points="460,-53.4687 460,-72.4687 594,-72.4687 594,-53.4687 460,-53.4687"/>
<text text-anchor="middle" x="527" y="-60.4687" font-family="Helvetica,sans-Serif" font-size="10.00">daemon_add_global_option</text>
</a>
</g>
</g>
<!-- Node5&#45;&gt;Node6 -->
<g id="edge5" class="edge"><title>Node5&#45;&gt;Node6</title>
<path fill="none" stroke="midnightblue" d="M411.608,-34.5577C431.707,-39.5496 456.475,-45.701 477.819,-51.002"/>
<polygon fill="midnightblue" stroke="midnightblue" points="477.12,-54.4349 487.669,-53.4486 478.808,-47.6413 477.12,-54.4349"/>
</g>
<!-- Node5&#45;&gt;Node7 -->
<g id="edge7" class="edge"><title>Node5&#45;&gt;Node7</title>
<path fill="none" stroke="midnightblue" d="M424.255,-24.9687C482.509,-24.9687 575.276,-24.9687 619.89,-24.9687"/>
<polygon fill="midnightblue" stroke="midnightblue" points="619.897,-28.4688 629.897,-24.9687 619.897,-21.4688 619.897,-28.4688"/>
</g>
<!-- Node6&#45;&gt;Node7 -->
<g id="edge6" class="edge"><title>Node6&#45;&gt;Node7</title>
<path fill="none" stroke="midnightblue" d="M557.65,-53.3797C576.949,-47.1384 601.852,-39.0845 620.213,-33.1464"/>
<polygon fill="midnightblue" stroke="midnightblue" points="621.482,-36.4148 629.92,-30.0074 619.328,-29.7544 621.482,-36.4148"/>
</g>
</g>
</svg>
        <g id="navigator" transform="translate(0 0)" fill="#404254">
                <rect fill="#f2f5e9" fill-opacity="0.5" stroke="#606060" stroke-width=".5" x="0" y="0" width="60" height="60"/>
                <use id="zoomplus" xlink:href="#zoomPlus" x="17" y="9" onmousedown="handleZoom(evt,'in')"/>
                <use id="zoomminus" xlink:href="#zoomMin" x="42" y="9" onmousedown="handleZoom(evt,'out')"/>
                <use id="reset" xlink:href="#resetDef" x="30" y="36" onmousedown="handleReset()"/>
                <g id="arrowUp" xlink:href="#dirArrow" transform="translate(30 24)" onmousedown="handlePan(0,-1)">
                  <use xlink:href="#rim" fill="#404040">
                        <set attributeName="fill" to="#808080" begin="arrowUp.mouseover" end="arrowUp.mouseout"/>
                  </use>
                  <path fill="none" stroke="white" stroke-width="1.5" d="M0,-3.0v7 M-2.5,-0.5L0,-3.0L2.5,-0.5"/>
                </g>
                <g id="arrowRight" xlink:href="#dirArrow" transform="rotate(90) translate(36 -43)" onmousedown="handlePan(1,0)">
                  <use xlink:href="#rim" fill="#404040">
                        <set attributeName="fill" to="#808080" begin="arrowRight.mouseover" end="arrowRight.mouseout"/>
                  </use>
                  <path fill="none" stroke="white" stroke-width="1.5" d="M0,-3.0v7 M-2.5,-0.5L0,-3.0L2.5,-0.5"/>
                </g>
                <g id="arrowDown" xlink:href="#dirArrow" transform="rotate(180) translate(-30 -48)" onmousedown="handlePan(0,1)">
                  <use xlink:href="#rim" fill="#404040">
                        <set attributeName="fill" to="#808080" begin="arrowDown.mouseover" end="arrowDown.mouseout"/>
                  </use>
                  <path fill="none" stroke="white" stroke-width="1.5" d="M0,-3.0v7 M-2.5,-0.5L0,-3.0L2.5,-0.5"/>
                </g>
                <g id="arrowLeft" xlink:href="#dirArrow" transform="rotate(270) translate(-36 17)" onmousedown="handlePan(-1,0)">
                  <use xlink:href="#rim" fill="#404040">
                        <set attributeName="fill" to="#808080" begin="arrowLeft.mouseover" end="arrowLeft.mouseout"/>
                  </use>
                  <path fill="none" stroke="white" stroke-width="1.5" d="M0,-3.0v7 M-2.5,-0.5L0,-3.0L2.5,-0.5"/>
                </g>
        </g>
        <svg viewBox="0 0 15 15" width="100%" height="30px" preserveAspectRatio="xMaxYMin meet">
         <g id="arrow_out" transform="scale(0.3 0.3)">
          <a xlink:href="a00013_a85637c6b8b67a585a362e70468afa8b2_cgraph_org.svg" target="_base">
           <rect id="button" ry="5" rx="5" y="6" x="6" height="38" width="38"
                fill="#f2f5e9" fill-opacity="0.5" stroke="#606060" stroke-width="1.0"/>
           <path id="arrow"
             d="M 11.500037,31.436501 C 11.940474,20.09759 22.043105,11.32322 32.158766,21.979434 L 37.068811,17.246167 C 37.068811,17.246167 37.088388,32 37.088388,32 L 22.160133,31.978069 C 22.160133,31.978069 26.997745,27.140456 26.997745,27.140456 C 18.528582,18.264221 13.291696,25.230495 11.500037,31.436501 z"
             style="fill:#404040;"/>
          </a>
         </g>
        </svg>
</svg>
