<?xml version="1.0" encoding="UTF-8" standalone="no"?>
<!DOCTYPE svg PUBLIC "-//W3C//DTD SVG 1.1//EN"
 "http://www.w3.org/Graphics/SVG/1.1/DTD/svg11.dtd">
<!-- Generated by graphviz version 2.38.0 (20140413.2041)
 -->
<!-- Title: rest_json_add_device Pages: 1 -->
<!--zoomable 28 -->
<svg id="main" version="1.1" xmlns="http://www.w3.org/2000/svg" xmlns:xlink="http://www.w3.org/1999/xlink" xml:space="preserve" onload="init(evt)">
<style type="text/css"><![CDATA[
.edge:hover path { stroke: red; }
.edge:hover polygon { stroke: red; fill: red; }
]]></style>
<script type="text/javascript"><![CDATA[
var edges = document.getElementsByTagName('g');
if (edges && edges.length) {
  for (var i=0;i<edges.length;i++) {
    if (edges[i].id.substr(0,4)=='edge') {
      edges[i].setAttribute('class','edge');
    }
  }
}
]]></script>
        <defs>
                <circle id="rim" cx="0" cy="0" r="7"/>
                <circle id="rim2" cx="0" cy="0" r="3.5"/>
                <g id="zoomPlus">
                        <use xlink:href="#rim" fill="#404040">
                                <set attributeName="fill" to="#808080" begin="zoomplus.mouseover" end="zoomplus.mouseout"/>
                        </use>
                        <path d="M-4,0h8M0,-4v8" fill="none" stroke="white" stroke-width="1.5" pointer-events="none"/>
                </g>
                <g id="zoomMin">
                        <use xlink:href="#rim" fill="#404040">
                                <set attributeName="fill" to="#808080" begin="zoomminus.mouseover" end="zoomminus.mouseout"/>
                        </use>
                        <path d="M-4,0h8" fill="none" stroke="white" stroke-width="1.5" pointer-events="none"/>
                </g>
                <g id="dirArrow">
                        <path fill="none" stroke="white" stroke-width="1.5" d="M0,-3.0v7 M-2.5,-0.5L0,-3.0L2.5,-0.5"/>
                </g>
               <g id="resetDef">
                       <use xlink:href="#rim2" fill="#404040">
                               <set attributeName="fill" to="#808080" begin="reset.mouseover" end="reset.mouseout"/>
                       </use>
               </g>
        </defs>

<script type="text/javascript">
var viewWidth = 1345;
var viewHeight = 28;
var sectionId = 'dynsection-16';
</script>
<script xlink:href="svgpan.js"/>
<svg id="graph" class="graph">
<g id="viewport">
<title>rest_json_add_device</title>
<!-- Node1 -->
<g id="node1" class="node"><title>Node1</title>
<polygon fill="#bfbfbf" stroke="black" points="0,-0.5 0,-19.5 111,-19.5 111,-0.5 0,-0.5"/>
<text text-anchor="middle" x="55.5" y="-7.5" font-family="Helvetica,sans-Serif" font-size="10.00">rest_json_add_device</text>
</g>
<!-- Node2 -->
<g id="node2" class="node"><title>Node2</title>
<g id="a_node2"><a xlink:href="a00096.html#ad6d08cc22d78268f5dc0b229af37c54c" target="_top" xlink:title="rest_json_add_devices">
<polygon fill="none" stroke="black" points="147,-0.5 147,-19.5 263,-19.5 263,-0.5 147,-0.5"/>
<text text-anchor="middle" x="205" y="-7.5" font-family="Helvetica,sans-Serif" font-size="10.00">rest_json_add_devices</text>
</a>
</g>
</g>
<!-- Node1&#45;&gt;Node2 -->
<g id="edge1" class="edge"><title>Node1&#45;&gt;Node2</title>
<path fill="none" stroke="midnightblue" d="M121.252,-10C129.744,-10 138.398,-10 146.753,-10"/>
<polygon fill="midnightblue" stroke="midnightblue" points="121.005,-6.5001 111.004,-10 121.004,-13.5001 121.005,-6.5001"/>
</g>
<!-- Node3 -->
<g id="node3" class="node"><title>Node3</title>
<g id="a_node3"><a xlink:href="a00096.html#a640b87b4cf374466c27940092542bbec" target="_top" xlink:title="rest_json_add_adapter">
<polygon fill="none" stroke="black" points="299,-0.5 299,-19.5 414,-19.5 414,-0.5 299,-0.5"/>
<text text-anchor="middle" x="356.5" y="-7.5" font-family="Helvetica,sans-Serif" font-size="10.00">rest_json_add_adapter</text>
</a>
</g>
</g>
<!-- Node2&#45;&gt;Node3 -->
<g id="edge2" class="edge"><title>Node2&#45;&gt;Node3</title>
<path fill="none" stroke="midnightblue" d="M273.488,-10C281.853,-10 290.341,-10 298.527,-10"/>
<polygon fill="midnightblue" stroke="midnightblue" points="273.373,-6.5001 263.373,-10 273.373,-13.5001 273.373,-6.5001"/>
</g>
<!-- Node4 -->
<g id="node4" class="node"><title>Node4</title>
<g id="a_node4"><a xlink:href="a00096.html#a99b3728ca81ef813ed208afd6de9a9b3" target="_top" xlink:title="rest_json_add_adapters">
<polygon fill="none" stroke="black" points="450,-0.5 450,-19.5 570,-19.5 570,-0.5 450,-0.5"/>
<text text-anchor="middle" x="510" y="-7.5" font-family="Helvetica,sans-Serif" font-size="10.00">rest_json_add_adapters</text>
</a>
</g>
</g>
<!-- Node3&#45;&gt;Node4 -->
<g id="edge3" class="edge"><title>Node3&#45;&gt;Node4</title>
<path fill="none" stroke="midnightblue" d="M424.521,-10C432.948,-10 441.52,-10 449.814,-10"/>
<polygon fill="midnightblue" stroke="midnightblue" points="424.344,-6.5001 414.344,-10 424.344,-13.5001 424.344,-6.5001"/>
</g>
<!-- Node5 -->
<g id="node5" class="node"><title>Node5</title>
<g id="a_node5"><a xlink:href="a00096.html#a28e31077cb0239c2f21c335da42223e2" target="_top" xlink:title="rest_json_add_configuration">
<polygon fill="none" stroke="black" points="606,-0.5 606,-19.5 744,-19.5 744,-0.5 606,-0.5"/>
<text text-anchor="middle" x="675" y="-7.5" font-family="Helvetica,sans-Serif" font-size="10.00">rest_json_add_configuration</text>
</a>
</g>
</g>
<!-- Node4&#45;&gt;Node5 -->
<g id="edge4" class="edge"><title>Node4&#45;&gt;Node5</title>
<path fill="none" stroke="midnightblue" d="M580.47,-10C588.892,-10 597.49,-10 605.892,-10"/>
<polygon fill="midnightblue" stroke="midnightblue" points="580.308,-6.5001 570.308,-10 580.308,-13.5001 580.308,-6.5001"/>
</g>
<!-- Node6 -->
<g id="node6" class="node"><title>Node6</title>
<g id="a_node6"><a xlink:href="a00097.html#aeb80ec3253d248a129513864cdc53817" target="_top" xlink:title="hpd_rest_json_get_configuration">
<polygon fill="none" stroke="black" points="780,-0.5 780,-19.5 937,-19.5 937,-0.5 780,-0.5"/>
<text text-anchor="middle" x="858.5" y="-7.5" font-family="Helvetica,sans-Serif" font-size="10.00">hpd_rest_json_get_configuration</text>
</a>
</g>
</g>
<!-- Node5&#45;&gt;Node6 -->
<g id="edge5" class="edge"><title>Node5&#45;&gt;Node6</title>
<path fill="none" stroke="midnightblue" d="M754.332,-10C762.797,-10 771.409,-10 779.865,-10"/>
<polygon fill="midnightblue" stroke="midnightblue" points="754.1,-6.5001 744.1,-10 754.1,-13.5001 754.1,-6.5001"/>
</g>
<!-- Node7 -->
<g id="node7" class="node"><title>Node7</title>
<g id="a_node7"><a xlink:href="a00034.html#ac0f2724b4617f1adb53492f1a57a4e4b" target="_top" xlink:title="rest_reply_devices">
<polygon fill="none" stroke="black" points="973,-0.5 973,-19.5 1071,-19.5 1071,-0.5 973,-0.5"/>
<text text-anchor="middle" x="1022" y="-7.5" font-family="Helvetica,sans-Serif" font-size="10.00">rest_reply_devices</text>
</a>
</g>
</g>
<!-- Node6&#45;&gt;Node7 -->
<g id="edge6" class="edge"><title>Node6&#45;&gt;Node7</title>
<path fill="none" stroke="midnightblue" d="M947.616,-10C956.285,-10 964.84,-10 972.876,-10"/>
<polygon fill="midnightblue" stroke="midnightblue" points="947.412,-6.5001 937.412,-10 947.412,-13.5001 947.412,-6.5001"/>
</g>
<!-- Node8 -->
<g id="node8" class="node"><title>Node8</title>
<g id="a_node8"><a xlink:href="a00034.html#a2731aca6e6807e771bcf9c94dbec968c" target="_top" xlink:title="rest_on_req_hdr_cmpl">
<polygon fill="none" stroke="black" points="1107,-0.5 1107,-19.5 1220,-19.5 1220,-0.5 1107,-0.5"/>
<text text-anchor="middle" x="1163.5" y="-7.5" font-family="Helvetica,sans-Serif" font-size="10.00">rest_on_req_hdr_cmpl</text>
</a>
</g>
</g>
<!-- Node7&#45;&gt;Node8 -->
<g id="edge7" class="edge"><title>Node7&#45;&gt;Node8</title>
<path fill="none" stroke="midnightblue" d="M1081.17,-10C1089.63,-10 1098.32,-10 1106.72,-10"/>
<polygon fill="midnightblue" stroke="midnightblue" points="1081.01,-6.5001 1071.01,-10 1081.01,-13.5001 1081.01,-6.5001"/>
</g>
<!-- Node9 -->
<g id="node9" class="node"><title>Node9</title>
<g id="a_node9"><a xlink:href="a00034.html#a02090c3feb19ea4c6e1fa9b5e6392752" target="_top" xlink:title="rest_on_create">
<polygon fill="none" stroke="black" points="1256,-0.5 1256,-19.5 1337,-19.5 1337,-0.5 1256,-0.5"/>
<text text-anchor="middle" x="1296.5" y="-7.5" font-family="Helvetica,sans-Serif" font-size="10.00">rest_on_create</text>
</a>
</g>
</g>
<!-- Node8&#45;&gt;Node9 -->
<g id="edge8" class="edge"><title>Node8&#45;&gt;Node9</title>
<path fill="none" stroke="midnightblue" d="M1230.25,-10C1238.96,-10 1247.66,-10 1255.75,-10"/>
<polygon fill="midnightblue" stroke="midnightblue" points="1230.06,-6.5001 1220.06,-10 1230.06,-13.5001 1230.06,-6.5001"/>
</g>
</g>
</svg>
        <g id="navigator" transform="translate(0 0)" fill="#404254">
                <rect fill="#f2f5e9" fill-opacity="0.5" stroke="#606060" stroke-width=".5" x="0" y="0" width="60" height="60"/>
                <use id="zoomplus" xlink:href="#zoomPlus" x="17" y="9" onmousedown="handleZoom(evt,'in')"/>
                <use id="zoomminus" xlink:href="#zoomMin" x="42" y="9" onmousedown="handleZoom(evt,'out')"/>
                <use id="reset" xlink:href="#resetDef" x="30" y="36" onmousedown="handleReset()"/>
                <g id="arrowUp" xlink:href="#dirArrow" transform="translate(30 24)" onmousedown="handlePan(0,-1)">
                  <use xlink:href="#rim" fill="#404040">
                        <set attributeName="fill" to="#808080" begin="arrowUp.mouseover" end="arrowUp.mouseout"/>
                  </use>
                  <path fill="none" stroke="white" stroke-width="1.5" d="M0,-3.0v7 M-2.5,-0.5L0,-3.0L2.5,-0.5"/>
                </g>
                <g id="arrowRight" xlink:href="#dirArrow" transform="rotate(90) translate(36 -43)" onmousedown="handlePan(1,0)">
                  <use xlink:href="#rim" fill="#404040">
                        <set attributeName="fill" to="#808080" begin="arrowRight.mouseover" end="arrowRight.mouseout"/>
                  </use>
                  <path fill="none" stroke="white" stroke-width="1.5" d="M0,-3.0v7 M-2.5,-0.5L0,-3.0L2.5,-0.5"/>
                </g>
                <g id="arrowDown" xlink:href="#dirArrow" transform="rotate(180) translate(-30 -48)" onmousedown="handlePan(0,1)">
                  <use xlink:href="#rim" fill="#404040">
                        <set attributeName="fill" to="#808080" begin="arrowDown.mouseover" end="arrowDown.mouseout"/>
                  </use>
                  <path fill="none" stroke="white" stroke-width="1.5" d="M0,-3.0v7 M-2.5,-0.5L0,-3.0L2.5,-0.5"/>
                </g>
                <g id="arrowLeft" xlink:href="#dirArrow" transform="rotate(270) translate(-36 17)" onmousedown="handlePan(-1,0)">
                  <use xlink:href="#rim" fill="#404040">
                        <set attributeName="fill" to="#808080" begin="arrowLeft.mouseover" end="arrowLeft.mouseout"/>
                  </use>
                  <path fill="none" stroke="white" stroke-width="1.5" d="M0,-3.0v7 M-2.5,-0.5L0,-3.0L2.5,-0.5"/>
                </g>
        </g>
        <svg viewBox="0 0 15 15" width="100%" height="30px" preserveAspectRatio="xMaxYMin meet">
         <g id="arrow_out" transform="scale(0.3 0.3)">
          <a xlink:href="a00096_a41c2f37e46c89b97a3b4f5bb4e8ede49_icgraph_org.svg" target="_base">
           <rect id="button" ry="5" rx="5" y="6" x="6" height="38" width="38"
                fill="#f2f5e9" fill-opacity="0.5" stroke="#606060" stroke-width="1.0"/>
           <path id="arrow"
             d="M 11.500037,31.436501 C 11.940474,20.09759 22.043105,11.32322 32.158766,21.979434 L 37.068811,17.246167 C 37.068811,17.246167 37.088388,32 37.088388,32 L 22.160133,31.978069 C 22.160133,31.978069 26.997745,27.140456 26.997745,27.140456 C 18.528582,18.264221 13.291696,25.230495 11.500037,31.436501 z"
             style="fill:#404040;"/>
          </a>
         </g>
        </svg>
</svg>
