<?xml version="1.0" encoding="UTF-8" standalone="no"?>
<!DOCTYPE svg PUBLIC "-//W3C//DTD SVG 1.1//EN"
 "http://www.w3.org/Graphics/SVG/1.1/DTD/svg11.dtd">
<!-- Generated by graphviz version 2.38.0 (20140413.2041)
 -->
<!-- Title: curl_ev_stop_watcher Pages: 1 -->
<svg width="414pt" height="66pt"
 viewBox="0.00 0.00 414.00 66.00" xmlns="http://www.w3.org/2000/svg" xmlns:xlink="http://www.w3.org/1999/xlink">
<g id="graph0" class="graph" transform="scale(1 1) rotate(0) translate(4 62)">
<title>curl_ev_stop_watcher</title>
<!-- Node1 -->
<g id="node1" class="node"><title>Node1</title>
<polygon fill="#bfbfbf" stroke="black" points="0,-19.5 0,-38.5 112,-38.5 112,-19.5 0,-19.5"/>
<text text-anchor="middle" x="56" y="-26.5" font-family="Helvetica,sans-Serif" font-size="10.00">curl_ev_stop_watcher</text>
</g>
<!-- Node2 -->
<g id="node2" class="node"><title>Node2</title>
<g id="a_node2"><a xlink:href="a00011.html#a86ee4a79820cfaa5bea7b8bb444a5b40" target="_top" xlink:title="curl_ev_on_update_socket">
<polygon fill="none" stroke="black" points="148,-38.5 148,-57.5 281,-57.5 281,-38.5 148,-38.5"/>
<text text-anchor="middle" x="214.5" y="-45.5" font-family="Helvetica,sans-Serif" font-size="10.00">curl_ev_on_update_socket</text>
</a>
</g>
</g>
<!-- Node1&#45;&gt;Node2 -->
<g id="edge1" class="edge"><title>Node1&#45;&gt;Node2</title>
<path fill="none" stroke="midnightblue" d="M122.33,-36.9314C130.76,-37.9549 139.396,-39.0034 147.832,-40.0276"/>
<polygon fill="midnightblue" stroke="midnightblue" points="122.525,-33.4295 112.176,-35.6987 121.681,-40.3785 122.525,-33.4295"/>
</g>
<!-- Node4 -->
<g id="node4" class="node"><title>Node4</title>
<g id="a_node4"><a xlink:href="a00011.html#aba35c9e82d85fedd34fc6a27e754cb0f" target="_top" xlink:title="curl_ev_on_stop">
<polygon fill="none" stroke="black" points="170.5,-0.5 170.5,-19.5 258.5,-19.5 258.5,-0.5 170.5,-0.5"/>
<text text-anchor="middle" x="214.5" y="-7.5" font-family="Helvetica,sans-Serif" font-size="10.00">curl_ev_on_stop</text>
</a>
</g>
</g>
<!-- Node1&#45;&gt;Node4 -->
<g id="edge3" class="edge"><title>Node1&#45;&gt;Node4</title>
<path fill="none" stroke="midnightblue" d="M122.128,-21.093C138.314,-19.128 155.27,-17.0694 170.12,-15.2665"/>
<polygon fill="midnightblue" stroke="midnightblue" points="121.681,-17.6215 112.176,-22.3013 122.525,-24.5705 121.681,-17.6215"/>
</g>
<!-- Node3 -->
<g id="node3" class="node"><title>Node3</title>
<g id="a_node3"><a xlink:href="a00011.html#a23edd3ab49a080d41e1fca27a823f06f" target="_top" xlink:title="curl_ev_on_start">
<polygon fill="none" stroke="black" points="317,-38.5 317,-57.5 406,-57.5 406,-38.5 317,-38.5"/>
<text text-anchor="middle" x="361.5" y="-45.5" font-family="Helvetica,sans-Serif" font-size="10.00">curl_ev_on_start</text>
</a>
</g>
</g>
<!-- Node2&#45;&gt;Node3 -->
<g id="edge2" class="edge"><title>Node2&#45;&gt;Node3</title>
<path fill="none" stroke="midnightblue" d="M291.358,-48C300,-48 308.579,-48 316.602,-48"/>
<polygon fill="midnightblue" stroke="midnightblue" points="291.212,-44.5001 281.212,-48 291.212,-51.5001 291.212,-44.5001"/>
</g>
</g>
</svg>
