<?xml version="1.0" encoding="UTF-8" standalone="no"?>
<!DOCTYPE svg PUBLIC "-//W3C//DTD SVG 1.1//EN"
 "http://www.w3.org/Graphics/SVG/1.1/DTD/svg11.dtd">
<!-- Generated by graphviz version 2.38.0 (20140413.2041)
 -->
<!-- Title: hpd_map_set_n Pages: 1 -->
<svg width="293pt" height="104pt"
 viewBox="0.00 0.00 293.00 104.00" xmlns="http://www.w3.org/2000/svg" xmlns:xlink="http://www.w3.org/1999/xlink">
<g id="graph0" class="graph" transform="scale(1 1) rotate(0) translate(4 100)">
<title>hpd_map_set_n</title>
<!-- Node1 -->
<g id="node1" class="node"><title>Node1</title>
<polygon fill="#bfbfbf" stroke="black" points="0,-38.5 0,-57.5 86,-57.5 86,-38.5 0,-38.5"/>
<text text-anchor="middle" x="43" y="-45.5" font-family="Helvetica,sans-Serif" font-size="10.00">hpd_map_set_n</text>
</g>
<!-- Node2 -->
<g id="node2" class="node"><title>Node2</title>
<g id="a_node2"><a xlink:href="a00022.html#ae1085dd4fd40466d18b02ec077ef4d6d" target="_top" xlink:title="hpd_map_remove">
<polygon fill="none" stroke="black" points="122,-76.5 122,-95.5 216,-95.5 216,-76.5 122,-76.5"/>
<text text-anchor="middle" x="169" y="-83.5" font-family="Helvetica,sans-Serif" font-size="10.00">hpd_map_remove</text>
</a>
</g>
</g>
<!-- Node1&#45;&gt;Node2 -->
<g id="edge1" class="edge"><title>Node1&#45;&gt;Node2</title>
<path fill="none" stroke="midnightblue" d="M75.2904,-57.589C91.0039,-62.4044 110.238,-68.2988 127.106,-73.468"/>
<polygon fill="midnightblue" stroke="midnightblue" points="126.133,-76.8304 136.72,-76.4141 128.184,-70.1376 126.133,-76.8304"/>
</g>
<!-- Node4 -->
<g id="node4" class="node"><title>Node4</title>
<g id="a_node4"><a xlink:href="a00022.html#a1183d13fe5c6a98f618f676362f52eda" target="_top" xlink:title="insert_n">
<polygon fill="none" stroke="black" points="143.5,-38.5 143.5,-57.5 194.5,-57.5 194.5,-38.5 143.5,-38.5"/>
<text text-anchor="middle" x="169" y="-45.5" font-family="Helvetica,sans-Serif" font-size="10.00">insert_n</text>
</a>
</g>
</g>
<!-- Node1&#45;&gt;Node4 -->
<g id="edge3" class="edge"><title>Node1&#45;&gt;Node4</title>
<path fill="none" stroke="midnightblue" d="M86.3269,-48C101.57,-48 118.584,-48 133.12,-48"/>
<polygon fill="midnightblue" stroke="midnightblue" points="133.206,-51.5001 143.206,-48 133.206,-44.5001 133.206,-51.5001"/>
</g>
<!-- Node5 -->
<g id="node5" class="node"><title>Node5</title>
<g id="a_node5"><a xlink:href="a00022.html#a1232e3252bd416a43969d3c26843c674" target="_top" xlink:title="replace_n">
<polygon fill="none" stroke="black" points="139.5,-0.5 139.5,-19.5 198.5,-19.5 198.5,-0.5 139.5,-0.5"/>
<text text-anchor="middle" x="169" y="-7.5" font-family="Helvetica,sans-Serif" font-size="10.00">replace_n</text>
</a>
</g>
</g>
<!-- Node1&#45;&gt;Node5 -->
<g id="edge5" class="edge"><title>Node1&#45;&gt;Node5</title>
<path fill="none" stroke="midnightblue" d="M75.2904,-38.411C91.7236,-33.375 112.008,-27.1589 129.408,-21.8265"/>
<polygon fill="midnightblue" stroke="midnightblue" points="130.734,-25.081 139.269,-18.8045 128.683,-18.3882 130.734,-25.081"/>
</g>
<!-- Node3 -->
<g id="node3" class="node"><title>Node3</title>
<g id="a_node3"><a xlink:href="a00006.html#adf46370d9c211c3be22966b4606ba9b0" target="_top" xlink:title="free">
<polygon fill="none" stroke="black" points="252,-57.5 252,-76.5 285,-76.5 285,-57.5 252,-57.5"/>
<text text-anchor="middle" x="268.5" y="-64.5" font-family="Helvetica,sans-Serif" font-size="10.00">free</text>
</a>
</g>
</g>
<!-- Node2&#45;&gt;Node3 -->
<g id="edge2" class="edge"><title>Node2&#45;&gt;Node3</title>
<path fill="none" stroke="midnightblue" d="M216.18,-77.0008C224.978,-75.2863 233.888,-73.55 241.76,-72.016"/>
<polygon fill="midnightblue" stroke="midnightblue" points="242.596,-75.419 251.742,-70.0708 241.257,-68.5483 242.596,-75.419"/>
</g>
<!-- Node4&#45;&gt;Node3 -->
<g id="edge4" class="edge"><title>Node4&#45;&gt;Node3</title>
<path fill="none" stroke="midnightblue" d="M194.603,-52.7945C209.039,-55.6076 227.254,-59.1571 241.864,-62.0043"/>
<polygon fill="midnightblue" stroke="midnightblue" points="241.276,-65.4554 251.76,-63.9328 242.615,-58.5846 241.276,-65.4554"/>
</g>
</g>
</svg>
