<?xml version="1.0" encoding="UTF-8" standalone="no"?>
<!DOCTYPE svg PUBLIC "-//W3C//DTD SVG 1.1//EN"
 "http://www.w3.org/Graphics/SVG/1.1/DTD/svg11.dtd">
<!-- Generated by graphviz version 2.38.0 (20140413.2041)
 -->
<!-- Title: hpd_adapter_next_device Pages: 1 -->
<svg width="423pt" height="154pt"
 viewBox="0.00 0.00 423.00 154.00" xmlns="http://www.w3.org/2000/svg" xmlns:xlink="http://www.w3.org/1999/xlink">
<g id="graph0" class="graph" transform="scale(1 1) rotate(0) translate(4 150)">
<title>hpd_adapter_next_device</title>
<!-- Node1 -->
<g id="node1" class="node"><title>Node1</title>
<polygon fill="#bfbfbf" stroke="black" points="0,-60.5 0,-79.5 128,-79.5 128,-60.5 0,-60.5"/>
<text text-anchor="middle" x="64" y="-67.5" font-family="Helvetica,sans-Serif" font-size="10.00">hpd_adapter_next_device</text>
</g>
<!-- Node2 -->
<g id="node2" class="node"><title>Node2</title>
<g id="a_node2"><a xlink:href="a00011.html#af178de2e51304e31fefe0ae13d2481ab" target="_top" xlink:title="discovery_find_device">
<polygon fill="none" stroke="black" points="167.5,-126.5 167.5,-145.5 280.5,-145.5 280.5,-126.5 167.5,-126.5"/>
<text text-anchor="middle" x="224" y="-133.5" font-family="Helvetica,sans-Serif" font-size="10.00">discovery_find_device</text>
</a>
</g>
</g>
<!-- Node1&#45;&gt;Node2 -->
<g id="edge1" class="edge"><title>Node1&#45;&gt;Node2</title>
<path fill="none" stroke="midnightblue" d="M83.2889,-79.5769C102.917,-89.6425 135.17,-105.572 164,-117 169.447,-119.159 175.247,-121.26 181.002,-123.228"/>
<polygon fill="midnightblue" stroke="midnightblue" points="179.983,-126.578 190.576,-126.405 182.187,-119.934 179.983,-126.578"/>
</g>
<!-- Node3 -->
<g id="node3" class="node"><title>Node3</title>
<g id="a_node3"><a xlink:href="a00063.html#ad2fe1d48b488705a0dfc6bdb10dc8c5a" target="_top" xlink:title="discovery_next_adapter\l_device">
<polygon fill="none" stroke="black" points="164,-77 164,-107 284,-107 284,-77 164,-77"/>
<text text-anchor="start" x="172" y="-95" font-family="Helvetica,sans-Serif" font-size="10.00">discovery_next_adapter</text>
<text text-anchor="middle" x="224" y="-84" font-family="Helvetica,sans-Serif" font-size="10.00">_device</text>
</a>
</g>
</g>
<!-- Node1&#45;&gt;Node3 -->
<g id="edge2" class="edge"><title>Node1&#45;&gt;Node3</title>
<path fill="none" stroke="midnightblue" d="M128.354,-78.8215C136.808,-79.9986 145.511,-81.2104 154.054,-82.4"/>
<polygon fill="midnightblue" stroke="midnightblue" points="153.599,-85.8702 163.986,-83.7828 154.564,-78.9371 153.599,-85.8702"/>
</g>
<!-- Node4 -->
<g id="node4" class="node"><title>Node4</title>
<g id="a_node4"><a xlink:href="a00011.html#ae1a000b225c8b3f365c2cec8362b8483" target="_top" xlink:title="discovery_free_did">
<polygon fill="none" stroke="black" points="175,-38.5 175,-57.5 273,-57.5 273,-38.5 175,-38.5"/>
<text text-anchor="middle" x="224" y="-45.5" font-family="Helvetica,sans-Serif" font-size="10.00">discovery_free_did</text>
</a>
</g>
</g>
<!-- Node1&#45;&gt;Node4 -->
<g id="edge3" class="edge"><title>Node1&#45;&gt;Node4</title>
<path fill="none" stroke="midnightblue" d="M128.354,-61.1785C140.307,-59.5143 152.757,-57.7807 164.55,-56.1386"/>
<polygon fill="midnightblue" stroke="midnightblue" points="165.294,-59.5688 174.716,-54.7231 164.329,-52.6357 165.294,-59.5688"/>
</g>
<!-- Node6 -->
<g id="node6" class="node"><title>Node6</title>
<g id="a_node6"><a xlink:href="a00011.html#acd5e8c2bf3e761abc7e2fd2294238a74" target="_top" xlink:title="discovery_set_did">
<polygon fill="none" stroke="black" points="176.5,-0.5 176.5,-19.5 271.5,-19.5 271.5,-0.5 176.5,-0.5"/>
<text text-anchor="middle" x="224" y="-7.5" font-family="Helvetica,sans-Serif" font-size="10.00">discovery_set_did</text>
</a>
</g>
</g>
<!-- Node1&#45;&gt;Node6 -->
<g id="edge5" class="edge"><title>Node1&#45;&gt;Node6</title>
<path fill="none" stroke="midnightblue" d="M86.8182,-60.3656C106.745,-51.71 137.109,-38.8799 164,-29 169.694,-26.9079 175.742,-24.8158 181.711,-22.8252"/>
<polygon fill="midnightblue" stroke="midnightblue" points="183.19,-26.0241 191.606,-19.5888 181.014,-19.3709 183.19,-26.0241"/>
</g>
<!-- Node5 -->
<g id="node5" class="node"><title>Node5</title>
<g id="a_node5"><a xlink:href="a00006.html#adf46370d9c211c3be22966b4606ba9b0" target="_top" xlink:title="free">
<polygon fill="none" stroke="black" points="351,-38.5 351,-57.5 384,-57.5 384,-38.5 351,-38.5"/>
<text text-anchor="middle" x="367.5" y="-45.5" font-family="Helvetica,sans-Serif" font-size="10.00">free</text>
</a>
</g>
</g>
<!-- Node4&#45;&gt;Node5 -->
<g id="edge4" class="edge"><title>Node4&#45;&gt;Node5</title>
<path fill="none" stroke="midnightblue" d="M273.301,-48C295.922,-48 321.959,-48 340.752,-48"/>
<polygon fill="midnightblue" stroke="midnightblue" points="340.9,-51.5001 350.9,-48 340.9,-44.5001 340.9,-51.5001"/>
</g>
<!-- Node7 -->
<g id="node7" class="node"><title>Node7</title>
<g id="a_node7"><a xlink:href="a00065.html#af2f553cfc3af4678b87a8fc75f35a5c6" target="_top" xlink:title="discovery_set_aid">
<polygon fill="none" stroke="black" points="320,-0.5 320,-19.5 415,-19.5 415,-0.5 320,-0.5"/>
<text text-anchor="middle" x="367.5" y="-7.5" font-family="Helvetica,sans-Serif" font-size="10.00">discovery_set_aid</text>
</a>
</g>
</g>
<!-- Node6&#45;&gt;Node7 -->
<g id="edge6" class="edge"><title>Node6&#45;&gt;Node7</title>
<path fill="none" stroke="midnightblue" d="M271.725,-10C283.799,-10 296.934,-10 309.471,-10"/>
<polygon fill="midnightblue" stroke="midnightblue" points="309.825,-13.5001 319.825,-10 309.824,-6.5001 309.825,-13.5001"/>
</g>
</g>
</svg>
