<?xml version="1.0" encoding="UTF-8" standalone="no"?>
<!DOCTYPE svg PUBLIC "-//W3C//DTD SVG 1.1//EN"
 "http://www.w3.org/Graphics/SVG/1.1/DTD/svg11.dtd">
<!-- Generated by graphviz version 2.38.0 (20140413.2041)
 -->
<!-- Title: TEST Pages: 1 -->
<svg width="387pt" height="294pt"
 viewBox="0.00 0.00 387.00 294.00" xmlns="http://www.w3.org/2000/svg" xmlns:xlink="http://www.w3.org/1999/xlink">
<g id="graph0" class="graph" transform="scale(1 1) rotate(0) translate(4 290)">
<title>TEST</title>
<!-- Node1 -->
<g id="node1" class="node"><title>Node1</title>
<polygon fill="#bfbfbf" stroke="black" points="0,-133.5 0,-152.5 42,-152.5 42,-133.5 0,-133.5"/>
<text text-anchor="middle" x="21" y="-140.5" font-family="Helvetica,sans-Serif" font-size="10.00">TEST</text>
</g>
<!-- Node2 -->
<g id="node2" class="node"><title>Node2</title>
<g id="a_node2"><a xlink:href="a00030.html#af4753a1c6fc6c6d064198a1f56fb4820" target="_top" xlink:title="on_create">
<polygon fill="none" stroke="black" points="86,-266.5 86,-285.5 145,-285.5 145,-266.5 86,-266.5"/>
<text text-anchor="middle" x="115.5" y="-273.5" font-family="Helvetica,sans-Serif" font-size="10.00">on_create</text>
</a>
</g>
</g>
<!-- Node1&#45;&gt;Node2 -->
<g id="edge1" class="edge"><title>Node1&#45;&gt;Node2</title>
<path fill="none" stroke="midnightblue" d="M24.5318,-152.77C30.5061,-174.136 47.3359,-225.612 78,-257 79.2356,-258.265 80.5734,-259.463 81.9822,-260.595"/>
<polygon fill="midnightblue" stroke="midnightblue" points="80.3505,-263.714 90.6082,-266.366 84.243,-257.896 80.3505,-263.714"/>
</g>
<!-- Node3 -->
<g id="node3" class="node"><title>Node3</title>
<g id="a_node3"><a xlink:href="a00030.html#a2b2154654e3a71fc5cf31a82125b1aac" target="_top" xlink:title="on_destroy">
<polygon fill="none" stroke="black" points="83,-228.5 83,-247.5 148,-247.5 148,-228.5 83,-228.5"/>
<text text-anchor="middle" x="115.5" y="-235.5" font-family="Helvetica,sans-Serif" font-size="10.00">on_destroy</text>
</a>
</g>
</g>
<!-- Node1&#45;&gt;Node3 -->
<g id="edge2" class="edge"><title>Node1&#45;&gt;Node3</title>
<path fill="none" stroke="midnightblue" d="M27.3603,-153C36.1825,-168.709 55.0883,-199.392 78,-219 79.7199,-220.472 81.5732,-221.871 83.5006,-223.191"/>
<polygon fill="midnightblue" stroke="midnightblue" points="81.8717,-226.296 92.2408,-228.472 85.4913,-220.305 81.8717,-226.296"/>
</g>
<!-- Node4 -->
<g id="node4" class="node"><title>Node4</title>
<g id="a_node4"><a xlink:href="a00030.html#a665691f420dff4eebb8f4b4af62d7a49" target="_top" xlink:title="on_start">
<polygon fill="none" stroke="black" points="89.5,-190.5 89.5,-209.5 141.5,-209.5 141.5,-190.5 89.5,-190.5"/>
<text text-anchor="middle" x="115.5" y="-197.5" font-family="Helvetica,sans-Serif" font-size="10.00">on_start</text>
</a>
</g>
</g>
<!-- Node1&#45;&gt;Node4 -->
<g id="edge3" class="edge"><title>Node1&#45;&gt;Node4</title>
<path fill="none" stroke="midnightblue" d="M35.0685,-152.504C46.2414,-160.474 62.8664,-171.968 78,-181 80.5305,-182.51 83.1931,-184.027 85.8797,-185.509"/>
<polygon fill="midnightblue" stroke="midnightblue" points="84.479,-188.729 94.9484,-190.354 87.7777,-182.555 84.479,-188.729"/>
</g>
<!-- Node5 -->
<g id="node5" class="node"><title>Node5</title>
<g id="a_node5"><a xlink:href="a00030.html#a257c5aafa157f3902bec16554a5a80b2" target="_top" xlink:title="on_stop">
<polygon fill="none" stroke="black" points="90,-152.5 90,-171.5 141,-171.5 141,-152.5 90,-152.5"/>
<text text-anchor="middle" x="115.5" y="-159.5" font-family="Helvetica,sans-Serif" font-size="10.00">on_stop</text>
</a>
</g>
</g>
<!-- Node1&#45;&gt;Node5 -->
<g id="edge4" class="edge"><title>Node1&#45;&gt;Node5</title>
<path fill="none" stroke="midnightblue" d="M42.0711,-147.123C53.1398,-149.396 67.1912,-152.283 79.9659,-154.907"/>
<polygon fill="midnightblue" stroke="midnightblue" points="79.3562,-158.354 89.856,-156.938 80.7647,-151.497 79.3562,-158.354"/>
</g>
<!-- Node6 -->
<g id="node6" class="node"><title>Node6</title>
<g id="a_node6"><a xlink:href="a00030.html#ab55a802424a74ea32084eec69cd86281" target="_top" xlink:title="on_parse_opt">
<polygon fill="none" stroke="black" points="78,-114.5 78,-133.5 153,-133.5 153,-114.5 78,-114.5"/>
<text text-anchor="middle" x="115.5" y="-121.5" font-family="Helvetica,sans-Serif" font-size="10.00">on_parse_opt</text>
</a>
</g>
</g>
<!-- Node1&#45;&gt;Node6 -->
<g id="edge5" class="edge"><title>Node1&#45;&gt;Node6</title>
<path fill="none" stroke="midnightblue" d="M42.0711,-138.877C49.7192,-137.306 58.7914,-135.443 67.8825,-133.575"/>
<polygon fill="midnightblue" stroke="midnightblue" points="68.597,-137.002 77.6882,-131.561 67.1885,-130.145 68.597,-137.002"/>
</g>
<!-- Node7 -->
<g id="node7" class="node"><title>Node7</title>
<g id="a_node7"><a xlink:href="a00059.html#a3d879947af1cc338c9bb9cf68fcce672" target="_top" xlink:title="[hpd_t functions] ">
<polygon fill="none" stroke="black" points="86.5,-76.5 86.5,-95.5 144.5,-95.5 144.5,-76.5 86.5,-76.5"/>
<text text-anchor="middle" x="115.5" y="-83.5" font-family="Helvetica,sans-Serif" font-size="10.00">hpd_alloc</text>
</a>
</g>
</g>
<!-- Node1&#45;&gt;Node7 -->
<g id="edge6" class="edge"><title>Node1&#45;&gt;Node7</title>
<path fill="none" stroke="midnightblue" d="M35.0685,-133.496C46.2414,-125.526 62.8664,-114.032 78,-105 80.5305,-103.49 83.1931,-101.973 85.8797,-100.491"/>
<polygon fill="midnightblue" stroke="midnightblue" points="87.7777,-103.445 94.9484,-95.6456 84.479,-97.271 87.7777,-103.445"/>
</g>
<!-- Node11 -->
<g id="node11" class="node"><title>Node11</title>
<g id="a_node11"><a xlink:href="a00059.html#a6539e14b83acd08c031e8c8813d2b13e" target="_top" xlink:title="hpd_module">
<polygon fill="none" stroke="black" points="81,-38.5 81,-57.5 150,-57.5 150,-38.5 81,-38.5"/>
<text text-anchor="middle" x="115.5" y="-45.5" font-family="Helvetica,sans-Serif" font-size="10.00">hpd_module</text>
</a>
</g>
</g>
<!-- Node1&#45;&gt;Node11 -->
<g id="edge10" class="edge"><title>Node1&#45;&gt;Node11</title>
<path fill="none" stroke="midnightblue" d="M27.3603,-133C36.1825,-117.291 55.0883,-86.6081 78,-67 79.7199,-65.5281 81.5732,-64.1295 83.5006,-62.8085"/>
<polygon fill="midnightblue" stroke="midnightblue" points="85.4913,-65.6951 92.2408,-57.5284 81.8717,-59.7036 85.4913,-65.6951"/>
</g>
<!-- Node13 -->
<g id="node13" class="node"><title>Node13</title>
<g id="a_node13"><a xlink:href="a00059.html#aa833627ad45d82173c0caf687cd30126" target="_top" xlink:title="hpd_free">
<polygon fill="none" stroke="black" points="88.5,-0.5 88.5,-19.5 142.5,-19.5 142.5,-0.5 88.5,-0.5"/>
<text text-anchor="middle" x="115.5" y="-7.5" font-family="Helvetica,sans-Serif" font-size="10.00">hpd_free</text>
</a>
</g>
</g>
<!-- Node1&#45;&gt;Node13 -->
<g id="edge13" class="edge"><title>Node1&#45;&gt;Node13</title>
<path fill="none" stroke="midnightblue" d="M24.5318,-133.23C30.5061,-111.864 47.3359,-60.3885 78,-29 79.2356,-27.7352 80.5734,-26.5374 81.9822,-25.4055"/>
<polygon fill="midnightblue" stroke="midnightblue" points="84.243,-28.104 90.6082,-19.6344 80.3505,-22.286 84.243,-28.104"/>
</g>
<!-- Node8 -->
<g id="node8" class="node"><title>Node8</title>
<g id="a_node8"><a xlink:href="a00061.html#a9c4bde30e05010d189231e469da9336b" target="_top" xlink:title="daemon_alloc">
<polygon fill="none" stroke="black" points="205,-76.5 205,-95.5 282,-95.5 282,-76.5 205,-76.5"/>
<text text-anchor="middle" x="243.5" y="-83.5" font-family="Helvetica,sans-Serif" font-size="10.00">daemon_alloc</text>
</a>
</g>
</g>
<!-- Node7&#45;&gt;Node8 -->
<g id="edge7" class="edge"><title>Node7&#45;&gt;Node8</title>
<path fill="none" stroke="midnightblue" d="M144.777,-86C159.438,-86 177.747,-86 194.542,-86"/>
<polygon fill="midnightblue" stroke="midnightblue" points="194.757,-89.5001 204.757,-86 194.757,-82.5001 194.757,-89.5001"/>
</g>
<!-- Node9 -->
<g id="node9" class="node"><title>Node9</title>
<g id="a_node9"><a xlink:href="a00061.html#a136e9884bcc5a6969066966324fd0493" target="_top" xlink:title="sig_cb">
<polygon fill="none" stroke="black" points="334,-76.5 334,-95.5 379,-95.5 379,-76.5 334,-76.5"/>
<text text-anchor="middle" x="356.5" y="-83.5" font-family="Helvetica,sans-Serif" font-size="10.00">sig_cb</text>
</a>
</g>
</g>
<!-- Node8&#45;&gt;Node9 -->
<g id="edge8" class="edge"><title>Node8&#45;&gt;Node9</title>
<path fill="none" stroke="midnightblue" d="M282.08,-86C295.543,-86 310.582,-86 323.527,-86"/>
<polygon fill="midnightblue" stroke="midnightblue" points="323.826,-89.5001 333.826,-86 323.826,-82.5001 323.826,-89.5001"/>
</g>
<!-- Node10 -->
<g id="node10" class="node"><title>Node10</title>
<g id="a_node10"><a xlink:href="a00006.html#adf46370d9c211c3be22966b4606ba9b0" target="_top" xlink:title="free">
<polygon fill="none" stroke="black" points="340,-38.5 340,-57.5 373,-57.5 373,-38.5 340,-38.5"/>
<text text-anchor="middle" x="356.5" y="-45.5" font-family="Helvetica,sans-Serif" font-size="10.00">free</text>
</a>
</g>
</g>
<!-- Node8&#45;&gt;Node10 -->
<g id="edge9" class="edge"><title>Node8&#45;&gt;Node10</title>
<path fill="none" stroke="midnightblue" d="M272.51,-76.411C290.168,-70.366 312.792,-62.6207 329.957,-56.7443"/>
<polygon fill="midnightblue" stroke="midnightblue" points="331.519,-59.9091 339.847,-53.3589 329.252,-53.2865 331.519,-59.9091"/>
</g>
<!-- Node12 -->
<g id="node12" class="node"><title>Node12</title>
<g id="a_node12"><a xlink:href="a00061.html#aa5becd17f310e7890c5e0eb8582a04a0" target="_top" xlink:title="daemon_add_module">
<polygon fill="none" stroke="black" points="189,-38.5 189,-57.5 298,-57.5 298,-38.5 189,-38.5"/>
<text text-anchor="middle" x="243.5" y="-45.5" font-family="Helvetica,sans-Serif" font-size="10.00">daemon_add_module</text>
</a>
</g>
</g>
<!-- Node11&#45;&gt;Node12 -->
<g id="edge11" class="edge"><title>Node11&#45;&gt;Node12</title>
<path fill="none" stroke="midnightblue" d="M150.266,-48C159.03,-48 168.765,-48 178.53,-48"/>
<polygon fill="midnightblue" stroke="midnightblue" points="178.679,-51.5001 188.679,-48 178.679,-44.5001 178.679,-51.5001"/>
</g>
<!-- Node12&#45;&gt;Node10 -->
<g id="edge12" class="edge"><title>Node12&#45;&gt;Node10</title>
<path fill="none" stroke="midnightblue" d="M298.049,-48C309.047,-48 320.147,-48 329.619,-48"/>
<polygon fill="midnightblue" stroke="midnightblue" points="329.887,-51.5001 339.887,-48 329.887,-44.5001 329.887,-51.5001"/>
</g>
<!-- Node14 -->
<g id="node14" class="node"><title>Node14</title>
<g id="a_node14"><a xlink:href="a00061.html#a05bbc5573fc67fa53c2765cf7e5b1920" target="_top" xlink:title="daemon_free">
<polygon fill="none" stroke="black" points="207,-0.5 207,-19.5 280,-19.5 280,-0.5 207,-0.5"/>
<text text-anchor="middle" x="243.5" y="-7.5" font-family="Helvetica,sans-Serif" font-size="10.00">daemon_free</text>
</a>
</g>
</g>
<!-- Node13&#45;&gt;Node14 -->
<g id="edge14" class="edge"><title>Node13&#45;&gt;Node14</title>
<path fill="none" stroke="midnightblue" d="M142.607,-10C158.226,-10 178.516,-10 196.726,-10"/>
<polygon fill="midnightblue" stroke="midnightblue" points="196.87,-13.5001 206.87,-10 196.87,-6.5001 196.87,-13.5001"/>
</g>
<!-- Node14&#45;&gt;Node10 -->
<g id="edge15" class="edge"><title>Node14&#45;&gt;Node10</title>
<path fill="none" stroke="midnightblue" d="M272.51,-19.589C290.168,-25.634 312.792,-33.3793 329.957,-39.2557"/>
<polygon fill="midnightblue" stroke="midnightblue" points="329.252,-42.7135 339.847,-42.6411 331.519,-36.0909 329.252,-42.7135"/>
</g>
</g>
</svg>
