<?xml version="1.0" encoding="UTF-8" standalone="no"?>
<!DOCTYPE svg PUBLIC "-//W3C//DTD SVG 1.1//EN"
 "http://www.w3.org/Graphics/SVG/1.1/DTD/svg11.dtd">
<!-- Generated by graphviz version 2.38.0 (20140413.2041)
 -->
<!-- Title: hpd_service_get_device Pages: 1 -->
<svg width="683pt" height="66pt"
 viewBox="0.00 0.00 683.00 66.00" xmlns="http://www.w3.org/2000/svg" xmlns:xlink="http://www.w3.org/1999/xlink">
<g id="graph0" class="graph" transform="scale(1 1) rotate(0) translate(4 62)">
<title>hpd_service_get_device</title>
<!-- Node1 -->
<g id="node1" class="node"><title>Node1</title>
<polygon fill="#bfbfbf" stroke="black" points="0,-19.5 0,-38.5 122,-38.5 122,-19.5 0,-19.5"/>
<text text-anchor="middle" x="61" y="-26.5" font-family="Helvetica,sans-Serif" font-size="10.00">hpd_service_get_device</text>
</g>
<!-- Node2 -->
<g id="node2" class="node"><title>Node2</title>
<g id="a_node2"><a xlink:href="a00011.html#aeb60ac7ee952776c900d1d2bd34a4782" target="_top" xlink:title="discovery_get_service\l_device">
<polygon fill="none" stroke="black" points="158,-14 158,-44 272,-44 272,-14 158,-14"/>
<text text-anchor="start" x="166" y="-32" font-family="Helvetica,sans-Serif" font-size="10.00">discovery_get_service</text>
<text text-anchor="middle" x="215" y="-21" font-family="Helvetica,sans-Serif" font-size="10.00">_device</text>
</a>
</g>
</g>
<!-- Node1&#45;&gt;Node2 -->
<g id="edge1" class="edge"><title>Node1&#45;&gt;Node2</title>
<path fill="none" stroke="midnightblue" d="M122.074,-29C130.452,-29 139.099,-29 147.585,-29"/>
<polygon fill="midnightblue" stroke="midnightblue" points="147.826,-32.5001 157.826,-29 147.826,-25.5001 147.826,-32.5001"/>
</g>
<!-- Node3 -->
<g id="node3" class="node"><title>Node3</title>
<g id="a_node3"><a xlink:href="a00065.html#aebd10ac1c18be51340c39d6d5a54e6d1" target="_top" xlink:title="discovery_alloc_did">
<polygon fill="none" stroke="black" points="308,-19.5 308,-38.5 410,-38.5 410,-19.5 308,-19.5"/>
<text text-anchor="middle" x="359" y="-26.5" font-family="Helvetica,sans-Serif" font-size="10.00">discovery_alloc_did</text>
</a>
</g>
</g>
<!-- Node2&#45;&gt;Node3 -->
<g id="edge2" class="edge"><title>Node2&#45;&gt;Node3</title>
<path fill="none" stroke="midnightblue" d="M272.122,-29C280.499,-29 289.166,-29 297.627,-29"/>
<polygon fill="midnightblue" stroke="midnightblue" points="297.811,-32.5001 307.811,-29 297.811,-25.5001 297.811,-32.5001"/>
</g>
<!-- Node4 -->
<g id="node4" class="node"><title>Node4</title>
<g id="a_node4"><a xlink:href="a00065.html#acd5e8c2bf3e761abc7e2fd2294238a74" target="_top" xlink:title="discovery_set_did">
<polygon fill="none" stroke="black" points="447.5,-38.5 447.5,-57.5 542.5,-57.5 542.5,-38.5 447.5,-38.5"/>
<text text-anchor="middle" x="495" y="-45.5" font-family="Helvetica,sans-Serif" font-size="10.00">discovery_set_did</text>
</a>
</g>
</g>
<!-- Node3&#45;&gt;Node4 -->
<g id="edge3" class="edge"><title>Node3&#45;&gt;Node4</title>
<path fill="none" stroke="midnightblue" d="M410.278,-36.129C419.127,-37.3837 428.392,-38.6973 437.399,-39.9745"/>
<polygon fill="midnightblue" stroke="midnightblue" points="437.032,-43.4574 447.424,-41.396 438.015,-36.5267 437.032,-43.4574"/>
</g>
<!-- Node6 -->
<g id="node6" class="node"><title>Node6</title>
<g id="a_node6"><a xlink:href="a00065.html#ae1a000b225c8b3f365c2cec8362b8483" target="_top" xlink:title="discovery_free_did">
<polygon fill="none" stroke="black" points="446,-0.5 446,-19.5 544,-19.5 544,-0.5 446,-0.5"/>
<text text-anchor="middle" x="495" y="-7.5" font-family="Helvetica,sans-Serif" font-size="10.00">discovery_free_did</text>
</a>
</g>
</g>
<!-- Node3&#45;&gt;Node6 -->
<g id="edge5" class="edge"><title>Node3&#45;&gt;Node6</title>
<path fill="none" stroke="midnightblue" d="M410.278,-21.871C418.514,-20.7032 427.111,-19.4843 435.525,-18.2913"/>
<polygon fill="midnightblue" stroke="midnightblue" points="436.252,-21.7233 445.661,-16.854 435.269,-14.7926 436.252,-21.7233"/>
</g>
<!-- Node5 -->
<g id="node5" class="node"><title>Node5</title>
<g id="a_node5"><a xlink:href="a00065.html#af2f553cfc3af4678b87a8fc75f35a5c6" target="_top" xlink:title="discovery_set_aid">
<polygon fill="none" stroke="black" points="580,-38.5 580,-57.5 675,-57.5 675,-38.5 580,-38.5"/>
<text text-anchor="middle" x="627.5" y="-45.5" font-family="Helvetica,sans-Serif" font-size="10.00">discovery_set_aid</text>
</a>
</g>
</g>
<!-- Node4&#45;&gt;Node5 -->
<g id="edge4" class="edge"><title>Node4&#45;&gt;Node5</title>
<path fill="none" stroke="midnightblue" d="M542.745,-48C551.459,-48 560.654,-48 569.634,-48"/>
<polygon fill="midnightblue" stroke="midnightblue" points="569.643,-51.5001 579.643,-48 569.643,-44.5001 569.643,-51.5001"/>
</g>
<!-- Node7 -->
<g id="node7" class="node"><title>Node7</title>
<g id="a_node7"><a xlink:href="a00006.html#adf46370d9c211c3be22966b4606ba9b0" target="_top" xlink:title="free">
<polygon fill="none" stroke="black" points="611,-0.5 611,-19.5 644,-19.5 644,-0.5 611,-0.5"/>
<text text-anchor="middle" x="627.5" y="-7.5" font-family="Helvetica,sans-Serif" font-size="10.00">free</text>
</a>
</g>
</g>
<!-- Node6&#45;&gt;Node7 -->
<g id="edge6" class="edge"><title>Node6&#45;&gt;Node7</title>
<path fill="none" stroke="midnightblue" d="M544.223,-10C563.336,-10 584.546,-10 600.643,-10"/>
<polygon fill="midnightblue" stroke="midnightblue" points="600.882,-13.5001 610.882,-10 600.882,-6.5001 600.882,-13.5001"/>
</g>
</g>
</svg>
