<?xml version="1.0" encoding="UTF-8" standalone="no"?>
<!DOCTYPE svg PUBLIC "-//W3C//DTD SVG 1.1//EN"
 "http://www.w3.org/Graphics/SVG/1.1/DTD/svg11.dtd">
<!-- Generated by graphviz version 2.38.0 (20140413.2041)
 -->
<!-- Title: reply_bad_request Pages: 1 -->
<svg width="307pt" height="28pt"
 viewBox="0.00 0.00 307.00 28.00" xmlns="http://www.w3.org/2000/svg" xmlns:xlink="http://www.w3.org/1999/xlink">
<g id="graph0" class="graph" transform="scale(1 1) rotate(0) translate(4 24)">
<title>reply_bad_request</title>
<!-- Node1 -->
<g id="node1" class="node"><title>Node1</title>
<polygon fill="#bfbfbf" stroke="black" points="0,-0.5 0,-19.5 96,-19.5 96,-0.5 0,-0.5"/>
<text text-anchor="middle" x="48" y="-7.5" font-family="Helvetica,sans-Serif" font-size="10.00">reply_bad_request</text>
</g>
<!-- Node2 -->
<g id="node2" class="node"><title>Node2</title>
<g id="a_node2"><a xlink:href="a00025.html#a74ba52adbe4c46e9a9c33649e3b75243" target="_top" xlink:title="on_req_cmpl">
<polygon fill="none" stroke="black" points="132,-0.5 132,-19.5 204,-19.5 204,-0.5 132,-0.5"/>
<text text-anchor="middle" x="168" y="-7.5" font-family="Helvetica,sans-Serif" font-size="10.00">on_req_cmpl</text>
</a>
</g>
</g>
<!-- Node1&#45;&gt;Node2 -->
<g id="edge1" class="edge"><title>Node1&#45;&gt;Node2</title>
<path fill="none" stroke="midnightblue" d="M106.379,-10C115.008,-10 123.684,-10 131.666,-10"/>
<polygon fill="midnightblue" stroke="midnightblue" points="106.315,-6.5001 96.3152,-10 106.315,-13.5001 106.315,-6.5001"/>
</g>
<!-- Node3 -->
<g id="node3" class="node"><title>Node3</title>
<g id="a_node3"><a xlink:href="a00025.html#ad079431c7eba97c5dd5e4e202cdf6102" target="_top" xlink:title="on_create">
<polygon fill="none" stroke="black" points="240,-0.5 240,-19.5 299,-19.5 299,-0.5 240,-0.5"/>
<text text-anchor="middle" x="269.5" y="-7.5" font-family="Helvetica,sans-Serif" font-size="10.00">on_create</text>
</a>
</g>
</g>
<!-- Node2&#45;&gt;Node3 -->
<g id="edge2" class="edge"><title>Node2&#45;&gt;Node3</title>
<path fill="none" stroke="midnightblue" d="M214.212,-10C222.974,-10 231.925,-10 239.965,-10"/>
<polygon fill="midnightblue" stroke="midnightblue" points="214.08,-6.5001 204.08,-10 214.08,-13.5001 214.08,-6.5001"/>
</g>
</g>
</svg>
