<?xml version="1.0" encoding="UTF-8" standalone="no"?>
<!DOCTYPE svg PUBLIC "-//W3C//DTD SVG 1.1//EN"
 "http://www.w3.org/Graphics/SVG/1.1/DTD/svg11.dtd">
<!-- Generated by graphviz version 2.38.0 (20140413.2041)
 -->
<!-- Title: daemon_options_create Pages: 1 -->
<svg width="367pt" height="47pt"
 viewBox="0.00 0.00 367.00 47.00" xmlns="http://www.w3.org/2000/svg" xmlns:xlink="http://www.w3.org/1999/xlink">
<g id="graph0" class="graph" transform="scale(1 1) rotate(0) translate(4 43)">
<title>daemon_options_create</title>
<!-- Node1 -->
<g id="node1" class="node"><title>Node1</title>
<polygon fill="#bfbfbf" stroke="black" points="0,-0.5 0,-19.5 120,-19.5 120,-0.5 0,-0.5"/>
<text text-anchor="middle" x="60" y="-7.5" font-family="Helvetica,sans-Serif" font-size="10.00">daemon_options_create</text>
</g>
<!-- Node2 -->
<g id="node2" class="node"><title>Node2</title>
<g id="a_node2"><a xlink:href="a00076.html#a3da1c288975f0004839f81c07ad3bec2" target="_top" xlink:title="daemon_add_global_option">
<polygon fill="none" stroke="black" points="156,-19.5 156,-38.5 290,-38.5 290,-19.5 156,-19.5"/>
<text text-anchor="middle" x="223" y="-26.5" font-family="Helvetica,sans-Serif" font-size="10.00">daemon_add_global_option</text>
</a>
</g>
</g>
<!-- Node1&#45;&gt;Node2 -->
<g id="edge1" class="edge"><title>Node1&#45;&gt;Node2</title>
<path fill="none" stroke="midnightblue" d="M120.036,-16.967C128.422,-17.9566 137.143,-18.9858 145.797,-20.0071"/>
<polygon fill="midnightblue" stroke="midnightblue" points="145.56,-23.5034 155.902,-21.1996 146.381,-16.5516 145.56,-23.5034"/>
</g>
<!-- Node3 -->
<g id="node3" class="node"><title>Node3</title>
<g id="a_node3"><a xlink:href="a00012.html#adf46370d9c211c3be22966b4606ba9b0" target="_top" xlink:title="free">
<polygon fill="none" stroke="black" points="326,-0.5 326,-19.5 359,-19.5 359,-0.5 326,-0.5"/>
<text text-anchor="middle" x="342.5" y="-7.5" font-family="Helvetica,sans-Serif" font-size="10.00">free</text>
</a>
</g>
</g>
<!-- Node1&#45;&gt;Node3 -->
<g id="edge3" class="edge"><title>Node1&#45;&gt;Node3</title>
<path fill="none" stroke="midnightblue" d="M120.144,-10C180.6,-10 271.69,-10 315.779,-10"/>
<polygon fill="midnightblue" stroke="midnightblue" points="315.928,-13.5001 325.928,-10 315.928,-6.5001 315.928,-13.5001"/>
</g>
<!-- Node2&#45;&gt;Node3 -->
<g id="edge2" class="edge"><title>Node2&#45;&gt;Node3</title>
<path fill="none" stroke="midnightblue" d="M283.094,-19.4443C294.554,-17.5912 305.997,-15.741 315.677,-14.1756"/>
<polygon fill="midnightblue" stroke="midnightblue" points="316.453,-17.5957 325.766,-12.5442 315.335,-10.6855 316.453,-17.5957"/>
</g>
</g>
</svg>
