<?xml version="1.0" encoding="UTF-8" standalone="no"?>
<!DOCTYPE svg PUBLIC "-//W3C//DTD SVG 1.1//EN"
 "http://www.w3.org/Graphics/SVG/1.1/DTD/svg11.dtd">
<!-- Generated by graphviz version 2.38.0 (20140413.2041)
 -->
<!-- Title: event_free_listener Pages: 1 -->
<svg width="523pt" height="66pt"
 viewBox="0.00 0.00 523.00 66.00" xmlns="http://www.w3.org/2000/svg" xmlns:xlink="http://www.w3.org/1999/xlink">
<g id="graph0" class="graph" transform="scale(1 1) rotate(0) translate(4 62)">
<title>event_free_listener</title>
<!-- Node1 -->
<g id="node1" class="node"><title>Node1</title>
<polygon fill="#bfbfbf" stroke="black" points="0,-19.5 0,-38.5 99,-38.5 99,-19.5 0,-19.5"/>
<text text-anchor="middle" x="49.5" y="-26.5" font-family="Helvetica,sans-Serif" font-size="10.00">event_free_listener</text>
</g>
<!-- Node2 -->
<g id="node2" class="node"><title>Node2</title>
<g id="a_node2"><a xlink:href="a00057.html#a975d2ced1742515d1e9a9a8bb0cd8000" target="_top" xlink:title="daemon_free_conf">
<polygon fill="none" stroke="black" points="135,-19.5 135,-38.5 232,-38.5 232,-19.5 135,-19.5"/>
<text text-anchor="middle" x="183.5" y="-26.5" font-family="Helvetica,sans-Serif" font-size="10.00">daemon_free_conf</text>
</a>
</g>
</g>
<!-- Node1&#45;&gt;Node2 -->
<g id="edge1" class="edge"><title>Node1&#45;&gt;Node2</title>
<path fill="none" stroke="midnightblue" d="M109.493,-29C117.963,-29 126.588,-29 134.803,-29"/>
<polygon fill="midnightblue" stroke="midnightblue" points="109.277,-25.5001 99.2769,-29 109.277,-32.5001 109.277,-25.5001"/>
</g>
<!-- Node3 -->
<g id="node3" class="node"><title>Node3</title>
<g id="a_node3"><a xlink:href="a00009.html#affd72e7fb83ddd29450361c75672ddd4" target="_top" xlink:title="daemon_start">
<polygon fill="none" stroke="black" points="268,-19.5 268,-38.5 344,-38.5 344,-19.5 268,-19.5"/>
<text text-anchor="middle" x="306" y="-26.5" font-family="Helvetica,sans-Serif" font-size="10.00">daemon_start</text>
</a>
</g>
</g>
<!-- Node2&#45;&gt;Node3 -->
<g id="edge2" class="edge"><title>Node2&#45;&gt;Node3</title>
<path fill="none" stroke="midnightblue" d="M242.234,-29C250.91,-29 259.656,-29 267.75,-29"/>
<polygon fill="midnightblue" stroke="midnightblue" points="242.125,-25.5001 232.125,-29 242.125,-32.5001 242.125,-25.5001"/>
</g>
<!-- Node4 -->
<g id="node4" class="node"><title>Node4</title>
<g id="a_node4"><a xlink:href="a00058.html#a4a5e670df4a5790a7955aaef5483c08a" target="_top" xlink:title="hpd_start">
<polygon fill="none" stroke="black" points="380,-19.5 380,-38.5 437,-38.5 437,-19.5 380,-19.5"/>
<text text-anchor="middle" x="408.5" y="-26.5" font-family="Helvetica,sans-Serif" font-size="10.00">hpd_start</text>
</a>
</g>
</g>
<!-- Node3&#45;&gt;Node4 -->
<g id="edge3" class="edge"><title>Node3&#45;&gt;Node4</title>
<path fill="none" stroke="midnightblue" d="M354.323,-29C363.101,-29 371.999,-29 379.94,-29"/>
<polygon fill="midnightblue" stroke="midnightblue" points="354.137,-25.5001 344.137,-29 354.137,-32.5001 354.137,-25.5001"/>
</g>
<!-- Node5 -->
<g id="node5" class="node"><title>Node5</title>
<g id="a_node5"><a xlink:href="a00051.html#a0ddf1224851353fc92bfbff6f499fa97" target="_top" xlink:title="main">
<polygon fill="none" stroke="black" points="475,-38.5 475,-57.5 513,-57.5 513,-38.5 475,-38.5"/>
<text text-anchor="middle" x="494" y="-45.5" font-family="Helvetica,sans-Serif" font-size="10.00">main</text>
</a>
</g>
</g>
<!-- Node4&#45;&gt;Node5 -->
<g id="edge4" class="edge"><title>Node4&#45;&gt;Node5</title>
<path fill="none" stroke="midnightblue" d="M447.124,-37.5611C456.732,-39.7474 466.635,-42.0007 474.769,-43.8516"/>
<polygon fill="midnightblue" stroke="midnightblue" points="447.832,-34.1328 437.304,-35.3267 446.278,-40.9583 447.832,-34.1328"/>
</g>
<!-- Node6 -->
<g id="node6" class="node"><title>Node6</title>
<g id="a_node6"><a xlink:href="a00030.html#a5de92b31931f2f5155c682379a06da32" target="_top" xlink:title="TEST">
<polygon fill="none" stroke="black" points="473,-0.5 473,-19.5 515,-19.5 515,-0.5 473,-0.5"/>
<text text-anchor="middle" x="494" y="-7.5" font-family="Helvetica,sans-Serif" font-size="10.00">TEST</text>
</a>
</g>
</g>
<!-- Node4&#45;&gt;Node6 -->
<g id="edge5" class="edge"><title>Node4&#45;&gt;Node6</title>
<path fill="none" stroke="midnightblue" d="M447.159,-20.4309C456.059,-18.4057 465.209,-16.3236 472.971,-14.5574"/>
<polygon fill="midnightblue" stroke="midnightblue" points="446.278,-17.0417 437.304,-22.6733 447.832,-23.8672 446.278,-17.0417"/>
</g>
</g>
</svg>
