<?xml version="1.0" encoding="UTF-8" standalone="no"?>
<!DOCTYPE svg PUBLIC "-//W3C//DTD SVG 1.1//EN"
 "http://www.w3.org/Graphics/SVG/1.1/DTD/svg11.dtd">
<!-- Generated by graphviz version 2.38.0 (20140413.2041)
 -->
<!-- Title: curl_ev_on_update_socket Pages: 1 -->
<!--zoomable 192 -->
<svg id="main" version="1.1" xmlns="http://www.w3.org/2000/svg" xmlns:xlink="http://www.w3.org/1999/xlink" xml:space="preserve" onload="init(evt)">
<style type="text/css"><![CDATA[
.edge:hover path { stroke: red; }
.edge:hover polygon { stroke: red; fill: red; }
]]></style>
<script type="text/javascript"><![CDATA[
var edges = document.getElementsByTagName('g');
if (edges && edges.length) {
  for (var i=0;i<edges.length;i++) {
    if (edges[i].id.substr(0,4)=='edge') {
      edges[i].setAttribute('class','edge');
    }
  }
}
]]></script>
        <defs>
                <circle id="rim" cx="0" cy="0" r="7"/>
                <circle id="rim2" cx="0" cy="0" r="3.5"/>
                <g id="zoomPlus">
                        <use xlink:href="#rim" fill="#404040">
                                <set attributeName="fill" to="#808080" begin="zoomplus.mouseover" end="zoomplus.mouseout"/>
                        </use>
                        <path d="M-4,0h8M0,-4v8" fill="none" stroke="white" stroke-width="1.5" pointer-events="none"/>
                </g>
                <g id="zoomMin">
                        <use xlink:href="#rim" fill="#404040">
                                <set attributeName="fill" to="#808080" begin="zoomminus.mouseover" end="zoomminus.mouseout"/>
                        </use>
                        <path d="M-4,0h8" fill="none" stroke="white" stroke-width="1.5" pointer-events="none"/>
                </g>
                <g id="dirArrow">
                        <path fill="none" stroke="white" stroke-width="1.5" d="M0,-3.0v7 M-2.5,-0.5L0,-3.0L2.5,-0.5"/>
                </g>
               <g id="resetDef">
                       <use xlink:href="#rim2" fill="#404040">
                               <set attributeName="fill" to="#808080" begin="reset.mouseover" end="reset.mouseout"/>
                       </use>
               </g>
        </defs>

<script type="text/javascript">
var viewWidth = 861;
var viewHeight = 192;
var sectionId = 'dynsection-15';
</script>
<script xlink:href="svgpan.js"/>
<svg id="graph" class="graph">
<g id="viewport">
<title>curl_ev_on_update_socket</title>
<!-- Node1 -->
<g id="node1" class="node"><title>Node1</title>
<polygon fill="#bfbfbf" stroke="black" points="0,-38.5 0,-57.5 133,-57.5 133,-38.5 0,-38.5"/>
<text text-anchor="middle" x="66.5" y="-45.5" font-family="Helvetica,sans-Serif" font-size="10.00">curl_ev_on_update_socket</text>
</g>
<!-- Node2 -->
<g id="node2" class="node"><title>Node2</title>
<g id="a_node2"><a xlink:href="a00011.html#a6347fddf364470dffa858a1c5f94b888" target="_top" xlink:title="curl_ev_get_stopped\l_watcher">
<polygon fill="none" stroke="black" points="172,-77 172,-107 279,-107 279,-77 172,-77"/>
<text text-anchor="start" x="180" y="-95" font-family="Helvetica,sans-Serif" font-size="10.00">curl_ev_get_stopped</text>
<text text-anchor="middle" x="225.5" y="-84" font-family="Helvetica,sans-Serif" font-size="10.00">_watcher</text>
</a>
</g>
</g>
<!-- Node1&#45;&gt;Node2 -->
<g id="edge1" class="edge"><title>Node1&#45;&gt;Node2</title>
<path fill="none" stroke="midnightblue" d="M101.567,-57.5473C119.318,-62.5222 141.589,-68.7637 162.281,-74.5628"/>
<polygon fill="midnightblue" stroke="midnightblue" points="161.395,-77.9494 171.969,-77.2779 163.284,-71.2091 161.395,-77.9494"/>
</g>
<!-- Node9 -->
<g id="node9" class="node"><title>Node9</title>
<g id="a_node9"><a xlink:href="a00011.html#a76ebc1922932cad58f35111d582da8ed" target="_top" xlink:title="curl_ev_start_watcher">
<polygon fill="none" stroke="black" points="169,-38.5 169,-57.5 282,-57.5 282,-38.5 169,-38.5"/>
<text text-anchor="middle" x="225.5" y="-45.5" font-family="Helvetica,sans-Serif" font-size="10.00">curl_ev_start_watcher</text>
</a>
</g>
</g>
<!-- Node1&#45;&gt;Node9 -->
<g id="edge10" class="edge"><title>Node1&#45;&gt;Node9</title>
<path fill="none" stroke="midnightblue" d="M133.172,-48C141.536,-48 150.099,-48 158.468,-48"/>
<polygon fill="midnightblue" stroke="midnightblue" points="158.554,-51.5001 168.553,-48 158.553,-44.5001 158.554,-51.5001"/>
</g>
<!-- Node10 -->
<g id="node10" class="node"><title>Node10</title>
<g id="a_node10"><a xlink:href="a00011.html#ad9bd25d76647b2257fe6df8795afd9e7" target="_top" xlink:title="curl_ev_stop_watcher">
<polygon fill="none" stroke="black" points="318,-0.5 318,-19.5 430,-19.5 430,-0.5 318,-0.5"/>
<text text-anchor="middle" x="374" y="-7.5" font-family="Helvetica,sans-Serif" font-size="10.00">curl_ev_stop_watcher</text>
</a>
</g>
</g>
<!-- Node1&#45;&gt;Node10 -->
<g id="edge11" class="edge"><title>Node1&#45;&gt;Node10</title>
<path fill="none" stroke="midnightblue" d="M113.333,-38.493C130.71,-35.133 150.713,-31.5577 169,-29 215.179,-22.5414 267.556,-17.7152 307.674,-14.5432"/>
<polygon fill="midnightblue" stroke="midnightblue" points="308.161,-18.016 317.86,-13.7524 307.619,-11.037 308.161,-18.016"/>
</g>
<!-- Node3 -->
<g id="node3" class="node"><title>Node3</title>
<g id="a_node3"><a xlink:href="a00012.html#adf46370d9c211c3be22966b4606ba9b0" target="_top" xlink:title="free">
<polygon fill="none" stroke="black" points="790,-38.5 790,-57.5 823,-57.5 823,-38.5 790,-38.5"/>
<text text-anchor="middle" x="806.5" y="-45.5" font-family="Helvetica,sans-Serif" font-size="10.00">free</text>
</a>
</g>
</g>
<!-- Node2&#45;&gt;Node3 -->
<g id="edge2" class="edge"><title>Node2&#45;&gt;Node3</title>
<path fill="none" stroke="midnightblue" d="M279.16,-87.9982C399.461,-78.8562 690.885,-56.7099 779.505,-49.9754"/>
<polygon fill="midnightblue" stroke="midnightblue" points="780.027,-53.4459 789.733,-49.1981 779.497,-46.466 780.027,-53.4459"/>
</g>
<!-- Node4 -->
<g id="node4" class="node"><title>Node4</title>
<g id="a_node4"><a xlink:href="a00011.html#a6397c61c42e9a1418c14c6e6a973a965" target="_top" xlink:title="curl_ev_on_io">
<polygon fill="none" stroke="black" points="335.5,-98.5 335.5,-117.5 412.5,-117.5 412.5,-98.5 335.5,-98.5"/>
<text text-anchor="middle" x="374" y="-105.5" font-family="Helvetica,sans-Serif" font-size="10.00">curl_ev_on_io</text>
</a>
</g>
</g>
<!-- Node2&#45;&gt;Node4 -->
<g id="edge3" class="edge"><title>Node2&#45;&gt;Node4</title>
<path fill="none" stroke="midnightblue" d="M279.39,-97.7764C294.295,-99.4042 310.422,-101.166 325.022,-102.76"/>
<polygon fill="midnightblue" stroke="midnightblue" points="325.023,-106.281 335.344,-103.887 325.783,-99.3223 325.023,-106.281"/>
</g>
<!-- Node5 -->
<g id="node5" class="node"><title>Node5</title>
<g id="a_node5"><a xlink:href="a00011.html#a30f7e7259072d4e929092bf994dd0f7e" target="_top" xlink:title="curl_ev_socket_action">
<polygon fill="none" stroke="black" points="466,-106.5 466,-125.5 580,-125.5 580,-106.5 466,-106.5"/>
<text text-anchor="middle" x="523" y="-113.5" font-family="Helvetica,sans-Serif" font-size="10.00">curl_ev_socket_action</text>
</a>
</g>
</g>
<!-- Node4&#45;&gt;Node5 -->
<g id="edge4" class="edge"><title>Node4&#45;&gt;Node5</title>
<path fill="none" stroke="midnightblue" d="M412.856,-110.06C425.989,-110.775 441.124,-111.599 455.861,-112.401"/>
<polygon fill="midnightblue" stroke="midnightblue" points="455.795,-115.902 465.97,-112.951 456.175,-108.912 455.795,-115.902"/>
</g>
<!-- Node6 -->
<g id="node6" class="node"><title>Node6</title>
<g id="a_node6"><a xlink:href="a00011.html#a51a40a6c8c1a8ecd90e288ab02687ad3" target="_top" xlink:title="hpd_curl_ev_remove\l_handle">
<polygon fill="none" stroke="black" points="616.5,-153 616.5,-183 723.5,-183 723.5,-153 616.5,-153"/>
<text text-anchor="start" x="624.5" y="-171" font-family="Helvetica,sans-Serif" font-size="10.00">hpd_curl_ev_remove</text>
<text text-anchor="middle" x="670" y="-160" font-family="Helvetica,sans-Serif" font-size="10.00">_handle</text>
</a>
</g>
</g>
<!-- Node5&#45;&gt;Node6 -->
<g id="edge5" class="edge"><title>Node5&#45;&gt;Node6</title>
<path fill="none" stroke="midnightblue" d="M550.595,-125.538C569.267,-132.234 594.839,-141.404 617.441,-149.51"/>
<polygon fill="midnightblue" stroke="midnightblue" points="616.322,-152.827 626.917,-152.908 618.685,-146.238 616.322,-152.827"/>
</g>
<!-- Node8 -->
<g id="node8" class="node"><title>Node8</title>
<g id="a_node8"><a xlink:href="a00043.html#aad3ddbb29440b4b7b4f1266c0432c60c" target="_top" xlink:title="hpd_curl_ev_cleanup">
<polygon fill="none" stroke="black" points="616,-76.5 616,-95.5 724,-95.5 724,-76.5 616,-76.5"/>
<text text-anchor="middle" x="670" y="-83.5" font-family="Helvetica,sans-Serif" font-size="10.00">hpd_curl_ev_cleanup</text>
</a>
</g>
</g>
<!-- Node5&#45;&gt;Node8 -->
<g id="edge8" class="edge"><title>Node5&#45;&gt;Node8</title>
<path fill="none" stroke="midnightblue" d="M570.278,-106.425C583.75,-103.638 598.618,-100.562 612.638,-97.6611"/>
<polygon fill="midnightblue" stroke="midnightblue" points="613.581,-101.04 622.665,-95.5866 612.163,-94.1853 613.581,-101.04"/>
</g>
<!-- Node7 -->
<g id="node7" class="node"><title>Node7</title>
<g id="a_node7"><a xlink:href="a00011.html#a3f36a139b8cf22a41850235ce3a3c88c" target="_top" xlink:title="curl_ev_add_next">
<polygon fill="none" stroke="black" points="760,-136.5 760,-155.5 853,-155.5 853,-136.5 760,-136.5"/>
<text text-anchor="middle" x="806.5" y="-143.5" font-family="Helvetica,sans-Serif" font-size="10.00">curl_ev_add_next</text>
</a>
</g>
</g>
<!-- Node6&#45;&gt;Node7 -->
<g id="edge6" class="edge"><title>Node6&#45;&gt;Node7</title>
<path fill="none" stroke="midnightblue" d="M723.772,-159.368C732.341,-157.966 741.24,-156.511 749.875,-155.099"/>
<polygon fill="midnightblue" stroke="midnightblue" points="750.551,-158.535 759.854,-153.466 749.421,-151.626 750.551,-158.535"/>
</g>
<!-- Node7&#45;&gt;Node5 -->
<g id="edge7" class="edge"><title>Node7&#45;&gt;Node5</title>
<path fill="none" stroke="midnightblue" d="M759.985,-141.149C714.075,-136.257 642.705,-128.651 590.468,-123.084"/>
<polygon fill="midnightblue" stroke="midnightblue" points="590.604,-119.578 580.289,-121.999 589.862,-126.539 590.604,-119.578"/>
</g>
<!-- Node8&#45;&gt;Node3 -->
<g id="edge9" class="edge"><title>Node8&#45;&gt;Node3</title>
<path fill="none" stroke="midnightblue" d="M704.94,-76.411C728.241,-69.8279 758.679,-61.2282 779.939,-55.2218"/>
<polygon fill="midnightblue" stroke="midnightblue" points="781.177,-58.5089 789.849,-52.4218 779.274,-51.7726 781.177,-58.5089"/>
</g>
<!-- Node10&#45;&gt;Node3 -->
<g id="edge12" class="edge"><title>Node10&#45;&gt;Node3</title>
<path fill="none" stroke="midnightblue" d="M430.168,-12.0634C499.1,-15.0391 620.584,-21.5942 724,-34 742.762,-36.2507 763.776,-39.888 779.767,-42.8911"/>
<polygon fill="midnightblue" stroke="midnightblue" points="779.464,-46.3968 789.945,-44.8439 780.783,-39.5222 779.464,-46.3968"/>
</g>
</g>
</svg>
        <g id="navigator" transform="translate(0 0)" fill="#404254">
                <rect fill="#f2f5e9" fill-opacity="0.5" stroke="#606060" stroke-width=".5" x="0" y="0" width="60" height="60"/>
                <use id="zoomplus" xlink:href="#zoomPlus" x="17" y="9" onmousedown="handleZoom(evt,'in')"/>
                <use id="zoomminus" xlink:href="#zoomMin" x="42" y="9" onmousedown="handleZoom(evt,'out')"/>
                <use id="reset" xlink:href="#resetDef" x="30" y="36" onmousedown="handleReset()"/>
                <g id="arrowUp" xlink:href="#dirArrow" transform="translate(30 24)" onmousedown="handlePan(0,-1)">
                  <use xlink:href="#rim" fill="#404040">
                        <set attributeName="fill" to="#808080" begin="arrowUp.mouseover" end="arrowUp.mouseout"/>
                  </use>
                  <path fill="none" stroke="white" stroke-width="1.5" d="M0,-3.0v7 M-2.5,-0.5L0,-3.0L2.5,-0.5"/>
                </g>
                <g id="arrowRight" xlink:href="#dirArrow" transform="rotate(90) translate(36 -43)" onmousedown="handlePan(1,0)">
                  <use xlink:href="#rim" fill="#404040">
                        <set attributeName="fill" to="#808080" begin="arrowRight.mouseover" end="arrowRight.mouseout"/>
                  </use>
                  <path fill="none" stroke="white" stroke-width="1.5" d="M0,-3.0v7 M-2.5,-0.5L0,-3.0L2.5,-0.5"/>
                </g>
                <g id="arrowDown" xlink:href="#dirArrow" transform="rotate(180) translate(-30 -48)" onmousedown="handlePan(0,1)">
                  <use xlink:href="#rim" fill="#404040">
                        <set attributeName="fill" to="#808080" begin="arrowDown.mouseover" end="arrowDown.mouseout"/>
                  </use>
                  <path fill="none" stroke="white" stroke-width="1.5" d="M0,-3.0v7 M-2.5,-0.5L0,-3.0L2.5,-0.5"/>
                </g>
                <g id="arrowLeft" xlink:href="#dirArrow" transform="rotate(270) translate(-36 17)" onmousedown="handlePan(-1,0)">
                  <use xlink:href="#rim" fill="#404040">
                        <set attributeName="fill" to="#808080" begin="arrowLeft.mouseover" end="arrowLeft.mouseout"/>
                  </use>
                  <path fill="none" stroke="white" stroke-width="1.5" d="M0,-3.0v7 M-2.5,-0.5L0,-3.0L2.5,-0.5"/>
                </g>
        </g>
        <svg viewBox="0 0 15 15" width="100%" height="30px" preserveAspectRatio="xMaxYMin meet">
         <g id="arrow_out" transform="scale(0.3 0.3)">
          <a xlink:href="a00011_a86ee4a79820cfaa5bea7b8bb444a5b40_cgraph_org.svg" target="_base">
           <rect id="button" ry="5" rx="5" y="6" x="6" height="38" width="38"
                fill="#f2f5e9" fill-opacity="0.5" stroke="#606060" stroke-width="1.0"/>
           <path id="arrow"
             d="M 11.500037,31.436501 C 11.940474,20.09759 22.043105,11.32322 32.158766,21.979434 L 37.068811,17.246167 C 37.068811,17.246167 37.088388,32 37.088388,32 L 22.160133,31.978069 C 22.160133,31.978069 26.997745,27.140456 26.997745,27.140456 C 18.528582,18.264221 13.291696,25.230495 11.500037,31.436501 z"
             style="fill:#404040;"/>
          </a>
         </g>
        </svg>
</svg>
