<?xml version="1.0" encoding="UTF-8" standalone="no"?>
<!DOCTYPE svg PUBLIC "-//W3C//DTD SVG 1.1//EN"
 "http://www.w3.org/Graphics/SVG/1.1/DTD/svg11.dtd">
<!-- Generated by graphviz version 2.38.0 (20140413.2041)
 -->
<!-- Title: hpd_adapter_id_free Pages: 1 -->
<!--zoomable 230 -->
<svg id="main" version="1.1" xmlns="http://www.w3.org/2000/svg" xmlns:xlink="http://www.w3.org/1999/xlink" xml:space="preserve" onload="init(evt)">
<style type="text/css"><![CDATA[
.edge:hover path { stroke: red; }
.edge:hover polygon { stroke: red; fill: red; }
]]></style>
<script type="text/javascript"><![CDATA[
var edges = document.getElementsByTagName('g');
if (edges && edges.length) {
  for (var i=0;i<edges.length;i++) {
    if (edges[i].id.substr(0,4)=='edge') {
      edges[i].setAttribute('class','edge');
    }
  }
}
]]></script>
        <defs>
                <circle id="rim" cx="0" cy="0" r="7"/>
                <circle id="rim2" cx="0" cy="0" r="3.5"/>
                <g id="zoomPlus">
                        <use xlink:href="#rim" fill="#404040">
                                <set attributeName="fill" to="#808080" begin="zoomplus.mouseover" end="zoomplus.mouseout"/>
                        </use>
                        <path d="M-4,0h8M0,-4v8" fill="none" stroke="white" stroke-width="1.5" pointer-events="none"/>
                </g>
                <g id="zoomMin">
                        <use xlink:href="#rim" fill="#404040">
                                <set attributeName="fill" to="#808080" begin="zoomminus.mouseover" end="zoomminus.mouseout"/>
                        </use>
                        <path d="M-4,0h8" fill="none" stroke="white" stroke-width="1.5" pointer-events="none"/>
                </g>
                <g id="dirArrow">
                        <path fill="none" stroke="white" stroke-width="1.5" d="M0,-3.0v7 M-2.5,-0.5L0,-3.0L2.5,-0.5"/>
                </g>
               <g id="resetDef">
                       <use xlink:href="#rim2" fill="#404040">
                               <set attributeName="fill" to="#808080" begin="reset.mouseover" end="reset.mouseout"/>
                       </use>
               </g>
        </defs>

<script type="text/javascript">
var viewWidth = 2005;
var viewHeight = 230;
var sectionId = 'dynsection-24';
</script>
<script xlink:href="svgpan.js"/>
<svg id="graph" class="graph">
<g id="viewport">
<title>hpd_adapter_id_free</title>
<!-- Node1 -->
<g id="node1" class="node"><title>Node1</title>
<polygon fill="#bfbfbf" stroke="black" points="0,-114.5 0,-133.5 104,-133.5 104,-114.5 0,-114.5"/>
<text text-anchor="middle" x="52" y="-121.5" font-family="Helvetica,sans-Serif" font-size="10.00">hpd_adapter_id_free</text>
</g>
<!-- Node2 -->
<g id="node2" class="node"><title>Node2</title>
<g id="a_node2"><a xlink:href="a00013.html#a1a305bf3b6bebda2ca16c8adcdb95239" target="_top" xlink:title="[on_destroy] ">
<polygon fill="none" stroke="black" points="144,-191 144,-221 254,-221 254,-191 144,-191"/>
<text text-anchor="start" x="152" y="-209" font-family="Helvetica,sans-Serif" font-size="10.00">demo_adapter_create</text>
<text text-anchor="middle" x="199" y="-198" font-family="Helvetica,sans-Serif" font-size="10.00">_adapter</text>
</a>
</g>
</g>
<!-- Node1&#45;&gt;Node2 -->
<g id="edge1" class="edge"><title>Node1&#45;&gt;Node2</title>
<path fill="none" stroke="midnightblue" d="M74.3587,-139.494C91.589,-151.62 116.707,-168.472 140,-181 146.47,-184.48 153.526,-187.851 160.419,-190.931"/>
<polygon fill="midnightblue" stroke="midnightblue" points="76.296,-136.577 66.1189,-133.631 72.2379,-142.281 76.296,-136.577"/>
</g>
<!-- Node4 -->
<g id="node4" class="node"><title>Node4</title>
<g id="a_node4"><a xlink:href="a00013.html#aa30316159e7cdc14f2f035f0949b6680" target="_top" xlink:title="[on_start] ">
<polygon fill="none" stroke="black" points="140,-152.5 140,-171.5 258,-171.5 258,-152.5 140,-152.5"/>
<text text-anchor="middle" x="199" y="-159.5" font-family="Helvetica,sans-Serif" font-size="10.00">demo_adapter_on_stop</text>
</a>
</g>
</g>
<!-- Node1&#45;&gt;Node4 -->
<g id="edge3" class="edge"><title>Node1&#45;&gt;Node4</title>
<path fill="none" stroke="midnightblue" d="M99.4928,-136.184C119.624,-141.46 142.838,-147.544 161.673,-152.48"/>
<polygon fill="midnightblue" stroke="midnightblue" points="100.15,-132.738 89.5896,-133.589 98.3757,-139.51 100.15,-132.738"/>
</g>
<!-- Node5 -->
<g id="node5" class="node"><title>Node5</title>
<g id="a_node5"><a xlink:href="a00014.html#a47420cd34ff6783c48a215b947bca110" target="_top" xlink:title="demo_app_on_device">
<polygon fill="none" stroke="black" points="143.5,-114.5 143.5,-133.5 254.5,-133.5 254.5,-114.5 143.5,-114.5"/>
<text text-anchor="middle" x="199" y="-121.5" font-family="Helvetica,sans-Serif" font-size="10.00">demo_app_on_device</text>
</a>
</g>
</g>
<!-- Node1&#45;&gt;Node5 -->
<g id="edge5" class="edge"><title>Node1&#45;&gt;Node5</title>
<path fill="none" stroke="midnightblue" d="M114.428,-124C124.054,-124 133.946,-124 143.404,-124"/>
<polygon fill="midnightblue" stroke="midnightblue" points="114.122,-120.5 104.122,-124 114.122,-127.5 114.122,-120.5"/>
</g>
<!-- Node9 -->
<g id="node9" class="node"><title>Node9</title>
<g id="a_node9"><a xlink:href="a00014.html#add890f355b0e61ee1bcdd4f47a8964a1" target="_top" xlink:title="demo_app_on_change">
<polygon fill="none" stroke="black" points="142,-76.5 142,-95.5 256,-95.5 256,-76.5 142,-76.5"/>
<text text-anchor="middle" x="199" y="-83.5" font-family="Helvetica,sans-Serif" font-size="10.00">demo_app_on_change</text>
</a>
</g>
</g>
<!-- Node1&#45;&gt;Node9 -->
<g id="edge10" class="edge"><title>Node1&#45;&gt;Node9</title>
<path fill="none" stroke="midnightblue" d="M99.4928,-111.816C119.624,-106.54 142.838,-100.456 161.673,-95.5201"/>
<polygon fill="midnightblue" stroke="midnightblue" points="98.3757,-108.49 89.5896,-114.411 100.15,-115.262 98.3757,-108.49"/>
</g>
<!-- Node10 -->
<g id="node10" class="node"><title>Node10</title>
<g id="a_node10"><a xlink:href="a00095.html#ae30c92f3bb2ebffcbb82054ad60c1ac5" target="_top" xlink:title="hpd_rest_url_create">
<polygon fill="none" stroke="black" points="148,-38.5 148,-57.5 250,-57.5 250,-38.5 148,-38.5"/>
<text text-anchor="middle" x="199" y="-45.5" font-family="Helvetica,sans-Serif" font-size="10.00">hpd_rest_url_create</text>
</a>
</g>
</g>
<!-- Node1&#45;&gt;Node10 -->
<g id="edge12" class="edge"><title>Node1&#45;&gt;Node10</title>
<path fill="none" stroke="midnightblue" d="M73.4689,-108.353C90.5424,-95.8643 115.888,-78.5965 140,-67 147.448,-63.4178 155.742,-60.2547 163.675,-57.5878"/>
<polygon fill="midnightblue" stroke="midnightblue" points="71.2816,-105.618 65.3449,-114.393 75.4582,-111.236 71.2816,-105.618"/>
</g>
<!-- Node3 -->
<g id="node3" class="node"><title>Node3</title>
<g id="a_node3"><a xlink:href="a00013.html#a9f84d5de2ac16bde89480bd48efdff51" target="_top" xlink:title="[create_lamp] ">
<polygon fill="none" stroke="black" points="294,-193.5 294,-212.5 413,-212.5 413,-193.5 294,-193.5"/>
<text text-anchor="middle" x="353.5" y="-200.5" font-family="Helvetica,sans-Serif" font-size="10.00">demo_adapter_on_start</text>
</a>
</g>
</g>
<!-- Node2&#45;&gt;Node3 -->
<g id="edge2" class="edge"><title>Node2&#45;&gt;Node3</title>
<path fill="none" stroke="midnightblue" d="M264.281,-204.735C274.081,-204.543 284.151,-204.345 293.822,-204.154"/>
<polygon fill="midnightblue" stroke="midnightblue" points="264.124,-201.238 254.195,-204.934 264.262,-208.236 264.124,-201.238"/>
</g>
<!-- Node4&#45;&gt;Node3 -->
<g id="edge4" class="edge"><title>Node4&#45;&gt;Node3</title>
<path fill="none" stroke="midnightblue" d="M245.229,-174.16C268.184,-180.331 295.66,-187.718 317.058,-193.471"/>
<polygon fill="midnightblue" stroke="midnightblue" points="245.936,-170.726 235.37,-171.509 244.118,-177.486 245.936,-170.726"/>
</g>
<!-- Node6 -->
<g id="node6" class="node"><title>Node6</title>
<g id="a_node6"><a xlink:href="a00014.html#a192157935b7f185b56921b919e981f3a" target="_top" xlink:title="demo_app_on_attach">
<polygon fill="none" stroke="black" points="298.5,-152.5 298.5,-171.5 408.5,-171.5 408.5,-152.5 298.5,-152.5"/>
<text text-anchor="middle" x="353.5" y="-159.5" font-family="Helvetica,sans-Serif" font-size="10.00">demo_app_on_attach</text>
</a>
</g>
</g>
<!-- Node5&#45;&gt;Node6 -->
<g id="edge6" class="edge"><title>Node5&#45;&gt;Node6</title>
<path fill="none" stroke="midnightblue" d="M248.318,-136.04C269.623,-141.349 294.304,-147.499 314.295,-152.48"/>
<polygon fill="midnightblue" stroke="midnightblue" points="249.032,-132.611 238.482,-133.589 247.339,-139.403 249.032,-132.611"/>
</g>
<!-- Node8 -->
<g id="node8" class="node"><title>Node8</title>
<g id="a_node8"><a xlink:href="a00014.html#a5bac6eb6e610cdc6e322879ee4eaf514" target="_top" xlink:title="demo_app_on_detach">
<polygon fill="none" stroke="black" points="297.5,-114.5 297.5,-133.5 409.5,-133.5 409.5,-114.5 297.5,-114.5"/>
<text text-anchor="middle" x="353.5" y="-121.5" font-family="Helvetica,sans-Serif" font-size="10.00">demo_app_on_detach</text>
</a>
</g>
</g>
<!-- Node5&#45;&gt;Node8 -->
<g id="edge8" class="edge"><title>Node5&#45;&gt;Node8</title>
<path fill="none" stroke="midnightblue" d="M264.902,-124C275.752,-124 286.915,-124 297.487,-124"/>
<polygon fill="midnightblue" stroke="midnightblue" points="264.625,-120.5 254.625,-124 264.625,-127.5 264.625,-120.5"/>
</g>
<!-- Node7 -->
<g id="node7" class="node"><title>Node7</title>
<g id="a_node7"><a xlink:href="a00014.html#aa8f03492cc097968d466bb5ea9a043d1" target="_top" xlink:title="demo_app_on_start">
<polygon fill="none" stroke="black" points="457.5,-114.5 457.5,-133.5 559.5,-133.5 559.5,-114.5 457.5,-114.5"/>
<text text-anchor="middle" x="508.5" y="-121.5" font-family="Helvetica,sans-Serif" font-size="10.00">demo_app_on_start</text>
</a>
</g>
</g>
<!-- Node6&#45;&gt;Node7 -->
<g id="edge7" class="edge"><title>Node6&#45;&gt;Node7</title>
<path fill="none" stroke="midnightblue" d="M402.977,-149.96C424.352,-144.651 449.113,-138.501 469.169,-133.52"/>
<polygon fill="midnightblue" stroke="midnightblue" points="401.97,-146.604 393.108,-152.411 403.657,-153.397 401.97,-146.604"/>
</g>
<!-- Node8&#45;&gt;Node7 -->
<g id="edge9" class="edge"><title>Node8&#45;&gt;Node7</title>
<path fill="none" stroke="midnightblue" d="M419.738,-124C432.355,-124 445.39,-124 457.429,-124"/>
<polygon fill="midnightblue" stroke="midnightblue" points="419.737,-120.5 409.737,-124 419.736,-127.5 419.737,-120.5"/>
</g>
<!-- Node9&#45;&gt;Node7 -->
<g id="edge11" class="edge"><title>Node9&#45;&gt;Node7</title>
<path fill="none" stroke="midnightblue" d="M266.389,-90.0447C308.523,-93.0749 364.12,-97.9277 413,-105 430.225,-107.492 449.05,-111.095 465.334,-114.495"/>
<polygon fill="midnightblue" stroke="midnightblue" points="266.474,-86.5421 256.253,-89.3321 265.983,-93.5249 266.474,-86.5421"/>
</g>
<!-- Node11 -->
<g id="node11" class="node"><title>Node11</title>
<g id="a_node11"><a xlink:href="a00096.html#aa6c7dd70ed7b9b3a371a58ed6122b940" target="_top" xlink:title="rest_json_add_service">
<polygon fill="none" stroke="black" points="296.5,-38.5 296.5,-57.5 410.5,-57.5 410.5,-38.5 296.5,-38.5"/>
<text text-anchor="middle" x="353.5" y="-45.5" font-family="Helvetica,sans-Serif" font-size="10.00">rest_json_add_service</text>
</a>
</g>
</g>
<!-- Node10&#45;&gt;Node11 -->
<g id="edge13" class="edge"><title>Node10&#45;&gt;Node11</title>
<path fill="none" stroke="midnightblue" d="M260.577,-48C272.395,-48 284.738,-48 296.403,-48"/>
<polygon fill="midnightblue" stroke="midnightblue" points="260.357,-44.5001 250.357,-48 260.357,-51.5001 260.357,-44.5001"/>
</g>
<!-- Node22 -->
<g id="node22" class="node"><title>Node22</title>
<g id="a_node22"><a xlink:href="a00098.html#a8a91d98306eb64c151d1c19465421c0c" target="_top" xlink:title="rest_xml_add_service">
<polygon fill="none" stroke="black" points="452.5,-0.5 452.5,-19.5 564.5,-19.5 564.5,-0.5 452.5,-0.5"/>
<text text-anchor="middle" x="508.5" y="-7.5" font-family="Helvetica,sans-Serif" font-size="10.00">rest_xml_add_service</text>
</a>
</g>
</g>
<!-- Node10&#45;&gt;Node22 -->
<g id="edge24" class="edge"><title>Node10&#45;&gt;Node22</title>
<path fill="none" stroke="midnightblue" d="M252.089,-36.403C265.679,-33.6712 280.345,-30.9815 294,-29 347.583,-21.2248 409.225,-16.1502 452.455,-13.218"/>
<polygon fill="midnightblue" stroke="midnightblue" points="251.031,-33.0473 241.941,-38.4892 252.44,-39.9039 251.031,-33.0473"/>
</g>
<!-- Node12 -->
<g id="node12" class="node"><title>Node12</title>
<g id="a_node12"><a xlink:href="a00096.html#acedf1d82686baa037179bbc8eff51293" target="_top" xlink:title="rest_json_add_services">
<polygon fill="none" stroke="black" points="449,-38.5 449,-57.5 568,-57.5 568,-38.5 449,-38.5"/>
<text text-anchor="middle" x="508.5" y="-45.5" font-family="Helvetica,sans-Serif" font-size="10.00">rest_json_add_services</text>
</a>
</g>
</g>
<!-- Node11&#45;&gt;Node12 -->
<g id="edge14" class="edge"><title>Node11&#45;&gt;Node12</title>
<path fill="none" stroke="midnightblue" d="M420.663,-48C430.035,-48 439.618,-48 448.835,-48"/>
<polygon fill="midnightblue" stroke="midnightblue" points="420.603,-44.5001 410.603,-48 420.603,-51.5001 420.603,-44.5001"/>
</g>
<!-- Node13 -->
<g id="node13" class="node"><title>Node13</title>
<g id="a_node13"><a xlink:href="a00096.html#a41c2f37e46c89b97a3b4f5bb4e8ede49" target="_top" xlink:title="rest_json_add_device">
<polygon fill="none" stroke="black" points="604,-38.5 604,-57.5 715,-57.5 715,-38.5 604,-38.5"/>
<text text-anchor="middle" x="659.5" y="-45.5" font-family="Helvetica,sans-Serif" font-size="10.00">rest_json_add_device</text>
</a>
</g>
</g>
<!-- Node12&#45;&gt;Node13 -->
<g id="edge15" class="edge"><title>Node12&#45;&gt;Node13</title>
<path fill="none" stroke="midnightblue" d="M578.652,-48C587.128,-48 595.697,-48 603.917,-48"/>
<polygon fill="midnightblue" stroke="midnightblue" points="578.389,-44.5001 568.389,-48 578.389,-51.5001 578.389,-44.5001"/>
</g>
<!-- Node14 -->
<g id="node14" class="node"><title>Node14</title>
<g id="a_node14"><a xlink:href="a00096.html#ad6d08cc22d78268f5dc0b229af37c54c" target="_top" xlink:title="rest_json_add_devices">
<polygon fill="none" stroke="black" points="751,-38.5 751,-57.5 867,-57.5 867,-38.5 751,-38.5"/>
<text text-anchor="middle" x="809" y="-45.5" font-family="Helvetica,sans-Serif" font-size="10.00">rest_json_add_devices</text>
</a>
</g>
</g>
<!-- Node13&#45;&gt;Node14 -->
<g id="edge16" class="edge"><title>Node13&#45;&gt;Node14</title>
<path fill="none" stroke="midnightblue" d="M725.252,-48C733.744,-48 742.398,-48 750.753,-48"/>
<polygon fill="midnightblue" stroke="midnightblue" points="725.005,-44.5001 715.004,-48 725.004,-51.5001 725.005,-44.5001"/>
</g>
<!-- Node15 -->
<g id="node15" class="node"><title>Node15</title>
<g id="a_node15"><a xlink:href="a00096.html#a640b87b4cf374466c27940092542bbec" target="_top" xlink:title="rest_json_add_adapter">
<polygon fill="none" stroke="black" points="913.5,-38.5 913.5,-57.5 1028.5,-57.5 1028.5,-38.5 913.5,-38.5"/>
<text text-anchor="middle" x="971" y="-45.5" font-family="Helvetica,sans-Serif" font-size="10.00">rest_json_add_adapter</text>
</a>
</g>
</g>
<!-- Node14&#45;&gt;Node15 -->
<g id="edge17" class="edge"><title>Node14&#45;&gt;Node15</title>
<path fill="none" stroke="midnightblue" d="M877.641,-48C889.535,-48 901.802,-48 913.357,-48"/>
<polygon fill="midnightblue" stroke="midnightblue" points="877.312,-44.5001 867.312,-48 877.312,-51.5001 877.312,-44.5001"/>
</g>
<!-- Node16 -->
<g id="node16" class="node"><title>Node16</title>
<g id="a_node16"><a xlink:href="a00096.html#a99b3728ca81ef813ed208afd6de9a9b3" target="_top" xlink:title="rest_json_add_adapters">
<polygon fill="none" stroke="black" points="1092.5,-38.5 1092.5,-57.5 1212.5,-57.5 1212.5,-38.5 1092.5,-38.5"/>
<text text-anchor="middle" x="1152.5" y="-45.5" font-family="Helvetica,sans-Serif" font-size="10.00">rest_json_add_adapters</text>
</a>
</g>
</g>
<!-- Node15&#45;&gt;Node16 -->
<g id="edge18" class="edge"><title>Node15&#45;&gt;Node16</title>
<path fill="none" stroke="midnightblue" d="M1038.94,-48C1056.46,-48 1075.21,-48 1092.29,-48"/>
<polygon fill="midnightblue" stroke="midnightblue" points="1038.79,-44.5001 1028.79,-48 1038.79,-51.5001 1038.79,-44.5001"/>
</g>
<!-- Node17 -->
<g id="node17" class="node"><title>Node17</title>
<g id="a_node17"><a xlink:href="a00096.html#a28e31077cb0239c2f21c335da42223e2" target="_top" xlink:title="rest_json_add_configuration">
<polygon fill="none" stroke="black" points="1266,-38.5 1266,-57.5 1404,-57.5 1404,-38.5 1266,-38.5"/>
<text text-anchor="middle" x="1335" y="-45.5" font-family="Helvetica,sans-Serif" font-size="10.00">rest_json_add_configuration</text>
</a>
</g>
</g>
<!-- Node16&#45;&gt;Node17 -->
<g id="edge19" class="edge"><title>Node16&#45;&gt;Node17</title>
<path fill="none" stroke="midnightblue" d="M1222.78,-48C1236.95,-48 1251.86,-48 1265.99,-48"/>
<polygon fill="midnightblue" stroke="midnightblue" points="1222.6,-44.5001 1212.6,-48 1222.6,-51.5001 1222.6,-44.5001"/>
</g>
<!-- Node18 -->
<g id="node18" class="node"><title>Node18</title>
<g id="a_node18"><a xlink:href="a00097.html#aeb80ec3253d248a129513864cdc53817" target="_top" xlink:title="hpd_rest_json_get_configuration">
<polygon fill="none" stroke="black" points="1440,-38.5 1440,-57.5 1597,-57.5 1597,-38.5 1440,-38.5"/>
<text text-anchor="middle" x="1518.5" y="-45.5" font-family="Helvetica,sans-Serif" font-size="10.00">hpd_rest_json_get_configuration</text>
</a>
</g>
</g>
<!-- Node17&#45;&gt;Node18 -->
<g id="edge20" class="edge"><title>Node17&#45;&gt;Node18</title>
<path fill="none" stroke="midnightblue" d="M1414.33,-48C1422.8,-48 1431.41,-48 1439.87,-48"/>
<polygon fill="midnightblue" stroke="midnightblue" points="1414.1,-44.5001 1404.1,-48 1414.1,-51.5001 1414.1,-44.5001"/>
</g>
<!-- Node19 -->
<g id="node19" class="node"><title>Node19</title>
<g id="a_node19"><a xlink:href="a00034.html#ac0f2724b4617f1adb53492f1a57a4e4b" target="_top" xlink:title="rest_reply_devices">
<polygon fill="none" stroke="black" points="1633,-19.5 1633,-38.5 1731,-38.5 1731,-19.5 1633,-19.5"/>
<text text-anchor="middle" x="1682" y="-26.5" font-family="Helvetica,sans-Serif" font-size="10.00">rest_reply_devices</text>
</a>
</g>
</g>
<!-- Node18&#45;&gt;Node19 -->
<g id="edge21" class="edge"><title>Node18&#45;&gt;Node19</title>
<path fill="none" stroke="midnightblue" d="M1607.62,-37.6334C1616.29,-36.6135 1624.84,-35.6071 1632.88,-34.6616"/>
<polygon fill="midnightblue" stroke="midnightblue" points="1606.93,-34.1894 1597.41,-38.8339 1607.75,-41.1415 1606.93,-34.1894"/>
</g>
<!-- Node20 -->
<g id="node20" class="node"><title>Node20</title>
<g id="a_node20"><a xlink:href="a00034.html#a2731aca6e6807e771bcf9c94dbec968c" target="_top" xlink:title="rest_on_req_hdr_cmpl">
<polygon fill="none" stroke="black" points="1767,-19.5 1767,-38.5 1880,-38.5 1880,-19.5 1767,-19.5"/>
<text text-anchor="middle" x="1823.5" y="-26.5" font-family="Helvetica,sans-Serif" font-size="10.00">rest_on_req_hdr_cmpl</text>
</a>
</g>
</g>
<!-- Node19&#45;&gt;Node20 -->
<g id="edge22" class="edge"><title>Node19&#45;&gt;Node20</title>
<path fill="none" stroke="midnightblue" d="M1741.17,-29C1749.63,-29 1758.32,-29 1766.72,-29"/>
<polygon fill="midnightblue" stroke="midnightblue" points="1741.01,-25.5001 1731.01,-29 1741.01,-32.5001 1741.01,-25.5001"/>
</g>
<!-- Node21 -->
<g id="node21" class="node"><title>Node21</title>
<g id="a_node21"><a xlink:href="a00034.html#a02090c3feb19ea4c6e1fa9b5e6392752" target="_top" xlink:title="rest_on_create">
<polygon fill="none" stroke="black" points="1916,-19.5 1916,-38.5 1997,-38.5 1997,-19.5 1916,-19.5"/>
<text text-anchor="middle" x="1956.5" y="-26.5" font-family="Helvetica,sans-Serif" font-size="10.00">rest_on_create</text>
</a>
</g>
</g>
<!-- Node20&#45;&gt;Node21 -->
<g id="edge23" class="edge"><title>Node20&#45;&gt;Node21</title>
<path fill="none" stroke="midnightblue" d="M1890.25,-29C1898.96,-29 1907.66,-29 1915.75,-29"/>
<polygon fill="midnightblue" stroke="midnightblue" points="1890.06,-25.5001 1880.06,-29 1890.06,-32.5001 1890.06,-25.5001"/>
</g>
<!-- Node23 -->
<g id="node23" class="node"><title>Node23</title>
<g id="a_node23"><a xlink:href="a00098.html#a1225e8ad884c053761d73179e1ee1855" target="_top" xlink:title="rest_xml_add_device">
<polygon fill="none" stroke="black" points="605,-0.5 605,-19.5 714,-19.5 714,-0.5 605,-0.5"/>
<text text-anchor="middle" x="659.5" y="-7.5" font-family="Helvetica,sans-Serif" font-size="10.00">rest_xml_add_device</text>
</a>
</g>
</g>
<!-- Node22&#45;&gt;Node23 -->
<g id="edge25" class="edge"><title>Node22&#45;&gt;Node23</title>
<path fill="none" stroke="midnightblue" d="M574.831,-10C584.794,-10 594.98,-10 604.66,-10"/>
<polygon fill="midnightblue" stroke="midnightblue" points="574.559,-6.5001 564.559,-10 574.559,-13.5001 574.559,-6.5001"/>
</g>
<!-- Node24 -->
<g id="node24" class="node"><title>Node24</title>
<g id="a_node24"><a xlink:href="a00098.html#a8a0a8fd989454b355fdaf3da1f129187" target="_top" xlink:title="rest_xml_add_adapter">
<polygon fill="none" stroke="black" points="752.5,-0.5 752.5,-19.5 865.5,-19.5 865.5,-0.5 752.5,-0.5"/>
<text text-anchor="middle" x="809" y="-7.5" font-family="Helvetica,sans-Serif" font-size="10.00">rest_xml_add_adapter</text>
</a>
</g>
</g>
<!-- Node23&#45;&gt;Node24 -->
<g id="edge26" class="edge"><title>Node23&#45;&gt;Node24</title>
<path fill="none" stroke="midnightblue" d="M724.455,-10C733.672,-10 743.097,-10 752.14,-10"/>
<polygon fill="midnightblue" stroke="midnightblue" points="724.168,-6.5001 714.168,-10 724.168,-13.5001 724.168,-6.5001"/>
</g>
<!-- Node25 -->
<g id="node25" class="node"><title>Node25</title>
<g id="a_node25"><a xlink:href="a00098.html#aca121ba7e7fc75cee1159bd654566d5e" target="_top" xlink:title="rest_xml_add_configuration">
<polygon fill="none" stroke="black" points="903,-0.5 903,-19.5 1039,-19.5 1039,-0.5 903,-0.5"/>
<text text-anchor="middle" x="971" y="-7.5" font-family="Helvetica,sans-Serif" font-size="10.00">rest_xml_add_configuration</text>
</a>
</g>
</g>
<!-- Node24&#45;&gt;Node25 -->
<g id="edge27" class="edge"><title>Node24&#45;&gt;Node25</title>
<path fill="none" stroke="midnightblue" d="M875.516,-10C884.494,-10 893.724,-10 902.733,-10"/>
<polygon fill="midnightblue" stroke="midnightblue" points="875.511,-6.5001 865.511,-10 875.511,-13.5001 875.511,-6.5001"/>
</g>
<!-- Node26 -->
<g id="node26" class="node"><title>Node26</title>
<g id="a_node26"><a xlink:href="a00099.html#a5f45c0580c596d22c41495ecc83e6e85" target="_top" xlink:title="hpd_rest_xml_get_configuration">
<polygon fill="none" stroke="black" points="1075,-0.5 1075,-19.5 1230,-19.5 1230,-0.5 1075,-0.5"/>
<text text-anchor="middle" x="1152.5" y="-7.5" font-family="Helvetica,sans-Serif" font-size="10.00">hpd_rest_xml_get_configuration</text>
</a>
</g>
</g>
<!-- Node25&#45;&gt;Node26 -->
<g id="edge28" class="edge"><title>Node25&#45;&gt;Node26</title>
<path fill="none" stroke="midnightblue" d="M1049.31,-10C1057.77,-10 1066.38,-10 1074.82,-10"/>
<polygon fill="midnightblue" stroke="midnightblue" points="1049.09,-6.5001 1039.09,-10 1049.09,-13.5001 1049.09,-6.5001"/>
</g>
<!-- Node26&#45;&gt;Node19 -->
<g id="edge29" class="edge"><title>Node26&#45;&gt;Node19</title>
<path fill="none" stroke="midnightblue" d="M1240.48,-13.1328C1352.69,-17.1746 1544.01,-24.0656 1632.93,-27.2686"/>
<polygon fill="midnightblue" stroke="midnightblue" points="1240.32,-9.62508 1230.2,-12.7628 1240.07,-16.6205 1240.32,-9.62508"/>
</g>
</g>
</svg>
        <g id="navigator" transform="translate(0 0)" fill="#404254">
                <rect fill="#f2f5e9" fill-opacity="0.5" stroke="#606060" stroke-width=".5" x="0" y="0" width="60" height="60"/>
                <use id="zoomplus" xlink:href="#zoomPlus" x="17" y="9" onmousedown="handleZoom(evt,'in')"/>
                <use id="zoomminus" xlink:href="#zoomMin" x="42" y="9" onmousedown="handleZoom(evt,'out')"/>
                <use id="reset" xlink:href="#resetDef" x="30" y="36" onmousedown="handleReset()"/>
                <g id="arrowUp" xlink:href="#dirArrow" transform="translate(30 24)" onmousedown="handlePan(0,-1)">
                  <use xlink:href="#rim" fill="#404040">
                        <set attributeName="fill" to="#808080" begin="arrowUp.mouseover" end="arrowUp.mouseout"/>
                  </use>
                  <path fill="none" stroke="white" stroke-width="1.5" d="M0,-3.0v7 M-2.5,-0.5L0,-3.0L2.5,-0.5"/>
                </g>
                <g id="arrowRight" xlink:href="#dirArrow" transform="rotate(90) translate(36 -43)" onmousedown="handlePan(1,0)">
                  <use xlink:href="#rim" fill="#404040">
                        <set attributeName="fill" to="#808080" begin="arrowRight.mouseover" end="arrowRight.mouseout"/>
                  </use>
                  <path fill="none" stroke="white" stroke-width="1.5" d="M0,-3.0v7 M-2.5,-0.5L0,-3.0L2.5,-0.5"/>
                </g>
                <g id="arrowDown" xlink:href="#dirArrow" transform="rotate(180) translate(-30 -48)" onmousedown="handlePan(0,1)">
                  <use xlink:href="#rim" fill="#404040">
                        <set attributeName="fill" to="#808080" begin="arrowDown.mouseover" end="arrowDown.mouseout"/>
                  </use>
                  <path fill="none" stroke="white" stroke-width="1.5" d="M0,-3.0v7 M-2.5,-0.5L0,-3.0L2.5,-0.5"/>
                </g>
                <g id="arrowLeft" xlink:href="#dirArrow" transform="rotate(270) translate(-36 17)" onmousedown="handlePan(-1,0)">
                  <use xlink:href="#rim" fill="#404040">
                        <set attributeName="fill" to="#808080" begin="arrowLeft.mouseover" end="arrowLeft.mouseout"/>
                  </use>
                  <path fill="none" stroke="white" stroke-width="1.5" d="M0,-3.0v7 M-2.5,-0.5L0,-3.0L2.5,-0.5"/>
                </g>
        </g>
        <svg viewBox="0 0 15 15" width="100%" height="30px" preserveAspectRatio="xMaxYMin meet">
         <g id="arrow_out" transform="scale(0.3 0.3)">
          <a xlink:href="a00079_a6dfca5e2723ca3a11d12fe545e69923e_icgraph_org.svg" target="_base">
           <rect id="button" ry="5" rx="5" y="6" x="6" height="38" width="38"
                fill="#f2f5e9" fill-opacity="0.5" stroke="#606060" stroke-width="1.0"/>
           <path id="arrow"
             d="M 11.500037,31.436501 C 11.940474,20.09759 22.043105,11.32322 32.158766,21.979434 L 37.068811,17.246167 C 37.068811,17.246167 37.088388,32 37.088388,32 L 22.160133,31.978069 C 22.160133,31.978069 26.997745,27.140456 26.997745,27.140456 C 18.528582,18.264221 13.291696,25.230495 11.500037,31.436501 z"
             style="fill:#404040;"/>
          </a>
         </g>
        </svg>
</svg>
