<?xml version="1.0" encoding="UTF-8" standalone="no"?>
<!DOCTYPE svg PUBLIC "-//W3C//DTD SVG 1.1//EN"
 "http://www.w3.org/Graphics/SVG/1.1/DTD/svg11.dtd">
<!-- Generated by graphviz version 2.38.0 (20140413.2041)
 -->
<!-- Title: tcpd_on_ev_timeout Pages: 1 -->
<svg width="588pt" height="85pt"
 viewBox="0.00 0.00 588.00 85.00" xmlns="http://www.w3.org/2000/svg" xmlns:xlink="http://www.w3.org/1999/xlink">
<g id="graph0" class="graph" transform="scale(1 1) rotate(0) translate(4 81)">
<title>tcpd_on_ev_timeout</title>
<!-- Node1 -->
<g id="node1" class="node"><title>Node1</title>
<polygon fill="#bfbfbf" stroke="black" points="0,-19.5 0,-38.5 104,-38.5 104,-19.5 0,-19.5"/>
<text text-anchor="middle" x="52" y="-26.5" font-family="Helvetica,sans-Serif" font-size="10.00">tcpd_on_ev_timeout</text>
</g>
<!-- Node2 -->
<g id="node2" class="node"><title>Node2</title>
<g id="a_node2"><a xlink:href="a00059.html#abb961e40817da63331e90988b5ac71db" target="_top" xlink:title="Initialise and accept connection. ">
<polygon fill="none" stroke="black" points="140,-19.5 140,-38.5 233,-38.5 233,-19.5 140,-19.5"/>
<text text-anchor="middle" x="186.5" y="-26.5" font-family="Helvetica,sans-Serif" font-size="10.00">tcpd_on_ev_conn</text>
</a>
</g>
</g>
<!-- Node1&#45;&gt;Node2 -->
<g id="edge1" class="edge"><title>Node1&#45;&gt;Node2</title>
<path fill="none" stroke="midnightblue" d="M114.459,-29C122.92,-29 131.485,-29 139.599,-29"/>
<polygon fill="midnightblue" stroke="midnightblue" points="114.228,-25.5001 104.228,-29 114.228,-32.5001 114.228,-25.5001"/>
</g>
<!-- Node3 -->
<g id="node3" class="node"><title>Node3</title>
<g id="a_node3"><a xlink:href="a00059.html#ae77def0ed256affe27ea6ce37bf0ebf7" target="_top" xlink:title="Start the tcpd. ">
<polygon fill="none" stroke="black" points="269,-19.5 269,-38.5 350,-38.5 350,-19.5 269,-19.5"/>
<text text-anchor="middle" x="309.5" y="-26.5" font-family="Helvetica,sans-Serif" font-size="10.00">hpd_tcpd_start</text>
</a>
</g>
</g>
<!-- Node2&#45;&gt;Node3 -->
<g id="edge2" class="edge"><title>Node2&#45;&gt;Node3</title>
<path fill="none" stroke="midnightblue" d="M243.493,-29C251.979,-29 260.585,-29 268.636,-29"/>
<polygon fill="midnightblue" stroke="midnightblue" points="243.245,-25.5001 233.245,-29 243.245,-32.5001 243.245,-25.5001"/>
</g>
<!-- Node4 -->
<g id="node4" class="node"><title>Node4</title>
<g id="a_node4"><a xlink:href="a00024.html#ab26dd9acbd2ec17e5863a50f01e70e65" target="_top" xlink:title="Start a httpd instance. ">
<polygon fill="none" stroke="black" points="386,-38.5 386,-57.5 470,-57.5 470,-38.5 386,-38.5"/>
<text text-anchor="middle" x="428" y="-45.5" font-family="Helvetica,sans-Serif" font-size="10.00">hpd_httpd_start</text>
</a>
</g>
</g>
<!-- Node3&#45;&gt;Node4 -->
<g id="edge3" class="edge"><title>Node3&#45;&gt;Node4</title>
<path fill="none" stroke="midnightblue" d="M360.152,-37.0977C368.71,-38.4935 377.522,-39.9306 385.825,-41.2848"/>
<polygon fill="midnightblue" stroke="midnightblue" points="360.7,-33.6409 350.267,-35.4856 359.573,-40.5497 360.7,-33.6409"/>
</g>
<!-- Node7 -->
<g id="node7" class="node"><title>Node7</title>
<g id="a_node7"><a xlink:href="a00057.html#a0ddf1224851353fc92bfbff6f499fa97" target="_top" xlink:title="main">
<polygon fill="none" stroke="black" points="409,-0.5 409,-19.5 447,-19.5 447,-0.5 409,-0.5"/>
<text text-anchor="middle" x="428" y="-7.5" font-family="Helvetica,sans-Serif" font-size="10.00">main</text>
</a>
</g>
</g>
<!-- Node3&#45;&gt;Node7 -->
<g id="edge6" class="edge"><title>Node3&#45;&gt;Node7</title>
<path fill="none" stroke="midnightblue" d="M360.277,-20.8819C377.558,-18.0635 395.855,-15.0794 408.91,-12.9503"/>
<polygon fill="midnightblue" stroke="midnightblue" points="359.573,-17.4503 350.267,-22.5144 360.7,-24.3591 359.573,-17.4503"/>
</g>
<!-- Node5 -->
<g id="node5" class="node"><title>Node5</title>
<g id="a_node5"><a xlink:href="a00047.html#a0ddf1224851353fc92bfbff6f499fa97" target="_top" xlink:title="main">
<polygon fill="none" stroke="black" points="524,-57.5 524,-76.5 562,-76.5 562,-57.5 524,-57.5"/>
<text text-anchor="middle" x="543" y="-64.5" font-family="Helvetica,sans-Serif" font-size="10.00">main</text>
</a>
</g>
</g>
<!-- Node4&#45;&gt;Node5 -->
<g id="edge4" class="edge"><title>Node4&#45;&gt;Node5</title>
<path fill="none" stroke="midnightblue" d="M480.227,-56.6134C495.809,-59.2333 511.931,-61.9441 523.796,-63.9391"/>
<polygon fill="midnightblue" stroke="midnightblue" points="480.557,-53.1199 470.115,-54.9132 479.396,-60.023 480.557,-53.1199"/>
</g>
<!-- Node6 -->
<g id="node6" class="node"><title>Node6</title>
<g id="a_node6"><a xlink:href="a00034.html#afb0f14177aa99ed8b660835d80f0abff" target="_top" xlink:title="rest_on_start">
<polygon fill="none" stroke="black" points="506,-19.5 506,-38.5 580,-38.5 580,-19.5 506,-19.5"/>
<text text-anchor="middle" x="543" y="-26.5" font-family="Helvetica,sans-Serif" font-size="10.00">rest_on_start</text>
</a>
</g>
</g>
<!-- Node4&#45;&gt;Node6 -->
<g id="edge5" class="edge"><title>Node4&#45;&gt;Node6</title>
<path fill="none" stroke="midnightblue" d="M480.196,-39.3918C488.893,-37.9296 497.758,-36.4389 505.958,-35.0601"/>
<polygon fill="midnightblue" stroke="midnightblue" points="479.396,-35.977 470.115,-41.0868 480.557,-42.8801 479.396,-35.977"/>
</g>
</g>
</svg>
