<?xml version="1.0" encoding="UTF-8" standalone="no"?>
<!DOCTYPE svg PUBLIC "-//W3C//DTD SVG 1.1//EN"
 "http://www.w3.org/Graphics/SVG/1.1/DTD/svg11.dtd">
<!-- Generated by graphviz version 2.38.0 (20140413.2041)
 -->
<!-- Title: hpd_httpd_response_vsendf Pages: 1 -->
<svg width="853pt" height="123pt"
 viewBox="0.00 0.00 853.00 123.26" xmlns="http://www.w3.org/2000/svg" xmlns:xlink="http://www.w3.org/1999/xlink">
<g id="graph0" class="graph" transform="scale(1 1) rotate(0) translate(4 119.258)">
<title>hpd_httpd_response_vsendf</title>
<!-- Node1 -->
<g id="node1" class="node"><title>Node1</title>
<polygon fill="#bfbfbf" stroke="black" points="0,-52.2578 0,-82.2578 104,-82.2578 104,-52.2578 0,-52.2578"/>
<text text-anchor="start" x="8" y="-70.2578" font-family="Helvetica,sans-Serif" font-size="10.00">hpd_httpd_response</text>
<text text-anchor="middle" x="52" y="-59.2578" font-family="Helvetica,sans-Serif" font-size="10.00">_vsendf</text>
</g>
<!-- Node2 -->
<g id="node2" class="node"><title>Node2</title>
<g id="a_node2"><a xlink:href="a00017.html#a38a5c180c63086c4c55a595ad3750cf1" target="_top" xlink:title="Send response to client. ">
<polygon fill="none" stroke="black" points="140,-52.2578 140,-82.2578 244,-82.2578 244,-52.2578 140,-52.2578"/>
<text text-anchor="start" x="148" y="-70.2578" font-family="Helvetica,sans-Serif" font-size="10.00">hpd_httpd_response</text>
<text text-anchor="middle" x="192" y="-59.2578" font-family="Helvetica,sans-Serif" font-size="10.00">_sendf</text>
</a>
</g>
</g>
<!-- Node1&#45;&gt;Node2 -->
<g id="edge1" class="edge"><title>Node1&#45;&gt;Node2</title>
<path fill="none" stroke="midnightblue" d="M114.496,-67.2578C122.872,-67.2578 131.398,-67.2578 139.571,-67.2578"/>
<polygon fill="midnightblue" stroke="midnightblue" points="114.386,-63.7579 104.386,-67.2578 114.386,-70.7579 114.386,-63.7579"/>
</g>
<!-- Node3 -->
<g id="node3" class="node"><title>Node3</title>
<g id="a_node3"><a xlink:href="a00038.html#a2eb873ac7e610c2dff8e49d216d3aff8" target="_top" xlink:title="handle_request">
<polygon fill="none" stroke="black" points="280,-95.7578 280,-114.758 363,-114.758 363,-95.7578 280,-95.7578"/>
<text text-anchor="middle" x="321.5" y="-102.758" font-family="Helvetica,sans-Serif" font-size="10.00">handle_request</text>
</a>
</g>
</g>
<!-- Node2&#45;&gt;Node3 -->
<g id="edge2" class="edge"><title>Node2&#45;&gt;Node3</title>
<path fill="none" stroke="midnightblue" d="M253.101,-85.1701C265.298,-88.8053 277.674,-92.4938 288.434,-95.701"/>
<polygon fill="midnightblue" stroke="midnightblue" points="253.975,-81.7785 243.391,-82.2764 251.975,-88.4869 253.975,-81.7785"/>
</g>
<!-- Node5 -->
<g id="node5" class="node"><title>Node5</title>
<g id="a_node5"><a xlink:href="a00025.html#a144860c2e3dfe3d8d9fd021968bbd8ff" target="_top" xlink:title="reply_devices">
<polygon fill="none" stroke="black" points="283,-57.7578 283,-76.7578 360,-76.7578 360,-57.7578 283,-57.7578"/>
<text text-anchor="middle" x="321.5" y="-64.7578" font-family="Helvetica,sans-Serif" font-size="10.00">reply_devices</text>
</a>
</g>
</g>
<!-- Node2&#45;&gt;Node5 -->
<g id="edge4" class="edge"><title>Node2&#45;&gt;Node5</title>
<path fill="none" stroke="midnightblue" d="M254.196,-67.2578C263.925,-67.2578 273.733,-67.2578 282.712,-67.2578"/>
<polygon fill="midnightblue" stroke="midnightblue" points="254.125,-63.7579 244.124,-67.2578 254.124,-70.7579 254.125,-63.7579"/>
</g>
<!-- Node8 -->
<g id="node8" class="node"><title>Node8</title>
<g id="a_node8"><a xlink:href="a00025.html#abccd0d79ed3acf405337a07b4572d223" target="_top" xlink:title="on_response">
<polygon fill="none" stroke="black" points="285.5,-19.7578 285.5,-38.7578 357.5,-38.7578 357.5,-19.7578 285.5,-19.7578"/>
<text text-anchor="middle" x="321.5" y="-26.7578" font-family="Helvetica,sans-Serif" font-size="10.00">on_response</text>
</a>
</g>
</g>
<!-- Node2&#45;&gt;Node8 -->
<g id="edge7" class="edge"><title>Node2&#45;&gt;Node8</title>
<path fill="none" stroke="midnightblue" d="M253.101,-49.3454C265.298,-45.7102 277.674,-42.0217 288.434,-38.8146"/>
<polygon fill="midnightblue" stroke="midnightblue" points="251.975,-46.0287 243.391,-52.2392 253.975,-52.7371 251.975,-46.0287"/>
</g>
<!-- Node4 -->
<g id="node4" class="node"><title>Node4</title>
<g id="a_node4"><a xlink:href="a00038.html#a0ddf1224851353fc92bfbff6f499fa97" target="_top" xlink:title="main">
<polygon fill="none" stroke="black" points="436,-95.7578 436,-114.758 474,-114.758 474,-95.7578 436,-95.7578"/>
<text text-anchor="middle" x="455" y="-102.758" font-family="Helvetica,sans-Serif" font-size="10.00">main</text>
</a>
</g>
</g>
<!-- Node3&#45;&gt;Node4 -->
<g id="edge3" class="edge"><title>Node3&#45;&gt;Node4</title>
<path fill="none" stroke="midnightblue" d="M373.256,-105.258C395.247,-105.258 419.602,-105.258 435.753,-105.258"/>
<polygon fill="midnightblue" stroke="midnightblue" points="373.027,-101.758 363.027,-105.258 373.027,-108.758 373.027,-101.758"/>
</g>
<!-- Node6 -->
<g id="node6" class="node"><title>Node6</title>
<g id="a_node6"><a xlink:href="a00025.html#abd6f4422cb70766aae33a18dc6b6cb74" target="_top" xlink:title="on_req_hdr_cmpl">
<polygon fill="none" stroke="black" points="549,-57.7578 549,-76.7578 640,-76.7578 640,-57.7578 549,-57.7578"/>
<text text-anchor="middle" x="594.5" y="-64.7578" font-family="Helvetica,sans-Serif" font-size="10.00">on_req_hdr_cmpl</text>
</a>
</g>
</g>
<!-- Node5&#45;&gt;Node6 -->
<g id="edge5" class="edge"><title>Node5&#45;&gt;Node6</title>
<path fill="none" stroke="midnightblue" d="M370.187,-67.2578C420.66,-67.2578 499.686,-67.2578 548.94,-67.2578"/>
<polygon fill="midnightblue" stroke="midnightblue" points="370.181,-63.7579 360.181,-67.2578 370.181,-70.7579 370.181,-63.7579"/>
</g>
<!-- Node7 -->
<g id="node7" class="node"><title>Node7</title>
<g id="a_node7"><a xlink:href="a00025.html#ad079431c7eba97c5dd5e4e202cdf6102" target="_top" xlink:title="on_create">
<polygon fill="none" stroke="black" points="786,-38.7578 786,-57.7578 845,-57.7578 845,-38.7578 786,-38.7578"/>
<text text-anchor="middle" x="815.5" y="-45.7578" font-family="Helvetica,sans-Serif" font-size="10.00">on_create</text>
</a>
</g>
</g>
<!-- Node6&#45;&gt;Node7 -->
<g id="edge6" class="edge"><title>Node6&#45;&gt;Node7</title>
<path fill="none" stroke="midnightblue" d="M650.136,-62.5177C693.25,-58.7772 751.665,-53.7092 785.994,-50.7309"/>
<polygon fill="midnightblue" stroke="midnightblue" points="649.742,-59.0386 640.082,-63.3899 650.347,-66.0124 649.742,-59.0386"/>
</g>
<!-- Node9 -->
<g id="node9" class="node"><title>Node9</title>
<g id="a_node9"><a xlink:href="a00073.html#afaa1866a860b3fe73641de3548d66f66" target="_top" xlink:title="request_alloc_request">
<polygon fill="none" stroke="black" points="399,-19.7578 399,-38.7578 511,-38.7578 511,-19.7578 399,-19.7578"/>
<text text-anchor="middle" x="455" y="-26.7578" font-family="Helvetica,sans-Serif" font-size="10.00">request_alloc_request</text>
</a>
</g>
</g>
<!-- Node8&#45;&gt;Node9 -->
<g id="edge8" class="edge"><title>Node8&#45;&gt;Node9</title>
<path fill="none" stroke="midnightblue" d="M367.848,-29.2578C377.832,-29.2578 388.513,-29.2578 398.836,-29.2578"/>
<polygon fill="midnightblue" stroke="midnightblue" points="367.74,-25.7579 357.74,-29.2578 367.74,-32.7579 367.74,-25.7579"/>
</g>
<!-- Node11 -->
<g id="node11" class="node"><title>Node11</title>
<g id="a_node11"><a xlink:href="a00025.html#a74ba52adbe4c46e9a9c33649e3b75243" target="_top" xlink:title="on_req_cmpl">
<polygon fill="none" stroke="black" points="678,-19.7578 678,-38.7578 750,-38.7578 750,-19.7578 678,-19.7578"/>
<text text-anchor="middle" x="714" y="-26.7578" font-family="Helvetica,sans-Serif" font-size="10.00">on_req_cmpl</text>
</a>
</g>
</g>
<!-- Node8&#45;&gt;Node11 -->
<g id="edge12" class="edge"><title>Node8&#45;&gt;Node11</title>
<path fill="none" stroke="midnightblue" d="M363.198,-17.2022C374.671,-14.3379 387.233,-11.6971 399,-10.2578 506.201,2.85556 534.922,3.8219 642,-10.2578 656.169,-12.1209 671.53,-15.9905 684.328,-19.7543"/>
<polygon fill="midnightblue" stroke="midnightblue" points="362.233,-13.8367 353.444,-19.7523 364.004,-20.6091 362.233,-13.8367"/>
</g>
<!-- Node10 -->
<g id="node10" class="node"><title>Node10</title>
<g id="a_node10"><a xlink:href="a00074.html#aa6d853067ae916b9213cd0c936c201c2" target="_top" xlink:title="[hpd_request_t functions] ">
<polygon fill="none" stroke="black" points="547,-19.7578 547,-38.7578 642,-38.7578 642,-19.7578 547,-19.7578"/>
<text text-anchor="middle" x="594.5" y="-26.7578" font-family="Helvetica,sans-Serif" font-size="10.00">hpd_request_alloc</text>
</a>
</g>
</g>
<!-- Node9&#45;&gt;Node10 -->
<g id="edge9" class="edge"><title>Node9&#45;&gt;Node10</title>
<path fill="none" stroke="midnightblue" d="M521.194,-29.2578C529.821,-29.2578 538.523,-29.2578 546.754,-29.2578"/>
<polygon fill="midnightblue" stroke="midnightblue" points="521.134,-25.7579 511.134,-29.2578 521.134,-32.7579 521.134,-25.7579"/>
</g>
<!-- Node10&#45;&gt;Node11 -->
<g id="edge10" class="edge"><title>Node10&#45;&gt;Node11</title>
<path fill="none" stroke="midnightblue" d="M652.437,-29.2578C661.152,-29.2578 669.92,-29.2578 677.974,-29.2578"/>
<polygon fill="midnightblue" stroke="midnightblue" points="652.277,-25.7579 642.277,-29.2578 652.277,-32.7579 652.277,-25.7579"/>
</g>
<!-- Node11&#45;&gt;Node7 -->
<g id="edge11" class="edge"><title>Node11&#45;&gt;Node7</title>
<path fill="none" stroke="midnightblue" d="M759.927,-37.8367C768.779,-39.5272 777.837,-41.2568 785.965,-42.809"/>
<polygon fill="midnightblue" stroke="midnightblue" points="760.559,-34.3943 750.08,-35.9565 759.246,-41.2701 760.559,-34.3943"/>
</g>
</g>
</svg>
