<?xml version="1.0" encoding="UTF-8" standalone="no"?>
<!DOCTYPE svg PUBLIC "-//W3C//DTD SVG 1.1//EN"
 "http://www.w3.org/Graphics/SVG/1.1/DTD/svg11.dtd">
<!-- Generated by graphviz version 2.38.0 (20140413.2041)
 -->
<!-- Title: curl_ev_on_update_timer Pages: 1 -->
<svg width="556pt" height="116pt"
 viewBox="0.00 0.00 556.00 115.50" xmlns="http://www.w3.org/2000/svg" xmlns:xlink="http://www.w3.org/1999/xlink">
<g id="graph0" class="graph" transform="scale(1 1) rotate(0) translate(4 111.5)">
<title>curl_ev_on_update_timer</title>
<!-- Node1 -->
<g id="node1" class="node"><title>Node1</title>
<polygon fill="#bfbfbf" stroke="black" points="0,-38.5 0,-57.5 125,-57.5 125,-38.5 0,-38.5"/>
<text text-anchor="middle" x="62.5" y="-45.5" font-family="Helvetica,sans-Serif" font-size="10.00">curl_ev_on_update_timer</text>
</g>
<!-- Node2 -->
<g id="node2" class="node"><title>Node2</title>
<g id="a_node2"><a xlink:href="a00011.html#a30f7e7259072d4e929092bf994dd0f7e" target="_top" xlink:title="curl_ev_socket_action">
<polygon fill="none" stroke="black" points="161,-38.5 161,-57.5 275,-57.5 275,-38.5 161,-38.5"/>
<text text-anchor="middle" x="218" y="-45.5" font-family="Helvetica,sans-Serif" font-size="10.00">curl_ev_socket_action</text>
</a>
</g>
</g>
<!-- Node1&#45;&gt;Node2 -->
<g id="edge1" class="edge"><title>Node1&#45;&gt;Node2</title>
<path fill="none" stroke="midnightblue" d="M125.05,-48C133.47,-48 142.145,-48 150.646,-48"/>
<polygon fill="midnightblue" stroke="midnightblue" points="150.901,-51.5001 160.901,-48 150.901,-44.5001 150.901,-51.5001"/>
</g>
<!-- Node3 -->
<g id="node3" class="node"><title>Node3</title>
<g id="a_node3"><a xlink:href="a00011.html#a51a40a6c8c1a8ecd90e288ab02687ad3" target="_top" xlink:title="hpd_curl_ev_remove\l_handle">
<polygon fill="none" stroke="black" points="311.5,-77 311.5,-107 418.5,-107 418.5,-77 311.5,-77"/>
<text text-anchor="start" x="319.5" y="-95" font-family="Helvetica,sans-Serif" font-size="10.00">hpd_curl_ev_remove</text>
<text text-anchor="middle" x="365" y="-84" font-family="Helvetica,sans-Serif" font-size="10.00">_handle</text>
</a>
</g>
</g>
<!-- Node2&#45;&gt;Node3 -->
<g id="edge2" class="edge"><title>Node2&#45;&gt;Node3</title>
<path fill="none" stroke="midnightblue" d="M250.463,-57.5473C266.351,-62.3685 286.159,-68.3794 304.762,-74.0243"/>
<polygon fill="midnightblue" stroke="midnightblue" points="303.767,-77.38 314.353,-76.9346 305.8,-70.6816 303.767,-77.38"/>
</g>
<!-- Node5 -->
<g id="node5" class="node"><title>Node5</title>
<g id="a_node5"><a xlink:href="a00043.html#aad3ddbb29440b4b7b4f1266c0432c60c" target="_top" xlink:title="hpd_curl_ev_cleanup">
<polygon fill="none" stroke="black" points="311,-0.5 311,-19.5 419,-19.5 419,-0.5 311,-0.5"/>
<text text-anchor="middle" x="365" y="-7.5" font-family="Helvetica,sans-Serif" font-size="10.00">hpd_curl_ev_cleanup</text>
</a>
</g>
</g>
<!-- Node2&#45;&gt;Node5 -->
<g id="edge5" class="edge"><title>Node2&#45;&gt;Node5</title>
<path fill="none" stroke="midnightblue" d="M255.59,-38.411C274.465,-33.4642 297.686,-27.3789 317.788,-22.1108"/>
<polygon fill="midnightblue" stroke="midnightblue" points="318.887,-25.4409 327.673,-19.5201 317.113,-18.6695 318.887,-25.4409"/>
</g>
<!-- Node4 -->
<g id="node4" class="node"><title>Node4</title>
<g id="a_node4"><a xlink:href="a00011.html#a3f36a139b8cf22a41850235ce3a3c88c" target="_top" xlink:title="curl_ev_add_next">
<polygon fill="none" stroke="black" points="455,-60.5 455,-79.5 548,-79.5 548,-60.5 455,-60.5"/>
<text text-anchor="middle" x="501.5" y="-67.5" font-family="Helvetica,sans-Serif" font-size="10.00">curl_ev_add_next</text>
</a>
</g>
</g>
<!-- Node3&#45;&gt;Node4 -->
<g id="edge3" class="edge"><title>Node3&#45;&gt;Node4</title>
<path fill="none" stroke="midnightblue" d="M418.772,-83.3682C427.341,-81.9665 436.24,-80.511 444.875,-79.0986"/>
<polygon fill="midnightblue" stroke="midnightblue" points="445.551,-82.5346 454.854,-77.4662 444.421,-75.6264 445.551,-82.5346"/>
</g>
<!-- Node4&#45;&gt;Node2 -->
<g id="edge4" class="edge"><title>Node4&#45;&gt;Node2</title>
<path fill="none" stroke="midnightblue" d="M454.985,-66.4429C409.075,-62.8549 337.705,-57.2772 285.468,-53.1947"/>
<polygon fill="midnightblue" stroke="midnightblue" points="285.531,-49.689 275.289,-52.3992 284.986,-56.6678 285.531,-49.689"/>
</g>
<!-- Node6 -->
<g id="node6" class="node"><title>Node6</title>
<g id="a_node6"><a xlink:href="a00012.html#adf46370d9c211c3be22966b4606ba9b0" target="_top" xlink:title="free">
<polygon fill="none" stroke="black" points="485,-0.5 485,-19.5 518,-19.5 518,-0.5 485,-0.5"/>
<text text-anchor="middle" x="501.5" y="-7.5" font-family="Helvetica,sans-Serif" font-size="10.00">free</text>
</a>
</g>
</g>
<!-- Node5&#45;&gt;Node6 -->
<g id="edge6" class="edge"><title>Node5&#45;&gt;Node6</title>
<path fill="none" stroke="midnightblue" d="M419.158,-10C438.369,-10 459.185,-10 474.951,-10"/>
<polygon fill="midnightblue" stroke="midnightblue" points="474.977,-13.5001 484.977,-10 474.977,-6.5001 474.977,-13.5001"/>
</g>
</g>
</svg>
