<?xml version="1.0" encoding="UTF-8" standalone="no"?>
<!DOCTYPE svg PUBLIC "-//W3C//DTD SVG 1.1//EN"
 "http://www.w3.org/Graphics/SVG/1.1/DTD/svg11.dtd">
<!-- Generated by graphviz version 2.38.0 (20140413.2041)
 -->
<!-- Title: hpd_device_set_attr Pages: 1 -->
<svg width="589pt" height="104pt"
 viewBox="0.00 0.00 589.00 104.00" xmlns="http://www.w3.org/2000/svg" xmlns:xlink="http://www.w3.org/1999/xlink">
<g id="graph0" class="graph" transform="scale(1 1) rotate(0) translate(4 100)">
<title>hpd_device_set_attr</title>
<!-- Node1 -->
<g id="node1" class="node"><title>Node1</title>
<polygon fill="#bfbfbf" stroke="black" points="0,-38.5 0,-57.5 104,-57.5 104,-38.5 0,-38.5"/>
<text text-anchor="middle" x="52" y="-45.5" font-family="Helvetica,sans-Serif" font-size="10.00">hpd_device_set_attr</text>
</g>
<!-- Node2 -->
<g id="node2" class="node"><title>Node2</title>
<g id="a_node2"><a xlink:href="a00078.html#a56b004be3282718fac95524a7446748c" target="_top" xlink:title="discovery_set_device_attr">
<polygon fill="none" stroke="black" points="140,-38.5 140,-57.5 271,-57.5 271,-38.5 140,-38.5"/>
<text text-anchor="middle" x="205.5" y="-45.5" font-family="Helvetica,sans-Serif" font-size="10.00">discovery_set_device_attr</text>
</a>
</g>
</g>
<!-- Node1&#45;&gt;Node2 -->
<g id="edge1" class="edge"><title>Node1&#45;&gt;Node2</title>
<path fill="none" stroke="midnightblue" d="M104.291,-48C112.497,-48 121.132,-48 129.75,-48"/>
<polygon fill="midnightblue" stroke="midnightblue" points="129.832,-51.5001 139.832,-48 129.831,-44.5001 129.832,-51.5001"/>
</g>
<!-- Node3 -->
<g id="node3" class="node"><title>Node3</title>
<g id="a_node3"><a xlink:href="a00056.html#a230c25a2f8e5de7ce61623a4ce8a809f" target="_top" xlink:title="hpd_map_set">
<polygon fill="none" stroke="black" points="307,-38.5 307,-57.5 382,-57.5 382,-38.5 307,-38.5"/>
<text text-anchor="middle" x="344.5" y="-45.5" font-family="Helvetica,sans-Serif" font-size="10.00">hpd_map_set</text>
</a>
</g>
</g>
<!-- Node2&#45;&gt;Node3 -->
<g id="edge2" class="edge"><title>Node2&#45;&gt;Node3</title>
<path fill="none" stroke="midnightblue" d="M271.389,-48C279.948,-48 288.582,-48 296.755,-48"/>
<polygon fill="midnightblue" stroke="midnightblue" points="296.82,-51.5001 306.82,-48 296.82,-44.5001 296.82,-51.5001"/>
</g>
<!-- Node4 -->
<g id="node4" class="node"><title>Node4</title>
<g id="a_node4"><a xlink:href="a00031.html#ae1085dd4fd40466d18b02ec077ef4d6d" target="_top" xlink:title="hpd_map_remove">
<polygon fill="none" stroke="black" points="418,-76.5 418,-95.5 512,-95.5 512,-76.5 418,-76.5"/>
<text text-anchor="middle" x="465" y="-83.5" font-family="Helvetica,sans-Serif" font-size="10.00">hpd_map_remove</text>
</a>
</g>
</g>
<!-- Node3&#45;&gt;Node4 -->
<g id="edge3" class="edge"><title>Node3&#45;&gt;Node4</title>
<path fill="none" stroke="midnightblue" d="M375.403,-57.589C390.279,-62.3594 408.457,-68.1888 424.467,-73.3229"/>
<polygon fill="midnightblue" stroke="midnightblue" points="423.516,-76.6932 434.107,-76.4141 425.653,-70.0276 423.516,-76.6932"/>
</g>
<!-- Node6 -->
<g id="node6" class="node"><title>Node6</title>
<g id="a_node6"><a xlink:href="a00031.html#a68e8a71a4dc9b51ca36d2389ed89b336" target="_top" xlink:title="map_insert">
<polygon fill="none" stroke="black" points="432.5,-38.5 432.5,-57.5 497.5,-57.5 497.5,-38.5 432.5,-38.5"/>
<text text-anchor="middle" x="465" y="-45.5" font-family="Helvetica,sans-Serif" font-size="10.00">map_insert</text>
</a>
</g>
</g>
<!-- Node3&#45;&gt;Node6 -->
<g id="edge5" class="edge"><title>Node3&#45;&gt;Node6</title>
<path fill="none" stroke="midnightblue" d="M382.021,-48C394.684,-48 408.981,-48 422.047,-48"/>
<polygon fill="midnightblue" stroke="midnightblue" points="422.208,-51.5001 432.208,-48 422.208,-44.5001 422.208,-51.5001"/>
</g>
<!-- Node7 -->
<g id="node7" class="node"><title>Node7</title>
<g id="a_node7"><a xlink:href="a00031.html#ac16b47a5d68b6eaae2e709e1888982fd" target="_top" xlink:title="map_replace">
<polygon fill="none" stroke="black" points="429,-0.5 429,-19.5 501,-19.5 501,-0.5 429,-0.5"/>
<text text-anchor="middle" x="465" y="-7.5" font-family="Helvetica,sans-Serif" font-size="10.00">map_replace</text>
</a>
</g>
</g>
<!-- Node3&#45;&gt;Node7 -->
<g id="edge7" class="edge"><title>Node3&#45;&gt;Node7</title>
<path fill="none" stroke="midnightblue" d="M375.403,-38.411C390.279,-33.6406 408.457,-27.8112 424.467,-22.6771"/>
<polygon fill="midnightblue" stroke="midnightblue" points="425.653,-25.9724 434.107,-19.5859 423.516,-19.3068 425.653,-25.9724"/>
</g>
<!-- Node5 -->
<g id="node5" class="node"><title>Node5</title>
<g id="a_node5"><a xlink:href="a00012.html#adf46370d9c211c3be22966b4606ba9b0" target="_top" xlink:title="free">
<polygon fill="none" stroke="black" points="548,-57.5 548,-76.5 581,-76.5 581,-57.5 548,-57.5"/>
<text text-anchor="middle" x="564.5" y="-64.5" font-family="Helvetica,sans-Serif" font-size="10.00">free</text>
</a>
</g>
</g>
<!-- Node4&#45;&gt;Node5 -->
<g id="edge4" class="edge"><title>Node4&#45;&gt;Node5</title>
<path fill="none" stroke="midnightblue" d="M512.18,-77.0008C520.978,-75.2863 529.888,-73.55 537.76,-72.016"/>
<polygon fill="midnightblue" stroke="midnightblue" points="538.596,-75.419 547.742,-70.0708 537.257,-68.5483 538.596,-75.419"/>
</g>
<!-- Node6&#45;&gt;Node5 -->
<g id="edge6" class="edge"><title>Node6&#45;&gt;Node5</title>
<path fill="none" stroke="midnightblue" d="M497.655,-54.1688C510.643,-56.6997 525.485,-59.5919 537.786,-61.989"/>
<polygon fill="midnightblue" stroke="midnightblue" points="537.346,-65.4691 547.831,-63.9465 538.685,-58.5983 537.346,-65.4691"/>
</g>
</g>
</svg>
