<?xml version="1.0" encoding="UTF-8" standalone="no"?>
<!DOCTYPE svg PUBLIC "-//W3C//DTD SVG 1.1//EN"
 "http://www.w3.org/Graphics/SVG/1.1/DTD/svg11.dtd">
<!-- Generated by graphviz version 2.38.0 (20140413.2041)
 -->
<!-- Title: discovery_set_device_attrs_v Pages: 1 -->
<svg width="596pt" height="104pt"
 viewBox="0.00 0.00 596.00 104.00" xmlns="http://www.w3.org/2000/svg" xmlns:xlink="http://www.w3.org/1999/xlink">
<g id="graph0" class="graph" transform="scale(1 1) rotate(0) translate(4 100)">
<title>discovery_set_device_attrs_v</title>
<!-- Node1 -->
<g id="node1" class="node"><title>Node1</title>
<polygon fill="#bfbfbf" stroke="black" points="0,-33 0,-63 111,-63 111,-33 0,-33"/>
<text text-anchor="start" x="8" y="-51" font-family="Helvetica,sans-Serif" font-size="10.00">discovery_set_device</text>
<text text-anchor="middle" x="55.5" y="-40" font-family="Helvetica,sans-Serif" font-size="10.00">_attrs_v</text>
</g>
<!-- Node2 -->
<g id="node2" class="node"><title>Node2</title>
<g id="a_node2"><a xlink:href="a00059.html#a56b004be3282718fac95524a7446748c" target="_top" xlink:title="discovery_set_device_attr">
<polygon fill="none" stroke="black" points="147,-38.5 147,-57.5 278,-57.5 278,-38.5 147,-38.5"/>
<text text-anchor="middle" x="212.5" y="-45.5" font-family="Helvetica,sans-Serif" font-size="10.00">discovery_set_device_attr</text>
</a>
</g>
</g>
<!-- Node1&#45;&gt;Node2 -->
<g id="edge1" class="edge"><title>Node1&#45;&gt;Node2</title>
<path fill="none" stroke="midnightblue" d="M111.147,-48C119.479,-48 128.198,-48 136.869,-48"/>
<polygon fill="midnightblue" stroke="midnightblue" points="137,-51.5001 147,-48 137,-44.5001 137,-51.5001"/>
</g>
<!-- Node3 -->
<g id="node3" class="node"><title>Node3</title>
<g id="a_node3"><a xlink:href="a00042.html#a230c25a2f8e5de7ce61623a4ce8a809f" target="_top" xlink:title="hpd_map_set">
<polygon fill="none" stroke="black" points="314,-38.5 314,-57.5 389,-57.5 389,-38.5 314,-38.5"/>
<text text-anchor="middle" x="351.5" y="-45.5" font-family="Helvetica,sans-Serif" font-size="10.00">hpd_map_set</text>
</a>
</g>
</g>
<!-- Node2&#45;&gt;Node3 -->
<g id="edge2" class="edge"><title>Node2&#45;&gt;Node3</title>
<path fill="none" stroke="midnightblue" d="M278.389,-48C286.948,-48 295.582,-48 303.755,-48"/>
<polygon fill="midnightblue" stroke="midnightblue" points="303.82,-51.5001 313.82,-48 303.82,-44.5001 303.82,-51.5001"/>
</g>
<!-- Node4 -->
<g id="node4" class="node"><title>Node4</title>
<g id="a_node4"><a xlink:href="a00022.html#ae1085dd4fd40466d18b02ec077ef4d6d" target="_top" xlink:title="hpd_map_remove">
<polygon fill="none" stroke="black" points="425,-76.5 425,-95.5 519,-95.5 519,-76.5 425,-76.5"/>
<text text-anchor="middle" x="472" y="-83.5" font-family="Helvetica,sans-Serif" font-size="10.00">hpd_map_remove</text>
</a>
</g>
</g>
<!-- Node3&#45;&gt;Node4 -->
<g id="edge3" class="edge"><title>Node3&#45;&gt;Node4</title>
<path fill="none" stroke="midnightblue" d="M382.403,-57.589C397.279,-62.3594 415.457,-68.1888 431.467,-73.3229"/>
<polygon fill="midnightblue" stroke="midnightblue" points="430.516,-76.6932 441.107,-76.4141 432.653,-70.0276 430.516,-76.6932"/>
</g>
<!-- Node6 -->
<g id="node6" class="node"><title>Node6</title>
<g id="a_node6"><a xlink:href="a00022.html#a2c93ecbbe80ca388721bf496a9460fac" target="_top" xlink:title="insert">
<polygon fill="none" stroke="black" points="451.5,-38.5 451.5,-57.5 492.5,-57.5 492.5,-38.5 451.5,-38.5"/>
<text text-anchor="middle" x="472" y="-45.5" font-family="Helvetica,sans-Serif" font-size="10.00">insert</text>
</a>
</g>
</g>
<!-- Node3&#45;&gt;Node6 -->
<g id="edge5" class="edge"><title>Node3&#45;&gt;Node6</title>
<path fill="none" stroke="midnightblue" d="M389.021,-48C405.707,-48 425.229,-48 441.035,-48"/>
<polygon fill="midnightblue" stroke="midnightblue" points="441.304,-51.5001 451.304,-48 441.304,-44.5001 441.304,-51.5001"/>
</g>
<!-- Node7 -->
<g id="node7" class="node"><title>Node7</title>
<g id="a_node7"><a xlink:href="a00022.html#a75e1f12b222f5319f70b05db93c3ee3e" target="_top" xlink:title="replace">
<polygon fill="none" stroke="black" points="448,-0.5 448,-19.5 496,-19.5 496,-0.5 448,-0.5"/>
<text text-anchor="middle" x="472" y="-7.5" font-family="Helvetica,sans-Serif" font-size="10.00">replace</text>
</a>
</g>
</g>
<!-- Node3&#45;&gt;Node7 -->
<g id="edge7" class="edge"><title>Node3&#45;&gt;Node7</title>
<path fill="none" stroke="midnightblue" d="M382.403,-38.411C399.368,-32.9707 420.628,-26.1531 438.069,-20.5602"/>
<polygon fill="midnightblue" stroke="midnightblue" points="439.382,-23.8148 447.835,-17.4283 437.244,-17.1491 439.382,-23.8148"/>
</g>
<!-- Node5 -->
<g id="node5" class="node"><title>Node5</title>
<g id="a_node5"><a xlink:href="a00006.html#adf46370d9c211c3be22966b4606ba9b0" target="_top" xlink:title="free">
<polygon fill="none" stroke="black" points="555,-57.5 555,-76.5 588,-76.5 588,-57.5 555,-57.5"/>
<text text-anchor="middle" x="571.5" y="-64.5" font-family="Helvetica,sans-Serif" font-size="10.00">free</text>
</a>
</g>
</g>
<!-- Node4&#45;&gt;Node5 -->
<g id="edge4" class="edge"><title>Node4&#45;&gt;Node5</title>
<path fill="none" stroke="midnightblue" d="M519.18,-77.0008C527.978,-75.2863 536.888,-73.55 544.76,-72.016"/>
<polygon fill="midnightblue" stroke="midnightblue" points="545.596,-75.419 554.742,-70.0708 544.257,-68.5483 545.596,-75.419"/>
</g>
<!-- Node6&#45;&gt;Node5 -->
<g id="edge6" class="edge"><title>Node6&#45;&gt;Node5</title>
<path fill="none" stroke="midnightblue" d="M492.731,-51.8449C507.794,-54.7803 528.668,-58.8482 544.998,-62.0305"/>
<polygon fill="midnightblue" stroke="midnightblue" points="544.482,-65.4955 554.967,-63.973 545.821,-58.6248 544.482,-65.4955"/>
</g>
</g>
</svg>
