<?xml version="1.0" encoding="UTF-8" standalone="no"?>
<!DOCTYPE svg PUBLIC "-//W3C//DTD SVG 1.1//EN"
 "http://www.w3.org/Graphics/SVG/1.1/DTD/svg11.dtd">
<!-- Generated by graphviz version 2.38.0 (20140413.2041)
 -->
<!-- Title: rest_on_response Pages: 1 -->
<svg width="349pt" height="28pt"
 viewBox="0.00 0.00 349.00 28.00" xmlns="http://www.w3.org/2000/svg" xmlns:xlink="http://www.w3.org/1999/xlink">
<g id="graph0" class="graph" transform="scale(1 1) rotate(0) translate(4 24)">
<title>rest_on_response</title>
<!-- Node1 -->
<g id="node1" class="node"><title>Node1</title>
<polygon fill="#bfbfbf" stroke="black" points="0,-0.5 0,-19.5 94,-19.5 94,-0.5 0,-0.5"/>
<text text-anchor="middle" x="47" y="-7.5" font-family="Helvetica,sans-Serif" font-size="10.00">rest_on_response</text>
</g>
<!-- Node2 -->
<g id="node2" class="node"><title>Node2</title>
<g id="a_node2"><a xlink:href="a00034.html#a1ef7ff8e866ae31ab0edb443eb4777a1" target="_top" xlink:title="rest_on_req_cmpl">
<polygon fill="none" stroke="black" points="130,-0.5 130,-19.5 224,-19.5 224,-0.5 130,-0.5"/>
<text text-anchor="middle" x="177" y="-7.5" font-family="Helvetica,sans-Serif" font-size="10.00">rest_on_req_cmpl</text>
</a>
</g>
</g>
<!-- Node1&#45;&gt;Node2 -->
<g id="edge1" class="edge"><title>Node1&#45;&gt;Node2</title>
<path fill="none" stroke="midnightblue" d="M104.442,-10C112.937,-10 121.612,-10 129.857,-10"/>
<polygon fill="midnightblue" stroke="midnightblue" points="104.211,-6.5001 94.2109,-10 104.211,-13.5001 104.211,-6.5001"/>
</g>
<!-- Node3 -->
<g id="node3" class="node"><title>Node3</title>
<g id="a_node3"><a xlink:href="a00034.html#a02090c3feb19ea4c6e1fa9b5e6392752" target="_top" xlink:title="rest_on_create">
<polygon fill="none" stroke="black" points="260,-0.5 260,-19.5 341,-19.5 341,-0.5 260,-0.5"/>
<text text-anchor="middle" x="300.5" y="-7.5" font-family="Helvetica,sans-Serif" font-size="10.00">rest_on_create</text>
</a>
</g>
</g>
<!-- Node2&#45;&gt;Node3 -->
<g id="edge2" class="edge"><title>Node2&#45;&gt;Node3</title>
<path fill="none" stroke="midnightblue" d="M234.544,-10C243.04,-10 251.646,-10 259.694,-10"/>
<polygon fill="midnightblue" stroke="midnightblue" points="234.281,-6.5001 224.281,-10 234.281,-13.5001 234.281,-6.5001"/>
</g>
</g>
</svg>
