<?xml version="1.0" encoding="UTF-8" standalone="no"?>
<!DOCTYPE svg PUBLIC "-//W3C//DTD SVG 1.1//EN"
 "http://www.w3.org/Graphics/SVG/1.1/DTD/svg11.dtd">
<!-- Generated by graphviz version 2.38.0 (20140413.2041)
 -->
<!-- Title: hpd_map_remove Pages: 1 -->
<svg width="1050pt" height="1175pt"
 viewBox="0.00 0.00 1050.00 1175.00" xmlns="http://www.w3.org/2000/svg" xmlns:xlink="http://www.w3.org/1999/xlink">
<g id="graph0" class="graph" transform="scale(1 1) rotate(0) translate(4 1171)">
<title>hpd_map_remove</title>
<!-- Node1 -->
<g id="node1" class="node"><title>Node1</title>
<polygon fill="#bfbfbf" stroke="black" points="0,-964.5 0,-983.5 94,-983.5 94,-964.5 0,-964.5"/>
<text text-anchor="middle" x="47" y="-971.5" font-family="Helvetica,sans-Serif" font-size="10.00">hpd_map_remove</text>
</g>
<!-- Node2 -->
<g id="node2" class="node"><title>Node2</title>
<g id="a_node2"><a xlink:href="a00031.html#a195d511a075f2349200563af1c5d1fd7" target="_top" xlink:title="hpd_map_free">
<polygon fill="none" stroke="black" points="134,-964.5 134,-983.5 212,-983.5 212,-964.5 134,-964.5"/>
<text text-anchor="middle" x="173" y="-971.5" font-family="Helvetica,sans-Serif" font-size="10.00">hpd_map_free</text>
</a>
</g>
</g>
<!-- Node1&#45;&gt;Node2 -->
<g id="edge1" class="edge"><title>Node1&#45;&gt;Node2</title>
<path fill="none" stroke="midnightblue" d="M104.449,-974C114.419,-974 124.582,-974 133.895,-974"/>
<polygon fill="midnightblue" stroke="midnightblue" points="104.173,-970.5 94.173,-974 104.173,-977.5 104.173,-970.5"/>
</g>
<!-- Node32 -->
<g id="node32" class="node"><title>Node32</title>
<g id="a_node32"><a xlink:href="a00031.html#a230c25a2f8e5de7ce61623a4ce8a809f" target="_top" xlink:title="hpd_map_set">
<polygon fill="none" stroke="black" points="135.5,-242.5 135.5,-261.5 210.5,-261.5 210.5,-242.5 135.5,-242.5"/>
<text text-anchor="middle" x="173" y="-249.5" font-family="Helvetica,sans-Serif" font-size="10.00">hpd_map_set</text>
</a>
</g>
</g>
<!-- Node1&#45;&gt;Node32 -->
<g id="edge39" class="edge"><title>Node1&#45;&gt;Node32</title>
<path fill="none" stroke="midnightblue" d="M51.3863,-954.283C69.7671,-847.259 157.211,-338.107 170.347,-261.626"/>
<polygon fill="midnightblue" stroke="midnightblue" points="47.9024,-953.891 49.6591,-964.34 54.8014,-955.076 47.9024,-953.891"/>
</g>
<!-- Node48 -->
<g id="node48" class="node"><title>Node48</title>
<g id="a_node48"><a xlink:href="a00031.html#a6d8c24cdcb1535f26a772f00d90aecec" target="_top" xlink:title="hpd_map_set_n">
<polygon fill="none" stroke="black" points="130,-1065.5 130,-1084.5 216,-1084.5 216,-1065.5 130,-1065.5"/>
<text text-anchor="middle" x="173" y="-1072.5" font-family="Helvetica,sans-Serif" font-size="10.00">hpd_map_set_n</text>
</a>
</g>
</g>
<!-- Node1&#45;&gt;Node48 -->
<g id="edge56" class="edge"><title>Node1&#45;&gt;Node48</title>
<path fill="none" stroke="midnightblue" d="M67.9757,-990.27C94.1319,-1011.58 139.14,-1048.24 160.327,-1065.49"/>
<polygon fill="midnightblue" stroke="midnightblue" points="69.8535,-987.286 59.8896,-983.684 65.4328,-992.713 69.8535,-987.286"/>
</g>
<!-- Node3 -->
<g id="node3" class="node"><title>Node3</title>
<g id="a_node3"><a xlink:href="a00049.html#aa1cd13c07d2d143d8a989a651a57e497" target="_top" xlink:title="Destroy a ws_request. ">
<polygon fill="none" stroke="black" points="271,-1147.5 271,-1166.5 379,-1166.5 379,-1147.5 271,-1147.5"/>
<text text-anchor="middle" x="325" y="-1154.5" font-family="Helvetica,sans-Serif" font-size="10.00">http_request_destroy</text>
</a>
</g>
</g>
<!-- Node2&#45;&gt;Node3 -->
<g id="edge2" class="edge"><title>Node2&#45;&gt;Node3</title>
<path fill="none" stroke="midnightblue" d="M183.933,-992.609C192.653,-1009.13 205.541,-1033.99 216,-1056 233.08,-1091.95 221.752,-1112.13 252,-1138 257.502,-1142.71 264.042,-1146.26 270.903,-1148.95"/>
<polygon fill="midnightblue" stroke="midnightblue" points="186.88,-990.695 179.101,-983.502 180.696,-993.976 186.88,-990.695"/>
</g>
<!-- Node8 -->
<g id="node8" class="node"><title>Node8</title>
<g id="a_node8"><a xlink:href="a00020.html#aec714553397f80039bf246b3b0800420" target="_top" xlink:title="discovery_free_adapter">
<polygon fill="none" stroke="black" points="761,-1021.5 761,-1040.5 879,-1040.5 879,-1021.5 761,-1021.5"/>
<text text-anchor="middle" x="820" y="-1028.5" font-family="Helvetica,sans-Serif" font-size="10.00">discovery_free_adapter</text>
</a>
</g>
</g>
<!-- Node2&#45;&gt;Node8 -->
<g id="edge8" class="edge"><title>Node2&#45;&gt;Node8</title>
<path fill="none" stroke="midnightblue" d="M211.923,-986.448C224.542,-990.118 238.756,-993.75 252,-996 436.011,-1027.26 657.826,-1031.43 760.988,-1031.48"/>
<polygon fill="midnightblue" stroke="midnightblue" points="212.778,-983.051 202.193,-983.523 210.762,-989.754 212.778,-983.051"/>
</g>
<!-- Node12 -->
<g id="node12" class="node"><title>Node12</title>
<g id="a_node12"><a xlink:href="a00020.html#a3c72fb9020b183238e0205b722d7ea95" target="_top" xlink:title="discovery_free_device">
<polygon fill="none" stroke="black" points="606.5,-983.5 606.5,-1002.5 720.5,-1002.5 720.5,-983.5 606.5,-983.5"/>
<text text-anchor="middle" x="663.5" y="-990.5" font-family="Helvetica,sans-Serif" font-size="10.00">discovery_free_device</text>
</a>
</g>
</g>
<!-- Node2&#45;&gt;Node12 -->
<g id="edge12" class="edge"><title>Node2&#45;&gt;Node12</title>
<path fill="none" stroke="midnightblue" d="M222.149,-977.313C232.02,-977.928 242.343,-978.526 252,-979 378.599,-985.215 527.297,-989.549 606.371,-991.618"/>
<polygon fill="midnightblue" stroke="midnightblue" points="222.276,-973.814 212.073,-976.669 221.83,-980.8 222.276,-973.814"/>
</g>
<!-- Node15 -->
<g id="node15" class="node"><title>Node15</title>
<g id="a_node15"><a xlink:href="a00020.html#a562bd655fd329da0289d21ec36973322" target="_top" xlink:title="discovery_free_service">
<polygon fill="none" stroke="black" points="442,-945.5 442,-964.5 559,-964.5 559,-945.5 442,-945.5"/>
<text text-anchor="middle" x="500.5" y="-952.5" font-family="Helvetica,sans-Serif" font-size="10.00">discovery_free_service</text>
</a>
</g>
</g>
<!-- Node2&#45;&gt;Node15 -->
<g id="edge16" class="edge"><title>Node2&#45;&gt;Node15</title>
<path fill="none" stroke="midnightblue" d="M222.399,-971.175C280.975,-967.756 379.5,-962.005 441.922,-958.361"/>
<polygon fill="midnightblue" stroke="midnightblue" points="222.075,-967.688 212.296,-971.765 222.483,-974.676 222.075,-967.688"/>
</g>
<!-- Node18 -->
<g id="node18" class="node"><title>Node18</title>
<g id="a_node18"><a xlink:href="a00020.html#ad18143d06649d9220e4fd8d74dbdec79" target="_top" xlink:title="discovery_free_parameter">
<polygon fill="none" stroke="black" points="260.5,-907.5 260.5,-926.5 389.5,-926.5 389.5,-907.5 260.5,-907.5"/>
<text text-anchor="middle" x="325" y="-914.5" font-family="Helvetica,sans-Serif" font-size="10.00">discovery_free_parameter</text>
</a>
</g>
</g>
<!-- Node2&#45;&gt;Node18 -->
<g id="edge20" class="edge"><title>Node2&#45;&gt;Node18</title>
<path fill="none" stroke="midnightblue" d="M204.687,-960.36C218.966,-954.183 236.241,-946.95 252,-941 265.56,-935.881 280.76,-930.73 293.687,-926.519"/>
<polygon fill="midnightblue" stroke="midnightblue" points="203.104,-957.232 195.337,-964.438 205.902,-963.648 203.104,-957.232"/>
</g>
<!-- Node21 -->
<g id="node21" class="node"><title>Node21</title>
<g id="a_node21"><a xlink:href="a00091.html#a1ec3b1d4547e5080bcec544c877852da" target="_top" xlink:title="value_free">
<polygon fill="none" stroke="black" points="294,-673.5 294,-692.5 356,-692.5 356,-673.5 294,-673.5"/>
<text text-anchor="middle" x="325" y="-680.5" font-family="Helvetica,sans-Serif" font-size="10.00">value_free</text>
</a>
</g>
</g>
<!-- Node2&#45;&gt;Node21 -->
<g id="edge24" class="edge"><title>Node2&#45;&gt;Node21</title>
<path fill="none" stroke="midnightblue" d="M183.71,-955.162C212.622,-899.073 297.466,-734.475 318.99,-692.718"/>
<polygon fill="midnightblue" stroke="midnightblue" points="180.462,-953.826 178.991,-964.318 186.684,-957.033 180.462,-953.826"/>
</g>
<!-- Node4 -->
<g id="node4" class="node"><title>Node4</title>
<g id="a_node4"><a xlink:href="a00024.html#ae4d4180d5b5dbc0a54bc3f5fddc0daee" target="_top" xlink:title="Callback for tcpd library. ">
<polygon fill="none" stroke="black" points="610,-1147.5 610,-1166.5 717,-1166.5 717,-1147.5 610,-1147.5"/>
<text text-anchor="middle" x="663.5" y="-1154.5" font-family="Helvetica,sans-Serif" font-size="10.00">httpd_on_disconnect</text>
</a>
</g>
</g>
<!-- Node3&#45;&gt;Node4 -->
<g id="edge3" class="edge"><title>Node3&#45;&gt;Node4</title>
<path fill="none" stroke="midnightblue" d="M389.65,-1157C453.433,-1157 550.457,-1157 609.984,-1157"/>
<polygon fill="midnightblue" stroke="midnightblue" points="389.319,-1153.5 379.319,-1157 389.319,-1160.5 389.319,-1153.5"/>
</g>
<!-- Node6 -->
<g id="node6" class="node"><title>Node6</title>
<g id="a_node6"><a xlink:href="a00049.html#a2b7dc9cb81835f2befb01fda20cc484c" target="_top" xlink:title="Create a new ws_request. ">
<polygon fill="none" stroke="black" points="449,-1109.5 449,-1128.5 552,-1128.5 552,-1109.5 449,-1109.5"/>
<text text-anchor="middle" x="500.5" y="-1116.5" font-family="Helvetica,sans-Serif" font-size="10.00">http_request_create</text>
</a>
</g>
</g>
<!-- Node3&#45;&gt;Node6 -->
<g id="edge5" class="edge"><title>Node3&#45;&gt;Node6</title>
<path fill="none" stroke="midnightblue" d="M379.66,-1145.25C404.193,-1139.87 432.879,-1133.59 456.033,-1128.52"/>
<polygon fill="midnightblue" stroke="midnightblue" points="378.801,-1141.85 369.781,-1147.41 380.299,-1148.69 378.801,-1141.85"/>
</g>
<!-- Node5 -->
<g id="node5" class="node"><title>Node5</title>
<g id="a_node5"><a xlink:href="a00024.html#a1c01ae677a68d0a11edfd93c4aae4929" target="_top" xlink:title="Create a new httpd instance. ">
<polygon fill="none" stroke="red" points="774,-1128.5 774,-1147.5 866,-1147.5 866,-1128.5 774,-1128.5"/>
<text text-anchor="middle" x="820" y="-1135.5" font-family="Helvetica,sans-Serif" font-size="10.00">hpd_httpd_create</text>
</a>
</g>
</g>
<!-- Node4&#45;&gt;Node5 -->
<g id="edge4" class="edge"><title>Node4&#45;&gt;Node5</title>
<path fill="none" stroke="midnightblue" d="M727.354,-1149.27C742.97,-1147.35 759.399,-1145.33 773.966,-1143.54"/>
<polygon fill="midnightblue" stroke="midnightblue" points="726.736,-1145.82 717.238,-1150.51 727.59,-1152.77 726.736,-1145.82"/>
</g>
<!-- Node7 -->
<g id="node7" class="node"><title>Node7</title>
<g id="a_node7"><a xlink:href="a00024.html#a117b36b86e1c36650012fe6224aadead" target="_top" xlink:title="Callback for tcpd library. ">
<polygon fill="none" stroke="black" points="616.5,-1109.5 616.5,-1128.5 710.5,-1128.5 710.5,-1109.5 616.5,-1109.5"/>
<text text-anchor="middle" x="663.5" y="-1116.5" font-family="Helvetica,sans-Serif" font-size="10.00">httpd_on_connect</text>
</a>
</g>
</g>
<!-- Node6&#45;&gt;Node7 -->
<g id="edge6" class="edge"><title>Node6&#45;&gt;Node7</title>
<path fill="none" stroke="midnightblue" d="M562.718,-1119C580.481,-1119 599.575,-1119 616.256,-1119"/>
<polygon fill="midnightblue" stroke="midnightblue" points="562.441,-1115.5 552.441,-1119 562.441,-1122.5 562.441,-1115.5"/>
</g>
<!-- Node7&#45;&gt;Node5 -->
<g id="edge7" class="edge"><title>Node7&#45;&gt;Node5</title>
<path fill="none" stroke="midnightblue" d="M720.89,-1125.93C738.282,-1128.07 757.2,-1130.4 773.741,-1132.43"/>
<polygon fill="midnightblue" stroke="midnightblue" points="721.208,-1122.45 710.855,-1124.7 720.353,-1129.4 721.208,-1122.45"/>
</g>
<!-- Node9 -->
<g id="node9" class="node"><title>Node9</title>
<g id="a_node9"><a xlink:href="a00076.html#a015919d95dc08af72eaa0663e65eaf2e" target="_top" xlink:title="daemon_runtime_destroy">
<polygon fill="none" stroke="red" points="916,-1059.5 916,-1078.5 1042,-1078.5 1042,-1059.5 916,-1059.5"/>
<text text-anchor="middle" x="979" y="-1066.5" font-family="Helvetica,sans-Serif" font-size="10.00">daemon_runtime_destroy</text>
</a>
</g>
</g>
<!-- Node8&#45;&gt;Node9 -->
<g id="edge9" class="edge"><title>Node8&#45;&gt;Node9</title>
<path fill="none" stroke="midnightblue" d="M870.447,-1042.97C892.448,-1048.29 917.994,-1054.48 938.667,-1059.48"/>
<polygon fill="midnightblue" stroke="midnightblue" points="871.16,-1039.54 860.618,-1040.59 869.514,-1046.34 871.16,-1039.54"/>
</g>
<!-- Node10 -->
<g id="node10" class="node"><title>Node10</title>
<g id="a_node10"><a xlink:href="a00020.html#a3c736bc96933454ab82040c3617275a3" target="_top" xlink:title="discovery_alloc_adapter">
<polygon fill="none" stroke="red" points="918,-1021.5 918,-1040.5 1040,-1040.5 1040,-1021.5 918,-1021.5"/>
<text text-anchor="middle" x="979" y="-1028.5" font-family="Helvetica,sans-Serif" font-size="10.00">discovery_alloc_adapter</text>
</a>
</g>
</g>
<!-- Node8&#45;&gt;Node10 -->
<g id="edge10" class="edge"><title>Node8&#45;&gt;Node10</title>
<path fill="none" stroke="midnightblue" d="M889.243,-1031C898.768,-1031 908.497,-1031 917.858,-1031"/>
<polygon fill="midnightblue" stroke="midnightblue" points="889.015,-1027.5 879.015,-1031 889.015,-1034.5 889.015,-1027.5"/>
</g>
<!-- Node11 -->
<g id="node11" class="node"><title>Node11</title>
<g id="a_node11"><a xlink:href="a00079.html#a0a2b0d9eef603396a0171d5b0c67bbbf" target="_top" xlink:title="hpd_adapter_free">
<polygon fill="none" stroke="red" points="933,-983.5 933,-1002.5 1025,-1002.5 1025,-983.5 933,-983.5"/>
<text text-anchor="middle" x="979" y="-990.5" font-family="Helvetica,sans-Serif" font-size="10.00">hpd_adapter_free</text>
</a>
</g>
</g>
<!-- Node8&#45;&gt;Node11 -->
<g id="edge11" class="edge"><title>Node8&#45;&gt;Node11</title>
<path fill="none" stroke="midnightblue" d="M870.447,-1019.03C892.448,-1013.71 917.994,-1007.52 938.667,-1002.52"/>
<polygon fill="midnightblue" stroke="midnightblue" points="869.514,-1015.66 860.618,-1021.41 871.16,-1022.46 869.514,-1015.66"/>
</g>
<!-- Node12&#45;&gt;Node8 -->
<g id="edge14" class="edge"><title>Node12&#45;&gt;Node8</title>
<path fill="none" stroke="midnightblue" d="M713.452,-1005.04C735.036,-1010.35 760.041,-1016.5 780.293,-1021.48"/>
<polygon fill="midnightblue" stroke="midnightblue" points="714.033,-1001.58 703.487,-1002.59 712.362,-1008.38 714.033,-1001.58"/>
</g>
<!-- Node13 -->
<g id="node13" class="node"><title>Node13</title>
<g id="a_node13"><a xlink:href="a00020.html#a9f30460be089f53c8d995635aedc1097" target="_top" xlink:title="discovery_alloc_device">
<polygon fill="none" stroke="red" points="761,-983.5 761,-1002.5 879,-1002.5 879,-983.5 761,-983.5"/>
<text text-anchor="middle" x="820" y="-990.5" font-family="Helvetica,sans-Serif" font-size="10.00">discovery_alloc_device</text>
</a>
</g>
</g>
<!-- Node12&#45;&gt;Node13 -->
<g id="edge13" class="edge"><title>Node12&#45;&gt;Node13</title>
<path fill="none" stroke="midnightblue" d="M730.936,-993C740.855,-993 751.017,-993 760.749,-993"/>
<polygon fill="midnightblue" stroke="midnightblue" points="730.715,-989.5 720.715,-993 730.715,-996.5 730.715,-989.5"/>
</g>
<!-- Node14 -->
<g id="node14" class="node"><title>Node14</title>
<g id="a_node14"><a xlink:href="a00079.html#a7b20f2cfe2e46cdbfe4112b95922446b" target="_top" xlink:title="hpd_device_free">
<polygon fill="none" stroke="red" points="776,-945.5 776,-964.5 864,-964.5 864,-945.5 776,-945.5"/>
<text text-anchor="middle" x="820" y="-952.5" font-family="Helvetica,sans-Serif" font-size="10.00">hpd_device_free</text>
</a>
</g>
</g>
<!-- Node12&#45;&gt;Node14 -->
<g id="edge15" class="edge"><title>Node12&#45;&gt;Node14</title>
<path fill="none" stroke="midnightblue" d="M713.452,-980.96C735.036,-975.651 760.041,-969.501 780.293,-964.52"/>
<polygon fill="midnightblue" stroke="midnightblue" points="712.362,-977.624 703.487,-983.411 714.033,-984.421 712.362,-977.624"/>
</g>
<!-- Node15&#45;&gt;Node12 -->
<g id="edge18" class="edge"><title>Node15&#45;&gt;Node12</title>
<path fill="none" stroke="midnightblue" d="M551.902,-966.896C574.532,-972.237 600.87,-978.454 622.165,-983.48"/>
<polygon fill="midnightblue" stroke="midnightblue" points="552.664,-963.48 542.127,-964.589 551.056,-970.293 552.664,-963.48"/>
</g>
<!-- Node16 -->
<g id="node16" class="node"><title>Node16</title>
<g id="a_node16"><a xlink:href="a00020.html#a9ac69d02cab7b0cff5d24b6eed07ca8d" target="_top" xlink:title="discovery_alloc_service">
<polygon fill="none" stroke="red" points="603,-945.5 603,-964.5 724,-964.5 724,-945.5 603,-945.5"/>
<text text-anchor="middle" x="663.5" y="-952.5" font-family="Helvetica,sans-Serif" font-size="10.00">discovery_alloc_service</text>
</a>
</g>
</g>
<!-- Node15&#45;&gt;Node16 -->
<g id="edge17" class="edge"><title>Node15&#45;&gt;Node16</title>
<path fill="none" stroke="midnightblue" d="M569.275,-955C580.407,-955 591.872,-955 602.79,-955"/>
<polygon fill="midnightblue" stroke="midnightblue" points="569.17,-951.5 559.17,-955 569.17,-958.5 569.17,-951.5"/>
</g>
<!-- Node17 -->
<g id="node17" class="node"><title>Node17</title>
<g id="a_node17"><a xlink:href="a00079.html#acebc47c8796cb46b14899df696fae147" target="_top" xlink:title="hpd_service_free">
<polygon fill="none" stroke="red" points="618,-907.5 618,-926.5 709,-926.5 709,-907.5 618,-907.5"/>
<text text-anchor="middle" x="663.5" y="-914.5" font-family="Helvetica,sans-Serif" font-size="10.00">hpd_service_free</text>
</a>
</g>
</g>
<!-- Node15&#45;&gt;Node17 -->
<g id="edge19" class="edge"><title>Node15&#45;&gt;Node17</title>
<path fill="none" stroke="midnightblue" d="M551.902,-943.104C574.532,-937.763 600.87,-931.546 622.165,-926.52"/>
<polygon fill="midnightblue" stroke="midnightblue" points="551.056,-939.707 542.127,-945.411 552.664,-946.52 551.056,-939.707"/>
</g>
<!-- Node18&#45;&gt;Node15 -->
<g id="edge22" class="edge"><title>Node18&#45;&gt;Node15</title>
<path fill="none" stroke="midnightblue" d="M379.66,-928.753C404.193,-934.126 432.879,-940.409 456.033,-945.48"/>
<polygon fill="midnightblue" stroke="midnightblue" points="380.299,-925.31 369.781,-926.589 378.801,-932.148 380.299,-925.31"/>
</g>
<!-- Node19 -->
<g id="node19" class="node"><title>Node19</title>
<g id="a_node19"><a xlink:href="a00020.html#a3f84f32d27f7748c7fb9b0dbf24e4dc4" target="_top" xlink:title="discovery_alloc_parameter">
<polygon fill="none" stroke="red" points="434,-907.5 434,-926.5 567,-926.5 567,-907.5 434,-907.5"/>
<text text-anchor="middle" x="500.5" y="-914.5" font-family="Helvetica,sans-Serif" font-size="10.00">discovery_alloc_parameter</text>
</a>
</g>
</g>
<!-- Node18&#45;&gt;Node19 -->
<g id="edge21" class="edge"><title>Node18&#45;&gt;Node19</title>
<path fill="none" stroke="midnightblue" d="M399.881,-917C411.169,-917 422.755,-917 433.851,-917"/>
<polygon fill="midnightblue" stroke="midnightblue" points="399.62,-913.5 389.62,-917 399.62,-920.5 399.62,-913.5"/>
</g>
<!-- Node20 -->
<g id="node20" class="node"><title>Node20</title>
<g id="a_node20"><a xlink:href="a00079.html#ad8c6360b9faf931207a84a045e44b858" target="_top" xlink:title="hpd_parameter_free">
<polygon fill="none" stroke="red" points="449,-869.5 449,-888.5 552,-888.5 552,-869.5 449,-869.5"/>
<text text-anchor="middle" x="500.5" y="-876.5" font-family="Helvetica,sans-Serif" font-size="10.00">hpd_parameter_free</text>
</a>
</g>
</g>
<!-- Node18&#45;&gt;Node20 -->
<g id="edge23" class="edge"><title>Node18&#45;&gt;Node20</title>
<path fill="none" stroke="midnightblue" d="M379.66,-905.247C404.193,-899.874 432.879,-893.591 456.033,-888.52"/>
<polygon fill="midnightblue" stroke="midnightblue" points="378.801,-901.852 369.781,-907.411 380.299,-908.69 378.801,-901.852"/>
</g>
<!-- Node22 -->
<g id="node22" class="node"><title>Node22</title>
<g id="a_node22"><a xlink:href="a00076.html#a6d045a0ff8f14cb475c43d4fab3cc0a5" target="_top" xlink:title="daemon_watchers_stop">
<polygon fill="none" stroke="red" points="760,-793.5 760,-812.5 880,-812.5 880,-793.5 760,-793.5"/>
<text text-anchor="middle" x="820" y="-800.5" font-family="Helvetica,sans-Serif" font-size="10.00">daemon_watchers_stop</text>
</a>
</g>
</g>
<!-- Node21&#45;&gt;Node22 -->
<g id="edge25" class="edge"><title>Node21&#45;&gt;Node22</title>
<path fill="none" stroke="midnightblue" d="M334.151,-702.44C348.748,-734.374 382.704,-796.896 434,-822 556.323,-881.864 727.453,-834.547 792.499,-812.623"/>
<polygon fill="midnightblue" stroke="midnightblue" points="337.176,-700.625 329.945,-692.881 330.769,-703.443 337.176,-700.625"/>
</g>
<!-- Node23 -->
<g id="node23" class="node"><title>Node23</title>
<g id="a_node23"><a xlink:href="a00081.html#a44622fe1ec10738603492e32d11573d7" target="_top" xlink:title="event_on_changed">
<polygon fill="none" stroke="red" points="451.5,-717.5 451.5,-736.5 549.5,-736.5 549.5,-717.5 451.5,-717.5"/>
<text text-anchor="middle" x="500.5" y="-724.5" font-family="Helvetica,sans-Serif" font-size="10.00">event_on_changed</text>
</a>
</g>
</g>
<!-- Node21&#45;&gt;Node23 -->
<g id="edge26" class="edge"><title>Node21&#45;&gt;Node23</title>
<path fill="none" stroke="midnightblue" d="M365.975,-693.138C394.802,-700.448 433.459,-710.252 461.76,-717.429"/>
<polygon fill="midnightblue" stroke="midnightblue" points="366.775,-689.73 356.221,-690.664 365.054,-696.515 366.775,-689.73"/>
</g>
<!-- Node24 -->
<g id="node24" class="node"><title>Node24</title>
<g id="a_node24"><a xlink:href="a00088.html#adc90843b331f5522a8d08d6e4219e126" target="_top" xlink:title="request_free_request">
<polygon fill="none" stroke="red" points="446.5,-793.5 446.5,-812.5 554.5,-812.5 554.5,-793.5 446.5,-793.5"/>
<text text-anchor="middle" x="500.5" y="-800.5" font-family="Helvetica,sans-Serif" font-size="10.00">request_free_request</text>
</a>
</g>
</g>
<!-- Node21&#45;&gt;Node24 -->
<g id="edge27" class="edge"><title>Node21&#45;&gt;Node24</title>
<path fill="none" stroke="midnightblue" d="M341.544,-700.343C361.252,-721.436 397.125,-756.95 434,-779 443.875,-784.905 455.44,-789.732 466.082,-793.469"/>
<polygon fill="midnightblue" stroke="midnightblue" points="343.929,-697.765 334.586,-692.77 338.775,-702.502 343.929,-697.765"/>
</g>
<!-- Node25 -->
<g id="node25" class="node"><title>Node25</title>
<g id="a_node25"><a xlink:href="a00088.html#a2477fb8cf085cc2b61dbfacdcdc54b82" target="_top" xlink:title="request_free_response">
<polygon fill="none" stroke="red" points="605.5,-755.5 605.5,-774.5 721.5,-774.5 721.5,-755.5 605.5,-755.5"/>
<text text-anchor="middle" x="663.5" y="-762.5" font-family="Helvetica,sans-Serif" font-size="10.00">request_free_response</text>
</a>
</g>
</g>
<!-- Node21&#45;&gt;Node25 -->
<g id="edge32" class="edge"><title>Node21&#45;&gt;Node25</title>
<path fill="none" stroke="midnightblue" d="M346.15,-698.491C366.917,-713.521 400.851,-735.545 434,-746 490.376,-763.781 558.235,-767.326 605.285,-767.169"/>
<polygon fill="midnightblue" stroke="midnightblue" points="348.216,-695.667 338.096,-692.532 344.053,-701.294 348.216,-695.667"/>
</g>
<!-- Node26 -->
<g id="node26" class="node"><title>Node26</title>
<g id="a_node26"><a xlink:href="a00088.html#a12445e4337da47f3a741748f20c1736e" target="_top" xlink:title="request_set_request\l_value">
<polygon fill="none" stroke="red" points="448,-668 448,-698 553,-698 553,-668 448,-668"/>
<text text-anchor="start" x="456" y="-686" font-family="Helvetica,sans-Serif" font-size="10.00">request_set_request</text>
<text text-anchor="middle" x="500.5" y="-675" font-family="Helvetica,sans-Serif" font-size="10.00">_value</text>
</a>
</g>
</g>
<!-- Node21&#45;&gt;Node26 -->
<g id="edge31" class="edge"><title>Node21&#45;&gt;Node26</title>
<path fill="none" stroke="midnightblue" d="M366.509,-683C390.777,-683 421.868,-683 447.885,-683"/>
<polygon fill="midnightblue" stroke="midnightblue" points="366.221,-679.5 356.221,-683 366.221,-686.5 366.221,-679.5"/>
</g>
<!-- Node27 -->
<g id="node27" class="node"><title>Node27</title>
<g id="a_node27"><a xlink:href="a00088.html#a2e2a34ba3b39d7bebfd5971943c4df25" target="_top" xlink:title="request_set_response\l_value">
<polygon fill="none" stroke="red" points="444,-619 444,-649 557,-649 557,-619 444,-619"/>
<text text-anchor="start" x="452" y="-637" font-family="Helvetica,sans-Serif" font-size="10.00">request_set_response</text>
<text text-anchor="middle" x="500.5" y="-626" font-family="Helvetica,sans-Serif" font-size="10.00">_value</text>
</a>
</g>
</g>
<!-- Node21&#45;&gt;Node27 -->
<g id="edge33" class="edge"><title>Node21&#45;&gt;Node27</title>
<path fill="none" stroke="midnightblue" d="M365.982,-671.708C389.793,-664.984 420.308,-656.365 446.154,-649.066"/>
<polygon fill="midnightblue" stroke="midnightblue" points="364.894,-668.379 356.221,-674.465 366.796,-675.115 364.894,-668.379"/>
</g>
<!-- Node28 -->
<g id="node28" class="node"><title>Node28</title>
<g id="a_node28"><a xlink:href="a00091.html#a9e0cbc30fcd2121d212f1995c8e834ba" target="_top" xlink:title="value_alloc">
<polygon fill="none" stroke="red" points="468,-542.5 468,-561.5 533,-561.5 533,-542.5 468,-542.5"/>
<text text-anchor="middle" x="500.5" y="-549.5" font-family="Helvetica,sans-Serif" font-size="10.00">value_alloc</text>
</a>
</g>
</g>
<!-- Node21&#45;&gt;Node28 -->
<g id="edge34" class="edge"><title>Node21&#45;&gt;Node28</title>
<path fill="none" stroke="midnightblue" d="M339.7,-665.31C358.625,-641.942 394.886,-600.85 434,-576 444.325,-569.441 456.698,-564.321 467.896,-560.527"/>
<polygon fill="midnightblue" stroke="midnightblue" points="336.81,-663.321 333.326,-673.327 342.289,-667.678 336.81,-663.321"/>
</g>
<!-- Node29 -->
<g id="node29" class="node"><title>Node29</title>
<g id="a_node29"><a xlink:href="a00091.html#acb46c0254b5e6856197be334a0a058ad" target="_top" xlink:title="value_copy">
<polygon fill="none" stroke="red" points="630.5,-542.5 630.5,-561.5 696.5,-561.5 696.5,-542.5 630.5,-542.5"/>
<text text-anchor="middle" x="663.5" y="-549.5" font-family="Helvetica,sans-Serif" font-size="10.00">value_copy</text>
</a>
</g>
</g>
<!-- Node21&#45;&gt;Node29 -->
<g id="edge37" class="edge"><title>Node21&#45;&gt;Node29</title>
<path fill="none" stroke="midnightblue" d="M345.121,-666.736C365.772,-649.961 400.262,-624.171 434,-609 469.052,-593.238 575.853,-569.886 630.118,-558.592"/>
<polygon fill="midnightblue" stroke="midnightblue" points="342.638,-664.247 337.16,-673.316 347.098,-669.643 342.638,-664.247"/>
</g>
<!-- Node30 -->
<g id="node30" class="node"><title>Node30</title>
<g id="a_node30"><a xlink:href="a00091.html#adeb75caf64a60f64199894b007586f88" target="_top" xlink:title="value_vallocf">
<polygon fill="none" stroke="red" points="463.5,-504.5 463.5,-523.5 537.5,-523.5 537.5,-504.5 463.5,-504.5"/>
<text text-anchor="middle" x="500.5" y="-511.5" font-family="Helvetica,sans-Serif" font-size="10.00">value_vallocf</text>
</a>
</g>
</g>
<!-- Node21&#45;&gt;Node30 -->
<g id="edge36" class="edge"><title>Node21&#45;&gt;Node30</title>
<path fill="none" stroke="midnightblue" d="M334.455,-664.076C349.686,-632.161 384.792,-567.727 434,-533 442.61,-526.924 453.15,-522.776 463.237,-519.95"/>
<polygon fill="midnightblue" stroke="midnightblue" points="331.248,-662.672 330.215,-673.216 337.598,-665.617 331.248,-662.672"/>
</g>
<!-- Node31 -->
<g id="node31" class="node"><title>Node31</title>
<g id="a_node31"><a xlink:href="a00092.html#a214a6d699e1e5cbff10fa2d6fee721ff" target="_top" xlink:title="hpd_value_free">
<polygon fill="none" stroke="red" points="459,-466.5 459,-485.5 542,-485.5 542,-466.5 459,-466.5"/>
<text text-anchor="middle" x="500.5" y="-473.5" font-family="Helvetica,sans-Serif" font-size="10.00">hpd_value_free</text>
</a>
</g>
</g>
<!-- Node21&#45;&gt;Node31 -->
<g id="edge38" class="edge"><title>Node21&#45;&gt;Node31</title>
<path fill="none" stroke="midnightblue" d="M331.684,-663.654C343.904,-625.49 376.345,-540.288 434,-495 441.17,-489.368 449.952,-485.405 458.728,-482.617"/>
<polygon fill="midnightblue" stroke="midnightblue" points="328.251,-662.91 328.652,-673.498 334.941,-664.971 328.251,-662.91"/>
</g>
<!-- Node24&#45;&gt;Node22 -->
<g id="edge28" class="edge"><title>Node24&#45;&gt;Node22</title>
<path fill="none" stroke="midnightblue" d="M564.929,-803C621.695,-803 704.284,-803 759.739,-803"/>
<polygon fill="midnightblue" stroke="midnightblue" points="564.642,-799.5 554.642,-803 564.642,-806.5 564.642,-799.5"/>
</g>
<!-- Node24&#45;&gt;Node25 -->
<g id="edge29" class="edge"><title>Node24&#45;&gt;Node25</title>
<path fill="none" stroke="midnightblue" d="M551.902,-791.104C574.532,-785.763 600.87,-779.546 622.165,-774.52"/>
<polygon fill="midnightblue" stroke="midnightblue" points="551.056,-787.707 542.127,-793.411 552.664,-794.52 551.056,-787.707"/>
</g>
<!-- Node25&#45;&gt;Node22 -->
<g id="edge30" class="edge"><title>Node25&#45;&gt;Node22</title>
<path fill="none" stroke="midnightblue" d="M713.452,-777.04C735.036,-782.349 760.041,-788.499 780.293,-793.48"/>
<polygon fill="midnightblue" stroke="midnightblue" points="714.033,-773.579 703.487,-774.589 712.362,-780.376 714.033,-773.579"/>
</g>
<!-- Node28&#45;&gt;Node29 -->
<g id="edge35" class="edge"><title>Node28&#45;&gt;Node29</title>
<path fill="none" stroke="midnightblue" d="M543.322,-552C570.534,-552 605.48,-552 630.483,-552"/>
<polygon fill="midnightblue" stroke="midnightblue" points="543.308,-548.5 533.308,-552 543.308,-555.5 543.308,-548.5"/>
</g>
<!-- Node33 -->
<g id="node33" class="node"><title>Node33</title>
<g id="a_node33"><a xlink:href="a00020.html#a1ace8e13428ce953dc195ed8cf5105c7" target="_top" xlink:title="discovery_set_adapter_attr">
<polygon fill="none" stroke="black" points="258,-264.5 258,-283.5 392,-283.5 392,-264.5 258,-264.5"/>
<text text-anchor="middle" x="325" y="-271.5" font-family="Helvetica,sans-Serif" font-size="10.00">discovery_set_adapter_attr</text>
</a>
</g>
</g>
<!-- Node32&#45;&gt;Node33 -->
<g id="edge40" class="edge"><title>Node32&#45;&gt;Node33</title>
<path fill="none" stroke="midnightblue" d="M220.6,-258.835C232.762,-260.618 246.093,-262.574 259.019,-264.469"/>
<polygon fill="midnightblue" stroke="midnightblue" points="221.096,-255.37 210.694,-257.382 220.08,-262.296 221.096,-255.37"/>
</g>
<!-- Node36 -->
<g id="node36" class="node"><title>Node36</title>
<g id="a_node36"><a xlink:href="a00020.html#a56b004be3282718fac95524a7446748c" target="_top" xlink:title="discovery_set_device_attr">
<polygon fill="none" stroke="black" points="259.5,-220.5 259.5,-239.5 390.5,-239.5 390.5,-220.5 259.5,-220.5"/>
<text text-anchor="middle" x="325" y="-227.5" font-family="Helvetica,sans-Serif" font-size="10.00">discovery_set_device_attr</text>
</a>
</g>
</g>
<!-- Node32&#45;&gt;Node36 -->
<g id="edge43" class="edge"><title>Node32&#45;&gt;Node36</title>
<path fill="none" stroke="midnightblue" d="M220.661,-245.156C232.899,-243.361 246.317,-241.393 259.314,-239.487"/>
<polygon fill="midnightblue" stroke="midnightblue" points="220.08,-241.704 210.694,-246.618 221.096,-248.63 220.08,-241.704"/>
</g>
<!-- Node39 -->
<g id="node39" class="node"><title>Node39</title>
<g id="a_node39"><a xlink:href="a00020.html#a2c62fa50d5ba2ac0e0db8df95d319687" target="_top" xlink:title="discovery_set_service_attr">
<polygon fill="none" stroke="black" points="258,-132.5 258,-151.5 392,-151.5 392,-132.5 258,-132.5"/>
<text text-anchor="middle" x="325" y="-139.5" font-family="Helvetica,sans-Serif" font-size="10.00">discovery_set_service_attr</text>
</a>
</g>
</g>
<!-- Node32&#45;&gt;Node39 -->
<g id="edge46" class="edge"><title>Node32&#45;&gt;Node39</title>
<path fill="none" stroke="midnightblue" d="M195.17,-236.475C226.651,-213.389 284.88,-170.688 310.874,-151.626"/>
<polygon fill="midnightblue" stroke="midnightblue" points="193.043,-233.695 187.049,-242.431 197.183,-239.339 193.043,-233.695"/>
</g>
<!-- Node42 -->
<g id="node42" class="node"><title>Node42</title>
<g id="a_node42"><a xlink:href="a00020.html#aa470ecef221797da5ca84c2258474165" target="_top" xlink:title="discovery_set_parameter_attr">
<polygon fill="none" stroke="black" points="252,-44.5 252,-63.5 398,-63.5 398,-44.5 252,-44.5"/>
<text text-anchor="middle" x="325" y="-51.5" font-family="Helvetica,sans-Serif" font-size="10.00">discovery_set_parameter_attr</text>
</a>
</g>
</g>
<!-- Node32&#45;&gt;Node42 -->
<g id="edge49" class="edge"><title>Node32&#45;&gt;Node42</title>
<path fill="none" stroke="midnightblue" d="M183.326,-233.254C196.709,-207.224 222.971,-159.249 252,-123 270.723,-99.621 297.022,-76.3292 312.107,-63.6835"/>
<polygon fill="midnightblue" stroke="midnightblue" points="180.099,-231.879 178.701,-242.381 186.343,-235.043 180.099,-231.879"/>
</g>
<!-- Node45 -->
<g id="node45" class="node"><title>Node45</title>
<g id="a_node45"><a xlink:href="a00091.html#a8e74f34c0eb423e170161eadec463df3" target="_top" xlink:title="value_set_header">
<polygon fill="none" stroke="black" points="278.5,-371.5 278.5,-390.5 371.5,-390.5 371.5,-371.5 278.5,-371.5"/>
<text text-anchor="middle" x="325" y="-378.5" font-family="Helvetica,sans-Serif" font-size="10.00">value_set_header</text>
</a>
</g>
</g>
<!-- Node32&#45;&gt;Node45 -->
<g id="edge52" class="edge"><title>Node32&#45;&gt;Node45</title>
<path fill="none" stroke="midnightblue" d="M192.951,-268.298C224.524,-295.45 286.951,-349.138 312.595,-371.192"/>
<polygon fill="midnightblue" stroke="midnightblue" points="195.138,-265.563 185.274,-261.696 190.574,-270.87 195.138,-265.563"/>
</g>
<!-- Node34 -->
<g id="node34" class="node"><title>Node34</title>
<g id="a_node34"><a xlink:href="a00020.html#ad15d6de47820573ae430df83c83ca378" target="_top" xlink:title="discovery_set_adapter\l_attrs_v">
<polygon fill="none" stroke="red" points="443,-303 443,-333 558,-333 558,-303 443,-303"/>
<text text-anchor="start" x="451" y="-321" font-family="Helvetica,sans-Serif" font-size="10.00">discovery_set_adapter</text>
<text text-anchor="middle" x="500.5" y="-310" font-family="Helvetica,sans-Serif" font-size="10.00">_attrs_v</text>
</a>
</g>
</g>
<!-- Node33&#45;&gt;Node34 -->
<g id="edge41" class="edge"><title>Node33&#45;&gt;Node34</title>
<path fill="none" stroke="midnightblue" d="M373.491,-286.044C394.912,-291.476 420.38,-297.935 442.795,-303.619"/>
<polygon fill="midnightblue" stroke="midnightblue" points="374.2,-282.613 363.647,-283.547 372.48,-289.398 374.2,-282.613"/>
</g>
<!-- Node35 -->
<g id="node35" class="node"><title>Node35</title>
<g id="a_node35"><a xlink:href="a00079.html#a0d5ca643908e5c921d763ad9f5c9ba8e" target="_top" xlink:title="hpd_adapter_set_attr">
<polygon fill="none" stroke="red" points="446.5,-264.5 446.5,-283.5 554.5,-283.5 554.5,-264.5 446.5,-264.5"/>
<text text-anchor="middle" x="500.5" y="-271.5" font-family="Helvetica,sans-Serif" font-size="10.00">hpd_adapter_set_attr</text>
</a>
</g>
</g>
<!-- Node33&#45;&gt;Node35 -->
<g id="edge42" class="edge"><title>Node33&#45;&gt;Node35</title>
<path fill="none" stroke="midnightblue" d="M402.271,-274C417.107,-274 432.357,-274 446.253,-274"/>
<polygon fill="midnightblue" stroke="midnightblue" points="402.088,-270.5 392.088,-274 402.088,-277.5 402.088,-270.5"/>
</g>
<!-- Node37 -->
<g id="node37" class="node"><title>Node37</title>
<g id="a_node37"><a xlink:href="a00020.html#ae15e002e2b5408db4a705d3c5cd98c3a" target="_top" xlink:title="discovery_set_device\l_attrs_v">
<polygon fill="none" stroke="red" points="445,-215 445,-245 556,-245 556,-215 445,-215"/>
<text text-anchor="start" x="453" y="-233" font-family="Helvetica,sans-Serif" font-size="10.00">discovery_set_device</text>
<text text-anchor="middle" x="500.5" y="-222" font-family="Helvetica,sans-Serif" font-size="10.00">_attrs_v</text>
</a>
</g>
</g>
<!-- Node36&#45;&gt;Node37 -->
<g id="edge44" class="edge"><title>Node36&#45;&gt;Node37</title>
<path fill="none" stroke="midnightblue" d="M400.75,-230C415.545,-230 430.815,-230 444.793,-230"/>
<polygon fill="midnightblue" stroke="midnightblue" points="400.605,-226.5 390.605,-230 400.605,-233.5 400.605,-226.5"/>
</g>
<!-- Node38 -->
<g id="node38" class="node"><title>Node38</title>
<g id="a_node38"><a xlink:href="a00079.html#aa52044afe11425f0febeba4f6094e48f" target="_top" xlink:title="hpd_device_set_attr">
<polygon fill="none" stroke="red" points="448.5,-176.5 448.5,-195.5 552.5,-195.5 552.5,-176.5 448.5,-176.5"/>
<text text-anchor="middle" x="500.5" y="-183.5" font-family="Helvetica,sans-Serif" font-size="10.00">hpd_device_set_attr</text>
</a>
</g>
</g>
<!-- Node36&#45;&gt;Node38 -->
<g id="edge45" class="edge"><title>Node36&#45;&gt;Node38</title>
<path fill="none" stroke="midnightblue" d="M373.562,-217.938C401.388,-210.882 436.024,-202.098 461.927,-195.529"/>
<polygon fill="midnightblue" stroke="midnightblue" points="372.48,-214.602 363.647,-220.453 374.2,-221.387 372.48,-214.602"/>
</g>
<!-- Node40 -->
<g id="node40" class="node"><title>Node40</title>
<g id="a_node40"><a xlink:href="a00020.html#a39fdda2b73169dd093a0009131f256bd" target="_top" xlink:title="discovery_set_service\l_attrs_v">
<polygon fill="none" stroke="red" points="443.5,-127 443.5,-157 557.5,-157 557.5,-127 443.5,-127"/>
<text text-anchor="start" x="451.5" y="-145" font-family="Helvetica,sans-Serif" font-size="10.00">discovery_set_service</text>
<text text-anchor="middle" x="500.5" y="-134" font-family="Helvetica,sans-Serif" font-size="10.00">_attrs_v</text>
</a>
</g>
</g>
<!-- Node39&#45;&gt;Node40 -->
<g id="edge47" class="edge"><title>Node39&#45;&gt;Node40</title>
<path fill="none" stroke="midnightblue" d="M402.127,-142C416.032,-142 430.306,-142 443.492,-142"/>
<polygon fill="midnightblue" stroke="midnightblue" points="402.088,-138.5 392.088,-142 402.088,-145.5 402.088,-138.5"/>
</g>
<!-- Node41 -->
<g id="node41" class="node"><title>Node41</title>
<g id="a_node41"><a xlink:href="a00079.html#ad7f06997cb2f69f3decb671a16d2bdb6" target="_top" xlink:title="hpd_service_set_attr">
<polygon fill="none" stroke="black" points="447,-88.5 447,-107.5 554,-107.5 554,-88.5 447,-88.5"/>
<text text-anchor="middle" x="500.5" y="-95.5" font-family="Helvetica,sans-Serif" font-size="10.00">hpd_service_set_attr</text>
</a>
</g>
</g>
<!-- Node39&#45;&gt;Node41 -->
<g id="edge48" class="edge"><title>Node39&#45;&gt;Node41</title>
<path fill="none" stroke="midnightblue" d="M373.562,-129.938C401.388,-122.882 436.024,-114.098 461.927,-107.529"/>
<polygon fill="midnightblue" stroke="midnightblue" points="372.48,-126.602 363.647,-132.453 374.2,-133.387 372.48,-126.602"/>
</g>
<!-- Node43 -->
<g id="node43" class="node"><title>Node43</title>
<g id="a_node43"><a xlink:href="a00020.html#a87107b433afd7833f396b6a390751a08" target="_top" xlink:title="discovery_set_parameter\l_attrs_v">
<polygon fill="none" stroke="red" points="437.5,-39 437.5,-69 563.5,-69 563.5,-39 437.5,-39"/>
<text text-anchor="start" x="445.5" y="-57" font-family="Helvetica,sans-Serif" font-size="10.00">discovery_set_parameter</text>
<text text-anchor="middle" x="500.5" y="-46" font-family="Helvetica,sans-Serif" font-size="10.00">_attrs_v</text>
</a>
</g>
</g>
<!-- Node42&#45;&gt;Node43 -->
<g id="edge50" class="edge"><title>Node42&#45;&gt;Node43</title>
<path fill="none" stroke="midnightblue" d="M408.224,-54C418.011,-54 427.876,-54 437.318,-54"/>
<polygon fill="midnightblue" stroke="midnightblue" points="408.072,-50.5001 398.072,-54 408.072,-57.5001 408.072,-50.5001"/>
</g>
<!-- Node44 -->
<g id="node44" class="node"><title>Node44</title>
<g id="a_node44"><a xlink:href="a00079.html#ac80954392c6e6b03259a057603784b9b" target="_top" xlink:title="hpd_parameter_set_attr">
<polygon fill="none" stroke="black" points="441,-0.5 441,-19.5 560,-19.5 560,-0.5 441,-0.5"/>
<text text-anchor="middle" x="500.5" y="-7.5" font-family="Helvetica,sans-Serif" font-size="10.00">hpd_parameter_set_attr</text>
</a>
</g>
</g>
<!-- Node42&#45;&gt;Node44 -->
<g id="edge51" class="edge"><title>Node42&#45;&gt;Node44</title>
<path fill="none" stroke="midnightblue" d="M373.562,-41.9383C401.388,-34.8815 436.024,-26.0976 461.927,-19.5287"/>
<polygon fill="midnightblue" stroke="midnightblue" points="372.48,-38.6018 363.647,-44.4527 374.2,-45.387 372.48,-38.6018"/>
</g>
<!-- Node45&#45;&gt;Node29 -->
<g id="edge53" class="edge"><title>Node45&#45;&gt;Node29</title>
<path fill="none" stroke="midnightblue" d="M361.51,-394.098C382.492,-401.686 409.638,-411.242 434,-419 492.578,-437.655 513.974,-425.893 567,-457 606.334,-480.075 641.156,-523.117 655.517,-542.319"/>
<polygon fill="midnightblue" stroke="midnightblue" points="362.634,-390.783 352.04,-390.656 360.243,-397.362 362.634,-390.783"/>
</g>
<!-- Node46 -->
<g id="node46" class="node"><title>Node46</title>
<g id="a_node46"><a xlink:href="a00091.html#a0d75ed4c4f2374d031c908cf626dcf4a" target="_top" xlink:title="value_set_headers_v">
<polygon fill="none" stroke="red" points="446,-390.5 446,-409.5 555,-409.5 555,-390.5 446,-390.5"/>
<text text-anchor="middle" x="500.5" y="-397.5" font-family="Helvetica,sans-Serif" font-size="10.00">value_set_headers_v</text>
</a>
</g>
</g>
<!-- Node45&#45;&gt;Node46 -->
<g id="edge54" class="edge"><title>Node45&#45;&gt;Node46</title>
<path fill="none" stroke="midnightblue" d="M381.75,-387.105C402.309,-389.357 425.542,-391.901 445.906,-394.131"/>
<polygon fill="midnightblue" stroke="midnightblue" points="381.907,-383.602 371.585,-385.992 381.145,-390.56 381.907,-383.602"/>
</g>
<!-- Node47 -->
<g id="node47" class="node"><title>Node47</title>
<g id="a_node47"><a xlink:href="a00092.html#a75b6ef13b716e7b51a4a24b0df588e33" target="_top" xlink:title="hpd_value_set_header">
<polygon fill="none" stroke="black" points="443.5,-352.5 443.5,-371.5 557.5,-371.5 557.5,-352.5 443.5,-352.5"/>
<text text-anchor="middle" x="500.5" y="-359.5" font-family="Helvetica,sans-Serif" font-size="10.00">hpd_value_set_header</text>
</a>
</g>
</g>
<!-- Node45&#45;&gt;Node47 -->
<g id="edge55" class="edge"><title>Node45&#45;&gt;Node47</title>
<path fill="none" stroke="midnightblue" d="M381.654,-374.905C401.39,-372.744 423.601,-370.312 443.375,-368.146"/>
<polygon fill="midnightblue" stroke="midnightblue" points="381.145,-371.44 371.585,-376.008 381.907,-378.398 381.145,-371.44"/>
</g>
<!-- Node49 -->
<g id="node49" class="node"><title>Node49</title>
<g id="a_node49"><a xlink:href="a00025.html#aa1a343cae2ed36c50eb1052da871a9ad" target="_top" xlink:title="Callback for URL parser. ">
<polygon fill="none" stroke="black" points="270.5,-1109.5 270.5,-1128.5 379.5,-1128.5 379.5,-1109.5 270.5,-1109.5"/>
<text text-anchor="middle" x="325" y="-1116.5" font-family="Helvetica,sans-Serif" font-size="10.00">url_parser_key_value</text>
</a>
</g>
</g>
<!-- Node48&#45;&gt;Node49 -->
<g id="edge57" class="edge"><title>Node48&#45;&gt;Node49</title>
<path fill="none" stroke="midnightblue" d="M212.171,-1087.67C224.806,-1091.75 238.967,-1096.19 252,-1100 263.045,-1103.22 275.112,-1106.5 286.156,-1109.41"/>
<polygon fill="midnightblue" stroke="midnightblue" points="213.009,-1084.26 202.416,-1084.5 210.844,-1090.92 213.009,-1084.26"/>
</g>
<!-- Node50 -->
<g id="node50" class="node"><title>Node50</title>
<g id="a_node50"><a xlink:href="a00025.html#abdc31e7d6e3800ddd79939673452f59c" target="_top" xlink:title="Callback for the header parser. ">
<polygon fill="none" stroke="black" points="269.5,-1060 269.5,-1090 380.5,-1090 380.5,-1060 269.5,-1060"/>
<text text-anchor="start" x="277.5" y="-1078" font-family="Helvetica,sans-Serif" font-size="10.00">header_parser_field</text>
<text text-anchor="middle" x="325" y="-1067" font-family="Helvetica,sans-Serif" font-size="10.00">_value_pair_complete</text>
</a>
</g>
</g>
<!-- Node48&#45;&gt;Node50 -->
<g id="edge59" class="edge"><title>Node48&#45;&gt;Node50</title>
<path fill="none" stroke="midnightblue" d="M226.505,-1075C240.337,-1075 255.294,-1075 269.241,-1075"/>
<polygon fill="midnightblue" stroke="midnightblue" points="226.183,-1071.5 216.183,-1075 226.183,-1078.5 226.183,-1071.5"/>
</g>
<!-- Node49&#45;&gt;Node6 -->
<g id="edge58" class="edge"><title>Node49&#45;&gt;Node6</title>
<path fill="none" stroke="midnightblue" d="M390.198,-1119C409.547,-1119 430.506,-1119 448.845,-1119"/>
<polygon fill="midnightblue" stroke="midnightblue" points="389.945,-1115.5 379.945,-1119 389.945,-1122.5 389.945,-1115.5"/>
</g>
<!-- Node50&#45;&gt;Node6 -->
<g id="edge60" class="edge"><title>Node50&#45;&gt;Node6</title>
<path fill="none" stroke="midnightblue" d="M390.67,-1091.4C414.7,-1097.49 441.152,-1104.2 461.96,-1109.48"/>
<polygon fill="midnightblue" stroke="midnightblue" points="391.45,-1087.99 380.896,-1088.92 389.729,-1094.77 391.45,-1087.99"/>
</g>
</g>
</svg>
