<?xml version="1.0" encoding="UTF-8" standalone="no"?>
<!DOCTYPE svg PUBLIC "-//W3C//DTD SVG 1.1//EN"
 "http://www.w3.org/Graphics/SVG/1.1/DTD/svg11.dtd">
<!-- Generated by graphviz version 2.38.0 (20140413.2041)
 -->
<!-- Title: value_get_header Pages: 1 -->
<svg width="406pt" height="66pt"
 viewBox="0.00 0.00 406.00 66.00" xmlns="http://www.w3.org/2000/svg" xmlns:xlink="http://www.w3.org/1999/xlink">
<g id="graph0" class="graph" transform="scale(1 1) rotate(0) translate(4 62)">
<title>value_get_header</title>
<!-- Node1 -->
<g id="node1" class="node"><title>Node1</title>
<polygon fill="#bfbfbf" stroke="black" points="0,-19.5 0,-38.5 93,-38.5 93,-19.5 0,-19.5"/>
<text text-anchor="middle" x="46.5" y="-26.5" font-family="Helvetica,sans-Serif" font-size="10.00">value_get_header</text>
</g>
<!-- Node2 -->
<g id="node2" class="node"><title>Node2</title>
<g id="a_node2"><a xlink:href="a00091.html#acb2b022ea573a1c70e3a64627978aa7c" target="_top" xlink:title="value_get_headers_v">
<polygon fill="none" stroke="black" points="131.5,-38.5 131.5,-57.5 240.5,-57.5 240.5,-38.5 131.5,-38.5"/>
<text text-anchor="middle" x="186" y="-45.5" font-family="Helvetica,sans-Serif" font-size="10.00">value_get_headers_v</text>
</a>
</g>
</g>
<!-- Node1&#45;&gt;Node2 -->
<g id="edge1" class="edge"><title>Node1&#45;&gt;Node2</title>
<path fill="none" stroke="midnightblue" d="M103.194,-36.6959C112.475,-37.9784 122.086,-39.3064 131.316,-40.5818"/>
<polygon fill="midnightblue" stroke="midnightblue" points="103.67,-33.2286 93.2855,-35.3267 102.712,-40.1627 103.67,-33.2286"/>
</g>
<!-- Node4 -->
<g id="node4" class="node"><title>Node4</title>
<g id="a_node4"><a xlink:href="a00092.html#aa4d188fa66bc6544723850a873e9dafc" target="_top" xlink:title="hpd_value_get_header">
<polygon fill="none" stroke="black" points="129,-0.5 129,-19.5 243,-19.5 243,-0.5 129,-0.5"/>
<text text-anchor="middle" x="186" y="-7.5" font-family="Helvetica,sans-Serif" font-size="10.00">hpd_value_get_header</text>
</a>
</g>
</g>
<!-- Node1&#45;&gt;Node4 -->
<g id="edge3" class="edge"><title>Node1&#45;&gt;Node4</title>
<path fill="none" stroke="midnightblue" d="M103.38,-21.2784C111.793,-20.1159 120.473,-18.9165 128.891,-17.7533"/>
<polygon fill="midnightblue" stroke="midnightblue" points="102.712,-17.8373 93.2855,-22.6733 103.67,-24.7714 102.712,-17.8373"/>
</g>
<!-- Node3 -->
<g id="node3" class="node"><title>Node3</title>
<g id="a_node3"><a xlink:href="a00092.html#a161f88ef5d108676829fb2db4b0b939d" target="_top" xlink:title="hpd_value_get_headers">
<polygon fill="none" stroke="black" points="279,-38.5 279,-57.5 398,-57.5 398,-38.5 279,-38.5"/>
<text text-anchor="middle" x="338.5" y="-45.5" font-family="Helvetica,sans-Serif" font-size="10.00">hpd_value_get_headers</text>
</a>
</g>
</g>
<!-- Node2&#45;&gt;Node3 -->
<g id="edge2" class="edge"><title>Node2&#45;&gt;Node3</title>
<path fill="none" stroke="midnightblue" d="M251.167,-48C260.364,-48 269.787,-48 278.87,-48"/>
<polygon fill="midnightblue" stroke="midnightblue" points="250.909,-44.5001 240.909,-48 250.909,-51.5001 250.909,-44.5001"/>
</g>
</g>
</svg>
