<?xml version="1.0" encoding="UTF-8" standalone="no"?>
<!DOCTYPE svg PUBLIC "-//W3C//DTD SVG 1.1//EN"
 "http://www.w3.org/Graphics/SVG/1.1/DTD/svg11.dtd">
<!-- Generated by graphviz version 2.38.0 (20140413.2041)
 -->
<!-- Title: hpd_map_get_n Pages: 1 -->
<svg width="748pt" height="66pt"
 viewBox="0.00 0.00 748.00 66.00" xmlns="http://www.w3.org/2000/svg" xmlns:xlink="http://www.w3.org/1999/xlink">
<g id="graph0" class="graph" transform="scale(1 1) rotate(0) translate(4 62)">
<title>hpd_map_get_n</title>
<!-- Node1 -->
<g id="node1" class="node"><title>Node1</title>
<polygon fill="#bfbfbf" stroke="black" points="0,-19.5 0,-38.5 86,-38.5 86,-19.5 0,-19.5"/>
<text text-anchor="middle" x="43" y="-26.5" font-family="Helvetica,sans-Serif" font-size="10.00">hpd_map_get_n</text>
</g>
<!-- Node2 -->
<g id="node2" class="node"><title>Node2</title>
<g id="a_node2"><a xlink:href="a00025.html#abdc31e7d6e3800ddd79939673452f59c" target="_top" xlink:title="Callback for the header parser. ">
<polygon fill="none" stroke="black" points="122,-14 122,-44 233,-44 233,-14 122,-14"/>
<text text-anchor="start" x="130" y="-32" font-family="Helvetica,sans-Serif" font-size="10.00">header_parser_field</text>
<text text-anchor="middle" x="177.5" y="-21" font-family="Helvetica,sans-Serif" font-size="10.00">_value_pair_complete</text>
</a>
</g>
</g>
<!-- Node1&#45;&gt;Node2 -->
<g id="edge1" class="edge"><title>Node1&#45;&gt;Node2</title>
<path fill="none" stroke="midnightblue" d="M96.5103,-29C104.737,-29 113.26,-29 121.54,-29"/>
<polygon fill="midnightblue" stroke="midnightblue" points="96.2882,-25.5001 86.2881,-29 96.2881,-32.5001 96.2882,-25.5001"/>
</g>
<!-- Node3 -->
<g id="node3" class="node"><title>Node3</title>
<g id="a_node3"><a xlink:href="a00049.html#a2b7dc9cb81835f2befb01fda20cc484c" target="_top" xlink:title="Create a new ws_request. ">
<polygon fill="none" stroke="black" points="269,-19.5 269,-38.5 372,-38.5 372,-19.5 269,-19.5"/>
<text text-anchor="middle" x="320.5" y="-26.5" font-family="Helvetica,sans-Serif" font-size="10.00">http_request_create</text>
</a>
</g>
</g>
<!-- Node2&#45;&gt;Node3 -->
<g id="edge2" class="edge"><title>Node2&#45;&gt;Node3</title>
<path fill="none" stroke="midnightblue" d="M243.071,-29C251.711,-29 260.471,-29 268.826,-29"/>
<polygon fill="midnightblue" stroke="midnightblue" points="243.014,-25.5001 233.014,-29 243.014,-32.5001 243.014,-25.5001"/>
</g>
<!-- Node4 -->
<g id="node4" class="node"><title>Node4</title>
<g id="a_node4"><a xlink:href="a00024.html#a117b36b86e1c36650012fe6224aadead" target="_top" xlink:title="Callback for tcpd library. ">
<polygon fill="none" stroke="black" points="408,-19.5 408,-38.5 502,-38.5 502,-19.5 408,-19.5"/>
<text text-anchor="middle" x="455" y="-26.5" font-family="Helvetica,sans-Serif" font-size="10.00">httpd_on_connect</text>
</a>
</g>
</g>
<!-- Node3&#45;&gt;Node4 -->
<g id="edge3" class="edge"><title>Node3&#45;&gt;Node4</title>
<path fill="none" stroke="midnightblue" d="M382.607,-29C391.093,-29 399.693,-29 407.844,-29"/>
<polygon fill="midnightblue" stroke="midnightblue" points="382.349,-25.5001 372.349,-29 382.349,-32.5001 382.349,-25.5001"/>
</g>
<!-- Node5 -->
<g id="node5" class="node"><title>Node5</title>
<g id="a_node5"><a xlink:href="a00024.html#a1c01ae677a68d0a11edfd93c4aae4929" target="_top" xlink:title="Create a new httpd instance. ">
<polygon fill="none" stroke="black" points="538,-19.5 538,-38.5 630,-38.5 630,-19.5 538,-19.5"/>
<text text-anchor="middle" x="584" y="-26.5" font-family="Helvetica,sans-Serif" font-size="10.00">hpd_httpd_create</text>
</a>
</g>
</g>
<!-- Node4&#45;&gt;Node5 -->
<g id="edge4" class="edge"><title>Node4&#45;&gt;Node5</title>
<path fill="none" stroke="midnightblue" d="M512.464,-29C520.975,-29 529.656,-29 537.887,-29"/>
<polygon fill="midnightblue" stroke="midnightblue" points="512.209,-25.5001 502.209,-29 512.209,-32.5001 512.209,-25.5001"/>
</g>
<!-- Node6 -->
<g id="node6" class="node"><title>Node6</title>
<g id="a_node6"><a xlink:href="a00047.html#a0ddf1224851353fc92bfbff6f499fa97" target="_top" xlink:title="main">
<polygon fill="none" stroke="black" points="684,-38.5 684,-57.5 722,-57.5 722,-38.5 684,-38.5"/>
<text text-anchor="middle" x="703" y="-45.5" font-family="Helvetica,sans-Serif" font-size="10.00">main</text>
</a>
</g>
</g>
<!-- Node5&#45;&gt;Node6 -->
<g id="edge5" class="edge"><title>Node5&#45;&gt;Node6</title>
<path fill="none" stroke="midnightblue" d="M640.425,-38.0006C656.066,-40.5406 672.002,-43.1285 683.742,-45.035"/>
<polygon fill="midnightblue" stroke="midnightblue" points="640.667,-34.4942 630.235,-36.3459 639.545,-41.4037 640.667,-34.4942"/>
</g>
<!-- Node7 -->
<g id="node7" class="node"><title>Node7</title>
<g id="a_node7"><a xlink:href="a00034.html#afb0f14177aa99ed8b660835d80f0abff" target="_top" xlink:title="rest_on_start">
<polygon fill="none" stroke="black" points="666,-0.5 666,-19.5 740,-19.5 740,-0.5 666,-0.5"/>
<text text-anchor="middle" x="703" y="-7.5" font-family="Helvetica,sans-Serif" font-size="10.00">rest_on_start</text>
</a>
</g>
</g>
<!-- Node5&#45;&gt;Node7 -->
<g id="edge6" class="edge"><title>Node5&#45;&gt;Node7</title>
<path fill="none" stroke="midnightblue" d="M640.354,-20.0109C649.049,-18.5989 657.837,-17.1718 665.946,-15.8549"/>
<polygon fill="midnightblue" stroke="midnightblue" points="639.545,-16.5963 630.235,-21.6541 640.667,-23.5058 639.545,-16.5963"/>
</g>
</g>
</svg>
