<?xml version="1.0" encoding="UTF-8" standalone="no"?>
<!DOCTYPE svg PUBLIC "-//W3C//DTD SVG 1.1//EN"
 "http://www.w3.org/Graphics/SVG/1.1/DTD/svg11.dtd">
<!-- Generated by graphviz version 2.38.0 (20140413.2041)
 -->
<!-- Title: main Pages: 1 -->
<svg width="677pt" height="294pt"
 viewBox="0.00 0.00 677.00 294.00" xmlns="http://www.w3.org/2000/svg" xmlns:xlink="http://www.w3.org/1999/xlink">
<g id="graph0" class="graph" transform="scale(1 1) rotate(0) translate(4 290)">
<title>main</title>
<!-- Node1 -->
<g id="node1" class="node"><title>Node1</title>
<polygon fill="#bfbfbf" stroke="black" points="0,-180.5 0,-199.5 38,-199.5 38,-180.5 0,-180.5"/>
<text text-anchor="middle" x="19" y="-187.5" font-family="Helvetica,sans-Serif" font-size="10.00">main</text>
</g>
<!-- Node2 -->
<g id="node2" class="node"><title>Node2</title>
<g id="a_node2"><a xlink:href="a00047.html#ae30200b9a3a68eb2d06ddbaa38a49ce6" target="_top" xlink:title="on_receive">
<polygon fill="none" stroke="black" points="86.5,-247.5 86.5,-266.5 150.5,-266.5 150.5,-247.5 86.5,-247.5"/>
<text text-anchor="middle" x="118.5" y="-254.5" font-family="Helvetica,sans-Serif" font-size="10.00">on_receive</text>
</a>
</g>
</g>
<!-- Node1&#45;&gt;Node2 -->
<g id="edge1" class="edge"><title>Node1&#45;&gt;Node2</title>
<path fill="none" stroke="midnightblue" d="M33.9694,-199.599C49.9701,-210.595 76.4013,-228.758 95.2458,-241.707"/>
<polygon fill="midnightblue" stroke="midnightblue" points="93.3326,-244.639 103.557,-247.418 97.2971,-238.87 93.3326,-244.639"/>
</g>
<!-- Node5 -->
<g id="node5" class="node"><title>Node5</title>
<g id="a_node5"><a xlink:href="a00047.html#a49f6d3bb9d22d5b9cf5c7eb6175318d1" target="_top" xlink:title="exit_handler">
<polygon fill="none" stroke="black" points="220.5,-199.5 220.5,-218.5 289.5,-218.5 289.5,-199.5 220.5,-199.5"/>
<text text-anchor="middle" x="255" y="-206.5" font-family="Helvetica,sans-Serif" font-size="10.00">exit_handler</text>
</a>
</g>
</g>
<!-- Node1&#45;&gt;Node5 -->
<g id="edge4" class="edge"><title>Node1&#45;&gt;Node5</title>
<path fill="none" stroke="midnightblue" d="M38.3616,-191.491C75.0516,-194.47 158.329,-201.232 209.991,-205.427"/>
<polygon fill="midnightblue" stroke="midnightblue" points="209.943,-208.934 220.193,-206.255 210.509,-201.957 209.943,-208.934"/>
</g>
<!-- Node10 -->
<g id="node10" class="node"><title>Node10</title>
<g id="a_node10"><a xlink:href="a00029.html#af8b7d38067f51f7ee570cb998b92e665" target="_top" xlink:title="Create new tcpd instance. ">
<polygon fill="none" stroke="black" points="74,-161.5 74,-180.5 163,-180.5 163,-161.5 74,-161.5"/>
<text text-anchor="middle" x="118.5" y="-168.5" font-family="Helvetica,sans-Serif" font-size="10.00">hpd_tcpd_create</text>
</a>
</g>
</g>
<!-- Node1&#45;&gt;Node10 -->
<g id="edge10" class="edge"><title>Node1&#45;&gt;Node10</title>
<path fill="none" stroke="midnightblue" d="M38.339,-186.426C45.7119,-184.989 54.6299,-183.252 63.7839,-181.468"/>
<polygon fill="midnightblue" stroke="midnightblue" points="64.6018,-184.874 73.7477,-179.526 63.2628,-178.004 64.6018,-184.874"/>
</g>
<!-- Node11 -->
<g id="node11" class="node"><title>Node11</title>
<g id="a_node11"><a xlink:href="a00029.html#ae77def0ed256affe27ea6ce37bf0ebf7" target="_top" xlink:title="Start the tcpd. ">
<polygon fill="none" stroke="black" points="78,-104.5 78,-123.5 159,-123.5 159,-104.5 78,-104.5"/>
<text text-anchor="middle" x="118.5" y="-111.5" font-family="Helvetica,sans-Serif" font-size="10.00">hpd_tcpd_start</text>
</a>
</g>
</g>
<!-- Node1&#45;&gt;Node11 -->
<g id="edge11" class="edge"><title>Node1&#45;&gt;Node11</title>
<path fill="none" stroke="midnightblue" d="M32.3484,-180.375C48.6854,-167.64 77.694,-145.028 97.2584,-129.778"/>
<polygon fill="midnightblue" stroke="midnightblue" points="99.5166,-132.456 105.252,-123.547 95.2131,-126.935 99.5166,-132.456"/>
</g>
<!-- Node3 -->
<g id="node3" class="node"><title>Node3</title>
<g id="a_node3"><a xlink:href="a00029.html#af1d6e9cdd63ecfa1ff92ab0e38122100" target="_top" xlink:title="Send message on connection. ">
<polygon fill="none" stroke="black" points="199,-256.5 199,-275.5 311,-275.5 311,-256.5 199,-256.5"/>
<text text-anchor="middle" x="255" y="-263.5" font-family="Helvetica,sans-Serif" font-size="10.00">hpd_tcpd_conn_sendf</text>
</a>
</g>
</g>
<!-- Node2&#45;&gt;Node3 -->
<g id="edge2" class="edge"><title>Node2&#45;&gt;Node3</title>
<path fill="none" stroke="midnightblue" d="M150.695,-259.087C162.135,-259.853 175.552,-260.751 188.859,-261.641"/>
<polygon fill="midnightblue" stroke="midnightblue" points="188.767,-265.143 198.978,-262.318 189.234,-258.158 188.767,-265.143"/>
</g>
<!-- Node4 -->
<g id="node4" class="node"><title>Node4</title>
<g id="a_node4"><a xlink:href="a00049.html#a222b05aa1f3416a31ddb08b5e2bfbff8" target="_top" xlink:title="Send message on connection. ">
<polygon fill="none" stroke="black" points="347,-266.5 347,-285.5 464,-285.5 464,-266.5 347,-266.5"/>
<text text-anchor="middle" x="405.5" y="-273.5" font-family="Helvetica,sans-Serif" font-size="10.00">hpd_tcpd_conn_vsendf</text>
</a>
</g>
</g>
<!-- Node3&#45;&gt;Node4 -->
<g id="edge3" class="edge"><title>Node3&#45;&gt;Node4</title>
<path fill="none" stroke="midnightblue" d="M311.296,-269.724C319.503,-270.276 328.042,-270.851 336.473,-271.419"/>
<polygon fill="midnightblue" stroke="midnightblue" points="336.462,-274.926 346.674,-272.106 336.932,-267.942 336.462,-274.926"/>
</g>
<!-- Node6 -->
<g id="node6" class="node"><title>Node6</title>
<g id="a_node6"><a xlink:href="a00029.html#ae1b6a900f62d2b677480abfb7163b0d0" target="_top" xlink:title="Stop an already running tcpd. ">
<polygon fill="none" stroke="black" points="365.5,-190.5 365.5,-209.5 445.5,-209.5 445.5,-190.5 365.5,-190.5"/>
<text text-anchor="middle" x="405.5" y="-197.5" font-family="Helvetica,sans-Serif" font-size="10.00">hpd_tcpd_stop</text>
</a>
</g>
</g>
<!-- Node5&#45;&gt;Node6 -->
<g id="edge5" class="edge"><title>Node5&#45;&gt;Node6</title>
<path fill="none" stroke="midnightblue" d="M289.697,-206.958C309.038,-205.786 333.675,-204.292 355.162,-202.99"/>
<polygon fill="midnightblue" stroke="midnightblue" points="355.651,-206.467 365.421,-202.368 355.228,-199.48 355.651,-206.467"/>
</g>
<!-- Node9 -->
<g id="node9" class="node"><title>Node9</title>
<g id="a_node9"><a xlink:href="a00029.html#a32fa9556e05236c856f7bdd08a47f5e4" target="_top" xlink:title="Destroy tcpd and free used memory. ">
<polygon fill="none" stroke="black" points="503,-171.5 503,-190.5 597,-190.5 597,-171.5 503,-171.5"/>
<text text-anchor="middle" x="550" y="-178.5" font-family="Helvetica,sans-Serif" font-size="10.00">hpd_tcpd_destroy</text>
</a>
</g>
</g>
<!-- Node5&#45;&gt;Node9 -->
<g id="edge8" class="edge"><title>Node5&#45;&gt;Node9</title>
<path fill="none" stroke="midnightblue" d="M289.569,-215.842C331.045,-223.104 403.539,-231.9 464,-219 485.276,-214.461 507.675,-204.191 524.135,-195.472"/>
<polygon fill="midnightblue" stroke="midnightblue" points="525.995,-198.443 533.086,-190.572 522.634,-192.303 525.995,-198.443"/>
</g>
<!-- Node7 -->
<g id="node7" class="node"><title>Node7</title>
<g id="a_node7"><a xlink:href="a00049.html#a58068e1a4c60b401bc6fc99c25e9a3f6" target="_top" xlink:title="Kill and clean up after a connection. ">
<polygon fill="none" stroke="black" points="500,-76.5 500,-95.5 600,-95.5 600,-76.5 500,-76.5"/>
<text text-anchor="middle" x="550" y="-83.5" font-family="Helvetica,sans-Serif" font-size="10.00">hpd_tcpd_conn_kill</text>
</a>
</g>
</g>
<!-- Node6&#45;&gt;Node7 -->
<g id="edge6" class="edge"><title>Node6&#45;&gt;Node7</title>
<path fill="none" stroke="midnightblue" d="M436.09,-190.394C445.448,-186.653 455.546,-181.842 464,-176 493.439,-155.657 520.54,-123.705 535.891,-103.85"/>
<polygon fill="midnightblue" stroke="midnightblue" points="538.842,-105.751 542.084,-95.6639 533.26,-101.527 538.842,-105.751"/>
</g>
<!-- Node8 -->
<g id="node8" class="node"><title>Node8</title>
<g id="a_node8"><a xlink:href="a00006.html#adf46370d9c211c3be22966b4606ba9b0" target="_top" xlink:title="free">
<polygon fill="none" stroke="black" points="636,-76.5 636,-95.5 669,-95.5 669,-76.5 636,-76.5"/>
<text text-anchor="middle" x="652.5" y="-83.5" font-family="Helvetica,sans-Serif" font-size="10.00">free</text>
</a>
</g>
</g>
<!-- Node7&#45;&gt;Node8 -->
<g id="edge7" class="edge"><title>Node7&#45;&gt;Node8</title>
<path fill="none" stroke="midnightblue" d="M600.072,-86C608.878,-86 617.731,-86 625.551,-86"/>
<polygon fill="midnightblue" stroke="midnightblue" points="625.804,-89.5001 635.804,-86 625.804,-82.5001 625.804,-89.5001"/>
</g>
<!-- Node9&#45;&gt;Node8 -->
<g id="edge9" class="edge"><title>Node9&#45;&gt;Node8</title>
<path fill="none" stroke="midnightblue" d="M561.377,-171.191C578.542,-154.965 613.033,-122.362 634.014,-102.529"/>
<polygon fill="midnightblue" stroke="midnightblue" points="636.467,-105.027 641.329,-95.614 631.658,-99.94 636.467,-105.027"/>
</g>
<!-- Node12 -->
<g id="node12" class="node"><title>Node12</title>
<g id="a_node12"><a xlink:href="a00049.html#ab4a4e8ef0831797b20bdb331abf9f316" target="_top" xlink:title="Initialise and accept connection. ">
<polygon fill="none" stroke="black" points="220.5,-90.5 220.5,-109.5 289.5,-109.5 289.5,-90.5 220.5,-90.5"/>
<text text-anchor="middle" x="255" y="-97.5" font-family="Helvetica,sans-Serif" font-size="10.00">on_ev_conn</text>
</a>
</g>
</g>
<!-- Node11&#45;&gt;Node12 -->
<g id="edge12" class="edge"><title>Node11&#45;&gt;Node12</title>
<path fill="none" stroke="midnightblue" d="M159.127,-109.875C175.018,-108.221 193.4,-106.308 209.728,-104.608"/>
<polygon fill="midnightblue" stroke="midnightblue" points="210.53,-108.044 220.114,-103.527 209.806,-101.081 210.53,-108.044"/>
</g>
<!-- Node12&#45;&gt;Node7 -->
<g id="edge14" class="edge"><title>Node12&#45;&gt;Node7</title>
<path fill="none" stroke="midnightblue" d="M271.024,-109.661C288.477,-120.259 318.527,-136.612 347,-143 397.739,-154.384 414.252,-158.136 464,-143 490.055,-135.072 515.382,-116.203 531.512,-102.337"/>
<polygon fill="midnightblue" stroke="midnightblue" points="533.913,-104.886 539.064,-95.6268 529.264,-99.6531 533.913,-104.886"/>
</g>
<!-- Node13 -->
<g id="node13" class="node"><title>Node13</title>
<g id="a_node13"><a xlink:href="a00049.html#a67d03b167f8adca86cde7eeed5850982" target="_top" xlink:title="Get the in_addr from a sockaddr (IPv4 or IPv6) ">
<polygon fill="none" stroke="black" points="372,-114.5 372,-133.5 439,-133.5 439,-114.5 372,-114.5"/>
<text text-anchor="middle" x="405.5" y="-121.5" font-family="Helvetica,sans-Serif" font-size="10.00">get_in_addr</text>
</a>
</g>
</g>
<!-- Node12&#45;&gt;Node13 -->
<g id="edge13" class="edge"><title>Node12&#45;&gt;Node13</title>
<path fill="none" stroke="midnightblue" d="M289.697,-105.446C311.069,-108.9 338.907,-113.399 361.818,-117.102"/>
<polygon fill="midnightblue" stroke="midnightblue" points="361.527,-120.6 371.957,-118.741 362.643,-113.69 361.527,-120.6"/>
</g>
<!-- Node14 -->
<g id="node14" class="node"><title>Node14</title>
<g id="a_node14"><a xlink:href="a00049.html#a40658d68fcbff9425c35176b188f0191" target="_top" xlink:title="Recieve callback for io&#45;watcher. ">
<polygon fill="none" stroke="black" points="372,-76.5 372,-95.5 439,-95.5 439,-76.5 372,-76.5"/>
<text text-anchor="middle" x="405.5" y="-83.5" font-family="Helvetica,sans-Serif" font-size="10.00">on_ev_recv</text>
</a>
</g>
</g>
<!-- Node12&#45;&gt;Node14 -->
<g id="edge15" class="edge"><title>Node12&#45;&gt;Node14</title>
<path fill="none" stroke="midnightblue" d="M289.697,-96.8232C311.069,-94.8083 338.907,-92.1838 361.818,-90.0239"/>
<polygon fill="midnightblue" stroke="midnightblue" points="362.33,-93.4913 371.957,-89.068 361.673,-86.5222 362.33,-93.4913"/>
</g>
<!-- Node15 -->
<g id="node15" class="node"><title>Node15</title>
<g id="a_node15"><a xlink:href="a00049.html#ac92de38ee89f3dac24453a2d8b2f4027" target="_top" xlink:title="Send callback for io&#45;watcher. ">
<polygon fill="none" stroke="black" points="371,-0.5 371,-19.5 440,-19.5 440,-0.5 371,-0.5"/>
<text text-anchor="middle" x="405.5" y="-7.5" font-family="Helvetica,sans-Serif" font-size="10.00">on_ev_send</text>
</a>
</g>
</g>
<!-- Node12&#45;&gt;Node15 -->
<g id="edge17" class="edge"><title>Node12&#45;&gt;Node15</title>
<path fill="none" stroke="midnightblue" d="M265.829,-90.4348C281.698,-75.4549 314.483,-46.3799 347,-29 351.52,-26.584 356.404,-24.3992 361.349,-22.4451"/>
<polygon fill="midnightblue" stroke="midnightblue" points="362.663,-25.6913 370.854,-18.9715 360.26,-19.1165 362.663,-25.6913"/>
</g>
<!-- Node16 -->
<g id="node16" class="node"><title>Node16</title>
<g id="a_node16"><a xlink:href="a00049.html#a00be9f92695597655a179e6f581e5350" target="_top" xlink:title="Timeout callback for timeout watcher. ">
<polygon fill="none" stroke="black" points="365.5,-38.5 365.5,-57.5 445.5,-57.5 445.5,-38.5 365.5,-38.5"/>
<text text-anchor="middle" x="405.5" y="-45.5" font-family="Helvetica,sans-Serif" font-size="10.00">on_ev_timeout</text>
</a>
</g>
</g>
<!-- Node12&#45;&gt;Node16 -->
<g id="edge20" class="edge"><title>Node12&#45;&gt;Node16</title>
<path fill="none" stroke="midnightblue" d="M281.818,-90.4136C299.996,-83.7188 324.928,-74.6471 347,-67 352.998,-64.922 359.365,-62.7674 365.593,-60.6879"/>
<polygon fill="midnightblue" stroke="midnightblue" points="366.804,-63.9739 375.193,-57.5036 364.6,-57.3298 366.804,-63.9739"/>
</g>
<!-- Node14&#45;&gt;Node7 -->
<g id="edge16" class="edge"><title>Node14&#45;&gt;Node7</title>
<path fill="none" stroke="midnightblue" d="M439.192,-86C454.235,-86 472.559,-86 489.895,-86"/>
<polygon fill="midnightblue" stroke="midnightblue" points="489.956,-89.5001 499.956,-86 489.956,-82.5001 489.956,-89.5001"/>
</g>
<!-- Node15&#45;&gt;Node7 -->
<g id="edge19" class="edge"><title>Node15&#45;&gt;Node7</title>
<path fill="none" stroke="midnightblue" d="M440.252,-19.4548C448.207,-22.1441 456.539,-25.3505 464,-29 487.432,-40.4618 511.944,-57.5238 528.59,-69.993"/>
<polygon fill="midnightblue" stroke="midnightblue" points="526.897,-73.1038 536.972,-76.3832 531.141,-67.537 526.897,-73.1038"/>
</g>
<!-- Node15&#45;&gt;Node8 -->
<g id="edge18" class="edge"><title>Node15&#45;&gt;Node8</title>
<path fill="none" stroke="midnightblue" d="M440.27,-19.2078C479.054,-29.9533 544.483,-48.605 600,-67 608.618,-69.8555 617.954,-73.2169 626.28,-76.3123"/>
<polygon fill="midnightblue" stroke="midnightblue" points="625.227,-79.6556 635.818,-79.9041 627.693,-73.1046 625.227,-79.6556"/>
</g>
<!-- Node16&#45;&gt;Node7 -->
<g id="edge21" class="edge"><title>Node16&#45;&gt;Node7</title>
<path fill="none" stroke="midnightblue" d="M442.459,-57.589C460.939,-62.5169 483.656,-68.5749 503.359,-73.8291"/>
<polygon fill="midnightblue" stroke="midnightblue" points="502.489,-77.2192 513.053,-76.4141 504.292,-70.4555 502.489,-77.2192"/>
</g>
</g>
</svg>
