<?xml version="1.0" encoding="UTF-8" standalone="no"?>
<!DOCTYPE svg PUBLIC "-//W3C//DTD SVG 1.1//EN"
 "http://www.w3.org/Graphics/SVG/1.1/DTD/svg11.dtd">
<!-- Generated by graphviz version 2.38.0 (20140413.2041)
 -->
<!-- Title: reply Pages: 1 -->
<svg width="931pt" height="677pt"
 viewBox="0.00 0.00 931.00 676.55" xmlns="http://www.w3.org/2000/svg" xmlns:xlink="http://www.w3.org/1999/xlink">
<g id="graph0" class="graph" transform="scale(1 1) rotate(0) translate(4 672.549)">
<title>reply</title>
<!-- Node1 -->
<g id="node1" class="node"><title>Node1</title>
<polygon fill="#bfbfbf" stroke="black" points="0,-296.5 0,-315.5 38,-315.5 38,-296.5 0,-296.5"/>
<text text-anchor="middle" x="19" y="-303.5" font-family="Helvetica,sans-Serif" font-size="10.00">reply</text>
</g>
<!-- Node2 -->
<g id="node2" class="node"><title>Node2</title>
<g id="a_node2"><a xlink:href="a00025.html#a78818d54ff3643716564aad97c70c7e2" target="_top" xlink:title="reply_internal_server\l_error">
<polygon fill="none" stroke="black" points="96.5,-223 96.5,-253 203.5,-253 203.5,-223 96.5,-223"/>
<text text-anchor="start" x="104.5" y="-241" font-family="Helvetica,sans-Serif" font-size="10.00">reply_internal_server</text>
<text text-anchor="middle" x="150" y="-230" font-family="Helvetica,sans-Serif" font-size="10.00">_error</text>
</a>
</g>
</g>
<!-- Node1&#45;&gt;Node2 -->
<g id="edge1" class="edge"><title>Node1&#45;&gt;Node2</title>
<path fill="none" stroke="midnightblue" d="M47.1433,-291.692C68.639,-280.361 98.582,-264.577 120.438,-253.056"/>
<polygon fill="midnightblue" stroke="midnightblue" points="45.4231,-288.642 38.2089,-296.401 48.6873,-294.834 45.4231,-288.642"/>
</g>
<!-- Node19 -->
<g id="node19" class="node"><title>Node19</title>
<g id="a_node19"><a xlink:href="a00025.html#abccd0d79ed3acf405337a07b4572d223" target="_top" xlink:title="on_response">
<polygon fill="none" stroke="black" points="292,-513.5 292,-532.5 364,-532.5 364,-513.5 292,-513.5"/>
<text text-anchor="middle" x="328" y="-520.5" font-family="Helvetica,sans-Serif" font-size="10.00">on_response</text>
</a>
</g>
</g>
<!-- Node1&#45;&gt;Node19 -->
<g id="edge44" class="edge"><title>Node1&#45;&gt;Node19</title>
<path fill="none" stroke="midnightblue" d="M28.2455,-324.848C37.2975,-343.868 53.3333,-373.185 74,-393 140.302,-456.568 243.816,-496.39 295.468,-513.415"/>
<polygon fill="midnightblue" stroke="midnightblue" points="31.4035,-323.338 24.0554,-315.705 25.04,-326.254 31.4035,-323.338"/>
</g>
<!-- Node25 -->
<g id="node25" class="node"><title>Node25</title>
<g id="a_node25"><a xlink:href="a00025.html#a8352457dd87933b3ad1f5d5746480c61" target="_top" xlink:title="reply_not_found">
<polygon fill="none" stroke="black" points="107,-76.5 107,-95.5 193,-95.5 193,-76.5 107,-76.5"/>
<text text-anchor="middle" x="150" y="-83.5" font-family="Helvetica,sans-Serif" font-size="10.00">reply_not_found</text>
</a>
</g>
</g>
<!-- Node1&#45;&gt;Node25 -->
<g id="edge33" class="edge"><title>Node1&#45;&gt;Node25</title>
<path fill="none" stroke="midnightblue" d="M30.5257,-287.781C41.3801,-269.015 58.8156,-238.93 74,-213 99.7495,-169.028 130.786,-116.677 143.331,-95.5448"/>
<polygon fill="midnightblue" stroke="midnightblue" points="27.4711,-286.072 25.4962,-296.481 33.5313,-289.575 27.4711,-286.072"/>
</g>
<!-- Node26 -->
<g id="node26" class="node"><title>Node26</title>
<g id="a_node26"><a xlink:href="a00025.html#a06c43484d9f060f5ad9edc943c1b4623" target="_top" xlink:title="reply_unsupported_media_type">
<polygon fill="none" stroke="black" points="74,-364.5 74,-383.5 226,-383.5 226,-364.5 74,-364.5"/>
<text text-anchor="middle" x="150" y="-371.5" font-family="Helvetica,sans-Serif" font-size="10.00">reply_unsupported_media_type</text>
</a>
</g>
</g>
<!-- Node1&#45;&gt;Node26 -->
<g id="edge36" class="edge"><title>Node1&#45;&gt;Node26</title>
<path fill="none" stroke="midnightblue" d="M47.2392,-320.359C72.4177,-333.631 109.125,-352.981 130.884,-364.45"/>
<polygon fill="midnightblue" stroke="midnightblue" points="48.6873,-317.166 38.2089,-315.599 45.4231,-323.358 48.6873,-317.166"/>
</g>
<!-- Node27 -->
<g id="node27" class="node"><title>Node27</title>
<g id="a_node27"><a xlink:href="a00025.html#a5340d41fbbc57c84fec47b6ba6879a07" target="_top" xlink:title="reply_bad_request">
<polygon fill="none" stroke="black" points="102,-547.5 102,-566.5 198,-566.5 198,-547.5 102,-547.5"/>
<text text-anchor="middle" x="150" y="-554.5" font-family="Helvetica,sans-Serif" font-size="10.00">reply_bad_request</text>
</a>
</g>
</g>
<!-- Node1&#45;&gt;Node27 -->
<g id="edge40" class="edge"><title>Node1&#45;&gt;Node27</title>
<path fill="none" stroke="midnightblue" d="M23.6292,-325.434C30.1996,-357.554 46.0435,-423.03 74,-472 91.6605,-502.935 121.84,-532.617 138.007,-547.353"/>
<polygon fill="midnightblue" stroke="midnightblue" points="27.0487,-324.684 21.6872,-315.546 20.1799,-326.033 27.0487,-324.684"/>
</g>
<!-- Node28 -->
<g id="node28" class="node"><title>Node28</title>
<g id="a_node28"><a xlink:href="a00025.html#af80e97c85acb30ce80480d39ae70fdac" target="_top" xlink:title="reply_method_not_allowed">
<polygon fill="none" stroke="black" points="262,-0.5 262,-19.5 394,-19.5 394,-0.5 262,-0.5"/>
<text text-anchor="middle" x="328" y="-7.5" font-family="Helvetica,sans-Serif" font-size="10.00">reply_method_not_allowed</text>
</a>
</g>
</g>
<!-- Node1&#45;&gt;Node28 -->
<g id="edge42" class="edge"><title>Node1&#45;&gt;Node28</title>
<path fill="none" stroke="midnightblue" d="M21.7996,-286.049C26.8668,-234.372 42.9497,-98.0312 74,-67 123.044,-17.9858 204.637,-7.3148 261.871,-6.59246"/>
<polygon fill="midnightblue" stroke="midnightblue" points="18.293,-285.954 20.8372,-296.239 25.262,-286.612 18.293,-285.954"/>
</g>
<!-- Node3 -->
<g id="node3" class="node"><title>Node3</title>
<g id="a_node3"><a xlink:href="a00025.html#a144860c2e3dfe3d8d9fd021968bbd8ff" target="_top" xlink:title="reply_devices">
<polygon fill="none" stroke="black" points="289.5,-190.5 289.5,-209.5 366.5,-209.5 366.5,-190.5 289.5,-190.5"/>
<text text-anchor="middle" x="328" y="-197.5" font-family="Helvetica,sans-Serif" font-size="10.00">reply_devices</text>
</a>
</g>
</g>
<!-- Node2&#45;&gt;Node3 -->
<g id="edge2" class="edge"><title>Node2&#45;&gt;Node3</title>
<path fill="none" stroke="midnightblue" d="M213.693,-224.464C238.981,-219.004 267.316,-212.886 289.325,-208.134"/>
<polygon fill="midnightblue" stroke="midnightblue" points="212.842,-221.067 203.806,-226.599 214.319,-227.909 212.842,-221.067"/>
</g>
<!-- Node4 -->
<g id="node4" class="node"><title>Node4</title>
<g id="a_node4"><a xlink:href="a00025.html#abd6f4422cb70766aae33a18dc6b6cb74" target="_top" xlink:title="on_req_hdr_cmpl">
<polygon fill="none" stroke="black" points="454,-57.5 454,-76.5 545,-76.5 545,-57.5 454,-57.5"/>
<text text-anchor="middle" x="499.5" y="-64.5" font-family="Helvetica,sans-Serif" font-size="10.00">on_req_hdr_cmpl</text>
</a>
</g>
</g>
<!-- Node2&#45;&gt;Node4 -->
<g id="edge29" class="edge"><title>Node2&#45;&gt;Node4</title>
<path fill="none" stroke="midnightblue" d="M173.073,-215.94C194.28,-195.813 228.031,-166.474 262,-148 316.204,-118.521 335.665,-125.101 394,-105 421.012,-95.692 451.718,-84.4457 472.819,-76.6132"/>
<polygon fill="midnightblue" stroke="midnightblue" points="170.622,-213.442 165.85,-222.901 175.479,-218.482 170.622,-213.442"/>
</g>
<!-- Node6 -->
<g id="node6" class="node"><title>Node6</title>
<g id="a_node6"><a xlink:href="a00025.html#a65f3fe01ba50f1473cad1a4418cfdf09" target="_top" xlink:title="on_free">
<polygon fill="none" stroke="black" points="303.5,-304.5 303.5,-323.5 352.5,-323.5 352.5,-304.5 303.5,-304.5"/>
<text text-anchor="middle" x="328" y="-311.5" font-family="Helvetica,sans-Serif" font-size="10.00">on_free</text>
</a>
</g>
</g>
<!-- Node2&#45;&gt;Node6 -->
<g id="edge5" class="edge"><title>Node2&#45;&gt;Node6</title>
<path fill="none" stroke="midnightblue" d="M195.269,-257.116C230.195,-272.198 277.443,-292.6 304.831,-304.427"/>
<polygon fill="midnightblue" stroke="midnightblue" points="196.34,-253.766 185.772,-253.015 193.565,-260.193 196.34,-253.766"/>
</g>
<!-- Node18 -->
<g id="node18" class="node"><title>Node18</title>
<g id="a_node18"><a xlink:href="a00025.html#a74ba52adbe4c46e9a9c33649e3b75243" target="_top" xlink:title="on_req_cmpl">
<polygon fill="none" stroke="black" points="755,-494.5 755,-513.5 827,-513.5 827,-494.5 755,-494.5"/>
<text text-anchor="middle" x="791" y="-501.5" font-family="Helvetica,sans-Serif" font-size="10.00">on_req_cmpl</text>
</a>
</g>
</g>
<!-- Node2&#45;&gt;Node18 -->
<g id="edge32" class="edge"><title>Node2&#45;&gt;Node18</title>
<path fill="none" stroke="midnightblue" d="M170.911,-260.692C213.234,-307.171 317.517,-412.631 430,-458 488.58,-481.628 676.227,-496.462 754.836,-501.783"/>
<polygon fill="midnightblue" stroke="midnightblue" points="173.492,-258.328 164.198,-253.241 168.291,-263.013 173.492,-258.328"/>
</g>
<!-- Node2&#45;&gt;Node19 -->
<g id="edge20" class="edge"><title>Node2&#45;&gt;Node19</title>
<path fill="none" stroke="midnightblue" d="M169.255,-261.378C186.196,-284.119 210.992,-320.233 226,-355 252.145,-415.567 217.956,-449.887 262,-499 269.79,-507.687 281.009,-513.237 291.94,-516.779"/>
<polygon fill="midnightblue" stroke="midnightblue" points="172.006,-259.213 163.183,-253.348 166.422,-263.435 172.006,-259.213"/>
</g>
<!-- Node22 -->
<g id="node22" class="node"><title>Node22</title>
<g id="a_node22"><a xlink:href="a00025.html#a1d92ec8021d08d20067d78e70d770511" target="_top" xlink:title="on_req_begin">
<polygon fill="none" stroke="black" points="754,-171.5 754,-190.5 828,-190.5 828,-171.5 754,-171.5"/>
<text text-anchor="middle" x="791" y="-178.5" font-family="Helvetica,sans-Serif" font-size="10.00">on_req_begin</text>
</a>
</g>
</g>
<!-- Node2&#45;&gt;Node22 -->
<g id="edge25" class="edge"><title>Node2&#45;&gt;Node22</title>
<path fill="none" stroke="midnightblue" d="M214.06,-240.008C263.86,-239.951 334.612,-236.195 394,-219 411.378,-213.969 412.56,-204.811 430,-200 544.935,-168.293 688.163,-173.254 753.931,-177.868"/>
<polygon fill="midnightblue" stroke="midnightblue" points="213.776,-236.507 203.763,-239.967 213.749,-243.507 213.776,-236.507"/>
</g>
<!-- Node23 -->
<g id="node23" class="node"><title>Node23</title>
<g id="a_node23"><a xlink:href="a00025.html#a5c8c7b4d085339a6ba0fb0e3d50cef93" target="_top" xlink:title="on_req_url_cmpl">
<polygon fill="none" stroke="black" points="284,-76.5 284,-95.5 372,-95.5 372,-76.5 284,-76.5"/>
<text text-anchor="middle" x="328" y="-83.5" font-family="Helvetica,sans-Serif" font-size="10.00">on_req_url_cmpl</text>
</a>
</g>
</g>
<!-- Node2&#45;&gt;Node23 -->
<g id="edge27" class="edge"><title>Node2&#45;&gt;Node23</title>
<path fill="none" stroke="midnightblue" d="M166.057,-214.271C185.193,-185.856 220.742,-138.534 262,-110 270.805,-103.91 281.345,-99.154 291.348,-95.5401"/>
<polygon fill="midnightblue" stroke="midnightblue" points="163.025,-212.511 160.434,-222.784 168.866,-216.369 163.025,-212.511"/>
</g>
<!-- Node24 -->
<g id="node24" class="node"><title>Node24</title>
<g id="a_node24"><a xlink:href="a00025.html#ae022dba8bfed1279999755534594fc36" target="_top" xlink:title="on_req_body">
<polygon fill="none" stroke="black" points="755,-133.5 755,-152.5 827,-152.5 827,-133.5 755,-133.5"/>
<text text-anchor="middle" x="791" y="-140.5" font-family="Helvetica,sans-Serif" font-size="10.00">on_req_body</text>
</a>
</g>
</g>
<!-- Node2&#45;&gt;Node24 -->
<g id="edge30" class="edge"><title>Node2&#45;&gt;Node24</title>
<path fill="none" stroke="midnightblue" d="M182.366,-217.549C203.859,-204.652 233.526,-188.976 262,-181 441.871,-130.614 668.951,-136.282 754.896,-140.757"/>
<polygon fill="midnightblue" stroke="midnightblue" points="180.377,-214.663 173.683,-222.875 184.037,-220.63 180.377,-214.663"/>
</g>
<!-- Node3&#45;&gt;Node4 -->
<g id="edge3" class="edge"><title>Node3&#45;&gt;Node4</title>
<path fill="none" stroke="midnightblue" d="M349.37,-184.016C384.839,-156.185 456.926,-99.6214 485.963,-76.8372"/>
<polygon fill="midnightblue" stroke="midnightblue" points="346.897,-181.508 341.19,-190.435 351.218,-187.015 346.897,-181.508"/>
</g>
<!-- Node5 -->
<g id="node5" class="node"><title>Node5</title>
<g id="a_node5"><a xlink:href="a00025.html#ad079431c7eba97c5dd5e4e202cdf6102" target="_top" xlink:title="on_create">
<polygon fill="none" stroke="black" points="864,-133.5 864,-152.5 923,-152.5 923,-133.5 864,-133.5"/>
<text text-anchor="middle" x="893.5" y="-140.5" font-family="Helvetica,sans-Serif" font-size="10.00">on_create</text>
</a>
</g>
</g>
<!-- Node4&#45;&gt;Node5 -->
<g id="edge4" class="edge"><title>Node4&#45;&gt;Node5</title>
<path fill="none" stroke="midnightblue" d="M555.57,-61.2943C622.488,-56.521 737.643,-55.3464 828,-91 851.281,-100.186 872.712,-120.908 884.052,-133.24"/>
<polygon fill="midnightblue" stroke="midnightblue" points="554.959,-57.8309 545.256,-62.0862 555.495,-64.8104 554.959,-57.8309"/>
</g>
<!-- Node7 -->
<g id="node7" class="node"><title>Node7</title>
<g id="a_node7"><a xlink:href="a00036.html#ad2fb429643739aa8893774e6d6d16ccc" target="_top" xlink:title="curl_ev_set_data">
<polygon fill="none" stroke="black" points="454,-247.5 454,-266.5 545,-266.5 545,-247.5 454,-247.5"/>
<text text-anchor="middle" x="499.5" y="-254.5" font-family="Helvetica,sans-Serif" font-size="10.00">curl_ev_set_data</text>
</a>
</g>
</g>
<!-- Node6&#45;&gt;Node7 -->
<g id="edge6" class="edge"><title>Node6&#45;&gt;Node7</title>
<path fill="none" stroke="midnightblue" d="M361.863,-300.786C381.487,-293.109 406.992,-283.503 430,-276 440.208,-272.671 451.389,-269.411 461.703,-266.556"/>
<polygon fill="midnightblue" stroke="midnightblue" points="360.481,-297.569 352.461,-304.492 363.048,-304.081 360.481,-297.569"/>
</g>
<!-- Node8 -->
<g id="node8" class="node"><title>Node8</title>
<g id="a_node8"><a xlink:href="a00011.html#a7d6f0b9bdced07007cfc6513f3a35d22" target="_top" xlink:title="discovery_set_adapter_data">
<polygon fill="none" stroke="black" points="430,-361.5 430,-380.5 569,-380.5 569,-361.5 430,-361.5"/>
<text text-anchor="middle" x="499.5" y="-368.5" font-family="Helvetica,sans-Serif" font-size="10.00">discovery_set_adapter_data</text>
</a>
</g>
</g>
<!-- Node6&#45;&gt;Node8 -->
<g id="edge7" class="edge"><title>Node6&#45;&gt;Node8</title>
<path fill="none" stroke="midnightblue" d="M361.863,-327.214C381.487,-334.891 406.992,-344.497 430,-352 440.208,-355.329 451.389,-358.589 461.703,-361.444"/>
<polygon fill="midnightblue" stroke="midnightblue" points="363.048,-323.919 352.461,-323.508 360.481,-330.431 363.048,-323.919"/>
</g>
<!-- Node10 -->
<g id="node10" class="node"><title>Node10</title>
<g id="a_node10"><a xlink:href="a00011.html#a2da392ca7e69d9bde8b356d9cf917ff3" target="_top" xlink:title="discovery_set_device_data">
<polygon fill="none" stroke="black" points="432,-323.5 432,-342.5 567,-342.5 567,-323.5 432,-323.5"/>
<text text-anchor="middle" x="499.5" y="-330.5" font-family="Helvetica,sans-Serif" font-size="10.00">discovery_set_device_data</text>
</a>
</g>
</g>
<!-- Node6&#45;&gt;Node10 -->
<g id="edge9" class="edge"><title>Node6&#45;&gt;Node10</title>
<path fill="none" stroke="midnightblue" d="M362.586,-317.765C382.314,-319.976 407.953,-322.85 431.638,-325.505"/>
<polygon fill="midnightblue" stroke="midnightblue" points="362.896,-314.278 352.568,-316.642 362.116,-321.234 362.896,-314.278"/>
</g>
<!-- Node12 -->
<g id="node12" class="node"><title>Node12</title>
<g id="a_node12"><a xlink:href="a00011.html#a4c01b35f7a53d7d3b4fcdc53cd3a275a" target="_top" xlink:title="discovery_set_service_data">
<polygon fill="none" stroke="black" points="430.5,-285.5 430.5,-304.5 568.5,-304.5 568.5,-285.5 430.5,-285.5"/>
<text text-anchor="middle" x="499.5" y="-292.5" font-family="Helvetica,sans-Serif" font-size="10.00">discovery_set_service_data</text>
</a>
</g>
</g>
<!-- Node6&#45;&gt;Node12 -->
<g id="edge11" class="edge"><title>Node6&#45;&gt;Node12</title>
<path fill="none" stroke="midnightblue" d="M362.665,-310.226C381.968,-308.063 406.912,-305.267 430.146,-302.662"/>
<polygon fill="midnightblue" stroke="midnightblue" points="362.116,-306.766 352.568,-311.358 362.896,-313.722 362.116,-306.766"/>
</g>
<!-- Node14 -->
<g id="node14" class="node"><title>Node14</title>
<g id="a_node14"><a xlink:href="a00067.html#a89ff40606fb6eb1f5a0969a5b65ead1d" target="_top" xlink:title="event_set_listener_data">
<polygon fill="none" stroke="black" points="439.5,-209.5 439.5,-228.5 559.5,-228.5 559.5,-209.5 439.5,-209.5"/>
<text text-anchor="middle" x="499.5" y="-216.5" font-family="Helvetica,sans-Serif" font-size="10.00">event_set_listener_data</text>
</a>
</g>
</g>
<!-- Node6&#45;&gt;Node14 -->
<g id="edge13" class="edge"><title>Node6&#45;&gt;Node14</title>
<path fill="none" stroke="midnightblue" d="M346.637,-297.424C365.783,-280.264 397.935,-253.8 430,-238 437.639,-234.236 446.136,-231.121 454.474,-228.578"/>
<polygon fill="midnightblue" stroke="midnightblue" points="344.059,-295.038 339.034,-304.366 348.779,-300.207 344.059,-295.038"/>
</g>
<!-- Node16 -->
<g id="node16" class="node"><title>Node16</title>
<g id="a_node16"><a xlink:href="a00073.html#af2e70ea5267e6e806be3509474d049e0" target="_top" xlink:title="request_set_request_data">
<polygon fill="none" stroke="black" points="435,-399.5 435,-418.5 564,-418.5 564,-399.5 435,-399.5"/>
<text text-anchor="middle" x="499.5" y="-406.5" font-family="Helvetica,sans-Serif" font-size="10.00">request_set_request_data</text>
</a>
</g>
</g>
<!-- Node6&#45;&gt;Node16 -->
<g id="edge15" class="edge"><title>Node6&#45;&gt;Node16</title>
<path fill="none" stroke="midnightblue" d="M346.637,-330.576C365.783,-347.736 397.935,-374.2 430,-390 437.639,-393.764 446.136,-396.879 454.474,-399.422"/>
<polygon fill="midnightblue" stroke="midnightblue" points="348.779,-327.793 339.034,-323.634 344.059,-332.962 348.779,-327.793"/>
</g>
<!-- Node6&#45;&gt;Node18 -->
<g id="edge19" class="edge"><title>Node6&#45;&gt;Node18</title>
<path fill="none" stroke="midnightblue" d="M339.592,-332.56C355.55,-358.628 388.368,-405.418 430,-428 543.761,-489.706 593.948,-434.118 718,-471 737.507,-476.8 758.523,-486.923 772.784,-494.432"/>
<polygon fill="midnightblue" stroke="midnightblue" points="342.433,-330.49 334.319,-323.678 336.414,-334.063 342.433,-330.49"/>
</g>
<!-- Node9 -->
<g id="node9" class="node"><title>Node9</title>
<g id="a_node9"><a xlink:href="a00064.html#ae4435821a3fd887ed393c05dacd2a79d" target="_top" xlink:title="hpd_adapter_set_data">
<polygon fill="none" stroke="black" points="605,-361.5 605,-380.5 718,-380.5 718,-361.5 605,-361.5"/>
<text text-anchor="middle" x="661.5" y="-368.5" font-family="Helvetica,sans-Serif" font-size="10.00">hpd_adapter_set_data</text>
</a>
</g>
</g>
<!-- Node8&#45;&gt;Node9 -->
<g id="edge8" class="edge"><title>Node8&#45;&gt;Node9</title>
<path fill="none" stroke="midnightblue" d="M579.344,-371C587.941,-371 596.557,-371 604.792,-371"/>
<polygon fill="midnightblue" stroke="midnightblue" points="579.283,-367.5 569.283,-371 579.283,-374.5 579.283,-367.5"/>
</g>
<!-- Node11 -->
<g id="node11" class="node"><title>Node11</title>
<g id="a_node11"><a xlink:href="a00064.html#a082d6cbdcf9bc2051d3372e9275b7c9f" target="_top" xlink:title="hpd_device_set_data">
<polygon fill="none" stroke="black" points="607,-323.5 607,-342.5 716,-342.5 716,-323.5 607,-323.5"/>
<text text-anchor="middle" x="661.5" y="-330.5" font-family="Helvetica,sans-Serif" font-size="10.00">hpd_device_set_data</text>
</a>
</g>
</g>
<!-- Node10&#45;&gt;Node11 -->
<g id="edge10" class="edge"><title>Node10&#45;&gt;Node11</title>
<path fill="none" stroke="midnightblue" d="M577.699,-333C587.599,-333 597.557,-333 606.965,-333"/>
<polygon fill="midnightblue" stroke="midnightblue" points="577.427,-329.5 567.427,-333 577.427,-336.5 577.427,-329.5"/>
</g>
<!-- Node13 -->
<g id="node13" class="node"><title>Node13</title>
<g id="a_node13"><a xlink:href="a00064.html#a3974326e212a829eef3dc2a4f554ccf0" target="_top" xlink:title="hpd_service_set_data">
<polygon fill="none" stroke="black" points="605.5,-285.5 605.5,-304.5 717.5,-304.5 717.5,-285.5 605.5,-285.5"/>
<text text-anchor="middle" x="661.5" y="-292.5" font-family="Helvetica,sans-Serif" font-size="10.00">hpd_service_set_data</text>
</a>
</g>
</g>
<!-- Node12&#45;&gt;Node13 -->
<g id="edge12" class="edge"><title>Node12&#45;&gt;Node13</title>
<path fill="none" stroke="midnightblue" d="M578.911,-295C587.882,-295 596.879,-295 605.451,-295"/>
<polygon fill="midnightblue" stroke="midnightblue" points="578.819,-291.5 568.819,-295 578.818,-298.5 578.819,-291.5"/>
</g>
<!-- Node15 -->
<g id="node15" class="node"><title>Node15</title>
<g id="a_node15"><a xlink:href="a00068.html#a6ed81ad49352be61e2a8710624396e93" target="_top" xlink:title="hpd_listener_set_data">
<polygon fill="none" stroke="black" points="605.5,-209.5 605.5,-228.5 717.5,-228.5 717.5,-209.5 605.5,-209.5"/>
<text text-anchor="middle" x="661.5" y="-216.5" font-family="Helvetica,sans-Serif" font-size="10.00">hpd_listener_set_data</text>
</a>
</g>
</g>
<!-- Node14&#45;&gt;Node15 -->
<g id="edge14" class="edge"><title>Node14&#45;&gt;Node15</title>
<path fill="none" stroke="midnightblue" d="M569.923,-219C581.765,-219 593.923,-219 605.332,-219"/>
<polygon fill="midnightblue" stroke="midnightblue" points="569.624,-215.5 559.624,-219 569.623,-222.5 569.624,-215.5"/>
</g>
<!-- Node17 -->
<g id="node17" class="node"><title>Node17</title>
<g id="a_node17"><a xlink:href="a00074.html#ac9eeff8f3e494a62942c2ebed8f05cd9" target="_top" xlink:title="hpd_request_set_data">
<polygon fill="none" stroke="black" points="605,-399.5 605,-418.5 718,-418.5 718,-399.5 605,-399.5"/>
<text text-anchor="middle" x="661.5" y="-406.5" font-family="Helvetica,sans-Serif" font-size="10.00">hpd_request_set_data</text>
</a>
</g>
</g>
<!-- Node16&#45;&gt;Node17 -->
<g id="edge16" class="edge"><title>Node16&#45;&gt;Node17</title>
<path fill="none" stroke="midnightblue" d="M574.356,-409C584.586,-409 594.951,-409 604.777,-409"/>
<polygon fill="midnightblue" stroke="midnightblue" points="574.196,-405.5 564.196,-409 574.196,-412.5 574.196,-405.5"/>
</g>
<!-- Node17&#45;&gt;Node18 -->
<g id="edge17" class="edge"><title>Node17&#45;&gt;Node18</title>
<path fill="none" stroke="midnightblue" d="M699.388,-422.657C705.815,-425.671 712.269,-429.136 718,-433 744.491,-450.863 769.706,-479.213 782.07,-494.11"/>
<polygon fill="midnightblue" stroke="midnightblue" points="700.643,-419.386 690.08,-418.569 697.828,-425.795 700.643,-419.386"/>
</g>
<!-- Node18&#45;&gt;Node5 -->
<g id="edge18" class="edge"><title>Node18&#45;&gt;Node5</title>
<path fill="none" stroke="midnightblue" d="M797.482,-484.308C816.095,-417.451 876.454,-200.637 889.85,-152.518"/>
<polygon fill="midnightblue" stroke="midnightblue" points="793.998,-483.772 794.688,-494.344 800.742,-485.649 793.998,-483.772"/>
</g>
<!-- Node19&#45;&gt;Node18 -->
<g id="edge24" class="edge"><title>Node19&#45;&gt;Node18</title>
<path fill="none" stroke="midnightblue" d="M374.099,-521.141C465.734,-517.365 672.001,-508.863 754.709,-505.454"/>
<polygon fill="midnightblue" stroke="midnightblue" points="373.876,-517.647 364.028,-521.556 374.164,-524.641 373.876,-517.647"/>
</g>
<!-- Node20 -->
<g id="node20" class="node"><title>Node20</title>
<g id="a_node20"><a xlink:href="a00073.html#afaa1866a860b3fe73641de3548d66f66" target="_top" xlink:title="request_alloc_request">
<polygon fill="none" stroke="black" points="443.5,-551.5 443.5,-570.5 555.5,-570.5 555.5,-551.5 443.5,-551.5"/>
<text text-anchor="middle" x="499.5" y="-558.5" font-family="Helvetica,sans-Serif" font-size="10.00">request_alloc_request</text>
</a>
</g>
</g>
<!-- Node19&#45;&gt;Node20 -->
<g id="edge21" class="edge"><title>Node19&#45;&gt;Node20</title>
<path fill="none" stroke="midnightblue" d="M373.882,-533.062C399.293,-538.759 430.896,-545.844 455.918,-551.454"/>
<polygon fill="midnightblue" stroke="midnightblue" points="374.644,-529.646 364.121,-530.874 373.113,-536.477 374.644,-529.646"/>
</g>
<!-- Node21 -->
<g id="node21" class="node"><title>Node21</title>
<g id="a_node21"><a xlink:href="a00074.html#aa6d853067ae916b9213cd0c936c201c2" target="_top" xlink:title="[hpd_request_t functions] ">
<polygon fill="none" stroke="black" points="614,-551.5 614,-570.5 709,-570.5 709,-551.5 614,-551.5"/>
<text text-anchor="middle" x="661.5" y="-558.5" font-family="Helvetica,sans-Serif" font-size="10.00">hpd_request_alloc</text>
</a>
</g>
</g>
<!-- Node20&#45;&gt;Node21 -->
<g id="edge22" class="edge"><title>Node20&#45;&gt;Node21</title>
<path fill="none" stroke="midnightblue" d="M565.969,-561C582.025,-561 598.889,-561 613.855,-561"/>
<polygon fill="midnightblue" stroke="midnightblue" points="565.563,-557.5 555.563,-561 565.563,-564.5 565.563,-557.5"/>
</g>
<!-- Node21&#45;&gt;Node18 -->
<g id="edge23" class="edge"><title>Node21&#45;&gt;Node18</title>
<path fill="none" stroke="midnightblue" d="M694.151,-547.453C701.962,-544.072 710.296,-540.431 718,-537 735.46,-529.225 755.186,-520.164 769.57,-513.506"/>
<polygon fill="midnightblue" stroke="midnightblue" points="692.757,-544.243 684.962,-551.418 695.53,-550.67 692.757,-544.243"/>
</g>
<!-- Node22&#45;&gt;Node5 -->
<g id="edge26" class="edge"><title>Node22&#45;&gt;Node5</title>
<path fill="none" stroke="midnightblue" d="M827.081,-167.735C840.275,-162.747 855.008,-157.176 867.148,-152.586"/>
<polygon fill="midnightblue" stroke="midnightblue" points="825.476,-164.6 817.36,-171.411 827.952,-171.148 825.476,-164.6"/>
</g>
<!-- Node23&#45;&gt;Node5 -->
<g id="edge28" class="edge"><title>Node23&#45;&gt;Node5</title>
<path fill="none" stroke="midnightblue" d="M382.257,-86.3928C474.02,-87.8824 667.538,-94.5954 828,-124 840.286,-126.251 853.57,-129.94 864.871,-133.471"/>
<polygon fill="midnightblue" stroke="midnightblue" points="382.16,-82.8911 372.109,-86.2428 382.056,-89.8903 382.16,-82.8911"/>
</g>
<!-- Node24&#45;&gt;Node5 -->
<g id="edge31" class="edge"><title>Node24&#45;&gt;Node5</title>
<path fill="none" stroke="midnightblue" d="M837.214,-143C846.268,-143 855.541,-143 863.844,-143"/>
<polygon fill="midnightblue" stroke="midnightblue" points="837.15,-139.5 827.15,-143 837.15,-146.5 837.15,-139.5"/>
</g>
<!-- Node25&#45;&gt;Node4 -->
<g id="edge35" class="edge"><title>Node25&#45;&gt;Node4</title>
<path fill="none" stroke="midnightblue" d="M203.199,-75.1899C221.685,-71.8606 242.687,-68.641 262,-67 328.686,-61.3339 406.331,-62.8832 453.944,-64.7567"/>
<polygon fill="midnightblue" stroke="midnightblue" points="202.408,-71.7767 193.214,-77.0415 203.685,-78.6594 202.408,-71.7767"/>
</g>
<!-- Node25&#45;&gt;Node23 -->
<g id="edge34" class="edge"><title>Node25&#45;&gt;Node23</title>
<path fill="none" stroke="midnightblue" d="M203.466,-86C229.146,-86 259.679,-86 283.965,-86"/>
<polygon fill="midnightblue" stroke="midnightblue" points="203.156,-82.5001 193.156,-86 203.156,-89.5001 203.156,-82.5001"/>
</g>
<!-- Node26&#45;&gt;Node3 -->
<g id="edge37" class="edge"><title>Node26&#45;&gt;Node3</title>
<path fill="none" stroke="midnightblue" d="M168.094,-357.1C204.418,-321.189 288.319,-238.241 317.1,-209.788"/>
<polygon fill="midnightblue" stroke="midnightblue" points="165.364,-354.878 160.713,-364.397 170.285,-359.856 165.364,-354.878"/>
</g>
<!-- Node26&#45;&gt;Node18 -->
<g id="edge39" class="edge"><title>Node26&#45;&gt;Node18</title>
<path fill="none" stroke="midnightblue" d="M158.162,-393.529C172.237,-429.034 207.007,-503.998 262,-542 324.979,-585.521 353.92,-571.503 430,-580 557.209,-594.207 600.416,-630.577 718,-580 749.89,-566.283 774.273,-530.729 784.6,-513.558"/>
<polygon fill="midnightblue" stroke="midnightblue" points="161.304,-391.947 154.459,-383.861 154.767,-394.451 161.304,-391.947"/>
</g>
<!-- Node26&#45;&gt;Node19 -->
<g id="edge38" class="edge"><title>Node26&#45;&gt;Node19</title>
<path fill="none" stroke="midnightblue" d="M171.102,-390.422C186.969,-403.914 209.16,-423.996 226,-444 244.815,-466.35 239.145,-480.801 262,-499 270.658,-505.894 281.487,-510.932 291.81,-514.559"/>
<polygon fill="midnightblue" stroke="midnightblue" points="172.926,-387.384 163.012,-383.647 168.432,-392.751 172.926,-387.384"/>
</g>
<!-- Node27&#45;&gt;Node18 -->
<g id="edge41" class="edge"><title>Node27&#45;&gt;Node18</title>
<path fill="none" stroke="midnightblue" d="M173.326,-572.226C194.917,-585.962 229.112,-605.174 262,-613 459.161,-659.918 539.517,-709.009 718,-613 758.346,-591.297 779.849,-535.979 787.126,-513.607"/>
<polygon fill="midnightblue" stroke="midnightblue" points="175.173,-569.252 164.884,-566.724 171.35,-575.116 175.173,-569.252"/>
</g>
<!-- Node28&#45;&gt;Node4 -->
<g id="edge43" class="edge"><title>Node28&#45;&gt;Node4</title>
<path fill="none" stroke="midnightblue" d="M367.039,-22.7919C398.256,-33.2898 441.77,-47.9228 470.037,-57.4284"/>
<polygon fill="midnightblue" stroke="midnightblue" points="367.965,-19.4106 357.37,-19.5405 365.733,-26.0455 367.965,-19.4106"/>
</g>
</g>
</svg>
