<?xml version="1.0" encoding="UTF-8" standalone="no"?>
<!DOCTYPE svg PUBLIC "-//W3C//DTD SVG 1.1//EN"
 "http://www.w3.org/Graphics/SVG/1.1/DTD/svg11.dtd">
<!-- Generated by graphviz version 2.38.0 (20140413.2041)
 -->
<!-- Title: hpd_tcpd_destroy Pages: 1 -->
<svg width="473pt" height="180pt"
 viewBox="0.00 0.00 473.00 180.00" xmlns="http://www.w3.org/2000/svg" xmlns:xlink="http://www.w3.org/1999/xlink">
<g id="graph0" class="graph" transform="scale(1 1) rotate(0) translate(4 176)">
<title>hpd_tcpd_destroy</title>
<!-- Node1 -->
<g id="node1" class="node"><title>Node1</title>
<polygon fill="#bfbfbf" stroke="black" points="0,-47.5 0,-66.5 94,-66.5 94,-47.5 0,-47.5"/>
<text text-anchor="middle" x="47" y="-54.5" font-family="Helvetica,sans-Serif" font-size="10.00">hpd_tcpd_destroy</text>
</g>
<!-- Node2 -->
<g id="node2" class="node"><title>Node2</title>
<g id="a_node2"><a xlink:href="a00024.html#a5b2691e281b72e90f2aa231db8368e89" target="_top" xlink:title="Destroy a httpd instance. ">
<polygon fill="none" stroke="black" points="130,-76.5 130,-95.5 227,-95.5 227,-76.5 130,-76.5"/>
<text text-anchor="middle" x="178.5" y="-83.5" font-family="Helvetica,sans-Serif" font-size="10.00">hpd_httpd_destroy</text>
</a>
</g>
</g>
<!-- Node1&#45;&gt;Node2 -->
<g id="edge1" class="edge"><title>Node1&#45;&gt;Node2</title>
<path fill="none" stroke="midnightblue" d="M100.584,-68.7756C111.955,-71.3219 123.845,-73.9846 134.783,-76.434"/>
<polygon fill="midnightblue" stroke="midnightblue" points="101.285,-65.346 90.762,-66.5761 99.7555,-72.1768 101.285,-65.346"/>
</g>
<!-- Node8 -->
<g id="node8" class="node"><title>Node8</title>
<g id="a_node8"><a xlink:href="a00057.html#a49f6d3bb9d22d5b9cf5c7eb6175318d1" target="_top" xlink:title="exit_handler">
<polygon fill="none" stroke="black" points="144,-19.5 144,-38.5 213,-38.5 213,-19.5 144,-19.5"/>
<text text-anchor="middle" x="178.5" y="-26.5" font-family="Helvetica,sans-Serif" font-size="10.00">exit_handler</text>
</a>
</g>
</g>
<!-- Node1&#45;&gt;Node8 -->
<g id="edge9" class="edge"><title>Node1&#45;&gt;Node8</title>
<path fill="none" stroke="midnightblue" d="M102.277,-45.2645C116.327,-42.2265 131.054,-39.0424 143.715,-36.305"/>
<polygon fill="midnightblue" stroke="midnightblue" points="101.239,-41.9079 92.2044,-47.4423 102.718,-48.7498 101.239,-41.9079"/>
</g>
<!-- Node3 -->
<g id="node3" class="node"><title>Node3</title>
<g id="a_node3"><a xlink:href="a00047.html#a49f6d3bb9d22d5b9cf5c7eb6175318d1" target="_top" xlink:title="exit_handler">
<polygon fill="none" stroke="black" points="274.5,-152.5 274.5,-171.5 343.5,-171.5 343.5,-152.5 274.5,-152.5"/>
<text text-anchor="middle" x="309" y="-159.5" font-family="Helvetica,sans-Serif" font-size="10.00">exit_handler</text>
</a>
</g>
</g>
<!-- Node2&#45;&gt;Node3 -->
<g id="edge2" class="edge"><title>Node2&#45;&gt;Node3</title>
<path fill="none" stroke="midnightblue" d="M200.05,-101.74C216.517,-113.924 240.507,-130.734 263,-143 269.254,-146.41 276.249,-149.628 282.825,-152.413"/>
<polygon fill="midnightblue" stroke="midnightblue" points="201.834,-98.7031 191.733,-95.5054 197.635,-104.304 201.834,-98.7031"/>
</g>
<!-- Node5 -->
<g id="node5" class="node"><title>Node5</title>
<g id="a_node5"><a xlink:href="a00024.html#a1c01ae677a68d0a11edfd93c4aae4929" target="_top" xlink:title="Create a new httpd instance. ">
<polygon fill="none" stroke="black" points="263,-114.5 263,-133.5 355,-133.5 355,-114.5 263,-114.5"/>
<text text-anchor="middle" x="309" y="-121.5" font-family="Helvetica,sans-Serif" font-size="10.00">hpd_httpd_create</text>
</a>
</g>
</g>
<!-- Node2&#45;&gt;Node5 -->
<g id="edge4" class="edge"><title>Node2&#45;&gt;Node5</title>
<path fill="none" stroke="midnightblue" d="M221.889,-98.5353C239.37,-103.705 259.302,-109.599 275.584,-114.414"/>
<polygon fill="midnightblue" stroke="midnightblue" points="222.508,-95.0686 211.926,-95.589 220.523,-101.781 222.508,-95.0686"/>
</g>
<!-- Node6 -->
<g id="node6" class="node"><title>Node6</title>
<g id="a_node6"><a xlink:href="a00034.html#afb0f14177aa99ed8b660835d80f0abff" target="_top" xlink:title="rest_on_start">
<polygon fill="none" stroke="black" points="391,-85.5 391,-104.5 465,-104.5 465,-85.5 391,-85.5"/>
<text text-anchor="middle" x="428" y="-92.5" font-family="Helvetica,sans-Serif" font-size="10.00">rest_on_start</text>
</a>
</g>
</g>
<!-- Node2&#45;&gt;Node6 -->
<g id="edge7" class="edge"><title>Node2&#45;&gt;Node6</title>
<path fill="none" stroke="midnightblue" d="M237.344,-88.1034C284.746,-89.8271 350.366,-92.2133 390.68,-93.6793"/>
<polygon fill="midnightblue" stroke="midnightblue" points="237.341,-84.6011 227.22,-87.7353 237.087,-91.5965 237.341,-84.6011"/>
</g>
<!-- Node7 -->
<g id="node7" class="node"><title>Node7</title>
<g id="a_node7"><a xlink:href="a00034.html#a51a914014e35d07de029f075498a613d" target="_top" xlink:title="rest_on_stop">
<polygon fill="none" stroke="black" points="272.5,-38.5 272.5,-57.5 345.5,-57.5 345.5,-38.5 272.5,-38.5"/>
<text text-anchor="middle" x="309" y="-45.5" font-family="Helvetica,sans-Serif" font-size="10.00">rest_on_stop</text>
</a>
</g>
</g>
<!-- Node2&#45;&gt;Node7 -->
<g id="edge8" class="edge"><title>Node2&#45;&gt;Node7</title>
<path fill="none" stroke="midnightblue" d="M221.889,-73.4647C239.37,-68.2952 259.302,-62.4009 275.584,-57.5859"/>
<polygon fill="midnightblue" stroke="midnightblue" points="220.523,-70.2188 211.926,-76.411 222.508,-76.9314 220.523,-70.2188"/>
</g>
<!-- Node4 -->
<g id="node4" class="node"><title>Node4</title>
<g id="a_node4"><a xlink:href="a00047.html#a0ddf1224851353fc92bfbff6f499fa97" target="_top" xlink:title="main">
<polygon fill="none" stroke="black" points="409,-142.5 409,-161.5 447,-161.5 447,-142.5 409,-142.5"/>
<text text-anchor="middle" x="428" y="-149.5" font-family="Helvetica,sans-Serif" font-size="10.00">main</text>
</a>
</g>
</g>
<!-- Node3&#45;&gt;Node4 -->
<g id="edge3" class="edge"><title>Node3&#45;&gt;Node4</title>
<path fill="none" stroke="midnightblue" d="M353.542,-158.278C372.619,-156.648 393.972,-154.823 408.718,-153.563"/>
<polygon fill="midnightblue" stroke="midnightblue" points="353.193,-154.795 343.528,-159.134 353.789,-161.77 353.193,-154.795"/>
</g>
<!-- Node5&#45;&gt;Node4 -->
<g id="edge5" class="edge"><title>Node5&#45;&gt;Node4</title>
<path fill="none" stroke="midnightblue" d="M359.99,-135.964C377.346,-140.117 395.722,-144.515 408.832,-147.652"/>
<polygon fill="midnightblue" stroke="midnightblue" points="360.478,-132.481 349.938,-133.558 358.848,-139.289 360.478,-132.481"/>
</g>
<!-- Node5&#45;&gt;Node6 -->
<g id="edge6" class="edge"><title>Node5&#45;&gt;Node6</title>
<path fill="none" stroke="midnightblue" d="M358.404,-112.002C369.237,-109.317 380.546,-106.514 390.784,-103.977"/>
<polygon fill="midnightblue" stroke="midnightblue" points="357.499,-108.621 348.634,-114.424 359.183,-115.415 357.499,-108.621"/>
</g>
<!-- Node9 -->
<g id="node9" class="node"><title>Node9</title>
<g id="a_node9"><a xlink:href="a00057.html#a0ddf1224851353fc92bfbff6f499fa97" target="_top" xlink:title="main">
<polygon fill="none" stroke="black" points="290,-0.5 290,-19.5 328,-19.5 328,-0.5 290,-0.5"/>
<text text-anchor="middle" x="309" y="-7.5" font-family="Helvetica,sans-Serif" font-size="10.00">main</text>
</a>
</g>
</g>
<!-- Node8&#45;&gt;Node9 -->
<g id="edge10" class="edge"><title>Node8&#45;&gt;Node9</title>
<path fill="none" stroke="midnightblue" d="M223.401,-22.5089C246.151,-19.1449 272.698,-15.2197 289.9,-12.6763"/>
<polygon fill="midnightblue" stroke="midnightblue" points="222.642,-19.0828 213.262,-24.008 223.666,-26.0076 222.642,-19.0828"/>
</g>
</g>
</svg>
