<?xml version="1.0" encoding="UTF-8" standalone="no"?>
<!DOCTYPE svg PUBLIC "-//W3C//DTD SVG 1.1//EN"
 "http://www.w3.org/Graphics/SVG/1.1/DTD/svg11.dtd">
<!-- Generated by graphviz version 2.38.0 (20140413.2041)
 -->
<!-- Title: value_free Pages: 1 -->
<svg width="383pt" height="85pt"
 viewBox="0.00 0.00 383.00 85.00" xmlns="http://www.w3.org/2000/svg" xmlns:xlink="http://www.w3.org/1999/xlink">
<g id="graph0" class="graph" transform="scale(1 1) rotate(0) translate(4 81)">
<title>value_free</title>
<!-- Node1 -->
<g id="node1" class="node"><title>Node1</title>
<polygon fill="#bfbfbf" stroke="black" points="0,-0.5 0,-19.5 62,-19.5 62,-0.5 0,-0.5"/>
<text text-anchor="middle" x="31" y="-7.5" font-family="Helvetica,sans-Serif" font-size="10.00">value_free</text>
</g>
<!-- Node2 -->
<g id="node2" class="node"><title>Node2</title>
<g id="a_node2"><a xlink:href="a00042.html#a195d511a075f2349200563af1c5d1fd7" target="_top" xlink:title="hpd_map_free">
<polygon fill="none" stroke="black" points="98,-19.5 98,-38.5 176,-38.5 176,-19.5 98,-19.5"/>
<text text-anchor="middle" x="137" y="-26.5" font-family="Helvetica,sans-Serif" font-size="10.00">hpd_map_free</text>
</a>
</g>
</g>
<!-- Node1&#45;&gt;Node2 -->
<g id="edge1" class="edge"><title>Node1&#45;&gt;Node2</title>
<path fill="none" stroke="midnightblue" d="M62.0811,-15.4956C70.1883,-16.9767 79.1655,-18.6168 87.9886,-20.2287"/>
<polygon fill="midnightblue" stroke="midnightblue" points="87.364,-23.6724 97.8302,-22.0267 88.6221,-16.7864 87.364,-23.6724"/>
</g>
<!-- Node4 -->
<g id="node4" class="node"><title>Node4</title>
<g id="a_node4"><a xlink:href="a00006.html#adf46370d9c211c3be22966b4606ba9b0" target="_top" xlink:title="free">
<polygon fill="none" stroke="black" points="342,-19.5 342,-38.5 375,-38.5 375,-19.5 342,-19.5"/>
<text text-anchor="middle" x="358.5" y="-26.5" font-family="Helvetica,sans-Serif" font-size="10.00">free</text>
</a>
</g>
</g>
<!-- Node1&#45;&gt;Node4 -->
<g id="edge5" class="edge"><title>Node1&#45;&gt;Node4</title>
<path fill="none" stroke="midnightblue" d="M62.0861,-9.0884C91.235,-8.42051 136.679,-7.94746 176,-10 231.626,-12.9036 296.452,-20.7804 331.606,-25.43"/>
<polygon fill="midnightblue" stroke="midnightblue" points="331.143,-28.8992 341.52,-26.7603 332.074,-21.9614 331.143,-28.8992"/>
</g>
<!-- Node3 -->
<g id="node3" class="node"><title>Node3</title>
<g id="a_node3"><a xlink:href="a00022.html#ae1085dd4fd40466d18b02ec077ef4d6d" target="_top" xlink:title="hpd_map_remove">
<polygon fill="none" stroke="black" points="212,-57.5 212,-76.5 306,-76.5 306,-57.5 212,-57.5"/>
<text text-anchor="middle" x="259" y="-64.5" font-family="Helvetica,sans-Serif" font-size="10.00">hpd_map_remove</text>
</a>
</g>
</g>
<!-- Node2&#45;&gt;Node3 -->
<g id="edge2" class="edge"><title>Node2&#45;&gt;Node3</title>
<path fill="none" stroke="midnightblue" d="M168.281,-38.589C183.346,-43.3594 201.754,-49.1888 217.967,-54.3229"/>
<polygon fill="midnightblue" stroke="midnightblue" points="217.139,-57.7318 227.729,-57.4141 219.252,-51.0584 217.139,-57.7318"/>
</g>
<!-- Node2&#45;&gt;Node4 -->
<g id="edge4" class="edge"><title>Node2&#45;&gt;Node4</title>
<path fill="none" stroke="midnightblue" d="M176.234,-29C220.728,-29 292.997,-29 331.468,-29"/>
<polygon fill="midnightblue" stroke="midnightblue" points="331.813,-32.5001 341.813,-29 331.813,-25.5001 331.813,-32.5001"/>
</g>
<!-- Node3&#45;&gt;Node4 -->
<g id="edge3" class="edge"><title>Node3&#45;&gt;Node4</title>
<path fill="none" stroke="midnightblue" d="M284.603,-57.411C299.179,-51.7302 317.608,-44.5477 332.289,-38.8259"/>
<polygon fill="midnightblue" stroke="midnightblue" points="333.714,-42.0269 341.76,-35.1344 331.172,-35.5047 333.714,-42.0269"/>
</g>
</g>
</svg>
