<?xml version="1.0" encoding="UTF-8" standalone="no"?>
<!DOCTYPE svg PUBLIC "-//W3C//DTD SVG 1.1//EN"
 "http://www.w3.org/Graphics/SVG/1.1/DTD/svg11.dtd">
<!-- Generated by graphviz version 2.38.0 (20140413.2041)
 -->
<!-- Title: hpd_httpd_start Pages: 1 -->
<!--zoomable 180 -->
<svg id="main" version="1.1" xmlns="http://www.w3.org/2000/svg" xmlns:xlink="http://www.w3.org/1999/xlink" xml:space="preserve" onload="init(evt)">
<style type="text/css"><![CDATA[
.edge:hover path { stroke: red; }
.edge:hover polygon { stroke: red; fill: red; }
]]></style>
<script type="text/javascript"><![CDATA[
var edges = document.getElementsByTagName('g');
if (edges && edges.length) {
  for (var i=0;i<edges.length;i++) {
    if (edges[i].id.substr(0,4)=='edge') {
      edges[i].setAttribute('class','edge');
    }
  }
}
]]></script>
        <defs>
                <circle id="rim" cx="0" cy="0" r="7"/>
                <circle id="rim2" cx="0" cy="0" r="3.5"/>
                <g id="zoomPlus">
                        <use xlink:href="#rim" fill="#404040">
                                <set attributeName="fill" to="#808080" begin="zoomplus.mouseover" end="zoomplus.mouseout"/>
                        </use>
                        <path d="M-4,0h8M0,-4v8" fill="none" stroke="white" stroke-width="1.5" pointer-events="none"/>
                </g>
                <g id="zoomMin">
                        <use xlink:href="#rim" fill="#404040">
                                <set attributeName="fill" to="#808080" begin="zoomminus.mouseover" end="zoomminus.mouseout"/>
                        </use>
                        <path d="M-4,0h8" fill="none" stroke="white" stroke-width="1.5" pointer-events="none"/>
                </g>
                <g id="dirArrow">
                        <path fill="none" stroke="white" stroke-width="1.5" d="M0,-3.0v7 M-2.5,-0.5L0,-3.0L2.5,-0.5"/>
                </g>
               <g id="resetDef">
                       <use xlink:href="#rim2" fill="#404040">
                               <set attributeName="fill" to="#808080" begin="reset.mouseover" end="reset.mouseout"/>
                       </use>
               </g>
        </defs>

<script type="text/javascript">
var viewWidth = 635;
var viewHeight = 180;
var sectionId = 'dynsection-25';
</script>
<script xlink:href="svgpan.js"/>
<svg id="graph" class="graph">
<g id="viewport">
<title>hpd_httpd_start</title>
<!-- Node1 -->
<g id="node1" class="node"><title>Node1</title>
<polygon fill="#bfbfbf" stroke="black" points="0,-76.5 0,-95.5 84,-95.5 84,-76.5 0,-76.5"/>
<text text-anchor="middle" x="42" y="-83.5" font-family="Helvetica,sans-Serif" font-size="10.00">hpd_httpd_start</text>
</g>
<!-- Node2 -->
<g id="node2" class="node"><title>Node2</title>
<g id="a_node2"><a xlink:href="a00029.html#ae77def0ed256affe27ea6ce37bf0ebf7" target="_top" xlink:title="Start the tcpd. ">
<polygon fill="none" stroke="black" points="120,-76.5 120,-95.5 201,-95.5 201,-76.5 120,-76.5"/>
<text text-anchor="middle" x="160.5" y="-83.5" font-family="Helvetica,sans-Serif" font-size="10.00">hpd_tcpd_start</text>
</a>
</g>
</g>
<!-- Node1&#45;&gt;Node2 -->
<g id="edge1" class="edge"><title>Node1&#45;&gt;Node2</title>
<path fill="none" stroke="midnightblue" d="M84.0735,-86C92.3636,-86 101.163,-86 109.715,-86"/>
<polygon fill="midnightblue" stroke="midnightblue" points="109.971,-89.5001 119.971,-86 109.971,-82.5001 109.971,-89.5001"/>
</g>
<!-- Node3 -->
<g id="node3" class="node"><title>Node3</title>
<g id="a_node3"><a xlink:href="a00045.html#ab4a4e8ef0831797b20bdb331abf9f316" target="_top" xlink:title="Initialise and accept connection. ">
<polygon fill="none" stroke="black" points="237,-76.5 237,-95.5 306,-95.5 306,-76.5 237,-76.5"/>
<text text-anchor="middle" x="271.5" y="-83.5" font-family="Helvetica,sans-Serif" font-size="10.00">on_ev_conn</text>
</a>
</g>
</g>
<!-- Node2&#45;&gt;Node3 -->
<g id="edge2" class="edge"><title>Node2&#45;&gt;Node3</title>
<path fill="none" stroke="midnightblue" d="M201.16,-86C209.469,-86 218.276,-86 226.725,-86"/>
<polygon fill="midnightblue" stroke="midnightblue" points="226.795,-89.5001 236.795,-86 226.795,-82.5001 226.795,-89.5001"/>
</g>
<!-- Node4 -->
<g id="node4" class="node"><title>Node4</title>
<g id="a_node4"><a xlink:href="a00045.html#a67d03b167f8adca86cde7eeed5850982" target="_top" xlink:title="Get the in_addr from a sockaddr (IPv4 or IPv6) ">
<polygon fill="none" stroke="black" points="348.5,-152.5 348.5,-171.5 415.5,-171.5 415.5,-152.5 348.5,-152.5"/>
<text text-anchor="middle" x="382" y="-159.5" font-family="Helvetica,sans-Serif" font-size="10.00">get_in_addr</text>
</a>
</g>
</g>
<!-- Node3&#45;&gt;Node4 -->
<g id="edge3" class="edge"><title>Node3&#45;&gt;Node4</title>
<path fill="none" stroke="midnightblue" d="M284.559,-95.5477C298.231,-106.248 321.312,-123.937 342,-138 346.407,-140.996 351.18,-144.068 355.826,-146.972"/>
<polygon fill="midnightblue" stroke="midnightblue" points="354.118,-150.031 364.471,-152.283 357.782,-144.066 354.118,-150.031"/>
</g>
<!-- Node5 -->
<g id="node5" class="node"><title>Node5</title>
<g id="a_node5"><a xlink:href="a00045.html#a58068e1a4c60b401bc6fc99c25e9a3f6" target="_top" xlink:title="Kill and clean up after a connection. ">
<polygon fill="none" stroke="black" points="458,-38.5 458,-57.5 558,-57.5 558,-38.5 458,-38.5"/>
<text text-anchor="middle" x="508" y="-45.5" font-family="Helvetica,sans-Serif" font-size="10.00">hpd_tcpd_conn_kill</text>
</a>
</g>
</g>
<!-- Node3&#45;&gt;Node5 -->
<g id="edge4" class="edge"><title>Node3&#45;&gt;Node5</title>
<path fill="none" stroke="midnightblue" d="M297.906,-95.5511C328.095,-105.468 379.698,-117.871 422,-105 448.055,-97.0725 473.382,-78.2033 489.512,-64.3373"/>
<polygon fill="midnightblue" stroke="midnightblue" points="491.913,-66.8856 497.064,-57.6268 487.264,-61.6531 491.913,-66.8856"/>
</g>
<!-- Node7 -->
<g id="node7" class="node"><title>Node7</title>
<g id="a_node7"><a xlink:href="a00045.html#a40658d68fcbff9425c35176b188f0191" target="_top" xlink:title="Recieve callback for io&#45;watcher. ">
<polygon fill="none" stroke="black" points="348.5,-76.5 348.5,-95.5 415.5,-95.5 415.5,-76.5 348.5,-76.5"/>
<text text-anchor="middle" x="382" y="-83.5" font-family="Helvetica,sans-Serif" font-size="10.00">on_ev_recv</text>
</a>
</g>
</g>
<!-- Node3&#45;&gt;Node7 -->
<g id="edge6" class="edge"><title>Node3&#45;&gt;Node7</title>
<path fill="none" stroke="midnightblue" d="M306.235,-86C316.313,-86 327.498,-86 338.081,-86"/>
<polygon fill="midnightblue" stroke="midnightblue" points="338.4,-89.5001 348.4,-86 338.4,-82.5001 338.4,-89.5001"/>
</g>
<!-- Node8 -->
<g id="node8" class="node"><title>Node8</title>
<g id="a_node8"><a xlink:href="a00045.html#ac92de38ee89f3dac24453a2d8b2f4027" target="_top" xlink:title="Send callback for io&#45;watcher. ">
<polygon fill="none" stroke="black" points="347.5,-0.5 347.5,-19.5 416.5,-19.5 416.5,-0.5 347.5,-0.5"/>
<text text-anchor="middle" x="382" y="-7.5" font-family="Helvetica,sans-Serif" font-size="10.00">on_ev_send</text>
</a>
</g>
</g>
<!-- Node3&#45;&gt;Node8 -->
<g id="edge8" class="edge"><title>Node3&#45;&gt;Node8</title>
<path fill="none" stroke="midnightblue" d="M282.74,-76.2957C295.798,-64.2377 319.405,-43.4868 342,-29 344.58,-27.346 347.325,-25.7379 350.117,-24.2027"/>
<polygon fill="midnightblue" stroke="midnightblue" points="351.779,-27.2836 359.054,-19.5812 348.564,-21.0657 351.779,-27.2836"/>
</g>
<!-- Node9 -->
<g id="node9" class="node"><title>Node9</title>
<g id="a_node9"><a xlink:href="a00045.html#a00be9f92695597655a179e6f581e5350" target="_top" xlink:title="Timeout callback for timeout watcher. ">
<polygon fill="none" stroke="black" points="342,-38.5 342,-57.5 422,-57.5 422,-38.5 342,-38.5"/>
<text text-anchor="middle" x="382" y="-45.5" font-family="Helvetica,sans-Serif" font-size="10.00">on_ev_timeout</text>
</a>
</g>
</g>
<!-- Node3&#45;&gt;Node9 -->
<g id="edge11" class="edge"><title>Node3&#45;&gt;Node9</title>
<path fill="none" stroke="midnightblue" d="M299.879,-76.411C313.243,-71.7306 329.517,-66.0308 343.972,-60.9685"/>
<polygon fill="midnightblue" stroke="midnightblue" points="345.349,-64.1947 353.63,-57.5859 343.035,-57.5882 345.349,-64.1947"/>
</g>
<!-- Node6 -->
<g id="node6" class="node"><title>Node6</title>
<g id="a_node6"><a xlink:href="a00006.html#adf46370d9c211c3be22966b4606ba9b0" target="_top" xlink:title="free">
<polygon fill="none" stroke="black" points="594,-19.5 594,-38.5 627,-38.5 627,-19.5 594,-19.5"/>
<text text-anchor="middle" x="610.5" y="-26.5" font-family="Helvetica,sans-Serif" font-size="10.00">free</text>
</a>
</g>
</g>
<!-- Node5&#45;&gt;Node6 -->
<g id="edge5" class="edge"><title>Node5&#45;&gt;Node6</title>
<path fill="none" stroke="midnightblue" d="M558.072,-38.7226C566.979,-37.0388 575.935,-35.3457 583.82,-33.8549"/>
<polygon fill="midnightblue" stroke="midnightblue" points="584.628,-37.2642 593.804,-31.9674 583.328,-30.3861 584.628,-37.2642"/>
</g>
<!-- Node7&#45;&gt;Node5 -->
<g id="edge7" class="edge"><title>Node7&#45;&gt;Node5</title>
<path fill="none" stroke="midnightblue" d="M414.29,-76.411C430.004,-71.5956 449.238,-65.7012 466.106,-60.532"/>
<polygon fill="midnightblue" stroke="midnightblue" points="467.184,-63.8624 475.72,-57.5859 465.133,-57.1696 467.184,-63.8624"/>
</g>
<!-- Node8&#45;&gt;Node5 -->
<g id="edge10" class="edge"><title>Node8&#45;&gt;Node5</title>
<path fill="none" stroke="midnightblue" d="M414.29,-19.589C430.004,-24.4044 449.238,-30.2988 466.106,-35.468"/>
<polygon fill="midnightblue" stroke="midnightblue" points="465.133,-38.8304 475.72,-38.4141 467.184,-32.1376 465.133,-38.8304"/>
</g>
<!-- Node8&#45;&gt;Node6 -->
<g id="edge9" class="edge"><title>Node8&#45;&gt;Node6</title>
<path fill="none" stroke="midnightblue" d="M416.909,-12.8445C462.564,-16.6742 542.789,-23.4039 583.793,-26.8435"/>
<polygon fill="midnightblue" stroke="midnightblue" points="583.535,-30.3341 593.793,-27.6824 584.12,-23.3586 583.535,-30.3341"/>
</g>
<!-- Node9&#45;&gt;Node5 -->
<g id="edge12" class="edge"><title>Node9&#45;&gt;Node5</title>
<path fill="none" stroke="midnightblue" d="M422.234,-48C430.394,-48 439.165,-48 447.86,-48"/>
<polygon fill="midnightblue" stroke="midnightblue" points="447.992,-51.5001 457.992,-48 447.992,-44.5001 447.992,-51.5001"/>
</g>
</g>
</svg>
        <g id="navigator" transform="translate(0 0)" fill="#404254">
                <rect fill="#f2f5e9" fill-opacity="0.5" stroke="#606060" stroke-width=".5" x="0" y="0" width="60" height="60"/>
                <use id="zoomplus" xlink:href="#zoomPlus" x="17" y="9" onmousedown="handleZoom(evt,'in')"/>
                <use id="zoomminus" xlink:href="#zoomMin" x="42" y="9" onmousedown="handleZoom(evt,'out')"/>
                <use id="reset" xlink:href="#resetDef" x="30" y="36" onmousedown="handleReset()"/>
                <g id="arrowUp" xlink:href="#dirArrow" transform="translate(30 24)" onmousedown="handlePan(0,-1)">
                  <use xlink:href="#rim" fill="#404040">
                        <set attributeName="fill" to="#808080" begin="arrowUp.mouseover" end="arrowUp.mouseout"/>
                  </use>
                  <path fill="none" stroke="white" stroke-width="1.5" d="M0,-3.0v7 M-2.5,-0.5L0,-3.0L2.5,-0.5"/>
                </g>
                <g id="arrowRight" xlink:href="#dirArrow" transform="rotate(90) translate(36 -43)" onmousedown="handlePan(1,0)">
                  <use xlink:href="#rim" fill="#404040">
                        <set attributeName="fill" to="#808080" begin="arrowRight.mouseover" end="arrowRight.mouseout"/>
                  </use>
                  <path fill="none" stroke="white" stroke-width="1.5" d="M0,-3.0v7 M-2.5,-0.5L0,-3.0L2.5,-0.5"/>
                </g>
                <g id="arrowDown" xlink:href="#dirArrow" transform="rotate(180) translate(-30 -48)" onmousedown="handlePan(0,1)">
                  <use xlink:href="#rim" fill="#404040">
                        <set attributeName="fill" to="#808080" begin="arrowDown.mouseover" end="arrowDown.mouseout"/>
                  </use>
                  <path fill="none" stroke="white" stroke-width="1.5" d="M0,-3.0v7 M-2.5,-0.5L0,-3.0L2.5,-0.5"/>
                </g>
                <g id="arrowLeft" xlink:href="#dirArrow" transform="rotate(270) translate(-36 17)" onmousedown="handlePan(-1,0)">
                  <use xlink:href="#rim" fill="#404040">
                        <set attributeName="fill" to="#808080" begin="arrowLeft.mouseover" end="arrowLeft.mouseout"/>
                  </use>
                  <path fill="none" stroke="white" stroke-width="1.5" d="M0,-3.0v7 M-2.5,-0.5L0,-3.0L2.5,-0.5"/>
                </g>
        </g>
        <svg viewBox="0 0 15 15" width="100%" height="30px" preserveAspectRatio="xMaxYMin meet">
         <g id="arrow_out" transform="scale(0.3 0.3)">
          <a xlink:href="a00018_ab26dd9acbd2ec17e5863a50f01e70e65_cgraph_org.svg" target="_base">
           <rect id="button" ry="5" rx="5" y="6" x="6" height="38" width="38"
                fill="#f2f5e9" fill-opacity="0.5" stroke="#606060" stroke-width="1.0"/>
           <path id="arrow"
             d="M 11.500037,31.436501 C 11.940474,20.09759 22.043105,11.32322 32.158766,21.979434 L 37.068811,17.246167 C 37.068811,17.246167 37.088388,32 37.088388,32 L 22.160133,31.978069 C 22.160133,31.978069 26.997745,27.140456 26.997745,27.140456 C 18.528582,18.264221 13.291696,25.230495 11.500037,31.436501 z"
             style="fill:#404040;"/>
          </a>
         </g>
        </svg>
</svg>
