<?xml version="1.0" encoding="UTF-8" standalone="no"?>
<!DOCTYPE svg PUBLIC "-//W3C//DTD SVG 1.1//EN"
 "http://www.w3.org/Graphics/SVG/1.1/DTD/svg11.dtd">
<!-- Generated by graphviz version 2.38.0 (20140413.2041)
 -->
<!-- Title: data_from_curl Pages: 1 -->
<svg width="517pt" height="28pt"
 viewBox="0.00 0.00 517.00 28.00" xmlns="http://www.w3.org/2000/svg" xmlns:xlink="http://www.w3.org/1999/xlink">
<g id="graph0" class="graph" transform="scale(1 1) rotate(0) translate(4 24)">
<title>data_from_curl</title>
<!-- Node1 -->
<g id="node1" class="node"><title>Node1</title>
<polygon fill="#bfbfbf" stroke="black" points="0,-0.5 0,-19.5 81,-19.5 81,-0.5 0,-0.5"/>
<text text-anchor="middle" x="40.5" y="-7.5" font-family="Helvetica,sans-Serif" font-size="10.00">data_from_curl</text>
</g>
<!-- Node2 -->
<g id="node2" class="node"><title>Node2</title>
<g id="a_node2"><a xlink:href="a00043.html#adee3ed193c880b748e304af40508a8f9" target="_top" xlink:title="simple_get_request">
<polygon fill="none" stroke="black" points="117,-0.5 117,-19.5 218,-19.5 218,-0.5 117,-0.5"/>
<text text-anchor="middle" x="167.5" y="-7.5" font-family="Helvetica,sans-Serif" font-size="10.00">simple_get_request</text>
</a>
</g>
</g>
<!-- Node1&#45;&gt;Node2 -->
<g id="edge1" class="edge"><title>Node1&#45;&gt;Node2</title>
<path fill="none" stroke="midnightblue" d="M91.099,-10C99.5046,-10 108.236,-10 116.648,-10"/>
<polygon fill="midnightblue" stroke="midnightblue" points="91.0508,-6.5001 81.0508,-10 91.0507,-13.5001 91.0508,-6.5001"/>
</g>
<!-- Node3 -->
<g id="node3" class="node"><title>Node3</title>
<g id="a_node3"><a xlink:href="a00043.html#a008c8f3c3591609617317922b8aa15c2" target="_top" xlink:title="basic_get_test">
<polygon fill="none" stroke="black" points="254,-0.5 254,-19.5 334,-19.5 334,-0.5 254,-0.5"/>
<text text-anchor="middle" x="294" y="-7.5" font-family="Helvetica,sans-Serif" font-size="10.00">basic_get_test</text>
</a>
</g>
</g>
<!-- Node2&#45;&gt;Node3 -->
<g id="edge2" class="edge"><title>Node2&#45;&gt;Node3</title>
<path fill="none" stroke="midnightblue" d="M228.246,-10C236.981,-10 245.782,-10 253.96,-10"/>
<polygon fill="midnightblue" stroke="midnightblue" points="228.063,-6.5001 218.063,-10 228.063,-13.5001 228.063,-6.5001"/>
</g>
<!-- Node4 -->
<g id="node4" class="node"><title>Node4</title>
<g id="a_node4"><a xlink:href="a00043.html#aca68378f576a44735a13cce291603838" target="_top" xlink:title="Test thread. ">
<polygon fill="none" stroke="black" points="370,-0.5 370,-19.5 435,-19.5 435,-0.5 370,-0.5"/>
<text text-anchor="middle" x="402.5" y="-7.5" font-family="Helvetica,sans-Serif" font-size="10.00">test_thread</text>
</a>
</g>
</g>
<!-- Node3&#45;&gt;Node4 -->
<g id="edge3" class="edge"><title>Node3&#45;&gt;Node4</title>
<path fill="none" stroke="midnightblue" d="M344.15,-10C352.857,-10 361.711,-10 369.774,-10"/>
<polygon fill="midnightblue" stroke="midnightblue" points="344.052,-6.5001 334.052,-10 344.052,-13.5001 344.052,-6.5001"/>
</g>
<!-- Node5 -->
<g id="node5" class="node"><title>Node5</title>
<g id="a_node5"><a xlink:href="a00043.html#a0ddf1224851353fc92bfbff6f499fa97" target="_top" xlink:title="Main function. ">
<polygon fill="none" stroke="black" points="471,-0.5 471,-19.5 509,-19.5 509,-0.5 471,-0.5"/>
<text text-anchor="middle" x="490" y="-7.5" font-family="Helvetica,sans-Serif" font-size="10.00">main</text>
</a>
</g>
</g>
<!-- Node4&#45;&gt;Node5 -->
<g id="edge4" class="edge"><title>Node4&#45;&gt;Node5</title>
<path fill="none" stroke="midnightblue" d="M445.342,-10C454.298,-10 463.307,-10 470.796,-10"/>
<polygon fill="midnightblue" stroke="midnightblue" points="445.337,-6.5001 435.337,-10 445.337,-13.5001 445.337,-6.5001"/>
</g>
</g>
</svg>
