<?xml version="1.0" encoding="UTF-8" standalone="no"?>
<!DOCTYPE svg PUBLIC "-//W3C//DTD SVG 1.1//EN"
 "http://www.w3.org/Graphics/SVG/1.1/DTD/svg11.dtd">
<!-- Generated by graphviz version 2.38.0 (20140413.2041)
 -->
<!-- Title: demo_adapter_send_value Pages: 1 -->
<svg width="1328pt" height="402pt"
 viewBox="0.00 0.00 1328.00 401.70" xmlns="http://www.w3.org/2000/svg" xmlns:xlink="http://www.w3.org/1999/xlink">
<g id="graph0" class="graph" transform="scale(1 1) rotate(0) translate(4 397.697)">
<title>demo_adapter_send_value</title>
<!-- Node1 -->
<g id="node1" class="node"><title>Node1</title>
<polygon fill="#bfbfbf" stroke="black" points="0,-154.197 0,-173.197 133,-173.197 133,-154.197 0,-154.197"/>
<text text-anchor="middle" x="66.5" y="-161.197" font-family="Helvetica,sans-Serif" font-size="10.00">demo_adapter_send_value</text>
</g>
<!-- Node2 -->
<g id="node2" class="node"><title>Node2</title>
<g id="a_node2"><a xlink:href="a00071.html#aff4eae061b1220e0bb55de72f8129493" target="_top" xlink:title="[hpd_request_t functions] ">
<polygon fill="none" stroke="black" points="304,-329.197 304,-348.197 407,-348.197 407,-329.197 304,-329.197"/>
<text text-anchor="middle" x="355.5" y="-336.197" font-family="Helvetica,sans-Serif" font-size="10.00">hpd_response_alloc</text>
</a>
</g>
</g>
<!-- Node1&#45;&gt;Node2 -->
<g id="edge1" class="edge"><title>Node1&#45;&gt;Node2</title>
<path fill="none" stroke="midnightblue" d="M73.3117,-173.378C87.0955,-195.522 124.007,-250.223 169,-279.697 206.757,-304.432 255.61,-319.417 293.703,-328.093"/>
<polygon fill="midnightblue" stroke="midnightblue" points="293.125,-331.549 303.642,-330.27 294.623,-324.711 293.125,-331.549"/>
</g>
<!-- Node11 -->
<g id="node11" class="node"><title>Node11</title>
<g id="a_node11"><a xlink:href="a00075.html#a0aa34f0ba8202ed0e5d3c71719f658b0" target="_top" xlink:title="hpd_value_allocf">
<polygon fill="none" stroke="black" points="311,-87.1974 311,-106.197 400,-106.197 400,-87.1974 311,-87.1974"/>
<text text-anchor="middle" x="355.5" y="-94.1974" font-family="Helvetica,sans-Serif" font-size="10.00">hpd_value_allocf</text>
</a>
</g>
</g>
<!-- Node1&#45;&gt;Node11 -->
<g id="edge17" class="edge"><title>Node1&#45;&gt;Node11</title>
<path fill="none" stroke="midnightblue" d="M92.6362,-154.125C112.991,-146.655 142.529,-136.447 169,-129.697 212.749,-118.543 263.245,-109.824 300.496,-104.157"/>
<polygon fill="midnightblue" stroke="midnightblue" points="301.263,-107.581 310.635,-102.639 300.227,-100.658 301.263,-107.581"/>
</g>
<!-- Node14 -->
<g id="node14" class="node"><title>Node14</title>
<g id="a_node14"><a xlink:href="a00071.html#a23aa9a2e797738188778c906be59221a" target="_top" xlink:title="hpd_response_set_value">
<polygon fill="none" stroke="black" points="443,-42.1974 443,-61.1974 568,-61.1974 568,-42.1974 443,-42.1974"/>
<text text-anchor="middle" x="505.5" y="-49.1974" font-family="Helvetica,sans-Serif" font-size="10.00">hpd_response_set_value</text>
</a>
</g>
</g>
<!-- Node1&#45;&gt;Node14 -->
<g id="edge22" class="edge"><title>Node1&#45;&gt;Node14</title>
<path fill="none" stroke="midnightblue" d="M81.2945,-154.164C100.232,-141.504 135.731,-119.282 169,-106.697 256.036,-73.7733 363.115,-60.5419 432.539,-55.2349"/>
<polygon fill="midnightblue" stroke="midnightblue" points="433.206,-58.6957 442.926,-54.4786 432.698,-51.7142 433.206,-58.6957"/>
</g>
<!-- Node16 -->
<g id="node16" class="node"><title>Node16</title>
<g id="a_node16"><a xlink:href="a00071.html#a0f52d1f4e06fe16eb27a1b394bcd6d86" target="_top" xlink:title="hpd_respond">
<polygon fill="none" stroke="black" points="182.5,-251.197 182.5,-270.197 254.5,-270.197 254.5,-251.197 182.5,-251.197"/>
<text text-anchor="middle" x="218.5" y="-258.197" font-family="Helvetica,sans-Serif" font-size="10.00">hpd_respond</text>
</a>
</g>
</g>
<!-- Node1&#45;&gt;Node16 -->
<g id="edge26" class="edge"><title>Node1&#45;&gt;Node16</title>
<path fill="none" stroke="midnightblue" d="M82.431,-173.353C108.6,-190.275 162.925,-225.406 194.118,-245.577"/>
<polygon fill="midnightblue" stroke="midnightblue" points="192.332,-248.59 202.629,-251.081 196.133,-242.712 192.332,-248.59"/>
</g>
<!-- Node19 -->
<g id="node19" class="node"><title>Node19</title>
<g id="a_node19"><a xlink:href="a00075.html#a214a6d699e1e5cbff10fa2d6fee721ff" target="_top" xlink:title="hpd_value_free">
<polygon fill="none" stroke="black" points="620.5,-127.197 620.5,-146.197 703.5,-146.197 703.5,-127.197 620.5,-127.197"/>
<text text-anchor="middle" x="662" y="-134.197" font-family="Helvetica,sans-Serif" font-size="10.00">hpd_value_free</text>
</a>
</g>
</g>
<!-- Node1&#45;&gt;Node19 -->
<g id="edge32" class="edge"><title>Node1&#45;&gt;Node19</title>
<path fill="none" stroke="midnightblue" d="M133.283,-160.705C252.597,-155.277 502.282,-143.918 609.873,-139.023"/>
<polygon fill="midnightblue" stroke="midnightblue" points="610.308,-142.507 620.139,-138.556 609.99,-135.514 610.308,-142.507"/>
</g>
<!-- Node20 -->
<g id="node20" class="node"><title>Node20</title>
<g id="a_node20"><a xlink:href="a00071.html#a2f50d49e360ca2689857e43bfcd533b3" target="_top" xlink:title="hpd_response_free">
<polygon fill="none" stroke="black" points="169,-175.197 169,-194.197 268,-194.197 268,-175.197 169,-175.197"/>
<text text-anchor="middle" x="218.5" y="-182.197" font-family="Helvetica,sans-Serif" font-size="10.00">hpd_response_free</text>
</a>
</g>
</g>
<!-- Node1&#45;&gt;Node20 -->
<g id="edge34" class="edge"><title>Node1&#45;&gt;Node20</title>
<path fill="none" stroke="midnightblue" d="M133.292,-172.908C141.799,-174.099 150.465,-175.313 158.846,-176.486"/>
<polygon fill="midnightblue" stroke="midnightblue" points="158.508,-179.973 168.896,-177.893 159.478,-173.04 158.508,-179.973"/>
</g>
<!-- Node3 -->
<g id="node3" class="node"><title>Node3</title>
<g id="a_node3"><a xlink:href="a00087.html#a6bf78b6455bffb23cdea87114d97b5c0" target="_top" xlink:title="request_alloc_response">
<polygon fill="none" stroke="black" points="446,-374.197 446,-393.197 565,-393.197 565,-374.197 446,-374.197"/>
<text text-anchor="middle" x="505.5" y="-381.197" font-family="Helvetica,sans-Serif" font-size="10.00">request_alloc_response</text>
</a>
</g>
</g>
<!-- Node2&#45;&gt;Node3 -->
<g id="edge2" class="edge"><title>Node2&#45;&gt;Node3</title>
<path fill="none" stroke="midnightblue" d="M387.887,-348.241C409.864,-354.923 439.447,-363.918 463.317,-371.175"/>
<polygon fill="midnightblue" stroke="midnightblue" points="462.573,-374.607 473.158,-374.168 464.609,-367.91 462.573,-374.607"/>
</g>
<!-- Node4 -->
<g id="node4" class="node"><title>Node4</title>
<g id="a_node4"><a xlink:href="a00012.html#adf46370d9c211c3be22966b4606ba9b0" target="_top" xlink:title="free">
<polygon fill="none" stroke="black" points="1287,-184.197 1287,-203.197 1320,-203.197 1320,-184.197 1287,-184.197"/>
<text text-anchor="middle" x="1303.5" y="-191.197" font-family="Helvetica,sans-Serif" font-size="10.00">free</text>
</a>
</g>
</g>
<!-- Node3&#45;&gt;Node4 -->
<g id="edge3" class="edge"><title>Node3&#45;&gt;Node4</title>
<path fill="none" stroke="midnightblue" d="M565.255,-383.697C626.673,-383.697 725.851,-383.697 811.5,-383.697 811.5,-383.697 811.5,-383.697 1073,-383.697 1152.83,-383.697 1190.05,-411.245 1251,-359.697 1294.87,-322.599 1301.97,-248.863 1302.73,-213.506"/>
<polygon fill="midnightblue" stroke="midnightblue" points="1306.23,-213.492 1302.79,-203.471 1299.23,-213.449 1306.23,-213.492"/>
</g>
<!-- Node5 -->
<g id="node5" class="node"><title>Node5</title>
<g id="a_node5"><a xlink:href="a00087.html#a2477fb8cf085cc2b61dbfacdcdc54b82" target="_top" xlink:title="request_free_response">
<polygon fill="none" stroke="black" points="604,-215.197 604,-234.197 720,-234.197 720,-215.197 604,-215.197"/>
<text text-anchor="middle" x="662" y="-222.197" font-family="Helvetica,sans-Serif" font-size="10.00">request_free_response</text>
</a>
</g>
</g>
<!-- Node3&#45;&gt;Node5 -->
<g id="edge4" class="edge"><title>Node3&#45;&gt;Node5</title>
<path fill="none" stroke="midnightblue" d="M516.165,-373.751C541.865,-347.302 612.128,-274.992 644.397,-241.784"/>
<polygon fill="midnightblue" stroke="midnightblue" points="647.273,-243.847 651.732,-234.236 642.253,-238.968 647.273,-243.847"/>
</g>
<!-- Node5&#45;&gt;Node4 -->
<g id="edge16" class="edge"><title>Node5&#45;&gt;Node4</title>
<path fill="none" stroke="midnightblue" d="M717.13,-215.186C773.76,-206.073 865.333,-193.697 945,-193.697 945,-193.697 945,-193.697 1073,-193.697 1147.04,-193.697 1234.51,-193.697 1276.91,-193.697"/>
<polygon fill="midnightblue" stroke="midnightblue" points="1276.92,-197.198 1286.92,-193.697 1276.92,-190.198 1276.92,-197.198"/>
</g>
<!-- Node6 -->
<g id="node6" class="node"><title>Node6</title>
<g id="a_node6"><a xlink:href="a00087.html#adc90843b331f5522a8d08d6e4219e126" target="_top" xlink:title="request_free_request">
<polygon fill="none" stroke="black" points="758.5,-222.197 758.5,-241.197 866.5,-241.197 866.5,-222.197 758.5,-222.197"/>
<text text-anchor="middle" x="812.5" y="-229.197" font-family="Helvetica,sans-Serif" font-size="10.00">request_free_request</text>
</a>
</g>
</g>
<!-- Node5&#45;&gt;Node6 -->
<g id="edge5" class="edge"><title>Node5&#45;&gt;Node6</title>
<path fill="none" stroke="midnightblue" d="M720.414,-227.404C729.428,-227.829 738.791,-228.27 747.933,-228.701"/>
<polygon fill="midnightblue" stroke="midnightblue" points="747.977,-232.207 758.131,-229.182 748.307,-225.215 747.977,-232.207"/>
</g>
<!-- Node8 -->
<g id="node8" class="node"><title>Node8</title>
<g id="a_node8"><a xlink:href="a00090.html#a1ec3b1d4547e5080bcec544c877852da" target="_top" xlink:title="value_free">
<polygon fill="none" stroke="black" points="915,-108.197 915,-127.197 977,-127.197 977,-108.197 915,-108.197"/>
<text text-anchor="middle" x="946" y="-115.197" font-family="Helvetica,sans-Serif" font-size="10.00">value_free</text>
</a>
</g>
</g>
<!-- Node5&#45;&gt;Node8 -->
<g id="edge15" class="edge"><title>Node5&#45;&gt;Node8</title>
<path fill="none" stroke="midnightblue" d="M680.854,-215.173C699.343,-205.522 729.223,-190.511 756,-179.697 783.353,-168.651 858.375,-144.735 905.257,-130.047"/>
<polygon fill="midnightblue" stroke="midnightblue" points="906.307,-133.385 914.807,-127.06 904.218,-126.704 906.307,-133.385"/>
</g>
<!-- Node6&#45;&gt;Node4 -->
<g id="edge14" class="edge"><title>Node6&#45;&gt;Node4</title>
<path fill="none" stroke="midnightblue" d="M866.599,-240.828C879.156,-242.708 892.524,-244.482 905,-245.697 1058.22,-260.62 1108.33,-287.528 1251,-229.697 1262.92,-224.866 1274.78,-216.848 1284.12,-209.604"/>
<polygon fill="midnightblue" stroke="midnightblue" points="1286.34,-212.303 1291.9,-203.283 1281.93,-206.868 1286.34,-212.303"/>
</g>
<!-- Node7 -->
<g id="node7" class="node"><title>Node7</title>
<g id="a_node7"><a xlink:href="a00020.html#a8922de7d42124afa8ab5fd339fe695ee" target="_top" xlink:title="discovery_free_sid">
<polygon fill="none" stroke="black" points="1023,-222.197 1023,-241.197 1121,-241.197 1121,-222.197 1023,-222.197"/>
<text text-anchor="middle" x="1072" y="-229.197" font-family="Helvetica,sans-Serif" font-size="10.00">discovery_free_sid</text>
</a>
</g>
</g>
<!-- Node6&#45;&gt;Node7 -->
<g id="edge6" class="edge"><title>Node6&#45;&gt;Node7</title>
<path fill="none" stroke="midnightblue" d="M866.542,-231.697C909.067,-231.697 968.683,-231.697 1012.57,-231.697"/>
<polygon fill="midnightblue" stroke="midnightblue" points="1012.81,-235.198 1022.81,-231.697 1012.81,-228.198 1012.81,-235.198"/>
</g>
<!-- Node6&#45;&gt;Node8 -->
<g id="edge8" class="edge"><title>Node6&#45;&gt;Node8</title>
<path fill="none" stroke="midnightblue" d="M824.712,-221.978C847.227,-202.459 898.158,-158.306 925.981,-134.185"/>
<polygon fill="midnightblue" stroke="midnightblue" points="928.553,-136.587 933.817,-127.392 923.968,-131.298 928.553,-136.587"/>
</g>
<!-- Node7&#45;&gt;Node4 -->
<g id="edge7" class="edge"><title>Node7&#45;&gt;Node4</title>
<path fill="none" stroke="midnightblue" d="M1121.26,-226.927C1157.23,-222.951 1207.45,-216.513 1251,-207.697 1259.56,-205.965 1268.79,-203.612 1277.04,-201.329"/>
<polygon fill="midnightblue" stroke="midnightblue" points="1278.2,-204.64 1286.85,-198.527 1276.27,-197.909 1278.2,-204.64"/>
</g>
<!-- Node8&#45;&gt;Node4 -->
<g id="edge13" class="edge"><title>Node8&#45;&gt;Node4</title>
<path fill="none" stroke="midnightblue" d="M970.019,-108.069C1023.68,-87.259 1159.44,-44.1866 1251,-98.6974 1278.29,-114.946 1292.01,-151.251 1298.17,-173.979"/>
<polygon fill="midnightblue" stroke="midnightblue" points="1294.82,-175.026 1300.61,-183.898 1301.62,-173.351 1294.82,-175.026"/>
</g>
<!-- Node9 -->
<g id="node9" class="node"><title>Node9</title>
<g id="a_node9"><a xlink:href="a00056.html#a195d511a075f2349200563af1c5d1fd7" target="_top" xlink:title="hpd_map_free">
<polygon fill="none" stroke="black" points="1033,-108.197 1033,-127.197 1111,-127.197 1111,-108.197 1033,-108.197"/>
<text text-anchor="middle" x="1072" y="-115.197" font-family="Helvetica,sans-Serif" font-size="10.00">hpd_map_free</text>
</a>
</g>
</g>
<!-- Node8&#45;&gt;Node9 -->
<g id="edge9" class="edge"><title>Node8&#45;&gt;Node9</title>
<path fill="none" stroke="midnightblue" d="M977.017,-117.697C990.644,-117.697 1007.11,-117.697 1022.43,-117.697"/>
<polygon fill="midnightblue" stroke="midnightblue" points="1022.8,-121.198 1032.8,-117.697 1022.8,-114.198 1022.8,-121.198"/>
</g>
<!-- Node9&#45;&gt;Node4 -->
<g id="edge12" class="edge"><title>Node9&#45;&gt;Node4</title>
<path fill="none" stroke="midnightblue" d="M1102.07,-127.323C1147.42,-142.341 1234.25,-171.097 1277.19,-185.315"/>
<polygon fill="midnightblue" stroke="midnightblue" points="1276.27,-188.698 1286.86,-188.519 1278.47,-182.053 1276.27,-188.698"/>
</g>
<!-- Node10 -->
<g id="node10" class="node"><title>Node10</title>
<g id="a_node10"><a xlink:href="a00031.html#ae1085dd4fd40466d18b02ec077ef4d6d" target="_top" xlink:title="hpd_map_remove">
<polygon fill="none" stroke="black" points="1157,-108.197 1157,-127.197 1251,-127.197 1251,-108.197 1157,-108.197"/>
<text text-anchor="middle" x="1204" y="-115.197" font-family="Helvetica,sans-Serif" font-size="10.00">hpd_map_remove</text>
</a>
</g>
</g>
<!-- Node9&#45;&gt;Node10 -->
<g id="edge10" class="edge"><title>Node9&#45;&gt;Node10</title>
<path fill="none" stroke="midnightblue" d="M1111.3,-117.697C1122.31,-117.697 1134.55,-117.697 1146.41,-117.697"/>
<polygon fill="midnightblue" stroke="midnightblue" points="1146.7,-121.198 1156.7,-117.697 1146.7,-114.198 1146.7,-121.198"/>
</g>
<!-- Node10&#45;&gt;Node4 -->
<g id="edge11" class="edge"><title>Node10&#45;&gt;Node4</title>
<path fill="none" stroke="midnightblue" d="M1226.88,-127.382C1234.8,-131.325 1243.61,-136.243 1251,-141.697 1264.69,-151.795 1278.14,-165.552 1287.87,-176.38"/>
<polygon fill="midnightblue" stroke="midnightblue" points="1285.3,-178.759 1294.52,-183.98 1290.57,-174.149 1285.3,-178.759"/>
</g>
<!-- Node12 -->
<g id="node12" class="node"><title>Node12</title>
<g id="a_node12"><a xlink:href="a00090.html#adeb75caf64a60f64199894b007586f88" target="_top" xlink:title="value_vallocf">
<polygon fill="none" stroke="black" points="775.5,-70.1974 775.5,-89.1974 849.5,-89.1974 849.5,-70.1974 775.5,-70.1974"/>
<text text-anchor="middle" x="812.5" y="-77.1974" font-family="Helvetica,sans-Serif" font-size="10.00">value_vallocf</text>
</a>
</g>
</g>
<!-- Node11&#45;&gt;Node12 -->
<g id="edge18" class="edge"><title>Node11&#45;&gt;Node12</title>
<path fill="none" stroke="midnightblue" d="M400.127,-95.0674C486.157,-91.8531 676.965,-84.724 765.153,-81.429"/>
<polygon fill="midnightblue" stroke="midnightblue" points="765.523,-84.9178 775.385,-81.0468 765.262,-77.9227 765.523,-84.9178"/>
</g>
<!-- Node12&#45;&gt;Node4 -->
<g id="edge20" class="edge"><title>Node12&#45;&gt;Node4</title>
<path fill="none" stroke="midnightblue" d="M849.607,-73.6198C942.307,-58.8126 1185.97,-25.158 1251,-68.6974 1286.3,-92.3298 1297.43,-145.019 1300.92,-173.872"/>
<polygon fill="midnightblue" stroke="midnightblue" points="1297.45,-174.383 1301.94,-183.978 1304.42,-173.676 1297.45,-174.383"/>
</g>
<!-- Node12&#45;&gt;Node8 -->
<g id="edge21" class="edge"><title>Node12&#45;&gt;Node8</title>
<path fill="none" stroke="midnightblue" d="M846.683,-89.2864C864.483,-94.4303 886.544,-100.805 905.256,-106.212"/>
<polygon fill="midnightblue" stroke="midnightblue" points="904.397,-109.607 914.975,-109.021 906.34,-102.882 904.397,-109.607"/>
</g>
<!-- Node13 -->
<g id="node13" class="node"><title>Node13</title>
<g id="a_node13"><a xlink:href="a00056.html#a8d23b888fb4bb3f951c7d48f1928ee9a" target="_top" xlink:title="hpd_map_alloc">
<polygon fill="none" stroke="black" points="905,-13.1974 905,-32.1974 987,-32.1974 987,-13.1974 905,-13.1974"/>
<text text-anchor="middle" x="946" y="-20.1974" font-family="Helvetica,sans-Serif" font-size="10.00">hpd_map_alloc</text>
</a>
</g>
</g>
<!-- Node12&#45;&gt;Node13 -->
<g id="edge19" class="edge"><title>Node12&#45;&gt;Node13</title>
<path fill="none" stroke="midnightblue" d="M841.961,-70.1019C850.71,-66.9759 860.319,-63.3621 869,-59.6974 885.367,-52.7877 903.251,-44.1387 917.556,-36.9407"/>
<polygon fill="midnightblue" stroke="midnightblue" points="919.497,-39.8802 926.825,-32.2285 916.325,-33.6402 919.497,-39.8802"/>
</g>
<!-- Node15 -->
<g id="node15" class="node"><title>Node15</title>
<g id="a_node15"><a xlink:href="a00087.html#a2e2a34ba3b39d7bebfd5971943c4df25" target="_top" xlink:title="request_set_response\l_value">
<polygon fill="none" stroke="black" points="756,-20.6974 756,-50.6974 869,-50.6974 869,-20.6974 756,-20.6974"/>
<text text-anchor="start" x="764" y="-38.6974" font-family="Helvetica,sans-Serif" font-size="10.00">request_set_response</text>
<text text-anchor="middle" x="812.5" y="-27.6974" font-family="Helvetica,sans-Serif" font-size="10.00">_value</text>
</a>
</g>
</g>
<!-- Node14&#45;&gt;Node15 -->
<g id="edge23" class="edge"><title>Node14&#45;&gt;Node15</title>
<path fill="none" stroke="midnightblue" d="M568.221,-48.4596C619.707,-45.7587 692.897,-41.9192 745.531,-39.1581"/>
<polygon fill="midnightblue" stroke="midnightblue" points="745.969,-42.64 755.772,-38.6209 745.602,-35.6496 745.969,-42.64"/>
</g>
<!-- Node15&#45;&gt;Node4 -->
<g id="edge24" class="edge"><title>Node15&#45;&gt;Node4</title>
<path fill="none" stroke="midnightblue" d="M847.964,-20.5556C864.808,-13.9613 885.588,-6.99394 905,-3.69741 1013.97,14.8079 1250.96,-44.6647 1251,-44.6974 1290.27,-77.5066 1299.65,-141.862 1301.85,-174.189"/>
<polygon fill="midnightblue" stroke="midnightblue" points="1298.36,-174.378 1302.37,-184.183 1305.35,-174.016 1298.36,-174.378"/>
</g>
<!-- Node15&#45;&gt;Node8 -->
<g id="edge25" class="edge"><title>Node15&#45;&gt;Node8</title>
<path fill="none" stroke="midnightblue" d="M849.91,-50.709C856.396,-53.7718 862.994,-57.1512 869,-60.6974 889.42,-72.7544 910.876,-89.2483 925.763,-101.392"/>
<polygon fill="midnightblue" stroke="midnightblue" points="923.777,-104.291 933.712,-107.973 928.241,-98.8994 923.777,-104.291"/>
</g>
<!-- Node17 -->
<g id="node17" class="node"><title>Node17</title>
<g id="a_node17"><a xlink:href="a00087.html#af9377ab613a971acb84c487a139736d4" target="_top" xlink:title="request_respond">
<polygon fill="none" stroke="black" points="311,-253.197 311,-272.197 400,-272.197 400,-253.197 311,-253.197"/>
<text text-anchor="middle" x="355.5" y="-260.197" font-family="Helvetica,sans-Serif" font-size="10.00">request_respond</text>
</a>
</g>
</g>
<!-- Node16&#45;&gt;Node17 -->
<g id="edge27" class="edge"><title>Node16&#45;&gt;Node17</title>
<path fill="none" stroke="midnightblue" d="M254.617,-261.218C268.716,-261.427 285.286,-261.672 300.832,-261.902"/>
<polygon fill="midnightblue" stroke="midnightblue" points="300.814,-265.402 310.865,-262.051 300.918,-258.403 300.814,-265.402"/>
</g>
<!-- Node17&#45;&gt;Node4 -->
<g id="edge31" class="edge"><title>Node17&#45;&gt;Node4</title>
<path fill="none" stroke="midnightblue" d="M376.656,-272.219C424.718,-294.02 550.318,-345.697 661,-345.697 661,-345.697 661,-345.697 1073,-345.697 1155.29,-345.697 1187.49,-347.027 1251,-294.697 1276.72,-273.508 1290.94,-236.173 1297.63,-213.314"/>
<polygon fill="midnightblue" stroke="midnightblue" points="1301.08,-213.957 1300.32,-203.39 1294.33,-212.124 1301.08,-213.957"/>
</g>
<!-- Node18 -->
<g id="node18" class="node"><title>Node18</title>
<g id="a_node18"><a xlink:href="a00087.html#a77e0cdc5022a2b9b9765b46271d52222" target="_top" xlink:title="request_on_respond">
<polygon fill="none" stroke="black" points="453.5,-253.197 453.5,-272.197 557.5,-272.197 557.5,-253.197 453.5,-253.197"/>
<text text-anchor="middle" x="505.5" y="-260.197" font-family="Helvetica,sans-Serif" font-size="10.00">request_on_respond</text>
</a>
</g>
</g>
<!-- Node17&#45;&gt;Node18 -->
<g id="edge28" class="edge"><title>Node17&#45;&gt;Node18</title>
<path fill="none" stroke="midnightblue" d="M400.104,-262.697C413.552,-262.697 428.622,-262.697 443.037,-262.697"/>
<polygon fill="midnightblue" stroke="midnightblue" points="443.386,-266.198 453.385,-262.697 443.385,-259.198 443.386,-266.198"/>
</g>
<!-- Node18&#45;&gt;Node4 -->
<g id="edge29" class="edge"><title>Node18&#45;&gt;Node4</title>
<path fill="none" stroke="midnightblue" d="M545.709,-272.241C603.508,-285.45 715.156,-307.697 811.5,-307.697 811.5,-307.697 811.5,-307.697 1073,-307.697 1155.05,-307.697 1182.58,-303.987 1251,-258.697 1268.92,-246.833 1283.46,-226.7 1292.46,-211.978"/>
<polygon fill="midnightblue" stroke="midnightblue" points="1295.55,-213.629 1297.56,-203.226 1289.5,-210.106 1295.55,-213.629"/>
</g>
<!-- Node18&#45;&gt;Node5 -->
<g id="edge30" class="edge"><title>Node18&#45;&gt;Node5</title>
<path fill="none" stroke="midnightblue" d="M545.487,-253.108C565.783,-248.116 590.793,-241.965 612.346,-236.664"/>
<polygon fill="midnightblue" stroke="midnightblue" points="613.419,-240.005 622.293,-234.217 611.747,-233.207 613.419,-240.005"/>
</g>
<!-- Node19&#45;&gt;Node8 -->
<g id="edge33" class="edge"><title>Node19&#45;&gt;Node8</title>
<path fill="none" stroke="midnightblue" d="M703.704,-133.955C757.327,-130.342 851.077,-124.026 904.565,-120.422"/>
<polygon fill="midnightblue" stroke="midnightblue" points="904.96,-123.903 914.702,-119.739 904.49,-116.919 904.96,-123.903"/>
</g>
<!-- Node20&#45;&gt;Node5 -->
<g id="edge35" class="edge"><title>Node20&#45;&gt;Node5</title>
<path fill="none" stroke="midnightblue" d="M268.011,-189.093C347.062,-196.255 503.839,-210.459 593.641,-218.595"/>
<polygon fill="midnightblue" stroke="midnightblue" points="593.442,-222.091 603.717,-219.508 594.074,-215.119 593.442,-222.091"/>
</g>
</g>
</svg>
