<?xml version="1.0" encoding="UTF-8" standalone="no"?>
<!DOCTYPE svg PUBLIC "-//W3C//DTD SVG 1.1//EN"
 "http://www.w3.org/Graphics/SVG/1.1/DTD/svg11.dtd">
<!-- Generated by graphviz version 2.38.0 (20140413.2041)
 -->
<!-- Title: discovery_free_adapter Pages: 1 -->
<!--zoomable 135 -->
<svg id="main" version="1.1" xmlns="http://www.w3.org/2000/svg" xmlns:xlink="http://www.w3.org/1999/xlink" xml:space="preserve" onload="init(evt)">
<style type="text/css"><![CDATA[
.edge:hover path { stroke: red; }
.edge:hover polygon { stroke: red; fill: red; }
]]></style>
<script type="text/javascript"><![CDATA[
var edges = document.getElementsByTagName('g');
if (edges && edges.length) {
  for (var i=0;i<edges.length;i++) {
    if (edges[i].id.substr(0,4)=='edge') {
      edges[i].setAttribute('class','edge');
    }
  }
}
]]></script>
        <defs>
                <circle id="rim" cx="0" cy="0" r="7"/>
                <circle id="rim2" cx="0" cy="0" r="3.5"/>
                <g id="zoomPlus">
                        <use xlink:href="#rim" fill="#404040">
                                <set attributeName="fill" to="#808080" begin="zoomplus.mouseover" end="zoomplus.mouseout"/>
                        </use>
                        <path d="M-4,0h8M0,-4v8" fill="none" stroke="white" stroke-width="1.5" pointer-events="none"/>
                </g>
                <g id="zoomMin">
                        <use xlink:href="#rim" fill="#404040">
                                <set attributeName="fill" to="#808080" begin="zoomminus.mouseover" end="zoomminus.mouseout"/>
                        </use>
                        <path d="M-4,0h8" fill="none" stroke="white" stroke-width="1.5" pointer-events="none"/>
                </g>
                <g id="dirArrow">
                        <path fill="none" stroke="white" stroke-width="1.5" d="M0,-3.0v7 M-2.5,-0.5L0,-3.0L2.5,-0.5"/>
                </g>
               <g id="resetDef">
                       <use xlink:href="#rim2" fill="#404040">
                               <set attributeName="fill" to="#808080" begin="reset.mouseover" end="reset.mouseout"/>
                       </use>
               </g>
        </defs>

<script type="text/javascript">
var viewWidth = 728;
var viewHeight = 135;
var sectionId = 'dynsection-65';
</script>
<script xlink:href="svgpan.js"/>
<svg id="graph" class="graph">
<g id="viewport">
<title>discovery_free_adapter</title>
<!-- Node1 -->
<g id="node1" class="node"><title>Node1</title>
<polygon fill="#bfbfbf" stroke="black" points="0,-45.5 0,-64.5 118,-64.5 118,-45.5 0,-45.5"/>
<text text-anchor="middle" x="59" y="-52.5" font-family="Helvetica,sans-Serif" font-size="10.00">discovery_free_adapter</text>
</g>
<!-- Node2 -->
<g id="node2" class="node"><title>Node2</title>
<g id="a_node2"><a xlink:href="a00076.html#a015919d95dc08af72eaa0663e65eaf2e" target="_top" xlink:title="daemon_runtime_destroy">
<polygon fill="none" stroke="black" points="154,-86.5 154,-105.5 280,-105.5 280,-86.5 154,-86.5"/>
<text text-anchor="middle" x="217" y="-93.5" font-family="Helvetica,sans-Serif" font-size="10.00">daemon_runtime_destroy</text>
</a>
</g>
</g>
<!-- Node1&#45;&gt;Node2 -->
<g id="edge1" class="edge"><title>Node1&#45;&gt;Node2</title>
<path fill="none" stroke="midnightblue" d="M105.952,-67.077C129.496,-73.2651 157.758,-80.6927 179.745,-86.4714"/>
<polygon fill="midnightblue" stroke="midnightblue" points="106.743,-63.6662 96.1816,-64.5093 104.964,-70.4363 106.743,-63.6662"/>
</g>
<!-- Node7 -->
<g id="node7" class="node"><title>Node7</title>
<g id="a_node7"><a xlink:href="a00020.html#a3c736bc96933454ab82040c3617275a3" target="_top" xlink:title="discovery_alloc_adapter">
<polygon fill="none" stroke="black" points="156,-45.5 156,-64.5 278,-64.5 278,-45.5 156,-45.5"/>
<text text-anchor="middle" x="217" y="-52.5" font-family="Helvetica,sans-Serif" font-size="10.00">discovery_alloc_adapter</text>
</a>
</g>
</g>
<!-- Node1&#45;&gt;Node7 -->
<g id="edge6" class="edge"><title>Node1&#45;&gt;Node7</title>
<path fill="none" stroke="midnightblue" d="M128.311,-55C137.457,-55 146.783,-55 155.777,-55"/>
<polygon fill="midnightblue" stroke="midnightblue" points="128.089,-51.5001 118.089,-55 128.089,-58.5001 128.089,-51.5001"/>
</g>
<!-- Node11 -->
<g id="node11" class="node"><title>Node11</title>
<g id="a_node11"><a xlink:href="a00079.html#a0a2b0d9eef603396a0171d5b0c67bbbf" target="_top" xlink:title="hpd_adapter_free">
<polygon fill="none" stroke="black" points="317.5,-7.5 317.5,-26.5 409.5,-26.5 409.5,-7.5 317.5,-7.5"/>
<text text-anchor="middle" x="363.5" y="-14.5" font-family="Helvetica,sans-Serif" font-size="10.00">hpd_adapter_free</text>
</a>
</g>
</g>
<!-- Node1&#45;&gt;Node11 -->
<g id="edge10" class="edge"><title>Node1&#45;&gt;Node11</title>
<path fill="none" stroke="midnightblue" d="M112.484,-43.3441C125.964,-40.639 140.478,-37.9767 154,-36 209.927,-27.8243 274.84,-22.5705 317.187,-19.7055"/>
<polygon fill="midnightblue" stroke="midnightblue" points="111.504,-39.9722 102.411,-45.4103 112.911,-46.8294 111.504,-39.9722"/>
</g>
<!-- Node3 -->
<g id="node3" class="node"><title>Node3</title>
<g id="a_node3"><a xlink:href="a00017.html#affd72e7fb83ddd29450361c75672ddd4" target="_top" xlink:title="daemon_start">
<polygon fill="none" stroke="black" points="325.5,-86.5 325.5,-105.5 401.5,-105.5 401.5,-86.5 325.5,-86.5"/>
<text text-anchor="middle" x="363.5" y="-93.5" font-family="Helvetica,sans-Serif" font-size="10.00">daemon_start</text>
</a>
</g>
</g>
<!-- Node2&#45;&gt;Node3 -->
<g id="edge2" class="edge"><title>Node2&#45;&gt;Node3</title>
<path fill="none" stroke="midnightblue" d="M290.32,-96C302.498,-96 314.674,-96 325.464,-96"/>
<polygon fill="midnightblue" stroke="midnightblue" points="290.12,-92.5001 280.12,-96 290.12,-99.5001 290.12,-92.5001"/>
</g>
<!-- Node4 -->
<g id="node4" class="node"><title>Node4</title>
<g id="a_node4"><a xlink:href="a00077.html#a4a5e670df4a5790a7955aaef5483c08a" target="_top" xlink:title="hpd_start">
<polygon fill="none" stroke="black" points="477.5,-88.5 477.5,-107.5 534.5,-107.5 534.5,-88.5 477.5,-88.5"/>
<text text-anchor="middle" x="506" y="-95.5" font-family="Helvetica,sans-Serif" font-size="10.00">hpd_start</text>
</a>
</g>
</g>
<!-- Node3&#45;&gt;Node4 -->
<g id="edge3" class="edge"><title>Node3&#45;&gt;Node4</title>
<path fill="none" stroke="midnightblue" d="M411.845,-96.6739C433.627,-96.984 458.708,-97.341 477.354,-97.6065"/>
<polygon fill="midnightblue" stroke="midnightblue" points="411.831,-93.1735 401.783,-96.5307 411.732,-100.173 411.831,-93.1735"/>
</g>
<!-- Node5 -->
<g id="node5" class="node"><title>Node5</title>
<g id="a_node5"><a xlink:href="a00065.html#a0ddf1224851353fc92bfbff6f499fa97" target="_top" xlink:title="[file] ">
<polygon fill="none" stroke="black" points="641.5,-107.5 641.5,-126.5 679.5,-126.5 679.5,-107.5 641.5,-107.5"/>
<text text-anchor="middle" x="660.5" y="-114.5" font-family="Helvetica,sans-Serif" font-size="10.00">main</text>
</a>
</g>
</g>
<!-- Node4&#45;&gt;Node5 -->
<g id="edge4" class="edge"><title>Node4&#45;&gt;Node5</title>
<path fill="none" stroke="midnightblue" d="M544.554,-102.679C575.273,-106.506 617.393,-111.754 641.185,-114.718"/>
<polygon fill="midnightblue" stroke="midnightblue" points="544.973,-99.204 534.617,-101.441 544.107,-106.15 544.973,-99.204"/>
</g>
<!-- Node6 -->
<g id="node6" class="node"><title>Node6</title>
<g id="a_node6"><a xlink:href="a00039.html#a5de92b31931f2f5155c682379a06da32" target="_top" xlink:title="TEST">
<polygon fill="none" stroke="black" points="639.5,-69.5 639.5,-88.5 681.5,-88.5 681.5,-69.5 639.5,-69.5"/>
<text text-anchor="middle" x="660.5" y="-76.5" font-family="Helvetica,sans-Serif" font-size="10.00">TEST</text>
</a>
</g>
</g>
<!-- Node4&#45;&gt;Node6 -->
<g id="edge5" class="edge"><title>Node4&#45;&gt;Node6</title>
<path fill="none" stroke="midnightblue" d="M544.715,-93.3011C574.659,-89.5704 615.36,-84.4995 639.387,-81.5059"/>
<polygon fill="midnightblue" stroke="midnightblue" points="544.107,-89.8497 534.617,-94.5592 544.973,-96.796 544.107,-89.8497"/>
</g>
<!-- Node8 -->
<g id="node8" class="node"><title>Node8</title>
<g id="a_node8"><a xlink:href="a00079.html#aec51fa5c17a707a90a1634358ae1a9b4" target="_top" xlink:title="[hpd_adapter_t functions] ">
<polygon fill="none" stroke="black" points="316,-45.5 316,-64.5 411,-64.5 411,-45.5 316,-45.5"/>
<text text-anchor="middle" x="363.5" y="-52.5" font-family="Helvetica,sans-Serif" font-size="10.00">hpd_adapter_alloc</text>
</a>
</g>
</g>
<!-- Node7&#45;&gt;Node8 -->
<g id="edge7" class="edge"><title>Node7&#45;&gt;Node8</title>
<path fill="none" stroke="midnightblue" d="M288.114,-55C297.455,-55 306.844,-55 315.655,-55"/>
<polygon fill="midnightblue" stroke="midnightblue" points="288.026,-51.5001 278.026,-55 288.026,-58.5001 288.026,-51.5001"/>
</g>
<!-- Node9 -->
<g id="node9" class="node"><title>Node9</title>
<g id="a_node9"><a xlink:href="a00013.html#a1a305bf3b6bebda2ca16c8adcdb95239" target="_top" xlink:title="[on_destroy] ">
<polygon fill="none" stroke="black" points="451,-39 451,-69 561,-69 561,-39 451,-39"/>
<text text-anchor="start" x="459" y="-57" font-family="Helvetica,sans-Serif" font-size="10.00">demo_adapter_create</text>
<text text-anchor="middle" x="506" y="-46" font-family="Helvetica,sans-Serif" font-size="10.00">_adapter</text>
</a>
</g>
</g>
<!-- Node8&#45;&gt;Node9 -->
<g id="edge8" class="edge"><title>Node8&#45;&gt;Node9</title>
<path fill="none" stroke="midnightblue" d="M421.541,-54.594C431.149,-54.5256 441.1,-54.4548 450.638,-54.3869"/>
<polygon fill="midnightblue" stroke="midnightblue" points="421.259,-51.0958 411.284,-54.667 421.309,-58.0957 421.259,-51.0958"/>
</g>
<!-- Node10 -->
<g id="node10" class="node"><title>Node10</title>
<g id="a_node10"><a xlink:href="a00013.html#a9f84d5de2ac16bde89480bd48efdff51" target="_top" xlink:title="[create_lamp] ">
<polygon fill="none" stroke="black" points="601,-25.5 601,-44.5 720,-44.5 720,-25.5 601,-25.5"/>
<text text-anchor="middle" x="660.5" y="-32.5" font-family="Helvetica,sans-Serif" font-size="10.00">demo_adapter_on_start</text>
</a>
</g>
</g>
<!-- Node9&#45;&gt;Node10 -->
<g id="edge9" class="edge"><title>Node9&#45;&gt;Node10</title>
<path fill="none" stroke="midnightblue" d="M571.281,-45.9912C581.081,-44.7702 591.151,-43.5156 600.822,-42.3107"/>
<polygon fill="midnightblue" stroke="midnightblue" points="570.686,-42.5382 561.195,-47.2478 571.551,-49.4845 570.686,-42.5382"/>
</g>
<!-- Node11&#45;&gt;Node9 -->
<g id="edge11" class="edge"><title>Node11&#45;&gt;Node9</title>
<path fill="none" stroke="midnightblue" d="M410.695,-29.1653C423.556,-32.5522 437.641,-36.2612 450.911,-39.756"/>
<polygon fill="midnightblue" stroke="midnightblue" points="411.244,-25.6905 400.682,-26.5284 409.461,-32.4597 411.244,-25.6905"/>
</g>
<!-- Node12 -->
<g id="node12" class="node"><title>Node12</title>
<g id="a_node12"><a xlink:href="a00013.html#aa30316159e7cdc14f2f035f0949b6680" target="_top" xlink:title="[on_start] ">
<polygon fill="none" stroke="black" points="447,-0.5 447,-19.5 565,-19.5 565,-0.5 447,-0.5"/>
<text text-anchor="middle" x="506" y="-7.5" font-family="Helvetica,sans-Serif" font-size="10.00">demo_adapter_on_stop</text>
</a>
</g>
</g>
<!-- Node11&#45;&gt;Node12 -->
<g id="edge12" class="edge"><title>Node11&#45;&gt;Node12</title>
<path fill="none" stroke="midnightblue" d="M419.9,-14.2399C428.722,-13.8003 437.872,-13.3444 446.758,-12.9017"/>
<polygon fill="midnightblue" stroke="midnightblue" points="419.542,-10.7533 409.728,-14.7466 419.89,-17.7446 419.542,-10.7533"/>
</g>
<!-- Node12&#45;&gt;Node10 -->
<g id="edge13" class="edge"><title>Node12&#45;&gt;Node10</title>
<path fill="none" stroke="midnightblue" d="M575.223,-21.1841C583.935,-22.6122 592.788,-24.0635 601.32,-25.4623"/>
<polygon fill="midnightblue" stroke="midnightblue" points="575.523,-17.6867 565.089,-19.5227 574.391,-24.5945 575.523,-17.6867"/>
</g>
</g>
</svg>
        <g id="navigator" transform="translate(0 0)" fill="#404254">
                <rect fill="#f2f5e9" fill-opacity="0.5" stroke="#606060" stroke-width=".5" x="0" y="0" width="60" height="60"/>
                <use id="zoomplus" xlink:href="#zoomPlus" x="17" y="9" onmousedown="handleZoom(evt,'in')"/>
                <use id="zoomminus" xlink:href="#zoomMin" x="42" y="9" onmousedown="handleZoom(evt,'out')"/>
                <use id="reset" xlink:href="#resetDef" x="30" y="36" onmousedown="handleReset()"/>
                <g id="arrowUp" xlink:href="#dirArrow" transform="translate(30 24)" onmousedown="handlePan(0,-1)">
                  <use xlink:href="#rim" fill="#404040">
                        <set attributeName="fill" to="#808080" begin="arrowUp.mouseover" end="arrowUp.mouseout"/>
                  </use>
                  <path fill="none" stroke="white" stroke-width="1.5" d="M0,-3.0v7 M-2.5,-0.5L0,-3.0L2.5,-0.5"/>
                </g>
                <g id="arrowRight" xlink:href="#dirArrow" transform="rotate(90) translate(36 -43)" onmousedown="handlePan(1,0)">
                  <use xlink:href="#rim" fill="#404040">
                        <set attributeName="fill" to="#808080" begin="arrowRight.mouseover" end="arrowRight.mouseout"/>
                  </use>
                  <path fill="none" stroke="white" stroke-width="1.5" d="M0,-3.0v7 M-2.5,-0.5L0,-3.0L2.5,-0.5"/>
                </g>
                <g id="arrowDown" xlink:href="#dirArrow" transform="rotate(180) translate(-30 -48)" onmousedown="handlePan(0,1)">
                  <use xlink:href="#rim" fill="#404040">
                        <set attributeName="fill" to="#808080" begin="arrowDown.mouseover" end="arrowDown.mouseout"/>
                  </use>
                  <path fill="none" stroke="white" stroke-width="1.5" d="M0,-3.0v7 M-2.5,-0.5L0,-3.0L2.5,-0.5"/>
                </g>
                <g id="arrowLeft" xlink:href="#dirArrow" transform="rotate(270) translate(-36 17)" onmousedown="handlePan(-1,0)">
                  <use xlink:href="#rim" fill="#404040">
                        <set attributeName="fill" to="#808080" begin="arrowLeft.mouseover" end="arrowLeft.mouseout"/>
                  </use>
                  <path fill="none" stroke="white" stroke-width="1.5" d="M0,-3.0v7 M-2.5,-0.5L0,-3.0L2.5,-0.5"/>
                </g>
        </g>
        <svg viewBox="0 0 15 15" width="100%" height="30px" preserveAspectRatio="xMaxYMin meet">
         <g id="arrow_out" transform="scale(0.3 0.3)">
          <a xlink:href="a00020_aec714553397f80039bf246b3b0800420_icgraph_org.svg" target="_base">
           <rect id="button" ry="5" rx="5" y="6" x="6" height="38" width="38"
                fill="#f2f5e9" fill-opacity="0.5" stroke="#606060" stroke-width="1.0"/>
           <path id="arrow"
             d="M 11.500037,31.436501 C 11.940474,20.09759 22.043105,11.32322 32.158766,21.979434 L 37.068811,17.246167 C 37.068811,17.246167 37.088388,32 37.088388,32 L 22.160133,31.978069 C 22.160133,31.978069 26.997745,27.140456 26.997745,27.140456 C 18.528582,18.264221 13.291696,25.230495 11.500037,31.436501 z"
             style="fill:#404040;"/>
          </a>
         </g>
        </svg>
</svg>
