<?xml version="1.0" encoding="UTF-8" standalone="no"?>
<!DOCTYPE svg PUBLIC "-//W3C//DTD SVG 1.1//EN"
 "http://www.w3.org/Graphics/SVG/1.1/DTD/svg11.dtd">
<!-- Generated by graphviz version 2.38.0 (20140413.2041)
 -->
<!-- Title: hpd_map_set Pages: 1 -->
<svg width="892pt" height="456pt"
 viewBox="0.00 0.00 892.00 455.50" xmlns="http://www.w3.org/2000/svg" xmlns:xlink="http://www.w3.org/1999/xlink">
<g id="graph0" class="graph" transform="scale(1 1) rotate(0) translate(4 451.5)">
<title>hpd_map_set</title>
<!-- Node1 -->
<g id="node1" class="node"><title>Node1</title>
<polygon fill="#bfbfbf" stroke="black" points="0,-224.5 0,-243.5 75,-243.5 75,-224.5 0,-224.5"/>
<text text-anchor="middle" x="37.5" y="-231.5" font-family="Helvetica,sans-Serif" font-size="10.00">hpd_map_set</text>
</g>
<!-- Node2 -->
<g id="node2" class="node"><title>Node2</title>
<g id="a_node2"><a xlink:href="a00011.html#a1ace8e13428ce953dc195ed8cf5105c7" target="_top" xlink:title="discovery_set_adapter_attr">
<polygon fill="none" stroke="black" points="117,-378.5 117,-397.5 251,-397.5 251,-378.5 117,-378.5"/>
<text text-anchor="middle" x="184" y="-385.5" font-family="Helvetica,sans-Serif" font-size="10.00">discovery_set_adapter_attr</text>
</a>
</g>
</g>
<!-- Node1&#45;&gt;Node2 -->
<g id="edge1" class="edge"><title>Node1&#45;&gt;Node2</title>
<path fill="none" stroke="midnightblue" d="M52.8866,-251.904C67.1678,-269.423 89.9151,-296.657 111,-319 131.914,-341.161 158.102,-365.464 172.428,-378.489"/>
<polygon fill="midnightblue" stroke="midnightblue" points="55.2585,-249.272 46.2438,-243.705 49.8197,-253.678 55.2585,-249.272"/>
</g>
<!-- Node7 -->
<g id="node7" class="node"><title>Node7</title>
<g id="a_node7"><a xlink:href="a00011.html#a56b004be3282718fac95524a7446748c" target="_top" xlink:title="discovery_set_device_attr">
<polygon fill="none" stroke="black" points="118.5,-290.5 118.5,-309.5 249.5,-309.5 249.5,-290.5 118.5,-290.5"/>
<text text-anchor="middle" x="184" y="-297.5" font-family="Helvetica,sans-Serif" font-size="10.00">discovery_set_device_attr</text>
</a>
</g>
</g>
<!-- Node1&#45;&gt;Node7 -->
<g id="edge6" class="edge"><title>Node1&#45;&gt;Node7</title>
<path fill="none" stroke="midnightblue" d="M68.8081,-247.843C96.7331,-260.598 137.445,-279.193 161.963,-290.391"/>
<polygon fill="midnightblue" stroke="midnightblue" points="70.0618,-244.568 59.5115,-243.597 67.1535,-250.935 70.0618,-244.568"/>
</g>
<!-- Node11 -->
<g id="node11" class="node"><title>Node11</title>
<g id="a_node11"><a xlink:href="a00011.html#a2c62fa50d5ba2ac0e0db8df95d319687" target="_top" xlink:title="discovery_set_service_attr">
<polygon fill="none" stroke="black" points="117,-224.5 117,-243.5 251,-243.5 251,-224.5 117,-224.5"/>
<text text-anchor="middle" x="184" y="-231.5" font-family="Helvetica,sans-Serif" font-size="10.00">discovery_set_service_attr</text>
</a>
</g>
</g>
<!-- Node1&#45;&gt;Node11 -->
<g id="edge11" class="edge"><title>Node1&#45;&gt;Node11</title>
<path fill="none" stroke="midnightblue" d="M85.4469,-234C95.4415,-234 106.175,-234 116.738,-234"/>
<polygon fill="midnightblue" stroke="midnightblue" points="85.3374,-230.5 75.3373,-234 85.3373,-237.5 85.3374,-230.5"/>
</g>
<!-- Node15 -->
<g id="node15" class="node"><title>Node15</title>
<g id="a_node15"><a xlink:href="a00011.html#aa470ecef221797da5ca84c2258474165" target="_top" xlink:title="discovery_set_parameter_attr">
<polygon fill="none" stroke="black" points="111,-158.5 111,-177.5 257,-177.5 257,-158.5 111,-158.5"/>
<text text-anchor="middle" x="184" y="-165.5" font-family="Helvetica,sans-Serif" font-size="10.00">discovery_set_parameter_attr</text>
</a>
</g>
</g>
<!-- Node1&#45;&gt;Node15 -->
<g id="edge15" class="edge"><title>Node1&#45;&gt;Node15</title>
<path fill="none" stroke="midnightblue" d="M68.8081,-220.157C96.7331,-207.402 137.445,-188.807 161.963,-177.609"/>
<polygon fill="midnightblue" stroke="midnightblue" points="67.1535,-217.065 59.5115,-224.403 70.0618,-223.432 67.1535,-217.065"/>
</g>
<!-- Node19 -->
<g id="node19" class="node"><title>Node19</title>
<g id="a_node19"><a xlink:href="a00076.html#a8e74f34c0eb423e170161eadec463df3" target="_top" xlink:title="value_set_header">
<polygon fill="none" stroke="black" points="137.5,-57.5 137.5,-76.5 230.5,-76.5 230.5,-57.5 137.5,-57.5"/>
<text text-anchor="middle" x="184" y="-64.5" font-family="Helvetica,sans-Serif" font-size="10.00">value_set_header</text>
</a>
</g>
</g>
<!-- Node1&#45;&gt;Node19 -->
<g id="edge19" class="edge"><title>Node1&#45;&gt;Node19</title>
<path fill="none" stroke="midnightblue" d="M53.5508,-216.204C68.1631,-198.963 91.0045,-172.105 111,-149 133.811,-122.641 161.027,-91.8118 174.531,-76.5553"/>
<polygon fill="midnightblue" stroke="midnightblue" points="50.5094,-214.38 46.7183,-224.273 55.8515,-218.903 50.5094,-214.38"/>
</g>
<!-- Node3 -->
<g id="node3" class="node"><title>Node3</title>
<g id="a_node3"><a xlink:href="a00011.html#ad15d6de47820573ae430df83c83ca378" target="_top" xlink:title="discovery_set_adapter\l_attrs_v">
<polygon fill="none" stroke="black" points="298.5,-417 298.5,-447 413.5,-447 413.5,-417 298.5,-417"/>
<text text-anchor="start" x="306.5" y="-435" font-family="Helvetica,sans-Serif" font-size="10.00">discovery_set_adapter</text>
<text text-anchor="middle" x="356" y="-424" font-family="Helvetica,sans-Serif" font-size="10.00">_attrs_v</text>
</a>
</g>
</g>
<!-- Node2&#45;&gt;Node3 -->
<g id="edge2" class="edge"><title>Node2&#45;&gt;Node3</title>
<path fill="none" stroke="midnightblue" d="M231.686,-400.083C252.328,-405.426 276.783,-411.756 298.45,-417.363"/>
<polygon fill="midnightblue" stroke="midnightblue" points="232.445,-396.665 221.887,-397.547 230.691,-403.441 232.445,-396.665"/>
</g>
<!-- Node5 -->
<g id="node5" class="node"><title>Node5</title>
<g id="a_node5"><a xlink:href="a00064.html#a0d5ca643908e5c921d763ad9f5c9ba8e" target="_top" xlink:title="hpd_adapter_set_attr">
<polygon fill="none" stroke="black" points="616,-353.5 616,-372.5 724,-372.5 724,-353.5 616,-353.5"/>
<text text-anchor="middle" x="670" y="-360.5" font-family="Helvetica,sans-Serif" font-size="10.00">hpd_adapter_set_attr</text>
</a>
</g>
</g>
<!-- Node2&#45;&gt;Node5 -->
<g id="edge4" class="edge"><title>Node2&#45;&gt;Node5</title>
<path fill="none" stroke="midnightblue" d="M261.244,-384.062C360.023,-378.96 529.726,-370.194 615.718,-365.752"/>
<polygon fill="midnightblue" stroke="midnightblue" points="260.837,-380.578 251.031,-384.589 261.198,-387.569 260.837,-380.578"/>
</g>
<!-- Node4 -->
<g id="node4" class="node"><title>Node4</title>
<g id="a_node4"><a xlink:href="a00064.html#a0dc61e22d6abc5a621e53cd3aab2f9ca" target="_top" xlink:title="hpd_adapter_set_attrs">
<polygon fill="none" stroke="black" points="461,-422.5 461,-441.5 574,-441.5 574,-422.5 461,-422.5"/>
<text text-anchor="middle" x="517.5" y="-429.5" font-family="Helvetica,sans-Serif" font-size="10.00">hpd_adapter_set_attrs</text>
</a>
</g>
</g>
<!-- Node3&#45;&gt;Node4 -->
<g id="edge3" class="edge"><title>Node3&#45;&gt;Node4</title>
<path fill="none" stroke="midnightblue" d="M423.883,-432C436.174,-432 448.884,-432 460.804,-432"/>
<polygon fill="midnightblue" stroke="midnightblue" points="423.683,-428.5 413.683,-432 423.683,-435.5 423.683,-428.5"/>
</g>
<!-- Node6 -->
<g id="node6" class="node"><title>Node6</title>
<g id="a_node6"><a xlink:href="a00012.html#a723fb54ea3963ea674c9830e41a40e00" target="_top" xlink:title="hpd_demo_adapter_start">
<polygon fill="none" stroke="black" points="760,-290.5 760,-309.5 884,-309.5 884,-290.5 760,-290.5"/>
<text text-anchor="middle" x="822" y="-297.5" font-family="Helvetica,sans-Serif" font-size="10.00">hpd_demo_adapter_start</text>
</a>
</g>
</g>
<!-- Node5&#45;&gt;Node6 -->
<g id="edge5" class="edge"><title>Node5&#45;&gt;Node6</title>
<path fill="none" stroke="midnightblue" d="M703.309,-349.43C731.828,-337.452 772.696,-320.288 798.004,-309.658"/>
<polygon fill="midnightblue" stroke="midnightblue" points="701.646,-346.332 693.782,-353.432 704.357,-352.786 701.646,-346.332"/>
</g>
<!-- Node8 -->
<g id="node8" class="node"><title>Node8</title>
<g id="a_node8"><a xlink:href="a00011.html#ae15e002e2b5408db4a705d3c5cd98c3a" target="_top" xlink:title="discovery_set_device\l_attrs_v">
<polygon fill="none" stroke="black" points="300.5,-329 300.5,-359 411.5,-359 411.5,-329 300.5,-329"/>
<text text-anchor="start" x="308.5" y="-347" font-family="Helvetica,sans-Serif" font-size="10.00">discovery_set_device</text>
<text text-anchor="middle" x="356" y="-336" font-family="Helvetica,sans-Serif" font-size="10.00">_attrs_v</text>
</a>
</g>
</g>
<!-- Node7&#45;&gt;Node8 -->
<g id="edge7" class="edge"><title>Node7&#45;&gt;Node8</title>
<path fill="none" stroke="midnightblue" d="M231.662,-312.077C252.939,-317.584 278.269,-324.14 300.423,-329.874"/>
<polygon fill="midnightblue" stroke="midnightblue" points="232.445,-308.665 221.887,-309.547 230.691,-315.441 232.445,-308.665"/>
</g>
<!-- Node10 -->
<g id="node10" class="node"><title>Node10</title>
<g id="a_node10"><a xlink:href="a00064.html#aa52044afe11425f0febeba4f6094e48f" target="_top" xlink:title="hpd_device_set_attr">
<polygon fill="none" stroke="black" points="618,-290.5 618,-309.5 722,-309.5 722,-290.5 618,-290.5"/>
<text text-anchor="middle" x="670" y="-297.5" font-family="Helvetica,sans-Serif" font-size="10.00">hpd_device_set_attr</text>
</a>
</g>
</g>
<!-- Node7&#45;&gt;Node10 -->
<g id="edge9" class="edge"><title>Node7&#45;&gt;Node10</title>
<path fill="none" stroke="midnightblue" d="M259.788,-300C359.157,-300 532.118,-300 617.832,-300"/>
<polygon fill="midnightblue" stroke="midnightblue" points="259.522,-296.5 249.522,-300 259.522,-303.5 259.522,-296.5"/>
</g>
<!-- Node9 -->
<g id="node9" class="node"><title>Node9</title>
<g id="a_node9"><a xlink:href="a00064.html#a79a100958212cd7d8be053ceeb15885c" target="_top" xlink:title="hpd_device_set_attrs">
<polygon fill="none" stroke="black" points="462.5,-334.5 462.5,-353.5 572.5,-353.5 572.5,-334.5 462.5,-334.5"/>
<text text-anchor="middle" x="517.5" y="-341.5" font-family="Helvetica,sans-Serif" font-size="10.00">hpd_device_set_attrs</text>
</a>
</g>
</g>
<!-- Node8&#45;&gt;Node9 -->
<g id="edge8" class="edge"><title>Node8&#45;&gt;Node9</title>
<path fill="none" stroke="midnightblue" d="M421.995,-344C435.388,-344 449.357,-344 462.318,-344"/>
<polygon fill="midnightblue" stroke="midnightblue" points="421.891,-340.5 411.891,-344 421.891,-347.5 421.891,-340.5"/>
</g>
<!-- Node10&#45;&gt;Node6 -->
<g id="edge10" class="edge"><title>Node10&#45;&gt;Node6</title>
<path fill="none" stroke="midnightblue" d="M732.336,-300C741.443,-300 750.828,-300 759.929,-300"/>
<polygon fill="midnightblue" stroke="midnightblue" points="732.202,-296.5 722.202,-300 732.202,-303.5 732.202,-296.5"/>
</g>
<!-- Node12 -->
<g id="node12" class="node"><title>Node12</title>
<g id="a_node12"><a xlink:href="a00011.html#a39fdda2b73169dd093a0009131f256bd" target="_top" xlink:title="discovery_set_service\l_attrs_v">
<polygon fill="none" stroke="black" points="299,-241 299,-271 413,-271 413,-241 299,-241"/>
<text text-anchor="start" x="307" y="-259" font-family="Helvetica,sans-Serif" font-size="10.00">discovery_set_service</text>
<text text-anchor="middle" x="356" y="-248" font-family="Helvetica,sans-Serif" font-size="10.00">_attrs_v</text>
</a>
</g>
</g>
<!-- Node11&#45;&gt;Node12 -->
<g id="edge12" class="edge"><title>Node11&#45;&gt;Node12</title>
<path fill="none" stroke="midnightblue" d="M261.283,-243.872C273.936,-245.509 286.849,-247.18 298.885,-248.738"/>
<polygon fill="midnightblue" stroke="midnightblue" points="261.58,-240.381 251.213,-242.569 260.681,-247.323 261.58,-240.381"/>
</g>
<!-- Node14 -->
<g id="node14" class="node"><title>Node14</title>
<g id="a_node14"><a xlink:href="a00064.html#ad7f06997cb2f69f3decb671a16d2bdb6" target="_top" xlink:title="hpd_service_set_attr">
<polygon fill="none" stroke="black" points="302.5,-202.5 302.5,-221.5 409.5,-221.5 409.5,-202.5 302.5,-202.5"/>
<text text-anchor="middle" x="356" y="-209.5" font-family="Helvetica,sans-Serif" font-size="10.00">hpd_service_set_attr</text>
</a>
</g>
</g>
<!-- Node11&#45;&gt;Node14 -->
<g id="edge14" class="edge"><title>Node11&#45;&gt;Node14</title>
<path fill="none" stroke="midnightblue" d="M261.254,-224.132C275.149,-222.334 289.36,-220.495 302.379,-218.81"/>
<polygon fill="midnightblue" stroke="midnightblue" points="260.681,-220.677 251.213,-225.431 261.58,-227.619 260.681,-220.677"/>
</g>
<!-- Node13 -->
<g id="node13" class="node"><title>Node13</title>
<g id="a_node13"><a xlink:href="a00064.html#a436b38305c5c560b7c2d78285ac7e27c" target="_top" xlink:title="hpd_service_set_attrs">
<polygon fill="none" stroke="black" points="461,-246.5 461,-265.5 574,-265.5 574,-246.5 461,-246.5"/>
<text text-anchor="middle" x="517.5" y="-253.5" font-family="Helvetica,sans-Serif" font-size="10.00">hpd_service_set_attrs</text>
</a>
</g>
</g>
<!-- Node12&#45;&gt;Node13 -->
<g id="edge13" class="edge"><title>Node12&#45;&gt;Node13</title>
<path fill="none" stroke="midnightblue" d="M423.515,-256C435.91,-256 448.744,-256 460.774,-256"/>
<polygon fill="midnightblue" stroke="midnightblue" points="423.234,-252.5 413.234,-256 423.234,-259.5 423.234,-252.5"/>
</g>
<!-- Node16 -->
<g id="node16" class="node"><title>Node16</title>
<g id="a_node16"><a xlink:href="a00011.html#a87107b433afd7833f396b6a390751a08" target="_top" xlink:title="discovery_set_parameter\l_attrs_v">
<polygon fill="none" stroke="black" points="293,-153 293,-183 419,-183 419,-153 293,-153"/>
<text text-anchor="start" x="301" y="-171" font-family="Helvetica,sans-Serif" font-size="10.00">discovery_set_parameter</text>
<text text-anchor="middle" x="356" y="-160" font-family="Helvetica,sans-Serif" font-size="10.00">_attrs_v</text>
</a>
</g>
</g>
<!-- Node15&#45;&gt;Node16 -->
<g id="edge16" class="edge"><title>Node15&#45;&gt;Node16</title>
<path fill="none" stroke="midnightblue" d="M267.158,-168C275.763,-168 284.407,-168 292.737,-168"/>
<polygon fill="midnightblue" stroke="midnightblue" points="267.095,-164.5 257.095,-168 267.095,-171.5 267.095,-164.5"/>
</g>
<!-- Node18 -->
<g id="node18" class="node"><title>Node18</title>
<g id="a_node18"><a xlink:href="a00064.html#ac80954392c6e6b03259a057603784b9b" target="_top" xlink:title="hpd_parameter_set_attr">
<polygon fill="none" stroke="black" points="296.5,-114.5 296.5,-133.5 415.5,-133.5 415.5,-114.5 296.5,-114.5"/>
<text text-anchor="middle" x="356" y="-121.5" font-family="Helvetica,sans-Serif" font-size="10.00">hpd_parameter_set_attr</text>
</a>
</g>
</g>
<!-- Node15&#45;&gt;Node18 -->
<g id="edge18" class="edge"><title>Node15&#45;&gt;Node18</title>
<path fill="none" stroke="midnightblue" d="M231.602,-155.938C258.867,-148.882 292.805,-140.098 318.185,-133.529"/>
<polygon fill="midnightblue" stroke="midnightblue" points="230.691,-152.559 221.887,-158.453 232.445,-159.335 230.691,-152.559"/>
</g>
<!-- Node17 -->
<g id="node17" class="node"><title>Node17</title>
<g id="a_node17"><a xlink:href="a00064.html#a386bb8668e01dfbc4a11b3c3d65eb92a" target="_top" xlink:title="hpd_parameter_set_attrs">
<polygon fill="none" stroke="black" points="455,-158.5 455,-177.5 580,-177.5 580,-158.5 455,-158.5"/>
<text text-anchor="middle" x="517.5" y="-165.5" font-family="Helvetica,sans-Serif" font-size="10.00">hpd_parameter_set_attrs</text>
</a>
</g>
</g>
<!-- Node16&#45;&gt;Node17 -->
<g id="edge17" class="edge"><title>Node16&#45;&gt;Node17</title>
<path fill="none" stroke="midnightblue" d="M429.396,-168C437.884,-168 446.485,-168 454.808,-168"/>
<polygon fill="midnightblue" stroke="midnightblue" points="429.124,-164.5 419.124,-168 429.124,-171.5 429.124,-164.5"/>
</g>
<!-- Node20 -->
<g id="node20" class="node"><title>Node20</title>
<g id="a_node20"><a xlink:href="a00076.html#acb46c0254b5e6856197be334a0a058ad" target="_top" xlink:title="value_copy">
<polygon fill="none" stroke="black" points="323,-76.5 323,-95.5 389,-95.5 389,-76.5 323,-76.5"/>
<text text-anchor="middle" x="356" y="-83.5" font-family="Helvetica,sans-Serif" font-size="10.00">value_copy</text>
</a>
</g>
</g>
<!-- Node19&#45;&gt;Node20 -->
<g id="edge20" class="edge"><title>Node19&#45;&gt;Node20</title>
<path fill="none" stroke="midnightblue" d="M240.728,-73.2285C267.921,-76.2676 299.666,-79.8157 322.787,-82.3997"/>
<polygon fill="midnightblue" stroke="midnightblue" points="240.884,-69.7241 230.557,-72.0917 240.106,-76.6808 240.884,-69.7241"/>
</g>
<!-- Node23 -->
<g id="node23" class="node"><title>Node23</title>
<g id="a_node23"><a xlink:href="a00076.html#a0d75ed4c4f2374d031c908cf626dcf4a" target="_top" xlink:title="value_set_headers_v">
<polygon fill="none" stroke="black" points="301.5,-38.5 301.5,-57.5 410.5,-57.5 410.5,-38.5 301.5,-38.5"/>
<text text-anchor="middle" x="356" y="-45.5" font-family="Helvetica,sans-Serif" font-size="10.00">value_set_headers_v</text>
</a>
</g>
</g>
<!-- Node19&#45;&gt;Node23 -->
<g id="edge24" class="edge"><title>Node19&#45;&gt;Node23</title>
<path fill="none" stroke="midnightblue" d="M240.549,-60.7916C260.12,-58.6042 282.068,-56.1512 301.47,-53.9828"/>
<polygon fill="midnightblue" stroke="midnightblue" points="240.106,-57.3192 230.557,-61.9083 240.884,-64.2759 240.106,-57.3192"/>
</g>
<!-- Node25 -->
<g id="node25" class="node"><title>Node25</title>
<g id="a_node25"><a xlink:href="a00077.html#a75b6ef13b716e7b51a4a24b0df588e33" target="_top" xlink:title="hpd_value_set_header">
<polygon fill="none" stroke="black" points="299,-0.5 299,-19.5 413,-19.5 413,-0.5 299,-0.5"/>
<text text-anchor="middle" x="356" y="-7.5" font-family="Helvetica,sans-Serif" font-size="10.00">hpd_value_set_header</text>
</a>
</g>
</g>
<!-- Node19&#45;&gt;Node25 -->
<g id="edge26" class="edge"><title>Node19&#45;&gt;Node25</title>
<path fill="none" stroke="midnightblue" d="M220.566,-54.074C241.567,-46.5446 268.713,-36.9903 293,-29 302.732,-25.7983 313.379,-22.472 323.061,-19.5143"/>
<polygon fill="midnightblue" stroke="midnightblue" points="219.31,-50.8059 211.086,-57.4847 221.68,-57.3925 219.31,-50.8059"/>
</g>
<!-- Node21 -->
<g id="node21" class="node"><title>Node21</title>
<g id="a_node21"><a xlink:href="a00077.html#a8b5be61f356ac1d72634654e16794610" target="_top" xlink:title="hpd_value_copy">
<polygon fill="none" stroke="black" points="474,-98.5 474,-117.5 561,-117.5 561,-98.5 474,-98.5"/>
<text text-anchor="middle" x="517.5" y="-105.5" font-family="Helvetica,sans-Serif" font-size="10.00">hpd_value_copy</text>
</a>
</g>
</g>
<!-- Node20&#45;&gt;Node21 -->
<g id="edge21" class="edge"><title>Node20&#45;&gt;Node21</title>
<path fill="none" stroke="midnightblue" d="M399.452,-91.8554C422.502,-95.0348 450.918,-98.9543 473.98,-102.135"/>
<polygon fill="midnightblue" stroke="midnightblue" points="399.662,-88.3513 389.277,-90.452 398.705,-95.2857 399.662,-88.3513"/>
</g>
<!-- Node22 -->
<g id="node22" class="node"><title>Node22</title>
<g id="a_node22"><a xlink:href="a00012.html#abd3f7d3d11402e13ef30d122ce9c8516" target="_top" xlink:title="hpd_demo_on_put">
<polygon fill="none" stroke="black" points="622,-175.5 622,-194.5 718,-194.5 718,-175.5 622,-175.5"/>
<text text-anchor="middle" x="670" y="-182.5" font-family="Helvetica,sans-Serif" font-size="10.00">hpd_demo_on_put</text>
</a>
</g>
</g>
<!-- Node21&#45;&gt;Node22 -->
<g id="edge22" class="edge"><title>Node21&#45;&gt;Node22</title>
<path fill="none" stroke="midnightblue" d="M546.404,-122.276C576.577,-137.714 623.856,-161.903 650.007,-175.283"/>
<polygon fill="midnightblue" stroke="midnightblue" points="547.753,-119.035 537.257,-117.596 544.565,-125.267 547.753,-119.035"/>
</g>
<!-- Node22&#45;&gt;Node6 -->
<g id="edge23" class="edge"><title>Node22&#45;&gt;Node6</title>
<path fill="none" stroke="midnightblue" d="M691.626,-200.813C723.101,-224.944 782.201,-270.254 808.187,-290.177"/>
<polygon fill="midnightblue" stroke="midnightblue" points="693.597,-197.914 683.531,-194.607 689.337,-203.469 693.597,-197.914"/>
</g>
<!-- Node24 -->
<g id="node24" class="node"><title>Node24</title>
<g id="a_node24"><a xlink:href="a00077.html#a2611edcf1f90741780c5160a1e2d622e" target="_top" xlink:title="hpd_value_set_headers">
<polygon fill="none" stroke="black" points="458,-38.5 458,-57.5 577,-57.5 577,-38.5 458,-38.5"/>
<text text-anchor="middle" x="517.5" y="-45.5" font-family="Helvetica,sans-Serif" font-size="10.00">hpd_value_set_headers</text>
</a>
</g>
</g>
<!-- Node23&#45;&gt;Node24 -->
<g id="edge25" class="edge"><title>Node23&#45;&gt;Node24</title>
<path fill="none" stroke="midnightblue" d="M420.711,-48C432.981,-48 445.78,-48 457.88,-48"/>
<polygon fill="midnightblue" stroke="midnightblue" points="420.555,-44.5001 410.555,-48 420.555,-51.5001 420.555,-44.5001"/>
</g>
</g>
</svg>
