<?xml version="1.0" encoding="UTF-8" standalone="no"?>
<!DOCTYPE svg PUBLIC "-//W3C//DTD SVG 1.1//EN"
 "http://www.w3.org/Graphics/SVG/1.1/DTD/svg11.dtd">
<!-- Generated by graphviz version 2.38.0 (20140413.2041)
 -->
<!-- Title: map_replace Pages: 1 -->
<!--zoomable 456 -->
<svg id="main" version="1.1" xmlns="http://www.w3.org/2000/svg" xmlns:xlink="http://www.w3.org/1999/xlink" xml:space="preserve" onload="init(evt)">
<style type="text/css"><![CDATA[
.edge:hover path { stroke: red; }
.edge:hover polygon { stroke: red; fill: red; }
]]></style>
<script type="text/javascript"><![CDATA[
var edges = document.getElementsByTagName('g');
if (edges && edges.length) {
  for (var i=0;i<edges.length;i++) {
    if (edges[i].id.substr(0,4)=='edge') {
      edges[i].setAttribute('class','edge');
    }
  }
}
]]></script>
        <defs>
                <circle id="rim" cx="0" cy="0" r="7"/>
                <circle id="rim2" cx="0" cy="0" r="3.5"/>
                <g id="zoomPlus">
                        <use xlink:href="#rim" fill="#404040">
                                <set attributeName="fill" to="#808080" begin="zoomplus.mouseover" end="zoomplus.mouseout"/>
                        </use>
                        <path d="M-4,0h8M0,-4v8" fill="none" stroke="white" stroke-width="1.5" pointer-events="none"/>
                </g>
                <g id="zoomMin">
                        <use xlink:href="#rim" fill="#404040">
                                <set attributeName="fill" to="#808080" begin="zoomminus.mouseover" end="zoomminus.mouseout"/>
                        </use>
                        <path d="M-4,0h8" fill="none" stroke="white" stroke-width="1.5" pointer-events="none"/>
                </g>
                <g id="dirArrow">
                        <path fill="none" stroke="white" stroke-width="1.5" d="M0,-3.0v7 M-2.5,-0.5L0,-3.0L2.5,-0.5"/>
                </g>
               <g id="resetDef">
                       <use xlink:href="#rim2" fill="#404040">
                               <set attributeName="fill" to="#808080" begin="reset.mouseover" end="reset.mouseout"/>
                       </use>
               </g>
        </defs>

<script type="text/javascript">
var viewWidth = 863;
var viewHeight = 456;
var sectionId = 'dynsection-21';
</script>
<script xlink:href="svgpan.js"/>
<svg id="graph" class="graph">
<g id="viewport">
<title>map_replace</title>
<!-- Node1 -->
<g id="node1" class="node"><title>Node1</title>
<polygon fill="#bfbfbf" stroke="black" points="0,-224.5 0,-243.5 72,-243.5 72,-224.5 0,-224.5"/>
<text text-anchor="middle" x="36" y="-231.5" font-family="Helvetica,sans-Serif" font-size="10.00">map_replace</text>
</g>
<!-- Node2 -->
<g id="node2" class="node"><title>Node2</title>
<g id="a_node2"><a xlink:href="a00031.html#a230c25a2f8e5de7ce61623a4ce8a809f" target="_top" xlink:title="hpd_map_set">
<polygon fill="none" stroke="black" points="108,-224.5 108,-243.5 183,-243.5 183,-224.5 108,-224.5"/>
<text text-anchor="middle" x="145.5" y="-231.5" font-family="Helvetica,sans-Serif" font-size="10.00">hpd_map_set</text>
</a>
</g>
</g>
<!-- Node1&#45;&gt;Node2 -->
<g id="edge1" class="edge"><title>Node1&#45;&gt;Node2</title>
<path fill="none" stroke="midnightblue" d="M82.3353,-234C90.8091,-234 99.569,-234 107.744,-234"/>
<polygon fill="midnightblue" stroke="midnightblue" points="82.1996,-230.5 72.1995,-234 82.1995,-237.5 82.1996,-230.5"/>
</g>
<!-- Node3 -->
<g id="node3" class="node"><title>Node3</title>
<g id="a_node3"><a xlink:href="a00020.html#a1ace8e13428ce953dc195ed8cf5105c7" target="_top" xlink:title="discovery_set_adapter_attr">
<polygon fill="none" stroke="black" points="225,-378.5 225,-397.5 359,-397.5 359,-378.5 225,-378.5"/>
<text text-anchor="middle" x="292" y="-385.5" font-family="Helvetica,sans-Serif" font-size="10.00">discovery_set_adapter_attr</text>
</a>
</g>
</g>
<!-- Node2&#45;&gt;Node3 -->
<g id="edge2" class="edge"><title>Node2&#45;&gt;Node3</title>
<path fill="none" stroke="midnightblue" d="M160.887,-251.904C175.168,-269.423 197.915,-296.657 219,-319 239.914,-341.161 266.102,-365.464 280.428,-378.489"/>
<polygon fill="midnightblue" stroke="midnightblue" points="163.259,-249.272 154.244,-243.705 157.82,-253.678 163.259,-249.272"/>
</g>
<!-- Node9 -->
<g id="node9" class="node"><title>Node9</title>
<g id="a_node9"><a xlink:href="a00020.html#a56b004be3282718fac95524a7446748c" target="_top" xlink:title="discovery_set_device_attr">
<polygon fill="none" stroke="black" points="226.5,-290.5 226.5,-309.5 357.5,-309.5 357.5,-290.5 226.5,-290.5"/>
<text text-anchor="middle" x="292" y="-297.5" font-family="Helvetica,sans-Serif" font-size="10.00">discovery_set_device_attr</text>
</a>
</g>
</g>
<!-- Node2&#45;&gt;Node9 -->
<g id="edge8" class="edge"><title>Node2&#45;&gt;Node9</title>
<path fill="none" stroke="midnightblue" d="M176.808,-247.843C204.733,-260.598 245.445,-279.193 269.963,-290.391"/>
<polygon fill="midnightblue" stroke="midnightblue" points="178.062,-244.568 167.512,-243.597 175.154,-250.935 178.062,-244.568"/>
</g>
<!-- Node14 -->
<g id="node14" class="node"><title>Node14</title>
<g id="a_node14"><a xlink:href="a00020.html#a2c62fa50d5ba2ac0e0db8df95d319687" target="_top" xlink:title="discovery_set_service_attr">
<polygon fill="none" stroke="black" points="225,-224.5 225,-243.5 359,-243.5 359,-224.5 225,-224.5"/>
<text text-anchor="middle" x="292" y="-231.5" font-family="Helvetica,sans-Serif" font-size="10.00">discovery_set_service_attr</text>
</a>
</g>
</g>
<!-- Node2&#45;&gt;Node14 -->
<g id="edge14" class="edge"><title>Node2&#45;&gt;Node14</title>
<path fill="none" stroke="midnightblue" d="M193.447,-234C203.441,-234 214.175,-234 224.738,-234"/>
<polygon fill="midnightblue" stroke="midnightblue" points="193.337,-230.5 183.337,-234 193.337,-237.5 193.337,-230.5"/>
</g>
<!-- Node18 -->
<g id="node18" class="node"><title>Node18</title>
<g id="a_node18"><a xlink:href="a00020.html#aa470ecef221797da5ca84c2258474165" target="_top" xlink:title="discovery_set_parameter_attr">
<polygon fill="none" stroke="black" points="219,-158.5 219,-177.5 365,-177.5 365,-158.5 219,-158.5"/>
<text text-anchor="middle" x="292" y="-165.5" font-family="Helvetica,sans-Serif" font-size="10.00">discovery_set_parameter_attr</text>
</a>
</g>
</g>
<!-- Node2&#45;&gt;Node18 -->
<g id="edge18" class="edge"><title>Node2&#45;&gt;Node18</title>
<path fill="none" stroke="midnightblue" d="M176.808,-220.157C204.733,-207.402 245.445,-188.807 269.963,-177.609"/>
<polygon fill="midnightblue" stroke="midnightblue" points="175.154,-217.065 167.512,-224.403 178.062,-223.432 175.154,-217.065"/>
</g>
<!-- Node22 -->
<g id="node22" class="node"><title>Node22</title>
<g id="a_node22"><a xlink:href="a00091.html#a8e74f34c0eb423e170161eadec463df3" target="_top" xlink:title="value_set_header">
<polygon fill="none" stroke="black" points="245.5,-57.5 245.5,-76.5 338.5,-76.5 338.5,-57.5 245.5,-57.5"/>
<text text-anchor="middle" x="292" y="-64.5" font-family="Helvetica,sans-Serif" font-size="10.00">value_set_header</text>
</a>
</g>
</g>
<!-- Node2&#45;&gt;Node22 -->
<g id="edge22" class="edge"><title>Node2&#45;&gt;Node22</title>
<path fill="none" stroke="midnightblue" d="M161.551,-216.204C176.163,-198.963 199.005,-172.105 219,-149 241.811,-122.641 269.027,-91.8118 282.531,-76.5553"/>
<polygon fill="midnightblue" stroke="midnightblue" points="158.509,-214.38 154.718,-224.273 163.852,-218.903 158.509,-214.38"/>
</g>
<!-- Node4 -->
<g id="node4" class="node"><title>Node4</title>
<g id="a_node4"><a xlink:href="a00020.html#ad15d6de47820573ae430df83c83ca378" target="_top" xlink:title="discovery_set_adapter\l_attrs_v">
<polygon fill="none" stroke="black" points="406.5,-417 406.5,-447 521.5,-447 521.5,-417 406.5,-417"/>
<text text-anchor="start" x="414.5" y="-435" font-family="Helvetica,sans-Serif" font-size="10.00">discovery_set_adapter</text>
<text text-anchor="middle" x="464" y="-424" font-family="Helvetica,sans-Serif" font-size="10.00">_attrs_v</text>
</a>
</g>
</g>
<!-- Node3&#45;&gt;Node4 -->
<g id="edge3" class="edge"><title>Node3&#45;&gt;Node4</title>
<path fill="none" stroke="midnightblue" d="M339.686,-400.083C360.328,-405.426 384.783,-411.756 406.45,-417.363"/>
<polygon fill="midnightblue" stroke="midnightblue" points="340.445,-396.665 329.887,-397.547 338.691,-403.441 340.445,-396.665"/>
</g>
<!-- Node6 -->
<g id="node6" class="node"><title>Node6</title>
<g id="a_node6"><a xlink:href="a00079.html#a0d5ca643908e5c921d763ad9f5c9ba8e" target="_top" xlink:title="hpd_adapter_set_attr">
<polygon fill="none" stroke="black" points="410,-378.5 410,-397.5 518,-397.5 518,-378.5 410,-378.5"/>
<text text-anchor="middle" x="464" y="-385.5" font-family="Helvetica,sans-Serif" font-size="10.00">hpd_adapter_set_attr</text>
</a>
</g>
</g>
<!-- Node3&#45;&gt;Node6 -->
<g id="edge5" class="edge"><title>Node3&#45;&gt;Node6</title>
<path fill="none" stroke="midnightblue" d="M369.543,-388C383.157,-388 397.062,-388 409.845,-388"/>
<polygon fill="midnightblue" stroke="midnightblue" points="369.213,-384.5 359.213,-388 369.213,-391.5 369.213,-384.5"/>
</g>
<!-- Node5 -->
<g id="node5" class="node"><title>Node5</title>
<g id="a_node5"><a xlink:href="a00079.html#a0dc61e22d6abc5a621e53cd3aab2f9ca" target="_top" xlink:title="hpd_adapter_set_attrs">
<polygon fill="none" stroke="black" points="575,-422.5 575,-441.5 688,-441.5 688,-422.5 575,-422.5"/>
<text text-anchor="middle" x="631.5" y="-429.5" font-family="Helvetica,sans-Serif" font-size="10.00">hpd_adapter_set_attrs</text>
</a>
</g>
</g>
<!-- Node4&#45;&gt;Node5 -->
<g id="edge4" class="edge"><title>Node4&#45;&gt;Node5</title>
<path fill="none" stroke="midnightblue" d="M532.144,-432C546.324,-432 561.138,-432 574.839,-432"/>
<polygon fill="midnightblue" stroke="midnightblue" points="531.956,-428.5 521.956,-432 531.956,-435.5 531.956,-428.5"/>
</g>
<!-- Node7 -->
<g id="node7" class="node"><title>Node7</title>
<g id="a_node7"><a xlink:href="a00013.html#a1a305bf3b6bebda2ca16c8adcdb95239" target="_top" xlink:title="[on_destroy] ">
<polygon fill="none" stroke="black" points="576.5,-373 576.5,-403 686.5,-403 686.5,-373 576.5,-373"/>
<text text-anchor="start" x="584.5" y="-391" font-family="Helvetica,sans-Serif" font-size="10.00">demo_adapter_create</text>
<text text-anchor="middle" x="631.5" y="-380" font-family="Helvetica,sans-Serif" font-size="10.00">_adapter</text>
</a>
</g>
</g>
<!-- Node6&#45;&gt;Node7 -->
<g id="edge6" class="edge"><title>Node6&#45;&gt;Node7</title>
<path fill="none" stroke="midnightblue" d="M528.507,-388C544.332,-388 561.152,-388 576.472,-388"/>
<polygon fill="midnightblue" stroke="midnightblue" points="528.276,-384.5 518.276,-388 528.276,-391.5 528.276,-384.5"/>
</g>
<!-- Node8 -->
<g id="node8" class="node"><title>Node8</title>
<g id="a_node8"><a xlink:href="a00013.html#a9f84d5de2ac16bde89480bd48efdff51" target="_top" xlink:title="[create_lamp] ">
<polygon fill="none" stroke="black" points="736,-337.5 736,-356.5 855,-356.5 855,-337.5 736,-337.5"/>
<text text-anchor="middle" x="795.5" y="-344.5" font-family="Helvetica,sans-Serif" font-size="10.00">demo_adapter_on_start</text>
</a>
</g>
</g>
<!-- Node7&#45;&gt;Node8 -->
<g id="edge7" class="edge"><title>Node7&#45;&gt;Node8</title>
<path fill="none" stroke="midnightblue" d="M696.756,-371.738C717.134,-366.58 738.992,-361.048 756.858,-356.527"/>
<polygon fill="midnightblue" stroke="midnightblue" points="695.73,-368.387 686.894,-374.234 697.447,-375.173 695.73,-368.387"/>
</g>
<!-- Node10 -->
<g id="node10" class="node"><title>Node10</title>
<g id="a_node10"><a xlink:href="a00020.html#ae15e002e2b5408db4a705d3c5cd98c3a" target="_top" xlink:title="discovery_set_device\l_attrs_v">
<polygon fill="none" stroke="black" points="408.5,-329 408.5,-359 519.5,-359 519.5,-329 408.5,-329"/>
<text text-anchor="start" x="416.5" y="-347" font-family="Helvetica,sans-Serif" font-size="10.00">discovery_set_device</text>
<text text-anchor="middle" x="464" y="-336" font-family="Helvetica,sans-Serif" font-size="10.00">_attrs_v</text>
</a>
</g>
</g>
<!-- Node9&#45;&gt;Node10 -->
<g id="edge9" class="edge"><title>Node9&#45;&gt;Node10</title>
<path fill="none" stroke="midnightblue" d="M339.662,-312.077C360.939,-317.584 386.269,-324.14 408.423,-329.874"/>
<polygon fill="midnightblue" stroke="midnightblue" points="340.445,-308.665 329.887,-309.547 338.691,-315.441 340.445,-308.665"/>
</g>
<!-- Node12 -->
<g id="node12" class="node"><title>Node12</title>
<g id="a_node12"><a xlink:href="a00079.html#aa52044afe11425f0febeba4f6094e48f" target="_top" xlink:title="hpd_device_set_attr">
<polygon fill="none" stroke="black" points="412,-290.5 412,-309.5 516,-309.5 516,-290.5 412,-290.5"/>
<text text-anchor="middle" x="464" y="-297.5" font-family="Helvetica,sans-Serif" font-size="10.00">hpd_device_set_attr</text>
</a>
</g>
</g>
<!-- Node9&#45;&gt;Node12 -->
<g id="edge11" class="edge"><title>Node9&#45;&gt;Node12</title>
<path fill="none" stroke="midnightblue" d="M367.947,-300C382.799,-300 398.066,-300 411.9,-300"/>
<polygon fill="midnightblue" stroke="midnightblue" points="367.755,-296.5 357.755,-300 367.755,-303.5 367.755,-296.5"/>
</g>
<!-- Node11 -->
<g id="node11" class="node"><title>Node11</title>
<g id="a_node11"><a xlink:href="a00079.html#a79a100958212cd7d8be053ceeb15885c" target="_top" xlink:title="hpd_device_set_attrs">
<polygon fill="none" stroke="black" points="576.5,-334.5 576.5,-353.5 686.5,-353.5 686.5,-334.5 576.5,-334.5"/>
<text text-anchor="middle" x="631.5" y="-341.5" font-family="Helvetica,sans-Serif" font-size="10.00">hpd_device_set_attrs</text>
</a>
</g>
</g>
<!-- Node10&#45;&gt;Node11 -->
<g id="edge10" class="edge"><title>Node10&#45;&gt;Node11</title>
<path fill="none" stroke="midnightblue" d="M529.672,-344C545.156,-344 561.527,-344 576.472,-344"/>
<polygon fill="midnightblue" stroke="midnightblue" points="529.65,-340.5 519.65,-344 529.65,-347.5 529.65,-340.5"/>
</g>
<!-- Node13 -->
<g id="node13" class="node"><title>Node13</title>
<g id="a_node13"><a xlink:href="a00013.html#abfc239c18fce4bcc601e14074ddfabf8" target="_top" xlink:title="[create_service] ">
<polygon fill="none" stroke="black" points="563,-293.5 563,-312.5 700,-312.5 700,-293.5 563,-293.5"/>
<text text-anchor="middle" x="631.5" y="-300.5" font-family="Helvetica,sans-Serif" font-size="10.00">demo_adapter_create_lamp</text>
</a>
</g>
</g>
<!-- Node12&#45;&gt;Node13 -->
<g id="edge12" class="edge"><title>Node12&#45;&gt;Node13</title>
<path fill="none" stroke="midnightblue" d="M526.295,-301.111C538.222,-301.327 550.788,-301.555 562.905,-301.775"/>
<polygon fill="midnightblue" stroke="midnightblue" points="526.068,-297.606 516.006,-300.925 525.941,-304.605 526.068,-297.606"/>
</g>
<!-- Node13&#45;&gt;Node8 -->
<g id="edge13" class="edge"><title>Node13&#45;&gt;Node8</title>
<path fill="none" stroke="midnightblue" d="M677.594,-315.248C703.458,-322.272 735.444,-330.96 759.417,-337.471"/>
<polygon fill="midnightblue" stroke="midnightblue" points="678.219,-311.791 667.652,-312.547 676.385,-318.546 678.219,-311.791"/>
</g>
<!-- Node15 -->
<g id="node15" class="node"><title>Node15</title>
<g id="a_node15"><a xlink:href="a00020.html#a39fdda2b73169dd093a0009131f256bd" target="_top" xlink:title="discovery_set_service\l_attrs_v">
<polygon fill="none" stroke="black" points="407,-241 407,-271 521,-271 521,-241 407,-241"/>
<text text-anchor="start" x="415" y="-259" font-family="Helvetica,sans-Serif" font-size="10.00">discovery_set_service</text>
<text text-anchor="middle" x="464" y="-248" font-family="Helvetica,sans-Serif" font-size="10.00">_attrs_v</text>
</a>
</g>
</g>
<!-- Node14&#45;&gt;Node15 -->
<g id="edge15" class="edge"><title>Node14&#45;&gt;Node15</title>
<path fill="none" stroke="midnightblue" d="M369.283,-243.872C381.936,-245.509 394.849,-247.18 406.885,-248.738"/>
<polygon fill="midnightblue" stroke="midnightblue" points="369.58,-240.381 359.213,-242.569 368.681,-247.323 369.58,-240.381"/>
</g>
<!-- Node17 -->
<g id="node17" class="node"><title>Node17</title>
<g id="a_node17"><a xlink:href="a00079.html#ad7f06997cb2f69f3decb671a16d2bdb6" target="_top" xlink:title="hpd_service_set_attr">
<polygon fill="none" stroke="black" points="410.5,-202.5 410.5,-221.5 517.5,-221.5 517.5,-202.5 410.5,-202.5"/>
<text text-anchor="middle" x="464" y="-209.5" font-family="Helvetica,sans-Serif" font-size="10.00">hpd_service_set_attr</text>
</a>
</g>
</g>
<!-- Node14&#45;&gt;Node17 -->
<g id="edge17" class="edge"><title>Node14&#45;&gt;Node17</title>
<path fill="none" stroke="midnightblue" d="M369.254,-224.132C383.149,-222.334 397.36,-220.495 410.379,-218.81"/>
<polygon fill="midnightblue" stroke="midnightblue" points="368.681,-220.677 359.213,-225.431 369.58,-227.619 368.681,-220.677"/>
</g>
<!-- Node16 -->
<g id="node16" class="node"><title>Node16</title>
<g id="a_node16"><a xlink:href="a00079.html#a436b38305c5c560b7c2d78285ac7e27c" target="_top" xlink:title="hpd_service_set_attrs">
<polygon fill="none" stroke="black" points="575,-246.5 575,-265.5 688,-265.5 688,-246.5 575,-246.5"/>
<text text-anchor="middle" x="631.5" y="-253.5" font-family="Helvetica,sans-Serif" font-size="10.00">hpd_service_set_attrs</text>
</a>
</g>
</g>
<!-- Node15&#45;&gt;Node16 -->
<g id="edge16" class="edge"><title>Node15&#45;&gt;Node16</title>
<path fill="none" stroke="midnightblue" d="M531.37,-256C545.774,-256 560.867,-256 574.808,-256"/>
<polygon fill="midnightblue" stroke="midnightblue" points="531.031,-252.5 521.031,-256 531.031,-259.5 531.031,-252.5"/>
</g>
<!-- Node19 -->
<g id="node19" class="node"><title>Node19</title>
<g id="a_node19"><a xlink:href="a00020.html#a87107b433afd7833f396b6a390751a08" target="_top" xlink:title="discovery_set_parameter\l_attrs_v">
<polygon fill="none" stroke="black" points="401,-153 401,-183 527,-183 527,-153 401,-153"/>
<text text-anchor="start" x="409" y="-171" font-family="Helvetica,sans-Serif" font-size="10.00">discovery_set_parameter</text>
<text text-anchor="middle" x="464" y="-160" font-family="Helvetica,sans-Serif" font-size="10.00">_attrs_v</text>
</a>
</g>
</g>
<!-- Node18&#45;&gt;Node19 -->
<g id="edge19" class="edge"><title>Node18&#45;&gt;Node19</title>
<path fill="none" stroke="midnightblue" d="M375.158,-168C383.763,-168 392.407,-168 400.737,-168"/>
<polygon fill="midnightblue" stroke="midnightblue" points="375.095,-164.5 365.095,-168 375.095,-171.5 375.095,-164.5"/>
</g>
<!-- Node21 -->
<g id="node21" class="node"><title>Node21</title>
<g id="a_node21"><a xlink:href="a00079.html#ac80954392c6e6b03259a057603784b9b" target="_top" xlink:title="hpd_parameter_set_attr">
<polygon fill="none" stroke="black" points="404.5,-114.5 404.5,-133.5 523.5,-133.5 523.5,-114.5 404.5,-114.5"/>
<text text-anchor="middle" x="464" y="-121.5" font-family="Helvetica,sans-Serif" font-size="10.00">hpd_parameter_set_attr</text>
</a>
</g>
</g>
<!-- Node18&#45;&gt;Node21 -->
<g id="edge21" class="edge"><title>Node18&#45;&gt;Node21</title>
<path fill="none" stroke="midnightblue" d="M339.602,-155.938C366.867,-148.882 400.805,-140.098 426.185,-133.529"/>
<polygon fill="midnightblue" stroke="midnightblue" points="338.691,-152.559 329.887,-158.453 340.445,-159.335 338.691,-152.559"/>
</g>
<!-- Node20 -->
<g id="node20" class="node"><title>Node20</title>
<g id="a_node20"><a xlink:href="a00079.html#a386bb8668e01dfbc4a11b3c3d65eb92a" target="_top" xlink:title="hpd_parameter_set_attrs">
<polygon fill="none" stroke="black" points="569,-158.5 569,-177.5 694,-177.5 694,-158.5 569,-158.5"/>
<text text-anchor="middle" x="631.5" y="-165.5" font-family="Helvetica,sans-Serif" font-size="10.00">hpd_parameter_set_attrs</text>
</a>
</g>
</g>
<!-- Node19&#45;&gt;Node20 -->
<g id="edge20" class="edge"><title>Node19&#45;&gt;Node20</title>
<path fill="none" stroke="midnightblue" d="M537.145,-168C547.724,-168 558.538,-168 568.88,-168"/>
<polygon fill="midnightblue" stroke="midnightblue" points="537.097,-164.5 527.097,-168 537.097,-171.5 537.097,-164.5"/>
</g>
<!-- Node23 -->
<g id="node23" class="node"><title>Node23</title>
<g id="a_node23"><a xlink:href="a00091.html#acb46c0254b5e6856197be334a0a058ad" target="_top" xlink:title="value_copy">
<polygon fill="none" stroke="black" points="431,-76.5 431,-95.5 497,-95.5 497,-76.5 431,-76.5"/>
<text text-anchor="middle" x="464" y="-83.5" font-family="Helvetica,sans-Serif" font-size="10.00">value_copy</text>
</a>
</g>
</g>
<!-- Node22&#45;&gt;Node23 -->
<g id="edge23" class="edge"><title>Node22&#45;&gt;Node23</title>
<path fill="none" stroke="midnightblue" d="M348.728,-73.2285C375.921,-76.2676 407.666,-79.8157 430.787,-82.3997"/>
<polygon fill="midnightblue" stroke="midnightblue" points="348.884,-69.7241 338.557,-72.0917 348.106,-76.6808 348.884,-69.7241"/>
</g>
<!-- Node25 -->
<g id="node25" class="node"><title>Node25</title>
<g id="a_node25"><a xlink:href="a00091.html#a0d75ed4c4f2374d031c908cf626dcf4a" target="_top" xlink:title="value_set_headers_v">
<polygon fill="none" stroke="black" points="409.5,-38.5 409.5,-57.5 518.5,-57.5 518.5,-38.5 409.5,-38.5"/>
<text text-anchor="middle" x="464" y="-45.5" font-family="Helvetica,sans-Serif" font-size="10.00">value_set_headers_v</text>
</a>
</g>
</g>
<!-- Node22&#45;&gt;Node25 -->
<g id="edge25" class="edge"><title>Node22&#45;&gt;Node25</title>
<path fill="none" stroke="midnightblue" d="M348.549,-60.7916C368.12,-58.6042 390.068,-56.1512 409.47,-53.9828"/>
<polygon fill="midnightblue" stroke="midnightblue" points="348.106,-57.3192 338.557,-61.9083 348.884,-64.2759 348.106,-57.3192"/>
</g>
<!-- Node27 -->
<g id="node27" class="node"><title>Node27</title>
<g id="a_node27"><a xlink:href="a00092.html#a75b6ef13b716e7b51a4a24b0df588e33" target="_top" xlink:title="hpd_value_set_header">
<polygon fill="none" stroke="black" points="407,-0.5 407,-19.5 521,-19.5 521,-0.5 407,-0.5"/>
<text text-anchor="middle" x="464" y="-7.5" font-family="Helvetica,sans-Serif" font-size="10.00">hpd_value_set_header</text>
</a>
</g>
</g>
<!-- Node22&#45;&gt;Node27 -->
<g id="edge27" class="edge"><title>Node22&#45;&gt;Node27</title>
<path fill="none" stroke="midnightblue" d="M328.566,-54.074C349.567,-46.5446 376.713,-36.9903 401,-29 410.732,-25.7983 421.379,-22.472 431.061,-19.5143"/>
<polygon fill="midnightblue" stroke="midnightblue" points="327.31,-50.8059 319.086,-57.4847 329.68,-57.3925 327.31,-50.8059"/>
</g>
<!-- Node24 -->
<g id="node24" class="node"><title>Node24</title>
<g id="a_node24"><a xlink:href="a00092.html#a8b5be61f356ac1d72634654e16794610" target="_top" xlink:title="hpd_value_copy">
<polygon fill="none" stroke="black" points="588,-76.5 588,-95.5 675,-95.5 675,-76.5 588,-76.5"/>
<text text-anchor="middle" x="631.5" y="-83.5" font-family="Helvetica,sans-Serif" font-size="10.00">hpd_value_copy</text>
</a>
</g>
</g>
<!-- Node23&#45;&gt;Node24 -->
<g id="edge24" class="edge"><title>Node23&#45;&gt;Node24</title>
<path fill="none" stroke="midnightblue" d="M507.466,-86C532.169,-86 563.209,-86 587.931,-86"/>
<polygon fill="midnightblue" stroke="midnightblue" points="507.303,-82.5001 497.303,-86 507.303,-89.5001 507.303,-82.5001"/>
</g>
<!-- Node26 -->
<g id="node26" class="node"><title>Node26</title>
<g id="a_node26"><a xlink:href="a00092.html#a2611edcf1f90741780c5160a1e2d622e" target="_top" xlink:title="hpd_value_set_headers">
<polygon fill="none" stroke="black" points="572,-38.5 572,-57.5 691,-57.5 691,-38.5 572,-38.5"/>
<text text-anchor="middle" x="631.5" y="-45.5" font-family="Helvetica,sans-Serif" font-size="10.00">hpd_value_set_headers</text>
</a>
</g>
</g>
<!-- Node25&#45;&gt;Node26 -->
<g id="edge26" class="edge"><title>Node25&#45;&gt;Node26</title>
<path fill="none" stroke="midnightblue" d="M528.876,-48C543.03,-48 557.961,-48 571.893,-48"/>
<polygon fill="midnightblue" stroke="midnightblue" points="528.733,-44.5001 518.733,-48 528.733,-51.5001 528.733,-44.5001"/>
</g>
</g>
</svg>
        <g id="navigator" transform="translate(0 0)" fill="#404254">
                <rect fill="#f2f5e9" fill-opacity="0.5" stroke="#606060" stroke-width=".5" x="0" y="0" width="60" height="60"/>
                <use id="zoomplus" xlink:href="#zoomPlus" x="17" y="9" onmousedown="handleZoom(evt,'in')"/>
                <use id="zoomminus" xlink:href="#zoomMin" x="42" y="9" onmousedown="handleZoom(evt,'out')"/>
                <use id="reset" xlink:href="#resetDef" x="30" y="36" onmousedown="handleReset()"/>
                <g id="arrowUp" xlink:href="#dirArrow" transform="translate(30 24)" onmousedown="handlePan(0,-1)">
                  <use xlink:href="#rim" fill="#404040">
                        <set attributeName="fill" to="#808080" begin="arrowUp.mouseover" end="arrowUp.mouseout"/>
                  </use>
                  <path fill="none" stroke="white" stroke-width="1.5" d="M0,-3.0v7 M-2.5,-0.5L0,-3.0L2.5,-0.5"/>
                </g>
                <g id="arrowRight" xlink:href="#dirArrow" transform="rotate(90) translate(36 -43)" onmousedown="handlePan(1,0)">
                  <use xlink:href="#rim" fill="#404040">
                        <set attributeName="fill" to="#808080" begin="arrowRight.mouseover" end="arrowRight.mouseout"/>
                  </use>
                  <path fill="none" stroke="white" stroke-width="1.5" d="M0,-3.0v7 M-2.5,-0.5L0,-3.0L2.5,-0.5"/>
                </g>
                <g id="arrowDown" xlink:href="#dirArrow" transform="rotate(180) translate(-30 -48)" onmousedown="handlePan(0,1)">
                  <use xlink:href="#rim" fill="#404040">
                        <set attributeName="fill" to="#808080" begin="arrowDown.mouseover" end="arrowDown.mouseout"/>
                  </use>
                  <path fill="none" stroke="white" stroke-width="1.5" d="M0,-3.0v7 M-2.5,-0.5L0,-3.0L2.5,-0.5"/>
                </g>
                <g id="arrowLeft" xlink:href="#dirArrow" transform="rotate(270) translate(-36 17)" onmousedown="handlePan(-1,0)">
                  <use xlink:href="#rim" fill="#404040">
                        <set attributeName="fill" to="#808080" begin="arrowLeft.mouseover" end="arrowLeft.mouseout"/>
                  </use>
                  <path fill="none" stroke="white" stroke-width="1.5" d="M0,-3.0v7 M-2.5,-0.5L0,-3.0L2.5,-0.5"/>
                </g>
        </g>
        <svg viewBox="0 0 15 15" width="100%" height="30px" preserveAspectRatio="xMaxYMin meet">
         <g id="arrow_out" transform="scale(0.3 0.3)">
          <a xlink:href="a00031_ac16b47a5d68b6eaae2e709e1888982fd_icgraph_org.svg" target="_base">
           <rect id="button" ry="5" rx="5" y="6" x="6" height="38" width="38"
                fill="#f2f5e9" fill-opacity="0.5" stroke="#606060" stroke-width="1.0"/>
           <path id="arrow"
             d="M 11.500037,31.436501 C 11.940474,20.09759 22.043105,11.32322 32.158766,21.979434 L 37.068811,17.246167 C 37.068811,17.246167 37.088388,32 37.088388,32 L 22.160133,31.978069 C 22.160133,31.978069 26.997745,27.140456 26.997745,27.140456 C 18.528582,18.264221 13.291696,25.230495 11.500037,31.436501 z"
             style="fill:#404040;"/>
          </a>
         </g>
        </svg>
</svg>
