<?xml version="1.0" encoding="UTF-8" standalone="no"?>
<!DOCTYPE svg PUBLIC "-//W3C//DTD SVG 1.1//EN"
 "http://www.w3.org/Graphics/SVG/1.1/DTD/svg11.dtd">
<!-- Generated by graphviz version 2.38.0 (20140413.2041)
 -->
<!-- Title: hpd_adapter_detach Pages: 1 -->
<svg width="971pt" height="180pt"
 viewBox="0.00 0.00 971.00 180.00" xmlns="http://www.w3.org/2000/svg" xmlns:xlink="http://www.w3.org/1999/xlink">
<g id="graph0" class="graph" transform="scale(1 1) rotate(0) translate(4 176)">
<title>hpd_adapter_detach</title>
<!-- Node1 -->
<g id="node1" class="node"><title>Node1</title>
<polygon fill="#bfbfbf" stroke="black" points="0,-95.5 0,-114.5 104,-114.5 104,-95.5 0,-95.5"/>
<text text-anchor="middle" x="52" y="-102.5" font-family="Helvetica,sans-Serif" font-size="10.00">hpd_adapter_detach</text>
</g>
<!-- Node2 -->
<g id="node2" class="node"><title>Node2</title>
<g id="a_node2"><a xlink:href="a00020.html#adbc376ab1130f0595796c540f0b5e515" target="_top" xlink:title="discovery_find_adapter">
<polygon fill="none" stroke="black" points="147,-114.5 147,-133.5 264,-133.5 264,-114.5 147,-114.5"/>
<text text-anchor="middle" x="205.5" y="-121.5" font-family="Helvetica,sans-Serif" font-size="10.00">discovery_find_adapter</text>
</a>
</g>
</g>
<!-- Node1&#45;&gt;Node2 -->
<g id="edge1" class="edge"><title>Node1&#45;&gt;Node2</title>
<path fill="none" stroke="midnightblue" d="M104.291,-111.433C114.741,-112.743 125.887,-114.141 136.806,-115.51"/>
<polygon fill="midnightblue" stroke="midnightblue" points="136.387,-118.985 146.745,-116.757 137.258,-112.04 136.387,-118.985"/>
</g>
<!-- Node3 -->
<g id="node3" class="node"><title>Node3</title>
<g id="a_node3"><a xlink:href="a00078.html#adb9f3d73fc28b0ec1c15d72b03db7239" target="_top" xlink:title="discovery_detach_adapter">
<polygon fill="none" stroke="black" points="140,-76.5 140,-95.5 271,-95.5 271,-76.5 140,-76.5"/>
<text text-anchor="middle" x="205.5" y="-83.5" font-family="Helvetica,sans-Serif" font-size="10.00">discovery_detach_adapter</text>
</a>
</g>
</g>
<!-- Node1&#45;&gt;Node3 -->
<g id="edge2" class="edge"><title>Node1&#45;&gt;Node3</title>
<path fill="none" stroke="midnightblue" d="M104.291,-98.5675C112.497,-97.5383 121.132,-96.4554 129.75,-95.3746"/>
<polygon fill="midnightblue" stroke="midnightblue" points="130.345,-98.8275 139.832,-94.1102 129.474,-91.8819 130.345,-98.8275"/>
</g>
<!-- Node4 -->
<g id="node4" class="node"><title>Node4</title>
<g id="a_node4"><a xlink:href="a00081.html#ab3279e57e3faeb9689b5b60283103ef2" target="_top" xlink:title="event_inform_adapter\l_detached">
<polygon fill="none" stroke="black" points="307,-71 307,-101 417,-101 417,-71 307,-71"/>
<text text-anchor="start" x="315" y="-89" font-family="Helvetica,sans-Serif" font-size="10.00">event_inform_adapter</text>
<text text-anchor="middle" x="362" y="-78" font-family="Helvetica,sans-Serif" font-size="10.00">_detached</text>
</a>
</g>
</g>
<!-- Node3&#45;&gt;Node4 -->
<g id="edge3" class="edge"><title>Node3&#45;&gt;Node4</title>
<path fill="none" stroke="midnightblue" d="M271.127,-86C279.592,-86 288.265,-86 296.725,-86"/>
<polygon fill="midnightblue" stroke="midnightblue" points="296.909,-89.5001 306.909,-86 296.909,-82.5001 296.909,-89.5001"/>
</g>
<!-- Node5 -->
<g id="node5" class="node"><title>Node5</title>
<g id="a_node5"><a xlink:href="a00081.html#a38f3fa1f45b7832adcbdd3f1af2bd9a4" target="_top" xlink:title="event_inform_device\l_detached">
<polygon fill="none" stroke="black" points="453,-71 453,-101 560,-101 560,-71 453,-71"/>
<text text-anchor="start" x="461" y="-89" font-family="Helvetica,sans-Serif" font-size="10.00">event_inform_device</text>
<text text-anchor="middle" x="506.5" y="-78" font-family="Helvetica,sans-Serif" font-size="10.00">_detached</text>
</a>
</g>
</g>
<!-- Node4&#45;&gt;Node5 -->
<g id="edge4" class="edge"><title>Node4&#45;&gt;Node5</title>
<path fill="none" stroke="midnightblue" d="M417.28,-86C425.555,-86 434.156,-86 442.597,-86"/>
<polygon fill="midnightblue" stroke="midnightblue" points="442.783,-89.5001 452.783,-86 442.783,-82.5001 442.783,-89.5001"/>
</g>
<!-- Node6 -->
<g id="node6" class="node"><title>Node6</title>
<g id="a_node6"><a xlink:href="a00020.html#aebd10ac1c18be51340c39d6d5a54e6d1" target="_top" xlink:title="discovery_alloc_did">
<polygon fill="none" stroke="black" points="596,-114.5 596,-133.5 698,-133.5 698,-114.5 596,-114.5"/>
<text text-anchor="middle" x="647" y="-121.5" font-family="Helvetica,sans-Serif" font-size="10.00">discovery_alloc_did</text>
</a>
</g>
</g>
<!-- Node5&#45;&gt;Node6 -->
<g id="edge5" class="edge"><title>Node5&#45;&gt;Node6</title>
<path fill="none" stroke="midnightblue" d="M560.256,-100.475C573.78,-104.185 588.194,-108.14 601.27,-111.727"/>
<polygon fill="midnightblue" stroke="midnightblue" points="600.401,-115.118 610.971,-114.389 602.253,-108.368 600.401,-115.118"/>
</g>
<!-- Node10 -->
<g id="node10" class="node"><title>Node10</title>
<g id="a_node10"><a xlink:href="a00012.html#adf46370d9c211c3be22966b4606ba9b0" target="_top" xlink:title="free">
<polygon fill="none" stroke="black" points="899,-57.5 899,-76.5 932,-76.5 932,-57.5 899,-57.5"/>
<text text-anchor="middle" x="915.5" y="-64.5" font-family="Helvetica,sans-Serif" font-size="10.00">free</text>
</a>
</g>
</g>
<!-- Node5&#45;&gt;Node10 -->
<g id="edge14" class="edge"><title>Node5&#45;&gt;Node10</title>
<path fill="none" stroke="midnightblue" d="M560.052,-83.6072C624.23,-80.6768 736.092,-75.5417 832,-71 850.97,-70.1017 872.392,-69.0623 888.652,-68.2682"/>
<polygon fill="midnightblue" stroke="midnightblue" points="889.174,-71.747 898.991,-67.7624 888.832,-64.7553 889.174,-71.747"/>
</g>
<!-- Node11 -->
<g id="node11" class="node"><title>Node11</title>
<g id="a_node11"><a xlink:href="a00081.html#a6c353799b446d7c8d3008308c01a3f33" target="_top" xlink:title="event_on_detached">
<polygon fill="none" stroke="black" points="596.5,-38.5 596.5,-57.5 697.5,-57.5 697.5,-38.5 596.5,-38.5"/>
<text text-anchor="middle" x="647" y="-45.5" font-family="Helvetica,sans-Serif" font-size="10.00">event_on_detached</text>
</a>
</g>
</g>
<!-- Node5&#45;&gt;Node11 -->
<g id="edge10" class="edge"><title>Node5&#45;&gt;Node11</title>
<path fill="none" stroke="midnightblue" d="M560.256,-71.5254C573.78,-67.815 588.194,-63.86 601.27,-60.2725"/>
<polygon fill="midnightblue" stroke="midnightblue" points="602.253,-63.6321 610.971,-57.6109 600.401,-56.8816 602.253,-63.6321"/>
</g>
<!-- Node7 -->
<g id="node7" class="node"><title>Node7</title>
<g id="a_node7"><a xlink:href="a00080.html#acd5e8c2bf3e761abc7e2fd2294238a74" target="_top" xlink:title="HPD_E_ALLOC: id might be partially updated. ">
<polygon fill="none" stroke="black" points="735.5,-152.5 735.5,-171.5 830.5,-171.5 830.5,-152.5 735.5,-152.5"/>
<text text-anchor="middle" x="783" y="-159.5" font-family="Helvetica,sans-Serif" font-size="10.00">discovery_set_did</text>
</a>
</g>
</g>
<!-- Node6&#45;&gt;Node7 -->
<g id="edge6" class="edge"><title>Node6&#45;&gt;Node7</title>
<path fill="none" stroke="midnightblue" d="M681.814,-133.589C699.033,-138.472 720.164,-144.464 738.573,-149.685"/>
<polygon fill="midnightblue" stroke="midnightblue" points="737.621,-153.053 748.197,-152.414 739.531,-146.319 737.621,-153.053"/>
</g>
<!-- Node9 -->
<g id="node9" class="node"><title>Node9</title>
<g id="a_node9"><a xlink:href="a00080.html#ae1a000b225c8b3f365c2cec8362b8483" target="_top" xlink:title="discovery_free_did">
<polygon fill="none" stroke="black" points="734,-114.5 734,-133.5 832,-133.5 832,-114.5 734,-114.5"/>
<text text-anchor="middle" x="783" y="-121.5" font-family="Helvetica,sans-Serif" font-size="10.00">discovery_free_did</text>
</a>
</g>
</g>
<!-- Node6&#45;&gt;Node9 -->
<g id="edge8" class="edge"><title>Node6&#45;&gt;Node9</title>
<path fill="none" stroke="midnightblue" d="M698.278,-124C706.514,-124 715.111,-124 723.525,-124"/>
<polygon fill="midnightblue" stroke="midnightblue" points="723.661,-127.5 733.661,-124 723.661,-120.5 723.661,-127.5"/>
</g>
<!-- Node8 -->
<g id="node8" class="node"><title>Node8</title>
<g id="a_node8"><a xlink:href="a00080.html#af2f553cfc3af4678b87a8fc75f35a5c6" target="_top" xlink:title="HPD_E_ALLOC: id might be partially updated. ">
<polygon fill="none" stroke="black" points="868,-152.5 868,-171.5 963,-171.5 963,-152.5 868,-152.5"/>
<text text-anchor="middle" x="915.5" y="-159.5" font-family="Helvetica,sans-Serif" font-size="10.00">discovery_set_aid</text>
</a>
</g>
</g>
<!-- Node7&#45;&gt;Node8 -->
<g id="edge7" class="edge"><title>Node7&#45;&gt;Node8</title>
<path fill="none" stroke="midnightblue" d="M830.745,-162C839.459,-162 848.654,-162 857.634,-162"/>
<polygon fill="midnightblue" stroke="midnightblue" points="857.643,-165.5 867.643,-162 857.643,-158.5 857.643,-165.5"/>
</g>
<!-- Node9&#45;&gt;Node10 -->
<g id="edge9" class="edge"><title>Node9&#45;&gt;Node10</title>
<path fill="none" stroke="midnightblue" d="M805.843,-114.459C828.928,-104.376 865.281,-88.4979 889.498,-77.9206"/>
<polygon fill="midnightblue" stroke="midnightblue" points="890.986,-81.0896 898.75,-73.8795 888.185,-74.6748 890.986,-81.0896"/>
</g>
<!-- Node11&#45;&gt;Node10 -->
<g id="edge11" class="edge"><title>Node11&#45;&gt;Node10</title>
<path fill="none" stroke="midnightblue" d="M697.502,-51.5292C754.119,-55.5657 844.658,-62.0207 888.726,-65.1624"/>
<polygon fill="midnightblue" stroke="midnightblue" points="888.656,-68.6662 898.879,-65.8863 889.154,-61.684 888.656,-68.6662"/>
</g>
<!-- Node12 -->
<g id="node12" class="node"><title>Node12</title>
<g id="a_node12"><a xlink:href="a00020.html#ae1a000b225c8b3f365c2cec8362b8483" target="_top" xlink:title="discovery_free_did">
<polygon fill="none" stroke="black" points="734,-0.5 734,-19.5 832,-19.5 832,-0.5 734,-0.5"/>
<text text-anchor="middle" x="783" y="-7.5" font-family="Helvetica,sans-Serif" font-size="10.00">discovery_free_did</text>
</a>
</g>
</g>
<!-- Node11&#45;&gt;Node12 -->
<g id="edge12" class="edge"><title>Node11&#45;&gt;Node12</title>
<path fill="none" stroke="midnightblue" d="M681.814,-38.411C699.033,-33.5281 720.164,-27.5357 738.573,-22.315"/>
<polygon fill="midnightblue" stroke="midnightblue" points="739.531,-25.6815 748.197,-19.5859 737.621,-18.947 739.531,-25.6815"/>
</g>
<!-- Node12&#45;&gt;Node10 -->
<g id="edge13" class="edge"><title>Node12&#45;&gt;Node10</title>
<path fill="none" stroke="midnightblue" d="M805.843,-19.5405C828.928,-29.6239 865.281,-45.5021 889.498,-56.0794"/>
<polygon fill="midnightblue" stroke="midnightblue" points="888.185,-59.3252 898.75,-60.1205 890.986,-52.9104 888.185,-59.3252"/>
</g>
</g>
</svg>
