<?xml version="1.0" encoding="UTF-8" standalone="no"?>
<!DOCTYPE svg PUBLIC "-//W3C//DTD SVG 1.1//EN"
 "http://www.w3.org/Graphics/SVG/1.1/DTD/svg11.dtd">
<!-- Generated by graphviz version 2.38.0 (20140413.2041)
 -->
<!-- Title: reply_internal_server_error Pages: 1 -->
<!--zoomable 253 -->
<svg id="main" version="1.1" xmlns="http://www.w3.org/2000/svg" xmlns:xlink="http://www.w3.org/1999/xlink" xml:space="preserve" onload="init(evt)">
<style type="text/css"><![CDATA[
.edge:hover path { stroke: red; }
.edge:hover polygon { stroke: red; fill: red; }
]]></style>
<script type="text/javascript"><![CDATA[
var edges = document.getElementsByTagName('g');
if (edges && edges.length) {
  for (var i=0;i<edges.length;i++) {
    if (edges[i].id.substr(0,4)=='edge') {
      edges[i].setAttribute('class','edge');
    }
  }
}
]]></script>
        <defs>
                <circle id="rim" cx="0" cy="0" r="7"/>
                <circle id="rim2" cx="0" cy="0" r="3.5"/>
                <g id="zoomPlus">
                        <use xlink:href="#rim" fill="#404040">
                                <set attributeName="fill" to="#808080" begin="zoomplus.mouseover" end="zoomplus.mouseout"/>
                        </use>
                        <path d="M-4,0h8M0,-4v8" fill="none" stroke="white" stroke-width="1.5" pointer-events="none"/>
                </g>
                <g id="zoomMin">
                        <use xlink:href="#rim" fill="#404040">
                                <set attributeName="fill" to="#808080" begin="zoomminus.mouseover" end="zoomminus.mouseout"/>
                        </use>
                        <path d="M-4,0h8" fill="none" stroke="white" stroke-width="1.5" pointer-events="none"/>
                </g>
                <g id="dirArrow">
                        <path fill="none" stroke="white" stroke-width="1.5" d="M0,-3.0v7 M-2.5,-0.5L0,-3.0L2.5,-0.5"/>
                </g>
               <g id="resetDef">
                       <use xlink:href="#rim2" fill="#404040">
                               <set attributeName="fill" to="#808080" begin="reset.mouseover" end="reset.mouseout"/>
                       </use>
               </g>
        </defs>

<script type="text/javascript">
var viewWidth = 859;
var viewHeight = 253;
var sectionId = 'dynsection-35';
</script>
<script xlink:href="svgpan.js"/>
<svg id="graph" class="graph">
<g id="viewport">
<title>reply_internal_server_error</title>
<!-- Node1 -->
<g id="node1" class="node"><title>Node1</title>
<polygon fill="#bfbfbf" stroke="black" points="0,-77.5 0,-107.5 107,-107.5 107,-77.5 0,-77.5"/>
<text text-anchor="start" x="8" y="-95.5" font-family="Helvetica,sans-Serif" font-size="10.00">reply_internal_server</text>
<text text-anchor="middle" x="53.5" y="-84.5" font-family="Helvetica,sans-Serif" font-size="10.00">_error</text>
</g>
<!-- Node2 -->
<g id="node2" class="node"><title>Node2</title>
<g id="a_node2"><a xlink:href="a00025.html#afb08e2b5fbac2394319e24be39ac931a" target="_top" xlink:title="reply">
<polygon fill="none" stroke="black" points="143,-83 143,-102 181,-102 181,-83 143,-83"/>
<text text-anchor="middle" x="162" y="-90" font-family="Helvetica,sans-Serif" font-size="10.00">reply</text>
</a>
</g>
</g>
<!-- Node1&#45;&gt;Node2 -->
<g id="edge1" class="edge"><title>Node1&#45;&gt;Node2</title>
<path fill="none" stroke="midnightblue" d="M107.126,-92.5C115.917,-92.5 124.731,-92.5 132.608,-92.5"/>
<polygon fill="midnightblue" stroke="midnightblue" points="132.681,-96.0001 142.681,-92.5 132.681,-89.0001 132.681,-96.0001"/>
</g>
<!-- Node3 -->
<g id="node3" class="node"><title>Node3</title>
<g id="a_node3"><a xlink:href="a00018.html#a3b100e8d7e1214067cf1b90ad577745c" target="_top" xlink:title="Create the reponse and constructs the status line. ">
<polygon fill="none" stroke="black" points="217,-110.5 217,-140.5 321,-140.5 321,-110.5 217,-110.5"/>
<text text-anchor="start" x="225" y="-128.5" font-family="Helvetica,sans-Serif" font-size="10.00">hpd_httpd_response</text>
<text text-anchor="middle" x="269" y="-117.5" font-family="Helvetica,sans-Serif" font-size="10.00">_create</text>
</a>
</g>
</g>
<!-- Node2&#45;&gt;Node3 -->
<g id="edge2" class="edge"><title>Node2&#45;&gt;Node3</title>
<path fill="none" stroke="midnightblue" d="M181.29,-98.2482C189.567,-100.85 199.854,-104.083 210.418,-107.403"/>
<polygon fill="midnightblue" stroke="midnightblue" points="209.558,-110.801 220.147,-110.461 211.657,-104.123 209.558,-110.801"/>
</g>
<!-- Node12 -->
<g id="node12" class="node"><title>Node12</title>
<g id="a_node12"><a xlink:href="a00018.html#a36a5feca39485163b3ef446c9e3171a3" target="_top" xlink:title="Destroy a hpd_httpd_response. ">
<polygon fill="none" stroke="black" points="376,-0.5 376,-30.5 480,-30.5 480,-0.5 376,-0.5"/>
<text text-anchor="start" x="384" y="-18.5" font-family="Helvetica,sans-Serif" font-size="10.00">hpd_httpd_response</text>
<text text-anchor="middle" x="428" y="-7.5" font-family="Helvetica,sans-Serif" font-size="10.00">_destroy</text>
</a>
</g>
</g>
<!-- Node2&#45;&gt;Node12 -->
<g id="edge12" class="edge"><title>Node2&#45;&gt;Node12</title>
<path fill="none" stroke="midnightblue" d="M181.146,-87.2075C218.665,-76.2643 306.265,-50.7143 366.094,-33.2642"/>
<polygon fill="midnightblue" stroke="midnightblue" points="367.195,-36.5892 375.814,-30.4291 365.234,-29.8692 367.195,-36.5892"/>
</g>
<!-- Node4 -->
<g id="node4" class="node"><title>Node4</title>
<g id="a_node4"><a xlink:href="a00016.html#a228cee03d1174febd4a716e0285542c2" target="_top" xlink:title="http_request_get_context">
<polygon fill="none" stroke="black" points="364.5,-176 364.5,-195 491.5,-195 491.5,-176 364.5,-176"/>
<text text-anchor="middle" x="428" y="-183" font-family="Helvetica,sans-Serif" font-size="10.00">http_request_get_context</text>
</a>
</g>
</g>
<!-- Node3&#45;&gt;Node4 -->
<g id="edge3" class="edge"><title>Node3&#45;&gt;Node4</title>
<path fill="none" stroke="midnightblue" d="M298.851,-140.66C315.533,-149.027 337.1,-159.174 357,-166.5 363.431,-168.867 370.291,-171.087 377.108,-173.114"/>
<polygon fill="midnightblue" stroke="midnightblue" points="376.431,-176.561 387.008,-175.942 378.354,-169.83 376.431,-176.561"/>
</g>
<!-- Node5 -->
<g id="node5" class="node"><title>Node5</title>
<g id="a_node5"><a xlink:href="a00017.html#a867d6248acd2a1ad498594ec818cb718" target="_top" xlink:title="Convert a status code to string. ">
<polygon fill="none" stroke="black" points="364.5,-138 364.5,-157 491.5,-157 491.5,-138 364.5,-138"/>
<text text-anchor="middle" x="428" y="-145" font-family="Helvetica,sans-Serif" font-size="10.00">http_status_codes_to_str</text>
</a>
</g>
</g>
<!-- Node3&#45;&gt;Node5 -->
<g id="edge4" class="edge"><title>Node3&#45;&gt;Node5</title>
<path fill="none" stroke="midnightblue" d="M321.408,-132.704C331.883,-134.172 343.093,-135.742 354.152,-137.292"/>
<polygon fill="midnightblue" stroke="midnightblue" points="353.852,-140.784 364.241,-138.706 354.823,-133.852 353.852,-140.784"/>
</g>
<!-- Node6 -->
<g id="node6" class="node"><title>Node6</title>
<g id="a_node6"><a xlink:href="a00017.html#a36a5feca39485163b3ef446c9e3171a3" target="_top" xlink:title="Destroy a hpd_httpd_response. ">
<polygon fill="none" stroke="black" points="376,-88.5 376,-118.5 480,-118.5 480,-88.5 376,-88.5"/>
<text text-anchor="start" x="384" y="-106.5" font-family="Helvetica,sans-Serif" font-size="10.00">hpd_httpd_response</text>
<text text-anchor="middle" x="428" y="-95.5" font-family="Helvetica,sans-Serif" font-size="10.00">_destroy</text>
</a>
</g>
</g>
<!-- Node3&#45;&gt;Node6 -->
<g id="edge5" class="edge"><title>Node3&#45;&gt;Node6</title>
<path fill="none" stroke="midnightblue" d="M321.408,-118.296C335.577,-116.311 351.088,-114.137 365.754,-112.082"/>
<polygon fill="midnightblue" stroke="midnightblue" points="366.328,-115.536 375.745,-110.682 365.356,-108.604 366.328,-115.536"/>
</g>
<!-- Node10 -->
<g id="node10" class="node"><title>Node10</title>
<g id="a_node10"><a xlink:href="a00016.html#a1568fdba259271965551fb5aa1f07006" target="_top" xlink:title="Get the connection of a request. ">
<polygon fill="none" stroke="black" points="357,-50 357,-69 499,-69 499,-50 357,-50"/>
<text text-anchor="middle" x="428" y="-57" font-family="Helvetica,sans-Serif" font-size="10.00">http_request_get_connection</text>
</a>
</g>
</g>
<!-- Node3&#45;&gt;Node10 -->
<g id="edge10" class="edge"><title>Node3&#45;&gt;Node10</title>
<path fill="none" stroke="midnightblue" d="M295.216,-110.368C312.235,-100.61 335.441,-88.1692 357,-79.5 363.772,-76.7768 371.051,-74.2645 378.263,-72.0064"/>
<polygon fill="midnightblue" stroke="midnightblue" points="379.428,-75.3112 388.004,-69.089 377.42,-68.6055 379.428,-75.3112"/>
</g>
<!-- Node11 -->
<g id="node11" class="node"><title>Node11</title>
<g id="a_node11"><a xlink:href="a00017.html#a3aabea0eb8be381d54ece47fa1fd6a75" target="_top" xlink:title="Add header to a response. ">
<polygon fill="none" stroke="black" points="376,-214.5 376,-244.5 480,-244.5 480,-214.5 376,-214.5"/>
<text text-anchor="start" x="384" y="-232.5" font-family="Helvetica,sans-Serif" font-size="10.00">hpd_httpd_response</text>
<text text-anchor="middle" x="428" y="-221.5" font-family="Helvetica,sans-Serif" font-size="10.00">_add_header</text>
</a>
</g>
</g>
<!-- Node3&#45;&gt;Node11 -->
<g id="edge11" class="edge"><title>Node3&#45;&gt;Node11</title>
<path fill="none" stroke="midnightblue" d="M283.069,-140.527C298.986,-158.02 327.429,-186.769 357,-204.5 360.389,-206.532 363.97,-208.436 367.647,-210.213"/>
<polygon fill="midnightblue" stroke="midnightblue" points="366.375,-213.478 376.932,-214.37 369.235,-207.09 366.375,-213.478"/>
</g>
<!-- Node7 -->
<g id="node7" class="node"><title>Node7</title>
<g id="a_node7"><a xlink:href="a00029.html#a494a1841a6c8963c10f5d3a6b662f014" target="_top" xlink:title="Close a connection, after the remaining data has been sent. ">
<polygon fill="none" stroke="black" points="535,-53 535,-72 646,-72 646,-53 535,-53"/>
<text text-anchor="middle" x="590.5" y="-60" font-family="Helvetica,sans-Serif" font-size="10.00">hpd_tcpd_conn_close</text>
</a>
</g>
</g>
<!-- Node6&#45;&gt;Node7 -->
<g id="edge6" class="edge"><title>Node6&#45;&gt;Node7</title>
<path fill="none" stroke="midnightblue" d="M480.224,-90.4146C500.146,-85.3257 522.825,-79.5322 542.34,-74.5471"/>
<polygon fill="midnightblue" stroke="midnightblue" points="543.402,-77.8882 552.225,-72.022 541.67,-71.106 543.402,-77.8882"/>
</g>
<!-- Node9 -->
<g id="node9" class="node"><title>Node9</title>
<g id="a_node9"><a xlink:href="a00006.html#adf46370d9c211c3be22966b4606ba9b0" target="_top" xlink:title="free">
<polygon fill="none" stroke="black" points="818,-53 818,-72 851,-72 851,-53 818,-53"/>
<text text-anchor="middle" x="834.5" y="-60" font-family="Helvetica,sans-Serif" font-size="10.00">free</text>
</a>
</g>
</g>
<!-- Node6&#45;&gt;Node9 -->
<g id="edge9" class="edge"><title>Node6&#45;&gt;Node9</title>
<path fill="none" stroke="midnightblue" d="M480.188,-104.935C549.423,-105.83 676.406,-103.768 782,-81.5 790.751,-79.6546 800.007,-76.6089 808.221,-73.491"/>
<polygon fill="midnightblue" stroke="midnightblue" points="809.638,-76.6939 817.62,-69.7278 807.036,-70.1954 809.638,-76.6939"/>
</g>
<!-- Node8 -->
<g id="node8" class="node"><title>Node8</title>
<g id="a_node8"><a xlink:href="a00049.html#a58068e1a4c60b401bc6fc99c25e9a3f6" target="_top" xlink:title="Kill and clean up after a connection. ">
<polygon fill="none" stroke="black" points="682,-53 682,-72 782,-72 782,-53 682,-53"/>
<text text-anchor="middle" x="732" y="-60" font-family="Helvetica,sans-Serif" font-size="10.00">hpd_tcpd_conn_kill</text>
</a>
</g>
</g>
<!-- Node7&#45;&gt;Node8 -->
<g id="edge7" class="edge"><title>Node7&#45;&gt;Node8</title>
<path fill="none" stroke="midnightblue" d="M646.234,-62.5C654.591,-62.5 663.25,-62.5 671.7,-62.5"/>
<polygon fill="midnightblue" stroke="midnightblue" points="671.868,-66.0001 681.868,-62.5 671.868,-59.0001 671.868,-66.0001"/>
</g>
<!-- Node8&#45;&gt;Node9 -->
<g id="edge8" class="edge"><title>Node8&#45;&gt;Node9</title>
<path fill="none" stroke="midnightblue" d="M782.072,-62.5C790.878,-62.5 799.731,-62.5 807.551,-62.5"/>
<polygon fill="midnightblue" stroke="midnightblue" points="807.804,-66.0001 817.804,-62.5 807.804,-59.0001 807.804,-66.0001"/>
</g>
<!-- Node12&#45;&gt;Node7 -->
<g id="edge13" class="edge"><title>Node12&#45;&gt;Node7</title>
<path fill="none" stroke="midnightblue" d="M480.224,-30.5003C501.827,-36.8262 526.672,-44.1017 547.208,-50.1154"/>
<polygon fill="midnightblue" stroke="midnightblue" points="546.33,-53.5051 556.91,-52.9566 548.297,-46.7872 546.33,-53.5051"/>
</g>
<!-- Node12&#45;&gt;Node9 -->
<g id="edge14" class="edge"><title>Node12&#45;&gt;Node9</title>
<path fill="none" stroke="midnightblue" d="M480.207,-15.1934C549.465,-15.7652 676.471,-20.3117 782,-43.5 790.735,-45.4194 799.986,-48.4847 808.202,-51.598"/>
<polygon fill="midnightblue" stroke="midnightblue" points="807.019,-54.8944 817.605,-55.3454 809.611,-48.3918 807.019,-54.8944"/>
</g>
</g>
</svg>
        <g id="navigator" transform="translate(0 0)" fill="#404254">
                <rect fill="#f2f5e9" fill-opacity="0.5" stroke="#606060" stroke-width=".5" x="0" y="0" width="60" height="60"/>
                <use id="zoomplus" xlink:href="#zoomPlus" x="17" y="9" onmousedown="handleZoom(evt,'in')"/>
                <use id="zoomminus" xlink:href="#zoomMin" x="42" y="9" onmousedown="handleZoom(evt,'out')"/>
                <use id="reset" xlink:href="#resetDef" x="30" y="36" onmousedown="handleReset()"/>
                <g id="arrowUp" xlink:href="#dirArrow" transform="translate(30 24)" onmousedown="handlePan(0,-1)">
                  <use xlink:href="#rim" fill="#404040">
                        <set attributeName="fill" to="#808080" begin="arrowUp.mouseover" end="arrowUp.mouseout"/>
                  </use>
                  <path fill="none" stroke="white" stroke-width="1.5" d="M0,-3.0v7 M-2.5,-0.5L0,-3.0L2.5,-0.5"/>
                </g>
                <g id="arrowRight" xlink:href="#dirArrow" transform="rotate(90) translate(36 -43)" onmousedown="handlePan(1,0)">
                  <use xlink:href="#rim" fill="#404040">
                        <set attributeName="fill" to="#808080" begin="arrowRight.mouseover" end="arrowRight.mouseout"/>
                  </use>
                  <path fill="none" stroke="white" stroke-width="1.5" d="M0,-3.0v7 M-2.5,-0.5L0,-3.0L2.5,-0.5"/>
                </g>
                <g id="arrowDown" xlink:href="#dirArrow" transform="rotate(180) translate(-30 -48)" onmousedown="handlePan(0,1)">
                  <use xlink:href="#rim" fill="#404040">
                        <set attributeName="fill" to="#808080" begin="arrowDown.mouseover" end="arrowDown.mouseout"/>
                  </use>
                  <path fill="none" stroke="white" stroke-width="1.5" d="M0,-3.0v7 M-2.5,-0.5L0,-3.0L2.5,-0.5"/>
                </g>
                <g id="arrowLeft" xlink:href="#dirArrow" transform="rotate(270) translate(-36 17)" onmousedown="handlePan(-1,0)">
                  <use xlink:href="#rim" fill="#404040">
                        <set attributeName="fill" to="#808080" begin="arrowLeft.mouseover" end="arrowLeft.mouseout"/>
                  </use>
                  <path fill="none" stroke="white" stroke-width="1.5" d="M0,-3.0v7 M-2.5,-0.5L0,-3.0L2.5,-0.5"/>
                </g>
        </g>
        <svg viewBox="0 0 15 15" width="100%" height="30px" preserveAspectRatio="xMaxYMin meet">
         <g id="arrow_out" transform="scale(0.3 0.3)">
          <a xlink:href="a00025_a78818d54ff3643716564aad97c70c7e2_cgraph_org.svg" target="_base">
           <rect id="button" ry="5" rx="5" y="6" x="6" height="38" width="38"
                fill="#f2f5e9" fill-opacity="0.5" stroke="#606060" stroke-width="1.0"/>
           <path id="arrow"
             d="M 11.500037,31.436501 C 11.940474,20.09759 22.043105,11.32322 32.158766,21.979434 L 37.068811,17.246167 C 37.068811,17.246167 37.088388,32 37.088388,32 L 22.160133,31.978069 C 22.160133,31.978069 26.997745,27.140456 26.997745,27.140456 C 18.528582,18.264221 13.291696,25.230495 11.500037,31.436501 z"
             style="fill:#404040;"/>
          </a>
         </g>
        </svg>
</svg>
