<?xml version="1.0" encoding="UTF-8" standalone="no"?>
<!DOCTYPE svg PUBLIC "-//W3C//DTD SVG 1.1//EN"
 "http://www.w3.org/Graphics/SVG/1.1/DTD/svg11.dtd">
<!-- Generated by graphviz version 2.38.0 (20140413.2041)
 -->
<!-- Title: hpd_httpd_response_vsendf Pages: 1 -->
<svg width="652pt" height="104pt"
 viewBox="0.00 0.00 652.00 104.00" xmlns="http://www.w3.org/2000/svg" xmlns:xlink="http://www.w3.org/1999/xlink">
<g id="graph0" class="graph" transform="scale(1 1) rotate(0) translate(4 100)">
<title>hpd_httpd_response_vsendf</title>
<!-- Node1 -->
<g id="node1" class="node"><title>Node1</title>
<polygon fill="#bfbfbf" stroke="black" points="0,-33 0,-63 104,-63 104,-33 0,-33"/>
<text text-anchor="start" x="8" y="-51" font-family="Helvetica,sans-Serif" font-size="10.00">hpd_httpd_response</text>
<text text-anchor="middle" x="52" y="-40" font-family="Helvetica,sans-Serif" font-size="10.00">_vsendf</text>
</g>
<!-- Node2 -->
<g id="node2" class="node"><title>Node2</title>
<g id="a_node2"><a xlink:href="a00026.html#a38a5c180c63086c4c55a595ad3750cf1" target="_top" xlink:title="Send response to client. ">
<polygon fill="none" stroke="black" points="140,-33 140,-63 244,-63 244,-33 140,-33"/>
<text text-anchor="start" x="148" y="-51" font-family="Helvetica,sans-Serif" font-size="10.00">hpd_httpd_response</text>
<text text-anchor="middle" x="192" y="-40" font-family="Helvetica,sans-Serif" font-size="10.00">_sendf</text>
</a>
</g>
</g>
<!-- Node1&#45;&gt;Node2 -->
<g id="edge1" class="edge"><title>Node1&#45;&gt;Node2</title>
<path fill="none" stroke="midnightblue" d="M114.496,-48C122.872,-48 131.398,-48 139.571,-48"/>
<polygon fill="midnightblue" stroke="midnightblue" points="114.386,-44.5001 104.386,-48 114.386,-51.5001 114.386,-44.5001"/>
</g>
<!-- Node3 -->
<g id="node3" class="node"><title>Node3</title>
<g id="a_node3"><a xlink:href="a00047.html#a2eb873ac7e610c2dff8e49d216d3aff8" target="_top" xlink:title="handle_request">
<polygon fill="none" stroke="black" points="287.5,-76.5 287.5,-95.5 370.5,-95.5 370.5,-76.5 287.5,-76.5"/>
<text text-anchor="middle" x="329" y="-83.5" font-family="Helvetica,sans-Serif" font-size="10.00">handle_request</text>
</a>
</g>
</g>
<!-- Node2&#45;&gt;Node3 -->
<g id="edge2" class="edge"><title>Node2&#45;&gt;Node3</title>
<path fill="none" stroke="midnightblue" d="M253.969,-65.1616C267.742,-69.0386 281.882,-73.0186 294.065,-76.4478"/>
<polygon fill="midnightblue" stroke="midnightblue" points="254.612,-61.7067 244.038,-62.3662 252.715,-68.4448 254.612,-61.7067"/>
</g>
<!-- Node5 -->
<g id="node5" class="node"><title>Node5</title>
<g id="a_node5"><a xlink:href="a00034.html#ac0f2724b4617f1adb53492f1a57a4e4b" target="_top" xlink:title="rest_reply_devices">
<polygon fill="none" stroke="black" points="280,-38.5 280,-57.5 378,-57.5 378,-38.5 280,-38.5"/>
<text text-anchor="middle" x="329" y="-45.5" font-family="Helvetica,sans-Serif" font-size="10.00">rest_reply_devices</text>
</a>
</g>
</g>
<!-- Node2&#45;&gt;Node5 -->
<g id="edge4" class="edge"><title>Node2&#45;&gt;Node5</title>
<path fill="none" stroke="midnightblue" d="M254.277,-48C262.755,-48 271.365,-48 279.566,-48"/>
<polygon fill="midnightblue" stroke="midnightblue" points="254.038,-44.5001 244.038,-48 254.038,-51.5001 254.038,-44.5001"/>
</g>
<!-- Node8 -->
<g id="node8" class="node"><title>Node8</title>
<g id="a_node8"><a xlink:href="a00034.html#abddef3c3a26e983041c0a09be164cb1b" target="_top" xlink:title="rest_on_response">
<polygon fill="none" stroke="black" points="282,-0.5 282,-19.5 376,-19.5 376,-0.5 282,-0.5"/>
<text text-anchor="middle" x="329" y="-7.5" font-family="Helvetica,sans-Serif" font-size="10.00">rest_on_response</text>
</a>
</g>
</g>
<!-- Node2&#45;&gt;Node8 -->
<g id="edge7" class="edge"><title>Node2&#45;&gt;Node8</title>
<path fill="none" stroke="midnightblue" d="M253.969,-30.8384C267.742,-26.9614 281.882,-22.9814 294.065,-19.5522"/>
<polygon fill="midnightblue" stroke="midnightblue" points="252.715,-27.5552 244.038,-33.6338 254.612,-34.2933 252.715,-27.5552"/>
</g>
<!-- Node4 -->
<g id="node4" class="node"><title>Node4</title>
<g id="a_node4"><a xlink:href="a00047.html#a0ddf1224851353fc92bfbff6f499fa97" target="_top" xlink:title="main">
<polygon fill="none" stroke="black" points="451.5,-76.5 451.5,-95.5 489.5,-95.5 489.5,-76.5 451.5,-76.5"/>
<text text-anchor="middle" x="470.5" y="-83.5" font-family="Helvetica,sans-Serif" font-size="10.00">main</text>
</a>
</g>
</g>
<!-- Node3&#45;&gt;Node4 -->
<g id="edge3" class="edge"><title>Node3&#45;&gt;Node4</title>
<path fill="none" stroke="midnightblue" d="M381.021,-86C405.618,-86 433.571,-86 451.359,-86"/>
<polygon fill="midnightblue" stroke="midnightblue" points="380.724,-82.5001 370.724,-86 380.724,-89.5001 380.724,-82.5001"/>
</g>
<!-- Node6 -->
<g id="node6" class="node"><title>Node6</title>
<g id="a_node6"><a xlink:href="a00034.html#a2731aca6e6807e771bcf9c94dbec968c" target="_top" xlink:title="rest_on_req_hdr_cmpl">
<polygon fill="none" stroke="black" points="414,-38.5 414,-57.5 527,-57.5 527,-38.5 414,-38.5"/>
<text text-anchor="middle" x="470.5" y="-45.5" font-family="Helvetica,sans-Serif" font-size="10.00">rest_on_req_hdr_cmpl</text>
</a>
</g>
</g>
<!-- Node5&#45;&gt;Node6 -->
<g id="edge5" class="edge"><title>Node5&#45;&gt;Node6</title>
<path fill="none" stroke="midnightblue" d="M388.172,-48C396.627,-48 405.317,-48 413.724,-48"/>
<polygon fill="midnightblue" stroke="midnightblue" points="388.008,-44.5001 378.008,-48 388.008,-51.5001 388.008,-44.5001"/>
</g>
<!-- Node7 -->
<g id="node7" class="node"><title>Node7</title>
<g id="a_node7"><a xlink:href="a00034.html#a02090c3feb19ea4c6e1fa9b5e6392752" target="_top" xlink:title="rest_on_create">
<polygon fill="none" stroke="black" points="563,-19.5 563,-38.5 644,-38.5 644,-19.5 563,-19.5"/>
<text text-anchor="middle" x="603.5" y="-26.5" font-family="Helvetica,sans-Serif" font-size="10.00">rest_on_create</text>
</a>
</g>
</g>
<!-- Node6&#45;&gt;Node7 -->
<g id="edge6" class="edge"><title>Node6&#45;&gt;Node7</title>
<path fill="none" stroke="midnightblue" d="M536.963,-38.5053C545.769,-37.2282 554.575,-35.951 562.746,-34.7659"/>
<polygon fill="midnightblue" stroke="midnightblue" points="536.45,-35.0431 527.056,-39.9423 537.455,-41.9706 536.45,-35.0431"/>
</g>
<!-- Node9 -->
<g id="node9" class="node"><title>Node9</title>
<g id="a_node9"><a xlink:href="a00034.html#a1ef7ff8e866ae31ab0edb443eb4777a1" target="_top" xlink:title="rest_on_req_cmpl">
<polygon fill="none" stroke="black" points="423.5,-0.5 423.5,-19.5 517.5,-19.5 517.5,-0.5 423.5,-0.5"/>
<text text-anchor="middle" x="470.5" y="-7.5" font-family="Helvetica,sans-Serif" font-size="10.00">rest_on_req_cmpl</text>
</a>
</g>
</g>
<!-- Node8&#45;&gt;Node9 -->
<g id="edge8" class="edge"><title>Node8&#45;&gt;Node9</title>
<path fill="none" stroke="midnightblue" d="M386.274,-10C398.635,-10 411.583,-10 423.484,-10"/>
<polygon fill="midnightblue" stroke="midnightblue" points="386.064,-6.5001 376.064,-10 386.064,-13.5001 386.064,-6.5001"/>
</g>
<!-- Node9&#45;&gt;Node7 -->
<g id="edge9" class="edge"><title>Node9&#45;&gt;Node7</title>
<path fill="none" stroke="midnightblue" d="M527.881,-18.1773C539.644,-19.8834 551.807,-21.6475 562.812,-23.2438"/>
<polygon fill="midnightblue" stroke="midnightblue" points="528.085,-14.6704 517.686,-16.6987 527.08,-21.5979 528.085,-14.6704"/>
</g>
</g>
</svg>
