<?xml version="1.0" encoding="UTF-8" standalone="no"?>
<!DOCTYPE svg PUBLIC "-//W3C//DTD SVG 1.1//EN"
 "http://www.w3.org/Graphics/SVG/1.1/DTD/svg11.dtd">
<!-- Generated by graphviz version 2.38.0 (20140413.2041)
 -->
<!-- Title: hpd_free Pages: 1 -->
<svg width="240pt" height="28pt"
 viewBox="0.00 0.00 240.00 28.00" xmlns="http://www.w3.org/2000/svg" xmlns:xlink="http://www.w3.org/1999/xlink">
<g id="graph0" class="graph" transform="scale(1 1) rotate(0) translate(4 24)">
<title>hpd_free</title>
<!-- Node1 -->
<g id="node1" class="node"><title>Node1</title>
<polygon fill="#bfbfbf" stroke="black" points="0,-0.5 0,-19.5 54,-19.5 54,-0.5 0,-0.5"/>
<text text-anchor="middle" x="27" y="-7.5" font-family="Helvetica,sans-Serif" font-size="10.00">hpd_free</text>
</g>
<!-- Node2 -->
<g id="node2" class="node"><title>Node2</title>
<g id="a_node2"><a xlink:href="a00076.html#a05bbc5573fc67fa53c2765cf7e5b1920" target="_top" xlink:title="daemon_free">
<polygon fill="none" stroke="black" points="90,-0.5 90,-19.5 163,-19.5 163,-0.5 90,-0.5"/>
<text text-anchor="middle" x="126.5" y="-7.5" font-family="Helvetica,sans-Serif" font-size="10.00">daemon_free</text>
</a>
</g>
</g>
<!-- Node1&#45;&gt;Node2 -->
<g id="edge1" class="edge"><title>Node1&#45;&gt;Node2</title>
<path fill="none" stroke="midnightblue" d="M54.1282,-10C61.9935,-10 70.8683,-10 79.6194,-10"/>
<polygon fill="midnightblue" stroke="midnightblue" points="79.7677,-13.5001 89.7677,-10 79.7676,-6.5001 79.7677,-13.5001"/>
</g>
<!-- Node3 -->
<g id="node3" class="node"><title>Node3</title>
<g id="a_node3"><a xlink:href="a00012.html#adf46370d9c211c3be22966b4606ba9b0" target="_top" xlink:title="free">
<polygon fill="none" stroke="black" points="199,-0.5 199,-19.5 232,-19.5 232,-0.5 199,-0.5"/>
<text text-anchor="middle" x="215.5" y="-7.5" font-family="Helvetica,sans-Serif" font-size="10.00">free</text>
</a>
</g>
</g>
<!-- Node2&#45;&gt;Node3 -->
<g id="edge2" class="edge"><title>Node2&#45;&gt;Node3</title>
<path fill="none" stroke="midnightblue" d="M163.137,-10C171.654,-10 180.587,-10 188.571,-10"/>
<polygon fill="midnightblue" stroke="midnightblue" points="188.742,-13.5001 198.742,-10 188.742,-6.5001 188.742,-13.5001"/>
</g>
</g>
</svg>
