<?xml version="1.0" encoding="UTF-8" standalone="no"?>
<!DOCTYPE svg PUBLIC "-//W3C//DTD SVG 1.1//EN"
 "http://www.w3.org/Graphics/SVG/1.1/DTD/svg11.dtd">
<!-- Generated by graphviz version 2.38.0 (20140413.2041)
 -->
<!-- Title: reply_unsupported_media_type Pages: 1 -->
<svg width="904pt" height="253pt"
 viewBox="0.00 0.00 904.00 253.00" xmlns="http://www.w3.org/2000/svg" xmlns:xlink="http://www.w3.org/1999/xlink">
<g id="graph0" class="graph" transform="scale(1 1) rotate(0) translate(4 249)">
<title>reply_unsupported_media_type</title>
<!-- Node1 -->
<g id="node1" class="node"><title>Node1</title>
<polygon fill="#bfbfbf" stroke="black" points="0,-83 0,-102 152,-102 152,-83 0,-83"/>
<text text-anchor="middle" x="76" y="-90" font-family="Helvetica,sans-Serif" font-size="10.00">reply_unsupported_media_type</text>
</g>
<!-- Node2 -->
<g id="node2" class="node"><title>Node2</title>
<g id="a_node2"><a xlink:href="a00025.html#afb08e2b5fbac2394319e24be39ac931a" target="_top" xlink:title="reply">
<polygon fill="none" stroke="black" points="188,-83 188,-102 226,-102 226,-83 188,-83"/>
<text text-anchor="middle" x="207" y="-90" font-family="Helvetica,sans-Serif" font-size="10.00">reply</text>
</a>
</g>
</g>
<!-- Node1&#45;&gt;Node2 -->
<g id="edge1" class="edge"><title>Node1&#45;&gt;Node2</title>
<path fill="none" stroke="midnightblue" d="M152.04,-92.5C161.081,-92.5 169.839,-92.5 177.576,-92.5"/>
<polygon fill="midnightblue" stroke="midnightblue" points="177.757,-96.0001 187.757,-92.5 177.757,-89.0001 177.757,-96.0001"/>
</g>
<!-- Node3 -->
<g id="node3" class="node"><title>Node3</title>
<g id="a_node3"><a xlink:href="a00018.html#a3b100e8d7e1214067cf1b90ad577745c" target="_top" xlink:title="Create the reponse and constructs the status line. ">
<polygon fill="none" stroke="black" points="262,-110.5 262,-140.5 366,-140.5 366,-110.5 262,-110.5"/>
<text text-anchor="start" x="270" y="-128.5" font-family="Helvetica,sans-Serif" font-size="10.00">hpd_httpd_response</text>
<text text-anchor="middle" x="314" y="-117.5" font-family="Helvetica,sans-Serif" font-size="10.00">_create</text>
</a>
</g>
</g>
<!-- Node2&#45;&gt;Node3 -->
<g id="edge2" class="edge"><title>Node2&#45;&gt;Node3</title>
<path fill="none" stroke="midnightblue" d="M226.29,-98.2482C234.567,-100.85 244.854,-104.083 255.418,-107.403"/>
<polygon fill="midnightblue" stroke="midnightblue" points="254.558,-110.801 265.147,-110.461 256.657,-104.123 254.558,-110.801"/>
</g>
<!-- Node12 -->
<g id="node12" class="node"><title>Node12</title>
<g id="a_node12"><a xlink:href="a00018.html#a36a5feca39485163b3ef446c9e3171a3" target="_top" xlink:title="Destroy a hpd_httpd_response. ">
<polygon fill="none" stroke="black" points="421,-0.5 421,-30.5 525,-30.5 525,-0.5 421,-0.5"/>
<text text-anchor="start" x="429" y="-18.5" font-family="Helvetica,sans-Serif" font-size="10.00">hpd_httpd_response</text>
<text text-anchor="middle" x="473" y="-7.5" font-family="Helvetica,sans-Serif" font-size="10.00">_destroy</text>
</a>
</g>
</g>
<!-- Node2&#45;&gt;Node12 -->
<g id="edge12" class="edge"><title>Node2&#45;&gt;Node12</title>
<path fill="none" stroke="midnightblue" d="M226.146,-87.2075C263.665,-76.2643 351.265,-50.7143 411.094,-33.2642"/>
<polygon fill="midnightblue" stroke="midnightblue" points="412.195,-36.5892 420.814,-30.4291 410.234,-29.8692 412.195,-36.5892"/>
</g>
<!-- Node4 -->
<g id="node4" class="node"><title>Node4</title>
<g id="a_node4"><a xlink:href="a00016.html#a228cee03d1174febd4a716e0285542c2" target="_top" xlink:title="http_request_get_context">
<polygon fill="none" stroke="black" points="409.5,-176 409.5,-195 536.5,-195 536.5,-176 409.5,-176"/>
<text text-anchor="middle" x="473" y="-183" font-family="Helvetica,sans-Serif" font-size="10.00">http_request_get_context</text>
</a>
</g>
</g>
<!-- Node3&#45;&gt;Node4 -->
<g id="edge3" class="edge"><title>Node3&#45;&gt;Node4</title>
<path fill="none" stroke="midnightblue" d="M343.851,-140.66C360.533,-149.027 382.1,-159.174 402,-166.5 408.431,-168.867 415.291,-171.087 422.108,-173.114"/>
<polygon fill="midnightblue" stroke="midnightblue" points="421.431,-176.561 432.008,-175.942 423.354,-169.83 421.431,-176.561"/>
</g>
<!-- Node5 -->
<g id="node5" class="node"><title>Node5</title>
<g id="a_node5"><a xlink:href="a00017.html#a867d6248acd2a1ad498594ec818cb718" target="_top" xlink:title="Convert a status code to string. ">
<polygon fill="none" stroke="black" points="409.5,-138 409.5,-157 536.5,-157 536.5,-138 409.5,-138"/>
<text text-anchor="middle" x="473" y="-145" font-family="Helvetica,sans-Serif" font-size="10.00">http_status_codes_to_str</text>
</a>
</g>
</g>
<!-- Node3&#45;&gt;Node5 -->
<g id="edge4" class="edge"><title>Node3&#45;&gt;Node5</title>
<path fill="none" stroke="midnightblue" d="M366.408,-132.704C376.883,-134.172 388.093,-135.742 399.152,-137.292"/>
<polygon fill="midnightblue" stroke="midnightblue" points="398.852,-140.784 409.241,-138.706 399.823,-133.852 398.852,-140.784"/>
</g>
<!-- Node6 -->
<g id="node6" class="node"><title>Node6</title>
<g id="a_node6"><a xlink:href="a00017.html#a36a5feca39485163b3ef446c9e3171a3" target="_top" xlink:title="Destroy a hpd_httpd_response. ">
<polygon fill="none" stroke="black" points="421,-88.5 421,-118.5 525,-118.5 525,-88.5 421,-88.5"/>
<text text-anchor="start" x="429" y="-106.5" font-family="Helvetica,sans-Serif" font-size="10.00">hpd_httpd_response</text>
<text text-anchor="middle" x="473" y="-95.5" font-family="Helvetica,sans-Serif" font-size="10.00">_destroy</text>
</a>
</g>
</g>
<!-- Node3&#45;&gt;Node6 -->
<g id="edge5" class="edge"><title>Node3&#45;&gt;Node6</title>
<path fill="none" stroke="midnightblue" d="M366.408,-118.296C380.577,-116.311 396.088,-114.137 410.754,-112.082"/>
<polygon fill="midnightblue" stroke="midnightblue" points="411.328,-115.536 420.745,-110.682 410.356,-108.604 411.328,-115.536"/>
</g>
<!-- Node10 -->
<g id="node10" class="node"><title>Node10</title>
<g id="a_node10"><a xlink:href="a00016.html#a1568fdba259271965551fb5aa1f07006" target="_top" xlink:title="Get the connection of a request. ">
<polygon fill="none" stroke="black" points="402,-50 402,-69 544,-69 544,-50 402,-50"/>
<text text-anchor="middle" x="473" y="-57" font-family="Helvetica,sans-Serif" font-size="10.00">http_request_get_connection</text>
</a>
</g>
</g>
<!-- Node3&#45;&gt;Node10 -->
<g id="edge10" class="edge"><title>Node3&#45;&gt;Node10</title>
<path fill="none" stroke="midnightblue" d="M340.216,-110.368C357.235,-100.61 380.441,-88.1692 402,-79.5 408.772,-76.7768 416.051,-74.2645 423.263,-72.0064"/>
<polygon fill="midnightblue" stroke="midnightblue" points="424.428,-75.3112 433.004,-69.089 422.42,-68.6055 424.428,-75.3112"/>
</g>
<!-- Node11 -->
<g id="node11" class="node"><title>Node11</title>
<g id="a_node11"><a xlink:href="a00017.html#a3aabea0eb8be381d54ece47fa1fd6a75" target="_top" xlink:title="Add header to a response. ">
<polygon fill="none" stroke="black" points="421,-214.5 421,-244.5 525,-244.5 525,-214.5 421,-214.5"/>
<text text-anchor="start" x="429" y="-232.5" font-family="Helvetica,sans-Serif" font-size="10.00">hpd_httpd_response</text>
<text text-anchor="middle" x="473" y="-221.5" font-family="Helvetica,sans-Serif" font-size="10.00">_add_header</text>
</a>
</g>
</g>
<!-- Node3&#45;&gt;Node11 -->
<g id="edge11" class="edge"><title>Node3&#45;&gt;Node11</title>
<path fill="none" stroke="midnightblue" d="M328.069,-140.527C343.986,-158.02 372.429,-186.769 402,-204.5 405.389,-206.532 408.97,-208.436 412.647,-210.213"/>
<polygon fill="midnightblue" stroke="midnightblue" points="411.375,-213.478 421.932,-214.37 414.235,-207.09 411.375,-213.478"/>
</g>
<!-- Node7 -->
<g id="node7" class="node"><title>Node7</title>
<g id="a_node7"><a xlink:href="a00029.html#a494a1841a6c8963c10f5d3a6b662f014" target="_top" xlink:title="Close a connection, after the remaining data has been sent. ">
<polygon fill="none" stroke="black" points="580,-53 580,-72 691,-72 691,-53 580,-53"/>
<text text-anchor="middle" x="635.5" y="-60" font-family="Helvetica,sans-Serif" font-size="10.00">hpd_tcpd_conn_close</text>
</a>
</g>
</g>
<!-- Node6&#45;&gt;Node7 -->
<g id="edge6" class="edge"><title>Node6&#45;&gt;Node7</title>
<path fill="none" stroke="midnightblue" d="M525.224,-90.4146C545.146,-85.3257 567.825,-79.5322 587.34,-74.5471"/>
<polygon fill="midnightblue" stroke="midnightblue" points="588.402,-77.8882 597.225,-72.022 586.67,-71.106 588.402,-77.8882"/>
</g>
<!-- Node9 -->
<g id="node9" class="node"><title>Node9</title>
<g id="a_node9"><a xlink:href="a00006.html#adf46370d9c211c3be22966b4606ba9b0" target="_top" xlink:title="free">
<polygon fill="none" stroke="black" points="863,-53 863,-72 896,-72 896,-53 863,-53"/>
<text text-anchor="middle" x="879.5" y="-60" font-family="Helvetica,sans-Serif" font-size="10.00">free</text>
</a>
</g>
</g>
<!-- Node6&#45;&gt;Node9 -->
<g id="edge9" class="edge"><title>Node6&#45;&gt;Node9</title>
<path fill="none" stroke="midnightblue" d="M525.188,-104.935C594.423,-105.83 721.406,-103.768 827,-81.5 835.751,-79.6546 845.007,-76.6089 853.221,-73.491"/>
<polygon fill="midnightblue" stroke="midnightblue" points="854.638,-76.6939 862.62,-69.7278 852.036,-70.1954 854.638,-76.6939"/>
</g>
<!-- Node8 -->
<g id="node8" class="node"><title>Node8</title>
<g id="a_node8"><a xlink:href="a00045.html#a58068e1a4c60b401bc6fc99c25e9a3f6" target="_top" xlink:title="Kill and clean up after a connection. ">
<polygon fill="none" stroke="black" points="727,-53 727,-72 827,-72 827,-53 727,-53"/>
<text text-anchor="middle" x="777" y="-60" font-family="Helvetica,sans-Serif" font-size="10.00">hpd_tcpd_conn_kill</text>
</a>
</g>
</g>
<!-- Node7&#45;&gt;Node8 -->
<g id="edge7" class="edge"><title>Node7&#45;&gt;Node8</title>
<path fill="none" stroke="midnightblue" d="M691.234,-62.5C699.591,-62.5 708.25,-62.5 716.7,-62.5"/>
<polygon fill="midnightblue" stroke="midnightblue" points="716.868,-66.0001 726.868,-62.5 716.868,-59.0001 716.868,-66.0001"/>
</g>
<!-- Node8&#45;&gt;Node9 -->
<g id="edge8" class="edge"><title>Node8&#45;&gt;Node9</title>
<path fill="none" stroke="midnightblue" d="M827.072,-62.5C835.878,-62.5 844.731,-62.5 852.551,-62.5"/>
<polygon fill="midnightblue" stroke="midnightblue" points="852.804,-66.0001 862.804,-62.5 852.804,-59.0001 852.804,-66.0001"/>
</g>
<!-- Node12&#45;&gt;Node7 -->
<g id="edge13" class="edge"><title>Node12&#45;&gt;Node7</title>
<path fill="none" stroke="midnightblue" d="M525.224,-30.5003C546.827,-36.8262 571.672,-44.1017 592.208,-50.1154"/>
<polygon fill="midnightblue" stroke="midnightblue" points="591.33,-53.5051 601.91,-52.9566 593.297,-46.7872 591.33,-53.5051"/>
</g>
<!-- Node12&#45;&gt;Node9 -->
<g id="edge14" class="edge"><title>Node12&#45;&gt;Node9</title>
<path fill="none" stroke="midnightblue" d="M525.207,-15.1934C594.465,-15.7652 721.471,-20.3117 827,-43.5 835.735,-45.4194 844.986,-48.4847 853.202,-51.598"/>
<polygon fill="midnightblue" stroke="midnightblue" points="852.019,-54.8944 862.605,-55.3454 854.611,-48.3918 852.019,-54.8944"/>
</g>
</g>
</svg>
