<?xml version="1.0" encoding="UTF-8" standalone="no"?>
<!DOCTYPE svg PUBLIC "-//W3C//DTD SVG 1.1//EN"
 "http://www.w3.org/Graphics/SVG/1.1/DTD/svg11.dtd">
<!-- Generated by graphviz version 2.38.0 (20140413.2041)
 -->
<!-- Title: hpd_listener_set_data Pages: 1 -->
<svg width="1314pt" height="345pt"
 viewBox="0.00 0.00 1314.00 345.40" xmlns="http://www.w3.org/2000/svg" xmlns:xlink="http://www.w3.org/1999/xlink">
<g id="graph0" class="graph" transform="scale(1 1) rotate(0) translate(4 341.403)">
<title>hpd_listener_set_data</title>
<!-- Node1 -->
<g id="node1" class="node"><title>Node1</title>
<polygon fill="#bfbfbf" stroke="black" points="0,-54.4029 0,-73.4029 112,-73.4029 112,-54.4029 0,-54.4029"/>
<text text-anchor="middle" x="56" y="-61.4029" font-family="Helvetica,sans-Serif" font-size="10.00">hpd_listener_set_data</text>
</g>
<!-- Node2 -->
<g id="node2" class="node"><title>Node2</title>
<g id="a_node2"><a xlink:href="a00066.html#a89ff40606fb6eb1f5a0969a5b65ead1d" target="_top" xlink:title="event_set_listener_data">
<polygon fill="none" stroke="black" points="148,-54.4029 148,-73.4029 268,-73.4029 268,-54.4029 148,-54.4029"/>
<text text-anchor="middle" x="208" y="-61.4029" font-family="Helvetica,sans-Serif" font-size="10.00">event_set_listener_data</text>
</a>
</g>
</g>
<!-- Node1&#45;&gt;Node2 -->
<g id="edge1" class="edge"><title>Node1&#45;&gt;Node2</title>
<path fill="none" stroke="midnightblue" d="M112.003,-63.9029C120.416,-63.9029 129.192,-63.9029 137.863,-63.9029"/>
<polygon fill="midnightblue" stroke="midnightblue" points="137.965,-67.403 147.965,-63.9029 137.965,-60.403 137.965,-67.403"/>
</g>
<!-- Node3 -->
<g id="node3" class="node"><title>Node3</title>
<g id="a_node3"><a xlink:href="a00025.html#a65f3fe01ba50f1473cad1a4418cfdf09" target="_top" xlink:title="on_free">
<polygon fill="none" stroke="black" points="304,-54.4029 304,-73.4029 353,-73.4029 353,-54.4029 304,-54.4029"/>
<text text-anchor="middle" x="328.5" y="-61.4029" font-family="Helvetica,sans-Serif" font-size="10.00">on_free</text>
</a>
</g>
</g>
<!-- Node2&#45;&gt;Node3 -->
<g id="edge2" class="edge"><title>Node2&#45;&gt;Node3</title>
<path fill="none" stroke="midnightblue" d="M268.25,-63.9029C277.021,-63.9029 285.791,-63.9029 293.793,-63.9029"/>
<polygon fill="midnightblue" stroke="midnightblue" points="293.805,-67.403 303.805,-63.9029 293.805,-60.403 293.805,-67.403"/>
</g>
<!-- Node4 -->
<g id="node4" class="node"><title>Node4</title>
<g id="a_node4"><a xlink:href="a00025.html#a78818d54ff3643716564aad97c70c7e2" target="_top" xlink:title="reply_internal_server\l_error">
<polygon fill="none" stroke="black" points="389,-92.9029 389,-122.903 496,-122.903 496,-92.9029 389,-92.9029"/>
<text text-anchor="start" x="397" y="-110.903" font-family="Helvetica,sans-Serif" font-size="10.00">reply_internal_server</text>
<text text-anchor="middle" x="442.5" y="-99.9029" font-family="Helvetica,sans-Serif" font-size="10.00">_error</text>
</a>
</g>
</g>
<!-- Node3&#45;&gt;Node4 -->
<g id="edge3" class="edge"><title>Node3&#45;&gt;Node4</title>
<path fill="none" stroke="midnightblue" d="M353.252,-73.2341C365.043,-77.8663 379.728,-83.6351 393.713,-89.1295"/>
<polygon fill="midnightblue" stroke="midnightblue" points="392.653,-92.4732 403.24,-92.8721 395.212,-85.9579 392.653,-92.4732"/>
</g>
<!-- Node12 -->
<g id="node12" class="node"><title>Node12</title>
<g id="a_node12"><a xlink:href="a00006.html#adf46370d9c211c3be22966b4606ba9b0" target="_top" xlink:title="free">
<polygon fill="none" stroke="black" points="1273,-95.4029 1273,-114.403 1306,-114.403 1306,-95.4029 1273,-95.4029"/>
<text text-anchor="middle" x="1289.5" y="-102.403" font-family="Helvetica,sans-Serif" font-size="10.00">free</text>
</a>
</g>
</g>
<!-- Node3&#45;&gt;Node12 -->
<g id="edge21" class="edge"><title>Node3&#45;&gt;Node12</title>
<path fill="none" stroke="midnightblue" d="M353.266,-63.9029C398.156,-63.9029 498.5,-63.9029 583,-63.9029 583,-63.9029 583,-63.9029 1046.5,-63.9029 1126.41,-63.9029 1219.11,-85.9057 1262.98,-97.6743"/>
<polygon fill="midnightblue" stroke="midnightblue" points="1262.23,-101.098 1272.8,-100.359 1264.08,-94.3456 1262.23,-101.098"/>
</g>
<!-- Node16 -->
<g id="node16" class="node"><title>Node16</title>
<g id="a_node16"><a xlink:href="a00060.html#a19ce779c8a8a82fcb624cd7631eaee20" target="_top" xlink:title="hpd_service_id_free">
<polygon fill="none" stroke="black" points="532,-16.4029 532,-35.4029 636,-35.4029 636,-16.4029 532,-16.4029"/>
<text text-anchor="middle" x="584" y="-23.4029" font-family="Helvetica,sans-Serif" font-size="10.00">hpd_service_id_free</text>
</a>
</g>
</g>
<!-- Node3&#45;&gt;Node16 -->
<g id="edge18" class="edge"><title>Node3&#45;&gt;Node16</title>
<path fill="none" stroke="midnightblue" d="M353.119,-57.7262C363.99,-55.0434 377.092,-52.034 389,-49.9029 433.159,-42 483.44,-35.8595 521.746,-31.7685"/>
<polygon fill="midnightblue" stroke="midnightblue" points="522.136,-35.2469 531.716,-30.7211 521.405,-28.2852 522.136,-35.2469"/>
</g>
<!-- Node5 -->
<g id="node5" class="node"><title>Node5</title>
<g id="a_node5"><a xlink:href="a00025.html#afb08e2b5fbac2394319e24be39ac931a" target="_top" xlink:title="reply">
<polygon fill="none" stroke="black" points="565,-98.4029 565,-117.403 603,-117.403 603,-98.4029 565,-98.4029"/>
<text text-anchor="middle" x="584" y="-105.403" font-family="Helvetica,sans-Serif" font-size="10.00">reply</text>
</a>
</g>
</g>
<!-- Node4&#45;&gt;Node5 -->
<g id="edge4" class="edge"><title>Node4&#45;&gt;Node5</title>
<path fill="none" stroke="midnightblue" d="M496.239,-107.903C516.113,-107.903 537.949,-107.903 554.743,-107.903"/>
<polygon fill="midnightblue" stroke="midnightblue" points="554.979,-111.403 564.979,-107.903 554.979,-104.403 554.979,-111.403"/>
</g>
<!-- Node6 -->
<g id="node6" class="node"><title>Node6</title>
<g id="a_node6"><a xlink:href="a00018.html#a3b100e8d7e1214067cf1b90ad577745c" target="_top" xlink:title="Create the reponse and constructs the status line. ">
<polygon fill="none" stroke="black" points="672,-196.903 672,-226.903 776,-226.903 776,-196.903 672,-196.903"/>
<text text-anchor="start" x="680" y="-214.903" font-family="Helvetica,sans-Serif" font-size="10.00">hpd_httpd_response</text>
<text text-anchor="middle" x="724" y="-203.903" font-family="Helvetica,sans-Serif" font-size="10.00">_create</text>
</a>
</g>
</g>
<!-- Node5&#45;&gt;Node6 -->
<g id="edge5" class="edge"><title>Node5&#45;&gt;Node6</title>
<path fill="none" stroke="midnightblue" d="M597.735,-117.501C619.598,-133.977 664.78,-168.027 694.48,-190.41"/>
<polygon fill="midnightblue" stroke="midnightblue" points="692.693,-193.446 702.786,-196.669 696.906,-187.855 692.693,-193.446"/>
</g>
<!-- Node15 -->
<g id="node15" class="node"><title>Node15</title>
<g id="a_node15"><a xlink:href="a00018.html#a36a5feca39485163b3ef446c9e3171a3" target="_top" xlink:title="Destroy a hpd_httpd_response. ">
<polygon fill="none" stroke="black" points="831,-92.9029 831,-122.903 935,-122.903 935,-92.9029 831,-92.9029"/>
<text text-anchor="start" x="839" y="-110.903" font-family="Helvetica,sans-Serif" font-size="10.00">hpd_httpd_response</text>
<text text-anchor="middle" x="883" y="-99.9029" font-family="Helvetica,sans-Serif" font-size="10.00">_destroy</text>
</a>
</g>
</g>
<!-- Node5&#45;&gt;Node15 -->
<g id="edge15" class="edge"><title>Node5&#45;&gt;Node15</title>
<path fill="none" stroke="midnightblue" d="M603.132,-107.903C645.419,-107.903 752.173,-107.903 820.654,-107.903"/>
<polygon fill="midnightblue" stroke="midnightblue" points="820.885,-111.403 830.884,-107.903 820.884,-104.403 820.885,-111.403"/>
</g>
<!-- Node7 -->
<g id="node7" class="node"><title>Node7</title>
<g id="a_node7"><a xlink:href="a00016.html#a228cee03d1174febd4a716e0285542c2" target="_top" xlink:title="http_request_get_context">
<polygon fill="none" stroke="black" points="819.5,-180.403 819.5,-199.403 946.5,-199.403 946.5,-180.403 819.5,-180.403"/>
<text text-anchor="middle" x="883" y="-187.403" font-family="Helvetica,sans-Serif" font-size="10.00">http_request_get_context</text>
</a>
</g>
</g>
<!-- Node6&#45;&gt;Node7 -->
<g id="edge6" class="edge"><title>Node6&#45;&gt;Node7</title>
<path fill="none" stroke="midnightblue" d="M776.408,-204.699C786.883,-203.231 798.093,-201.661 809.152,-200.111"/>
<polygon fill="midnightblue" stroke="midnightblue" points="809.823,-203.551 819.241,-198.697 808.852,-196.619 809.823,-203.551"/>
</g>
<!-- Node8 -->
<g id="node8" class="node"><title>Node8</title>
<g id="a_node8"><a xlink:href="a00017.html#a867d6248acd2a1ad498594ec818cb718" target="_top" xlink:title="Convert a status code to string. ">
<polygon fill="none" stroke="black" points="819.5,-142.403 819.5,-161.403 946.5,-161.403 946.5,-142.403 819.5,-142.403"/>
<text text-anchor="middle" x="883" y="-149.403" font-family="Helvetica,sans-Serif" font-size="10.00">http_status_codes_to_str</text>
</a>
</g>
</g>
<!-- Node6&#45;&gt;Node8 -->
<g id="edge7" class="edge"><title>Node6&#45;&gt;Node8</title>
<path fill="none" stroke="midnightblue" d="M753.851,-196.743C770.533,-188.376 792.1,-178.228 812,-170.903 818.431,-168.535 825.291,-166.316 832.108,-164.288"/>
<polygon fill="midnightblue" stroke="midnightblue" points="833.354,-167.573 842.008,-161.46 831.431,-160.842 833.354,-167.573"/>
</g>
<!-- Node9 -->
<g id="node9" class="node"><title>Node9</title>
<g id="a_node9"><a xlink:href="a00017.html#a36a5feca39485163b3ef446c9e3171a3" target="_top" xlink:title="Destroy a hpd_httpd_response. ">
<polygon fill="none" stroke="black" points="831,-306.903 831,-336.903 935,-336.903 935,-306.903 831,-306.903"/>
<text text-anchor="start" x="839" y="-324.903" font-family="Helvetica,sans-Serif" font-size="10.00">hpd_httpd_response</text>
<text text-anchor="middle" x="883" y="-313.903" font-family="Helvetica,sans-Serif" font-size="10.00">_destroy</text>
</a>
</g>
</g>
<!-- Node6&#45;&gt;Node9 -->
<g id="edge8" class="edge"><title>Node6&#45;&gt;Node9</title>
<path fill="none" stroke="midnightblue" d="M737.004,-227.136C752.512,-245.904 781.197,-277.659 812,-296.903 815.198,-298.901 818.578,-300.768 822.056,-302.509"/>
<polygon fill="midnightblue" stroke="midnightblue" points="820.89,-305.825 831.437,-306.824 823.815,-299.465 820.89,-305.825"/>
</g>
<!-- Node13 -->
<g id="node13" class="node"><title>Node13</title>
<g id="a_node13"><a xlink:href="a00016.html#a1568fdba259271965551fb5aa1f07006" target="_top" xlink:title="Get the connection of a request. ">
<polygon fill="none" stroke="black" points="812,-268.403 812,-287.403 954,-287.403 954,-268.403 812,-268.403"/>
<text text-anchor="middle" x="883" y="-275.403" font-family="Helvetica,sans-Serif" font-size="10.00">http_request_get_connection</text>
</a>
</g>
</g>
<!-- Node6&#45;&gt;Node13 -->
<g id="edge13" class="edge"><title>Node6&#45;&gt;Node13</title>
<path fill="none" stroke="midnightblue" d="M749.391,-227.051C766.438,-237.141 790.001,-250.112 812,-258.903 817.909,-261.264 824.212,-263.434 830.524,-265.395"/>
<polygon fill="midnightblue" stroke="midnightblue" points="829.814,-268.834 840.395,-268.303 831.792,-262.119 829.814,-268.834"/>
</g>
<!-- Node14 -->
<g id="node14" class="node"><title>Node14</title>
<g id="a_node14"><a xlink:href="a00017.html#a3aabea0eb8be381d54ece47fa1fd6a75" target="_top" xlink:title="Add header to a response. ">
<polygon fill="none" stroke="black" points="831,-218.903 831,-248.903 935,-248.903 935,-218.903 831,-218.903"/>
<text text-anchor="start" x="839" y="-236.903" font-family="Helvetica,sans-Serif" font-size="10.00">hpd_httpd_response</text>
<text text-anchor="middle" x="883" y="-225.903" font-family="Helvetica,sans-Serif" font-size="10.00">_add_header</text>
</a>
</g>
</g>
<!-- Node6&#45;&gt;Node14 -->
<g id="edge14" class="edge"><title>Node6&#45;&gt;Node14</title>
<path fill="none" stroke="midnightblue" d="M776.408,-219.106C790.577,-221.092 806.088,-223.265 820.754,-225.321"/>
<polygon fill="midnightblue" stroke="midnightblue" points="820.356,-228.799 830.745,-226.721 821.328,-221.867 820.356,-228.799"/>
</g>
<!-- Node10 -->
<g id="node10" class="node"><title>Node10</title>
<g id="a_node10"><a xlink:href="a00029.html#a494a1841a6c8963c10f5d3a6b662f014" target="_top" xlink:title="Close a connection, after the remaining data has been sent. ">
<polygon fill="none" stroke="black" points="990,-133.403 990,-152.403 1101,-152.403 1101,-133.403 990,-133.403"/>
<text text-anchor="middle" x="1045.5" y="-140.403" font-family="Helvetica,sans-Serif" font-size="10.00">hpd_tcpd_conn_close</text>
</a>
</g>
</g>
<!-- Node9&#45;&gt;Node10 -->
<g id="edge9" class="edge"><title>Node9&#45;&gt;Node10</title>
<path fill="none" stroke="midnightblue" d="M935.222,-308.404C941.951,-305.298 948.432,-301.51 954,-296.903 955.497,-295.664 1010.15,-201.928 1033.78,-161.322"/>
<polygon fill="midnightblue" stroke="midnightblue" points="1036.95,-162.846 1038.95,-152.443 1030.9,-159.325 1036.95,-162.846"/>
</g>
<!-- Node9&#45;&gt;Node12 -->
<g id="edge12" class="edge"><title>Node9&#45;&gt;Node12</title>
<path fill="none" stroke="midnightblue" d="M934.086,-306.819C1005.95,-283.569 1140.3,-233.986 1237,-161.903 1251.97,-150.743 1265.97,-134.739 1275.58,-122.529"/>
<polygon fill="midnightblue" stroke="midnightblue" points="1278.48,-124.506 1281.76,-114.432 1272.91,-120.261 1278.48,-124.506"/>
</g>
<!-- Node11 -->
<g id="node11" class="node"><title>Node11</title>
<g id="a_node11"><a xlink:href="a00049.html#a58068e1a4c60b401bc6fc99c25e9a3f6" target="_top" xlink:title="Kill and clean up after a connection. ">
<polygon fill="none" stroke="black" points="1137,-133.403 1137,-152.403 1237,-152.403 1237,-133.403 1137,-133.403"/>
<text text-anchor="middle" x="1187" y="-140.403" font-family="Helvetica,sans-Serif" font-size="10.00">hpd_tcpd_conn_kill</text>
</a>
</g>
</g>
<!-- Node10&#45;&gt;Node11 -->
<g id="edge10" class="edge"><title>Node10&#45;&gt;Node11</title>
<path fill="none" stroke="midnightblue" d="M1101.23,-142.903C1109.59,-142.903 1118.25,-142.903 1126.7,-142.903"/>
<polygon fill="midnightblue" stroke="midnightblue" points="1126.87,-146.403 1136.87,-142.903 1126.87,-139.403 1126.87,-146.403"/>
</g>
<!-- Node11&#45;&gt;Node12 -->
<g id="edge11" class="edge"><title>Node11&#45;&gt;Node12</title>
<path fill="none" stroke="midnightblue" d="M1213.36,-133.314C1228.57,-127.562 1247.86,-120.27 1263.08,-114.514"/>
<polygon fill="midnightblue" stroke="midnightblue" points="1264.76,-117.622 1272.87,-110.812 1262.28,-111.075 1264.76,-117.622"/>
</g>
<!-- Node15&#45;&gt;Node10 -->
<g id="edge16" class="edge"><title>Node15&#45;&gt;Node10</title>
<path fill="none" stroke="midnightblue" d="M935.224,-119.073C952.946,-122.938 972.849,-127.278 990.766,-131.185"/>
<polygon fill="midnightblue" stroke="midnightblue" points="990.254,-134.656 1000.77,-133.367 991.746,-127.816 990.254,-134.656"/>
</g>
<!-- Node15&#45;&gt;Node12 -->
<g id="edge17" class="edge"><title>Node15&#45;&gt;Node12</title>
<path fill="none" stroke="midnightblue" d="M935.23,-107.523C1022.45,-106.876 1196.72,-105.584 1262.53,-105.095"/>
<polygon fill="midnightblue" stroke="midnightblue" points="1262.85,-108.593 1272.83,-105.019 1262.8,-101.593 1262.85,-108.593"/>
</g>
<!-- Node17 -->
<g id="node17" class="node"><title>Node17</title>
<g id="a_node17"><a xlink:href="a00011.html#a8922de7d42124afa8ab5fd339fe695ee" target="_top" xlink:title="discovery_free_sid">
<polygon fill="none" stroke="black" points="675,-16.4029 675,-35.4029 773,-35.4029 773,-16.4029 675,-16.4029"/>
<text text-anchor="middle" x="724" y="-23.4029" font-family="Helvetica,sans-Serif" font-size="10.00">discovery_free_sid</text>
</a>
</g>
</g>
<!-- Node16&#45;&gt;Node17 -->
<g id="edge19" class="edge"><title>Node16&#45;&gt;Node17</title>
<path fill="none" stroke="midnightblue" d="M636.386,-25.9029C645.615,-25.9029 655.295,-25.9029 664.703,-25.9029"/>
<polygon fill="midnightblue" stroke="midnightblue" points="664.771,-29.403 674.771,-25.9029 664.771,-22.403 664.771,-29.403"/>
</g>
<!-- Node17&#45;&gt;Node12 -->
<g id="edge20" class="edge"><title>Node17&#45;&gt;Node12</title>
<path fill="none" stroke="midnightblue" d="M773.332,-16.65C867.6,-1.00779 1080.47,22.3691 1237,-49.9029 1253.82,-57.6687 1267.79,-73.6751 1276.92,-86.4276"/>
<polygon fill="midnightblue" stroke="midnightblue" points="1274.19,-88.6383 1282.68,-94.9739 1279.99,-84.7255 1274.19,-88.6383"/>
</g>
</g>
</svg>
