<?xml version="1.0" encoding="UTF-8" standalone="no"?>
<!DOCTYPE svg PUBLIC "-//W3C//DTD SVG 1.1//EN"
 "http://www.w3.org/Graphics/SVG/1.1/DTD/svg11.dtd">
<!-- Generated by graphviz version 2.38.0 (20140413.2041)
 -->
<!-- Title: discovery_alloc_device Pages: 1 -->
<svg width="414pt" height="28pt"
 viewBox="0.00 0.00 414.00 28.00" xmlns="http://www.w3.org/2000/svg" xmlns:xlink="http://www.w3.org/1999/xlink">
<g id="graph0" class="graph" transform="scale(1 1) rotate(0) translate(4 24)">
<title>discovery_alloc_device</title>
<!-- Node1 -->
<g id="node1" class="node"><title>Node1</title>
<polygon fill="#bfbfbf" stroke="black" points="0,-0.5 0,-19.5 118,-19.5 118,-0.5 0,-0.5"/>
<text text-anchor="middle" x="59" y="-7.5" font-family="Helvetica,sans-Serif" font-size="10.00">discovery_alloc_device</text>
</g>
<!-- Node2 -->
<g id="node2" class="node"><title>Node2</title>
<g id="a_node2"><a xlink:href="a00064.html#a10a4b84cc7128e1900008dc1de4653a2" target="_top" xlink:title="A note on reusing IDs: An other module or remote client may have outstanding references to the old ID...">
<polygon fill="none" stroke="black" points="154,-0.5 154,-19.5 246,-19.5 246,-0.5 154,-0.5"/>
<text text-anchor="middle" x="200" y="-7.5" font-family="Helvetica,sans-Serif" font-size="10.00">hpd_device_alloc</text>
</a>
</g>
</g>
<!-- Node1&#45;&gt;Node2 -->
<g id="edge1" class="edge"><title>Node1&#45;&gt;Node2</title>
<path fill="none" stroke="midnightblue" d="M128.262,-10C136.92,-10 145.603,-10 153.775,-10"/>
<polygon fill="midnightblue" stroke="midnightblue" points="128.143,-6.5001 118.143,-10 128.143,-13.5001 128.143,-6.5001"/>
</g>
<!-- Node3 -->
<g id="node3" class="node"><title>Node3</title>
<g id="a_node3"><a xlink:href="a00012.html#a723fb54ea3963ea674c9830e41a40e00" target="_top" xlink:title="hpd_demo_adapter_start">
<polygon fill="none" stroke="black" points="282,-0.5 282,-19.5 406,-19.5 406,-0.5 282,-0.5"/>
<text text-anchor="middle" x="344" y="-7.5" font-family="Helvetica,sans-Serif" font-size="10.00">hpd_demo_adapter_start</text>
</a>
</g>
</g>
<!-- Node2&#45;&gt;Node3 -->
<g id="edge2" class="edge"><title>Node2&#45;&gt;Node3</title>
<path fill="none" stroke="midnightblue" d="M256.321,-10C264.671,-10 273.326,-10 281.792,-10"/>
<polygon fill="midnightblue" stroke="midnightblue" points="256.32,-6.5001 246.32,-10 256.32,-13.5001 256.32,-6.5001"/>
</g>
</g>
</svg>
