<?xml version="1.0" encoding="UTF-8" standalone="no"?>
<!DOCTYPE svg PUBLIC "-//W3C//DTD SVG 1.1//EN"
 "http://www.w3.org/Graphics/SVG/1.1/DTD/svg11.dtd">
<!-- Generated by graphviz version 2.38.0 (20140413.2041)
 -->
<!-- Title: discovery_free_service Pages: 1 -->
<!--zoomable 199 -->
<svg id="main" version="1.1" xmlns="http://www.w3.org/2000/svg" xmlns:xlink="http://www.w3.org/1999/xlink" xml:space="preserve" onload="init(evt)">
<style type="text/css"><![CDATA[
.edge:hover path { stroke: red; }
.edge:hover polygon { stroke: red; fill: red; }
]]></style>
<script type="text/javascript"><![CDATA[
var edges = document.getElementsByTagName('g');
if (edges && edges.length) {
  for (var i=0;i<edges.length;i++) {
    if (edges[i].id.substr(0,4)=='edge') {
      edges[i].setAttribute('class','edge');
    }
  }
}
]]></script>
        <defs>
                <circle id="rim" cx="0" cy="0" r="7"/>
                <circle id="rim2" cx="0" cy="0" r="3.5"/>
                <g id="zoomPlus">
                        <use xlink:href="#rim" fill="#404040">
                                <set attributeName="fill" to="#808080" begin="zoomplus.mouseover" end="zoomplus.mouseout"/>
                        </use>
                        <path d="M-4,0h8M0,-4v8" fill="none" stroke="white" stroke-width="1.5" pointer-events="none"/>
                </g>
                <g id="zoomMin">
                        <use xlink:href="#rim" fill="#404040">
                                <set attributeName="fill" to="#808080" begin="zoomminus.mouseover" end="zoomminus.mouseout"/>
                        </use>
                        <path d="M-4,0h8" fill="none" stroke="white" stroke-width="1.5" pointer-events="none"/>
                </g>
                <g id="dirArrow">
                        <path fill="none" stroke="white" stroke-width="1.5" d="M0,-3.0v7 M-2.5,-0.5L0,-3.0L2.5,-0.5"/>
                </g>
               <g id="resetDef">
                       <use xlink:href="#rim2" fill="#404040">
                               <set attributeName="fill" to="#808080" begin="reset.mouseover" end="reset.mouseout"/>
                       </use>
               </g>
        </defs>

<script type="text/javascript">
var viewWidth = 991;
var viewHeight = 199;
var sectionId = 'dynsection-46';
</script>
<script xlink:href="svgpan.js"/>
<svg id="graph" class="graph">
<g id="viewport">
<title>discovery_free_service</title>
<!-- Node1 -->
<g id="node1" class="node"><title>Node1</title>
<polygon fill="#bfbfbf" stroke="black" points="0,-114.5 0,-133.5 117,-133.5 117,-114.5 0,-114.5"/>
<text text-anchor="middle" x="58.5" y="-121.5" font-family="Helvetica,sans-Serif" font-size="10.00">discovery_free_service</text>
</g>
<!-- Node2 -->
<g id="node2" class="node"><title>Node2</title>
<g id="a_node2"><a xlink:href="a00011.html#a9ac69d02cab7b0cff5d24b6eed07ca8d" target="_top" xlink:title="discovery_alloc_service">
<polygon fill="none" stroke="black" points="153,-161.5 153,-180.5 274,-180.5 274,-161.5 153,-161.5"/>
<text text-anchor="middle" x="213.5" y="-168.5" font-family="Helvetica,sans-Serif" font-size="10.00">discovery_alloc_service</text>
</a>
</g>
</g>
<!-- Node1&#45;&gt;Node2 -->
<g id="edge1" class="edge"><title>Node1&#45;&gt;Node2</title>
<path fill="none" stroke="midnightblue" d="M100.197,-136.502C125.642,-144.318 157.91,-154.231 181.322,-161.422"/>
<polygon fill="midnightblue" stroke="midnightblue" points="101.049,-133.102 90.4618,-133.511 98.9932,-139.793 101.049,-133.102"/>
</g>
<!-- Node5 -->
<g id="node5" class="node"><title>Node5</title>
<g id="a_node5"><a xlink:href="a00011.html#a3c72fb9020b183238e0205b722d7ea95" target="_top" xlink:title="discovery_free_device">
<polygon fill="none" stroke="black" points="156.5,-114.5 156.5,-133.5 270.5,-133.5 270.5,-114.5 156.5,-114.5"/>
<text text-anchor="middle" x="213.5" y="-121.5" font-family="Helvetica,sans-Serif" font-size="10.00">discovery_free_device</text>
</a>
</g>
</g>
<!-- Node1&#45;&gt;Node5 -->
<g id="edge4" class="edge"><title>Node1&#45;&gt;Node5</title>
<path fill="none" stroke="midnightblue" d="M127.347,-124C137.037,-124 146.915,-124 156.348,-124"/>
<polygon fill="midnightblue" stroke="midnightblue" points="127.343,-120.5 117.343,-124 127.343,-127.5 127.343,-120.5"/>
</g>
<!-- Node19 -->
<g id="node19" class="node"><title>Node19</title>
<g id="a_node19"><a xlink:href="a00064.html#acebc47c8796cb46b14899df696fae147" target="_top" xlink:title="hpd_service_free">
<polygon fill="none" stroke="black" points="168,-76.5 168,-95.5 259,-95.5 259,-76.5 168,-76.5"/>
<text text-anchor="middle" x="213.5" y="-83.5" font-family="Helvetica,sans-Serif" font-size="10.00">hpd_service_free</text>
</a>
</g>
</g>
<!-- Node1&#45;&gt;Node19 -->
<g id="edge20" class="edge"><title>Node1&#45;&gt;Node19</title>
<path fill="none" stroke="midnightblue" d="M107.977,-111.96C129.352,-106.651 154.113,-100.501 174.169,-95.5201"/>
<polygon fill="midnightblue" stroke="midnightblue" points="106.97,-108.604 98.1084,-114.411 108.657,-115.397 106.97,-108.604"/>
</g>
<!-- Node3 -->
<g id="node3" class="node"><title>Node3</title>
<g id="a_node3"><a xlink:href="a00064.html#ae265c33796304a96d8a0e670e61e7a3a" target="_top" xlink:title="[hpd_device_t functions] ">
<polygon fill="none" stroke="black" points="636,-171.5 636,-190.5 731,-190.5 731,-171.5 636,-171.5"/>
<text text-anchor="middle" x="683.5" y="-178.5" font-family="Helvetica,sans-Serif" font-size="10.00">hpd_service_alloc</text>
</a>
</g>
</g>
<!-- Node2&#45;&gt;Node3 -->
<g id="edge2" class="edge"><title>Node2&#45;&gt;Node3</title>
<path fill="none" stroke="midnightblue" d="M284.517,-172.496C381.279,-174.564 553.26,-178.238 635.785,-180.002"/>
<polygon fill="midnightblue" stroke="midnightblue" points="284.32,-168.991 274.248,-172.277 284.171,-175.99 284.32,-168.991"/>
</g>
<!-- Node4 -->
<g id="node4" class="node"><title>Node4</title>
<g id="a_node4"><a xlink:href="a00012.html#a723fb54ea3963ea674c9830e41a40e00" target="_top" xlink:title="hpd_demo_adapter_start">
<polygon fill="none" stroke="black" points="781,-133.5 781,-152.5 905,-152.5 905,-133.5 781,-133.5"/>
<text text-anchor="middle" x="843" y="-140.5" font-family="Helvetica,sans-Serif" font-size="10.00">hpd_demo_adapter_start</text>
</a>
</g>
</g>
<!-- Node3&#45;&gt;Node4 -->
<g id="edge3" class="edge"><title>Node3&#45;&gt;Node4</title>
<path fill="none" stroke="midnightblue" d="M734.104,-169.032C756.175,-163.707 781.803,-157.524 802.542,-152.52"/>
<polygon fill="midnightblue" stroke="midnightblue" points="733.144,-165.663 724.244,-171.411 734.786,-172.468 733.144,-165.663"/>
</g>
<!-- Node6 -->
<g id="node6" class="node"><title>Node6</title>
<g id="a_node6"><a xlink:href="a00011.html#a9f30460be089f53c8d995635aedc1097" target="_top" xlink:title="discovery_alloc_device">
<polygon fill="none" stroke="black" points="310,-95.5 310,-114.5 428,-114.5 428,-95.5 310,-95.5"/>
<text text-anchor="middle" x="369" y="-102.5" font-family="Helvetica,sans-Serif" font-size="10.00">discovery_alloc_device</text>
</a>
</g>
</g>
<!-- Node5&#45;&gt;Node6 -->
<g id="edge5" class="edge"><title>Node5&#45;&gt;Node6</title>
<path fill="none" stroke="midnightblue" d="M280.782,-115.796C290.479,-114.595 300.403,-113.367 309.919,-112.189"/>
<polygon fill="midnightblue" stroke="midnightblue" points="280.28,-112.331 270.786,-117.033 281.14,-119.278 280.28,-112.331"/>
</g>
<!-- Node8 -->
<g id="node8" class="node"><title>Node8</title>
<g id="a_node8"><a xlink:href="a00011.html#aec714553397f80039bf246b3b0800420" target="_top" xlink:title="discovery_free_adapter">
<polygon fill="none" stroke="black" points="310,-57.5 310,-76.5 428,-76.5 428,-57.5 310,-57.5"/>
<text text-anchor="middle" x="369" y="-64.5" font-family="Helvetica,sans-Serif" font-size="10.00">discovery_free_adapter</text>
</a>
</g>
</g>
<!-- Node5&#45;&gt;Node8 -->
<g id="edge8" class="edge"><title>Node5&#45;&gt;Node8</title>
<path fill="none" stroke="midnightblue" d="M257.767,-111.176C263.285,-109.252 268.813,-107.177 274,-105 290.682,-97.9988 293.344,-93.0635 310,-86 318.097,-82.5663 327.04,-79.3619 335.43,-76.5991"/>
<polygon fill="midnightblue" stroke="midnightblue" points="256.296,-107.978 247.922,-114.468 258.516,-114.617 256.296,-107.978"/>
</g>
<!-- Node18 -->
<g id="node18" class="node"><title>Node18</title>
<g id="a_node18"><a xlink:href="a00064.html#a7b20f2cfe2e46cdbfe4112b95922446b" target="_top" xlink:title="hpd_device_free">
<polygon fill="none" stroke="black" points="325,-133.5 325,-152.5 413,-152.5 413,-133.5 325,-133.5"/>
<text text-anchor="middle" x="369" y="-140.5" font-family="Helvetica,sans-Serif" font-size="10.00">hpd_device_free</text>
</a>
</g>
</g>
<!-- Node5&#45;&gt;Node18 -->
<g id="edge19" class="edge"><title>Node5&#45;&gt;Node18</title>
<path fill="none" stroke="midnightblue" d="M280.936,-132.223C295.759,-134.058 311.103,-135.957 324.705,-137.641"/>
<polygon fill="midnightblue" stroke="midnightblue" points="281.14,-128.722 270.786,-130.967 280.28,-135.669 281.14,-128.722"/>
</g>
<!-- Node7 -->
<g id="node7" class="node"><title>Node7</title>
<g id="a_node7"><a xlink:href="a00064.html#a10a4b84cc7128e1900008dc1de4653a2" target="_top" xlink:title="A note on reusing IDs: An other module or remote client may have outstanding references to the old ID...">
<polygon fill="none" stroke="black" points="479,-133.5 479,-152.5 571,-152.5 571,-133.5 479,-133.5"/>
<text text-anchor="middle" x="525" y="-140.5" font-family="Helvetica,sans-Serif" font-size="10.00">hpd_device_alloc</text>
</a>
</g>
</g>
<!-- Node6&#45;&gt;Node7 -->
<g id="edge6" class="edge"><title>Node6&#45;&gt;Node7</title>
<path fill="none" stroke="midnightblue" d="M418.794,-117.04C440.308,-122.349 465.232,-128.499 485.419,-133.48"/>
<polygon fill="midnightblue" stroke="midnightblue" points="419.408,-113.587 408.861,-114.589 417.731,-120.383 419.408,-113.587"/>
</g>
<!-- Node7&#45;&gt;Node4 -->
<g id="edge7" class="edge"><title>Node7&#45;&gt;Node4</title>
<path fill="none" stroke="midnightblue" d="M581.328,-143C637.115,-143 723.023,-143 780.813,-143"/>
<polygon fill="midnightblue" stroke="midnightblue" points="581.275,-139.5 571.275,-143 581.275,-146.5 581.275,-139.5"/>
</g>
<!-- Node9 -->
<g id="node9" class="node"><title>Node9</title>
<g id="a_node9"><a xlink:href="a00061.html#a975d2ced1742515d1e9a9a8bb0cd8000" target="_top" xlink:title="daemon_free_conf">
<polygon fill="none" stroke="black" points="476.5,-19.5 476.5,-38.5 573.5,-38.5 573.5,-19.5 476.5,-19.5"/>
<text text-anchor="middle" x="525" y="-26.5" font-family="Helvetica,sans-Serif" font-size="10.00">daemon_free_conf</text>
</a>
</g>
</g>
<!-- Node8&#45;&gt;Node9 -->
<g id="edge9" class="edge"><title>Node8&#45;&gt;Node9</title>
<path fill="none" stroke="midnightblue" d="M418.794,-54.96C440.308,-49.6512 465.232,-43.5012 485.419,-38.5201"/>
<polygon fill="midnightblue" stroke="midnightblue" points="417.731,-51.6172 408.861,-57.411 419.408,-58.4133 417.731,-51.6172"/>
</g>
<!-- Node14 -->
<g id="node14" class="node"><title>Node14</title>
<g id="a_node14"><a xlink:href="a00011.html#a3c736bc96933454ab82040c3617275a3" target="_top" xlink:title="discovery_alloc_adapter">
<polygon fill="none" stroke="black" points="464,-95.5 464,-114.5 586,-114.5 586,-95.5 464,-95.5"/>
<text text-anchor="middle" x="525" y="-102.5" font-family="Helvetica,sans-Serif" font-size="10.00">discovery_alloc_adapter</text>
</a>
</g>
</g>
<!-- Node8&#45;&gt;Node14 -->
<g id="edge14" class="edge"><title>Node8&#45;&gt;Node14</title>
<path fill="none" stroke="midnightblue" d="M418.794,-79.04C440.308,-84.3488 465.232,-90.4988 485.419,-95.4799"/>
<polygon fill="midnightblue" stroke="midnightblue" points="419.408,-75.5867 408.861,-76.589 417.731,-82.3828 419.408,-75.5867"/>
</g>
<!-- Node16 -->
<g id="node16" class="node"><title>Node16</title>
<g id="a_node16"><a xlink:href="a00064.html#a0a2b0d9eef603396a0171d5b0c67bbbf" target="_top" xlink:title="hpd_adapter_free">
<polygon fill="none" stroke="black" points="479,-57.5 479,-76.5 571,-76.5 571,-57.5 479,-57.5"/>
<text text-anchor="middle" x="525" y="-64.5" font-family="Helvetica,sans-Serif" font-size="10.00">hpd_adapter_free</text>
</a>
</g>
</g>
<!-- Node8&#45;&gt;Node16 -->
<g id="edge17" class="edge"><title>Node8&#45;&gt;Node16</title>
<path fill="none" stroke="midnightblue" d="M438.521,-67C452.118,-67 466.073,-67 478.66,-67"/>
<polygon fill="midnightblue" stroke="midnightblue" points="438.221,-63.5001 428.221,-67 438.221,-70.5001 438.221,-63.5001"/>
</g>
<!-- Node10 -->
<g id="node10" class="node"><title>Node10</title>
<g id="a_node10"><a xlink:href="a00009.html#affd72e7fb83ddd29450361c75672ddd4" target="_top" xlink:title="daemon_start">
<polygon fill="none" stroke="black" points="645.5,-19.5 645.5,-38.5 721.5,-38.5 721.5,-19.5 645.5,-19.5"/>
<text text-anchor="middle" x="683.5" y="-26.5" font-family="Helvetica,sans-Serif" font-size="10.00">daemon_start</text>
</a>
</g>
</g>
<!-- Node9&#45;&gt;Node10 -->
<g id="edge10" class="edge"><title>Node9&#45;&gt;Node10</title>
<path fill="none" stroke="midnightblue" d="M584.014,-29C604.552,-29 627.087,-29 645.412,-29"/>
<polygon fill="midnightblue" stroke="midnightblue" points="583.806,-25.5001 573.806,-29 583.805,-32.5001 583.806,-25.5001"/>
</g>
<!-- Node11 -->
<g id="node11" class="node"><title>Node11</title>
<g id="a_node11"><a xlink:href="a00062.html#a4a5e670df4a5790a7955aaef5483c08a" target="_top" xlink:title="hpd_start">
<polygon fill="none" stroke="black" points="814.5,-19.5 814.5,-38.5 871.5,-38.5 871.5,-19.5 814.5,-19.5"/>
<text text-anchor="middle" x="843" y="-26.5" font-family="Helvetica,sans-Serif" font-size="10.00">hpd_start</text>
</a>
</g>
</g>
<!-- Node10&#45;&gt;Node11 -->
<g id="edge11" class="edge"><title>Node10&#45;&gt;Node11</title>
<path fill="none" stroke="midnightblue" d="M732.18,-29C759.036,-29 791.633,-29 814.306,-29"/>
<polygon fill="midnightblue" stroke="midnightblue" points="731.825,-25.5001 721.825,-29 731.825,-32.5001 731.825,-25.5001"/>
</g>
<!-- Node12 -->
<g id="node12" class="node"><title>Node12</title>
<g id="a_node12"><a xlink:href="a00055.html#a0ddf1224851353fc92bfbff6f499fa97" target="_top" xlink:title="main">
<polygon fill="none" stroke="black" points="943,-38.5 943,-57.5 981,-57.5 981,-38.5 943,-38.5"/>
<text text-anchor="middle" x="962" y="-45.5" font-family="Helvetica,sans-Serif" font-size="10.00">main</text>
</a>
</g>
</g>
<!-- Node11&#45;&gt;Node12 -->
<g id="edge12" class="edge"><title>Node11&#45;&gt;Node12</title>
<path fill="none" stroke="midnightblue" d="M881.731,-35.1273C902.244,-38.4585 926.673,-42.4255 942.937,-45.0667"/>
<polygon fill="midnightblue" stroke="midnightblue" points="882.159,-31.651 871.727,-33.5027 881.037,-38.5605 882.159,-31.651"/>
</g>
<!-- Node13 -->
<g id="node13" class="node"><title>Node13</title>
<g id="a_node13"><a xlink:href="a00030.html#a5de92b31931f2f5155c682379a06da32" target="_top" xlink:title="TEST">
<polygon fill="none" stroke="black" points="941,-0.5 941,-19.5 983,-19.5 983,-0.5 941,-0.5"/>
<text text-anchor="middle" x="962" y="-7.5" font-family="Helvetica,sans-Serif" font-size="10.00">TEST</text>
</a>
</g>
</g>
<!-- Node11&#45;&gt;Node13 -->
<g id="edge13" class="edge"><title>Node11&#45;&gt;Node13</title>
<path fill="none" stroke="midnightblue" d="M881.619,-22.8909C901.273,-19.6992 924.547,-15.9197 940.793,-13.2814"/>
<polygon fill="midnightblue" stroke="midnightblue" points="881.037,-19.4395 871.727,-24.4973 882.159,-26.349 881.037,-19.4395"/>
</g>
<!-- Node15 -->
<g id="node15" class="node"><title>Node15</title>
<g id="a_node15"><a xlink:href="a00064.html#aec51fa5c17a707a90a1634358ae1a9b4" target="_top" xlink:title="[hpd_adapter_t functions] ">
<polygon fill="none" stroke="black" points="636,-95.5 636,-114.5 731,-114.5 731,-95.5 636,-95.5"/>
<text text-anchor="middle" x="683.5" y="-102.5" font-family="Helvetica,sans-Serif" font-size="10.00">hpd_adapter_alloc</text>
</a>
</g>
</g>
<!-- Node14&#45;&gt;Node15 -->
<g id="edge15" class="edge"><title>Node14&#45;&gt;Node15</title>
<path fill="none" stroke="midnightblue" d="M596.26,-105C609.716,-105 623.49,-105 635.969,-105"/>
<polygon fill="midnightblue" stroke="midnightblue" points="596.059,-101.5 586.059,-105 596.059,-108.5 596.059,-101.5"/>
</g>
<!-- Node15&#45;&gt;Node4 -->
<g id="edge16" class="edge"><title>Node15&#45;&gt;Node4</title>
<path fill="none" stroke="midnightblue" d="M734.104,-116.968C756.175,-122.293 781.803,-128.476 802.542,-133.48"/>
<polygon fill="midnightblue" stroke="midnightblue" points="734.786,-113.532 724.244,-114.589 733.144,-120.337 734.786,-113.532"/>
</g>
<!-- Node17 -->
<g id="node17" class="node"><title>Node17</title>
<g id="a_node17"><a xlink:href="a00012.html#a51ee1d39c3be7ad828e223b971bd1a96" target="_top" xlink:title="hpd_demo_adapter_stop">
<polygon fill="none" stroke="black" points="622,-57.5 622,-76.5 745,-76.5 745,-57.5 622,-57.5"/>
<text text-anchor="middle" x="683.5" y="-64.5" font-family="Helvetica,sans-Serif" font-size="10.00">hpd_demo_adapter_stop</text>
</a>
</g>
</g>
<!-- Node16&#45;&gt;Node17 -->
<g id="edge18" class="edge"><title>Node16&#45;&gt;Node17</title>
<path fill="none" stroke="midnightblue" d="M581.525,-67C594.604,-67 608.61,-67 621.9,-67"/>
<polygon fill="midnightblue" stroke="midnightblue" points="581.266,-63.5001 571.266,-67 581.266,-70.5001 581.266,-63.5001"/>
</g>
</g>
</svg>
        <g id="navigator" transform="translate(0 0)" fill="#404254">
                <rect fill="#f2f5e9" fill-opacity="0.5" stroke="#606060" stroke-width=".5" x="0" y="0" width="60" height="60"/>
                <use id="zoomplus" xlink:href="#zoomPlus" x="17" y="9" onmousedown="handleZoom(evt,'in')"/>
                <use id="zoomminus" xlink:href="#zoomMin" x="42" y="9" onmousedown="handleZoom(evt,'out')"/>
                <use id="reset" xlink:href="#resetDef" x="30" y="36" onmousedown="handleReset()"/>
                <g id="arrowUp" xlink:href="#dirArrow" transform="translate(30 24)" onmousedown="handlePan(0,-1)">
                  <use xlink:href="#rim" fill="#404040">
                        <set attributeName="fill" to="#808080" begin="arrowUp.mouseover" end="arrowUp.mouseout"/>
                  </use>
                  <path fill="none" stroke="white" stroke-width="1.5" d="M0,-3.0v7 M-2.5,-0.5L0,-3.0L2.5,-0.5"/>
                </g>
                <g id="arrowRight" xlink:href="#dirArrow" transform="rotate(90) translate(36 -43)" onmousedown="handlePan(1,0)">
                  <use xlink:href="#rim" fill="#404040">
                        <set attributeName="fill" to="#808080" begin="arrowRight.mouseover" end="arrowRight.mouseout"/>
                  </use>
                  <path fill="none" stroke="white" stroke-width="1.5" d="M0,-3.0v7 M-2.5,-0.5L0,-3.0L2.5,-0.5"/>
                </g>
                <g id="arrowDown" xlink:href="#dirArrow" transform="rotate(180) translate(-30 -48)" onmousedown="handlePan(0,1)">
                  <use xlink:href="#rim" fill="#404040">
                        <set attributeName="fill" to="#808080" begin="arrowDown.mouseover" end="arrowDown.mouseout"/>
                  </use>
                  <path fill="none" stroke="white" stroke-width="1.5" d="M0,-3.0v7 M-2.5,-0.5L0,-3.0L2.5,-0.5"/>
                </g>
                <g id="arrowLeft" xlink:href="#dirArrow" transform="rotate(270) translate(-36 17)" onmousedown="handlePan(-1,0)">
                  <use xlink:href="#rim" fill="#404040">
                        <set attributeName="fill" to="#808080" begin="arrowLeft.mouseover" end="arrowLeft.mouseout"/>
                  </use>
                  <path fill="none" stroke="white" stroke-width="1.5" d="M0,-3.0v7 M-2.5,-0.5L0,-3.0L2.5,-0.5"/>
                </g>
        </g>
        <svg viewBox="0 0 15 15" width="100%" height="30px" preserveAspectRatio="xMaxYMin meet">
         <g id="arrow_out" transform="scale(0.3 0.3)">
          <a xlink:href="a00063_a562bd655fd329da0289d21ec36973322_icgraph_org.svg" target="_base">
           <rect id="button" ry="5" rx="5" y="6" x="6" height="38" width="38"
                fill="#f2f5e9" fill-opacity="0.5" stroke="#606060" stroke-width="1.0"/>
           <path id="arrow"
             d="M 11.500037,31.436501 C 11.940474,20.09759 22.043105,11.32322 32.158766,21.979434 L 37.068811,17.246167 C 37.068811,17.246167 37.088388,32 37.088388,32 L 22.160133,31.978069 C 22.160133,31.978069 26.997745,27.140456 26.997745,27.140456 C 18.528582,18.264221 13.291696,25.230495 11.500037,31.436501 z"
             style="fill:#404040;"/>
          </a>
         </g>
        </svg>
</svg>
