<?xml version="1.0" encoding="UTF-8" standalone="no"?>
<!DOCTYPE svg PUBLIC "-//W3C//DTD SVG 1.1//EN"
 "http://www.w3.org/Graphics/SVG/1.1/DTD/svg11.dtd">
<!-- Generated by graphviz version 2.38.0 (20140413.2041)
 -->
<!-- Title: on_req_url_cmpl Pages: 1 -->
<svg width="1071pt" height="405pt"
 viewBox="0.00 0.00 1071.00 405.00" xmlns="http://www.w3.org/2000/svg" xmlns:xlink="http://www.w3.org/1999/xlink">
<g id="graph0" class="graph" transform="scale(1 1) rotate(0) translate(4 401)">
<title>on_req_url_cmpl</title>
<!-- Node1 -->
<g id="node1" class="node"><title>Node1</title>
<polygon fill="#bfbfbf" stroke="black" points="0,-114.5 0,-133.5 88,-133.5 88,-114.5 0,-114.5"/>
<text text-anchor="middle" x="44" y="-121.5" font-family="Helvetica,sans-Serif" font-size="10.00">on_req_url_cmpl</text>
</g>
<!-- Node2 -->
<g id="node2" class="node"><title>Node2</title>
<g id="a_node2"><a xlink:href="a00018.html#ae55ff43648523d2d14e378f3fce33890" target="_top" xlink:title="Get the URL of this request. ">
<polygon fill="none" stroke="black" points="124,-240.5 124,-259.5 255,-259.5 255,-240.5 124,-240.5"/>
<text text-anchor="middle" x="189.5" y="-247.5" font-family="Helvetica,sans-Serif" font-size="10.00">hpd_httpd_request_get_url</text>
</a>
</g>
</g>
<!-- Node1&#45;&gt;Node2 -->
<g id="edge1" class="edge"><title>Node1&#45;&gt;Node2</title>
<path fill="none" stroke="midnightblue" d="M49.4591,-133.503C59.6567,-154.205 86.7083,-203.63 124,-230 127.446,-232.437 131.198,-234.584 135.103,-236.474"/>
<polygon fill="midnightblue" stroke="midnightblue" points="133.844,-239.742 144.416,-240.435 136.584,-233.301 133.844,-239.742"/>
</g>
<!-- Node3 -->
<g id="node3" class="node"><title>Node3</title>
<g id="a_node3"><a xlink:href="a00025.html#a78818d54ff3643716564aad97c70c7e2" target="_top" xlink:title="reply_internal_server\l_error">
<polygon fill="none" stroke="black" points="136,-191 136,-221 243,-221 243,-191 136,-191"/>
<text text-anchor="start" x="144" y="-209" font-family="Helvetica,sans-Serif" font-size="10.00">reply_internal_server</text>
<text text-anchor="middle" x="189.5" y="-198" font-family="Helvetica,sans-Serif" font-size="10.00">_error</text>
</a>
</g>
</g>
<!-- Node1&#45;&gt;Node3 -->
<g id="edge2" class="edge"><title>Node1&#45;&gt;Node3</title>
<path fill="none" stroke="midnightblue" d="M56.4193,-133.687C71.2487,-145.917 98.2865,-167.039 124,-181 127.74,-183.031 131.681,-184.978 135.695,-186.827"/>
<polygon fill="midnightblue" stroke="midnightblue" points="134.569,-190.154 145.134,-190.953 137.373,-183.74 134.569,-190.154"/>
</g>
<!-- Node11 -->
<g id="node11" class="node"><title>Node11</title>
<g id="a_node11"><a xlink:href="a00006.html#adf46370d9c211c3be22966b4606ba9b0" target="_top" xlink:title="free">
<polygon fill="none" stroke="black" points="1030,-133.5 1030,-152.5 1063,-152.5 1063,-133.5 1030,-133.5"/>
<text text-anchor="middle" x="1046.5" y="-140.5" font-family="Helvetica,sans-Serif" font-size="10.00">free</text>
</a>
</g>
</g>
<!-- Node1&#45;&gt;Node11 -->
<g id="edge22" class="edge"><title>Node1&#45;&gt;Node11</title>
<path fill="none" stroke="midnightblue" d="M88.1382,-124C145.77,-124 251.069,-124 341,-124 341,-124 341,-124 803.5,-124 882.561,-124 975.707,-134.203 1019.84,-139.656"/>
<polygon fill="midnightblue" stroke="midnightblue" points="1019.6,-143.154 1029.96,-140.93 1020.48,-136.209 1019.6,-143.154"/>
</g>
<!-- Node15 -->
<g id="node15" class="node"><title>Node15</title>
<g id="a_node15"><a xlink:href="a00025.html#a8352457dd87933b3ad1f5d5746480c61" target="_top" xlink:title="reply_not_found">
<polygon fill="none" stroke="black" points="146.5,-152.5 146.5,-171.5 232.5,-171.5 232.5,-152.5 146.5,-152.5"/>
<text text-anchor="middle" x="189.5" y="-159.5" font-family="Helvetica,sans-Serif" font-size="10.00">reply_not_found</text>
</a>
</g>
</g>
<!-- Node1&#45;&gt;Node15 -->
<g id="edge17" class="edge"><title>Node1&#45;&gt;Node15</title>
<path fill="none" stroke="midnightblue" d="M81.2111,-133.589C99.8206,-138.517 122.697,-144.575 142.539,-149.829"/>
<polygon fill="midnightblue" stroke="midnightblue" points="141.738,-153.238 152.3,-152.414 143.53,-146.471 141.738,-153.238"/>
</g>
<!-- Node16 -->
<g id="node16" class="node"><title>Node16</title>
<g id="a_node16"><a xlink:href="a00025.html#a82a561fe3d2f2a6348a93263323f70dd" target="_top" xlink:title="url_extract">
<polygon fill="none" stroke="black" points="913,-76.5 913,-95.5 975,-95.5 975,-76.5 913,-76.5"/>
<text text-anchor="middle" x="944" y="-83.5" font-family="Helvetica,sans-Serif" font-size="10.00">url_extract</text>
</a>
</g>
</g>
<!-- Node1&#45;&gt;Node16 -->
<g id="edge19" class="edge"><title>Node1&#45;&gt;Node16</title>
<path fill="none" stroke="midnightblue" d="M88.4096,-114.898C145.903,-103.656 250.59,-86 341,-86 341,-86 341,-86 641,-86 734.781,-86 844.943,-86 902.814,-86"/>
<polygon fill="midnightblue" stroke="midnightblue" points="902.995,-89.5001 912.995,-86 902.995,-82.5001 902.995,-89.5001"/>
</g>
<!-- Node17 -->
<g id="node17" class="node"><title>Node17</title>
<g id="a_node17"><a xlink:href="a00025.html#ac5a2da85026a16c441f0f87b452dc14f" target="_top" xlink:title="url_decode">
<polygon fill="none" stroke="black" points="157.5,-38.5 157.5,-57.5 221.5,-57.5 221.5,-38.5 157.5,-38.5"/>
<text text-anchor="middle" x="189.5" y="-45.5" font-family="Helvetica,sans-Serif" font-size="10.00">url_decode</text>
</a>
</g>
</g>
<!-- Node1&#45;&gt;Node17 -->
<g id="edge21" class="edge"><title>Node1&#45;&gt;Node17</title>
<path fill="none" stroke="midnightblue" d="M57.5948,-114.412C72.7485,-103.19 99.2492,-84.547 124,-72 131.975,-67.9571 140.8,-64.227 149.295,-60.9723"/>
<polygon fill="midnightblue" stroke="midnightblue" points="150.514,-64.2533 158.684,-57.5082 148.091,-57.686 150.514,-64.2533"/>
</g>
<!-- Node18 -->
<g id="node18" class="node"><title>Node18</title>
<g id="a_node18"><a xlink:href="a00060.html#adcfc7ced2dccafaac60ca13f700061d5" target="_top" xlink:title="hpd_service_id_alloc">
<polygon fill="none" stroke="black" points="136,-0.5 136,-19.5 243,-19.5 243,-0.5 136,-0.5"/>
<text text-anchor="middle" x="189.5" y="-7.5" font-family="Helvetica,sans-Serif" font-size="10.00">hpd_service_id_alloc</text>
</a>
</g>
</g>
<!-- Node1&#45;&gt;Node18 -->
<g id="edge23" class="edge"><title>Node1&#45;&gt;Node18</title>
<path fill="none" stroke="midnightblue" d="M50.3661,-114.304C61.5084,-95.0745 89.0527,-51.9855 124,-29 127.109,-26.9553 130.443,-25.1252 133.899,-23.4879"/>
<polygon fill="midnightblue" stroke="midnightblue" points="135.374,-26.6654 143.259,-19.5897 132.682,-20.2035 135.374,-26.6654"/>
</g>
<!-- Node4 -->
<g id="node4" class="node"><title>Node4</title>
<g id="a_node4"><a xlink:href="a00025.html#afb08e2b5fbac2394319e24be39ac931a" target="_top" xlink:title="reply">
<polygon fill="none" stroke="black" points="323,-186.5 323,-205.5 361,-205.5 361,-186.5 323,-186.5"/>
<text text-anchor="middle" x="342" y="-193.5" font-family="Helvetica,sans-Serif" font-size="10.00">reply</text>
</a>
</g>
</g>
<!-- Node3&#45;&gt;Node4 -->
<g id="edge3" class="edge"><title>Node3&#45;&gt;Node4</title>
<path fill="none" stroke="midnightblue" d="M243.138,-202.502C266.596,-200.944 293.287,-199.17 312.862,-197.87"/>
<polygon fill="midnightblue" stroke="midnightblue" points="313.194,-201.355 322.94,-197.2 312.73,-194.371 313.194,-201.355"/>
</g>
<!-- Node5 -->
<g id="node5" class="node"><title>Node5</title>
<g id="a_node5"><a xlink:href="a00018.html#a3b100e8d7e1214067cf1b90ad577745c" target="_top" xlink:title="Create the reponse and constructs the status line. ">
<polygon fill="none" stroke="black" points="429,-268 429,-298 533,-298 533,-268 429,-268"/>
<text text-anchor="start" x="437" y="-286" font-family="Helvetica,sans-Serif" font-size="10.00">hpd_httpd_response</text>
<text text-anchor="middle" x="481" y="-275" font-family="Helvetica,sans-Serif" font-size="10.00">_create</text>
</a>
</g>
</g>
<!-- Node4&#45;&gt;Node5 -->
<g id="edge4" class="edge"><title>Node4&#45;&gt;Node5</title>
<path fill="none" stroke="midnightblue" d="M358.185,-205.643C379.559,-219.216 419.056,-244.298 447.283,-262.223"/>
<polygon fill="midnightblue" stroke="midnightblue" points="445.696,-265.362 456.014,-267.768 449.449,-259.453 445.696,-265.362"/>
</g>
<!-- Node14 -->
<g id="node14" class="node"><title>Node14</title>
<g id="a_node14"><a xlink:href="a00018.html#a36a5feca39485163b3ef446c9e3171a3" target="_top" xlink:title="Destroy a hpd_httpd_response. ">
<polygon fill="none" stroke="black" points="588,-153 588,-183 692,-183 692,-153 588,-153"/>
<text text-anchor="start" x="596" y="-171" font-family="Helvetica,sans-Serif" font-size="10.00">hpd_httpd_response</text>
<text text-anchor="middle" x="640" y="-160" font-family="Helvetica,sans-Serif" font-size="10.00">_destroy</text>
</a>
</g>
</g>
<!-- Node4&#45;&gt;Node14 -->
<g id="edge14" class="edge"><title>Node4&#45;&gt;Node14</title>
<path fill="none" stroke="midnightblue" d="M361.071,-194.291C403.156,-190.31 509.309,-180.268 577.571,-173.811"/>
<polygon fill="midnightblue" stroke="midnightblue" points="578.144,-177.272 587.77,-172.846 577.485,-170.303 578.144,-177.272"/>
</g>
<!-- Node6 -->
<g id="node6" class="node"><title>Node6</title>
<g id="a_node6"><a xlink:href="a00016.html#a228cee03d1174febd4a716e0285542c2" target="_top" xlink:title="http_request_get_context">
<polygon fill="none" stroke="black" points="576.5,-377.5 576.5,-396.5 703.5,-396.5 703.5,-377.5 576.5,-377.5"/>
<text text-anchor="middle" x="640" y="-384.5" font-family="Helvetica,sans-Serif" font-size="10.00">http_request_get_context</text>
</a>
</g>
</g>
<!-- Node5&#45;&gt;Node6 -->
<g id="edge5" class="edge"><title>Node5&#45;&gt;Node6</title>
<path fill="none" stroke="midnightblue" d="M493.505,-298.293C508.705,-317.424 537.287,-349.867 569,-368 572.918,-370.24 577.112,-372.226 581.426,-373.984"/>
<polygon fill="midnightblue" stroke="midnightblue" points="580.412,-377.339 591.006,-377.48 582.812,-370.764 580.412,-377.339"/>
</g>
<!-- Node7 -->
<g id="node7" class="node"><title>Node7</title>
<g id="a_node7"><a xlink:href="a00017.html#a867d6248acd2a1ad498594ec818cb718" target="_top" xlink:title="Convert a status code to string. ">
<polygon fill="none" stroke="black" points="576.5,-339.5 576.5,-358.5 703.5,-358.5 703.5,-339.5 576.5,-339.5"/>
<text text-anchor="middle" x="640" y="-346.5" font-family="Helvetica,sans-Serif" font-size="10.00">http_status_codes_to_str</text>
</a>
</g>
</g>
<!-- Node5&#45;&gt;Node7 -->
<g id="edge6" class="edge"><title>Node5&#45;&gt;Node7</title>
<path fill="none" stroke="midnightblue" d="M506.391,-298.148C523.438,-308.238 547.001,-321.209 569,-330 574.909,-332.361 581.212,-334.531 587.524,-336.492"/>
<polygon fill="midnightblue" stroke="midnightblue" points="586.814,-339.931 597.395,-339.4 588.792,-333.217 586.814,-339.931"/>
</g>
<!-- Node8 -->
<g id="node8" class="node"><title>Node8</title>
<g id="a_node8"><a xlink:href="a00017.html#a36a5feca39485163b3ef446c9e3171a3" target="_top" xlink:title="Destroy a hpd_httpd_response. ">
<polygon fill="none" stroke="black" points="588,-290 588,-320 692,-320 692,-290 588,-290"/>
<text text-anchor="start" x="596" y="-308" font-family="Helvetica,sans-Serif" font-size="10.00">hpd_httpd_response</text>
<text text-anchor="middle" x="640" y="-297" font-family="Helvetica,sans-Serif" font-size="10.00">_destroy</text>
</a>
</g>
</g>
<!-- Node5&#45;&gt;Node8 -->
<g id="edge7" class="edge"><title>Node5&#45;&gt;Node8</title>
<path fill="none" stroke="midnightblue" d="M533.408,-290.204C547.577,-292.189 563.088,-294.363 577.754,-296.418"/>
<polygon fill="midnightblue" stroke="midnightblue" points="577.356,-299.896 587.745,-297.818 578.328,-292.964 577.356,-299.896"/>
</g>
<!-- Node12 -->
<g id="node12" class="node"><title>Node12</title>
<g id="a_node12"><a xlink:href="a00016.html#a1568fdba259271965551fb5aa1f07006" target="_top" xlink:title="Get the connection of a request. ">
<polygon fill="none" stroke="black" points="569,-251.5 569,-270.5 711,-270.5 711,-251.5 569,-251.5"/>
<text text-anchor="middle" x="640" y="-258.5" font-family="Helvetica,sans-Serif" font-size="10.00">http_request_get_connection</text>
</a>
</g>
</g>
<!-- Node5&#45;&gt;Node12 -->
<g id="edge12" class="edge"><title>Node5&#45;&gt;Node12</title>
<path fill="none" stroke="midnightblue" d="M533.408,-275.796C542.274,-274.554 551.665,-273.238 561.047,-271.923"/>
<polygon fill="midnightblue" stroke="midnightblue" points="561.779,-275.355 571.197,-270.501 560.808,-268.423 561.779,-275.355"/>
</g>
<!-- Node13 -->
<g id="node13" class="node"><title>Node13</title>
<g id="a_node13"><a xlink:href="a00017.html#a3aabea0eb8be381d54ece47fa1fd6a75" target="_top" xlink:title="Add header to a response. ">
<polygon fill="none" stroke="black" points="588,-202 588,-232 692,-232 692,-202 588,-202"/>
<text text-anchor="start" x="596" y="-220" font-family="Helvetica,sans-Serif" font-size="10.00">hpd_httpd_response</text>
<text text-anchor="middle" x="640" y="-209" font-family="Helvetica,sans-Serif" font-size="10.00">_add_header</text>
</a>
</g>
</g>
<!-- Node5&#45;&gt;Node13 -->
<g id="edge13" class="edge"><title>Node5&#45;&gt;Node13</title>
<path fill="none" stroke="midnightblue" d="M512.275,-267.844C528.854,-259.771 549.863,-249.904 569,-242 574.144,-239.875 579.541,-237.757 584.96,-235.703"/>
<polygon fill="midnightblue" stroke="midnightblue" points="586.533,-238.853 594.688,-232.089 584.095,-232.291 586.533,-238.853"/>
</g>
<!-- Node9 -->
<g id="node9" class="node"><title>Node9</title>
<g id="a_node9"><a xlink:href="a00029.html#a494a1841a6c8963c10f5d3a6b662f014" target="_top" xlink:title="Close a connection, after the remaining data has been sent. ">
<polygon fill="none" stroke="black" points="747,-190.5 747,-209.5 858,-209.5 858,-190.5 747,-190.5"/>
<text text-anchor="middle" x="802.5" y="-197.5" font-family="Helvetica,sans-Serif" font-size="10.00">hpd_tcpd_conn_close</text>
</a>
</g>
</g>
<!-- Node8&#45;&gt;Node9 -->
<g id="edge8" class="edge"><title>Node8&#45;&gt;Node9</title>
<path fill="none" stroke="midnightblue" d="M690.653,-289.947C697.683,-287.055 704.666,-283.74 711,-280 740.438,-262.615 769.085,-234.927 786.01,-217.111"/>
<polygon fill="midnightblue" stroke="midnightblue" points="788.666,-219.394 792.922,-209.691 783.544,-214.622 788.666,-219.394"/>
</g>
<!-- Node8&#45;&gt;Node11 -->
<g id="edge11" class="edge"><title>Node8&#45;&gt;Node11</title>
<path fill="none" stroke="midnightblue" d="M692.121,-303.838C765.253,-299.84 901.139,-283.503 994,-219 1014.57,-204.71 1029.29,-179.324 1037.6,-161.85"/>
<polygon fill="midnightblue" stroke="midnightblue" points="1040.84,-163.176 1041.74,-152.62 1034.45,-160.31 1040.84,-163.176"/>
</g>
<!-- Node10 -->
<g id="node10" class="node"><title>Node10</title>
<g id="a_node10"><a xlink:href="a00049.html#a58068e1a4c60b401bc6fc99c25e9a3f6" target="_top" xlink:title="Kill and clean up after a connection. ">
<polygon fill="none" stroke="black" points="894,-190.5 894,-209.5 994,-209.5 994,-190.5 894,-190.5"/>
<text text-anchor="middle" x="944" y="-197.5" font-family="Helvetica,sans-Serif" font-size="10.00">hpd_tcpd_conn_kill</text>
</a>
</g>
</g>
<!-- Node9&#45;&gt;Node10 -->
<g id="edge9" class="edge"><title>Node9&#45;&gt;Node10</title>
<path fill="none" stroke="midnightblue" d="M858.234,-200C866.591,-200 875.25,-200 883.7,-200"/>
<polygon fill="midnightblue" stroke="midnightblue" points="883.868,-203.5 893.868,-200 883.868,-196.5 883.868,-203.5"/>
</g>
<!-- Node10&#45;&gt;Node11 -->
<g id="edge10" class="edge"><title>Node10&#45;&gt;Node11</title>
<path fill="none" stroke="midnightblue" d="M965.774,-190.472C974.596,-186.261 984.92,-181.111 994,-176 1003.62,-170.588 1013.91,-164.133 1022.75,-158.373"/>
<polygon fill="midnightblue" stroke="midnightblue" points="1024.93,-161.128 1031.34,-152.695 1021.07,-155.287 1024.93,-161.128"/>
</g>
<!-- Node14&#45;&gt;Node9 -->
<g id="edge15" class="edge"><title>Node14&#45;&gt;Node9</title>
<path fill="none" stroke="midnightblue" d="M692.224,-178.213C708.559,-181.47 726.747,-185.096 743.525,-188.441"/>
<polygon fill="midnightblue" stroke="midnightblue" points="743.268,-191.959 753.76,-190.482 744.637,-185.094 743.268,-191.959"/>
</g>
<!-- Node14&#45;&gt;Node11 -->
<g id="edge16" class="edge"><title>Node14&#45;&gt;Node11</title>
<path fill="none" stroke="midnightblue" d="M692.23,-164.834C779.448,-159.443 953.719,-148.673 1019.53,-144.605"/>
<polygon fill="midnightblue" stroke="midnightblue" points="1020.06,-148.079 1029.83,-143.969 1019.63,-141.092 1020.06,-148.079"/>
</g>
<!-- Node15&#45;&gt;Node4 -->
<g id="edge18" class="edge"><title>Node15&#45;&gt;Node4</title>
<path fill="none" stroke="midnightblue" d="M232.823,-171.561C258.492,-177.36 290.528,-184.598 313.053,-189.686"/>
<polygon fill="midnightblue" stroke="midnightblue" points="312.45,-193.138 322.976,-191.928 313.993,-186.31 312.45,-193.138"/>
</g>
<!-- Node16&#45;&gt;Node11 -->
<g id="edge20" class="edge"><title>Node16&#45;&gt;Node11</title>
<path fill="none" stroke="midnightblue" d="M965.774,-95.5275C974.596,-99.7393 984.92,-104.889 994,-110 1003.62,-115.412 1013.91,-121.867 1022.75,-127.627"/>
<polygon fill="midnightblue" stroke="midnightblue" points="1021.07,-130.713 1031.34,-133.305 1024.93,-124.872 1021.07,-130.713"/>
</g>
<!-- Node19 -->
<g id="node19" class="node"><title>Node19</title>
<g id="a_node19"><a xlink:href="a00011.html#ac0d919fcb7633d9bf5d99cc7ad39fe2e" target="_top" xlink:title="discovery_alloc_sid">
<polygon fill="none" stroke="black" points="291,-0.5 291,-19.5 393,-19.5 393,-0.5 291,-0.5"/>
<text text-anchor="middle" x="342" y="-7.5" font-family="Helvetica,sans-Serif" font-size="10.00">discovery_alloc_sid</text>
</a>
</g>
</g>
<!-- Node18&#45;&gt;Node19 -->
<g id="edge24" class="edge"><title>Node18&#45;&gt;Node19</title>
<path fill="none" stroke="midnightblue" d="M243.138,-10C255.256,-10 268.238,-10 280.655,-10"/>
<polygon fill="midnightblue" stroke="midnightblue" points="280.922,-13.5001 290.922,-10 280.922,-6.5001 280.922,-13.5001"/>
</g>
<!-- Node20 -->
<g id="node20" class="node"><title>Node20</title>
<g id="a_node20"><a xlink:href="a00065.html#a9788f216196637a4e9c0a0110e81bab1" target="_top" xlink:title="discovery_set_sid">
<polygon fill="none" stroke="black" points="433.5,-38.5 433.5,-57.5 528.5,-57.5 528.5,-38.5 433.5,-38.5"/>
<text text-anchor="middle" x="481" y="-45.5" font-family="Helvetica,sans-Serif" font-size="10.00">discovery_set_sid</text>
</a>
</g>
</g>
<!-- Node19&#45;&gt;Node20 -->
<g id="edge25" class="edge"><title>Node19&#45;&gt;Node20</title>
<path fill="none" stroke="midnightblue" d="M377.571,-19.589C395.175,-24.4719 416.779,-30.4643 435.601,-35.685"/>
<polygon fill="midnightblue" stroke="midnightblue" points="434.868,-39.1138 445.44,-38.4141 436.739,-32.3685 434.868,-39.1138"/>
</g>
<!-- Node23 -->
<g id="node23" class="node"><title>Node23</title>
<g id="a_node23"><a xlink:href="a00065.html#a8922de7d42124afa8ab5fd339fe695ee" target="_top" xlink:title="discovery_free_sid">
<polygon fill="none" stroke="black" points="753.5,-0.5 753.5,-19.5 851.5,-19.5 851.5,-0.5 753.5,-0.5"/>
<text text-anchor="middle" x="802.5" y="-7.5" font-family="Helvetica,sans-Serif" font-size="10.00">discovery_free_sid</text>
</a>
</g>
</g>
<!-- Node19&#45;&gt;Node23 -->
<g id="edge28" class="edge"><title>Node19&#45;&gt;Node23</title>
<path fill="none" stroke="midnightblue" d="M393.379,-10C479.058,-10 652.657,-10 743.351,-10"/>
<polygon fill="midnightblue" stroke="midnightblue" points="743.458,-13.5001 753.458,-10 743.458,-6.5001 743.458,-13.5001"/>
</g>
<!-- Node21 -->
<g id="node21" class="node"><title>Node21</title>
<g id="a_node21"><a xlink:href="a00065.html#acd5e8c2bf3e761abc7e2fd2294238a74" target="_top" xlink:title="discovery_set_did">
<polygon fill="none" stroke="black" points="592.5,-38.5 592.5,-57.5 687.5,-57.5 687.5,-38.5 592.5,-38.5"/>
<text text-anchor="middle" x="640" y="-45.5" font-family="Helvetica,sans-Serif" font-size="10.00">discovery_set_did</text>
</a>
</g>
</g>
<!-- Node20&#45;&gt;Node21 -->
<g id="edge26" class="edge"><title>Node20&#45;&gt;Node21</title>
<path fill="none" stroke="midnightblue" d="M528.68,-48C545.53,-48 564.734,-48 582.345,-48"/>
<polygon fill="midnightblue" stroke="midnightblue" points="582.5,-51.5001 592.5,-48 582.5,-44.5001 582.5,-51.5001"/>
</g>
<!-- Node22 -->
<g id="node22" class="node"><title>Node22</title>
<g id="a_node22"><a xlink:href="a00065.html#af2f553cfc3af4678b87a8fc75f35a5c6" target="_top" xlink:title="discovery_set_aid">
<polygon fill="none" stroke="black" points="755,-38.5 755,-57.5 850,-57.5 850,-38.5 755,-38.5"/>
<text text-anchor="middle" x="802.5" y="-45.5" font-family="Helvetica,sans-Serif" font-size="10.00">discovery_set_aid</text>
</a>
</g>
</g>
<!-- Node21&#45;&gt;Node22 -->
<g id="edge27" class="edge"><title>Node21&#45;&gt;Node22</title>
<path fill="none" stroke="midnightblue" d="M687.855,-48C705.655,-48 726.122,-48 744.74,-48"/>
<polygon fill="midnightblue" stroke="midnightblue" points="744.865,-51.5001 754.865,-48 744.864,-44.5001 744.865,-51.5001"/>
</g>
<!-- Node23&#45;&gt;Node11 -->
<g id="edge29" class="edge"><title>Node23&#45;&gt;Node11</title>
<path fill="none" stroke="midnightblue" d="M851.735,-15.2737C892.856,-21.7788 951.832,-36.0614 994,-67 1014.09,-81.7386 1028.85,-106.815 1037.29,-124.109"/>
<polygon fill="midnightblue" stroke="midnightblue" points="1034.15,-125.653 1041.53,-133.255 1040.5,-122.71 1034.15,-125.653"/>
</g>
</g>
</svg>
