<?xml version="1.0" encoding="UTF-8" standalone="no"?>
<!DOCTYPE svg PUBLIC "-//W3C//DTD SVG 1.1//EN"
 "http://www.w3.org/Graphics/SVG/1.1/DTD/svg11.dtd">
<!-- Generated by graphviz version 2.38.0 (20140413.2041)
 -->
<!-- Title: add_attr Pages: 1 -->
<!--zoomable 132 -->
<svg id="main" version="1.1" xmlns="http://www.w3.org/2000/svg" xmlns:xlink="http://www.w3.org/1999/xlink" xml:space="preserve" onload="init(evt)">
<style type="text/css"><![CDATA[
.edge:hover path { stroke: red; }
.edge:hover polygon { stroke: red; fill: red; }
]]></style>
<script type="text/javascript"><![CDATA[
var edges = document.getElementsByTagName('g');
if (edges && edges.length) {
  for (var i=0;i<edges.length;i++) {
    if (edges[i].id.substr(0,4)=='edge') {
      edges[i].setAttribute('class','edge');
    }
  }
}
]]></script>
        <defs>
                <circle id="rim" cx="0" cy="0" r="7"/>
                <circle id="rim2" cx="0" cy="0" r="3.5"/>
                <g id="zoomPlus">
                        <use xlink:href="#rim" fill="#404040">
                                <set attributeName="fill" to="#808080" begin="zoomplus.mouseover" end="zoomplus.mouseout"/>
                        </use>
                        <path d="M-4,0h8M0,-4v8" fill="none" stroke="white" stroke-width="1.5" pointer-events="none"/>
                </g>
                <g id="zoomMin">
                        <use xlink:href="#rim" fill="#404040">
                                <set attributeName="fill" to="#808080" begin="zoomminus.mouseover" end="zoomminus.mouseout"/>
                        </use>
                        <path d="M-4,0h8" fill="none" stroke="white" stroke-width="1.5" pointer-events="none"/>
                </g>
                <g id="dirArrow">
                        <path fill="none" stroke="white" stroke-width="1.5" d="M0,-3.0v7 M-2.5,-0.5L0,-3.0L2.5,-0.5"/>
                </g>
               <g id="resetDef">
                       <use xlink:href="#rim2" fill="#404040">
                               <set attributeName="fill" to="#808080" begin="reset.mouseover" end="reset.mouseout"/>
                       </use>
               </g>
        </defs>

<script type="text/javascript">
var viewWidth = 1597;
var viewHeight = 132;
var sectionId = 'dynsection-7';
</script>
<script xlink:href="svgpan.js"/>
<svg id="graph" class="graph">
<g id="viewport">
<title>add_attr</title>
<!-- Node1 -->
<g id="node1" class="node"><title>Node1</title>
<polygon fill="#bfbfbf" stroke="black" points="0,-47.5 0,-66.5 52,-66.5 52,-47.5 0,-47.5"/>
<text text-anchor="middle" x="26" y="-54.5" font-family="Helvetica,sans-Serif" font-size="10.00">add_attr</text>
</g>
<!-- Node2 -->
<g id="node2" class="node"><title>Node2</title>
<g id="a_node2"><a xlink:href="a00080.html#af86403a1e06bf3f39721b1cb53ee156a" target="_top" xlink:title="add_parameter">
<polygon fill="none" stroke="black" points="88,-104.5 88,-123.5 169,-123.5 169,-104.5 88,-104.5"/>
<text text-anchor="middle" x="128.5" y="-111.5" font-family="Helvetica,sans-Serif" font-size="10.00">add_parameter</text>
</a>
</g>
</g>
<!-- Node1&#45;&gt;Node2 -->
<g id="edge1" class="edge"><title>Node1&#45;&gt;Node2</title>
<path fill="none" stroke="midnightblue" d="M52.9815,-71.7358C71.1755,-82.0548 94.9555,-95.5419 110.703,-104.474"/>
<polygon fill="midnightblue" stroke="midnightblue" points="54.4735,-68.5583 44.0485,-66.6693 51.0201,-74.6472 54.4735,-68.5583"/>
</g>
<!-- Node4 -->
<g id="node4" class="node"><title>Node4</title>
<g id="a_node4"><a xlink:href="a00080.html#aa3eb7c0c809c6c24396cb9321b6b57dc" target="_top" xlink:title="add_service">
<polygon fill="none" stroke="black" points="327,-66.5 327,-85.5 396,-85.5 396,-66.5 327,-66.5"/>
<text text-anchor="middle" x="361.5" y="-73.5" font-family="Helvetica,sans-Serif" font-size="10.00">add_service</text>
</a>
</g>
</g>
<!-- Node1&#45;&gt;Node4 -->
<g id="edge14" class="edge"><title>Node1&#45;&gt;Node4</title>
<path fill="none" stroke="midnightblue" d="M62.1579,-59.003C126.746,-62.6827 263.469,-70.472 326.887,-74.085"/>
<polygon fill="midnightblue" stroke="midnightblue" points="62.2496,-55.5026 52.0667,-58.4281 61.8514,-62.4913 62.2496,-55.5026"/>
</g>
<!-- Node6 -->
<g id="node6" class="node"><title>Node6</title>
<g id="a_node6"><a xlink:href="a00080.html#a57ebcecdb1a111267049578c1d9c51de" target="_top" xlink:title="add_device">
<polygon fill="none" stroke="black" points="542,-28.5 542,-47.5 608,-47.5 608,-28.5 542,-28.5"/>
<text text-anchor="middle" x="575" y="-35.5" font-family="Helvetica,sans-Serif" font-size="10.00">add_device</text>
</a>
</g>
</g>
<!-- Node1&#45;&gt;Node6 -->
<g id="edge15" class="edge"><title>Node1&#45;&gt;Node6</title>
<path fill="none" stroke="midnightblue" d="M62.0438,-52.098C105.389,-46.4684 181.48,-38 247,-38 247,-38 247,-38 362.5,-38 426.023,-38 500.279,-38 541.751,-38"/>
<polygon fill="midnightblue" stroke="midnightblue" points="61.4682,-48.6435 52.0143,-53.4262 62.3873,-55.5829 61.4682,-48.6435"/>
</g>
<!-- Node8 -->
<g id="node8" class="node"><title>Node8</title>
<g id="a_node8"><a xlink:href="a00080.html#aa21890dddb121282884859a2c8bfd134" target="_top" xlink:title="add_adapter">
<polygon fill="none" stroke="black" points="751,-9.5 751,-28.5 821,-28.5 821,-9.5 751,-9.5"/>
<text text-anchor="middle" x="786" y="-16.5" font-family="Helvetica,sans-Serif" font-size="10.00">add_adapter</text>
</a>
</g>
</g>
<!-- Node1&#45;&gt;Node8 -->
<g id="edge16" class="edge"><title>Node1&#45;&gt;Node8</title>
<path fill="none" stroke="midnightblue" d="M58.0857,-43.6175C100.114,-26.7689 177.781,-6.57807e-15 247,-0 247,-0 247,-0 576,-0 637.756,-7.10543e-15 709.357,-8.32939 750.693,-13.9582"/>
<polygon fill="midnightblue" stroke="midnightblue" points="56.6194,-40.4357 48.6874,-47.4595 59.2682,-46.9152 56.6194,-40.4357"/>
</g>
<!-- Node3 -->
<g id="node3" class="node"><title>Node3</title>
<g id="a_node3"><a xlink:href="a00080.html#a6c449fb11af835a61a508faa1a37cb9e" target="_top" xlink:title="add_parameters">
<polygon fill="none" stroke="black" points="205,-104.5 205,-123.5 291,-123.5 291,-104.5 205,-104.5"/>
<text text-anchor="middle" x="248" y="-111.5" font-family="Helvetica,sans-Serif" font-size="10.00">add_parameters</text>
</a>
</g>
</g>
<!-- Node2&#45;&gt;Node3 -->
<g id="edge2" class="edge"><title>Node2&#45;&gt;Node3</title>
<path fill="none" stroke="midnightblue" d="M179.432,-114C187.896,-114 196.61,-114 204.849,-114"/>
<polygon fill="midnightblue" stroke="midnightblue" points="179.28,-110.5 169.28,-114 179.28,-117.5 179.28,-110.5"/>
</g>
<!-- Node3&#45;&gt;Node4 -->
<g id="edge3" class="edge"><title>Node3&#45;&gt;Node4</title>
<path fill="none" stroke="midnightblue" d="M286.634,-101.174C301.595,-96.0753 318.509,-90.3109 332.373,-85.5859"/>
<polygon fill="midnightblue" stroke="midnightblue" points="285.472,-97.8722 277.136,-104.411 287.731,-104.498 285.472,-97.8722"/>
</g>
<!-- Node5 -->
<g id="node5" class="node"><title>Node5</title>
<g id="a_node5"><a xlink:href="a00080.html#a2e3a16674e810068b936c145267184bb" target="_top" xlink:title="add_services">
<polygon fill="none" stroke="black" points="432,-66.5 432,-85.5 506,-85.5 506,-66.5 432,-66.5"/>
<text text-anchor="middle" x="469" y="-73.5" font-family="Helvetica,sans-Serif" font-size="10.00">add_services</text>
</a>
</g>
</g>
<!-- Node4&#45;&gt;Node5 -->
<g id="edge4" class="edge"><title>Node4&#45;&gt;Node5</title>
<path fill="none" stroke="midnightblue" d="M406.282,-76C414.75,-76 423.536,-76 431.732,-76"/>
<polygon fill="midnightblue" stroke="midnightblue" points="406.171,-72.5001 396.171,-76 406.171,-79.5001 406.171,-72.5001"/>
</g>
<!-- Node5&#45;&gt;Node6 -->
<g id="edge5" class="edge"><title>Node5&#45;&gt;Node6</title>
<path fill="none" stroke="midnightblue" d="M505.902,-62.882C519.657,-57.8561 535.08,-52.2209 547.765,-47.5859"/>
<polygon fill="midnightblue" stroke="midnightblue" points="504.435,-59.6916 496.244,-66.411 506.837,-66.2664 504.435,-59.6916"/>
</g>
<!-- Node7 -->
<g id="node7" class="node"><title>Node7</title>
<g id="a_node7"><a xlink:href="a00080.html#a4028efc20daa3dbda3727bcb6fdd0635" target="_top" xlink:title="add_devices">
<polygon fill="none" stroke="black" points="644,-28.5 644,-47.5 715,-47.5 715,-28.5 644,-28.5"/>
<text text-anchor="middle" x="679.5" y="-35.5" font-family="Helvetica,sans-Serif" font-size="10.00">add_devices</text>
</a>
</g>
</g>
<!-- Node6&#45;&gt;Node7 -->
<g id="edge6" class="edge"><title>Node6&#45;&gt;Node7</title>
<path fill="none" stroke="midnightblue" d="M618.329,-38C626.867,-38 635.746,-38 643.978,-38"/>
<polygon fill="midnightblue" stroke="midnightblue" points="618.15,-34.5001 608.15,-38 618.15,-41.5001 618.15,-34.5001"/>
</g>
<!-- Node7&#45;&gt;Node8 -->
<g id="edge7" class="edge"><title>Node7&#45;&gt;Node8</title>
<path fill="none" stroke="midnightblue" d="M724.99,-29.911C733.658,-28.3349 742.618,-26.7059 750.886,-25.2026"/>
<polygon fill="midnightblue" stroke="midnightblue" points="724.219,-26.4936 715.007,-31.726 725.472,-33.3806 724.219,-26.4936"/>
</g>
<!-- Node9 -->
<g id="node9" class="node"><title>Node9</title>
<g id="a_node9"><a xlink:href="a00080.html#a9a90e4e11e2111c0d0b29f277b1d24c4" target="_top" xlink:title="add_adapters">
<polygon fill="none" stroke="black" points="857,-9.5 857,-28.5 932,-28.5 932,-9.5 857,-9.5"/>
<text text-anchor="middle" x="894.5" y="-16.5" font-family="Helvetica,sans-Serif" font-size="10.00">add_adapters</text>
</a>
</g>
</g>
<!-- Node8&#45;&gt;Node9 -->
<g id="edge8" class="edge"><title>Node8&#45;&gt;Node9</title>
<path fill="none" stroke="midnightblue" d="M831.362,-19C839.797,-19 848.538,-19 856.707,-19"/>
<polygon fill="midnightblue" stroke="midnightblue" points="831.284,-15.5001 821.283,-19 831.283,-22.5001 831.284,-15.5001"/>
</g>
<!-- Node10 -->
<g id="node10" class="node"><title>Node10</title>
<g id="a_node10"><a xlink:href="a00080.html#ab8e279d4c33ab258d7118b3e2f28400e" target="_top" xlink:title="add_configuration">
<polygon fill="none" stroke="black" points="968,-9.5 968,-28.5 1061,-28.5 1061,-9.5 968,-9.5"/>
<text text-anchor="middle" x="1014.5" y="-16.5" font-family="Helvetica,sans-Serif" font-size="10.00">add_configuration</text>
</a>
</g>
</g>
<!-- Node9&#45;&gt;Node10 -->
<g id="edge9" class="edge"><title>Node9&#45;&gt;Node10</title>
<path fill="none" stroke="midnightblue" d="M942.197,-19C950.582,-19 959.315,-19 967.675,-19"/>
<polygon fill="midnightblue" stroke="midnightblue" points="942.189,-15.5001 932.189,-19 942.189,-22.5001 942.189,-15.5001"/>
</g>
<!-- Node11 -->
<g id="node11" class="node"><title>Node11</title>
<g id="a_node11"><a xlink:href="a00081.html#a0f69305250a2916043c87e8e3865b28d" target="_top" xlink:title="hpd_rest_json_get_configuration">
<polygon fill="none" stroke="black" points="1097,-9.5 1097,-28.5 1254,-28.5 1254,-9.5 1097,-9.5"/>
<text text-anchor="middle" x="1175.5" y="-16.5" font-family="Helvetica,sans-Serif" font-size="10.00">hpd_rest_json_get_configuration</text>
</a>
</g>
</g>
<!-- Node10&#45;&gt;Node11 -->
<g id="edge10" class="edge"><title>Node10&#45;&gt;Node11</title>
<path fill="none" stroke="midnightblue" d="M1071.3,-19C1079.56,-19 1088.19,-19 1096.8,-19"/>
<polygon fill="midnightblue" stroke="midnightblue" points="1071.06,-15.5001 1061.06,-19 1071.06,-22.5001 1071.06,-15.5001"/>
</g>
<!-- Node12 -->
<g id="node12" class="node"><title>Node12</title>
<g id="a_node12"><a xlink:href="a00025.html#a144860c2e3dfe3d8d9fd021968bbd8ff" target="_top" xlink:title="reply_devices">
<polygon fill="none" stroke="black" points="1290,-9.5 1290,-28.5 1367,-28.5 1367,-9.5 1290,-9.5"/>
<text text-anchor="middle" x="1328.5" y="-16.5" font-family="Helvetica,sans-Serif" font-size="10.00">reply_devices</text>
</a>
</g>
</g>
<!-- Node11&#45;&gt;Node12 -->
<g id="edge11" class="edge"><title>Node11&#45;&gt;Node12</title>
<path fill="none" stroke="midnightblue" d="M1264.36,-19C1273.29,-19 1281.98,-19 1289.91,-19"/>
<polygon fill="midnightblue" stroke="midnightblue" points="1264.21,-15.5001 1254.21,-19 1264.21,-22.5001 1264.21,-15.5001"/>
</g>
<!-- Node13 -->
<g id="node13" class="node"><title>Node13</title>
<g id="a_node13"><a xlink:href="a00025.html#abd6f4422cb70766aae33a18dc6b6cb74" target="_top" xlink:title="on_req_hdr_cmpl">
<polygon fill="none" stroke="black" points="1403,-9.5 1403,-28.5 1494,-28.5 1494,-9.5 1403,-9.5"/>
<text text-anchor="middle" x="1448.5" y="-16.5" font-family="Helvetica,sans-Serif" font-size="10.00">on_req_hdr_cmpl</text>
</a>
</g>
</g>
<!-- Node12&#45;&gt;Node13 -->
<g id="edge12" class="edge"><title>Node12&#45;&gt;Node13</title>
<path fill="none" stroke="midnightblue" d="M1377.24,-19C1385.68,-19 1394.43,-19 1402.78,-19"/>
<polygon fill="midnightblue" stroke="midnightblue" points="1377.16,-15.5001 1367.16,-19 1377.16,-22.5001 1377.16,-15.5001"/>
</g>
<!-- Node14 -->
<g id="node14" class="node"><title>Node14</title>
<g id="a_node14"><a xlink:href="a00025.html#ad079431c7eba97c5dd5e4e202cdf6102" target="_top" xlink:title="on_create">
<polygon fill="none" stroke="black" points="1530,-9.5 1530,-28.5 1589,-28.5 1589,-9.5 1530,-9.5"/>
<text text-anchor="middle" x="1559.5" y="-16.5" font-family="Helvetica,sans-Serif" font-size="10.00">on_create</text>
</a>
</g>
</g>
<!-- Node13&#45;&gt;Node14 -->
<g id="edge13" class="edge"><title>Node13&#45;&gt;Node14</title>
<path fill="none" stroke="midnightblue" d="M1504.18,-19C1513.11,-19 1522.04,-19 1530,-19"/>
<polygon fill="midnightblue" stroke="midnightblue" points="1504.15,-15.5001 1494.15,-19 1504.15,-22.5001 1504.15,-15.5001"/>
</g>
</g>
</svg>
        <g id="navigator" transform="translate(0 0)" fill="#404254">
                <rect fill="#f2f5e9" fill-opacity="0.5" stroke="#606060" stroke-width=".5" x="0" y="0" width="60" height="60"/>
                <use id="zoomplus" xlink:href="#zoomPlus" x="17" y="9" onmousedown="handleZoom(evt,'in')"/>
                <use id="zoomminus" xlink:href="#zoomMin" x="42" y="9" onmousedown="handleZoom(evt,'out')"/>
                <use id="reset" xlink:href="#resetDef" x="30" y="36" onmousedown="handleReset()"/>
                <g id="arrowUp" xlink:href="#dirArrow" transform="translate(30 24)" onmousedown="handlePan(0,-1)">
                  <use xlink:href="#rim" fill="#404040">
                        <set attributeName="fill" to="#808080" begin="arrowUp.mouseover" end="arrowUp.mouseout"/>
                  </use>
                  <path fill="none" stroke="white" stroke-width="1.5" d="M0,-3.0v7 M-2.5,-0.5L0,-3.0L2.5,-0.5"/>
                </g>
                <g id="arrowRight" xlink:href="#dirArrow" transform="rotate(90) translate(36 -43)" onmousedown="handlePan(1,0)">
                  <use xlink:href="#rim" fill="#404040">
                        <set attributeName="fill" to="#808080" begin="arrowRight.mouseover" end="arrowRight.mouseout"/>
                  </use>
                  <path fill="none" stroke="white" stroke-width="1.5" d="M0,-3.0v7 M-2.5,-0.5L0,-3.0L2.5,-0.5"/>
                </g>
                <g id="arrowDown" xlink:href="#dirArrow" transform="rotate(180) translate(-30 -48)" onmousedown="handlePan(0,1)">
                  <use xlink:href="#rim" fill="#404040">
                        <set attributeName="fill" to="#808080" begin="arrowDown.mouseover" end="arrowDown.mouseout"/>
                  </use>
                  <path fill="none" stroke="white" stroke-width="1.5" d="M0,-3.0v7 M-2.5,-0.5L0,-3.0L2.5,-0.5"/>
                </g>
                <g id="arrowLeft" xlink:href="#dirArrow" transform="rotate(270) translate(-36 17)" onmousedown="handlePan(-1,0)">
                  <use xlink:href="#rim" fill="#404040">
                        <set attributeName="fill" to="#808080" begin="arrowLeft.mouseover" end="arrowLeft.mouseout"/>
                  </use>
                  <path fill="none" stroke="white" stroke-width="1.5" d="M0,-3.0v7 M-2.5,-0.5L0,-3.0L2.5,-0.5"/>
                </g>
        </g>
        <svg viewBox="0 0 15 15" width="100%" height="30px" preserveAspectRatio="xMaxYMin meet">
         <g id="arrow_out" transform="scale(0.3 0.3)">
          <a xlink:href="a00080_ae8f63d2ca9864211a681b077c4431a33_icgraph_org.svg" target="_base">
           <rect id="button" ry="5" rx="5" y="6" x="6" height="38" width="38"
                fill="#f2f5e9" fill-opacity="0.5" stroke="#606060" stroke-width="1.0"/>
           <path id="arrow"
             d="M 11.500037,31.436501 C 11.940474,20.09759 22.043105,11.32322 32.158766,21.979434 L 37.068811,17.246167 C 37.068811,17.246167 37.088388,32 37.088388,32 L 22.160133,31.978069 C 22.160133,31.978069 26.997745,27.140456 26.997745,27.140456 C 18.528582,18.264221 13.291696,25.230495 11.500037,31.436501 z"
             style="fill:#404040;"/>
          </a>
         </g>
        </svg>
</svg>
