<?xml version="1.0" encoding="UTF-8" standalone="no"?>
<!DOCTYPE svg PUBLIC "-//W3C//DTD SVG 1.1//EN"
 "http://www.w3.org/Graphics/SVG/1.1/DTD/svg11.dtd">
<!-- Generated by graphviz version 2.38.0 (20140413.2041)
 -->
<!-- Title: rest_json_add_adapter Pages: 1 -->
<!--zoomable 775 -->
<svg id="main" version="1.1" xmlns="http://www.w3.org/2000/svg" xmlns:xlink="http://www.w3.org/1999/xlink" xml:space="preserve" onload="init(evt)">
<style type="text/css"><![CDATA[
.edge:hover path { stroke: red; }
.edge:hover polygon { stroke: red; fill: red; }
]]></style>
<script type="text/javascript"><![CDATA[
var edges = document.getElementsByTagName('g');
if (edges && edges.length) {
  for (var i=0;i<edges.length;i++) {
    if (edges[i].id.substr(0,4)=='edge') {
      edges[i].setAttribute('class','edge');
    }
  }
}
]]></script>
        <defs>
                <circle id="rim" cx="0" cy="0" r="7"/>
                <circle id="rim2" cx="0" cy="0" r="3.5"/>
                <g id="zoomPlus">
                        <use xlink:href="#rim" fill="#404040">
                                <set attributeName="fill" to="#808080" begin="zoomplus.mouseover" end="zoomplus.mouseout"/>
                        </use>
                        <path d="M-4,0h8M0,-4v8" fill="none" stroke="white" stroke-width="1.5" pointer-events="none"/>
                </g>
                <g id="zoomMin">
                        <use xlink:href="#rim" fill="#404040">
                                <set attributeName="fill" to="#808080" begin="zoomminus.mouseover" end="zoomminus.mouseout"/>
                        </use>
                        <path d="M-4,0h8" fill="none" stroke="white" stroke-width="1.5" pointer-events="none"/>
                </g>
                <g id="dirArrow">
                        <path fill="none" stroke="white" stroke-width="1.5" d="M0,-3.0v7 M-2.5,-0.5L0,-3.0L2.5,-0.5"/>
                </g>
               <g id="resetDef">
                       <use xlink:href="#rim2" fill="#404040">
                               <set attributeName="fill" to="#808080" begin="reset.mouseover" end="reset.mouseout"/>
                       </use>
               </g>
        </defs>

<script type="text/javascript">
var viewWidth = 1660;
var viewHeight = 775;
var sectionId = 'dynsection-7';
</script>
<script xlink:href="svgpan.js"/>
<svg id="graph" class="graph">
<g id="viewport">
<title>rest_json_add_adapter</title>
<!-- Node1 -->
<g id="node1" class="node"><title>Node1</title>
<polygon fill="#bfbfbf" stroke="black" points="0,-353.5 0,-372.5 115,-372.5 115,-353.5 0,-353.5"/>
<text text-anchor="middle" x="57.5" y="-360.5" font-family="Helvetica,sans-Serif" font-size="10.00">rest_json_add_adapter</text>
</g>
<!-- Node2 -->
<g id="node2" class="node"><title>Node2</title>
<g id="a_node2"><a xlink:href="a00075.html#afd02a1458a4f43210ef9ad2ca1cd92b2" target="_top" xlink:title="[id_t functions] ">
<polygon fill="none" stroke="black" points="934.5,-690.5 934.5,-709.5 1035.5,-709.5 1035.5,-690.5 934.5,-690.5"/>
<text text-anchor="middle" x="985" y="-697.5" font-family="Helvetica,sans-Serif" font-size="10.00">hpd_adapter_get_id</text>
</a>
</g>
</g>
<!-- Node1&#45;&gt;Node2 -->
<g id="edge1" class="edge"><title>Node1&#45;&gt;Node2</title>
<path fill="none" stroke="midnightblue" d="M63.7343,-372.761C89.2042,-418.798 205.168,-612 357.5,-612 357.5,-612 357.5,-612 663,-612 773.933,-612 899.002,-661.486 954.624,-686.24"/>
<polygon fill="midnightblue" stroke="midnightblue" points="953.319,-689.491 963.873,-690.415 956.199,-683.111 953.319,-689.491"/>
</g>
<!-- Node5 -->
<g id="node5" class="node"><title>Node5</title>
<g id="a_node5"><a xlink:href="a00096.html#ae4e968e97aed037e4fa91cd31ae27a42" target="_top" xlink:title="rest_json_add">
<polygon fill="none" stroke="black" points="1279,-66.5 1279,-85.5 1356,-85.5 1356,-66.5 1279,-66.5"/>
<text text-anchor="middle" x="1317.5" y="-73.5" font-family="Helvetica,sans-Serif" font-size="10.00">rest_json_add</text>
</a>
</g>
</g>
<!-- Node1&#45;&gt;Node5 -->
<g id="edge4" class="edge"><title>Node1&#45;&gt;Node5</title>
<path fill="none" stroke="midnightblue" d="M61.1015,-353.291C77.2101,-295.563 168.895,-0 357.5,-0 357.5,-0 357.5,-0 986,-0 1087.93,-0 1113.38,-13.2308 1212,-39 1236.48,-45.3976 1263.38,-54.9839 1283.76,-62.7957"/>
<polygon fill="midnightblue" stroke="midnightblue" points="1282.61,-66.1041 1293.2,-66.4663 1285.15,-59.58 1282.61,-66.1041"/>
</g>
<!-- Node6 -->
<g id="node6" class="node"><title>Node6</title>
<g id="a_node6"><a xlink:href="a00096.html#afde08d12e91a7aeff9f4a4691a0f5f6b" target="_top" xlink:title="rest_json_add_attr">
<polygon fill="none" stroke="black" points="1099.5,-192.5 1099.5,-211.5 1196.5,-211.5 1196.5,-192.5 1099.5,-192.5"/>
<text text-anchor="middle" x="1148" y="-199.5" font-family="Helvetica,sans-Serif" font-size="10.00">rest_json_add_attr</text>
</a>
</g>
</g>
<!-- Node1&#45;&gt;Node6 -->
<g id="edge5" class="edge"><title>Node1&#45;&gt;Node6</title>
<path fill="none" stroke="midnightblue" d="M115.22,-361.859C157.196,-360.698 215.741,-358.411 267,-354 327.32,-348.809 470.942,-333.555 886,-273 958.158,-262.473 978.184,-268.053 1048,-247 1073.63,-239.271 1101.24,-226.298 1120.77,-216.262"/>
<polygon fill="midnightblue" stroke="midnightblue" points="1122.43,-219.344 1129.67,-211.607 1119.19,-213.142 1122.43,-219.344"/>
</g>
<!-- Node8 -->
<g id="node8" class="node"><title>Node8</title>
<g id="a_node8"><a xlink:href="a00096.html#ad6d08cc22d78268f5dc0b229af37c54c" target="_top" xlink:title="rest_json_add_devices">
<polygon fill="none" stroke="black" points="151,-325.5 151,-344.5 267,-344.5 267,-325.5 151,-325.5"/>
<text text-anchor="middle" x="209" y="-332.5" font-family="Helvetica,sans-Serif" font-size="10.00">rest_json_add_devices</text>
</a>
</g>
</g>
<!-- Node1&#45;&gt;Node8 -->
<g id="edge8" class="edge"><title>Node1&#45;&gt;Node8</title>
<path fill="none" stroke="midnightblue" d="M109.531,-353.442C121.679,-351.167 134.759,-348.717 147.292,-346.37"/>
<polygon fill="midnightblue" stroke="midnightblue" points="148.014,-349.796 157.199,-344.515 146.725,-342.915 148.014,-349.796"/>
</g>
<!-- Node3 -->
<g id="node3" class="node"><title>Node3</title>
<g id="a_node3"><a xlink:href="a00020.html#adbc376ab1130f0595796c540f0b5e515" target="_top" xlink:title="discovery_find_adapter">
<polygon fill="none" stroke="black" points="1089.5,-747.5 1089.5,-766.5 1206.5,-766.5 1206.5,-747.5 1089.5,-747.5"/>
<text text-anchor="middle" x="1148" y="-754.5" font-family="Helvetica,sans-Serif" font-size="10.00">discovery_find_adapter</text>
</a>
</g>
</g>
<!-- Node2&#45;&gt;Node3 -->
<g id="edge2" class="edge"><title>Node2&#45;&gt;Node3</title>
<path fill="none" stroke="midnightblue" d="M1009.18,-709.569C1028.92,-717.578 1058.12,-729.094 1084,-738 1090.39,-740.198 1097.18,-742.394 1103.86,-744.472"/>
<polygon fill="midnightblue" stroke="midnightblue" points="1102.91,-747.841 1113.5,-747.418 1104.96,-741.147 1102.91,-747.841"/>
</g>
<!-- Node4 -->
<g id="node4" class="node"><title>Node4</title>
<g id="a_node4"><a xlink:href="a00078.html#af7f7554fd8858506bf900674f0dd07be" target="_top" xlink:title="discovery_get_adapter_id">
<polygon fill="none" stroke="black" points="1084,-709.5 1084,-728.5 1212,-728.5 1212,-709.5 1084,-709.5"/>
<text text-anchor="middle" x="1148" y="-716.5" font-family="Helvetica,sans-Serif" font-size="10.00">discovery_get_adapter_id</text>
</a>
</g>
</g>
<!-- Node2&#45;&gt;Node4 -->
<g id="edge3" class="edge"><title>Node2&#45;&gt;Node4</title>
<path fill="none" stroke="midnightblue" d="M1035.62,-705.856C1047.65,-707.275 1060.76,-708.823 1073.63,-710.341"/>
<polygon fill="midnightblue" stroke="midnightblue" points="1073.53,-713.854 1083.87,-711.55 1074.35,-706.902 1073.53,-713.854"/>
</g>
<!-- Node6&#45;&gt;Node5 -->
<g id="edge7" class="edge"><title>Node6&#45;&gt;Node5</title>
<path fill="none" stroke="midnightblue" d="M1177.77,-192.421C1189.46,-187.442 1202.43,-180.397 1212,-171 1236.96,-146.483 1221.76,-124.143 1248,-101 1254.21,-95.5224 1261.72,-91.2118 1269.46,-87.8295"/>
<polygon fill="midnightblue" stroke="midnightblue" points="1270.88,-91.0307 1278.94,-84.1482 1268.35,-84.5054 1270.88,-91.0307"/>
</g>
<!-- Node7 -->
<g id="node7" class="node"><title>Node7</title>
<g id="a_node7"><a xlink:href="a00056.html#a234fa0db60fda58722702273bf7e82a2" target="_top" xlink:title="hpd_pair_get">
<polygon fill="none" stroke="black" points="1281.5,-192.5 1281.5,-211.5 1353.5,-211.5 1353.5,-192.5 1281.5,-192.5"/>
<text text-anchor="middle" x="1317.5" y="-199.5" font-family="Helvetica,sans-Serif" font-size="10.00">hpd_pair_get</text>
</a>
</g>
</g>
<!-- Node6&#45;&gt;Node7 -->
<g id="edge6" class="edge"><title>Node6&#45;&gt;Node7</title>
<path fill="none" stroke="midnightblue" d="M1196.55,-202C1219.95,-202 1248.02,-202 1271.12,-202"/>
<polygon fill="midnightblue" stroke="midnightblue" points="1271.35,-205.5 1281.35,-202 1271.35,-198.5 1271.35,-205.5"/>
</g>
<!-- Node9 -->
<g id="node9" class="node"><title>Node9</title>
<g id="a_node9"><a xlink:href="a00096.html#a41c2f37e46c89b97a3b4f5bb4e8ede49" target="_top" xlink:title="rest_json_add_device">
<polygon fill="none" stroke="black" points="303,-306.5 303,-325.5 414,-325.5 414,-306.5 303,-306.5"/>
<text text-anchor="middle" x="358.5" y="-313.5" font-family="Helvetica,sans-Serif" font-size="10.00">rest_json_add_device</text>
</a>
</g>
</g>
<!-- Node8&#45;&gt;Node9 -->
<g id="edge9" class="edge"><title>Node8&#45;&gt;Node9</title>
<path fill="none" stroke="midnightblue" d="M267.027,-327.654C275.327,-326.585 283.924,-325.478 292.369,-324.39"/>
<polygon fill="midnightblue" stroke="midnightblue" points="293.092,-327.826 302.563,-323.077 292.198,-320.883 293.092,-327.826"/>
</g>
<!-- Node9&#45;&gt;Node5 -->
<g id="edge13" class="edge"><title>Node9&#45;&gt;Node5</title>
<path fill="none" stroke="midnightblue" d="M363.856,-306.431C386.829,-257.547 499.023,-38 661,-38 661,-38 661,-38 986,-38 1087.21,-38 1204.73,-55.807 1268.8,-67.0415"/>
<polygon fill="midnightblue" stroke="midnightblue" points="1268.53,-70.5489 1278.99,-68.8525 1269.76,-63.6568 1268.53,-70.5489"/>
</g>
<!-- Node9&#45;&gt;Node6 -->
<g id="edge14" class="edge"><title>Node9&#45;&gt;Node6</title>
<path fill="none" stroke="midnightblue" d="M414.157,-310.024C530.94,-296.948 813.282,-263.688 1048,-223 1063.33,-220.342 1079.9,-217.01 1095.02,-213.788"/>
<polygon fill="midnightblue" stroke="midnightblue" points="1096.19,-217.117 1105.23,-211.585 1094.71,-210.275 1096.19,-217.117"/>
</g>
<!-- Node10 -->
<g id="node10" class="node"><title>Node10</title>
<g id="a_node10"><a xlink:href="a00075.html#a7d1ad44eb960013e7af0d33f8fed3f6b" target="_top" xlink:title="[hpd_adapter_t functions] ">
<polygon fill="none" stroke="black" points="936,-630.5 936,-649.5 1034,-649.5 1034,-630.5 936,-630.5"/>
<text text-anchor="middle" x="985" y="-637.5" font-family="Helvetica,sans-Serif" font-size="10.00">hpd_device_get_id</text>
</a>
</g>
</g>
<!-- Node9&#45;&gt;Node10 -->
<g id="edge10" class="edge"><title>Node9&#45;&gt;Node10</title>
<path fill="none" stroke="midnightblue" d="M376.753,-325.721C445,-364.044 703.05,-507.706 922,-613 931.522,-617.579 942.012,-622.276 951.612,-626.441"/>
<polygon fill="midnightblue" stroke="midnightblue" points="950.278,-629.677 960.847,-630.406 953.039,-623.245 950.278,-629.677"/>
</g>
<!-- Node13 -->
<g id="node13" class="node"><title>Node13</title>
<g id="a_node13"><a xlink:href="a00096.html#acedf1d82686baa037179bbc8eff51293" target="_top" xlink:title="rest_json_add_services">
<polygon fill="none" stroke="black" points="450,-230.5 450,-249.5 569,-249.5 569,-230.5 450,-230.5"/>
<text text-anchor="middle" x="509.5" y="-237.5" font-family="Helvetica,sans-Serif" font-size="10.00">rest_json_add_services</text>
</a>
</g>
</g>
<!-- Node9&#45;&gt;Node13 -->
<g id="edge15" class="edge"><title>Node9&#45;&gt;Node13</title>
<path fill="none" stroke="midnightblue" d="M378.371,-306.375C404.233,-293.183 450.874,-269.393 480.727,-254.166"/>
<polygon fill="midnightblue" stroke="midnightblue" points="482.464,-257.209 489.782,-249.547 479.284,-250.973 482.464,-257.209"/>
</g>
<!-- Node11 -->
<g id="node11" class="node"><title>Node11</title>
<g id="a_node11"><a xlink:href="a00020.html#af178de2e51304e31fefe0ae13d2481ab" target="_top" xlink:title="discovery_find_device">
<polygon fill="none" stroke="black" points="1091.5,-671.5 1091.5,-690.5 1204.5,-690.5 1204.5,-671.5 1091.5,-671.5"/>
<text text-anchor="middle" x="1148" y="-678.5" font-family="Helvetica,sans-Serif" font-size="10.00">discovery_find_device</text>
</a>
</g>
</g>
<!-- Node10&#45;&gt;Node11 -->
<g id="edge11" class="edge"><title>Node10&#45;&gt;Node11</title>
<path fill="none" stroke="midnightblue" d="M1023.34,-649.509C1046.12,-655.31 1075.44,-662.778 1099.82,-668.985"/>
<polygon fill="midnightblue" stroke="midnightblue" points="1099.03,-672.395 1109.58,-671.471 1100.76,-665.612 1099.03,-672.395"/>
</g>
<!-- Node12 -->
<g id="node12" class="node"><title>Node12</title>
<g id="a_node12"><a xlink:href="a00078.html#a01d64284d4ff469a8dffa0260a92eea2" target="_top" xlink:title="discovery_get_device_id">
<polygon fill="none" stroke="black" points="1086,-633.5 1086,-652.5 1210,-652.5 1210,-633.5 1086,-633.5"/>
<text text-anchor="middle" x="1148" y="-640.5" font-family="Helvetica,sans-Serif" font-size="10.00">discovery_get_device_id</text>
</a>
</g>
</g>
<!-- Node10&#45;&gt;Node12 -->
<g id="edge12" class="edge"><title>Node10&#45;&gt;Node12</title>
<path fill="none" stroke="midnightblue" d="M1034.31,-640.9C1047.35,-641.143 1061.74,-641.411 1075.76,-641.672"/>
<polygon fill="midnightblue" stroke="midnightblue" points="1075.81,-645.174 1085.87,-641.861 1075.94,-638.175 1075.81,-645.174"/>
</g>
<!-- Node14 -->
<g id="node14" class="node"><title>Node14</title>
<g id="a_node14"><a xlink:href="a00096.html#aa6c7dd70ed7b9b3a371a58ed6122b940" target="_top" xlink:title="rest_json_add_service">
<polygon fill="none" stroke="black" points="605,-211.5 605,-230.5 719,-230.5 719,-211.5 605,-211.5"/>
<text text-anchor="middle" x="662" y="-218.5" font-family="Helvetica,sans-Serif" font-size="10.00">rest_json_add_service</text>
</a>
</g>
</g>
<!-- Node13&#45;&gt;Node14 -->
<g id="edge16" class="edge"><title>Node13&#45;&gt;Node14</title>
<path fill="none" stroke="midnightblue" d="M569.118,-232.6C577.542,-231.536 586.258,-230.436 594.816,-229.355"/>
<polygon fill="midnightblue" stroke="midnightblue" points="595.279,-232.825 604.762,-228.1 594.402,-225.88 595.279,-232.825"/>
</g>
<!-- Node14&#45;&gt;Node5 -->
<g id="edge20" class="edge"><title>Node14&#45;&gt;Node5</title>
<path fill="none" stroke="midnightblue" d="M666.764,-211.409C676.814,-187.292 706.834,-124.248 755,-99 843.389,-52.6677 1149.08,-65.6981 1268.33,-72.8027"/>
<polygon fill="midnightblue" stroke="midnightblue" points="1268.41,-76.3141 1278.61,-73.428 1268.84,-69.327 1268.41,-76.3141"/>
</g>
<!-- Node14&#45;&gt;Node6 -->
<g id="edge49" class="edge"><title>Node14&#45;&gt;Node6</title>
<path fill="none" stroke="midnightblue" d="M719.468,-218.783C812.124,-215.146 995.465,-207.949 1089.07,-204.274"/>
<polygon fill="midnightblue" stroke="midnightblue" points="1089.35,-207.766 1099.21,-203.876 1089.08,-200.771 1089.35,-207.766"/>
</g>
<!-- Node15 -->
<g id="node15" class="node"><title>Node15</title>
<g id="a_node15"><a xlink:href="a00075.html#a5537ebbc8e732a33b7cf084b86b61a4e" target="_top" xlink:title="[hpd_device_t functions] ">
<polygon fill="none" stroke="black" points="934.5,-306.5 934.5,-325.5 1035.5,-325.5 1035.5,-306.5 934.5,-306.5"/>
<text text-anchor="middle" x="985" y="-313.5" font-family="Helvetica,sans-Serif" font-size="10.00">hpd_service_get_id</text>
</a>
</g>
</g>
<!-- Node14&#45;&gt;Node15 -->
<g id="edge17" class="edge"><title>Node14&#45;&gt;Node15</title>
<path fill="none" stroke="midnightblue" d="M719.197,-227.136C765.036,-233.247 830.97,-244.586 886,-264 912.848,-273.472 941.364,-289.342 960.671,-301.063"/>
<polygon fill="midnightblue" stroke="midnightblue" points="959.015,-304.155 969.361,-306.438 962.697,-298.201 959.015,-304.155"/>
</g>
<!-- Node18 -->
<g id="node18" class="node"><title>Node18</title>
<g id="a_node18"><a xlink:href="a00034.html#ae30c92f3bb2ebffcbb82054ad60c1ac5" target="_top" xlink:title="hpd_rest_url_create">
<polygon fill="none" stroke="black" points="769.5,-420.5 769.5,-439.5 871.5,-439.5 871.5,-420.5 769.5,-420.5"/>
<text text-anchor="middle" x="820.5" y="-427.5" font-family="Helvetica,sans-Serif" font-size="10.00">hpd_rest_url_create</text>
</a>
</g>
</g>
<!-- Node14&#45;&gt;Node18 -->
<g id="edge21" class="edge"><title>Node14&#45;&gt;Node18</title>
<path fill="none" stroke="midnightblue" d="M670.131,-230.523C694.471,-263.029 774.518,-369.928 806.312,-412.388"/>
<polygon fill="midnightblue" stroke="midnightblue" points="803.531,-414.514 812.327,-420.421 809.135,-410.318 803.531,-414.514"/>
</g>
<!-- Node24 -->
<g id="node24" class="node"><title>Node24</title>
<g id="a_node24"><a xlink:href="a00012.html#adf46370d9c211c3be22966b4606ba9b0" target="_top" xlink:title="free">
<polygon fill="none" stroke="black" points="1588,-477.5 1588,-496.5 1621,-496.5 1621,-477.5 1588,-477.5"/>
<text text-anchor="middle" x="1604.5" y="-484.5" font-family="Helvetica,sans-Serif" font-size="10.00">free</text>
</a>
</g>
</g>
<!-- Node14&#45;&gt;Node24 -->
<g id="edge46" class="edge"><title>Node14&#45;&gt;Node24</title>
<path fill="none" stroke="midnightblue" d="M683.77,-230.634C702.38,-239.23 730.446,-252.103 755,-263 828.879,-295.785 843.6,-315.344 922,-335 1019.34,-359.405 1046.64,-354 1147,-354 1147,-354 1147,-354 1318.5,-354 1412,-354 1439.37,-365.406 1521,-411 1548.32,-426.261 1573.85,-452.311 1589.07,-469.591"/>
<polygon fill="midnightblue" stroke="midnightblue" points="1586.51,-471.977 1595.68,-477.283 1591.82,-467.416 1586.51,-471.977"/>
</g>
<!-- Node35 -->
<g id="node35" class="node"><title>Node35</title>
<g id="a_node35"><a xlink:href="a00075.html#a7a562b3767c599041b288d9aeb5cf487" target="_top" xlink:title="[model foreach loops] ">
<polygon fill="none" stroke="black" points="760.5,-151.5 760.5,-170.5 880.5,-170.5 880.5,-151.5 760.5,-151.5"/>
<text text-anchor="middle" x="820.5" y="-158.5" font-family="Helvetica,sans-Serif" font-size="10.00">hpd_action_get_method</text>
</a>
</g>
</g>
<!-- Node14&#45;&gt;Node35 -->
<g id="edge47" class="edge"><title>Node14&#45;&gt;Node35</title>
<path fill="none" stroke="midnightblue" d="M687.798,-211.493C714.048,-201.429 755.673,-185.471 785.091,-174.192"/>
<polygon fill="midnightblue" stroke="midnightblue" points="786.475,-177.41 794.56,-170.562 783.969,-170.874 786.475,-177.41"/>
</g>
<!-- Node37 -->
<g id="node37" class="node"><title>Node37</title>
<g id="a_node37"><a xlink:href="a00096.html#a29dd9572008f1f083b15f6867f0dfad4" target="_top" xlink:title="rest_json_add_parameters">
<polygon fill="none" stroke="black" points="755,-108.5 755,-127.5 886,-127.5 886,-108.5 755,-108.5"/>
<text text-anchor="middle" x="820.5" y="-115.5" font-family="Helvetica,sans-Serif" font-size="10.00">rest_json_add_parameters</text>
</a>
</g>
</g>
<!-- Node14&#45;&gt;Node37 -->
<g id="edge50" class="edge"><title>Node14&#45;&gt;Node37</title>
<path fill="none" stroke="midnightblue" d="M671.809,-211.495C687.273,-195.287 720.908,-162.107 755,-142 761.947,-137.903 769.714,-134.298 777.387,-131.21"/>
<polygon fill="midnightblue" stroke="midnightblue" points="778.872,-134.391 786.986,-127.578 776.395,-127.844 778.872,-134.391"/>
</g>
<!-- Node16 -->
<g id="node16" class="node"><title>Node16</title>
<g id="a_node16"><a xlink:href="a00020.html#a6ca3b5d1e545bf48e3f2b57c3e323831" target="_top" xlink:title="discovery_find_service">
<polygon fill="none" stroke="black" points="1090,-306.5 1090,-325.5 1206,-325.5 1206,-306.5 1090,-306.5"/>
<text text-anchor="middle" x="1148" y="-313.5" font-family="Helvetica,sans-Serif" font-size="10.00">discovery_find_service</text>
</a>
</g>
</g>
<!-- Node15&#45;&gt;Node16 -->
<g id="edge18" class="edge"><title>Node15&#45;&gt;Node16</title>
<path fill="none" stroke="midnightblue" d="M1035.62,-316C1049.58,-316 1065.01,-316 1079.81,-316"/>
<polygon fill="midnightblue" stroke="midnightblue" points="1079.94,-319.5 1089.94,-316 1079.94,-312.5 1079.94,-319.5"/>
</g>
<!-- Node17 -->
<g id="node17" class="node"><title>Node17</title>
<g id="a_node17"><a xlink:href="a00078.html#a0c24b895ea333fedf685a75e27e64c37" target="_top" xlink:title="discovery_get_service_id">
<polygon fill="none" stroke="black" points="1084.5,-268.5 1084.5,-287.5 1211.5,-287.5 1211.5,-268.5 1084.5,-268.5"/>
<text text-anchor="middle" x="1148" y="-275.5" font-family="Helvetica,sans-Serif" font-size="10.00">discovery_get_service_id</text>
</a>
</g>
</g>
<!-- Node15&#45;&gt;Node17 -->
<g id="edge19" class="edge"><title>Node15&#45;&gt;Node17</title>
<path fill="none" stroke="midnightblue" d="M1026.63,-306.411C1047.97,-301.374 1074.31,-295.156 1096.91,-289.823"/>
<polygon fill="midnightblue" stroke="midnightblue" points="1097.74,-293.224 1106.67,-287.52 1096.13,-286.411 1097.74,-293.224"/>
</g>
<!-- Node18&#45;&gt;Node2 -->
<g id="edge37" class="edge"><title>Node18&#45;&gt;Node2</title>
<path fill="none" stroke="midnightblue" d="M824.889,-439.613C838.65,-478.304 891.092,-622.307 922,-659 930.987,-669.669 943.44,-678.639 954.829,-685.441"/>
<polygon fill="midnightblue" stroke="midnightblue" points="953.219,-688.552 963.647,-690.424 956.662,-682.457 953.219,-688.552"/>
</g>
<!-- Node18&#45;&gt;Node10 -->
<g id="edge36" class="edge"><title>Node18&#45;&gt;Node10</title>
<path fill="none" stroke="midnightblue" d="M865.45,-439.628C873.176,-443.058 880.494,-447.705 886,-454 933.701,-508.538 875.803,-557.182 922,-613 926.325,-618.226 931.857,-622.468 937.829,-625.905"/>
<polygon fill="midnightblue" stroke="midnightblue" points="936.296,-629.051 946.806,-630.384 939.421,-622.788 936.296,-629.051"/>
</g>
<!-- Node18&#45;&gt;Node15 -->
<g id="edge35" class="edge"><title>Node18&#45;&gt;Node15</title>
<path fill="none" stroke="midnightblue" d="M835.075,-420.477C863.084,-400.827 927.515,-355.627 961.721,-331.63"/>
<polygon fill="midnightblue" stroke="midnightblue" points="963.943,-334.346 970.119,-325.738 959.923,-328.616 963.943,-334.346"/>
</g>
<!-- Node19 -->
<g id="node19" class="node"><title>Node19</title>
<g id="a_node19"><a xlink:href="a00075.html#a43dfdac4b9fea4a35e2709a22778250e" target="_top" xlink:title="hpd_service_get_adapter">
<polygon fill="none" stroke="black" points="922.5,-584.5 922.5,-603.5 1047.5,-603.5 1047.5,-584.5 922.5,-584.5"/>
<text text-anchor="middle" x="985" y="-591.5" font-family="Helvetica,sans-Serif" font-size="10.00">hpd_service_get_adapter</text>
</a>
</g>
</g>
<!-- Node18&#45;&gt;Node19 -->
<g id="edge22" class="edge"><title>Node18&#45;&gt;Node19</title>
<path fill="none" stroke="midnightblue" d="M864.018,-439.592C872.139,-443.034 879.974,-447.695 886,-454 922.126,-491.798 887.179,-526.996 922,-566 927.029,-571.633 933.413,-576.199 940.163,-579.879"/>
<polygon fill="midnightblue" stroke="midnightblue" points="938.97,-583.189 949.499,-584.366 942.002,-576.88 938.97,-583.189"/>
</g>
<!-- Node18&#45;&gt;Node24 -->
<g id="edge45" class="edge"><title>Node18&#45;&gt;Node24</title>
<path fill="none" stroke="midnightblue" d="M871.751,-439.54C935.515,-450.796 1049,-468 1147,-468 1147,-468 1147,-468 1318.5,-468 1414.16,-468 1527.49,-478.789 1577.53,-484.107"/>
<polygon fill="midnightblue" stroke="midnightblue" points="1577.45,-487.618 1587.77,-485.213 1578.2,-480.659 1577.45,-487.618"/>
</g>
<!-- Node25 -->
<g id="node25" class="node"><title>Node25</title>
<g id="a_node25"><a xlink:href="a00075.html#a73e474ba372ed4e985f1f3cb186c3e0b" target="_top" xlink:title="hpd_service_get_device">
<polygon fill="none" stroke="black" points="924,-537.5 924,-556.5 1046,-556.5 1046,-537.5 924,-537.5"/>
<text text-anchor="middle" x="985" y="-544.5" font-family="Helvetica,sans-Serif" font-size="10.00">hpd_service_get_device</text>
</a>
</g>
</g>
<!-- Node18&#45;&gt;Node25 -->
<g id="edge28" class="edge"><title>Node18&#45;&gt;Node25</title>
<path fill="none" stroke="midnightblue" d="M860.796,-439.56C869.767,-443.051 878.775,-447.742 886,-454 911.256,-475.877 897.35,-497.443 922,-520 927.846,-525.35 934.92,-529.756 942.167,-533.343"/>
<polygon fill="midnightblue" stroke="midnightblue" points="940.804,-536.567 951.361,-537.459 943.664,-530.179 940.804,-536.567"/>
</g>
<!-- Node30 -->
<g id="node30" class="node"><title>Node30</title>
<g id="a_node30"><a xlink:href="a00075.html#a9a00d602f27e6ec01adf931e9daaeb42" target="_top" xlink:title="hpd_device_id_free">
<polygon fill="none" stroke="black" points="1267,-420.5 1267,-439.5 1368,-439.5 1368,-420.5 1267,-420.5"/>
<text text-anchor="middle" x="1317.5" y="-427.5" font-family="Helvetica,sans-Serif" font-size="10.00">hpd_device_id_free</text>
</a>
</g>
</g>
<!-- Node18&#45;&gt;Node30 -->
<g id="edge38" class="edge"><title>Node18&#45;&gt;Node30</title>
<path fill="none" stroke="midnightblue" d="M871.687,-430C963.556,-430 1158.35,-430 1256.83,-430"/>
<polygon fill="midnightblue" stroke="midnightblue" points="1256.92,-433.5 1266.92,-430 1256.92,-426.5 1256.92,-433.5"/>
</g>
<!-- Node32 -->
<g id="node32" class="node"><title>Node32</title>
<g id="a_node32"><a xlink:href="a00075.html#a6dfca5e2723ca3a11d12fe545e69923e" target="_top" xlink:title="hpd_adapter_id_free">
<polygon fill="none" stroke="black" points="1265.5,-496.5 1265.5,-515.5 1369.5,-515.5 1369.5,-496.5 1265.5,-496.5"/>
<text text-anchor="middle" x="1317.5" y="-503.5" font-family="Helvetica,sans-Serif" font-size="10.00">hpd_adapter_id_free</text>
</a>
</g>
</g>
<!-- Node18&#45;&gt;Node32 -->
<g id="edge41" class="edge"><title>Node18&#45;&gt;Node32</title>
<path fill="none" stroke="midnightblue" d="M852.865,-439.509C863.682,-443.345 875.669,-448.24 886,-454 903.704,-463.871 903.036,-474.842 922,-482 1033.51,-524.087 1175.32,-520.11 1254.97,-513.203"/>
<polygon fill="midnightblue" stroke="midnightblue" points="1255.68,-516.653 1265.32,-512.259 1255.04,-509.682 1255.68,-516.653"/>
</g>
<!-- Node34 -->
<g id="node34" class="node"><title>Node34</title>
<g id="a_node34"><a xlink:href="a00034.html#a987ed5bf58c296df5d6f2afb93d44d4f" target="_top" xlink:title="rest_url_encode">
<polygon fill="none" stroke="black" points="942,-382.5 942,-401.5 1028,-401.5 1028,-382.5 942,-382.5"/>
<text text-anchor="middle" x="985" y="-389.5" font-family="Helvetica,sans-Serif" font-size="10.00">rest_url_encode</text>
</a>
</g>
</g>
<!-- Node18&#45;&gt;Node34 -->
<g id="edge44" class="edge"><title>Node18&#45;&gt;Node34</title>
<path fill="none" stroke="midnightblue" d="M862.506,-420.411C884.046,-415.374 910.635,-409.156 933.441,-403.823"/>
<polygon fill="midnightblue" stroke="midnightblue" points="934.349,-407.205 943.289,-401.52 932.755,-400.389 934.349,-407.205"/>
</g>
<!-- Node20 -->
<g id="node20" class="node"><title>Node20</title>
<g id="a_node20"><a xlink:href="a00020.html#a6f562c4265080ac8d026ac15e9d042b1" target="_top" xlink:title="discovery_get_service\l_adapter">
<polygon fill="none" stroke="black" points="1091,-584 1091,-614 1205,-614 1205,-584 1091,-584"/>
<text text-anchor="start" x="1099" y="-602" font-family="Helvetica,sans-Serif" font-size="10.00">discovery_get_service</text>
<text text-anchor="middle" x="1148" y="-591" font-family="Helvetica,sans-Serif" font-size="10.00">_adapter</text>
</a>
</g>
</g>
<!-- Node19&#45;&gt;Node20 -->
<g id="edge23" class="edge"><title>Node19&#45;&gt;Node20</title>
<path fill="none" stroke="midnightblue" d="M1047.79,-595.919C1058.54,-596.253 1069.76,-596.601 1080.63,-596.939"/>
<polygon fill="midnightblue" stroke="midnightblue" points="1080.81,-600.446 1090.92,-597.258 1081.03,-593.449 1080.81,-600.446"/>
</g>
<!-- Node21 -->
<g id="node21" class="node"><title>Node21</title>
<g id="a_node21"><a xlink:href="a00080.html#a1915dc6bbbb6b1a2a587723caa22069d" target="_top" xlink:title="discovery_alloc_aid">
<polygon fill="none" stroke="black" points="1266.5,-589.5 1266.5,-608.5 1368.5,-608.5 1368.5,-589.5 1266.5,-589.5"/>
<text text-anchor="middle" x="1317.5" y="-596.5" font-family="Helvetica,sans-Serif" font-size="10.00">discovery_alloc_aid</text>
</a>
</g>
</g>
<!-- Node20&#45;&gt;Node21 -->
<g id="edge24" class="edge"><title>Node20&#45;&gt;Node21</title>
<path fill="none" stroke="midnightblue" d="M1205.24,-599C1221.61,-599 1239.56,-599 1256.17,-599"/>
<polygon fill="midnightblue" stroke="midnightblue" points="1256.32,-602.5 1266.32,-599 1256.32,-595.5 1256.32,-602.5"/>
</g>
<!-- Node22 -->
<g id="node22" class="node"><title>Node22</title>
<g id="a_node22"><a xlink:href="a00080.html#af2f553cfc3af4678b87a8fc75f35a5c6" target="_top" xlink:title="HPD_E_ALLOC: id might be partially updated. ">
<polygon fill="none" stroke="black" points="1557,-629.5 1557,-648.5 1652,-648.5 1652,-629.5 1557,-629.5"/>
<text text-anchor="middle" x="1604.5" y="-636.5" font-family="Helvetica,sans-Serif" font-size="10.00">discovery_set_aid</text>
</a>
</g>
</g>
<!-- Node21&#45;&gt;Node22 -->
<g id="edge25" class="edge"><title>Node21&#45;&gt;Node22</title>
<path fill="none" stroke="midnightblue" d="M1337.15,-608.541C1357.6,-618.422 1391.67,-633.209 1423,-639 1463.81,-646.543 1510.7,-646.282 1546.46,-644.273"/>
<polygon fill="midnightblue" stroke="midnightblue" points="1546.94,-647.749 1556.7,-643.632 1546.5,-640.763 1546.94,-647.749"/>
</g>
<!-- Node23 -->
<g id="node23" class="node"><title>Node23</title>
<g id="a_node23"><a xlink:href="a00080.html#a2bd026e829a41663810ae68fa3797987" target="_top" xlink:title="discovery_free_aid">
<polygon fill="none" stroke="black" points="1423,-572.5 1423,-591.5 1521,-591.5 1521,-572.5 1423,-572.5"/>
<text text-anchor="middle" x="1472" y="-579.5" font-family="Helvetica,sans-Serif" font-size="10.00">discovery_free_aid</text>
</a>
</g>
</g>
<!-- Node21&#45;&gt;Node23 -->
<g id="edge26" class="edge"><title>Node21&#45;&gt;Node23</title>
<path fill="none" stroke="midnightblue" d="M1368.86,-593.386C1382.82,-591.83 1398.1,-590.127 1412.48,-588.523"/>
<polygon fill="midnightblue" stroke="midnightblue" points="1413.22,-591.963 1422.77,-587.377 1412.44,-585.006 1413.22,-591.963"/>
</g>
<!-- Node23&#45;&gt;Node24 -->
<g id="edge27" class="edge"><title>Node23&#45;&gt;Node24</title>
<path fill="none" stroke="midnightblue" d="M1502.26,-572.401C1508.66,-569.768 1515.23,-566.622 1521,-563 1547.36,-546.448 1572.97,-520.936 1588.48,-504.106"/>
<polygon fill="midnightblue" stroke="midnightblue" points="1591.14,-506.385 1595.25,-496.619 1585.95,-501.692 1591.14,-506.385"/>
</g>
<!-- Node26 -->
<g id="node26" class="node"><title>Node26</title>
<g id="a_node26"><a xlink:href="a00020.html#a13836bde11385c514c661edc269fe122" target="_top" xlink:title="discovery_get_service\l_device">
<polygon fill="none" stroke="black" points="1091,-535 1091,-565 1205,-565 1205,-535 1091,-535"/>
<text text-anchor="start" x="1099" y="-553" font-family="Helvetica,sans-Serif" font-size="10.00">discovery_get_service</text>
<text text-anchor="middle" x="1148" y="-542" font-family="Helvetica,sans-Serif" font-size="10.00">_device</text>
</a>
</g>
</g>
<!-- Node25&#45;&gt;Node26 -->
<g id="edge29" class="edge"><title>Node25&#45;&gt;Node26</title>
<path fill="none" stroke="midnightblue" d="M1046.41,-548.126C1057.54,-548.333 1069.23,-548.551 1080.53,-548.761"/>
<polygon fill="midnightblue" stroke="midnightblue" points="1080.71,-552.265 1090.78,-548.952 1080.84,-545.267 1080.71,-552.265"/>
</g>
<!-- Node27 -->
<g id="node27" class="node"><title>Node27</title>
<g id="a_node27"><a xlink:href="a00080.html#aebd10ac1c18be51340c39d6d5a54e6d1" target="_top" xlink:title="discovery_alloc_did">
<polygon fill="none" stroke="black" points="1266.5,-540.5 1266.5,-559.5 1368.5,-559.5 1368.5,-540.5 1266.5,-540.5"/>
<text text-anchor="middle" x="1317.5" y="-547.5" font-family="Helvetica,sans-Serif" font-size="10.00">discovery_alloc_did</text>
</a>
</g>
</g>
<!-- Node26&#45;&gt;Node27 -->
<g id="edge30" class="edge"><title>Node26&#45;&gt;Node27</title>
<path fill="none" stroke="midnightblue" d="M1205.24,-550C1221.61,-550 1239.56,-550 1256.17,-550"/>
<polygon fill="midnightblue" stroke="midnightblue" points="1256.32,-553.5 1266.32,-550 1256.32,-546.5 1256.32,-553.5"/>
</g>
<!-- Node28 -->
<g id="node28" class="node"><title>Node28</title>
<g id="a_node28"><a xlink:href="a00080.html#acd5e8c2bf3e761abc7e2fd2294238a74" target="_top" xlink:title="HPD_E_ALLOC: id might be partially updated. ">
<polygon fill="none" stroke="black" points="1424.5,-610.5 1424.5,-629.5 1519.5,-629.5 1519.5,-610.5 1424.5,-610.5"/>
<text text-anchor="middle" x="1472" y="-617.5" font-family="Helvetica,sans-Serif" font-size="10.00">discovery_set_did</text>
</a>
</g>
</g>
<!-- Node27&#45;&gt;Node28 -->
<g id="edge31" class="edge"><title>Node27&#45;&gt;Node28</title>
<path fill="none" stroke="midnightblue" d="M1342.27,-559.615C1355.6,-565.202 1372.42,-572.585 1387,-580 1403.51,-588.396 1406.34,-592.901 1423,-601 1426.9,-602.896 1431.04,-604.753 1435.19,-606.519"/>
<polygon fill="midnightblue" stroke="midnightblue" points="1434.2,-609.897 1444.78,-610.45 1436.86,-603.42 1434.2,-609.897"/>
</g>
<!-- Node29 -->
<g id="node29" class="node"><title>Node29</title>
<g id="a_node29"><a xlink:href="a00080.html#ae1a000b225c8b3f365c2cec8362b8483" target="_top" xlink:title="discovery_free_did">
<polygon fill="none" stroke="black" points="1423,-534.5 1423,-553.5 1521,-553.5 1521,-534.5 1423,-534.5"/>
<text text-anchor="middle" x="1472" y="-541.5" font-family="Helvetica,sans-Serif" font-size="10.00">discovery_free_did</text>
</a>
</g>
</g>
<!-- Node27&#45;&gt;Node29 -->
<g id="edge33" class="edge"><title>Node27&#45;&gt;Node29</title>
<path fill="none" stroke="midnightblue" d="M1368.86,-548.019C1382.82,-547.469 1398.1,-546.868 1412.48,-546.302"/>
<polygon fill="midnightblue" stroke="midnightblue" points="1412.91,-549.788 1422.77,-545.898 1412.64,-542.794 1412.91,-549.788"/>
</g>
<!-- Node28&#45;&gt;Node22 -->
<g id="edge32" class="edge"><title>Node28&#45;&gt;Node22</title>
<path fill="none" stroke="midnightblue" d="M1519.74,-626.806C1528.46,-628.075 1537.65,-629.413 1546.63,-630.721"/>
<polygon fill="midnightblue" stroke="midnightblue" points="1546.24,-634.201 1556.64,-632.178 1547.25,-627.274 1546.24,-634.201"/>
</g>
<!-- Node29&#45;&gt;Node24 -->
<g id="edge34" class="edge"><title>Node29&#45;&gt;Node24</title>
<path fill="none" stroke="midnightblue" d="M1498.02,-534.396C1505.45,-531.463 1513.58,-528.173 1521,-525 1540.45,-516.678 1562.17,-506.643 1578.44,-498.975"/>
<polygon fill="midnightblue" stroke="midnightblue" points="1580.26,-501.987 1587.8,-494.543 1577.26,-495.661 1580.26,-501.987"/>
</g>
<!-- Node31 -->
<g id="node31" class="node"><title>Node31</title>
<g id="a_node31"><a xlink:href="a00020.html#ae1a000b225c8b3f365c2cec8362b8483" target="_top" xlink:title="discovery_free_did">
<polygon fill="none" stroke="black" points="1423,-420.5 1423,-439.5 1521,-439.5 1521,-420.5 1423,-420.5"/>
<text text-anchor="middle" x="1472" y="-427.5" font-family="Helvetica,sans-Serif" font-size="10.00">discovery_free_did</text>
</a>
</g>
</g>
<!-- Node30&#45;&gt;Node31 -->
<g id="edge39" class="edge"><title>Node30&#45;&gt;Node31</title>
<path fill="none" stroke="midnightblue" d="M1368.01,-430C1382.29,-430 1397.99,-430 1412.74,-430"/>
<polygon fill="midnightblue" stroke="midnightblue" points="1412.78,-433.5 1422.78,-430 1412.78,-426.5 1412.78,-433.5"/>
</g>
<!-- Node31&#45;&gt;Node24 -->
<g id="edge40" class="edge"><title>Node31&#45;&gt;Node24</title>
<path fill="none" stroke="midnightblue" d="M1494.84,-439.541C1517.93,-449.624 1554.28,-465.502 1578.5,-476.079"/>
<polygon fill="midnightblue" stroke="midnightblue" points="1577.18,-479.325 1587.75,-480.12 1579.99,-472.91 1577.18,-479.325"/>
</g>
<!-- Node33 -->
<g id="node33" class="node"><title>Node33</title>
<g id="a_node33"><a xlink:href="a00020.html#a2bd026e829a41663810ae68fa3797987" target="_top" xlink:title="discovery_free_aid">
<polygon fill="none" stroke="black" points="1423,-496.5 1423,-515.5 1521,-515.5 1521,-496.5 1423,-496.5"/>
<text text-anchor="middle" x="1472" y="-503.5" font-family="Helvetica,sans-Serif" font-size="10.00">discovery_free_aid</text>
</a>
</g>
</g>
<!-- Node32&#45;&gt;Node33 -->
<g id="edge42" class="edge"><title>Node32&#45;&gt;Node33</title>
<path fill="none" stroke="midnightblue" d="M1369.7,-506C1383.49,-506 1398.51,-506 1412.65,-506"/>
<polygon fill="midnightblue" stroke="midnightblue" points="1412.77,-509.5 1422.77,-506 1412.77,-502.5 1412.77,-509.5"/>
</g>
<!-- Node33&#45;&gt;Node24 -->
<g id="edge43" class="edge"><title>Node33&#45;&gt;Node24</title>
<path fill="none" stroke="midnightblue" d="M1521.22,-498.979C1540.34,-496.196 1561.55,-493.108 1577.64,-490.765"/>
<polygon fill="midnightblue" stroke="midnightblue" points="1578.49,-494.178 1587.88,-489.274 1577.48,-487.251 1578.49,-494.178"/>
</g>
<!-- Node36 -->
<g id="node36" class="node"><title>Node36</title>
<g id="a_node36"><a xlink:href="a00078.html#a16b425a49499b003e1f23b1cf2ea923d" target="_top" xlink:title="discovery_get_action\l_method">
<polygon fill="none" stroke="black" points="930.5,-143 930.5,-173 1039.5,-173 1039.5,-143 930.5,-143"/>
<text text-anchor="start" x="938.5" y="-161" font-family="Helvetica,sans-Serif" font-size="10.00">discovery_get_action</text>
<text text-anchor="middle" x="985" y="-150" font-family="Helvetica,sans-Serif" font-size="10.00">_method</text>
</a>
</g>
</g>
<!-- Node35&#45;&gt;Node36 -->
<g id="edge48" class="edge"><title>Node35&#45;&gt;Node36</title>
<path fill="none" stroke="midnightblue" d="M880.626,-159.908C893.443,-159.672 907.056,-159.421 920.049,-159.181"/>
<polygon fill="midnightblue" stroke="midnightblue" points="920.377,-162.675 930.31,-158.991 920.247,-155.676 920.377,-162.675"/>
</g>
<!-- Node38 -->
<g id="node38" class="node"><title>Node38</title>
<g id="a_node38"><a xlink:href="a00096.html#a33e7e5cafd18916279922d40ee76d6fc" target="_top" xlink:title="rest_json_add_parameter">
<polygon fill="none" stroke="black" points="922,-104.5 922,-123.5 1048,-123.5 1048,-104.5 922,-104.5"/>
<text text-anchor="middle" x="985" y="-111.5" font-family="Helvetica,sans-Serif" font-size="10.00">rest_json_add_parameter</text>
</a>
</g>
</g>
<!-- Node37&#45;&gt;Node38 -->
<g id="edge51" class="edge"><title>Node37&#45;&gt;Node38</title>
<path fill="none" stroke="midnightblue" d="M886.191,-116.408C894.56,-116.202 903.174,-115.99 911.656,-115.781"/>
<polygon fill="midnightblue" stroke="midnightblue" points="912.002,-119.273 921.913,-115.528 911.83,-112.276 912.002,-119.273"/>
</g>
<!-- Node38&#45;&gt;Node5 -->
<g id="edge55" class="edge"><title>Node38&#45;&gt;Node5</title>
<path fill="none" stroke="midnightblue" d="M1048.4,-107.837C1093.81,-103.239 1156.76,-96.6318 1212,-90 1230.53,-87.7747 1250.89,-85.1006 1268.67,-82.6884"/>
<polygon fill="midnightblue" stroke="midnightblue" points="1269.37,-86.1249 1278.8,-81.3038 1268.42,-79.1893 1269.37,-86.1249"/>
</g>
<!-- Node38&#45;&gt;Node6 -->
<g id="edge56" class="edge"><title>Node38&#45;&gt;Node6</title>
<path fill="none" stroke="midnightblue" d="M1027.65,-123.509C1034.72,-126.022 1041.78,-129.145 1048,-133 1067.77,-145.257 1065.27,-157.203 1084,-171 1092.93,-177.574 1103.46,-183.389 1113.33,-188.155"/>
<polygon fill="midnightblue" stroke="midnightblue" points="1111.98,-191.384 1122.52,-192.394 1114.91,-185.027 1111.98,-191.384"/>
</g>
<!-- Node39 -->
<g id="node39" class="node"><title>Node39</title>
<g id="a_node39"><a xlink:href="a00075.html#a40fef652549700bdbd8050b2e0023722" target="_top" xlink:title="[hpd_service_t functions] ">
<polygon fill="none" stroke="black" points="1091.5,-142.5 1091.5,-161.5 1204.5,-161.5 1204.5,-142.5 1091.5,-142.5"/>
<text text-anchor="middle" x="1148" y="-149.5" font-family="Helvetica,sans-Serif" font-size="10.00">hpd_parameter_get_id</text>
</a>
</g>
</g>
<!-- Node38&#45;&gt;Node39 -->
<g id="edge52" class="edge"><title>Node38&#45;&gt;Node39</title>
<path fill="none" stroke="midnightblue" d="M1026.63,-123.589C1047.97,-128.626 1074.31,-134.844 1096.91,-140.177"/>
<polygon fill="midnightblue" stroke="midnightblue" points="1096.13,-143.589 1106.67,-142.48 1097.74,-136.776 1096.13,-143.589"/>
</g>
<!-- Node40 -->
<g id="node40" class="node"><title>Node40</title>
<g id="a_node40"><a xlink:href="a00020.html#aac3897ffde835ef54f9289037159307f" target="_top" xlink:title="discovery_find_parameter">
<polygon fill="none" stroke="black" points="1253.5,-148.5 1253.5,-167.5 1381.5,-167.5 1381.5,-148.5 1253.5,-148.5"/>
<text text-anchor="middle" x="1317.5" y="-155.5" font-family="Helvetica,sans-Serif" font-size="10.00">discovery_find_parameter</text>
</a>
</g>
</g>
<!-- Node39&#45;&gt;Node40 -->
<g id="edge53" class="edge"><title>Node39&#45;&gt;Node40</title>
<path fill="none" stroke="midnightblue" d="M1204.78,-153.998C1217.09,-154.439 1230.32,-154.913 1243.21,-155.375"/>
<polygon fill="midnightblue" stroke="midnightblue" points="1243.33,-158.881 1253.45,-155.742 1243.58,-151.886 1243.33,-158.881"/>
</g>
<!-- Node41 -->
<g id="node41" class="node"><title>Node41</title>
<g id="a_node41"><a xlink:href="a00078.html#a38635fc999dfcdb5d1273a3aed037fbf" target="_top" xlink:title="discovery_get_parameter_id">
<polygon fill="none" stroke="black" points="1248,-110.5 1248,-129.5 1387,-129.5 1387,-110.5 1248,-110.5"/>
<text text-anchor="middle" x="1317.5" y="-117.5" font-family="Helvetica,sans-Serif" font-size="10.00">discovery_get_parameter_id</text>
</a>
</g>
</g>
<!-- Node39&#45;&gt;Node41 -->
<g id="edge54" class="edge"><title>Node39&#45;&gt;Node41</title>
<path fill="none" stroke="midnightblue" d="M1198.8,-142.486C1216.95,-139.019 1237.66,-135.063 1256.59,-131.446"/>
<polygon fill="midnightblue" stroke="midnightblue" points="1257.44,-134.847 1266.6,-129.533 1256.12,-127.972 1257.44,-134.847"/>
</g>
</g>
</svg>
        <g id="navigator" transform="translate(0 0)" fill="#404254">
                <rect fill="#f2f5e9" fill-opacity="0.5" stroke="#606060" stroke-width=".5" x="0" y="0" width="60" height="60"/>
                <use id="zoomplus" xlink:href="#zoomPlus" x="17" y="9" onmousedown="handleZoom(evt,'in')"/>
                <use id="zoomminus" xlink:href="#zoomMin" x="42" y="9" onmousedown="handleZoom(evt,'out')"/>
                <use id="reset" xlink:href="#resetDef" x="30" y="36" onmousedown="handleReset()"/>
                <g id="arrowUp" xlink:href="#dirArrow" transform="translate(30 24)" onmousedown="handlePan(0,-1)">
                  <use xlink:href="#rim" fill="#404040">
                        <set attributeName="fill" to="#808080" begin="arrowUp.mouseover" end="arrowUp.mouseout"/>
                  </use>
                  <path fill="none" stroke="white" stroke-width="1.5" d="M0,-3.0v7 M-2.5,-0.5L0,-3.0L2.5,-0.5"/>
                </g>
                <g id="arrowRight" xlink:href="#dirArrow" transform="rotate(90) translate(36 -43)" onmousedown="handlePan(1,0)">
                  <use xlink:href="#rim" fill="#404040">
                        <set attributeName="fill" to="#808080" begin="arrowRight.mouseover" end="arrowRight.mouseout"/>
                  </use>
                  <path fill="none" stroke="white" stroke-width="1.5" d="M0,-3.0v7 M-2.5,-0.5L0,-3.0L2.5,-0.5"/>
                </g>
                <g id="arrowDown" xlink:href="#dirArrow" transform="rotate(180) translate(-30 -48)" onmousedown="handlePan(0,1)">
                  <use xlink:href="#rim" fill="#404040">
                        <set attributeName="fill" to="#808080" begin="arrowDown.mouseover" end="arrowDown.mouseout"/>
                  </use>
                  <path fill="none" stroke="white" stroke-width="1.5" d="M0,-3.0v7 M-2.5,-0.5L0,-3.0L2.5,-0.5"/>
                </g>
                <g id="arrowLeft" xlink:href="#dirArrow" transform="rotate(270) translate(-36 17)" onmousedown="handlePan(-1,0)">
                  <use xlink:href="#rim" fill="#404040">
                        <set attributeName="fill" to="#808080" begin="arrowLeft.mouseover" end="arrowLeft.mouseout"/>
                  </use>
                  <path fill="none" stroke="white" stroke-width="1.5" d="M0,-3.0v7 M-2.5,-0.5L0,-3.0L2.5,-0.5"/>
                </g>
        </g>
        <svg viewBox="0 0 15 15" width="100%" height="30px" preserveAspectRatio="xMaxYMin meet">
         <g id="arrow_out" transform="scale(0.3 0.3)">
          <a xlink:href="a00096_a640b87b4cf374466c27940092542bbec_cgraph_org.svg" target="_base">
           <rect id="button" ry="5" rx="5" y="6" x="6" height="38" width="38"
                fill="#f2f5e9" fill-opacity="0.5" stroke="#606060" stroke-width="1.0"/>
           <path id="arrow"
             d="M 11.500037,31.436501 C 11.940474,20.09759 22.043105,11.32322 32.158766,21.979434 L 37.068811,17.246167 C 37.068811,17.246167 37.088388,32 37.088388,32 L 22.160133,31.978069 C 22.160133,31.978069 26.997745,27.140456 26.997745,27.140456 C 18.528582,18.264221 13.291696,25.230495 11.500037,31.436501 z"
             style="fill:#404040;"/>
          </a>
         </g>
        </svg>
</svg>
