<?xml version="1.0" encoding="UTF-8" standalone="no"?>
<!DOCTYPE svg PUBLIC "-//W3C//DTD SVG 1.1//EN"
 "http://www.w3.org/Graphics/SVG/1.1/DTD/svg11.dtd">
<!-- Generated by graphviz version 2.38.0 (20140413.2041)
 -->
<!-- Title: curl_ev_add_next Pages: 1 -->
<!--zoomable 132 -->
<svg id="main" version="1.1" xmlns="http://www.w3.org/2000/svg" xmlns:xlink="http://www.w3.org/1999/xlink" xml:space="preserve" onload="init(evt)">
<style type="text/css"><![CDATA[
.edge:hover path { stroke: red; }
.edge:hover polygon { stroke: red; fill: red; }
]]></style>
<script type="text/javascript"><![CDATA[
var edges = document.getElementsByTagName('g');
if (edges && edges.length) {
  for (var i=0;i<edges.length;i++) {
    if (edges[i].id.substr(0,4)=='edge') {
      edges[i].setAttribute('class','edge');
    }
  }
}
]]></script>
        <defs>
                <circle id="rim" cx="0" cy="0" r="7"/>
                <circle id="rim2" cx="0" cy="0" r="3.5"/>
                <g id="zoomPlus">
                        <use xlink:href="#rim" fill="#404040">
                                <set attributeName="fill" to="#808080" begin="zoomplus.mouseover" end="zoomplus.mouseout"/>
                        </use>
                        <path d="M-4,0h8M0,-4v8" fill="none" stroke="white" stroke-width="1.5" pointer-events="none"/>
                </g>
                <g id="zoomMin">
                        <use xlink:href="#rim" fill="#404040">
                                <set attributeName="fill" to="#808080" begin="zoomminus.mouseover" end="zoomminus.mouseout"/>
                        </use>
                        <path d="M-4,0h8" fill="none" stroke="white" stroke-width="1.5" pointer-events="none"/>
                </g>
                <g id="dirArrow">
                        <path fill="none" stroke="white" stroke-width="1.5" d="M0,-3.0v7 M-2.5,-0.5L0,-3.0L2.5,-0.5"/>
                </g>
               <g id="resetDef">
                       <use xlink:href="#rim2" fill="#404040">
                               <set attributeName="fill" to="#808080" begin="reset.mouseover" end="reset.mouseout"/>
                       </use>
               </g>
        </defs>

<script type="text/javascript">
var viewWidth = 727;
var viewHeight = 132;
var sectionId = 'dynsection-5';
</script>
<script xlink:href="svgpan.js"/>
<svg id="graph" class="graph">
<g id="viewport">
<title>curl_ev_add_next</title>
<!-- Node1 -->
<g id="node1" class="node"><title>Node1</title>
<polygon fill="#bfbfbf" stroke="black" points="0,-47.5 0,-66.5 93,-66.5 93,-47.5 0,-47.5"/>
<text text-anchor="middle" x="46.5" y="-54.5" font-family="Helvetica,sans-Serif" font-size="10.00">curl_ev_add_next</text>
</g>
<!-- Node2 -->
<g id="node2" class="node"><title>Node2</title>
<g id="a_node2"><a xlink:href="a00004.html#aac10c04a959a7def8f7ceabe2c46e77b" target="_top" xlink:title="curl_ev_add_handle">
<polygon fill="none" stroke="black" points="137,-104.5 137,-123.5 240,-123.5 240,-104.5 137,-104.5"/>
<text text-anchor="middle" x="188.5" y="-111.5" font-family="Helvetica,sans-Serif" font-size="10.00">curl_ev_add_handle</text>
</a>
</g>
</g>
<!-- Node1&#45;&gt;Node2 -->
<g id="edge1" class="edge"><title>Node1&#45;&gt;Node2</title>
<path fill="none" stroke="midnightblue" d="M75.401,-71.042C90.9711,-78.6149 110.836,-87.8466 129,-95 137.545,-98.3651 146.95,-101.613 155.674,-104.444"/>
<polygon fill="midnightblue" stroke="midnightblue" points="76.8333,-67.8461 66.315,-66.5745 73.7446,-74.1278 76.8333,-67.8461"/>
</g>
<!-- Node3 -->
<g id="node3" class="node"><title>Node3</title>
<g id="a_node3"><a xlink:href="a00004.html#a17434db8bd6d65f28a654b2ae3708b9b" target="_top" xlink:title="curl_ev_remove_handle">
<polygon fill="none" stroke="black" points="129,-66.5 129,-85.5 248,-85.5 248,-66.5 129,-66.5"/>
<text text-anchor="middle" x="188.5" y="-73.5" font-family="Helvetica,sans-Serif" font-size="10.00">curl_ev_remove_handle</text>
</a>
</g>
</g>
<!-- Node1&#45;&gt;Node3 -->
<g id="edge2" class="edge"><title>Node1&#45;&gt;Node3</title>
<path fill="none" stroke="midnightblue" d="M103.368,-64.5821C111.731,-65.717 120.374,-66.89 128.793,-68.0326"/>
<polygon fill="midnightblue" stroke="midnightblue" points="103.721,-61.098 93.3412,-63.2213 102.78,-68.0344 103.721,-61.098"/>
</g>
<!-- Node7 -->
<g id="node7" class="node"><title>Node7</title>
<g id="a_node7"><a xlink:href="a00004.html#a665691f420dff4eebb8f4b4af62d7a49" target="_top" xlink:title="on_start">
<polygon fill="none" stroke="black" points="667,-28.5 667,-47.5 719,-47.5 719,-28.5 667,-28.5"/>
<text text-anchor="middle" x="693" y="-35.5" font-family="Helvetica,sans-Serif" font-size="10.00">on_start</text>
</a>
</g>
</g>
<!-- Node1&#45;&gt;Node7 -->
<g id="edge12" class="edge"><title>Node1&#45;&gt;Node7</title>
<path fill="none" stroke="midnightblue" d="M86.3961,-44.4619C142,-27.6801 247.704,-6.68909e-15 340,-0 340,-0 340,-0 467.5,-0 540.656,-4.47949e-15 559.434,-3.83441 631,-19 642.936,-21.5294 655.877,-25.3931 666.756,-28.9774"/>
<polygon fill="midnightblue" stroke="midnightblue" points="85.1473,-41.1838 76.6111,-47.4595 87.1977,-47.8768 85.1473,-41.1838"/>
</g>
<!-- Node4 -->
<g id="node4" class="node"><title>Node4</title>
<g id="a_node4"><a xlink:href="a00004.html#a30f7e7259072d4e929092bf994dd0f7e" target="_top" xlink:title="curl_ev_socket_action">
<polygon fill="none" stroke="black" points="284,-66.5 284,-85.5 398,-85.5 398,-66.5 284,-66.5"/>
<text text-anchor="middle" x="341" y="-73.5" font-family="Helvetica,sans-Serif" font-size="10.00">curl_ev_socket_action</text>
</a>
</g>
</g>
<!-- Node3&#45;&gt;Node4 -->
<g id="edge3" class="edge"><title>Node3&#45;&gt;Node4</title>
<path fill="none" stroke="midnightblue" d="M258.394,-76C266.887,-76 275.489,-76 283.762,-76"/>
<polygon fill="midnightblue" stroke="midnightblue" points="258.118,-72.5001 248.118,-76 258.118,-79.5001 258.118,-72.5001"/>
</g>
<!-- Node4&#45;&gt;Node1 -->
<g id="edge11" class="edge"><title>Node4&#45;&gt;Node1</title>
<path fill="none" stroke="midnightblue" d="M292.596,-64.2884C278.352,-61.2912 262.623,-58.4942 248,-57 195.018,-51.5862 133.749,-52.6436 93.0231,-54.3708"/>
<polygon fill="midnightblue" stroke="midnightblue" points="292.152,-67.7739 302.669,-66.4906 293.647,-60.9355 292.152,-67.7739"/>
</g>
<!-- Node5 -->
<g id="node5" class="node"><title>Node5</title>
<g id="a_node5"><a xlink:href="a00004.html#ad3467032c766584c58cfcb260904b537" target="_top" xlink:title="on_io">
<polygon fill="none" stroke="black" points="446.5,-104.5 446.5,-123.5 486.5,-123.5 486.5,-104.5 446.5,-104.5"/>
<text text-anchor="middle" x="466.5" y="-111.5" font-family="Helvetica,sans-Serif" font-size="10.00">on_io</text>
</a>
</g>
</g>
<!-- Node4&#45;&gt;Node5 -->
<g id="edge4" class="edge"><title>Node4&#45;&gt;Node5</title>
<path fill="none" stroke="midnightblue" d="M382.979,-88.6089C404.331,-95.1787 429.433,-102.902 446.296,-108.091"/>
<polygon fill="midnightblue" stroke="midnightblue" points="383.751,-85.1847 373.164,-85.589 381.693,-91.8752 383.751,-85.1847"/>
</g>
<!-- Node8 -->
<g id="node8" class="node"><title>Node8</title>
<g id="a_node8"><a xlink:href="a00004.html#a2f1cba74d908da5b27db2338c6e222dc" target="_top" xlink:title="on_timeout">
<polygon fill="none" stroke="black" points="434,-66.5 434,-85.5 499,-85.5 499,-66.5 434,-66.5"/>
<text text-anchor="middle" x="466.5" y="-73.5" font-family="Helvetica,sans-Serif" font-size="10.00">on_timeout</text>
</a>
</g>
</g>
<!-- Node4&#45;&gt;Node8 -->
<g id="edge7" class="edge"><title>Node4&#45;&gt;Node8</title>
<path fill="none" stroke="midnightblue" d="M408.373,-76C417.256,-76 426.011,-76 433.896,-76"/>
<polygon fill="midnightblue" stroke="midnightblue" points="408.329,-72.5001 398.329,-76 408.329,-79.5001 408.329,-72.5001"/>
</g>
<!-- Node10 -->
<g id="node10" class="node"><title>Node10</title>
<g id="a_node10"><a xlink:href="a00004.html#a9a7791ffa0bda45533ca10f94c8183f1" target="_top" xlink:title="on_update_timer">
<polygon fill="none" stroke="black" points="538.5,-28.5 538.5,-47.5 627.5,-47.5 627.5,-28.5 538.5,-28.5"/>
<text text-anchor="middle" x="583" y="-35.5" font-family="Helvetica,sans-Serif" font-size="10.00">on_update_timer</text>
</a>
</g>
</g>
<!-- Node4&#45;&gt;Node10 -->
<g id="edge9" class="edge"><title>Node4&#45;&gt;Node10</title>
<path fill="none" stroke="midnightblue" d="M394.944,-64.3493C407.698,-61.7413 421.307,-59.1223 434,-57 469.004,-51.1472 508.929,-46.1173 538.483,-42.7057"/>
<polygon fill="midnightblue" stroke="midnightblue" points="394.012,-60.9682 384.933,-66.4288 395.436,-67.8219 394.012,-60.9682"/>
</g>
<!-- Node6 -->
<g id="node6" class="node"><title>Node6</title>
<g id="a_node6"><a xlink:href="a00004.html#a2ba2998e37246c16c9707e7e5c2730de" target="_top" xlink:title="on_update_socket">
<polygon fill="none" stroke="black" points="535,-104.5 535,-123.5 631,-123.5 631,-104.5 535,-104.5"/>
<text text-anchor="middle" x="583" y="-111.5" font-family="Helvetica,sans-Serif" font-size="10.00">on_update_socket</text>
</a>
</g>
</g>
<!-- Node5&#45;&gt;Node6 -->
<g id="edge5" class="edge"><title>Node5&#45;&gt;Node6</title>
<path fill="none" stroke="midnightblue" d="M496.966,-114C508.427,-114 521.848,-114 534.598,-114"/>
<polygon fill="midnightblue" stroke="midnightblue" points="496.665,-110.5 486.665,-114 496.665,-117.5 496.665,-110.5"/>
</g>
<!-- Node6&#45;&gt;Node7 -->
<g id="edge6" class="edge"><title>Node6&#45;&gt;Node7</title>
<path fill="none" stroke="midnightblue" d="M621.776,-100.191C624.973,-98.5872 628.092,-96.8549 631,-95 652.262,-81.4364 672.801,-59.9782 683.778,-47.6232"/>
<polygon fill="midnightblue" stroke="midnightblue" points="620.301,-97.0167 612.669,-104.365 623.218,-103.38 620.301,-97.0167"/>
</g>
<!-- Node9 -->
<g id="node9" class="node"><title>Node9</title>
<g id="a_node9"><a xlink:href="a00004.html#ad079431c7eba97c5dd5e4e202cdf6102" target="_top" xlink:title="on_create">
<polygon fill="none" stroke="black" points="553.5,-66.5 553.5,-85.5 612.5,-85.5 612.5,-66.5 553.5,-66.5"/>
<text text-anchor="middle" x="583" y="-73.5" font-family="Helvetica,sans-Serif" font-size="10.00">on_create</text>
</a>
</g>
</g>
<!-- Node8&#45;&gt;Node9 -->
<g id="edge8" class="edge"><title>Node8&#45;&gt;Node9</title>
<path fill="none" stroke="midnightblue" d="M509.393,-76C523.971,-76 539.985,-76 553.255,-76"/>
<polygon fill="midnightblue" stroke="midnightblue" points="509.091,-72.5001 499.091,-76 509.091,-79.5001 509.091,-72.5001"/>
</g>
<!-- Node10&#45;&gt;Node7 -->
<g id="edge10" class="edge"><title>Node10&#45;&gt;Node7</title>
<path fill="none" stroke="midnightblue" d="M637.739,-38C647.918,-38 658.111,-38 666.868,-38"/>
<polygon fill="midnightblue" stroke="midnightblue" points="637.616,-34.5001 627.616,-38 637.616,-41.5001 637.616,-34.5001"/>
</g>
</g>
</svg>
        <g id="navigator" transform="translate(0 0)" fill="#404254">
                <rect fill="#f2f5e9" fill-opacity="0.5" stroke="#606060" stroke-width=".5" x="0" y="0" width="60" height="60"/>
                <use id="zoomplus" xlink:href="#zoomPlus" x="17" y="9" onmousedown="handleZoom(evt,'in')"/>
                <use id="zoomminus" xlink:href="#zoomMin" x="42" y="9" onmousedown="handleZoom(evt,'out')"/>
                <use id="reset" xlink:href="#resetDef" x="30" y="36" onmousedown="handleReset()"/>
                <g id="arrowUp" xlink:href="#dirArrow" transform="translate(30 24)" onmousedown="handlePan(0,-1)">
                  <use xlink:href="#rim" fill="#404040">
                        <set attributeName="fill" to="#808080" begin="arrowUp.mouseover" end="arrowUp.mouseout"/>
                  </use>
                  <path fill="none" stroke="white" stroke-width="1.5" d="M0,-3.0v7 M-2.5,-0.5L0,-3.0L2.5,-0.5"/>
                </g>
                <g id="arrowRight" xlink:href="#dirArrow" transform="rotate(90) translate(36 -43)" onmousedown="handlePan(1,0)">
                  <use xlink:href="#rim" fill="#404040">
                        <set attributeName="fill" to="#808080" begin="arrowRight.mouseover" end="arrowRight.mouseout"/>
                  </use>
                  <path fill="none" stroke="white" stroke-width="1.5" d="M0,-3.0v7 M-2.5,-0.5L0,-3.0L2.5,-0.5"/>
                </g>
                <g id="arrowDown" xlink:href="#dirArrow" transform="rotate(180) translate(-30 -48)" onmousedown="handlePan(0,1)">
                  <use xlink:href="#rim" fill="#404040">
                        <set attributeName="fill" to="#808080" begin="arrowDown.mouseover" end="arrowDown.mouseout"/>
                  </use>
                  <path fill="none" stroke="white" stroke-width="1.5" d="M0,-3.0v7 M-2.5,-0.5L0,-3.0L2.5,-0.5"/>
                </g>
                <g id="arrowLeft" xlink:href="#dirArrow" transform="rotate(270) translate(-36 17)" onmousedown="handlePan(-1,0)">
                  <use xlink:href="#rim" fill="#404040">
                        <set attributeName="fill" to="#808080" begin="arrowLeft.mouseover" end="arrowLeft.mouseout"/>
                  </use>
                  <path fill="none" stroke="white" stroke-width="1.5" d="M0,-3.0v7 M-2.5,-0.5L0,-3.0L2.5,-0.5"/>
                </g>
        </g>
        <svg viewBox="0 0 15 15" width="100%" height="30px" preserveAspectRatio="xMaxYMin meet">
         <g id="arrow_out" transform="scale(0.3 0.3)">
          <a xlink:href="a00004_a3f36a139b8cf22a41850235ce3a3c88c_icgraph_org.svg" target="_base">
           <rect id="button" ry="5" rx="5" y="6" x="6" height="38" width="38"
                fill="#f2f5e9" fill-opacity="0.5" stroke="#606060" stroke-width="1.0"/>
           <path id="arrow"
             d="M 11.500037,31.436501 C 11.940474,20.09759 22.043105,11.32322 32.158766,21.979434 L 37.068811,17.246167 C 37.068811,17.246167 37.088388,32 37.088388,32 L 22.160133,31.978069 C 22.160133,31.978069 26.997745,27.140456 26.997745,27.140456 C 18.528582,18.264221 13.291696,25.230495 11.500037,31.436501 z"
             style="fill:#404040;"/>
          </a>
         </g>
        </svg>
</svg>
