<?xml version="1.0" encoding="UTF-8" standalone="no"?>
<!DOCTYPE svg PUBLIC "-//W3C//DTD SVG 1.1//EN"
 "http://www.w3.org/Graphics/SVG/1.1/DTD/svg11.dtd">
<!-- Generated by graphviz version 2.38.0 (20140413.2041)
 -->
<!-- Title: media_type_to_enum Pages: 1 -->
<svg width="713pt" height="110pt"
 viewBox="0.00 0.00 713.00 109.76" xmlns="http://www.w3.org/2000/svg" xmlns:xlink="http://www.w3.org/1999/xlink">
<g id="graph0" class="graph" transform="scale(1 1) rotate(0) translate(4 105.755)">
<title>media_type_to_enum</title>
<!-- Node1 -->
<g id="node1" class="node"><title>Node1</title>
<polygon fill="#bfbfbf" stroke="black" points="0,-15.2555 0,-34.2555 110,-34.2555 110,-15.2555 0,-15.2555"/>
<text text-anchor="middle" x="55" y="-22.2555" font-family="Helvetica,sans-Serif" font-size="10.00">media_type_to_enum</text>
</g>
<!-- Node2 -->
<g id="node2" class="node"><title>Node2</title>
<g id="a_node2"><a xlink:href="a00025.html#a144860c2e3dfe3d8d9fd021968bbd8ff" target="_top" xlink:title="reply_devices">
<polygon fill="none" stroke="black" points="146,-72.2555 146,-91.2555 223,-91.2555 223,-72.2555 146,-72.2555"/>
<text text-anchor="middle" x="184.5" y="-79.2555" font-family="Helvetica,sans-Serif" font-size="10.00">reply_devices</text>
</a>
</g>
</g>
<!-- Node1&#45;&gt;Node2 -->
<g id="edge1" class="edge"><title>Node1&#45;&gt;Node2</title>
<path fill="none" stroke="midnightblue" d="M86.7731,-38.5129C110.069,-48.9274 141.472,-62.9663 162.09,-72.1839"/>
<polygon fill="midnightblue" stroke="midnightblue" points="87.8984,-35.1821 77.3406,-34.296 85.0414,-41.5726 87.8984,-35.1821"/>
</g>
<!-- Node5 -->
<g id="node5" class="node"><title>Node5</title>
<g id="a_node5"><a xlink:href="a00025.html#abccd0d79ed3acf405337a07b4572d223" target="_top" xlink:title="on_response">
<polygon fill="none" stroke="black" points="148.5,-15.2555 148.5,-34.2555 220.5,-34.2555 220.5,-15.2555 148.5,-15.2555"/>
<text text-anchor="middle" x="184.5" y="-22.2555" font-family="Helvetica,sans-Serif" font-size="10.00">on_response</text>
</a>
</g>
</g>
<!-- Node1&#45;&gt;Node5 -->
<g id="edge4" class="edge"><title>Node1&#45;&gt;Node5</title>
<path fill="none" stroke="midnightblue" d="M120.116,-24.7555C129.786,-24.7555 139.446,-24.7555 148.204,-24.7555"/>
<polygon fill="midnightblue" stroke="midnightblue" points="120.072,-21.2556 110.071,-24.7555 120.071,-28.2556 120.072,-21.2556"/>
</g>
<!-- Node8 -->
<g id="node8" class="node"><title>Node8</title>
<g id="a_node8"><a xlink:href="a00025.html#a74ba52adbe4c46e9a9c33649e3b75243" target="_top" xlink:title="on_req_cmpl">
<polygon fill="none" stroke="black" points="538,-15.2555 538,-34.2555 610,-34.2555 610,-15.2555 538,-15.2555"/>
<text text-anchor="middle" x="574" y="-22.2555" font-family="Helvetica,sans-Serif" font-size="10.00">on_req_cmpl</text>
</a>
</g>
</g>
<!-- Node1&#45;&gt;Node8 -->
<g id="edge10" class="edge"><title>Node1&#45;&gt;Node8</title>
<path fill="none" stroke="midnightblue" d="M102.361,-13.0444C116.295,-10.0471 131.685,-7.25001 146,-5.75549 290.841,9.36658 464.55,-9.86244 537.746,-19.6623"/>
<polygon fill="midnightblue" stroke="midnightblue" points="101.504,-9.64949 92.5079,-15.2465 103.031,-16.481 101.504,-9.64949"/>
</g>
<!-- Node3 -->
<g id="node3" class="node"><title>Node3</title>
<g id="a_node3"><a xlink:href="a00025.html#abd6f4422cb70766aae33a18dc6b6cb74" target="_top" xlink:title="on_req_hdr_cmpl">
<polygon fill="none" stroke="black" points="409,-82.2555 409,-101.255 500,-101.255 500,-82.2555 409,-82.2555"/>
<text text-anchor="middle" x="454.5" y="-89.2555" font-family="Helvetica,sans-Serif" font-size="10.00">on_req_hdr_cmpl</text>
</a>
</g>
</g>
<!-- Node2&#45;&gt;Node3 -->
<g id="edge2" class="edge"><title>Node2&#45;&gt;Node3</title>
<path fill="none" stroke="midnightblue" d="M233.205,-83.5355C282.861,-85.3884 360.03,-88.2678 408.613,-90.0806"/>
<polygon fill="midnightblue" stroke="midnightblue" points="233.17,-80.0319 223.046,-83.1565 232.909,-87.027 233.17,-80.0319"/>
</g>
<!-- Node4 -->
<g id="node4" class="node"><title>Node4</title>
<g id="a_node4"><a xlink:href="a00025.html#ad079431c7eba97c5dd5e4e202cdf6102" target="_top" xlink:title="on_create">
<polygon fill="none" stroke="black" points="646,-43.2555 646,-62.2555 705,-62.2555 705,-43.2555 646,-43.2555"/>
<text text-anchor="middle" x="675.5" y="-50.2555" font-family="Helvetica,sans-Serif" font-size="10.00">on_create</text>
</a>
</g>
</g>
<!-- Node3&#45;&gt;Node4 -->
<g id="edge3" class="edge"><title>Node3&#45;&gt;Node4</title>
<path fill="none" stroke="midnightblue" d="M510.136,-82.0258C553.25,-74.348 611.665,-63.9452 645.994,-57.8319"/>
<polygon fill="midnightblue" stroke="midnightblue" points="509.313,-78.6171 500.082,-83.8163 510.541,-85.5087 509.313,-78.6171"/>
</g>
<!-- Node6 -->
<g id="node6" class="node"><title>Node6</title>
<g id="a_node6"><a xlink:href="a00073.html#afaa1866a860b3fe73641de3548d66f66" target="_top" xlink:title="request_alloc_request">
<polygon fill="none" stroke="black" points="259,-44.2555 259,-63.2555 371,-63.2555 371,-44.2555 259,-44.2555"/>
<text text-anchor="middle" x="315" y="-51.2555" font-family="Helvetica,sans-Serif" font-size="10.00">request_alloc_request</text>
</a>
</g>
</g>
<!-- Node5&#45;&gt;Node6 -->
<g id="edge5" class="edge"><title>Node5&#45;&gt;Node6</title>
<path fill="none" stroke="midnightblue" d="M230.537,-34.9195C243.881,-37.9309 258.443,-41.2172 271.613,-44.1895"/>
<polygon fill="midnightblue" stroke="midnightblue" points="231.138,-31.4673 220.613,-32.6799 229.597,-38.2955 231.138,-31.4673"/>
</g>
<!-- Node5&#45;&gt;Node8 -->
<g id="edge9" class="edge"><title>Node5&#45;&gt;Node8</title>
<path fill="none" stroke="midnightblue" d="M230.575,-24.7555C308.576,-24.7555 467.135,-24.7555 537.729,-24.7555"/>
<polygon fill="midnightblue" stroke="midnightblue" points="230.572,-21.2556 220.571,-24.7555 230.571,-28.2556 230.572,-21.2556"/>
</g>
<!-- Node7 -->
<g id="node7" class="node"><title>Node7</title>
<g id="a_node7"><a xlink:href="a00074.html#aa6d853067ae916b9213cd0c936c201c2" target="_top" xlink:title="[hpd_request_t functions] ">
<polygon fill="none" stroke="black" points="407,-44.2555 407,-63.2555 502,-63.2555 502,-44.2555 407,-44.2555"/>
<text text-anchor="middle" x="454.5" y="-51.2555" font-family="Helvetica,sans-Serif" font-size="10.00">hpd_request_alloc</text>
</a>
</g>
</g>
<!-- Node6&#45;&gt;Node7 -->
<g id="edge6" class="edge"><title>Node6&#45;&gt;Node7</title>
<path fill="none" stroke="midnightblue" d="M381.194,-53.7555C389.821,-53.7555 398.523,-53.7555 406.754,-53.7555"/>
<polygon fill="midnightblue" stroke="midnightblue" points="381.134,-50.2556 371.134,-53.7555 381.134,-57.2556 381.134,-50.2556"/>
</g>
<!-- Node7&#45;&gt;Node8 -->
<g id="edge7" class="edge"><title>Node7&#45;&gt;Node8</title>
<path fill="none" stroke="midnightblue" d="M504.062,-41.7699C515.374,-38.9781 527.205,-36.058 537.81,-33.4408"/>
<polygon fill="midnightblue" stroke="midnightblue" points="503.17,-38.3851 494.3,-44.1794 504.847,-45.1812 503.17,-38.3851"/>
</g>
<!-- Node8&#45;&gt;Node4 -->
<g id="edge8" class="edge"><title>Node8&#45;&gt;Node4</title>
<path fill="none" stroke="midnightblue" d="M618.795,-37.0797C628.011,-39.6733 637.504,-42.3447 645.984,-44.7309"/>
<polygon fill="midnightblue" stroke="midnightblue" points="619.538,-33.653 608.964,-34.3132 617.642,-40.3913 619.538,-33.653"/>
</g>
</g>
</svg>
