<?xml version="1.0" encoding="UTF-8" standalone="no"?>
<!DOCTYPE svg PUBLIC "-//W3C//DTD SVG 1.1//EN"
 "http://www.w3.org/Graphics/SVG/1.1/DTD/svg11.dtd">
<!-- Generated by graphviz version 2.38.0 (20140413.2041)
 -->
<!-- Title: curl_ev_add_next Pages: 1 -->
<svg width="475pt" height="66pt"
 viewBox="0.00 0.00 475.00 66.00" xmlns="http://www.w3.org/2000/svg" xmlns:xlink="http://www.w3.org/1999/xlink">
<g id="graph0" class="graph" transform="scale(1 1) rotate(0) translate(4 62)">
<title>curl_ev_add_next</title>
<!-- Node1 -->
<g id="node1" class="node"><title>Node1</title>
<polygon fill="#bfbfbf" stroke="black" points="0,-19.5 0,-38.5 93,-38.5 93,-19.5 0,-19.5"/>
<text text-anchor="middle" x="46.5" y="-26.5" font-family="Helvetica,sans-Serif" font-size="10.00">curl_ev_add_next</text>
</g>
<!-- Node2 -->
<g id="node2" class="node"><title>Node2</title>
<g id="a_node2"><a xlink:href="a00004.html#a30f7e7259072d4e929092bf994dd0f7e" target="_top" xlink:title="curl_ev_socket_action">
<polygon fill="none" stroke="black" points="129,-0.5 129,-19.5 243,-19.5 243,-0.5 129,-0.5"/>
<text text-anchor="middle" x="186" y="-7.5" font-family="Helvetica,sans-Serif" font-size="10.00">curl_ev_socket_action</text>
</a>
</g>
</g>
<!-- Node1&#45;&gt;Node2 -->
<g id="edge1" class="edge"><title>Node1&#45;&gt;Node2</title>
<path fill="none" stroke="midnightblue" d="M93.2855,-22.6733C101.484,-21.5405 110.174,-20.3396 118.81,-19.1463"/>
<polygon fill="midnightblue" stroke="midnightblue" points="119.464,-22.5892 128.891,-17.7533 118.506,-15.6551 119.464,-22.5892"/>
</g>
<!-- Node3 -->
<g id="node3" class="node"><title>Node3</title>
<g id="a_node3"><a xlink:href="a00004.html#a17434db8bd6d65f28a654b2ae3708b9b" target="_top" xlink:title="curl_ev_remove_handle">
<polygon fill="none" stroke="black" points="279,-38.5 279,-57.5 398,-57.5 398,-38.5 279,-38.5"/>
<text text-anchor="middle" x="338.5" y="-45.5" font-family="Helvetica,sans-Serif" font-size="10.00">curl_ev_remove_handle</text>
</a>
</g>
</g>
<!-- Node2&#45;&gt;Node3 -->
<g id="edge2" class="edge"><title>Node2&#45;&gt;Node3</title>
<path fill="none" stroke="midnightblue" d="M224.978,-19.589C244.659,-24.5583 268.891,-30.6767 289.821,-35.9613"/>
<polygon fill="midnightblue" stroke="midnightblue" points="289.243,-39.4253 299.796,-38.4799 290.957,-32.6383 289.243,-39.4253"/>
</g>
<!-- Node4 -->
<g id="node4" class="node"><title>Node4</title>
<g id="a_node4"><a xlink:href="a00034.html#a0441303fd5902ddc69a099b8bb8762b5" target="_top" xlink:title="curl_ev_cleanup">
<polygon fill="none" stroke="black" points="295,-0.5 295,-19.5 382,-19.5 382,-0.5 295,-0.5"/>
<text text-anchor="middle" x="338.5" y="-7.5" font-family="Helvetica,sans-Serif" font-size="10.00">curl_ev_cleanup</text>
</a>
</g>
</g>
<!-- Node2&#45;&gt;Node4 -->
<g id="edge4" class="edge"><title>Node2&#45;&gt;Node4</title>
<path fill="none" stroke="midnightblue" d="M243.041,-10C256.626,-10 271.108,-10 284.546,-10"/>
<polygon fill="midnightblue" stroke="midnightblue" points="284.587,-13.5001 294.587,-10 284.587,-6.5001 284.587,-13.5001"/>
</g>
<!-- Node3&#45;&gt;Node1 -->
<g id="edge3" class="edge"><title>Node3&#45;&gt;Node1</title>
<path fill="none" stroke="midnightblue" d="M278.862,-44.1582C227.57,-40.7977 153.597,-35.9512 103.197,-32.6491"/>
<polygon fill="midnightblue" stroke="midnightblue" points="103.339,-29.151 93.1315,-31.9897 102.881,-36.136 103.339,-29.151"/>
</g>
<!-- Node5 -->
<g id="node5" class="node"><title>Node5</title>
<g id="a_node5"><a xlink:href="a00006.html#adf46370d9c211c3be22966b4606ba9b0" target="_top" xlink:title="free">
<polygon fill="none" stroke="black" points="434,-0.5 434,-19.5 467,-19.5 467,-0.5 434,-0.5"/>
<text text-anchor="middle" x="450.5" y="-7.5" font-family="Helvetica,sans-Serif" font-size="10.00">free</text>
</a>
</g>
</g>
<!-- Node4&#45;&gt;Node5 -->
<g id="edge5" class="edge"><title>Node4&#45;&gt;Node5</title>
<path fill="none" stroke="midnightblue" d="M382.029,-10C396.15,-10 411.43,-10 423.871,-10"/>
<polygon fill="midnightblue" stroke="midnightblue" points="423.974,-13.5001 433.974,-10 423.974,-6.5001 423.974,-13.5001"/>
</g>
</g>
</svg>
