<?xml version="1.0" encoding="UTF-8" standalone="no"?>
<!DOCTYPE svg PUBLIC "-//W3C//DTD SVG 1.1//EN"
 "http://www.w3.org/Graphics/SVG/1.1/DTD/svg11.dtd">
<!-- Generated by graphviz version 2.38.0 (20140413.2041)
 -->
<!-- Title: discovery_set_adapter_attr Pages: 1 -->
<!--zoomable 83 -->
<svg id="main" version="1.1" xmlns="http://www.w3.org/2000/svg" xmlns:xlink="http://www.w3.org/1999/xlink" xml:space="preserve" onload="init(evt)">
<style type="text/css"><![CDATA[
.edge:hover path { stroke: red; }
.edge:hover polygon { stroke: red; fill: red; }
]]></style>
<script type="text/javascript"><![CDATA[
var edges = document.getElementsByTagName('g');
if (edges && edges.length) {
  for (var i=0;i<edges.length;i++) {
    if (edges[i].id.substr(0,4)=='edge') {
      edges[i].setAttribute('class','edge');
    }
  }
}
]]></script>
        <defs>
                <circle id="rim" cx="0" cy="0" r="7"/>
                <circle id="rim2" cx="0" cy="0" r="3.5"/>
                <g id="zoomPlus">
                        <use xlink:href="#rim" fill="#404040">
                                <set attributeName="fill" to="#808080" begin="zoomplus.mouseover" end="zoomplus.mouseout"/>
                        </use>
                        <path d="M-4,0h8M0,-4v8" fill="none" stroke="white" stroke-width="1.5" pointer-events="none"/>
                </g>
                <g id="zoomMin">
                        <use xlink:href="#rim" fill="#404040">
                                <set attributeName="fill" to="#808080" begin="zoomminus.mouseover" end="zoomminus.mouseout"/>
                        </use>
                        <path d="M-4,0h8" fill="none" stroke="white" stroke-width="1.5" pointer-events="none"/>
                </g>
                <g id="dirArrow">
                        <path fill="none" stroke="white" stroke-width="1.5" d="M0,-3.0v7 M-2.5,-0.5L0,-3.0L2.5,-0.5"/>
                </g>
               <g id="resetDef">
                       <use xlink:href="#rim2" fill="#404040">
                               <set attributeName="fill" to="#808080" begin="reset.mouseover" end="reset.mouseout"/>
                       </use>
               </g>
        </defs>

<script type="text/javascript">
var viewWidth = 597;
var viewHeight = 83;
var sectionId = 'dynsection-143';
</script>
<script xlink:href="svgpan.js"/>
<svg id="graph" class="graph">
<g id="viewport">
<title>discovery_set_adapter_attr</title>
<!-- Node1 -->
<g id="node1" class="node"><title>Node1</title>
<polygon fill="#bfbfbf" stroke="black" points="0,-28 0,-47 134,-47 134,-28 0,-28"/>
<text text-anchor="middle" x="67" y="-35" font-family="Helvetica,sans-Serif" font-size="10.00">discovery_set_adapter_attr</text>
</g>
<!-- Node2 -->
<g id="node2" class="node"><title>Node2</title>
<g id="a_node2"><a xlink:href="a00020.html#ad15d6de47820573ae430df83c83ca378" target="_top" xlink:title="discovery_set_adapter\l_attrs_v">
<polygon fill="none" stroke="black" points="170,-44.5 170,-74.5 285,-74.5 285,-44.5 170,-44.5"/>
<text text-anchor="start" x="178" y="-62.5" font-family="Helvetica,sans-Serif" font-size="10.00">discovery_set_adapter</text>
<text text-anchor="middle" x="227.5" y="-51.5" font-family="Helvetica,sans-Serif" font-size="10.00">_attrs_v</text>
</a>
</g>
</g>
<!-- Node1&#45;&gt;Node2 -->
<g id="edge1" class="edge"><title>Node1&#45;&gt;Node2</title>
<path fill="none" stroke="midnightblue" d="M144.246,-48.083C152.756,-49.2643 161.313,-50.452 169.523,-51.5915"/>
<polygon fill="midnightblue" stroke="midnightblue" points="144.686,-44.6107 134.3,-46.7025 143.724,-51.5442 144.686,-44.6107"/>
</g>
<!-- Node4 -->
<g id="node4" class="node"><title>Node4</title>
<g id="a_node4"><a xlink:href="a00079.html#a0d5ca643908e5c921d763ad9f5c9ba8e" target="_top" xlink:title="hpd_adapter_set_attr">
<polygon fill="none" stroke="black" points="173.5,-6 173.5,-25 281.5,-25 281.5,-6 173.5,-6"/>
<text text-anchor="middle" x="227.5" y="-13" font-family="Helvetica,sans-Serif" font-size="10.00">hpd_adapter_set_attr</text>
</a>
</g>
</g>
<!-- Node1&#45;&gt;Node4 -->
<g id="edge3" class="edge"><title>Node1&#45;&gt;Node4</title>
<path fill="none" stroke="midnightblue" d="M144.475,-26.8852C154.283,-25.5238 164.147,-24.1546 173.467,-22.861"/>
<polygon fill="midnightblue" stroke="midnightblue" points="143.724,-23.4558 134.3,-28.2975 144.686,-30.3893 143.724,-23.4558"/>
</g>
<!-- Node3 -->
<g id="node3" class="node"><title>Node3</title>
<g id="a_node3"><a xlink:href="a00079.html#a0dc61e22d6abc5a621e53cd3aab2f9ca" target="_top" xlink:title="hpd_adapter_set_attrs">
<polygon fill="none" stroke="black" points="321,-50 321,-69 434,-69 434,-50 321,-50"/>
<text text-anchor="middle" x="377.5" y="-57" font-family="Helvetica,sans-Serif" font-size="10.00">hpd_adapter_set_attrs</text>
</a>
</g>
</g>
<!-- Node2&#45;&gt;Node3 -->
<g id="edge2" class="edge"><title>Node2&#45;&gt;Node3</title>
<path fill="none" stroke="midnightblue" d="M295.455,-59.5C303.856,-59.5 312.38,-59.5 320.587,-59.5"/>
<polygon fill="midnightblue" stroke="midnightblue" points="295.297,-56.0001 285.297,-59.5 295.297,-63.0001 295.297,-56.0001"/>
</g>
<!-- Node5 -->
<g id="node5" class="node"><title>Node5</title>
<g id="a_node5"><a xlink:href="a00013.html#a1a305bf3b6bebda2ca16c8adcdb95239" target="_top" xlink:title="[on_destroy] ">
<polygon fill="none" stroke="black" points="322.5,-0.5 322.5,-30.5 432.5,-30.5 432.5,-0.5 322.5,-0.5"/>
<text text-anchor="start" x="330.5" y="-18.5" font-family="Helvetica,sans-Serif" font-size="10.00">demo_adapter_create</text>
<text text-anchor="middle" x="377.5" y="-7.5" font-family="Helvetica,sans-Serif" font-size="10.00">_adapter</text>
</a>
</g>
</g>
<!-- Node4&#45;&gt;Node5 -->
<g id="edge4" class="edge"><title>Node4&#45;&gt;Node5</title>
<path fill="none" stroke="midnightblue" d="M291.621,-15.5C301.853,-15.5 312.368,-15.5 322.362,-15.5"/>
<polygon fill="midnightblue" stroke="midnightblue" points="291.513,-12.0001 281.513,-15.5 291.513,-19.0001 291.513,-12.0001"/>
</g>
<!-- Node6 -->
<g id="node6" class="node"><title>Node6</title>
<g id="a_node6"><a xlink:href="a00013.html#a9f84d5de2ac16bde89480bd48efdff51" target="_top" xlink:title="[create_lamp] ">
<polygon fill="none" stroke="black" points="470,-6 470,-25 589,-25 589,-6 470,-6"/>
<text text-anchor="middle" x="529.5" y="-13" font-family="Helvetica,sans-Serif" font-size="10.00">demo_adapter_on_start</text>
</a>
</g>
</g>
<!-- Node5&#45;&gt;Node6 -->
<g id="edge5" class="edge"><title>Node5&#45;&gt;Node6</title>
<path fill="none" stroke="midnightblue" d="M442.714,-15.5C451.729,-15.5 460.957,-15.5 469.862,-15.5"/>
<polygon fill="midnightblue" stroke="midnightblue" points="442.653,-12.0001 432.653,-15.5 442.653,-19.0001 442.653,-12.0001"/>
</g>
</g>
</svg>
        <g id="navigator" transform="translate(0 0)" fill="#404254">
                <rect fill="#f2f5e9" fill-opacity="0.5" stroke="#606060" stroke-width=".5" x="0" y="0" width="60" height="60"/>
                <use id="zoomplus" xlink:href="#zoomPlus" x="17" y="9" onmousedown="handleZoom(evt,'in')"/>
                <use id="zoomminus" xlink:href="#zoomMin" x="42" y="9" onmousedown="handleZoom(evt,'out')"/>
                <use id="reset" xlink:href="#resetDef" x="30" y="36" onmousedown="handleReset()"/>
                <g id="arrowUp" xlink:href="#dirArrow" transform="translate(30 24)" onmousedown="handlePan(0,-1)">
                  <use xlink:href="#rim" fill="#404040">
                        <set attributeName="fill" to="#808080" begin="arrowUp.mouseover" end="arrowUp.mouseout"/>
                  </use>
                  <path fill="none" stroke="white" stroke-width="1.5" d="M0,-3.0v7 M-2.5,-0.5L0,-3.0L2.5,-0.5"/>
                </g>
                <g id="arrowRight" xlink:href="#dirArrow" transform="rotate(90) translate(36 -43)" onmousedown="handlePan(1,0)">
                  <use xlink:href="#rim" fill="#404040">
                        <set attributeName="fill" to="#808080" begin="arrowRight.mouseover" end="arrowRight.mouseout"/>
                  </use>
                  <path fill="none" stroke="white" stroke-width="1.5" d="M0,-3.0v7 M-2.5,-0.5L0,-3.0L2.5,-0.5"/>
                </g>
                <g id="arrowDown" xlink:href="#dirArrow" transform="rotate(180) translate(-30 -48)" onmousedown="handlePan(0,1)">
                  <use xlink:href="#rim" fill="#404040">
                        <set attributeName="fill" to="#808080" begin="arrowDown.mouseover" end="arrowDown.mouseout"/>
                  </use>
                  <path fill="none" stroke="white" stroke-width="1.5" d="M0,-3.0v7 M-2.5,-0.5L0,-3.0L2.5,-0.5"/>
                </g>
                <g id="arrowLeft" xlink:href="#dirArrow" transform="rotate(270) translate(-36 17)" onmousedown="handlePan(-1,0)">
                  <use xlink:href="#rim" fill="#404040">
                        <set attributeName="fill" to="#808080" begin="arrowLeft.mouseover" end="arrowLeft.mouseout"/>
                  </use>
                  <path fill="none" stroke="white" stroke-width="1.5" d="M0,-3.0v7 M-2.5,-0.5L0,-3.0L2.5,-0.5"/>
                </g>
        </g>
        <svg viewBox="0 0 15 15" width="100%" height="30px" preserveAspectRatio="xMaxYMin meet">
         <g id="arrow_out" transform="scale(0.3 0.3)">
          <a xlink:href="a00020_a1ace8e13428ce953dc195ed8cf5105c7_icgraph_org.svg" target="_base">
           <rect id="button" ry="5" rx="5" y="6" x="6" height="38" width="38"
                fill="#f2f5e9" fill-opacity="0.5" stroke="#606060" stroke-width="1.0"/>
           <path id="arrow"
             d="M 11.500037,31.436501 C 11.940474,20.09759 22.043105,11.32322 32.158766,21.979434 L 37.068811,17.246167 C 37.068811,17.246167 37.088388,32 37.088388,32 L 22.160133,31.978069 C 22.160133,31.978069 26.997745,27.140456 26.997745,27.140456 C 18.528582,18.264221 13.291696,25.230495 11.500037,31.436501 z"
             style="fill:#404040;"/>
          </a>
         </g>
        </svg>
</svg>
