<?xml version="1.0" encoding="UTF-8" standalone="no"?>
<!DOCTYPE svg PUBLIC "-//W3C//DTD SVG 1.1//EN"
 "http://www.w3.org/Graphics/SVG/1.1/DTD/svg11.dtd">
<!-- Generated by graphviz version 2.38.0 (20140413.2041)
 -->
<!-- Title: on_attached Pages: 1 -->
<!--zoomable 78 -->
<svg id="main" version="1.1" xmlns="http://www.w3.org/2000/svg" xmlns:xlink="http://www.w3.org/1999/xlink" xml:space="preserve" onload="init(evt)">
<style type="text/css"><![CDATA[
.edge:hover path { stroke: red; }
.edge:hover polygon { stroke: red; fill: red; }
]]></style>
<script type="text/javascript"><![CDATA[
var edges = document.getElementsByTagName('g');
if (edges && edges.length) {
  for (var i=0;i<edges.length;i++) {
    if (edges[i].id.substr(0,4)=='edge') {
      edges[i].setAttribute('class','edge');
    }
  }
}
]]></script>
        <defs>
                <circle id="rim" cx="0" cy="0" r="7"/>
                <circle id="rim2" cx="0" cy="0" r="3.5"/>
                <g id="zoomPlus">
                        <use xlink:href="#rim" fill="#404040">
                                <set attributeName="fill" to="#808080" begin="zoomplus.mouseover" end="zoomplus.mouseout"/>
                        </use>
                        <path d="M-4,0h8M0,-4v8" fill="none" stroke="white" stroke-width="1.5" pointer-events="none"/>
                </g>
                <g id="zoomMin">
                        <use xlink:href="#rim" fill="#404040">
                                <set attributeName="fill" to="#808080" begin="zoomminus.mouseover" end="zoomminus.mouseout"/>
                        </use>
                        <path d="M-4,0h8" fill="none" stroke="white" stroke-width="1.5" pointer-events="none"/>
                </g>
                <g id="dirArrow">
                        <path fill="none" stroke="white" stroke-width="1.5" d="M0,-3.0v7 M-2.5,-0.5L0,-3.0L2.5,-0.5"/>
                </g>
               <g id="resetDef">
                       <use xlink:href="#rim2" fill="#404040">
                               <set attributeName="fill" to="#808080" begin="reset.mouseover" end="reset.mouseout"/>
                       </use>
               </g>
        </defs>

<script type="text/javascript">
var viewWidth = 844;
var viewHeight = 78;
var sectionId = 'dynsection-25';
</script>
<script xlink:href="svgpan.js"/>
<svg id="graph" class="graph">
<g id="viewport">
<title>on_attached</title>
<!-- Node1 -->
<g id="node1" class="node"><title>Node1</title>
<polygon fill="#bfbfbf" stroke="black" points="0,-28 0,-47 70,-47 70,-28 0,-28"/>
<text text-anchor="middle" x="35" y="-35" font-family="Helvetica,sans-Serif" font-size="10.00">on_attached</text>
</g>
<!-- Node2 -->
<g id="node2" class="node"><title>Node2</title>
<g id="a_node2"><a xlink:href="a00067.html#a8e77eacc816b401e7f31d4cf625edc71" target="_top" xlink:title="event_inform_device\l_attached">
<polygon fill="none" stroke="black" points="106,-22.5 106,-52.5 213,-52.5 213,-22.5 106,-22.5"/>
<text text-anchor="start" x="114" y="-40.5" font-family="Helvetica,sans-Serif" font-size="10.00">event_inform_device</text>
<text text-anchor="middle" x="159.5" y="-29.5" font-family="Helvetica,sans-Serif" font-size="10.00">_attached</text>
</a>
</g>
</g>
<!-- Node1&#45;&gt;Node2 -->
<g id="edge1" class="edge"><title>Node1&#45;&gt;Node2</title>
<path fill="none" stroke="midnightblue" d="M80.2986,-37.5C88.5603,-37.5 97.2685,-37.5 105.755,-37.5"/>
<polygon fill="midnightblue" stroke="midnightblue" points="80.1231,-34.0001 70.1231,-37.5 80.123,-41.0001 80.1231,-34.0001"/>
</g>
<!-- Node3 -->
<g id="node3" class="node"><title>Node3</title>
<g id="a_node3"><a xlink:href="a00011.html#affbbf9ded6a14798e8b3336886c72e0a" target="_top" xlink:title="discovery_attach_device">
<polygon fill="none" stroke="black" points="249,-50 249,-69 374,-69 374,-50 249,-50"/>
<text text-anchor="middle" x="311.5" y="-57" font-family="Helvetica,sans-Serif" font-size="10.00">discovery_attach_device</text>
</a>
</g>
</g>
<!-- Node2&#45;&gt;Node3 -->
<g id="edge2" class="edge"><title>Node2&#45;&gt;Node3</title>
<path fill="none" stroke="midnightblue" d="M223.493,-46.739C231.888,-47.9702 240.489,-49.2317 248.86,-50.4595"/>
<polygon fill="midnightblue" stroke="midnightblue" points="223.786,-43.2446 213.384,-45.2564 222.771,-50.1706 223.786,-43.2446"/>
</g>
<!-- Node6 -->
<g id="node6" class="node"><title>Node6</title>
<g id="a_node6"><a xlink:href="a00067.html#a7ef81e99623c1b5b75b3282aa9a25703" target="_top" xlink:title="event_inform_adapter\l_attached">
<polygon fill="none" stroke="black" points="256.5,-0.5 256.5,-30.5 366.5,-30.5 366.5,-0.5 256.5,-0.5"/>
<text text-anchor="start" x="264.5" y="-18.5" font-family="Helvetica,sans-Serif" font-size="10.00">event_inform_adapter</text>
<text text-anchor="middle" x="311.5" y="-7.5" font-family="Helvetica,sans-Serif" font-size="10.00">_attached</text>
</a>
</g>
</g>
<!-- Node2&#45;&gt;Node6 -->
<g id="edge5" class="edge"><title>Node2&#45;&gt;Node6</title>
<path fill="none" stroke="midnightblue" d="M223.326,-28.2855C234.291,-26.6773 245.612,-25.0168 256.319,-23.4465"/>
<polygon fill="midnightblue" stroke="midnightblue" points="222.771,-24.8294 213.384,-29.7436 223.786,-31.7553 222.771,-24.8294"/>
</g>
<!-- Node4 -->
<g id="node4" class="node"><title>Node4</title>
<g id="a_node4"><a xlink:href="a00064.html#a7fb3db782a5ba49583a5abf615f260bd" target="_top" xlink:title="hpd_device_attach">
<polygon fill="none" stroke="black" points="576,-48 576,-67 674,-67 674,-48 576,-48"/>
<text text-anchor="middle" x="625" y="-55" font-family="Helvetica,sans-Serif" font-size="10.00">hpd_device_attach</text>
</a>
</g>
</g>
<!-- Node3&#45;&gt;Node4 -->
<g id="edge3" class="edge"><title>Node3&#45;&gt;Node4</title>
<path fill="none" stroke="midnightblue" d="M384.374,-59.0385C443.159,-58.6611 524.662,-58.1378 575.846,-57.8092"/>
<polygon fill="midnightblue" stroke="midnightblue" points="384.02,-55.5406 374.042,-59.1049 384.065,-62.5405 384.02,-55.5406"/>
</g>
<!-- Node5 -->
<g id="node5" class="node"><title>Node5</title>
<g id="a_node5"><a xlink:href="a00012.html#a723fb54ea3963ea674c9830e41a40e00" target="_top" xlink:title="hpd_demo_adapter_start">
<polygon fill="none" stroke="black" points="712,-28 712,-47 836,-47 836,-28 712,-28"/>
<text text-anchor="middle" x="774" y="-35" font-family="Helvetica,sans-Serif" font-size="10.00">hpd_demo_adapter_start</text>
</a>
</g>
</g>
<!-- Node4&#45;&gt;Node5 -->
<g id="edge4" class="edge"><title>Node4&#45;&gt;Node5</title>
<path fill="none" stroke="midnightblue" d="M684.226,-49.5781C693.315,-48.3415 702.731,-47.0604 711.883,-45.8153"/>
<polygon fill="midnightblue" stroke="midnightblue" points="683.57,-46.135 674.133,-50.9513 684.514,-53.0711 683.57,-46.135"/>
</g>
<!-- Node7 -->
<g id="node7" class="node"><title>Node7</title>
<g id="a_node7"><a xlink:href="a00011.html#afa5616fcf36352f0af085bb5f1ac3686" target="_top" xlink:title="discovery_attach_adapter">
<polygon fill="none" stroke="black" points="410,-9 410,-28 538,-28 538,-9 410,-9"/>
<text text-anchor="middle" x="474" y="-16" font-family="Helvetica,sans-Serif" font-size="10.00">discovery_attach_adapter</text>
</a>
</g>
</g>
<!-- Node6&#45;&gt;Node7 -->
<g id="edge6" class="edge"><title>Node6&#45;&gt;Node7</title>
<path fill="none" stroke="midnightblue" d="M377.057,-16.7067C387.869,-16.9088 399.077,-17.1183 409.854,-17.3197"/>
<polygon fill="midnightblue" stroke="midnightblue" points="376.902,-13.2033 366.838,-16.5157 376.771,-20.202 376.902,-13.2033"/>
</g>
<!-- Node8 -->
<g id="node8" class="node"><title>Node8</title>
<g id="a_node8"><a xlink:href="a00064.html#a247f5a01789cd6bd85a2f1238d36c29c" target="_top" xlink:title="hpd_adapter_attach">
<polygon fill="none" stroke="black" points="574,-9 574,-28 676,-28 676,-9 574,-9"/>
<text text-anchor="middle" x="625" y="-16" font-family="Helvetica,sans-Serif" font-size="10.00">hpd_adapter_attach</text>
</a>
</g>
</g>
<!-- Node7&#45;&gt;Node8 -->
<g id="edge7" class="edge"><title>Node7&#45;&gt;Node8</title>
<path fill="none" stroke="midnightblue" d="M548.294,-18.5C556.933,-18.5 565.594,-18.5 573.812,-18.5"/>
<polygon fill="midnightblue" stroke="midnightblue" points="548.189,-15.0001 538.189,-18.5 548.189,-22.0001 548.189,-15.0001"/>
</g>
<!-- Node8&#45;&gt;Node5 -->
<g id="edge8" class="edge"><title>Node8&#45;&gt;Node5</title>
<path fill="none" stroke="midnightblue" d="M686.312,-26.2955C694.744,-27.3853 703.415,-28.506 711.861,-29.5977"/>
<polygon fill="midnightblue" stroke="midnightblue" points="686.544,-22.7964 676.178,-24.9856 685.647,-29.7386 686.544,-22.7964"/>
</g>
</g>
</svg>
        <g id="navigator" transform="translate(0 0)" fill="#404254">
                <rect fill="#f2f5e9" fill-opacity="0.5" stroke="#606060" stroke-width=".5" x="0" y="0" width="60" height="60"/>
                <use id="zoomplus" xlink:href="#zoomPlus" x="17" y="9" onmousedown="handleZoom(evt,'in')"/>
                <use id="zoomminus" xlink:href="#zoomMin" x="42" y="9" onmousedown="handleZoom(evt,'out')"/>
                <use id="reset" xlink:href="#resetDef" x="30" y="36" onmousedown="handleReset()"/>
                <g id="arrowUp" xlink:href="#dirArrow" transform="translate(30 24)" onmousedown="handlePan(0,-1)">
                  <use xlink:href="#rim" fill="#404040">
                        <set attributeName="fill" to="#808080" begin="arrowUp.mouseover" end="arrowUp.mouseout"/>
                  </use>
                  <path fill="none" stroke="white" stroke-width="1.5" d="M0,-3.0v7 M-2.5,-0.5L0,-3.0L2.5,-0.5"/>
                </g>
                <g id="arrowRight" xlink:href="#dirArrow" transform="rotate(90) translate(36 -43)" onmousedown="handlePan(1,0)">
                  <use xlink:href="#rim" fill="#404040">
                        <set attributeName="fill" to="#808080" begin="arrowRight.mouseover" end="arrowRight.mouseout"/>
                  </use>
                  <path fill="none" stroke="white" stroke-width="1.5" d="M0,-3.0v7 M-2.5,-0.5L0,-3.0L2.5,-0.5"/>
                </g>
                <g id="arrowDown" xlink:href="#dirArrow" transform="rotate(180) translate(-30 -48)" onmousedown="handlePan(0,1)">
                  <use xlink:href="#rim" fill="#404040">
                        <set attributeName="fill" to="#808080" begin="arrowDown.mouseover" end="arrowDown.mouseout"/>
                  </use>
                  <path fill="none" stroke="white" stroke-width="1.5" d="M0,-3.0v7 M-2.5,-0.5L0,-3.0L2.5,-0.5"/>
                </g>
                <g id="arrowLeft" xlink:href="#dirArrow" transform="rotate(270) translate(-36 17)" onmousedown="handlePan(-1,0)">
                  <use xlink:href="#rim" fill="#404040">
                        <set attributeName="fill" to="#808080" begin="arrowLeft.mouseover" end="arrowLeft.mouseout"/>
                  </use>
                  <path fill="none" stroke="white" stroke-width="1.5" d="M0,-3.0v7 M-2.5,-0.5L0,-3.0L2.5,-0.5"/>
                </g>
        </g>
        <svg viewBox="0 0 15 15" width="100%" height="30px" preserveAspectRatio="xMaxYMin meet">
         <g id="arrow_out" transform="scale(0.3 0.3)">
          <a xlink:href="a00066_ab03ad99da20d6555b77df4bb73a2eb9f_icgraph_org.svg" target="_base">
           <rect id="button" ry="5" rx="5" y="6" x="6" height="38" width="38"
                fill="#f2f5e9" fill-opacity="0.5" stroke="#606060" stroke-width="1.0"/>
           <path id="arrow"
             d="M 11.500037,31.436501 C 11.940474,20.09759 22.043105,11.32322 32.158766,21.979434 L 37.068811,17.246167 C 37.068811,17.246167 37.088388,32 37.088388,32 L 22.160133,31.978069 C 22.160133,31.978069 26.997745,27.140456 26.997745,27.140456 C 18.528582,18.264221 13.291696,25.230495 11.500037,31.436501 z"
             style="fill:#404040;"/>
          </a>
         </g>
        </svg>
</svg>
