<?xml version="1.0" encoding="UTF-8" standalone="no"?>
<!DOCTYPE svg PUBLIC "-//W3C//DTD SVG 1.1//EN"
 "http://www.w3.org/Graphics/SVG/1.1/DTD/svg11.dtd">
<!-- Generated by graphviz version 2.38.0 (20140413.2041)
 -->
<!-- Title: hpd_adapter_free Pages: 1 -->
<svg width="409pt" height="78pt"
 viewBox="0.00 0.00 409.00 77.50" xmlns="http://www.w3.org/2000/svg" xmlns:xlink="http://www.w3.org/1999/xlink">
<g id="graph0" class="graph" transform="scale(1 1) rotate(0) translate(4 73.5)">
<title>hpd_adapter_free</title>
<!-- Node1 -->
<g id="node1" class="node"><title>Node1</title>
<polygon fill="#bfbfbf" stroke="black" points="0,-22.5 0,-41.5 92,-41.5 92,-22.5 0,-22.5"/>
<text text-anchor="middle" x="46" y="-29.5" font-family="Helvetica,sans-Serif" font-size="10.00">hpd_adapter_free</text>
</g>
<!-- Node2 -->
<g id="node2" class="node"><title>Node2</title>
<g id="a_node2"><a xlink:href="a00013.html#a1a305bf3b6bebda2ca16c8adcdb95239" target="_top" xlink:title="[on_destroy] ">
<polygon fill="none" stroke="black" points="132,-39 132,-69 242,-69 242,-39 132,-39"/>
<text text-anchor="start" x="140" y="-57" font-family="Helvetica,sans-Serif" font-size="10.00">demo_adapter_create</text>
<text text-anchor="middle" x="187" y="-46" font-family="Helvetica,sans-Serif" font-size="10.00">_adapter</text>
</a>
</g>
</g>
<!-- Node1&#45;&gt;Node2 -->
<g id="edge1" class="edge"><title>Node1&#45;&gt;Node2</title>
<path fill="none" stroke="midnightblue" d="M102.152,-40.7291C111.941,-42.2784 122.126,-43.8905 131.886,-45.4352"/>
<polygon fill="midnightblue" stroke="midnightblue" points="102.554,-37.2492 92.1293,-39.1428 101.459,-44.1631 102.554,-37.2492"/>
</g>
<!-- Node4 -->
<g id="node4" class="node"><title>Node4</title>
<g id="a_node4"><a xlink:href="a00013.html#aa30316159e7cdc14f2f035f0949b6680" target="_top" xlink:title="[on_start] ">
<polygon fill="none" stroke="black" points="128,-0.5 128,-19.5 246,-19.5 246,-0.5 128,-0.5"/>
<text text-anchor="middle" x="187" y="-7.5" font-family="Helvetica,sans-Serif" font-size="10.00">demo_adapter_on_stop</text>
</a>
</g>
</g>
<!-- Node1&#45;&gt;Node4 -->
<g id="edge3" class="edge"><title>Node1&#45;&gt;Node4</title>
<path fill="none" stroke="midnightblue" d="M102.245,-23.2562C110.686,-21.9203 119.42,-20.5379 127.92,-19.1926"/>
<polygon fill="midnightblue" stroke="midnightblue" points="101.459,-19.8369 92.1293,-24.8572 102.554,-26.7508 101.459,-19.8369"/>
</g>
<!-- Node3 -->
<g id="node3" class="node"><title>Node3</title>
<g id="a_node3"><a xlink:href="a00013.html#a9f84d5de2ac16bde89480bd48efdff51" target="_top" xlink:title="[create_lamp] ">
<polygon fill="none" stroke="black" points="282,-22.5 282,-41.5 401,-41.5 401,-22.5 282,-22.5"/>
<text text-anchor="middle" x="341.5" y="-29.5" font-family="Helvetica,sans-Serif" font-size="10.00">demo_adapter_on_start</text>
</a>
</g>
</g>
<!-- Node2&#45;&gt;Node3 -->
<g id="edge2" class="edge"><title>Node2&#45;&gt;Node3</title>
<path fill="none" stroke="midnightblue" d="M252.281,-44.7266C262.081,-43.3129 272.151,-41.8602 281.822,-40.465"/>
<polygon fill="midnightblue" stroke="midnightblue" points="251.593,-41.2896 242.195,-46.1817 252.592,-48.2179 251.593,-41.2896"/>
</g>
<!-- Node4&#45;&gt;Node3 -->
<g id="edge4" class="edge"><title>Node4&#45;&gt;Node3</title>
<path fill="none" stroke="midnightblue" d="M256.078,-19.8211C264.664,-21.0598 273.391,-22.3187 281.815,-23.5339"/>
<polygon fill="midnightblue" stroke="midnightblue" points="256.486,-16.3438 246.089,-18.38 255.487,-23.2721 256.486,-16.3438"/>
</g>
</g>
</svg>
