<?xml version="1.0" encoding="UTF-8" standalone="no"?>
<!DOCTYPE svg PUBLIC "-//W3C//DTD SVG 1.1//EN"
 "http://www.w3.org/Graphics/SVG/1.1/DTD/svg11.dtd">
<!-- Generated by graphviz version 2.38.0 (20140413.2041)
 -->
<!-- Title: event_inform_device_detached Pages: 1 -->
<!--zoomable 180 -->
<svg id="main" version="1.1" xmlns="http://www.w3.org/2000/svg" xmlns:xlink="http://www.w3.org/1999/xlink" xml:space="preserve" onload="init(evt)">
<style type="text/css"><![CDATA[
.edge:hover path { stroke: red; }
.edge:hover polygon { stroke: red; fill: red; }
]]></style>
<script type="text/javascript"><![CDATA[
var edges = document.getElementsByTagName('g');
if (edges && edges.length) {
  for (var i=0;i<edges.length;i++) {
    if (edges[i].id.substr(0,4)=='edge') {
      edges[i].setAttribute('class','edge');
    }
  }
}
]]></script>
        <defs>
                <circle id="rim" cx="0" cy="0" r="7"/>
                <circle id="rim2" cx="0" cy="0" r="3.5"/>
                <g id="zoomPlus">
                        <use xlink:href="#rim" fill="#404040">
                                <set attributeName="fill" to="#808080" begin="zoomplus.mouseover" end="zoomplus.mouseout"/>
                        </use>
                        <path d="M-4,0h8M0,-4v8" fill="none" stroke="white" stroke-width="1.5" pointer-events="none"/>
                </g>
                <g id="zoomMin">
                        <use xlink:href="#rim" fill="#404040">
                                <set attributeName="fill" to="#808080" begin="zoomminus.mouseover" end="zoomminus.mouseout"/>
                        </use>
                        <path d="M-4,0h8" fill="none" stroke="white" stroke-width="1.5" pointer-events="none"/>
                </g>
                <g id="dirArrow">
                        <path fill="none" stroke="white" stroke-width="1.5" d="M0,-3.0v7 M-2.5,-0.5L0,-3.0L2.5,-0.5"/>
                </g>
               <g id="resetDef">
                       <use xlink:href="#rim2" fill="#404040">
                               <set attributeName="fill" to="#808080" begin="reset.mouseover" end="reset.mouseout"/>
                       </use>
               </g>
        </defs>

<script type="text/javascript">
var viewWidth = 518;
var viewHeight = 180;
var sectionId = 'dynsection-15';
</script>
<script xlink:href="svgpan.js"/>
<svg id="graph" class="graph">
<g id="viewport">
<title>event_inform_device_detached</title>
<!-- Node1 -->
<g id="node1" class="node"><title>Node1</title>
<polygon fill="#bfbfbf" stroke="black" points="0,-71 0,-101 107,-101 107,-71 0,-71"/>
<text text-anchor="start" x="8" y="-89" font-family="Helvetica,sans-Serif" font-size="10.00">event_inform_device</text>
<text text-anchor="middle" x="53.5" y="-78" font-family="Helvetica,sans-Serif" font-size="10.00">_detached</text>
</g>
<!-- Node2 -->
<g id="node2" class="node"><title>Node2</title>
<g id="a_node2"><a xlink:href="a00020.html#aebd10ac1c18be51340c39d6d5a54e6d1" target="_top" xlink:title="discovery_alloc_did">
<polygon fill="none" stroke="black" points="143,-114.5 143,-133.5 245,-133.5 245,-114.5 143,-114.5"/>
<text text-anchor="middle" x="194" y="-121.5" font-family="Helvetica,sans-Serif" font-size="10.00">discovery_alloc_did</text>
</a>
</g>
</g>
<!-- Node1&#45;&gt;Node2 -->
<g id="edge1" class="edge"><title>Node1&#45;&gt;Node2</title>
<path fill="none" stroke="midnightblue" d="M107.256,-100.475C120.78,-104.185 135.194,-108.14 148.27,-111.727"/>
<polygon fill="midnightblue" stroke="midnightblue" points="147.401,-115.118 157.971,-114.389 149.253,-108.368 147.401,-115.118"/>
</g>
<!-- Node6 -->
<g id="node6" class="node"><title>Node6</title>
<g id="a_node6"><a xlink:href="a00012.html#adf46370d9c211c3be22966b4606ba9b0" target="_top" xlink:title="free">
<polygon fill="none" stroke="black" points="446,-57.5 446,-76.5 479,-76.5 479,-57.5 446,-57.5"/>
<text text-anchor="middle" x="462.5" y="-64.5" font-family="Helvetica,sans-Serif" font-size="10.00">free</text>
</a>
</g>
</g>
<!-- Node1&#45;&gt;Node6 -->
<g id="edge10" class="edge"><title>Node1&#45;&gt;Node6</title>
<path fill="none" stroke="midnightblue" d="M107.052,-83.6072C171.23,-80.6768 283.092,-75.5417 379,-71 397.97,-70.1017 419.392,-69.0623 435.652,-68.2682"/>
<polygon fill="midnightblue" stroke="midnightblue" points="436.174,-71.747 445.991,-67.7624 435.832,-64.7553 436.174,-71.747"/>
</g>
<!-- Node7 -->
<g id="node7" class="node"><title>Node7</title>
<g id="a_node7"><a xlink:href="a00081.html#a6c353799b446d7c8d3008308c01a3f33" target="_top" xlink:title="event_on_detached">
<polygon fill="none" stroke="black" points="143.5,-38.5 143.5,-57.5 244.5,-57.5 244.5,-38.5 143.5,-38.5"/>
<text text-anchor="middle" x="194" y="-45.5" font-family="Helvetica,sans-Serif" font-size="10.00">event_on_detached</text>
</a>
</g>
</g>
<!-- Node1&#45;&gt;Node7 -->
<g id="edge6" class="edge"><title>Node1&#45;&gt;Node7</title>
<path fill="none" stroke="midnightblue" d="M107.256,-71.5254C120.78,-67.815 135.194,-63.86 148.27,-60.2725"/>
<polygon fill="midnightblue" stroke="midnightblue" points="149.253,-63.6321 157.971,-57.6109 147.401,-56.8816 149.253,-63.6321"/>
</g>
<!-- Node3 -->
<g id="node3" class="node"><title>Node3</title>
<g id="a_node3"><a xlink:href="a00080.html#acd5e8c2bf3e761abc7e2fd2294238a74" target="_top" xlink:title="HPD_E_ALLOC: id might be partially updated. ">
<polygon fill="none" stroke="black" points="282.5,-152.5 282.5,-171.5 377.5,-171.5 377.5,-152.5 282.5,-152.5"/>
<text text-anchor="middle" x="330" y="-159.5" font-family="Helvetica,sans-Serif" font-size="10.00">discovery_set_did</text>
</a>
</g>
</g>
<!-- Node2&#45;&gt;Node3 -->
<g id="edge2" class="edge"><title>Node2&#45;&gt;Node3</title>
<path fill="none" stroke="midnightblue" d="M228.814,-133.589C246.033,-138.472 267.164,-144.464 285.573,-149.685"/>
<polygon fill="midnightblue" stroke="midnightblue" points="284.621,-153.053 295.197,-152.414 286.531,-146.319 284.621,-153.053"/>
</g>
<!-- Node5 -->
<g id="node5" class="node"><title>Node5</title>
<g id="a_node5"><a xlink:href="a00080.html#ae1a000b225c8b3f365c2cec8362b8483" target="_top" xlink:title="discovery_free_did">
<polygon fill="none" stroke="black" points="281,-114.5 281,-133.5 379,-133.5 379,-114.5 281,-114.5"/>
<text text-anchor="middle" x="330" y="-121.5" font-family="Helvetica,sans-Serif" font-size="10.00">discovery_free_did</text>
</a>
</g>
</g>
<!-- Node2&#45;&gt;Node5 -->
<g id="edge4" class="edge"><title>Node2&#45;&gt;Node5</title>
<path fill="none" stroke="midnightblue" d="M245.278,-124C253.514,-124 262.111,-124 270.525,-124"/>
<polygon fill="midnightblue" stroke="midnightblue" points="270.661,-127.5 280.661,-124 270.661,-120.5 270.661,-127.5"/>
</g>
<!-- Node4 -->
<g id="node4" class="node"><title>Node4</title>
<g id="a_node4"><a xlink:href="a00080.html#af2f553cfc3af4678b87a8fc75f35a5c6" target="_top" xlink:title="HPD_E_ALLOC: id might be partially updated. ">
<polygon fill="none" stroke="black" points="415,-152.5 415,-171.5 510,-171.5 510,-152.5 415,-152.5"/>
<text text-anchor="middle" x="462.5" y="-159.5" font-family="Helvetica,sans-Serif" font-size="10.00">discovery_set_aid</text>
</a>
</g>
</g>
<!-- Node3&#45;&gt;Node4 -->
<g id="edge3" class="edge"><title>Node3&#45;&gt;Node4</title>
<path fill="none" stroke="midnightblue" d="M377.745,-162C386.459,-162 395.654,-162 404.634,-162"/>
<polygon fill="midnightblue" stroke="midnightblue" points="404.643,-165.5 414.643,-162 404.643,-158.5 404.643,-165.5"/>
</g>
<!-- Node5&#45;&gt;Node6 -->
<g id="edge5" class="edge"><title>Node5&#45;&gt;Node6</title>
<path fill="none" stroke="midnightblue" d="M352.843,-114.459C375.928,-104.376 412.281,-88.4979 436.498,-77.9206"/>
<polygon fill="midnightblue" stroke="midnightblue" points="437.986,-81.0896 445.75,-73.8795 435.185,-74.6748 437.986,-81.0896"/>
</g>
<!-- Node7&#45;&gt;Node6 -->
<g id="edge7" class="edge"><title>Node7&#45;&gt;Node6</title>
<path fill="none" stroke="midnightblue" d="M244.502,-51.5292C301.119,-55.5657 391.658,-62.0207 435.726,-65.1624"/>
<polygon fill="midnightblue" stroke="midnightblue" points="435.656,-68.6662 445.879,-65.8863 436.154,-61.684 435.656,-68.6662"/>
</g>
<!-- Node8 -->
<g id="node8" class="node"><title>Node8</title>
<g id="a_node8"><a xlink:href="a00020.html#ae1a000b225c8b3f365c2cec8362b8483" target="_top" xlink:title="discovery_free_did">
<polygon fill="none" stroke="black" points="281,-0.5 281,-19.5 379,-19.5 379,-0.5 281,-0.5"/>
<text text-anchor="middle" x="330" y="-7.5" font-family="Helvetica,sans-Serif" font-size="10.00">discovery_free_did</text>
</a>
</g>
</g>
<!-- Node7&#45;&gt;Node8 -->
<g id="edge8" class="edge"><title>Node7&#45;&gt;Node8</title>
<path fill="none" stroke="midnightblue" d="M228.814,-38.411C246.033,-33.5281 267.164,-27.5357 285.573,-22.315"/>
<polygon fill="midnightblue" stroke="midnightblue" points="286.531,-25.6815 295.197,-19.5859 284.621,-18.947 286.531,-25.6815"/>
</g>
<!-- Node8&#45;&gt;Node6 -->
<g id="edge9" class="edge"><title>Node8&#45;&gt;Node6</title>
<path fill="none" stroke="midnightblue" d="M352.843,-19.5405C375.928,-29.6239 412.281,-45.5021 436.498,-56.0794"/>
<polygon fill="midnightblue" stroke="midnightblue" points="435.185,-59.3252 445.75,-60.1205 437.986,-52.9104 435.185,-59.3252"/>
</g>
</g>
</svg>
        <g id="navigator" transform="translate(0 0)" fill="#404254">
                <rect fill="#f2f5e9" fill-opacity="0.5" stroke="#606060" stroke-width=".5" x="0" y="0" width="60" height="60"/>
                <use id="zoomplus" xlink:href="#zoomPlus" x="17" y="9" onmousedown="handleZoom(evt,'in')"/>
                <use id="zoomminus" xlink:href="#zoomMin" x="42" y="9" onmousedown="handleZoom(evt,'out')"/>
                <use id="reset" xlink:href="#resetDef" x="30" y="36" onmousedown="handleReset()"/>
                <g id="arrowUp" xlink:href="#dirArrow" transform="translate(30 24)" onmousedown="handlePan(0,-1)">
                  <use xlink:href="#rim" fill="#404040">
                        <set attributeName="fill" to="#808080" begin="arrowUp.mouseover" end="arrowUp.mouseout"/>
                  </use>
                  <path fill="none" stroke="white" stroke-width="1.5" d="M0,-3.0v7 M-2.5,-0.5L0,-3.0L2.5,-0.5"/>
                </g>
                <g id="arrowRight" xlink:href="#dirArrow" transform="rotate(90) translate(36 -43)" onmousedown="handlePan(1,0)">
                  <use xlink:href="#rim" fill="#404040">
                        <set attributeName="fill" to="#808080" begin="arrowRight.mouseover" end="arrowRight.mouseout"/>
                  </use>
                  <path fill="none" stroke="white" stroke-width="1.5" d="M0,-3.0v7 M-2.5,-0.5L0,-3.0L2.5,-0.5"/>
                </g>
                <g id="arrowDown" xlink:href="#dirArrow" transform="rotate(180) translate(-30 -48)" onmousedown="handlePan(0,1)">
                  <use xlink:href="#rim" fill="#404040">
                        <set attributeName="fill" to="#808080" begin="arrowDown.mouseover" end="arrowDown.mouseout"/>
                  </use>
                  <path fill="none" stroke="white" stroke-width="1.5" d="M0,-3.0v7 M-2.5,-0.5L0,-3.0L2.5,-0.5"/>
                </g>
                <g id="arrowLeft" xlink:href="#dirArrow" transform="rotate(270) translate(-36 17)" onmousedown="handlePan(-1,0)">
                  <use xlink:href="#rim" fill="#404040">
                        <set attributeName="fill" to="#808080" begin="arrowLeft.mouseover" end="arrowLeft.mouseout"/>
                  </use>
                  <path fill="none" stroke="white" stroke-width="1.5" d="M0,-3.0v7 M-2.5,-0.5L0,-3.0L2.5,-0.5"/>
                </g>
        </g>
        <svg viewBox="0 0 15 15" width="100%" height="30px" preserveAspectRatio="xMaxYMin meet">
         <g id="arrow_out" transform="scale(0.3 0.3)">
          <a xlink:href="a00081_a38f3fa1f45b7832adcbdd3f1af2bd9a4_cgraph_org.svg" target="_base">
           <rect id="button" ry="5" rx="5" y="6" x="6" height="38" width="38"
                fill="#f2f5e9" fill-opacity="0.5" stroke="#606060" stroke-width="1.0"/>
           <path id="arrow"
             d="M 11.500037,31.436501 C 11.940474,20.09759 22.043105,11.32322 32.158766,21.979434 L 37.068811,17.246167 C 37.068811,17.246167 37.088388,32 37.088388,32 L 22.160133,31.978069 C 22.160133,31.978069 26.997745,27.140456 26.997745,27.140456 C 18.528582,18.264221 13.291696,25.230495 11.500037,31.436501 z"
             style="fill:#404040;"/>
          </a>
         </g>
        </svg>
</svg>
