<?xml version="1.0" encoding="UTF-8" standalone="no"?>
<!DOCTYPE svg PUBLIC "-//W3C//DTD SVG 1.1//EN"
 "http://www.w3.org/Graphics/SVG/1.1/DTD/svg11.dtd">
<!-- Generated by graphviz version 2.38.0 (20140413.2041)
 -->
<!-- Title: on_create Pages: 1 -->
<svg width="298pt" height="66pt"
 viewBox="0.00 0.00 298.00 66.00" xmlns="http://www.w3.org/2000/svg" xmlns:xlink="http://www.w3.org/1999/xlink">
<g id="graph0" class="graph" transform="scale(1 1) rotate(0) translate(4 62)">
<title>on_create</title>
<!-- Node1 -->
<g id="node1" class="node"><title>Node1</title>
<polygon fill="#bfbfbf" stroke="black" points="0,-19.5 0,-38.5 59,-38.5 59,-19.5 0,-19.5"/>
<text text-anchor="middle" x="29.5" y="-26.5" font-family="Helvetica,sans-Serif" font-size="10.00">on_create</text>
</g>
<!-- Node2 -->
<g id="node2" class="node"><title>Node2</title>
<g id="a_node2"><a xlink:href="a00030.html#a462aee6a9e8e221141d4ead167805eb5" target="_top" xlink:title="on_create_add_options">
<polygon fill="none" stroke="black" points="95,-38.5 95,-57.5 212,-57.5 212,-38.5 95,-38.5"/>
<text text-anchor="middle" x="153.5" y="-45.5" font-family="Helvetica,sans-Serif" font-size="10.00">on_create_add_options</text>
</a>
</g>
</g>
<!-- Node1&#45;&gt;Node2 -->
<g id="edge1" class="edge"><title>Node1&#45;&gt;Node2</title>
<path fill="none" stroke="midnightblue" d="M69.0799,-35.0083C77.2624,-36.2827 86.0701,-37.6544 94.788,-39.0121"/>
<polygon fill="midnightblue" stroke="midnightblue" points="69.5231,-31.5353 59.1036,-33.4547 68.4459,-38.4519 69.5231,-31.5353"/>
</g>
<!-- Node4 -->
<g id="node4" class="node"><title>Node4</title>
<g id="a_node4"><a xlink:href="a00030.html#abf6f5759c7be63784bfaffc8196e3941" target="_top" xlink:title="TEST">
<polygon fill="none" stroke="black" points="132.5,-0.5 132.5,-19.5 174.5,-19.5 174.5,-0.5 132.5,-0.5"/>
<text text-anchor="middle" x="153.5" y="-7.5" font-family="Helvetica,sans-Serif" font-size="10.00">TEST</text>
</a>
</g>
</g>
<!-- Node1&#45;&gt;Node4 -->
<g id="edge3" class="edge"><title>Node1&#45;&gt;Node4</title>
<path fill="none" stroke="midnightblue" d="M69.0512,-22.9961C90.1018,-19.7178 115.297,-15.7939 132.457,-13.1215"/>
<polygon fill="midnightblue" stroke="midnightblue" points="68.4459,-19.5481 59.1036,-24.5453 69.5231,-26.4647 68.4459,-19.5481"/>
</g>
<!-- Node3 -->
<g id="node3" class="node"><title>Node3</title>
<g id="a_node3"><a xlink:href="a00030.html#adb53c89b4687405791cefac08be987d4" target="_top" xlink:title="TEST">
<polygon fill="none" stroke="black" points="248,-38.5 248,-57.5 290,-57.5 290,-38.5 248,-38.5"/>
<text text-anchor="middle" x="269" y="-45.5" font-family="Helvetica,sans-Serif" font-size="10.00">TEST</text>
</a>
</g>
</g>
<!-- Node2&#45;&gt;Node3 -->
<g id="edge2" class="edge"><title>Node2&#45;&gt;Node3</title>
<path fill="none" stroke="midnightblue" d="M222.396,-48C231.644,-48 240.482,-48 247.873,-48"/>
<polygon fill="midnightblue" stroke="midnightblue" points="222.248,-44.5001 212.248,-48 222.247,-51.5001 222.248,-44.5001"/>
</g>
</g>
</svg>
