<?xml version="1.0" encoding="UTF-8" standalone="no"?>
<!DOCTYPE svg PUBLIC "-//W3C//DTD SVG 1.1//EN"
 "http://www.w3.org/Graphics/SVG/1.1/DTD/svg11.dtd">
<!-- Generated by graphviz version 2.38.0 (20140413.2041)
 -->
<!-- Title: curl_ev_create_curl_handle Pages: 1 -->
<svg width="400pt" height="66pt"
 viewBox="0.00 0.00 400.00 66.00" xmlns="http://www.w3.org/2000/svg" xmlns:xlink="http://www.w3.org/1999/xlink">
<g id="graph0" class="graph" transform="scale(1 1) rotate(0) translate(4 62)">
<title>curl_ev_create_curl_handle</title>
<!-- Node1 -->
<g id="node1" class="node"><title>Node1</title>
<polygon fill="#bfbfbf" stroke="black" points="0,-14 0,-44 101,-44 101,-14 0,-14"/>
<text text-anchor="start" x="8" y="-32" font-family="Helvetica,sans-Serif" font-size="10.00">curl_ev_create_curl</text>
<text text-anchor="middle" x="50.5" y="-21" font-family="Helvetica,sans-Serif" font-size="10.00">_handle</text>
</g>
<!-- Node2 -->
<g id="node2" class="node"><title>Node2</title>
<g id="a_node2"><a xlink:href="a00045.html#a0b9f50b8e3238511c2245847c4ae3a59" target="_top" xlink:title="curl_ev_init_curl_handle">
<polygon fill="none" stroke="black" points="137,-19.5 137,-38.5 258,-38.5 258,-19.5 137,-19.5"/>
<text text-anchor="middle" x="197.5" y="-26.5" font-family="Helvetica,sans-Serif" font-size="10.00">curl_ev_init_curl_handle</text>
</a>
</g>
</g>
<!-- Node1&#45;&gt;Node2 -->
<g id="edge1" class="edge"><title>Node1&#45;&gt;Node2</title>
<path fill="none" stroke="midnightblue" d="M101.401,-29C109.496,-29 118.009,-29 126.477,-29"/>
<polygon fill="midnightblue" stroke="midnightblue" points="126.753,-32.5001 136.753,-29 126.753,-25.5001 126.753,-32.5001"/>
</g>
<!-- Node3 -->
<g id="node3" class="node"><title>Node3</title>
<g id="a_node3"><a xlink:href="a00045.html#a0ced84a42ddb41730c1bd167909740ed" target="_top" xlink:title="curl_ev_on_header">
<polygon fill="none" stroke="black" points="294,-38.5 294,-57.5 392,-57.5 392,-38.5 294,-38.5"/>
<text text-anchor="middle" x="343" y="-45.5" font-family="Helvetica,sans-Serif" font-size="10.00">curl_ev_on_header</text>
</a>
</g>
</g>
<!-- Node2&#45;&gt;Node3 -->
<g id="edge2" class="edge"><title>Node2&#45;&gt;Node3</title>
<path fill="none" stroke="midnightblue" d="M258.11,-36.8926C266.541,-38.0089 275.202,-39.1557 283.61,-40.2689"/>
<polygon fill="midnightblue" stroke="midnightblue" points="283.334,-43.7628 293.707,-41.6057 284.252,-36.8234 283.334,-43.7628"/>
</g>
<!-- Node4 -->
<g id="node4" class="node"><title>Node4</title>
<g id="a_node4"><a xlink:href="a00045.html#a87b1ef1482263495bc6743746b5730cd" target="_top" xlink:title="curl_ev_on_body">
<polygon fill="none" stroke="black" points="298,-0.5 298,-19.5 388,-19.5 388,-0.5 298,-0.5"/>
<text text-anchor="middle" x="343" y="-7.5" font-family="Helvetica,sans-Serif" font-size="10.00">curl_ev_on_body</text>
</a>
</g>
</g>
<!-- Node2&#45;&gt;Node4 -->
<g id="edge3" class="edge"><title>Node2&#45;&gt;Node4</title>
<path fill="none" stroke="midnightblue" d="M258.11,-21.1074C267.837,-19.8195 277.87,-18.4911 287.467,-17.2204"/>
<polygon fill="midnightblue" stroke="midnightblue" points="288.219,-20.6514 297.673,-15.869 287.3,-13.712 288.219,-20.6514"/>
</g>
</g>
</svg>
