<?xml version="1.0" encoding="UTF-8" standalone="no"?>
<!DOCTYPE svg PUBLIC "-//W3C//DTD SVG 1.1//EN"
 "http://www.w3.org/Graphics/SVG/1.1/DTD/svg11.dtd">
<!-- Generated by graphviz version 2.38.0 (20140413.2041)
 -->
<!-- Title: rest_xml_add_configuration Pages: 1 -->
<svg width="735pt" height="28pt"
 viewBox="0.00 0.00 735.00 28.00" xmlns="http://www.w3.org/2000/svg" xmlns:xlink="http://www.w3.org/1999/xlink">
<g id="graph0" class="graph" transform="scale(1 1) rotate(0) translate(4 24)">
<title>rest_xml_add_configuration</title>
<!-- Node1 -->
<g id="node1" class="node"><title>Node1</title>
<polygon fill="#bfbfbf" stroke="black" points="0,-0.5 0,-19.5 136,-19.5 136,-0.5 0,-0.5"/>
<text text-anchor="middle" x="68" y="-7.5" font-family="Helvetica,sans-Serif" font-size="10.00">rest_xml_add_configuration</text>
</g>
<!-- Node2 -->
<g id="node2" class="node"><title>Node2</title>
<g id="a_node2"><a xlink:href="a00099.html#a5f45c0580c596d22c41495ecc83e6e85" target="_top" xlink:title="hpd_rest_xml_get_configuration">
<polygon fill="none" stroke="black" points="172,-0.5 172,-19.5 327,-19.5 327,-0.5 172,-0.5"/>
<text text-anchor="middle" x="249.5" y="-7.5" font-family="Helvetica,sans-Serif" font-size="10.00">hpd_rest_xml_get_configuration</text>
</a>
</g>
</g>
<!-- Node1&#45;&gt;Node2 -->
<g id="edge1" class="edge"><title>Node1&#45;&gt;Node2</title>
<path fill="none" stroke="midnightblue" d="M146.314,-10C154.77,-10 163.376,-10 171.824,-10"/>
<polygon fill="midnightblue" stroke="midnightblue" points="146.094,-6.5001 136.094,-10 146.094,-13.5001 146.094,-6.5001"/>
</g>
<!-- Node3 -->
<g id="node3" class="node"><title>Node3</title>
<g id="a_node3"><a xlink:href="a00034.html#ac0f2724b4617f1adb53492f1a57a4e4b" target="_top" xlink:title="rest_reply_devices">
<polygon fill="none" stroke="black" points="363,-0.5 363,-19.5 461,-19.5 461,-0.5 363,-0.5"/>
<text text-anchor="middle" x="412" y="-7.5" font-family="Helvetica,sans-Serif" font-size="10.00">rest_reply_devices</text>
</a>
</g>
</g>
<!-- Node2&#45;&gt;Node3 -->
<g id="edge2" class="edge"><title>Node2&#45;&gt;Node3</title>
<path fill="none" stroke="midnightblue" d="M337.641,-10C346.292,-10 354.837,-10 362.867,-10"/>
<polygon fill="midnightblue" stroke="midnightblue" points="337.459,-6.5001 327.459,-10 337.459,-13.5001 337.459,-6.5001"/>
</g>
<!-- Node4 -->
<g id="node4" class="node"><title>Node4</title>
<g id="a_node4"><a xlink:href="a00034.html#a2731aca6e6807e771bcf9c94dbec968c" target="_top" xlink:title="rest_on_req_hdr_cmpl">
<polygon fill="none" stroke="black" points="497,-0.5 497,-19.5 610,-19.5 610,-0.5 497,-0.5"/>
<text text-anchor="middle" x="553.5" y="-7.5" font-family="Helvetica,sans-Serif" font-size="10.00">rest_on_req_hdr_cmpl</text>
</a>
</g>
</g>
<!-- Node3&#45;&gt;Node4 -->
<g id="edge3" class="edge"><title>Node3&#45;&gt;Node4</title>
<path fill="none" stroke="midnightblue" d="M471.172,-10C479.627,-10 488.317,-10 496.724,-10"/>
<polygon fill="midnightblue" stroke="midnightblue" points="471.008,-6.5001 461.008,-10 471.008,-13.5001 471.008,-6.5001"/>
</g>
<!-- Node5 -->
<g id="node5" class="node"><title>Node5</title>
<g id="a_node5"><a xlink:href="a00034.html#a02090c3feb19ea4c6e1fa9b5e6392752" target="_top" xlink:title="rest_on_create">
<polygon fill="none" stroke="black" points="646,-0.5 646,-19.5 727,-19.5 727,-0.5 646,-0.5"/>
<text text-anchor="middle" x="686.5" y="-7.5" font-family="Helvetica,sans-Serif" font-size="10.00">rest_on_create</text>
</a>
</g>
</g>
<!-- Node4&#45;&gt;Node5 -->
<g id="edge4" class="edge"><title>Node4&#45;&gt;Node5</title>
<path fill="none" stroke="midnightblue" d="M620.247,-10C628.958,-10 637.663,-10 645.746,-10"/>
<polygon fill="midnightblue" stroke="midnightblue" points="620.056,-6.5001 610.056,-10 620.056,-13.5001 620.056,-6.5001"/>
</g>
</g>
</svg>
