<?xml version="1.0" encoding="UTF-8" standalone="no"?>
<!DOCTYPE svg PUBLIC "-//W3C//DTD SVG 1.1//EN"
 "http://www.w3.org/Graphics/SVG/1.1/DTD/svg11.dtd">
<!-- Generated by graphviz version 2.38.0 (20140413.2041)
 -->
<!-- Title: discovery_get_parameter_attr Pages: 1 -->
<svg width="477pt" height="78pt"
 viewBox="0.00 0.00 477.00 77.50" xmlns="http://www.w3.org/2000/svg" xmlns:xlink="http://www.w3.org/1999/xlink">
<g id="graph0" class="graph" transform="scale(1 1) rotate(0) translate(4 73.5)">
<title>discovery_get_parameter_attr</title>
<!-- Node1 -->
<g id="node1" class="node"><title>Node1</title>
<polygon fill="#bfbfbf" stroke="black" points="0,-22.5 0,-41.5 146,-41.5 146,-22.5 0,-22.5"/>
<text text-anchor="middle" x="73" y="-29.5" font-family="Helvetica,sans-Serif" font-size="10.00">discovery_get_parameter_attr</text>
</g>
<!-- Node2 -->
<g id="node2" class="node"><title>Node2</title>
<g id="a_node2"><a xlink:href="a00020.html#accd3f1b86ee809561fccf8345f7a069c" target="_top" xlink:title="discovery_get_parameter\l_attrs_v">
<polygon fill="none" stroke="black" points="182,-39 182,-69 308,-69 308,-39 182,-39"/>
<text text-anchor="start" x="190" y="-57" font-family="Helvetica,sans-Serif" font-size="10.00">discovery_get_parameter</text>
<text text-anchor="middle" x="245" y="-46" font-family="Helvetica,sans-Serif" font-size="10.00">_attrs_v</text>
</a>
</g>
</g>
<!-- Node1&#45;&gt;Node2 -->
<g id="edge1" class="edge"><title>Node1&#45;&gt;Node2</title>
<path fill="none" stroke="midnightblue" d="M156.158,-42.6322C164.763,-43.7458 173.407,-44.8645 181.737,-45.9424"/>
<polygon fill="midnightblue" stroke="midnightblue" points="156.462,-39.1424 146.095,-41.33 155.563,-46.0845 156.462,-39.1424"/>
</g>
<!-- Node4 -->
<g id="node4" class="node"><title>Node4</title>
<g id="a_node4"><a xlink:href="a00079.html#aaf85643448f499a89f33e9fa419f87c2" target="_top" xlink:title="hpd_parameter_get_attr">
<polygon fill="none" stroke="black" points="185.5,-0.5 185.5,-19.5 304.5,-19.5 304.5,-0.5 185.5,-0.5"/>
<text text-anchor="middle" x="245" y="-7.5" font-family="Helvetica,sans-Serif" font-size="10.00">hpd_parameter_get_attr</text>
</a>
</g>
</g>
<!-- Node1&#45;&gt;Node4 -->
<g id="edge3" class="edge"><title>Node1&#45;&gt;Node4</title>
<path fill="none" stroke="midnightblue" d="M156.306,-21.3487C166.142,-20.0758 176.026,-18.7967 185.431,-17.5796"/>
<polygon fill="midnightblue" stroke="midnightblue" points="155.563,-17.9155 146.095,-22.67 156.462,-24.8576 155.563,-17.9155"/>
</g>
<!-- Node3 -->
<g id="node3" class="node"><title>Node3</title>
<g id="a_node3"><a xlink:href="a00079.html#ab7346d9e5a437ded6e5f3b838ffe46e6" target="_top" xlink:title="hpd_parameter_get_attrs">
<polygon fill="none" stroke="black" points="344,-44.5 344,-63.5 469,-63.5 469,-44.5 344,-44.5"/>
<text text-anchor="middle" x="406.5" y="-51.5" font-family="Helvetica,sans-Serif" font-size="10.00">hpd_parameter_get_attrs</text>
</a>
</g>
</g>
<!-- Node2&#45;&gt;Node3 -->
<g id="edge2" class="edge"><title>Node2&#45;&gt;Node3</title>
<path fill="none" stroke="midnightblue" d="M318.396,-54C326.884,-54 335.485,-54 343.808,-54"/>
<polygon fill="midnightblue" stroke="midnightblue" points="318.124,-50.5001 308.124,-54 318.124,-57.5001 318.124,-50.5001"/>
</g>
</g>
</svg>
