<?xml version="1.0" encoding="UTF-8" standalone="no"?>
<!DOCTYPE svg PUBLIC "-//W3C//DTD SVG 1.1//EN"
 "http://www.w3.org/Graphics/SVG/1.1/DTD/svg11.dtd">
<!-- Generated by graphviz version 2.38.0 (20140413.2041)
 -->
<!-- Title: hpd_device_alloc Pages: 1 -->
<!--zoomable 167 -->
<svg id="main" version="1.1" xmlns="http://www.w3.org/2000/svg" xmlns:xlink="http://www.w3.org/1999/xlink" xml:space="preserve" onload="init(evt)">
<style type="text/css"><![CDATA[
.edge:hover path { stroke: red; }
.edge:hover polygon { stroke: red; fill: red; }
]]></style>
<script type="text/javascript"><![CDATA[
var edges = document.getElementsByTagName('g');
if (edges && edges.length) {
  for (var i=0;i<edges.length;i++) {
    if (edges[i].id.substr(0,4)=='edge') {
      edges[i].setAttribute('class','edge');
    }
  }
}
]]></script>
        <defs>
                <circle id="rim" cx="0" cy="0" r="7"/>
                <circle id="rim2" cx="0" cy="0" r="3.5"/>
                <g id="zoomPlus">
                        <use xlink:href="#rim" fill="#404040">
                                <set attributeName="fill" to="#808080" begin="zoomplus.mouseover" end="zoomplus.mouseout"/>
                        </use>
                        <path d="M-4,0h8M0,-4v8" fill="none" stroke="white" stroke-width="1.5" pointer-events="none"/>
                </g>
                <g id="zoomMin">
                        <use xlink:href="#rim" fill="#404040">
                                <set attributeName="fill" to="#808080" begin="zoomminus.mouseover" end="zoomminus.mouseout"/>
                        </use>
                        <path d="M-4,0h8" fill="none" stroke="white" stroke-width="1.5" pointer-events="none"/>
                </g>
                <g id="dirArrow">
                        <path fill="none" stroke="white" stroke-width="1.5" d="M0,-3.0v7 M-2.5,-0.5L0,-3.0L2.5,-0.5"/>
                </g>
               <g id="resetDef">
                       <use xlink:href="#rim2" fill="#404040">
                               <set attributeName="fill" to="#808080" begin="reset.mouseover" end="reset.mouseout"/>
                       </use>
               </g>
        </defs>

<script type="text/javascript">
var viewWidth = 1035;
var viewHeight = 167;
var sectionId = 'dynsection-16';
</script>
<script xlink:href="svgpan.js"/>
<svg id="graph" class="graph">
<g id="viewport">
<title>hpd_device_alloc</title>
<!-- Node1 -->
<g id="node1" class="node"><title>Node1</title>
<polygon fill="#bfbfbf" stroke="black" points="0,-51.3302 0,-70.3302 92,-70.3302 92,-51.3302 0,-51.3302"/>
<text text-anchor="middle" x="46" y="-58.3302" font-family="Helvetica,sans-Serif" font-size="10.00">hpd_device_alloc</text>
</g>
<!-- Node2 -->
<g id="node2" class="node"><title>Node2</title>
<g id="a_node2"><a xlink:href="a00059.html#a9f30460be089f53c8d995635aedc1097" target="_top" xlink:title="discovery_alloc_device">
<polygon fill="none" stroke="black" points="128,-51.3302 128,-70.3302 246,-70.3302 246,-51.3302 128,-51.3302"/>
<text text-anchor="middle" x="187" y="-58.3302" font-family="Helvetica,sans-Serif" font-size="10.00">discovery_alloc_device</text>
</a>
</g>
</g>
<!-- Node1&#45;&gt;Node2 -->
<g id="edge1" class="edge"><title>Node1&#45;&gt;Node2</title>
<path fill="none" stroke="midnightblue" d="M92.1293,-60.8302C100.334,-60.8302 109.057,-60.8302 117.755,-60.8302"/>
<polygon fill="midnightblue" stroke="midnightblue" points="117.92,-64.3303 127.92,-60.8302 117.92,-57.3303 117.92,-64.3303"/>
</g>
<!-- Node3 -->
<g id="node3" class="node"><title>Node3</title>
<g id="a_node3"><a xlink:href="a00042.html#a8d23b888fb4bb3f951c7d48f1928ee9a" target="_top" xlink:title="hpd_map_alloc">
<polygon fill="none" stroke="black" points="298,-70.3302 298,-89.3302 380,-89.3302 380,-70.3302 298,-70.3302"/>
<text text-anchor="middle" x="339" y="-77.3302" font-family="Helvetica,sans-Serif" font-size="10.00">hpd_map_alloc</text>
</a>
</g>
</g>
<!-- Node2&#45;&gt;Node3 -->
<g id="edge2" class="edge"><title>Node2&#45;&gt;Node3</title>
<path fill="none" stroke="midnightblue" d="M246.423,-68.2305C259.924,-69.9407 274.18,-71.7464 287.319,-73.4106"/>
<polygon fill="midnightblue" stroke="midnightblue" points="287.22,-76.926 297.581,-74.7105 288.1,-69.9815 287.22,-76.926"/>
</g>
<!-- Node4 -->
<g id="node4" class="node"><title>Node4</title>
<g id="a_node4"><a xlink:href="a00059.html#a3c72fb9020b183238e0205b722d7ea95" target="_top" xlink:title="discovery_free_device">
<polygon fill="none" stroke="black" points="282,-32.3302 282,-51.3302 396,-51.3302 396,-32.3302 282,-32.3302"/>
<text text-anchor="middle" x="339" y="-39.3302" font-family="Helvetica,sans-Serif" font-size="10.00">discovery_free_device</text>
</a>
</g>
</g>
<!-- Node2&#45;&gt;Node4 -->
<g id="edge3" class="edge"><title>Node2&#45;&gt;Node4</title>
<path fill="none" stroke="midnightblue" d="M246.423,-53.4299C254.728,-52.378 263.318,-51.29 271.758,-50.2209"/>
<polygon fill="midnightblue" stroke="midnightblue" points="272.468,-53.659 281.949,-48.93 271.588,-46.7145 272.468,-53.659"/>
</g>
<!-- Node5 -->
<g id="node5" class="node"><title>Node5</title>
<g id="a_node5"><a xlink:href="a00059.html#a562bd655fd329da0289d21ec36973322" target="_top" xlink:title="discovery_free_service">
<polygon fill="none" stroke="black" points="432,-89.3302 432,-108.33 549,-108.33 549,-89.3302 432,-89.3302"/>
<text text-anchor="middle" x="490.5" y="-96.3302" font-family="Helvetica,sans-Serif" font-size="10.00">discovery_free_service</text>
</a>
</g>
</g>
<!-- Node4&#45;&gt;Node5 -->
<g id="edge4" class="edge"><title>Node4&#45;&gt;Node5</title>
<path fill="none" stroke="midnightblue" d="M369.18,-51.3681C377.849,-54.2992 387.341,-57.605 396,-60.8302 416.643,-68.5194 439.56,-77.8208 457.539,-85.2966"/>
<polygon fill="midnightblue" stroke="midnightblue" points="456.398,-88.6128 466.974,-89.2402 459.097,-82.1543 456.398,-88.6128"/>
</g>
<!-- Node7 -->
<g id="node7" class="node"><title>Node7</title>
<g id="a_node7"><a xlink:href="a00042.html#a195d511a075f2349200563af1c5d1fd7" target="_top" xlink:title="hpd_map_free">
<polygon fill="none" stroke="black" points="750,-70.3302 750,-89.3302 828,-89.3302 828,-70.3302 750,-70.3302"/>
<text text-anchor="middle" x="789" y="-77.3302" font-family="Helvetica,sans-Serif" font-size="10.00">hpd_map_free</text>
</a>
</g>
</g>
<!-- Node4&#45;&gt;Node7 -->
<g id="edge14" class="edge"><title>Node4&#45;&gt;Node7</title>
<path fill="none" stroke="midnightblue" d="M396.286,-46.6045C485.171,-54.1439 656.495,-68.6758 739.954,-75.7549"/>
<polygon fill="midnightblue" stroke="midnightblue" points="739.666,-79.243 749.926,-76.6008 740.258,-72.268 739.666,-79.243"/>
</g>
<!-- Node9 -->
<g id="node9" class="node"><title>Node9</title>
<g id="a_node9"><a xlink:href="a00006.html#adf46370d9c211c3be22966b4606ba9b0" target="_top" xlink:title="free">
<polygon fill="none" stroke="black" points="994,-70.3302 994,-89.3302 1027,-89.3302 1027,-70.3302 994,-70.3302"/>
<text text-anchor="middle" x="1010.5" y="-77.3302" font-family="Helvetica,sans-Serif" font-size="10.00">free</text>
</a>
</g>
</g>
<!-- Node4&#45;&gt;Node9 -->
<g id="edge13" class="edge"><title>Node4&#45;&gt;Node9</title>
<path fill="none" stroke="midnightblue" d="M387.604,-32.2903C448.014,-21.0339 555.547,-3.83024 648.5,-3.83024 648.5,-3.83024 648.5,-3.83024 790,-3.83024 865.143,-3.83024 891.153,11.4907 958,-22.8302 974.994,-31.5553 989.093,-48.3608 998.217,-61.4731"/>
<polygon fill="midnightblue" stroke="midnightblue" points="995.535,-63.7649 1003.95,-70.1998 1001.39,-59.9206 995.535,-63.7649"/>
</g>
<!-- Node6 -->
<g id="node6" class="node"><title>Node6</title>
<g id="a_node6"><a xlink:href="a00059.html#ad18143d06649d9220e4fd8d74dbdec79" target="_top" xlink:title="discovery_free_parameter">
<polygon fill="none" stroke="black" points="585,-108.33 585,-127.33 714,-127.33 714,-108.33 585,-108.33"/>
<text text-anchor="middle" x="649.5" y="-115.33" font-family="Helvetica,sans-Serif" font-size="10.00">discovery_free_parameter</text>
</a>
</g>
</g>
<!-- Node5&#45;&gt;Node6 -->
<g id="edge5" class="edge"><title>Node5&#45;&gt;Node6</title>
<path fill="none" stroke="midnightblue" d="M549.07,-105.797C557.435,-106.81 566.143,-107.864 574.774,-108.908"/>
<polygon fill="midnightblue" stroke="midnightblue" points="574.497,-112.4 584.845,-110.127 575.338,-105.451 574.497,-112.4"/>
</g>
<!-- Node5&#45;&gt;Node7 -->
<g id="edge12" class="edge"><title>Node5&#45;&gt;Node7</title>
<path fill="none" stroke="midnightblue" d="M549.02,-95.1443C604.594,-91.5831 687.807,-86.2507 739.944,-82.9097"/>
<polygon fill="midnightblue" stroke="midnightblue" points="740.184,-86.4016 749.939,-82.2692 739.736,-79.416 740.184,-86.4016"/>
</g>
<!-- Node5&#45;&gt;Node9 -->
<g id="edge11" class="edge"><title>Node5&#45;&gt;Node9</title>
<path fill="none" stroke="midnightblue" d="M509.133,-108.41C527.47,-117.784 557.313,-131.419 585,-136.83 748.008,-168.69 801.346,-169.024 958,-113.83 969.64,-109.729 981.231,-102.435 990.461,-95.6519"/>
<polygon fill="midnightblue" stroke="midnightblue" points="992.743,-98.3121 998.512,-89.4257 988.46,-92.7749 992.743,-98.3121"/>
</g>
<!-- Node6&#45;&gt;Node7 -->
<g id="edge6" class="edge"><title>Node6&#45;&gt;Node7</title>
<path fill="none" stroke="midnightblue" d="M685.197,-108.241C702.866,-103.358 724.549,-97.3659 743.439,-92.1453"/>
<polygon fill="midnightblue" stroke="midnightblue" points="744.608,-95.4536 753.314,-89.4162 742.743,-88.7065 744.608,-95.4536"/>
</g>
<!-- Node6&#45;&gt;Node9 -->
<g id="edge10" class="edge"><title>Node6&#45;&gt;Node9</title>
<path fill="none" stroke="midnightblue" d="M714.242,-116.336C776.734,-114.055 874.506,-108.305 958,-93.8302 966.601,-92.339 975.847,-90.0491 984.098,-87.7504"/>
<polygon fill="midnightblue" stroke="midnightblue" points="985.274,-91.0534 993.894,-84.8934 983.314,-84.3334 985.274,-91.0534"/>
</g>
<!-- Node8 -->
<g id="node8" class="node"><title>Node8</title>
<g id="a_node8"><a xlink:href="a00022.html#ae1085dd4fd40466d18b02ec077ef4d6d" target="_top" xlink:title="hpd_map_remove">
<polygon fill="none" stroke="black" points="864,-32.3302 864,-51.3302 958,-51.3302 958,-32.3302 864,-32.3302"/>
<text text-anchor="middle" x="911" y="-39.3302" font-family="Helvetica,sans-Serif" font-size="10.00">hpd_map_remove</text>
</a>
</g>
</g>
<!-- Node7&#45;&gt;Node8 -->
<g id="edge7" class="edge"><title>Node7&#45;&gt;Node8</title>
<path fill="none" stroke="midnightblue" d="M820.281,-70.2412C835.346,-65.4708 853.754,-59.6415 869.967,-54.5074"/>
<polygon fill="midnightblue" stroke="midnightblue" points="871.252,-57.7719 879.729,-51.4162 869.139,-51.0985 871.252,-57.7719"/>
</g>
<!-- Node7&#45;&gt;Node9 -->
<g id="edge9" class="edge"><title>Node7&#45;&gt;Node9</title>
<path fill="none" stroke="midnightblue" d="M828.234,-79.8302C872.728,-79.8302 944.997,-79.8302 983.468,-79.8302"/>
<polygon fill="midnightblue" stroke="midnightblue" points="983.813,-83.3303 993.813,-79.8302 983.813,-76.3303 983.813,-83.3303"/>
</g>
<!-- Node8&#45;&gt;Node9 -->
<g id="edge8" class="edge"><title>Node8&#45;&gt;Node9</title>
<path fill="none" stroke="midnightblue" d="M936.603,-51.4192C951.179,-57.1001 969.608,-64.2825 984.289,-70.0043"/>
<polygon fill="midnightblue" stroke="midnightblue" points="983.172,-73.3255 993.76,-73.6959 985.714,-66.8033 983.172,-73.3255"/>
</g>
</g>
</svg>
        <g id="navigator" transform="translate(0 0)" fill="#404254">
                <rect fill="#f2f5e9" fill-opacity="0.5" stroke="#606060" stroke-width=".5" x="0" y="0" width="60" height="60"/>
                <use id="zoomplus" xlink:href="#zoomPlus" x="17" y="9" onmousedown="handleZoom(evt,'in')"/>
                <use id="zoomminus" xlink:href="#zoomMin" x="42" y="9" onmousedown="handleZoom(evt,'out')"/>
                <use id="reset" xlink:href="#resetDef" x="30" y="36" onmousedown="handleReset()"/>
                <g id="arrowUp" xlink:href="#dirArrow" transform="translate(30 24)" onmousedown="handlePan(0,-1)">
                  <use xlink:href="#rim" fill="#404040">
                        <set attributeName="fill" to="#808080" begin="arrowUp.mouseover" end="arrowUp.mouseout"/>
                  </use>
                  <path fill="none" stroke="white" stroke-width="1.5" d="M0,-3.0v7 M-2.5,-0.5L0,-3.0L2.5,-0.5"/>
                </g>
                <g id="arrowRight" xlink:href="#dirArrow" transform="rotate(90) translate(36 -43)" onmousedown="handlePan(1,0)">
                  <use xlink:href="#rim" fill="#404040">
                        <set attributeName="fill" to="#808080" begin="arrowRight.mouseover" end="arrowRight.mouseout"/>
                  </use>
                  <path fill="none" stroke="white" stroke-width="1.5" d="M0,-3.0v7 M-2.5,-0.5L0,-3.0L2.5,-0.5"/>
                </g>
                <g id="arrowDown" xlink:href="#dirArrow" transform="rotate(180) translate(-30 -48)" onmousedown="handlePan(0,1)">
                  <use xlink:href="#rim" fill="#404040">
                        <set attributeName="fill" to="#808080" begin="arrowDown.mouseover" end="arrowDown.mouseout"/>
                  </use>
                  <path fill="none" stroke="white" stroke-width="1.5" d="M0,-3.0v7 M-2.5,-0.5L0,-3.0L2.5,-0.5"/>
                </g>
                <g id="arrowLeft" xlink:href="#dirArrow" transform="rotate(270) translate(-36 17)" onmousedown="handlePan(-1,0)">
                  <use xlink:href="#rim" fill="#404040">
                        <set attributeName="fill" to="#808080" begin="arrowLeft.mouseover" end="arrowLeft.mouseout"/>
                  </use>
                  <path fill="none" stroke="white" stroke-width="1.5" d="M0,-3.0v7 M-2.5,-0.5L0,-3.0L2.5,-0.5"/>
                </g>
        </g>
        <svg viewBox="0 0 15 15" width="100%" height="30px" preserveAspectRatio="xMaxYMin meet">
         <g id="arrow_out" transform="scale(0.3 0.3)">
          <a xlink:href="a00052_a10a4b84cc7128e1900008dc1de4653a2_cgraph_org.svg" target="_base">
           <rect id="button" ry="5" rx="5" y="6" x="6" height="38" width="38"
                fill="#f2f5e9" fill-opacity="0.5" stroke="#606060" stroke-width="1.0"/>
           <path id="arrow"
             d="M 11.500037,31.436501 C 11.940474,20.09759 22.043105,11.32322 32.158766,21.979434 L 37.068811,17.246167 C 37.068811,17.246167 37.088388,32 37.088388,32 L 22.160133,31.978069 C 22.160133,31.978069 26.997745,27.140456 26.997745,27.140456 C 18.528582,18.264221 13.291696,25.230495 11.500037,31.436501 z"
             style="fill:#404040;"/>
          </a>
         </g>
        </svg>
</svg>
