<?xml version="1.0" encoding="UTF-8" standalone="no"?>
<!DOCTYPE svg PUBLIC "-//W3C//DTD SVG 1.1//EN"
 "http://www.w3.org/Graphics/SVG/1.1/DTD/svg11.dtd">
<!-- Generated by graphviz version 2.38.0 (20140413.2041)
 -->
<!-- Title: daemon_free Pages: 1 -->
<svg width="249pt" height="66pt"
 viewBox="0.00 0.00 249.00 66.00" xmlns="http://www.w3.org/2000/svg" xmlns:xlink="http://www.w3.org/1999/xlink">
<g id="graph0" class="graph" transform="scale(1 1) rotate(0) translate(4 62)">
<title>daemon_free</title>
<!-- Node1 -->
<g id="node1" class="node"><title>Node1</title>
<polygon fill="#bfbfbf" stroke="black" points="0,-19.5 0,-38.5 73,-38.5 73,-19.5 0,-19.5"/>
<text text-anchor="middle" x="36.5" y="-26.5" font-family="Helvetica,sans-Serif" font-size="10.00">daemon_free</text>
</g>
<!-- Node2 -->
<g id="node2" class="node"><title>Node2</title>
<g id="a_node2"><a xlink:href="a00062.html#aa833627ad45d82173c0caf687cd30126" target="_top" xlink:title="hpd_free">
<polygon fill="none" stroke="black" points="109,-19.5 109,-38.5 163,-38.5 163,-19.5 109,-19.5"/>
<text text-anchor="middle" x="136" y="-26.5" font-family="Helvetica,sans-Serif" font-size="10.00">hpd_free</text>
</a>
</g>
</g>
<!-- Node1&#45;&gt;Node2 -->
<g id="edge1" class="edge"><title>Node1&#45;&gt;Node2</title>
<path fill="none" stroke="midnightblue" d="M83.3474,-29C92.0528,-29 100.882,-29 108.719,-29"/>
<polygon fill="midnightblue" stroke="midnightblue" points="83.2518,-25.5001 73.2518,-29 83.2517,-32.5001 83.2518,-25.5001"/>
</g>
<!-- Node3 -->
<g id="node3" class="node"><title>Node3</title>
<g id="a_node3"><a xlink:href="a00055.html#a0ddf1224851353fc92bfbff6f499fa97" target="_top" xlink:title="main">
<polygon fill="none" stroke="black" points="201,-38.5 201,-57.5 239,-57.5 239,-38.5 201,-38.5"/>
<text text-anchor="middle" x="220" y="-45.5" font-family="Helvetica,sans-Serif" font-size="10.00">main</text>
</a>
</g>
</g>
<!-- Node2&#45;&gt;Node3 -->
<g id="edge2" class="edge"><title>Node2&#45;&gt;Node3</title>
<path fill="none" stroke="midnightblue" d="M173.194,-37.3864C182.806,-39.6136 192.775,-41.9235 200.949,-43.8175"/>
<polygon fill="midnightblue" stroke="midnightblue" points="173.929,-33.964 163.397,-35.1163 172.349,-40.7833 173.929,-33.964"/>
</g>
<!-- Node4 -->
<g id="node4" class="node"><title>Node4</title>
<g id="a_node4"><a xlink:href="a00030.html#aa2ad001cd2039527a6d248f70aaf3fc1" target="_top" xlink:title="TEST">
<polygon fill="none" stroke="black" points="199,-0.5 199,-19.5 241,-19.5 241,-0.5 199,-0.5"/>
<text text-anchor="middle" x="220" y="-7.5" font-family="Helvetica,sans-Serif" font-size="10.00">TEST</text>
</a>
</g>
</g>
<!-- Node2&#45;&gt;Node4 -->
<g id="edge3" class="edge"><title>Node2&#45;&gt;Node4</title>
<path fill="none" stroke="midnightblue" d="M173.152,-20.6233C181.986,-18.5764 191.125,-16.4589 198.896,-14.6582"/>
<polygon fill="midnightblue" stroke="midnightblue" points="172.349,-17.2167 163.397,-22.8837 173.929,-24.036 172.349,-17.2167"/>
</g>
</g>
</svg>
