<?xml version="1.0" encoding="UTF-8" standalone="no"?>
<!DOCTYPE svg PUBLIC "-//W3C//DTD SVG 1.1//EN"
 "http://www.w3.org/Graphics/SVG/1.1/DTD/svg11.dtd">
<!-- Generated by graphviz version 2.38.0 (20140413.2041)
 -->
<!-- Title: hpd_value_allocf Pages: 1 -->
<svg width="1071pt" height="66pt"
 viewBox="0.00 0.00 1071.00 66.00" xmlns="http://www.w3.org/2000/svg" xmlns:xlink="http://www.w3.org/1999/xlink">
<g id="graph0" class="graph" transform="scale(1 1) rotate(0) translate(4 62)">
<title>hpd_value_allocf</title>
<!-- Node1 -->
<g id="node1" class="node"><title>Node1</title>
<polygon fill="#bfbfbf" stroke="black" points="0,-19.5 0,-38.5 89,-38.5 89,-19.5 0,-19.5"/>
<text text-anchor="middle" x="44.5" y="-26.5" font-family="Helvetica,sans-Serif" font-size="10.00">hpd_value_allocf</text>
</g>
<!-- Node2 -->
<g id="node2" class="node"><title>Node2</title>
<g id="a_node2"><a xlink:href="a00013.html#a1d3cd6fde2598f29c88786537becfbb3" target="_top" xlink:title="[definition] ">
<polygon fill="none" stroke="black" points="307,-38.5 307,-57.5 440,-57.5 440,-38.5 307,-38.5"/>
<text text-anchor="middle" x="373.5" y="-45.5" font-family="Helvetica,sans-Serif" font-size="10.00">demo_adapter_send_value</text>
</a>
</g>
</g>
<!-- Node1&#45;&gt;Node2 -->
<g id="edge1" class="edge"><title>Node1&#45;&gt;Node2</title>
<path fill="none" stroke="midnightblue" d="M99.4917,-32.1371C156.399,-35.4437 246.066,-40.6537 306.982,-44.1931"/>
<polygon fill="midnightblue" stroke="midnightblue" points="99.4476,-28.6288 89.2614,-31.5427 99.0415,-35.617 99.4476,-28.6288"/>
</g>
<!-- Node8 -->
<g id="node8" class="node"><title>Node8</title>
<g id="a_node8"><a xlink:href="a00013.html#adbf1665143a378afa8da1fa998518b3d" target="_top" xlink:title="[send] ">
<polygon fill="none" stroke="black" points="125,-0.5 125,-19.5 271,-19.5 271,-0.5 125,-0.5"/>
<text text-anchor="middle" x="198" y="-7.5" font-family="Helvetica,sans-Serif" font-size="10.00">demo_adapter_send_changed</text>
</a>
</g>
</g>
<!-- Node1&#45;&gt;Node8 -->
<g id="edge8" class="edge"><title>Node1&#45;&gt;Node8</title>
<path fill="none" stroke="midnightblue" d="M99.4683,-22.2317C107.663,-21.204 116.228,-20.1298 124.736,-19.0629"/>
<polygon fill="midnightblue" stroke="midnightblue" points="98.8068,-18.7872 89.3201,-23.5044 99.6779,-25.7327 98.8068,-18.7872"/>
</g>
<!-- Node3 -->
<g id="node3" class="node"><title>Node3</title>
<g id="a_node3"><a xlink:href="a00013.html#ad12964278a8b6998fccbae23e084a8a7" target="_top" xlink:title="[set] ">
<polygon fill="none" stroke="black" points="476,-38.5 476,-57.5 589,-57.5 589,-38.5 476,-38.5"/>
<text text-anchor="middle" x="532.5" y="-45.5" font-family="Helvetica,sans-Serif" font-size="10.00">demo_adapter_on_get</text>
</a>
</g>
</g>
<!-- Node2&#45;&gt;Node3 -->
<g id="edge2" class="edge"><title>Node2&#45;&gt;Node3</title>
<path fill="none" stroke="midnightblue" d="M450.446,-48C458.907,-48 467.407,-48 475.553,-48"/>
<polygon fill="midnightblue" stroke="midnightblue" points="450.172,-44.5001 440.172,-48 450.172,-51.5001 450.172,-44.5001"/>
</g>
<!-- Node7 -->
<g id="node7" class="node"><title>Node7</title>
<g id="a_node7"><a xlink:href="a00013.html#a00981c2b16f03b852495746fb9ecb2c9" target="_top" xlink:title="[on_get] ">
<polygon fill="none" stroke="black" points="476,-0.5 476,-19.5 589,-19.5 589,-0.5 476,-0.5"/>
<text text-anchor="middle" x="532.5" y="-7.5" font-family="Helvetica,sans-Serif" font-size="10.00">demo_adapter_on_put</text>
</a>
</g>
</g>
<!-- Node2&#45;&gt;Node7 -->
<g id="edge6" class="edge"><title>Node2&#45;&gt;Node7</title>
<path fill="none" stroke="midnightblue" d="M423.947,-36.032C445.948,-30.7069 471.494,-24.5238 492.167,-19.5201"/>
<polygon fill="midnightblue" stroke="midnightblue" points="423.014,-32.6567 414.118,-38.411 424.66,-39.4602 423.014,-32.6567"/>
</g>
<!-- Node4 -->
<g id="node4" class="node"><title>Node4</title>
<g id="a_node4"><a xlink:href="a00013.html#aca3f96055b6405843c652ef5efd1c3e8" target="_top" xlink:title="[create_parameter] ">
<polygon fill="none" stroke="black" points="625,-14 625,-44 735,-44 735,-14 625,-14"/>
<text text-anchor="start" x="633" y="-32" font-family="Helvetica,sans-Serif" font-size="10.00">demo_adapter_create</text>
<text text-anchor="middle" x="680" y="-21" font-family="Helvetica,sans-Serif" font-size="10.00">_service</text>
</a>
</g>
</g>
<!-- Node3&#45;&gt;Node4 -->
<g id="edge3" class="edge"><title>Node3&#45;&gt;Node4</title>
<path fill="none" stroke="midnightblue" d="M599.328,-39.4039C607.913,-38.2828 616.628,-37.1447 624.989,-36.053"/>
<polygon fill="midnightblue" stroke="midnightblue" points="598.801,-35.943 589.338,-40.7084 599.707,-42.884 598.801,-35.943"/>
</g>
<!-- Node5 -->
<g id="node5" class="node"><title>Node5</title>
<g id="a_node5"><a xlink:href="a00013.html#abfc239c18fce4bcc601e14074ddfabf8" target="_top" xlink:title="[create_service] ">
<polygon fill="none" stroke="black" points="771,-19.5 771,-38.5 908,-38.5 908,-19.5 771,-19.5"/>
<text text-anchor="middle" x="839.5" y="-26.5" font-family="Helvetica,sans-Serif" font-size="10.00">demo_adapter_create_lamp</text>
</a>
</g>
</g>
<!-- Node4&#45;&gt;Node5 -->
<g id="edge4" class="edge"><title>Node4&#45;&gt;Node5</title>
<path fill="none" stroke="midnightblue" d="M745.324,-29C753.736,-29 762.375,-29 770.84,-29"/>
<polygon fill="midnightblue" stroke="midnightblue" points="745.203,-25.5001 735.203,-29 745.203,-32.5001 745.203,-25.5001"/>
</g>
<!-- Node6 -->
<g id="node6" class="node"><title>Node6</title>
<g id="a_node6"><a xlink:href="a00013.html#a9f84d5de2ac16bde89480bd48efdff51" target="_top" xlink:title="[create_lamp] ">
<polygon fill="none" stroke="black" points="944,-19.5 944,-38.5 1063,-38.5 1063,-19.5 944,-19.5"/>
<text text-anchor="middle" x="1003.5" y="-26.5" font-family="Helvetica,sans-Serif" font-size="10.00">demo_adapter_on_start</text>
</a>
</g>
</g>
<!-- Node5&#45;&gt;Node6 -->
<g id="edge5" class="edge"><title>Node5&#45;&gt;Node6</title>
<path fill="none" stroke="midnightblue" d="M918.281,-29C926.853,-29 935.473,-29 943.757,-29"/>
<polygon fill="midnightblue" stroke="midnightblue" points="918.264,-25.5001 908.264,-29 918.264,-32.5001 918.264,-25.5001"/>
</g>
<!-- Node7&#45;&gt;Node4 -->
<g id="edge7" class="edge"><title>Node7&#45;&gt;Node4</title>
<path fill="none" stroke="midnightblue" d="M599.328,-18.5961C607.913,-19.7172 616.628,-20.8553 624.989,-21.947"/>
<polygon fill="midnightblue" stroke="midnightblue" points="599.707,-15.116 589.338,-17.2916 598.801,-22.057 599.707,-15.116"/>
</g>
<!-- Node9 -->
<g id="node9" class="node"><title>Node9</title>
<g id="a_node9"><a xlink:href="a00013.html#ace98565eb7d2f6a302873024f672b95f" target="_top" xlink:title="[changed] ">
<polygon fill="none" stroke="black" points="311,-0.5 311,-19.5 436,-19.5 436,-0.5 311,-0.5"/>
<text text-anchor="middle" x="373.5" y="-7.5" font-family="Helvetica,sans-Serif" font-size="10.00">demo_adapter_set_value</text>
</a>
</g>
</g>
<!-- Node8&#45;&gt;Node9 -->
<g id="edge9" class="edge"><title>Node8&#45;&gt;Node9</title>
<path fill="none" stroke="midnightblue" d="M281.369,-10C291.298,-10 301.303,-10 310.863,-10"/>
<polygon fill="midnightblue" stroke="midnightblue" points="281.072,-6.5001 271.072,-10 281.072,-13.5001 281.072,-6.5001"/>
</g>
<!-- Node9&#45;&gt;Node7 -->
<g id="edge10" class="edge"><title>Node9&#45;&gt;Node7</title>
<path fill="none" stroke="midnightblue" d="M446.371,-10C456.303,-10 466.377,-10 475.952,-10"/>
<polygon fill="midnightblue" stroke="midnightblue" points="446.1,-6.5001 436.1,-10 446.1,-13.5001 446.1,-6.5001"/>
</g>
</g>
</svg>
