<?xml version="1.0" encoding="UTF-8" standalone="no"?>
<!DOCTYPE svg PUBLIC "-//W3C//DTD SVG 1.1//EN"
 "http://www.w3.org/Graphics/SVG/1.1/DTD/svg11.dtd">
<!-- Generated by graphviz version 2.38.0 (20140413.2041)
 -->
<!-- Title: demo_adapter_send_changed Pages: 1 -->
<svg width="1074pt" height="370pt"
 viewBox="0.00 0.00 1074.00 370.00" xmlns="http://www.w3.org/2000/svg" xmlns:xlink="http://www.w3.org/1999/xlink">
<g id="graph0" class="graph" transform="scale(1 1) rotate(0) translate(4 366)">
<title>demo_adapter_send_changed</title>
<!-- Node1 -->
<g id="node1" class="node"><title>Node1</title>
<polygon fill="#bfbfbf" stroke="black" points="0,-230.5 0,-249.5 146,-249.5 146,-230.5 0,-230.5"/>
<text text-anchor="middle" x="73" y="-237.5" font-family="Helvetica,sans-Serif" font-size="10.00">demo_adapter_send_changed</text>
</g>
<!-- Node2 -->
<g id="node2" class="node"><title>Node2</title>
<g id="a_node2"><a xlink:href="a00075.html#a0aa34f0ba8202ed0e5d3c71719f658b0" target="_top" xlink:title="hpd_value_allocf">
<polygon fill="none" stroke="black" points="182,-287.5 182,-306.5 271,-306.5 271,-287.5 182,-287.5"/>
<text text-anchor="middle" x="226.5" y="-294.5" font-family="Helvetica,sans-Serif" font-size="10.00">hpd_value_allocf</text>
</a>
</g>
</g>
<!-- Node1&#45;&gt;Node2 -->
<g id="edge1" class="edge"><title>Node1&#45;&gt;Node2</title>
<path fill="none" stroke="midnightblue" d="M99.3577,-249.541C124.374,-258.953 162.81,-273.414 190.681,-283.9"/>
<polygon fill="midnightblue" stroke="midnightblue" points="189.468,-287.183 200.06,-287.428 191.933,-280.631 189.468,-287.183"/>
</g>
<!-- Node9 -->
<g id="node9" class="node"><title>Node9</title>
<g id="a_node9"><a xlink:href="a00071.html#a07a10b83cf5554e81e5d80d0dfbe7215" target="_top" xlink:title="[hpd_response_t functions] ">
<polygon fill="none" stroke="black" points="189.5,-163.5 189.5,-182.5 263.5,-182.5 263.5,-163.5 189.5,-163.5"/>
<text text-anchor="middle" x="226.5" y="-170.5" font-family="Helvetica,sans-Serif" font-size="10.00">hpd_changed</text>
</a>
</g>
</g>
<!-- Node1&#45;&gt;Node9 -->
<g id="edge11" class="edge"><title>Node1&#45;&gt;Node9</title>
<path fill="none" stroke="midnightblue" d="M95.7063,-230.401C121.581,-218.957 165.011,-199.751 194.437,-186.737"/>
<polygon fill="midnightblue" stroke="midnightblue" points="196.104,-189.827 203.834,-182.582 193.273,-183.425 196.104,-189.827"/>
</g>
<!-- Node19 -->
<g id="node19" class="node"><title>Node19</title>
<g id="a_node19"><a xlink:href="a00075.html#a214a6d699e1e5cbff10fa2d6fee721ff" target="_top" xlink:title="hpd_value_free">
<polygon fill="none" stroke="black" points="307,-230.5 307,-249.5 390,-249.5 390,-230.5 307,-230.5"/>
<text text-anchor="middle" x="348.5" y="-237.5" font-family="Helvetica,sans-Serif" font-size="10.00">hpd_value_free</text>
</a>
</g>
</g>
<!-- Node1&#45;&gt;Node19 -->
<g id="edge26" class="edge"><title>Node1&#45;&gt;Node19</title>
<path fill="none" stroke="midnightblue" d="M146.217,-240C193.588,-240 254.364,-240 296.682,-240"/>
<polygon fill="midnightblue" stroke="midnightblue" points="296.755,-243.5 306.755,-240 296.755,-236.5 296.755,-243.5"/>
</g>
<!-- Node3 -->
<g id="node3" class="node"><title>Node3</title>
<g id="a_node3"><a xlink:href="a00090.html#adeb75caf64a60f64199894b007586f88" target="_top" xlink:title="value_vallocf">
<polygon fill="none" stroke="black" points="440.5,-301.5 440.5,-320.5 514.5,-320.5 514.5,-301.5 440.5,-301.5"/>
<text text-anchor="middle" x="477.5" y="-308.5" font-family="Helvetica,sans-Serif" font-size="10.00">value_vallocf</text>
</a>
</g>
</g>
<!-- Node2&#45;&gt;Node3 -->
<g id="edge2" class="edge"><title>Node2&#45;&gt;Node3</title>
<path fill="none" stroke="midnightblue" d="M271.157,-299.455C315.67,-301.957 384.473,-305.826 429.99,-308.385"/>
<polygon fill="midnightblue" stroke="midnightblue" points="430,-311.891 440.181,-308.958 430.393,-304.902 430,-311.891"/>
</g>
<!-- Node4 -->
<g id="node4" class="node"><title>Node4</title>
<g id="a_node4"><a xlink:href="a00056.html#a8d23b888fb4bb3f951c7d48f1928ee9a" target="_top" xlink:title="hpd_map_alloc">
<polygon fill="none" stroke="black" points="575,-342.5 575,-361.5 657,-361.5 657,-342.5 575,-342.5"/>
<text text-anchor="middle" x="616" y="-349.5" font-family="Helvetica,sans-Serif" font-size="10.00">hpd_map_alloc</text>
</a>
</g>
</g>
<!-- Node3&#45;&gt;Node4 -->
<g id="edge3" class="edge"><title>Node3&#45;&gt;Node4</title>
<path fill="none" stroke="midnightblue" d="M510.159,-320.509C528.974,-326.161 553.058,-333.395 573.396,-339.504"/>
<polygon fill="midnightblue" stroke="midnightblue" points="572.456,-342.876 583.04,-342.4 574.469,-336.171 572.456,-342.876"/>
</g>
<!-- Node5 -->
<g id="node5" class="node"><title>Node5</title>
<g id="a_node5"><a xlink:href="a00012.html#adf46370d9c211c3be22966b4606ba9b0" target="_top" xlink:title="free">
<polygon fill="none" stroke="black" points="1002,-171.5 1002,-190.5 1035,-190.5 1035,-171.5 1002,-171.5"/>
<text text-anchor="middle" x="1018.5" y="-178.5" font-family="Helvetica,sans-Serif" font-size="10.00">free</text>
</a>
</g>
</g>
<!-- Node3&#45;&gt;Node5 -->
<g id="edge4" class="edge"><title>Node3&#45;&gt;Node5</title>
<path fill="none" stroke="midnightblue" d="M514.767,-317.664C595.46,-330.627 793.848,-352.044 935,-280 969.699,-262.29 995.363,-222.87 1008.23,-199.467"/>
<polygon fill="midnightblue" stroke="midnightblue" points="1011.38,-201.005 1012.95,-190.528 1005.19,-197.737 1011.38,-201.005"/>
</g>
<!-- Node6 -->
<g id="node6" class="node"><title>Node6</title>
<g id="a_node6"><a xlink:href="a00090.html#a1ec3b1d4547e5080bcec544c877852da" target="_top" xlink:title="value_free">
<polygon fill="none" stroke="black" points="585,-230.5 585,-249.5 647,-249.5 647,-230.5 585,-230.5"/>
<text text-anchor="middle" x="616" y="-237.5" font-family="Helvetica,sans-Serif" font-size="10.00">value_free</text>
</a>
</g>
</g>
<!-- Node3&#45;&gt;Node6 -->
<g id="edge5" class="edge"><title>Node3&#45;&gt;Node6</title>
<path fill="none" stroke="midnightblue" d="M496.909,-301.425C520.213,-289.303 560.564,-268.315 587.521,-254.293"/>
<polygon fill="midnightblue" stroke="midnightblue" points="589.19,-257.37 596.447,-249.65 585.96,-251.16 589.19,-257.37"/>
</g>
<!-- Node6&#45;&gt;Node5 -->
<g id="edge10" class="edge"><title>Node6&#45;&gt;Node5</title>
<path fill="none" stroke="midnightblue" d="M646.788,-249.502C704.659,-266.284 835.345,-295.906 935,-257 964.776,-245.375 990.285,-217.414 1004.76,-198.844"/>
<polygon fill="midnightblue" stroke="midnightblue" points="1007.74,-200.694 1010.95,-190.595 1002.15,-196.493 1007.74,-200.694"/>
</g>
<!-- Node7 -->
<g id="node7" class="node"><title>Node7</title>
<g id="a_node7"><a xlink:href="a00056.html#a195d511a075f2349200563af1c5d1fd7" target="_top" xlink:title="hpd_map_free">
<polygon fill="none" stroke="black" points="713,-228.5 713,-247.5 791,-247.5 791,-228.5 713,-228.5"/>
<text text-anchor="middle" x="752" y="-235.5" font-family="Helvetica,sans-Serif" font-size="10.00">hpd_map_free</text>
</a>
</g>
</g>
<!-- Node6&#45;&gt;Node7 -->
<g id="edge6" class="edge"><title>Node6&#45;&gt;Node7</title>
<path fill="none" stroke="midnightblue" d="M647.072,-239.551C663.479,-239.306 684.182,-238.997 702.784,-238.72"/>
<polygon fill="midnightblue" stroke="midnightblue" points="702.915,-242.218 712.861,-238.569 702.81,-235.219 702.915,-242.218"/>
</g>
<!-- Node7&#45;&gt;Node5 -->
<g id="edge9" class="edge"><title>Node7&#45;&gt;Node5</title>
<path fill="none" stroke="midnightblue" d="M791.025,-229.273C805.418,-226.003 821.954,-222.285 837,-219 892.006,-206.99 956.592,-193.553 991.656,-186.314"/>
<polygon fill="midnightblue" stroke="midnightblue" points="992.46,-189.722 1001.55,-184.275 991.046,-182.866 992.46,-189.722"/>
</g>
<!-- Node8 -->
<g id="node8" class="node"><title>Node8</title>
<g id="a_node8"><a xlink:href="a00031.html#ae1085dd4fd40466d18b02ec077ef4d6d" target="_top" xlink:title="hpd_map_remove">
<polygon fill="none" stroke="black" points="839,-228.5 839,-247.5 933,-247.5 933,-228.5 839,-228.5"/>
<text text-anchor="middle" x="886" y="-235.5" font-family="Helvetica,sans-Serif" font-size="10.00">hpd_map_remove</text>
</a>
</g>
</g>
<!-- Node7&#45;&gt;Node8 -->
<g id="edge7" class="edge"><title>Node7&#45;&gt;Node8</title>
<path fill="none" stroke="midnightblue" d="M791.18,-238C802.956,-238 816.178,-238 828.898,-238"/>
<polygon fill="midnightblue" stroke="midnightblue" points="828.954,-241.5 838.954,-238 828.954,-234.5 828.954,-241.5"/>
</g>
<!-- Node8&#45;&gt;Node5 -->
<g id="edge8" class="edge"><title>Node8&#45;&gt;Node5</title>
<path fill="none" stroke="midnightblue" d="M908.843,-228.459C931.928,-218.376 968.281,-202.498 992.498,-191.921"/>
<polygon fill="midnightblue" stroke="midnightblue" points="993.986,-195.09 1001.75,-187.88 991.185,-188.675 993.986,-195.09"/>
</g>
<!-- Node10 -->
<g id="node10" class="node"><title>Node10</title>
<g id="a_node10"><a xlink:href="a00081.html#a297853e0fa2771380bdea7d2279f5e82" target="_top" xlink:title="event_changed">
<polygon fill="none" stroke="black" points="307,-133.5 307,-152.5 390,-152.5 390,-133.5 307,-133.5"/>
<text text-anchor="middle" x="348.5" y="-140.5" font-family="Helvetica,sans-Serif" font-size="10.00">event_changed</text>
</a>
</g>
</g>
<!-- Node9&#45;&gt;Node10 -->
<g id="edge12" class="edge"><title>Node9&#45;&gt;Node10</title>
<path fill="none" stroke="midnightblue" d="M263.504,-163.999C274.83,-161.167 287.522,-157.994 299.542,-154.989"/>
<polygon fill="midnightblue" stroke="midnightblue" points="300.583,-158.337 309.436,-152.516 298.886,-151.546 300.583,-158.337"/>
</g>
<!-- Node10&#45;&gt;Node5 -->
<g id="edge25" class="edge"><title>Node10&#45;&gt;Node5</title>
<path fill="none" stroke="midnightblue" d="M390.37,-147.745C442.45,-153.373 535.285,-162 615,-162 615,-162 615,-162 753,-162 840.772,-162 944.508,-172.538 991.75,-177.918"/>
<polygon fill="midnightblue" stroke="midnightblue" points="991.391,-181.399 1001.73,-179.074 992.197,-174.446 991.391,-181.399"/>
</g>
<!-- Node11 -->
<g id="node11" class="node"><title>Node11</title>
<g id="a_node11"><a xlink:href="a00020.html#a5c32745b982186a9c70944b87470fa32" target="_top" xlink:title="discovery_copy_sid">
<polygon fill="none" stroke="black" points="426,-57.5 426,-76.5 529,-76.5 529,-57.5 426,-57.5"/>
<text text-anchor="middle" x="477.5" y="-64.5" font-family="Helvetica,sans-Serif" font-size="10.00">discovery_copy_sid</text>
</a>
</g>
</g>
<!-- Node10&#45;&gt;Node11 -->
<g id="edge13" class="edge"><title>Node10&#45;&gt;Node11</title>
<path fill="none" stroke="midnightblue" d="M365.585,-133.375C387.342,-120.355 426.353,-97.0093 451.829,-81.7636"/>
<polygon fill="midnightblue" stroke="midnightblue" points="453.762,-84.6857 460.546,-76.5473 450.168,-78.679 453.762,-84.6857"/>
</g>
<!-- Node17 -->
<g id="node17" class="node"><title>Node17</title>
<g id="a_node17"><a xlink:href="a00081.html#a44622fe1ec10738603492e32d11573d7" target="_top" xlink:title="event_on_changed">
<polygon fill="none" stroke="black" points="428.5,-114.5 428.5,-133.5 526.5,-133.5 526.5,-114.5 428.5,-114.5"/>
<text text-anchor="middle" x="477.5" y="-121.5" font-family="Helvetica,sans-Serif" font-size="10.00">event_on_changed</text>
</a>
</g>
</g>
<!-- Node10&#45;&gt;Node17 -->
<g id="edge20" class="edge"><title>Node10&#45;&gt;Node17</title>
<path fill="none" stroke="midnightblue" d="M390.033,-136.936C399.084,-135.582 408.855,-134.12 418.458,-132.683"/>
<polygon fill="midnightblue" stroke="midnightblue" points="418.996,-136.142 428.368,-131.201 417.96,-129.219 418.996,-136.142"/>
</g>
<!-- Node12 -->
<g id="node12" class="node"><title>Node12</title>
<g id="a_node12"><a xlink:href="a00080.html#ac0d919fcb7633d9bf5d99cc7ad39fe2e" target="_top" xlink:title="discovery_alloc_sid">
<polygon fill="none" stroke="black" points="565,-38.5 565,-57.5 667,-57.5 667,-38.5 565,-38.5"/>
<text text-anchor="middle" x="616" y="-45.5" font-family="Helvetica,sans-Serif" font-size="10.00">discovery_alloc_sid</text>
</a>
</g>
</g>
<!-- Node11&#45;&gt;Node12 -->
<g id="edge14" class="edge"><title>Node11&#45;&gt;Node12</title>
<path fill="none" stroke="midnightblue" d="M529.328,-59.9251C537.519,-58.785 546.068,-57.5949 554.461,-56.4267"/>
<polygon fill="midnightblue" stroke="midnightblue" points="555.163,-59.8629 564.584,-55.0175 554.197,-52.9297 555.163,-59.8629"/>
</g>
<!-- Node13 -->
<g id="node13" class="node"><title>Node13</title>
<g id="a_node13"><a xlink:href="a00080.html#a9788f216196637a4e9c0a0110e81bab1" target="_top" xlink:title="HPD_E_ALLOC: id might be partially updated. ">
<polygon fill="none" stroke="black" points="704.5,-0.5 704.5,-19.5 799.5,-19.5 799.5,-0.5 704.5,-0.5"/>
<text text-anchor="middle" x="752" y="-7.5" font-family="Helvetica,sans-Serif" font-size="10.00">discovery_set_sid</text>
</a>
</g>
</g>
<!-- Node12&#45;&gt;Node13 -->
<g id="edge15" class="edge"><title>Node12&#45;&gt;Node13</title>
<path fill="none" stroke="midnightblue" d="M650.814,-38.411C668.033,-33.5281 689.164,-27.5357 707.573,-22.315"/>
<polygon fill="midnightblue" stroke="midnightblue" points="708.531,-25.6815 717.197,-19.5859 706.621,-18.947 708.531,-25.6815"/>
</g>
<!-- Node16 -->
<g id="node16" class="node"><title>Node16</title>
<g id="a_node16"><a xlink:href="a00080.html#a8922de7d42124afa8ab5fd339fe695ee" target="_top" xlink:title="discovery_free_sid">
<polygon fill="none" stroke="black" points="703,-38.5 703,-57.5 801,-57.5 801,-38.5 703,-38.5"/>
<text text-anchor="middle" x="752" y="-45.5" font-family="Helvetica,sans-Serif" font-size="10.00">discovery_free_sid</text>
</a>
</g>
</g>
<!-- Node12&#45;&gt;Node16 -->
<g id="edge18" class="edge"><title>Node12&#45;&gt;Node16</title>
<path fill="none" stroke="midnightblue" d="M667.278,-48C675.514,-48 684.111,-48 692.525,-48"/>
<polygon fill="midnightblue" stroke="midnightblue" points="692.661,-51.5001 702.661,-48 692.661,-44.5001 692.661,-51.5001"/>
</g>
<!-- Node14 -->
<g id="node14" class="node"><title>Node14</title>
<g id="a_node14"><a xlink:href="a00080.html#acd5e8c2bf3e761abc7e2fd2294238a74" target="_top" xlink:title="HPD_E_ALLOC: id might be partially updated. ">
<polygon fill="none" stroke="black" points="838.5,-0.5 838.5,-19.5 933.5,-19.5 933.5,-0.5 838.5,-0.5"/>
<text text-anchor="middle" x="886" y="-7.5" font-family="Helvetica,sans-Serif" font-size="10.00">discovery_set_did</text>
</a>
</g>
</g>
<!-- Node13&#45;&gt;Node14 -->
<g id="edge16" class="edge"><title>Node13&#45;&gt;Node14</title>
<path fill="none" stroke="midnightblue" d="M799.538,-10C808.805,-10 818.634,-10 828.199,-10"/>
<polygon fill="midnightblue" stroke="midnightblue" points="828.437,-13.5001 838.437,-10 828.437,-6.5001 828.437,-13.5001"/>
</g>
<!-- Node15 -->
<g id="node15" class="node"><title>Node15</title>
<g id="a_node15"><a xlink:href="a00080.html#af2f553cfc3af4678b87a8fc75f35a5c6" target="_top" xlink:title="HPD_E_ALLOC: id might be partially updated. ">
<polygon fill="none" stroke="black" points="971,-0.5 971,-19.5 1066,-19.5 1066,-0.5 971,-0.5"/>
<text text-anchor="middle" x="1018.5" y="-7.5" font-family="Helvetica,sans-Serif" font-size="10.00">discovery_set_aid</text>
</a>
</g>
</g>
<!-- Node14&#45;&gt;Node15 -->
<g id="edge17" class="edge"><title>Node14&#45;&gt;Node15</title>
<path fill="none" stroke="midnightblue" d="M933.745,-10C942.459,-10 951.654,-10 960.634,-10"/>
<polygon fill="midnightblue" stroke="midnightblue" points="960.643,-13.5001 970.643,-10 960.643,-6.5001 960.643,-13.5001"/>
</g>
<!-- Node16&#45;&gt;Node5 -->
<g id="edge19" class="edge"><title>Node16&#45;&gt;Node5</title>
<path fill="none" stroke="midnightblue" d="M801.078,-44.5436C839.772,-43.9618 894.231,-48.2765 935,-72 971.238,-93.087 996.749,-136.977 1009.08,-162.157"/>
<polygon fill="midnightblue" stroke="midnightblue" points="1006,-163.829 1013.42,-171.391 1012.33,-160.852 1006,-163.829"/>
</g>
<!-- Node17&#45;&gt;Node5 -->
<g id="edge21" class="edge"><title>Node17&#45;&gt;Node5</title>
<path fill="none" stroke="midnightblue" d="M509.53,-114.444C585.354,-92.8139 784.817,-46.3682 935,-105 964.776,-116.625 990.285,-144.586 1004.76,-163.156"/>
<polygon fill="midnightblue" stroke="midnightblue" points="1002.15,-165.507 1010.95,-171.405 1007.74,-161.306 1002.15,-165.507"/>
</g>
<!-- Node17&#45;&gt;Node6 -->
<g id="edge24" class="edge"><title>Node17&#45;&gt;Node6</title>
<path fill="none" stroke="midnightblue" d="M490.138,-133.89C513.727,-153.937 567.366,-199.52 596.06,-223.904"/>
<polygon fill="midnightblue" stroke="midnightblue" points="593.889,-226.652 603.775,-230.461 598.422,-221.318 593.889,-226.652"/>
</g>
<!-- Node18 -->
<g id="node18" class="node"><title>Node18</title>
<g id="a_node18"><a xlink:href="a00020.html#a8922de7d42124afa8ab5fd339fe695ee" target="_top" xlink:title="discovery_free_sid">
<polygon fill="none" stroke="black" points="837,-114.5 837,-133.5 935,-133.5 935,-114.5 837,-114.5"/>
<text text-anchor="middle" x="886" y="-121.5" font-family="Helvetica,sans-Serif" font-size="10.00">discovery_free_sid</text>
</a>
</g>
</g>
<!-- Node17&#45;&gt;Node18 -->
<g id="edge22" class="edge"><title>Node17&#45;&gt;Node18</title>
<path fill="none" stroke="midnightblue" d="M526.727,-124C601.6,-124 745.574,-124 826.35,-124"/>
<polygon fill="midnightblue" stroke="midnightblue" points="826.836,-127.5 836.836,-124 826.836,-120.5 826.836,-127.5"/>
</g>
<!-- Node18&#45;&gt;Node5 -->
<g id="edge23" class="edge"><title>Node18&#45;&gt;Node5</title>
<path fill="none" stroke="midnightblue" d="M908.843,-133.541C931.928,-143.624 968.281,-159.502 992.498,-170.079"/>
<polygon fill="midnightblue" stroke="midnightblue" points="991.185,-173.325 1001.75,-174.12 993.986,-166.91 991.185,-173.325"/>
</g>
<!-- Node19&#45;&gt;Node6 -->
<g id="edge27" class="edge"><title>Node19&#45;&gt;Node6</title>
<path fill="none" stroke="midnightblue" d="M390.113,-240C440.155,-240 524.667,-240 574.608,-240"/>
<polygon fill="midnightblue" stroke="midnightblue" points="574.715,-243.5 584.715,-240 574.715,-236.5 574.715,-243.5"/>
</g>
</g>
</svg>
