<?xml version="1.0" encoding="UTF-8" standalone="no"?>
<!DOCTYPE svg PUBLIC "-//W3C//DTD SVG 1.1//EN"
 "http://www.w3.org/Graphics/SVG/1.1/DTD/svg11.dtd">
<!-- Generated by graphviz version 2.38.0 (20140413.2041)
 -->
<!-- Title: hpd_httpd_destroy Pages: 1 -->
<svg width="321pt" height="142pt"
 viewBox="0.00 0.00 321.00 142.00" xmlns="http://www.w3.org/2000/svg" xmlns:xlink="http://www.w3.org/1999/xlink">
<g id="graph0" class="graph" transform="scale(1 1) rotate(0) translate(4 138)">
<title>hpd_httpd_destroy</title>
<!-- Node1 -->
<g id="node1" class="node"><title>Node1</title>
<polygon fill="#bfbfbf" stroke="black" points="0,-57.5 0,-76.5 97,-76.5 97,-57.5 0,-57.5"/>
<text text-anchor="middle" x="48.5" y="-64.5" font-family="Helvetica,sans-Serif" font-size="10.00">hpd_httpd_destroy</text>
</g>
<!-- Node2 -->
<g id="node2" class="node"><title>Node2</title>
<g id="a_node2"><a xlink:href="a00034.html#a49f6d3bb9d22d5b9cf5c7eb6175318d1" target="_top" xlink:title="exit_handler">
<polygon fill="none" stroke="black" points="144.5,-114.5 144.5,-133.5 213.5,-133.5 213.5,-114.5 144.5,-114.5"/>
<text text-anchor="middle" x="179" y="-121.5" font-family="Helvetica,sans-Serif" font-size="10.00">exit_handler</text>
</a>
</g>
</g>
<!-- Node1&#45;&gt;Node2 -->
<g id="edge1" class="edge"><title>Node1&#45;&gt;Node2</title>
<path fill="none" stroke="midnightblue" d="M79.3376,-80.8197C95.2244,-88.1168 115.123,-97.1599 133,-105 140.145,-108.133 147.966,-111.469 155.055,-114.456"/>
<polygon fill="midnightblue" stroke="midnightblue" points="80.5654,-77.5319 70.0182,-76.5282 77.6374,-83.8901 80.5654,-77.5319"/>
</g>
<!-- Node4 -->
<g id="node4" class="node"><title>Node4</title>
<g id="a_node4"><a xlink:href="a00015.html#a8287f77cb41a94d39f282b607616df70" target="_top" xlink:title="Create a new httpd instance. ">
<polygon fill="none" stroke="black" points="133,-76.5 133,-95.5 225,-95.5 225,-76.5 133,-76.5"/>
<text text-anchor="middle" x="179" y="-83.5" font-family="Helvetica,sans-Serif" font-size="10.00">hpd_httpd_create</text>
</a>
</g>
</g>
<!-- Node1&#45;&gt;Node4 -->
<g id="edge3" class="edge"><title>Node1&#45;&gt;Node4</title>
<path fill="none" stroke="midnightblue" d="M107.246,-75.5383C115.768,-76.7984 124.445,-78.0813 132.667,-79.2971"/>
<polygon fill="midnightblue" stroke="midnightblue" points="107.753,-72.0753 97.3487,-74.0749 106.729,-79 107.753,-72.0753"/>
</g>
<!-- Node5 -->
<g id="node5" class="node"><title>Node5</title>
<g id="a_node5"><a xlink:href="a00025.html#a665691f420dff4eebb8f4b4af62d7a49" target="_top" xlink:title="on_start">
<polygon fill="none" stroke="black" points="261,-48.5 261,-67.5 313,-67.5 313,-48.5 261,-48.5"/>
<text text-anchor="middle" x="287" y="-55.5" font-family="Helvetica,sans-Serif" font-size="10.00">on_start</text>
</a>
</g>
</g>
<!-- Node1&#45;&gt;Node5 -->
<g id="edge6" class="edge"><title>Node1&#45;&gt;Node5</title>
<path fill="none" stroke="midnightblue" d="M107.235,-64.8029C156.287,-62.9362 224.358,-60.3458 260.718,-58.9621"/>
<polygon fill="midnightblue" stroke="midnightblue" points="106.934,-61.3117 97.0748,-65.1895 107.201,-68.3066 106.934,-61.3117"/>
</g>
<!-- Node6 -->
<g id="node6" class="node"><title>Node6</title>
<g id="a_node6"><a xlink:href="a00025.html#a257c5aafa157f3902bec16554a5a80b2" target="_top" xlink:title="on_stop">
<polygon fill="none" stroke="black" points="153.5,-0.5 153.5,-19.5 204.5,-19.5 204.5,-0.5 153.5,-0.5"/>
<text text-anchor="middle" x="179" y="-7.5" font-family="Helvetica,sans-Serif" font-size="10.00">on_stop</text>
</a>
</g>
</g>
<!-- Node1&#45;&gt;Node6 -->
<g id="edge7" class="edge"><title>Node1&#45;&gt;Node6</title>
<path fill="none" stroke="midnightblue" d="M80.2005,-53.3819C103.71,-42.9535 135.549,-28.8303 156.422,-19.5716"/>
<polygon fill="midnightblue" stroke="midnightblue" points="78.7299,-50.2053 71.008,-57.4595 81.5683,-56.604 78.7299,-50.2053"/>
</g>
<!-- Node3 -->
<g id="node3" class="node"><title>Node3</title>
<g id="a_node3"><a xlink:href="a00034.html#a0ddf1224851353fc92bfbff6f499fa97" target="_top" xlink:title="main">
<polygon fill="none" stroke="black" points="268,-95.5 268,-114.5 306,-114.5 306,-95.5 268,-95.5"/>
<text text-anchor="middle" x="287" y="-102.5" font-family="Helvetica,sans-Serif" font-size="10.00">main</text>
</a>
</g>
</g>
<!-- Node2&#45;&gt;Node3 -->
<g id="edge2" class="edge"><title>Node2&#45;&gt;Node3</title>
<path fill="none" stroke="midnightblue" d="M223.494,-116.204C238.977,-113.429 255.578,-110.453 267.778,-108.266"/>
<polygon fill="midnightblue" stroke="midnightblue" points="222.765,-112.779 213.539,-117.988 224,-119.669 222.765,-112.779"/>
</g>
<!-- Node4&#45;&gt;Node3 -->
<g id="edge4" class="edge"><title>Node4&#45;&gt;Node3</title>
<path fill="none" stroke="midnightblue" d="M235.153,-95.8859C246.951,-98.0006 258.606,-100.09 267.775,-101.733"/>
<polygon fill="midnightblue" stroke="midnightblue" points="235.722,-92.4321 225.261,-94.1128 234.487,-99.3223 235.722,-92.4321"/>
</g>
<!-- Node4&#45;&gt;Node5 -->
<g id="edge5" class="edge"><title>Node4&#45;&gt;Node5</title>
<path fill="none" stroke="midnightblue" d="M226.088,-73.8257C238.081,-70.6579 250.554,-67.3632 260.994,-64.6054"/>
<polygon fill="midnightblue" stroke="midnightblue" points="224.957,-70.5044 216.183,-76.4423 226.745,-77.2723 224.957,-70.5044"/>
</g>
</g>
</svg>
