<?xml version="1.0" encoding="UTF-8" standalone="no"?>
<!DOCTYPE svg PUBLIC "-//W3C//DTD SVG 1.1//EN"
 "http://www.w3.org/Graphics/SVG/1.1/DTD/svg11.dtd">
<!-- Generated by graphviz version 2.38.0 (20140413.2041)
 -->
<!-- Title: hpd_adapter_get_attr Pages: 1 -->
<svg width="397pt" height="66pt"
 viewBox="0.00 0.00 397.00 66.00" xmlns="http://www.w3.org/2000/svg" xmlns:xlink="http://www.w3.org/1999/xlink">
<g id="graph0" class="graph" transform="scale(1 1) rotate(0) translate(4 62)">
<title>hpd_adapter_get_attr</title>
<!-- Node1 -->
<g id="node1" class="node"><title>Node1</title>
<polygon fill="#bfbfbf" stroke="black" points="0,-19.5 0,-38.5 108,-38.5 108,-19.5 0,-19.5"/>
<text text-anchor="middle" x="54" y="-26.5" font-family="Helvetica,sans-Serif" font-size="10.00">hpd_adapter_get_attr</text>
</g>
<!-- Node2 -->
<g id="node2" class="node"><title>Node2</title>
<g id="a_node2"><a xlink:href="a00011.html#adbc376ab1130f0595796c540f0b5e515" target="_top" xlink:title="discovery_find_adapter">
<polygon fill="none" stroke="black" points="152.5,-38.5 152.5,-57.5 269.5,-57.5 269.5,-38.5 152.5,-38.5"/>
<text text-anchor="middle" x="211" y="-45.5" font-family="Helvetica,sans-Serif" font-size="10.00">discovery_find_adapter</text>
</a>
</g>
</g>
<!-- Node1&#45;&gt;Node2 -->
<g id="edge1" class="edge"><title>Node1&#45;&gt;Node2</title>
<path fill="none" stroke="midnightblue" d="M108.342,-35.5387C119.204,-36.8701 130.768,-38.2877 142.059,-39.6717"/>
<polygon fill="midnightblue" stroke="midnightblue" points="141.97,-43.187 152.322,-40.9297 142.822,-36.239 141.97,-43.187"/>
</g>
<!-- Node3 -->
<g id="node3" class="node"><title>Node3</title>
<g id="a_node3"><a xlink:href="a00063.html#a4f5a827380896e402579189925e8e70a" target="_top" xlink:title="discovery_get_adapter_attr">
<polygon fill="none" stroke="black" points="144,-0.5 144,-19.5 278,-19.5 278,-0.5 144,-0.5"/>
<text text-anchor="middle" x="211" y="-7.5" font-family="Helvetica,sans-Serif" font-size="10.00">discovery_get_adapter_attr</text>
</a>
</g>
</g>
<!-- Node1&#45;&gt;Node3 -->
<g id="edge2" class="edge"><title>Node1&#45;&gt;Node3</title>
<path fill="none" stroke="midnightblue" d="M108.342,-22.4613C116.587,-21.4506 125.238,-20.3902 133.866,-19.3325"/>
<polygon fill="midnightblue" stroke="midnightblue" points="134.459,-22.7862 143.959,-18.0954 133.607,-15.8382 134.459,-22.7862"/>
</g>
<!-- Node4 -->
<g id="node4" class="node"><title>Node4</title>
<g id="a_node4"><a xlink:href="a00046.html#a3eb33be000f845d28ec16639f235ceb2" target="_top" xlink:title="hpd_map_get">
<polygon fill="none" stroke="black" points="314,-0.5 314,-19.5 389,-19.5 389,-0.5 314,-0.5"/>
<text text-anchor="middle" x="351.5" y="-7.5" font-family="Helvetica,sans-Serif" font-size="10.00">hpd_map_get</text>
</a>
</g>
</g>
<!-- Node3&#45;&gt;Node4 -->
<g id="edge3" class="edge"><title>Node3&#45;&gt;Node4</title>
<path fill="none" stroke="midnightblue" d="M278.005,-10C286.627,-10 295.316,-10 303.536,-10"/>
<polygon fill="midnightblue" stroke="midnightblue" points="303.657,-13.5001 313.657,-10 303.657,-6.5001 303.657,-13.5001"/>
</g>
</g>
</svg>
