<?xml version="1.0" encoding="UTF-8" standalone="no"?>
<!DOCTYPE svg PUBLIC "-//W3C//DTD SVG 1.1//EN"
 "http://www.w3.org/Graphics/SVG/1.1/DTD/svg11.dtd">
<!-- Generated by graphviz version 2.38.0 (20140413.2041)
 -->
<!-- Title: http_request_get_context Pages: 1 -->
<!--zoomable 427 -->
<svg id="main" version="1.1" xmlns="http://www.w3.org/2000/svg" xmlns:xlink="http://www.w3.org/1999/xlink" xml:space="preserve" onload="init(evt)">
<style type="text/css"><![CDATA[
.edge:hover path { stroke: red; }
.edge:hover polygon { stroke: red; fill: red; }
]]></style>
<script type="text/javascript"><![CDATA[
var edges = document.getElementsByTagName('g');
if (edges && edges.length) {
  for (var i=0;i<edges.length;i++) {
    if (edges[i].id.substr(0,4)=='edge') {
      edges[i].setAttribute('class','edge');
    }
  }
}
]]></script>
        <defs>
                <circle id="rim" cx="0" cy="0" r="7"/>
                <circle id="rim2" cx="0" cy="0" r="3.5"/>
                <g id="zoomPlus">
                        <use xlink:href="#rim" fill="#404040">
                                <set attributeName="fill" to="#808080" begin="zoomplus.mouseover" end="zoomplus.mouseout"/>
                        </use>
                        <path d="M-4,0h8M0,-4v8" fill="none" stroke="white" stroke-width="1.5" pointer-events="none"/>
                </g>
                <g id="zoomMin">
                        <use xlink:href="#rim" fill="#404040">
                                <set attributeName="fill" to="#808080" begin="zoomminus.mouseover" end="zoomminus.mouseout"/>
                        </use>
                        <path d="M-4,0h8" fill="none" stroke="white" stroke-width="1.5" pointer-events="none"/>
                </g>
                <g id="dirArrow">
                        <path fill="none" stroke="white" stroke-width="1.5" d="M0,-3.0v7 M-2.5,-0.5L0,-3.0L2.5,-0.5"/>
                </g>
               <g id="resetDef">
                       <use xlink:href="#rim2" fill="#404040">
                               <set attributeName="fill" to="#808080" begin="reset.mouseover" end="reset.mouseout"/>
                       </use>
               </g>
        </defs>

<script type="text/javascript">
var viewWidth = 966;
var viewHeight = 427;
var sectionId = 'dynsection-7';
</script>
<script xlink:href="svgpan.js"/>
<svg id="graph" class="graph">
<g id="viewport">
<title>http_request_get_context</title>
<!-- Node1 -->
<g id="node1" class="node"><title>Node1</title>
<polygon fill="#bfbfbf" stroke="black" points="0,-245.905 0,-264.905 127,-264.905 127,-245.905 0,-245.905"/>
<text text-anchor="middle" x="63.5" y="-252.905" font-family="Helvetica,sans-Serif" font-size="10.00">http_request_get_context</text>
</g>
<!-- Node2 -->
<g id="node2" class="node"><title>Node2</title>
<g id="a_node2"><a xlink:href="a00026.html#a3b100e8d7e1214067cf1b90ad577745c" target="_top" xlink:title="Create the reponse and constructs the status line. ">
<polygon fill="none" stroke="black" points="163,-240.405 163,-270.405 267,-270.405 267,-240.405 163,-240.405"/>
<text text-anchor="start" x="171" y="-258.405" font-family="Helvetica,sans-Serif" font-size="10.00">hpd_httpd_response</text>
<text text-anchor="middle" x="215" y="-247.405" font-family="Helvetica,sans-Serif" font-size="10.00">_create</text>
</a>
</g>
</g>
<!-- Node1&#45;&gt;Node2 -->
<g id="edge1" class="edge"><title>Node1&#45;&gt;Node2</title>
<path fill="none" stroke="midnightblue" d="M137.099,-255.405C145.711,-255.405 154.36,-255.405 162.59,-255.405"/>
<polygon fill="midnightblue" stroke="midnightblue" points="137.035,-251.905 127.035,-255.405 137.035,-258.905 137.035,-251.905"/>
</g>
<!-- Node3 -->
<g id="node3" class="node"><title>Node3</title>
<g id="a_node3"><a xlink:href="a00047.html#a2eb873ac7e610c2dff8e49d216d3aff8" target="_top" xlink:title="handle_request">
<polygon fill="none" stroke="black" points="303,-343.905 303,-362.905 386,-362.905 386,-343.905 303,-343.905"/>
<text text-anchor="middle" x="344.5" y="-350.905" font-family="Helvetica,sans-Serif" font-size="10.00">handle_request</text>
</a>
</g>
</g>
<!-- Node2&#45;&gt;Node3 -->
<g id="edge2" class="edge"><title>Node2&#45;&gt;Node3</title>
<path fill="none" stroke="midnightblue" d="M243.599,-276.619C270.702,-297.451 310.827,-328.292 330.982,-343.784"/>
<polygon fill="midnightblue" stroke="midnightblue" points="245.704,-273.822 235.642,-270.503 241.438,-279.372 245.704,-273.822"/>
</g>
<!-- Node5 -->
<g id="node5" class="node"><title>Node5</title>
<g id="a_node5"><a xlink:href="a00034.html#a18db249df9c6c163ca09c0d7fadc3c75" target="_top" xlink:title="rest_reply">
<polygon fill="none" stroke="black" points="315,-204.905 315,-223.905 374,-223.905 374,-204.905 315,-204.905"/>
<text text-anchor="middle" x="344.5" y="-211.905" font-family="Helvetica,sans-Serif" font-size="10.00">rest_reply</text>
</a>
</g>
</g>
<!-- Node2&#45;&gt;Node5 -->
<g id="edge4" class="edge"><title>Node2&#45;&gt;Node5</title>
<path fill="none" stroke="midnightblue" d="M272.322,-237.294C287.052,-232.557 302.319,-227.648 314.919,-223.596"/>
<polygon fill="midnightblue" stroke="midnightblue" points="271.201,-233.978 262.752,-240.371 273.344,-240.642 271.201,-233.978"/>
</g>
<!-- Node7 -->
<g id="node7" class="node"><title>Node7</title>
<g id="a_node7"><a xlink:href="a00034.html#ac0f2724b4617f1adb53492f1a57a4e4b" target="_top" xlink:title="rest_reply_devices">
<polygon fill="none" stroke="black" points="585,-287.905 585,-306.905 683,-306.905 683,-287.905 585,-287.905"/>
<text text-anchor="middle" x="634" y="-294.905" font-family="Helvetica,sans-Serif" font-size="10.00">rest_reply_devices</text>
</a>
</g>
</g>
<!-- Node2&#45;&gt;Node7 -->
<g id="edge34" class="edge"><title>Node2&#45;&gt;Node7</title>
<path fill="none" stroke="midnightblue" d="M277.246,-261.574C360.842,-269.994 508.951,-284.911 584.999,-292.571"/>
<polygon fill="midnightblue" stroke="midnightblue" points="277.433,-258.075 267.132,-260.555 276.731,-265.04 277.433,-258.075"/>
</g>
<!-- Node12 -->
<g id="node12" class="node"><title>Node12</title>
<g id="a_node12"><a xlink:href="a00034.html#abddef3c3a26e983041c0a09be164cb1b" target="_top" xlink:title="rest_on_response">
<polygon fill="none" stroke="black" points="587,-21.9053 587,-40.9053 681,-40.9053 681,-21.9053 587,-21.9053"/>
<text text-anchor="middle" x="634" y="-28.9053" font-family="Helvetica,sans-Serif" font-size="10.00">rest_on_response</text>
</a>
</g>
</g>
<!-- Node2&#45;&gt;Node12 -->
<g id="edge35" class="edge"><title>Node2&#45;&gt;Node12</title>
<path fill="none" stroke="midnightblue" d="M232.165,-231.997C263.285,-189.039 336.092,-98.2805 422,-57.4053 474.493,-32.4292 542.261,-28.344 586.64,-28.898"/>
<polygon fill="midnightblue" stroke="midnightblue" points="229.297,-229.991 226.336,-240.164 234.995,-234.058 229.297,-229.991"/>
</g>
<!-- Node4 -->
<g id="node4" class="node"><title>Node4</title>
<g id="a_node4"><a xlink:href="a00047.html#a0ddf1224851353fc92bfbff6f499fa97" target="_top" xlink:title="main">
<polygon fill="none" stroke="black" points="462,-387.905 462,-406.905 500,-406.905 500,-387.905 462,-387.905"/>
<text text-anchor="middle" x="481" y="-394.905" font-family="Helvetica,sans-Serif" font-size="10.00">main</text>
</a>
</g>
</g>
<!-- Node3&#45;&gt;Node4 -->
<g id="edge3" class="edge"><title>Node3&#45;&gt;Node4</title>
<path fill="none" stroke="midnightblue" d="M384.411,-366.135C409.825,-374.448 441.846,-384.924 461.618,-391.392"/>
<polygon fill="midnightblue" stroke="midnightblue" points="385.277,-362.735 374.684,-362.953 383.101,-369.388 385.277,-362.735"/>
</g>
<!-- Node6 -->
<g id="node6" class="node"><title>Node6</title>
<g id="a_node6"><a xlink:href="a00034.html#a362db74b5ebb509cd4c0032f5704148f" target="_top" xlink:title="rest_reply_internal\l_server_error">
<polygon fill="none" stroke="black" points="433,-199.405 433,-229.405 529,-229.405 529,-199.405 433,-199.405"/>
<text text-anchor="start" x="441" y="-217.405" font-family="Helvetica,sans-Serif" font-size="10.00">rest_reply_internal</text>
<text text-anchor="middle" x="481" y="-206.405" font-family="Helvetica,sans-Serif" font-size="10.00">_server_error</text>
</a>
</g>
</g>
<!-- Node5&#45;&gt;Node6 -->
<g id="edge5" class="edge"><title>Node5&#45;&gt;Node6</title>
<path fill="none" stroke="midnightblue" d="M384.139,-214.405C399.377,-214.405 417.025,-214.405 432.994,-214.405"/>
<polygon fill="midnightblue" stroke="midnightblue" points="384.024,-210.905 374.024,-214.405 384.024,-217.905 384.024,-210.905"/>
</g>
<!-- Node5&#45;&gt;Node12 -->
<g id="edge33" class="edge"><title>Node5&#45;&gt;Node12</title>
<path fill="none" stroke="midnightblue" d="M359.54,-196.902C373.756,-180.167 397.138,-155.208 422,-139.405 469.237,-109.38 491.123,-122.679 540,-95.4053 557.7,-85.5281 559.411,-79.0533 576,-67.4053 589.41,-57.989 605.2,-48.1052 616.756,-41.0813"/>
<polygon fill="midnightblue" stroke="midnightblue" points="356.671,-194.879 352.983,-204.812 362.059,-199.347 356.671,-194.879"/>
</g>
<!-- Node16 -->
<g id="node16" class="node"><title>Node16</title>
<g id="a_node16"><a xlink:href="a00034.html#a937794ed7b34e2fa7c387dee33514c50" target="_top" xlink:title="rest_reply_not_found">
<polygon fill="none" stroke="black" points="427.5,-349.905 427.5,-368.905 534.5,-368.905 534.5,-349.905 427.5,-349.905"/>
<text text-anchor="middle" x="481" y="-356.905" font-family="Helvetica,sans-Serif" font-size="10.00">rest_reply_not_found</text>
</a>
</g>
</g>
<!-- Node5&#45;&gt;Node16 -->
<g id="edge22" class="edge"><title>Node5&#45;&gt;Node16</title>
<path fill="none" stroke="midnightblue" d="M361.137,-231.263C389.465,-261.802 448.422,-325.362 470.966,-349.666"/>
<polygon fill="midnightblue" stroke="midnightblue" points="363.692,-228.87 354.325,-223.919 358.56,-233.631 363.692,-228.87"/>
</g>
<!-- Node17 -->
<g id="node17" class="node"><title>Node17</title>
<g id="a_node17"><a xlink:href="a00034.html#a463d2bdadd3f81404991033401807537" target="_top" xlink:title="rest_reply_unsupported\l_media_type">
<polygon fill="none" stroke="black" points="422,-149.405 422,-179.405 540,-179.405 540,-149.405 422,-149.405"/>
<text text-anchor="start" x="430" y="-167.405" font-family="Helvetica,sans-Serif" font-size="10.00">rest_reply_unsupported</text>
<text text-anchor="middle" x="481" y="-156.405" font-family="Helvetica,sans-Serif" font-size="10.00">_media_type</text>
</a>
</g>
</g>
<!-- Node5&#45;&gt;Node17 -->
<g id="edge25" class="edge"><title>Node5&#45;&gt;Node17</title>
<path fill="none" stroke="midnightblue" d="M380.659,-201.335C398.665,-194.641 420.679,-186.458 439.404,-179.497"/>
<polygon fill="midnightblue" stroke="midnightblue" points="379.269,-198.118 371.115,-204.883 381.708,-204.679 379.269,-198.118"/>
</g>
<!-- Node18 -->
<g id="node18" class="node"><title>Node18</title>
<g id="a_node18"><a xlink:href="a00034.html#a84fea4d27b81d8ec1426196dc58d4351" target="_top" xlink:title="rest_reply_bad_request">
<polygon fill="none" stroke="black" points="422,-66.9053 422,-85.9053 540,-85.9053 540,-66.9053 422,-66.9053"/>
<text text-anchor="middle" x="481" y="-73.9053" font-family="Helvetica,sans-Serif" font-size="10.00">rest_reply_bad_request</text>
</a>
</g>
</g>
<!-- Node5&#45;&gt;Node18 -->
<g id="edge29" class="edge"><title>Node5&#45;&gt;Node18</title>
<path fill="none" stroke="midnightblue" d="M354.703,-195.555C367.145,-171.698 391.344,-130.566 422,-104.405 431.101,-96.639 442.726,-90.4733 453.176,-85.9269"/>
<polygon fill="midnightblue" stroke="midnightblue" points="351.503,-194.126 350.106,-204.629 357.748,-197.29 351.503,-194.126"/>
</g>
<!-- Node19 -->
<g id="node19" class="node"><title>Node19</title>
<g id="a_node19"><a xlink:href="a00034.html#aacbd35e3827023f6cef47ee2b866d2d9" target="_top" xlink:title="rest_reply_method_not\l_allowed">
<polygon fill="none" stroke="black" points="576,-326.405 576,-356.405 692,-356.405 692,-326.405 576,-326.405"/>
<text text-anchor="start" x="584" y="-344.405" font-family="Helvetica,sans-Serif" font-size="10.00">rest_reply_method_not</text>
<text text-anchor="middle" x="634" y="-333.405" font-family="Helvetica,sans-Serif" font-size="10.00">_allowed</text>
</a>
</g>
</g>
<!-- Node5&#45;&gt;Node19 -->
<g id="edge31" class="edge"><title>Node5&#45;&gt;Node19</title>
<path fill="none" stroke="midnightblue" d="M376.43,-228.131C420.655,-247.747 504.517,-284.913 576,-316.405 583.318,-319.629 591.168,-323.078 598.631,-326.353"/>
<polygon fill="midnightblue" stroke="midnightblue" points="377.659,-224.847 367.099,-223.991 374.821,-231.246 377.659,-224.847"/>
</g>
<!-- Node6&#45;&gt;Node7 -->
<g id="edge6" class="edge"><title>Node6&#45;&gt;Node7</title>
<path fill="none" stroke="midnightblue" d="M523.015,-234.304C528.825,-237.499 534.64,-240.911 540,-244.405 557.211,-255.626 558.36,-262.872 576,-273.405 585.403,-279.02 596.362,-283.971 606.144,-287.895"/>
<polygon fill="midnightblue" stroke="midnightblue" points="524.428,-231.091 513.956,-229.479 521.137,-237.269 524.428,-231.091"/>
</g>
<!-- Node8 -->
<g id="node8" class="node"><title>Node8</title>
<g id="a_node8"><a xlink:href="a00034.html#a2731aca6e6807e771bcf9c94dbec968c" target="_top" xlink:title="rest_on_req_hdr_cmpl">
<polygon fill="none" stroke="black" points="728,-287.905 728,-306.905 841,-306.905 841,-287.905 728,-287.905"/>
<text text-anchor="middle" x="784.5" y="-294.905" font-family="Helvetica,sans-Serif" font-size="10.00">rest_on_req_hdr_cmpl</text>
</a>
</g>
</g>
<!-- Node6&#45;&gt;Node8 -->
<g id="edge18" class="edge"><title>Node6&#45;&gt;Node8</title>
<path fill="none" stroke="midnightblue" d="M539.103,-230.125C600.965,-247.155 697.664,-273.775 748.914,-287.884"/>
<polygon fill="midnightblue" stroke="midnightblue" points="539.68,-226.654 529.109,-227.374 537.822,-233.403 539.68,-226.654"/>
</g>
<!-- Node10 -->
<g id="node10" class="node"><title>Node10</title>
<g id="a_node10"><a xlink:href="a00034.html#a5b0ee1ed2f7ec4f1d37f392419f9fdf8" target="_top" xlink:title="rest_on_free">
<polygon fill="none" stroke="black" points="598.5,-97.9053 598.5,-116.905 669.5,-116.905 669.5,-97.9053 598.5,-97.9053"/>
<text text-anchor="middle" x="634" y="-104.905" font-family="Helvetica,sans-Serif" font-size="10.00">rest_on_free</text>
</a>
</g>
</g>
<!-- Node6&#45;&gt;Node10 -->
<g id="edge9" class="edge"><title>Node6&#45;&gt;Node10</title>
<path fill="none" stroke="midnightblue" d="M532.489,-194.105C535.132,-192.335 537.658,-190.436 540,-188.405 562.636,-168.773 553.141,-150.777 576,-131.405 583.209,-125.297 592.197,-120.552 600.889,-116.955"/>
<polygon fill="midnightblue" stroke="midnightblue" points="530.532,-191.198 523.74,-199.33 534.121,-197.208 530.532,-191.198"/>
</g>
<!-- Node11 -->
<g id="node11" class="node"><title>Node11</title>
<g id="a_node11"><a xlink:href="a00034.html#a1ef7ff8e866ae31ab0edb443eb4777a1" target="_top" xlink:title="rest_on_req_cmpl">
<polygon fill="none" stroke="black" points="737.5,-78.9053 737.5,-97.9053 831.5,-97.9053 831.5,-78.9053 737.5,-78.9053"/>
<text text-anchor="middle" x="784.5" y="-85.9053" font-family="Helvetica,sans-Serif" font-size="10.00">rest_on_req_cmpl</text>
</a>
</g>
</g>
<!-- Node6&#45;&gt;Node11 -->
<g id="edge21" class="edge"><title>Node6&#45;&gt;Node11</title>
<path fill="none" stroke="midnightblue" d="M527.318,-195.466C592.717,-168.135 711.136,-118.647 760.71,-97.9294"/>
<polygon fill="midnightblue" stroke="midnightblue" points="525.946,-192.247 518.068,-199.332 528.645,-198.705 525.946,-192.247"/>
</g>
<!-- Node6&#45;&gt;Node12 -->
<g id="edge12" class="edge"><title>Node6&#45;&gt;Node12</title>
<path fill="none" stroke="midnightblue" d="M534.343,-193.663C536.361,-192.032 538.261,-190.282 540,-188.405 572.111,-153.761 550.69,-128.289 576,-88.4053 588.148,-69.2629 607.747,-51.5218 620.502,-41.0741"/>
<polygon fill="midnightblue" stroke="midnightblue" points="532.309,-190.814 526.072,-199.379 536.288,-196.573 532.309,-190.814"/>
</g>
<!-- Node13 -->
<g id="node13" class="node"><title>Node13</title>
<g id="a_node13"><a xlink:href="a00034.html#a29f312bafc931ecd8a0209f0dd3d7e60" target="_top" xlink:title="rest_on_req_begin">
<polygon fill="none" stroke="black" points="736.5,-211.905 736.5,-230.905 832.5,-230.905 832.5,-211.905 736.5,-211.905"/>
<text text-anchor="middle" x="784.5" y="-218.905" font-family="Helvetica,sans-Serif" font-size="10.00">rest_on_req_begin</text>
</a>
</g>
</g>
<!-- Node6&#45;&gt;Node13 -->
<g id="edge14" class="edge"><title>Node6&#45;&gt;Node13</title>
<path fill="none" stroke="midnightblue" d="M539.409,-215.738C596.483,-217.063 682.989,-219.072 736.225,-220.308"/>
<polygon fill="midnightblue" stroke="midnightblue" points="539.188,-212.232 529.109,-215.499 539.025,-219.23 539.188,-212.232"/>
</g>
<!-- Node14 -->
<g id="node14" class="node"><title>Node14</title>
<g id="a_node14"><a xlink:href="a00034.html#a79a1a85df1eb4e5247b27938ee73e32c" target="_top" xlink:title="rest_on_req_url_cmpl">
<polygon fill="none" stroke="black" points="579,-375.905 579,-394.905 689,-394.905 689,-375.905 579,-375.905"/>
<text text-anchor="middle" x="634" y="-382.905" font-family="Helvetica,sans-Serif" font-size="10.00">rest_on_req_url_cmpl</text>
</a>
</g>
</g>
<!-- Node6&#45;&gt;Node14 -->
<g id="edge16" class="edge"><title>Node6&#45;&gt;Node14</title>
<path fill="none" stroke="midnightblue" d="M491.211,-239.061C504.834,-272.309 533.421,-331.274 576,-365.405 581.401,-369.734 587.805,-373.161 594.337,-375.862"/>
<polygon fill="midnightblue" stroke="midnightblue" points="494.408,-237.628 487.465,-229.625 487.902,-240.211 494.408,-237.628"/>
</g>
<!-- Node15 -->
<g id="node15" class="node"><title>Node15</title>
<g id="a_node15"><a xlink:href="a00034.html#aa7a4e350f3f59e6410ba02d06b1e125f" target="_top" xlink:title="rest_on_req_body">
<polygon fill="none" stroke="black" points="737.5,-173.905 737.5,-192.905 831.5,-192.905 831.5,-173.905 737.5,-173.905"/>
<text text-anchor="middle" x="784.5" y="-180.905" font-family="Helvetica,sans-Serif" font-size="10.00">rest_on_req_body</text>
</a>
</g>
</g>
<!-- Node6&#45;&gt;Node15 -->
<g id="edge19" class="edge"><title>Node6&#45;&gt;Node15</title>
<path fill="none" stroke="midnightblue" d="M539.115,-208.533C596.54,-202.628 683.977,-193.638 737.216,-188.164"/>
<polygon fill="midnightblue" stroke="midnightblue" points="538.699,-205.057 529.109,-209.562 539.415,-212.02 538.699,-205.057"/>
</g>
<!-- Node7&#45;&gt;Node8 -->
<g id="edge7" class="edge"><title>Node7&#45;&gt;Node8</title>
<path fill="none" stroke="midnightblue" d="M693.426,-297.405C704.739,-297.405 716.565,-297.405 727.788,-297.405"/>
<polygon fill="midnightblue" stroke="midnightblue" points="693.214,-293.905 683.214,-297.405 693.214,-300.905 693.214,-293.905"/>
</g>
<!-- Node9 -->
<g id="node9" class="node"><title>Node9</title>
<g id="a_node9"><a xlink:href="a00034.html#a02090c3feb19ea4c6e1fa9b5e6392752" target="_top" xlink:title="rest_on_create">
<polygon fill="none" stroke="black" points="877,-211.905 877,-230.905 958,-230.905 958,-211.905 877,-211.905"/>
<text text-anchor="middle" x="917.5" y="-218.905" font-family="Helvetica,sans-Serif" font-size="10.00">rest_on_create</text>
</a>
</g>
</g>
<!-- Node8&#45;&gt;Node9 -->
<g id="edge8" class="edge"><title>Node8&#45;&gt;Node9</title>
<path fill="none" stroke="midnightblue" d="M810.76,-282.75C837.087,-267.477 877.574,-243.988 900.043,-230.953"/>
<polygon fill="midnightblue" stroke="midnightblue" points="808.985,-279.734 802.091,-287.78 812.497,-285.789 808.985,-279.734"/>
</g>
<!-- Node10&#45;&gt;Node11 -->
<g id="edge10" class="edge"><title>Node10&#45;&gt;Node11</title>
<path fill="none" stroke="midnightblue" d="M679.878,-101.663C698.066,-99.3363 719.057,-96.6505 737.37,-94.3075"/>
<polygon fill="midnightblue" stroke="midnightblue" points="679.292,-98.2097 669.817,-102.951 680.18,-105.153 679.292,-98.2097"/>
</g>
<!-- Node11&#45;&gt;Node9 -->
<g id="edge11" class="edge"><title>Node11&#45;&gt;Node9</title>
<path fill="none" stroke="midnightblue" d="M801.946,-105.103C829.598,-133.177 884.559,-188.977 906.811,-211.568"/>
<polygon fill="midnightblue" stroke="midnightblue" points="804.432,-102.639 794.921,-97.9703 799.445,-107.551 804.432,-102.639"/>
</g>
<!-- Node12&#45;&gt;Node11 -->
<g id="edge13" class="edge"><title>Node12&#45;&gt;Node11</title>
<path fill="none" stroke="midnightblue" d="M669.397,-44.6082C696.664,-55.0742 734.12,-69.4515 758.563,-78.8336"/>
<polygon fill="midnightblue" stroke="midnightblue" points="670.446,-41.2618 659.856,-40.9458 667.937,-47.7969 670.446,-41.2618"/>
</g>
<!-- Node13&#45;&gt;Node9 -->
<g id="edge15" class="edge"><title>Node13&#45;&gt;Node9</title>
<path fill="none" stroke="midnightblue" d="M843.063,-221.405C854.387,-221.405 866.032,-221.405 876.618,-221.405"/>
<polygon fill="midnightblue" stroke="midnightblue" points="842.794,-217.905 832.794,-221.405 842.794,-224.905 842.794,-217.905"/>
</g>
<!-- Node14&#45;&gt;Node9 -->
<g id="edge17" class="edge"><title>Node14&#45;&gt;Node9</title>
<path fill="none" stroke="midnightblue" d="M699.002,-373.929C742.033,-363.933 798.446,-346.225 841,-316.405 874.643,-292.829 900.839,-250.049 911.413,-231.001"/>
<polygon fill="midnightblue" stroke="midnightblue" points="698.195,-370.523 689.203,-376.126 699.727,-377.353 698.195,-370.523"/>
</g>
<!-- Node15&#45;&gt;Node9 -->
<g id="edge20" class="edge"><title>Node15&#45;&gt;Node9</title>
<path fill="none" stroke="midnightblue" d="M828.215,-195.796C846.155,-201 866.7,-206.959 883.454,-211.819"/>
<polygon fill="midnightblue" stroke="midnightblue" points="829.136,-192.419 818.557,-192.994 827.186,-199.142 829.136,-192.419"/>
</g>
<!-- Node16&#45;&gt;Node8 -->
<g id="edge24" class="edge"><title>Node16&#45;&gt;Node8</title>
<path fill="none" stroke="midnightblue" d="M526.556,-372.425C531.178,-374.24 535.739,-376.235 540,-378.405 557.587,-387.362 557.221,-398.333 576,-404.405 625.055,-420.267 645.174,-425.975 692,-404.405 736.845,-383.748 767.889,-329.07 778.99,-306.922"/>
<polygon fill="midnightblue" stroke="midnightblue" points="527.65,-369.099 517.057,-368.956 525.249,-375.674 527.65,-369.099"/>
</g>
<!-- Node16&#45;&gt;Node14 -->
<g id="edge23" class="edge"><title>Node16&#45;&gt;Node14</title>
<path fill="none" stroke="midnightblue" d="M544.681,-370.198C556.058,-372.157 567.836,-374.185 578.939,-376.097"/>
<polygon fill="midnightblue" stroke="midnightblue" points="545.261,-366.747 534.812,-368.499 544.074,-373.645 545.261,-366.747"/>
</g>
<!-- Node17&#45;&gt;Node7 -->
<g id="edge26" class="edge"><title>Node17&#45;&gt;Node7</title>
<path fill="none" stroke="midnightblue" d="M532.554,-184.472C535.138,-186.027 537.639,-187.671 540,-189.405 579.488,-218.405 613.526,-267.152 626.923,-287.752"/>
<polygon fill="midnightblue" stroke="midnightblue" points="533.975,-181.26 523.522,-179.533 530.616,-187.402 533.975,-181.26"/>
</g>
<!-- Node17&#45;&gt;Node11 -->
<g id="edge28" class="edge"><title>Node17&#45;&gt;Node11</title>
<path fill="none" stroke="midnightblue" d="M523.083,-144.335C529.005,-140.714 534.835,-136.708 540,-132.405 559.413,-116.232 553.167,-99.2253 576,-88.4053 629.877,-62.8741 700.816,-70.3539 744.238,-78.8331"/>
<polygon fill="midnightblue" stroke="midnightblue" points="521.311,-141.317 514.407,-149.354 524.816,-147.376 521.311,-141.317"/>
</g>
<!-- Node17&#45;&gt;Node12 -->
<g id="edge27" class="edge"><title>Node17&#45;&gt;Node12</title>
<path fill="none" stroke="midnightblue" d="M526.231,-144C531.235,-140.573 535.974,-136.71 540,-132.405 565.806,-104.815 548.774,-81.5947 576,-55.4053 582.423,-49.2271 590.673,-44.5322 598.889,-41.0083"/>
<polygon fill="midnightblue" stroke="midnightblue" points="524.273,-141.096 517.636,-149.355 527.975,-147.037 524.273,-141.096"/>
</g>
<!-- Node18&#45;&gt;Node11 -->
<g id="edge30" class="edge"><title>Node18&#45;&gt;Node11</title>
<path fill="none" stroke="midnightblue" d="M499.344,-59.7794C517.01,-44.0939 546.003,-21.6475 576,-12.4053 625.27,2.77523 643.51,5.10641 692,-12.4053 729.097,-25.8025 761.772,-61.5144 775.974,-78.7856"/>
<polygon fill="midnightblue" stroke="midnightblue" points="496.636,-57.5135 491.626,-66.8491 501.364,-62.6752 496.636,-57.5135"/>
</g>
<!-- Node19&#45;&gt;Node8 -->
<g id="edge32" class="edge"><title>Node19&#45;&gt;Node8</title>
<path fill="none" stroke="midnightblue" d="M695.513,-323.475C714.569,-317.829 734.875,-311.813 751.173,-306.984"/>
<polygon fill="midnightblue" stroke="midnightblue" points="694.284,-320.189 685.69,-326.386 696.272,-326.901 694.284,-320.189"/>
</g>
</g>
</svg>
        <g id="navigator" transform="translate(0 0)" fill="#404254">
                <rect fill="#f2f5e9" fill-opacity="0.5" stroke="#606060" stroke-width=".5" x="0" y="0" width="60" height="60"/>
                <use id="zoomplus" xlink:href="#zoomPlus" x="17" y="9" onmousedown="handleZoom(evt,'in')"/>
                <use id="zoomminus" xlink:href="#zoomMin" x="42" y="9" onmousedown="handleZoom(evt,'out')"/>
                <use id="reset" xlink:href="#resetDef" x="30" y="36" onmousedown="handleReset()"/>
                <g id="arrowUp" xlink:href="#dirArrow" transform="translate(30 24)" onmousedown="handlePan(0,-1)">
                  <use xlink:href="#rim" fill="#404040">
                        <set attributeName="fill" to="#808080" begin="arrowUp.mouseover" end="arrowUp.mouseout"/>
                  </use>
                  <path fill="none" stroke="white" stroke-width="1.5" d="M0,-3.0v7 M-2.5,-0.5L0,-3.0L2.5,-0.5"/>
                </g>
                <g id="arrowRight" xlink:href="#dirArrow" transform="rotate(90) translate(36 -43)" onmousedown="handlePan(1,0)">
                  <use xlink:href="#rim" fill="#404040">
                        <set attributeName="fill" to="#808080" begin="arrowRight.mouseover" end="arrowRight.mouseout"/>
                  </use>
                  <path fill="none" stroke="white" stroke-width="1.5" d="M0,-3.0v7 M-2.5,-0.5L0,-3.0L2.5,-0.5"/>
                </g>
                <g id="arrowDown" xlink:href="#dirArrow" transform="rotate(180) translate(-30 -48)" onmousedown="handlePan(0,1)">
                  <use xlink:href="#rim" fill="#404040">
                        <set attributeName="fill" to="#808080" begin="arrowDown.mouseover" end="arrowDown.mouseout"/>
                  </use>
                  <path fill="none" stroke="white" stroke-width="1.5" d="M0,-3.0v7 M-2.5,-0.5L0,-3.0L2.5,-0.5"/>
                </g>
                <g id="arrowLeft" xlink:href="#dirArrow" transform="rotate(270) translate(-36 17)" onmousedown="handlePan(-1,0)">
                  <use xlink:href="#rim" fill="#404040">
                        <set attributeName="fill" to="#808080" begin="arrowLeft.mouseover" end="arrowLeft.mouseout"/>
                  </use>
                  <path fill="none" stroke="white" stroke-width="1.5" d="M0,-3.0v7 M-2.5,-0.5L0,-3.0L2.5,-0.5"/>
                </g>
        </g>
        <svg viewBox="0 0 15 15" width="100%" height="30px" preserveAspectRatio="xMaxYMin meet">
         <g id="arrow_out" transform="scale(0.3 0.3)">
          <a xlink:href="a00049_a4a16719295f2a18fa4e8d08e6afb80f0_icgraph_org.svg" target="_base">
           <rect id="button" ry="5" rx="5" y="6" x="6" height="38" width="38"
                fill="#f2f5e9" fill-opacity="0.5" stroke="#606060" stroke-width="1.0"/>
           <path id="arrow"
             d="M 11.500037,31.436501 C 11.940474,20.09759 22.043105,11.32322 32.158766,21.979434 L 37.068811,17.246167 C 37.068811,17.246167 37.088388,32 37.088388,32 L 22.160133,31.978069 C 22.160133,31.978069 26.997745,27.140456 26.997745,27.140456 C 18.528582,18.264221 13.291696,25.230495 11.500037,31.436501 z"
             style="fill:#404040;"/>
          </a>
         </g>
        </svg>
</svg>
