<?xml version="1.0" encoding="UTF-8" standalone="no"?>
<!DOCTYPE svg PUBLIC "-//W3C//DTD SVG 1.1//EN"
 "http://www.w3.org/Graphics/SVG/1.1/DTD/svg11.dtd">
<!-- Generated by graphviz version 2.38.0 (20140413.2041)
 -->
<!-- Title: discovery_free_service Pages: 1 -->
<svg width="603pt" height="120pt"
 viewBox="0.00 0.00 603.00 120.36" xmlns="http://www.w3.org/2000/svg" xmlns:xlink="http://www.w3.org/1999/xlink">
<g id="graph0" class="graph" transform="scale(1 1) rotate(0) translate(4 116.357)">
<title>discovery_free_service</title>
<!-- Node1 -->
<g id="node1" class="node"><title>Node1</title>
<polygon fill="#bfbfbf" stroke="black" points="0,-16.8572 0,-35.8572 117,-35.8572 117,-16.8572 0,-16.8572"/>
<text text-anchor="middle" x="58.5" y="-23.8572" font-family="Helvetica,sans-Serif" font-size="10.00">discovery_free_service</text>
</g>
<!-- Node2 -->
<g id="node2" class="node"><title>Node2</title>
<g id="a_node2"><a xlink:href="a00059.html#ad18143d06649d9220e4fd8d74dbdec79" target="_top" xlink:title="discovery_free_parameter">
<polygon fill="none" stroke="black" points="153,-16.8572 153,-35.8572 282,-35.8572 282,-16.8572 153,-16.8572"/>
<text text-anchor="middle" x="217.5" y="-23.8572" font-family="Helvetica,sans-Serif" font-size="10.00">discovery_free_parameter</text>
</a>
</g>
</g>
<!-- Node1&#45;&gt;Node2 -->
<g id="edge1" class="edge"><title>Node1&#45;&gt;Node2</title>
<path fill="none" stroke="midnightblue" d="M117.07,-26.3572C125.435,-26.3572 134.143,-26.3572 142.774,-26.3572"/>
<polygon fill="midnightblue" stroke="midnightblue" points="142.845,-29.8573 152.845,-26.3572 142.845,-22.8573 142.845,-29.8573"/>
</g>
<!-- Node3 -->
<g id="node3" class="node"><title>Node3</title>
<g id="a_node3"><a xlink:href="a00042.html#a195d511a075f2349200563af1c5d1fd7" target="_top" xlink:title="hpd_map_free">
<polygon fill="none" stroke="black" points="318,-54.8572 318,-73.8572 396,-73.8572 396,-54.8572 318,-54.8572"/>
<text text-anchor="middle" x="357" y="-61.8572" font-family="Helvetica,sans-Serif" font-size="10.00">hpd_map_free</text>
</a>
</g>
</g>
<!-- Node1&#45;&gt;Node3 -->
<g id="edge8" class="edge"><title>Node1&#45;&gt;Node3</title>
<path fill="none" stroke="midnightblue" d="M101.686,-35.929C117.69,-39.2964 136.122,-42.8599 153,-45.3572 205.617,-53.1428 266.406,-58.3348 307.644,-61.2954"/>
<polygon fill="midnightblue" stroke="midnightblue" points="307.47,-64.7917 317.691,-62.0003 307.96,-57.8089 307.47,-64.7917"/>
</g>
<!-- Node5 -->
<g id="node5" class="node"><title>Node5</title>
<g id="a_node5"><a xlink:href="a00006.html#adf46370d9c211c3be22966b4606ba9b0" target="_top" xlink:title="free">
<polygon fill="none" stroke="black" points="562,-35.8572 562,-54.8572 595,-54.8572 595,-35.8572 562,-35.8572"/>
<text text-anchor="middle" x="578.5" y="-42.8572" font-family="Helvetica,sans-Serif" font-size="10.00">free</text>
</a>
</g>
</g>
<!-- Node1&#45;&gt;Node5 -->
<g id="edge7" class="edge"><title>Node1&#45;&gt;Node5</title>
<path fill="none" stroke="midnightblue" d="M97.4483,-16.8475C114.337,-13.0826 134.541,-9.21378 153,-7.35724 318.346,9.27266 362.147,-5.64536 526,-33.3572 534.529,-34.7997 543.755,-36.8058 552.011,-38.7653"/>
<polygon fill="midnightblue" stroke="midnightblue" points="551.277,-42.189 561.824,-41.1765 552.948,-35.3912 551.277,-42.189"/>
</g>
<!-- Node2&#45;&gt;Node3 -->
<g id="edge2" class="edge"><title>Node2&#45;&gt;Node3</title>
<path fill="none" stroke="midnightblue" d="M253.197,-35.9462C270.866,-40.8292 292.549,-46.8216 311.439,-52.0422"/>
<polygon fill="midnightblue" stroke="midnightblue" points="310.743,-55.481 321.314,-54.7713 312.608,-48.7339 310.743,-55.481"/>
</g>
<!-- Node2&#45;&gt;Node5 -->
<g id="edge6" class="edge"><title>Node2&#45;&gt;Node5</title>
<path fill="none" stroke="midnightblue" d="M282.268,-29.7322C362.36,-33.971 496.04,-41.046 551.825,-43.9984"/>
<polygon fill="midnightblue" stroke="midnightblue" points="551.734,-47.4984 561.905,-44.5319 552.104,-40.5082 551.734,-47.4984"/>
</g>
<!-- Node4 -->
<g id="node4" class="node"><title>Node4</title>
<g id="a_node4"><a xlink:href="a00022.html#ae1085dd4fd40466d18b02ec077ef4d6d" target="_top" xlink:title="hpd_map_remove">
<polygon fill="none" stroke="black" points="432,-92.8572 432,-111.857 526,-111.857 526,-92.8572 432,-92.8572"/>
<text text-anchor="middle" x="479" y="-99.8572" font-family="Helvetica,sans-Serif" font-size="10.00">hpd_map_remove</text>
</a>
</g>
</g>
<!-- Node3&#45;&gt;Node4 -->
<g id="edge3" class="edge"><title>Node3&#45;&gt;Node4</title>
<path fill="none" stroke="midnightblue" d="M388.281,-73.9462C403.346,-78.7167 421.754,-84.546 437.967,-89.6801"/>
<polygon fill="midnightblue" stroke="midnightblue" points="437.139,-93.089 447.729,-92.7713 439.252,-86.4156 437.139,-93.089"/>
</g>
<!-- Node3&#45;&gt;Node5 -->
<g id="edge5" class="edge"><title>Node3&#45;&gt;Node5</title>
<path fill="none" stroke="midnightblue" d="M396.234,-61.0477C440.728,-57.1963 512.997,-50.9406 551.468,-47.6106"/>
<polygon fill="midnightblue" stroke="midnightblue" points="552.152,-51.0645 561.813,-46.7151 551.549,-44.0906 552.152,-51.0645"/>
</g>
<!-- Node4&#45;&gt;Node5 -->
<g id="edge4" class="edge"><title>Node4&#45;&gt;Node5</title>
<path fill="none" stroke="midnightblue" d="M499.455,-92.6917C507.729,-88.4567 517.428,-83.3267 526,-78.3572 535.546,-72.8233 545.827,-66.3452 554.674,-60.601"/>
<polygon fill="midnightblue" stroke="midnightblue" points="556.843,-63.3639 563.283,-54.951 553.002,-57.5116 556.843,-63.3639"/>
</g>
</g>
</svg>
