<?xml version="1.0" encoding="UTF-8" standalone="no"?>
<!DOCTYPE svg PUBLIC "-//W3C//DTD SVG 1.1//EN"
 "http://www.w3.org/Graphics/SVG/1.1/DTD/svg11.dtd">
<!-- Generated by graphviz version 2.38.0 (20140413.2041)
 -->
<!-- Title: hpd_adapter_set_data Pages: 1 -->
<!--zoomable 345 -->
<svg id="main" version="1.1" xmlns="http://www.w3.org/2000/svg" xmlns:xlink="http://www.w3.org/1999/xlink" xml:space="preserve" onload="init(evt)">
<style type="text/css"><![CDATA[
.edge:hover path { stroke: red; }
.edge:hover polygon { stroke: red; fill: red; }
]]></style>
<script type="text/javascript"><![CDATA[
var edges = document.getElementsByTagName('g');
if (edges && edges.length) {
  for (var i=0;i<edges.length;i++) {
    if (edges[i].id.substr(0,4)=='edge') {
      edges[i].setAttribute('class','edge');
    }
  }
}
]]></script>
        <defs>
                <circle id="rim" cx="0" cy="0" r="7"/>
                <circle id="rim2" cx="0" cy="0" r="3.5"/>
                <g id="zoomPlus">
                        <use xlink:href="#rim" fill="#404040">
                                <set attributeName="fill" to="#808080" begin="zoomplus.mouseover" end="zoomplus.mouseout"/>
                        </use>
                        <path d="M-4,0h8M0,-4v8" fill="none" stroke="white" stroke-width="1.5" pointer-events="none"/>
                </g>
                <g id="zoomMin">
                        <use xlink:href="#rim" fill="#404040">
                                <set attributeName="fill" to="#808080" begin="zoomminus.mouseover" end="zoomminus.mouseout"/>
                        </use>
                        <path d="M-4,0h8" fill="none" stroke="white" stroke-width="1.5" pointer-events="none"/>
                </g>
                <g id="dirArrow">
                        <path fill="none" stroke="white" stroke-width="1.5" d="M0,-3.0v7 M-2.5,-0.5L0,-3.0L2.5,-0.5"/>
                </g>
               <g id="resetDef">
                       <use xlink:href="#rim2" fill="#404040">
                               <set attributeName="fill" to="#808080" begin="reset.mouseover" end="reset.mouseout"/>
                       </use>
               </g>
        </defs>

<script type="text/javascript">
var viewWidth = 1334;
var viewHeight = 345;
var sectionId = 'dynsection-31';
</script>
<script xlink:href="svgpan.js"/>
<svg id="graph" class="graph">
<g id="viewport">
<title>hpd_adapter_set_data</title>
<!-- Node1 -->
<g id="node1" class="node"><title>Node1</title>
<polygon fill="#bfbfbf" stroke="black" points="0,-54.4029 0,-73.4029 113,-73.4029 113,-54.4029 0,-54.4029"/>
<text text-anchor="middle" x="56.5" y="-61.4029" font-family="Helvetica,sans-Serif" font-size="10.00">hpd_adapter_set_data</text>
</g>
<!-- Node2 -->
<g id="node2" class="node"><title>Node2</title>
<g id="a_node2"><a xlink:href="a00063.html#a7d6f0b9bdced07007cfc6513f3a35d22" target="_top" xlink:title="discovery_set_adapter_data">
<polygon fill="none" stroke="black" points="149,-54.4029 149,-73.4029 288,-73.4029 288,-54.4029 149,-54.4029"/>
<text text-anchor="middle" x="218.5" y="-61.4029" font-family="Helvetica,sans-Serif" font-size="10.00">discovery_set_adapter_data</text>
</a>
</g>
</g>
<!-- Node1&#45;&gt;Node2 -->
<g id="edge1" class="edge"><title>Node1&#45;&gt;Node2</title>
<path fill="none" stroke="midnightblue" d="M113.011,-63.9029C121.315,-63.9029 130.008,-63.9029 138.683,-63.9029"/>
<polygon fill="midnightblue" stroke="midnightblue" points="138.833,-67.403 148.833,-63.9029 138.833,-60.403 138.833,-67.403"/>
</g>
<!-- Node3 -->
<g id="node3" class="node"><title>Node3</title>
<g id="a_node3"><a xlink:href="a00025.html#a65f3fe01ba50f1473cad1a4418cfdf09" target="_top" xlink:title="on_free">
<polygon fill="none" stroke="black" points="324,-54.4029 324,-73.4029 373,-73.4029 373,-54.4029 324,-54.4029"/>
<text text-anchor="middle" x="348.5" y="-61.4029" font-family="Helvetica,sans-Serif" font-size="10.00">on_free</text>
</a>
</g>
</g>
<!-- Node2&#45;&gt;Node3 -->
<g id="edge2" class="edge"><title>Node2&#45;&gt;Node3</title>
<path fill="none" stroke="midnightblue" d="M288.371,-63.9029C297.158,-63.9029 305.822,-63.9029 313.695,-63.9029"/>
<polygon fill="midnightblue" stroke="midnightblue" points="313.878,-67.403 323.878,-63.9029 313.878,-60.403 313.878,-67.403"/>
</g>
<!-- Node4 -->
<g id="node4" class="node"><title>Node4</title>
<g id="a_node4"><a xlink:href="a00025.html#a78818d54ff3643716564aad97c70c7e2" target="_top" xlink:title="reply_internal_server\l_error">
<polygon fill="none" stroke="black" points="409,-92.9029 409,-122.903 516,-122.903 516,-92.9029 409,-92.9029"/>
<text text-anchor="start" x="417" y="-110.903" font-family="Helvetica,sans-Serif" font-size="10.00">reply_internal_server</text>
<text text-anchor="middle" x="462.5" y="-99.9029" font-family="Helvetica,sans-Serif" font-size="10.00">_error</text>
</a>
</g>
</g>
<!-- Node3&#45;&gt;Node4 -->
<g id="edge3" class="edge"><title>Node3&#45;&gt;Node4</title>
<path fill="none" stroke="midnightblue" d="M373.252,-73.2341C385.043,-77.8663 399.728,-83.6351 413.713,-89.1295"/>
<polygon fill="midnightblue" stroke="midnightblue" points="412.653,-92.4732 423.24,-92.8721 415.212,-85.9579 412.653,-92.4732"/>
</g>
<!-- Node12 -->
<g id="node12" class="node"><title>Node12</title>
<g id="a_node12"><a xlink:href="a00006.html#adf46370d9c211c3be22966b4606ba9b0" target="_top" xlink:title="free">
<polygon fill="none" stroke="black" points="1293,-95.4029 1293,-114.403 1326,-114.403 1326,-95.4029 1293,-95.4029"/>
<text text-anchor="middle" x="1309.5" y="-102.403" font-family="Helvetica,sans-Serif" font-size="10.00">free</text>
</a>
</g>
</g>
<!-- Node3&#45;&gt;Node12 -->
<g id="edge21" class="edge"><title>Node3&#45;&gt;Node12</title>
<path fill="none" stroke="midnightblue" d="M373.266,-63.9029C418.156,-63.9029 518.5,-63.9029 603,-63.9029 603,-63.9029 603,-63.9029 1066.5,-63.9029 1146.41,-63.9029 1239.11,-85.9057 1282.98,-97.6743"/>
<polygon fill="midnightblue" stroke="midnightblue" points="1282.23,-101.098 1292.8,-100.359 1284.08,-94.3456 1282.23,-101.098"/>
</g>
<!-- Node16 -->
<g id="node16" class="node"><title>Node16</title>
<g id="a_node16"><a xlink:href="a00060.html#a19ce779c8a8a82fcb624cd7631eaee20" target="_top" xlink:title="hpd_service_id_free">
<polygon fill="none" stroke="black" points="552,-16.4029 552,-35.4029 656,-35.4029 656,-16.4029 552,-16.4029"/>
<text text-anchor="middle" x="604" y="-23.4029" font-family="Helvetica,sans-Serif" font-size="10.00">hpd_service_id_free</text>
</a>
</g>
</g>
<!-- Node3&#45;&gt;Node16 -->
<g id="edge18" class="edge"><title>Node3&#45;&gt;Node16</title>
<path fill="none" stroke="midnightblue" d="M373.119,-57.7262C383.99,-55.0434 397.092,-52.034 409,-49.9029 453.159,-42 503.44,-35.8595 541.746,-31.7685"/>
<polygon fill="midnightblue" stroke="midnightblue" points="542.136,-35.2469 551.716,-30.7211 541.405,-28.2852 542.136,-35.2469"/>
</g>
<!-- Node5 -->
<g id="node5" class="node"><title>Node5</title>
<g id="a_node5"><a xlink:href="a00025.html#afb08e2b5fbac2394319e24be39ac931a" target="_top" xlink:title="reply">
<polygon fill="none" stroke="black" points="585,-98.4029 585,-117.403 623,-117.403 623,-98.4029 585,-98.4029"/>
<text text-anchor="middle" x="604" y="-105.403" font-family="Helvetica,sans-Serif" font-size="10.00">reply</text>
</a>
</g>
</g>
<!-- Node4&#45;&gt;Node5 -->
<g id="edge4" class="edge"><title>Node4&#45;&gt;Node5</title>
<path fill="none" stroke="midnightblue" d="M516.239,-107.903C536.113,-107.903 557.949,-107.903 574.743,-107.903"/>
<polygon fill="midnightblue" stroke="midnightblue" points="574.979,-111.403 584.979,-107.903 574.979,-104.403 574.979,-111.403"/>
</g>
<!-- Node6 -->
<g id="node6" class="node"><title>Node6</title>
<g id="a_node6"><a xlink:href="a00018.html#a3b100e8d7e1214067cf1b90ad577745c" target="_top" xlink:title="Create the reponse and constructs the status line. ">
<polygon fill="none" stroke="black" points="692,-196.903 692,-226.903 796,-226.903 796,-196.903 692,-196.903"/>
<text text-anchor="start" x="700" y="-214.903" font-family="Helvetica,sans-Serif" font-size="10.00">hpd_httpd_response</text>
<text text-anchor="middle" x="744" y="-203.903" font-family="Helvetica,sans-Serif" font-size="10.00">_create</text>
</a>
</g>
</g>
<!-- Node5&#45;&gt;Node6 -->
<g id="edge5" class="edge"><title>Node5&#45;&gt;Node6</title>
<path fill="none" stroke="midnightblue" d="M617.735,-117.501C639.598,-133.977 684.78,-168.027 714.48,-190.41"/>
<polygon fill="midnightblue" stroke="midnightblue" points="712.693,-193.446 722.786,-196.669 716.906,-187.855 712.693,-193.446"/>
</g>
<!-- Node15 -->
<g id="node15" class="node"><title>Node15</title>
<g id="a_node15"><a xlink:href="a00018.html#a36a5feca39485163b3ef446c9e3171a3" target="_top" xlink:title="Destroy a hpd_httpd_response. ">
<polygon fill="none" stroke="black" points="851,-92.9029 851,-122.903 955,-122.903 955,-92.9029 851,-92.9029"/>
<text text-anchor="start" x="859" y="-110.903" font-family="Helvetica,sans-Serif" font-size="10.00">hpd_httpd_response</text>
<text text-anchor="middle" x="903" y="-99.9029" font-family="Helvetica,sans-Serif" font-size="10.00">_destroy</text>
</a>
</g>
</g>
<!-- Node5&#45;&gt;Node15 -->
<g id="edge15" class="edge"><title>Node5&#45;&gt;Node15</title>
<path fill="none" stroke="midnightblue" d="M623.132,-107.903C665.419,-107.903 772.173,-107.903 840.654,-107.903"/>
<polygon fill="midnightblue" stroke="midnightblue" points="840.885,-111.403 850.884,-107.903 840.884,-104.403 840.885,-111.403"/>
</g>
<!-- Node7 -->
<g id="node7" class="node"><title>Node7</title>
<g id="a_node7"><a xlink:href="a00016.html#a228cee03d1174febd4a716e0285542c2" target="_top" xlink:title="http_request_get_context">
<polygon fill="none" stroke="black" points="839.5,-180.403 839.5,-199.403 966.5,-199.403 966.5,-180.403 839.5,-180.403"/>
<text text-anchor="middle" x="903" y="-187.403" font-family="Helvetica,sans-Serif" font-size="10.00">http_request_get_context</text>
</a>
</g>
</g>
<!-- Node6&#45;&gt;Node7 -->
<g id="edge6" class="edge"><title>Node6&#45;&gt;Node7</title>
<path fill="none" stroke="midnightblue" d="M796.408,-204.699C806.883,-203.231 818.093,-201.661 829.152,-200.111"/>
<polygon fill="midnightblue" stroke="midnightblue" points="829.823,-203.551 839.241,-198.697 828.852,-196.619 829.823,-203.551"/>
</g>
<!-- Node8 -->
<g id="node8" class="node"><title>Node8</title>
<g id="a_node8"><a xlink:href="a00017.html#a867d6248acd2a1ad498594ec818cb718" target="_top" xlink:title="Convert a status code to string. ">
<polygon fill="none" stroke="black" points="839.5,-142.403 839.5,-161.403 966.5,-161.403 966.5,-142.403 839.5,-142.403"/>
<text text-anchor="middle" x="903" y="-149.403" font-family="Helvetica,sans-Serif" font-size="10.00">http_status_codes_to_str</text>
</a>
</g>
</g>
<!-- Node6&#45;&gt;Node8 -->
<g id="edge7" class="edge"><title>Node6&#45;&gt;Node8</title>
<path fill="none" stroke="midnightblue" d="M773.851,-196.743C790.533,-188.376 812.1,-178.228 832,-170.903 838.431,-168.535 845.291,-166.316 852.108,-164.288"/>
<polygon fill="midnightblue" stroke="midnightblue" points="853.354,-167.573 862.008,-161.46 851.431,-160.842 853.354,-167.573"/>
</g>
<!-- Node9 -->
<g id="node9" class="node"><title>Node9</title>
<g id="a_node9"><a xlink:href="a00017.html#a36a5feca39485163b3ef446c9e3171a3" target="_top" xlink:title="Destroy a hpd_httpd_response. ">
<polygon fill="none" stroke="black" points="851,-306.903 851,-336.903 955,-336.903 955,-306.903 851,-306.903"/>
<text text-anchor="start" x="859" y="-324.903" font-family="Helvetica,sans-Serif" font-size="10.00">hpd_httpd_response</text>
<text text-anchor="middle" x="903" y="-313.903" font-family="Helvetica,sans-Serif" font-size="10.00">_destroy</text>
</a>
</g>
</g>
<!-- Node6&#45;&gt;Node9 -->
<g id="edge8" class="edge"><title>Node6&#45;&gt;Node9</title>
<path fill="none" stroke="midnightblue" d="M757.004,-227.136C772.512,-245.904 801.197,-277.659 832,-296.903 835.198,-298.901 838.578,-300.768 842.056,-302.509"/>
<polygon fill="midnightblue" stroke="midnightblue" points="840.89,-305.825 851.437,-306.824 843.815,-299.465 840.89,-305.825"/>
</g>
<!-- Node13 -->
<g id="node13" class="node"><title>Node13</title>
<g id="a_node13"><a xlink:href="a00016.html#a1568fdba259271965551fb5aa1f07006" target="_top" xlink:title="Get the connection of a request. ">
<polygon fill="none" stroke="black" points="832,-268.403 832,-287.403 974,-287.403 974,-268.403 832,-268.403"/>
<text text-anchor="middle" x="903" y="-275.403" font-family="Helvetica,sans-Serif" font-size="10.00">http_request_get_connection</text>
</a>
</g>
</g>
<!-- Node6&#45;&gt;Node13 -->
<g id="edge13" class="edge"><title>Node6&#45;&gt;Node13</title>
<path fill="none" stroke="midnightblue" d="M769.391,-227.051C786.438,-237.141 810.001,-250.112 832,-258.903 837.909,-261.264 844.212,-263.434 850.524,-265.395"/>
<polygon fill="midnightblue" stroke="midnightblue" points="849.814,-268.834 860.395,-268.303 851.792,-262.119 849.814,-268.834"/>
</g>
<!-- Node14 -->
<g id="node14" class="node"><title>Node14</title>
<g id="a_node14"><a xlink:href="a00017.html#a3aabea0eb8be381d54ece47fa1fd6a75" target="_top" xlink:title="Add header to a response. ">
<polygon fill="none" stroke="black" points="851,-218.903 851,-248.903 955,-248.903 955,-218.903 851,-218.903"/>
<text text-anchor="start" x="859" y="-236.903" font-family="Helvetica,sans-Serif" font-size="10.00">hpd_httpd_response</text>
<text text-anchor="middle" x="903" y="-225.903" font-family="Helvetica,sans-Serif" font-size="10.00">_add_header</text>
</a>
</g>
</g>
<!-- Node6&#45;&gt;Node14 -->
<g id="edge14" class="edge"><title>Node6&#45;&gt;Node14</title>
<path fill="none" stroke="midnightblue" d="M796.408,-219.106C810.577,-221.092 826.088,-223.265 840.754,-225.321"/>
<polygon fill="midnightblue" stroke="midnightblue" points="840.356,-228.799 850.745,-226.721 841.328,-221.867 840.356,-228.799"/>
</g>
<!-- Node10 -->
<g id="node10" class="node"><title>Node10</title>
<g id="a_node10"><a xlink:href="a00029.html#a494a1841a6c8963c10f5d3a6b662f014" target="_top" xlink:title="Close a connection, after the remaining data has been sent. ">
<polygon fill="none" stroke="black" points="1010,-133.403 1010,-152.403 1121,-152.403 1121,-133.403 1010,-133.403"/>
<text text-anchor="middle" x="1065.5" y="-140.403" font-family="Helvetica,sans-Serif" font-size="10.00">hpd_tcpd_conn_close</text>
</a>
</g>
</g>
<!-- Node9&#45;&gt;Node10 -->
<g id="edge9" class="edge"><title>Node9&#45;&gt;Node10</title>
<path fill="none" stroke="midnightblue" d="M955.222,-308.404C961.951,-305.298 968.432,-301.51 974,-296.903 975.497,-295.664 1030.15,-201.928 1053.78,-161.322"/>
<polygon fill="midnightblue" stroke="midnightblue" points="1056.95,-162.846 1058.95,-152.443 1050.9,-159.325 1056.95,-162.846"/>
</g>
<!-- Node9&#45;&gt;Node12 -->
<g id="edge12" class="edge"><title>Node9&#45;&gt;Node12</title>
<path fill="none" stroke="midnightblue" d="M954.086,-306.819C1025.95,-283.569 1160.3,-233.986 1257,-161.903 1271.97,-150.743 1285.97,-134.739 1295.58,-122.529"/>
<polygon fill="midnightblue" stroke="midnightblue" points="1298.48,-124.506 1301.76,-114.432 1292.91,-120.261 1298.48,-124.506"/>
</g>
<!-- Node11 -->
<g id="node11" class="node"><title>Node11</title>
<g id="a_node11"><a xlink:href="a00049.html#a58068e1a4c60b401bc6fc99c25e9a3f6" target="_top" xlink:title="Kill and clean up after a connection. ">
<polygon fill="none" stroke="black" points="1157,-133.403 1157,-152.403 1257,-152.403 1257,-133.403 1157,-133.403"/>
<text text-anchor="middle" x="1207" y="-140.403" font-family="Helvetica,sans-Serif" font-size="10.00">hpd_tcpd_conn_kill</text>
</a>
</g>
</g>
<!-- Node10&#45;&gt;Node11 -->
<g id="edge10" class="edge"><title>Node10&#45;&gt;Node11</title>
<path fill="none" stroke="midnightblue" d="M1121.23,-142.903C1129.59,-142.903 1138.25,-142.903 1146.7,-142.903"/>
<polygon fill="midnightblue" stroke="midnightblue" points="1146.87,-146.403 1156.87,-142.903 1146.87,-139.403 1146.87,-146.403"/>
</g>
<!-- Node11&#45;&gt;Node12 -->
<g id="edge11" class="edge"><title>Node11&#45;&gt;Node12</title>
<path fill="none" stroke="midnightblue" d="M1233.36,-133.314C1248.57,-127.562 1267.86,-120.27 1283.08,-114.514"/>
<polygon fill="midnightblue" stroke="midnightblue" points="1284.76,-117.622 1292.87,-110.812 1282.28,-111.075 1284.76,-117.622"/>
</g>
<!-- Node15&#45;&gt;Node10 -->
<g id="edge16" class="edge"><title>Node15&#45;&gt;Node10</title>
<path fill="none" stroke="midnightblue" d="M955.224,-119.073C972.946,-122.938 992.849,-127.278 1010.77,-131.185"/>
<polygon fill="midnightblue" stroke="midnightblue" points="1010.25,-134.656 1020.77,-133.367 1011.75,-127.816 1010.25,-134.656"/>
</g>
<!-- Node15&#45;&gt;Node12 -->
<g id="edge17" class="edge"><title>Node15&#45;&gt;Node12</title>
<path fill="none" stroke="midnightblue" d="M955.23,-107.523C1042.45,-106.876 1216.72,-105.584 1282.53,-105.095"/>
<polygon fill="midnightblue" stroke="midnightblue" points="1282.85,-108.593 1292.83,-105.019 1282.8,-101.593 1282.85,-108.593"/>
</g>
<!-- Node17 -->
<g id="node17" class="node"><title>Node17</title>
<g id="a_node17"><a xlink:href="a00011.html#a8922de7d42124afa8ab5fd339fe695ee" target="_top" xlink:title="discovery_free_sid">
<polygon fill="none" stroke="black" points="695,-16.4029 695,-35.4029 793,-35.4029 793,-16.4029 695,-16.4029"/>
<text text-anchor="middle" x="744" y="-23.4029" font-family="Helvetica,sans-Serif" font-size="10.00">discovery_free_sid</text>
</a>
</g>
</g>
<!-- Node16&#45;&gt;Node17 -->
<g id="edge19" class="edge"><title>Node16&#45;&gt;Node17</title>
<path fill="none" stroke="midnightblue" d="M656.386,-25.9029C665.615,-25.9029 675.295,-25.9029 684.703,-25.9029"/>
<polygon fill="midnightblue" stroke="midnightblue" points="684.771,-29.403 694.771,-25.9029 684.771,-22.403 684.771,-29.403"/>
</g>
<!-- Node17&#45;&gt;Node12 -->
<g id="edge20" class="edge"><title>Node17&#45;&gt;Node12</title>
<path fill="none" stroke="midnightblue" d="M793.332,-16.65C887.6,-1.00779 1100.47,22.3691 1257,-49.9029 1273.82,-57.6687 1287.79,-73.6751 1296.92,-86.4276"/>
<polygon fill="midnightblue" stroke="midnightblue" points="1294.19,-88.6383 1302.68,-94.9739 1299.99,-84.7255 1294.19,-88.6383"/>
</g>
</g>
</svg>
        <g id="navigator" transform="translate(0 0)" fill="#404254">
                <rect fill="#f2f5e9" fill-opacity="0.5" stroke="#606060" stroke-width=".5" x="0" y="0" width="60" height="60"/>
                <use id="zoomplus" xlink:href="#zoomPlus" x="17" y="9" onmousedown="handleZoom(evt,'in')"/>
                <use id="zoomminus" xlink:href="#zoomMin" x="42" y="9" onmousedown="handleZoom(evt,'out')"/>
                <use id="reset" xlink:href="#resetDef" x="30" y="36" onmousedown="handleReset()"/>
                <g id="arrowUp" xlink:href="#dirArrow" transform="translate(30 24)" onmousedown="handlePan(0,-1)">
                  <use xlink:href="#rim" fill="#404040">
                        <set attributeName="fill" to="#808080" begin="arrowUp.mouseover" end="arrowUp.mouseout"/>
                  </use>
                  <path fill="none" stroke="white" stroke-width="1.5" d="M0,-3.0v7 M-2.5,-0.5L0,-3.0L2.5,-0.5"/>
                </g>
                <g id="arrowRight" xlink:href="#dirArrow" transform="rotate(90) translate(36 -43)" onmousedown="handlePan(1,0)">
                  <use xlink:href="#rim" fill="#404040">
                        <set attributeName="fill" to="#808080" begin="arrowRight.mouseover" end="arrowRight.mouseout"/>
                  </use>
                  <path fill="none" stroke="white" stroke-width="1.5" d="M0,-3.0v7 M-2.5,-0.5L0,-3.0L2.5,-0.5"/>
                </g>
                <g id="arrowDown" xlink:href="#dirArrow" transform="rotate(180) translate(-30 -48)" onmousedown="handlePan(0,1)">
                  <use xlink:href="#rim" fill="#404040">
                        <set attributeName="fill" to="#808080" begin="arrowDown.mouseover" end="arrowDown.mouseout"/>
                  </use>
                  <path fill="none" stroke="white" stroke-width="1.5" d="M0,-3.0v7 M-2.5,-0.5L0,-3.0L2.5,-0.5"/>
                </g>
                <g id="arrowLeft" xlink:href="#dirArrow" transform="rotate(270) translate(-36 17)" onmousedown="handlePan(-1,0)">
                  <use xlink:href="#rim" fill="#404040">
                        <set attributeName="fill" to="#808080" begin="arrowLeft.mouseover" end="arrowLeft.mouseout"/>
                  </use>
                  <path fill="none" stroke="white" stroke-width="1.5" d="M0,-3.0v7 M-2.5,-0.5L0,-3.0L2.5,-0.5"/>
                </g>
        </g>
        <svg viewBox="0 0 15 15" width="100%" height="30px" preserveAspectRatio="xMaxYMin meet">
         <g id="arrow_out" transform="scale(0.3 0.3)">
          <a xlink:href="a00064_ae4435821a3fd887ed393c05dacd2a79d_cgraph_org.svg" target="_base">
           <rect id="button" ry="5" rx="5" y="6" x="6" height="38" width="38"
                fill="#f2f5e9" fill-opacity="0.5" stroke="#606060" stroke-width="1.0"/>
           <path id="arrow"
             d="M 11.500037,31.436501 C 11.940474,20.09759 22.043105,11.32322 32.158766,21.979434 L 37.068811,17.246167 C 37.068811,17.246167 37.088388,32 37.088388,32 L 22.160133,31.978069 C 22.160133,31.978069 26.997745,27.140456 26.997745,27.140456 C 18.528582,18.264221 13.291696,25.230495 11.500037,31.436501 z"
             style="fill:#404040;"/>
          </a>
         </g>
        </svg>
</svg>
