<?xml version="1.0" encoding="UTF-8" standalone="no"?>
<!DOCTYPE svg PUBLIC "-//W3C//DTD SVG 1.1//EN"
 "http://www.w3.org/Graphics/SVG/1.1/DTD/svg11.dtd">
<!-- Generated by graphviz version 2.38.0 (20140413.2041)
 -->
<!-- Title: event_unsubscribe Pages: 1 -->
<svg width="371pt" height="66pt"
 viewBox="0.00 0.00 371.00 66.00" xmlns="http://www.w3.org/2000/svg" xmlns:xlink="http://www.w3.org/1999/xlink">
<g id="graph0" class="graph" transform="scale(1 1) rotate(0) translate(4 62)">
<title>event_unsubscribe</title>
<!-- Node1 -->
<g id="node1" class="node"><title>Node1</title>
<polygon fill="#bfbfbf" stroke="black" points="0,-19.5 0,-38.5 98,-38.5 98,-19.5 0,-19.5"/>
<text text-anchor="middle" x="49" y="-26.5" font-family="Helvetica,sans-Serif" font-size="10.00">event_unsubscribe</text>
</g>
<!-- Node2 -->
<g id="node2" class="node"><title>Node2</title>
<g id="a_node2"><a xlink:href="a00083.html#a96236544de2ed9cacdc03b5dedeb6d4e" target="_top" xlink:title="hpd_listener_free">
<polygon fill="none" stroke="black" points="134,-19.5 134,-38.5 225,-38.5 225,-19.5 134,-19.5"/>
<text text-anchor="middle" x="179.5" y="-26.5" font-family="Helvetica,sans-Serif" font-size="10.00">hpd_listener_free</text>
</a>
</g>
</g>
<!-- Node1&#45;&gt;Node2 -->
<g id="edge1" class="edge"><title>Node1&#45;&gt;Node2</title>
<path fill="none" stroke="midnightblue" d="M108.491,-29C117.005,-29 125.655,-29 133.836,-29"/>
<polygon fill="midnightblue" stroke="midnightblue" points="108.214,-25.5001 98.2143,-29 108.214,-32.5001 108.214,-25.5001"/>
</g>
<!-- Node3 -->
<g id="node3" class="node"><title>Node3</title>
<g id="a_node3"><a xlink:href="a00014.html#aa8f03492cc097968d466bb5ea9a043d1" target="_top" xlink:title="demo_app_on_start">
<polygon fill="none" stroke="black" points="261,-38.5 261,-57.5 363,-57.5 363,-38.5 261,-38.5"/>
<text text-anchor="middle" x="312" y="-45.5" font-family="Helvetica,sans-Serif" font-size="10.00">demo_app_on_start</text>
</a>
</g>
</g>
<!-- Node2&#45;&gt;Node3 -->
<g id="edge2" class="edge"><title>Node2&#45;&gt;Node3</title>
<path fill="none" stroke="midnightblue" d="M234.956,-36.9284C243.529,-38.1766 252.358,-39.4621 260.828,-40.6953"/>
<polygon fill="midnightblue" stroke="midnightblue" points="235.446,-33.4629 225.046,-35.4856 234.437,-40.3899 235.446,-33.4629"/>
</g>
<!-- Node4 -->
<g id="node4" class="node"><title>Node4</title>
<g id="a_node4"><a xlink:href="a00014.html#a2324f21b5341e7d5f380921b4c6fe1cb" target="_top" xlink:title="demo_app_on_stop">
<polygon fill="none" stroke="black" points="261.5,-0.5 261.5,-19.5 362.5,-19.5 362.5,-0.5 261.5,-0.5"/>
<text text-anchor="middle" x="312" y="-7.5" font-family="Helvetica,sans-Serif" font-size="10.00">demo_app_on_stop</text>
</a>
</g>
</g>
<!-- Node2&#45;&gt;Node4 -->
<g id="edge3" class="edge"><title>Node2&#45;&gt;Node4</title>
<path fill="none" stroke="midnightblue" d="M235.085,-21.0528C243.77,-19.7882 252.715,-18.4859 261.281,-17.2388"/>
<polygon fill="midnightblue" stroke="midnightblue" points="234.437,-17.6101 225.046,-22.5144 235.446,-24.5371 234.437,-17.6101"/>
</g>
</g>
</svg>
