<?xml version="1.0" encoding="UTF-8" standalone="no"?>
<!DOCTYPE svg PUBLIC "-//W3C//DTD SVG 1.1//EN"
 "http://www.w3.org/Graphics/SVG/1.1/DTD/svg11.dtd">
<!-- Generated by graphviz version 2.38.0 (20140413.2041)
 -->
<!-- Title: map_insert Pages: 1 -->
<svg width="856pt" height="456pt"
 viewBox="0.00 0.00 856.00 455.50" xmlns="http://www.w3.org/2000/svg" xmlns:xlink="http://www.w3.org/1999/xlink">
<g id="graph0" class="graph" transform="scale(1 1) rotate(0) translate(4 451.5)">
<title>map_insert</title>
<!-- Node1 -->
<g id="node1" class="node"><title>Node1</title>
<polygon fill="#bfbfbf" stroke="black" points="0,-224.5 0,-243.5 65,-243.5 65,-224.5 0,-224.5"/>
<text text-anchor="middle" x="32.5" y="-231.5" font-family="Helvetica,sans-Serif" font-size="10.00">map_insert</text>
</g>
<!-- Node2 -->
<g id="node2" class="node"><title>Node2</title>
<g id="a_node2"><a xlink:href="a00031.html#a230c25a2f8e5de7ce61623a4ce8a809f" target="_top" xlink:title="hpd_map_set">
<polygon fill="none" stroke="black" points="101,-224.5 101,-243.5 176,-243.5 176,-224.5 101,-224.5"/>
<text text-anchor="middle" x="138.5" y="-231.5" font-family="Helvetica,sans-Serif" font-size="10.00">hpd_map_set</text>
</a>
</g>
</g>
<!-- Node1&#45;&gt;Node2 -->
<g id="edge1" class="edge"><title>Node1&#45;&gt;Node2</title>
<path fill="none" stroke="midnightblue" d="M75.3181,-234C83.7601,-234 92.5748,-234 100.824,-234"/>
<polygon fill="midnightblue" stroke="midnightblue" points="75.2686,-230.5 65.2685,-234 75.2685,-237.5 75.2686,-230.5"/>
</g>
<!-- Node3 -->
<g id="node3" class="node"><title>Node3</title>
<g id="a_node3"><a xlink:href="a00020.html#a1ace8e13428ce953dc195ed8cf5105c7" target="_top" xlink:title="discovery_set_adapter_attr">
<polygon fill="none" stroke="black" points="218,-378.5 218,-397.5 352,-397.5 352,-378.5 218,-378.5"/>
<text text-anchor="middle" x="285" y="-385.5" font-family="Helvetica,sans-Serif" font-size="10.00">discovery_set_adapter_attr</text>
</a>
</g>
</g>
<!-- Node2&#45;&gt;Node3 -->
<g id="edge2" class="edge"><title>Node2&#45;&gt;Node3</title>
<path fill="none" stroke="midnightblue" d="M153.887,-251.904C168.168,-269.423 190.915,-296.657 212,-319 232.914,-341.161 259.102,-365.464 273.428,-378.489"/>
<polygon fill="midnightblue" stroke="midnightblue" points="156.259,-249.272 147.244,-243.705 150.82,-253.678 156.259,-249.272"/>
</g>
<!-- Node9 -->
<g id="node9" class="node"><title>Node9</title>
<g id="a_node9"><a xlink:href="a00020.html#a56b004be3282718fac95524a7446748c" target="_top" xlink:title="discovery_set_device_attr">
<polygon fill="none" stroke="black" points="219.5,-290.5 219.5,-309.5 350.5,-309.5 350.5,-290.5 219.5,-290.5"/>
<text text-anchor="middle" x="285" y="-297.5" font-family="Helvetica,sans-Serif" font-size="10.00">discovery_set_device_attr</text>
</a>
</g>
</g>
<!-- Node2&#45;&gt;Node9 -->
<g id="edge8" class="edge"><title>Node2&#45;&gt;Node9</title>
<path fill="none" stroke="midnightblue" d="M169.808,-247.843C197.733,-260.598 238.445,-279.193 262.963,-290.391"/>
<polygon fill="midnightblue" stroke="midnightblue" points="171.062,-244.568 160.512,-243.597 168.154,-250.935 171.062,-244.568"/>
</g>
<!-- Node14 -->
<g id="node14" class="node"><title>Node14</title>
<g id="a_node14"><a xlink:href="a00020.html#a2c62fa50d5ba2ac0e0db8df95d319687" target="_top" xlink:title="discovery_set_service_attr">
<polygon fill="none" stroke="black" points="218,-224.5 218,-243.5 352,-243.5 352,-224.5 218,-224.5"/>
<text text-anchor="middle" x="285" y="-231.5" font-family="Helvetica,sans-Serif" font-size="10.00">discovery_set_service_attr</text>
</a>
</g>
</g>
<!-- Node2&#45;&gt;Node14 -->
<g id="edge14" class="edge"><title>Node2&#45;&gt;Node14</title>
<path fill="none" stroke="midnightblue" d="M186.447,-234C196.441,-234 207.175,-234 217.738,-234"/>
<polygon fill="midnightblue" stroke="midnightblue" points="186.337,-230.5 176.337,-234 186.337,-237.5 186.337,-230.5"/>
</g>
<!-- Node18 -->
<g id="node18" class="node"><title>Node18</title>
<g id="a_node18"><a xlink:href="a00020.html#aa470ecef221797da5ca84c2258474165" target="_top" xlink:title="discovery_set_parameter_attr">
<polygon fill="none" stroke="black" points="212,-158.5 212,-177.5 358,-177.5 358,-158.5 212,-158.5"/>
<text text-anchor="middle" x="285" y="-165.5" font-family="Helvetica,sans-Serif" font-size="10.00">discovery_set_parameter_attr</text>
</a>
</g>
</g>
<!-- Node2&#45;&gt;Node18 -->
<g id="edge18" class="edge"><title>Node2&#45;&gt;Node18</title>
<path fill="none" stroke="midnightblue" d="M169.808,-220.157C197.733,-207.402 238.445,-188.807 262.963,-177.609"/>
<polygon fill="midnightblue" stroke="midnightblue" points="168.154,-217.065 160.512,-224.403 171.062,-223.432 168.154,-217.065"/>
</g>
<!-- Node22 -->
<g id="node22" class="node"><title>Node22</title>
<g id="a_node22"><a xlink:href="a00091.html#a8e74f34c0eb423e170161eadec463df3" target="_top" xlink:title="value_set_header">
<polygon fill="none" stroke="black" points="238.5,-57.5 238.5,-76.5 331.5,-76.5 331.5,-57.5 238.5,-57.5"/>
<text text-anchor="middle" x="285" y="-64.5" font-family="Helvetica,sans-Serif" font-size="10.00">value_set_header</text>
</a>
</g>
</g>
<!-- Node2&#45;&gt;Node22 -->
<g id="edge22" class="edge"><title>Node2&#45;&gt;Node22</title>
<path fill="none" stroke="midnightblue" d="M154.551,-216.204C169.163,-198.963 192.005,-172.105 212,-149 234.811,-122.641 262.027,-91.8118 275.531,-76.5553"/>
<polygon fill="midnightblue" stroke="midnightblue" points="151.509,-214.38 147.718,-224.273 156.852,-218.903 151.509,-214.38"/>
</g>
<!-- Node4 -->
<g id="node4" class="node"><title>Node4</title>
<g id="a_node4"><a xlink:href="a00020.html#ad15d6de47820573ae430df83c83ca378" target="_top" xlink:title="discovery_set_adapter\l_attrs_v">
<polygon fill="none" stroke="black" points="399.5,-417 399.5,-447 514.5,-447 514.5,-417 399.5,-417"/>
<text text-anchor="start" x="407.5" y="-435" font-family="Helvetica,sans-Serif" font-size="10.00">discovery_set_adapter</text>
<text text-anchor="middle" x="457" y="-424" font-family="Helvetica,sans-Serif" font-size="10.00">_attrs_v</text>
</a>
</g>
</g>
<!-- Node3&#45;&gt;Node4 -->
<g id="edge3" class="edge"><title>Node3&#45;&gt;Node4</title>
<path fill="none" stroke="midnightblue" d="M332.686,-400.083C353.328,-405.426 377.783,-411.756 399.45,-417.363"/>
<polygon fill="midnightblue" stroke="midnightblue" points="333.445,-396.665 322.887,-397.547 331.691,-403.441 333.445,-396.665"/>
</g>
<!-- Node6 -->
<g id="node6" class="node"><title>Node6</title>
<g id="a_node6"><a xlink:href="a00079.html#a0d5ca643908e5c921d763ad9f5c9ba8e" target="_top" xlink:title="hpd_adapter_set_attr">
<polygon fill="none" stroke="black" points="403,-378.5 403,-397.5 511,-397.5 511,-378.5 403,-378.5"/>
<text text-anchor="middle" x="457" y="-385.5" font-family="Helvetica,sans-Serif" font-size="10.00">hpd_adapter_set_attr</text>
</a>
</g>
</g>
<!-- Node3&#45;&gt;Node6 -->
<g id="edge5" class="edge"><title>Node3&#45;&gt;Node6</title>
<path fill="none" stroke="midnightblue" d="M362.543,-388C376.157,-388 390.062,-388 402.845,-388"/>
<polygon fill="midnightblue" stroke="midnightblue" points="362.213,-384.5 352.213,-388 362.213,-391.5 362.213,-384.5"/>
</g>
<!-- Node5 -->
<g id="node5" class="node"><title>Node5</title>
<g id="a_node5"><a xlink:href="a00079.html#a0dc61e22d6abc5a621e53cd3aab2f9ca" target="_top" xlink:title="hpd_adapter_set_attrs">
<polygon fill="none" stroke="black" points="568,-422.5 568,-441.5 681,-441.5 681,-422.5 568,-422.5"/>
<text text-anchor="middle" x="624.5" y="-429.5" font-family="Helvetica,sans-Serif" font-size="10.00">hpd_adapter_set_attrs</text>
</a>
</g>
</g>
<!-- Node4&#45;&gt;Node5 -->
<g id="edge4" class="edge"><title>Node4&#45;&gt;Node5</title>
<path fill="none" stroke="midnightblue" d="M525.144,-432C539.324,-432 554.138,-432 567.839,-432"/>
<polygon fill="midnightblue" stroke="midnightblue" points="524.956,-428.5 514.956,-432 524.956,-435.5 524.956,-428.5"/>
</g>
<!-- Node7 -->
<g id="node7" class="node"><title>Node7</title>
<g id="a_node7"><a xlink:href="a00013.html#a1a305bf3b6bebda2ca16c8adcdb95239" target="_top" xlink:title="[on_destroy] ">
<polygon fill="none" stroke="black" points="569.5,-373 569.5,-403 679.5,-403 679.5,-373 569.5,-373"/>
<text text-anchor="start" x="577.5" y="-391" font-family="Helvetica,sans-Serif" font-size="10.00">demo_adapter_create</text>
<text text-anchor="middle" x="624.5" y="-380" font-family="Helvetica,sans-Serif" font-size="10.00">_adapter</text>
</a>
</g>
</g>
<!-- Node6&#45;&gt;Node7 -->
<g id="edge6" class="edge"><title>Node6&#45;&gt;Node7</title>
<path fill="none" stroke="midnightblue" d="M521.507,-388C537.332,-388 554.152,-388 569.472,-388"/>
<polygon fill="midnightblue" stroke="midnightblue" points="521.276,-384.5 511.276,-388 521.276,-391.5 521.276,-384.5"/>
</g>
<!-- Node8 -->
<g id="node8" class="node"><title>Node8</title>
<g id="a_node8"><a xlink:href="a00013.html#a9f84d5de2ac16bde89480bd48efdff51" target="_top" xlink:title="[create_lamp] ">
<polygon fill="none" stroke="black" points="729,-337.5 729,-356.5 848,-356.5 848,-337.5 729,-337.5"/>
<text text-anchor="middle" x="788.5" y="-344.5" font-family="Helvetica,sans-Serif" font-size="10.00">demo_adapter_on_start</text>
</a>
</g>
</g>
<!-- Node7&#45;&gt;Node8 -->
<g id="edge7" class="edge"><title>Node7&#45;&gt;Node8</title>
<path fill="none" stroke="midnightblue" d="M689.756,-371.738C710.134,-366.58 731.992,-361.048 749.858,-356.527"/>
<polygon fill="midnightblue" stroke="midnightblue" points="688.73,-368.387 679.894,-374.234 690.447,-375.173 688.73,-368.387"/>
</g>
<!-- Node10 -->
<g id="node10" class="node"><title>Node10</title>
<g id="a_node10"><a xlink:href="a00020.html#ae15e002e2b5408db4a705d3c5cd98c3a" target="_top" xlink:title="discovery_set_device\l_attrs_v">
<polygon fill="none" stroke="black" points="401.5,-329 401.5,-359 512.5,-359 512.5,-329 401.5,-329"/>
<text text-anchor="start" x="409.5" y="-347" font-family="Helvetica,sans-Serif" font-size="10.00">discovery_set_device</text>
<text text-anchor="middle" x="457" y="-336" font-family="Helvetica,sans-Serif" font-size="10.00">_attrs_v</text>
</a>
</g>
</g>
<!-- Node9&#45;&gt;Node10 -->
<g id="edge9" class="edge"><title>Node9&#45;&gt;Node10</title>
<path fill="none" stroke="midnightblue" d="M332.662,-312.077C353.939,-317.584 379.269,-324.14 401.423,-329.874"/>
<polygon fill="midnightblue" stroke="midnightblue" points="333.445,-308.665 322.887,-309.547 331.691,-315.441 333.445,-308.665"/>
</g>
<!-- Node12 -->
<g id="node12" class="node"><title>Node12</title>
<g id="a_node12"><a xlink:href="a00079.html#aa52044afe11425f0febeba4f6094e48f" target="_top" xlink:title="hpd_device_set_attr">
<polygon fill="none" stroke="black" points="405,-290.5 405,-309.5 509,-309.5 509,-290.5 405,-290.5"/>
<text text-anchor="middle" x="457" y="-297.5" font-family="Helvetica,sans-Serif" font-size="10.00">hpd_device_set_attr</text>
</a>
</g>
</g>
<!-- Node9&#45;&gt;Node12 -->
<g id="edge11" class="edge"><title>Node9&#45;&gt;Node12</title>
<path fill="none" stroke="midnightblue" d="M360.947,-300C375.799,-300 391.066,-300 404.9,-300"/>
<polygon fill="midnightblue" stroke="midnightblue" points="360.755,-296.5 350.755,-300 360.755,-303.5 360.755,-296.5"/>
</g>
<!-- Node11 -->
<g id="node11" class="node"><title>Node11</title>
<g id="a_node11"><a xlink:href="a00079.html#a79a100958212cd7d8be053ceeb15885c" target="_top" xlink:title="hpd_device_set_attrs">
<polygon fill="none" stroke="black" points="569.5,-334.5 569.5,-353.5 679.5,-353.5 679.5,-334.5 569.5,-334.5"/>
<text text-anchor="middle" x="624.5" y="-341.5" font-family="Helvetica,sans-Serif" font-size="10.00">hpd_device_set_attrs</text>
</a>
</g>
</g>
<!-- Node10&#45;&gt;Node11 -->
<g id="edge10" class="edge"><title>Node10&#45;&gt;Node11</title>
<path fill="none" stroke="midnightblue" d="M522.672,-344C538.156,-344 554.527,-344 569.472,-344"/>
<polygon fill="midnightblue" stroke="midnightblue" points="522.65,-340.5 512.65,-344 522.65,-347.5 522.65,-340.5"/>
</g>
<!-- Node13 -->
<g id="node13" class="node"><title>Node13</title>
<g id="a_node13"><a xlink:href="a00013.html#abfc239c18fce4bcc601e14074ddfabf8" target="_top" xlink:title="[create_service] ">
<polygon fill="none" stroke="black" points="556,-293.5 556,-312.5 693,-312.5 693,-293.5 556,-293.5"/>
<text text-anchor="middle" x="624.5" y="-300.5" font-family="Helvetica,sans-Serif" font-size="10.00">demo_adapter_create_lamp</text>
</a>
</g>
</g>
<!-- Node12&#45;&gt;Node13 -->
<g id="edge12" class="edge"><title>Node12&#45;&gt;Node13</title>
<path fill="none" stroke="midnightblue" d="M519.295,-301.111C531.222,-301.327 543.788,-301.555 555.905,-301.775"/>
<polygon fill="midnightblue" stroke="midnightblue" points="519.068,-297.606 509.006,-300.925 518.941,-304.605 519.068,-297.606"/>
</g>
<!-- Node13&#45;&gt;Node8 -->
<g id="edge13" class="edge"><title>Node13&#45;&gt;Node8</title>
<path fill="none" stroke="midnightblue" d="M670.594,-315.248C696.458,-322.272 728.444,-330.96 752.417,-337.471"/>
<polygon fill="midnightblue" stroke="midnightblue" points="671.219,-311.791 660.652,-312.547 669.385,-318.546 671.219,-311.791"/>
</g>
<!-- Node15 -->
<g id="node15" class="node"><title>Node15</title>
<g id="a_node15"><a xlink:href="a00020.html#a39fdda2b73169dd093a0009131f256bd" target="_top" xlink:title="discovery_set_service\l_attrs_v">
<polygon fill="none" stroke="black" points="400,-241 400,-271 514,-271 514,-241 400,-241"/>
<text text-anchor="start" x="408" y="-259" font-family="Helvetica,sans-Serif" font-size="10.00">discovery_set_service</text>
<text text-anchor="middle" x="457" y="-248" font-family="Helvetica,sans-Serif" font-size="10.00">_attrs_v</text>
</a>
</g>
</g>
<!-- Node14&#45;&gt;Node15 -->
<g id="edge15" class="edge"><title>Node14&#45;&gt;Node15</title>
<path fill="none" stroke="midnightblue" d="M362.283,-243.872C374.936,-245.509 387.849,-247.18 399.885,-248.738"/>
<polygon fill="midnightblue" stroke="midnightblue" points="362.58,-240.381 352.213,-242.569 361.681,-247.323 362.58,-240.381"/>
</g>
<!-- Node17 -->
<g id="node17" class="node"><title>Node17</title>
<g id="a_node17"><a xlink:href="a00079.html#ad7f06997cb2f69f3decb671a16d2bdb6" target="_top" xlink:title="hpd_service_set_attr">
<polygon fill="none" stroke="black" points="403.5,-202.5 403.5,-221.5 510.5,-221.5 510.5,-202.5 403.5,-202.5"/>
<text text-anchor="middle" x="457" y="-209.5" font-family="Helvetica,sans-Serif" font-size="10.00">hpd_service_set_attr</text>
</a>
</g>
</g>
<!-- Node14&#45;&gt;Node17 -->
<g id="edge17" class="edge"><title>Node14&#45;&gt;Node17</title>
<path fill="none" stroke="midnightblue" d="M362.254,-224.132C376.149,-222.334 390.36,-220.495 403.379,-218.81"/>
<polygon fill="midnightblue" stroke="midnightblue" points="361.681,-220.677 352.213,-225.431 362.58,-227.619 361.681,-220.677"/>
</g>
<!-- Node16 -->
<g id="node16" class="node"><title>Node16</title>
<g id="a_node16"><a xlink:href="a00079.html#a436b38305c5c560b7c2d78285ac7e27c" target="_top" xlink:title="hpd_service_set_attrs">
<polygon fill="none" stroke="black" points="568,-246.5 568,-265.5 681,-265.5 681,-246.5 568,-246.5"/>
<text text-anchor="middle" x="624.5" y="-253.5" font-family="Helvetica,sans-Serif" font-size="10.00">hpd_service_set_attrs</text>
</a>
</g>
</g>
<!-- Node15&#45;&gt;Node16 -->
<g id="edge16" class="edge"><title>Node15&#45;&gt;Node16</title>
<path fill="none" stroke="midnightblue" d="M524.37,-256C538.774,-256 553.867,-256 567.808,-256"/>
<polygon fill="midnightblue" stroke="midnightblue" points="524.031,-252.5 514.031,-256 524.031,-259.5 524.031,-252.5"/>
</g>
<!-- Node19 -->
<g id="node19" class="node"><title>Node19</title>
<g id="a_node19"><a xlink:href="a00020.html#a87107b433afd7833f396b6a390751a08" target="_top" xlink:title="discovery_set_parameter\l_attrs_v">
<polygon fill="none" stroke="black" points="394,-153 394,-183 520,-183 520,-153 394,-153"/>
<text text-anchor="start" x="402" y="-171" font-family="Helvetica,sans-Serif" font-size="10.00">discovery_set_parameter</text>
<text text-anchor="middle" x="457" y="-160" font-family="Helvetica,sans-Serif" font-size="10.00">_attrs_v</text>
</a>
</g>
</g>
<!-- Node18&#45;&gt;Node19 -->
<g id="edge19" class="edge"><title>Node18&#45;&gt;Node19</title>
<path fill="none" stroke="midnightblue" d="M368.158,-168C376.763,-168 385.407,-168 393.737,-168"/>
<polygon fill="midnightblue" stroke="midnightblue" points="368.095,-164.5 358.095,-168 368.095,-171.5 368.095,-164.5"/>
</g>
<!-- Node21 -->
<g id="node21" class="node"><title>Node21</title>
<g id="a_node21"><a xlink:href="a00079.html#ac80954392c6e6b03259a057603784b9b" target="_top" xlink:title="hpd_parameter_set_attr">
<polygon fill="none" stroke="black" points="397.5,-114.5 397.5,-133.5 516.5,-133.5 516.5,-114.5 397.5,-114.5"/>
<text text-anchor="middle" x="457" y="-121.5" font-family="Helvetica,sans-Serif" font-size="10.00">hpd_parameter_set_attr</text>
</a>
</g>
</g>
<!-- Node18&#45;&gt;Node21 -->
<g id="edge21" class="edge"><title>Node18&#45;&gt;Node21</title>
<path fill="none" stroke="midnightblue" d="M332.602,-155.938C359.867,-148.882 393.805,-140.098 419.185,-133.529"/>
<polygon fill="midnightblue" stroke="midnightblue" points="331.691,-152.559 322.887,-158.453 333.445,-159.335 331.691,-152.559"/>
</g>
<!-- Node20 -->
<g id="node20" class="node"><title>Node20</title>
<g id="a_node20"><a xlink:href="a00079.html#a386bb8668e01dfbc4a11b3c3d65eb92a" target="_top" xlink:title="hpd_parameter_set_attrs">
<polygon fill="none" stroke="black" points="562,-158.5 562,-177.5 687,-177.5 687,-158.5 562,-158.5"/>
<text text-anchor="middle" x="624.5" y="-165.5" font-family="Helvetica,sans-Serif" font-size="10.00">hpd_parameter_set_attrs</text>
</a>
</g>
</g>
<!-- Node19&#45;&gt;Node20 -->
<g id="edge20" class="edge"><title>Node19&#45;&gt;Node20</title>
<path fill="none" stroke="midnightblue" d="M530.145,-168C540.724,-168 551.538,-168 561.88,-168"/>
<polygon fill="midnightblue" stroke="midnightblue" points="530.097,-164.5 520.097,-168 530.097,-171.5 530.097,-164.5"/>
</g>
<!-- Node23 -->
<g id="node23" class="node"><title>Node23</title>
<g id="a_node23"><a xlink:href="a00091.html#acb46c0254b5e6856197be334a0a058ad" target="_top" xlink:title="value_copy">
<polygon fill="none" stroke="black" points="424,-76.5 424,-95.5 490,-95.5 490,-76.5 424,-76.5"/>
<text text-anchor="middle" x="457" y="-83.5" font-family="Helvetica,sans-Serif" font-size="10.00">value_copy</text>
</a>
</g>
</g>
<!-- Node22&#45;&gt;Node23 -->
<g id="edge23" class="edge"><title>Node22&#45;&gt;Node23</title>
<path fill="none" stroke="midnightblue" d="M341.728,-73.2285C368.921,-76.2676 400.666,-79.8157 423.787,-82.3997"/>
<polygon fill="midnightblue" stroke="midnightblue" points="341.884,-69.7241 331.557,-72.0917 341.106,-76.6808 341.884,-69.7241"/>
</g>
<!-- Node25 -->
<g id="node25" class="node"><title>Node25</title>
<g id="a_node25"><a xlink:href="a00091.html#a0d75ed4c4f2374d031c908cf626dcf4a" target="_top" xlink:title="value_set_headers_v">
<polygon fill="none" stroke="black" points="402.5,-38.5 402.5,-57.5 511.5,-57.5 511.5,-38.5 402.5,-38.5"/>
<text text-anchor="middle" x="457" y="-45.5" font-family="Helvetica,sans-Serif" font-size="10.00">value_set_headers_v</text>
</a>
</g>
</g>
<!-- Node22&#45;&gt;Node25 -->
<g id="edge25" class="edge"><title>Node22&#45;&gt;Node25</title>
<path fill="none" stroke="midnightblue" d="M341.549,-60.7916C361.12,-58.6042 383.068,-56.1512 402.47,-53.9828"/>
<polygon fill="midnightblue" stroke="midnightblue" points="341.106,-57.3192 331.557,-61.9083 341.884,-64.2759 341.106,-57.3192"/>
</g>
<!-- Node27 -->
<g id="node27" class="node"><title>Node27</title>
<g id="a_node27"><a xlink:href="a00092.html#a75b6ef13b716e7b51a4a24b0df588e33" target="_top" xlink:title="hpd_value_set_header">
<polygon fill="none" stroke="black" points="400,-0.5 400,-19.5 514,-19.5 514,-0.5 400,-0.5"/>
<text text-anchor="middle" x="457" y="-7.5" font-family="Helvetica,sans-Serif" font-size="10.00">hpd_value_set_header</text>
</a>
</g>
</g>
<!-- Node22&#45;&gt;Node27 -->
<g id="edge27" class="edge"><title>Node22&#45;&gt;Node27</title>
<path fill="none" stroke="midnightblue" d="M321.566,-54.074C342.567,-46.5446 369.713,-36.9903 394,-29 403.732,-25.7983 414.379,-22.472 424.061,-19.5143"/>
<polygon fill="midnightblue" stroke="midnightblue" points="320.31,-50.8059 312.086,-57.4847 322.68,-57.3925 320.31,-50.8059"/>
</g>
<!-- Node24 -->
<g id="node24" class="node"><title>Node24</title>
<g id="a_node24"><a xlink:href="a00092.html#a8b5be61f356ac1d72634654e16794610" target="_top" xlink:title="hpd_value_copy">
<polygon fill="none" stroke="black" points="581,-76.5 581,-95.5 668,-95.5 668,-76.5 581,-76.5"/>
<text text-anchor="middle" x="624.5" y="-83.5" font-family="Helvetica,sans-Serif" font-size="10.00">hpd_value_copy</text>
</a>
</g>
</g>
<!-- Node23&#45;&gt;Node24 -->
<g id="edge24" class="edge"><title>Node23&#45;&gt;Node24</title>
<path fill="none" stroke="midnightblue" d="M500.466,-86C525.169,-86 556.209,-86 580.931,-86"/>
<polygon fill="midnightblue" stroke="midnightblue" points="500.303,-82.5001 490.303,-86 500.303,-89.5001 500.303,-82.5001"/>
</g>
<!-- Node26 -->
<g id="node26" class="node"><title>Node26</title>
<g id="a_node26"><a xlink:href="a00092.html#a2611edcf1f90741780c5160a1e2d622e" target="_top" xlink:title="hpd_value_set_headers">
<polygon fill="none" stroke="black" points="565,-38.5 565,-57.5 684,-57.5 684,-38.5 565,-38.5"/>
<text text-anchor="middle" x="624.5" y="-45.5" font-family="Helvetica,sans-Serif" font-size="10.00">hpd_value_set_headers</text>
</a>
</g>
</g>
<!-- Node25&#45;&gt;Node26 -->
<g id="edge26" class="edge"><title>Node25&#45;&gt;Node26</title>
<path fill="none" stroke="midnightblue" d="M521.876,-48C536.03,-48 550.961,-48 564.893,-48"/>
<polygon fill="midnightblue" stroke="midnightblue" points="521.733,-44.5001 511.733,-48 521.733,-51.5001 521.733,-44.5001"/>
</g>
</g>
</svg>
