<?xml version="1.0" encoding="UTF-8" standalone="no"?>
<!DOCTYPE svg PUBLIC "-//W3C//DTD SVG 1.1//EN"
 "http://www.w3.org/Graphics/SVG/1.1/DTD/svg11.dtd">
<!-- Generated by graphviz version 2.38.0 (20140413.2041)
 -->
<!-- Title: hpd_service_get_adapter Pages: 1 -->
<svg width="1569pt" height="28pt"
 viewBox="0.00 0.00 1569.00 28.00" xmlns="http://www.w3.org/2000/svg" xmlns:xlink="http://www.w3.org/1999/xlink">
<g id="graph0" class="graph" transform="scale(1 1) rotate(0) translate(4 24)">
<title>hpd_service_get_adapter</title>
<!-- Node1 -->
<g id="node1" class="node"><title>Node1</title>
<polygon fill="#bfbfbf" stroke="black" points="0,-0.5 0,-19.5 125,-19.5 125,-0.5 0,-0.5"/>
<text text-anchor="middle" x="62.5" y="-7.5" font-family="Helvetica,sans-Serif" font-size="10.00">hpd_service_get_adapter</text>
</g>
<!-- Node2 -->
<g id="node2" class="node"><title>Node2</title>
<g id="a_node2"><a xlink:href="a00079.html#ae30c92f3bb2ebffcbb82054ad60c1ac5" target="_top" xlink:title="hpd_rest_url_create">
<polygon fill="none" stroke="black" points="161,-0.5 161,-19.5 263,-19.5 263,-0.5 161,-0.5"/>
<text text-anchor="middle" x="212" y="-7.5" font-family="Helvetica,sans-Serif" font-size="10.00">hpd_rest_url_create</text>
</a>
</g>
</g>
<!-- Node1&#45;&gt;Node2 -->
<g id="edge1" class="edge"><title>Node1&#45;&gt;Node2</title>
<path fill="none" stroke="midnightblue" d="M135.263,-10C143.874,-10 152.522,-10 160.735,-10"/>
<polygon fill="midnightblue" stroke="midnightblue" points="135.199,-6.5001 125.199,-10 135.199,-13.5001 135.199,-6.5001"/>
</g>
<!-- Node3 -->
<g id="node3" class="node"><title>Node3</title>
<g id="a_node3"><a xlink:href="a00080.html#aa3eb7c0c809c6c24396cb9321b6b57dc" target="_top" xlink:title="add_service">
<polygon fill="none" stroke="black" points="299,-0.5 299,-19.5 368,-19.5 368,-0.5 299,-0.5"/>
<text text-anchor="middle" x="333.5" y="-7.5" font-family="Helvetica,sans-Serif" font-size="10.00">add_service</text>
</a>
</g>
</g>
<!-- Node2&#45;&gt;Node3 -->
<g id="edge2" class="edge"><title>Node2&#45;&gt;Node3</title>
<path fill="none" stroke="midnightblue" d="M273.529,-10C282.245,-10 290.938,-10 298.867,-10"/>
<polygon fill="midnightblue" stroke="midnightblue" points="273.332,-6.5001 263.332,-10 273.332,-13.5001 273.332,-6.5001"/>
</g>
<!-- Node4 -->
<g id="node4" class="node"><title>Node4</title>
<g id="a_node4"><a xlink:href="a00080.html#a2e3a16674e810068b936c145267184bb" target="_top" xlink:title="add_services">
<polygon fill="none" stroke="black" points="404,-0.5 404,-19.5 478,-19.5 478,-0.5 404,-0.5"/>
<text text-anchor="middle" x="441" y="-7.5" font-family="Helvetica,sans-Serif" font-size="10.00">add_services</text>
</a>
</g>
</g>
<!-- Node3&#45;&gt;Node4 -->
<g id="edge3" class="edge"><title>Node3&#45;&gt;Node4</title>
<path fill="none" stroke="midnightblue" d="M378.282,-10C386.75,-10 395.536,-10 403.732,-10"/>
<polygon fill="midnightblue" stroke="midnightblue" points="378.171,-6.5001 368.171,-10 378.171,-13.5001 378.171,-6.5001"/>
</g>
<!-- Node5 -->
<g id="node5" class="node"><title>Node5</title>
<g id="a_node5"><a xlink:href="a00080.html#a57ebcecdb1a111267049578c1d9c51de" target="_top" xlink:title="add_device">
<polygon fill="none" stroke="black" points="514,-0.5 514,-19.5 580,-19.5 580,-0.5 514,-0.5"/>
<text text-anchor="middle" x="547" y="-7.5" font-family="Helvetica,sans-Serif" font-size="10.00">add_device</text>
</a>
</g>
</g>
<!-- Node4&#45;&gt;Node5 -->
<g id="edge4" class="edge"><title>Node4&#45;&gt;Node5</title>
<path fill="none" stroke="midnightblue" d="M488.103,-10C496.776,-10 505.67,-10 513.805,-10"/>
<polygon fill="midnightblue" stroke="midnightblue" points="488.082,-6.5001 478.082,-10 488.082,-13.5001 488.082,-6.5001"/>
</g>
<!-- Node6 -->
<g id="node6" class="node"><title>Node6</title>
<g id="a_node6"><a xlink:href="a00080.html#a4028efc20daa3dbda3727bcb6fdd0635" target="_top" xlink:title="add_devices">
<polygon fill="none" stroke="black" points="616,-0.5 616,-19.5 687,-19.5 687,-0.5 616,-0.5"/>
<text text-anchor="middle" x="651.5" y="-7.5" font-family="Helvetica,sans-Serif" font-size="10.00">add_devices</text>
</a>
</g>
</g>
<!-- Node5&#45;&gt;Node6 -->
<g id="edge5" class="edge"><title>Node5&#45;&gt;Node6</title>
<path fill="none" stroke="midnightblue" d="M590.329,-10C598.867,-10 607.746,-10 615.978,-10"/>
<polygon fill="midnightblue" stroke="midnightblue" points="590.15,-6.5001 580.15,-10 590.15,-13.5001 590.15,-6.5001"/>
</g>
<!-- Node7 -->
<g id="node7" class="node"><title>Node7</title>
<g id="a_node7"><a xlink:href="a00080.html#aa21890dddb121282884859a2c8bfd134" target="_top" xlink:title="add_adapter">
<polygon fill="none" stroke="black" points="723,-0.5 723,-19.5 793,-19.5 793,-0.5 723,-0.5"/>
<text text-anchor="middle" x="758" y="-7.5" font-family="Helvetica,sans-Serif" font-size="10.00">add_adapter</text>
</a>
</g>
</g>
<!-- Node6&#45;&gt;Node7 -->
<g id="edge6" class="edge"><title>Node6&#45;&gt;Node7</title>
<path fill="none" stroke="midnightblue" d="M697.273,-10C705.853,-10 714.707,-10 722.886,-10"/>
<polygon fill="midnightblue" stroke="midnightblue" points="697.007,-6.5001 687.007,-10 697.007,-13.5001 697.007,-6.5001"/>
</g>
<!-- Node8 -->
<g id="node8" class="node"><title>Node8</title>
<g id="a_node8"><a xlink:href="a00080.html#a9a90e4e11e2111c0d0b29f277b1d24c4" target="_top" xlink:title="add_adapters">
<polygon fill="none" stroke="black" points="829,-0.5 829,-19.5 904,-19.5 904,-0.5 829,-0.5"/>
<text text-anchor="middle" x="866.5" y="-7.5" font-family="Helvetica,sans-Serif" font-size="10.00">add_adapters</text>
</a>
</g>
</g>
<!-- Node7&#45;&gt;Node8 -->
<g id="edge7" class="edge"><title>Node7&#45;&gt;Node8</title>
<path fill="none" stroke="midnightblue" d="M803.362,-10C811.797,-10 820.538,-10 828.707,-10"/>
<polygon fill="midnightblue" stroke="midnightblue" points="803.284,-6.5001 793.283,-10 803.283,-13.5001 803.284,-6.5001"/>
</g>
<!-- Node9 -->
<g id="node9" class="node"><title>Node9</title>
<g id="a_node9"><a xlink:href="a00080.html#ab8e279d4c33ab258d7118b3e2f28400e" target="_top" xlink:title="add_configuration">
<polygon fill="none" stroke="black" points="940,-0.5 940,-19.5 1033,-19.5 1033,-0.5 940,-0.5"/>
<text text-anchor="middle" x="986.5" y="-7.5" font-family="Helvetica,sans-Serif" font-size="10.00">add_configuration</text>
</a>
</g>
</g>
<!-- Node8&#45;&gt;Node9 -->
<g id="edge8" class="edge"><title>Node8&#45;&gt;Node9</title>
<path fill="none" stroke="midnightblue" d="M914.197,-10C922.582,-10 931.315,-10 939.675,-10"/>
<polygon fill="midnightblue" stroke="midnightblue" points="914.189,-6.5001 904.189,-10 914.189,-13.5001 914.189,-6.5001"/>
</g>
<!-- Node10 -->
<g id="node10" class="node"><title>Node10</title>
<g id="a_node10"><a xlink:href="a00081.html#a0f69305250a2916043c87e8e3865b28d" target="_top" xlink:title="hpd_rest_json_get_configuration">
<polygon fill="none" stroke="black" points="1069,-0.5 1069,-19.5 1226,-19.5 1226,-0.5 1069,-0.5"/>
<text text-anchor="middle" x="1147.5" y="-7.5" font-family="Helvetica,sans-Serif" font-size="10.00">hpd_rest_json_get_configuration</text>
</a>
</g>
</g>
<!-- Node9&#45;&gt;Node10 -->
<g id="edge9" class="edge"><title>Node9&#45;&gt;Node10</title>
<path fill="none" stroke="midnightblue" d="M1043.3,-10C1051.56,-10 1060.19,-10 1068.8,-10"/>
<polygon fill="midnightblue" stroke="midnightblue" points="1043.06,-6.5001 1033.06,-10 1043.06,-13.5001 1043.06,-6.5001"/>
</g>
<!-- Node11 -->
<g id="node11" class="node"><title>Node11</title>
<g id="a_node11"><a xlink:href="a00025.html#a144860c2e3dfe3d8d9fd021968bbd8ff" target="_top" xlink:title="reply_devices">
<polygon fill="none" stroke="black" points="1262,-0.5 1262,-19.5 1339,-19.5 1339,-0.5 1262,-0.5"/>
<text text-anchor="middle" x="1300.5" y="-7.5" font-family="Helvetica,sans-Serif" font-size="10.00">reply_devices</text>
</a>
</g>
</g>
<!-- Node10&#45;&gt;Node11 -->
<g id="edge10" class="edge"><title>Node10&#45;&gt;Node11</title>
<path fill="none" stroke="midnightblue" d="M1236.36,-10C1245.29,-10 1253.98,-10 1261.91,-10"/>
<polygon fill="midnightblue" stroke="midnightblue" points="1236.21,-6.5001 1226.21,-10 1236.21,-13.5001 1236.21,-6.5001"/>
</g>
<!-- Node12 -->
<g id="node12" class="node"><title>Node12</title>
<g id="a_node12"><a xlink:href="a00025.html#abd6f4422cb70766aae33a18dc6b6cb74" target="_top" xlink:title="on_req_hdr_cmpl">
<polygon fill="none" stroke="black" points="1375,-0.5 1375,-19.5 1466,-19.5 1466,-0.5 1375,-0.5"/>
<text text-anchor="middle" x="1420.5" y="-7.5" font-family="Helvetica,sans-Serif" font-size="10.00">on_req_hdr_cmpl</text>
</a>
</g>
</g>
<!-- Node11&#45;&gt;Node12 -->
<g id="edge11" class="edge"><title>Node11&#45;&gt;Node12</title>
<path fill="none" stroke="midnightblue" d="M1349.24,-10C1357.68,-10 1366.43,-10 1374.78,-10"/>
<polygon fill="midnightblue" stroke="midnightblue" points="1349.16,-6.5001 1339.16,-10 1349.16,-13.5001 1349.16,-6.5001"/>
</g>
<!-- Node13 -->
<g id="node13" class="node"><title>Node13</title>
<g id="a_node13"><a xlink:href="a00025.html#ad079431c7eba97c5dd5e4e202cdf6102" target="_top" xlink:title="on_create">
<polygon fill="none" stroke="black" points="1502,-0.5 1502,-19.5 1561,-19.5 1561,-0.5 1502,-0.5"/>
<text text-anchor="middle" x="1531.5" y="-7.5" font-family="Helvetica,sans-Serif" font-size="10.00">on_create</text>
</a>
</g>
</g>
<!-- Node12&#45;&gt;Node13 -->
<g id="edge12" class="edge"><title>Node12&#45;&gt;Node13</title>
<path fill="none" stroke="midnightblue" d="M1476.18,-10C1485.11,-10 1494.04,-10 1502,-10"/>
<polygon fill="midnightblue" stroke="midnightblue" points="1476.15,-6.5001 1466.15,-10 1476.15,-13.5001 1476.15,-6.5001"/>
</g>
</g>
</svg>
