<?xml version="1.0" encoding="UTF-8" standalone="no"?>
<!DOCTYPE svg PUBLIC "-//W3C//DTD SVG 1.1//EN"
 "http://www.w3.org/Graphics/SVG/1.1/DTD/svg11.dtd">
<!-- Generated by graphviz version 2.38.0 (20140413.2041)
 -->
<!-- Title: hpd_adapter_next_service Pages: 1 -->
<svg width="557pt" height="154pt"
 viewBox="0.00 0.00 557.00 154.00" xmlns="http://www.w3.org/2000/svg" xmlns:xlink="http://www.w3.org/1999/xlink">
<g id="graph0" class="graph" transform="scale(1 1) rotate(0) translate(4 150)">
<title>hpd_adapter_next_service</title>
<!-- Node1 -->
<g id="node1" class="node"><title>Node1</title>
<polygon fill="#bfbfbf" stroke="black" points="0,-60.5 0,-79.5 131,-79.5 131,-60.5 0,-60.5"/>
<text text-anchor="middle" x="65.5" y="-67.5" font-family="Helvetica,sans-Serif" font-size="10.00">hpd_adapter_next_service</text>
</g>
<!-- Node2 -->
<g id="node2" class="node"><title>Node2</title>
<g id="a_node2"><a xlink:href="a00011.html#a0a2ab1d55e44c5a4488fed87c0fbc508" target="_top" xlink:title="discovery_find_service">
<polygon fill="none" stroke="black" points="169,-126.5 169,-145.5 285,-145.5 285,-126.5 169,-126.5"/>
<text text-anchor="middle" x="227" y="-133.5" font-family="Helvetica,sans-Serif" font-size="10.00">discovery_find_service</text>
</a>
</g>
</g>
<!-- Node1&#45;&gt;Node2 -->
<g id="edge1" class="edge"><title>Node1&#45;&gt;Node2</title>
<path fill="none" stroke="midnightblue" d="M85.0844,-79.5544C105.026,-89.6012 137.78,-105.515 167,-117 172.518,-119.169 178.393,-121.284 184.217,-123.268"/>
<polygon fill="midnightblue" stroke="midnightblue" points="183.303,-126.653 193.896,-126.471 185.502,-120.007 183.303,-126.653"/>
</g>
<!-- Node3 -->
<g id="node3" class="node"><title>Node3</title>
<g id="a_node3"><a xlink:href="a00059.html#ab53839cfc2584d6152b60ae183b5087a" target="_top" xlink:title="discovery_next_adapter\l_service">
<polygon fill="none" stroke="black" points="167,-77 167,-107 287,-107 287,-77 167,-77"/>
<text text-anchor="start" x="175" y="-95" font-family="Helvetica,sans-Serif" font-size="10.00">discovery_next_adapter</text>
<text text-anchor="middle" x="227" y="-84" font-family="Helvetica,sans-Serif" font-size="10.00">_service</text>
</a>
</g>
</g>
<!-- Node1&#45;&gt;Node3 -->
<g id="edge2" class="edge"><title>Node1&#45;&gt;Node3</title>
<path fill="none" stroke="midnightblue" d="M131.375,-78.9482C139.714,-80.0984 148.278,-81.2797 156.684,-82.4392"/>
<polygon fill="midnightblue" stroke="midnightblue" points="156.45,-85.94 166.835,-83.8393 157.407,-79.0056 156.45,-85.94"/>
</g>
<!-- Node4 -->
<g id="node4" class="node"><title>Node4</title>
<g id="a_node4"><a xlink:href="a00011.html#a8922de7d42124afa8ab5fd339fe695ee" target="_top" xlink:title="discovery_free_sid">
<polygon fill="none" stroke="black" points="178,-38.5 178,-57.5 276,-57.5 276,-38.5 178,-38.5"/>
<text text-anchor="middle" x="227" y="-45.5" font-family="Helvetica,sans-Serif" font-size="10.00">discovery_free_sid</text>
</a>
</g>
</g>
<!-- Node1&#45;&gt;Node4 -->
<g id="edge3" class="edge"><title>Node1&#45;&gt;Node4</title>
<path fill="none" stroke="midnightblue" d="M131.375,-61.0518C143.382,-59.3956 155.856,-57.6751 167.654,-56.0477"/>
<polygon fill="midnightblue" stroke="midnightblue" points="168.392,-59.4791 177.82,-54.6455 167.436,-52.5448 168.392,-59.4791"/>
</g>
<!-- Node6 -->
<g id="node6" class="node"><title>Node6</title>
<g id="a_node6"><a xlink:href="a00011.html#a9788f216196637a4e9c0a0110e81bab1" target="_top" xlink:title="discovery_set_sid">
<polygon fill="none" stroke="black" points="179.5,-0.5 179.5,-19.5 274.5,-19.5 274.5,-0.5 179.5,-0.5"/>
<text text-anchor="middle" x="227" y="-7.5" font-family="Helvetica,sans-Serif" font-size="10.00">discovery_set_sid</text>
</a>
</g>
</g>
<!-- Node1&#45;&gt;Node6 -->
<g id="edge5" class="edge"><title>Node1&#45;&gt;Node6</title>
<path fill="none" stroke="midnightblue" d="M88.6645,-60.3922C108.904,-51.7545 139.734,-38.9358 167,-29 172.905,-26.8481 179.187,-24.6891 185.366,-22.6383"/>
<polygon fill="midnightblue" stroke="midnightblue" points="186.501,-25.9497 194.923,-19.5212 184.33,-19.2947 186.501,-25.9497"/>
</g>
<!-- Node5 -->
<g id="node5" class="node"><title>Node5</title>
<g id="a_node5"><a xlink:href="a00006.html#adf46370d9c211c3be22966b4606ba9b0" target="_top" xlink:title="free">
<polygon fill="none" stroke="black" points="354,-38.5 354,-57.5 387,-57.5 387,-38.5 354,-38.5"/>
<text text-anchor="middle" x="370.5" y="-45.5" font-family="Helvetica,sans-Serif" font-size="10.00">free</text>
</a>
</g>
</g>
<!-- Node4&#45;&gt;Node5 -->
<g id="edge4" class="edge"><title>Node4&#45;&gt;Node5</title>
<path fill="none" stroke="midnightblue" d="M276.301,-48C298.922,-48 324.959,-48 343.752,-48"/>
<polygon fill="midnightblue" stroke="midnightblue" points="343.9,-51.5001 353.9,-48 343.9,-44.5001 343.9,-51.5001"/>
</g>
<!-- Node7 -->
<g id="node7" class="node"><title>Node7</title>
<g id="a_node7"><a xlink:href="a00061.html#acd5e8c2bf3e761abc7e2fd2294238a74" target="_top" xlink:title="discovery_set_did">
<polygon fill="none" stroke="black" points="323,-0.5 323,-19.5 418,-19.5 418,-0.5 323,-0.5"/>
<text text-anchor="middle" x="370.5" y="-7.5" font-family="Helvetica,sans-Serif" font-size="10.00">discovery_set_did</text>
</a>
</g>
</g>
<!-- Node6&#45;&gt;Node7 -->
<g id="edge6" class="edge"><title>Node6&#45;&gt;Node7</title>
<path fill="none" stroke="midnightblue" d="M274.725,-10C286.799,-10 299.934,-10 312.471,-10"/>
<polygon fill="midnightblue" stroke="midnightblue" points="312.825,-13.5001 322.825,-10 312.824,-6.5001 312.825,-13.5001"/>
</g>
<!-- Node8 -->
<g id="node8" class="node"><title>Node8</title>
<g id="a_node8"><a xlink:href="a00061.html#af2f553cfc3af4678b87a8fc75f35a5c6" target="_top" xlink:title="discovery_set_aid">
<polygon fill="none" stroke="black" points="454,-0.5 454,-19.5 549,-19.5 549,-0.5 454,-0.5"/>
<text text-anchor="middle" x="501.5" y="-7.5" font-family="Helvetica,sans-Serif" font-size="10.00">discovery_set_aid</text>
</a>
</g>
</g>
<!-- Node7&#45;&gt;Node8 -->
<g id="edge7" class="edge"><title>Node7&#45;&gt;Node8</title>
<path fill="none" stroke="midnightblue" d="M418.072,-10C426.475,-10 435.319,-10 443.969,-10"/>
<polygon fill="midnightblue" stroke="midnightblue" points="443.996,-13.5001 453.996,-10 443.996,-6.5001 443.996,-13.5001"/>
</g>
</g>
</svg>
