<?xml version="1.0" encoding="UTF-8" standalone="no"?>
<!DOCTYPE svg PUBLIC "-//W3C//DTD SVG 1.1//EN"
 "http://www.w3.org/Graphics/SVG/1.1/DTD/svg11.dtd">
<!-- Generated by graphviz version 2.38.0 (20140413.2041)
 -->
<!-- Title: hpd_rest_xml_get_value Pages: 1 -->
<svg width="720pt" height="47pt"
 viewBox="0.00 0.00 720.00 47.00" xmlns="http://www.w3.org/2000/svg" xmlns:xlink="http://www.w3.org/1999/xlink">
<g id="graph0" class="graph" transform="scale(1 1) rotate(0) translate(4 43)">
<title>hpd_rest_xml_get_value</title>
<!-- Node1 -->
<g id="node1" class="node"><title>Node1</title>
<polygon fill="#bfbfbf" stroke="black" points="0,-0.5 0,-19.5 122,-19.5 122,-0.5 0,-0.5"/>
<text text-anchor="middle" x="61" y="-7.5" font-family="Helvetica,sans-Serif" font-size="10.00">hpd_rest_xml_get_value</text>
</g>
<!-- Node2 -->
<g id="node2" class="node"><title>Node2</title>
<g id="a_node2"><a xlink:href="a00025.html#abccd0d79ed3acf405337a07b4572d223" target="_top" xlink:title="on_response">
<polygon fill="none" stroke="black" points="158,-0.5 158,-19.5 230,-19.5 230,-0.5 158,-0.5"/>
<text text-anchor="middle" x="194" y="-7.5" font-family="Helvetica,sans-Serif" font-size="10.00">on_response</text>
</a>
</g>
</g>
<!-- Node1&#45;&gt;Node2 -->
<g id="edge1" class="edge"><title>Node1&#45;&gt;Node2</title>
<path fill="none" stroke="midnightblue" d="M132.195,-10C141.096,-10 149.88,-10 157.886,-10"/>
<polygon fill="midnightblue" stroke="midnightblue" points="132.132,-6.5001 122.132,-10 132.132,-13.5001 132.132,-6.5001"/>
</g>
<!-- Node3 -->
<g id="node3" class="node"><title>Node3</title>
<g id="a_node3"><a xlink:href="a00073.html#afaa1866a860b3fe73641de3548d66f66" target="_top" xlink:title="request_alloc_request">
<polygon fill="none" stroke="black" points="266,-19.5 266,-38.5 378,-38.5 378,-19.5 266,-19.5"/>
<text text-anchor="middle" x="322" y="-26.5" font-family="Helvetica,sans-Serif" font-size="10.00">request_alloc_request</text>
</a>
</g>
</g>
<!-- Node2&#45;&gt;Node3 -->
<g id="edge2" class="edge"><title>Node2&#45;&gt;Node3</title>
<path fill="none" stroke="midnightblue" d="M240.013,-16.7877C248.365,-18.0471 257.177,-19.3759 265.792,-20.675"/>
<polygon fill="midnightblue" stroke="midnightblue" points="240.508,-13.3228 230.098,-15.2926 239.464,-20.2446 240.508,-13.3228"/>
</g>
<!-- Node5 -->
<g id="node5" class="node"><title>Node5</title>
<g id="a_node5"><a xlink:href="a00025.html#a74ba52adbe4c46e9a9c33649e3b75243" target="_top" xlink:title="on_req_cmpl">
<polygon fill="none" stroke="black" points="545,-0.5 545,-19.5 617,-19.5 617,-0.5 545,-0.5"/>
<text text-anchor="middle" x="581" y="-7.5" font-family="Helvetica,sans-Serif" font-size="10.00">on_req_cmpl</text>
</a>
</g>
</g>
<!-- Node2&#45;&gt;Node5 -->
<g id="edge6" class="edge"><title>Node2&#45;&gt;Node5</title>
<path fill="none" stroke="midnightblue" d="M240.613,-10C318.325,-10 474.768,-10 544.756,-10"/>
<polygon fill="midnightblue" stroke="midnightblue" points="240.187,-6.5001 230.187,-10 240.187,-13.5001 240.187,-6.5001"/>
</g>
<!-- Node4 -->
<g id="node4" class="node"><title>Node4</title>
<g id="a_node4"><a xlink:href="a00074.html#aa6d853067ae916b9213cd0c936c201c2" target="_top" xlink:title="[hpd_request_t functions] ">
<polygon fill="none" stroke="black" points="414,-19.5 414,-38.5 509,-38.5 509,-19.5 414,-19.5"/>
<text text-anchor="middle" x="461.5" y="-26.5" font-family="Helvetica,sans-Serif" font-size="10.00">hpd_request_alloc</text>
</a>
</g>
</g>
<!-- Node3&#45;&gt;Node4 -->
<g id="edge3" class="edge"><title>Node3&#45;&gt;Node4</title>
<path fill="none" stroke="midnightblue" d="M388.194,-29C396.821,-29 405.523,-29 413.754,-29"/>
<polygon fill="midnightblue" stroke="midnightblue" points="388.134,-25.5001 378.134,-29 388.134,-32.5001 388.134,-25.5001"/>
</g>
<!-- Node4&#45;&gt;Node5 -->
<g id="edge4" class="edge"><title>Node4&#45;&gt;Node5</title>
<path fill="none" stroke="midnightblue" d="M519.153,-19.8391C527.961,-18.4148 536.833,-16.9803 544.974,-15.6638"/>
<polygon fill="midnightblue" stroke="midnightblue" points="518.59,-16.3846 509.277,-21.4361 519.707,-23.2949 518.59,-16.3846"/>
</g>
<!-- Node6 -->
<g id="node6" class="node"><title>Node6</title>
<g id="a_node6"><a xlink:href="a00025.html#ad079431c7eba97c5dd5e4e202cdf6102" target="_top" xlink:title="on_create">
<polygon fill="none" stroke="black" points="653,-0.5 653,-19.5 712,-19.5 712,-0.5 653,-0.5"/>
<text text-anchor="middle" x="682.5" y="-7.5" font-family="Helvetica,sans-Serif" font-size="10.00">on_create</text>
</a>
</g>
</g>
<!-- Node5&#45;&gt;Node6 -->
<g id="edge5" class="edge"><title>Node5&#45;&gt;Node6</title>
<path fill="none" stroke="midnightblue" d="M627.212,-10C635.974,-10 644.925,-10 652.965,-10"/>
<polygon fill="midnightblue" stroke="midnightblue" points="627.08,-6.5001 617.08,-10 627.08,-13.5001 627.08,-6.5001"/>
</g>
</g>
</svg>
