<?xml version="1.0" encoding="UTF-8" standalone="no"?>
<!DOCTYPE svg PUBLIC "-//W3C//DTD SVG 1.1//EN"
 "http://www.w3.org/Graphics/SVG/1.1/DTD/svg11.dtd">
<!-- Generated by graphviz version 2.38.0 (20140413.2041)
 -->
<!-- Title: hpd_tcpd_create Pages: 1 -->
<svg width="313pt" height="85pt"
 viewBox="0.00 0.00 313.00 85.00" xmlns="http://www.w3.org/2000/svg" xmlns:xlink="http://www.w3.org/1999/xlink">
<g id="graph0" class="graph" transform="scale(1 1) rotate(0) translate(4 81)">
<title>hpd_tcpd_create</title>
<!-- Node1 -->
<g id="node1" class="node"><title>Node1</title>
<polygon fill="#bfbfbf" stroke="black" points="0,-19.5 0,-38.5 89,-38.5 89,-19.5 0,-19.5"/>
<text text-anchor="middle" x="44.5" y="-26.5" font-family="Helvetica,sans-Serif" font-size="10.00">hpd_tcpd_create</text>
</g>
<!-- Node2 -->
<g id="node2" class="node"><title>Node2</title>
<g id="a_node2"><a xlink:href="a00015.html#a8287f77cb41a94d39f282b607616df70" target="_top" xlink:title="Create a new httpd instance. ">
<polygon fill="none" stroke="black" points="125,-38.5 125,-57.5 217,-57.5 217,-38.5 125,-38.5"/>
<text text-anchor="middle" x="171" y="-45.5" font-family="Helvetica,sans-Serif" font-size="10.00">hpd_httpd_create</text>
</a>
</g>
</g>
<!-- Node1&#45;&gt;Node2 -->
<g id="edge1" class="edge"><title>Node1&#45;&gt;Node2</title>
<path fill="none" stroke="midnightblue" d="M98.9303,-37.154C107.474,-38.4579 116.244,-39.7963 124.579,-41.0683"/>
<polygon fill="midnightblue" stroke="midnightblue" points="99.4577,-33.6941 89.0441,-35.6453 98.4016,-40.6139 99.4577,-33.6941"/>
</g>
<!-- Node5 -->
<g id="node5" class="node"><title>Node5</title>
<g id="a_node5"><a xlink:href="a00043.html#a0ddf1224851353fc92bfbff6f499fa97" target="_top" xlink:title="main">
<polygon fill="none" stroke="black" points="152,-0.5 152,-19.5 190,-19.5 190,-0.5 152,-0.5"/>
<text text-anchor="middle" x="171" y="-7.5" font-family="Helvetica,sans-Serif" font-size="10.00">main</text>
</a>
</g>
</g>
<!-- Node1&#45;&gt;Node5 -->
<g id="edge4" class="edge"><title>Node1&#45;&gt;Node5</title>
<path fill="none" stroke="midnightblue" d="M99.1036,-20.8195C118.034,-17.9306 138.052,-14.8756 151.971,-12.7513"/>
<polygon fill="midnightblue" stroke="midnightblue" points="98.4016,-17.3861 89.0441,-22.3547 99.4577,-24.3059 98.4016,-17.3861"/>
</g>
<!-- Node3 -->
<g id="node3" class="node"><title>Node3</title>
<g id="a_node3"><a xlink:href="a00034.html#a0ddf1224851353fc92bfbff6f499fa97" target="_top" xlink:title="main">
<polygon fill="none" stroke="black" points="260,-57.5 260,-76.5 298,-76.5 298,-57.5 260,-57.5"/>
<text text-anchor="middle" x="279" y="-64.5" font-family="Helvetica,sans-Serif" font-size="10.00">main</text>
</a>
</g>
</g>
<!-- Node2&#45;&gt;Node3 -->
<g id="edge2" class="edge"><title>Node2&#45;&gt;Node3</title>
<path fill="none" stroke="midnightblue" d="M227.153,-57.8859C238.951,-60.0006 250.606,-62.0897 259.775,-63.7333"/>
<polygon fill="midnightblue" stroke="midnightblue" points="227.722,-54.4321 217.261,-56.1128 226.487,-61.3223 227.722,-54.4321"/>
</g>
<!-- Node4 -->
<g id="node4" class="node"><title>Node4</title>
<g id="a_node4"><a xlink:href="a00025.html#a665691f420dff4eebb8f4b4af62d7a49" target="_top" xlink:title="on_start">
<polygon fill="none" stroke="black" points="253,-19.5 253,-38.5 305,-38.5 305,-19.5 253,-19.5"/>
<text text-anchor="middle" x="279" y="-26.5" font-family="Helvetica,sans-Serif" font-size="10.00">on_start</text>
</a>
</g>
</g>
<!-- Node2&#45;&gt;Node4 -->
<g id="edge3" class="edge"><title>Node2&#45;&gt;Node4</title>
<path fill="none" stroke="midnightblue" d="M227.302,-38.0874C236.211,-36.4906 245.032,-34.9093 252.758,-33.5246"/>
<polygon fill="midnightblue" stroke="midnightblue" points="226.487,-34.6777 217.261,-39.8872 227.722,-41.5679 226.487,-34.6777"/>
</g>
</g>
</svg>
