<?xml version="1.0" encoding="UTF-8" standalone="no"?>
<!DOCTYPE svg PUBLIC "-//W3C//DTD SVG 1.1//EN"
 "http://www.w3.org/Graphics/SVG/1.1/DTD/svg11.dtd">
<!-- Generated by graphviz version 2.38.0 (20140413.2041)
 -->
<!-- Title: main Pages: 1 -->
<svg width="1446pt" height="972pt"
 viewBox="0.00 0.00 1446.00 972.50" xmlns="http://www.w3.org/2000/svg" xmlns:xlink="http://www.w3.org/1999/xlink">
<g id="graph0" class="graph" transform="scale(1 1) rotate(0) translate(4 968.5)">
<title>main</title>
<!-- Node1 -->
<g id="node1" class="node"><title>Node1</title>
<polygon fill="#bfbfbf" stroke="black" points="0,-860 0,-879 38,-879 38,-860 0,-860"/>
<text text-anchor="middle" x="19" y="-867" font-family="Helvetica,sans-Serif" font-size="10.00">main</text>
</g>
<!-- Node2 -->
<g id="node2" class="node"><title>Node2</title>
<g id="a_node2"><a xlink:href="a00074.html#a3d879947af1cc338c9bb9cf68fcce672" target="_top" xlink:title="[hpd_t functions] ">
<polygon fill="none" stroke="black" points="74,-917 74,-936 132,-936 132,-917 74,-917"/>
<text text-anchor="middle" x="103" y="-924" font-family="Helvetica,sans-Serif" font-size="10.00">hpd_alloc</text>
</a>
</g>
</g>
<!-- Node1&#45;&gt;Node2 -->
<g id="edge1" class="edge"><title>Node1&#45;&gt;Node2</title>
<path fill="none" stroke="midnightblue" d="M33.9102,-879.169C46.473,-887.902 65.1777,-900.904 79.8056,-911.072"/>
<polygon fill="midnightblue" stroke="midnightblue" points="78.0864,-914.14 88.2952,-916.973 82.0819,-908.392 78.0864,-914.14"/>
</g>
<!-- Node6 -->
<g id="node6" class="node"><title>Node6</title>
<g id="a_node6"><a xlink:href="a00074.html#a1360e4af1219978973e0afd4486c489e" target="_top" xlink:title="hpd_module">
<polygon fill="none" stroke="black" points="172,-879 172,-898 241,-898 241,-879 172,-879"/>
<text text-anchor="middle" x="206.5" y="-886" font-family="Helvetica,sans-Serif" font-size="10.00">hpd_module</text>
</a>
</g>
</g>
<!-- Node1&#45;&gt;Node6 -->
<g id="edge5" class="edge"><title>Node1&#45;&gt;Node6</title>
<path fill="none" stroke="midnightblue" d="M38.1243,-871.356C66.4941,-874.262 122.209,-879.969 161.548,-883.998"/>
<polygon fill="midnightblue" stroke="midnightblue" points="161.366,-887.498 171.671,-885.035 162.08,-880.534 161.366,-887.498"/>
</g>
<!-- Node8 -->
<g id="node8" class="node"><title>Node8</title>
<g id="a_node8"><a xlink:href="a00074.html#a4a5e670df4a5790a7955aaef5483c08a" target="_top" xlink:title="hpd_start">
<polygon fill="none" stroke="black" points="74.5,-699 74.5,-718 131.5,-718 131.5,-699 74.5,-699"/>
<text text-anchor="middle" x="103" y="-706" font-family="Helvetica,sans-Serif" font-size="10.00">hpd_start</text>
</a>
</g>
</g>
<!-- Node1&#45;&gt;Node8 -->
<g id="edge8" class="edge"><title>Node1&#45;&gt;Node8</title>
<path fill="none" stroke="midnightblue" d="M24.8839,-859.911C38.1267,-833.91 74.8981,-761.712 92.4449,-727.261"/>
<polygon fill="midnightblue" stroke="midnightblue" points="95.6183,-728.742 97.038,-718.242 89.3807,-725.565 95.6183,-728.742"/>
</g>
<!-- Node37 -->
<g id="node37" class="node"><title>Node37</title>
<g id="a_node37"><a xlink:href="a00074.html#aa833627ad45d82173c0caf687cd30126" target="_top" xlink:title="hpd_free">
<polygon fill="none" stroke="black" points="76,-841 76,-860 130,-860 130,-841 76,-841"/>
<text text-anchor="middle" x="103" y="-848" font-family="Helvetica,sans-Serif" font-size="10.00">hpd_free</text>
</a>
</g>
</g>
<!-- Node1&#45;&gt;Node37 -->
<g id="edge64" class="edge"><title>Node1&#45;&gt;Node37</title>
<path fill="none" stroke="midnightblue" d="M38.1985,-865.283C46.3929,-863.384 56.3691,-861.073 65.9754,-858.847"/>
<polygon fill="midnightblue" stroke="midnightblue" points="66.8104,-862.246 75.7622,-856.579 65.2302,-855.427 66.8104,-862.246"/>
</g>
<!-- Node3 -->
<g id="node3" class="node"><title>Node3</title>
<g id="a_node3"><a xlink:href="a00076.html#a9c4bde30e05010d189231e469da9336b" target="_top" xlink:title="daemon_alloc">
<polygon fill="none" stroke="black" points="168,-917 168,-936 245,-936 245,-917 168,-917"/>
<text text-anchor="middle" x="206.5" y="-924" font-family="Helvetica,sans-Serif" font-size="10.00">daemon_alloc</text>
</a>
</g>
</g>
<!-- Node2&#45;&gt;Node3 -->
<g id="edge2" class="edge"><title>Node2&#45;&gt;Node3</title>
<path fill="none" stroke="midnightblue" d="M132.004,-926.5C139.933,-926.5 148.796,-926.5 157.547,-926.5"/>
<polygon fill="midnightblue" stroke="midnightblue" points="157.707,-930 167.707,-926.5 157.707,-923 157.707,-930"/>
</g>
<!-- Node4 -->
<g id="node4" class="node"><title>Node4</title>
<g id="a_node4"><a xlink:href="a00076.html#ad479fe62c51adf8b2375d8c9761b8c85" target="_top" xlink:title="daemon_on_signal">
<polygon fill="none" stroke="black" points="297.5,-917 297.5,-936 395.5,-936 395.5,-917 297.5,-917"/>
<text text-anchor="middle" x="346.5" y="-924" font-family="Helvetica,sans-Serif" font-size="10.00">daemon_on_signal</text>
</a>
</g>
</g>
<!-- Node3&#45;&gt;Node4 -->
<g id="edge3" class="edge"><title>Node3&#45;&gt;Node4</title>
<path fill="none" stroke="midnightblue" d="M245.209,-926.5C258.181,-926.5 273.025,-926.5 287.244,-926.5"/>
<polygon fill="midnightblue" stroke="midnightblue" points="287.452,-930 297.452,-926.5 287.452,-923 287.452,-930"/>
</g>
<!-- Node5 -->
<g id="node5" class="node"><title>Node5</title>
<g id="a_node5"><a xlink:href="a00012.html#adf46370d9c211c3be22966b4606ba9b0" target="_top" xlink:title="free">
<polygon fill="none" stroke="black" points="1405,-423 1405,-442 1438,-442 1438,-423 1405,-423"/>
<text text-anchor="middle" x="1421.5" y="-430" font-family="Helvetica,sans-Serif" font-size="10.00">free</text>
</a>
</g>
</g>
<!-- Node3&#45;&gt;Node5 -->
<g id="edge4" class="edge"><title>Node3&#45;&gt;Node5</title>
<path fill="none" stroke="midnightblue" d="M239.446,-936.013C252.258,-939.498 267.227,-943.158 281,-945.5 380.373,-962.396 406.201,-964.5 507,-964.5 507,-964.5 507,-964.5 1137.5,-964.5 1250.29,-964.5 1302.17,-951.364 1369,-860.5 1417.61,-794.408 1420.73,-527.599 1420.63,-452.347"/>
<polygon fill="midnightblue" stroke="midnightblue" points="1424.13,-452.313 1420.59,-442.326 1417.13,-452.338 1424.13,-452.313"/>
</g>
<!-- Node7 -->
<g id="node7" class="node"><title>Node7</title>
<g id="a_node7"><a xlink:href="a00076.html#a336c8598d2adac7b24a90cbef5b947bc" target="_top" xlink:title="daemon_add_module">
<polygon fill="none" stroke="black" points="760,-869 760,-888 869,-888 869,-869 760,-869"/>
<text text-anchor="middle" x="814.5" y="-876" font-family="Helvetica,sans-Serif" font-size="10.00">daemon_add_module</text>
</a>
</g>
</g>
<!-- Node6&#45;&gt;Node7 -->
<g id="edge6" class="edge"><title>Node6&#45;&gt;Node7</title>
<path fill="none" stroke="midnightblue" d="M241.38,-887.941C339.061,-886.329 622.384,-881.654 749.941,-879.549"/>
<polygon fill="midnightblue" stroke="midnightblue" points="750.014,-883.048 759.955,-879.383 749.898,-876.049 750.014,-883.048"/>
</g>
<!-- Node7&#45;&gt;Node5 -->
<g id="edge7" class="edge"><title>Node7&#45;&gt;Node5</title>
<path fill="none" stroke="midnightblue" d="M856.981,-888.046C959.839,-909.014 1228.46,-946.798 1369,-807.5 1419.73,-757.215 1421.44,-521.902 1420.8,-452.079"/>
<polygon fill="midnightblue" stroke="midnightblue" points="1424.3,-451.974 1420.68,-442.016 1417.3,-452.058 1424.3,-451.974"/>
</g>
<!-- Node9 -->
<g id="node9" class="node"><title>Node9</title>
<g id="a_node9"><a xlink:href="a00076.html#affd72e7fb83ddd29450361c75672ddd4" target="_top" xlink:title="daemon_start">
<polygon fill="none" stroke="black" points="168.5,-594 168.5,-613 244.5,-613 244.5,-594 168.5,-594"/>
<text text-anchor="middle" x="206.5" y="-601" font-family="Helvetica,sans-Serif" font-size="10.00">daemon_start</text>
</a>
</g>
</g>
<!-- Node8&#45;&gt;Node9 -->
<g id="edge9" class="edge"><title>Node8&#45;&gt;Node9</title>
<path fill="none" stroke="midnightblue" d="M113.367,-698.81C130.588,-680.995 167.481,-642.83 188.992,-620.578"/>
<polygon fill="midnightblue" stroke="midnightblue" points="191.722,-622.789 196.156,-613.166 186.689,-617.924 191.722,-622.789"/>
</g>
<!-- Node10 -->
<g id="node10" class="node"><title>Node10</title>
<g id="a_node10"><a xlink:href="a00076.html#a16316b28a971751b813828bb51556a57" target="_top" xlink:title="daemon_runtime_create">
<polygon fill="none" stroke="black" points="286,-461 286,-480 407,-480 407,-461 286,-461"/>
<text text-anchor="middle" x="346.5" y="-468" font-family="Helvetica,sans-Serif" font-size="10.00">daemon_runtime_create</text>
</a>
</g>
</g>
<!-- Node9&#45;&gt;Node10 -->
<g id="edge10" class="edge"><title>Node9&#45;&gt;Node10</title>
<path fill="none" stroke="midnightblue" d="M210.972,-593.901C219.404,-571.961 243.1,-517.854 281,-489.5 283.49,-487.637 286.161,-485.956 288.947,-484.439"/>
<polygon fill="midnightblue" stroke="midnightblue" points="290.583,-487.538 298.16,-480.133 287.619,-481.196 290.583,-487.538"/>
</g>
<!-- Node11 -->
<g id="node11" class="node"><title>Node11</title>
<g id="a_node11"><a xlink:href="a00076.html#af16c6e4d8cc87e68b39dfa10452d5df3" target="_top" xlink:title="daemon_options_create">
<polygon fill="none" stroke="black" points="1076.5,-689 1076.5,-708 1196.5,-708 1196.5,-689 1076.5,-689"/>
<text text-anchor="middle" x="1136.5" y="-696" font-family="Helvetica,sans-Serif" font-size="10.00">daemon_options_create</text>
</a>
</g>
</g>
<!-- Node9&#45;&gt;Node11 -->
<g id="edge11" class="edge"><title>Node9&#45;&gt;Node11</title>
<path fill="none" stroke="midnightblue" d="M213.354,-613.069C224.266,-629.928 249.491,-664.551 281,-679.5 372.069,-722.707 406.201,-698.5 507,-698.5 507,-698.5 507,-698.5 815.5,-698.5 901.853,-698.5 1001.31,-698.5 1066.13,-698.5"/>
<polygon fill="midnightblue" stroke="midnightblue" points="1066.23,-702 1076.23,-698.5 1066.23,-695 1066.23,-702"/>
</g>
<!-- Node13 -->
<g id="node13" class="node"><title>Node13</title>
<g id="a_node13"><a xlink:href="a00076.html#a943c02597d0bbb8ff7ecd8f0f051b6b0" target="_top" xlink:title="daemon_modules_create">
<polygon fill="none" stroke="black" points="284,-423 284,-442 409,-442 409,-423 284,-423"/>
<text text-anchor="middle" x="346.5" y="-430" font-family="Helvetica,sans-Serif" font-size="10.00">daemon_modules_create</text>
</a>
</g>
</g>
<!-- Node9&#45;&gt;Node13 -->
<g id="edge15" class="edge"><title>Node9&#45;&gt;Node13</title>
<path fill="none" stroke="midnightblue" d="M209.379,-593.632C215.042,-566.633 234.503,-490.937 281,-451.5 282.986,-449.815 285.117,-448.28 287.35,-446.88"/>
<polygon fill="midnightblue" stroke="midnightblue" points="289.169,-449.879 296.394,-442.13 285.914,-443.681 289.169,-449.879"/>
</g>
<!-- Node14 -->
<g id="node14" class="node"><title>Node14</title>
<g id="a_node14"><a xlink:href="a00076.html#aefbeef30c7dcb9666a343d1a957e21fc" target="_top" xlink:title="daemon_options_parse">
<polygon fill="none" stroke="black" points="288,-651 288,-670 405,-670 405,-651 288,-651"/>
<text text-anchor="middle" x="346.5" y="-658" font-family="Helvetica,sans-Serif" font-size="10.00">daemon_options_parse</text>
</a>
</g>
</g>
<!-- Node9&#45;&gt;Node14 -->
<g id="edge16" class="edge"><title>Node9&#45;&gt;Node14</title>
<path fill="none" stroke="midnightblue" d="M227.937,-613.11C242.598,-619.898 262.881,-629.071 281,-636.5 290.011,-640.195 299.824,-643.97 309.013,-647.4"/>
<polygon fill="midnightblue" stroke="midnightblue" points="308.08,-650.786 318.673,-650.966 310.504,-644.219 308.08,-650.786"/>
</g>
<!-- Node16 -->
<g id="node16" class="node"><title>Node16</title>
<g id="a_node16"><a xlink:href="a00076.html#aa7d44da54b75b6a31f07ea8ad0b4f65f" target="_top" xlink:title="daemon_options_destroy">
<polygon fill="none" stroke="black" points="1074,-613 1074,-632 1199,-632 1199,-613 1074,-613"/>
<text text-anchor="middle" x="1136.5" y="-620" font-family="Helvetica,sans-Serif" font-size="10.00">daemon_options_destroy</text>
</a>
</g>
</g>
<!-- Node9&#45;&gt;Node16 -->
<g id="edge20" class="edge"><title>Node9&#45;&gt;Node16</title>
<path fill="none" stroke="midnightblue" d="M244.805,-607.391C301.415,-612.949 412.437,-622.5 507,-622.5 507,-622.5 507,-622.5 815.5,-622.5 900.798,-622.5 998.885,-622.5 1063.74,-622.5"/>
<polygon fill="midnightblue" stroke="midnightblue" points="1063.86,-626 1073.86,-622.5 1063.86,-619 1063.86,-626"/>
</g>
<!-- Node17 -->
<g id="node17" class="node"><title>Node17</title>
<g id="a_node17"><a xlink:href="a00076.html#a6e8cf698ada187d76791384bc1747d94" target="_top" xlink:title="daemon_loop_create">
<polygon fill="none" stroke="black" points="293,-385 293,-404 400,-404 400,-385 293,-385"/>
<text text-anchor="middle" x="346.5" y="-392" font-family="Helvetica,sans-Serif" font-size="10.00">daemon_loop_create</text>
</a>
</g>
</g>
<!-- Node9&#45;&gt;Node17 -->
<g id="edge22" class="edge"><title>Node9&#45;&gt;Node17</title>
<path fill="none" stroke="midnightblue" d="M208.289,-593.975C211.367,-563.091 225.315,-464.763 281,-413.5 282.71,-411.926 284.543,-410.482 286.472,-409.157"/>
<polygon fill="midnightblue" stroke="midnightblue" points="288.462,-412.052 295.439,-404.079 285.013,-405.961 288.462,-412.052"/>
</g>
<!-- Node18 -->
<g id="node18" class="node"><title>Node18</title>
<g id="a_node18"><a xlink:href="a00076.html#a2564ffbc93aa1217cfc109745f4e5c84" target="_top" xlink:title="daemon_modules_start">
<polygon fill="none" stroke="black" points="287.5,-347 287.5,-366 405.5,-366 405.5,-347 287.5,-347"/>
<text text-anchor="middle" x="346.5" y="-354" font-family="Helvetica,sans-Serif" font-size="10.00">daemon_modules_start</text>
</a>
</g>
</g>
<!-- Node9&#45;&gt;Node18 -->
<g id="edge23" class="edge"><title>Node9&#45;&gt;Node18</title>
<path fill="none" stroke="midnightblue" d="M207.599,-593.624C208.5,-558.518 216.38,-438.501 281,-375.5 282.473,-374.064 284.049,-372.735 285.707,-371.506"/>
<polygon fill="midnightblue" stroke="midnightblue" points="287.824,-374.317 294.579,-366.155 284.209,-368.323 287.824,-374.317"/>
</g>
<!-- Node19 -->
<g id="node19" class="node"><title>Node19</title>
<g id="a_node19"><a xlink:href="a00076.html#aca062019146e64105bc4da23c0663c8d" target="_top" xlink:title="daemon_loop_run">
<polygon fill="none" stroke="black" points="300,-803 300,-822 393,-822 393,-803 300,-803"/>
<text text-anchor="middle" x="346.5" y="-810" font-family="Helvetica,sans-Serif" font-size="10.00">daemon_loop_run</text>
</a>
</g>
</g>
<!-- Node9&#45;&gt;Node19 -->
<g id="edge24" class="edge"><title>Node9&#45;&gt;Node19</title>
<path fill="none" stroke="midnightblue" d="M208.289,-613.025C211.367,-643.909 225.315,-742.237 281,-793.5 283.829,-796.104 286.997,-798.353 290.372,-800.294"/>
<polygon fill="midnightblue" stroke="midnightblue" points="289.159,-803.594 299.691,-804.749 292.178,-797.278 289.159,-803.594"/>
</g>
<!-- Node20 -->
<g id="node20" class="node"><title>Node20</title>
<g id="a_node20"><a xlink:href="a00076.html#a85c17095ef05bb19812b928638c69511" target="_top" xlink:title="daemon_modules_stop">
<polygon fill="none" stroke="black" points="288,-765 288,-784 405,-784 405,-765 288,-765"/>
<text text-anchor="middle" x="346.5" y="-772" font-family="Helvetica,sans-Serif" font-size="10.00">daemon_modules_stop</text>
</a>
</g>
</g>
<!-- Node9&#45;&gt;Node20 -->
<g id="edge25" class="edge"><title>Node9&#45;&gt;Node20</title>
<path fill="none" stroke="midnightblue" d="M209.379,-613.368C215.042,-640.367 234.503,-716.063 281,-755.5 282.986,-757.185 285.117,-758.72 287.35,-760.12"/>
<polygon fill="midnightblue" stroke="midnightblue" points="285.914,-763.318 296.394,-764.87 289.169,-757.121 285.914,-763.318"/>
</g>
<!-- Node21 -->
<g id="node21" class="node"><title>Node21</title>
<g id="a_node21"><a xlink:href="a00076.html#a6d045a0ff8f14cb475c43d4fab3cc0a5" target="_top" xlink:title="daemon_watchers_stop">
<polygon fill="none" stroke="black" points="448,-499 448,-518 568,-518 568,-499 448,-499"/>
<text text-anchor="middle" x="508" y="-506" font-family="Helvetica,sans-Serif" font-size="10.00">daemon_watchers_stop</text>
</a>
</g>
</g>
<!-- Node9&#45;&gt;Node21 -->
<g id="edge26" class="edge"><title>Node9&#45;&gt;Node21</title>
<path fill="none" stroke="midnightblue" d="M244.769,-600.585C286.598,-596.407 355.942,-586.733 412,-565.5 439.205,-555.195 467.425,-537.17 485.964,-524.144"/>
<polygon fill="midnightblue" stroke="midnightblue" points="488.155,-526.88 494.241,-518.207 484.075,-521.192 488.155,-526.88"/>
</g>
<!-- Node29 -->
<g id="node29" class="node"><title>Node29</title>
<g id="a_node29"><a xlink:href="a00076.html#a1740a3c95341405e99d4c194bee51c81" target="_top" xlink:title="daemon_loop_destroy">
<polygon fill="none" stroke="black" points="290.5,-727 290.5,-746 402.5,-746 402.5,-727 290.5,-727"/>
<text text-anchor="middle" x="346.5" y="-734" font-family="Helvetica,sans-Serif" font-size="10.00">daemon_loop_destroy</text>
</a>
</g>
</g>
<!-- Node9&#45;&gt;Node29 -->
<g id="edge46" class="edge"><title>Node9&#45;&gt;Node29</title>
<path fill="none" stroke="midnightblue" d="M211.501,-613.127C220.694,-634.125 245.311,-684.407 281,-712.5 286.299,-716.671 292.396,-720.169 298.682,-723.089"/>
<polygon fill="midnightblue" stroke="midnightblue" points="297.38,-726.338 307.956,-726.963 300.078,-719.879 297.38,-726.338"/>
</g>
<!-- Node30 -->
<g id="node30" class="node"><title>Node30</title>
<g id="a_node30"><a xlink:href="a00076.html#ad8dc07c94965198283f5985dadab54a9" target="_top" xlink:title="daemon_modules_destroy">
<polygon fill="none" stroke="black" points="281,-499 281,-518 412,-518 412,-499 281,-499"/>
<text text-anchor="middle" x="346.5" y="-506" font-family="Helvetica,sans-Serif" font-size="10.00">daemon_modules_destroy</text>
</a>
</g>
</g>
<!-- Node9&#45;&gt;Node30 -->
<g id="edge47" class="edge"><title>Node9&#45;&gt;Node30</title>
<path fill="none" stroke="midnightblue" d="M214.241,-593.786C225.952,-577.634 251.636,-545.274 281,-527.5 284.595,-525.324 288.455,-523.384 292.433,-521.657"/>
<polygon fill="midnightblue" stroke="midnightblue" points="293.804,-524.88 301.864,-518.003 291.275,-518.352 293.804,-524.88"/>
</g>
<!-- Node31 -->
<g id="node31" class="node"><title>Node31</title>
<g id="a_node31"><a xlink:href="a00076.html#a015919d95dc08af72eaa0663e65eaf2e" target="_top" xlink:title="daemon_runtime_destroy">
<polygon fill="none" stroke="black" points="283.5,-537 283.5,-556 409.5,-556 409.5,-537 283.5,-537"/>
<text text-anchor="middle" x="346.5" y="-544" font-family="Helvetica,sans-Serif" font-size="10.00">daemon_runtime_destroy</text>
</a>
</g>
</g>
<!-- Node9&#45;&gt;Node31 -->
<g id="edge48" class="edge"><title>Node9&#45;&gt;Node31</title>
<path fill="none" stroke="midnightblue" d="M227.937,-593.889C242.598,-587.102 262.881,-577.929 281,-570.5 290.011,-566.805 299.824,-563.03 309.013,-559.6"/>
<polygon fill="midnightblue" stroke="midnightblue" points="310.504,-562.781 318.673,-556.034 308.08,-556.214 310.504,-562.781"/>
</g>
<!-- Node11&#45;&gt;Node5 -->
<g id="edge14" class="edge"><title>Node11&#45;&gt;Node5</title>
<path fill="none" stroke="midnightblue" d="M1156.68,-708.101C1200.09,-728.323 1306.95,-769.34 1369,-717.5 1409.79,-683.423 1418.33,-511.271 1420.07,-452.329"/>
<polygon fill="midnightblue" stroke="midnightblue" points="1423.57,-452.212 1420.33,-442.124 1416.58,-452.03 1423.57,-452.212"/>
</g>
<!-- Node12 -->
<g id="node12" class="node"><title>Node12</title>
<g id="a_node12"><a xlink:href="a00076.html#a3da1c288975f0004839f81c07ad3bec2" target="_top" xlink:title="daemon_add_global_option">
<polygon fill="none" stroke="black" points="1235,-689 1235,-708 1369,-708 1369,-689 1235,-689"/>
<text text-anchor="middle" x="1302" y="-696" font-family="Helvetica,sans-Serif" font-size="10.00">daemon_add_global_option</text>
</a>
</g>
</g>
<!-- Node11&#45;&gt;Node12 -->
<g id="edge12" class="edge"><title>Node11&#45;&gt;Node12</title>
<path fill="none" stroke="midnightblue" d="M1196.53,-698.5C1205.66,-698.5 1215.21,-698.5 1224.66,-698.5"/>
<polygon fill="midnightblue" stroke="midnightblue" points="1224.85,-702 1234.85,-698.5 1224.85,-695 1224.85,-702"/>
</g>
<!-- Node12&#45;&gt;Node5 -->
<g id="edge13" class="edge"><title>Node12&#45;&gt;Node5</title>
<path fill="none" stroke="midnightblue" d="M1348.36,-688.952C1356.14,-685.517 1363.48,-680.848 1369,-674.5 1398.09,-641.054 1413.75,-504.242 1418.72,-452.473"/>
<polygon fill="midnightblue" stroke="midnightblue" points="1422.23,-452.549 1419.67,-442.268 1415.26,-451.902 1422.23,-452.549"/>
</g>
<!-- Node15 -->
<g id="node15" class="node"><title>Node15</title>
<g id="a_node15"><a xlink:href="a00076.html#a6f9a94da2aa5d7ada29958566c6192f2" target="_top" xlink:title="daemon_on_parse_opt">
<polygon fill="none" stroke="black" points="450.5,-651 450.5,-670 565.5,-670 565.5,-651 450.5,-651"/>
<text text-anchor="middle" x="508" y="-658" font-family="Helvetica,sans-Serif" font-size="10.00">daemon_on_parse_opt</text>
</a>
</g>
</g>
<!-- Node14&#45;&gt;Node15 -->
<g id="edge17" class="edge"><title>Node14&#45;&gt;Node15</title>
<path fill="none" stroke="midnightblue" d="M405.083,-653.987C416.471,-653.737 428.513,-653.685 440.177,-653.829"/>
<polygon fill="midnightblue" stroke="midnightblue" points="440.243,-657.331 450.303,-654.007 440.366,-650.332 440.243,-657.331"/>
</g>
<!-- Node15&#45;&gt;Node5 -->
<g id="edge19" class="edge"><title>Node15&#45;&gt;Node5</title>
<path fill="none" stroke="midnightblue" d="M565.682,-660.5C626.832,-660.5 727.066,-660.5 813.5,-660.5 813.5,-660.5 813.5,-660.5 1137.5,-660.5 1241.19,-660.5 1291.12,-699.958 1369,-631.5 1396.06,-607.717 1412.47,-497.679 1418.2,-452.225"/>
<polygon fill="midnightblue" stroke="midnightblue" points="1421.69,-452.502 1419.42,-442.152 1414.74,-451.656 1421.69,-452.502"/>
</g>
<!-- Node15&#45;&gt;Node14 -->
<g id="edge18" class="edge"><title>Node15&#45;&gt;Node14</title>
<path fill="none" stroke="midnightblue" d="M450.303,-666.993C438.95,-667.253 426.916,-667.316 415.233,-667.181"/>
<polygon fill="midnightblue" stroke="midnightblue" points="415.14,-663.679 405.083,-667.013 415.024,-670.678 415.14,-663.679"/>
</g>
<!-- Node16&#45;&gt;Node5 -->
<g id="edge21" class="edge"><title>Node16&#45;&gt;Node5</title>
<path fill="none" stroke="midnightblue" d="M1188.22,-632.015C1239.61,-638.593 1318.53,-639.868 1369,-598.5 1413.43,-562.08 1420.26,-488.013 1420.84,-452.443"/>
<polygon fill="midnightblue" stroke="midnightblue" points="1424.34,-452.346 1420.85,-442.343 1417.34,-452.34 1424.34,-452.346"/>
</g>
<!-- Node21&#45;&gt;Node5 -->
<g id="edge37" class="edge"><title>Node21&#45;&gt;Node5</title>
<path fill="none" stroke="midnightblue" d="M516.527,-498.81C531.308,-480.434 566.015,-440.403 604,-418.5 688.12,-369.994 716.397,-356.5 813.5,-356.5 813.5,-356.5 813.5,-356.5 1137.5,-356.5 1242.15,-356.5 1271.69,-360.999 1369,-399.5 1379.96,-403.836 1391.1,-410.617 1400.2,-416.906"/>
<polygon fill="midnightblue" stroke="midnightblue" points="1398.38,-419.91 1408.54,-422.923 1402.48,-414.234 1398.38,-419.91"/>
</g>
<!-- Node22 -->
<g id="node22" class="node"><title>Node22</title>
<g id="a_node22"><a xlink:href="a00087.html#adc90843b331f5522a8d08d6e4219e126" target="_top" xlink:title="request_free_request">
<polygon fill="none" stroke="black" points="760.5,-461 760.5,-480 868.5,-480 868.5,-461 760.5,-461"/>
<text text-anchor="middle" x="814.5" y="-468" font-family="Helvetica,sans-Serif" font-size="10.00">request_free_request</text>
</a>
</g>
</g>
<!-- Node21&#45;&gt;Node22 -->
<g id="edge27" class="edge"><title>Node21&#45;&gt;Node22</title>
<path fill="none" stroke="midnightblue" d="M551.867,-498.915C568.128,-495.546 586.855,-491.985 604,-489.5 652.917,-482.411 708.666,-477.507 750.351,-474.459"/>
<polygon fill="midnightblue" stroke="midnightblue" points="750.639,-477.948 760.364,-473.743 750.14,-470.965 750.639,-477.948"/>
</g>
<!-- Node23 -->
<g id="node23" class="node"><title>Node23</title>
<g id="a_node23"><a xlink:href="a00020.html#a8922de7d42124afa8ab5fd339fe695ee" target="_top" xlink:title="discovery_free_sid">
<polygon fill="none" stroke="black" points="924.5,-461 924.5,-480 1022.5,-480 1022.5,-461 924.5,-461"/>
<text text-anchor="middle" x="973.5" y="-468" font-family="Helvetica,sans-Serif" font-size="10.00">discovery_free_sid</text>
</a>
</g>
</g>
<!-- Node21&#45;&gt;Node23 -->
<g id="edge42" class="edge"><title>Node21&#45;&gt;Node23</title>
<path fill="none" stroke="midnightblue" d="M547.565,-518.01C564.727,-521.775 585.254,-525.644 604,-527.5 655.305,-532.58 668.762,-533.211 720,-527.5 795.421,-519.093 881.209,-496.975 930.869,-482.893"/>
<polygon fill="midnightblue" stroke="midnightblue" points="931.955,-486.223 940.604,-480.104 930.026,-479.494 931.955,-486.223"/>
</g>
<!-- Node24 -->
<g id="node24" class="node"><title>Node24</title>
<g id="a_node24"><a xlink:href="a00090.html#a1ec3b1d4547e5080bcec544c877852da" target="_top" xlink:title="value_free">
<polygon fill="none" stroke="black" points="942.5,-385 942.5,-404 1004.5,-404 1004.5,-385 942.5,-385"/>
<text text-anchor="middle" x="973.5" y="-392" font-family="Helvetica,sans-Serif" font-size="10.00">value_free</text>
</a>
</g>
</g>
<!-- Node21&#45;&gt;Node24 -->
<g id="edge43" class="edge"><title>Node21&#45;&gt;Node24</title>
<path fill="none" stroke="midnightblue" d="M527.602,-498.97C567.963,-478.799 667.107,-431.966 756,-411.5 816.248,-397.629 888.143,-394.553 932.044,-394.134"/>
<polygon fill="midnightblue" stroke="midnightblue" points="932.328,-397.632 942.31,-394.08 932.291,-390.632 932.328,-397.632"/>
</g>
<!-- Node27 -->
<g id="node27" class="node"><title>Node27</title>
<g id="a_node27"><a xlink:href="a00087.html#a2477fb8cf085cc2b61dbfacdcdc54b82" target="_top" xlink:title="request_free_response">
<polygon fill="none" stroke="black" points="604,-499 604,-518 720,-518 720,-499 604,-499"/>
<text text-anchor="middle" x="662" y="-506" font-family="Helvetica,sans-Serif" font-size="10.00">request_free_response</text>
</a>
</g>
</g>
<!-- Node21&#45;&gt;Node27 -->
<g id="edge38" class="edge"><title>Node21&#45;&gt;Node27</title>
<path fill="none" stroke="midnightblue" d="M568.202,-508.5C576.499,-508.5 585.077,-508.5 593.513,-508.5"/>
<polygon fill="midnightblue" stroke="midnightblue" points="593.705,-512 603.705,-508.5 593.705,-505 593.705,-512"/>
</g>
<!-- Node28 -->
<g id="node28" class="node"><title>Node28</title>
<g id="a_node28"><a xlink:href="a00020.html#ae1a000b225c8b3f365c2cec8362b8483" target="_top" xlink:title="discovery_free_did">
<polygon fill="none" stroke="black" points="613,-575 613,-594 711,-594 711,-575 613,-575"/>
<text text-anchor="middle" x="662" y="-582" font-family="Helvetica,sans-Serif" font-size="10.00">discovery_free_did</text>
</a>
</g>
</g>
<!-- Node21&#45;&gt;Node28 -->
<g id="edge44" class="edge"><title>Node21&#45;&gt;Node28</title>
<path fill="none" stroke="midnightblue" d="M525.209,-518.036C543.91,-528.881 575.722,-546.851 604,-560.5 611.562,-564.15 619.823,-567.809 627.651,-571.132"/>
<polygon fill="midnightblue" stroke="midnightblue" points="626.33,-574.374 636.907,-574.995 629.026,-567.914 626.33,-574.374"/>
</g>
<!-- Node22&#45;&gt;Node5 -->
<g id="edge36" class="edge"><title>Node22&#45;&gt;Node5</title>
<path fill="none" stroke="midnightblue" d="M855.307,-460.918C871.82,-457.333 891.237,-453.62 909,-451.5 1094.06,-429.41 1319.21,-430.762 1394.55,-431.973"/>
<polygon fill="midnightblue" stroke="midnightblue" points="1394.88,-435.479 1404.94,-432.155 1395.01,-428.48 1394.88,-435.479"/>
</g>
<!-- Node22&#45;&gt;Node23 -->
<g id="edge28" class="edge"><title>Node22&#45;&gt;Node23</title>
<path fill="none" stroke="midnightblue" d="M868.653,-470.5C883.326,-470.5 899.322,-470.5 914.266,-470.5"/>
<polygon fill="midnightblue" stroke="midnightblue" points="914.415,-474 924.415,-470.5 914.415,-467 914.415,-474"/>
</g>
<!-- Node22&#45;&gt;Node24 -->
<g id="edge30" class="edge"><title>Node22&#45;&gt;Node24</title>
<path fill="none" stroke="midnightblue" d="M842.543,-460.931C852.406,-457.001 863.47,-452.061 873,-446.5 890.507,-436.284 891.322,-428.416 909,-418.5 916.381,-414.36 924.617,-410.654 932.648,-407.465"/>
<polygon fill="midnightblue" stroke="midnightblue" points="934.149,-410.639 942.27,-403.836 931.679,-404.09 934.149,-410.639"/>
</g>
<!-- Node23&#45;&gt;Node5 -->
<g id="edge29" class="edge"><title>Node23&#45;&gt;Node5</title>
<path fill="none" stroke="midnightblue" d="M1022.52,-470.731C1097.15,-470.382 1245.27,-466.861 1369,-446.5 1377.61,-445.082 1386.86,-442.812 1395.11,-440.508"/>
<polygon fill="midnightblue" stroke="midnightblue" points="1396.3,-443.809 1404.91,-437.635 1394.33,-437.092 1396.3,-443.809"/>
</g>
<!-- Node24&#45;&gt;Node5 -->
<g id="edge35" class="edge"><title>Node24&#45;&gt;Node5</title>
<path fill="none" stroke="midnightblue" d="M1004.67,-394.242C1071.03,-394.13 1234.44,-396.356 1369,-418.5 1377.61,-419.917 1386.86,-422.188 1395.11,-424.491"/>
<polygon fill="midnightblue" stroke="midnightblue" points="1394.33,-427.908 1404.91,-427.365 1396.3,-421.191 1394.33,-427.908"/>
</g>
<!-- Node25 -->
<g id="node25" class="node"><title>Node25</title>
<g id="a_node25"><a xlink:href="a00056.html#a195d511a075f2349200563af1c5d1fd7" target="_top" xlink:title="hpd_map_free">
<polygon fill="none" stroke="black" points="1097.5,-271 1097.5,-290 1175.5,-290 1175.5,-271 1097.5,-271"/>
<text text-anchor="middle" x="1136.5" y="-278" font-family="Helvetica,sans-Serif" font-size="10.00">hpd_map_free</text>
</a>
</g>
</g>
<!-- Node24&#45;&gt;Node25 -->
<g id="edge31" class="edge"><title>Node24&#45;&gt;Node25</title>
<path fill="none" stroke="midnightblue" d="M987.95,-384.976C1015.7,-365.327 1079.54,-320.127 1113.43,-296.13"/>
<polygon fill="midnightblue" stroke="midnightblue" points="1115.61,-298.873 1121.75,-290.238 1111.56,-293.16 1115.61,-298.873"/>
</g>
<!-- Node25&#45;&gt;Node5 -->
<g id="edge34" class="edge"><title>Node25&#45;&gt;Node5</title>
<path fill="none" stroke="midnightblue" d="M1175.53,-288.997C1237.17,-303.019 1353.59,-330.63 1369,-342.5 1392.56,-360.649 1407.16,-392.854 1414.55,-413.415"/>
<polygon fill="midnightblue" stroke="midnightblue" points="1411.26,-414.61 1417.77,-422.97 1417.89,-412.376 1411.26,-414.61"/>
</g>
<!-- Node26 -->
<g id="node26" class="node"><title>Node26</title>
<g id="a_node26"><a xlink:href="a00031.html#ae1085dd4fd40466d18b02ec077ef4d6d" target="_top" xlink:title="hpd_map_remove">
<polygon fill="none" stroke="black" points="1255,-271 1255,-290 1349,-290 1349,-271 1255,-271"/>
<text text-anchor="middle" x="1302" y="-278" font-family="Helvetica,sans-Serif" font-size="10.00">hpd_map_remove</text>
</a>
</g>
</g>
<!-- Node25&#45;&gt;Node26 -->
<g id="edge32" class="edge"><title>Node25&#45;&gt;Node26</title>
<path fill="none" stroke="midnightblue" d="M1175.83,-280.5C1196.3,-280.5 1221.87,-280.5 1244.56,-280.5"/>
<polygon fill="midnightblue" stroke="midnightblue" points="1244.75,-284 1254.75,-280.5 1244.75,-277 1244.75,-284"/>
</g>
<!-- Node26&#45;&gt;Node5 -->
<g id="edge33" class="edge"><title>Node26&#45;&gt;Node5</title>
<path fill="none" stroke="midnightblue" d="M1345.81,-290.134C1354.26,-293.578 1362.51,-298.229 1369,-304.5 1399.73,-334.205 1412.64,-384.678 1417.64,-412.542"/>
<polygon fill="midnightblue" stroke="midnightblue" points="1414.23,-413.35 1419.29,-422.659 1421.14,-412.227 1414.23,-413.35"/>
</g>
<!-- Node27&#45;&gt;Node5 -->
<g id="edge41" class="edge"><title>Node27&#45;&gt;Node5</title>
<path fill="none" stroke="midnightblue" d="M720.043,-508.5C782.144,-508.5 884.378,-508.5 972.5,-508.5 972.5,-508.5 972.5,-508.5 1137.5,-508.5 1241.91,-508.5 1272.45,-508.253 1369,-468.5 1380.89,-463.603 1392.76,-455.58 1402.09,-448.35"/>
<polygon fill="midnightblue" stroke="midnightblue" points="1404.31,-451.055 1409.89,-442.045 1399.91,-445.613 1404.31,-451.055"/>
</g>
<!-- Node27&#45;&gt;Node22 -->
<g id="edge39" class="edge"><title>Node27&#45;&gt;Node22</title>
<path fill="none" stroke="midnightblue" d="M700.978,-498.911C720.659,-493.942 744.891,-487.823 765.821,-482.539"/>
<polygon fill="midnightblue" stroke="midnightblue" points="766.957,-485.862 775.796,-480.02 765.243,-479.075 766.957,-485.862"/>
</g>
<!-- Node27&#45;&gt;Node24 -->
<g id="edge40" class="edge"><title>Node27&#45;&gt;Node24</title>
<path fill="none" stroke="midnightblue" d="M675.886,-498.901C693.255,-486.373 725.523,-464.516 756,-451.5 814.902,-426.343 887.682,-409.955 932.066,-401.471"/>
<polygon fill="midnightblue" stroke="midnightblue" points="932.984,-404.86 942.171,-399.582 931.698,-397.979 932.984,-404.86"/>
</g>
<!-- Node28&#45;&gt;Node5 -->
<g id="edge45" class="edge"><title>Node28&#45;&gt;Node5</title>
<path fill="none" stroke="midnightblue" d="M711.248,-584.5C772.136,-584.5 880.08,-584.5 972.5,-584.5 972.5,-584.5 972.5,-584.5 1137.5,-584.5 1246.8,-584.5 1281.13,-566.506 1369,-501.5 1386.94,-488.227 1401.47,-466.968 1410.47,-451.552"/>
<polygon fill="midnightblue" stroke="midnightblue" points="1413.75,-452.847 1415.56,-442.407 1407.64,-449.441 1413.75,-452.847"/>
</g>
<!-- Node31&#45;&gt;Node5 -->
<g id="edge63" class="edge"><title>Node31&#45;&gt;Node5</title>
<path fill="none" stroke="midnightblue" d="M400.351,-536.829C404.731,-534.367 408.725,-531.304 412,-527.5 488.39,-438.75 396.008,-371.423 448,-266.5 507.582,-146.259 526.806,-52.4999 661,-52.4999 661,-52.4999 661,-52.4999 1137.5,-52.4999 1240.7,-52.4999 1293.74,0.111581 1369,-70.4999 1419.11,-117.513 1421.3,-343.868 1420.78,-412.64"/>
<polygon fill="midnightblue" stroke="midnightblue" points="1417.28,-412.892 1420.67,-422.929 1424.28,-412.966 1417.28,-412.892"/>
</g>
<!-- Node32 -->
<g id="node32" class="node"><title>Node32</title>
<g id="a_node32"><a xlink:href="a00078.html#aec714553397f80039bf246b3b0800420" target="_top" xlink:title="discovery_free_adapter">
<polygon fill="none" stroke="black" points="449,-276 449,-295 567,-295 567,-276 449,-276"/>
<text text-anchor="middle" x="508" y="-283" font-family="Helvetica,sans-Serif" font-size="10.00">discovery_free_adapter</text>
</a>
</g>
</g>
<!-- Node31&#45;&gt;Node32 -->
<g id="edge49" class="edge"><title>Node31&#45;&gt;Node32</title>
<path fill="none" stroke="midnightblue" d="M397.542,-536.9C402.816,-534.444 407.782,-531.364 412,-527.5 479.194,-465.949 499.49,-350.97 505.067,-305.114"/>
<polygon fill="midnightblue" stroke="midnightblue" points="508.563,-305.345 506.188,-295.02 501.606,-304.573 508.563,-305.345"/>
</g>
<!-- Node36 -->
<g id="node36" class="node"><title>Node36</title>
<g id="a_node36"><a xlink:href="a00081.html#a4cc65f197e3ad3f70ea2559bc95a68e9" target="_top" xlink:title="event_free_listener">
<polygon fill="none" stroke="black" points="1252.5,-4.99991 1252.5,-23.9999 1351.5,-23.9999 1351.5,-4.99991 1252.5,-4.99991"/>
<text text-anchor="middle" x="1302" y="-11.9999" font-family="Helvetica,sans-Serif" font-size="10.00">event_free_listener</text>
</a>
</g>
</g>
<!-- Node31&#45;&gt;Node36 -->
<g id="edge61" class="edge"><title>Node31&#45;&gt;Node36</title>
<path fill="none" stroke="midnightblue" d="M400.907,-536.866C405.117,-534.391 408.921,-531.316 412,-527.5 480.421,-442.7 372.459,-117.024 448,-38.4999 514.046,30.1544 565.734,-14.4999 661,-14.4999 661,-14.4999 661,-14.4999 974.5,-14.4999 1068.12,-14.4999 1176.84,-14.4999 1242.21,-14.4999"/>
<polygon fill="midnightblue" stroke="midnightblue" points="1242.32,-18 1252.32,-14.4999 1242.32,-11 1242.32,-18"/>
</g>
<!-- Node32&#45;&gt;Node5 -->
<g id="edge59" class="edge"><title>Node32&#45;&gt;Node5</title>
<path fill="none" stroke="midnightblue" d="M516.524,-275.83C548.064,-236.483 674.452,-90.4999 813.5,-90.4999 813.5,-90.4999 813.5,-90.4999 1137.5,-90.4999 1240.85,-90.4999 1293.59,-41.8253 1369,-112.5 1412.87,-153.614 1419.38,-349.072 1420.34,-412.544"/>
<polygon fill="midnightblue" stroke="midnightblue" points="1416.84,-412.834 1420.46,-422.792 1423.84,-412.751 1416.84,-412.834"/>
</g>
<!-- Node32&#45;&gt;Node25 -->
<g id="edge60" class="edge"><title>Node32&#45;&gt;Node25</title>
<path fill="none" stroke="midnightblue" d="M567.33,-286.476C664.814,-287.888 867.004,-289.882 1038,-285.5 1053.98,-285.09 1071.43,-284.304 1087.08,-283.473"/>
<polygon fill="midnightblue" stroke="midnightblue" points="1087.29,-286.968 1097.08,-282.925 1086.91,-279.978 1087.29,-286.968"/>
</g>
<!-- Node33 -->
<g id="node33" class="node"><title>Node33</title>
<g id="a_node33"><a xlink:href="a00078.html#a3c72fb9020b183238e0205b722d7ea95" target="_top" xlink:title="discovery_free_device">
<polygon fill="none" stroke="black" points="605,-243 605,-262 719,-262 719,-243 605,-243"/>
<text text-anchor="middle" x="662" y="-250" font-family="Helvetica,sans-Serif" font-size="10.00">discovery_free_device</text>
</a>
</g>
</g>
<!-- Node32&#45;&gt;Node33 -->
<g id="edge50" class="edge"><title>Node32&#45;&gt;Node33</title>
<path fill="none" stroke="midnightblue" d="M552.965,-275.955C569.822,-272.295 589.254,-268.076 606.949,-264.235"/>
<polygon fill="midnightblue" stroke="midnightblue" points="608.104,-267.565 617.134,-262.023 606.619,-260.725 608.104,-267.565"/>
</g>
<!-- Node33&#45;&gt;Node5 -->
<g id="edge57" class="edge"><title>Node33&#45;&gt;Node5</title>
<path fill="none" stroke="midnightblue" d="M676.117,-242.976C717.443,-213.94 849.495,-128.5 972.5,-128.5 972.5,-128.5 972.5,-128.5 1137.5,-128.5 1241.14,-128.5 1293.41,-85.6025 1369,-156.5 1406.42,-191.595 1417.12,-355.581 1419.74,-412.767"/>
<polygon fill="midnightblue" stroke="midnightblue" points="1416.26,-413.146 1420.18,-422.989 1423.25,-412.85 1416.26,-413.146"/>
</g>
<!-- Node33&#45;&gt;Node25 -->
<g id="edge58" class="edge"><title>Node33&#45;&gt;Node25</title>
<path fill="none" stroke="midnightblue" d="M719.057,-255.822C812.645,-261.368 999.112,-272.418 1087.23,-277.64"/>
<polygon fill="midnightblue" stroke="midnightblue" points="1087.04,-281.134 1097.23,-278.232 1087.45,-274.146 1087.04,-281.134"/>
</g>
<!-- Node34 -->
<g id="node34" class="node"><title>Node34</title>
<g id="a_node34"><a xlink:href="a00078.html#a562bd655fd329da0289d21ec36973322" target="_top" xlink:title="discovery_free_service">
<polygon fill="none" stroke="black" points="756,-214 756,-233 873,-233 873,-214 756,-214"/>
<text text-anchor="middle" x="814.5" y="-221" font-family="Helvetica,sans-Serif" font-size="10.00">discovery_free_service</text>
</a>
</g>
</g>
<!-- Node33&#45;&gt;Node34 -->
<g id="edge51" class="edge"><title>Node33&#45;&gt;Node34</title>
<path fill="none" stroke="midnightblue" d="M712.696,-242.924C725.994,-240.362 740.499,-237.567 754.256,-234.916"/>
<polygon fill="midnightblue" stroke="midnightblue" points="754.955,-238.345 764.112,-233.016 753.631,-231.472 754.955,-238.345"/>
</g>
<!-- Node34&#45;&gt;Node5 -->
<g id="edge55" class="edge"><title>Node34&#45;&gt;Node5</title>
<path fill="none" stroke="midnightblue" d="M833.133,-213.92C851.47,-204.546 881.313,-190.911 909,-185.5 1009.36,-165.885 1291.44,-130.858 1369,-197.5 1401.69,-225.59 1415.14,-361.132 1419.13,-412.61"/>
<polygon fill="midnightblue" stroke="midnightblue" points="1415.65,-413.048 1419.88,-422.764 1422.63,-412.535 1415.65,-413.048"/>
</g>
<!-- Node34&#45;&gt;Node25 -->
<g id="edge56" class="edge"><title>Node34&#45;&gt;Node25</title>
<path fill="none" stroke="midnightblue" d="M869.061,-233.04C929.988,-243.893 1028.6,-261.459 1087.24,-271.903"/>
<polygon fill="midnightblue" stroke="midnightblue" points="1086.89,-275.396 1097.35,-273.704 1088.12,-268.505 1086.89,-275.396"/>
</g>
<!-- Node35 -->
<g id="node35" class="node"><title>Node35</title>
<g id="a_node35"><a xlink:href="a00078.html#ad18143d06649d9220e4fd8d74dbdec79" target="_top" xlink:title="discovery_free_parameter">
<polygon fill="none" stroke="black" points="909,-195 909,-214 1038,-214 1038,-195 909,-195"/>
<text text-anchor="middle" x="973.5" y="-202" font-family="Helvetica,sans-Serif" font-size="10.00">discovery_free_parameter</text>
</a>
</g>
</g>
<!-- Node34&#45;&gt;Node35 -->
<g id="edge52" class="edge"><title>Node34&#45;&gt;Node35</title>
<path fill="none" stroke="midnightblue" d="M873.07,-216.533C881.435,-215.52 890.143,-214.467 898.774,-213.422"/>
<polygon fill="midnightblue" stroke="midnightblue" points="899.338,-216.879 908.845,-212.203 898.497,-209.93 899.338,-216.879"/>
</g>
<!-- Node35&#45;&gt;Node5 -->
<g id="edge54" class="edge"><title>Node35&#45;&gt;Node5</title>
<path fill="none" stroke="midnightblue" d="M1034.27,-194.973C1119.23,-185.023 1275,-180.562 1369,-261.5 1413.95,-300.2 1420.48,-376.547 1420.91,-412.668"/>
<polygon fill="midnightblue" stroke="midnightblue" points="1417.41,-412.871 1420.87,-422.883 1424.41,-412.894 1417.41,-412.871"/>
</g>
<!-- Node35&#45;&gt;Node25 -->
<g id="edge53" class="edge"><title>Node35&#45;&gt;Node25</title>
<path fill="none" stroke="midnightblue" d="M1002.01,-214.02C1013.29,-218.151 1026.41,-223.244 1038,-228.5 1063.08,-239.868 1090.68,-254.833 1110.09,-265.789"/>
<polygon fill="midnightblue" stroke="midnightblue" points="1108.5,-268.908 1118.92,-270.812 1111.96,-262.824 1108.5,-268.908"/>
</g>
<!-- Node36&#45;&gt;Node5 -->
<g id="edge62" class="edge"><title>Node36&#45;&gt;Node5</title>
<path fill="none" stroke="midnightblue" d="M1349.45,-24.0086C1356.93,-27.4467 1363.89,-32.1275 1369,-38.4999 1415.92,-96.9947 1420.29,-340.276 1420.54,-412.316"/>
<polygon fill="midnightblue" stroke="midnightblue" points="1417.04,-412.697 1420.55,-422.693 1424.04,-412.69 1417.04,-412.697"/>
</g>
<!-- Node38 -->
<g id="node38" class="node"><title>Node38</title>
<g id="a_node38"><a xlink:href="a00076.html#a05bbc5573fc67fa53c2765cf7e5b1920" target="_top" xlink:title="daemon_free">
<polygon fill="none" stroke="black" points="471.5,-822 471.5,-841 544.5,-841 544.5,-822 471.5,-822"/>
<text text-anchor="middle" x="508" y="-829" font-family="Helvetica,sans-Serif" font-size="10.00">daemon_free</text>
</a>
</g>
</g>
<!-- Node37&#45;&gt;Node38 -->
<g id="edge65" class="edge"><title>Node37&#45;&gt;Node38</title>
<path fill="none" stroke="midnightblue" d="M130.131,-849.268C197.273,-846.102 376.487,-837.653 461.298,-833.655"/>
<polygon fill="midnightblue" stroke="midnightblue" points="461.579,-837.145 471.403,-833.178 461.249,-830.153 461.579,-837.145"/>
</g>
<!-- Node38&#45;&gt;Node5 -->
<g id="edge66" class="edge"><title>Node38&#45;&gt;Node5</title>
<path fill="none" stroke="midnightblue" d="M544.912,-824.083C601.677,-813.024 715.741,-793.5 813.5,-793.5 813.5,-793.5 813.5,-793.5 1137.5,-793.5 1242.67,-793.5 1296.33,-820.519 1369,-744.5 1409.36,-702.28 1418.21,-514.689 1420.04,-452.56"/>
<polygon fill="midnightblue" stroke="midnightblue" points="1423.55,-452.273 1420.32,-442.184 1416.55,-452.088 1423.55,-452.273"/>
</g>
</g>
</svg>
