<?xml version="1.0" encoding="UTF-8" standalone="no"?>
<!DOCTYPE svg PUBLIC "-//W3C//DTD SVG 1.1//EN"
 "http://www.w3.org/Graphics/SVG/1.1/DTD/svg11.dtd">
<!-- Generated by graphviz version 2.38.0 (20140413.2041)
 -->
<!-- Title: hpd_device_get_id Pages: 1 -->
<svg width="1990pt" height="215pt"
 viewBox="0.00 0.00 1990.00 214.63" xmlns="http://www.w3.org/2000/svg" xmlns:xlink="http://www.w3.org/1999/xlink">
<g id="graph0" class="graph" transform="scale(1 1) rotate(0) translate(4 210.628)">
<title>hpd_device_get_id</title>
<!-- Node1 -->
<g id="node1" class="node"><title>Node1</title>
<polygon fill="#bfbfbf" stroke="black" points="0,-92.1283 0,-111.128 98,-111.128 98,-92.1283 0,-92.1283"/>
<text text-anchor="middle" x="49" y="-99.1283" font-family="Helvetica,sans-Serif" font-size="10.00">hpd_device_get_id</text>
</g>
<!-- Node2 -->
<g id="node2" class="node"><title>Node2</title>
<g id="a_node2"><a xlink:href="a00014.html#a47420cd34ff6783c48a215b947bca110" target="_top" xlink:title="demo_app_on_device">
<polygon fill="none" stroke="black" points="135.5,-130.128 135.5,-149.128 246.5,-149.128 246.5,-130.128 135.5,-130.128"/>
<text text-anchor="middle" x="191" y="-137.128" font-family="Helvetica,sans-Serif" font-size="10.00">demo_app_on_device</text>
</a>
</g>
</g>
<!-- Node1&#45;&gt;Node2 -->
<g id="edge1" class="edge"><title>Node1&#45;&gt;Node2</title>
<path fill="none" stroke="midnightblue" d="M95.1176,-113.874C114.415,-119.112 136.612,-125.137 154.683,-130.042"/>
<polygon fill="midnightblue" stroke="midnightblue" points="95.8956,-110.459 85.3279,-111.217 94.0619,-117.215 95.8956,-110.459"/>
</g>
<!-- Node6 -->
<g id="node6" class="node"><title>Node6</title>
<g id="a_node6"><a xlink:href="a00014.html#add890f355b0e61ee1bcdd4f47a8964a1" target="_top" xlink:title="demo_app_on_change">
<polygon fill="none" stroke="black" points="134,-187.128 134,-206.128 248,-206.128 248,-187.128 134,-187.128"/>
<text text-anchor="middle" x="191" y="-194.128" font-family="Helvetica,sans-Serif" font-size="10.00">demo_app_on_change</text>
</a>
</g>
</g>
<!-- Node1&#45;&gt;Node6 -->
<g id="edge6" class="edge"><title>Node1&#45;&gt;Node6</title>
<path fill="none" stroke="midnightblue" d="M72.5086,-116.902C101.607,-136.647 151.424,-170.452 175.768,-186.971"/>
<polygon fill="midnightblue" stroke="midnightblue" points="74.4344,-113.979 64.1944,-111.26 70.5039,-119.771 74.4344,-113.979"/>
</g>
<!-- Node7 -->
<g id="node7" class="node"><title>Node7</title>
<g id="a_node7"><a xlink:href="a00095.html#ae30c92f3bb2ebffcbb82054ad60c1ac5" target="_top" xlink:title="hpd_rest_url_create">
<polygon fill="none" stroke="black" points="140,-54.1283 140,-73.1283 242,-73.1283 242,-54.1283 140,-54.1283"/>
<text text-anchor="middle" x="191" y="-61.1283" font-family="Helvetica,sans-Serif" font-size="10.00">hpd_rest_url_create</text>
</a>
</g>
</g>
<!-- Node1&#45;&gt;Node7 -->
<g id="edge8" class="edge"><title>Node1&#45;&gt;Node7</title>
<path fill="none" stroke="midnightblue" d="M95.1176,-89.3821C114.415,-84.1443 136.612,-78.1192 154.683,-73.2142"/>
<polygon fill="midnightblue" stroke="midnightblue" points="94.0619,-86.0419 85.3279,-92.0393 95.8956,-92.7975 94.0619,-86.0419"/>
</g>
<!-- Node10 -->
<g id="node10" class="node"><title>Node10</title>
<g id="a_node10"><a xlink:href="a00096.html#a41c2f37e46c89b97a3b4f5bb4e8ede49" target="_top" xlink:title="rest_json_add_device">
<polygon fill="none" stroke="black" points="589,-54.1283 589,-73.1283 700,-73.1283 700,-54.1283 589,-54.1283"/>
<text text-anchor="middle" x="644.5" y="-61.1283" font-family="Helvetica,sans-Serif" font-size="10.00">rest_json_add_device</text>
</a>
</g>
</g>
<!-- Node1&#45;&gt;Node10 -->
<g id="edge26" class="edge"><title>Node1&#45;&gt;Node10</title>
<path fill="none" stroke="midnightblue" d="M108.222,-102.614C202.179,-103.49 392.903,-102.314 553,-82.6283 570.209,-80.5122 589.005,-76.8 604.986,-73.215"/>
<polygon fill="midnightblue" stroke="midnightblue" points="108.106,-99.1122 98.0699,-102.507 108.033,-106.112 108.106,-99.1122"/>
</g>
<!-- Node20 -->
<g id="node20" class="node"><title>Node20</title>
<g id="a_node20"><a xlink:href="a00098.html#a1225e8ad884c053761d73179e1ee1855" target="_top" xlink:title="rest_xml_add_device">
<polygon fill="none" stroke="black" points="439,-16.1283 439,-35.1283 548,-35.1283 548,-16.1283 439,-16.1283"/>
<text text-anchor="middle" x="493.5" y="-23.1283" font-family="Helvetica,sans-Serif" font-size="10.00">rest_xml_add_device</text>
</a>
</g>
</g>
<!-- Node1&#45;&gt;Node20 -->
<g id="edge27" class="edge"><title>Node1&#45;&gt;Node20</title>
<path fill="none" stroke="midnightblue" d="M69.646,-85.3708C85.9622,-72.6158 110.262,-55.2906 134,-44.6283 242.135,3.94197 280.04,5.11261 398,-6.6283 416.651,-8.48464 437.07,-12.3534 454.14,-16.1184"/>
<polygon fill="midnightblue" stroke="midnightblue" points="67.0837,-82.9381 61.4571,-91.9154 71.4539,-88.4064 67.0837,-82.9381"/>
</g>
<!-- Node3 -->
<g id="node3" class="node"><title>Node3</title>
<g id="a_node3"><a xlink:href="a00014.html#a192157935b7f185b56921b919e981f3a" target="_top" xlink:title="demo_app_on_attach">
<polygon fill="none" stroke="black" points="286,-130.128 286,-149.128 396,-149.128 396,-130.128 286,-130.128"/>
<text text-anchor="middle" x="341" y="-137.128" font-family="Helvetica,sans-Serif" font-size="10.00">demo_app_on_attach</text>
</a>
</g>
</g>
<!-- Node2&#45;&gt;Node3 -->
<g id="edge2" class="edge"><title>Node2&#45;&gt;Node3</title>
<path fill="none" stroke="midnightblue" d="M256.936,-139.628C266.481,-139.628 276.23,-139.628 285.536,-139.628"/>
<polygon fill="midnightblue" stroke="midnightblue" points="256.689,-136.128 246.689,-139.628 256.689,-143.128 256.689,-136.128"/>
</g>
<!-- Node5 -->
<g id="node5" class="node"><title>Node5</title>
<g id="a_node5"><a xlink:href="a00014.html#a5bac6eb6e610cdc6e322879ee4eaf514" target="_top" xlink:title="demo_app_on_detach">
<polygon fill="none" stroke="black" points="285,-168.128 285,-187.128 397,-187.128 397,-168.128 285,-168.128"/>
<text text-anchor="middle" x="341" y="-175.128" font-family="Helvetica,sans-Serif" font-size="10.00">demo_app_on_detach</text>
</a>
</g>
</g>
<!-- Node2&#45;&gt;Node5 -->
<g id="edge4" class="edge"><title>Node2&#45;&gt;Node5</title>
<path fill="none" stroke="midnightblue" d="M239.173,-151.74C259.786,-157.033 283.609,-163.15 302.922,-168.108"/>
<polygon fill="midnightblue" stroke="midnightblue" points="239.903,-148.314 229.347,-149.217 238.162,-155.094 239.903,-148.314"/>
</g>
<!-- Node4 -->
<g id="node4" class="node"><title>Node4</title>
<g id="a_node4"><a xlink:href="a00014.html#aa8f03492cc097968d466bb5ea9a043d1" target="_top" xlink:title="demo_app_on_start">
<polygon fill="none" stroke="black" points="442.5,-168.128 442.5,-187.128 544.5,-187.128 544.5,-168.128 442.5,-168.128"/>
<text text-anchor="middle" x="493.5" y="-175.128" font-family="Helvetica,sans-Serif" font-size="10.00">demo_app_on_start</text>
</a>
</g>
</g>
<!-- Node3&#45;&gt;Node4 -->
<g id="edge3" class="edge"><title>Node3&#45;&gt;Node4</title>
<path fill="none" stroke="midnightblue" d="M389.685,-151.668C410.71,-156.977 435.067,-163.127 454.796,-168.108"/>
<polygon fill="midnightblue" stroke="midnightblue" points="390.53,-148.272 379.978,-149.217 388.816,-155.059 390.53,-148.272"/>
</g>
<!-- Node5&#45;&gt;Node4 -->
<g id="edge5" class="edge"><title>Node5&#45;&gt;Node4</title>
<path fill="none" stroke="midnightblue" d="M407.364,-177.628C419.073,-177.628 431.108,-177.628 442.307,-177.628"/>
<polygon fill="midnightblue" stroke="midnightblue" points="407.186,-174.128 397.186,-177.628 407.186,-181.128 407.186,-174.128"/>
</g>
<!-- Node6&#45;&gt;Node4 -->
<g id="edge7" class="edge"><title>Node6&#45;&gt;Node4</title>
<path fill="none" stroke="midnightblue" d="M258.121,-199.95C298.606,-201.16 351.413,-201.265 398,-196.628 416.651,-194.772 437.07,-190.903 454.14,-187.138"/>
<polygon fill="midnightblue" stroke="midnightblue" points="258.215,-196.451 248.105,-199.621 257.985,-203.447 258.215,-196.451"/>
</g>
<!-- Node8 -->
<g id="node8" class="node"><title>Node8</title>
<g id="a_node8"><a xlink:href="a00096.html#aa6c7dd70ed7b9b3a371a58ed6122b940" target="_top" xlink:title="rest_json_add_service">
<polygon fill="none" stroke="black" points="284,-54.1283 284,-73.1283 398,-73.1283 398,-54.1283 284,-54.1283"/>
<text text-anchor="middle" x="341" y="-61.1283" font-family="Helvetica,sans-Serif" font-size="10.00">rest_json_add_service</text>
</a>
</g>
</g>
<!-- Node7&#45;&gt;Node8 -->
<g id="edge9" class="edge"><title>Node7&#45;&gt;Node8</title>
<path fill="none" stroke="midnightblue" d="M252.357,-63.6283C262.765,-63.6283 273.545,-63.6283 283.837,-63.6283"/>
<polygon fill="midnightblue" stroke="midnightblue" points="252.106,-60.1284 242.106,-63.6283 252.106,-67.1284 252.106,-60.1284"/>
</g>
<!-- Node19 -->
<g id="node19" class="node"><title>Node19</title>
<g id="a_node19"><a xlink:href="a00098.html#a8a91d98306eb64c151d1c19465421c0c" target="_top" xlink:title="rest_xml_add_service">
<polygon fill="none" stroke="black" points="285,-16.1283 285,-35.1283 397,-35.1283 397,-16.1283 285,-16.1283"/>
<text text-anchor="middle" x="341" y="-23.1283" font-family="Helvetica,sans-Serif" font-size="10.00">rest_xml_add_service</text>
</a>
</g>
</g>
<!-- Node7&#45;&gt;Node19 -->
<g id="edge20" class="edge"><title>Node7&#45;&gt;Node19</title>
<path fill="none" stroke="midnightblue" d="M239.173,-51.5162C259.786,-46.2239 283.609,-40.107 302.922,-35.1483"/>
<polygon fill="midnightblue" stroke="midnightblue" points="238.162,-48.1623 229.347,-54.0393 239.903,-54.9424 238.162,-48.1623"/>
</g>
<!-- Node9 -->
<g id="node9" class="node"><title>Node9</title>
<g id="a_node9"><a xlink:href="a00096.html#acedf1d82686baa037179bbc8eff51293" target="_top" xlink:title="rest_json_add_services">
<polygon fill="none" stroke="black" points="434,-54.1283 434,-73.1283 553,-73.1283 553,-54.1283 434,-54.1283"/>
<text text-anchor="middle" x="493.5" y="-61.1283" font-family="Helvetica,sans-Serif" font-size="10.00">rest_json_add_services</text>
</a>
</g>
</g>
<!-- Node8&#45;&gt;Node9 -->
<g id="edge10" class="edge"><title>Node8&#45;&gt;Node9</title>
<path fill="none" stroke="midnightblue" d="M408.043,-63.6283C416.65,-63.6283 425.421,-63.6283 433.895,-63.6283"/>
<polygon fill="midnightblue" stroke="midnightblue" points="408.041,-60.1284 398.041,-63.6283 408.041,-67.1284 408.041,-60.1284"/>
</g>
<!-- Node9&#45;&gt;Node10 -->
<g id="edge11" class="edge"><title>Node9&#45;&gt;Node10</title>
<path fill="none" stroke="midnightblue" d="M563.652,-63.6283C572.128,-63.6283 580.697,-63.6283 588.917,-63.6283"/>
<polygon fill="midnightblue" stroke="midnightblue" points="563.389,-60.1284 553.389,-63.6283 563.389,-67.1284 563.389,-60.1284"/>
</g>
<!-- Node11 -->
<g id="node11" class="node"><title>Node11</title>
<g id="a_node11"><a xlink:href="a00096.html#ad6d08cc22d78268f5dc0b229af37c54c" target="_top" xlink:title="rest_json_add_devices">
<polygon fill="none" stroke="black" points="736,-54.1283 736,-73.1283 852,-73.1283 852,-54.1283 736,-54.1283"/>
<text text-anchor="middle" x="794" y="-61.1283" font-family="Helvetica,sans-Serif" font-size="10.00">rest_json_add_devices</text>
</a>
</g>
</g>
<!-- Node10&#45;&gt;Node11 -->
<g id="edge12" class="edge"><title>Node10&#45;&gt;Node11</title>
<path fill="none" stroke="midnightblue" d="M710.252,-63.6283C718.744,-63.6283 727.398,-63.6283 735.753,-63.6283"/>
<polygon fill="midnightblue" stroke="midnightblue" points="710.005,-60.1284 700.004,-63.6283 710.004,-67.1284 710.005,-60.1284"/>
</g>
<!-- Node12 -->
<g id="node12" class="node"><title>Node12</title>
<g id="a_node12"><a xlink:href="a00096.html#a640b87b4cf374466c27940092542bbec" target="_top" xlink:title="rest_json_add_adapter">
<polygon fill="none" stroke="black" points="898.5,-54.1283 898.5,-73.1283 1013.5,-73.1283 1013.5,-54.1283 898.5,-54.1283"/>
<text text-anchor="middle" x="956" y="-61.1283" font-family="Helvetica,sans-Serif" font-size="10.00">rest_json_add_adapter</text>
</a>
</g>
</g>
<!-- Node11&#45;&gt;Node12 -->
<g id="edge13" class="edge"><title>Node11&#45;&gt;Node12</title>
<path fill="none" stroke="midnightblue" d="M862.641,-63.6283C874.535,-63.6283 886.802,-63.6283 898.357,-63.6283"/>
<polygon fill="midnightblue" stroke="midnightblue" points="862.312,-60.1284 852.312,-63.6283 862.312,-67.1284 862.312,-60.1284"/>
</g>
<!-- Node13 -->
<g id="node13" class="node"><title>Node13</title>
<g id="a_node13"><a xlink:href="a00096.html#a99b3728ca81ef813ed208afd6de9a9b3" target="_top" xlink:title="rest_json_add_adapters">
<polygon fill="none" stroke="black" points="1077.5,-54.1283 1077.5,-73.1283 1197.5,-73.1283 1197.5,-54.1283 1077.5,-54.1283"/>
<text text-anchor="middle" x="1137.5" y="-61.1283" font-family="Helvetica,sans-Serif" font-size="10.00">rest_json_add_adapters</text>
</a>
</g>
</g>
<!-- Node12&#45;&gt;Node13 -->
<g id="edge14" class="edge"><title>Node12&#45;&gt;Node13</title>
<path fill="none" stroke="midnightblue" d="M1023.94,-63.6283C1041.46,-63.6283 1060.21,-63.6283 1077.29,-63.6283"/>
<polygon fill="midnightblue" stroke="midnightblue" points="1023.79,-60.1284 1013.79,-63.6283 1023.79,-67.1284 1023.79,-60.1284"/>
</g>
<!-- Node14 -->
<g id="node14" class="node"><title>Node14</title>
<g id="a_node14"><a xlink:href="a00096.html#a28e31077cb0239c2f21c335da42223e2" target="_top" xlink:title="rest_json_add_configuration">
<polygon fill="none" stroke="black" points="1251,-54.1283 1251,-73.1283 1389,-73.1283 1389,-54.1283 1251,-54.1283"/>
<text text-anchor="middle" x="1320" y="-61.1283" font-family="Helvetica,sans-Serif" font-size="10.00">rest_json_add_configuration</text>
</a>
</g>
</g>
<!-- Node13&#45;&gt;Node14 -->
<g id="edge15" class="edge"><title>Node13&#45;&gt;Node14</title>
<path fill="none" stroke="midnightblue" d="M1207.78,-63.6283C1221.95,-63.6283 1236.86,-63.6283 1250.99,-63.6283"/>
<polygon fill="midnightblue" stroke="midnightblue" points="1207.6,-60.1284 1197.6,-63.6283 1207.6,-67.1284 1207.6,-60.1284"/>
</g>
<!-- Node15 -->
<g id="node15" class="node"><title>Node15</title>
<g id="a_node15"><a xlink:href="a00097.html#aeb80ec3253d248a129513864cdc53817" target="_top" xlink:title="hpd_rest_json_get_configuration">
<polygon fill="none" stroke="black" points="1425,-54.1283 1425,-73.1283 1582,-73.1283 1582,-54.1283 1425,-54.1283"/>
<text text-anchor="middle" x="1503.5" y="-61.1283" font-family="Helvetica,sans-Serif" font-size="10.00">hpd_rest_json_get_configuration</text>
</a>
</g>
</g>
<!-- Node14&#45;&gt;Node15 -->
<g id="edge16" class="edge"><title>Node14&#45;&gt;Node15</title>
<path fill="none" stroke="midnightblue" d="M1399.33,-63.6283C1407.8,-63.6283 1416.41,-63.6283 1424.87,-63.6283"/>
<polygon fill="midnightblue" stroke="midnightblue" points="1399.1,-60.1284 1389.1,-63.6283 1399.1,-67.1284 1399.1,-60.1284"/>
</g>
<!-- Node16 -->
<g id="node16" class="node"><title>Node16</title>
<g id="a_node16"><a xlink:href="a00034.html#ac0f2724b4617f1adb53492f1a57a4e4b" target="_top" xlink:title="rest_reply_devices">
<polygon fill="none" stroke="black" points="1618,-35.1283 1618,-54.1283 1716,-54.1283 1716,-35.1283 1618,-35.1283"/>
<text text-anchor="middle" x="1667" y="-42.1283" font-family="Helvetica,sans-Serif" font-size="10.00">rest_reply_devices</text>
</a>
</g>
</g>
<!-- Node15&#45;&gt;Node16 -->
<g id="edge17" class="edge"><title>Node15&#45;&gt;Node16</title>
<path fill="none" stroke="midnightblue" d="M1592.62,-53.2617C1601.29,-52.2418 1609.84,-51.2354 1617.88,-50.2899"/>
<polygon fill="midnightblue" stroke="midnightblue" points="1591.93,-49.8177 1582.41,-54.4622 1592.75,-56.7697 1591.93,-49.8177"/>
</g>
<!-- Node17 -->
<g id="node17" class="node"><title>Node17</title>
<g id="a_node17"><a xlink:href="a00034.html#a2731aca6e6807e771bcf9c94dbec968c" target="_top" xlink:title="rest_on_req_hdr_cmpl">
<polygon fill="none" stroke="black" points="1752,-35.1283 1752,-54.1283 1865,-54.1283 1865,-35.1283 1752,-35.1283"/>
<text text-anchor="middle" x="1808.5" y="-42.1283" font-family="Helvetica,sans-Serif" font-size="10.00">rest_on_req_hdr_cmpl</text>
</a>
</g>
</g>
<!-- Node16&#45;&gt;Node17 -->
<g id="edge18" class="edge"><title>Node16&#45;&gt;Node17</title>
<path fill="none" stroke="midnightblue" d="M1726.17,-44.6283C1734.63,-44.6283 1743.32,-44.6283 1751.72,-44.6283"/>
<polygon fill="midnightblue" stroke="midnightblue" points="1726.01,-41.1284 1716.01,-44.6283 1726.01,-48.1284 1726.01,-41.1284"/>
</g>
<!-- Node18 -->
<g id="node18" class="node"><title>Node18</title>
<g id="a_node18"><a xlink:href="a00034.html#a02090c3feb19ea4c6e1fa9b5e6392752" target="_top" xlink:title="rest_on_create">
<polygon fill="none" stroke="black" points="1901,-35.1283 1901,-54.1283 1982,-54.1283 1982,-35.1283 1901,-35.1283"/>
<text text-anchor="middle" x="1941.5" y="-42.1283" font-family="Helvetica,sans-Serif" font-size="10.00">rest_on_create</text>
</a>
</g>
</g>
<!-- Node17&#45;&gt;Node18 -->
<g id="edge19" class="edge"><title>Node17&#45;&gt;Node18</title>
<path fill="none" stroke="midnightblue" d="M1875.25,-44.6283C1883.96,-44.6283 1892.66,-44.6283 1900.75,-44.6283"/>
<polygon fill="midnightblue" stroke="midnightblue" points="1875.06,-41.1284 1865.06,-44.6283 1875.06,-48.1284 1875.06,-41.1284"/>
</g>
<!-- Node19&#45;&gt;Node20 -->
<g id="edge21" class="edge"><title>Node19&#45;&gt;Node20</title>
<path fill="none" stroke="midnightblue" d="M407.198,-25.6283C417.756,-25.6283 428.583,-25.6283 438.827,-25.6283"/>
<polygon fill="midnightblue" stroke="midnightblue" points="407.186,-22.1284 397.186,-25.6283 407.186,-29.1284 407.186,-22.1284"/>
</g>
<!-- Node21 -->
<g id="node21" class="node"><title>Node21</title>
<g id="a_node21"><a xlink:href="a00098.html#a8a0a8fd989454b355fdaf3da1f129187" target="_top" xlink:title="rest_xml_add_adapter">
<polygon fill="none" stroke="black" points="737.5,-16.1283 737.5,-35.1283 850.5,-35.1283 850.5,-16.1283 737.5,-16.1283"/>
<text text-anchor="middle" x="794" y="-23.1283" font-family="Helvetica,sans-Serif" font-size="10.00">rest_xml_add_adapter</text>
</a>
</g>
</g>
<!-- Node20&#45;&gt;Node21 -->
<g id="edge22" class="edge"><title>Node20&#45;&gt;Node21</title>
<path fill="none" stroke="midnightblue" d="M558.219,-25.6283C611.46,-25.6283 686.621,-25.6283 737.445,-25.6283"/>
<polygon fill="midnightblue" stroke="midnightblue" points="558.211,-22.1284 548.211,-25.6283 558.211,-29.1284 558.211,-22.1284"/>
</g>
<!-- Node22 -->
<g id="node22" class="node"><title>Node22</title>
<g id="a_node22"><a xlink:href="a00098.html#aca121ba7e7fc75cee1159bd654566d5e" target="_top" xlink:title="rest_xml_add_configuration">
<polygon fill="none" stroke="black" points="888,-16.1283 888,-35.1283 1024,-35.1283 1024,-16.1283 888,-16.1283"/>
<text text-anchor="middle" x="956" y="-23.1283" font-family="Helvetica,sans-Serif" font-size="10.00">rest_xml_add_configuration</text>
</a>
</g>
</g>
<!-- Node21&#45;&gt;Node22 -->
<g id="edge23" class="edge"><title>Node21&#45;&gt;Node22</title>
<path fill="none" stroke="midnightblue" d="M860.516,-25.6283C869.494,-25.6283 878.724,-25.6283 887.733,-25.6283"/>
<polygon fill="midnightblue" stroke="midnightblue" points="860.511,-22.1284 850.511,-25.6283 860.511,-29.1284 860.511,-22.1284"/>
</g>
<!-- Node23 -->
<g id="node23" class="node"><title>Node23</title>
<g id="a_node23"><a xlink:href="a00099.html#a5f45c0580c596d22c41495ecc83e6e85" target="_top" xlink:title="hpd_rest_xml_get_configuration">
<polygon fill="none" stroke="black" points="1060,-16.1283 1060,-35.1283 1215,-35.1283 1215,-16.1283 1060,-16.1283"/>
<text text-anchor="middle" x="1137.5" y="-23.1283" font-family="Helvetica,sans-Serif" font-size="10.00">hpd_rest_xml_get_configuration</text>
</a>
</g>
</g>
<!-- Node22&#45;&gt;Node23 -->
<g id="edge24" class="edge"><title>Node22&#45;&gt;Node23</title>
<path fill="none" stroke="midnightblue" d="M1034.31,-25.6283C1042.77,-25.6283 1051.38,-25.6283 1059.82,-25.6283"/>
<polygon fill="midnightblue" stroke="midnightblue" points="1034.09,-22.1284 1024.09,-25.6283 1034.09,-29.1284 1034.09,-22.1284"/>
</g>
<!-- Node23&#45;&gt;Node16 -->
<g id="edge25" class="edge"><title>Node23&#45;&gt;Node16</title>
<path fill="none" stroke="midnightblue" d="M1225.48,-28.7611C1337.69,-32.8028 1529.01,-39.6939 1617.93,-42.8968"/>
<polygon fill="midnightblue" stroke="midnightblue" points="1225.32,-25.2534 1215.2,-28.3911 1225.07,-32.2488 1225.32,-25.2534"/>
</g>
</g>
</svg>
