<?xml version="1.0" encoding="UTF-8" standalone="no"?>
<!DOCTYPE svg PUBLIC "-//W3C//DTD SVG 1.1//EN"
 "http://www.w3.org/Graphics/SVG/1.1/DTD/svg11.dtd">
<!-- Generated by graphviz version 2.38.0 (20140413.2041)
 -->
<!-- Title: on_header Pages: 1 -->
<svg width="207pt" height="78pt"
 viewBox="0.00 0.00 207.00 77.50" xmlns="http://www.w3.org/2000/svg" xmlns:xlink="http://www.w3.org/1999/xlink">
<g id="graph0" class="graph" transform="scale(1 1) rotate(0) translate(4 73.5)">
<title>on_header</title>
<!-- Node1 -->
<g id="node1" class="node"><title>Node1</title>
<polygon fill="#bfbfbf" stroke="black" points="0,-28 0,-47 62,-47 62,-28 0,-28"/>
<text text-anchor="middle" x="31" y="-35" font-family="Helvetica,sans-Serif" font-size="10.00">on_header</text>
</g>
<!-- Node2 -->
<g id="node2" class="node"><title>Node2</title>
<g id="a_node2"><a xlink:href="a00036.html#a3e96f52ce0e4bae61dc59be20e37b500" target="_top" xlink:title="curl_ev_init">
<polygon fill="none" stroke="black" points="115.5,-50 115.5,-69 181.5,-69 181.5,-50 115.5,-50"/>
<text text-anchor="middle" x="148.5" y="-57" font-family="Helvetica,sans-Serif" font-size="10.00">curl_ev_init</text>
</a>
</g>
</g>
<!-- Node1&#45;&gt;Node2 -->
<g id="edge1" class="edge"><title>Node1&#45;&gt;Node2</title>
<path fill="none" stroke="midnightblue" d="M71.9879,-45.1167C86.0992,-47.8046 101.778,-50.791 115.176,-53.343"/>
<polygon fill="midnightblue" stroke="midnightblue" points="72.5231,-41.6558 62.0448,-43.2228 71.2132,-48.5322 72.5231,-41.6558"/>
</g>
<!-- Node3 -->
<g id="node3" class="node"><title>Node3</title>
<g id="a_node3"><a xlink:href="a00036.html#a8668389b4eb074757c46b228b1a14e77" target="_top" xlink:title="curl_ev_set_header\l_callback">
<polygon fill="none" stroke="black" points="98,-0.5 98,-30.5 199,-30.5 199,-0.5 98,-0.5"/>
<text text-anchor="start" x="106" y="-18.5" font-family="Helvetica,sans-Serif" font-size="10.00">curl_ev_set_header</text>
<text text-anchor="middle" x="148.5" y="-7.5" font-family="Helvetica,sans-Serif" font-size="10.00">_callback</text>
</a>
</g>
</g>
<!-- Node1&#45;&gt;Node3 -->
<g id="edge2" class="edge"><title>Node1&#45;&gt;Node3</title>
<path fill="none" stroke="midnightblue" d="M71.934,-29.8935C80.3113,-28.2979 89.243,-26.5966 97.9233,-24.9432"/>
<polygon fill="midnightblue" stroke="midnightblue" points="71.2132,-26.4678 62.0448,-31.7772 72.5231,-33.3442 71.2132,-26.4678"/>
</g>
</g>
</svg>
