<?xml version="1.0" encoding="UTF-8" standalone="no"?>
<!DOCTYPE svg PUBLIC "-//W3C//DTD SVG 1.1//EN"
 "http://www.w3.org/Graphics/SVG/1.1/DTD/svg11.dtd">
<!-- Generated by graphviz version 2.38.0 (20140413.2041)
 -->
<!-- Title: http_request_get_context Pages: 1 -->
<!--zoomable 678 -->
<svg id="main" version="1.1" xmlns="http://www.w3.org/2000/svg" xmlns:xlink="http://www.w3.org/1999/xlink" xml:space="preserve" onload="init(evt)">
<style type="text/css"><![CDATA[
.edge:hover path { stroke: red; }
.edge:hover polygon { stroke: red; fill: red; }
]]></style>
<script type="text/javascript"><![CDATA[
var edges = document.getElementsByTagName('g');
if (edges && edges.length) {
  for (var i=0;i<edges.length;i++) {
    if (edges[i].id.substr(0,4)=='edge') {
      edges[i].setAttribute('class','edge');
    }
  }
}
]]></script>
        <defs>
                <circle id="rim" cx="0" cy="0" r="7"/>
                <circle id="rim2" cx="0" cy="0" r="3.5"/>
                <g id="zoomPlus">
                        <use xlink:href="#rim" fill="#404040">
                                <set attributeName="fill" to="#808080" begin="zoomplus.mouseover" end="zoomplus.mouseout"/>
                        </use>
                        <path d="M-4,0h8M0,-4v8" fill="none" stroke="white" stroke-width="1.5" pointer-events="none"/>
                </g>
                <g id="zoomMin">
                        <use xlink:href="#rim" fill="#404040">
                                <set attributeName="fill" to="#808080" begin="zoomminus.mouseover" end="zoomminus.mouseout"/>
                        </use>
                        <path d="M-4,0h8" fill="none" stroke="white" stroke-width="1.5" pointer-events="none"/>
                </g>
                <g id="dirArrow">
                        <path fill="none" stroke="white" stroke-width="1.5" d="M0,-3.0v7 M-2.5,-0.5L0,-3.0L2.5,-0.5"/>
                </g>
               <g id="resetDef">
                       <use xlink:href="#rim2" fill="#404040">
                               <set attributeName="fill" to="#808080" begin="reset.mouseover" end="reset.mouseout"/>
                       </use>
               </g>
        </defs>

<script type="text/javascript">
var viewWidth = 1279;
var viewHeight = 678;
var sectionId = 'dynsection-18';
</script>
<script xlink:href="svgpan.js"/>
<svg id="graph" class="graph">
<g id="viewport">
<title>http_request_get_context</title>
<!-- Node1 -->
<g id="node1" class="node"><title>Node1</title>
<polygon fill="#bfbfbf" stroke="black" points="0,-499.312 0,-518.312 127,-518.312 127,-499.312 0,-499.312"/>
<text text-anchor="middle" x="63.5" y="-506.312" font-family="Helvetica,sans-Serif" font-size="10.00">http_request_get_context</text>
</g>
<!-- Node2 -->
<g id="node2" class="node"><title>Node2</title>
<g id="a_node2"><a xlink:href="a00017.html#a3b100e8d7e1214067cf1b90ad577745c" target="_top" xlink:title="Create the reponse and constructs the status line. ">
<polygon fill="none" stroke="black" points="163,-493.812 163,-523.812 267,-523.812 267,-493.812 163,-493.812"/>
<text text-anchor="start" x="171" y="-511.812" font-family="Helvetica,sans-Serif" font-size="10.00">hpd_httpd_response</text>
<text text-anchor="middle" x="215" y="-500.812" font-family="Helvetica,sans-Serif" font-size="10.00">_create</text>
</a>
</g>
</g>
<!-- Node1&#45;&gt;Node2 -->
<g id="edge1" class="edge"><title>Node1&#45;&gt;Node2</title>
<path fill="none" stroke="midnightblue" d="M137.099,-508.812C145.711,-508.812 154.36,-508.812 162.59,-508.812"/>
<polygon fill="midnightblue" stroke="midnightblue" points="137.035,-505.312 127.035,-508.812 137.035,-512.312 137.035,-505.312"/>
</g>
<!-- Node3 -->
<g id="node3" class="node"><title>Node3</title>
<g id="a_node3"><a xlink:href="a00034.html#a2eb873ac7e610c2dff8e49d216d3aff8" target="_top" xlink:title="handle_request">
<polygon fill="none" stroke="black" points="303,-615.312 303,-634.312 386,-634.312 386,-615.312 303,-615.312"/>
<text text-anchor="middle" x="344.5" y="-622.312" font-family="Helvetica,sans-Serif" font-size="10.00">handle_request</text>
</a>
</g>
</g>
<!-- Node2&#45;&gt;Node3 -->
<g id="edge2" class="edge"><title>Node2&#45;&gt;Node3</title>
<path fill="none" stroke="midnightblue" d="M234.69,-531.943C251.331,-551.666 277.003,-580.04 303,-600.812 309.641,-606.118 317.57,-611.074 324.645,-615.088"/>
<polygon fill="midnightblue" stroke="midnightblue" points="237.223,-529.515 228.136,-524.068 231.842,-533.993 237.223,-529.515"/>
</g>
<!-- Node5 -->
<g id="node5" class="node"><title>Node5</title>
<g id="a_node5"><a xlink:href="a00025.html#afb08e2b5fbac2394319e24be39ac931a" target="_top" xlink:title="reply">
<polygon fill="none" stroke="black" points="325.5,-422.312 325.5,-441.312 363.5,-441.312 363.5,-422.312 325.5,-422.312"/>
<text text-anchor="middle" x="344.5" y="-429.312" font-family="Helvetica,sans-Serif" font-size="10.00">reply</text>
</a>
</g>
</g>
<!-- Node2&#45;&gt;Node5 -->
<g id="edge4" class="edge"><title>Node2&#45;&gt;Node5</title>
<path fill="none" stroke="midnightblue" d="M249.751,-488.43C274.914,-473.233 308.155,-453.158 327.545,-441.448"/>
<polygon fill="midnightblue" stroke="midnightblue" points="247.637,-485.617 240.886,-493.783 251.255,-491.61 247.637,-485.617"/>
</g>
<!-- Node20 -->
<g id="node20" class="node"><title>Node20</title>
<g id="a_node20"><a xlink:href="a00025.html#abccd0d79ed3acf405337a07b4572d223" target="_top" xlink:title="on_response">
<polygon fill="none" stroke="black" points="640,-42.3123 640,-61.3123 712,-61.3123 712,-42.3123 640,-42.3123"/>
<text text-anchor="middle" x="676" y="-49.3123" font-family="Helvetica,sans-Serif" font-size="10.00">on_response</text>
</a>
</g>
</g>
<!-- Node2&#45;&gt;Node20 -->
<g id="edge48" class="edge"><title>Node2&#45;&gt;Node20</title>
<path fill="none" stroke="midnightblue" d="M220.41,-483.47C234.634,-409.945 286.511,-195.42 422,-94.8123 486.923,-46.6036 586.96,-45.139 639.686,-48.3693"/>
<polygon fill="midnightblue" stroke="midnightblue" points="216.905,-483.172 218.511,-493.644 223.787,-484.456 216.905,-483.172"/>
</g>
<!-- Node29 -->
<g id="node29" class="node"><title>Node29</title>
<g id="a_node29"><a xlink:href="a00025.html#a144860c2e3dfe3d8d9fd021968bbd8ff" target="_top" xlink:title="reply_devices">
<polygon fill="none" stroke="black" points="637.5,-612.312 637.5,-631.312 714.5,-631.312 714.5,-612.312 637.5,-612.312"/>
<text text-anchor="middle" x="676" y="-619.312" font-family="Helvetica,sans-Serif" font-size="10.00">reply_devices</text>
</a>
</g>
</g>
<!-- Node2&#45;&gt;Node29 -->
<g id="edge47" class="edge"><title>Node2&#45;&gt;Node29</title>
<path fill="none" stroke="midnightblue" d="M277.212,-523.882C373.601,-547.612 557.932,-592.992 637.214,-612.51"/>
<polygon fill="midnightblue" stroke="midnightblue" points="277.864,-520.438 267.317,-521.446 276.19,-527.235 277.864,-520.438"/>
</g>
<!-- Node4 -->
<g id="node4" class="node"><title>Node4</title>
<g id="a_node4"><a xlink:href="a00034.html#a0ddf1224851353fc92bfbff6f499fa97" target="_top" xlink:title="main">
<polygon fill="none" stroke="black" points="479,-615.312 479,-634.312 517,-634.312 517,-615.312 479,-615.312"/>
<text text-anchor="middle" x="498" y="-622.312" font-family="Helvetica,sans-Serif" font-size="10.00">main</text>
</a>
</g>
</g>
<!-- Node3&#45;&gt;Node4 -->
<g id="edge3" class="edge"><title>Node3&#45;&gt;Node4</title>
<path fill="none" stroke="midnightblue" d="M396.301,-624.812C424.732,-624.812 458.443,-624.812 478.754,-624.812"/>
<polygon fill="midnightblue" stroke="midnightblue" points="396.099,-621.312 386.099,-624.812 396.099,-628.312 396.099,-621.312"/>
</g>
<!-- Node6 -->
<g id="node6" class="node"><title>Node6</title>
<g id="a_node6"><a xlink:href="a00025.html#a78818d54ff3643716564aad97c70c7e2" target="_top" xlink:title="reply_internal_server\l_error">
<polygon fill="none" stroke="black" points="444.5,-416.812 444.5,-446.812 551.5,-446.812 551.5,-416.812 444.5,-416.812"/>
<text text-anchor="start" x="452.5" y="-434.812" font-family="Helvetica,sans-Serif" font-size="10.00">reply_internal_server</text>
<text text-anchor="middle" x="498" y="-423.812" font-family="Helvetica,sans-Serif" font-size="10.00">_error</text>
</a>
</g>
</g>
<!-- Node5&#45;&gt;Node6 -->
<g id="edge5" class="edge"><title>Node5&#45;&gt;Node6</title>
<path fill="none" stroke="midnightblue" d="M373.939,-431.812C393.677,-431.812 420.562,-431.812 444.169,-431.812"/>
<polygon fill="midnightblue" stroke="midnightblue" points="373.774,-428.312 363.774,-431.812 373.774,-435.312 373.774,-428.312"/>
</g>
<!-- Node5&#45;&gt;Node20 -->
<g id="edge46" class="edge"><title>Node5&#45;&gt;Node20</title>
<path fill="none" stroke="midnightblue" d="M350.543,-412.376C360.292,-377.223 384.163,-301.728 422,-247.812 487.054,-155.113 513.296,-134.749 610,-75.8123 619.656,-69.9276 630.984,-65.1286 641.455,-61.4115"/>
<polygon fill="midnightblue" stroke="midnightblue" points="347.093,-411.728 347.873,-422.294 353.852,-413.547 347.093,-411.728"/>
</g>
<!-- Node27 -->
<g id="node27" class="node"><title>Node27</title>
<g id="a_node27"><a xlink:href="a00025.html#a8352457dd87933b3ad1f5d5746480c61" target="_top" xlink:title="reply_not_found">
<polygon fill="none" stroke="black" points="455,-501.312 455,-520.312 541,-520.312 541,-501.312 455,-501.312"/>
<text text-anchor="middle" x="498" y="-508.312" font-family="Helvetica,sans-Serif" font-size="10.00">reply_not_found</text>
</a>
</g>
</g>
<!-- Node5&#45;&gt;Node27 -->
<g id="edge34" class="edge"><title>Node5&#45;&gt;Node27</title>
<path fill="none" stroke="midnightblue" d="M372.644,-445.966C403.266,-461.935 452.235,-487.469 478.661,-501.249"/>
<polygon fill="midnightblue" stroke="midnightblue" points="374.26,-442.862 363.774,-441.342 371.023,-449.069 374.26,-442.862"/>
</g>
<!-- Node28 -->
<g id="node28" class="node"><title>Node28</title>
<g id="a_node28"><a xlink:href="a00025.html#a06c43484d9f060f5ad9edc943c1b4623" target="_top" xlink:title="reply_unsupported_media_type">
<polygon fill="none" stroke="black" points="422,-350.312 422,-369.312 574,-369.312 574,-350.312 422,-350.312"/>
<text text-anchor="middle" x="498" y="-357.312" font-family="Helvetica,sans-Serif" font-size="10.00">reply_unsupported_media_type</text>
</a>
</g>
</g>
<!-- Node5&#45;&gt;Node28 -->
<g id="edge37" class="edge"><title>Node5&#45;&gt;Node28</title>
<path fill="none" stroke="midnightblue" d="M372.826,-418.826C402.728,-404.615 449.963,-382.167 476.731,-369.445"/>
<polygon fill="midnightblue" stroke="midnightblue" points="371.304,-415.674 363.774,-423.127 374.309,-421.996 371.304,-415.674"/>
</g>
<!-- Node30 -->
<g id="node30" class="node"><title>Node30</title>
<g id="a_node30"><a xlink:href="a00025.html#a5340d41fbbc57c84fec47b6ba6879a07" target="_top" xlink:title="reply_bad_request">
<polygon fill="none" stroke="black" points="450,-257.312 450,-276.312 546,-276.312 546,-257.312 450,-257.312"/>
<text text-anchor="middle" x="498" y="-264.312" font-family="Helvetica,sans-Serif" font-size="10.00">reply_bad_request</text>
</a>
</g>
</g>
<!-- Node5&#45;&gt;Node30 -->
<g id="edge42" class="edge"><title>Node5&#45;&gt;Node30</title>
<path fill="none" stroke="midnightblue" d="M359.372,-414.35C374.355,-395.722 399.155,-365.553 422,-340.812 444.088,-316.891 471.72,-290.459 486.507,-276.573"/>
<polygon fill="midnightblue" stroke="midnightblue" points="356.554,-412.27 353.039,-422.265 362.02,-416.643 356.554,-412.27"/>
</g>
<!-- Node31 -->
<g id="node31" class="node"><title>Node31</title>
<g id="a_node31"><a xlink:href="a00025.html#af80e97c85acb30ce80480d39ae70fdac" target="_top" xlink:title="reply_method_not_allowed">
<polygon fill="none" stroke="black" points="610,-650.312 610,-669.312 742,-669.312 742,-650.312 610,-650.312"/>
<text text-anchor="middle" x="676" y="-657.312" font-family="Helvetica,sans-Serif" font-size="10.00">reply_method_not_allowed</text>
</a>
</g>
</g>
<!-- Node5&#45;&gt;Node31 -->
<g id="edge44" class="edge"><title>Node5&#45;&gt;Node31</title>
<path fill="none" stroke="midnightblue" d="M356.196,-450.032C369.444,-471.359 393.754,-506.697 422,-529.812 480.452,-577.646 512.418,-562.082 574,-605.812 592.195,-618.733 590.722,-629.573 610,-640.812 616.602,-644.661 624.042,-647.781 631.468,-650.293"/>
<polygon fill="midnightblue" stroke="midnightblue" points="359.088,-448.052 350.912,-441.313 353.102,-451.679 359.088,-448.052"/>
</g>
<!-- Node7 -->
<g id="node7" class="node"><title>Node7</title>
<g id="a_node7"><a xlink:href="a00025.html#a65f3fe01ba50f1473cad1a4418cfdf09" target="_top" xlink:title="on_free">
<polygon fill="none" stroke="black" points="651.5,-270.312 651.5,-289.312 700.5,-289.312 700.5,-270.312 651.5,-270.312"/>
<text text-anchor="middle" x="676" y="-277.312" font-family="Helvetica,sans-Serif" font-size="10.00">on_free</text>
</a>
</g>
</g>
<!-- Node6&#45;&gt;Node7 -->
<g id="edge6" class="edge"><title>Node6&#45;&gt;Node7</title>
<path fill="none" stroke="midnightblue" d="M530.943,-410.91C544.579,-401.566 560.442,-390.123 574,-378.812 610.388,-348.455 649.316,-307.602 666.271,-289.333"/>
<polygon fill="midnightblue" stroke="midnightblue" points="528.67,-408.222 522.35,-416.725 532.593,-414.02 528.67,-408.222"/>
</g>
<!-- Node18 -->
<g id="node18" class="node"><title>Node18</title>
<g id="a_node18"><a xlink:href="a00025.html#a74ba52adbe4c46e9a9c33649e3b75243" target="_top" xlink:title="on_req_cmpl">
<polygon fill="none" stroke="black" points="1103,-137.312 1103,-156.312 1175,-156.312 1175,-137.312 1103,-137.312"/>
<text text-anchor="middle" x="1139" y="-144.312" font-family="Helvetica,sans-Serif" font-size="10.00">on_req_cmpl</text>
</a>
</g>
</g>
<!-- Node6&#45;&gt;Node18 -->
<g id="edge33" class="edge"><title>Node6&#45;&gt;Node18</title>
<path fill="none" stroke="midnightblue" d="M562.003,-429.346C701.569,-423.337 1027.52,-406.09 1066,-374.812 1136.22,-317.732 1139.06,-192.53 1138.35,-156.619"/>
<polygon fill="midnightblue" stroke="midnightblue" points="561.725,-425.854 551.883,-429.776 562.023,-432.848 561.725,-425.854"/>
</g>
<!-- Node6&#45;&gt;Node20 -->
<g id="edge20" class="edge"><title>Node6&#45;&gt;Node20</title>
<path fill="none" stroke="midnightblue" d="M538.228,-411.135C551.19,-402.634 564.666,-391.726 574,-378.812 606.12,-334.374 593.858,-313.213 610,-260.812 633.716,-183.824 662.729,-91.0173 672.001,-61.3893"/>
<polygon fill="midnightblue" stroke="midnightblue" points="536.036,-408.376 529.394,-416.63 539.734,-414.32 536.036,-408.376"/>
</g>
<!-- Node23 -->
<g id="node23" class="node"><title>Node23</title>
<g id="a_node23"><a xlink:href="a00025.html#a1d92ec8021d08d20067d78e70d770511" target="_top" xlink:title="on_req_begin">
<polygon fill="none" stroke="black" points="1102,-460.312 1102,-479.312 1176,-479.312 1176,-460.312 1102,-460.312"/>
<text text-anchor="middle" x="1139" y="-467.312" font-family="Helvetica,sans-Serif" font-size="10.00">on_req_begin</text>
</a>
</g>
</g>
<!-- Node6&#45;&gt;Node23 -->
<g id="edge25" class="edge"><title>Node6&#45;&gt;Node23</title>
<path fill="none" stroke="midnightblue" d="M561.835,-440.627C577.539,-442.584 594.363,-444.473 610,-445.812 794.453,-461.611 1016.11,-467.414 1101.77,-469.164"/>
<polygon fill="midnightblue" stroke="midnightblue" points="562.063,-437.128 551.701,-439.335 561.178,-444.071 562.063,-437.128"/>
</g>
<!-- Node24 -->
<g id="node24" class="node"><title>Node24</title>
<g id="a_node24"><a xlink:href="a00025.html#a5c8c7b4d085339a6ba0fb0e3d50cef93" target="_top" xlink:title="on_req_url_cmpl">
<polygon fill="none" stroke="black" points="632,-536.312 632,-555.312 720,-555.312 720,-536.312 632,-536.312"/>
<text text-anchor="middle" x="676" y="-543.312" font-family="Helvetica,sans-Serif" font-size="10.00">on_req_url_cmpl</text>
</a>
</g>
</g>
<!-- Node6&#45;&gt;Node24 -->
<g id="edge27" class="edge"><title>Node6&#45;&gt;Node24</title>
<path fill="none" stroke="midnightblue" d="M526.166,-453.331C540.457,-464.705 558.236,-478.941 574,-491.812 590.133,-504.985 591.969,-511.387 610,-521.812 620.102,-527.653 631.88,-532.513 642.614,-536.297"/>
<polygon fill="midnightblue" stroke="midnightblue" points="528.203,-450.479 518.197,-446.997 523.848,-455.959 528.203,-450.479"/>
</g>
<!-- Node25 -->
<g id="node25" class="node"><title>Node25</title>
<g id="a_node25"><a xlink:href="a00025.html#abd6f4422cb70766aae33a18dc6b6cb74" target="_top" xlink:title="on_req_hdr_cmpl">
<polygon fill="none" stroke="black" points="802,-574.312 802,-593.312 893,-593.312 893,-574.312 802,-574.312"/>
<text text-anchor="middle" x="847.5" y="-581.312" font-family="Helvetica,sans-Serif" font-size="10.00">on_req_hdr_cmpl</text>
</a>
</g>
</g>
<!-- Node6&#45;&gt;Node25 -->
<g id="edge29" class="edge"><title>Node6&#45;&gt;Node25</title>
<path fill="none" stroke="midnightblue" d="M537.968,-451.507C559.022,-461.78 585.63,-474.177 610,-483.812 667.379,-506.498 685.342,-502.38 742,-526.812 774.829,-540.969 811.011,-562.023 831.021,-574.187"/>
<polygon fill="midnightblue" stroke="midnightblue" points="539.231,-448.228 528.713,-446.954 536.141,-454.509 539.231,-448.228"/>
</g>
<!-- Node26 -->
<g id="node26" class="node"><title>Node26</title>
<g id="a_node26"><a xlink:href="a00025.html#ae022dba8bfed1279999755534594fc36" target="_top" xlink:title="on_req_body">
<polygon fill="none" stroke="black" points="1103,-422.312 1103,-441.312 1175,-441.312 1175,-422.312 1103,-422.312"/>
<text text-anchor="middle" x="1139" y="-429.312" font-family="Helvetica,sans-Serif" font-size="10.00">on_req_body</text>
</a>
</g>
</g>
<!-- Node6&#45;&gt;Node26 -->
<g id="edge31" class="edge"><title>Node6&#45;&gt;Node26</title>
<path fill="none" stroke="midnightblue" d="M561.958,-431.812C694.645,-431.812 999.3,-431.812 1102.83,-431.812"/>
<polygon fill="midnightblue" stroke="midnightblue" points="561.564,-428.312 551.564,-431.812 561.564,-435.312 561.564,-428.312"/>
</g>
<!-- Node8 -->
<g id="node8" class="node"><title>Node8</title>
<g id="a_node8"><a xlink:href="a00011.html#a7d6f0b9bdced07007cfc6513f3a35d22" target="_top" xlink:title="discovery_set_adapter_data">
<polygon fill="none" stroke="black" points="778,-270.312 778,-289.312 917,-289.312 917,-270.312 778,-270.312"/>
<text text-anchor="middle" x="847.5" y="-277.312" font-family="Helvetica,sans-Serif" font-size="10.00">discovery_set_adapter_data</text>
</a>
</g>
</g>
<!-- Node7&#45;&gt;Node8 -->
<g id="edge7" class="edge"><title>Node7&#45;&gt;Node8</title>
<path fill="none" stroke="midnightblue" d="M710.617,-279.812C729.823,-279.812 754.625,-279.812 777.772,-279.812"/>
<polygon fill="midnightblue" stroke="midnightblue" points="710.568,-276.312 700.568,-279.812 710.568,-283.312 710.568,-276.312"/>
</g>
<!-- Node10 -->
<g id="node10" class="node"><title>Node10</title>
<g id="a_node10"><a xlink:href="a00011.html#a2da392ca7e69d9bde8b356d9cf917ff3" target="_top" xlink:title="discovery_set_device_data">
<polygon fill="none" stroke="black" points="780,-232.312 780,-251.312 915,-251.312 915,-232.312 780,-232.312"/>
<text text-anchor="middle" x="847.5" y="-239.312" font-family="Helvetica,sans-Serif" font-size="10.00">discovery_set_device_data</text>
</a>
</g>
</g>
<!-- Node7&#45;&gt;Node10 -->
<g id="edge9" class="edge"><title>Node7&#45;&gt;Node10</title>
<path fill="none" stroke="midnightblue" d="M710.605,-272.279C737.365,-266.279 774.993,-257.843 803.872,-251.369"/>
<polygon fill="midnightblue" stroke="midnightblue" points="709.56,-268.926 700.568,-274.529 711.092,-275.756 709.56,-268.926"/>
</g>
<!-- Node12 -->
<g id="node12" class="node"><title>Node12</title>
<g id="a_node12"><a xlink:href="a00011.html#a4c01b35f7a53d7d3b4fcdc53cd3a275a" target="_top" xlink:title="discovery_set_service_data">
<polygon fill="none" stroke="black" points="778.5,-194.312 778.5,-213.312 916.5,-213.312 916.5,-194.312 778.5,-194.312"/>
<text text-anchor="middle" x="847.5" y="-201.312" font-family="Helvetica,sans-Serif" font-size="10.00">discovery_set_service_data</text>
</a>
</g>
</g>
<!-- Node7&#45;&gt;Node12 -->
<g id="edge11" class="edge"><title>Node7&#45;&gt;Node12</title>
<path fill="none" stroke="midnightblue" d="M700.17,-264.578C720.129,-251.99 750.052,-234.372 778,-222.812 786.781,-219.18 796.477,-216.014 805.743,-213.362"/>
<polygon fill="midnightblue" stroke="midnightblue" points="698.021,-261.798 691.485,-270.136 701.794,-267.694 698.021,-261.798"/>
</g>
<!-- Node14 -->
<g id="node14" class="node"><title>Node14</title>
<g id="a_node14"><a xlink:href="a00063.html#a89ff40606fb6eb1f5a0969a5b65ead1d" target="_top" xlink:title="event_set_listener_data">
<polygon fill="none" stroke="black" points="787.5,-308.312 787.5,-327.312 907.5,-327.312 907.5,-308.312 787.5,-308.312"/>
<text text-anchor="middle" x="847.5" y="-315.312" font-family="Helvetica,sans-Serif" font-size="10.00">event_set_listener_data</text>
</a>
</g>
</g>
<!-- Node7&#45;&gt;Node14 -->
<g id="edge13" class="edge"><title>Node7&#45;&gt;Node14</title>
<path fill="none" stroke="midnightblue" d="M710.605,-287.346C737.365,-293.345 774.993,-301.781 803.872,-308.255"/>
<polygon fill="midnightblue" stroke="midnightblue" points="711.092,-283.868 700.568,-285.096 709.56,-290.699 711.092,-283.868"/>
</g>
<!-- Node16 -->
<g id="node16" class="node"><title>Node16</title>
<g id="a_node16"><a xlink:href="a00069.html#af2e70ea5267e6e806be3509474d049e0" target="_top" xlink:title="request_set_request_data">
<polygon fill="none" stroke="black" points="783,-346.312 783,-365.312 912,-365.312 912,-346.312 783,-346.312"/>
<text text-anchor="middle" x="847.5" y="-353.312" font-family="Helvetica,sans-Serif" font-size="10.00">request_set_request_data</text>
</a>
</g>
</g>
<!-- Node7&#45;&gt;Node16 -->
<g id="edge15" class="edge"><title>Node7&#45;&gt;Node16</title>
<path fill="none" stroke="midnightblue" d="M700.17,-295.047C720.129,-307.634 750.052,-325.253 778,-336.812 786.781,-340.444 796.477,-343.61 805.743,-346.262"/>
<polygon fill="midnightblue" stroke="midnightblue" points="701.794,-291.931 691.485,-289.489 698.021,-297.827 701.794,-291.931"/>
</g>
<!-- Node7&#45;&gt;Node18 -->
<g id="edge19" class="edge"><title>Node7&#45;&gt;Node18</title>
<path fill="none" stroke="midnightblue" d="M689.985,-261.86C707.274,-239.516 740.114,-202.187 778,-184.812 835.341,-158.516 1024.13,-150.094 1102.95,-147.684"/>
<polygon fill="midnightblue" stroke="midnightblue" points="686.964,-260.054 683.752,-270.15 692.559,-264.26 686.964,-260.054"/>
</g>
<!-- Node9 -->
<g id="node9" class="node"><title>Node9</title>
<g id="a_node9"><a xlink:href="a00060.html#ae4435821a3fd887ed393c05dacd2a79d" target="_top" xlink:title="hpd_adapter_set_data">
<polygon fill="none" stroke="black" points="953,-270.312 953,-289.312 1066,-289.312 1066,-270.312 953,-270.312"/>
<text text-anchor="middle" x="1009.5" y="-277.312" font-family="Helvetica,sans-Serif" font-size="10.00">hpd_adapter_set_data</text>
</a>
</g>
</g>
<!-- Node8&#45;&gt;Node9 -->
<g id="edge8" class="edge"><title>Node8&#45;&gt;Node9</title>
<path fill="none" stroke="midnightblue" d="M927.344,-279.812C935.941,-279.812 944.557,-279.812 952.792,-279.812"/>
<polygon fill="midnightblue" stroke="midnightblue" points="927.283,-276.312 917.283,-279.812 927.283,-283.312 927.283,-276.312"/>
</g>
<!-- Node11 -->
<g id="node11" class="node"><title>Node11</title>
<g id="a_node11"><a xlink:href="a00060.html#a082d6cbdcf9bc2051d3372e9275b7c9f" target="_top" xlink:title="hpd_device_set_data">
<polygon fill="none" stroke="black" points="955,-232.312 955,-251.312 1064,-251.312 1064,-232.312 955,-232.312"/>
<text text-anchor="middle" x="1009.5" y="-239.312" font-family="Helvetica,sans-Serif" font-size="10.00">hpd_device_set_data</text>
</a>
</g>
</g>
<!-- Node10&#45;&gt;Node11 -->
<g id="edge10" class="edge"><title>Node10&#45;&gt;Node11</title>
<path fill="none" stroke="midnightblue" d="M925.699,-241.812C935.599,-241.812 945.557,-241.812 954.965,-241.812"/>
<polygon fill="midnightblue" stroke="midnightblue" points="925.427,-238.312 915.427,-241.812 925.427,-245.312 925.427,-238.312"/>
</g>
<!-- Node13 -->
<g id="node13" class="node"><title>Node13</title>
<g id="a_node13"><a xlink:href="a00060.html#a3974326e212a829eef3dc2a4f554ccf0" target="_top" xlink:title="hpd_service_set_data">
<polygon fill="none" stroke="black" points="953.5,-194.312 953.5,-213.312 1065.5,-213.312 1065.5,-194.312 953.5,-194.312"/>
<text text-anchor="middle" x="1009.5" y="-201.312" font-family="Helvetica,sans-Serif" font-size="10.00">hpd_service_set_data</text>
</a>
</g>
</g>
<!-- Node12&#45;&gt;Node13 -->
<g id="edge12" class="edge"><title>Node12&#45;&gt;Node13</title>
<path fill="none" stroke="midnightblue" d="M926.911,-203.812C935.882,-203.812 944.879,-203.812 953.451,-203.812"/>
<polygon fill="midnightblue" stroke="midnightblue" points="926.819,-200.312 916.819,-203.812 926.818,-207.312 926.819,-200.312"/>
</g>
<!-- Node15 -->
<g id="node15" class="node"><title>Node15</title>
<g id="a_node15"><a xlink:href="a00064.html#a6ed81ad49352be61e2a8710624396e93" target="_top" xlink:title="hpd_listener_set_data">
<polygon fill="none" stroke="black" points="953.5,-308.312 953.5,-327.312 1065.5,-327.312 1065.5,-308.312 953.5,-308.312"/>
<text text-anchor="middle" x="1009.5" y="-315.312" font-family="Helvetica,sans-Serif" font-size="10.00">hpd_listener_set_data</text>
</a>
</g>
</g>
<!-- Node14&#45;&gt;Node15 -->
<g id="edge14" class="edge"><title>Node14&#45;&gt;Node15</title>
<path fill="none" stroke="midnightblue" d="M917.923,-317.812C929.765,-317.812 941.923,-317.812 953.332,-317.812"/>
<polygon fill="midnightblue" stroke="midnightblue" points="917.624,-314.312 907.624,-317.812 917.623,-321.312 917.624,-314.312"/>
</g>
<!-- Node17 -->
<g id="node17" class="node"><title>Node17</title>
<g id="a_node17"><a xlink:href="a00070.html#ac9eeff8f3e494a62942c2ebed8f05cd9" target="_top" xlink:title="hpd_request_set_data">
<polygon fill="none" stroke="black" points="953,-346.312 953,-365.312 1066,-365.312 1066,-346.312 953,-346.312"/>
<text text-anchor="middle" x="1009.5" y="-353.312" font-family="Helvetica,sans-Serif" font-size="10.00">hpd_request_set_data</text>
</a>
</g>
</g>
<!-- Node16&#45;&gt;Node17 -->
<g id="edge16" class="edge"><title>Node16&#45;&gt;Node17</title>
<path fill="none" stroke="midnightblue" d="M922.356,-355.812C932.586,-355.812 942.951,-355.812 952.777,-355.812"/>
<polygon fill="midnightblue" stroke="midnightblue" points="922.196,-352.312 912.196,-355.812 922.196,-359.312 922.196,-352.312"/>
</g>
<!-- Node17&#45;&gt;Node18 -->
<g id="edge17" class="edge"><title>Node17&#45;&gt;Node18</title>
<path fill="none" stroke="midnightblue" d="M1060.72,-341.177C1062.59,-339.846 1064.37,-338.395 1066,-336.812 1119.98,-284.55 1133.98,-187.723 1137.16,-156.67"/>
<polygon fill="midnightblue" stroke="midnightblue" points="1058.85,-338.214 1051.97,-346.272 1062.38,-344.263 1058.85,-338.214"/>
</g>
<!-- Node19 -->
<g id="node19" class="node"><title>Node19</title>
<g id="a_node19"><a xlink:href="a00025.html#ad079431c7eba97c5dd5e4e202cdf6102" target="_top" xlink:title="on_create">
<polygon fill="none" stroke="black" points="1212,-460.312 1212,-479.312 1271,-479.312 1271,-460.312 1212,-460.312"/>
<text text-anchor="middle" x="1241.5" y="-467.312" font-family="Helvetica,sans-Serif" font-size="10.00">on_create</text>
</a>
</g>
</g>
<!-- Node18&#45;&gt;Node19 -->
<g id="edge18" class="edge"><title>Node18&#45;&gt;Node19</title>
<path fill="none" stroke="midnightblue" d="M1145.99,-166.051C1165,-227.153 1223.57,-415.407 1237.5,-460.183"/>
<polygon fill="midnightblue" stroke="midnightblue" points="1149.32,-164.988 1143.01,-156.479 1142.64,-167.067 1149.32,-164.988"/>
</g>
<!-- Node20&#45;&gt;Node18 -->
<g id="edge24" class="edge"><title>Node20&#45;&gt;Node18</title>
<path fill="none" stroke="midnightblue" d="M711.586,-38.758C782.987,-14.122 949.733,31.2707 1066,-32.8123 1107.62,-55.7501 1128.51,-113.993 1135.37,-137.126"/>
<polygon fill="midnightblue" stroke="midnightblue" points="710.025,-35.5972 701.761,-42.2267 712.356,-42.198 710.025,-35.5972"/>
</g>
<!-- Node21 -->
<g id="node21" class="node"><title>Node21</title>
<g id="a_node21"><a xlink:href="a00069.html#af762dc3db213f4a84ba5fe3ab36a78fe" target="_top" xlink:title="request_alloc_request">
<polygon fill="none" stroke="black" points="791.5,-42.3123 791.5,-61.3123 903.5,-61.3123 903.5,-42.3123 791.5,-42.3123"/>
<text text-anchor="middle" x="847.5" y="-49.3123" font-family="Helvetica,sans-Serif" font-size="10.00">request_alloc_request</text>
</a>
</g>
</g>
<!-- Node20&#45;&gt;Node21 -->
<g id="edge21" class="edge"><title>Node20&#45;&gt;Node21</title>
<path fill="none" stroke="midnightblue" d="M722.184,-51.8123C743.453,-51.8123 769.008,-51.8123 791.402,-51.8123"/>
<polygon fill="midnightblue" stroke="midnightblue" points="722.121,-48.3124 712.121,-51.8123 722.12,-55.3124 722.121,-48.3124"/>
</g>
<!-- Node22 -->
<g id="node22" class="node"><title>Node22</title>
<g id="a_node22"><a xlink:href="a00070.html#ac8e7c21db1c80443994e79d29eae8286" target="_top" xlink:title="[hpd_request_t functions] ">
<polygon fill="none" stroke="black" points="962,-42.3123 962,-61.3123 1057,-61.3123 1057,-42.3123 962,-42.3123"/>
<text text-anchor="middle" x="1009.5" y="-49.3123" font-family="Helvetica,sans-Serif" font-size="10.00">hpd_request_alloc</text>
</a>
</g>
</g>
<!-- Node21&#45;&gt;Node22 -->
<g id="edge22" class="edge"><title>Node21&#45;&gt;Node22</title>
<path fill="none" stroke="midnightblue" d="M913.969,-51.8123C930.025,-51.8123 946.889,-51.8123 961.855,-51.8123"/>
<polygon fill="midnightblue" stroke="midnightblue" points="913.563,-48.3124 903.563,-51.8123 913.563,-55.3124 913.563,-48.3124"/>
</g>
<!-- Node22&#45;&gt;Node18 -->
<g id="edge23" class="edge"><title>Node22&#45;&gt;Node18</title>
<path fill="none" stroke="midnightblue" d="M1047.39,-65.4694C1053.81,-68.4837 1060.27,-71.9479 1066,-75.8123 1092.49,-93.6753 1117.71,-122.025 1130.07,-136.922"/>
<polygon fill="midnightblue" stroke="midnightblue" points="1048.64,-62.198 1038.08,-61.381 1045.83,-68.607 1048.64,-62.198"/>
</g>
<!-- Node23&#45;&gt;Node19 -->
<g id="edge26" class="edge"><title>Node23&#45;&gt;Node19</title>
<path fill="none" stroke="midnightblue" d="M1186.35,-469.812C1195.04,-469.812 1203.88,-469.812 1211.84,-469.812"/>
<polygon fill="midnightblue" stroke="midnightblue" points="1186.28,-466.312 1176.28,-469.812 1186.28,-473.312 1186.28,-466.312"/>
</g>
<!-- Node24&#45;&gt;Node19 -->
<g id="edge28" class="edge"><title>Node24&#45;&gt;Node19</title>
<path fill="none" stroke="midnightblue" d="M730.259,-542.758C822.025,-536.824 1015.55,-521.355 1176,-488.812 1187.9,-486.399 1200.77,-482.811 1211.87,-479.401"/>
<polygon fill="midnightblue" stroke="midnightblue" points="729.869,-539.276 720.11,-543.402 730.312,-546.262 729.869,-539.276"/>
</g>
<!-- Node25&#45;&gt;Node19 -->
<g id="edge30" class="edge"><title>Node25&#45;&gt;Node19</title>
<path fill="none" stroke="midnightblue" d="M903.284,-587.742C971.234,-590.211 1088.76,-586.446 1176,-540.812 1203.59,-526.378 1225.29,-495.147 1234.98,-479.36"/>
<polygon fill="midnightblue" stroke="midnightblue" points="903.361,-584.242 893.222,-587.317 903.065,-591.236 903.361,-584.242"/>
</g>
<!-- Node26&#45;&gt;Node19 -->
<g id="edge32" class="edge"><title>Node26&#45;&gt;Node19</title>
<path fill="none" stroke="midnightblue" d="M1175.08,-445.077C1188.28,-450.066 1203.01,-455.636 1215.15,-460.226"/>
<polygon fill="midnightblue" stroke="midnightblue" points="1175.95,-441.664 1165.36,-441.401 1173.48,-448.212 1175.95,-441.664"/>
</g>
<!-- Node27&#45;&gt;Node24 -->
<g id="edge35" class="edge"><title>Node27&#45;&gt;Node24</title>
<path fill="none" stroke="midnightblue" d="M551.124,-521.178C576.875,-526.299 607.571,-532.403 631.965,-537.254"/>
<polygon fill="midnightblue" stroke="midnightblue" points="551.647,-517.713 541.156,-519.196 550.282,-524.579 551.647,-517.713"/>
</g>
<!-- Node27&#45;&gt;Node25 -->
<g id="edge36" class="edge"><title>Node27&#45;&gt;Node25</title>
<path fill="none" stroke="midnightblue" d="M548.217,-523.555C557.054,-526.677 565.992,-530.414 574,-534.812 592.255,-544.838 590.716,-556.943 610,-564.812 672.928,-590.492 752.985,-590.962 801.949,-588.051"/>
<polygon fill="midnightblue" stroke="midnightblue" points="549.31,-520.23 538.717,-520.407 547.108,-526.875 549.31,-520.23"/>
</g>
<!-- Node28&#45;&gt;Node18 -->
<g id="edge41" class="edge"><title>Node28&#45;&gt;Node18</title>
<path fill="none" stroke="midnightblue" d="M515.851,-343.128C536.955,-322.633 574.646,-287.325 610,-260.812 680.443,-207.985 694.089,-182.492 778,-155.812 892.246,-119.488 1037.32,-132.53 1102.94,-141.364"/>
<polygon fill="midnightblue" stroke="midnightblue" points="513.315,-340.713 508.615,-350.209 518.21,-345.717 513.315,-340.713"/>
</g>
<!-- Node28&#45;&gt;Node20 -->
<g id="edge40" class="edge"><title>Node28&#45;&gt;Node20</title>
<path fill="none" stroke="midnightblue" d="M521.099,-343.918C538.209,-330.406 561.099,-309.471 574,-285.812 611.39,-217.243 572.032,-182.063 610,-113.812 622.434,-91.462 645.613,-72.3032 660.667,-61.4194"/>
<polygon fill="midnightblue" stroke="midnightblue" points="518.587,-341.432 512.762,-350.282 522.834,-346.996 518.587,-341.432"/>
</g>
<!-- Node28&#45;&gt;Node29 -->
<g id="edge38" class="edge"><title>Node28&#45;&gt;Node29</title>
<path fill="none" stroke="midnightblue" d="M533.257,-373.964C547.868,-381.643 563.855,-392.527 574,-406.812 615.701,-465.533 573.129,-502.944 610,-564.812 622.217,-585.312 644.333,-602.336 659.338,-612.293"/>
<polygon fill="midnightblue" stroke="midnightblue" points="534.447,-370.649 523.928,-369.378 531.358,-376.931 534.447,-370.649"/>
</g>
<!-- Node29&#45;&gt;Node25 -->
<g id="edge39" class="edge"><title>Node29&#45;&gt;Node25</title>
<path fill="none" stroke="midnightblue" d="M724.584,-611.145C749.505,-605.557 779.774,-598.772 803.916,-593.359"/>
<polygon fill="midnightblue" stroke="midnightblue" points="723.61,-607.776 714.618,-613.379 725.141,-614.606 723.61,-607.776"/>
</g>
<!-- Node30&#45;&gt;Node18 -->
<g id="edge43" class="edge"><title>Node30&#45;&gt;Node18</title>
<path fill="none" stroke="midnightblue" d="M517.831,-250.117C534.122,-234.991 557.578,-211.504 574,-187.812 594.835,-157.753 578.993,-133.209 610,-113.812 695.908,-60.0705 966.997,-92.2049 1066,-113.812 1086.55,-118.298 1108.26,-129.209 1122.39,-137.263"/>
<polygon fill="midnightblue" stroke="midnightblue" points="515.071,-247.897 510.04,-257.222 519.787,-253.07 515.071,-247.897"/>
</g>
<!-- Node31&#45;&gt;Node25 -->
<g id="edge45" class="edge"><title>Node31&#45;&gt;Node25</title>
<path fill="none" stroke="midnightblue" d="M724.764,-647.135C730.636,-645.201 736.501,-643.085 742,-640.812 775.233,-627.079 811.566,-605.682 831.432,-593.383"/>
<polygon fill="midnightblue" stroke="midnightblue" points="723.437,-643.882 714.94,-650.211 725.529,-650.563 723.437,-643.882"/>
</g>
</g>
</svg>
        <g id="navigator" transform="translate(0 0)" fill="#404254">
                <rect fill="#f2f5e9" fill-opacity="0.5" stroke="#606060" stroke-width=".5" x="0" y="0" width="60" height="60"/>
                <use id="zoomplus" xlink:href="#zoomPlus" x="17" y="9" onmousedown="handleZoom(evt,'in')"/>
                <use id="zoomminus" xlink:href="#zoomMin" x="42" y="9" onmousedown="handleZoom(evt,'out')"/>
                <use id="reset" xlink:href="#resetDef" x="30" y="36" onmousedown="handleReset()"/>
                <g id="arrowUp" xlink:href="#dirArrow" transform="translate(30 24)" onmousedown="handlePan(0,-1)">
                  <use xlink:href="#rim" fill="#404040">
                        <set attributeName="fill" to="#808080" begin="arrowUp.mouseover" end="arrowUp.mouseout"/>
                  </use>
                  <path fill="none" stroke="white" stroke-width="1.5" d="M0,-3.0v7 M-2.5,-0.5L0,-3.0L2.5,-0.5"/>
                </g>
                <g id="arrowRight" xlink:href="#dirArrow" transform="rotate(90) translate(36 -43)" onmousedown="handlePan(1,0)">
                  <use xlink:href="#rim" fill="#404040">
                        <set attributeName="fill" to="#808080" begin="arrowRight.mouseover" end="arrowRight.mouseout"/>
                  </use>
                  <path fill="none" stroke="white" stroke-width="1.5" d="M0,-3.0v7 M-2.5,-0.5L0,-3.0L2.5,-0.5"/>
                </g>
                <g id="arrowDown" xlink:href="#dirArrow" transform="rotate(180) translate(-30 -48)" onmousedown="handlePan(0,1)">
                  <use xlink:href="#rim" fill="#404040">
                        <set attributeName="fill" to="#808080" begin="arrowDown.mouseover" end="arrowDown.mouseout"/>
                  </use>
                  <path fill="none" stroke="white" stroke-width="1.5" d="M0,-3.0v7 M-2.5,-0.5L0,-3.0L2.5,-0.5"/>
                </g>
                <g id="arrowLeft" xlink:href="#dirArrow" transform="rotate(270) translate(-36 17)" onmousedown="handlePan(-1,0)">
                  <use xlink:href="#rim" fill="#404040">
                        <set attributeName="fill" to="#808080" begin="arrowLeft.mouseover" end="arrowLeft.mouseout"/>
                  </use>
                  <path fill="none" stroke="white" stroke-width="1.5" d="M0,-3.0v7 M-2.5,-0.5L0,-3.0L2.5,-0.5"/>
                </g>
        </g>
        <svg viewBox="0 0 15 15" width="100%" height="30px" preserveAspectRatio="xMaxYMin meet">
         <g id="arrow_out" transform="scale(0.3 0.3)">
          <a xlink:href="a00016_a228cee03d1174febd4a716e0285542c2_icgraph_org.svg" target="_base">
           <rect id="button" ry="5" rx="5" y="6" x="6" height="38" width="38"
                fill="#f2f5e9" fill-opacity="0.5" stroke="#606060" stroke-width="1.0"/>
           <path id="arrow"
             d="M 11.500037,31.436501 C 11.940474,20.09759 22.043105,11.32322 32.158766,21.979434 L 37.068811,17.246167 C 37.068811,17.246167 37.088388,32 37.088388,32 L 22.160133,31.978069 C 22.160133,31.978069 26.997745,27.140456 26.997745,27.140456 C 18.528582,18.264221 13.291696,25.230495 11.500037,31.436501 z"
             style="fill:#404040;"/>
          </a>
         </g>
        </svg>
</svg>
