<?xml version="1.0" encoding="UTF-8" standalone="no"?>
<!DOCTYPE svg PUBLIC "-//W3C//DTD SVG 1.1//EN"
 "http://www.w3.org/Graphics/SVG/1.1/DTD/svg11.dtd">
<!-- Generated by graphviz version 2.38.0 (20140413.2041)
 -->
<!-- Title: on_changed Pages: 1 -->
<!--zoomable 165 -->
<svg id="main" version="1.1" xmlns="http://www.w3.org/2000/svg" xmlns:xlink="http://www.w3.org/1999/xlink" xml:space="preserve" onload="init(evt)">
<style type="text/css"><![CDATA[
.edge:hover path { stroke: red; }
.edge:hover polygon { stroke: red; fill: red; }
]]></style>
<script type="text/javascript"><![CDATA[
var edges = document.getElementsByTagName('g');
if (edges && edges.length) {
  for (var i=0;i<edges.length;i++) {
    if (edges[i].id.substr(0,4)=='edge') {
      edges[i].setAttribute('class','edge');
    }
  }
}
]]></script>
        <defs>
                <circle id="rim" cx="0" cy="0" r="7"/>
                <circle id="rim2" cx="0" cy="0" r="3.5"/>
                <g id="zoomPlus">
                        <use xlink:href="#rim" fill="#404040">
                                <set attributeName="fill" to="#808080" begin="zoomplus.mouseover" end="zoomplus.mouseout"/>
                        </use>
                        <path d="M-4,0h8M0,-4v8" fill="none" stroke="white" stroke-width="1.5" pointer-events="none"/>
                </g>
                <g id="zoomMin">
                        <use xlink:href="#rim" fill="#404040">
                                <set attributeName="fill" to="#808080" begin="zoomminus.mouseover" end="zoomminus.mouseout"/>
                        </use>
                        <path d="M-4,0h8" fill="none" stroke="white" stroke-width="1.5" pointer-events="none"/>
                </g>
                <g id="dirArrow">
                        <path fill="none" stroke="white" stroke-width="1.5" d="M0,-3.0v7 M-2.5,-0.5L0,-3.0L2.5,-0.5"/>
                </g>
               <g id="resetDef">
                       <use xlink:href="#rim2" fill="#404040">
                               <set attributeName="fill" to="#808080" begin="reset.mouseover" end="reset.mouseout"/>
                       </use>
               </g>
        </defs>

<script type="text/javascript">
var viewWidth = 508;
var viewHeight = 165;
var sectionId = 'dynsection-26';
</script>
<script xlink:href="svgpan.js"/>
<svg id="graph" class="graph">
<g id="viewport">
<title>on_changed</title>
<!-- Node1 -->
<g id="node1" class="node"><title>Node1</title>
<polygon fill="#bfbfbf" stroke="black" points="0,-114.5 0,-133.5 69,-133.5 69,-114.5 0,-114.5"/>
<text text-anchor="middle" x="34.5" y="-121.5" font-family="Helvetica,sans-Serif" font-size="10.00">on_changed</text>
</g>
<!-- Node2 -->
<g id="node2" class="node"><title>Node2</title>
<g id="a_node2"><a xlink:href="a00006.html#adf46370d9c211c3be22966b4606ba9b0" target="_top" xlink:title="free">
<polygon fill="none" stroke="black" points="467,-76.5 467,-95.5 500,-95.5 500,-76.5 467,-76.5"/>
<text text-anchor="middle" x="483.5" y="-83.5" font-family="Helvetica,sans-Serif" font-size="10.00">free</text>
</a>
</g>
</g>
<!-- Node1&#45;&gt;Node2 -->
<g id="edge1" class="edge"><title>Node1&#45;&gt;Node2</title>
<path fill="none" stroke="midnightblue" d="M69.2707,-131.846C80.5716,-134.192 93.276,-136.528 105,-138 248.956,-156.071 296.387,-175.122 431,-121 442.553,-116.355 454.136,-108.804 463.383,-101.903"/>
<polygon fill="midnightblue" stroke="midnightblue" points="465.727,-104.513 471.456,-95.6009 461.419,-98.9955 465.727,-104.513"/>
</g>
<!-- Node3 -->
<g id="node3" class="node"><title>Node3</title>
<g id="a_node3"><a xlink:href="a00011.html#a8922de7d42124afa8ab5fd339fe695ee" target="_top" xlink:title="discovery_free_sid">
<polygon fill="none" stroke="black" points="203,-114.5 203,-133.5 301,-133.5 301,-114.5 203,-114.5"/>
<text text-anchor="middle" x="252" y="-121.5" font-family="Helvetica,sans-Serif" font-size="10.00">discovery_free_sid</text>
</a>
</g>
</g>
<!-- Node1&#45;&gt;Node3 -->
<g id="edge2" class="edge"><title>Node1&#45;&gt;Node3</title>
<path fill="none" stroke="midnightblue" d="M69.1719,-124C102.168,-124 153.128,-124 192.712,-124"/>
<polygon fill="midnightblue" stroke="midnightblue" points="192.772,-127.5 202.772,-124 192.772,-120.5 192.772,-127.5"/>
</g>
<!-- Node4 -->
<g id="node4" class="node"><title>Node4</title>
<g id="a_node4"><a xlink:href="a00075.html#a1ec3b1d4547e5080bcec544c877852da" target="_top" xlink:title="value_free">
<polygon fill="none" stroke="black" points="105,-76.5 105,-95.5 167,-95.5 167,-76.5 105,-76.5"/>
<text text-anchor="middle" x="136" y="-83.5" font-family="Helvetica,sans-Serif" font-size="10.00">value_free</text>
</a>
</g>
</g>
<!-- Node1&#45;&gt;Node4 -->
<g id="edge4" class="edge"><title>Node1&#45;&gt;Node4</title>
<path fill="none" stroke="midnightblue" d="M60.6081,-114.411C72.6277,-109.821 87.2147,-104.25 100.277,-99.2612"/>
<polygon fill="midnightblue" stroke="midnightblue" points="101.807,-102.423 109.9,-95.5859 99.3093,-95.8841 101.807,-102.423"/>
</g>
<!-- Node3&#45;&gt;Node2 -->
<g id="edge3" class="edge"><title>Node3&#45;&gt;Node2</title>
<path fill="none" stroke="midnightblue" d="M301.259,-119.229C337.229,-115.254 387.448,-108.816 431,-100 439.556,-98.268 448.79,-95.9145 457.044,-93.6316"/>
<polygon fill="midnightblue" stroke="midnightblue" points="458.197,-96.9425 466.85,-90.8298 456.274,-90.2119 458.197,-96.9425"/>
</g>
<!-- Node4&#45;&gt;Node2 -->
<g id="edge9" class="edge"><title>Node4&#45;&gt;Node2</title>
<path fill="none" stroke="midnightblue" d="M167.056,-86C233.963,-86 394.21,-86 456.818,-86"/>
<polygon fill="midnightblue" stroke="midnightblue" points="456.998,-89.5001 466.997,-86 456.997,-82.5001 456.998,-89.5001"/>
</g>
<!-- Node5 -->
<g id="node5" class="node"><title>Node5</title>
<g id="a_node5"><a xlink:href="a00046.html#a195d511a075f2349200563af1c5d1fd7" target="_top" xlink:title="hpd_map_free">
<polygon fill="none" stroke="black" points="213,-38.5 213,-57.5 291,-57.5 291,-38.5 213,-38.5"/>
<text text-anchor="middle" x="252" y="-45.5" font-family="Helvetica,sans-Serif" font-size="10.00">hpd_map_free</text>
</a>
</g>
</g>
<!-- Node4&#45;&gt;Node5 -->
<g id="edge5" class="edge"><title>Node4&#45;&gt;Node5</title>
<path fill="none" stroke="midnightblue" d="M165.767,-76.411C179.943,-71.6856 197.237,-65.9211 212.532,-60.8226"/>
<polygon fill="midnightblue" stroke="midnightblue" points="213.862,-64.0687 222.242,-57.5859 211.649,-57.4279 213.862,-64.0687"/>
</g>
<!-- Node5&#45;&gt;Node2 -->
<g id="edge8" class="edge"><title>Node5&#45;&gt;Node2</title>
<path fill="none" stroke="midnightblue" d="M291.09,-51.6705C327.297,-55.5044 383.17,-62.3179 431,-72 439.556,-73.732 448.79,-76.0855 457.044,-78.3684"/>
<polygon fill="midnightblue" stroke="midnightblue" points="456.274,-81.7881 466.85,-81.1702 458.197,-75.0575 456.274,-81.7881"/>
</g>
<!-- Node6 -->
<g id="node6" class="node"><title>Node6</title>
<g id="a_node6"><a xlink:href="a00022.html#ae1085dd4fd40466d18b02ec077ef4d6d" target="_top" xlink:title="hpd_map_remove">
<polygon fill="none" stroke="black" points="337,-0.5 337,-19.5 431,-19.5 431,-0.5 337,-0.5"/>
<text text-anchor="middle" x="384" y="-7.5" font-family="Helvetica,sans-Serif" font-size="10.00">hpd_map_remove</text>
</a>
</g>
</g>
<!-- Node5&#45;&gt;Node6 -->
<g id="edge6" class="edge"><title>Node5&#45;&gt;Node6</title>
<path fill="none" stroke="midnightblue" d="M285.804,-38.411C302.278,-33.5956 322.443,-27.7012 340.127,-22.532"/>
<polygon fill="midnightblue" stroke="midnightblue" points="341.59,-25.7511 350.206,-19.5859 339.626,-19.0323 341.59,-25.7511"/>
</g>
<!-- Node6&#45;&gt;Node2 -->
<g id="edge7" class="edge"><title>Node6&#45;&gt;Node2</title>
<path fill="none" stroke="midnightblue" d="M406.884,-19.6847C414.802,-23.6279 423.606,-28.5458 431,-34 444.689,-44.0977 458.144,-57.8549 467.867,-68.6828"/>
<polygon fill="midnightblue" stroke="midnightblue" points="465.298,-71.0614 474.517,-76.2827 470.566,-66.4521 465.298,-71.0614"/>
</g>
</g>
</svg>
        <g id="navigator" transform="translate(0 0)" fill="#404254">
                <rect fill="#f2f5e9" fill-opacity="0.5" stroke="#606060" stroke-width=".5" x="0" y="0" width="60" height="60"/>
                <use id="zoomplus" xlink:href="#zoomPlus" x="17" y="9" onmousedown="handleZoom(evt,'in')"/>
                <use id="zoomminus" xlink:href="#zoomMin" x="42" y="9" onmousedown="handleZoom(evt,'out')"/>
                <use id="reset" xlink:href="#resetDef" x="30" y="36" onmousedown="handleReset()"/>
                <g id="arrowUp" xlink:href="#dirArrow" transform="translate(30 24)" onmousedown="handlePan(0,-1)">
                  <use xlink:href="#rim" fill="#404040">
                        <set attributeName="fill" to="#808080" begin="arrowUp.mouseover" end="arrowUp.mouseout"/>
                  </use>
                  <path fill="none" stroke="white" stroke-width="1.5" d="M0,-3.0v7 M-2.5,-0.5L0,-3.0L2.5,-0.5"/>
                </g>
                <g id="arrowRight" xlink:href="#dirArrow" transform="rotate(90) translate(36 -43)" onmousedown="handlePan(1,0)">
                  <use xlink:href="#rim" fill="#404040">
                        <set attributeName="fill" to="#808080" begin="arrowRight.mouseover" end="arrowRight.mouseout"/>
                  </use>
                  <path fill="none" stroke="white" stroke-width="1.5" d="M0,-3.0v7 M-2.5,-0.5L0,-3.0L2.5,-0.5"/>
                </g>
                <g id="arrowDown" xlink:href="#dirArrow" transform="rotate(180) translate(-30 -48)" onmousedown="handlePan(0,1)">
                  <use xlink:href="#rim" fill="#404040">
                        <set attributeName="fill" to="#808080" begin="arrowDown.mouseover" end="arrowDown.mouseout"/>
                  </use>
                  <path fill="none" stroke="white" stroke-width="1.5" d="M0,-3.0v7 M-2.5,-0.5L0,-3.0L2.5,-0.5"/>
                </g>
                <g id="arrowLeft" xlink:href="#dirArrow" transform="rotate(270) translate(-36 17)" onmousedown="handlePan(-1,0)">
                  <use xlink:href="#rim" fill="#404040">
                        <set attributeName="fill" to="#808080" begin="arrowLeft.mouseover" end="arrowLeft.mouseout"/>
                  </use>
                  <path fill="none" stroke="white" stroke-width="1.5" d="M0,-3.0v7 M-2.5,-0.5L0,-3.0L2.5,-0.5"/>
                </g>
        </g>
        <svg viewBox="0 0 15 15" width="100%" height="30px" preserveAspectRatio="xMaxYMin meet">
         <g id="arrow_out" transform="scale(0.3 0.3)">
          <a xlink:href="a00066_a6374d2e83db65d351dbf00869fbe8e76_cgraph_org.svg" target="_base">
           <rect id="button" ry="5" rx="5" y="6" x="6" height="38" width="38"
                fill="#f2f5e9" fill-opacity="0.5" stroke="#606060" stroke-width="1.0"/>
           <path id="arrow"
             d="M 11.500037,31.436501 C 11.940474,20.09759 22.043105,11.32322 32.158766,21.979434 L 37.068811,17.246167 C 37.068811,17.246167 37.088388,32 37.088388,32 L 22.160133,31.978069 C 22.160133,31.978069 26.997745,27.140456 26.997745,27.140456 C 18.528582,18.264221 13.291696,25.230495 11.500037,31.436501 z"
             style="fill:#404040;"/>
          </a>
         </g>
        </svg>
</svg>
