<?xml version="1.0" encoding="UTF-8" standalone="no"?>
<!DOCTYPE svg PUBLIC "-//W3C//DTD SVG 1.1//EN"
 "http://www.w3.org/Graphics/SVG/1.1/DTD/svg11.dtd">
<!-- Generated by graphviz version 2.38.0 (20140413.2041)
 -->
<!-- Title: hpd_curl_ev_remove_handle Pages: 1 -->
<svg width="607pt" height="78pt"
 viewBox="0.00 0.00 607.00 77.50" xmlns="http://www.w3.org/2000/svg" xmlns:xlink="http://www.w3.org/1999/xlink">
<g id="graph0" class="graph" transform="scale(1 1) rotate(0) translate(4 73.5)">
<title>hpd_curl_ev_remove_handle</title>
<!-- Node1 -->
<g id="node1" class="node"><title>Node1</title>
<polygon fill="#bfbfbf" stroke="black" points="0,-20 0,-50 107,-50 107,-20 0,-20"/>
<text text-anchor="start" x="8" y="-38" font-family="Helvetica,sans-Serif" font-size="10.00">hpd_curl_ev_remove</text>
<text text-anchor="middle" x="53.5" y="-27" font-family="Helvetica,sans-Serif" font-size="10.00">_handle</text>
</g>
<!-- Node2 -->
<g id="node2" class="node"><title>Node2</title>
<g id="a_node2"><a xlink:href="a00011.html#a3f36a139b8cf22a41850235ce3a3c88c" target="_top" xlink:title="curl_ev_add_next">
<polygon fill="none" stroke="black" points="143,-25.5 143,-44.5 236,-44.5 236,-25.5 143,-25.5"/>
<text text-anchor="middle" x="189.5" y="-32.5" font-family="Helvetica,sans-Serif" font-size="10.00">curl_ev_add_next</text>
</a>
</g>
</g>
<!-- Node1&#45;&gt;Node2 -->
<g id="edge1" class="edge"><title>Node1&#45;&gt;Node2</title>
<path fill="none" stroke="midnightblue" d="M107.076,-35C115.416,-35 124.07,-35 132.485,-35"/>
<polygon fill="midnightblue" stroke="midnightblue" points="132.596,-38.5001 142.596,-35 132.596,-31.5001 132.596,-38.5001"/>
</g>
<!-- Node3 -->
<g id="node3" class="node"><title>Node3</title>
<g id="a_node3"><a xlink:href="a00011.html#a30f7e7259072d4e929092bf994dd0f7e" target="_top" xlink:title="curl_ev_socket_action">
<polygon fill="none" stroke="black" points="272,-6.5 272,-25.5 386,-25.5 386,-6.5 272,-6.5"/>
<text text-anchor="middle" x="329" y="-13.5" font-family="Helvetica,sans-Serif" font-size="10.00">curl_ev_socket_action</text>
</a>
</g>
</g>
<!-- Node2&#45;&gt;Node3 -->
<g id="edge2" class="edge"><title>Node2&#45;&gt;Node3</title>
<path fill="none" stroke="midnightblue" d="M236.286,-28.6733C244.484,-27.5405 253.174,-26.3396 261.81,-25.1463"/>
<polygon fill="midnightblue" stroke="midnightblue" points="262.464,-28.5892 271.891,-23.7533 261.506,-21.6551 262.464,-28.5892"/>
</g>
<!-- Node4 -->
<g id="node4" class="node"><title>Node4</title>
<g id="a_node4"><a xlink:href="a00011.html#a51a40a6c8c1a8ecd90e288ab02687ad3" target="_top" xlink:title="hpd_curl_ev_remove\l_handle">
<polygon fill="none" stroke="black" points="422.5,-39 422.5,-69 529.5,-69 529.5,-39 422.5,-39"/>
<text text-anchor="start" x="430.5" y="-57" font-family="Helvetica,sans-Serif" font-size="10.00">hpd_curl_ev_remove</text>
<text text-anchor="middle" x="476" y="-46" font-family="Helvetica,sans-Serif" font-size="10.00">_handle</text>
</a>
</g>
</g>
<!-- Node3&#45;&gt;Node4 -->
<g id="edge3" class="edge"><title>Node3&#45;&gt;Node4</title>
<path fill="none" stroke="midnightblue" d="M366.59,-25.589C380.423,-29.2142 396.589,-33.451 412.152,-37.5294"/>
<polygon fill="midnightblue" stroke="midnightblue" points="411.7,-41.0292 422.261,-40.1787 413.475,-34.2579 411.7,-41.0292"/>
</g>
<!-- Node5 -->
<g id="node5" class="node"><title>Node5</title>
<g id="a_node5"><a xlink:href="a00043.html#aad3ddbb29440b4b7b4f1266c0432c60c" target="_top" xlink:title="hpd_curl_ev_cleanup">
<polygon fill="none" stroke="black" points="422,-0.5 422,-19.5 530,-19.5 530,-0.5 422,-0.5"/>
<text text-anchor="middle" x="476" y="-7.5" font-family="Helvetica,sans-Serif" font-size="10.00">hpd_curl_ev_cleanup</text>
</a>
</g>
</g>
<!-- Node3&#45;&gt;Node5 -->
<g id="edge5" class="edge"><title>Node3&#45;&gt;Node5</title>
<path fill="none" stroke="midnightblue" d="M386.061,-13.6802C394.538,-13.3295 403.332,-12.9656 411.945,-12.6092"/>
<polygon fill="midnightblue" stroke="midnightblue" points="412.096,-16.106 421.943,-12.1955 411.807,-9.11199 412.096,-16.106"/>
</g>
<!-- Node4&#45;&gt;Node2 -->
<g id="edge4" class="edge"><title>Node4&#45;&gt;Node2</title>
<path fill="none" stroke="midnightblue" d="M422.147,-50.4703C372.146,-47.131 297.366,-42.1369 246.391,-38.7326"/>
<polygon fill="midnightblue" stroke="midnightblue" points="246.421,-35.2269 236.21,-38.0527 245.954,-42.2113 246.421,-35.2269"/>
</g>
<!-- Node6 -->
<g id="node6" class="node"><title>Node6</title>
<g id="a_node6"><a xlink:href="a00012.html#adf46370d9c211c3be22966b4606ba9b0" target="_top" xlink:title="free">
<polygon fill="none" stroke="black" points="566,-0.5 566,-19.5 599,-19.5 599,-0.5 566,-0.5"/>
<text text-anchor="middle" x="582.5" y="-7.5" font-family="Helvetica,sans-Serif" font-size="10.00">free</text>
</a>
</g>
</g>
<!-- Node5&#45;&gt;Node6 -->
<g id="edge6" class="edge"><title>Node5&#45;&gt;Node6</title>
<path fill="none" stroke="midnightblue" d="M530.168,-10C539.079,-10 547.953,-10 555.755,-10"/>
<polygon fill="midnightblue" stroke="midnightblue" points="555.963,-13.5001 565.963,-10 555.963,-6.5001 555.963,-13.5001"/>
</g>
</g>
</svg>
