<?xml version="1.0" encoding="UTF-8" standalone="no"?>
<!DOCTYPE svg PUBLIC "-//W3C//DTD SVG 1.1//EN"
 "http://www.w3.org/Graphics/SVG/1.1/DTD/svg11.dtd">
<!-- Generated by graphviz version 2.38.0 (20140413.2041)
 -->
<!-- Title: hpd_parameter_alloc Pages: 1 -->
<svg width="762pt" height="85pt"
 viewBox="0.00 0.00 762.00 85.00" xmlns="http://www.w3.org/2000/svg" xmlns:xlink="http://www.w3.org/1999/xlink">
<g id="graph0" class="graph" transform="scale(1 1) rotate(0) translate(4 81)">
<title>hpd_parameter_alloc</title>
<!-- Node1 -->
<g id="node1" class="node"><title>Node1</title>
<polygon fill="#bfbfbf" stroke="black" points="0,-19.5 0,-38.5 107,-38.5 107,-19.5 0,-19.5"/>
<text text-anchor="middle" x="53.5" y="-26.5" font-family="Helvetica,sans-Serif" font-size="10.00">hpd_parameter_alloc</text>
</g>
<!-- Node2 -->
<g id="node2" class="node"><title>Node2</title>
<g id="a_node2"><a xlink:href="a00063.html#a3f84f32d27f7748c7fb9b0dbf24e4dc4" target="_top" xlink:title="discovery_alloc_parameter">
<polygon fill="none" stroke="black" points="143,-19.5 143,-38.5 276,-38.5 276,-19.5 143,-19.5"/>
<text text-anchor="middle" x="209.5" y="-26.5" font-family="Helvetica,sans-Serif" font-size="10.00">discovery_alloc_parameter</text>
</a>
</g>
</g>
<!-- Node1&#45;&gt;Node2 -->
<g id="edge1" class="edge"><title>Node1&#45;&gt;Node2</title>
<path fill="none" stroke="midnightblue" d="M107.067,-29C115.334,-29 124.02,-29 132.686,-29"/>
<polygon fill="midnightblue" stroke="midnightblue" points="132.824,-32.5001 142.824,-29 132.824,-25.5001 132.824,-32.5001"/>
</g>
<!-- Node3 -->
<g id="node3" class="node"><title>Node3</title>
<g id="a_node3"><a xlink:href="a00046.html#a8d23b888fb4bb3f951c7d48f1928ee9a" target="_top" xlink:title="hpd_map_alloc">
<polygon fill="none" stroke="black" points="335.5,-38.5 335.5,-57.5 417.5,-57.5 417.5,-38.5 335.5,-38.5"/>
<text text-anchor="middle" x="376.5" y="-45.5" font-family="Helvetica,sans-Serif" font-size="10.00">hpd_map_alloc</text>
</a>
</g>
</g>
<!-- Node2&#45;&gt;Node3 -->
<g id="edge2" class="edge"><title>Node2&#45;&gt;Node3</title>
<path fill="none" stroke="midnightblue" d="M276.186,-36.5639C292.397,-38.4305 309.511,-40.4013 324.881,-42.1712"/>
<polygon fill="midnightblue" stroke="midnightblue" points="324.876,-45.6936 335.211,-43.3606 325.677,-38.7396 324.876,-45.6936"/>
</g>
<!-- Node4 -->
<g id="node4" class="node"><title>Node4</title>
<g id="a_node4"><a xlink:href="a00063.html#ad18143d06649d9220e4fd8d74dbdec79" target="_top" xlink:title="discovery_free_parameter">
<polygon fill="none" stroke="black" points="312,-0.5 312,-19.5 441,-19.5 441,-0.5 312,-0.5"/>
<text text-anchor="middle" x="376.5" y="-7.5" font-family="Helvetica,sans-Serif" font-size="10.00">discovery_free_parameter</text>
</a>
</g>
</g>
<!-- Node2&#45;&gt;Node4 -->
<g id="edge3" class="edge"><title>Node2&#45;&gt;Node4</title>
<path fill="none" stroke="midnightblue" d="M276.186,-21.4361C284.648,-20.4617 293.356,-19.459 301.934,-18.4712"/>
<polygon fill="midnightblue" stroke="midnightblue" points="302.388,-21.9422 311.922,-17.3212 301.587,-14.9882 302.388,-21.9422"/>
</g>
<!-- Node5 -->
<g id="node5" class="node"><title>Node5</title>
<g id="a_node5"><a xlink:href="a00046.html#a195d511a075f2349200563af1c5d1fd7" target="_top" xlink:title="hpd_map_free">
<polygon fill="none" stroke="black" points="477,-19.5 477,-38.5 555,-38.5 555,-19.5 477,-19.5"/>
<text text-anchor="middle" x="516" y="-26.5" font-family="Helvetica,sans-Serif" font-size="10.00">hpd_map_free</text>
</a>
</g>
</g>
<!-- Node4&#45;&gt;Node5 -->
<g id="edge4" class="edge"><title>Node4&#45;&gt;Node5</title>
<path fill="none" stroke="midnightblue" d="M441.018,-18.777C449.722,-19.9798 458.539,-21.1981 466.906,-22.3543"/>
<polygon fill="midnightblue" stroke="midnightblue" points="466.466,-25.8267 476.851,-23.7285 467.424,-18.8926 466.466,-25.8267"/>
</g>
<!-- Node7 -->
<g id="node7" class="node"><title>Node7</title>
<g id="a_node7"><a xlink:href="a00006.html#adf46370d9c211c3be22966b4606ba9b0" target="_top" xlink:title="free">
<polygon fill="none" stroke="black" points="721,-19.5 721,-38.5 754,-38.5 754,-19.5 721,-19.5"/>
<text text-anchor="middle" x="737.5" y="-26.5" font-family="Helvetica,sans-Serif" font-size="10.00">free</text>
</a>
</g>
</g>
<!-- Node4&#45;&gt;Node7 -->
<g id="edge8" class="edge"><title>Node4&#45;&gt;Node7</title>
<path fill="none" stroke="midnightblue" d="M441.211,-8.39459C475.038,-7.94764 517.302,-8.03219 555,-10 610.626,-12.9036 675.452,-20.7804 710.606,-25.43"/>
<polygon fill="midnightblue" stroke="midnightblue" points="710.143,-28.8992 720.52,-26.7603 711.074,-21.9614 710.143,-28.8992"/>
</g>
<!-- Node6 -->
<g id="node6" class="node"><title>Node6</title>
<g id="a_node6"><a xlink:href="a00022.html#ae1085dd4fd40466d18b02ec077ef4d6d" target="_top" xlink:title="hpd_map_remove">
<polygon fill="none" stroke="black" points="591,-57.5 591,-76.5 685,-76.5 685,-57.5 591,-57.5"/>
<text text-anchor="middle" x="638" y="-64.5" font-family="Helvetica,sans-Serif" font-size="10.00">hpd_map_remove</text>
</a>
</g>
</g>
<!-- Node5&#45;&gt;Node6 -->
<g id="edge5" class="edge"><title>Node5&#45;&gt;Node6</title>
<path fill="none" stroke="midnightblue" d="M547.281,-38.589C562.346,-43.3594 580.754,-49.1888 596.967,-54.3229"/>
<polygon fill="midnightblue" stroke="midnightblue" points="596.139,-57.7318 606.729,-57.4141 598.252,-51.0584 596.139,-57.7318"/>
</g>
<!-- Node5&#45;&gt;Node7 -->
<g id="edge7" class="edge"><title>Node5&#45;&gt;Node7</title>
<path fill="none" stroke="midnightblue" d="M555.234,-29C599.728,-29 671.997,-29 710.468,-29"/>
<polygon fill="midnightblue" stroke="midnightblue" points="710.813,-32.5001 720.813,-29 710.813,-25.5001 710.813,-32.5001"/>
</g>
<!-- Node6&#45;&gt;Node7 -->
<g id="edge6" class="edge"><title>Node6&#45;&gt;Node7</title>
<path fill="none" stroke="midnightblue" d="M663.603,-57.411C678.179,-51.7302 696.608,-44.5477 711.289,-38.8259"/>
<polygon fill="midnightblue" stroke="midnightblue" points="712.714,-42.0269 720.76,-35.1344 710.172,-35.5047 712.714,-42.0269"/>
</g>
</g>
</svg>
