<?xml version="1.0" encoding="UTF-8" standalone="no"?>
<!DOCTYPE svg PUBLIC "-//W3C//DTD SVG 1.1//EN"
 "http://www.w3.org/Graphics/SVG/1.1/DTD/svg11.dtd">
<!-- Generated by graphviz version 2.38.0 (20140413.2041)
 -->
<!-- Title: demo_adapter_create_lamp Pages: 1 -->
<svg width="1202pt" height="864pt"
 viewBox="0.00 0.00 1202.00 863.61" xmlns="http://www.w3.org/2000/svg" xmlns:xlink="http://www.w3.org/1999/xlink">
<g id="graph0" class="graph" transform="scale(1 1) rotate(0) translate(4 859.607)">
<title>demo_adapter_create_lamp</title>
<!-- Node1 -->
<g id="node1" class="node"><title>Node1</title>
<polygon fill="#bfbfbf" stroke="black" points="0,-752.5 0,-771.5 137,-771.5 137,-752.5 0,-752.5"/>
<text text-anchor="middle" x="68.5" y="-759.5" font-family="Helvetica,sans-Serif" font-size="10.00">demo_adapter_create_lamp</text>
</g>
<!-- Node2 -->
<g id="node2" class="node"><title>Node2</title>
<g id="a_node2"><a xlink:href="a00071.html#a10a4b84cc7128e1900008dc1de4653a2" target="_top" xlink:title="[hpd_adapter_t functions] ">
<polygon fill="none" stroke="black" points="182,-790.5 182,-809.5 274,-809.5 274,-790.5 182,-790.5"/>
<text text-anchor="middle" x="228" y="-797.5" font-family="Helvetica,sans-Serif" font-size="10.00">hpd_device_alloc</text>
</a>
</g>
</g>
<!-- Node1&#45;&gt;Node2 -->
<g id="edge1" class="edge"><title>Node1&#45;&gt;Node2</title>
<path fill="none" stroke="midnightblue" d="M109.244,-771.589C130.028,-776.604 155.661,-782.788 177.699,-788.105"/>
<polygon fill="midnightblue" stroke="midnightblue" points="177,-791.537 187.542,-790.48 178.642,-784.732 177,-791.537"/>
</g>
<!-- Node10 -->
<g id="node10" class="node"><title>Node10</title>
<g id="a_node10"><a xlink:href="a00071.html#aa52044afe11425f0febeba4f6094e48f" target="_top" xlink:title="hpd_device_set_attr">
<polygon fill="none" stroke="black" points="176,-752.5 176,-771.5 280,-771.5 280,-752.5 176,-752.5"/>
<text text-anchor="middle" x="228" y="-759.5" font-family="Helvetica,sans-Serif" font-size="10.00">hpd_device_set_attr</text>
</a>
</g>
</g>
<!-- Node1&#45;&gt;Node10 -->
<g id="edge13" class="edge"><title>Node1&#45;&gt;Node10</title>
<path fill="none" stroke="midnightblue" d="M137.208,-762C146.537,-762 156.077,-762 165.29,-762"/>
<polygon fill="midnightblue" stroke="midnightblue" points="165.524,-765.5 175.524,-762 165.524,-758.5 165.524,-765.5"/>
</g>
<!-- Node15 -->
<g id="node15" class="node"><title>Node15</title>
<g id="a_node15"><a xlink:href="a00013.html#aca3f96055b6405843c652ef5efd1c3e8" target="_top" xlink:title="[create_parameter] ">
<polygon fill="none" stroke="black" points="173,-559 173,-589 283,-589 283,-559 173,-559"/>
<text text-anchor="start" x="181" y="-577" font-family="Helvetica,sans-Serif" font-size="10.00">demo_adapter_create</text>
<text text-anchor="middle" x="228" y="-566" font-family="Helvetica,sans-Serif" font-size="10.00">_service</text>
</a>
</g>
</g>
<!-- Node1&#45;&gt;Node15 -->
<g id="edge20" class="edge"><title>Node1&#45;&gt;Node15</title>
<path fill="none" stroke="midnightblue" d="M77.527,-752.419C101.513,-723.787 173.131,-638.301 207.79,-596.93"/>
<polygon fill="midnightblue" stroke="midnightblue" points="210.66,-598.954 214.399,-589.041 205.294,-594.459 210.66,-598.954"/>
</g>
<!-- Node45 -->
<g id="node45" class="node"><title>Node45</title>
<g id="a_node45"><a xlink:href="a00071.html#a8ecd575d81e054bd4296e55f2f36b126" target="_top" xlink:title="hpd_device_attach">
<polygon fill="none" stroke="black" points="678,-66.5 678,-85.5 776,-85.5 776,-66.5 678,-66.5"/>
<text text-anchor="middle" x="727" y="-73.5" font-family="Helvetica,sans-Serif" font-size="10.00">hpd_device_attach</text>
</a>
</g>
</g>
<!-- Node1&#45;&gt;Node45 -->
<g id="edge59" class="edge"><title>Node1&#45;&gt;Node45</title>
<path fill="none" stroke="midnightblue" d="M70.2703,-752.383C75.8869,-689.025 116.253,-328.879 319,-161 419.709,-77.6106 581.666,-69.6729 667.777,-72.1618"/>
<polygon fill="midnightblue" stroke="midnightblue" points="667.777,-75.6638 677.893,-72.5126 668.02,-68.668 667.777,-75.6638"/>
</g>
<!-- Node50 -->
<g id="node50" class="node"><title>Node50</title>
<g id="a_node50"><a xlink:href="a00071.html#a7b20f2cfe2e46cdbfe4112b95922446b" target="_top" xlink:title="hpd_device_free">
<polygon fill="none" stroke="black" points="184,-828.5 184,-847.5 272,-847.5 272,-828.5 184,-828.5"/>
<text text-anchor="middle" x="228" y="-835.5" font-family="Helvetica,sans-Serif" font-size="10.00">hpd_device_free</text>
</a>
</g>
</g>
<!-- Node1&#45;&gt;Node50 -->
<g id="edge66" class="edge"><title>Node1&#45;&gt;Node50</title>
<path fill="none" stroke="midnightblue" d="M84.8695,-771.518C104.73,-783.568 140.608,-804.501 173,-819 177.643,-821.078 182.589,-823.085 187.53,-824.966"/>
<polygon fill="midnightblue" stroke="midnightblue" points="186.352,-828.262 196.946,-828.413 188.758,-821.689 186.352,-828.262"/>
</g>
<!-- Node3 -->
<g id="node3" class="node"><title>Node3</title>
<g id="a_node3"><a xlink:href="a00078.html#a9f30460be089f53c8d995635aedc1097" target="_top" xlink:title="discovery_alloc_device">
<polygon fill="none" stroke="black" points="322.5,-790.5 322.5,-809.5 440.5,-809.5 440.5,-790.5 322.5,-790.5"/>
<text text-anchor="middle" x="381.5" y="-797.5" font-family="Helvetica,sans-Serif" font-size="10.00">discovery_alloc_device</text>
</a>
</g>
</g>
<!-- Node2&#45;&gt;Node3 -->
<g id="edge2" class="edge"><title>Node2&#45;&gt;Node3</title>
<path fill="none" stroke="midnightblue" d="M274.045,-800C286.02,-800 299.228,-800 312.146,-800"/>
<polygon fill="midnightblue" stroke="midnightblue" points="312.415,-803.5 322.415,-800 312.415,-796.5 312.415,-803.5"/>
</g>
<!-- Node4 -->
<g id="node4" class="node"><title>Node4</title>
<g id="a_node4"><a xlink:href="a00056.html#a8d23b888fb4bb3f951c7d48f1928ee9a" target="_top" xlink:title="hpd_map_alloc">
<polygon fill="none" stroke="black" points="686,-790.5 686,-809.5 768,-809.5 768,-790.5 686,-790.5"/>
<text text-anchor="middle" x="727" y="-797.5" font-family="Helvetica,sans-Serif" font-size="10.00">hpd_map_alloc</text>
</a>
</g>
</g>
<!-- Node3&#45;&gt;Node4 -->
<g id="edge3" class="edge"><title>Node3&#45;&gt;Node4</title>
<path fill="none" stroke="midnightblue" d="M440.77,-800C506.769,-800 613.235,-800 675.731,-800"/>
<polygon fill="midnightblue" stroke="midnightblue" points="675.745,-803.5 685.745,-800 675.745,-796.5 675.745,-803.5"/>
</g>
<!-- Node5 -->
<g id="node5" class="node"><title>Node5</title>
<g id="a_node5"><a xlink:href="a00078.html#a3c72fb9020b183238e0205b722d7ea95" target="_top" xlink:title="discovery_free_device">
<polygon fill="none" stroke="black" points="492,-828.5 492,-847.5 606,-847.5 606,-828.5 492,-828.5"/>
<text text-anchor="middle" x="549" y="-835.5" font-family="Helvetica,sans-Serif" font-size="10.00">discovery_free_device</text>
</a>
</g>
</g>
<!-- Node3&#45;&gt;Node5 -->
<g id="edge4" class="edge"><title>Node3&#45;&gt;Node5</title>
<path fill="none" stroke="midnightblue" d="M424.263,-809.589C446.201,-814.626 473.28,-820.844 496.508,-826.177"/>
<polygon fill="midnightblue" stroke="midnightblue" points="496.008,-829.653 506.538,-828.48 497.575,-822.831 496.008,-829.653"/>
</g>
<!-- Node6 -->
<g id="node6" class="node"><title>Node6</title>
<g id="a_node6"><a xlink:href="a00078.html#a562bd655fd329da0289d21ec36973322" target="_top" xlink:title="discovery_free_service">
<polygon fill="none" stroke="red" points="668.5,-714.5 668.5,-733.5 785.5,-733.5 785.5,-714.5 668.5,-714.5"/>
<text text-anchor="middle" x="727" y="-721.5" font-family="Helvetica,sans-Serif" font-size="10.00">discovery_free_service</text>
</a>
</g>
</g>
<!-- Node5&#45;&gt;Node6 -->
<g id="edge5" class="edge"><title>Node5&#45;&gt;Node6</title>
<path fill="none" stroke="midnightblue" d="M557.769,-828.277C573.704,-808.998 612.131,-765.825 654,-743 658.179,-740.722 662.644,-738.706 667.228,-736.925"/>
<polygon fill="midnightblue" stroke="midnightblue" points="668.47,-740.198 676.748,-733.587 666.154,-733.593 668.47,-740.198"/>
</g>
<!-- Node7 -->
<g id="node7" class="node"><title>Node7</title>
<g id="a_node7"><a xlink:href="a00012.html#adf46370d9c211c3be22966b4606ba9b0" target="_top" xlink:title="free">
<polygon fill="none" stroke="black" points="1161,-399.5 1161,-418.5 1194,-418.5 1194,-399.5 1161,-399.5"/>
<text text-anchor="middle" x="1177.5" y="-406.5" font-family="Helvetica,sans-Serif" font-size="10.00">free</text>
</a>
</g>
</g>
<!-- Node5&#45;&gt;Node7 -->
<g id="edge11" class="edge"><title>Node5&#45;&gt;Node7</title>
<path fill="none" stroke="midnightblue" d="M604.304,-847.507C655.395,-854.683 733.734,-861.112 800,-847 954.699,-814.055 1027.7,-826.702 1125,-702 1158.58,-658.958 1171.82,-487.192 1175.41,-428.656"/>
<polygon fill="midnightblue" stroke="midnightblue" points="1178.92,-428.718 1176.01,-418.531 1171.93,-428.309 1178.92,-428.718"/>
</g>
<!-- Node8 -->
<g id="node8" class="node"><title>Node8</title>
<g id="a_node8"><a xlink:href="a00056.html#a195d511a075f2349200563af1c5d1fd7" target="_top" xlink:title="hpd_map_free">
<polygon fill="none" stroke="black" points="859.5,-689.5 859.5,-708.5 937.5,-708.5 937.5,-689.5 859.5,-689.5"/>
<text text-anchor="middle" x="898.5" y="-696.5" font-family="Helvetica,sans-Serif" font-size="10.00">hpd_map_free</text>
</a>
</g>
</g>
<!-- Node5&#45;&gt;Node8 -->
<g id="edge12" class="edge"><title>Node5&#45;&gt;Node8</title>
<path fill="none" stroke="midnightblue" d="M606.081,-845.891C659.142,-850.655 739.452,-850.689 800,-819 843.21,-796.385 874.197,-745.427 888.546,-717.748"/>
<polygon fill="midnightblue" stroke="midnightblue" points="891.728,-719.208 893.071,-708.699 885.468,-716.077 891.728,-719.208"/>
</g>
<!-- Node6&#45;&gt;Node7 -->
<g id="edge6" class="edge"><title>Node6&#45;&gt;Node7</title>
<path fill="none" stroke="midnightblue" d="M783.526,-714.485C789.543,-711.8 795.209,-708.373 800,-704 833.351,-673.563 806.879,-643.506 836,-609 926.077,-502.268 1088.41,-438.755 1150.96,-417.264"/>
<polygon fill="midnightblue" stroke="midnightblue" points="1152.43,-420.465 1160.78,-413.956 1150.19,-413.831 1152.43,-420.465"/>
</g>
<!-- Node6&#45;&gt;Node8 -->
<g id="edge7" class="edge"><title>Node6&#45;&gt;Node8</title>
<path fill="none" stroke="midnightblue" d="M785.858,-715.466C806.52,-712.419 829.561,-709.02 849.321,-706.106"/>
<polygon fill="midnightblue" stroke="midnightblue" points="849.942,-709.552 859.325,-704.631 848.921,-702.627 849.942,-709.552"/>
</g>
<!-- Node8&#45;&gt;Node7 -->
<g id="edge10" class="edge"><title>Node8&#45;&gt;Node7</title>
<path fill="none" stroke="midnightblue" d="M937.855,-705.494C987.839,-711.581 1074.77,-713.66 1125,-666 1159.44,-633.322 1171.95,-483.178 1175.4,-428.764"/>
<polygon fill="midnightblue" stroke="midnightblue" points="1178.9,-428.873 1176,-418.682 1171.91,-428.455 1178.9,-428.873"/>
</g>
<!-- Node9 -->
<g id="node9" class="node"><title>Node9</title>
<g id="a_node9"><a xlink:href="a00031.html#ae1085dd4fd40466d18b02ec077ef4d6d" target="_top" xlink:title="hpd_map_remove">
<polygon fill="none" stroke="black" points="1014,-637.5 1014,-656.5 1108,-656.5 1108,-637.5 1014,-637.5"/>
<text text-anchor="middle" x="1061" y="-644.5" font-family="Helvetica,sans-Serif" font-size="10.00">hpd_map_remove</text>
</a>
</g>
</g>
<!-- Node8&#45;&gt;Node9 -->
<g id="edge8" class="edge"><title>Node8&#45;&gt;Node9</title>
<path fill="none" stroke="midnightblue" d="M928.938,-689.462C954.762,-681.096 992.512,-668.865 1020.87,-659.677"/>
<polygon fill="midnightblue" stroke="midnightblue" points="1022.04,-662.977 1030.48,-656.565 1019.89,-656.318 1022.04,-662.977"/>
</g>
<!-- Node9&#45;&gt;Node7 -->
<g id="edge9" class="edge"><title>Node9&#45;&gt;Node7</title>
<path fill="none" stroke="midnightblue" d="M1108.3,-639.288C1114.55,-636.568 1120.38,-632.911 1125,-628 1152.3,-598.951 1168.81,-476.979 1174.38,-428.748"/>
<polygon fill="midnightblue" stroke="midnightblue" points="1177.87,-428.983 1175.5,-418.656 1170.92,-428.205 1177.87,-428.983"/>
</g>
<!-- Node11 -->
<g id="node11" class="node"><title>Node11</title>
<g id="a_node11"><a xlink:href="a00078.html#a56b004be3282718fac95524a7446748c" target="_top" xlink:title="discovery_set_device_attr">
<polygon fill="none" stroke="black" points="661.5,-752.5 661.5,-771.5 792.5,-771.5 792.5,-752.5 661.5,-752.5"/>
<text text-anchor="middle" x="727" y="-759.5" font-family="Helvetica,sans-Serif" font-size="10.00">discovery_set_device_attr</text>
</a>
</g>
</g>
<!-- Node10&#45;&gt;Node11 -->
<g id="edge14" class="edge"><title>Node10&#45;&gt;Node11</title>
<path fill="none" stroke="midnightblue" d="M280.316,-762C368.434,-762 548.876,-762 651.073,-762"/>
<polygon fill="midnightblue" stroke="midnightblue" points="651.319,-765.5 661.319,-762 651.319,-758.5 651.319,-765.5"/>
</g>
<!-- Node12 -->
<g id="node12" class="node"><title>Node12</title>
<g id="a_node12"><a xlink:href="a00056.html#a230c25a2f8e5de7ce61623a4ce8a809f" target="_top" xlink:title="hpd_map_set">
<polygon fill="none" stroke="black" points="861,-618.5 861,-637.5 936,-637.5 936,-618.5 861,-618.5"/>
<text text-anchor="middle" x="898.5" y="-625.5" font-family="Helvetica,sans-Serif" font-size="10.00">hpd_map_set</text>
</a>
</g>
</g>
<!-- Node11&#45;&gt;Node12 -->
<g id="edge15" class="edge"><title>Node11&#45;&gt;Node12</title>
<path fill="none" stroke="midnightblue" d="M783.241,-752.389C789.237,-749.935 794.976,-746.858 800,-743 825.578,-723.36 815.372,-704.789 836,-680 847.481,-666.203 862.913,-653.167 875.446,-643.598"/>
<polygon fill="midnightblue" stroke="midnightblue" points="877.633,-646.333 883.575,-637.561 873.46,-640.713 877.633,-646.333"/>
</g>
<!-- Node12&#45;&gt;Node9 -->
<g id="edge16" class="edge"><title>Node12&#45;&gt;Node9</title>
<path fill="none" stroke="midnightblue" d="M936.322,-632.359C956.306,-634.725 981.432,-637.699 1003.81,-640.348"/>
<polygon fill="midnightblue" stroke="midnightblue" points="1003.52,-643.839 1013.87,-641.539 1004.35,-636.887 1003.52,-643.839"/>
</g>
<!-- Node13 -->
<g id="node13" class="node"><title>Node13</title>
<g id="a_node13"><a xlink:href="a00031.html#a68e8a71a4dc9b51ca36d2389ed89b336" target="_top" xlink:title="map_insert">
<polygon fill="none" stroke="black" points="1028.5,-558.5 1028.5,-577.5 1093.5,-577.5 1093.5,-558.5 1028.5,-558.5"/>
<text text-anchor="middle" x="1061" y="-565.5" font-family="Helvetica,sans-Serif" font-size="10.00">map_insert</text>
</a>
</g>
</g>
<!-- Node12&#45;&gt;Node13 -->
<g id="edge17" class="edge"><title>Node12&#45;&gt;Node13</title>
<path fill="none" stroke="midnightblue" d="M923.45,-618.391C943.131,-610.561 971.778,-599.316 997,-590 1005.2,-586.971 1014.04,-583.816 1022.43,-580.872"/>
<polygon fill="midnightblue" stroke="midnightblue" points="1023.72,-584.13 1032.01,-577.534 1021.42,-577.52 1023.72,-584.13"/>
</g>
<!-- Node14 -->
<g id="node14" class="node"><title>Node14</title>
<g id="a_node14"><a xlink:href="a00031.html#ac16b47a5d68b6eaae2e709e1888982fd" target="_top" xlink:title="map_replace">
<polygon fill="none" stroke="black" points="1025,-599.5 1025,-618.5 1097,-618.5 1097,-599.5 1025,-599.5"/>
<text text-anchor="middle" x="1061" y="-606.5" font-family="Helvetica,sans-Serif" font-size="10.00">map_replace</text>
</a>
</g>
</g>
<!-- Node12&#45;&gt;Node14 -->
<g id="edge19" class="edge"><title>Node12&#45;&gt;Node14</title>
<path fill="none" stroke="midnightblue" d="M936.322,-623.641C959.563,-620.89 989.759,-617.315 1014.5,-614.387"/>
<polygon fill="midnightblue" stroke="midnightblue" points="1015.21,-617.827 1024.73,-613.176 1014.39,-610.876 1015.21,-617.827"/>
</g>
<!-- Node13&#45;&gt;Node7 -->
<g id="edge18" class="edge"><title>Node13&#45;&gt;Node7</title>
<path fill="none" stroke="midnightblue" d="M1093.47,-558.416C1104.6,-553.738 1116.47,-547.103 1125,-538 1154.43,-506.611 1167.85,-456.315 1173.28,-428.713"/>
<polygon fill="midnightblue" stroke="midnightblue" points="1176.76,-429.169 1175.1,-418.706 1169.87,-427.922 1176.76,-429.169"/>
</g>
<!-- Node15&#45;&gt;Node7 -->
<g id="edge48" class="edge"><title>Node15&#45;&gt;Node7</title>
<path fill="none" stroke="midnightblue" d="M229.264,-558.798C230.912,-512.278 242.295,-370.381 319,-294 372.187,-241.037 406.03,-255.745 480,-243 764.615,-193.962 894.397,-148.124 1125,-322 1147.93,-339.288 1162.58,-370.01 1170.18,-389.935"/>
<polygon fill="midnightblue" stroke="midnightblue" points="1166.93,-391.254 1173.59,-399.492 1173.52,-388.897 1166.93,-391.254"/>
</g>
<!-- Node16 -->
<g id="node16" class="node"><title>Node16</title>
<g id="a_node16"><a xlink:href="a00071.html#ae265c33796304a96d8a0e670e61e7a3a" target="_top" xlink:title="[hpd_device_t functions] ">
<polygon fill="none" stroke="black" points="334,-714.5 334,-733.5 429,-733.5 429,-714.5 334,-714.5"/>
<text text-anchor="middle" x="381.5" y="-721.5" font-family="Helvetica,sans-Serif" font-size="10.00">hpd_service_alloc</text>
</a>
</g>
</g>
<!-- Node15&#45;&gt;Node16 -->
<g id="edge21" class="edge"><title>Node15&#45;&gt;Node16</title>
<path fill="none" stroke="midnightblue" d="M235.249,-589.007C247.342,-616.219 276.546,-673.77 319,-705 321.529,-706.86 324.243,-708.541 327.072,-710.06"/>
<polygon fill="midnightblue" stroke="midnightblue" points="325.864,-713.357 336.41,-714.377 328.802,-707.003 325.864,-713.357"/>
</g>
<!-- Node18 -->
<g id="node18" class="node"><title>Node18</title>
<g id="a_node18"><a xlink:href="a00071.html#a8a4f9edb085f44b1eb5d9b31447f06c9" target="_top" xlink:title="hpd_service_set_actions">
<polygon fill="none" stroke="black" points="319,-583.5 319,-602.5 444,-602.5 444,-583.5 319,-583.5"/>
<text text-anchor="middle" x="381.5" y="-590.5" font-family="Helvetica,sans-Serif" font-size="10.00">hpd_service_set_actions</text>
</a>
</g>
</g>
<!-- Node15&#45;&gt;Node18 -->
<g id="edge25" class="edge"><title>Node15&#45;&gt;Node18</title>
<path fill="none" stroke="midnightblue" d="M283.267,-580.806C291.567,-581.847 300.241,-582.935 308.845,-584.014"/>
<polygon fill="midnightblue" stroke="midnightblue" points="308.528,-587.501 318.886,-585.273 309.399,-580.556 308.528,-587.501"/>
</g>
<!-- Node21 -->
<g id="node21" class="node"><title>Node21</title>
<g id="a_node21"><a xlink:href="a00013.html#ad12964278a8b6998fccbae23e084a8a7" target="_top" xlink:title="[set] ">
<polygon fill="none" stroke="black" points="325,-545.5 325,-564.5 438,-564.5 438,-545.5 325,-545.5"/>
<text text-anchor="middle" x="381.5" y="-552.5" font-family="Helvetica,sans-Serif" font-size="10.00">demo_adapter_on_get</text>
</a>
</g>
</g>
<!-- Node15&#45;&gt;Node21 -->
<g id="edge28" class="edge"><title>Node15&#45;&gt;Node21</title>
<path fill="none" stroke="midnightblue" d="M283.267,-567.194C293.497,-565.911 304.298,-564.557 314.833,-563.235"/>
<polygon fill="midnightblue" stroke="midnightblue" points="315.339,-566.7 324.826,-561.982 314.468,-559.754 315.339,-566.7"/>
</g>
<!-- Node29 -->
<g id="node29" class="node"><title>Node29</title>
<g id="a_node29"><a xlink:href="a00013.html#a00981c2b16f03b852495746fb9ecb2c9" target="_top" xlink:title="[on_get] ">
<polygon fill="none" stroke="black" points="325,-507.5 325,-526.5 438,-526.5 438,-507.5 325,-507.5"/>
<text text-anchor="middle" x="381.5" y="-514.5" font-family="Helvetica,sans-Serif" font-size="10.00">demo_adapter_on_put</text>
</a>
</g>
</g>
<!-- Node15&#45;&gt;Node29 -->
<g id="edge36" class="edge"><title>Node15&#45;&gt;Node29</title>
<path fill="none" stroke="midnightblue" d="M262.446,-558.939C279.257,-551.61 300.038,-542.913 319,-536 324.994,-533.815 331.374,-531.659 337.669,-529.629"/>
<polygon fill="midnightblue" stroke="midnightblue" points="338.938,-532.899 347.423,-526.555 336.834,-526.222 338.938,-532.899"/>
</g>
<!-- Node35 -->
<g id="node35" class="node"><title>Node35</title>
<g id="a_node35"><a xlink:href="a00071.html#a3974326e212a829eef3dc2a4f554ccf0" target="_top" xlink:title="hpd_service_set_data">
<polygon fill="none" stroke="black" points="325.5,-624.5 325.5,-643.5 437.5,-643.5 437.5,-624.5 325.5,-624.5"/>
<text text-anchor="middle" x="381.5" y="-631.5" font-family="Helvetica,sans-Serif" font-size="10.00">hpd_service_set_data</text>
</a>
</g>
</g>
<!-- Node15&#45;&gt;Node35 -->
<g id="edge46" class="edge"><title>Node15&#45;&gt;Node35</title>
<path fill="none" stroke="midnightblue" d="M263.433,-589.072C280.122,-596.239 300.51,-604.796 319,-612 326.812,-615.044 335.242,-618.165 343.281,-621.064"/>
<polygon fill="midnightblue" stroke="midnightblue" points="342.23,-624.405 352.825,-624.471 344.583,-617.812 342.23,-624.405"/>
</g>
<!-- Node37 -->
<g id="node37" class="node"><title>Node37</title>
<g id="a_node37"><a xlink:href="a00013.html#aae15756770f631aecb995dca162fbc65" target="_top" xlink:title="[create_adapter] ">
<polygon fill="none" stroke="black" points="326.5,-304 326.5,-334 436.5,-334 436.5,-304 326.5,-304"/>
<text text-anchor="start" x="334.5" y="-322" font-family="Helvetica,sans-Serif" font-size="10.00">demo_adapter_create</text>
<text text-anchor="middle" x="381.5" y="-311" font-family="Helvetica,sans-Serif" font-size="10.00">_parameter</text>
</a>
</g>
</g>
<!-- Node15&#45;&gt;Node37 -->
<g id="edge49" class="edge"><title>Node15&#45;&gt;Node37</title>
<path fill="none" stroke="midnightblue" d="M238.023,-558.812C263.39,-516.116 335.485,-394.768 366.276,-342.942"/>
<polygon fill="midnightblue" stroke="midnightblue" points="369.425,-344.493 371.524,-334.108 363.407,-340.918 369.425,-344.493"/>
</g>
<!-- Node41 -->
<g id="node41" class="node"><title>Node41</title>
<g id="a_node41"><a xlink:href="a00071.html#af441be40a9cec089a7bd655e5b7bc61c" target="_top" xlink:title="hpd_service_attach">
<polygon fill="none" stroke="black" points="331,-170.5 331,-189.5 432,-189.5 432,-170.5 331,-170.5"/>
<text text-anchor="middle" x="381.5" y="-177.5" font-family="Helvetica,sans-Serif" font-size="10.00">hpd_service_attach</text>
</a>
</g>
</g>
<!-- Node15&#45;&gt;Node41 -->
<g id="edge53" class="edge"><title>Node15&#45;&gt;Node41</title>
<path fill="none" stroke="midnightblue" d="M228.448,-558.88C227.28,-505.018 230.212,-319.87 319,-210 324.25,-203.503 331.256,-198.312 338.656,-194.2"/>
<polygon fill="midnightblue" stroke="midnightblue" points="340.701,-197.095 348.139,-189.55 337.62,-190.81 340.701,-197.095"/>
</g>
<!-- Node44 -->
<g id="node44" class="node"><title>Node44</title>
<g id="a_node44"><a xlink:href="a00071.html#acebc47c8796cb46b14899df696fae147" target="_top" xlink:title="hpd_service_free">
<polygon fill="none" stroke="black" points="336,-676.5 336,-695.5 427,-695.5 427,-676.5 336,-676.5"/>
<text text-anchor="middle" x="381.5" y="-683.5" font-family="Helvetica,sans-Serif" font-size="10.00">hpd_service_free</text>
</a>
</g>
</g>
<!-- Node15&#45;&gt;Node44 -->
<g id="edge57" class="edge"><title>Node15&#45;&gt;Node44</title>
<path fill="none" stroke="midnightblue" d="M244.035,-589.133C261.218,-605.952 290.642,-633.33 319,-653 328.91,-659.874 340.41,-666.391 350.766,-671.79"/>
<polygon fill="midnightblue" stroke="midnightblue" points="349.376,-675.009 359.877,-676.411 352.542,-668.766 349.376,-675.009"/>
</g>
<!-- Node17 -->
<g id="node17" class="node"><title>Node17</title>
<g id="a_node17"><a xlink:href="a00078.html#a9ac69d02cab7b0cff5d24b6eed07ca8d" target="_top" xlink:title="discovery_alloc_service">
<polygon fill="none" stroke="black" points="488.5,-714.5 488.5,-733.5 609.5,-733.5 609.5,-714.5 488.5,-714.5"/>
<text text-anchor="middle" x="549" y="-721.5" font-family="Helvetica,sans-Serif" font-size="10.00">discovery_alloc_service</text>
</a>
</g>
</g>
<!-- Node16&#45;&gt;Node17 -->
<g id="edge22" class="edge"><title>Node16&#45;&gt;Node17</title>
<path fill="none" stroke="midnightblue" d="M429.041,-724C444.322,-724 461.655,-724 478.269,-724"/>
<polygon fill="midnightblue" stroke="midnightblue" points="478.496,-727.5 488.496,-724 478.496,-720.5 478.496,-727.5"/>
</g>
<!-- Node17&#45;&gt;Node4 -->
<g id="edge23" class="edge"><title>Node17&#45;&gt;Node4</title>
<path fill="none" stroke="midnightblue" d="M564.934,-733.711C584.638,-746.161 620.726,-767.722 654,-781 661.013,-783.799 668.574,-786.309 676.067,-788.517"/>
<polygon fill="midnightblue" stroke="midnightblue" points="675.255,-791.924 685.828,-791.245 677.139,-785.183 675.255,-791.924"/>
</g>
<!-- Node17&#45;&gt;Node6 -->
<g id="edge24" class="edge"><title>Node17&#45;&gt;Node6</title>
<path fill="none" stroke="midnightblue" d="M609.586,-724C625.129,-724 641.996,-724 657.942,-724"/>
<polygon fill="midnightblue" stroke="midnightblue" points="658.264,-727.5 668.264,-724 658.264,-720.5 658.264,-727.5"/>
</g>
<!-- Node19 -->
<g id="node19" class="node"><title>Node19</title>
<g id="a_node19"><a xlink:href="a00078.html#a643fa7550b6c59f0e1ac333ada9e9c34" target="_top" xlink:title="discovery_set_service\l_actions_v">
<polygon fill="none" stroke="black" points="492,-578 492,-608 606,-608 606,-578 492,-578"/>
<text text-anchor="start" x="500" y="-596" font-family="Helvetica,sans-Serif" font-size="10.00">discovery_set_service</text>
<text text-anchor="middle" x="549" y="-585" font-family="Helvetica,sans-Serif" font-size="10.00">_actions_v</text>
</a>
</g>
</g>
<!-- Node18&#45;&gt;Node19 -->
<g id="edge26" class="edge"><title>Node18&#45;&gt;Node19</title>
<path fill="none" stroke="midnightblue" d="M444.126,-593C456.332,-593 469.195,-593 481.553,-593"/>
<polygon fill="midnightblue" stroke="midnightblue" points="481.789,-596.5 491.789,-593 481.789,-589.5 481.789,-596.5"/>
</g>
<!-- Node20 -->
<g id="node20" class="node"><title>Node20</title>
<g id="a_node20"><a xlink:href="a00078.html#a12840172fcaa82f6903016d664e05cc5" target="_top" xlink:title="discovery_set_service\l_action">
<polygon fill="none" stroke="black" points="670,-665 670,-695 784,-695 784,-665 670,-665"/>
<text text-anchor="start" x="678" y="-683" font-family="Helvetica,sans-Serif" font-size="10.00">discovery_set_service</text>
<text text-anchor="middle" x="727" y="-672" font-family="Helvetica,sans-Serif" font-size="10.00">_action</text>
</a>
</g>
</g>
<!-- Node19&#45;&gt;Node20 -->
<g id="edge27" class="edge"><title>Node19&#45;&gt;Node20</title>
<path fill="none" stroke="midnightblue" d="M599.201,-608.069C605.749,-610.932 612.197,-614.234 618,-618 637.246,-630.491 634.642,-642.684 654,-655 657.143,-657 660.466,-658.862 663.891,-660.593"/>
<polygon fill="midnightblue" stroke="midnightblue" points="662.597,-663.851 673.142,-664.873 665.535,-657.498 662.597,-663.851"/>
</g>
<!-- Node22 -->
<g id="node22" class="node"><title>Node22</title>
<g id="a_node22"><a xlink:href="a00013.html#a1d3cd6fde2598f29c88786537becfbb3" target="_top" xlink:title="[definition] ">
<polygon fill="none" stroke="black" points="482.5,-523.5 482.5,-542.5 615.5,-542.5 615.5,-523.5 482.5,-523.5"/>
<text text-anchor="middle" x="549" y="-530.5" font-family="Helvetica,sans-Serif" font-size="10.00">demo_adapter_send_value</text>
</a>
</g>
</g>
<!-- Node21&#45;&gt;Node22 -->
<g id="edge29" class="edge"><title>Node21&#45;&gt;Node22</title>
<path fill="none" stroke="midnightblue" d="M438.07,-547.613C449.037,-546.155 460.72,-544.602 472.223,-543.073"/>
<polygon fill="midnightblue" stroke="midnightblue" points="472.811,-546.526 482.262,-541.739 471.888,-539.587 472.811,-546.526"/>
</g>
<!-- Node23 -->
<g id="node23" class="node"><title>Node23</title>
<g id="a_node23"><a xlink:href="a00071.html#aff4eae061b1220e0bb55de72f8129493" target="_top" xlink:title="[hpd_request_t functions] ">
<polygon fill="none" stroke="red" points="675.5,-550.5 675.5,-569.5 778.5,-569.5 778.5,-550.5 675.5,-550.5"/>
<text text-anchor="middle" x="727" y="-557.5" font-family="Helvetica,sans-Serif" font-size="10.00">hpd_response_alloc</text>
</a>
</g>
</g>
<!-- Node22&#45;&gt;Node23 -->
<g id="edge30" class="edge"><title>Node22&#45;&gt;Node23</title>
<path fill="none" stroke="midnightblue" d="M612.051,-542.519C629.342,-545.172 648.1,-548.049 665.312,-550.69"/>
<polygon fill="midnightblue" stroke="midnightblue" points="664.829,-554.157 675.244,-552.214 665.89,-547.238 664.829,-554.157"/>
</g>
<!-- Node24 -->
<g id="node24" class="node"><title>Node24</title>
<g id="a_node24"><a xlink:href="a00075.html#a0aa34f0ba8202ed0e5d3c71719f658b0" target="_top" xlink:title="hpd_value_allocf">
<polygon fill="none" stroke="red" points="854,-474.5 854,-493.5 943,-493.5 943,-474.5 854,-474.5"/>
<text text-anchor="middle" x="898.5" y="-481.5" font-family="Helvetica,sans-Serif" font-size="10.00">hpd_value_allocf</text>
</a>
</g>
</g>
<!-- Node22&#45;&gt;Node24 -->
<g id="edge31" class="edge"><title>Node22&#45;&gt;Node24</title>
<path fill="none" stroke="midnightblue" d="M615.714,-526.44C666.239,-521.076 737.708,-512.794 800,-503 814.257,-500.758 829.612,-497.952 843.824,-495.19"/>
<polygon fill="midnightblue" stroke="midnightblue" points="844.805,-498.564 853.938,-493.194 843.45,-491.696 844.805,-498.564"/>
</g>
<!-- Node25 -->
<g id="node25" class="node"><title>Node25</title>
<g id="a_node25"><a xlink:href="a00071.html#a23aa9a2e797738188778c906be59221a" target="_top" xlink:title="hpd_response_set_value">
<polygon fill="none" stroke="red" points="664.5,-474.5 664.5,-493.5 789.5,-493.5 789.5,-474.5 664.5,-474.5"/>
<text text-anchor="middle" x="727" y="-481.5" font-family="Helvetica,sans-Serif" font-size="10.00">hpd_response_set_value</text>
</a>
</g>
</g>
<!-- Node22&#45;&gt;Node25 -->
<g id="edge32" class="edge"><title>Node22&#45;&gt;Node25</title>
<path fill="none" stroke="midnightblue" d="M584.352,-523.436C612.214,-515.679 651.679,-504.692 681.878,-496.284"/>
<polygon fill="midnightblue" stroke="midnightblue" points="683.039,-499.594 691.734,-493.54 681.162,-492.85 683.039,-499.594"/>
</g>
<!-- Node26 -->
<g id="node26" class="node"><title>Node26</title>
<g id="a_node26"><a xlink:href="a00071.html#a0f52d1f4e06fe16eb27a1b394bcd6d86" target="_top" xlink:title="hpd_respond">
<polygon fill="none" stroke="red" points="691,-626.5 691,-645.5 763,-645.5 763,-626.5 691,-626.5"/>
<text text-anchor="middle" x="727" y="-633.5" font-family="Helvetica,sans-Serif" font-size="10.00">hpd_respond</text>
</a>
</g>
</g>
<!-- Node22&#45;&gt;Node26 -->
<g id="edge33" class="edge"><title>Node22&#45;&gt;Node26</title>
<path fill="none" stroke="midnightblue" d="M574.95,-542.511C588.6,-548.494 605.272,-557.143 618,-568 638.559,-585.538 631.66,-601.795 654,-617 662.011,-622.453 671.504,-626.341 680.925,-629.114"/>
<polygon fill="midnightblue" stroke="midnightblue" points="680.093,-632.514 690.65,-631.618 681.839,-625.735 680.093,-632.514"/>
</g>
<!-- Node27 -->
<g id="node27" class="node"><title>Node27</title>
<g id="a_node27"><a xlink:href="a00075.html#a214a6d699e1e5cbff10fa2d6fee721ff" target="_top" xlink:title="hpd_value_free">
<polygon fill="none" stroke="red" points="857,-417.5 857,-436.5 940,-436.5 940,-417.5 857,-417.5"/>
<text text-anchor="middle" x="898.5" y="-424.5" font-family="Helvetica,sans-Serif" font-size="10.00">hpd_value_free</text>
</a>
</g>
</g>
<!-- Node22&#45;&gt;Node27 -->
<g id="edge34" class="edge"><title>Node22&#45;&gt;Node27</title>
<path fill="none" stroke="midnightblue" d="M561.26,-523.268C579.432,-508.139 616.949,-479.241 654,-465 717.705,-440.515 796.559,-431.79 846.95,-428.691"/>
<polygon fill="midnightblue" stroke="midnightblue" points="847.159,-432.184 856.946,-428.127 846.764,-425.196 847.159,-432.184"/>
</g>
<!-- Node28 -->
<g id="node28" class="node"><title>Node28</title>
<g id="a_node28"><a xlink:href="a00071.html#a2f50d49e360ca2689857e43bfcd533b3" target="_top" xlink:title="hpd_response_free">
<polygon fill="none" stroke="red" points="677.5,-588.5 677.5,-607.5 776.5,-607.5 776.5,-588.5 677.5,-588.5"/>
<text text-anchor="middle" x="727" y="-595.5" font-family="Helvetica,sans-Serif" font-size="10.00">hpd_response_free</text>
</a>
</g>
</g>
<!-- Node22&#45;&gt;Node28 -->
<g id="edge35" class="edge"><title>Node22&#45;&gt;Node28</title>
<path fill="none" stroke="midnightblue" d="M569.18,-542.586C589.773,-552.615 623.632,-568.352 654,-579 660.878,-581.411 668.218,-583.682 675.483,-585.757"/>
<polygon fill="midnightblue" stroke="midnightblue" points="674.723,-589.178 685.294,-588.46 676.583,-582.43 674.723,-589.178"/>
</g>
<!-- Node29&#45;&gt;Node22 -->
<g id="edge45" class="edge"><title>Node29&#45;&gt;Node22</title>
<path fill="none" stroke="midnightblue" d="M438.07,-522.372C449.037,-523.433 460.72,-524.562 472.223,-525.674"/>
<polygon fill="midnightblue" stroke="midnightblue" points="471.972,-529.166 482.262,-526.645 472.645,-522.199 471.972,-529.166"/>
</g>
<!-- Node30 -->
<g id="node30" class="node"><title>Node30</title>
<g id="a_node30"><a xlink:href="a00013.html#ace98565eb7d2f6a302873024f672b95f" target="_top" xlink:title="[changed] ">
<polygon fill="none" stroke="black" points="486.5,-366.5 486.5,-385.5 611.5,-385.5 611.5,-366.5 486.5,-366.5"/>
<text text-anchor="middle" x="549" y="-373.5" font-family="Helvetica,sans-Serif" font-size="10.00">demo_adapter_set_value</text>
</a>
</g>
</g>
<!-- Node29&#45;&gt;Node30 -->
<g id="edge37" class="edge"><title>Node29&#45;&gt;Node30</title>
<path fill="none" stroke="midnightblue" d="M393.875,-507.308C421.748,-483.562 493.707,-422.256 528.539,-392.58"/>
<polygon fill="midnightblue" stroke="midnightblue" points="531.203,-394.909 536.545,-385.759 526.663,-389.58 531.203,-394.909"/>
</g>
<!-- Node30&#45;&gt;Node7 -->
<g id="edge41" class="edge"><title>Node30&#45;&gt;Node7</title>
<path fill="none" stroke="midnightblue" d="M598.429,-366.463C605.303,-363.991 612.048,-360.889 618,-357 639.152,-343.179 631.167,-323.82 654,-313 831.039,-229.105 1074.01,-350.527 1151.62,-394.304"/>
<polygon fill="midnightblue" stroke="midnightblue" points="1150.23,-397.543 1160.65,-399.473 1153.71,-391.468 1150.23,-397.543"/>
</g>
<!-- Node31 -->
<g id="node31" class="node"><title>Node31</title>
<g id="a_node31"><a xlink:href="a00071.html#a985e1c73f321c64d6a74fb4d1cf8524f" target="_top" xlink:title="hpd_request_get_value">
<polygon fill="none" stroke="red" points="668.5,-246.5 668.5,-265.5 785.5,-265.5 785.5,-246.5 668.5,-246.5"/>
<text text-anchor="middle" x="727" y="-253.5" font-family="Helvetica,sans-Serif" font-size="10.00">hpd_request_get_value</text>
</a>
</g>
</g>
<!-- Node30&#45;&gt;Node31 -->
<g id="edge38" class="edge"><title>Node30&#45;&gt;Node31</title>
<path fill="none" stroke="midnightblue" d="M602.492,-366.438C608.098,-363.976 613.418,-360.883 618,-357 646.822,-332.577 625.789,-305.125 654,-280 658.538,-275.958 663.779,-272.593 669.321,-269.793"/>
<polygon fill="midnightblue" stroke="midnightblue" points="671.119,-272.826 678.862,-265.594 668.299,-266.419 671.119,-272.826"/>
</g>
<!-- Node32 -->
<g id="node32" class="node"><title>Node32</title>
<g id="a_node32"><a xlink:href="a00075.html#af797956501814440a1d9f3110b2b6fba" target="_top" xlink:title="hpd_value_get_body">
<polygon fill="none" stroke="red" points="674,-360.5 674,-379.5 780,-379.5 780,-360.5 674,-360.5"/>
<text text-anchor="middle" x="727" y="-367.5" font-family="Helvetica,sans-Serif" font-size="10.00">hpd_value_get_body</text>
</a>
</g>
</g>
<!-- Node30&#45;&gt;Node32 -->
<g id="edge39" class="edge"><title>Node30&#45;&gt;Node32</title>
<path fill="none" stroke="midnightblue" d="M611.556,-373.901C628.385,-373.328 646.635,-372.706 663.515,-372.13"/>
<polygon fill="midnightblue" stroke="midnightblue" points="663.948,-375.618 673.823,-371.779 663.71,-368.622 663.948,-375.618"/>
</g>
<!-- Node33 -->
<g id="node33" class="node"><title>Node33</title>
<g id="a_node33"><a xlink:href="a00071.html#aadd680601ef9f0c2364a1aeaced59953" target="_top" xlink:title="[hpd_parameter_t functions] ">
<polygon fill="none" stroke="red" points="664.5,-322.5 664.5,-341.5 789.5,-341.5 789.5,-322.5 664.5,-322.5"/>
<text text-anchor="middle" x="727" y="-329.5" font-family="Helvetica,sans-Serif" font-size="10.00">hpd_request_get_service</text>
</a>
</g>
</g>
<!-- Node30&#45;&gt;Node33 -->
<g id="edge40" class="edge"><title>Node30&#45;&gt;Node33</title>
<path fill="none" stroke="midnightblue" d="M588.189,-366.453C614.482,-359.88 649.619,-351.095 677.833,-344.042"/>
<polygon fill="midnightblue" stroke="midnightblue" points="679.033,-347.35 687.885,-341.529 677.335,-340.559 679.033,-347.35"/>
</g>
<!-- Node34 -->
<g id="node34" class="node"><title>Node34</title>
<g id="a_node34"><a xlink:href="a00013.html#adbf1665143a378afa8da1fa998518b3d" target="_top" xlink:title="[send] ">
<polygon fill="none" stroke="red" points="654,-398.5 654,-417.5 800,-417.5 800,-398.5 654,-398.5"/>
<text text-anchor="middle" x="727" y="-405.5" font-family="Helvetica,sans-Serif" font-size="10.00">demo_adapter_send_changed</text>
</a>
</g>
</g>
<!-- Node30&#45;&gt;Node34 -->
<g id="edge42" class="edge"><title>Node30&#45;&gt;Node34</title>
<path fill="none" stroke="midnightblue" d="M602.329,-385.514C621.573,-389.013 643.556,-393.01 663.599,-396.654"/>
<polygon fill="midnightblue" stroke="midnightblue" points="663.104,-400.122 673.568,-398.467 664.356,-393.235 663.104,-400.122"/>
</g>
<!-- Node34&#45;&gt;Node24 -->
<g id="edge43" class="edge"><title>Node34&#45;&gt;Node24</title>
<path fill="none" stroke="midnightblue" d="M749.467,-417.625C779.142,-430.931 832.866,-455.02 866.784,-470.228"/>
<polygon fill="midnightblue" stroke="midnightblue" points="865.65,-473.555 876.207,-474.453 868.514,-467.168 865.65,-473.555"/>
</g>
<!-- Node34&#45;&gt;Node27 -->
<g id="edge44" class="edge"><title>Node34&#45;&gt;Node27</title>
<path fill="none" stroke="midnightblue" d="M800.375,-416.113C815.87,-417.85 831.928,-419.65 846.419,-421.274"/>
<polygon fill="midnightblue" stroke="midnightblue" points="846.335,-424.787 856.663,-422.422 847.115,-417.83 846.335,-424.787"/>
</g>
<!-- Node36 -->
<g id="node36" class="node"><title>Node36</title>
<g id="a_node36"><a xlink:href="a00078.html#a4c01b35f7a53d7d3b4fcdc53cd3a275a" target="_top" xlink:title="discovery_set_service_data">
<polygon fill="none" stroke="black" points="480,-627.5 480,-646.5 618,-646.5 618,-627.5 480,-627.5"/>
<text text-anchor="middle" x="549" y="-634.5" font-family="Helvetica,sans-Serif" font-size="10.00">discovery_set_service_data</text>
</a>
</g>
</g>
<!-- Node35&#45;&gt;Node36 -->
<g id="edge47" class="edge"><title>Node35&#45;&gt;Node36</title>
<path fill="none" stroke="midnightblue" d="M437.609,-634.999C447.87,-635.185 458.772,-635.383 469.575,-635.578"/>
<polygon fill="midnightblue" stroke="midnightblue" points="469.817,-639.083 479.879,-635.765 469.944,-632.084 469.817,-639.083"/>
</g>
<!-- Node38 -->
<g id="node38" class="node"><title>Node38</title>
<g id="a_node38"><a xlink:href="a00071.html#a510d8b9b58d0cf4d661e7e433004ca10" target="_top" xlink:title="[hpd_service_t functions] ">
<polygon fill="none" stroke="red" points="495.5,-290.5 495.5,-309.5 602.5,-309.5 602.5,-290.5 495.5,-290.5"/>
<text text-anchor="middle" x="549" y="-297.5" font-family="Helvetica,sans-Serif" font-size="10.00">hpd_parameter_alloc</text>
</a>
</g>
</g>
<!-- Node37&#45;&gt;Node38 -->
<g id="edge50" class="edge"><title>Node37&#45;&gt;Node38</title>
<path fill="none" stroke="midnightblue" d="M436.691,-312.779C452.157,-311.003 469.141,-309.053 485.081,-307.223"/>
<polygon fill="midnightblue" stroke="midnightblue" points="485.843,-310.659 495.379,-306.041 485.045,-303.705 485.843,-310.659"/>
</g>
<!-- Node39 -->
<g id="node39" class="node"><title>Node39</title>
<g id="a_node39"><a xlink:href="a00071.html#add11419bd4fd209882bbe83c8ce8442a" target="_top" xlink:title="hpd_parameter_attach">
<polygon fill="none" stroke="red" points="492.5,-252.5 492.5,-271.5 605.5,-271.5 605.5,-252.5 492.5,-252.5"/>
<text text-anchor="middle" x="549" y="-259.5" font-family="Helvetica,sans-Serif" font-size="10.00">hpd_parameter_attach</text>
</a>
</g>
</g>
<!-- Node37&#45;&gt;Node39 -->
<g id="edge51" class="edge"><title>Node37&#45;&gt;Node39</title>
<path fill="none" stroke="midnightblue" d="M418.763,-303.878C436.983,-296.535 459.492,-287.843 480,-281 486.875,-278.706 494.201,-276.458 501.404,-274.358"/>
<polygon fill="midnightblue" stroke="midnightblue" points="502.438,-277.702 511.095,-271.594 500.519,-270.971 502.438,-277.702"/>
</g>
<!-- Node40 -->
<g id="node40" class="node"><title>Node40</title>
<g id="a_node40"><a xlink:href="a00071.html#ad8c6360b9faf931207a84a045e44b858" target="_top" xlink:title="hpd_parameter_free">
<polygon fill="none" stroke="red" points="497.5,-328.5 497.5,-347.5 600.5,-347.5 600.5,-328.5 497.5,-328.5"/>
<text text-anchor="middle" x="549" y="-335.5" font-family="Helvetica,sans-Serif" font-size="10.00">hpd_parameter_free</text>
</a>
</g>
</g>
<!-- Node37&#45;&gt;Node40 -->
<g id="edge52" class="edge"><title>Node37&#45;&gt;Node40</title>
<path fill="none" stroke="midnightblue" d="M436.691,-325.221C452.851,-327.077 470.667,-329.122 487.22,-331.022"/>
<polygon fill="midnightblue" stroke="midnightblue" points="487.002,-334.52 497.336,-332.184 487.801,-327.566 487.002,-334.52"/>
</g>
<!-- Node42 -->
<g id="node42" class="node"><title>Node42</title>
<g id="a_node42"><a xlink:href="a00078.html#a08b48adff4a5e7d078589e6a9b9070f7" target="_top" xlink:title="discovery_is_service\l_id_unique">
<polygon fill="none" stroke="black" points="495,-165 495,-195 603,-195 603,-165 495,-165"/>
<text text-anchor="start" x="503" y="-183" font-family="Helvetica,sans-Serif" font-size="10.00">discovery_is_service</text>
<text text-anchor="middle" x="549" y="-172" font-family="Helvetica,sans-Serif" font-size="10.00">_id_unique</text>
</a>
</g>
</g>
<!-- Node41&#45;&gt;Node42 -->
<g id="edge54" class="edge"><title>Node41&#45;&gt;Node42</title>
<path fill="none" stroke="midnightblue" d="M432.155,-180C448.711,-180 467.382,-180 484.822,-180"/>
<polygon fill="midnightblue" stroke="midnightblue" points="484.923,-183.5 494.923,-180 484.923,-176.5 484.923,-183.5"/>
</g>
<!-- Node43 -->
<g id="node43" class="node"><title>Node43</title>
<g id="a_node43"><a xlink:href="a00078.html#ab4f92e53eeaf47d2ee95e64a990dc022" target="_top" xlink:title="discovery_attach_service">
<polygon fill="none" stroke="black" points="997,-170.5 997,-189.5 1125,-189.5 1125,-170.5 997,-170.5"/>
<text text-anchor="middle" x="1061" y="-177.5" font-family="Helvetica,sans-Serif" font-size="10.00">discovery_attach_service</text>
</a>
</g>
</g>
<!-- Node41&#45;&gt;Node43 -->
<g id="edge55" class="edge"><title>Node41&#45;&gt;Node43</title>
<path fill="none" stroke="midnightblue" d="M411.996,-170.375C431.143,-164.643 456.768,-157.931 480,-155 661.573,-132.092 877.369,-154.259 987.488,-169.083"/>
<polygon fill="midnightblue" stroke="midnightblue" points="987.107,-172.563 997.488,-170.448 988.054,-165.627 987.107,-172.563"/>
</g>
<!-- Node43&#45;&gt;Node7 -->
<g id="edge56" class="edge"><title>Node43&#45;&gt;Node7</title>
<path fill="none" stroke="midnightblue" d="M1104.18,-189.61C1111.97,-193.046 1119.4,-197.701 1125,-204 1172.8,-257.794 1177.59,-349.466 1177.21,-389.419"/>
<polygon fill="midnightblue" stroke="midnightblue" points="1173.71,-389.374 1176.99,-399.448 1180.71,-389.527 1173.71,-389.374"/>
</g>
<!-- Node44&#45;&gt;Node6 -->
<g id="edge58" class="edge"><title>Node44&#45;&gt;Node6</title>
<path fill="none" stroke="midnightblue" d="M427.338,-688.365C474.816,-691.162 551.885,-696.536 618,-705 634.033,-707.052 651.31,-709.833 667.243,-712.634"/>
<polygon fill="midnightblue" stroke="midnightblue" points="667.032,-716.152 677.493,-714.469 668.266,-709.261 667.032,-716.152"/>
</g>
<!-- Node46 -->
<g id="node46" class="node"><title>Node46</title>
<g id="a_node46"><a xlink:href="a00020.html#adbc376ab1130f0595796c540f0b5e515" target="_top" xlink:title="discovery_find_adapter">
<polygon fill="none" stroke="black" points="840,-0.5 840,-19.5 957,-19.5 957,-0.5 840,-0.5"/>
<text text-anchor="middle" x="898.5" y="-7.5" font-family="Helvetica,sans-Serif" font-size="10.00">discovery_find_adapter</text>
</a>
</g>
</g>
<!-- Node45&#45;&gt;Node46 -->
<g id="edge60" class="edge"><title>Node45&#45;&gt;Node46</title>
<path fill="none" stroke="midnightblue" d="M748.03,-66.4861C769.509,-56.4732 804.748,-40.5873 836,-29 841.914,-26.8075 848.209,-24.6582 854.43,-22.6397"/>
<polygon fill="midnightblue" stroke="midnightblue" points="855.6,-25.9405 864.079,-19.588 853.49,-19.2663 855.6,-25.9405"/>
</g>
<!-- Node47 -->
<g id="node47" class="node"><title>Node47</title>
<g id="a_node47"><a xlink:href="a00078.html#ab36fdf5db19b4fa411dcb53a85a023eb" target="_top" xlink:title="discovery_is_device\l_id_unique">
<polygon fill="none" stroke="black" points="846,-39 846,-69 951,-69 951,-39 846,-39"/>
<text text-anchor="start" x="854" y="-57" font-family="Helvetica,sans-Serif" font-size="10.00">discovery_is_device</text>
<text text-anchor="middle" x="898.5" y="-46" font-family="Helvetica,sans-Serif" font-size="10.00">_id_unique</text>
</a>
</g>
</g>
<!-- Node45&#45;&gt;Node47 -->
<g id="edge61" class="edge"><title>Node45&#45;&gt;Node47</title>
<path fill="none" stroke="midnightblue" d="M776.119,-69.7545C794.621,-67.353 816.009,-64.577 835.628,-62.0306"/>
<polygon fill="midnightblue" stroke="midnightblue" points="836.235,-65.4812 845.702,-60.7231 835.334,-58.5394 836.235,-65.4812"/>
</g>
<!-- Node48 -->
<g id="node48" class="node"><title>Node48</title>
<g id="a_node48"><a xlink:href="a00078.html#affbbf9ded6a14798e8b3336886c72e0a" target="_top" xlink:title="discovery_attach_device">
<polygon fill="none" stroke="black" points="836,-88.5 836,-107.5 961,-107.5 961,-88.5 836,-88.5"/>
<text text-anchor="middle" x="898.5" y="-95.5" font-family="Helvetica,sans-Serif" font-size="10.00">discovery_attach_device</text>
</a>
</g>
</g>
<!-- Node45&#45;&gt;Node48 -->
<g id="edge62" class="edge"><title>Node45&#45;&gt;Node48</title>
<path fill="none" stroke="midnightblue" d="M776.119,-82.2455C791.518,-84.2443 808.917,-86.5024 825.63,-88.6718"/>
<polygon fill="midnightblue" stroke="midnightblue" points="825.557,-92.1916 835.925,-90.0079 826.458,-85.2498 825.557,-92.1916"/>
</g>
<!-- Node48&#45;&gt;Node7 -->
<g id="edge65" class="edge"><title>Node48&#45;&gt;Node7</title>
<path fill="none" stroke="midnightblue" d="M937.648,-107.56C1000.24,-123.398 1118.49,-154.03 1125,-161 1156.19,-194.375 1170.67,-336.914 1175.03,-389.453"/>
<polygon fill="midnightblue" stroke="midnightblue" points="1171.54,-389.794 1175.82,-399.485 1178.52,-389.24 1171.54,-389.794"/>
</g>
<!-- Node49 -->
<g id="node49" class="node"><title>Node49</title>
<g id="a_node49"><a xlink:href="a00081.html#a8e77eacc816b401e7f31d4cf625edc71" target="_top" xlink:title="event_inform_device\l_attached">
<polygon fill="none" stroke="red" points="1007.5,-83 1007.5,-113 1114.5,-113 1114.5,-83 1007.5,-83"/>
<text text-anchor="start" x="1015.5" y="-101" font-family="Helvetica,sans-Serif" font-size="10.00">event_inform_device</text>
<text text-anchor="middle" x="1061" y="-90" font-family="Helvetica,sans-Serif" font-size="10.00">_attached</text>
</a>
</g>
</g>
<!-- Node48&#45;&gt;Node49 -->
<g id="edge63" class="edge"><title>Node48&#45;&gt;Node49</title>
<path fill="none" stroke="midnightblue" d="M961.094,-98C972.923,-98 985.324,-98 997.191,-98"/>
<polygon fill="midnightblue" stroke="midnightblue" points="997.453,-101.5 1007.45,-98 997.453,-94.5001 997.453,-101.5"/>
</g>
<!-- Node49&#45;&gt;Node7 -->
<g id="edge64" class="edge"><title>Node49&#45;&gt;Node7</title>
<path fill="none" stroke="midnightblue" d="M1107.52,-113.114C1114.19,-117.049 1120.36,-121.942 1125,-128 1156.68,-169.343 1171.04,-331.991 1175.18,-389.071"/>
<polygon fill="midnightblue" stroke="midnightblue" points="1171.7,-389.558 1175.89,-399.291 1178.69,-389.072 1171.7,-389.558"/>
</g>
<!-- Node50&#45;&gt;Node5 -->
<g id="edge67" class="edge"><title>Node50&#45;&gt;Node5</title>
<path fill="none" stroke="midnightblue" d="M272.022,-838C325.828,-838 418.519,-838 481.492,-838"/>
<polygon fill="midnightblue" stroke="midnightblue" points="481.721,-841.5 491.721,-838 481.721,-834.5 481.721,-841.5"/>
</g>
</g>
</svg>
