<?xml version="1.0" encoding="UTF-8" standalone="no"?>
<!DOCTYPE svg PUBLIC "-//W3C//DTD SVG 1.1//EN"
 "http://www.w3.org/Graphics/SVG/1.1/DTD/svg11.dtd">
<!-- Generated by graphviz version 2.38.0 (20140413.2041)
 -->
<!-- Title: hpd_httpd_request_keep_open Pages: 1 -->
<svg width="360pt" height="28pt"
 viewBox="0.00 0.00 360.00 28.00" xmlns="http://www.w3.org/2000/svg" xmlns:xlink="http://www.w3.org/1999/xlink">
<g id="graph0" class="graph" transform="scale(1 1) rotate(0) translate(4 24)">
<title>hpd_httpd_request_keep_open</title>
<!-- Node1 -->
<g id="node1" class="node"><title>Node1</title>
<polygon fill="#bfbfbf" stroke="black" points="0,-0.5 0,-19.5 149,-19.5 149,-0.5 0,-0.5"/>
<text text-anchor="middle" x="74.5" y="-7.5" font-family="Helvetica,sans-Serif" font-size="10.00">hpd_httpd_request_keep_open</text>
</g>
<!-- Node2 -->
<g id="node2" class="node"><title>Node2</title>
<g id="a_node2"><a xlink:href="a00025.html#a74ba52adbe4c46e9a9c33649e3b75243" target="_top" xlink:title="on_req_cmpl">
<polygon fill="none" stroke="black" points="185,-0.5 185,-19.5 257,-19.5 257,-0.5 185,-0.5"/>
<text text-anchor="middle" x="221" y="-7.5" font-family="Helvetica,sans-Serif" font-size="10.00">on_req_cmpl</text>
</a>
</g>
</g>
<!-- Node1&#45;&gt;Node2 -->
<g id="edge1" class="edge"><title>Node1&#45;&gt;Node2</title>
<path fill="none" stroke="midnightblue" d="M159.159,-10C168.076,-10 176.756,-10 184.635,-10"/>
<polygon fill="midnightblue" stroke="midnightblue" points="159.02,-6.5001 149.02,-10 159.02,-13.5001 159.02,-6.5001"/>
</g>
<!-- Node3 -->
<g id="node3" class="node"><title>Node3</title>
<g id="a_node3"><a xlink:href="a00025.html#ad079431c7eba97c5dd5e4e202cdf6102" target="_top" xlink:title="on_create">
<polygon fill="none" stroke="black" points="293,-0.5 293,-19.5 352,-19.5 352,-0.5 293,-0.5"/>
<text text-anchor="middle" x="322.5" y="-7.5" font-family="Helvetica,sans-Serif" font-size="10.00">on_create</text>
</a>
</g>
</g>
<!-- Node2&#45;&gt;Node3 -->
<g id="edge2" class="edge"><title>Node2&#45;&gt;Node3</title>
<path fill="none" stroke="midnightblue" d="M267.212,-10C275.974,-10 284.925,-10 292.965,-10"/>
<polygon fill="midnightblue" stroke="midnightblue" points="267.08,-6.5001 257.08,-10 267.08,-13.5001 267.08,-6.5001"/>
</g>
</g>
</svg>
