<?xml version="1.0" encoding="UTF-8" standalone="no"?>
<!DOCTYPE svg PUBLIC "-//W3C//DTD SVG 1.1//EN"
 "http://www.w3.org/Graphics/SVG/1.1/DTD/svg11.dtd">
<!-- Generated by graphviz version 2.38.0 (20140413.2041)
 -->
<!-- Title: hpd_demo_adapter_create Pages: 1 -->
<svg width="506pt" height="66pt"
 viewBox="0.00 0.00 506.00 66.00" xmlns="http://www.w3.org/2000/svg" xmlns:xlink="http://www.w3.org/1999/xlink">
<g id="graph0" class="graph" transform="scale(1 1) rotate(0) translate(4 62)">
<title>hpd_demo_adapter_create</title>
<!-- Node1 -->
<g id="node1" class="node"><title>Node1</title>
<polygon fill="#bfbfbf" stroke="black" points="0,-19.5 0,-38.5 131,-38.5 131,-19.5 0,-19.5"/>
<text text-anchor="middle" x="65.5" y="-26.5" font-family="Helvetica,sans-Serif" font-size="10.00">hpd_demo_adapter_create</text>
</g>
<!-- Node2 -->
<g id="node2" class="node"><title>Node2</title>
<g id="a_node2"><a xlink:href="a00056.html#ad2f7effac0a1e5955e159ea5aca1ea78" target="_top" xlink:title="hpd_module_get_id">
<polygon fill="none" stroke="black" points="177.5,-38.5 177.5,-57.5 278.5,-57.5 278.5,-38.5 177.5,-38.5"/>
<text text-anchor="middle" x="228" y="-45.5" font-family="Helvetica,sans-Serif" font-size="10.00">hpd_module_get_id</text>
</a>
</g>
</g>
<!-- Node1&#45;&gt;Node2 -->
<g id="edge1" class="edge"><title>Node1&#45;&gt;Node2</title>
<path fill="none" stroke="midnightblue" d="M131.319,-36.6733C143.162,-38.0752 155.471,-39.5324 167.161,-40.9163"/>
<polygon fill="midnightblue" stroke="midnightblue" points="166.905,-44.4103 177.247,-42.1103 167.728,-37.4589 166.905,-44.4103"/>
</g>
<!-- Node4 -->
<g id="node4" class="node"><title>Node4</title>
<g id="a_node4"><a xlink:href="a00056.html#ae215a28ac4e61dfa35bee54fa68f59dc" target="_top" xlink:title="[hpd_t functions] ">
<polygon fill="none" stroke="black" points="167,-0.5 167,-19.5 289,-19.5 289,-0.5 167,-0.5"/>
<text text-anchor="middle" x="228" y="-7.5" font-family="Helvetica,sans-Serif" font-size="10.00">hpd_module_add_option</text>
</a>
</g>
</g>
<!-- Node1&#45;&gt;Node4 -->
<g id="edge3" class="edge"><title>Node1&#45;&gt;Node4</title>
<path fill="none" stroke="midnightblue" d="M131.319,-21.3267C139.669,-20.3383 148.251,-19.3224 156.684,-18.324"/>
<polygon fill="midnightblue" stroke="midnightblue" points="157.352,-21.7695 166.871,-17.1181 156.529,-14.818 157.352,-21.7695"/>
</g>
<!-- Node3 -->
<g id="node3" class="node"><title>Node3</title>
<g id="a_node3"><a xlink:href="a00057.html#aefe9c12aa200eb18ec2ade2ed01b2229" target="_top" xlink:title="daemon_get_id">
<polygon fill="none" stroke="black" points="335.5,-38.5 335.5,-57.5 418.5,-57.5 418.5,-38.5 335.5,-38.5"/>
<text text-anchor="middle" x="377" y="-45.5" font-family="Helvetica,sans-Serif" font-size="10.00">daemon_get_id</text>
</a>
</g>
</g>
<!-- Node2&#45;&gt;Node3 -->
<g id="edge2" class="edge"><title>Node2&#45;&gt;Node3</title>
<path fill="none" stroke="midnightblue" d="M278.767,-48C293.656,-48 310,-48 324.968,-48"/>
<polygon fill="midnightblue" stroke="midnightblue" points="325.077,-51.5001 335.077,-48 325.077,-44.5001 325.077,-51.5001"/>
</g>
<!-- Node5 -->
<g id="node5" class="node"><title>Node5</title>
<g id="a_node5"><a xlink:href="a00057.html#a27a83a7b452cacefcf9f08c8962243f5" target="_top" xlink:title="daemon_add_option">
<polygon fill="none" stroke="black" points="325,-0.5 325,-19.5 429,-19.5 429,-0.5 325,-0.5"/>
<text text-anchor="middle" x="377" y="-7.5" font-family="Helvetica,sans-Serif" font-size="10.00">daemon_add_option</text>
</a>
</g>
</g>
<!-- Node4&#45;&gt;Node5 -->
<g id="edge4" class="edge"><title>Node4&#45;&gt;Node5</title>
<path fill="none" stroke="midnightblue" d="M289.215,-10C297.557,-10 306.136,-10 314.502,-10"/>
<polygon fill="midnightblue" stroke="midnightblue" points="314.57,-13.5001 324.57,-10 314.57,-6.5001 314.57,-13.5001"/>
</g>
<!-- Node6 -->
<g id="node6" class="node"><title>Node6</title>
<g id="a_node6"><a xlink:href="a00006.html#adf46370d9c211c3be22966b4606ba9b0" target="_top" xlink:title="free">
<polygon fill="none" stroke="black" points="465,-0.5 465,-19.5 498,-19.5 498,-0.5 465,-0.5"/>
<text text-anchor="middle" x="481.5" y="-7.5" font-family="Helvetica,sans-Serif" font-size="10.00">free</text>
</a>
</g>
</g>
<!-- Node5&#45;&gt;Node6 -->
<g id="edge5" class="edge"><title>Node5&#45;&gt;Node6</title>
<path fill="none" stroke="midnightblue" d="M429.25,-10C438.095,-10 446.939,-10 454.73,-10"/>
<polygon fill="midnightblue" stroke="midnightblue" points="454.932,-13.5001 464.932,-10 454.932,-6.5001 454.932,-13.5001"/>
</g>
</g>
</svg>
