<?xml version="1.0" encoding="UTF-8" standalone="no"?>
<!DOCTYPE svg PUBLIC "-//W3C//DTD SVG 1.1//EN"
 "http://www.w3.org/Graphics/SVG/1.1/DTD/svg11.dtd">
<!-- Generated by graphviz version 2.38.0 (20140413.2041)
 -->
<!-- Title: hpd_service_get_attr Pages: 1 -->
<svg width="396pt" height="66pt"
 viewBox="0.00 0.00 396.00 66.00" xmlns="http://www.w3.org/2000/svg" xmlns:xlink="http://www.w3.org/1999/xlink">
<g id="graph0" class="graph" transform="scale(1 1) rotate(0) translate(4 62)">
<title>hpd_service_get_attr</title>
<!-- Node1 -->
<g id="node1" class="node"><title>Node1</title>
<polygon fill="#bfbfbf" stroke="black" points="0,-19.5 0,-38.5 107,-38.5 107,-19.5 0,-19.5"/>
<text text-anchor="middle" x="53.5" y="-26.5" font-family="Helvetica,sans-Serif" font-size="10.00">hpd_service_get_attr</text>
</g>
<!-- Node2 -->
<g id="node2" class="node"><title>Node2</title>
<g id="a_node2"><a xlink:href="a00011.html#a0a2ab1d55e44c5a4488fed87c0fbc508" target="_top" xlink:title="discovery_find_service">
<polygon fill="none" stroke="black" points="152,-38.5 152,-57.5 268,-57.5 268,-38.5 152,-38.5"/>
<text text-anchor="middle" x="210" y="-45.5" font-family="Helvetica,sans-Serif" font-size="10.00">discovery_find_service</text>
</a>
</g>
</g>
<!-- Node1&#45;&gt;Node2 -->
<g id="edge1" class="edge"><title>Node1&#45;&gt;Node2</title>
<path fill="none" stroke="midnightblue" d="M107.238,-35.4856C118.326,-36.8492 130.166,-38.3052 141.705,-39.7242"/>
<polygon fill="midnightblue" stroke="midnightblue" points="141.388,-43.2116 151.741,-40.9584 142.243,-36.2639 141.388,-43.2116"/>
</g>
<!-- Node3 -->
<g id="node3" class="node"><title>Node3</title>
<g id="a_node3"><a xlink:href="a00063.html#a32f648bc0efcc6b73952e72fc1085124" target="_top" xlink:title="discovery_get_service_attr">
<polygon fill="none" stroke="black" points="143,-0.5 143,-19.5 277,-19.5 277,-0.5 143,-0.5"/>
<text text-anchor="middle" x="210" y="-7.5" font-family="Helvetica,sans-Serif" font-size="10.00">discovery_get_service_attr</text>
</a>
</g>
</g>
<!-- Node1&#45;&gt;Node3 -->
<g id="edge2" class="edge"><title>Node1&#45;&gt;Node3</title>
<path fill="none" stroke="midnightblue" d="M107.238,-22.5144C115.469,-21.5022 124.114,-20.4391 132.742,-19.378"/>
<polygon fill="midnightblue" stroke="midnightblue" points="133.34,-22.8309 142.838,-18.1364 132.486,-15.8832 133.34,-22.8309"/>
</g>
<!-- Node4 -->
<g id="node4" class="node"><title>Node4</title>
<g id="a_node4"><a xlink:href="a00046.html#a3eb33be000f845d28ec16639f235ceb2" target="_top" xlink:title="hpd_map_get">
<polygon fill="none" stroke="black" points="313,-0.5 313,-19.5 388,-19.5 388,-0.5 313,-0.5"/>
<text text-anchor="middle" x="350.5" y="-7.5" font-family="Helvetica,sans-Serif" font-size="10.00">hpd_map_get</text>
</a>
</g>
</g>
<!-- Node3&#45;&gt;Node4 -->
<g id="edge3" class="edge"><title>Node3&#45;&gt;Node4</title>
<path fill="none" stroke="midnightblue" d="M277.005,-10C285.627,-10 294.316,-10 302.536,-10"/>
<polygon fill="midnightblue" stroke="midnightblue" points="302.657,-13.5001 312.657,-10 302.657,-6.5001 302.657,-13.5001"/>
</g>
</g>
</svg>
