<?xml version="1.0" encoding="UTF-8" standalone="no"?>
<!DOCTYPE svg PUBLIC "-//W3C//DTD SVG 1.1//EN"
 "http://www.w3.org/Graphics/SVG/1.1/DTD/svg11.dtd">
<!-- Generated by graphviz version 2.38.0 (20140413.2041)
 -->
<!-- Title: hpd_service_get_id Pages: 1 -->
<svg width="272pt" height="66pt"
 viewBox="0.00 0.00 272.00 66.00" xmlns="http://www.w3.org/2000/svg" xmlns:xlink="http://www.w3.org/1999/xlink">
<g id="graph0" class="graph" transform="scale(1 1) rotate(0) translate(4 62)">
<title>hpd_service_get_id</title>
<!-- Node1 -->
<g id="node1" class="node"><title>Node1</title>
<polygon fill="#bfbfbf" stroke="black" points="0,-19.5 0,-38.5 101,-38.5 101,-19.5 0,-19.5"/>
<text text-anchor="middle" x="50.5" y="-26.5" font-family="Helvetica,sans-Serif" font-size="10.00">hpd_service_get_id</text>
</g>
<!-- Node2 -->
<g id="node2" class="node"><title>Node2</title>
<g id="a_node2"><a xlink:href="a00020.html#a6ca3b5d1e545bf48e3f2b57c3e323831" target="_top" xlink:title="discovery_find_service">
<polygon fill="none" stroke="black" points="142.5,-38.5 142.5,-57.5 258.5,-57.5 258.5,-38.5 142.5,-38.5"/>
<text text-anchor="middle" x="200.5" y="-45.5" font-family="Helvetica,sans-Serif" font-size="10.00">discovery_find_service</text>
</a>
</g>
</g>
<!-- Node1&#45;&gt;Node2 -->
<g id="edge1" class="edge"><title>Node1&#45;&gt;Node2</title>
<path fill="none" stroke="midnightblue" d="M101.194,-35.3796C111.185,-36.6622 121.841,-38.0302 132.313,-39.3747"/>
<polygon fill="midnightblue" stroke="midnightblue" points="131.906,-42.851 142.27,-40.6529 132.797,-35.908 131.906,-42.851"/>
</g>
<!-- Node3 -->
<g id="node3" class="node"><title>Node3</title>
<g id="a_node3"><a xlink:href="a00078.html#a0c24b895ea333fedf685a75e27e64c37" target="_top" xlink:title="discovery_get_service_id">
<polygon fill="none" stroke="black" points="137,-0.5 137,-19.5 264,-19.5 264,-0.5 137,-0.5"/>
<text text-anchor="middle" x="200.5" y="-7.5" font-family="Helvetica,sans-Serif" font-size="10.00">discovery_get_service_id</text>
</a>
</g>
</g>
<!-- Node1&#45;&gt;Node3 -->
<g id="edge2" class="edge"><title>Node1&#45;&gt;Node3</title>
<path fill="none" stroke="midnightblue" d="M101.194,-22.6204C109.402,-21.5666 118.06,-20.4552 126.696,-19.3465"/>
<polygon fill="midnightblue" stroke="midnightblue" points="127.322,-22.7949 136.795,-18.05 126.431,-15.8519 127.322,-22.7949"/>
</g>
</g>
</svg>
