<?xml version="1.0" encoding="UTF-8" standalone="no"?>
<!DOCTYPE svg PUBLIC "-//W3C//DTD SVG 1.1//EN"
 "http://www.w3.org/Graphics/SVG/1.1/DTD/svg11.dtd">
<!-- Generated by graphviz version 2.38.0 (20140413.2041)
 -->
<!-- Title: on_req_body Pages: 1 -->
<svg width="212pt" height="66pt"
 viewBox="0.00 0.00 212.00 66.00" xmlns="http://www.w3.org/2000/svg" xmlns:xlink="http://www.w3.org/1999/xlink">
<g id="graph0" class="graph" transform="scale(1 1) rotate(0) translate(4 62)">
<title>on_req_body</title>
<!-- Node1 -->
<g id="node1" class="node"><title>Node1</title>
<polygon fill="#bfbfbf" stroke="black" points="0,-19.5 0,-38.5 72,-38.5 72,-19.5 0,-19.5"/>
<text text-anchor="middle" x="36" y="-26.5" font-family="Helvetica,sans-Serif" font-size="10.00">on_req_body</text>
</g>
<!-- Node2 -->
<g id="node2" class="node"><title>Node2</title>
<g id="a_node2"><a xlink:href="a00038.html#a3e22da197083e90a2456a4ccd8a374d0" target="_top" xlink:title="ASSERT_EQUAL">
<polygon fill="none" stroke="black" points="108,-38.5 108,-57.5 204,-57.5 204,-38.5 108,-38.5"/>
<text text-anchor="middle" x="156" y="-45.5" font-family="Helvetica,sans-Serif" font-size="10.00">ASSERT_EQUAL</text>
</a>
</g>
</g>
<!-- Node1&#45;&gt;Node2 -->
<g id="edge1" class="edge"><title>Node1&#45;&gt;Node2</title>
<path fill="none" stroke="midnightblue" d="M72.0844,-34.6492C80.0924,-35.9386 88.8079,-37.3419 97.4807,-38.7384"/>
<polygon fill="midnightblue" stroke="midnightblue" points="97.168,-42.2331 107.597,-40.3674 98.2808,-35.3221 97.168,-42.2331"/>
</g>
<!-- Node3 -->
<g id="node3" class="node"><title>Node3</title>
<g id="a_node3"><a xlink:href="a00039.html#aaa2d8dc19b62214bbe05d9486b8c570a" target="_top" xlink:title="ncat">
<polygon fill="none" stroke="black" points="138.5,-0.5 138.5,-19.5 173.5,-19.5 173.5,-0.5 138.5,-0.5"/>
<text text-anchor="middle" x="156" y="-7.5" font-family="Helvetica,sans-Serif" font-size="10.00">ncat</text>
</a>
</g>
</g>
<!-- Node1&#45;&gt;Node3 -->
<g id="edge2" class="edge"><title>Node1&#45;&gt;Node3</title>
<path fill="none" stroke="midnightblue" d="M72.0844,-23.3508C90.029,-20.4614 111.527,-17 128.135,-14.3257"/>
<polygon fill="midnightblue" stroke="midnightblue" points="128.94,-17.7412 138.257,-12.6959 127.828,-10.8302 128.94,-17.7412"/>
</g>
</g>
</svg>
