<?xml version="1.0" encoding="UTF-8" standalone="no"?>
<!DOCTYPE svg PUBLIC "-//W3C//DTD SVG 1.1//EN"
 "http://www.w3.org/Graphics/SVG/1.1/DTD/svg11.dtd">
<!-- Generated by graphviz version 2.38.0 (20140413.2041)
 -->
<!-- Title: discovery_free_aid Pages: 1 -->
<!--zoomable 354 -->
<svg id="main" version="1.1" xmlns="http://www.w3.org/2000/svg" xmlns:xlink="http://www.w3.org/1999/xlink" xml:space="preserve" onload="init(evt)">
<style type="text/css"><![CDATA[
.edge:hover path { stroke: red; }
.edge:hover polygon { stroke: red; fill: red; }
]]></style>
<script type="text/javascript"><![CDATA[
var edges = document.getElementsByTagName('g');
if (edges && edges.length) {
  for (var i=0;i<edges.length;i++) {
    if (edges[i].id.substr(0,4)=='edge') {
      edges[i].setAttribute('class','edge');
    }
  }
}
]]></script>
        <defs>
                <circle id="rim" cx="0" cy="0" r="7"/>
                <circle id="rim2" cx="0" cy="0" r="3.5"/>
                <g id="zoomPlus">
                        <use xlink:href="#rim" fill="#404040">
                                <set attributeName="fill" to="#808080" begin="zoomplus.mouseover" end="zoomplus.mouseout"/>
                        </use>
                        <path d="M-4,0h8M0,-4v8" fill="none" stroke="white" stroke-width="1.5" pointer-events="none"/>
                </g>
                <g id="zoomMin">
                        <use xlink:href="#rim" fill="#404040">
                                <set attributeName="fill" to="#808080" begin="zoomminus.mouseover" end="zoomminus.mouseout"/>
                        </use>
                        <path d="M-4,0h8" fill="none" stroke="white" stroke-width="1.5" pointer-events="none"/>
                </g>
                <g id="dirArrow">
                        <path fill="none" stroke="white" stroke-width="1.5" d="M0,-3.0v7 M-2.5,-0.5L0,-3.0L2.5,-0.5"/>
                </g>
               <g id="resetDef">
                       <use xlink:href="#rim2" fill="#404040">
                               <set attributeName="fill" to="#808080" begin="reset.mouseover" end="reset.mouseout"/>
                       </use>
               </g>
        </defs>

<script type="text/javascript">
var viewWidth = 2472;
var viewHeight = 354;
var sectionId = 'dynsection-22';
</script>
<script xlink:href="svgpan.js"/>
<svg id="graph" class="graph">
<g id="viewport">
<title>discovery_free_aid</title>
<!-- Node1 -->
<g id="node1" class="node"><title>Node1</title>
<polygon fill="#bfbfbf" stroke="black" points="0,-132 0,-151 98,-151 98,-132 0,-132"/>
<text text-anchor="middle" x="49" y="-139" font-family="Helvetica,sans-Serif" font-size="10.00">discovery_free_aid</text>
</g>
<!-- Node2 -->
<g id="node2" class="node"><title>Node2</title>
<g id="a_node2"><a xlink:href="a00079.html#a6dfca5e2723ca3a11d12fe545e69923e" target="_top" xlink:title="hpd_adapter_id_free">
<polygon fill="none" stroke="black" points="450.5,-214 450.5,-233 554.5,-233 554.5,-214 450.5,-214"/>
<text text-anchor="middle" x="502.5" y="-221" font-family="Helvetica,sans-Serif" font-size="10.00">hpd_adapter_id_free</text>
</a>
</g>
</g>
<!-- Node1&#45;&gt;Node2 -->
<g id="edge1" class="edge"><title>Node1&#45;&gt;Node2</title>
<path fill="none" stroke="midnightblue" d="M71.9982,-157.06C110.389,-183.153 193.075,-234.718 272,-253.5 326.479,-266.464 342.614,-261.773 398,-253.5 414.547,-251.028 417.947,-247.211 434,-242.5 444.747,-239.346 456.487,-236.005 467.119,-233.019"/>
<polygon fill="midnightblue" stroke="midnightblue" points="73.8647,-154.095 63.6439,-151.305 69.8939,-159.86 73.8647,-154.095"/>
</g>
<!-- Node28 -->
<g id="node28" class="node"><title>Node28</title>
<g id="a_node28"><a xlink:href="a00079.html#a460c1d013092f65b4bf7d7ece3ff7efc" target="_top" xlink:title="hpd_next_adapter">
<polygon fill="none" stroke="black" points="138,-94 138,-113 232,-113 232,-94 138,-94"/>
<text text-anchor="middle" x="185" y="-101" font-family="Helvetica,sans-Serif" font-size="10.00">hpd_next_adapter</text>
</a>
</g>
</g>
<!-- Node1&#45;&gt;Node28 -->
<g id="edge31" class="edge"><title>Node1&#45;&gt;Node28</title>
<path fill="none" stroke="midnightblue" d="M93.4383,-129.182C111.849,-123.961 132.98,-117.968 150.197,-113.086"/>
<polygon fill="midnightblue" stroke="midnightblue" points="92.4796,-125.815 83.8139,-131.911 94.3894,-132.55 92.4796,-125.815"/>
</g>
<!-- Node29 -->
<g id="node29" class="node"><title>Node29</title>
<g id="a_node29"><a xlink:href="a00080.html#a1915dc6bbbb6b1a2a587723caa22069d" target="_top" xlink:title="discovery_alloc_aid">
<polygon fill="none" stroke="black" points="134,-132 134,-151 236,-151 236,-132 134,-132"/>
<text text-anchor="middle" x="185" y="-139" font-family="Helvetica,sans-Serif" font-size="10.00">discovery_alloc_aid</text>
</a>
</g>
</g>
<!-- Node1&#45;&gt;Node29 -->
<g id="edge32" class="edge"><title>Node1&#45;&gt;Node29</title>
<path fill="none" stroke="midnightblue" d="M108.553,-141.5C116.999,-141.5 125.627,-141.5 133.889,-141.5"/>
<polygon fill="midnightblue" stroke="midnightblue" points="108.377,-138 98.3771,-141.5 108.377,-145 108.377,-138"/>
</g>
<!-- Node3 -->
<g id="node3" class="node"><title>Node3</title>
<g id="a_node3"><a xlink:href="a00013.html#a1a305bf3b6bebda2ca16c8adcdb95239" target="_top" xlink:title="[on_destroy] ">
<polygon fill="none" stroke="black" points="611,-164.5 611,-194.5 721,-194.5 721,-164.5 611,-164.5"/>
<text text-anchor="start" x="619" y="-182.5" font-family="Helvetica,sans-Serif" font-size="10.00">demo_adapter_create</text>
<text text-anchor="middle" x="666" y="-171.5" font-family="Helvetica,sans-Serif" font-size="10.00">_adapter</text>
</a>
</g>
</g>
<!-- Node2&#45;&gt;Node3 -->
<g id="edge2" class="edge"><title>Node2&#45;&gt;Node3</title>
<path fill="none" stroke="midnightblue" d="M548.343,-211.283C567.749,-205.996 590.629,-199.762 610.963,-194.222"/>
<polygon fill="midnightblue" stroke="midnightblue" points="547.271,-207.947 538.543,-213.953 549.111,-214.701 547.271,-207.947"/>
</g>
<!-- Node5 -->
<g id="node5" class="node"><title>Node5</title>
<g id="a_node5"><a xlink:href="a00013.html#aa30316159e7cdc14f2f035f0949b6680" target="_top" xlink:title="[on_start] ">
<polygon fill="none" stroke="black" points="607,-214 607,-233 725,-233 725,-214 607,-214"/>
<text text-anchor="middle" x="666" y="-221" font-family="Helvetica,sans-Serif" font-size="10.00">demo_adapter_on_stop</text>
</a>
</g>
</g>
<!-- Node2&#45;&gt;Node5 -->
<g id="edge4" class="edge"><title>Node2&#45;&gt;Node5</title>
<path fill="none" stroke="midnightblue" d="M564.949,-223.5C578.722,-223.5 593.292,-223.5 606.923,-223.5"/>
<polygon fill="midnightblue" stroke="midnightblue" points="564.6,-220 554.6,-223.5 564.6,-227 564.6,-220"/>
</g>
<!-- Node6 -->
<g id="node6" class="node"><title>Node6</title>
<g id="a_node6"><a xlink:href="a00014.html#a47420cd34ff6783c48a215b947bca110" target="_top" xlink:title="demo_app_on_device">
<polygon fill="none" stroke="black" points="610.5,-126 610.5,-145 721.5,-145 721.5,-126 610.5,-126"/>
<text text-anchor="middle" x="666" y="-133" font-family="Helvetica,sans-Serif" font-size="10.00">demo_app_on_device</text>
</a>
</g>
</g>
<!-- Node2&#45;&gt;Node6 -->
<g id="edge6" class="edge"><title>Node2&#45;&gt;Node6</title>
<path fill="none" stroke="midnightblue" d="M523.691,-207.619C543.857,-192.356 576.205,-169.463 607,-154.5 614.434,-150.888 622.722,-147.713 630.654,-145.045"/>
<polygon fill="midnightblue" stroke="midnightblue" points="521.384,-204.977 515.583,-213.843 525.647,-210.53 521.384,-204.977"/>
</g>
<!-- Node10 -->
<g id="node10" class="node"><title>Node10</title>
<g id="a_node10"><a xlink:href="a00014.html#add890f355b0e61ee1bcdd4f47a8964a1" target="_top" xlink:title="demo_app_on_change">
<polygon fill="none" stroke="black" points="609,-252 609,-271 723,-271 723,-252 609,-252"/>
<text text-anchor="middle" x="666" y="-259" font-family="Helvetica,sans-Serif" font-size="10.00">demo_app_on_change</text>
</a>
</g>
</g>
<!-- Node2&#45;&gt;Node10 -->
<g id="edge11" class="edge"><title>Node2&#45;&gt;Node10</title>
<path fill="none" stroke="midnightblue" d="M554.058,-235.396C576.759,-240.737 603.178,-246.954 624.54,-251.98"/>
<polygon fill="midnightblue" stroke="midnightblue" points="554.789,-231.973 544.253,-233.089 553.186,-238.786 554.789,-231.973"/>
</g>
<!-- Node11 -->
<g id="node11" class="node"><title>Node11</title>
<g id="a_node11"><a xlink:href="a00095.html#ae30c92f3bb2ebffcbb82054ad60c1ac5" target="_top" xlink:title="hpd_rest_url_create">
<polygon fill="none" stroke="black" points="615,-290 615,-309 717,-309 717,-290 615,-290"/>
<text text-anchor="middle" x="666" y="-297" font-family="Helvetica,sans-Serif" font-size="10.00">hpd_rest_url_create</text>
</a>
</g>
</g>
<!-- Node2&#45;&gt;Node11 -->
<g id="edge13" class="edge"><title>Node2&#45;&gt;Node11</title>
<path fill="none" stroke="midnightblue" d="M559.643,-236.709C563.595,-238.418 567.424,-240.34 571,-242.5 590.913,-254.529 587.345,-268.054 607,-280.5 612.998,-284.298 619.829,-287.409 626.647,-289.934"/>
<polygon fill="midnightblue" stroke="midnightblue" points="560.854,-233.424 550.264,-233.094 558.337,-239.956 560.854,-233.424"/>
</g>
<!-- Node4 -->
<g id="node4" class="node"><title>Node4</title>
<g id="a_node4"><a xlink:href="a00013.html#a9f84d5de2ac16bde89480bd48efdff51" target="_top" xlink:title="[create_lamp] ">
<polygon fill="none" stroke="black" points="761,-208 761,-227 880,-227 880,-208 761,-208"/>
<text text-anchor="middle" x="820.5" y="-215" font-family="Helvetica,sans-Serif" font-size="10.00">demo_adapter_on_start</text>
</a>
</g>
</g>
<!-- Node3&#45;&gt;Node4 -->
<g id="edge3" class="edge"><title>Node3&#45;&gt;Node4</title>
<path fill="none" stroke="midnightblue" d="M731.121,-195.478C748.187,-199.73 766.085,-204.19 781.276,-207.975"/>
<polygon fill="midnightblue" stroke="midnightblue" points="731.745,-192.026 721.195,-193.004 730.052,-198.818 731.745,-192.026"/>
</g>
<!-- Node5&#45;&gt;Node4 -->
<g id="edge5" class="edge"><title>Node5&#45;&gt;Node4</title>
<path fill="none" stroke="midnightblue" d="M735.358,-220.811C743.854,-220.476 752.482,-220.137 760.815,-219.809"/>
<polygon fill="midnightblue" stroke="midnightblue" points="734.943,-217.324 725.089,-221.215 735.219,-224.319 734.943,-217.324"/>
</g>
<!-- Node7 -->
<g id="node7" class="node"><title>Node7</title>
<g id="a_node7"><a xlink:href="a00014.html#a192157935b7f185b56921b919e981f3a" target="_top" xlink:title="demo_app_on_attach">
<polygon fill="none" stroke="black" points="765.5,-126 765.5,-145 875.5,-145 875.5,-126 765.5,-126"/>
<text text-anchor="middle" x="820.5" y="-133" font-family="Helvetica,sans-Serif" font-size="10.00">demo_app_on_attach</text>
</a>
</g>
</g>
<!-- Node6&#45;&gt;Node7 -->
<g id="edge7" class="edge"><title>Node6&#45;&gt;Node7</title>
<path fill="none" stroke="midnightblue" d="M731.752,-135.5C742.912,-135.5 754.409,-135.5 765.256,-135.5"/>
<polygon fill="midnightblue" stroke="midnightblue" points="731.625,-132 721.625,-135.5 731.625,-139 731.625,-132"/>
</g>
<!-- Node9 -->
<g id="node9" class="node"><title>Node9</title>
<g id="a_node9"><a xlink:href="a00014.html#a5bac6eb6e610cdc6e322879ee4eaf514" target="_top" xlink:title="demo_app_on_detach">
<polygon fill="none" stroke="black" points="764.5,-164 764.5,-183 876.5,-183 876.5,-164 764.5,-164"/>
<text text-anchor="middle" x="820.5" y="-171" font-family="Helvetica,sans-Serif" font-size="10.00">demo_app_on_detach</text>
</a>
</g>
</g>
<!-- Node6&#45;&gt;Node9 -->
<g id="edge9" class="edge"><title>Node6&#45;&gt;Node9</title>
<path fill="none" stroke="midnightblue" d="M715.318,-147.54C736.623,-152.849 761.304,-158.999 781.295,-163.98"/>
<polygon fill="midnightblue" stroke="midnightblue" points="716.032,-144.111 705.482,-145.089 714.339,-150.903 716.032,-144.111"/>
</g>
<!-- Node8 -->
<g id="node8" class="node"><title>Node8</title>
<g id="a_node8"><a xlink:href="a00014.html#aa8f03492cc097968d466bb5ea9a043d1" target="_top" xlink:title="demo_app_on_start">
<polygon fill="none" stroke="black" points="924.5,-164 924.5,-183 1026.5,-183 1026.5,-164 924.5,-164"/>
<text text-anchor="middle" x="975.5" y="-171" font-family="Helvetica,sans-Serif" font-size="10.00">demo_app_on_start</text>
</a>
</g>
</g>
<!-- Node7&#45;&gt;Node8 -->
<g id="edge8" class="edge"><title>Node7&#45;&gt;Node8</title>
<path fill="none" stroke="midnightblue" d="M869.977,-147.54C891.352,-152.849 916.113,-158.999 936.169,-163.98"/>
<polygon fill="midnightblue" stroke="midnightblue" points="870.657,-144.103 860.108,-145.089 868.97,-150.896 870.657,-144.103"/>
</g>
<!-- Node9&#45;&gt;Node8 -->
<g id="edge10" class="edge"><title>Node9&#45;&gt;Node8</title>
<path fill="none" stroke="midnightblue" d="M886.738,-173.5C899.355,-173.5 912.39,-173.5 924.429,-173.5"/>
<polygon fill="midnightblue" stroke="midnightblue" points="886.737,-170 876.737,-173.5 886.736,-177 886.737,-170"/>
</g>
<!-- Node10&#45;&gt;Node8 -->
<g id="edge12" class="edge"><title>Node10&#45;&gt;Node8</title>
<path fill="none" stroke="midnightblue" d="M733.441,-261.64C776.422,-259.827 832.929,-253.811 880,-236.5 913.681,-224.113 947.235,-197.497 963.819,-183.144"/>
<polygon fill="midnightblue" stroke="midnightblue" points="733.245,-258.145 723.376,-261.999 733.495,-265.141 733.245,-258.145"/>
</g>
<!-- Node12 -->
<g id="node12" class="node"><title>Node12</title>
<g id="a_node12"><a xlink:href="a00096.html#aa6c7dd70ed7b9b3a371a58ed6122b940" target="_top" xlink:title="rest_json_add_service">
<polygon fill="none" stroke="black" points="763.5,-326 763.5,-345 877.5,-345 877.5,-326 763.5,-326"/>
<text text-anchor="middle" x="820.5" y="-333" font-family="Helvetica,sans-Serif" font-size="10.00">rest_json_add_service</text>
</a>
</g>
</g>
<!-- Node11&#45;&gt;Node12 -->
<g id="edge14" class="edge"><title>Node11&#45;&gt;Node12</title>
<path fill="none" stroke="midnightblue" d="M717.365,-311.389C737.414,-316.122 760.172,-321.495 779.109,-325.965"/>
<polygon fill="midnightblue" stroke="midnightblue" points="718.003,-307.944 707.467,-309.053 716.395,-314.757 718.003,-307.944"/>
</g>
<!-- Node23 -->
<g id="node23" class="node"><title>Node23</title>
<g id="a_node23"><a xlink:href="a00098.html#a8a91d98306eb64c151d1c19465421c0c" target="_top" xlink:title="rest_xml_add_service">
<polygon fill="none" stroke="black" points="919.5,-288 919.5,-307 1031.5,-307 1031.5,-288 919.5,-288"/>
<text text-anchor="middle" x="975.5" y="-295" font-family="Helvetica,sans-Serif" font-size="10.00">rest_xml_add_service</text>
</a>
</g>
</g>
<!-- Node11&#45;&gt;Node23 -->
<g id="edge25" class="edge"><title>Node11&#45;&gt;Node23</title>
<path fill="none" stroke="midnightblue" d="M727.192,-299.109C783.018,-298.745 865.397,-298.21 919.498,-297.858"/>
<polygon fill="midnightblue" stroke="midnightblue" points="727.067,-295.609 717.09,-299.174 727.112,-302.609 727.067,-295.609"/>
</g>
<!-- Node13 -->
<g id="node13" class="node"><title>Node13</title>
<g id="a_node13"><a xlink:href="a00096.html#acedf1d82686baa037179bbc8eff51293" target="_top" xlink:title="rest_json_add_services">
<polygon fill="none" stroke="black" points="916,-326 916,-345 1035,-345 1035,-326 916,-326"/>
<text text-anchor="middle" x="975.5" y="-333" font-family="Helvetica,sans-Serif" font-size="10.00">rest_json_add_services</text>
</a>
</g>
</g>
<!-- Node12&#45;&gt;Node13 -->
<g id="edge15" class="edge"><title>Node12&#45;&gt;Node13</title>
<path fill="none" stroke="midnightblue" d="M887.663,-335.5C897.035,-335.5 906.618,-335.5 915.835,-335.5"/>
<polygon fill="midnightblue" stroke="midnightblue" points="887.603,-332 877.603,-335.5 887.603,-339 887.603,-332"/>
</g>
<!-- Node14 -->
<g id="node14" class="node"><title>Node14</title>
<g id="a_node14"><a xlink:href="a00096.html#a41c2f37e46c89b97a3b4f5bb4e8ede49" target="_top" xlink:title="rest_json_add_device">
<polygon fill="none" stroke="black" points="1071,-326 1071,-345 1182,-345 1182,-326 1071,-326"/>
<text text-anchor="middle" x="1126.5" y="-333" font-family="Helvetica,sans-Serif" font-size="10.00">rest_json_add_device</text>
</a>
</g>
</g>
<!-- Node13&#45;&gt;Node14 -->
<g id="edge16" class="edge"><title>Node13&#45;&gt;Node14</title>
<path fill="none" stroke="midnightblue" d="M1045.65,-335.5C1054.13,-335.5 1062.7,-335.5 1070.92,-335.5"/>
<polygon fill="midnightblue" stroke="midnightblue" points="1045.39,-332 1035.39,-335.5 1045.39,-339 1045.39,-332"/>
</g>
<!-- Node15 -->
<g id="node15" class="node"><title>Node15</title>
<g id="a_node15"><a xlink:href="a00096.html#ad6d08cc22d78268f5dc0b229af37c54c" target="_top" xlink:title="rest_json_add_devices">
<polygon fill="none" stroke="black" points="1218,-326 1218,-345 1334,-345 1334,-326 1218,-326"/>
<text text-anchor="middle" x="1276" y="-333" font-family="Helvetica,sans-Serif" font-size="10.00">rest_json_add_devices</text>
</a>
</g>
</g>
<!-- Node14&#45;&gt;Node15 -->
<g id="edge17" class="edge"><title>Node14&#45;&gt;Node15</title>
<path fill="none" stroke="midnightblue" d="M1192.25,-335.5C1200.74,-335.5 1209.4,-335.5 1217.75,-335.5"/>
<polygon fill="midnightblue" stroke="midnightblue" points="1192,-332 1182,-335.5 1192,-339 1192,-332"/>
</g>
<!-- Node16 -->
<g id="node16" class="node"><title>Node16</title>
<g id="a_node16"><a xlink:href="a00096.html#a640b87b4cf374466c27940092542bbec" target="_top" xlink:title="rest_json_add_adapter">
<polygon fill="none" stroke="black" points="1380.5,-326 1380.5,-345 1495.5,-345 1495.5,-326 1380.5,-326"/>
<text text-anchor="middle" x="1438" y="-333" font-family="Helvetica,sans-Serif" font-size="10.00">rest_json_add_adapter</text>
</a>
</g>
</g>
<!-- Node15&#45;&gt;Node16 -->
<g id="edge18" class="edge"><title>Node15&#45;&gt;Node16</title>
<path fill="none" stroke="midnightblue" d="M1344.64,-335.5C1356.53,-335.5 1368.8,-335.5 1380.36,-335.5"/>
<polygon fill="midnightblue" stroke="midnightblue" points="1344.31,-332 1334.31,-335.5 1344.31,-339 1344.31,-332"/>
</g>
<!-- Node17 -->
<g id="node17" class="node"><title>Node17</title>
<g id="a_node17"><a xlink:href="a00096.html#a99b3728ca81ef813ed208afd6de9a9b3" target="_top" xlink:title="rest_json_add_adapters">
<polygon fill="none" stroke="black" points="1559.5,-326 1559.5,-345 1679.5,-345 1679.5,-326 1559.5,-326"/>
<text text-anchor="middle" x="1619.5" y="-333" font-family="Helvetica,sans-Serif" font-size="10.00">rest_json_add_adapters</text>
</a>
</g>
</g>
<!-- Node16&#45;&gt;Node17 -->
<g id="edge19" class="edge"><title>Node16&#45;&gt;Node17</title>
<path fill="none" stroke="midnightblue" d="M1505.94,-335.5C1523.46,-335.5 1542.21,-335.5 1559.29,-335.5"/>
<polygon fill="midnightblue" stroke="midnightblue" points="1505.79,-332 1495.79,-335.5 1505.79,-339 1505.79,-332"/>
</g>
<!-- Node18 -->
<g id="node18" class="node"><title>Node18</title>
<g id="a_node18"><a xlink:href="a00096.html#a28e31077cb0239c2f21c335da42223e2" target="_top" xlink:title="rest_json_add_configuration">
<polygon fill="none" stroke="black" points="1733,-326 1733,-345 1871,-345 1871,-326 1733,-326"/>
<text text-anchor="middle" x="1802" y="-333" font-family="Helvetica,sans-Serif" font-size="10.00">rest_json_add_configuration</text>
</a>
</g>
</g>
<!-- Node17&#45;&gt;Node18 -->
<g id="edge20" class="edge"><title>Node17&#45;&gt;Node18</title>
<path fill="none" stroke="midnightblue" d="M1689.78,-335.5C1703.95,-335.5 1718.86,-335.5 1732.99,-335.5"/>
<polygon fill="midnightblue" stroke="midnightblue" points="1689.6,-332 1679.6,-335.5 1689.6,-339 1689.6,-332"/>
</g>
<!-- Node19 -->
<g id="node19" class="node"><title>Node19</title>
<g id="a_node19"><a xlink:href="a00097.html#aeb80ec3253d248a129513864cdc53817" target="_top" xlink:title="hpd_rest_json_get_configuration">
<polygon fill="none" stroke="black" points="1907,-326 1907,-345 2064,-345 2064,-326 1907,-326"/>
<text text-anchor="middle" x="1985.5" y="-333" font-family="Helvetica,sans-Serif" font-size="10.00">hpd_rest_json_get_configuration</text>
</a>
</g>
</g>
<!-- Node18&#45;&gt;Node19 -->
<g id="edge21" class="edge"><title>Node18&#45;&gt;Node19</title>
<path fill="none" stroke="midnightblue" d="M1881.33,-335.5C1889.8,-335.5 1898.41,-335.5 1906.87,-335.5"/>
<polygon fill="midnightblue" stroke="midnightblue" points="1881.1,-332 1871.1,-335.5 1881.1,-339 1881.1,-332"/>
</g>
<!-- Node20 -->
<g id="node20" class="node"><title>Node20</title>
<g id="a_node20"><a xlink:href="a00034.html#ac0f2724b4617f1adb53492f1a57a4e4b" target="_top" xlink:title="rest_reply_devices">
<polygon fill="none" stroke="black" points="2100,-307 2100,-326 2198,-326 2198,-307 2100,-307"/>
<text text-anchor="middle" x="2149" y="-314" font-family="Helvetica,sans-Serif" font-size="10.00">rest_reply_devices</text>
</a>
</g>
</g>
<!-- Node19&#45;&gt;Node20 -->
<g id="edge22" class="edge"><title>Node19&#45;&gt;Node20</title>
<path fill="none" stroke="midnightblue" d="M2074.62,-325.133C2083.29,-324.114 2091.84,-323.107 2099.88,-322.162"/>
<polygon fill="midnightblue" stroke="midnightblue" points="2073.93,-321.689 2064.41,-326.334 2074.75,-328.641 2073.93,-321.689"/>
</g>
<!-- Node21 -->
<g id="node21" class="node"><title>Node21</title>
<g id="a_node21"><a xlink:href="a00034.html#a2731aca6e6807e771bcf9c94dbec968c" target="_top" xlink:title="rest_on_req_hdr_cmpl">
<polygon fill="none" stroke="black" points="2234,-307 2234,-326 2347,-326 2347,-307 2234,-307"/>
<text text-anchor="middle" x="2290.5" y="-314" font-family="Helvetica,sans-Serif" font-size="10.00">rest_on_req_hdr_cmpl</text>
</a>
</g>
</g>
<!-- Node20&#45;&gt;Node21 -->
<g id="edge23" class="edge"><title>Node20&#45;&gt;Node21</title>
<path fill="none" stroke="midnightblue" d="M2208.17,-316.5C2216.63,-316.5 2225.32,-316.5 2233.72,-316.5"/>
<polygon fill="midnightblue" stroke="midnightblue" points="2208.01,-313 2198.01,-316.5 2208.01,-320 2208.01,-313"/>
</g>
<!-- Node22 -->
<g id="node22" class="node"><title>Node22</title>
<g id="a_node22"><a xlink:href="a00034.html#a02090c3feb19ea4c6e1fa9b5e6392752" target="_top" xlink:title="rest_on_create">
<polygon fill="none" stroke="black" points="2383,-307 2383,-326 2464,-326 2464,-307 2383,-307"/>
<text text-anchor="middle" x="2423.5" y="-314" font-family="Helvetica,sans-Serif" font-size="10.00">rest_on_create</text>
</a>
</g>
</g>
<!-- Node21&#45;&gt;Node22 -->
<g id="edge24" class="edge"><title>Node21&#45;&gt;Node22</title>
<path fill="none" stroke="midnightblue" d="M2357.25,-316.5C2365.96,-316.5 2374.66,-316.5 2382.75,-316.5"/>
<polygon fill="midnightblue" stroke="midnightblue" points="2357.06,-313 2347.06,-316.5 2357.06,-320 2357.06,-313"/>
</g>
<!-- Node24 -->
<g id="node24" class="node"><title>Node24</title>
<g id="a_node24"><a xlink:href="a00098.html#a1225e8ad884c053761d73179e1ee1855" target="_top" xlink:title="rest_xml_add_device">
<polygon fill="none" stroke="black" points="1072,-288 1072,-307 1181,-307 1181,-288 1072,-288"/>
<text text-anchor="middle" x="1126.5" y="-295" font-family="Helvetica,sans-Serif" font-size="10.00">rest_xml_add_device</text>
</a>
</g>
</g>
<!-- Node23&#45;&gt;Node24 -->
<g id="edge26" class="edge"><title>Node23&#45;&gt;Node24</title>
<path fill="none" stroke="midnightblue" d="M1041.83,-297.5C1051.79,-297.5 1061.98,-297.5 1071.66,-297.5"/>
<polygon fill="midnightblue" stroke="midnightblue" points="1041.56,-294 1031.56,-297.5 1041.56,-301 1041.56,-294"/>
</g>
<!-- Node25 -->
<g id="node25" class="node"><title>Node25</title>
<g id="a_node25"><a xlink:href="a00098.html#a8a0a8fd989454b355fdaf3da1f129187" target="_top" xlink:title="rest_xml_add_adapter">
<polygon fill="none" stroke="black" points="1219.5,-288 1219.5,-307 1332.5,-307 1332.5,-288 1219.5,-288"/>
<text text-anchor="middle" x="1276" y="-295" font-family="Helvetica,sans-Serif" font-size="10.00">rest_xml_add_adapter</text>
</a>
</g>
</g>
<!-- Node24&#45;&gt;Node25 -->
<g id="edge27" class="edge"><title>Node24&#45;&gt;Node25</title>
<path fill="none" stroke="midnightblue" d="M1191.45,-297.5C1200.67,-297.5 1210.1,-297.5 1219.14,-297.5"/>
<polygon fill="midnightblue" stroke="midnightblue" points="1191.17,-294 1181.17,-297.5 1191.17,-301 1191.17,-294"/>
</g>
<!-- Node26 -->
<g id="node26" class="node"><title>Node26</title>
<g id="a_node26"><a xlink:href="a00098.html#aca121ba7e7fc75cee1159bd654566d5e" target="_top" xlink:title="rest_xml_add_configuration">
<polygon fill="none" stroke="black" points="1370,-288 1370,-307 1506,-307 1506,-288 1370,-288"/>
<text text-anchor="middle" x="1438" y="-295" font-family="Helvetica,sans-Serif" font-size="10.00">rest_xml_add_configuration</text>
</a>
</g>
</g>
<!-- Node25&#45;&gt;Node26 -->
<g id="edge28" class="edge"><title>Node25&#45;&gt;Node26</title>
<path fill="none" stroke="midnightblue" d="M1342.52,-297.5C1351.49,-297.5 1360.72,-297.5 1369.73,-297.5"/>
<polygon fill="midnightblue" stroke="midnightblue" points="1342.51,-294 1332.51,-297.5 1342.51,-301 1342.51,-294"/>
</g>
<!-- Node27 -->
<g id="node27" class="node"><title>Node27</title>
<g id="a_node27"><a xlink:href="a00099.html#a5f45c0580c596d22c41495ecc83e6e85" target="_top" xlink:title="hpd_rest_xml_get_configuration">
<polygon fill="none" stroke="black" points="1542,-288 1542,-307 1697,-307 1697,-288 1542,-288"/>
<text text-anchor="middle" x="1619.5" y="-295" font-family="Helvetica,sans-Serif" font-size="10.00">hpd_rest_xml_get_configuration</text>
</a>
</g>
</g>
<!-- Node26&#45;&gt;Node27 -->
<g id="edge29" class="edge"><title>Node26&#45;&gt;Node27</title>
<path fill="none" stroke="midnightblue" d="M1516.31,-297.5C1524.77,-297.5 1533.38,-297.5 1541.82,-297.5"/>
<polygon fill="midnightblue" stroke="midnightblue" points="1516.09,-294 1506.09,-297.5 1516.09,-301 1516.09,-294"/>
</g>
<!-- Node27&#45;&gt;Node20 -->
<g id="edge30" class="edge"><title>Node27&#45;&gt;Node20</title>
<path fill="none" stroke="midnightblue" d="M1707.48,-300.633C1819.69,-304.675 2011.01,-311.566 2099.93,-314.769"/>
<polygon fill="midnightblue" stroke="midnightblue" points="1707.32,-297.125 1697.2,-300.263 1707.07,-304.121 1707.32,-297.125"/>
</g>
<!-- Node30 -->
<g id="node30" class="node"><title>Node30</title>
<g id="a_node30"><a xlink:href="a00079.html#aaf24eefdbdf2debbf530eb19db96bd86" target="_top" xlink:title="[log functions] ">
<polygon fill="none" stroke="black" points="281,-176 281,-195 389,-195 389,-176 281,-176"/>
<text text-anchor="middle" x="335" y="-183" font-family="Helvetica,sans-Serif" font-size="10.00">hpd_adapter_id_alloc</text>
</a>
</g>
</g>
<!-- Node29&#45;&gt;Node30 -->
<g id="edge33" class="edge"><title>Node29&#45;&gt;Node30</title>
<path fill="none" stroke="midnightblue" d="M227.826,-153.935C251.342,-160.926 280.241,-169.518 301.949,-175.971"/>
<polygon fill="midnightblue" stroke="midnightblue" points="228.697,-150.542 218.114,-151.047 226.702,-157.252 228.697,-150.542"/>
</g>
<!-- Node31 -->
<g id="node31" class="node"><title>Node31</title>
<g id="a_node31"><a xlink:href="a00079.html#a35bf26228e2c725f300412ef59eecf4b" target="_top" xlink:title="hpd_first_adapter">
<polygon fill="none" stroke="black" points="289,-88 289,-107 381,-107 381,-88 289,-88"/>
<text text-anchor="middle" x="335" y="-95" font-family="Helvetica,sans-Serif" font-size="10.00">hpd_first_adapter</text>
</a>
</g>
</g>
<!-- Node29&#45;&gt;Node31 -->
<g id="edge35" class="edge"><title>Node29&#45;&gt;Node31</title>
<path fill="none" stroke="midnightblue" d="M227.826,-129.065C251.342,-122.074 280.241,-113.482 301.949,-107.029"/>
<polygon fill="midnightblue" stroke="midnightblue" points="226.702,-125.748 218.114,-131.953 228.697,-132.458 226.702,-125.748"/>
</g>
<!-- Node32 -->
<g id="node32" class="node"><title>Node32</title>
<g id="a_node32"><a xlink:href="a00080.html#a55d0d49af4d1f6e1cf8dfc09c7f51e5b" target="_top" xlink:title="discovery_copy_aid">
<polygon fill="none" stroke="black" points="283.5,-50 283.5,-69 386.5,-69 386.5,-50 283.5,-50"/>
<text text-anchor="middle" x="335" y="-57" font-family="Helvetica,sans-Serif" font-size="10.00">discovery_copy_aid</text>
</a>
</g>
</g>
<!-- Node29&#45;&gt;Node32 -->
<g id="edge36" class="edge"><title>Node29&#45;&gt;Node32</title>
<path fill="none" stroke="midnightblue" d="M227.954,-127.5C230.768,-125.978 233.481,-124.314 236,-122.5 256.504,-107.735 251.022,-92.5831 272,-78.5 277.702,-74.6723 284.206,-71.59 290.808,-69.1151"/>
<polygon fill="midnightblue" stroke="midnightblue" points="226.26,-124.43 218.738,-131.891 229.271,-130.75 226.26,-124.43"/>
</g>
<!-- Node34 -->
<g id="node34" class="node"><title>Node34</title>
<g id="a_node34"><a xlink:href="a00080.html#aaa80ffa4633419e13e8c122748daf203" target="_top" xlink:title="discovery_get_device\l_adapter">
<polygon fill="none" stroke="black" points="279.5,-0.5 279.5,-30.5 390.5,-30.5 390.5,-0.5 279.5,-0.5"/>
<text text-anchor="start" x="287.5" y="-18.5" font-family="Helvetica,sans-Serif" font-size="10.00">discovery_get_device</text>
<text text-anchor="middle" x="335" y="-7.5" font-family="Helvetica,sans-Serif" font-size="10.00">_adapter</text>
</a>
</g>
</g>
<!-- Node29&#45;&gt;Node34 -->
<g id="edge38" class="edge"><title>Node29&#45;&gt;Node34</title>
<path fill="none" stroke="midnightblue" d="M230.698,-126.814C232.578,-125.494 234.36,-124.06 236,-122.5 264.846,-95.0759 243.431,-68.2131 272,-40.5 275.999,-36.6211 280.677,-33.3179 285.641,-30.5109"/>
<polygon fill="midnightblue" stroke="midnightblue" points="228.839,-123.846 221.947,-131.893 232.352,-129.9 228.839,-123.846"/>
</g>
<!-- Node36 -->
<g id="node36" class="node"><title>Node36</title>
<g id="a_node36"><a xlink:href="a00080.html#a6f562c4265080ac8d026ac15e9d042b1" target="_top" xlink:title="discovery_get_service\l_adapter">
<polygon fill="none" stroke="black" points="278,-214.5 278,-244.5 392,-244.5 392,-214.5 278,-214.5"/>
<text text-anchor="start" x="286" y="-232.5" font-family="Helvetica,sans-Serif" font-size="10.00">discovery_get_service</text>
<text text-anchor="middle" x="335" y="-221.5" font-family="Helvetica,sans-Serif" font-size="10.00">_adapter</text>
</a>
</g>
</g>
<!-- Node29&#45;&gt;Node36 -->
<g id="edge41" class="edge"><title>Node29&#45;&gt;Node36</title>
<path fill="none" stroke="midnightblue" d="M205.017,-157.586C221.851,-171.285 247.485,-190.859 272,-204.5 278.389,-208.055 285.389,-211.375 292.311,-214.359"/>
<polygon fill="midnightblue" stroke="midnightblue" points="207.007,-154.691 197.069,-151.021 202.549,-160.088 207.007,-154.691"/>
</g>
<!-- Node38 -->
<g id="node38" class="node"><title>Node38</title>
<g id="a_node38"><a xlink:href="a00080.html#aecb6f07e883439fcc3306362c4a6b63f" target="_top" xlink:title="discovery_get_parameter\l_adapter">
<polygon fill="none" stroke="black" points="272,-126.5 272,-156.5 398,-156.5 398,-126.5 272,-126.5"/>
<text text-anchor="start" x="280" y="-144.5" font-family="Helvetica,sans-Serif" font-size="10.00">discovery_get_parameter</text>
<text text-anchor="middle" x="335" y="-133.5" font-family="Helvetica,sans-Serif" font-size="10.00">_adapter</text>
</a>
</g>
</g>
<!-- Node29&#45;&gt;Node38 -->
<g id="edge45" class="edge"><title>Node29&#45;&gt;Node38</title>
<path fill="none" stroke="midnightblue" d="M246.254,-141.5C254.699,-141.5 263.392,-141.5 271.871,-141.5"/>
<polygon fill="midnightblue" stroke="midnightblue" points="246.106,-138 236.106,-141.5 246.106,-145 246.106,-138"/>
</g>
<!-- Node30&#45;&gt;Node3 -->
<g id="edge34" class="edge"><title>Node30&#45;&gt;Node3</title>
<path fill="none" stroke="midnightblue" d="M399.552,-184.341C460.893,-183.222 552.764,-181.547 610.757,-180.489"/>
<polygon fill="midnightblue" stroke="midnightblue" points="399.16,-180.847 389.225,-184.529 399.287,-187.846 399.16,-180.847"/>
</g>
<!-- Node33 -->
<g id="node33" class="node"><title>Node33</title>
<g id="a_node33"><a xlink:href="a00079.html#aadb695833d05d754f6c240200556e3ba" target="_top" xlink:title="hpd_adapter_id_copy">
<polygon fill="none" stroke="black" points="448,-50 448,-69 557,-69 557,-50 448,-50"/>
<text text-anchor="middle" x="502.5" y="-57" font-family="Helvetica,sans-Serif" font-size="10.00">hpd_adapter_id_copy</text>
</a>
</g>
</g>
<!-- Node32&#45;&gt;Node33 -->
<g id="edge37" class="edge"><title>Node32&#45;&gt;Node33</title>
<path fill="none" stroke="midnightblue" d="M396.775,-59.5C413.499,-59.5 431.516,-59.5 447.81,-59.5"/>
<polygon fill="midnightblue" stroke="midnightblue" points="396.555,-56.0001 386.555,-59.5 396.555,-63.0001 396.555,-56.0001"/>
</g>
<!-- Node35 -->
<g id="node35" class="node"><title>Node35</title>
<g id="a_node35"><a xlink:href="a00079.html#a50b0521e638f13c35f0d7f4860d8064d" target="_top" xlink:title="hpd_device_get_adapter">
<polygon fill="none" stroke="black" points="441.5,-9 441.5,-28 563.5,-28 563.5,-9 441.5,-9"/>
<text text-anchor="middle" x="502.5" y="-16" font-family="Helvetica,sans-Serif" font-size="10.00">hpd_device_get_adapter</text>
</a>
</g>
</g>
<!-- Node34&#45;&gt;Node35 -->
<g id="edge39" class="edge"><title>Node34&#45;&gt;Node35</title>
<path fill="none" stroke="midnightblue" d="M400.754,-16.6738C414.17,-16.917 428.249,-17.1722 441.487,-17.4121"/>
<polygon fill="midnightblue" stroke="midnightblue" points="400.711,-13.1725 390.65,-16.4906 400.584,-20.1714 400.711,-13.1725"/>
</g>
<!-- Node35&#45;&gt;Node6 -->
<g id="edge40" class="edge"><title>Node35&#45;&gt;Node6</title>
<path fill="none" stroke="midnightblue" d="M553.209,-31.6619C559.406,-34.1723 565.493,-37.1019 571,-40.5 609.504,-64.2596 643.89,-106.943 658.091,-125.936"/>
<polygon fill="midnightblue" stroke="midnightblue" points="554.039,-28.2376 543.446,-28.0551 551.613,-34.8038 554.039,-28.2376"/>
</g>
<!-- Node37 -->
<g id="node37" class="node"><title>Node37</title>
<g id="a_node37"><a xlink:href="a00079.html#a43dfdac4b9fea4a35e2709a22778250e" target="_top" xlink:title="hpd_service_get_adapter">
<polygon fill="none" stroke="black" points="440,-252 440,-271 565,-271 565,-252 440,-252"/>
<text text-anchor="middle" x="502.5" y="-259" font-family="Helvetica,sans-Serif" font-size="10.00">hpd_service_get_adapter</text>
</a>
</g>
</g>
<!-- Node36&#45;&gt;Node37 -->
<g id="edge42" class="edge"><title>Node36&#45;&gt;Node37</title>
<path fill="none" stroke="midnightblue" d="M402.259,-242.311C418.921,-245.533 436.512,-248.934 452.181,-251.964"/>
<polygon fill="midnightblue" stroke="midnightblue" points="402.513,-238.796 392.031,-240.334 401.184,-245.669 402.513,-238.796"/>
</g>
<!-- Node37&#45;&gt;Node10 -->
<g id="edge43" class="edge"><title>Node37&#45;&gt;Node10</title>
<path fill="none" stroke="midnightblue" d="M575.288,-261.5C586.573,-261.5 598.095,-261.5 608.956,-261.5"/>
<polygon fill="midnightblue" stroke="midnightblue" points="575.017,-258 565.017,-261.5 575.017,-265 575.017,-258"/>
</g>
<!-- Node37&#45;&gt;Node11 -->
<g id="edge44" class="edge"><title>Node37&#45;&gt;Node11</title>
<path fill="none" stroke="midnightblue" d="M554.058,-273.396C576.759,-278.737 603.178,-284.954 624.54,-289.98"/>
<polygon fill="midnightblue" stroke="midnightblue" points="554.789,-269.973 544.253,-271.089 553.186,-276.786 554.789,-269.973"/>
</g>
<!-- Node39 -->
<g id="node39" class="node"><title>Node39</title>
<g id="a_node39"><a xlink:href="a00079.html#a63a138dc6d530f46e5babb509d329155" target="_top" xlink:title="hpd_parameter_get_adapter">
<polygon fill="none" stroke="black" points="434,-132 434,-151 571,-151 571,-132 434,-132"/>
<text text-anchor="middle" x="502.5" y="-139" font-family="Helvetica,sans-Serif" font-size="10.00">hpd_parameter_get_adapter</text>
</a>
</g>
</g>
<!-- Node38&#45;&gt;Node39 -->
<g id="edge46" class="edge"><title>Node38&#45;&gt;Node39</title>
<path fill="none" stroke="midnightblue" d="M408.32,-141.5C416.782,-141.5 425.391,-141.5 433.787,-141.5"/>
<polygon fill="midnightblue" stroke="midnightblue" points="408.097,-138 398.097,-141.5 408.097,-145 408.097,-138"/>
</g>
</g>
</svg>
        <g id="navigator" transform="translate(0 0)" fill="#404254">
                <rect fill="#f2f5e9" fill-opacity="0.5" stroke="#606060" stroke-width=".5" x="0" y="0" width="60" height="60"/>
                <use id="zoomplus" xlink:href="#zoomPlus" x="17" y="9" onmousedown="handleZoom(evt,'in')"/>
                <use id="zoomminus" xlink:href="#zoomMin" x="42" y="9" onmousedown="handleZoom(evt,'out')"/>
                <use id="reset" xlink:href="#resetDef" x="30" y="36" onmousedown="handleReset()"/>
                <g id="arrowUp" xlink:href="#dirArrow" transform="translate(30 24)" onmousedown="handlePan(0,-1)">
                  <use xlink:href="#rim" fill="#404040">
                        <set attributeName="fill" to="#808080" begin="arrowUp.mouseover" end="arrowUp.mouseout"/>
                  </use>
                  <path fill="none" stroke="white" stroke-width="1.5" d="M0,-3.0v7 M-2.5,-0.5L0,-3.0L2.5,-0.5"/>
                </g>
                <g id="arrowRight" xlink:href="#dirArrow" transform="rotate(90) translate(36 -43)" onmousedown="handlePan(1,0)">
                  <use xlink:href="#rim" fill="#404040">
                        <set attributeName="fill" to="#808080" begin="arrowRight.mouseover" end="arrowRight.mouseout"/>
                  </use>
                  <path fill="none" stroke="white" stroke-width="1.5" d="M0,-3.0v7 M-2.5,-0.5L0,-3.0L2.5,-0.5"/>
                </g>
                <g id="arrowDown" xlink:href="#dirArrow" transform="rotate(180) translate(-30 -48)" onmousedown="handlePan(0,1)">
                  <use xlink:href="#rim" fill="#404040">
                        <set attributeName="fill" to="#808080" begin="arrowDown.mouseover" end="arrowDown.mouseout"/>
                  </use>
                  <path fill="none" stroke="white" stroke-width="1.5" d="M0,-3.0v7 M-2.5,-0.5L0,-3.0L2.5,-0.5"/>
                </g>
                <g id="arrowLeft" xlink:href="#dirArrow" transform="rotate(270) translate(-36 17)" onmousedown="handlePan(-1,0)">
                  <use xlink:href="#rim" fill="#404040">
                        <set attributeName="fill" to="#808080" begin="arrowLeft.mouseover" end="arrowLeft.mouseout"/>
                  </use>
                  <path fill="none" stroke="white" stroke-width="1.5" d="M0,-3.0v7 M-2.5,-0.5L0,-3.0L2.5,-0.5"/>
                </g>
        </g>
        <svg viewBox="0 0 15 15" width="100%" height="30px" preserveAspectRatio="xMaxYMin meet">
         <g id="arrow_out" transform="scale(0.3 0.3)">
          <a xlink:href="a00080_a2bd026e829a41663810ae68fa3797987_icgraph_org.svg" target="_base">
           <rect id="button" ry="5" rx="5" y="6" x="6" height="38" width="38"
                fill="#f2f5e9" fill-opacity="0.5" stroke="#606060" stroke-width="1.0"/>
           <path id="arrow"
             d="M 11.500037,31.436501 C 11.940474,20.09759 22.043105,11.32322 32.158766,21.979434 L 37.068811,17.246167 C 37.068811,17.246167 37.088388,32 37.088388,32 L 22.160133,31.978069 C 22.160133,31.978069 26.997745,27.140456 26.997745,27.140456 C 18.528582,18.264221 13.291696,25.230495 11.500037,31.436501 z"
             style="fill:#404040;"/>
          </a>
         </g>
        </svg>
</svg>
