<?xml version="1.0" encoding="UTF-8" standalone="no"?>
<!DOCTYPE svg PUBLIC "-//W3C//DTD SVG 1.1//EN"
 "http://www.w3.org/Graphics/SVG/1.1/DTD/svg11.dtd">
<!-- Generated by graphviz version 2.38.0 (20140413.2041)
 -->
<!-- Title: discovery_is_service_id_unique Pages: 1 -->
<svg width="727pt" height="39pt"
 viewBox="0.00 0.00 727.00 39.00" xmlns="http://www.w3.org/2000/svg" xmlns:xlink="http://www.w3.org/1999/xlink">
<g id="graph0" class="graph" transform="scale(1 1) rotate(0) translate(4 35)">
<title>discovery_is_service_id_unique</title>
<!-- Node1 -->
<g id="node1" class="node"><title>Node1</title>
<polygon fill="#bfbfbf" stroke="black" points="0,-0.5 0,-30.5 108,-30.5 108,-0.5 0,-0.5"/>
<text text-anchor="start" x="8" y="-18.5" font-family="Helvetica,sans-Serif" font-size="10.00">discovery_is_service</text>
<text text-anchor="middle" x="54" y="-7.5" font-family="Helvetica,sans-Serif" font-size="10.00">_id_unique</text>
</g>
<!-- Node2 -->
<g id="node2" class="node"><title>Node2</title>
<g id="a_node2"><a xlink:href="a00079.html#af441be40a9cec089a7bd655e5b7bc61c" target="_top" xlink:title="hpd_service_attach">
<polygon fill="none" stroke="black" points="144,-6 144,-25 245,-25 245,-6 144,-6"/>
<text text-anchor="middle" x="194.5" y="-13" font-family="Helvetica,sans-Serif" font-size="10.00">hpd_service_attach</text>
</a>
</g>
</g>
<!-- Node1&#45;&gt;Node2 -->
<g id="edge1" class="edge"><title>Node1&#45;&gt;Node2</title>
<path fill="none" stroke="midnightblue" d="M118.187,-15.5C126.812,-15.5 135.564,-15.5 143.902,-15.5"/>
<polygon fill="midnightblue" stroke="midnightblue" points="118.152,-12.0001 108.152,-15.5 118.152,-19.0001 118.152,-12.0001"/>
</g>
<!-- Node3 -->
<g id="node3" class="node"><title>Node3</title>
<g id="a_node3"><a xlink:href="a00013.html#aca3f96055b6405843c652ef5efd1c3e8" target="_top" xlink:title="[create_parameter] ">
<polygon fill="none" stroke="black" points="281,-0.5 281,-30.5 391,-30.5 391,-0.5 281,-0.5"/>
<text text-anchor="start" x="289" y="-18.5" font-family="Helvetica,sans-Serif" font-size="10.00">demo_adapter_create</text>
<text text-anchor="middle" x="336" y="-7.5" font-family="Helvetica,sans-Serif" font-size="10.00">_service</text>
</a>
</g>
</g>
<!-- Node2&#45;&gt;Node3 -->
<g id="edge2" class="edge"><title>Node2&#45;&gt;Node3</title>
<path fill="none" stroke="midnightblue" d="M255.295,-15.5C263.784,-15.5 272.474,-15.5 280.847,-15.5"/>
<polygon fill="midnightblue" stroke="midnightblue" points="255.075,-12.0001 245.075,-15.5 255.075,-19.0001 255.075,-12.0001"/>
</g>
<!-- Node4 -->
<g id="node4" class="node"><title>Node4</title>
<g id="a_node4"><a xlink:href="a00013.html#abfc239c18fce4bcc601e14074ddfabf8" target="_top" xlink:title="[create_service] ">
<polygon fill="none" stroke="black" points="427,-6 427,-25 564,-25 564,-6 427,-6"/>
<text text-anchor="middle" x="495.5" y="-13" font-family="Helvetica,sans-Serif" font-size="10.00">demo_adapter_create_lamp</text>
</a>
</g>
</g>
<!-- Node3&#45;&gt;Node4 -->
<g id="edge3" class="edge"><title>Node3&#45;&gt;Node4</title>
<path fill="none" stroke="midnightblue" d="M401.324,-15.5C409.736,-15.5 418.375,-15.5 426.84,-15.5"/>
<polygon fill="midnightblue" stroke="midnightblue" points="401.203,-12.0001 391.203,-15.5 401.203,-19.0001 401.203,-12.0001"/>
</g>
<!-- Node5 -->
<g id="node5" class="node"><title>Node5</title>
<g id="a_node5"><a xlink:href="a00013.html#a9f84d5de2ac16bde89480bd48efdff51" target="_top" xlink:title="[create_lamp] ">
<polygon fill="none" stroke="black" points="600,-6 600,-25 719,-25 719,-6 600,-6"/>
<text text-anchor="middle" x="659.5" y="-13" font-family="Helvetica,sans-Serif" font-size="10.00">demo_adapter_on_start</text>
</a>
</g>
</g>
<!-- Node4&#45;&gt;Node5 -->
<g id="edge4" class="edge"><title>Node4&#45;&gt;Node5</title>
<path fill="none" stroke="midnightblue" d="M574.281,-15.5C582.853,-15.5 591.473,-15.5 599.757,-15.5"/>
<polygon fill="midnightblue" stroke="midnightblue" points="574.264,-12.0001 564.264,-15.5 574.264,-19.0001 574.264,-12.0001"/>
</g>
</g>
</svg>
