<?xml version="1.0" encoding="UTF-8" standalone="no"?>
<!DOCTYPE svg PUBLIC "-//W3C//DTD SVG 1.1//EN"
 "http://www.w3.org/Graphics/SVG/1.1/DTD/svg11.dtd">
<!-- Generated by graphviz version 2.38.0 (20140413.2041)
 -->
<!-- Title: request_get_response_request_data Pages: 1 -->
<svg width="905pt" height="53pt"
 viewBox="0.00 0.00 905.00 52.50" xmlns="http://www.w3.org/2000/svg" xmlns:xlink="http://www.w3.org/1999/xlink">
<g id="graph0" class="graph" transform="scale(1 1) rotate(0) translate(4 48.5)">
<title>request_get_response_request_data</title>
<!-- Node1 -->
<g id="node1" class="node"><title>Node1</title>
<polygon fill="#bfbfbf" stroke="black" points="0,-0.5 0,-30.5 113,-30.5 113,-0.5 0,-0.5"/>
<text text-anchor="start" x="8" y="-18.5" font-family="Helvetica,sans-Serif" font-size="10.00">request_get_response</text>
<text text-anchor="middle" x="56.5" y="-7.5" font-family="Helvetica,sans-Serif" font-size="10.00">_request_data</text>
</g>
<!-- Node2 -->
<g id="node2" class="node"><title>Node2</title>
<g id="a_node2"><a xlink:href="a00070.html#acc5f0ce6e069361330a20015760e5968" target="_top" xlink:title="hpd_response_get_request_data">
<polygon fill="none" stroke="black" points="149,-6 149,-25 307,-25 307,-6 149,-6"/>
<text text-anchor="middle" x="228" y="-13" font-family="Helvetica,sans-Serif" font-size="10.00">hpd_response_get_request_data</text>
</a>
</g>
</g>
<!-- Node1&#45;&gt;Node2 -->
<g id="edge1" class="edge"><title>Node1&#45;&gt;Node2</title>
<path fill="none" stroke="midnightblue" d="M123.145,-15.5C131.59,-15.5 140.301,-15.5 148.921,-15.5"/>
<polygon fill="midnightblue" stroke="midnightblue" points="123.001,-12.0001 113.001,-15.5 123.001,-19.0001 123.001,-12.0001"/>
</g>
<!-- Node3 -->
<g id="node3" class="node"><title>Node3</title>
<g id="a_node3"><a xlink:href="a00025.html#abccd0d79ed3acf405337a07b4572d223" target="_top" xlink:title="on_response">
<polygon fill="none" stroke="black" points="343,-6 343,-25 415,-25 415,-6 343,-6"/>
<text text-anchor="middle" x="379" y="-13" font-family="Helvetica,sans-Serif" font-size="10.00">on_response</text>
</a>
</g>
</g>
<!-- Node2&#45;&gt;Node3 -->
<g id="edge2" class="edge"><title>Node2&#45;&gt;Node3</title>
<path fill="none" stroke="midnightblue" d="M317.489,-15.5C326.323,-15.5 334.885,-15.5 342.654,-15.5"/>
<polygon fill="midnightblue" stroke="midnightblue" points="317.427,-12.0001 307.427,-15.5 317.427,-19.0001 317.427,-12.0001"/>
</g>
<!-- Node4 -->
<g id="node4" class="node"><title>Node4</title>
<g id="a_node4"><a xlink:href="a00069.html#af762dc3db213f4a84ba5fe3ab36a78fe" target="_top" xlink:title="request_alloc_request">
<polygon fill="none" stroke="black" points="451,-25 451,-44 563,-44 563,-25 451,-25"/>
<text text-anchor="middle" x="507" y="-32" font-family="Helvetica,sans-Serif" font-size="10.00">request_alloc_request</text>
</a>
</g>
</g>
<!-- Node3&#45;&gt;Node4 -->
<g id="edge3" class="edge"><title>Node3&#45;&gt;Node4</title>
<path fill="none" stroke="midnightblue" d="M425.013,-22.2877C433.365,-23.5471 442.177,-24.8759 450.792,-26.175"/>
<polygon fill="midnightblue" stroke="midnightblue" points="425.508,-18.8228 415.098,-20.7926 424.464,-25.7446 425.508,-18.8228"/>
</g>
<!-- Node6 -->
<g id="node6" class="node"><title>Node6</title>
<g id="a_node6"><a xlink:href="a00025.html#a74ba52adbe4c46e9a9c33649e3b75243" target="_top" xlink:title="on_req_cmpl">
<polygon fill="none" stroke="black" points="730,-6 730,-25 802,-25 802,-6 730,-6"/>
<text text-anchor="middle" x="766" y="-13" font-family="Helvetica,sans-Serif" font-size="10.00">on_req_cmpl</text>
</a>
</g>
</g>
<!-- Node3&#45;&gt;Node6 -->
<g id="edge7" class="edge"><title>Node3&#45;&gt;Node6</title>
<path fill="none" stroke="midnightblue" d="M425.613,-15.5C503.325,-15.5 659.768,-15.5 729.756,-15.5"/>
<polygon fill="midnightblue" stroke="midnightblue" points="425.187,-12.0001 415.187,-15.5 425.187,-19.0001 425.187,-12.0001"/>
</g>
<!-- Node5 -->
<g id="node5" class="node"><title>Node5</title>
<g id="a_node5"><a xlink:href="a00070.html#ac8e7c21db1c80443994e79d29eae8286" target="_top" xlink:title="[hpd_request_t functions] ">
<polygon fill="none" stroke="black" points="599,-25 599,-44 694,-44 694,-25 599,-25"/>
<text text-anchor="middle" x="646.5" y="-32" font-family="Helvetica,sans-Serif" font-size="10.00">hpd_request_alloc</text>
</a>
</g>
</g>
<!-- Node4&#45;&gt;Node5 -->
<g id="edge4" class="edge"><title>Node4&#45;&gt;Node5</title>
<path fill="none" stroke="midnightblue" d="M573.194,-34.5C581.821,-34.5 590.523,-34.5 598.754,-34.5"/>
<polygon fill="midnightblue" stroke="midnightblue" points="573.134,-31.0001 563.134,-34.5 573.134,-38.0001 573.134,-31.0001"/>
</g>
<!-- Node5&#45;&gt;Node6 -->
<g id="edge5" class="edge"><title>Node5&#45;&gt;Node6</title>
<path fill="none" stroke="midnightblue" d="M704.153,-25.3391C712.961,-23.9148 721.833,-22.4803 729.974,-21.1638"/>
<polygon fill="midnightblue" stroke="midnightblue" points="703.59,-21.8846 694.277,-26.9361 704.707,-28.7949 703.59,-21.8846"/>
</g>
<!-- Node7 -->
<g id="node7" class="node"><title>Node7</title>
<g id="a_node7"><a xlink:href="a00025.html#ad079431c7eba97c5dd5e4e202cdf6102" target="_top" xlink:title="on_create">
<polygon fill="none" stroke="black" points="838,-6 838,-25 897,-25 897,-6 838,-6"/>
<text text-anchor="middle" x="867.5" y="-13" font-family="Helvetica,sans-Serif" font-size="10.00">on_create</text>
</a>
</g>
</g>
<!-- Node6&#45;&gt;Node7 -->
<g id="edge6" class="edge"><title>Node6&#45;&gt;Node7</title>
<path fill="none" stroke="midnightblue" d="M812.212,-15.5C820.974,-15.5 829.925,-15.5 837.965,-15.5"/>
<polygon fill="midnightblue" stroke="midnightblue" points="812.08,-12.0001 802.08,-15.5 812.08,-19.0001 812.08,-12.0001"/>
</g>
</g>
</svg>
