<?xml version="1.0" encoding="UTF-8" standalone="no"?>
<!DOCTYPE svg PUBLIC "-//W3C//DTD SVG 1.1//EN"
 "http://www.w3.org/Graphics/SVG/1.1/DTD/svg11.dtd">
<!-- Generated by graphviz version 2.38.0 (20140413.2041)
 -->
<!-- Title: hpd_tcpd_start Pages: 1 -->
<svg width="297pt" height="85pt"
 viewBox="0.00 0.00 297.00 85.00" xmlns="http://www.w3.org/2000/svg" xmlns:xlink="http://www.w3.org/1999/xlink">
<g id="graph0" class="graph" transform="scale(1 1) rotate(0) translate(4 81)">
<title>hpd_tcpd_start</title>
<!-- Node1 -->
<g id="node1" class="node"><title>Node1</title>
<polygon fill="#bfbfbf" stroke="black" points="0,-19.5 0,-38.5 81,-38.5 81,-19.5 0,-19.5"/>
<text text-anchor="middle" x="40.5" y="-26.5" font-family="Helvetica,sans-Serif" font-size="10.00">hpd_tcpd_start</text>
</g>
<!-- Node2 -->
<g id="node2" class="node"><title>Node2</title>
<g id="a_node2"><a xlink:href="a00015.html#ab26dd9acbd2ec17e5863a50f01e70e65" target="_top" xlink:title="Start a httpd instance. ">
<polygon fill="none" stroke="black" points="117,-38.5 117,-57.5 201,-57.5 201,-38.5 117,-38.5"/>
<text text-anchor="middle" x="159" y="-45.5" font-family="Helvetica,sans-Serif" font-size="10.00">hpd_httpd_start</text>
</a>
</g>
</g>
<!-- Node1&#45;&gt;Node2 -->
<g id="edge1" class="edge"><title>Node1&#45;&gt;Node2</title>
<path fill="none" stroke="midnightblue" d="M91.1517,-37.0977C99.71,-38.4935 108.522,-39.9306 116.825,-41.2848"/>
<polygon fill="midnightblue" stroke="midnightblue" points="91.6999,-33.6409 81.2669,-35.4856 90.5731,-40.5497 91.6999,-33.6409"/>
</g>
<!-- Node5 -->
<g id="node5" class="node"><title>Node5</title>
<g id="a_node5"><a xlink:href="a00047.html#a0ddf1224851353fc92bfbff6f499fa97" target="_top" xlink:title="main">
<polygon fill="none" stroke="black" points="140,-0.5 140,-19.5 178,-19.5 178,-0.5 140,-0.5"/>
<text text-anchor="middle" x="159" y="-7.5" font-family="Helvetica,sans-Serif" font-size="10.00">main</text>
</a>
</g>
</g>
<!-- Node1&#45;&gt;Node5 -->
<g id="edge4" class="edge"><title>Node1&#45;&gt;Node5</title>
<path fill="none" stroke="midnightblue" d="M91.2768,-20.8819C108.558,-18.0635 126.855,-15.0794 139.91,-12.9503"/>
<polygon fill="midnightblue" stroke="midnightblue" points="90.5731,-17.4503 81.2669,-22.5144 91.6999,-24.3591 90.5731,-17.4503"/>
</g>
<!-- Node3 -->
<g id="node3" class="node"><title>Node3</title>
<g id="a_node3"><a xlink:href="a00038.html#a0ddf1224851353fc92bfbff6f499fa97" target="_top" xlink:title="main">
<polygon fill="none" stroke="black" points="244,-57.5 244,-76.5 282,-76.5 282,-57.5 244,-57.5"/>
<text text-anchor="middle" x="263" y="-64.5" font-family="Helvetica,sans-Serif" font-size="10.00">main</text>
</a>
</g>
</g>
<!-- Node2&#45;&gt;Node3 -->
<g id="edge2" class="edge"><title>Node2&#45;&gt;Node3</title>
<path fill="none" stroke="midnightblue" d="M211.027,-57.5051C222.799,-59.6979 234.569,-61.8904 243.829,-63.6152"/>
<polygon fill="midnightblue" stroke="midnightblue" points="211.665,-54.0638 201.193,-55.6733 210.383,-60.9454 211.665,-54.0638"/>
</g>
<!-- Node4 -->
<g id="node4" class="node"><title>Node4</title>
<g id="a_node4"><a xlink:href="a00025.html#a665691f420dff4eebb8f4b4af62d7a49" target="_top" xlink:title="on_start">
<polygon fill="none" stroke="black" points="237,-19.5 237,-38.5 289,-38.5 289,-19.5 237,-19.5"/>
<text text-anchor="middle" x="263" y="-26.5" font-family="Helvetica,sans-Serif" font-size="10.00">on_start</text>
</a>
</g>
</g>
<!-- Node2&#45;&gt;Node4 -->
<g id="edge3" class="edge"><title>Node2&#45;&gt;Node4</title>
<path fill="none" stroke="midnightblue" d="M211.193,-38.464C220.099,-36.8051 228.996,-35.1478 236.8,-33.6942"/>
<polygon fill="midnightblue" stroke="midnightblue" points="210.383,-35.0546 201.193,-40.3267 211.665,-41.9362 210.383,-35.0546"/>
</g>
</g>
</svg>
