<?xml version="1.0" encoding="UTF-8" standalone="no"?>
<!DOCTYPE svg PUBLIC "-//W3C//DTD SVG 1.1//EN"
 "http://www.w3.org/Graphics/SVG/1.1/DTD/svg11.dtd">
<!-- Generated by graphviz version 2.38.0 (20140413.2041)
 -->
<!-- Title: hpd_request Pages: 1 -->
<!--zoomable 395 -->
<svg id="main" version="1.1" xmlns="http://www.w3.org/2000/svg" xmlns:xlink="http://www.w3.org/1999/xlink" xml:space="preserve" onload="init(evt)">
<style type="text/css"><![CDATA[
.edge:hover path { stroke: red; }
.edge:hover polygon { stroke: red; fill: red; }
]]></style>
<script type="text/javascript"><![CDATA[
var edges = document.getElementsByTagName('g');
if (edges && edges.length) {
  for (var i=0;i<edges.length;i++) {
    if (edges[i].id.substr(0,4)=='edge') {
      edges[i].setAttribute('class','edge');
    }
  }
}
]]></script>
        <defs>
                <circle id="rim" cx="0" cy="0" r="7"/>
                <circle id="rim2" cx="0" cy="0" r="3.5"/>
                <g id="zoomPlus">
                        <use xlink:href="#rim" fill="#404040">
                                <set attributeName="fill" to="#808080" begin="zoomplus.mouseover" end="zoomplus.mouseout"/>
                        </use>
                        <path d="M-4,0h8M0,-4v8" fill="none" stroke="white" stroke-width="1.5" pointer-events="none"/>
                </g>
                <g id="zoomMin">
                        <use xlink:href="#rim" fill="#404040">
                                <set attributeName="fill" to="#808080" begin="zoomminus.mouseover" end="zoomminus.mouseout"/>
                        </use>
                        <path d="M-4,0h8" fill="none" stroke="white" stroke-width="1.5" pointer-events="none"/>
                </g>
                <g id="dirArrow">
                        <path fill="none" stroke="white" stroke-width="1.5" d="M0,-3.0v7 M-2.5,-0.5L0,-3.0L2.5,-0.5"/>
                </g>
               <g id="resetDef">
                       <use xlink:href="#rim2" fill="#404040">
                               <set attributeName="fill" to="#808080" begin="reset.mouseover" end="reset.mouseout"/>
                       </use>
               </g>
        </defs>

<script type="text/javascript">
var viewWidth = 1335;
var viewHeight = 395;
var sectionId = 'dynsection-1';
</script>
<script xlink:href="svgpan.js"/>
<svg id="graph" class="graph">
<g id="viewport">
<title>hpd_request</title>
<!-- Node1 -->
<g id="node1" class="node"><title>Node1</title>
<polygon fill="#bfbfbf" stroke="black" points="0,-118.978 0,-137.978 70,-137.978 70,-118.978 0,-118.978"/>
<text text-anchor="middle" x="35" y="-125.978" font-family="Helvetica,sans-Serif" font-size="10.00">hpd_request</text>
</g>
<!-- Node2 -->
<g id="node2" class="node"><title>Node2</title>
<g id="a_node2"><a xlink:href="a00068.html#a49ae36dd88ac39bfa09a7cfc34323872" target="_top" xlink:title="request_request">
<polygon fill="none" stroke="black" points="106,-118.978 106,-137.978 192,-137.978 192,-118.978 106,-118.978"/>
<text text-anchor="middle" x="149" y="-125.978" font-family="Helvetica,sans-Serif" font-size="10.00">request_request</text>
</a>
</g>
</g>
<!-- Node1&#45;&gt;Node2 -->
<g id="edge1" class="edge"><title>Node1&#45;&gt;Node2</title>
<path fill="none" stroke="midnightblue" d="M70.2123,-128.478C78.2576,-128.478 87.0137,-128.478 95.6534,-128.478"/>
<polygon fill="midnightblue" stroke="midnightblue" points="95.6926,-131.978 105.693,-128.478 95.6925,-124.978 95.6926,-131.978"/>
</g>
<!-- Node3 -->
<g id="node3" class="node"><title>Node3</title>
<g id="a_node3"><a xlink:href="a00068.html#adae8c0a742917417d73d4e19d9b68810" target="_top" xlink:title="on_request">
<polygon fill="none" stroke="black" points="228,-242.978 228,-261.978 293,-261.978 293,-242.978 228,-242.978"/>
<text text-anchor="middle" x="260.5" y="-249.978" font-family="Helvetica,sans-Serif" font-size="10.00">on_request</text>
</a>
</g>
</g>
<!-- Node2&#45;&gt;Node3 -->
<g id="edge2" class="edge"><title>Node2&#45;&gt;Node3</title>
<path fill="none" stroke="midnightblue" d="M158.592,-138.208C177.063,-159.124 220.764,-208.612 244.133,-235.076"/>
<polygon fill="midnightblue" stroke="midnightblue" points="241.705,-237.614 250.948,-242.793 246.952,-232.981 241.705,-237.614"/>
</g>
<!-- Node4 -->
<g id="node4" class="node"><title>Node4</title>
<g id="a_node4"><a xlink:href="a00006.html#adf46370d9c211c3be22966b4606ba9b0" target="_top" xlink:title="free">
<polygon fill="none" stroke="black" points="1294,-185.978 1294,-204.978 1327,-204.978 1327,-185.978 1294,-185.978"/>
<text text-anchor="middle" x="1310.5" y="-192.978" font-family="Helvetica,sans-Serif" font-size="10.00">free</text>
</a>
</g>
</g>
<!-- Node2&#45;&gt;Node4 -->
<g id="edge27" class="edge"><title>Node2&#45;&gt;Node4</title>
<path fill="none" stroke="midnightblue" d="M159.838,-118.826C190.483,-89.8303 288.049,-5.47796 386,-5.47796 386,-5.47796 386,-5.47796 1080,-5.47796 1160.15,-5.47796 1197.28,17.8515 1258,-34.478 1299.94,-70.626 1308.03,-140.942 1309.39,-175.428"/>
<polygon fill="midnightblue" stroke="midnightblue" points="1305.9,-175.734 1309.63,-185.648 1312.89,-175.569 1305.9,-175.734"/>
</g>
<!-- Node3&#45;&gt;Node4 -->
<g id="edge3" class="edge"><title>Node3&#45;&gt;Node4</title>
<path fill="none" stroke="midnightblue" d="M265.369,-262.184C273.741,-281.825 295.525,-326.218 329,-347.478 409.251,-398.445 444.432,-385.478 539.5,-385.478 539.5,-385.478 539.5,-385.478 1080,-385.478 1162.42,-385.478 1197.64,-389.592 1258,-333.478 1292.21,-301.675 1303.82,-244.997 1307.67,-215.134"/>
<polygon fill="midnightblue" stroke="midnightblue" points="1311.15,-215.438 1308.79,-205.11 1304.2,-214.658 1311.15,-215.438"/>
</g>
<!-- Node5 -->
<g id="node5" class="node"><title>Node5</title>
<g id="a_node5"><a xlink:href="a00011.html#a0a2ab1d55e44c5a4488fed87c0fbc508" target="_top" xlink:title="discovery_find_service">
<polygon fill="none" stroke="black" points="329,-280.978 329,-299.978 445,-299.978 445,-280.978 329,-280.978"/>
<text text-anchor="middle" x="387" y="-287.978" font-family="Helvetica,sans-Serif" font-size="10.00">discovery_find_service</text>
</a>
</g>
</g>
<!-- Node3&#45;&gt;Node5 -->
<g id="edge4" class="edge"><title>Node3&#45;&gt;Node5</title>
<path fill="none" stroke="midnightblue" d="M292.917,-262.067C308.693,-266.882 328.005,-272.777 344.941,-277.946"/>
<polygon fill="midnightblue" stroke="midnightblue" points="344.007,-281.32 354.593,-280.892 346.051,-274.625 344.007,-281.32"/>
</g>
<!-- Node6 -->
<g id="node6" class="node"><title>Node6</title>
<g id="a_node6"><a xlink:href="a00068.html#a6bf78b6455bffb23cdea87114d97b5c0" target="_top" xlink:title="request_alloc_response">
<polygon fill="none" stroke="black" points="481,-242.978 481,-261.978 600,-261.978 600,-242.978 481,-242.978"/>
<text text-anchor="middle" x="540.5" y="-249.978" font-family="Helvetica,sans-Serif" font-size="10.00">request_alloc_response</text>
</a>
</g>
</g>
<!-- Node3&#45;&gt;Node6 -->
<g id="edge5" class="edge"><title>Node3&#45;&gt;Node6</title>
<path fill="none" stroke="midnightblue" d="M293.119,-252.478C335.991,-252.478 413.707,-252.478 470.423,-252.478"/>
<polygon fill="midnightblue" stroke="midnightblue" points="470.756,-255.978 480.756,-252.478 470.756,-248.978 470.756,-255.978"/>
</g>
<!-- Node7 -->
<g id="node7" class="node"><title>Node7</title>
<g id="a_node7"><a xlink:href="a00068.html#a2477fb8cf085cc2b61dbfacdcdc54b82" target="_top" xlink:title="request_free_response">
<polygon fill="none" stroke="black" points="636,-213.978 636,-232.978 752,-232.978 752,-213.978 636,-213.978"/>
<text text-anchor="middle" x="694" y="-220.978" font-family="Helvetica,sans-Serif" font-size="10.00">request_free_response</text>
</a>
</g>
</g>
<!-- Node3&#45;&gt;Node7 -->
<g id="edge25" class="edge"><title>Node3&#45;&gt;Node7</title>
<path fill="none" stroke="midnightblue" d="M293.094,-249.351C335.717,-245.223 414.02,-237.955 481,-233.478 529.399,-230.243 584.082,-227.691 625.788,-225.974"/>
<polygon fill="midnightblue" stroke="midnightblue" points="625.979,-229.47 635.829,-225.567 625.695,-222.475 625.979,-229.47"/>
</g>
<!-- Node8 -->
<g id="node8" class="node"><title>Node8</title>
<g id="a_node8"><a xlink:href="a00068.html#adc90843b331f5522a8d08d6e4219e126" target="_top" xlink:title="request_free_request">
<polygon fill="none" stroke="black" points="788,-147.978 788,-166.978 896,-166.978 896,-147.978 788,-147.978"/>
<text text-anchor="middle" x="842" y="-154.978" font-family="Helvetica,sans-Serif" font-size="10.00">request_free_request</text>
</a>
</g>
</g>
<!-- Node3&#45;&gt;Node8 -->
<g id="edge26" class="edge"><title>Node3&#45;&gt;Node8</title>
<path fill="none" stroke="midnightblue" d="M288.82,-242.9C300.998,-238.911 315.594,-234.512 329,-231.478 488.688,-195.336 680.578,-173.143 777.831,-163.36"/>
<polygon fill="midnightblue" stroke="midnightblue" points="778.191,-166.841 787.795,-162.368 777.498,-159.876 778.191,-166.841"/>
</g>
<!-- Node13 -->
<g id="node13" class="node"><title>Node13</title>
<g id="a_node13"><a xlink:href="a00068.html#af9377ab613a971acb84c487a139736d4" target="_top" xlink:title="request_respond">
<polygon fill="none" stroke="black" points="342.5,-318.978 342.5,-337.978 431.5,-337.978 431.5,-318.978 342.5,-318.978"/>
<text text-anchor="middle" x="387" y="-325.978" font-family="Helvetica,sans-Serif" font-size="10.00">request_respond</text>
</a>
</g>
</g>
<!-- Node3&#45;&gt;Node13 -->
<g id="edge20" class="edge"><title>Node3&#45;&gt;Node13</title>
<path fill="none" stroke="midnightblue" d="M270.677,-262.255C282.908,-274.776 305.728,-296.414 329,-309.478 332.735,-311.575 336.738,-313.487 340.828,-315.222"/>
<polygon fill="midnightblue" stroke="midnightblue" points="339.852,-318.597 350.441,-318.946 342.38,-312.069 339.852,-318.597"/>
</g>
<!-- Node6&#45;&gt;Node4 -->
<g id="edge6" class="edge"><title>Node6&#45;&gt;Node4</title>
<path fill="none" stroke="midnightblue" d="M600.249,-258.412C660.585,-263.986 757.248,-271.478 841,-271.478 841,-271.478 841,-271.478 1080,-271.478 1161.08,-271.478 1183.82,-264.212 1258,-231.478 1269.5,-226.405 1281.07,-218.609 1290.33,-211.567"/>
<polygon fill="midnightblue" stroke="midnightblue" points="1292.75,-214.114 1298.42,-205.16 1288.41,-208.627 1292.75,-214.114"/>
</g>
<!-- Node6&#45;&gt;Node7 -->
<g id="edge7" class="edge"><title>Node6&#45;&gt;Node7</title>
<path fill="none" stroke="midnightblue" d="M591.527,-242.902C604.912,-240.34 619.514,-237.545 633.362,-234.894"/>
<polygon fill="midnightblue" stroke="midnightblue" points="634.121,-238.312 643.284,-232.995 632.805,-231.437 634.121,-238.312"/>
</g>
<!-- Node7&#45;&gt;Node4 -->
<g id="edge19" class="edge"><title>Node7&#45;&gt;Node4</title>
<path fill="none" stroke="midnightblue" d="M752.009,-226.85C806.052,-229.753 889.521,-233.478 962,-233.478 962,-233.478 962,-233.478 1080,-233.478 1155.02,-233.478 1242,-213.47 1284.09,-202.491"/>
<polygon fill="midnightblue" stroke="midnightblue" points="1285.02,-205.864 1293.79,-199.911 1283.23,-199.099 1285.02,-205.864"/>
</g>
<!-- Node7&#45;&gt;Node8 -->
<g id="edge8" class="edge"><title>Node7&#45;&gt;Node8</title>
<path fill="none" stroke="midnightblue" d="M716.23,-213.881C740.991,-202.688 782.124,-184.093 810.348,-171.334"/>
<polygon fill="midnightblue" stroke="midnightblue" points="812.074,-174.395 819.745,-167.087 809.191,-168.017 812.074,-174.395"/>
</g>
<!-- Node10 -->
<g id="node10" class="node"><title>Node10</title>
<g id="a_node10"><a xlink:href="a00071.html#a1ec3b1d4547e5080bcec544c877852da" target="_top" xlink:title="value_free">
<polygon fill="none" stroke="black" points="932,-166.978 932,-185.978 994,-185.978 994,-166.978 932,-166.978"/>
<text text-anchor="middle" x="963" y="-173.978" font-family="Helvetica,sans-Serif" font-size="10.00">value_free</text>
</a>
</g>
</g>
<!-- Node7&#45;&gt;Node10 -->
<g id="edge18" class="edge"><title>Node7&#45;&gt;Node10</title>
<path fill="none" stroke="midnightblue" d="M749.031,-213.967C800.173,-204.964 875.776,-191.656 921.798,-183.555"/>
<polygon fill="midnightblue" stroke="midnightblue" points="922.467,-186.991 931.709,-181.81 921.253,-180.097 922.467,-186.991"/>
</g>
<!-- Node8&#45;&gt;Node4 -->
<g id="edge17" class="edge"><title>Node8&#45;&gt;Node4</title>
<path fill="none" stroke="midnightblue" d="M865.751,-147.798C931.067,-121.587 1123.11,-55.6829 1258,-124.478 1279.12,-135.249 1293.6,-159.179 1301.7,-176.278"/>
<polygon fill="midnightblue" stroke="midnightblue" points="1298.69,-178.125 1305.93,-185.864 1305.1,-175.302 1298.69,-178.125"/>
</g>
<!-- Node9 -->
<g id="node9" class="node"><title>Node9</title>
<g id="a_node9"><a xlink:href="a00011.html#a8922de7d42124afa8ab5fd339fe695ee" target="_top" xlink:title="discovery_free_sid">
<polygon fill="none" stroke="black" points="1030,-33.978 1030,-52.978 1128,-52.978 1128,-33.978 1030,-33.978"/>
<text text-anchor="middle" x="1079" y="-40.978" font-family="Helvetica,sans-Serif" font-size="10.00">discovery_free_sid</text>
</a>
</g>
</g>
<!-- Node8&#45;&gt;Node9 -->
<g id="edge9" class="edge"><title>Node8&#45;&gt;Node9</title>
<path fill="none" stroke="midnightblue" d="M849.267,-147.934C862.219,-129.072 893.932,-87.1497 932,-67.478 958.93,-53.5619 992.056,-47.3758 1019.94,-44.7501"/>
<polygon fill="midnightblue" stroke="midnightblue" points="1020.28,-48.2347 1029.96,-43.9361 1019.71,-41.2577 1020.28,-48.2347"/>
</g>
<!-- Node8&#45;&gt;Node10 -->
<g id="edge11" class="edge"><title>Node8&#45;&gt;Node10</title>
<path fill="none" stroke="midnightblue" d="M896.235,-165.978C904.85,-167.353 913.643,-168.757 921.879,-170.072"/>
<polygon fill="midnightblue" stroke="midnightblue" points="921.532,-173.561 931.959,-171.682 922.636,-166.649 921.532,-173.561"/>
</g>
<!-- Node9&#45;&gt;Node4 -->
<g id="edge10" class="edge"><title>Node9&#45;&gt;Node4</title>
<path fill="none" stroke="midnightblue" d="M1128.07,-37.5997C1167.05,-35.4996 1221.33,-38.9494 1258,-67.478 1292.22,-94.0959 1303.79,-147.049 1307.64,-175.8"/>
<polygon fill="midnightblue" stroke="midnightblue" points="1304.18,-176.318 1308.8,-185.852 1311.13,-175.517 1304.18,-176.318"/>
</g>
<!-- Node10&#45;&gt;Node4 -->
<g id="edge16" class="edge"><title>Node10&#45;&gt;Node4</title>
<path fill="none" stroke="midnightblue" d="M994.056,-178.131C1060.96,-181.81 1221.21,-190.623 1283.82,-194.066"/>
<polygon fill="midnightblue" stroke="midnightblue" points="1283.82,-197.571 1294,-194.625 1284.2,-190.582 1283.82,-197.571"/>
</g>
<!-- Node11 -->
<g id="node11" class="node"><title>Node11</title>
<g id="a_node11"><a xlink:href="a00042.html#a195d511a075f2349200563af1c5d1fd7" target="_top" xlink:title="hpd_map_free">
<polygon fill="none" stroke="black" points="1040,-147.978 1040,-166.978 1118,-166.978 1118,-147.978 1040,-147.978"/>
<text text-anchor="middle" x="1079" y="-154.978" font-family="Helvetica,sans-Serif" font-size="10.00">hpd_map_free</text>
</a>
</g>
</g>
<!-- Node10&#45;&gt;Node11 -->
<g id="edge12" class="edge"><title>Node10&#45;&gt;Node11</title>
<path fill="none" stroke="midnightblue" d="M994.251,-171.436C1005.18,-169.615 1017.8,-167.512 1029.87,-165.499"/>
<polygon fill="midnightblue" stroke="midnightblue" points="1030.55,-168.935 1039.84,-163.838 1029.4,-162.03 1030.55,-168.935"/>
</g>
<!-- Node11&#45;&gt;Node4 -->
<g id="edge15" class="edge"><title>Node11&#45;&gt;Node4</title>
<path fill="none" stroke="midnightblue" d="M1103.06,-147.877C1138.15,-134.806 1206.31,-115.516 1258,-138.478 1275.83,-146.396 1290.09,-163.87 1299.05,-177.398"/>
<polygon fill="midnightblue" stroke="midnightblue" points="1296.12,-179.324 1304.38,-185.966 1302.07,-175.627 1296.12,-179.324"/>
</g>
<!-- Node12 -->
<g id="node12" class="node"><title>Node12</title>
<g id="a_node12"><a xlink:href="a00022.html#ae1085dd4fd40466d18b02ec077ef4d6d" target="_top" xlink:title="hpd_map_remove">
<polygon fill="none" stroke="black" points="1164,-147.978 1164,-166.978 1258,-166.978 1258,-147.978 1164,-147.978"/>
<text text-anchor="middle" x="1211" y="-154.978" font-family="Helvetica,sans-Serif" font-size="10.00">hpd_map_remove</text>
</a>
</g>
</g>
<!-- Node11&#45;&gt;Node12 -->
<g id="edge13" class="edge"><title>Node11&#45;&gt;Node12</title>
<path fill="none" stroke="midnightblue" d="M1118.3,-157.478C1129.31,-157.478 1141.55,-157.478 1153.41,-157.478"/>
<polygon fill="midnightblue" stroke="midnightblue" points="1153.7,-160.978 1163.7,-157.478 1153.7,-153.978 1153.7,-160.978"/>
</g>
<!-- Node12&#45;&gt;Node4 -->
<g id="edge14" class="edge"><title>Node12&#45;&gt;Node4</title>
<path fill="none" stroke="midnightblue" d="M1236.6,-167.067C1251.18,-172.748 1269.61,-179.93 1284.29,-185.652"/>
<polygon fill="midnightblue" stroke="midnightblue" points="1283.17,-188.973 1293.76,-189.344 1285.71,-182.451 1283.17,-188.973"/>
</g>
<!-- Node13&#45;&gt;Node4 -->
<g id="edge24" class="edge"><title>Node13&#45;&gt;Node4</title>
<path fill="none" stroke="midnightblue" d="M431.636,-332.909C490.79,-338.523 599.758,-347.478 693,-347.478 693,-347.478 693,-347.478 1080,-347.478 1162.29,-347.478 1194.49,-348.807 1258,-296.478 1283.72,-275.289 1297.94,-237.954 1304.63,-215.095"/>
<polygon fill="midnightblue" stroke="midnightblue" points="1308.08,-215.738 1307.32,-205.17 1301.33,-213.904 1308.08,-215.738"/>
</g>
<!-- Node14 -->
<g id="node14" class="node"><title>Node14</title>
<g id="a_node14"><a xlink:href="a00068.html#a187b9d156e323a7d00876d43dae46062" target="_top" xlink:title="on_respond">
<polygon fill="none" stroke="black" points="507,-299.978 507,-318.978 574,-318.978 574,-299.978 507,-299.978"/>
<text text-anchor="middle" x="540.5" y="-306.978" font-family="Helvetica,sans-Serif" font-size="10.00">on_respond</text>
</a>
</g>
</g>
<!-- Node13&#45;&gt;Node14 -->
<g id="edge21" class="edge"><title>Node13&#45;&gt;Node14</title>
<path fill="none" stroke="midnightblue" d="M431.82,-322.982C452.304,-320.413 476.601,-317.366 496.927,-314.817"/>
<polygon fill="midnightblue" stroke="midnightblue" points="497.364,-318.29 506.851,-313.573 496.493,-311.344 497.364,-318.29"/>
</g>
<!-- Node14&#45;&gt;Node4 -->
<g id="edge22" class="edge"><title>Node14&#45;&gt;Node4</title>
<path fill="none" stroke="midnightblue" d="M574.295,-309.478C629.391,-309.478 744.026,-309.478 841,-309.478 841,-309.478 841,-309.478 1080,-309.478 1161.94,-309.478 1189.72,-306.777 1258,-261.478 1276.08,-249.482 1290.59,-229.03 1299.54,-214.066"/>
<polygon fill="midnightblue" stroke="midnightblue" points="1302.7,-215.591 1304.6,-205.168 1296.62,-212.129 1302.7,-215.591"/>
</g>
<!-- Node14&#45;&gt;Node7 -->
<g id="edge23" class="edge"><title>Node14&#45;&gt;Node7</title>
<path fill="none" stroke="midnightblue" d="M558.292,-299.946C584.683,-284.965 636.062,-255.799 667.177,-238.137"/>
<polygon fill="midnightblue" stroke="midnightblue" points="669.164,-241.033 676.133,-233.053 665.708,-234.946 669.164,-241.033"/>
</g>
</g>
</svg>
        <g id="navigator" transform="translate(0 0)" fill="#404254">
                <rect fill="#f2f5e9" fill-opacity="0.5" stroke="#606060" stroke-width=".5" x="0" y="0" width="60" height="60"/>
                <use id="zoomplus" xlink:href="#zoomPlus" x="17" y="9" onmousedown="handleZoom(evt,'in')"/>
                <use id="zoomminus" xlink:href="#zoomMin" x="42" y="9" onmousedown="handleZoom(evt,'out')"/>
                <use id="reset" xlink:href="#resetDef" x="30" y="36" onmousedown="handleReset()"/>
                <g id="arrowUp" xlink:href="#dirArrow" transform="translate(30 24)" onmousedown="handlePan(0,-1)">
                  <use xlink:href="#rim" fill="#404040">
                        <set attributeName="fill" to="#808080" begin="arrowUp.mouseover" end="arrowUp.mouseout"/>
                  </use>
                  <path fill="none" stroke="white" stroke-width="1.5" d="M0,-3.0v7 M-2.5,-0.5L0,-3.0L2.5,-0.5"/>
                </g>
                <g id="arrowRight" xlink:href="#dirArrow" transform="rotate(90) translate(36 -43)" onmousedown="handlePan(1,0)">
                  <use xlink:href="#rim" fill="#404040">
                        <set attributeName="fill" to="#808080" begin="arrowRight.mouseover" end="arrowRight.mouseout"/>
                  </use>
                  <path fill="none" stroke="white" stroke-width="1.5" d="M0,-3.0v7 M-2.5,-0.5L0,-3.0L2.5,-0.5"/>
                </g>
                <g id="arrowDown" xlink:href="#dirArrow" transform="rotate(180) translate(-30 -48)" onmousedown="handlePan(0,1)">
                  <use xlink:href="#rim" fill="#404040">
                        <set attributeName="fill" to="#808080" begin="arrowDown.mouseover" end="arrowDown.mouseout"/>
                  </use>
                  <path fill="none" stroke="white" stroke-width="1.5" d="M0,-3.0v7 M-2.5,-0.5L0,-3.0L2.5,-0.5"/>
                </g>
                <g id="arrowLeft" xlink:href="#dirArrow" transform="rotate(270) translate(-36 17)" onmousedown="handlePan(-1,0)">
                  <use xlink:href="#rim" fill="#404040">
                        <set attributeName="fill" to="#808080" begin="arrowLeft.mouseover" end="arrowLeft.mouseout"/>
                  </use>
                  <path fill="none" stroke="white" stroke-width="1.5" d="M0,-3.0v7 M-2.5,-0.5L0,-3.0L2.5,-0.5"/>
                </g>
        </g>
        <svg viewBox="0 0 15 15" width="100%" height="30px" preserveAspectRatio="xMaxYMin meet">
         <g id="arrow_out" transform="scale(0.3 0.3)">
          <a xlink:href="a00070_a077adc41aa1c0f7270a995ff42420424_cgraph_org.svg" target="_base">
           <rect id="button" ry="5" rx="5" y="6" x="6" height="38" width="38"
                fill="#f2f5e9" fill-opacity="0.5" stroke="#606060" stroke-width="1.0"/>
           <path id="arrow"
             d="M 11.500037,31.436501 C 11.940474,20.09759 22.043105,11.32322 32.158766,21.979434 L 37.068811,17.246167 C 37.068811,17.246167 37.088388,32 37.088388,32 L 22.160133,31.978069 C 22.160133,31.978069 26.997745,27.140456 26.997745,27.140456 C 18.528582,18.264221 13.291696,25.230495 11.500037,31.436501 z"
             style="fill:#404040;"/>
          </a>
         </g>
        </svg>
</svg>
