<?xml version="1.0" encoding="UTF-8" standalone="no"?>
<!DOCTYPE svg PUBLIC "-//W3C//DTD SVG 1.1//EN"
 "http://www.w3.org/Graphics/SVG/1.1/DTD/svg11.dtd">
<!-- Generated by graphviz version 2.38.0 (20140413.2041)
 -->
<!-- Title: add_adapters Pages: 1 -->
<svg width="1534pt" height="775pt"
 viewBox="0.00 0.00 1534.00 775.00" xmlns="http://www.w3.org/2000/svg" xmlns:xlink="http://www.w3.org/1999/xlink">
<g id="graph0" class="graph" transform="scale(1 1) rotate(0) translate(4 771)">
<title>add_adapters</title>
<!-- Node1 -->
<g id="node1" class="node"><title>Node1</title>
<polygon fill="#bfbfbf" stroke="black" points="0,-353.5 0,-372.5 75,-372.5 75,-353.5 0,-353.5"/>
<text text-anchor="middle" x="37.5" y="-360.5" font-family="Helvetica,sans-Serif" font-size="10.00">add_adapters</text>
</g>
<!-- Node2 -->
<g id="node2" class="node"><title>Node2</title>
<g id="a_node2"><a xlink:href="a00076.html#aa21890dddb121282884859a2c8bfd134" target="_top" xlink:title="add_adapter">
<polygon fill="none" stroke="black" points="111,-353.5 111,-372.5 181,-372.5 181,-353.5 111,-353.5"/>
<text text-anchor="middle" x="146" y="-360.5" font-family="Helvetica,sans-Serif" font-size="10.00">add_adapter</text>
</a>
</g>
</g>
<!-- Node1&#45;&gt;Node2 -->
<g id="edge1" class="edge"><title>Node1&#45;&gt;Node2</title>
<path fill="none" stroke="midnightblue" d="M75.1513,-363C83.3644,-363 92.1628,-363 100.651,-363"/>
<polygon fill="midnightblue" stroke="midnightblue" points="100.79,-366.5 110.79,-363 100.79,-359.5 100.79,-366.5"/>
</g>
<!-- Node3 -->
<g id="node3" class="node"><title>Node3</title>
<g id="a_node3"><a xlink:href="a00056.html#af6aa40d0f9745dcbcb332d8d9dfc778d" target="_top" xlink:title="[id_t functions] ">
<polygon fill="none" stroke="black" points="809,-690.5 809,-709.5 910,-709.5 910,-690.5 809,-690.5"/>
<text text-anchor="middle" x="859.5" y="-697.5" font-family="Helvetica,sans-Serif" font-size="10.00">hpd_adapter_get_id</text>
</a>
</g>
</g>
<!-- Node2&#45;&gt;Node3 -->
<g id="edge2" class="edge"><title>Node2&#45;&gt;Node3</title>
<path fill="none" stroke="midnightblue" d="M149.773,-372.761C163.508,-418.798 228.73,-612 356,-612 356,-612 356,-612 571.5,-612 670.928,-612 781.555,-660.874 831.469,-685.776"/>
<polygon fill="midnightblue" stroke="midnightblue" points="830.119,-689.015 840.621,-690.415 833.284,-682.772 830.119,-689.015"/>
</g>
<!-- Node6 -->
<g id="node6" class="node"><title>Node6</title>
<g id="a_node6"><a xlink:href="a00076.html#aa181e2f731323873699902e5cf92eea8" target="_top" xlink:title="add">
<polygon fill="none" stroke="black" points="1175.5,-66.5 1175.5,-85.5 1207.5,-85.5 1207.5,-66.5 1175.5,-66.5"/>
<text text-anchor="middle" x="1191.5" y="-73.5" font-family="Helvetica,sans-Serif" font-size="10.00">add</text>
</a>
</g>
</g>
<!-- Node2&#45;&gt;Node6 -->
<g id="edge5" class="edge"><title>Node2&#45;&gt;Node6</title>
<path fill="none" stroke="midnightblue" d="M147.784,-353.291C153.018,-295.563 188.017,-0 356,-0 356,-0 356,-0 860.5,-0 962.21,-0 987.599,-13.2679 1086,-39 1113.84,-46.2809 1144.81,-57.6798 1165.76,-65.9019"/>
<polygon fill="midnightblue" stroke="midnightblue" points="1164.59,-69.2046 1175.18,-69.6511 1167.18,-62.7009 1164.59,-69.2046"/>
</g>
<!-- Node7 -->
<g id="node7" class="node"><title>Node7</title>
<g id="a_node7"><a xlink:href="a00076.html#ae8f63d2ca9864211a681b077c4431a33" target="_top" xlink:title="add_attr">
<polygon fill="none" stroke="black" points="996,-192.5 996,-211.5 1048,-211.5 1048,-192.5 996,-192.5"/>
<text text-anchor="middle" x="1022" y="-199.5" font-family="Helvetica,sans-Serif" font-size="10.00">add_attr</text>
</a>
</g>
</g>
<!-- Node2&#45;&gt;Node7 -->
<g id="edge6" class="edge"><title>Node2&#45;&gt;Node7</title>
<path fill="none" stroke="midnightblue" d="M181.275,-361.769C209.88,-360.512 251.687,-358.143 288,-354 571.848,-321.619 649.375,-333.403 922,-248 947.8,-239.918 975.588,-226.559 995.137,-216.314"/>
<polygon fill="midnightblue" stroke="midnightblue" points="996.852,-219.366 1004.03,-211.572 993.557,-213.19 996.852,-219.366"/>
</g>
<!-- Node9 -->
<g id="node9" class="node"><title>Node9</title>
<g id="a_node9"><a xlink:href="a00076.html#a4028efc20daa3dbda3727bcb6fdd0635" target="_top" xlink:title="add_devices">
<polygon fill="none" stroke="black" points="217,-325.5 217,-344.5 288,-344.5 288,-325.5 217,-325.5"/>
<text text-anchor="middle" x="252.5" y="-332.5" font-family="Helvetica,sans-Serif" font-size="10.00">add_devices</text>
</a>
</g>
</g>
<!-- Node2&#45;&gt;Node9 -->
<g id="edge9" class="edge"><title>Node2&#45;&gt;Node9</title>
<path fill="none" stroke="midnightblue" d="M181.217,-353.832C189.432,-351.631 198.324,-349.248 206.932,-346.942"/>
<polygon fill="midnightblue" stroke="midnightblue" points="208.095,-350.254 216.848,-344.285 206.283,-343.492 208.095,-350.254"/>
</g>
<!-- Node4 -->
<g id="node4" class="node"><title>Node4</title>
<g id="a_node4"><a xlink:href="a00011.html#a690059fc206d49f639837d41fd5ced05" target="_top" xlink:title="discovery_find_adapter">
<polygon fill="none" stroke="black" points="963.5,-747.5 963.5,-766.5 1080.5,-766.5 1080.5,-747.5 963.5,-747.5"/>
<text text-anchor="middle" x="1022" y="-754.5" font-family="Helvetica,sans-Serif" font-size="10.00">discovery_find_adapter</text>
</a>
</g>
</g>
<!-- Node3&#45;&gt;Node4 -->
<g id="edge3" class="edge"><title>Node3&#45;&gt;Node4</title>
<path fill="none" stroke="midnightblue" d="M883.556,-709.578C903.193,-717.593 932.24,-729.111 958,-738 964.385,-740.203 971.181,-742.402 977.858,-744.482"/>
<polygon fill="midnightblue" stroke="midnightblue" points="976.907,-747.851 987.493,-747.429 978.954,-741.157 976.907,-747.851"/>
</g>
<!-- Node5 -->
<g id="node5" class="node"><title>Node5</title>
<g id="a_node5"><a xlink:href="a00059.html#af7f7554fd8858506bf900674f0dd07be" target="_top" xlink:title="discovery_get_adapter_id">
<polygon fill="none" stroke="black" points="958,-709.5 958,-728.5 1086,-728.5 1086,-709.5 958,-709.5"/>
<text text-anchor="middle" x="1022" y="-716.5" font-family="Helvetica,sans-Serif" font-size="10.00">discovery_get_adapter_id</text>
</a>
</g>
</g>
<!-- Node3&#45;&gt;Node5 -->
<g id="edge4" class="edge"><title>Node3&#45;&gt;Node5</title>
<path fill="none" stroke="midnightblue" d="M910.403,-705.908C922.239,-707.309 935.107,-708.832 947.743,-710.328"/>
<polygon fill="midnightblue" stroke="midnightblue" points="947.46,-713.819 957.802,-711.519 948.283,-706.867 947.46,-713.819"/>
</g>
<!-- Node7&#45;&gt;Node6 -->
<g id="edge8" class="edge"><title>Node7&#45;&gt;Node6</title>
<path fill="none" stroke="midnightblue" d="M1048.3,-193.854C1060.83,-188.828 1075.48,-181.337 1086,-171 1110.96,-146.483 1095.76,-124.143 1122,-101 1134.1,-90.3221 1151.14,-84.0792 1165.2,-80.5022"/>
<polygon fill="midnightblue" stroke="midnightblue" points="1166.24,-83.8559 1175.23,-78.2572 1164.71,-77.0247 1166.24,-83.8559"/>
</g>
<!-- Node8 -->
<g id="node8" class="node"><title>Node8</title>
<g id="a_node8"><a xlink:href="a00042.html#ad8de9589846a9987ae60b199fc05094d" target="_top" xlink:title="hpd_pair_get">
<polygon fill="none" stroke="black" points="1155.5,-192.5 1155.5,-211.5 1227.5,-211.5 1227.5,-192.5 1155.5,-192.5"/>
<text text-anchor="middle" x="1191.5" y="-199.5" font-family="Helvetica,sans-Serif" font-size="10.00">hpd_pair_get</text>
</a>
</g>
</g>
<!-- Node7&#45;&gt;Node8 -->
<g id="edge7" class="edge"><title>Node7&#45;&gt;Node8</title>
<path fill="none" stroke="midnightblue" d="M1048.08,-202C1073.66,-202 1113.92,-202 1145.12,-202"/>
<polygon fill="midnightblue" stroke="midnightblue" points="1145.32,-205.5 1155.32,-202 1145.32,-198.5 1145.32,-205.5"/>
</g>
<!-- Node10 -->
<g id="node10" class="node"><title>Node10</title>
<g id="a_node10"><a xlink:href="a00076.html#a57ebcecdb1a111267049578c1d9c51de" target="_top" xlink:title="add_device">
<polygon fill="none" stroke="black" points="324,-306.5 324,-325.5 390,-325.5 390,-306.5 324,-306.5"/>
<text text-anchor="middle" x="357" y="-313.5" font-family="Helvetica,sans-Serif" font-size="10.00">add_device</text>
</a>
</g>
</g>
<!-- Node9&#45;&gt;Node10 -->
<g id="edge10" class="edge"><title>Node9&#45;&gt;Node10</title>
<path fill="none" stroke="midnightblue" d="M288.202,-328.567C296.377,-327.052 305.182,-325.42 313.652,-323.85"/>
<polygon fill="midnightblue" stroke="midnightblue" points="314.558,-327.242 323.753,-321.977 313.283,-320.359 314.558,-327.242"/>
</g>
<!-- Node10&#45;&gt;Node6 -->
<g id="edge14" class="edge"><title>Node10&#45;&gt;Node6</title>
<path fill="none" stroke="midnightblue" d="M360.151,-306.431C371.752,-257.547 431.535,-38 569.5,-38 569.5,-38 569.5,-38 860.5,-38 975.12,-38 1110.67,-60.9043 1165.57,-71.1487"/>
<polygon fill="midnightblue" stroke="midnightblue" points="1164.96,-74.5966 1175.44,-73.0182 1166.27,-67.7188 1164.96,-74.5966"/>
</g>
<!-- Node10&#45;&gt;Node7 -->
<g id="edge15" class="edge"><title>Node10&#45;&gt;Node7</title>
<path fill="none" stroke="midnightblue" d="M390.204,-311.216C476.554,-298.275 720.371,-260.988 922,-223 943.27,-218.993 966.993,-213.979 985.884,-209.856"/>
<polygon fill="midnightblue" stroke="midnightblue" points="986.82,-213.234 995.835,-207.669 985.317,-206.397 986.82,-213.234"/>
</g>
<!-- Node11 -->
<g id="node11" class="node"><title>Node11</title>
<g id="a_node11"><a xlink:href="a00056.html#a9005887b17466250fc4fc8d6d253034d" target="_top" xlink:title="[hpd_adapter_t functions] ">
<polygon fill="none" stroke="black" points="810.5,-630.5 810.5,-649.5 908.5,-649.5 908.5,-630.5 810.5,-630.5"/>
<text text-anchor="middle" x="859.5" y="-637.5" font-family="Helvetica,sans-Serif" font-size="10.00">hpd_device_get_id</text>
</a>
</g>
</g>
<!-- Node10&#45;&gt;Node11 -->
<g id="edge11" class="edge"><title>Node10&#45;&gt;Node11</title>
<path fill="none" stroke="midnightblue" d="M370.389,-325.627C421.147,-364.793 618.949,-514.746 797,-613 805.79,-617.85 815.623,-622.492 824.804,-626.517"/>
<polygon fill="midnightblue" stroke="midnightblue" points="823.493,-629.763 834.064,-630.471 826.242,-623.325 823.493,-629.763"/>
</g>
<!-- Node14 -->
<g id="node14" class="node"><title>Node14</title>
<g id="a_node14"><a xlink:href="a00076.html#a2e3a16674e810068b936c145267184bb" target="_top" xlink:title="add_services">
<polygon fill="none" stroke="black" points="426,-230.5 426,-249.5 500,-249.5 500,-230.5 426,-230.5"/>
<text text-anchor="middle" x="463" y="-237.5" font-family="Helvetica,sans-Serif" font-size="10.00">add_services</text>
</a>
</g>
</g>
<!-- Node10&#45;&gt;Node14 -->
<g id="edge16" class="edge"><title>Node10&#45;&gt;Node14</title>
<path fill="none" stroke="midnightblue" d="M371.172,-306.375C388.676,-293.583 419.818,-270.825 440.689,-255.573"/>
<polygon fill="midnightblue" stroke="midnightblue" points="442.926,-258.273 448.935,-249.547 438.796,-252.622 442.926,-258.273"/>
</g>
<!-- Node12 -->
<g id="node12" class="node"><title>Node12</title>
<g id="a_node12"><a xlink:href="a00011.html#af178de2e51304e31fefe0ae13d2481ab" target="_top" xlink:title="discovery_find_device">
<polygon fill="none" stroke="black" points="965.5,-671.5 965.5,-690.5 1078.5,-690.5 1078.5,-671.5 965.5,-671.5"/>
<text text-anchor="middle" x="1022" y="-678.5" font-family="Helvetica,sans-Serif" font-size="10.00">discovery_find_device</text>
</a>
</g>
</g>
<!-- Node11&#45;&gt;Node12 -->
<g id="edge12" class="edge"><title>Node11&#45;&gt;Node12</title>
<path fill="none" stroke="midnightblue" d="M897.725,-649.509C920.433,-655.31 949.667,-662.778 973.966,-668.985"/>
<polygon fill="midnightblue" stroke="midnightblue" points="973.144,-672.387 983.699,-671.471 974.876,-665.605 973.144,-672.387"/>
</g>
<!-- Node13 -->
<g id="node13" class="node"><title>Node13</title>
<g id="a_node13"><a xlink:href="a00059.html#a01d64284d4ff469a8dffa0260a92eea2" target="_top" xlink:title="discovery_get_device_id">
<polygon fill="none" stroke="black" points="960,-633.5 960,-652.5 1084,-652.5 1084,-633.5 960,-633.5"/>
<text text-anchor="middle" x="1022" y="-640.5" font-family="Helvetica,sans-Serif" font-size="10.00">discovery_get_device_id</text>
</a>
</g>
</g>
<!-- Node11&#45;&gt;Node13 -->
<g id="edge13" class="edge"><title>Node11&#45;&gt;Node13</title>
<path fill="none" stroke="midnightblue" d="M908.655,-640.9C921.584,-641.142 935.843,-641.408 949.738,-641.668"/>
<polygon fill="midnightblue" stroke="midnightblue" points="949.704,-645.168 959.767,-641.855 949.835,-638.169 949.704,-645.168"/>
</g>
<!-- Node15 -->
<g id="node15" class="node"><title>Node15</title>
<g id="a_node15"><a xlink:href="a00076.html#aa3eb7c0c809c6c24396cb9321b6b57dc" target="_top" xlink:title="add_service">
<polygon fill="none" stroke="black" points="536,-211.5 536,-230.5 605,-230.5 605,-211.5 536,-211.5"/>
<text text-anchor="middle" x="570.5" y="-218.5" font-family="Helvetica,sans-Serif" font-size="10.00">add_service</text>
</a>
</g>
</g>
<!-- Node14&#45;&gt;Node15 -->
<g id="edge17" class="edge"><title>Node14&#45;&gt;Node15</title>
<path fill="none" stroke="midnightblue" d="M500.012,-233.514C508.335,-232.015 517.279,-230.405 525.888,-228.854"/>
<polygon fill="midnightblue" stroke="midnightblue" points="526.561,-232.289 535.783,-227.072 525.321,-225.4 526.561,-232.289"/>
</g>
<!-- Node15&#45;&gt;Node6 -->
<g id="edge21" class="edge"><title>Node15&#45;&gt;Node6</title>
<path fill="none" stroke="midnightblue" d="M573.682,-211.147C579.617,-186.986 598.539,-124.882 641,-99 730.307,-44.5639 1069.18,-66.4532 1165.08,-73.9"/>
<polygon fill="midnightblue" stroke="midnightblue" points="1165.05,-77.4087 1175.29,-74.711 1165.6,-70.4306 1165.05,-77.4087"/>
</g>
<!-- Node15&#45;&gt;Node7 -->
<g id="edge50" class="edge"><title>Node15&#45;&gt;Node7</title>
<path fill="none" stroke="midnightblue" d="M605.286,-219.572C688.206,-216.067 901.146,-207.066 985.663,-203.494"/>
<polygon fill="midnightblue" stroke="midnightblue" points="985.939,-206.985 995.782,-203.066 985.643,-199.991 985.939,-206.985"/>
</g>
<!-- Node16 -->
<g id="node16" class="node"><title>Node16</title>
<g id="a_node16"><a xlink:href="a00056.html#a90138cb6c91b2b93f66c4f8a76495394" target="_top" xlink:title="[hpd_device_t functions] ">
<polygon fill="none" stroke="black" points="809,-306.5 809,-325.5 910,-325.5 910,-306.5 809,-306.5"/>
<text text-anchor="middle" x="859.5" y="-313.5" font-family="Helvetica,sans-Serif" font-size="10.00">hpd_service_get_id</text>
</a>
</g>
</g>
<!-- Node15&#45;&gt;Node16 -->
<g id="edge18" class="edge"><title>Node15&#45;&gt;Node16</title>
<path fill="none" stroke="midnightblue" d="M605.143,-225.848C643.649,-232.028 708.205,-244.336 761,-264 787.419,-273.84 815.635,-289.518 834.879,-301.089"/>
<polygon fill="midnightblue" stroke="midnightblue" points="833.201,-304.165 843.559,-306.396 836.853,-298.193 833.201,-304.165"/>
</g>
<!-- Node19 -->
<g id="node19" class="node"><title>Node19</title>
<g id="a_node19"><a xlink:href="a00025.html#ae30c92f3bb2ebffcbb82054ad60c1ac5" target="_top" xlink:title="hpd_rest_url_create">
<polygon fill="none" stroke="black" points="650,-420.5 650,-439.5 752,-439.5 752,-420.5 650,-420.5"/>
<text text-anchor="middle" x="701" y="-427.5" font-family="Helvetica,sans-Serif" font-size="10.00">hpd_rest_url_create</text>
</a>
</g>
</g>
<!-- Node15&#45;&gt;Node19 -->
<g id="edge22" class="edge"><title>Node15&#45;&gt;Node19</title>
<path fill="none" stroke="midnightblue" d="M577.355,-230.523C597.257,-262.893 662.517,-369.035 688.842,-411.852"/>
<polygon fill="midnightblue" stroke="midnightblue" points="685.891,-413.735 694.11,-420.421 691.854,-410.069 685.891,-413.735"/>
</g>
<!-- Node25 -->
<g id="node25" class="node"><title>Node25</title>
<g id="a_node25"><a xlink:href="a00006.html#adf46370d9c211c3be22966b4606ba9b0" target="_top" xlink:title="free">
<polygon fill="none" stroke="black" points="1462,-477.5 1462,-496.5 1495,-496.5 1495,-477.5 1462,-477.5"/>
<text text-anchor="middle" x="1478.5" y="-484.5" font-family="Helvetica,sans-Serif" font-size="10.00">free</text>
</a>
</g>
</g>
<!-- Node15&#45;&gt;Node25 -->
<g id="edge47" class="edge"><title>Node15&#45;&gt;Node25</title>
<path fill="none" stroke="midnightblue" d="M586.405,-230.67C600.292,-239.519 621.699,-252.754 641,-263 708.448,-298.803 723.176,-315.479 797,-335 893.593,-360.542 921.087,-354 1021,-354 1021,-354 1021,-354 1192.5,-354 1286,-354 1313.37,-365.406 1395,-411 1422.32,-426.261 1447.85,-452.311 1463.07,-469.591"/>
<polygon fill="midnightblue" stroke="midnightblue" points="1460.51,-471.977 1469.68,-477.283 1465.82,-467.416 1460.51,-471.977"/>
</g>
<!-- Node36 -->
<g id="node36" class="node"><title>Node36</title>
<g id="a_node36"><a xlink:href="a00056.html#ae383d9141430bb772cbbc9b036271e9b" target="_top" xlink:title="[model foreach loops] ">
<polygon fill="none" stroke="black" points="641,-151.5 641,-170.5 761,-170.5 761,-151.5 641,-151.5"/>
<text text-anchor="middle" x="701" y="-158.5" font-family="Helvetica,sans-Serif" font-size="10.00">hpd_action_get_method</text>
</a>
</g>
</g>
<!-- Node15&#45;&gt;Node36 -->
<g id="edge48" class="edge"><title>Node15&#45;&gt;Node36</title>
<path fill="none" stroke="midnightblue" d="M591.537,-211.394C605.403,-204.769 624.294,-195.788 641,-188 650.32,-183.655 660.496,-178.975 669.732,-174.752"/>
<polygon fill="midnightblue" stroke="midnightblue" points="671.296,-177.886 678.941,-170.55 668.39,-171.517 671.296,-177.886"/>
</g>
<!-- Node38 -->
<g id="node38" class="node"><title>Node38</title>
<g id="a_node38"><a xlink:href="a00076.html#a6c449fb11af835a61a508faa1a37cb9e" target="_top" xlink:title="add_parameters">
<polygon fill="none" stroke="black" points="658,-108.5 658,-127.5 744,-127.5 744,-108.5 658,-108.5"/>
<text text-anchor="middle" x="701" y="-115.5" font-family="Helvetica,sans-Serif" font-size="10.00">add_parameters</text>
</a>
</g>
</g>
<!-- Node15&#45;&gt;Node38 -->
<g id="edge51" class="edge"><title>Node15&#45;&gt;Node38</title>
<path fill="none" stroke="midnightblue" d="M577.68,-211.45C588.646,-195.173 613.006,-161.893 641,-142 646.632,-137.998 653.03,-134.519 659.484,-131.548"/>
<polygon fill="midnightblue" stroke="midnightblue" points="661.059,-134.682 668.898,-127.554 658.325,-128.237 661.059,-134.682"/>
</g>
<!-- Node17 -->
<g id="node17" class="node"><title>Node17</title>
<g id="a_node17"><a xlink:href="a00011.html#a0a2ab1d55e44c5a4488fed87c0fbc508" target="_top" xlink:title="discovery_find_service">
<polygon fill="none" stroke="black" points="964,-306.5 964,-325.5 1080,-325.5 1080,-306.5 964,-306.5"/>
<text text-anchor="middle" x="1022" y="-313.5" font-family="Helvetica,sans-Serif" font-size="10.00">discovery_find_service</text>
</a>
</g>
</g>
<!-- Node16&#45;&gt;Node17 -->
<g id="edge19" class="edge"><title>Node16&#45;&gt;Node17</title>
<path fill="none" stroke="midnightblue" d="M910.403,-316C924.028,-316 939.022,-316 953.453,-316"/>
<polygon fill="midnightblue" stroke="midnightblue" points="953.835,-319.5 963.835,-316 953.835,-312.5 953.835,-319.5"/>
</g>
<!-- Node18 -->
<g id="node18" class="node"><title>Node18</title>
<g id="a_node18"><a xlink:href="a00059.html#a0c24b895ea333fedf685a75e27e64c37" target="_top" xlink:title="discovery_get_service_id">
<polygon fill="none" stroke="black" points="958.5,-268.5 958.5,-287.5 1085.5,-287.5 1085.5,-268.5 958.5,-268.5"/>
<text text-anchor="middle" x="1022" y="-275.5" font-family="Helvetica,sans-Serif" font-size="10.00">discovery_get_service_id</text>
</a>
</g>
</g>
<!-- Node16&#45;&gt;Node18 -->
<g id="edge20" class="edge"><title>Node16&#45;&gt;Node18</title>
<path fill="none" stroke="midnightblue" d="M901.001,-306.411C922.181,-301.396 948.302,-295.212 970.76,-289.895"/>
<polygon fill="midnightblue" stroke="midnightblue" points="971.866,-293.23 980.79,-287.52 970.253,-286.418 971.866,-293.23"/>
</g>
<!-- Node19&#45;&gt;Node3 -->
<g id="edge38" class="edge"><title>Node19&#45;&gt;Node3</title>
<path fill="none" stroke="midnightblue" d="M705.148,-439.611C717.942,-478.29 766.798,-622.258 797,-659 805.809,-669.716 818.144,-678.693 829.458,-685.488"/>
<polygon fill="midnightblue" stroke="midnightblue" points="827.8,-688.572 838.224,-690.462 831.254,-682.483 827.8,-688.572"/>
</g>
<!-- Node19&#45;&gt;Node11 -->
<g id="edge37" class="edge"><title>Node19&#45;&gt;Node11</title>
<path fill="none" stroke="midnightblue" d="M740.729,-439.543C748.349,-442.997 755.635,-447.676 761,-454 807.874,-509.25 750.886,-557.114 797,-613 801.338,-618.257 806.901,-622.522 812.904,-625.972"/>
<polygon fill="midnightblue" stroke="midnightblue" points="811.411,-629.138 821.922,-630.466 814.533,-622.873 811.411,-629.138"/>
</g>
<!-- Node19&#45;&gt;Node16 -->
<g id="edge36" class="edge"><title>Node19&#45;&gt;Node16</title>
<path fill="none" stroke="midnightblue" d="M715.074,-420.477C742.049,-400.827 804.1,-355.627 837.043,-331.63"/>
<polygon fill="midnightblue" stroke="midnightblue" points="839.109,-334.455 845.132,-325.738 834.988,-328.797 839.109,-334.455"/>
</g>
<!-- Node20 -->
<g id="node20" class="node"><title>Node20</title>
<g id="a_node20"><a xlink:href="a00056.html#a1ce881941d5fa5be20c50439118ce79c" target="_top" xlink:title="hpd_service_get_adapter">
<polygon fill="none" stroke="black" points="797,-584.5 797,-603.5 922,-603.5 922,-584.5 797,-584.5"/>
<text text-anchor="middle" x="859.5" y="-591.5" font-family="Helvetica,sans-Serif" font-size="10.00">hpd_service_get_adapter</text>
</a>
</g>
</g>
<!-- Node19&#45;&gt;Node20 -->
<g id="edge23" class="edge"><title>Node19&#45;&gt;Node20</title>
<path fill="none" stroke="midnightblue" d="M739.4,-439.501C747.367,-442.977 755.135,-447.676 761,-454 796.553,-492.338 762.238,-526.943 797,-566 802.041,-571.663 808.455,-576.252 815.229,-579.947"/>
<polygon fill="midnightblue" stroke="midnightblue" points="814.065,-583.271 824.594,-584.449 817.098,-576.962 814.065,-583.271"/>
</g>
<!-- Node19&#45;&gt;Node25 -->
<g id="edge46" class="edge"><title>Node19&#45;&gt;Node25</title>
<path fill="none" stroke="midnightblue" d="M751.239,-439.54C813.721,-450.796 924.93,-468 1021,-468 1021,-468 1021,-468 1192.5,-468 1288.16,-468 1401.49,-478.789 1451.53,-484.107"/>
<polygon fill="midnightblue" stroke="midnightblue" points="1451.45,-487.618 1461.77,-485.213 1452.2,-480.659 1451.45,-487.618"/>
</g>
<!-- Node26 -->
<g id="node26" class="node"><title>Node26</title>
<g id="a_node26"><a xlink:href="a00056.html#a075014c7d7993dd88aafce4f8365ad4a" target="_top" xlink:title="hpd_service_get_device">
<polygon fill="none" stroke="black" points="798.5,-537.5 798.5,-556.5 920.5,-556.5 920.5,-537.5 798.5,-537.5"/>
<text text-anchor="middle" x="859.5" y="-544.5" font-family="Helvetica,sans-Serif" font-size="10.00">hpd_service_get_device</text>
</a>
</g>
</g>
<!-- Node19&#45;&gt;Node26 -->
<g id="edge29" class="edge"><title>Node19&#45;&gt;Node26</title>
<path fill="none" stroke="midnightblue" d="M736.729,-439.565C745.337,-443.103 754.071,-447.813 761,-454 785.923,-476.255 772.383,-497.407 797,-520 802.799,-525.322 809.815,-529.715 817.004,-533.298"/>
<polygon fill="midnightblue" stroke="midnightblue" points="815.569,-536.49 826.124,-537.413 818.448,-530.11 815.569,-536.49"/>
</g>
<!-- Node31 -->
<g id="node31" class="node"><title>Node31</title>
<g id="a_node31"><a xlink:href="a00056.html#a9a00d602f27e6ec01adf931e9daaeb42" target="_top" xlink:title="hpd_device_id_free">
<polygon fill="none" stroke="black" points="1141,-420.5 1141,-439.5 1242,-439.5 1242,-420.5 1141,-420.5"/>
<text text-anchor="middle" x="1191.5" y="-427.5" font-family="Helvetica,sans-Serif" font-size="10.00">hpd_device_id_free</text>
</a>
</g>
</g>
<!-- Node19&#45;&gt;Node31 -->
<g id="edge39" class="edge"><title>Node19&#45;&gt;Node31</title>
<path fill="none" stroke="midnightblue" d="M752.438,-430C843.108,-430 1033.23,-430 1130.45,-430"/>
<polygon fill="midnightblue" stroke="midnightblue" points="1130.7,-433.5 1140.7,-430 1130.7,-426.5 1130.7,-433.5"/>
</g>
<!-- Node33 -->
<g id="node33" class="node"><title>Node33</title>
<g id="a_node33"><a xlink:href="a00056.html#a6dfca5e2723ca3a11d12fe545e69923e" target="_top" xlink:title="hpd_adapter_id_free">
<polygon fill="none" stroke="black" points="1139.5,-496.5 1139.5,-515.5 1243.5,-515.5 1243.5,-496.5 1139.5,-496.5"/>
<text text-anchor="middle" x="1191.5" y="-503.5" font-family="Helvetica,sans-Serif" font-size="10.00">hpd_adapter_id_free</text>
</a>
</g>
</g>
<!-- Node19&#45;&gt;Node33 -->
<g id="edge42" class="edge"><title>Node19&#45;&gt;Node33</title>
<path fill="none" stroke="midnightblue" d="M730.059,-439.598C740.104,-443.501 751.328,-448.415 761,-454 778.553,-464.136 778.037,-474.841 797,-482 908.224,-523.989 1049.68,-520.047 1129.13,-513.172"/>
<polygon fill="midnightblue" stroke="midnightblue" points="1129.81,-516.625 1139.45,-512.233 1129.17,-509.654 1129.81,-516.625"/>
</g>
<!-- Node35 -->
<g id="node35" class="node"><title>Node35</title>
<g id="a_node35"><a xlink:href="a00025.html#a15a76ff180a00ad13fc98a98cdbb0d65" target="_top" xlink:title="url_encode">
<polygon fill="none" stroke="black" points="827.5,-382.5 827.5,-401.5 891.5,-401.5 891.5,-382.5 827.5,-382.5"/>
<text text-anchor="middle" x="859.5" y="-389.5" font-family="Helvetica,sans-Serif" font-size="10.00">url_encode</text>
</a>
</g>
</g>
<!-- Node19&#45;&gt;Node35 -->
<g id="edge45" class="edge"><title>Node19&#45;&gt;Node35</title>
<path fill="none" stroke="midnightblue" d="M741.492,-420.411C764.682,-414.78 793.948,-407.674 817.409,-401.977"/>
<polygon fill="midnightblue" stroke="midnightblue" points="818.513,-405.311 827.405,-399.55 816.862,-398.509 818.513,-405.311"/>
</g>
<!-- Node21 -->
<g id="node21" class="node"><title>Node21</title>
<g id="a_node21"><a xlink:href="a00011.html#a25f79cc6f338b4ff23b5ecdec0dc03af" target="_top" xlink:title="discovery_get_service\l_adapter">
<polygon fill="none" stroke="black" points="965,-584 965,-614 1079,-614 1079,-584 965,-584"/>
<text text-anchor="start" x="973" y="-602" font-family="Helvetica,sans-Serif" font-size="10.00">discovery_get_service</text>
<text text-anchor="middle" x="1022" y="-591" font-family="Helvetica,sans-Serif" font-size="10.00">_adapter</text>
</a>
</g>
</g>
<!-- Node20&#45;&gt;Node21 -->
<g id="edge24" class="edge"><title>Node20&#45;&gt;Node21</title>
<path fill="none" stroke="midnightblue" d="M922.094,-595.919C932.746,-596.251 943.862,-596.597 954.634,-596.933"/>
<polygon fill="midnightblue" stroke="midnightblue" points="954.726,-600.437 964.83,-597.25 954.944,-593.44 954.726,-600.437"/>
</g>
<!-- Node22 -->
<g id="node22" class="node"><title>Node22</title>
<g id="a_node22"><a xlink:href="a00061.html#a1915dc6bbbb6b1a2a587723caa22069d" target="_top" xlink:title="discovery_alloc_aid">
<polygon fill="none" stroke="black" points="1140.5,-589.5 1140.5,-608.5 1242.5,-608.5 1242.5,-589.5 1140.5,-589.5"/>
<text text-anchor="middle" x="1191.5" y="-596.5" font-family="Helvetica,sans-Serif" font-size="10.00">discovery_alloc_aid</text>
</a>
</g>
</g>
<!-- Node21&#45;&gt;Node22 -->
<g id="edge25" class="edge"><title>Node21&#45;&gt;Node22</title>
<path fill="none" stroke="midnightblue" d="M1079.24,-599C1095.61,-599 1113.56,-599 1130.17,-599"/>
<polygon fill="midnightblue" stroke="midnightblue" points="1130.32,-602.5 1140.32,-599 1130.32,-595.5 1130.32,-602.5"/>
</g>
<!-- Node23 -->
<g id="node23" class="node"><title>Node23</title>
<g id="a_node23"><a xlink:href="a00061.html#af2f553cfc3af4678b87a8fc75f35a5c6" target="_top" xlink:title="discovery_set_aid">
<polygon fill="none" stroke="black" points="1431,-629.5 1431,-648.5 1526,-648.5 1526,-629.5 1431,-629.5"/>
<text text-anchor="middle" x="1478.5" y="-636.5" font-family="Helvetica,sans-Serif" font-size="10.00">discovery_set_aid</text>
</a>
</g>
</g>
<!-- Node22&#45;&gt;Node23 -->
<g id="edge26" class="edge"><title>Node22&#45;&gt;Node23</title>
<path fill="none" stroke="midnightblue" d="M1211.15,-608.541C1231.6,-618.422 1265.67,-633.209 1297,-639 1337.81,-646.543 1384.7,-646.282 1420.46,-644.273"/>
<polygon fill="midnightblue" stroke="midnightblue" points="1420.94,-647.749 1430.7,-643.632 1420.5,-640.763 1420.94,-647.749"/>
</g>
<!-- Node24 -->
<g id="node24" class="node"><title>Node24</title>
<g id="a_node24"><a xlink:href="a00061.html#a2bd026e829a41663810ae68fa3797987" target="_top" xlink:title="discovery_free_aid">
<polygon fill="none" stroke="black" points="1297,-572.5 1297,-591.5 1395,-591.5 1395,-572.5 1297,-572.5"/>
<text text-anchor="middle" x="1346" y="-579.5" font-family="Helvetica,sans-Serif" font-size="10.00">discovery_free_aid</text>
</a>
</g>
</g>
<!-- Node22&#45;&gt;Node24 -->
<g id="edge27" class="edge"><title>Node22&#45;&gt;Node24</title>
<path fill="none" stroke="midnightblue" d="M1242.86,-593.386C1256.82,-591.83 1272.1,-590.127 1286.48,-588.523"/>
<polygon fill="midnightblue" stroke="midnightblue" points="1287.22,-591.963 1296.77,-587.377 1286.44,-585.006 1287.22,-591.963"/>
</g>
<!-- Node24&#45;&gt;Node25 -->
<g id="edge28" class="edge"><title>Node24&#45;&gt;Node25</title>
<path fill="none" stroke="midnightblue" d="M1376.26,-572.401C1382.66,-569.768 1389.23,-566.622 1395,-563 1421.36,-546.448 1446.97,-520.936 1462.48,-504.106"/>
<polygon fill="midnightblue" stroke="midnightblue" points="1465.14,-506.385 1469.25,-496.619 1459.95,-501.692 1465.14,-506.385"/>
</g>
<!-- Node27 -->
<g id="node27" class="node"><title>Node27</title>
<g id="a_node27"><a xlink:href="a00011.html#aeb60ac7ee952776c900d1d2bd34a4782" target="_top" xlink:title="discovery_get_service\l_device">
<polygon fill="none" stroke="black" points="965,-535 965,-565 1079,-565 1079,-535 965,-535"/>
<text text-anchor="start" x="973" y="-553" font-family="Helvetica,sans-Serif" font-size="10.00">discovery_get_service</text>
<text text-anchor="middle" x="1022" y="-542" font-family="Helvetica,sans-Serif" font-size="10.00">_device</text>
</a>
</g>
</g>
<!-- Node26&#45;&gt;Node27 -->
<g id="edge30" class="edge"><title>Node26&#45;&gt;Node27</title>
<path fill="none" stroke="midnightblue" d="M920.721,-548.126C931.822,-548.333 943.469,-548.551 954.736,-548.761"/>
<polygon fill="midnightblue" stroke="midnightblue" points="954.887,-552.265 964.95,-548.952 955.017,-545.266 954.887,-552.265"/>
</g>
<!-- Node28 -->
<g id="node28" class="node"><title>Node28</title>
<g id="a_node28"><a xlink:href="a00061.html#aebd10ac1c18be51340c39d6d5a54e6d1" target="_top" xlink:title="discovery_alloc_did">
<polygon fill="none" stroke="black" points="1140.5,-540.5 1140.5,-559.5 1242.5,-559.5 1242.5,-540.5 1140.5,-540.5"/>
<text text-anchor="middle" x="1191.5" y="-547.5" font-family="Helvetica,sans-Serif" font-size="10.00">discovery_alloc_did</text>
</a>
</g>
</g>
<!-- Node27&#45;&gt;Node28 -->
<g id="edge31" class="edge"><title>Node27&#45;&gt;Node28</title>
<path fill="none" stroke="midnightblue" d="M1079.24,-550C1095.61,-550 1113.56,-550 1130.17,-550"/>
<polygon fill="midnightblue" stroke="midnightblue" points="1130.32,-553.5 1140.32,-550 1130.32,-546.5 1130.32,-553.5"/>
</g>
<!-- Node29 -->
<g id="node29" class="node"><title>Node29</title>
<g id="a_node29"><a xlink:href="a00061.html#acd5e8c2bf3e761abc7e2fd2294238a74" target="_top" xlink:title="discovery_set_did">
<polygon fill="none" stroke="black" points="1298.5,-610.5 1298.5,-629.5 1393.5,-629.5 1393.5,-610.5 1298.5,-610.5"/>
<text text-anchor="middle" x="1346" y="-617.5" font-family="Helvetica,sans-Serif" font-size="10.00">discovery_set_did</text>
</a>
</g>
</g>
<!-- Node28&#45;&gt;Node29 -->
<g id="edge32" class="edge"><title>Node28&#45;&gt;Node29</title>
<path fill="none" stroke="midnightblue" d="M1216.27,-559.615C1229.6,-565.202 1246.42,-572.585 1261,-580 1277.51,-588.396 1280.34,-592.901 1297,-601 1300.9,-602.896 1305.04,-604.753 1309.19,-606.519"/>
<polygon fill="midnightblue" stroke="midnightblue" points="1308.2,-609.897 1318.78,-610.45 1310.86,-603.42 1308.2,-609.897"/>
</g>
<!-- Node30 -->
<g id="node30" class="node"><title>Node30</title>
<g id="a_node30"><a xlink:href="a00061.html#ae1a000b225c8b3f365c2cec8362b8483" target="_top" xlink:title="discovery_free_did">
<polygon fill="none" stroke="black" points="1297,-534.5 1297,-553.5 1395,-553.5 1395,-534.5 1297,-534.5"/>
<text text-anchor="middle" x="1346" y="-541.5" font-family="Helvetica,sans-Serif" font-size="10.00">discovery_free_did</text>
</a>
</g>
</g>
<!-- Node28&#45;&gt;Node30 -->
<g id="edge34" class="edge"><title>Node28&#45;&gt;Node30</title>
<path fill="none" stroke="midnightblue" d="M1242.86,-548.019C1256.82,-547.469 1272.1,-546.868 1286.48,-546.302"/>
<polygon fill="midnightblue" stroke="midnightblue" points="1286.91,-549.788 1296.77,-545.898 1286.64,-542.794 1286.91,-549.788"/>
</g>
<!-- Node29&#45;&gt;Node23 -->
<g id="edge33" class="edge"><title>Node29&#45;&gt;Node23</title>
<path fill="none" stroke="midnightblue" d="M1393.74,-626.806C1402.46,-628.075 1411.65,-629.413 1420.63,-630.721"/>
<polygon fill="midnightblue" stroke="midnightblue" points="1420.24,-634.201 1430.64,-632.178 1421.25,-627.274 1420.24,-634.201"/>
</g>
<!-- Node30&#45;&gt;Node25 -->
<g id="edge35" class="edge"><title>Node30&#45;&gt;Node25</title>
<path fill="none" stroke="midnightblue" d="M1372.02,-534.396C1379.45,-531.463 1387.58,-528.173 1395,-525 1414.45,-516.678 1436.17,-506.643 1452.44,-498.975"/>
<polygon fill="midnightblue" stroke="midnightblue" points="1454.26,-501.987 1461.8,-494.543 1451.26,-495.661 1454.26,-501.987"/>
</g>
<!-- Node32 -->
<g id="node32" class="node"><title>Node32</title>
<g id="a_node32"><a xlink:href="a00011.html#ae1a000b225c8b3f365c2cec8362b8483" target="_top" xlink:title="discovery_free_did">
<polygon fill="none" stroke="black" points="1297,-420.5 1297,-439.5 1395,-439.5 1395,-420.5 1297,-420.5"/>
<text text-anchor="middle" x="1346" y="-427.5" font-family="Helvetica,sans-Serif" font-size="10.00">discovery_free_did</text>
</a>
</g>
</g>
<!-- Node31&#45;&gt;Node32 -->
<g id="edge40" class="edge"><title>Node31&#45;&gt;Node32</title>
<path fill="none" stroke="midnightblue" d="M1242.01,-430C1256.29,-430 1271.99,-430 1286.74,-430"/>
<polygon fill="midnightblue" stroke="midnightblue" points="1286.78,-433.5 1296.78,-430 1286.78,-426.5 1286.78,-433.5"/>
</g>
<!-- Node32&#45;&gt;Node25 -->
<g id="edge41" class="edge"><title>Node32&#45;&gt;Node25</title>
<path fill="none" stroke="midnightblue" d="M1368.84,-439.541C1391.93,-449.624 1428.28,-465.502 1452.5,-476.079"/>
<polygon fill="midnightblue" stroke="midnightblue" points="1451.18,-479.325 1461.75,-480.12 1453.99,-472.91 1451.18,-479.325"/>
</g>
<!-- Node34 -->
<g id="node34" class="node"><title>Node34</title>
<g id="a_node34"><a xlink:href="a00011.html#a2bd026e829a41663810ae68fa3797987" target="_top" xlink:title="discovery_free_aid">
<polygon fill="none" stroke="black" points="1297,-496.5 1297,-515.5 1395,-515.5 1395,-496.5 1297,-496.5"/>
<text text-anchor="middle" x="1346" y="-503.5" font-family="Helvetica,sans-Serif" font-size="10.00">discovery_free_aid</text>
</a>
</g>
</g>
<!-- Node33&#45;&gt;Node34 -->
<g id="edge43" class="edge"><title>Node33&#45;&gt;Node34</title>
<path fill="none" stroke="midnightblue" d="M1243.7,-506C1257.49,-506 1272.51,-506 1286.65,-506"/>
<polygon fill="midnightblue" stroke="midnightblue" points="1286.77,-509.5 1296.77,-506 1286.77,-502.5 1286.77,-509.5"/>
</g>
<!-- Node34&#45;&gt;Node25 -->
<g id="edge44" class="edge"><title>Node34&#45;&gt;Node25</title>
<path fill="none" stroke="midnightblue" d="M1395.22,-498.979C1414.34,-496.196 1435.55,-493.108 1451.64,-490.765"/>
<polygon fill="midnightblue" stroke="midnightblue" points="1452.49,-494.178 1461.88,-489.274 1451.48,-487.251 1452.49,-494.178"/>
</g>
<!-- Node37 -->
<g id="node37" class="node"><title>Node37</title>
<g id="a_node37"><a xlink:href="a00059.html#a73de326a870c6c39c30fedc1f49cb619" target="_top" xlink:title="discovery_get_action\l_method">
<polygon fill="none" stroke="black" points="805,-143 805,-173 914,-173 914,-143 805,-143"/>
<text text-anchor="start" x="813" y="-161" font-family="Helvetica,sans-Serif" font-size="10.00">discovery_get_action</text>
<text text-anchor="middle" x="859.5" y="-150" font-family="Helvetica,sans-Serif" font-size="10.00">_method</text>
</a>
</g>
</g>
<!-- Node36&#45;&gt;Node37 -->
<g id="edge49" class="edge"><title>Node36&#45;&gt;Node37</title>
<path fill="none" stroke="midnightblue" d="M761.166,-159.866C772.167,-159.655 783.704,-159.434 794.833,-159.22"/>
<polygon fill="midnightblue" stroke="midnightblue" points="794.981,-162.718 804.912,-159.027 794.847,-155.72 794.981,-162.718"/>
</g>
<!-- Node39 -->
<g id="node39" class="node"><title>Node39</title>
<g id="a_node39"><a xlink:href="a00076.html#af86403a1e06bf3f39721b1cb53ee156a" target="_top" xlink:title="add_parameter">
<polygon fill="none" stroke="black" points="819,-104.5 819,-123.5 900,-123.5 900,-104.5 819,-104.5"/>
<text text-anchor="middle" x="859.5" y="-111.5" font-family="Helvetica,sans-Serif" font-size="10.00">add_parameter</text>
</a>
</g>
</g>
<!-- Node38&#45;&gt;Node39 -->
<g id="edge52" class="edge"><title>Node38&#45;&gt;Node39</title>
<path fill="none" stroke="midnightblue" d="M744.351,-116.918C764.176,-116.411 787.925,-115.804 808.615,-115.275"/>
<polygon fill="midnightblue" stroke="midnightblue" points="808.899,-118.769 818.806,-115.015 808.72,-111.771 808.899,-118.769"/>
</g>
<!-- Node39&#45;&gt;Node6 -->
<g id="edge56" class="edge"><title>Node39&#45;&gt;Node6</title>
<path fill="none" stroke="midnightblue" d="M900.05,-110.119C945.104,-105.621 1020.92,-97.8216 1086,-90 1113.08,-86.7452 1144.05,-82.5357 1165.19,-79.5859"/>
<polygon fill="midnightblue" stroke="midnightblue" points="1165.87,-83.0255 1175.29,-78.1699 1164.9,-76.0934 1165.87,-83.0255"/>
</g>
<!-- Node39&#45;&gt;Node7 -->
<g id="edge57" class="edge"><title>Node39&#45;&gt;Node7</title>
<path fill="none" stroke="midnightblue" d="M900.198,-122.976C907.747,-125.58 915.356,-128.871 922,-133 941.76,-145.279 939.268,-157.203 958,-171 966.925,-177.574 977.459,-183.389 987.333,-188.155"/>
<polygon fill="midnightblue" stroke="midnightblue" points="985.976,-191.384 996.523,-192.394 988.908,-185.027 985.976,-191.384"/>
</g>
<!-- Node40 -->
<g id="node40" class="node"><title>Node40</title>
<g id="a_node40"><a xlink:href="a00056.html#a43c7d86904fd4d8c82ec9e52ce52a188" target="_top" xlink:title="[hpd_service_t functions] ">
<polygon fill="none" stroke="black" points="965.5,-142.5 965.5,-161.5 1078.5,-161.5 1078.5,-142.5 965.5,-142.5"/>
<text text-anchor="middle" x="1022" y="-149.5" font-family="Helvetica,sans-Serif" font-size="10.00">hpd_parameter_get_id</text>
</a>
</g>
</g>
<!-- Node39&#45;&gt;Node40 -->
<g id="edge53" class="edge"><title>Node39&#45;&gt;Node40</title>
<path fill="none" stroke="midnightblue" d="M900.174,-123.393C921.522,-128.448 948.068,-134.733 970.837,-140.123"/>
<polygon fill="midnightblue" stroke="midnightblue" points="970.13,-143.553 980.667,-142.451 971.743,-136.741 970.13,-143.553"/>
</g>
<!-- Node41 -->
<g id="node41" class="node"><title>Node41</title>
<g id="a_node41"><a xlink:href="a00011.html#a2348a6596051f9e054ab671a5bdeb11a" target="_top" xlink:title="discovery_find_parameter">
<polygon fill="none" stroke="black" points="1127.5,-148.5 1127.5,-167.5 1255.5,-167.5 1255.5,-148.5 1127.5,-148.5"/>
<text text-anchor="middle" x="1191.5" y="-155.5" font-family="Helvetica,sans-Serif" font-size="10.00">discovery_find_parameter</text>
</a>
</g>
</g>
<!-- Node40&#45;&gt;Node41 -->
<g id="edge54" class="edge"><title>Node40&#45;&gt;Node41</title>
<path fill="none" stroke="midnightblue" d="M1078.78,-153.998C1091.09,-154.439 1104.32,-154.913 1117.21,-155.375"/>
<polygon fill="midnightblue" stroke="midnightblue" points="1117.33,-158.881 1127.45,-155.742 1117.58,-151.886 1117.33,-158.881"/>
</g>
<!-- Node42 -->
<g id="node42" class="node"><title>Node42</title>
<g id="a_node42"><a xlink:href="a00059.html#a38635fc999dfcdb5d1273a3aed037fbf" target="_top" xlink:title="discovery_get_parameter_id">
<polygon fill="none" stroke="black" points="1122,-110.5 1122,-129.5 1261,-129.5 1261,-110.5 1122,-110.5"/>
<text text-anchor="middle" x="1191.5" y="-117.5" font-family="Helvetica,sans-Serif" font-size="10.00">discovery_get_parameter_id</text>
</a>
</g>
</g>
<!-- Node40&#45;&gt;Node42 -->
<g id="edge55" class="edge"><title>Node40&#45;&gt;Node42</title>
<path fill="none" stroke="midnightblue" d="M1072.8,-142.486C1090.95,-139.019 1111.66,-135.063 1130.59,-131.446"/>
<polygon fill="midnightblue" stroke="midnightblue" points="1131.44,-134.847 1140.6,-129.533 1130.12,-127.972 1131.44,-134.847"/>
</g>
</g>
</svg>
