<?xml version="1.0" encoding="UTF-8" standalone="no"?>
<!DOCTYPE svg PUBLIC "-//W3C//DTD SVG 1.1//EN"
 "http://www.w3.org/Graphics/SVG/1.1/DTD/svg11.dtd">
<!-- Generated by graphviz version 2.38.0 (20140413.2041)
 -->
<!-- Title: hpd_map_alloc Pages: 1 -->
<!--zoomable 332 -->
<svg id="main" version="1.1" xmlns="http://www.w3.org/2000/svg" xmlns:xlink="http://www.w3.org/1999/xlink" xml:space="preserve" onload="init(evt)">
<style type="text/css"><![CDATA[
.edge:hover path { stroke: red; }
.edge:hover polygon { stroke: red; fill: red; }
]]></style>
<script type="text/javascript"><![CDATA[
var edges = document.getElementsByTagName('g');
if (edges && edges.length) {
  for (var i=0;i<edges.length;i++) {
    if (edges[i].id.substr(0,4)=='edge') {
      edges[i].setAttribute('class','edge');
    }
  }
}
]]></script>
        <defs>
                <circle id="rim" cx="0" cy="0" r="7"/>
                <circle id="rim2" cx="0" cy="0" r="3.5"/>
                <g id="zoomPlus">
                        <use xlink:href="#rim" fill="#404040">
                                <set attributeName="fill" to="#808080" begin="zoomplus.mouseover" end="zoomplus.mouseout"/>
                        </use>
                        <path d="M-4,0h8M0,-4v8" fill="none" stroke="white" stroke-width="1.5" pointer-events="none"/>
                </g>
                <g id="zoomMin">
                        <use xlink:href="#rim" fill="#404040">
                                <set attributeName="fill" to="#808080" begin="zoomminus.mouseover" end="zoomminus.mouseout"/>
                        </use>
                        <path d="M-4,0h8" fill="none" stroke="white" stroke-width="1.5" pointer-events="none"/>
                </g>
                <g id="dirArrow">
                        <path fill="none" stroke="white" stroke-width="1.5" d="M0,-3.0v7 M-2.5,-0.5L0,-3.0L2.5,-0.5"/>
                </g>
               <g id="resetDef">
                       <use xlink:href="#rim2" fill="#404040">
                               <set attributeName="fill" to="#808080" begin="reset.mouseover" end="reset.mouseout"/>
                       </use>
               </g>
        </defs>

<script type="text/javascript">
var viewWidth = 836;
var viewHeight = 332;
var sectionId = 'dynsection-2';
</script>
<script xlink:href="svgpan.js"/>
<svg id="graph" class="graph">
<g id="viewport">
<title>hpd_map_alloc</title>
<!-- Node1 -->
<g id="node1" class="node"><title>Node1</title>
<polygon fill="#bfbfbf" stroke="black" points="0,-171.5 0,-190.5 82,-190.5 82,-171.5 0,-171.5"/>
<text text-anchor="middle" x="41" y="-178.5" font-family="Helvetica,sans-Serif" font-size="10.00">hpd_map_alloc</text>
</g>
<!-- Node2 -->
<g id="node2" class="node"><title>Node2</title>
<g id="a_node2"><a xlink:href="a00036.html#a64ce145f4bd2b212ac9494fb18b43615" target="_top" xlink:title="Create a new ws_request. ">
<polygon fill="none" stroke="black" points="133,-266.5 133,-285.5 236,-285.5 236,-266.5 133,-266.5"/>
<text text-anchor="middle" x="184.5" y="-273.5" font-family="Helvetica,sans-Serif" font-size="10.00">http_request_create</text>
</a>
</g>
</g>
<!-- Node1&#45;&gt;Node2 -->
<g id="edge1" class="edge"><title>Node1&#45;&gt;Node2</title>
<path fill="none" stroke="midnightblue" d="M55.4014,-198.884C69.2571,-216.163 92.4206,-241.88 118,-257 124.523,-260.856 131.879,-263.972 139.242,-266.476"/>
<polygon fill="midnightblue" stroke="midnightblue" points="57.9469,-196.456 49.0407,-190.717 52.4244,-200.757 57.9469,-196.456"/>
</g>
<!-- Node7 -->
<g id="node7" class="node"><title>Node7</title>
<g id="a_node7"><a xlink:href="a00011.html#a3c736bc96933454ab82040c3617275a3" target="_top" xlink:title="discovery_alloc_adapter">
<polygon fill="none" stroke="black" points="123.5,-228.5 123.5,-247.5 245.5,-247.5 245.5,-228.5 123.5,-228.5"/>
<text text-anchor="middle" x="184.5" y="-235.5" font-family="Helvetica,sans-Serif" font-size="10.00">discovery_alloc_adapter</text>
</a>
</g>
</g>
<!-- Node1&#45;&gt;Node7 -->
<g id="edge6" class="edge"><title>Node1&#45;&gt;Node7</title>
<path fill="none" stroke="midnightblue" d="M72.6475,-194.793C86.4319,-200.871 102.953,-207.983 118,-214 130.482,-218.992 144.454,-224.167 156.277,-228.428"/>
<polygon fill="midnightblue" stroke="midnightblue" points="73.7143,-191.437 63.1542,-190.58 70.8751,-197.836 73.7143,-191.437"/>
</g>
<!-- Node10 -->
<g id="node10" class="node"><title>Node10</title>
<g id="a_node10"><a xlink:href="a00011.html#a9f30460be089f53c8d995635aedc1097" target="_top" xlink:title="discovery_alloc_device">
<polygon fill="none" stroke="black" points="287,-190.5 287,-209.5 405,-209.5 405,-190.5 287,-190.5"/>
<text text-anchor="middle" x="346" y="-197.5" font-family="Helvetica,sans-Serif" font-size="10.00">discovery_alloc_device</text>
</a>
</g>
</g>
<!-- Node1&#45;&gt;Node10 -->
<g id="edge9" class="edge"><title>Node1&#45;&gt;Node10</title>
<path fill="none" stroke="midnightblue" d="M92.5237,-184.168C146.112,-187.528 230.646,-192.829 286.94,-196.359"/>
<polygon fill="midnightblue" stroke="midnightblue" points="92.4355,-180.656 82.2361,-183.523 91.9974,-187.642 92.4355,-180.656"/>
</g>
<!-- Node12 -->
<g id="node12" class="node"><title>Node12</title>
<g id="a_node12"><a xlink:href="a00011.html#a9ac69d02cab7b0cff5d24b6eed07ca8d" target="_top" xlink:title="discovery_alloc_service">
<polygon fill="none" stroke="black" points="124,-152.5 124,-171.5 245,-171.5 245,-152.5 124,-152.5"/>
<text text-anchor="middle" x="184.5" y="-159.5" font-family="Helvetica,sans-Serif" font-size="10.00">discovery_alloc_service</text>
</a>
</g>
</g>
<!-- Node1&#45;&gt;Node12 -->
<g id="edge12" class="edge"><title>Node1&#45;&gt;Node12</title>
<path fill="none" stroke="midnightblue" d="M92.1965,-174.26C102.47,-172.88 113.378,-171.416 123.943,-169.997"/>
<polygon fill="midnightblue" stroke="midnightblue" points="91.615,-170.806 82.1697,-175.606 92.5466,-177.744 91.615,-170.806"/>
</g>
<!-- Node14 -->
<g id="node14" class="node"><title>Node14</title>
<g id="a_node14"><a xlink:href="a00011.html#a3f84f32d27f7748c7fb9b0dbf24e4dc4" target="_top" xlink:title="discovery_alloc_parameter">
<polygon fill="none" stroke="black" points="118,-114.5 118,-133.5 251,-133.5 251,-114.5 118,-114.5"/>
<text text-anchor="middle" x="184.5" y="-121.5" font-family="Helvetica,sans-Serif" font-size="10.00">discovery_alloc_parameter</text>
</a>
</g>
</g>
<!-- Node1&#45;&gt;Node14 -->
<g id="edge15" class="edge"><title>Node1&#45;&gt;Node14</title>
<path fill="none" stroke="midnightblue" d="M67.6699,-166.704C82.1553,-159.012 100.758,-149.747 118,-143 126.931,-139.505 136.768,-136.32 146.043,-133.598"/>
<polygon fill="midnightblue" stroke="midnightblue" points="65.9397,-163.661 58.8013,-171.49 69.2639,-169.821 65.9397,-163.661"/>
</g>
<!-- Node16 -->
<g id="node16" class="node"><title>Node16</title>
<g id="a_node16"><a xlink:href="a00072.html#a9e0cbc30fcd2121d212f1995c8e834ba" target="_top" xlink:title="value_alloc">
<polygon fill="none" stroke="black" points="152,-76.5 152,-95.5 217,-95.5 217,-76.5 152,-76.5"/>
<text text-anchor="middle" x="184.5" y="-83.5" font-family="Helvetica,sans-Serif" font-size="10.00">value_alloc</text>
</a>
</g>
</g>
<!-- Node1&#45;&gt;Node16 -->
<g id="edge18" class="edge"><title>Node1&#45;&gt;Node16</title>
<path fill="none" stroke="midnightblue" d="M55.4014,-163.116C69.2571,-145.837 92.4206,-120.12 118,-105 128.295,-98.9147 140.662,-94.6736 151.863,-91.7688"/>
<polygon fill="midnightblue" stroke="midnightblue" points="52.4244,-161.243 49.0407,-171.283 57.9469,-165.544 52.4244,-161.243"/>
</g>
<!-- Node3 -->
<g id="node3" class="node"><title>Node3</title>
<g id="a_node3"><a xlink:href="a00015.html#acbf369331509bd9760bf346f6292376a" target="_top" xlink:title="Callback for tcpd library. ">
<polygon fill="none" stroke="black" points="312.5,-266.5 312.5,-285.5 379.5,-285.5 379.5,-266.5 312.5,-266.5"/>
<text text-anchor="middle" x="346" y="-273.5" font-family="Helvetica,sans-Serif" font-size="10.00">on_connect</text>
</a>
</g>
</g>
<!-- Node2&#45;&gt;Node3 -->
<g id="edge2" class="edge"><title>Node2&#45;&gt;Node3</title>
<path fill="none" stroke="midnightblue" d="M246.486,-276C268.805,-276 293.201,-276 312.133,-276"/>
<polygon fill="midnightblue" stroke="midnightblue" points="246.405,-272.5 236.405,-276 246.405,-279.5 246.405,-272.5"/>
</g>
<!-- Node4 -->
<g id="node4" class="node"><title>Node4</title>
<g id="a_node4"><a xlink:href="a00015.html#a8287f77cb41a94d39f282b607616df70" target="_top" xlink:title="Create a new httpd instance. ">
<polygon fill="none" stroke="black" points="442.5,-266.5 442.5,-285.5 534.5,-285.5 534.5,-266.5 442.5,-266.5"/>
<text text-anchor="middle" x="488.5" y="-273.5" font-family="Helvetica,sans-Serif" font-size="10.00">hpd_httpd_create</text>
</a>
</g>
</g>
<!-- Node3&#45;&gt;Node4 -->
<g id="edge3" class="edge"><title>Node3&#45;&gt;Node4</title>
<path fill="none" stroke="midnightblue" d="M389.604,-276C406.272,-276 425.411,-276 442.32,-276"/>
<polygon fill="midnightblue" stroke="midnightblue" points="389.587,-272.5 379.587,-276 389.587,-279.5 389.587,-272.5"/>
</g>
<!-- Node5 -->
<g id="node5" class="node"><title>Node5</title>
<g id="a_node5"><a xlink:href="a00034.html#a0ddf1224851353fc92bfbff6f499fa97" target="_top" xlink:title="main">
<polygon fill="none" stroke="black" points="601,-304.5 601,-323.5 639,-323.5 639,-304.5 601,-304.5"/>
<text text-anchor="middle" x="620" y="-311.5" font-family="Helvetica,sans-Serif" font-size="10.00">main</text>
</a>
</g>
</g>
<!-- Node4&#45;&gt;Node5 -->
<g id="edge4" class="edge"><title>Node4&#45;&gt;Node5</title>
<path fill="none" stroke="midnightblue" d="M531.861,-288.43C555.183,-295.274 582.925,-303.414 600.738,-308.641"/>
<polygon fill="midnightblue" stroke="midnightblue" points="532.759,-285.046 522.178,-285.589 530.788,-291.763 532.759,-285.046"/>
</g>
<!-- Node6 -->
<g id="node6" class="node"><title>Node6</title>
<g id="a_node6"><a xlink:href="a00025.html#a665691f420dff4eebb8f4b4af62d7a49" target="_top" xlink:title="on_start">
<polygon fill="none" stroke="black" points="594,-266.5 594,-285.5 646,-285.5 646,-266.5 594,-266.5"/>
<text text-anchor="middle" x="620" y="-273.5" font-family="Helvetica,sans-Serif" font-size="10.00">on_start</text>
</a>
</g>
</g>
<!-- Node4&#45;&gt;Node6 -->
<g id="edge5" class="edge"><title>Node4&#45;&gt;Node6</title>
<path fill="none" stroke="midnightblue" d="M545.217,-276C562.205,-276 580.038,-276 593.916,-276"/>
<polygon fill="midnightblue" stroke="midnightblue" points="544.793,-272.5 534.793,-276 544.793,-279.5 544.793,-272.5"/>
</g>
<!-- Node8 -->
<g id="node8" class="node"><title>Node8</title>
<g id="a_node8"><a xlink:href="a00060.html#aec51fa5c17a707a90a1634358ae1a9b4" target="_top" xlink:title="[hpd_adapter_t functions] ">
<polygon fill="none" stroke="black" points="441,-228.5 441,-247.5 536,-247.5 536,-228.5 441,-228.5"/>
<text text-anchor="middle" x="488.5" y="-235.5" font-family="Helvetica,sans-Serif" font-size="10.00">hpd_adapter_alloc</text>
</a>
</g>
</g>
<!-- Node7&#45;&gt;Node8 -->
<g id="edge7" class="edge"><title>Node7&#45;&gt;Node8</title>
<path fill="none" stroke="midnightblue" d="M255.548,-238C312.556,-238 391.42,-238 440.929,-238"/>
<polygon fill="midnightblue" stroke="midnightblue" points="255.527,-234.5 245.527,-238 255.527,-241.5 255.527,-234.5"/>
</g>
<!-- Node9 -->
<g id="node9" class="node"><title>Node9</title>
<g id="a_node9"><a xlink:href="a00012.html#a723fb54ea3963ea674c9830e41a40e00" target="_top" xlink:title="hpd_demo_adapter_start">
<polygon fill="none" stroke="black" points="704,-133.5 704,-152.5 828,-152.5 828,-133.5 704,-133.5"/>
<text text-anchor="middle" x="766" y="-140.5" font-family="Helvetica,sans-Serif" font-size="10.00">hpd_demo_adapter_start</text>
</a>
</g>
</g>
<!-- Node8&#45;&gt;Node9 -->
<g id="edge8" class="edge"><title>Node8&#45;&gt;Node9</title>
<path fill="none" stroke="midnightblue" d="M546.648,-239.851C582.674,-239.122 629.493,-234.619 668,-219 705.668,-203.722 740.854,-169.258 756.493,-152.503"/>
<polygon fill="midnightblue" stroke="midnightblue" points="546.275,-236.355 536.314,-239.964 546.351,-243.355 546.275,-236.355"/>
</g>
<!-- Node11 -->
<g id="node11" class="node"><title>Node11</title>
<g id="a_node11"><a xlink:href="a00060.html#a10a4b84cc7128e1900008dc1de4653a2" target="_top" xlink:title="A note on reusing IDs: An other module or remote client may have outstanding references to the old ID...">
<polygon fill="none" stroke="black" points="574,-190.5 574,-209.5 666,-209.5 666,-190.5 574,-190.5"/>
<text text-anchor="middle" x="620" y="-197.5" font-family="Helvetica,sans-Serif" font-size="10.00">hpd_device_alloc</text>
</a>
</g>
</g>
<!-- Node10&#45;&gt;Node11 -->
<g id="edge10" class="edge"><title>Node10&#45;&gt;Node11</title>
<path fill="none" stroke="midnightblue" d="M415.018,-200C464.583,-200 530.367,-200 573.653,-200"/>
<polygon fill="midnightblue" stroke="midnightblue" points="415.017,-196.5 405.017,-200 415.017,-203.5 415.017,-196.5"/>
</g>
<!-- Node11&#45;&gt;Node9 -->
<g id="edge11" class="edge"><title>Node11&#45;&gt;Node9</title>
<path fill="none" stroke="midnightblue" d="M654.703,-186.659C681.114,-176.205 717.221,-161.913 740.819,-152.572"/>
<polygon fill="midnightblue" stroke="midnightblue" points="653.112,-183.525 645.102,-190.459 655.689,-190.033 653.112,-183.525"/>
</g>
<!-- Node13 -->
<g id="node13" class="node"><title>Node13</title>
<g id="a_node13"><a xlink:href="a00060.html#ae265c33796304a96d8a0e670e61e7a3a" target="_top" xlink:title="[hpd_device_t functions] ">
<polygon fill="none" stroke="black" points="441,-152.5 441,-171.5 536,-171.5 536,-152.5 441,-152.5"/>
<text text-anchor="middle" x="488.5" y="-159.5" font-family="Helvetica,sans-Serif" font-size="10.00">hpd_service_alloc</text>
</a>
</g>
</g>
<!-- Node12&#45;&gt;Node13 -->
<g id="edge13" class="edge"><title>Node12&#45;&gt;Node13</title>
<path fill="none" stroke="midnightblue" d="M255.182,-162C312.174,-162 391.192,-162 440.814,-162"/>
<polygon fill="midnightblue" stroke="midnightblue" points="255.166,-158.5 245.165,-162 255.165,-165.5 255.166,-158.5"/>
</g>
<!-- Node13&#45;&gt;Node9 -->
<g id="edge14" class="edge"><title>Node13&#45;&gt;Node9</title>
<path fill="none" stroke="midnightblue" d="M546.316,-158.082C592.221,-154.916 656.709,-150.468 703.757,-147.224"/>
<polygon fill="midnightblue" stroke="midnightblue" points="545.97,-154.597 536.235,-158.777 546.452,-161.581 545.97,-154.597"/>
</g>
<!-- Node15 -->
<g id="node15" class="node"><title>Node15</title>
<g id="a_node15"><a xlink:href="a00060.html#a510d8b9b58d0cf4d661e7e433004ca10" target="_top" xlink:title="[hpd_service_t functions] ">
<polygon fill="none" stroke="black" points="292.5,-114.5 292.5,-133.5 399.5,-133.5 399.5,-114.5 292.5,-114.5"/>
<text text-anchor="middle" x="346" y="-121.5" font-family="Helvetica,sans-Serif" font-size="10.00">hpd_parameter_alloc</text>
</a>
</g>
</g>
<!-- Node14&#45;&gt;Node15 -->
<g id="edge16" class="edge"><title>Node14&#45;&gt;Node15</title>
<path fill="none" stroke="midnightblue" d="M261.347,-124C271.886,-124 282.515,-124 292.498,-124"/>
<polygon fill="midnightblue" stroke="midnightblue" points="261.296,-120.5 251.296,-124 261.296,-127.5 261.296,-120.5"/>
</g>
<!-- Node15&#45;&gt;Node9 -->
<g id="edge17" class="edge"><title>Node15&#45;&gt;Node9</title>
<path fill="none" stroke="midnightblue" d="M409.87,-126.858C489.349,-130.47 625.261,-136.648 703.894,-140.222"/>
<polygon fill="midnightblue" stroke="midnightblue" points="409.665,-123.345 399.517,-126.387 409.347,-130.338 409.665,-123.345"/>
</g>
<!-- Node17 -->
<g id="node17" class="node"><title>Node17</title>
<g id="a_node17"><a xlink:href="a00072.html#acb46c0254b5e6856197be334a0a058ad" target="_top" xlink:title="value_copy">
<polygon fill="none" stroke="black" points="313,-76.5 313,-95.5 379,-95.5 379,-76.5 313,-76.5"/>
<text text-anchor="middle" x="346" y="-83.5" font-family="Helvetica,sans-Serif" font-size="10.00">value_copy</text>
</a>
</g>
</g>
<!-- Node16&#45;&gt;Node17 -->
<g id="edge19" class="edge"><title>Node16&#45;&gt;Node17</title>
<path fill="none" stroke="midnightblue" d="M227.219,-86C253.937,-86 288.091,-86 312.733,-86"/>
<polygon fill="midnightblue" stroke="midnightblue" points="227.012,-82.5001 217.012,-86 227.012,-89.5001 227.012,-82.5001"/>
</g>
<!-- Node20 -->
<g id="node20" class="node"><title>Node20</title>
<g id="a_node20"><a xlink:href="a00073.html#a344d7fd8e951958c7ce52209d60f2ccf" target="_top" xlink:title="[Browsing foreach loops] ">
<polygon fill="none" stroke="black" points="303,-38.5 303,-57.5 389,-57.5 389,-38.5 303,-38.5"/>
<text text-anchor="middle" x="346" y="-45.5" font-family="Helvetica,sans-Serif" font-size="10.00">hpd_value_alloc</text>
</a>
</g>
</g>
<!-- Node16&#45;&gt;Node20 -->
<g id="edge23" class="edge"><title>Node16&#45;&gt;Node20</title>
<path fill="none" stroke="midnightblue" d="M226.924,-76.1309C251.012,-70.3922 281.219,-63.1954 305.05,-57.5178"/>
<polygon fill="midnightblue" stroke="midnightblue" points="225.929,-72.7701 217.012,-78.4924 227.551,-79.5795 225.929,-72.7701"/>
</g>
<!-- Node18 -->
<g id="node18" class="node"><title>Node18</title>
<g id="a_node18"><a xlink:href="a00073.html#a8b5be61f356ac1d72634654e16794610" target="_top" xlink:title="hpd_value_copy">
<polygon fill="none" stroke="black" points="445,-76.5 445,-95.5 532,-95.5 532,-76.5 445,-76.5"/>
<text text-anchor="middle" x="488.5" y="-83.5" font-family="Helvetica,sans-Serif" font-size="10.00">hpd_value_copy</text>
</a>
</g>
</g>
<!-- Node17&#45;&gt;Node18 -->
<g id="edge20" class="edge"><title>Node17&#45;&gt;Node18</title>
<path fill="none" stroke="midnightblue" d="M389.704,-86C407.157,-86 427.305,-86 444.761,-86"/>
<polygon fill="midnightblue" stroke="midnightblue" points="389.234,-82.5001 379.234,-86 389.234,-89.5001 389.234,-82.5001"/>
</g>
<!-- Node19 -->
<g id="node19" class="node"><title>Node19</title>
<g id="a_node19"><a xlink:href="a00012.html#abd3f7d3d11402e13ef30d122ce9c8516" target="_top" xlink:title="hpd_demo_on_put">
<polygon fill="none" stroke="black" points="572,-76.5 572,-95.5 668,-95.5 668,-76.5 572,-76.5"/>
<text text-anchor="middle" x="620" y="-83.5" font-family="Helvetica,sans-Serif" font-size="10.00">hpd_demo_on_put</text>
</a>
</g>
</g>
<!-- Node18&#45;&gt;Node19 -->
<g id="edge21" class="edge"><title>Node18&#45;&gt;Node19</title>
<path fill="none" stroke="midnightblue" d="M542.278,-86C552.058,-86 562.215,-86 571.815,-86"/>
<polygon fill="midnightblue" stroke="midnightblue" points="542.262,-82.5001 532.262,-86 542.262,-89.5001 542.262,-82.5001"/>
</g>
<!-- Node19&#45;&gt;Node9 -->
<g id="edge22" class="edge"><title>Node19&#45;&gt;Node9</title>
<path fill="none" stroke="midnightblue" d="M654.703,-99.3409C681.114,-109.795 717.221,-124.087 740.819,-133.428"/>
<polygon fill="midnightblue" stroke="midnightblue" points="655.689,-95.9667 645.102,-95.5405 653.112,-102.475 655.689,-95.9667"/>
</g>
<!-- Node21 -->
<g id="node21" class="node"><title>Node21</title>
<g id="a_node21"><a xlink:href="a00012.html#ab9d884c8b98aaa2f2d23e6884afdeffe" target="_top" xlink:title="hpd_demo_on_get">
<polygon fill="none" stroke="black" points="572,-38.5 572,-57.5 668,-57.5 668,-38.5 572,-38.5"/>
<text text-anchor="middle" x="620" y="-45.5" font-family="Helvetica,sans-Serif" font-size="10.00">hpd_demo_on_get</text>
</a>
</g>
</g>
<!-- Node20&#45;&gt;Node21 -->
<g id="edge24" class="edge"><title>Node20&#45;&gt;Node21</title>
<path fill="none" stroke="midnightblue" d="M399.449,-48C449.294,-48 523.585,-48 571.667,-48"/>
<polygon fill="midnightblue" stroke="midnightblue" points="399.202,-44.5001 389.202,-48 399.202,-51.5001 399.202,-44.5001"/>
</g>
<!-- Node22 -->
<g id="node22" class="node"><title>Node22</title>
<g id="a_node22"><a xlink:href="a00025.html#a74ba52adbe4c46e9a9c33649e3b75243" target="_top" xlink:title="on_req_cmpl">
<polygon fill="none" stroke="black" points="452.5,-0.5 452.5,-19.5 524.5,-19.5 524.5,-0.5 452.5,-0.5"/>
<text text-anchor="middle" x="488.5" y="-7.5" font-family="Helvetica,sans-Serif" font-size="10.00">on_req_cmpl</text>
</a>
</g>
</g>
<!-- Node20&#45;&gt;Node22 -->
<g id="edge26" class="edge"><title>Node20&#45;&gt;Node22</title>
<path fill="none" stroke="midnightblue" d="M392.279,-35.7538C411.645,-30.516 433.922,-24.4909 452.057,-19.5859"/>
<polygon fill="midnightblue" stroke="midnightblue" points="391.193,-32.4215 382.454,-38.411 393.021,-39.1787 391.193,-32.4215"/>
</g>
<!-- Node21&#45;&gt;Node9 -->
<g id="edge25" class="edge"><title>Node21&#45;&gt;Node9</title>
<path fill="none" stroke="midnightblue" d="M657.788,-61.6951C661.304,-63.3525 664.762,-65.1272 668,-67 702.26,-86.8161 737.66,-117.681 754.661,-133.278"/>
<polygon fill="midnightblue" stroke="midnightblue" points="659.02,-58.4135 648.457,-57.5945 656.204,-64.822 659.02,-58.4135"/>
</g>
<!-- Node23 -->
<g id="node23" class="node"><title>Node23</title>
<g id="a_node23"><a xlink:href="a00025.html#ad079431c7eba97c5dd5e4e202cdf6102" target="_top" xlink:title="on_create">
<polygon fill="none" stroke="black" points="590.5,-0.5 590.5,-19.5 649.5,-19.5 649.5,-0.5 590.5,-0.5"/>
<text text-anchor="middle" x="620" y="-7.5" font-family="Helvetica,sans-Serif" font-size="10.00">on_create</text>
</a>
</g>
</g>
<!-- Node22&#45;&gt;Node23 -->
<g id="edge27" class="edge"><title>Node22&#45;&gt;Node23</title>
<path fill="none" stroke="midnightblue" d="M534.569,-10C553.135,-10 574.086,-10 590.473,-10"/>
<polygon fill="midnightblue" stroke="midnightblue" points="534.545,-6.5001 524.545,-10 534.545,-13.5001 534.545,-6.5001"/>
</g>
</g>
</svg>
        <g id="navigator" transform="translate(0 0)" fill="#404254">
                <rect fill="#f2f5e9" fill-opacity="0.5" stroke="#606060" stroke-width=".5" x="0" y="0" width="60" height="60"/>
                <use id="zoomplus" xlink:href="#zoomPlus" x="17" y="9" onmousedown="handleZoom(evt,'in')"/>
                <use id="zoomminus" xlink:href="#zoomMin" x="42" y="9" onmousedown="handleZoom(evt,'out')"/>
                <use id="reset" xlink:href="#resetDef" x="30" y="36" onmousedown="handleReset()"/>
                <g id="arrowUp" xlink:href="#dirArrow" transform="translate(30 24)" onmousedown="handlePan(0,-1)">
                  <use xlink:href="#rim" fill="#404040">
                        <set attributeName="fill" to="#808080" begin="arrowUp.mouseover" end="arrowUp.mouseout"/>
                  </use>
                  <path fill="none" stroke="white" stroke-width="1.5" d="M0,-3.0v7 M-2.5,-0.5L0,-3.0L2.5,-0.5"/>
                </g>
                <g id="arrowRight" xlink:href="#dirArrow" transform="rotate(90) translate(36 -43)" onmousedown="handlePan(1,0)">
                  <use xlink:href="#rim" fill="#404040">
                        <set attributeName="fill" to="#808080" begin="arrowRight.mouseover" end="arrowRight.mouseout"/>
                  </use>
                  <path fill="none" stroke="white" stroke-width="1.5" d="M0,-3.0v7 M-2.5,-0.5L0,-3.0L2.5,-0.5"/>
                </g>
                <g id="arrowDown" xlink:href="#dirArrow" transform="rotate(180) translate(-30 -48)" onmousedown="handlePan(0,1)">
                  <use xlink:href="#rim" fill="#404040">
                        <set attributeName="fill" to="#808080" begin="arrowDown.mouseover" end="arrowDown.mouseout"/>
                  </use>
                  <path fill="none" stroke="white" stroke-width="1.5" d="M0,-3.0v7 M-2.5,-0.5L0,-3.0L2.5,-0.5"/>
                </g>
                <g id="arrowLeft" xlink:href="#dirArrow" transform="rotate(270) translate(-36 17)" onmousedown="handlePan(-1,0)">
                  <use xlink:href="#rim" fill="#404040">
                        <set attributeName="fill" to="#808080" begin="arrowLeft.mouseover" end="arrowLeft.mouseout"/>
                  </use>
                  <path fill="none" stroke="white" stroke-width="1.5" d="M0,-3.0v7 M-2.5,-0.5L0,-3.0L2.5,-0.5"/>
                </g>
        </g>
        <svg viewBox="0 0 15 15" width="100%" height="30px" preserveAspectRatio="xMaxYMin meet">
         <g id="arrow_out" transform="scale(0.3 0.3)">
          <a xlink:href="a00042_a8d23b888fb4bb3f951c7d48f1928ee9a_icgraph_org.svg" target="_base">
           <rect id="button" ry="5" rx="5" y="6" x="6" height="38" width="38"
                fill="#f2f5e9" fill-opacity="0.5" stroke="#606060" stroke-width="1.0"/>
           <path id="arrow"
             d="M 11.500037,31.436501 C 11.940474,20.09759 22.043105,11.32322 32.158766,21.979434 L 37.068811,17.246167 C 37.068811,17.246167 37.088388,32 37.088388,32 L 22.160133,31.978069 C 22.160133,31.978069 26.997745,27.140456 26.997745,27.140456 C 18.528582,18.264221 13.291696,25.230495 11.500037,31.436501 z"
             style="fill:#404040;"/>
          </a>
         </g>
        </svg>
</svg>
