<?xml version="1.0" encoding="UTF-8" standalone="no"?>
<!DOCTYPE svg PUBLIC "-//W3C//DTD SVG 1.1//EN"
 "http://www.w3.org/Graphics/SVG/1.1/DTD/svg11.dtd">
<!-- Generated by graphviz version 2.38.0 (20140413.2041)
 -->
<!-- Title: hpd_value_free Pages: 1 -->
<svg width="1065pt" height="66pt"
 viewBox="0.00 0.00 1065.00 66.00" xmlns="http://www.w3.org/2000/svg" xmlns:xlink="http://www.w3.org/1999/xlink">
<g id="graph0" class="graph" transform="scale(1 1) rotate(0) translate(4 62)">
<title>hpd_value_free</title>
<!-- Node1 -->
<g id="node1" class="node"><title>Node1</title>
<polygon fill="#bfbfbf" stroke="black" points="0,-19.5 0,-38.5 83,-38.5 83,-19.5 0,-19.5"/>
<text text-anchor="middle" x="41.5" y="-26.5" font-family="Helvetica,sans-Serif" font-size="10.00">hpd_value_free</text>
</g>
<!-- Node2 -->
<g id="node2" class="node"><title>Node2</title>
<g id="a_node2"><a xlink:href="a00013.html#a1d3cd6fde2598f29c88786537becfbb3" target="_top" xlink:title="[definition] ">
<polygon fill="none" stroke="black" points="301,-38.5 301,-57.5 434,-57.5 434,-38.5 301,-38.5"/>
<text text-anchor="middle" x="367.5" y="-45.5" font-family="Helvetica,sans-Serif" font-size="10.00">demo_adapter_send_value</text>
</a>
</g>
</g>
<!-- Node1&#45;&gt;Node2 -->
<g id="edge1" class="edge"><title>Node1&#45;&gt;Node2</title>
<path fill="none" stroke="midnightblue" d="M93.2403,-31.9755C149.189,-35.2564 239.387,-40.5459 300.723,-44.1427"/>
<polygon fill="midnightblue" stroke="midnightblue" points="93.3945,-28.4786 83.2068,-31.3871 92.9847,-35.4666 93.3945,-28.4786"/>
</g>
<!-- Node8 -->
<g id="node8" class="node"><title>Node8</title>
<g id="a_node8"><a xlink:href="a00013.html#adbf1665143a378afa8da1fa998518b3d" target="_top" xlink:title="[send] ">
<polygon fill="none" stroke="black" points="119,-0.5 119,-19.5 265,-19.5 265,-0.5 119,-0.5"/>
<text text-anchor="middle" x="192" y="-7.5" font-family="Helvetica,sans-Serif" font-size="10.00">demo_adapter_send_changed</text>
</a>
</g>
</g>
<!-- Node1&#45;&gt;Node8 -->
<g id="edge8" class="edge"><title>Node1&#45;&gt;Node8</title>
<path fill="none" stroke="midnightblue" d="M93.2449,-22.5074C101.48,-21.4537 110.146,-20.3449 118.776,-19.2408"/>
<polygon fill="midnightblue" stroke="midnightblue" points="92.5532,-19.0673 83.0783,-23.8082 93.4416,-26.0107 92.5532,-19.0673"/>
</g>
<!-- Node3 -->
<g id="node3" class="node"><title>Node3</title>
<g id="a_node3"><a xlink:href="a00013.html#ad12964278a8b6998fccbae23e084a8a7" target="_top" xlink:title="[set] ">
<polygon fill="none" stroke="black" points="470,-38.5 470,-57.5 583,-57.5 583,-38.5 470,-38.5"/>
<text text-anchor="middle" x="526.5" y="-45.5" font-family="Helvetica,sans-Serif" font-size="10.00">demo_adapter_on_get</text>
</a>
</g>
</g>
<!-- Node2&#45;&gt;Node3 -->
<g id="edge2" class="edge"><title>Node2&#45;&gt;Node3</title>
<path fill="none" stroke="midnightblue" d="M444.446,-48C452.907,-48 461.407,-48 469.553,-48"/>
<polygon fill="midnightblue" stroke="midnightblue" points="444.172,-44.5001 434.172,-48 444.172,-51.5001 444.172,-44.5001"/>
</g>
<!-- Node7 -->
<g id="node7" class="node"><title>Node7</title>
<g id="a_node7"><a xlink:href="a00013.html#a00981c2b16f03b852495746fb9ecb2c9" target="_top" xlink:title="[on_get] ">
<polygon fill="none" stroke="black" points="470,-0.5 470,-19.5 583,-19.5 583,-0.5 470,-0.5"/>
<text text-anchor="middle" x="526.5" y="-7.5" font-family="Helvetica,sans-Serif" font-size="10.00">demo_adapter_on_put</text>
</a>
</g>
</g>
<!-- Node2&#45;&gt;Node7 -->
<g id="edge6" class="edge"><title>Node2&#45;&gt;Node7</title>
<path fill="none" stroke="midnightblue" d="M417.947,-36.032C439.948,-30.7069 465.494,-24.5238 486.167,-19.5201"/>
<polygon fill="midnightblue" stroke="midnightblue" points="417.014,-32.6567 408.118,-38.411 418.66,-39.4602 417.014,-32.6567"/>
</g>
<!-- Node4 -->
<g id="node4" class="node"><title>Node4</title>
<g id="a_node4"><a xlink:href="a00013.html#aca3f96055b6405843c652ef5efd1c3e8" target="_top" xlink:title="[create_parameter] ">
<polygon fill="none" stroke="black" points="619,-14 619,-44 729,-44 729,-14 619,-14"/>
<text text-anchor="start" x="627" y="-32" font-family="Helvetica,sans-Serif" font-size="10.00">demo_adapter_create</text>
<text text-anchor="middle" x="674" y="-21" font-family="Helvetica,sans-Serif" font-size="10.00">_service</text>
</a>
</g>
</g>
<!-- Node3&#45;&gt;Node4 -->
<g id="edge3" class="edge"><title>Node3&#45;&gt;Node4</title>
<path fill="none" stroke="midnightblue" d="M593.328,-39.4039C601.913,-38.2828 610.628,-37.1447 618.989,-36.053"/>
<polygon fill="midnightblue" stroke="midnightblue" points="592.801,-35.943 583.338,-40.7084 593.707,-42.884 592.801,-35.943"/>
</g>
<!-- Node5 -->
<g id="node5" class="node"><title>Node5</title>
<g id="a_node5"><a xlink:href="a00013.html#abfc239c18fce4bcc601e14074ddfabf8" target="_top" xlink:title="[create_service] ">
<polygon fill="none" stroke="black" points="765,-19.5 765,-38.5 902,-38.5 902,-19.5 765,-19.5"/>
<text text-anchor="middle" x="833.5" y="-26.5" font-family="Helvetica,sans-Serif" font-size="10.00">demo_adapter_create_lamp</text>
</a>
</g>
</g>
<!-- Node4&#45;&gt;Node5 -->
<g id="edge4" class="edge"><title>Node4&#45;&gt;Node5</title>
<path fill="none" stroke="midnightblue" d="M739.324,-29C747.736,-29 756.375,-29 764.84,-29"/>
<polygon fill="midnightblue" stroke="midnightblue" points="739.203,-25.5001 729.203,-29 739.203,-32.5001 739.203,-25.5001"/>
</g>
<!-- Node6 -->
<g id="node6" class="node"><title>Node6</title>
<g id="a_node6"><a xlink:href="a00013.html#a9f84d5de2ac16bde89480bd48efdff51" target="_top" xlink:title="[create_lamp] ">
<polygon fill="none" stroke="black" points="938,-19.5 938,-38.5 1057,-38.5 1057,-19.5 938,-19.5"/>
<text text-anchor="middle" x="997.5" y="-26.5" font-family="Helvetica,sans-Serif" font-size="10.00">demo_adapter_on_start</text>
</a>
</g>
</g>
<!-- Node5&#45;&gt;Node6 -->
<g id="edge5" class="edge"><title>Node5&#45;&gt;Node6</title>
<path fill="none" stroke="midnightblue" d="M912.281,-29C920.853,-29 929.473,-29 937.757,-29"/>
<polygon fill="midnightblue" stroke="midnightblue" points="912.264,-25.5001 902.264,-29 912.264,-32.5001 912.264,-25.5001"/>
</g>
<!-- Node7&#45;&gt;Node4 -->
<g id="edge7" class="edge"><title>Node7&#45;&gt;Node4</title>
<path fill="none" stroke="midnightblue" d="M593.328,-18.5961C601.913,-19.7172 610.628,-20.8553 618.989,-21.947"/>
<polygon fill="midnightblue" stroke="midnightblue" points="593.707,-15.116 583.338,-17.2916 592.801,-22.057 593.707,-15.116"/>
</g>
<!-- Node9 -->
<g id="node9" class="node"><title>Node9</title>
<g id="a_node9"><a xlink:href="a00013.html#ace98565eb7d2f6a302873024f672b95f" target="_top" xlink:title="[changed] ">
<polygon fill="none" stroke="black" points="305,-0.5 305,-19.5 430,-19.5 430,-0.5 305,-0.5"/>
<text text-anchor="middle" x="367.5" y="-7.5" font-family="Helvetica,sans-Serif" font-size="10.00">demo_adapter_set_value</text>
</a>
</g>
</g>
<!-- Node8&#45;&gt;Node9 -->
<g id="edge9" class="edge"><title>Node8&#45;&gt;Node9</title>
<path fill="none" stroke="midnightblue" d="M275.369,-10C285.298,-10 295.303,-10 304.863,-10"/>
<polygon fill="midnightblue" stroke="midnightblue" points="275.072,-6.5001 265.072,-10 275.072,-13.5001 275.072,-6.5001"/>
</g>
<!-- Node9&#45;&gt;Node7 -->
<g id="edge10" class="edge"><title>Node9&#45;&gt;Node7</title>
<path fill="none" stroke="midnightblue" d="M440.371,-10C450.303,-10 460.377,-10 469.952,-10"/>
<polygon fill="midnightblue" stroke="midnightblue" points="440.1,-6.5001 430.1,-10 440.1,-13.5001 440.1,-6.5001"/>
</g>
</g>
</svg>
