<?xml version="1.0" encoding="UTF-8" standalone="no"?>
<!DOCTYPE svg PUBLIC "-//W3C//DTD SVG 1.1//EN"
 "http://www.w3.org/Graphics/SVG/1.1/DTD/svg11.dtd">
<!-- Generated by graphviz version 2.38.0 (20140413.2041)
 -->
<!-- Title: rest_reply_unsupported_media_type Pages: 1 -->
<!--zoomable 78 -->
<svg id="main" version="1.1" xmlns="http://www.w3.org/2000/svg" xmlns:xlink="http://www.w3.org/1999/xlink" xml:space="preserve" onload="init(evt)">
<style type="text/css"><![CDATA[
.edge:hover path { stroke: red; }
.edge:hover polygon { stroke: red; fill: red; }
]]></style>
<script type="text/javascript"><![CDATA[
var edges = document.getElementsByTagName('g');
if (edges && edges.length) {
  for (var i=0;i<edges.length;i++) {
    if (edges[i].id.substr(0,4)=='edge') {
      edges[i].setAttribute('class','edge');
    }
  }
}
]]></script>
        <defs>
                <circle id="rim" cx="0" cy="0" r="7"/>
                <circle id="rim2" cx="0" cy="0" r="3.5"/>
                <g id="zoomPlus">
                        <use xlink:href="#rim" fill="#404040">
                                <set attributeName="fill" to="#808080" begin="zoomplus.mouseover" end="zoomplus.mouseout"/>
                        </use>
                        <path d="M-4,0h8M0,-4v8" fill="none" stroke="white" stroke-width="1.5" pointer-events="none"/>
                </g>
                <g id="zoomMin">
                        <use xlink:href="#rim" fill="#404040">
                                <set attributeName="fill" to="#808080" begin="zoomminus.mouseover" end="zoomminus.mouseout"/>
                        </use>
                        <path d="M-4,0h8" fill="none" stroke="white" stroke-width="1.5" pointer-events="none"/>
                </g>
                <g id="dirArrow">
                        <path fill="none" stroke="white" stroke-width="1.5" d="M0,-3.0v7 M-2.5,-0.5L0,-3.0L2.5,-0.5"/>
                </g>
               <g id="resetDef">
                       <use xlink:href="#rim2" fill="#404040">
                               <set attributeName="fill" to="#808080" begin="reset.mouseover" end="reset.mouseout"/>
                       </use>
               </g>
        </defs>

<script type="text/javascript">
var viewWidth = 526;
var viewHeight = 78;
var sectionId = 'dynsection-42';
</script>
<script xlink:href="svgpan.js"/>
<svg id="graph" class="graph">
<g id="viewport">
<title>rest_reply_unsupported_media_type</title>
<!-- Node1 -->
<g id="node1" class="node"><title>Node1</title>
<polygon fill="#bfbfbf" stroke="black" points="0,-7.30955 0,-37.3096 118,-37.3096 118,-7.30955 0,-7.30955"/>
<text text-anchor="start" x="8" y="-25.3096" font-family="Helvetica,sans-Serif" font-size="10.00">rest_reply_unsupported</text>
<text text-anchor="middle" x="59" y="-14.3096" font-family="Helvetica,sans-Serif" font-size="10.00">_media_type</text>
</g>
<!-- Node2 -->
<g id="node2" class="node"><title>Node2</title>
<g id="a_node2"><a xlink:href="a00034.html#ac0f2724b4617f1adb53492f1a57a4e4b" target="_top" xlink:title="rest_reply_devices">
<polygon fill="none" stroke="black" points="154,-50.8096 154,-69.8096 252,-69.8096 252,-50.8096 154,-50.8096"/>
<text text-anchor="middle" x="203" y="-57.8096" font-family="Helvetica,sans-Serif" font-size="10.00">rest_reply_devices</text>
</a>
</g>
</g>
<!-- Node1&#45;&gt;Node2 -->
<g id="edge1" class="edge"><title>Node1&#45;&gt;Node2</title>
<path fill="none" stroke="midnightblue" d="M126.129,-40.006C139.973,-43.7109 154.066,-47.4821 166.288,-50.7527"/>
<polygon fill="midnightblue" stroke="midnightblue" points="126.687,-36.5323 116.122,-37.3282 124.877,-43.2944 126.687,-36.5323"/>
</g>
<!-- Node5 -->
<g id="node5" class="node"><title>Node5</title>
<g id="a_node5"><a xlink:href="a00034.html#abddef3c3a26e983041c0a09be164cb1b" target="_top" xlink:title="rest_on_response">
<polygon fill="none" stroke="black" points="156,-12.8096 156,-31.8096 250,-31.8096 250,-12.8096 156,-12.8096"/>
<text text-anchor="middle" x="203" y="-19.8096" font-family="Helvetica,sans-Serif" font-size="10.00">rest_on_response</text>
</a>
</g>
</g>
<!-- Node1&#45;&gt;Node5 -->
<g id="edge4" class="edge"><title>Node1&#45;&gt;Node5</title>
<path fill="none" stroke="midnightblue" d="M128.263,-22.3096C137.618,-22.3096 147.038,-22.3096 155.869,-22.3096"/>
<polygon fill="midnightblue" stroke="midnightblue" points="128.167,-18.8096 118.167,-22.3096 128.167,-25.8096 128.167,-18.8096"/>
</g>
<!-- Node6 -->
<g id="node6" class="node"><title>Node6</title>
<g id="a_node6"><a xlink:href="a00034.html#a1ef7ff8e866ae31ab0edb443eb4777a1" target="_top" xlink:title="rest_on_req_cmpl">
<polygon fill="none" stroke="black" points="297.5,-12.8096 297.5,-31.8096 391.5,-31.8096 391.5,-12.8096 297.5,-12.8096"/>
<text text-anchor="middle" x="344.5" y="-19.8096" font-family="Helvetica,sans-Serif" font-size="10.00">rest_on_req_cmpl</text>
</a>
</g>
</g>
<!-- Node1&#45;&gt;Node6 -->
<g id="edge7" class="edge"><title>Node1&#45;&gt;Node6</title>
<path fill="none" stroke="midnightblue" d="M128.208,-6.86902C136.851,-5.40127 145.605,-4.14946 154,-3.30955 197.339,1.02663 208.672,1.14146 252,-3.30955 270.076,-5.16649 289.849,-9.03533 306.375,-12.8002"/>
<polygon fill="midnightblue" stroke="midnightblue" points="127.365,-3.46451 118.142,-8.67947 128.604,-10.354 127.365,-3.46451"/>
</g>
<!-- Node3 -->
<g id="node3" class="node"><title>Node3</title>
<g id="a_node3"><a xlink:href="a00034.html#a2731aca6e6807e771bcf9c94dbec968c" target="_top" xlink:title="rest_on_req_hdr_cmpl">
<polygon fill="none" stroke="black" points="288,-50.8096 288,-69.8096 401,-69.8096 401,-50.8096 288,-50.8096"/>
<text text-anchor="middle" x="344.5" y="-57.8096" font-family="Helvetica,sans-Serif" font-size="10.00">rest_on_req_hdr_cmpl</text>
</a>
</g>
</g>
<!-- Node2&#45;&gt;Node3 -->
<g id="edge2" class="edge"><title>Node2&#45;&gt;Node3</title>
<path fill="none" stroke="midnightblue" d="M262.172,-60.3096C270.627,-60.3096 279.317,-60.3096 287.724,-60.3096"/>
<polygon fill="midnightblue" stroke="midnightblue" points="262.008,-56.8096 252.008,-60.3096 262.008,-63.8096 262.008,-56.8096"/>
</g>
<!-- Node4 -->
<g id="node4" class="node"><title>Node4</title>
<g id="a_node4"><a xlink:href="a00034.html#a02090c3feb19ea4c6e1fa9b5e6392752" target="_top" xlink:title="rest_on_create">
<polygon fill="none" stroke="black" points="437,-31.8096 437,-50.8096 518,-50.8096 518,-31.8096 437,-31.8096"/>
<text text-anchor="middle" x="477.5" y="-38.8096" font-family="Helvetica,sans-Serif" font-size="10.00">rest_on_create</text>
</a>
</g>
</g>
<!-- Node3&#45;&gt;Node4 -->
<g id="edge3" class="edge"><title>Node3&#45;&gt;Node4</title>
<path fill="none" stroke="midnightblue" d="M410.963,-50.8149C419.769,-49.5378 428.575,-48.2605 436.746,-47.0755"/>
<polygon fill="midnightblue" stroke="midnightblue" points="410.45,-47.3526 401.056,-52.2518 411.455,-54.2801 410.45,-47.3526"/>
</g>
<!-- Node5&#45;&gt;Node6 -->
<g id="edge5" class="edge"><title>Node5&#45;&gt;Node6</title>
<path fill="none" stroke="midnightblue" d="M260.274,-22.3096C272.635,-22.3096 285.583,-22.3096 297.484,-22.3096"/>
<polygon fill="midnightblue" stroke="midnightblue" points="260.064,-18.8096 250.064,-22.3096 260.064,-25.8096 260.064,-18.8096"/>
</g>
<!-- Node6&#45;&gt;Node4 -->
<g id="edge6" class="edge"><title>Node6&#45;&gt;Node4</title>
<path fill="none" stroke="midnightblue" d="M401.881,-30.4869C413.644,-32.193 425.807,-33.9571 436.812,-35.5533"/>
<polygon fill="midnightblue" stroke="midnightblue" points="402.085,-26.9799 391.686,-29.0082 401.08,-33.9074 402.085,-26.9799"/>
</g>
</g>
</svg>
        <g id="navigator" transform="translate(0 0)" fill="#404254">
                <rect fill="#f2f5e9" fill-opacity="0.5" stroke="#606060" stroke-width=".5" x="0" y="0" width="60" height="60"/>
                <use id="zoomplus" xlink:href="#zoomPlus" x="17" y="9" onmousedown="handleZoom(evt,'in')"/>
                <use id="zoomminus" xlink:href="#zoomMin" x="42" y="9" onmousedown="handleZoom(evt,'out')"/>
                <use id="reset" xlink:href="#resetDef" x="30" y="36" onmousedown="handleReset()"/>
                <g id="arrowUp" xlink:href="#dirArrow" transform="translate(30 24)" onmousedown="handlePan(0,-1)">
                  <use xlink:href="#rim" fill="#404040">
                        <set attributeName="fill" to="#808080" begin="arrowUp.mouseover" end="arrowUp.mouseout"/>
                  </use>
                  <path fill="none" stroke="white" stroke-width="1.5" d="M0,-3.0v7 M-2.5,-0.5L0,-3.0L2.5,-0.5"/>
                </g>
                <g id="arrowRight" xlink:href="#dirArrow" transform="rotate(90) translate(36 -43)" onmousedown="handlePan(1,0)">
                  <use xlink:href="#rim" fill="#404040">
                        <set attributeName="fill" to="#808080" begin="arrowRight.mouseover" end="arrowRight.mouseout"/>
                  </use>
                  <path fill="none" stroke="white" stroke-width="1.5" d="M0,-3.0v7 M-2.5,-0.5L0,-3.0L2.5,-0.5"/>
                </g>
                <g id="arrowDown" xlink:href="#dirArrow" transform="rotate(180) translate(-30 -48)" onmousedown="handlePan(0,1)">
                  <use xlink:href="#rim" fill="#404040">
                        <set attributeName="fill" to="#808080" begin="arrowDown.mouseover" end="arrowDown.mouseout"/>
                  </use>
                  <path fill="none" stroke="white" stroke-width="1.5" d="M0,-3.0v7 M-2.5,-0.5L0,-3.0L2.5,-0.5"/>
                </g>
                <g id="arrowLeft" xlink:href="#dirArrow" transform="rotate(270) translate(-36 17)" onmousedown="handlePan(-1,0)">
                  <use xlink:href="#rim" fill="#404040">
                        <set attributeName="fill" to="#808080" begin="arrowLeft.mouseover" end="arrowLeft.mouseout"/>
                  </use>
                  <path fill="none" stroke="white" stroke-width="1.5" d="M0,-3.0v7 M-2.5,-0.5L0,-3.0L2.5,-0.5"/>
                </g>
        </g>
        <svg viewBox="0 0 15 15" width="100%" height="30px" preserveAspectRatio="xMaxYMin meet">
         <g id="arrow_out" transform="scale(0.3 0.3)">
          <a xlink:href="a00034_a463d2bdadd3f81404991033401807537_icgraph_org.svg" target="_base">
           <rect id="button" ry="5" rx="5" y="6" x="6" height="38" width="38"
                fill="#f2f5e9" fill-opacity="0.5" stroke="#606060" stroke-width="1.0"/>
           <path id="arrow"
             d="M 11.500037,31.436501 C 11.940474,20.09759 22.043105,11.32322 32.158766,21.979434 L 37.068811,17.246167 C 37.068811,17.246167 37.088388,32 37.088388,32 L 22.160133,31.978069 C 22.160133,31.978069 26.997745,27.140456 26.997745,27.140456 C 18.528582,18.264221 13.291696,25.230495 11.500037,31.436501 z"
             style="fill:#404040;"/>
          </a>
         </g>
        </svg>
</svg>
