<?xml version="1.0" encoding="UTF-8" standalone="no"?>
<!DOCTYPE svg PUBLIC "-//W3C//DTD SVG 1.1//EN"
 "http://www.w3.org/Graphics/SVG/1.1/DTD/svg11.dtd">
<!-- Generated by graphviz version 2.38.0 (20140413.2041)
 -->
<!-- Title: request_get_response_status Pages: 1 -->
<svg width="662pt" height="39pt"
 viewBox="0.00 0.00 662.00 39.00" xmlns="http://www.w3.org/2000/svg" xmlns:xlink="http://www.w3.org/1999/xlink">
<g id="graph0" class="graph" transform="scale(1 1) rotate(0) translate(4 35)">
<title>request_get_response_status</title>
<!-- Node1 -->
<g id="node1" class="node"><title>Node1</title>
<polygon fill="#bfbfbf" stroke="black" points="0,-0.5 0,-30.5 113,-30.5 113,-0.5 0,-0.5"/>
<text text-anchor="start" x="8" y="-18.5" font-family="Helvetica,sans-Serif" font-size="10.00">request_get_response</text>
<text text-anchor="middle" x="56.5" y="-7.5" font-family="Helvetica,sans-Serif" font-size="10.00">_status</text>
</g>
<!-- Node2 -->
<g id="node2" class="node"><title>Node2</title>
<g id="a_node2"><a xlink:href="a00089.html#a1769890612720a141ca4b8e46e6841f9" target="_top" xlink:title="[hpd_request_t functions] ">
<polygon fill="none" stroke="black" points="149,-6 149,-25 277,-25 277,-6 149,-6"/>
<text text-anchor="middle" x="213" y="-13" font-family="Helvetica,sans-Serif" font-size="10.00">hpd_response_get_status</text>
</a>
</g>
</g>
<!-- Node1&#45;&gt;Node2 -->
<g id="edge1" class="edge"><title>Node1&#45;&gt;Node2</title>
<path fill="none" stroke="midnightblue" d="M123.469,-15.5C131.922,-15.5 140.559,-15.5 148.964,-15.5"/>
<polygon fill="midnightblue" stroke="midnightblue" points="123.278,-12.0001 113.278,-15.5 123.278,-19.0001 123.278,-12.0001"/>
</g>
<!-- Node3 -->
<g id="node3" class="node"><title>Node3</title>
<g id="a_node3"><a xlink:href="a00034.html#abddef3c3a26e983041c0a09be164cb1b" target="_top" xlink:title="rest_on_response">
<polygon fill="none" stroke="black" points="313,-6 313,-25 407,-25 407,-6 313,-6"/>
<text text-anchor="middle" x="360" y="-13" font-family="Helvetica,sans-Serif" font-size="10.00">rest_on_response</text>
</a>
</g>
</g>
<!-- Node2&#45;&gt;Node3 -->
<g id="edge2" class="edge"><title>Node2&#45;&gt;Node3</title>
<path fill="none" stroke="midnightblue" d="M287.274,-15.5C295.895,-15.5 304.5,-15.5 312.604,-15.5"/>
<polygon fill="midnightblue" stroke="midnightblue" points="287.177,-12.0001 277.177,-15.5 287.177,-19.0001 287.177,-12.0001"/>
</g>
<!-- Node4 -->
<g id="node4" class="node"><title>Node4</title>
<g id="a_node4"><a xlink:href="a00034.html#a1ef7ff8e866ae31ab0edb443eb4777a1" target="_top" xlink:title="rest_on_req_cmpl">
<polygon fill="none" stroke="black" points="443,-6 443,-25 537,-25 537,-6 443,-6"/>
<text text-anchor="middle" x="490" y="-13" font-family="Helvetica,sans-Serif" font-size="10.00">rest_on_req_cmpl</text>
</a>
</g>
</g>
<!-- Node3&#45;&gt;Node4 -->
<g id="edge3" class="edge"><title>Node3&#45;&gt;Node4</title>
<path fill="none" stroke="midnightblue" d="M417.442,-15.5C425.937,-15.5 434.612,-15.5 442.857,-15.5"/>
<polygon fill="midnightblue" stroke="midnightblue" points="417.211,-12.0001 407.211,-15.5 417.211,-19.0001 417.211,-12.0001"/>
</g>
<!-- Node5 -->
<g id="node5" class="node"><title>Node5</title>
<g id="a_node5"><a xlink:href="a00034.html#a02090c3feb19ea4c6e1fa9b5e6392752" target="_top" xlink:title="rest_on_create">
<polygon fill="none" stroke="black" points="573,-6 573,-25 654,-25 654,-6 573,-6"/>
<text text-anchor="middle" x="613.5" y="-13" font-family="Helvetica,sans-Serif" font-size="10.00">rest_on_create</text>
</a>
</g>
</g>
<!-- Node4&#45;&gt;Node5 -->
<g id="edge4" class="edge"><title>Node4&#45;&gt;Node5</title>
<path fill="none" stroke="midnightblue" d="M547.544,-15.5C556.04,-15.5 564.646,-15.5 572.694,-15.5"/>
<polygon fill="midnightblue" stroke="midnightblue" points="547.281,-12.0001 537.281,-15.5 547.281,-19.0001 547.281,-12.0001"/>
</g>
</g>
</svg>
