<?xml version="1.0" encoding="UTF-8" standalone="no"?>
<!DOCTYPE svg PUBLIC "-//W3C//DTD SVG 1.1//EN"
 "http://www.w3.org/Graphics/SVG/1.1/DTD/svg11.dtd">
<!-- Generated by graphviz version 2.38.0 (20140413.2041)
 -->
<!-- Title: discovery_get_service_attrs_v Pages: 1 -->
<svg width="403pt" height="39pt"
 viewBox="0.00 0.00 403.00 39.00" xmlns="http://www.w3.org/2000/svg" xmlns:xlink="http://www.w3.org/1999/xlink">
<g id="graph0" class="graph" transform="scale(1 1) rotate(0) translate(4 35)">
<title>discovery_get_service_attrs_v</title>
<!-- Node1 -->
<g id="node1" class="node"><title>Node1</title>
<polygon fill="#bfbfbf" stroke="black" points="0,-0.5 0,-30.5 114,-30.5 114,-0.5 0,-0.5"/>
<text text-anchor="start" x="8" y="-18.5" font-family="Helvetica,sans-Serif" font-size="10.00">discovery_get_service</text>
<text text-anchor="middle" x="57" y="-7.5" font-family="Helvetica,sans-Serif" font-size="10.00">_attrs_v</text>
</g>
<!-- Node2 -->
<g id="node2" class="node"><title>Node2</title>
<g id="a_node2"><a xlink:href="a00059.html#a32f648bc0efcc6b73952e72fc1085124" target="_top" xlink:title="discovery_get_service_attr">
<polygon fill="none" stroke="black" points="150,-6 150,-25 284,-25 284,-6 150,-6"/>
<text text-anchor="middle" x="217" y="-13" font-family="Helvetica,sans-Serif" font-size="10.00">discovery_get_service_attr</text>
</a>
</g>
</g>
<!-- Node1&#45;&gt;Node2 -->
<g id="edge1" class="edge"><title>Node1&#45;&gt;Node2</title>
<path fill="none" stroke="midnightblue" d="M114.15,-15.5C122.438,-15.5 131.092,-15.5 139.704,-15.5"/>
<polygon fill="midnightblue" stroke="midnightblue" points="139.77,-19.0001 149.77,-15.5 139.77,-12.0001 139.77,-19.0001"/>
</g>
<!-- Node3 -->
<g id="node3" class="node"><title>Node3</title>
<g id="a_node3"><a xlink:href="a00042.html#a3eb33be000f845d28ec16639f235ceb2" target="_top" xlink:title="hpd_map_get">
<polygon fill="none" stroke="black" points="320,-6 320,-25 395,-25 395,-6 320,-6"/>
<text text-anchor="middle" x="357.5" y="-13" font-family="Helvetica,sans-Serif" font-size="10.00">hpd_map_get</text>
</a>
</g>
</g>
<!-- Node2&#45;&gt;Node3 -->
<g id="edge2" class="edge"><title>Node2&#45;&gt;Node3</title>
<path fill="none" stroke="midnightblue" d="M284.005,-15.5C292.627,-15.5 301.316,-15.5 309.536,-15.5"/>
<polygon fill="midnightblue" stroke="midnightblue" points="309.657,-19.0001 319.657,-15.5 309.657,-12.0001 309.657,-19.0001"/>
</g>
</g>
</svg>
