<?xml version="1.0" encoding="UTF-8" standalone="no"?>
<!DOCTYPE svg PUBLIC "-//W3C//DTD SVG 1.1//EN"
 "http://www.w3.org/Graphics/SVG/1.1/DTD/svg11.dtd">
<!-- Generated by graphviz version 2.38.0 (20140413.2041)
 -->
<!-- Title: hpd_next_device Pages: 1 -->
<svg width="378pt" height="154pt"
 viewBox="0.00 0.00 378.00 154.00" xmlns="http://www.w3.org/2000/svg" xmlns:xlink="http://www.w3.org/1999/xlink">
<g id="graph0" class="graph" transform="scale(1 1) rotate(0) translate(4 150)">
<title>hpd_next_device</title>
<!-- Node1 -->
<g id="node1" class="node"><title>Node1</title>
<polygon fill="#bfbfbf" stroke="black" points="0,-60.5 0,-79.5 90,-79.5 90,-60.5 0,-60.5"/>
<text text-anchor="middle" x="45" y="-67.5" font-family="Helvetica,sans-Serif" font-size="10.00">hpd_next_device</text>
</g>
<!-- Node2 -->
<g id="node2" class="node"><title>Node2</title>
<g id="a_node2"><a xlink:href="a00020.html#af178de2e51304e31fefe0ae13d2481ab" target="_top" xlink:title="discovery_find_device">
<polygon fill="none" stroke="black" points="126,-126.5 126,-145.5 239,-145.5 239,-126.5 126,-126.5"/>
<text text-anchor="middle" x="182.5" y="-133.5" font-family="Helvetica,sans-Serif" font-size="10.00">discovery_find_device</text>
</a>
</g>
</g>
<!-- Node1&#45;&gt;Node2 -->
<g id="edge1" class="edge"><title>Node1&#45;&gt;Node2</title>
<path fill="none" stroke="midnightblue" d="M60.2683,-79.5757C75.9127,-89.787 101.993,-105.975 126,-117 130.625,-119.124 135.558,-121.142 140.505,-123.016"/>
<polygon fill="midnightblue" stroke="midnightblue" points="139.359,-126.323 149.953,-126.43 141.737,-119.74 139.359,-126.323"/>
</g>
<!-- Node3 -->
<g id="node3" class="node"><title>Node3</title>
<g id="a_node3"><a xlink:href="a00078.html#ae668e2125b1bc2cdf3f4c2e648cea648" target="_top" xlink:title="discovery_next_hpd\l_device">
<polygon fill="none" stroke="black" points="130.5,-77 130.5,-107 234.5,-107 234.5,-77 130.5,-77"/>
<text text-anchor="start" x="138.5" y="-95" font-family="Helvetica,sans-Serif" font-size="10.00">discovery_next_hpd</text>
<text text-anchor="middle" x="182.5" y="-84" font-family="Helvetica,sans-Serif" font-size="10.00">_device</text>
</a>
</g>
</g>
<!-- Node1&#45;&gt;Node3 -->
<g id="edge2" class="edge"><title>Node1&#45;&gt;Node3</title>
<path fill="none" stroke="midnightblue" d="M90.3678,-77.2036C99.977,-78.7638 110.302,-80.4401 120.425,-82.0838"/>
<polygon fill="midnightblue" stroke="midnightblue" points="120.017,-85.5632 130.448,-83.7112 121.138,-78.6537 120.017,-85.5632"/>
</g>
<!-- Node4 -->
<g id="node4" class="node"><title>Node4</title>
<g id="a_node4"><a xlink:href="a00020.html#ae1a000b225c8b3f365c2cec8362b8483" target="_top" xlink:title="discovery_free_did">
<polygon fill="none" stroke="black" points="133.5,-38.5 133.5,-57.5 231.5,-57.5 231.5,-38.5 133.5,-38.5"/>
<text text-anchor="middle" x="182.5" y="-45.5" font-family="Helvetica,sans-Serif" font-size="10.00">discovery_free_did</text>
</a>
</g>
</g>
<!-- Node1&#45;&gt;Node4 -->
<g id="edge3" class="edge"><title>Node1&#45;&gt;Node4</title>
<path fill="none" stroke="midnightblue" d="M90.3678,-62.7964C100.886,-61.0886 112.262,-59.2416 123.293,-57.4506"/>
<polygon fill="midnightblue" stroke="midnightblue" points="123.983,-60.8845 133.293,-55.827 122.861,-53.975 123.983,-60.8845"/>
</g>
<!-- Node6 -->
<g id="node6" class="node"><title>Node6</title>
<g id="a_node6"><a xlink:href="a00020.html#acd5e8c2bf3e761abc7e2fd2294238a74" target="_top" xlink:title="HPD_E_ALLOC: id might be partially updated. ">
<polygon fill="none" stroke="black" points="135,-0.5 135,-19.5 230,-19.5 230,-0.5 135,-0.5"/>
<text text-anchor="middle" x="182.5" y="-7.5" font-family="Helvetica,sans-Serif" font-size="10.00">discovery_set_did</text>
</a>
</g>
</g>
<!-- Node1&#45;&gt;Node6 -->
<g id="edge5" class="edge"><title>Node1&#45;&gt;Node6</title>
<path fill="none" stroke="midnightblue" d="M62.8267,-60.4769C78.7866,-51.6619 103.592,-38.5194 126,-29 130.855,-26.9374 136.018,-24.9316 141.165,-23.0441"/>
<polygon fill="midnightblue" stroke="midnightblue" points="142.699,-26.2137 150.958,-19.5763 140.363,-19.6151 142.699,-26.2137"/>
</g>
<!-- Node5 -->
<g id="node5" class="node"><title>Node5</title>
<g id="a_node5"><a xlink:href="a00012.html#adf46370d9c211c3be22966b4606ba9b0" target="_top" xlink:title="free">
<polygon fill="none" stroke="black" points="306,-38.5 306,-57.5 339,-57.5 339,-38.5 306,-38.5"/>
<text text-anchor="middle" x="322.5" y="-45.5" font-family="Helvetica,sans-Serif" font-size="10.00">free</text>
</a>
</g>
</g>
<!-- Node4&#45;&gt;Node5 -->
<g id="edge4" class="edge"><title>Node4&#45;&gt;Node5</title>
<path fill="none" stroke="midnightblue" d="M231.766,-48C253.264,-48 277.723,-48 295.669,-48"/>
<polygon fill="midnightblue" stroke="midnightblue" points="295.917,-51.5001 305.917,-48 295.917,-44.5001 295.917,-51.5001"/>
</g>
<!-- Node7 -->
<g id="node7" class="node"><title>Node7</title>
<g id="a_node7"><a xlink:href="a00080.html#af2f553cfc3af4678b87a8fc75f35a5c6" target="_top" xlink:title="HPD_E_ALLOC: id might be partially updated. ">
<polygon fill="none" stroke="black" points="275,-0.5 275,-19.5 370,-19.5 370,-0.5 275,-0.5"/>
<text text-anchor="middle" x="322.5" y="-7.5" font-family="Helvetica,sans-Serif" font-size="10.00">discovery_set_aid</text>
</a>
</g>
</g>
<!-- Node6&#45;&gt;Node7 -->
<g id="edge6" class="edge"><title>Node6&#45;&gt;Node7</title>
<path fill="none" stroke="midnightblue" d="M230.221,-10C241.236,-10 253.1,-10 264.512,-10"/>
<polygon fill="midnightblue" stroke="midnightblue" points="264.828,-13.5001 274.828,-10 264.828,-6.5001 264.828,-13.5001"/>
</g>
</g>
</svg>
