<?xml version="1.0" encoding="UTF-8" standalone="no"?>
<!DOCTYPE svg PUBLIC "-//W3C//DTD SVG 1.1//EN"
 "http://www.w3.org/Graphics/SVG/1.1/DTD/svg11.dtd">
<!-- Generated by graphviz version 2.38.0 (20140413.2041)
 -->
<!-- Title: event_inform_adapter_detached Pages: 1 -->
<svg width="664pt" height="180pt"
 viewBox="0.00 0.00 664.00 180.00" xmlns="http://www.w3.org/2000/svg" xmlns:xlink="http://www.w3.org/1999/xlink">
<g id="graph0" class="graph" transform="scale(1 1) rotate(0) translate(4 176)">
<title>event_inform_adapter_detached</title>
<!-- Node1 -->
<g id="node1" class="node"><title>Node1</title>
<polygon fill="#bfbfbf" stroke="black" points="0,-71 0,-101 110,-101 110,-71 0,-71"/>
<text text-anchor="start" x="8" y="-89" font-family="Helvetica,sans-Serif" font-size="10.00">event_inform_adapter</text>
<text text-anchor="middle" x="55" y="-78" font-family="Helvetica,sans-Serif" font-size="10.00">_detached</text>
</g>
<!-- Node2 -->
<g id="node2" class="node"><title>Node2</title>
<g id="a_node2"><a xlink:href="a00081.html#a38f3fa1f45b7832adcbdd3f1af2bd9a4" target="_top" xlink:title="event_inform_device\l_detached">
<polygon fill="none" stroke="black" points="146,-71 146,-101 253,-101 253,-71 146,-71"/>
<text text-anchor="start" x="154" y="-89" font-family="Helvetica,sans-Serif" font-size="10.00">event_inform_device</text>
<text text-anchor="middle" x="199.5" y="-78" font-family="Helvetica,sans-Serif" font-size="10.00">_detached</text>
</a>
</g>
</g>
<!-- Node1&#45;&gt;Node2 -->
<g id="edge1" class="edge"><title>Node1&#45;&gt;Node2</title>
<path fill="none" stroke="midnightblue" d="M110.28,-86C118.555,-86 127.156,-86 135.597,-86"/>
<polygon fill="midnightblue" stroke="midnightblue" points="135.783,-89.5001 145.783,-86 135.783,-82.5001 135.783,-89.5001"/>
</g>
<!-- Node3 -->
<g id="node3" class="node"><title>Node3</title>
<g id="a_node3"><a xlink:href="a00020.html#aebd10ac1c18be51340c39d6d5a54e6d1" target="_top" xlink:title="discovery_alloc_did">
<polygon fill="none" stroke="black" points="289,-114.5 289,-133.5 391,-133.5 391,-114.5 289,-114.5"/>
<text text-anchor="middle" x="340" y="-121.5" font-family="Helvetica,sans-Serif" font-size="10.00">discovery_alloc_did</text>
</a>
</g>
</g>
<!-- Node2&#45;&gt;Node3 -->
<g id="edge2" class="edge"><title>Node2&#45;&gt;Node3</title>
<path fill="none" stroke="midnightblue" d="M253.256,-100.475C266.78,-104.185 281.194,-108.14 294.27,-111.727"/>
<polygon fill="midnightblue" stroke="midnightblue" points="293.401,-115.118 303.971,-114.389 295.253,-108.368 293.401,-115.118"/>
</g>
<!-- Node7 -->
<g id="node7" class="node"><title>Node7</title>
<g id="a_node7"><a xlink:href="a00012.html#adf46370d9c211c3be22966b4606ba9b0" target="_top" xlink:title="free">
<polygon fill="none" stroke="black" points="592,-57.5 592,-76.5 625,-76.5 625,-57.5 592,-57.5"/>
<text text-anchor="middle" x="608.5" y="-64.5" font-family="Helvetica,sans-Serif" font-size="10.00">free</text>
</a>
</g>
</g>
<!-- Node2&#45;&gt;Node7 -->
<g id="edge11" class="edge"><title>Node2&#45;&gt;Node7</title>
<path fill="none" stroke="midnightblue" d="M253.052,-83.6072C317.23,-80.6768 429.092,-75.5417 525,-71 543.97,-70.1017 565.392,-69.0623 581.652,-68.2682"/>
<polygon fill="midnightblue" stroke="midnightblue" points="582.174,-71.747 591.991,-67.7624 581.832,-64.7553 582.174,-71.747"/>
</g>
<!-- Node8 -->
<g id="node8" class="node"><title>Node8</title>
<g id="a_node8"><a xlink:href="a00081.html#a6c353799b446d7c8d3008308c01a3f33" target="_top" xlink:title="event_on_detached">
<polygon fill="none" stroke="black" points="289.5,-38.5 289.5,-57.5 390.5,-57.5 390.5,-38.5 289.5,-38.5"/>
<text text-anchor="middle" x="340" y="-45.5" font-family="Helvetica,sans-Serif" font-size="10.00">event_on_detached</text>
</a>
</g>
</g>
<!-- Node2&#45;&gt;Node8 -->
<g id="edge7" class="edge"><title>Node2&#45;&gt;Node8</title>
<path fill="none" stroke="midnightblue" d="M253.256,-71.5254C266.78,-67.815 281.194,-63.86 294.27,-60.2725"/>
<polygon fill="midnightblue" stroke="midnightblue" points="295.253,-63.6321 303.971,-57.6109 293.401,-56.8816 295.253,-63.6321"/>
</g>
<!-- Node4 -->
<g id="node4" class="node"><title>Node4</title>
<g id="a_node4"><a xlink:href="a00080.html#acd5e8c2bf3e761abc7e2fd2294238a74" target="_top" xlink:title="HPD_E_ALLOC: id might be partially updated. ">
<polygon fill="none" stroke="black" points="428.5,-152.5 428.5,-171.5 523.5,-171.5 523.5,-152.5 428.5,-152.5"/>
<text text-anchor="middle" x="476" y="-159.5" font-family="Helvetica,sans-Serif" font-size="10.00">discovery_set_did</text>
</a>
</g>
</g>
<!-- Node3&#45;&gt;Node4 -->
<g id="edge3" class="edge"><title>Node3&#45;&gt;Node4</title>
<path fill="none" stroke="midnightblue" d="M374.814,-133.589C392.033,-138.472 413.164,-144.464 431.573,-149.685"/>
<polygon fill="midnightblue" stroke="midnightblue" points="430.621,-153.053 441.197,-152.414 432.531,-146.319 430.621,-153.053"/>
</g>
<!-- Node6 -->
<g id="node6" class="node"><title>Node6</title>
<g id="a_node6"><a xlink:href="a00080.html#ae1a000b225c8b3f365c2cec8362b8483" target="_top" xlink:title="discovery_free_did">
<polygon fill="none" stroke="black" points="427,-114.5 427,-133.5 525,-133.5 525,-114.5 427,-114.5"/>
<text text-anchor="middle" x="476" y="-121.5" font-family="Helvetica,sans-Serif" font-size="10.00">discovery_free_did</text>
</a>
</g>
</g>
<!-- Node3&#45;&gt;Node6 -->
<g id="edge5" class="edge"><title>Node3&#45;&gt;Node6</title>
<path fill="none" stroke="midnightblue" d="M391.278,-124C399.514,-124 408.111,-124 416.525,-124"/>
<polygon fill="midnightblue" stroke="midnightblue" points="416.661,-127.5 426.661,-124 416.661,-120.5 416.661,-127.5"/>
</g>
<!-- Node5 -->
<g id="node5" class="node"><title>Node5</title>
<g id="a_node5"><a xlink:href="a00080.html#af2f553cfc3af4678b87a8fc75f35a5c6" target="_top" xlink:title="HPD_E_ALLOC: id might be partially updated. ">
<polygon fill="none" stroke="black" points="561,-152.5 561,-171.5 656,-171.5 656,-152.5 561,-152.5"/>
<text text-anchor="middle" x="608.5" y="-159.5" font-family="Helvetica,sans-Serif" font-size="10.00">discovery_set_aid</text>
</a>
</g>
</g>
<!-- Node4&#45;&gt;Node5 -->
<g id="edge4" class="edge"><title>Node4&#45;&gt;Node5</title>
<path fill="none" stroke="midnightblue" d="M523.745,-162C532.459,-162 541.654,-162 550.634,-162"/>
<polygon fill="midnightblue" stroke="midnightblue" points="550.643,-165.5 560.643,-162 550.643,-158.5 550.643,-165.5"/>
</g>
<!-- Node6&#45;&gt;Node7 -->
<g id="edge6" class="edge"><title>Node6&#45;&gt;Node7</title>
<path fill="none" stroke="midnightblue" d="M498.843,-114.459C521.928,-104.376 558.281,-88.4979 582.498,-77.9206"/>
<polygon fill="midnightblue" stroke="midnightblue" points="583.986,-81.0896 591.75,-73.8795 581.185,-74.6748 583.986,-81.0896"/>
</g>
<!-- Node8&#45;&gt;Node7 -->
<g id="edge8" class="edge"><title>Node8&#45;&gt;Node7</title>
<path fill="none" stroke="midnightblue" d="M390.502,-51.5292C447.119,-55.5657 537.658,-62.0207 581.726,-65.1624"/>
<polygon fill="midnightblue" stroke="midnightblue" points="581.656,-68.6662 591.879,-65.8863 582.154,-61.684 581.656,-68.6662"/>
</g>
<!-- Node9 -->
<g id="node9" class="node"><title>Node9</title>
<g id="a_node9"><a xlink:href="a00020.html#ae1a000b225c8b3f365c2cec8362b8483" target="_top" xlink:title="discovery_free_did">
<polygon fill="none" stroke="black" points="427,-0.5 427,-19.5 525,-19.5 525,-0.5 427,-0.5"/>
<text text-anchor="middle" x="476" y="-7.5" font-family="Helvetica,sans-Serif" font-size="10.00">discovery_free_did</text>
</a>
</g>
</g>
<!-- Node8&#45;&gt;Node9 -->
<g id="edge9" class="edge"><title>Node8&#45;&gt;Node9</title>
<path fill="none" stroke="midnightblue" d="M374.814,-38.411C392.033,-33.5281 413.164,-27.5357 431.573,-22.315"/>
<polygon fill="midnightblue" stroke="midnightblue" points="432.531,-25.6815 441.197,-19.5859 430.621,-18.947 432.531,-25.6815"/>
</g>
<!-- Node9&#45;&gt;Node7 -->
<g id="edge10" class="edge"><title>Node9&#45;&gt;Node7</title>
<path fill="none" stroke="midnightblue" d="M498.843,-19.5405C521.928,-29.6239 558.281,-45.5021 582.498,-56.0794"/>
<polygon fill="midnightblue" stroke="midnightblue" points="581.185,-59.3252 591.75,-60.1205 583.986,-52.9104 581.185,-59.3252"/>
</g>
</g>
</svg>
