<?xml version="1.0" encoding="UTF-8" standalone="no"?>
<!DOCTYPE svg PUBLIC "-//W3C//DTD SVG 1.1//EN"
 "http://www.w3.org/Graphics/SVG/1.1/DTD/svg11.dtd">
<!-- Generated by graphviz version 2.38.0 (20140413.2041)
 -->
<!-- Title: init_libcurl Pages: 1 -->
<svg width="335pt" height="28pt"
 viewBox="0.00 0.00 335.00 28.00" xmlns="http://www.w3.org/2000/svg" xmlns:xlink="http://www.w3.org/1999/xlink">
<g id="graph0" class="graph" transform="scale(1 1) rotate(0) translate(4 24)">
<title>init_libcurl</title>
<!-- Node1 -->
<g id="node1" class="node"><title>Node1</title>
<polygon fill="#bfbfbf" stroke="black" points="0,-0.5 0,-19.5 60,-19.5 60,-0.5 0,-0.5"/>
<text text-anchor="middle" x="30" y="-7.5" font-family="Helvetica,sans-Serif" font-size="10.00">init_libcurl</text>
</g>
<!-- Node2 -->
<g id="node2" class="node"><title>Node2</title>
<g id="a_node2"><a xlink:href="a00040.html#a8eeb8848cf93f86bd7b674b721100f2e" target="_top" xlink:title="init_tests">
<polygon fill="none" stroke="black" points="96,-0.5 96,-19.5 152,-19.5 152,-0.5 96,-0.5"/>
<text text-anchor="middle" x="124" y="-7.5" font-family="Helvetica,sans-Serif" font-size="10.00">init_tests</text>
</a>
</g>
</g>
<!-- Node1&#45;&gt;Node2 -->
<g id="edge1" class="edge"><title>Node1&#45;&gt;Node2</title>
<path fill="none" stroke="midnightblue" d="M70.3859,-10C79.0081,-10 87.947,-10 95.9566,-10"/>
<polygon fill="midnightblue" stroke="midnightblue" points="70.1094,-6.5001 60.1094,-10 70.1093,-13.5001 70.1094,-6.5001"/>
</g>
<!-- Node3 -->
<g id="node3" class="node"><title>Node3</title>
<g id="a_node3"><a xlink:href="a00040.html#aca68378f576a44735a13cce291603838" target="_top" xlink:title="test_thread">
<polygon fill="none" stroke="black" points="188,-0.5 188,-19.5 253,-19.5 253,-0.5 188,-0.5"/>
<text text-anchor="middle" x="220.5" y="-7.5" font-family="Helvetica,sans-Serif" font-size="10.00">test_thread</text>
</a>
</g>
</g>
<!-- Node2&#45;&gt;Node3 -->
<g id="edge2" class="edge"><title>Node2&#45;&gt;Node3</title>
<path fill="none" stroke="midnightblue" d="M162.111,-10C170.584,-10 179.514,-10 187.739,-10"/>
<polygon fill="midnightblue" stroke="midnightblue" points="162.08,-6.5001 152.08,-10 162.08,-13.5001 162.08,-6.5001"/>
</g>
<!-- Node4 -->
<g id="node4" class="node"><title>Node4</title>
<g id="a_node4"><a xlink:href="a00040.html#a0ddf1224851353fc92bfbff6f499fa97" target="_top" xlink:title="main">
<polygon fill="none" stroke="black" points="289,-0.5 289,-19.5 327,-19.5 327,-0.5 289,-0.5"/>
<text text-anchor="middle" x="308" y="-7.5" font-family="Helvetica,sans-Serif" font-size="10.00">main</text>
</a>
</g>
</g>
<!-- Node3&#45;&gt;Node4 -->
<g id="edge3" class="edge"><title>Node3&#45;&gt;Node4</title>
<path fill="none" stroke="midnightblue" d="M263.342,-10C272.298,-10 281.307,-10 288.796,-10"/>
<polygon fill="midnightblue" stroke="midnightblue" points="263.337,-6.5001 253.337,-10 263.337,-13.5001 263.337,-6.5001"/>
</g>
</g>
</svg>
