<?xml version="1.0" encoding="UTF-8" standalone="no"?>
<!DOCTYPE svg PUBLIC "-//W3C//DTD SVG 1.1//EN"
 "http://www.w3.org/Graphics/SVG/1.1/DTD/svg11.dtd">
<!-- Generated by graphviz version 2.38.0 (20140413.2041)
 -->
<!-- Title: event_changed Pages: 1 -->
<svg width="1167pt" height="39pt"
 viewBox="0.00 0.00 1167.00 39.00" xmlns="http://www.w3.org/2000/svg" xmlns:xlink="http://www.w3.org/1999/xlink">
<g id="graph0" class="graph" transform="scale(1 1) rotate(0) translate(4 35)">
<title>event_changed</title>
<!-- Node1 -->
<g id="node1" class="node"><title>Node1</title>
<polygon fill="#bfbfbf" stroke="black" points="0,-6 0,-25 83,-25 83,-6 0,-6"/>
<text text-anchor="middle" x="41.5" y="-13" font-family="Helvetica,sans-Serif" font-size="10.00">event_changed</text>
</g>
<!-- Node2 -->
<g id="node2" class="node"><title>Node2</title>
<g id="a_node2"><a xlink:href="a00083.html#a07a10b83cf5554e81e5d80d0dfbe7215" target="_top" xlink:title="[hpd_response_t functions] ">
<polygon fill="none" stroke="black" points="119,-6 119,-25 193,-25 193,-6 119,-6"/>
<text text-anchor="middle" x="156" y="-13" font-family="Helvetica,sans-Serif" font-size="10.00">hpd_changed</text>
</a>
</g>
</g>
<!-- Node1&#45;&gt;Node2 -->
<g id="edge1" class="edge"><title>Node1&#45;&gt;Node2</title>
<path fill="none" stroke="midnightblue" d="M93.1751,-15.5C101.858,-15.5 110.719,-15.5 118.921,-15.5"/>
<polygon fill="midnightblue" stroke="midnightblue" points="93.1151,-12.0001 83.1151,-15.5 93.115,-19.0001 93.1151,-12.0001"/>
</g>
<!-- Node3 -->
<g id="node3" class="node"><title>Node3</title>
<g id="a_node3"><a xlink:href="a00013.html#adbf1665143a378afa8da1fa998518b3d" target="_top" xlink:title="[send] ">
<polygon fill="none" stroke="black" points="229,-6 229,-25 375,-25 375,-6 229,-6"/>
<text text-anchor="middle" x="302" y="-13" font-family="Helvetica,sans-Serif" font-size="10.00">demo_adapter_send_changed</text>
</a>
</g>
</g>
<!-- Node2&#45;&gt;Node3 -->
<g id="edge2" class="edge"><title>Node2&#45;&gt;Node3</title>
<path fill="none" stroke="midnightblue" d="M203.599,-15.5C211.648,-15.5 220.183,-15.5 228.723,-15.5"/>
<polygon fill="midnightblue" stroke="midnightblue" points="203.337,-12.0001 193.337,-15.5 203.337,-19.0001 203.337,-12.0001"/>
</g>
<!-- Node4 -->
<g id="node4" class="node"><title>Node4</title>
<g id="a_node4"><a xlink:href="a00013.html#ace98565eb7d2f6a302873024f672b95f" target="_top" xlink:title="[changed] ">
<polygon fill="none" stroke="black" points="411,-6 411,-25 536,-25 536,-6 411,-6"/>
<text text-anchor="middle" x="473.5" y="-13" font-family="Helvetica,sans-Serif" font-size="10.00">demo_adapter_set_value</text>
</a>
</g>
</g>
<!-- Node3&#45;&gt;Node4 -->
<g id="edge3" class="edge"><title>Node3&#45;&gt;Node4</title>
<path fill="none" stroke="midnightblue" d="M385.377,-15.5C393.928,-15.5 402.511,-15.5 410.777,-15.5"/>
<polygon fill="midnightblue" stroke="midnightblue" points="385.375,-12.0001 375.375,-15.5 385.375,-19.0001 385.375,-12.0001"/>
</g>
<!-- Node5 -->
<g id="node5" class="node"><title>Node5</title>
<g id="a_node5"><a xlink:href="a00013.html#a00981c2b16f03b852495746fb9ecb2c9" target="_top" xlink:title="[on_get] ">
<polygon fill="none" stroke="black" points="572,-6 572,-25 685,-25 685,-6 572,-6"/>
<text text-anchor="middle" x="628.5" y="-13" font-family="Helvetica,sans-Serif" font-size="10.00">demo_adapter_on_put</text>
</a>
</g>
</g>
<!-- Node4&#45;&gt;Node5 -->
<g id="edge4" class="edge"><title>Node4&#45;&gt;Node5</title>
<path fill="none" stroke="midnightblue" d="M546.315,-15.5C554.909,-15.5 563.581,-15.5 571.897,-15.5"/>
<polygon fill="midnightblue" stroke="midnightblue" points="546.29,-12.0001 536.29,-15.5 546.29,-19.0001 546.29,-12.0001"/>
</g>
<!-- Node6 -->
<g id="node6" class="node"><title>Node6</title>
<g id="a_node6"><a xlink:href="a00013.html#aca3f96055b6405843c652ef5efd1c3e8" target="_top" xlink:title="[create_parameter] ">
<polygon fill="none" stroke="black" points="721,-0.5 721,-30.5 831,-30.5 831,-0.5 721,-0.5"/>
<text text-anchor="start" x="729" y="-18.5" font-family="Helvetica,sans-Serif" font-size="10.00">demo_adapter_create</text>
<text text-anchor="middle" x="776" y="-7.5" font-family="Helvetica,sans-Serif" font-size="10.00">_service</text>
</a>
</g>
</g>
<!-- Node5&#45;&gt;Node6 -->
<g id="edge5" class="edge"><title>Node5&#45;&gt;Node6</title>
<path fill="none" stroke="midnightblue" d="M695.608,-15.5C704.103,-15.5 712.719,-15.5 720.989,-15.5"/>
<polygon fill="midnightblue" stroke="midnightblue" points="695.338,-12.0001 685.338,-15.5 695.338,-19.0001 695.338,-12.0001"/>
</g>
<!-- Node7 -->
<g id="node7" class="node"><title>Node7</title>
<g id="a_node7"><a xlink:href="a00013.html#abfc239c18fce4bcc601e14074ddfabf8" target="_top" xlink:title="[create_service] ">
<polygon fill="none" stroke="black" points="867,-6 867,-25 1004,-25 1004,-6 867,-6"/>
<text text-anchor="middle" x="935.5" y="-13" font-family="Helvetica,sans-Serif" font-size="10.00">demo_adapter_create_lamp</text>
</a>
</g>
</g>
<!-- Node6&#45;&gt;Node7 -->
<g id="edge6" class="edge"><title>Node6&#45;&gt;Node7</title>
<path fill="none" stroke="midnightblue" d="M841.324,-15.5C849.736,-15.5 858.375,-15.5 866.84,-15.5"/>
<polygon fill="midnightblue" stroke="midnightblue" points="841.203,-12.0001 831.203,-15.5 841.203,-19.0001 841.203,-12.0001"/>
</g>
<!-- Node8 -->
<g id="node8" class="node"><title>Node8</title>
<g id="a_node8"><a xlink:href="a00013.html#a9f84d5de2ac16bde89480bd48efdff51" target="_top" xlink:title="[create_lamp] ">
<polygon fill="none" stroke="black" points="1040,-6 1040,-25 1159,-25 1159,-6 1040,-6"/>
<text text-anchor="middle" x="1099.5" y="-13" font-family="Helvetica,sans-Serif" font-size="10.00">demo_adapter_on_start</text>
</a>
</g>
</g>
<!-- Node7&#45;&gt;Node8 -->
<g id="edge7" class="edge"><title>Node7&#45;&gt;Node8</title>
<path fill="none" stroke="midnightblue" d="M1014.28,-15.5C1022.85,-15.5 1031.47,-15.5 1039.76,-15.5"/>
<polygon fill="midnightblue" stroke="midnightblue" points="1014.26,-12.0001 1004.26,-15.5 1014.26,-19.0001 1014.26,-12.0001"/>
</g>
</g>
</svg>
