<?xml version="1.0" encoding="UTF-8" standalone="no"?>
<!DOCTYPE svg PUBLIC "-//W3C//DTD SVG 1.1//EN"
 "http://www.w3.org/Graphics/SVG/1.1/DTD/svg11.dtd">
<!-- Generated by graphviz version 2.38.0 (20140413.2041)
 -->
<!-- Title: hpd_parameter_free Pages: 1 -->
<svg width="589pt" height="85pt"
 viewBox="0.00 0.00 589.00 85.00" xmlns="http://www.w3.org/2000/svg" xmlns:xlink="http://www.w3.org/1999/xlink">
<g id="graph0" class="graph" transform="scale(1 1) rotate(0) translate(4 81)">
<title>hpd_parameter_free</title>
<!-- Node1 -->
<g id="node1" class="node"><title>Node1</title>
<polygon fill="#bfbfbf" stroke="black" points="0,-0.5 0,-19.5 103,-19.5 103,-0.5 0,-0.5"/>
<text text-anchor="middle" x="51.5" y="-7.5" font-family="Helvetica,sans-Serif" font-size="10.00">hpd_parameter_free</text>
</g>
<!-- Node2 -->
<g id="node2" class="node"><title>Node2</title>
<g id="a_node2"><a xlink:href="a00063.html#ad18143d06649d9220e4fd8d74dbdec79" target="_top" xlink:title="discovery_free_parameter">
<polygon fill="none" stroke="black" points="139,-0.5 139,-19.5 268,-19.5 268,-0.5 139,-0.5"/>
<text text-anchor="middle" x="203.5" y="-7.5" font-family="Helvetica,sans-Serif" font-size="10.00">discovery_free_parameter</text>
</a>
</g>
</g>
<!-- Node1&#45;&gt;Node2 -->
<g id="edge1" class="edge"><title>Node1&#45;&gt;Node2</title>
<path fill="none" stroke="midnightblue" d="M103.283,-10C111.469,-10 120.086,-10 128.682,-10"/>
<polygon fill="midnightblue" stroke="midnightblue" points="128.737,-13.5001 138.737,-10 128.737,-6.5001 128.737,-13.5001"/>
</g>
<!-- Node3 -->
<g id="node3" class="node"><title>Node3</title>
<g id="a_node3"><a xlink:href="a00046.html#a195d511a075f2349200563af1c5d1fd7" target="_top" xlink:title="hpd_map_free">
<polygon fill="none" stroke="black" points="304,-19.5 304,-38.5 382,-38.5 382,-19.5 304,-19.5"/>
<text text-anchor="middle" x="343" y="-26.5" font-family="Helvetica,sans-Serif" font-size="10.00">hpd_map_free</text>
</a>
</g>
</g>
<!-- Node2&#45;&gt;Node3 -->
<g id="edge2" class="edge"><title>Node2&#45;&gt;Node3</title>
<path fill="none" stroke="midnightblue" d="M268.018,-18.777C276.722,-19.9798 285.539,-21.1981 293.906,-22.3543"/>
<polygon fill="midnightblue" stroke="midnightblue" points="293.466,-25.8267 303.851,-23.7285 294.424,-18.8926 293.466,-25.8267"/>
</g>
<!-- Node5 -->
<g id="node5" class="node"><title>Node5</title>
<g id="a_node5"><a xlink:href="a00006.html#adf46370d9c211c3be22966b4606ba9b0" target="_top" xlink:title="free">
<polygon fill="none" stroke="black" points="548,-19.5 548,-38.5 581,-38.5 581,-19.5 548,-19.5"/>
<text text-anchor="middle" x="564.5" y="-26.5" font-family="Helvetica,sans-Serif" font-size="10.00">free</text>
</a>
</g>
</g>
<!-- Node2&#45;&gt;Node5 -->
<g id="edge6" class="edge"><title>Node2&#45;&gt;Node5</title>
<path fill="none" stroke="midnightblue" d="M268.211,-8.39459C302.038,-7.94764 344.302,-8.03219 382,-10 437.626,-12.9036 502.452,-20.7804 537.606,-25.43"/>
<polygon fill="midnightblue" stroke="midnightblue" points="537.143,-28.8992 547.52,-26.7603 538.074,-21.9614 537.143,-28.8992"/>
</g>
<!-- Node4 -->
<g id="node4" class="node"><title>Node4</title>
<g id="a_node4"><a xlink:href="a00022.html#ae1085dd4fd40466d18b02ec077ef4d6d" target="_top" xlink:title="hpd_map_remove">
<polygon fill="none" stroke="black" points="418,-57.5 418,-76.5 512,-76.5 512,-57.5 418,-57.5"/>
<text text-anchor="middle" x="465" y="-64.5" font-family="Helvetica,sans-Serif" font-size="10.00">hpd_map_remove</text>
</a>
</g>
</g>
<!-- Node3&#45;&gt;Node4 -->
<g id="edge3" class="edge"><title>Node3&#45;&gt;Node4</title>
<path fill="none" stroke="midnightblue" d="M374.281,-38.589C389.346,-43.3594 407.754,-49.1888 423.967,-54.3229"/>
<polygon fill="midnightblue" stroke="midnightblue" points="423.139,-57.7318 433.729,-57.4141 425.252,-51.0584 423.139,-57.7318"/>
</g>
<!-- Node3&#45;&gt;Node5 -->
<g id="edge5" class="edge"><title>Node3&#45;&gt;Node5</title>
<path fill="none" stroke="midnightblue" d="M382.234,-29C426.728,-29 498.997,-29 537.468,-29"/>
<polygon fill="midnightblue" stroke="midnightblue" points="537.813,-32.5001 547.813,-29 537.813,-25.5001 537.813,-32.5001"/>
</g>
<!-- Node4&#45;&gt;Node5 -->
<g id="edge4" class="edge"><title>Node4&#45;&gt;Node5</title>
<path fill="none" stroke="midnightblue" d="M490.603,-57.411C505.179,-51.7302 523.608,-44.5477 538.289,-38.8259"/>
<polygon fill="midnightblue" stroke="midnightblue" points="539.714,-42.0269 547.76,-35.1344 537.172,-35.5047 539.714,-42.0269"/>
</g>
</g>
</svg>
