<?xml version="1.0" encoding="UTF-8" standalone="no"?>
<!DOCTYPE svg PUBLIC "-//W3C//DTD SVG 1.1//EN"
 "http://www.w3.org/Graphics/SVG/1.1/DTD/svg11.dtd">
<!-- Generated by graphviz version 2.38.0 (20140413.2041)
 -->
<!-- Title: demo_adapter_create_parameter Pages: 1 -->
<!--zoomable 154 -->
<svg id="main" version="1.1" xmlns="http://www.w3.org/2000/svg" xmlns:xlink="http://www.w3.org/1999/xlink" xml:space="preserve" onload="init(evt)">
<style type="text/css"><![CDATA[
.edge:hover path { stroke: red; }
.edge:hover polygon { stroke: red; fill: red; }
]]></style>
<script type="text/javascript"><![CDATA[
var edges = document.getElementsByTagName('g');
if (edges && edges.length) {
  for (var i=0;i<edges.length;i++) {
    if (edges[i].id.substr(0,4)=='edge') {
      edges[i].setAttribute('class','edge');
    }
  }
}
]]></script>
        <defs>
                <circle id="rim" cx="0" cy="0" r="7"/>
                <circle id="rim2" cx="0" cy="0" r="3.5"/>
                <g id="zoomPlus">
                        <use xlink:href="#rim" fill="#404040">
                                <set attributeName="fill" to="#808080" begin="zoomplus.mouseover" end="zoomplus.mouseout"/>
                        </use>
                        <path d="M-4,0h8M0,-4v8" fill="none" stroke="white" stroke-width="1.5" pointer-events="none"/>
                </g>
                <g id="zoomMin">
                        <use xlink:href="#rim" fill="#404040">
                                <set attributeName="fill" to="#808080" begin="zoomminus.mouseover" end="zoomminus.mouseout"/>
                        </use>
                        <path d="M-4,0h8" fill="none" stroke="white" stroke-width="1.5" pointer-events="none"/>
                </g>
                <g id="dirArrow">
                        <path fill="none" stroke="white" stroke-width="1.5" d="M0,-3.0v7 M-2.5,-0.5L0,-3.0L2.5,-0.5"/>
                </g>
               <g id="resetDef">
                       <use xlink:href="#rim2" fill="#404040">
                               <set attributeName="fill" to="#808080" begin="reset.mouseover" end="reset.mouseout"/>
                       </use>
               </g>
        </defs>

<script type="text/javascript">
var viewWidth = 976;
var viewHeight = 154;
var sectionId = 'dynsection-7';
</script>
<script xlink:href="svgpan.js"/>
<svg id="graph" class="graph">
<g id="viewport">
<title>demo_adapter_create_parameter</title>
<!-- Node1 -->
<g id="node1" class="node"><title>Node1</title>
<polygon fill="#bfbfbf" stroke="black" points="0,-83 0,-113 110,-113 110,-83 0,-83"/>
<text text-anchor="start" x="8" y="-101" font-family="Helvetica,sans-Serif" font-size="10.00">demo_adapter_create</text>
<text text-anchor="middle" x="55" y="-90" font-family="Helvetica,sans-Serif" font-size="10.00">_parameter</text>
</g>
<!-- Node2 -->
<g id="node2" class="node"><title>Node2</title>
<g id="a_node2"><a xlink:href="a00071.html#a510d8b9b58d0cf4d661e7e433004ca10" target="_top" xlink:title="[hpd_service_t functions] ">
<polygon fill="none" stroke="black" points="149,-126.5 149,-145.5 256,-145.5 256,-126.5 149,-126.5"/>
<text text-anchor="middle" x="202.5" y="-133.5" font-family="Helvetica,sans-Serif" font-size="10.00">hpd_parameter_alloc</text>
</a>
</g>
</g>
<!-- Node1&#45;&gt;Node2 -->
<g id="edge1" class="edge"><title>Node1&#45;&gt;Node2</title>
<path fill="none" stroke="midnightblue" d="M110.179,-112.15C124.872,-115.987 140.649,-120.108 154.886,-123.826"/>
<polygon fill="midnightblue" stroke="midnightblue" points="154.383,-127.312 164.943,-126.452 156.152,-120.539 154.383,-127.312"/>
</g>
<!-- Node9 -->
<g id="node9" class="node"><title>Node9</title>
<g id="a_node9"><a xlink:href="a00071.html#add11419bd4fd209882bbe83c8ce8442a" target="_top" xlink:title="hpd_parameter_attach">
<polygon fill="none" stroke="black" points="146,-44.5 146,-63.5 259,-63.5 259,-44.5 146,-44.5"/>
<text text-anchor="middle" x="202.5" y="-51.5" font-family="Helvetica,sans-Serif" font-size="10.00">hpd_parameter_attach</text>
</a>
</g>
</g>
<!-- Node1&#45;&gt;Node9 -->
<g id="edge10" class="edge"><title>Node1&#45;&gt;Node9</title>
<path fill="none" stroke="midnightblue" d="M105.666,-82.9808C123.421,-77.6115 143.223,-71.6234 160.196,-66.4905"/>
<polygon fill="midnightblue" stroke="midnightblue" points="161.268,-69.8231 169.826,-63.5783 159.241,-63.1228 161.268,-69.8231"/>
</g>
<!-- Node12 -->
<g id="node12" class="node"><title>Node12</title>
<g id="a_node12"><a xlink:href="a00071.html#ad8c6360b9faf931207a84a045e44b858" target="_top" xlink:title="hpd_parameter_free">
<polygon fill="none" stroke="black" points="310,-88.5 310,-107.5 413,-107.5 413,-88.5 310,-88.5"/>
<text text-anchor="middle" x="361.5" y="-95.5" font-family="Helvetica,sans-Serif" font-size="10.00">hpd_parameter_free</text>
</a>
</g>
</g>
<!-- Node1&#45;&gt;Node12 -->
<g id="edge14" class="edge"><title>Node1&#45;&gt;Node12</title>
<path fill="none" stroke="midnightblue" d="M110.088,-98C163.341,-98 244.527,-98 299.92,-98"/>
<polygon fill="midnightblue" stroke="midnightblue" points="299.95,-101.5 309.95,-98 299.95,-94.5001 299.95,-101.5"/>
</g>
<!-- Node3 -->
<g id="node3" class="node"><title>Node3</title>
<g id="a_node3"><a xlink:href="a00078.html#a3f84f32d27f7748c7fb9b0dbf24e4dc4" target="_top" xlink:title="discovery_alloc_parameter">
<polygon fill="none" stroke="black" points="295,-126.5 295,-145.5 428,-145.5 428,-126.5 295,-126.5"/>
<text text-anchor="middle" x="361.5" y="-133.5" font-family="Helvetica,sans-Serif" font-size="10.00">discovery_alloc_parameter</text>
</a>
</g>
</g>
<!-- Node2&#45;&gt;Node3 -->
<g id="edge2" class="edge"><title>Node2&#45;&gt;Node3</title>
<path fill="none" stroke="midnightblue" d="M256.215,-136C265.406,-136 275.126,-136 284.79,-136"/>
<polygon fill="midnightblue" stroke="midnightblue" points="284.816,-139.5 294.816,-136 284.816,-132.5 284.816,-139.5"/>
</g>
<!-- Node4 -->
<g id="node4" class="node"><title>Node4</title>
<g id="a_node4"><a xlink:href="a00056.html#a8d23b888fb4bb3f951c7d48f1928ee9a" target="_top" xlink:title="hpd_map_alloc">
<polygon fill="none" stroke="black" points="487.5,-126.5 487.5,-145.5 569.5,-145.5 569.5,-126.5 487.5,-126.5"/>
<text text-anchor="middle" x="528.5" y="-133.5" font-family="Helvetica,sans-Serif" font-size="10.00">hpd_map_alloc</text>
</a>
</g>
</g>
<!-- Node3&#45;&gt;Node4 -->
<g id="edge3" class="edge"><title>Node3&#45;&gt;Node4</title>
<path fill="none" stroke="midnightblue" d="M428.186,-136C444.397,-136 461.511,-136 476.881,-136"/>
<polygon fill="midnightblue" stroke="midnightblue" points="477.211,-139.5 487.211,-136 477.211,-132.5 477.211,-139.5"/>
</g>
<!-- Node5 -->
<g id="node5" class="node"><title>Node5</title>
<g id="a_node5"><a xlink:href="a00078.html#ad18143d06649d9220e4fd8d74dbdec79" target="_top" xlink:title="discovery_free_parameter">
<polygon fill="none" stroke="black" points="464,-88.5 464,-107.5 593,-107.5 593,-88.5 464,-88.5"/>
<text text-anchor="middle" x="528.5" y="-95.5" font-family="Helvetica,sans-Serif" font-size="10.00">discovery_free_parameter</text>
</a>
</g>
</g>
<!-- Node3&#45;&gt;Node5 -->
<g id="edge4" class="edge"><title>Node3&#45;&gt;Node5</title>
<path fill="none" stroke="midnightblue" d="M404.136,-126.411C426.008,-121.374 453.006,-115.156 476.164,-109.823"/>
<polygon fill="midnightblue" stroke="midnightblue" points="477.204,-113.175 486.163,-107.52 475.633,-106.354 477.204,-113.175"/>
</g>
<!-- Node6 -->
<g id="node6" class="node"><title>Node6</title>
<g id="a_node6"><a xlink:href="a00056.html#a195d511a075f2349200563af1c5d1fd7" target="_top" xlink:title="hpd_map_free">
<polygon fill="none" stroke="black" points="660,-76.5 660,-95.5 738,-95.5 738,-76.5 660,-76.5"/>
<text text-anchor="middle" x="699" y="-83.5" font-family="Helvetica,sans-Serif" font-size="10.00">hpd_map_free</text>
</a>
</g>
</g>
<!-- Node5&#45;&gt;Node6 -->
<g id="edge5" class="edge"><title>Node5&#45;&gt;Node6</title>
<path fill="none" stroke="midnightblue" d="M593.203,-93.4633C611.9,-92.1317 632.035,-90.6978 649.611,-89.4461"/>
<polygon fill="midnightblue" stroke="midnightblue" points="649.907,-92.934 659.633,-88.7324 649.41,-85.9517 649.907,-92.934"/>
</g>
<!-- Node8 -->
<g id="node8" class="node"><title>Node8</title>
<g id="a_node8"><a xlink:href="a00012.html#adf46370d9c211c3be22966b4606ba9b0" target="_top" xlink:title="free">
<polygon fill="none" stroke="black" points="935,-57.5 935,-76.5 968,-76.5 968,-57.5 935,-57.5"/>
<text text-anchor="middle" x="951.5" y="-64.5" font-family="Helvetica,sans-Serif" font-size="10.00">free</text>
</a>
</g>
</g>
<!-- Node5&#45;&gt;Node8 -->
<g id="edge9" class="edge"><title>Node5&#45;&gt;Node8</title>
<path fill="none" stroke="midnightblue" d="M593.161,-103.146C605.063,-103.919 617.405,-104.593 629,-105 749.136,-109.221 782.926,-120.263 899,-89 907.907,-86.6011 917.285,-82.9586 925.563,-79.3238"/>
<polygon fill="midnightblue" stroke="midnightblue" points="927.053,-82.4906 934.679,-75.1353 924.131,-76.1298 927.053,-82.4906"/>
</g>
<!-- Node7 -->
<g id="node7" class="node"><title>Node7</title>
<g id="a_node7"><a xlink:href="a00031.html#ae1085dd4fd40466d18b02ec077ef4d6d" target="_top" xlink:title="hpd_map_remove">
<polygon fill="none" stroke="black" points="805,-38.5 805,-57.5 899,-57.5 899,-38.5 805,-38.5"/>
<text text-anchor="middle" x="852" y="-45.5" font-family="Helvetica,sans-Serif" font-size="10.00">hpd_map_remove</text>
</a>
</g>
</g>
<!-- Node6&#45;&gt;Node7 -->
<g id="edge6" class="edge"><title>Node6&#45;&gt;Node7</title>
<path fill="none" stroke="midnightblue" d="M738.104,-76.411C757.94,-71.4191 782.384,-65.2676 803.448,-59.9666"/>
<polygon fill="midnightblue" stroke="midnightblue" points="804.327,-63.3548 813.17,-57.5201 802.618,-56.5664 804.327,-63.3548"/>
</g>
<!-- Node6&#45;&gt;Node8 -->
<g id="edge8" class="edge"><title>Node6&#45;&gt;Node8</title>
<path fill="none" stroke="midnightblue" d="M738.046,-83.1143C789.651,-79.2001 880.467,-72.3119 924.756,-68.9526"/>
<polygon fill="midnightblue" stroke="midnightblue" points="925.255,-72.4249 934.962,-68.1786 924.726,-65.445 925.255,-72.4249"/>
</g>
<!-- Node7&#45;&gt;Node8 -->
<g id="edge7" class="edge"><title>Node7&#45;&gt;Node8</title>
<path fill="none" stroke="midnightblue" d="M899.18,-56.9992C907.978,-58.7137 916.888,-60.45 924.76,-61.984"/>
<polygon fill="midnightblue" stroke="midnightblue" points="924.257,-65.4517 934.742,-63.9292 925.596,-58.581 924.257,-65.4517"/>
</g>
<!-- Node10 -->
<g id="node10" class="node"><title>Node10</title>
<g id="a_node10"><a xlink:href="a00078.html#a1ae657e03b1c4f82381c46c4966ee313" target="_top" xlink:title="discovery_is_parameter\l_id_unique">
<polygon fill="none" stroke="black" points="301.5,-39 301.5,-69 421.5,-69 421.5,-39 301.5,-39"/>
<text text-anchor="start" x="309.5" y="-57" font-family="Helvetica,sans-Serif" font-size="10.00">discovery_is_parameter</text>
<text text-anchor="middle" x="361.5" y="-46" font-family="Helvetica,sans-Serif" font-size="10.00">_id_unique</text>
</a>
</g>
</g>
<!-- Node9&#45;&gt;Node10 -->
<g id="edge11" class="edge"><title>Node9&#45;&gt;Node10</title>
<path fill="none" stroke="midnightblue" d="M259.294,-54C269.647,-54 280.576,-54 291.273,-54"/>
<polygon fill="midnightblue" stroke="midnightblue" points="291.43,-57.5001 301.43,-54 291.43,-50.5001 291.43,-57.5001"/>
</g>
<!-- Node11 -->
<g id="node11" class="node"><title>Node11</title>
<g id="a_node11"><a xlink:href="a00078.html#a1c0f6aea78a0a20196e4a03641c30755" target="_top" xlink:title="discovery_attach_parameter">
<polygon fill="none" stroke="black" points="629,-0.5 629,-19.5 769,-19.5 769,-0.5 629,-0.5"/>
<text text-anchor="middle" x="699" y="-7.5" font-family="Helvetica,sans-Serif" font-size="10.00">discovery_attach_parameter</text>
</a>
</g>
</g>
<!-- Node9&#45;&gt;Node11 -->
<g id="edge12" class="edge"><title>Node9&#45;&gt;Node11</title>
<path fill="none" stroke="midnightblue" d="M231.994,-44.4767C249.874,-38.9375 273.53,-32.3969 295,-29 406.294,-11.3918 536.852,-8.41074 618.515,-8.62665"/>
<polygon fill="midnightblue" stroke="midnightblue" points="618.704,-12.1274 628.72,-8.67101 618.735,-5.12748 618.704,-12.1274"/>
</g>
<!-- Node11&#45;&gt;Node8 -->
<g id="edge13" class="edge"><title>Node11&#45;&gt;Node8</title>
<path fill="none" stroke="midnightblue" d="M769.307,-7.61273C808.537,-8.44981 857.834,-13.2489 899,-29 911.554,-33.8034 923.743,-42.5522 933.109,-50.4452"/>
<polygon fill="midnightblue" stroke="midnightblue" points="931.044,-53.2928 940.846,-57.3156 935.692,-48.0586 931.044,-53.2928"/>
</g>
<!-- Node12&#45;&gt;Node5 -->
<g id="edge15" class="edge"><title>Node12&#45;&gt;Node5</title>
<path fill="none" stroke="midnightblue" d="M413.352,-98C426.104,-98 440.045,-98 453.667,-98"/>
<polygon fill="midnightblue" stroke="midnightblue" points="453.997,-101.5 463.997,-98 453.997,-94.5001 453.997,-101.5"/>
</g>
</g>
</svg>
        <g id="navigator" transform="translate(0 0)" fill="#404254">
                <rect fill="#f2f5e9" fill-opacity="0.5" stroke="#606060" stroke-width=".5" x="0" y="0" width="60" height="60"/>
                <use id="zoomplus" xlink:href="#zoomPlus" x="17" y="9" onmousedown="handleZoom(evt,'in')"/>
                <use id="zoomminus" xlink:href="#zoomMin" x="42" y="9" onmousedown="handleZoom(evt,'out')"/>
                <use id="reset" xlink:href="#resetDef" x="30" y="36" onmousedown="handleReset()"/>
                <g id="arrowUp" xlink:href="#dirArrow" transform="translate(30 24)" onmousedown="handlePan(0,-1)">
                  <use xlink:href="#rim" fill="#404040">
                        <set attributeName="fill" to="#808080" begin="arrowUp.mouseover" end="arrowUp.mouseout"/>
                  </use>
                  <path fill="none" stroke="white" stroke-width="1.5" d="M0,-3.0v7 M-2.5,-0.5L0,-3.0L2.5,-0.5"/>
                </g>
                <g id="arrowRight" xlink:href="#dirArrow" transform="rotate(90) translate(36 -43)" onmousedown="handlePan(1,0)">
                  <use xlink:href="#rim" fill="#404040">
                        <set attributeName="fill" to="#808080" begin="arrowRight.mouseover" end="arrowRight.mouseout"/>
                  </use>
                  <path fill="none" stroke="white" stroke-width="1.5" d="M0,-3.0v7 M-2.5,-0.5L0,-3.0L2.5,-0.5"/>
                </g>
                <g id="arrowDown" xlink:href="#dirArrow" transform="rotate(180) translate(-30 -48)" onmousedown="handlePan(0,1)">
                  <use xlink:href="#rim" fill="#404040">
                        <set attributeName="fill" to="#808080" begin="arrowDown.mouseover" end="arrowDown.mouseout"/>
                  </use>
                  <path fill="none" stroke="white" stroke-width="1.5" d="M0,-3.0v7 M-2.5,-0.5L0,-3.0L2.5,-0.5"/>
                </g>
                <g id="arrowLeft" xlink:href="#dirArrow" transform="rotate(270) translate(-36 17)" onmousedown="handlePan(-1,0)">
                  <use xlink:href="#rim" fill="#404040">
                        <set attributeName="fill" to="#808080" begin="arrowLeft.mouseover" end="arrowLeft.mouseout"/>
                  </use>
                  <path fill="none" stroke="white" stroke-width="1.5" d="M0,-3.0v7 M-2.5,-0.5L0,-3.0L2.5,-0.5"/>
                </g>
        </g>
        <svg viewBox="0 0 15 15" width="100%" height="30px" preserveAspectRatio="xMaxYMin meet">
         <g id="arrow_out" transform="scale(0.3 0.3)">
          <a xlink:href="a00013_aae15756770f631aecb995dca162fbc65_cgraph_org.svg" target="_base">
           <rect id="button" ry="5" rx="5" y="6" x="6" height="38" width="38"
                fill="#f2f5e9" fill-opacity="0.5" stroke="#606060" stroke-width="1.0"/>
           <path id="arrow"
             d="M 11.500037,31.436501 C 11.940474,20.09759 22.043105,11.32322 32.158766,21.979434 L 37.068811,17.246167 C 37.068811,17.246167 37.088388,32 37.088388,32 L 22.160133,31.978069 C 22.160133,31.978069 26.997745,27.140456 26.997745,27.140456 C 18.528582,18.264221 13.291696,25.230495 11.500037,31.436501 z"
             style="fill:#404040;"/>
          </a>
         </g>
        </svg>
</svg>
