<?xml version="1.0" encoding="UTF-8" standalone="no"?>
<!DOCTYPE svg PUBLIC "-//W3C//DTD SVG 1.1//EN"
 "http://www.w3.org/Graphics/SVG/1.1/DTD/svg11.dtd">
<!-- Generated by graphviz version 2.38.0 (20140413.2041)
 -->
<!-- Title: discovery_get_device_id Pages: 1 -->
<svg width="1702pt" height="47pt"
 viewBox="0.00 0.00 1702.00 47.00" xmlns="http://www.w3.org/2000/svg" xmlns:xlink="http://www.w3.org/1999/xlink">
<g id="graph0" class="graph" transform="scale(1 1) rotate(0) translate(4 43)">
<title>discovery_get_device_id</title>
<!-- Node1 -->
<g id="node1" class="node"><title>Node1</title>
<polygon fill="#bfbfbf" stroke="black" points="0,-0.5 0,-19.5 124,-19.5 124,-0.5 0,-0.5"/>
<text text-anchor="middle" x="62" y="-7.5" font-family="Helvetica,sans-Serif" font-size="10.00">discovery_get_device_id</text>
</g>
<!-- Node2 -->
<g id="node2" class="node"><title>Node2</title>
<g id="a_node2"><a xlink:href="a00060.html#a9005887b17466250fc4fc8d6d253034d" target="_top" xlink:title="[hpd_adapter_t functions] ">
<polygon fill="none" stroke="black" points="160,-0.5 160,-19.5 258,-19.5 258,-0.5 160,-0.5"/>
<text text-anchor="middle" x="209" y="-7.5" font-family="Helvetica,sans-Serif" font-size="10.00">hpd_device_get_id</text>
</a>
</g>
</g>
<!-- Node1&#45;&gt;Node2 -->
<g id="edge1" class="edge"><title>Node1&#45;&gt;Node2</title>
<path fill="none" stroke="midnightblue" d="M134.2,-10C142.862,-10 151.549,-10 159.766,-10"/>
<polygon fill="midnightblue" stroke="midnightblue" points="134.073,-6.5001 124.073,-10 134.073,-13.5001 134.073,-6.5001"/>
</g>
<!-- Node3 -->
<g id="node3" class="node"><title>Node3</title>
<g id="a_node3"><a xlink:href="a00075.html#ae30c92f3bb2ebffcbb82054ad60c1ac5" target="_top" xlink:title="hpd_rest_url_create">
<polygon fill="none" stroke="black" points="294,-19.5 294,-38.5 396,-38.5 396,-19.5 294,-19.5"/>
<text text-anchor="middle" x="345" y="-26.5" font-family="Helvetica,sans-Serif" font-size="10.00">hpd_rest_url_create</text>
</a>
</g>
</g>
<!-- Node2&#45;&gt;Node3 -->
<g id="edge2" class="edge"><title>Node2&#45;&gt;Node3</title>
<path fill="none" stroke="midnightblue" d="M268.553,-18.3022C276.999,-19.4998 285.627,-20.7233 293.889,-21.8947"/>
<polygon fill="midnightblue" stroke="midnightblue" points="268.769,-14.798 258.377,-16.8594 267.787,-21.7287 268.769,-14.798"/>
</g>
<!-- Node6 -->
<g id="node6" class="node"><title>Node6</title>
<g id="a_node6"><a xlink:href="a00076.html#a57ebcecdb1a111267049578c1d9c51de" target="_top" xlink:title="add_device">
<polygon fill="none" stroke="black" points="647,-0.5 647,-19.5 713,-19.5 713,-0.5 647,-0.5"/>
<text text-anchor="middle" x="680" y="-7.5" font-family="Helvetica,sans-Serif" font-size="10.00">add_device</text>
</a>
</g>
</g>
<!-- Node2&#45;&gt;Node6 -->
<g id="edge14" class="edge"><title>Node2&#45;&gt;Node6</title>
<path fill="none" stroke="midnightblue" d="M268.648,-10C368.574,-10 568.599,-10 646.705,-10"/>
<polygon fill="midnightblue" stroke="midnightblue" points="268.425,-6.5001 258.425,-10 268.425,-13.5001 268.425,-6.5001"/>
</g>
<!-- Node4 -->
<g id="node4" class="node"><title>Node4</title>
<g id="a_node4"><a xlink:href="a00076.html#aa3eb7c0c809c6c24396cb9321b6b57dc" target="_top" xlink:title="add_service">
<polygon fill="none" stroke="black" points="432,-19.5 432,-38.5 501,-38.5 501,-19.5 432,-19.5"/>
<text text-anchor="middle" x="466.5" y="-26.5" font-family="Helvetica,sans-Serif" font-size="10.00">add_service</text>
</a>
</g>
</g>
<!-- Node3&#45;&gt;Node4 -->
<g id="edge3" class="edge"><title>Node3&#45;&gt;Node4</title>
<path fill="none" stroke="midnightblue" d="M406.529,-29C415.245,-29 423.938,-29 431.867,-29"/>
<polygon fill="midnightblue" stroke="midnightblue" points="406.332,-25.5001 396.332,-29 406.332,-32.5001 406.332,-25.5001"/>
</g>
<!-- Node5 -->
<g id="node5" class="node"><title>Node5</title>
<g id="a_node5"><a xlink:href="a00076.html#a2e3a16674e810068b936c145267184bb" target="_top" xlink:title="add_services">
<polygon fill="none" stroke="black" points="537,-19.5 537,-38.5 611,-38.5 611,-19.5 537,-19.5"/>
<text text-anchor="middle" x="574" y="-26.5" font-family="Helvetica,sans-Serif" font-size="10.00">add_services</text>
</a>
</g>
</g>
<!-- Node4&#45;&gt;Node5 -->
<g id="edge4" class="edge"><title>Node4&#45;&gt;Node5</title>
<path fill="none" stroke="midnightblue" d="M511.282,-29C519.75,-29 528.536,-29 536.732,-29"/>
<polygon fill="midnightblue" stroke="midnightblue" points="511.171,-25.5001 501.171,-29 511.171,-32.5001 511.171,-25.5001"/>
</g>
<!-- Node5&#45;&gt;Node6 -->
<g id="edge5" class="edge"><title>Node5&#45;&gt;Node6</title>
<path fill="none" stroke="midnightblue" d="M621.103,-20.5774C629.776,-18.9929 638.67,-17.3679 646.805,-15.8818"/>
<polygon fill="midnightblue" stroke="midnightblue" points="620.29,-17.1678 611.082,-22.408 621.549,-24.0538 620.29,-17.1678"/>
</g>
<!-- Node7 -->
<g id="node7" class="node"><title>Node7</title>
<g id="a_node7"><a xlink:href="a00076.html#a4028efc20daa3dbda3727bcb6fdd0635" target="_top" xlink:title="add_devices">
<polygon fill="none" stroke="black" points="749,-0.5 749,-19.5 820,-19.5 820,-0.5 749,-0.5"/>
<text text-anchor="middle" x="784.5" y="-7.5" font-family="Helvetica,sans-Serif" font-size="10.00">add_devices</text>
</a>
</g>
</g>
<!-- Node6&#45;&gt;Node7 -->
<g id="edge6" class="edge"><title>Node6&#45;&gt;Node7</title>
<path fill="none" stroke="midnightblue" d="M723.329,-10C731.867,-10 740.746,-10 748.978,-10"/>
<polygon fill="midnightblue" stroke="midnightblue" points="723.15,-6.5001 713.15,-10 723.15,-13.5001 723.15,-6.5001"/>
</g>
<!-- Node8 -->
<g id="node8" class="node"><title>Node8</title>
<g id="a_node8"><a xlink:href="a00076.html#aa21890dddb121282884859a2c8bfd134" target="_top" xlink:title="add_adapter">
<polygon fill="none" stroke="black" points="856,-0.5 856,-19.5 926,-19.5 926,-0.5 856,-0.5"/>
<text text-anchor="middle" x="891" y="-7.5" font-family="Helvetica,sans-Serif" font-size="10.00">add_adapter</text>
</a>
</g>
</g>
<!-- Node7&#45;&gt;Node8 -->
<g id="edge7" class="edge"><title>Node7&#45;&gt;Node8</title>
<path fill="none" stroke="midnightblue" d="M830.273,-10C838.853,-10 847.707,-10 855.886,-10"/>
<polygon fill="midnightblue" stroke="midnightblue" points="830.007,-6.5001 820.007,-10 830.007,-13.5001 830.007,-6.5001"/>
</g>
<!-- Node9 -->
<g id="node9" class="node"><title>Node9</title>
<g id="a_node9"><a xlink:href="a00076.html#a9a90e4e11e2111c0d0b29f277b1d24c4" target="_top" xlink:title="add_adapters">
<polygon fill="none" stroke="black" points="962,-0.5 962,-19.5 1037,-19.5 1037,-0.5 962,-0.5"/>
<text text-anchor="middle" x="999.5" y="-7.5" font-family="Helvetica,sans-Serif" font-size="10.00">add_adapters</text>
</a>
</g>
</g>
<!-- Node8&#45;&gt;Node9 -->
<g id="edge8" class="edge"><title>Node8&#45;&gt;Node9</title>
<path fill="none" stroke="midnightblue" d="M936.362,-10C944.797,-10 953.538,-10 961.707,-10"/>
<polygon fill="midnightblue" stroke="midnightblue" points="936.284,-6.5001 926.283,-10 936.283,-13.5001 936.284,-6.5001"/>
</g>
<!-- Node10 -->
<g id="node10" class="node"><title>Node10</title>
<g id="a_node10"><a xlink:href="a00076.html#ab8e279d4c33ab258d7118b3e2f28400e" target="_top" xlink:title="add_configuration">
<polygon fill="none" stroke="black" points="1073,-0.5 1073,-19.5 1166,-19.5 1166,-0.5 1073,-0.5"/>
<text text-anchor="middle" x="1119.5" y="-7.5" font-family="Helvetica,sans-Serif" font-size="10.00">add_configuration</text>
</a>
</g>
</g>
<!-- Node9&#45;&gt;Node10 -->
<g id="edge9" class="edge"><title>Node9&#45;&gt;Node10</title>
<path fill="none" stroke="midnightblue" d="M1047.2,-10C1055.58,-10 1064.31,-10 1072.67,-10"/>
<polygon fill="midnightblue" stroke="midnightblue" points="1047.19,-6.5001 1037.19,-10 1047.19,-13.5001 1047.19,-6.5001"/>
</g>
<!-- Node11 -->
<g id="node11" class="node"><title>Node11</title>
<g id="a_node11"><a xlink:href="a00077.html#a0f69305250a2916043c87e8e3865b28d" target="_top" xlink:title="hpd_rest_json_get_configuration">
<polygon fill="none" stroke="black" points="1202,-0.5 1202,-19.5 1359,-19.5 1359,-0.5 1202,-0.5"/>
<text text-anchor="middle" x="1280.5" y="-7.5" font-family="Helvetica,sans-Serif" font-size="10.00">hpd_rest_json_get_configuration</text>
</a>
</g>
</g>
<!-- Node10&#45;&gt;Node11 -->
<g id="edge10" class="edge"><title>Node10&#45;&gt;Node11</title>
<path fill="none" stroke="midnightblue" d="M1176.3,-10C1184.56,-10 1193.19,-10 1201.8,-10"/>
<polygon fill="midnightblue" stroke="midnightblue" points="1176.06,-6.5001 1166.06,-10 1176.06,-13.5001 1176.06,-6.5001"/>
</g>
<!-- Node12 -->
<g id="node12" class="node"><title>Node12</title>
<g id="a_node12"><a xlink:href="a00025.html#a144860c2e3dfe3d8d9fd021968bbd8ff" target="_top" xlink:title="reply_devices">
<polygon fill="none" stroke="black" points="1395,-0.5 1395,-19.5 1472,-19.5 1472,-0.5 1395,-0.5"/>
<text text-anchor="middle" x="1433.5" y="-7.5" font-family="Helvetica,sans-Serif" font-size="10.00">reply_devices</text>
</a>
</g>
</g>
<!-- Node11&#45;&gt;Node12 -->
<g id="edge11" class="edge"><title>Node11&#45;&gt;Node12</title>
<path fill="none" stroke="midnightblue" d="M1369.36,-10C1378.29,-10 1386.98,-10 1394.91,-10"/>
<polygon fill="midnightblue" stroke="midnightblue" points="1369.21,-6.5001 1359.21,-10 1369.21,-13.5001 1369.21,-6.5001"/>
</g>
<!-- Node13 -->
<g id="node13" class="node"><title>Node13</title>
<g id="a_node13"><a xlink:href="a00025.html#abd6f4422cb70766aae33a18dc6b6cb74" target="_top" xlink:title="on_req_hdr_cmpl">
<polygon fill="none" stroke="black" points="1508,-0.5 1508,-19.5 1599,-19.5 1599,-0.5 1508,-0.5"/>
<text text-anchor="middle" x="1553.5" y="-7.5" font-family="Helvetica,sans-Serif" font-size="10.00">on_req_hdr_cmpl</text>
</a>
</g>
</g>
<!-- Node12&#45;&gt;Node13 -->
<g id="edge12" class="edge"><title>Node12&#45;&gt;Node13</title>
<path fill="none" stroke="midnightblue" d="M1482.24,-10C1490.68,-10 1499.43,-10 1507.78,-10"/>
<polygon fill="midnightblue" stroke="midnightblue" points="1482.16,-6.5001 1472.16,-10 1482.16,-13.5001 1482.16,-6.5001"/>
</g>
<!-- Node14 -->
<g id="node14" class="node"><title>Node14</title>
<g id="a_node14"><a xlink:href="a00025.html#ad079431c7eba97c5dd5e4e202cdf6102" target="_top" xlink:title="on_create">
<polygon fill="none" stroke="black" points="1635,-0.5 1635,-19.5 1694,-19.5 1694,-0.5 1635,-0.5"/>
<text text-anchor="middle" x="1664.5" y="-7.5" font-family="Helvetica,sans-Serif" font-size="10.00">on_create</text>
</a>
</g>
</g>
<!-- Node13&#45;&gt;Node14 -->
<g id="edge13" class="edge"><title>Node13&#45;&gt;Node14</title>
<path fill="none" stroke="midnightblue" d="M1609.18,-10C1618.11,-10 1627.04,-10 1635,-10"/>
<polygon fill="midnightblue" stroke="midnightblue" points="1609.15,-6.5001 1599.15,-10 1609.15,-13.5001 1609.15,-6.5001"/>
</g>
</g>
</svg>
