<?xml version="1.0" encoding="UTF-8" standalone="no"?>
<!DOCTYPE svg PUBLIC "-//W3C//DTD SVG 1.1//EN"
 "http://www.w3.org/Graphics/SVG/1.1/DTD/svg11.dtd">
<!-- Generated by graphviz version 2.38.0 (20140413.2041)
 -->
<!-- Title: hpd_tcpd_conn_vsendf Pages: 1 -->
<!--zoomable 148 -->
<svg id="main" version="1.1" xmlns="http://www.w3.org/2000/svg" xmlns:xlink="http://www.w3.org/1999/xlink" xml:space="preserve" onload="init(evt)">
<style type="text/css"><![CDATA[
.edge:hover path { stroke: red; }
.edge:hover polygon { stroke: red; fill: red; }
]]></style>
<script type="text/javascript"><![CDATA[
var edges = document.getElementsByTagName('g');
if (edges && edges.length) {
  for (var i=0;i<edges.length;i++) {
    if (edges[i].id.substr(0,4)=='edge') {
      edges[i].setAttribute('class','edge');
    }
  }
}
]]></script>
        <defs>
                <circle id="rim" cx="0" cy="0" r="7"/>
                <circle id="rim2" cx="0" cy="0" r="3.5"/>
                <g id="zoomPlus">
                        <use xlink:href="#rim" fill="#404040">
                                <set attributeName="fill" to="#808080" begin="zoomplus.mouseover" end="zoomplus.mouseout"/>
                        </use>
                        <path d="M-4,0h8M0,-4v8" fill="none" stroke="white" stroke-width="1.5" pointer-events="none"/>
                </g>
                <g id="zoomMin">
                        <use xlink:href="#rim" fill="#404040">
                                <set attributeName="fill" to="#808080" begin="zoomminus.mouseover" end="zoomminus.mouseout"/>
                        </use>
                        <path d="M-4,0h8" fill="none" stroke="white" stroke-width="1.5" pointer-events="none"/>
                </g>
                <g id="dirArrow">
                        <path fill="none" stroke="white" stroke-width="1.5" d="M0,-3.0v7 M-2.5,-0.5L0,-3.0L2.5,-0.5"/>
                </g>
               <g id="resetDef">
                       <use xlink:href="#rim2" fill="#404040">
                               <set attributeName="fill" to="#808080" begin="reset.mouseover" end="reset.mouseout"/>
                       </use>
               </g>
        </defs>

<script type="text/javascript">
var viewWidth = 1154;
var viewHeight = 148;
var sectionId = 'dynsection-10';
</script>
<script xlink:href="svgpan.js"/>
<svg id="graph" class="graph">
<g id="viewport">
<title>hpd_tcpd_conn_vsendf</title>
<!-- Node1 -->
<g id="node1" class="node"><title>Node1</title>
<polygon fill="#bfbfbf" stroke="black" points="0,-59.5 0,-78.5 117,-78.5 117,-59.5 0,-59.5"/>
<text text-anchor="middle" x="58.5" y="-66.5" font-family="Helvetica,sans-Serif" font-size="10.00">hpd_tcpd_conn_vsendf</text>
</g>
<!-- Node2 -->
<g id="node2" class="node"><title>Node2</title>
<g id="a_node2"><a xlink:href="a00017.html#ab770a06a1cbfdebf49acdefe64b115b8" target="_top" xlink:title="Send response to client. ">
<polygon fill="none" stroke="black" points="301,-77 301,-107 405,-107 405,-77 301,-77"/>
<text text-anchor="start" x="309" y="-95" font-family="Helvetica,sans-Serif" font-size="10.00">hpd_httpd_response</text>
<text text-anchor="middle" x="353" y="-84" font-family="Helvetica,sans-Serif" font-size="10.00">_vsendf</text>
</a>
</g>
</g>
<!-- Node1&#45;&gt;Node2 -->
<g id="edge1" class="edge"><title>Node1&#45;&gt;Node2</title>
<path fill="none" stroke="midnightblue" d="M127.262,-74.3283C180.16,-78.4878 252.525,-84.178 300.692,-87.9655"/>
<polygon fill="midnightblue" stroke="midnightblue" points="127.532,-70.8388 117.289,-73.5441 126.983,-77.8173 127.532,-70.8388"/>
</g>
<!-- Node13 -->
<g id="node13" class="node"><title>Node13</title>
<g id="a_node13"><a xlink:href="a00049.html#af1d6e9cdd63ecfa1ff92ab0e38122100" target="_top" xlink:title="Send message on connection. ">
<polygon fill="none" stroke="black" points="153,-39.5 153,-58.5 265,-58.5 265,-39.5 153,-39.5"/>
<text text-anchor="middle" x="209" y="-46.5" font-family="Helvetica,sans-Serif" font-size="10.00">hpd_tcpd_conn_sendf</text>
</a>
</g>
</g>
<!-- Node1&#45;&gt;Node13 -->
<g id="edge14" class="edge"><title>Node1&#45;&gt;Node13</title>
<path fill="none" stroke="midnightblue" d="M127.343,-59.863C135.933,-58.706 144.638,-57.5336 152.994,-56.4082"/>
<polygon fill="midnightblue" stroke="midnightblue" points="126.783,-56.4067 117.339,-61.2102 127.717,-63.3441 126.783,-56.4067"/>
</g>
<!-- Node3 -->
<g id="node3" class="node"><title>Node3</title>
<g id="a_node3"><a xlink:href="a00017.html#a38a5c180c63086c4c55a595ad3750cf1" target="_top" xlink:title="Send response to client. ">
<polygon fill="none" stroke="black" points="441,-77 441,-107 545,-107 545,-77 441,-77"/>
<text text-anchor="start" x="449" y="-95" font-family="Helvetica,sans-Serif" font-size="10.00">hpd_httpd_response</text>
<text text-anchor="middle" x="493" y="-84" font-family="Helvetica,sans-Serif" font-size="10.00">_sendf</text>
</a>
</g>
</g>
<!-- Node2&#45;&gt;Node3 -->
<g id="edge2" class="edge"><title>Node2&#45;&gt;Node3</title>
<path fill="none" stroke="midnightblue" d="M415.496,-92C423.872,-92 432.398,-92 440.571,-92"/>
<polygon fill="midnightblue" stroke="midnightblue" points="415.386,-88.5001 405.386,-92 415.386,-95.5001 415.386,-88.5001"/>
</g>
<!-- Node4 -->
<g id="node4" class="node"><title>Node4</title>
<g id="a_node4"><a xlink:href="a00038.html#a2eb873ac7e610c2dff8e49d216d3aff8" target="_top" xlink:title="handle_request">
<polygon fill="none" stroke="black" points="581,-120.5 581,-139.5 664,-139.5 664,-120.5 581,-120.5"/>
<text text-anchor="middle" x="622.5" y="-127.5" font-family="Helvetica,sans-Serif" font-size="10.00">handle_request</text>
</a>
</g>
</g>
<!-- Node3&#45;&gt;Node4 -->
<g id="edge3" class="edge"><title>Node3&#45;&gt;Node4</title>
<path fill="none" stroke="midnightblue" d="M554.101,-109.912C566.298,-113.548 578.674,-117.236 589.434,-120.443"/>
<polygon fill="midnightblue" stroke="midnightblue" points="554.975,-106.521 544.391,-107.019 552.975,-113.229 554.975,-106.521"/>
</g>
<!-- Node6 -->
<g id="node6" class="node"><title>Node6</title>
<g id="a_node6"><a xlink:href="a00025.html#a144860c2e3dfe3d8d9fd021968bbd8ff" target="_top" xlink:title="reply_devices">
<polygon fill="none" stroke="black" points="584,-82.5 584,-101.5 661,-101.5 661,-82.5 584,-82.5"/>
<text text-anchor="middle" x="622.5" y="-89.5" font-family="Helvetica,sans-Serif" font-size="10.00">reply_devices</text>
</a>
</g>
</g>
<!-- Node3&#45;&gt;Node6 -->
<g id="edge5" class="edge"><title>Node3&#45;&gt;Node6</title>
<path fill="none" stroke="midnightblue" d="M555.196,-92C564.925,-92 574.733,-92 583.712,-92"/>
<polygon fill="midnightblue" stroke="midnightblue" points="555.125,-88.5001 545.124,-92 555.124,-95.5001 555.125,-88.5001"/>
</g>
<!-- Node9 -->
<g id="node9" class="node"><title>Node9</title>
<g id="a_node9"><a xlink:href="a00025.html#abccd0d79ed3acf405337a07b4572d223" target="_top" xlink:title="on_response">
<polygon fill="none" stroke="black" points="586.5,-44.5 586.5,-63.5 658.5,-63.5 658.5,-44.5 586.5,-44.5"/>
<text text-anchor="middle" x="622.5" y="-51.5" font-family="Helvetica,sans-Serif" font-size="10.00">on_response</text>
</a>
</g>
</g>
<!-- Node3&#45;&gt;Node9 -->
<g id="edge8" class="edge"><title>Node3&#45;&gt;Node9</title>
<path fill="none" stroke="midnightblue" d="M554.101,-74.0877C566.298,-70.4524 578.674,-66.7639 589.434,-63.5568"/>
<polygon fill="midnightblue" stroke="midnightblue" points="552.975,-70.7709 544.391,-76.9814 554.975,-77.4793 552.975,-70.7709"/>
</g>
<!-- Node5 -->
<g id="node5" class="node"><title>Node5</title>
<g id="a_node5"><a xlink:href="a00038.html#a0ddf1224851353fc92bfbff6f499fa97" target="_top" xlink:title="main">
<polygon fill="none" stroke="black" points="737,-120.5 737,-139.5 775,-139.5 775,-120.5 737,-120.5"/>
<text text-anchor="middle" x="756" y="-127.5" font-family="Helvetica,sans-Serif" font-size="10.00">main</text>
</a>
</g>
</g>
<!-- Node4&#45;&gt;Node5 -->
<g id="edge4" class="edge"><title>Node4&#45;&gt;Node5</title>
<path fill="none" stroke="midnightblue" d="M674.256,-130C696.247,-130 720.602,-130 736.753,-130"/>
<polygon fill="midnightblue" stroke="midnightblue" points="674.027,-126.5 664.027,-130 674.027,-133.5 674.027,-126.5"/>
</g>
<!-- Node7 -->
<g id="node7" class="node"><title>Node7</title>
<g id="a_node7"><a xlink:href="a00025.html#abd6f4422cb70766aae33a18dc6b6cb74" target="_top" xlink:title="on_req_hdr_cmpl">
<polygon fill="none" stroke="black" points="850,-82.5 850,-101.5 941,-101.5 941,-82.5 850,-82.5"/>
<text text-anchor="middle" x="895.5" y="-89.5" font-family="Helvetica,sans-Serif" font-size="10.00">on_req_hdr_cmpl</text>
</a>
</g>
</g>
<!-- Node6&#45;&gt;Node7 -->
<g id="edge6" class="edge"><title>Node6&#45;&gt;Node7</title>
<path fill="none" stroke="midnightblue" d="M671.187,-92C721.66,-92 800.686,-92 849.94,-92"/>
<polygon fill="midnightblue" stroke="midnightblue" points="671.181,-88.5001 661.181,-92 671.181,-95.5001 671.181,-88.5001"/>
</g>
<!-- Node8 -->
<g id="node8" class="node"><title>Node8</title>
<g id="a_node8"><a xlink:href="a00025.html#ad079431c7eba97c5dd5e4e202cdf6102" target="_top" xlink:title="on_create">
<polygon fill="none" stroke="black" points="1087,-63.5 1087,-82.5 1146,-82.5 1146,-63.5 1087,-63.5"/>
<text text-anchor="middle" x="1116.5" y="-70.5" font-family="Helvetica,sans-Serif" font-size="10.00">on_create</text>
</a>
</g>
</g>
<!-- Node7&#45;&gt;Node8 -->
<g id="edge7" class="edge"><title>Node7&#45;&gt;Node8</title>
<path fill="none" stroke="midnightblue" d="M951.136,-87.2599C994.25,-83.5194 1052.67,-78.4514 1086.99,-75.4731"/>
<polygon fill="midnightblue" stroke="midnightblue" points="950.742,-83.7808 941.082,-88.1322 951.347,-90.7546 950.742,-83.7808"/>
</g>
<!-- Node10 -->
<g id="node10" class="node"><title>Node10</title>
<g id="a_node10"><a xlink:href="a00073.html#af762dc3db213f4a84ba5fe3ab36a78fe" target="_top" xlink:title="request_alloc_request">
<polygon fill="none" stroke="black" points="700,-44.5 700,-63.5 812,-63.5 812,-44.5 700,-44.5"/>
<text text-anchor="middle" x="756" y="-51.5" font-family="Helvetica,sans-Serif" font-size="10.00">request_alloc_request</text>
</a>
</g>
</g>
<!-- Node9&#45;&gt;Node10 -->
<g id="edge9" class="edge"><title>Node9&#45;&gt;Node10</title>
<path fill="none" stroke="midnightblue" d="M668.848,-54C678.832,-54 689.513,-54 699.836,-54"/>
<polygon fill="midnightblue" stroke="midnightblue" points="668.74,-50.5001 658.74,-54 668.74,-57.5001 668.74,-50.5001"/>
</g>
<!-- Node12 -->
<g id="node12" class="node"><title>Node12</title>
<g id="a_node12"><a xlink:href="a00025.html#a74ba52adbe4c46e9a9c33649e3b75243" target="_top" xlink:title="on_req_cmpl">
<polygon fill="none" stroke="black" points="979,-44.5 979,-63.5 1051,-63.5 1051,-44.5 979,-44.5"/>
<text text-anchor="middle" x="1015" y="-51.5" font-family="Helvetica,sans-Serif" font-size="10.00">on_req_cmpl</text>
</a>
</g>
</g>
<!-- Node9&#45;&gt;Node12 -->
<g id="edge13" class="edge"><title>Node9&#45;&gt;Node12</title>
<path fill="none" stroke="midnightblue" d="M664.198,-41.9444C675.671,-39.0801 688.233,-36.4394 700,-35 807.201,-21.8867 835.922,-20.9203 943,-35 957.169,-36.8631 972.53,-40.7327 985.328,-44.4965"/>
<polygon fill="midnightblue" stroke="midnightblue" points="663.233,-38.5789 654.444,-44.4945 665.004,-45.3513 663.233,-38.5789"/>
</g>
<!-- Node11 -->
<g id="node11" class="node"><title>Node11</title>
<g id="a_node11"><a xlink:href="a00074.html#ac8e7c21db1c80443994e79d29eae8286" target="_top" xlink:title="[hpd_request_t functions] ">
<polygon fill="none" stroke="black" points="848,-44.5 848,-63.5 943,-63.5 943,-44.5 848,-44.5"/>
<text text-anchor="middle" x="895.5" y="-51.5" font-family="Helvetica,sans-Serif" font-size="10.00">hpd_request_alloc</text>
</a>
</g>
</g>
<!-- Node10&#45;&gt;Node11 -->
<g id="edge10" class="edge"><title>Node10&#45;&gt;Node11</title>
<path fill="none" stroke="midnightblue" d="M822.194,-54C830.821,-54 839.523,-54 847.754,-54"/>
<polygon fill="midnightblue" stroke="midnightblue" points="822.134,-50.5001 812.134,-54 822.134,-57.5001 822.134,-50.5001"/>
</g>
<!-- Node11&#45;&gt;Node12 -->
<g id="edge11" class="edge"><title>Node11&#45;&gt;Node12</title>
<path fill="none" stroke="midnightblue" d="M953.437,-54C962.152,-54 970.92,-54 978.974,-54"/>
<polygon fill="midnightblue" stroke="midnightblue" points="953.277,-50.5001 943.277,-54 953.277,-57.5001 953.277,-50.5001"/>
</g>
<!-- Node12&#45;&gt;Node8 -->
<g id="edge12" class="edge"><title>Node12&#45;&gt;Node8</title>
<path fill="none" stroke="midnightblue" d="M1060.93,-62.579C1069.78,-64.2694 1078.84,-65.9991 1086.97,-67.5512"/>
<polygon fill="midnightblue" stroke="midnightblue" points="1061.56,-59.1365 1051.08,-60.6987 1060.25,-66.0123 1061.56,-59.1365"/>
</g>
<!-- Node13&#45;&gt;Node2 -->
<g id="edge15" class="edge"><title>Node13&#45;&gt;Node2</title>
<path fill="none" stroke="midnightblue" d="M251.138,-61.4572C267.17,-66.3121 285.687,-71.9192 302.444,-76.9937"/>
<polygon fill="midnightblue" stroke="midnightblue" points="252.1,-58.0916 241.514,-58.5431 250.071,-64.7912 252.1,-58.0916"/>
</g>
<!-- Node14 -->
<g id="node14" class="node"><title>Node14</title>
<g id="a_node14"><a xlink:href="a00047.html#ae30200b9a3a68eb2d06ddbaa38a49ce6" target="_top" xlink:title="on_receive">
<polygon fill="none" stroke="black" points="321,-38.5 321,-57.5 385,-57.5 385,-38.5 321,-38.5"/>
<text text-anchor="middle" x="353" y="-45.5" font-family="Helvetica,sans-Serif" font-size="10.00">on_receive</text>
</a>
</g>
</g>
<!-- Node13&#45;&gt;Node14 -->
<g id="edge16" class="edge"><title>Node13&#45;&gt;Node14</title>
<path fill="none" stroke="midnightblue" d="M275.584,-48.5381C291.35,-48.4271 307.475,-48.3136 320.824,-48.2196"/>
<polygon fill="midnightblue" stroke="midnightblue" points="275.283,-45.0401 265.308,-48.6105 275.332,-52.0399 275.283,-45.0401"/>
</g>
<!-- Node16 -->
<g id="node16" class="node"><title>Node16</title>
<g id="a_node16"><a xlink:href="a00051.html#ab99f040bf74f8fe99f6021eaa5224db6" target="_top" xlink:title="TEST">
<polygon fill="none" stroke="black" points="332,-0.5 332,-19.5 374,-19.5 374,-0.5 332,-0.5"/>
<text text-anchor="middle" x="353" y="-7.5" font-family="Helvetica,sans-Serif" font-size="10.00">TEST</text>
</a>
</g>
</g>
<!-- Node13&#45;&gt;Node16 -->
<g id="edge18" class="edge"><title>Node13&#45;&gt;Node16</title>
<path fill="none" stroke="midnightblue" d="M254.683,-36.7278C280.473,-29.6446 311.66,-21.0794 331.657,-15.5871"/>
<polygon fill="midnightblue" stroke="midnightblue" points="253.453,-33.436 244.737,-39.4595 255.307,-40.1861 253.453,-33.436"/>
</g>
<!-- Node15 -->
<g id="node15" class="node"><title>Node15</title>
<g id="a_node15"><a xlink:href="a00047.html#a0ddf1224851353fc92bfbff6f499fa97" target="_top" xlink:title="main">
<polygon fill="none" stroke="black" points="474,-38.5 474,-57.5 512,-57.5 512,-38.5 474,-38.5"/>
<text text-anchor="middle" x="493" y="-45.5" font-family="Helvetica,sans-Serif" font-size="10.00">main</text>
</a>
</g>
</g>
<!-- Node14&#45;&gt;Node15 -->
<g id="edge17" class="edge"><title>Node14&#45;&gt;Node15</title>
<path fill="none" stroke="midnightblue" d="M395.357,-48C421.53,-48 454.062,-48 473.915,-48"/>
<polygon fill="midnightblue" stroke="midnightblue" points="395.314,-44.5001 385.314,-48 395.314,-51.5001 395.314,-44.5001"/>
</g>
</g>
</svg>
        <g id="navigator" transform="translate(0 0)" fill="#404254">
                <rect fill="#f2f5e9" fill-opacity="0.5" stroke="#606060" stroke-width=".5" x="0" y="0" width="60" height="60"/>
                <use id="zoomplus" xlink:href="#zoomPlus" x="17" y="9" onmousedown="handleZoom(evt,'in')"/>
                <use id="zoomminus" xlink:href="#zoomMin" x="42" y="9" onmousedown="handleZoom(evt,'out')"/>
                <use id="reset" xlink:href="#resetDef" x="30" y="36" onmousedown="handleReset()"/>
                <g id="arrowUp" xlink:href="#dirArrow" transform="translate(30 24)" onmousedown="handlePan(0,-1)">
                  <use xlink:href="#rim" fill="#404040">
                        <set attributeName="fill" to="#808080" begin="arrowUp.mouseover" end="arrowUp.mouseout"/>
                  </use>
                  <path fill="none" stroke="white" stroke-width="1.5" d="M0,-3.0v7 M-2.5,-0.5L0,-3.0L2.5,-0.5"/>
                </g>
                <g id="arrowRight" xlink:href="#dirArrow" transform="rotate(90) translate(36 -43)" onmousedown="handlePan(1,0)">
                  <use xlink:href="#rim" fill="#404040">
                        <set attributeName="fill" to="#808080" begin="arrowRight.mouseover" end="arrowRight.mouseout"/>
                  </use>
                  <path fill="none" stroke="white" stroke-width="1.5" d="M0,-3.0v7 M-2.5,-0.5L0,-3.0L2.5,-0.5"/>
                </g>
                <g id="arrowDown" xlink:href="#dirArrow" transform="rotate(180) translate(-30 -48)" onmousedown="handlePan(0,1)">
                  <use xlink:href="#rim" fill="#404040">
                        <set attributeName="fill" to="#808080" begin="arrowDown.mouseover" end="arrowDown.mouseout"/>
                  </use>
                  <path fill="none" stroke="white" stroke-width="1.5" d="M0,-3.0v7 M-2.5,-0.5L0,-3.0L2.5,-0.5"/>
                </g>
                <g id="arrowLeft" xlink:href="#dirArrow" transform="rotate(270) translate(-36 17)" onmousedown="handlePan(-1,0)">
                  <use xlink:href="#rim" fill="#404040">
                        <set attributeName="fill" to="#808080" begin="arrowLeft.mouseover" end="arrowLeft.mouseout"/>
                  </use>
                  <path fill="none" stroke="white" stroke-width="1.5" d="M0,-3.0v7 M-2.5,-0.5L0,-3.0L2.5,-0.5"/>
                </g>
        </g>
        <svg viewBox="0 0 15 15" width="100%" height="30px" preserveAspectRatio="xMaxYMin meet">
         <g id="arrow_out" transform="scale(0.3 0.3)">
          <a xlink:href="a00049_a222b05aa1f3416a31ddb08b5e2bfbff8_icgraph_org.svg" target="_base">
           <rect id="button" ry="5" rx="5" y="6" x="6" height="38" width="38"
                fill="#f2f5e9" fill-opacity="0.5" stroke="#606060" stroke-width="1.0"/>
           <path id="arrow"
             d="M 11.500037,31.436501 C 11.940474,20.09759 22.043105,11.32322 32.158766,21.979434 L 37.068811,17.246167 C 37.068811,17.246167 37.088388,32 37.088388,32 L 22.160133,31.978069 C 22.160133,31.978069 26.997745,27.140456 26.997745,27.140456 C 18.528582,18.264221 13.291696,25.230495 11.500037,31.436501 z"
             style="fill:#404040;"/>
          </a>
         </g>
        </svg>
</svg>
