<?xml version="1.0" encoding="UTF-8" standalone="no"?>
<!DOCTYPE svg PUBLIC "-//W3C//DTD SVG 1.1//EN"
 "http://www.w3.org/Graphics/SVG/1.1/DTD/svg11.dtd">
<!-- Generated by graphviz version 2.38.0 (20140413.2041)
 -->
<!-- Title: hpd_httpd_response_sendf Pages: 1 -->
<svg width="568pt" height="180pt"
 viewBox="0.00 0.00 568.00 180.00" xmlns="http://www.w3.org/2000/svg" xmlns:xlink="http://www.w3.org/1999/xlink">
<g id="graph0" class="graph" transform="scale(1 1) rotate(0) translate(4 176)">
<title>hpd_httpd_response_sendf</title>
<!-- Node1 -->
<g id="node1" class="node"><title>Node1</title>
<polygon fill="#bfbfbf" stroke="black" points="0,-71 0,-101 104,-101 104,-71 0,-71"/>
<text text-anchor="start" x="8" y="-89" font-family="Helvetica,sans-Serif" font-size="10.00">hpd_httpd_response</text>
<text text-anchor="middle" x="52" y="-78" font-family="Helvetica,sans-Serif" font-size="10.00">_sendf</text>
</g>
<!-- Node2 -->
<g id="node2" class="node"><title>Node2</title>
<g id="a_node2"><a xlink:href="a00017.html#ab770a06a1cbfdebf49acdefe64b115b8" target="_top" xlink:title="Send response to client. ">
<polygon fill="none" stroke="black" points="140,-71 140,-101 244,-101 244,-71 140,-71"/>
<text text-anchor="start" x="148" y="-89" font-family="Helvetica,sans-Serif" font-size="10.00">hpd_httpd_response</text>
<text text-anchor="middle" x="192" y="-78" font-family="Helvetica,sans-Serif" font-size="10.00">_vsendf</text>
</a>
</g>
</g>
<!-- Node1&#45;&gt;Node2 -->
<g id="edge1" class="edge"><title>Node1&#45;&gt;Node2</title>
<path fill="none" stroke="midnightblue" d="M104.386,-86C112.558,-86 121.083,-86 129.46,-86"/>
<polygon fill="midnightblue" stroke="midnightblue" points="129.571,-89.5001 139.571,-86 129.571,-82.5001 129.571,-89.5001"/>
</g>
<!-- Node3 -->
<g id="node3" class="node"><title>Node3</title>
<g id="a_node3"><a xlink:href="a00029.html#a1ccd6d1acb1660ec22322af9b6349a40" target="_top" xlink:title="Get the IP address of the client. ">
<polygon fill="none" stroke="black" points="286.5,-152.5 286.5,-171.5 400.5,-171.5 400.5,-152.5 286.5,-152.5"/>
<text text-anchor="middle" x="343.5" y="-159.5" font-family="Helvetica,sans-Serif" font-size="10.00">hpd_tcpd_conn_get_ip</text>
</a>
</g>
</g>
<!-- Node2&#45;&gt;Node3 -->
<g id="edge2" class="edge"><title>Node2&#45;&gt;Node3</title>
<path fill="none" stroke="midnightblue" d="M212.437,-101.07C229.472,-113.691 255.302,-131.446 280,-143 284.757,-145.226 289.839,-147.268 294.972,-149.12"/>
<polygon fill="midnightblue" stroke="midnightblue" points="294.24,-152.567 304.834,-152.446 296.477,-145.934 294.24,-152.567"/>
</g>
<!-- Node4 -->
<g id="node4" class="node"><title>Node4</title>
<g id="a_node4"><a xlink:href="a00017.html#a867d6248acd2a1ad498594ec818cb718" target="_top" xlink:title="Convert a status code to string. ">
<polygon fill="none" stroke="black" points="280,-114.5 280,-133.5 407,-133.5 407,-114.5 280,-114.5"/>
<text text-anchor="middle" x="343.5" y="-121.5" font-family="Helvetica,sans-Serif" font-size="10.00">http_status_codes_to_str</text>
</a>
</g>
</g>
<!-- Node2&#45;&gt;Node4 -->
<g id="edge3" class="edge"><title>Node2&#45;&gt;Node4</title>
<path fill="none" stroke="midnightblue" d="M244.031,-98.9712C260.563,-103.173 278.821,-107.814 295.079,-111.947"/>
<polygon fill="midnightblue" stroke="midnightblue" points="294.356,-115.374 304.911,-114.445 296.081,-108.59 294.356,-115.374"/>
</g>
<!-- Node5 -->
<g id="node5" class="node"><title>Node5</title>
<g id="a_node5"><a xlink:href="a00029.html#af1d6e9cdd63ecfa1ff92ab0e38122100" target="_top" xlink:title="Send message on connection. ">
<polygon fill="none" stroke="black" points="287.5,-76.5 287.5,-95.5 399.5,-95.5 399.5,-76.5 287.5,-76.5"/>
<text text-anchor="middle" x="343.5" y="-83.5" font-family="Helvetica,sans-Serif" font-size="10.00">hpd_tcpd_conn_sendf</text>
</a>
</g>
</g>
<!-- Node2&#45;&gt;Node5 -->
<g id="edge4" class="edge"><title>Node2&#45;&gt;Node5</title>
<path fill="none" stroke="midnightblue" d="M244.031,-86C254.717,-86 266.124,-86 277.247,-86"/>
<polygon fill="midnightblue" stroke="midnightblue" points="277.352,-89.5001 287.352,-86 277.352,-82.5001 277.352,-89.5001"/>
</g>
<!-- Node7 -->
<g id="node7" class="node"><title>Node7</title>
<g id="a_node7"><a xlink:href="a00006.html#adf46370d9c211c3be22966b4606ba9b0" target="_top" xlink:title="free">
<polygon fill="none" stroke="black" points="327,-38.5 327,-57.5 360,-57.5 360,-38.5 327,-38.5"/>
<text text-anchor="middle" x="343.5" y="-45.5" font-family="Helvetica,sans-Serif" font-size="10.00">free</text>
</a>
</g>
</g>
<!-- Node2&#45;&gt;Node7 -->
<g id="edge6" class="edge"><title>Node2&#45;&gt;Node7</title>
<path fill="none" stroke="midnightblue" d="M244.031,-73.0288C268.553,-66.7958 296.874,-59.5972 316.831,-54.5246"/>
<polygon fill="midnightblue" stroke="midnightblue" points="317.88,-57.8693 326.71,-52.0136 316.156,-51.085 317.88,-57.8693"/>
</g>
<!-- Node8 -->
<g id="node8" class="node"><title>Node8</title>
<g id="a_node8"><a xlink:href="a00029.html#a222b05aa1f3416a31ddb08b5e2bfbff8" target="_top" xlink:title="Send message on connection. ">
<polygon fill="none" stroke="black" points="285,-0.5 285,-19.5 402,-19.5 402,-0.5 285,-0.5"/>
<text text-anchor="middle" x="343.5" y="-7.5" font-family="Helvetica,sans-Serif" font-size="10.00">hpd_tcpd_conn_vsendf</text>
</a>
</g>
</g>
<!-- Node2&#45;&gt;Node8 -->
<g id="edge7" class="edge"><title>Node2&#45;&gt;Node8</title>
<path fill="none" stroke="midnightblue" d="M212.437,-70.9299C229.472,-58.3088 255.302,-40.5537 280,-29 284.757,-26.7744 289.839,-24.7323 294.972,-22.88"/>
<polygon fill="midnightblue" stroke="midnightblue" points="296.477,-26.0662 304.834,-19.5538 294.24,-19.4333 296.477,-26.0662"/>
</g>
<!-- Node6 -->
<g id="node6" class="node"><title>Node6</title>
<g id="a_node6"><a xlink:href="a00045.html#a222b05aa1f3416a31ddb08b5e2bfbff8" target="_top" xlink:title="Send message on connection. ">
<polygon fill="none" stroke="black" points="443,-76.5 443,-95.5 560,-95.5 560,-76.5 443,-76.5"/>
<text text-anchor="middle" x="501.5" y="-83.5" font-family="Helvetica,sans-Serif" font-size="10.00">hpd_tcpd_conn_vsendf</text>
</a>
</g>
</g>
<!-- Node5&#45;&gt;Node6 -->
<g id="edge5" class="edge"><title>Node5&#45;&gt;Node6</title>
<path fill="none" stroke="midnightblue" d="M399.939,-86C410.491,-86 421.646,-86 432.536,-86"/>
<polygon fill="midnightblue" stroke="midnightblue" points="432.867,-89.5001 442.867,-86 432.867,-82.5001 432.867,-89.5001"/>
</g>
</g>
</svg>
