<?xml version="1.0" encoding="UTF-8" standalone="no"?>
<!DOCTYPE svg PUBLIC "-//W3C//DTD SVG 1.1//EN"
 "http://www.w3.org/Graphics/SVG/1.1/DTD/svg11.dtd">
<!-- Generated by graphviz version 2.38.0 (20140413.2041)
 -->
<!-- Title: on_detached Pages: 1 -->
<svg width="852pt" height="78pt"
 viewBox="0.00 0.00 852.00 77.50" xmlns="http://www.w3.org/2000/svg" xmlns:xlink="http://www.w3.org/1999/xlink">
<g id="graph0" class="graph" transform="scale(1 1) rotate(0) translate(4 73.5)">
<title>on_detached</title>
<!-- Node1 -->
<g id="node1" class="node"><title>Node1</title>
<polygon fill="#bfbfbf" stroke="black" points="0,-28 0,-47 72,-47 72,-28 0,-28"/>
<text text-anchor="middle" x="36" y="-35" font-family="Helvetica,sans-Serif" font-size="10.00">on_detached</text>
</g>
<!-- Node2 -->
<g id="node2" class="node"><title>Node2</title>
<g id="a_node2"><a xlink:href="a00063.html#a38f3fa1f45b7832adcbdd3f1af2bd9a4" target="_top" xlink:title="event_inform_device\l_detached">
<polygon fill="none" stroke="black" points="108,-22.5 108,-52.5 215,-52.5 215,-22.5 108,-22.5"/>
<text text-anchor="start" x="116" y="-40.5" font-family="Helvetica,sans-Serif" font-size="10.00">event_inform_device</text>
<text text-anchor="middle" x="161.5" y="-29.5" font-family="Helvetica,sans-Serif" font-size="10.00">_detached</text>
</a>
</g>
</g>
<!-- Node1&#45;&gt;Node2 -->
<g id="edge1" class="edge"><title>Node1&#45;&gt;Node2</title>
<path fill="none" stroke="midnightblue" d="M82.2963,-37.5C90.5979,-37.5 99.3274,-37.5 107.823,-37.5"/>
<polygon fill="midnightblue" stroke="midnightblue" points="82.0598,-34.0001 72.0598,-37.5 82.0598,-41.0001 82.0598,-34.0001"/>
</g>
<!-- Node3 -->
<g id="node3" class="node"><title>Node3</title>
<g id="a_node3"><a xlink:href="a00011.html#a8d6472e9a8006949786f5975d5b02648" target="_top" xlink:title="discovery_detach_device">
<polygon fill="none" stroke="black" points="251,-50 251,-69 378,-69 378,-50 251,-50"/>
<text text-anchor="middle" x="314.5" y="-57" font-family="Helvetica,sans-Serif" font-size="10.00">discovery_detach_device</text>
</a>
</g>
</g>
<!-- Node2&#45;&gt;Node3 -->
<g id="edge2" class="edge"><title>Node2&#45;&gt;Node3</title>
<path fill="none" stroke="midnightblue" d="M225.433,-46.6691C233.841,-47.8941 242.463,-49.1503 250.866,-50.3746"/>
<polygon fill="midnightblue" stroke="midnightblue" points="225.713,-43.1729 215.312,-45.1945 224.703,-50.0998 225.713,-43.1729"/>
</g>
<!-- Node5 -->
<g id="node5" class="node"><title>Node5</title>
<g id="a_node5"><a xlink:href="a00063.html#ab3279e57e3faeb9689b5b60283103ef2" target="_top" xlink:title="event_inform_adapter\l_detached">
<polygon fill="none" stroke="black" points="259.5,-0.5 259.5,-30.5 369.5,-30.5 369.5,-0.5 259.5,-0.5"/>
<text text-anchor="start" x="267.5" y="-18.5" font-family="Helvetica,sans-Serif" font-size="10.00">event_inform_adapter</text>
<text text-anchor="middle" x="314.5" y="-7.5" font-family="Helvetica,sans-Serif" font-size="10.00">_detached</text>
</a>
</g>
</g>
<!-- Node2&#45;&gt;Node5 -->
<g id="edge4" class="edge"><title>Node2&#45;&gt;Node5</title>
<path fill="none" stroke="midnightblue" d="M225.526,-28.3175C236.796,-26.6754 248.448,-24.9778 259.439,-23.3765"/>
<polygon fill="midnightblue" stroke="midnightblue" points="224.703,-24.9002 215.312,-29.8055 225.713,-31.8271 224.703,-24.9002"/>
</g>
<!-- Node4 -->
<g id="node4" class="node"><title>Node4</title>
<g id="a_node4"><a xlink:href="a00060.html#a228c00929674efd7d29edec9043b2da6" target="_top" xlink:title="hpd_device_detach">
<polygon fill="none" stroke="black" points="429,-50 429,-69 530,-69 530,-50 429,-50"/>
<text text-anchor="middle" x="479.5" y="-57" font-family="Helvetica,sans-Serif" font-size="10.00">hpd_device_detach</text>
</a>
</g>
</g>
<!-- Node3&#45;&gt;Node4 -->
<g id="edge3" class="edge"><title>Node3&#45;&gt;Node4</title>
<path fill="none" stroke="midnightblue" d="M388.399,-59.5C402.044,-59.5 416.015,-59.5 428.757,-59.5"/>
<polygon fill="midnightblue" stroke="midnightblue" points="388.054,-56.0001 378.054,-59.5 388.054,-63.0001 388.054,-56.0001"/>
</g>
<!-- Node6 -->
<g id="node6" class="node"><title>Node6</title>
<g id="a_node6"><a xlink:href="a00011.html#adb9f3d73fc28b0ec1c15d72b03db7239" target="_top" xlink:title="discovery_detach_adapter">
<polygon fill="none" stroke="black" points="414,-6 414,-25 545,-25 545,-6 414,-6"/>
<text text-anchor="middle" x="479.5" y="-13" font-family="Helvetica,sans-Serif" font-size="10.00">discovery_detach_adapter</text>
</a>
</g>
</g>
<!-- Node5&#45;&gt;Node6 -->
<g id="edge5" class="edge"><title>Node5&#45;&gt;Node6</title>
<path fill="none" stroke="midnightblue" d="M379.918,-15.5C391.127,-15.5 402.788,-15.5 413.999,-15.5"/>
<polygon fill="midnightblue" stroke="midnightblue" points="379.777,-12.0001 369.777,-15.5 379.777,-19.0001 379.777,-12.0001"/>
</g>
<!-- Node7 -->
<g id="node7" class="node"><title>Node7</title>
<g id="a_node7"><a xlink:href="a00060.html#ace6bdcd24107e5a84d35a2dc90d3c58e" target="_top" xlink:title="hpd_adapter_detach">
<polygon fill="none" stroke="black" points="581,-6 581,-25 685,-25 685,-6 581,-6"/>
<text text-anchor="middle" x="633" y="-13" font-family="Helvetica,sans-Serif" font-size="10.00">hpd_adapter_detach</text>
</a>
</g>
</g>
<!-- Node6&#45;&gt;Node7 -->
<g id="edge6" class="edge"><title>Node6&#45;&gt;Node7</title>
<path fill="none" stroke="midnightblue" d="M555.294,-15.5C563.93,-15.5 572.584,-15.5 580.805,-15.5"/>
<polygon fill="midnightblue" stroke="midnightblue" points="555.189,-12.0001 545.189,-15.5 555.189,-19.0001 555.189,-12.0001"/>
</g>
<!-- Node8 -->
<g id="node8" class="node"><title>Node8</title>
<g id="a_node8"><a xlink:href="a00012.html#a51ee1d39c3be7ad828e223b971bd1a96" target="_top" xlink:title="hpd_demo_adapter_stop">
<polygon fill="none" stroke="black" points="721,-6 721,-25 844,-25 844,-6 721,-6"/>
<text text-anchor="middle" x="782.5" y="-13" font-family="Helvetica,sans-Serif" font-size="10.00">hpd_demo_adapter_stop</text>
</a>
</g>
</g>
<!-- Node7&#45;&gt;Node8 -->
<g id="edge7" class="edge"><title>Node7&#45;&gt;Node8</title>
<path fill="none" stroke="midnightblue" d="M695.304,-15.5C703.724,-15.5 712.367,-15.5 720.776,-15.5"/>
<polygon fill="midnightblue" stroke="midnightblue" points="695.174,-12.0001 685.174,-15.5 695.174,-19.0001 695.174,-12.0001"/>
</g>
</g>
</svg>
