<?xml version="1.0" encoding="UTF-8" standalone="no"?>
<!DOCTYPE svg PUBLIC "-//W3C//DTD SVG 1.1//EN"
 "http://www.w3.org/Graphics/SVG/1.1/DTD/svg11.dtd">
<!-- Generated by graphviz version 2.38.0 (20140413.2041)
 -->
<!-- Title: hpd_tcpd_start Pages: 1 -->
<svg width="563pt" height="180pt"
 viewBox="0.00 0.00 563.00 180.00" xmlns="http://www.w3.org/2000/svg" xmlns:xlink="http://www.w3.org/1999/xlink">
<g id="graph0" class="graph" transform="scale(1 1) rotate(0) translate(4 176)">
<title>hpd_tcpd_start</title>
<!-- Node1 -->
<g id="node1" class="node"><title>Node1</title>
<polygon fill="#bfbfbf" stroke="black" points="0,-76.5 0,-95.5 81,-95.5 81,-76.5 0,-76.5"/>
<text text-anchor="middle" x="40.5" y="-83.5" font-family="Helvetica,sans-Serif" font-size="10.00">hpd_tcpd_start</text>
</g>
<!-- Node2 -->
<g id="node2" class="node"><title>Node2</title>
<g id="a_node2"><a xlink:href="a00059.html#abb961e40817da63331e90988b5ac71db" target="_top" xlink:title="Initialise and accept connection. ">
<polygon fill="none" stroke="black" points="117,-76.5 117,-95.5 210,-95.5 210,-76.5 117,-76.5"/>
<text text-anchor="middle" x="163.5" y="-83.5" font-family="Helvetica,sans-Serif" font-size="10.00">tcpd_on_ev_conn</text>
</a>
</g>
</g>
<!-- Node1&#45;&gt;Node2 -->
<g id="edge1" class="edge"><title>Node1&#45;&gt;Node2</title>
<path fill="none" stroke="midnightblue" d="M81.1199,-86C89.3433,-86 98.1534,-86 106.83,-86"/>
<polygon fill="midnightblue" stroke="midnightblue" points="106.911,-89.5001 116.911,-86 106.911,-82.5001 106.911,-89.5001"/>
</g>
<!-- Node3 -->
<g id="node3" class="node"><title>Node3</title>
<g id="a_node3"><a xlink:href="a00059.html#a3a531c9877cd100d9f41193324071b20" target="_top" xlink:title="Get the in_addr from a sockaddr (IPv4 or IPv6) ">
<polygon fill="none" stroke="black" points="252.5,-152.5 252.5,-171.5 343.5,-171.5 343.5,-152.5 252.5,-152.5"/>
<text text-anchor="middle" x="298" y="-159.5" font-family="Helvetica,sans-Serif" font-size="10.00">tcpd_get_in_addr</text>
</a>
</g>
</g>
<!-- Node2&#45;&gt;Node3 -->
<g id="edge2" class="edge"><title>Node2&#45;&gt;Node3</title>
<path fill="none" stroke="midnightblue" d="M178.302,-95.5778C194.251,-106.461 221.454,-124.467 246,-138 252.276,-141.46 259.135,-144.905 265.729,-148.059"/>
<polygon fill="midnightblue" stroke="midnightblue" points="264.562,-151.377 275.104,-152.442 267.527,-145.036 264.562,-151.377"/>
</g>
<!-- Node4 -->
<g id="node4" class="node"><title>Node4</title>
<g id="a_node4"><a xlink:href="a00059.html#a58068e1a4c60b401bc6fc99c25e9a3f6" target="_top" xlink:title="Kill and clean up after a connection. ">
<polygon fill="none" stroke="black" points="386,-38.5 386,-57.5 486,-57.5 486,-38.5 386,-38.5"/>
<text text-anchor="middle" x="436" y="-45.5" font-family="Helvetica,sans-Serif" font-size="10.00">hpd_tcpd_conn_kill</text>
</a>
</g>
</g>
<!-- Node2&#45;&gt;Node4 -->
<g id="edge3" class="edge"><title>Node2&#45;&gt;Node4</title>
<path fill="none" stroke="midnightblue" d="M192.499,-95.5508C229.399,-106.642 295.955,-121.444 350,-105 376.055,-97.0725 401.382,-78.2033 417.512,-64.3373"/>
<polygon fill="midnightblue" stroke="midnightblue" points="419.913,-66.8856 425.064,-57.6268 415.264,-61.6531 419.913,-66.8856"/>
</g>
<!-- Node6 -->
<g id="node6" class="node"><title>Node6</title>
<g id="a_node6"><a xlink:href="a00059.html#adf33f6d087797ec03366e58ff1dd3b10" target="_top" xlink:title="Recieve callback for io&#45;watcher. ">
<polygon fill="none" stroke="black" points="252.5,-76.5 252.5,-95.5 343.5,-95.5 343.5,-76.5 252.5,-76.5"/>
<text text-anchor="middle" x="298" y="-83.5" font-family="Helvetica,sans-Serif" font-size="10.00">tcpd_on_ev_recv</text>
</a>
</g>
</g>
<!-- Node2&#45;&gt;Node6 -->
<g id="edge5" class="edge"><title>Node2&#45;&gt;Node6</title>
<path fill="none" stroke="midnightblue" d="M210.099,-86C220.424,-86 231.492,-86 242.154,-86"/>
<polygon fill="midnightblue" stroke="midnightblue" points="242.214,-89.5001 252.214,-86 242.214,-82.5001 242.214,-89.5001"/>
</g>
<!-- Node7 -->
<g id="node7" class="node"><title>Node7</title>
<g id="a_node7"><a xlink:href="a00059.html#a315426573cd6d02c940c3af0e9444962" target="_top" xlink:title="Send callback for io&#45;watcher. ">
<polygon fill="none" stroke="black" points="251.5,-0.5 251.5,-19.5 344.5,-19.5 344.5,-0.5 251.5,-0.5"/>
<text text-anchor="middle" x="298" y="-7.5" font-family="Helvetica,sans-Serif" font-size="10.00">tcpd_on_ev_send</text>
</a>
</g>
</g>
<!-- Node2&#45;&gt;Node7 -->
<g id="edge7" class="edge"><title>Node2&#45;&gt;Node7</title>
<path fill="none" stroke="midnightblue" d="M176.306,-76.289C191.631,-64.0347 219.553,-42.8856 246,-29 249.812,-26.9988 253.882,-25.1081 257.998,-23.3519"/>
<polygon fill="midnightblue" stroke="midnightblue" points="259.605,-26.4785 267.586,-19.5097 257.002,-19.9808 259.605,-26.4785"/>
</g>
<!-- Node8 -->
<g id="node8" class="node"><title>Node8</title>
<g id="a_node8"><a xlink:href="a00059.html#a238701c30010d2d01945727348f6ad1c" target="_top" xlink:title="Timeout callback for timeout watcher. ">
<polygon fill="none" stroke="black" points="246,-38.5 246,-57.5 350,-57.5 350,-38.5 246,-38.5"/>
<text text-anchor="middle" x="298" y="-45.5" font-family="Helvetica,sans-Serif" font-size="10.00">tcpd_on_ev_timeout</text>
</a>
</g>
</g>
<!-- Node2&#45;&gt;Node8 -->
<g id="edge10" class="edge"><title>Node2&#45;&gt;Node8</title>
<path fill="none" stroke="midnightblue" d="M197.935,-76.411C214.883,-71.5506 235.663,-65.5909 253.808,-60.3873"/>
<polygon fill="midnightblue" stroke="midnightblue" points="254.928,-63.7072 263.575,-57.5859 252.998,-56.9784 254.928,-63.7072"/>
</g>
<!-- Node5 -->
<g id="node5" class="node"><title>Node5</title>
<g id="a_node5"><a xlink:href="a00012.html#adf46370d9c211c3be22966b4606ba9b0" target="_top" xlink:title="free">
<polygon fill="none" stroke="black" points="522,-19.5 522,-38.5 555,-38.5 555,-19.5 522,-19.5"/>
<text text-anchor="middle" x="538.5" y="-26.5" font-family="Helvetica,sans-Serif" font-size="10.00">free</text>
</a>
</g>
</g>
<!-- Node4&#45;&gt;Node5 -->
<g id="edge4" class="edge"><title>Node4&#45;&gt;Node5</title>
<path fill="none" stroke="midnightblue" d="M486.072,-38.7226C494.979,-37.0388 503.935,-35.3457 511.82,-33.8549"/>
<polygon fill="midnightblue" stroke="midnightblue" points="512.628,-37.2642 521.804,-31.9674 511.328,-30.3861 512.628,-37.2642"/>
</g>
<!-- Node6&#45;&gt;Node4 -->
<g id="edge6" class="edge"><title>Node6&#45;&gt;Node4</title>
<path fill="none" stroke="midnightblue" d="M333.319,-76.411C350.794,-71.5281 372.241,-65.5357 390.925,-60.315"/>
<polygon fill="midnightblue" stroke="midnightblue" points="392.003,-63.6479 400.692,-57.5859 390.119,-56.9062 392.003,-63.6479"/>
</g>
<!-- Node7&#45;&gt;Node4 -->
<g id="edge9" class="edge"><title>Node7&#45;&gt;Node4</title>
<path fill="none" stroke="midnightblue" d="M333.319,-19.589C350.794,-24.4719 372.241,-30.4643 390.925,-35.685"/>
<polygon fill="midnightblue" stroke="midnightblue" points="390.119,-39.0938 400.692,-38.4141 392.003,-32.3521 390.119,-39.0938"/>
</g>
<!-- Node7&#45;&gt;Node5 -->
<g id="edge8" class="edge"><title>Node7&#45;&gt;Node5</title>
<path fill="none" stroke="midnightblue" d="M344.703,-13.6409C394.387,-17.5989 472.014,-23.7831 511.918,-26.962"/>
<polygon fill="midnightblue" stroke="midnightblue" points="511.646,-30.4513 521.892,-27.7566 512.202,-23.4734 511.646,-30.4513"/>
</g>
<!-- Node8&#45;&gt;Node4 -->
<g id="edge11" class="edge"><title>Node8&#45;&gt;Node4</title>
<path fill="none" stroke="midnightblue" d="M350.028,-48C358.479,-48 367.304,-48 375.934,-48"/>
<polygon fill="midnightblue" stroke="midnightblue" points="375.94,-51.5001 385.94,-48 375.94,-44.5001 375.94,-51.5001"/>
</g>
</g>
</svg>
