<?xml version="1.0" encoding="UTF-8" standalone="no"?>
<!DOCTYPE svg PUBLIC "-//W3C//DTD SVG 1.1//EN"
 "http://www.w3.org/Graphics/SVG/1.1/DTD/svg11.dtd">
<!-- Generated by graphviz version 2.38.0 (20140413.2041)
 -->
<!-- Title: curl_ev_init_curl_handle Pages: 1 -->
<svg width="263pt" height="66pt"
 viewBox="0.00 0.00 263.00 66.00" xmlns="http://www.w3.org/2000/svg" xmlns:xlink="http://www.w3.org/1999/xlink">
<g id="graph0" class="graph" transform="scale(1 1) rotate(0) translate(4 62)">
<title>curl_ev_init_curl_handle</title>
<!-- Node1 -->
<g id="node1" class="node"><title>Node1</title>
<polygon fill="#bfbfbf" stroke="black" points="0,-19.5 0,-38.5 121,-38.5 121,-19.5 0,-19.5"/>
<text text-anchor="middle" x="60.5" y="-26.5" font-family="Helvetica,sans-Serif" font-size="10.00">curl_ev_init_curl_handle</text>
</g>
<!-- Node2 -->
<g id="node2" class="node"><title>Node2</title>
<g id="a_node2"><a xlink:href="a00045.html#a0ced84a42ddb41730c1bd167909740ed" target="_top" xlink:title="curl_ev_on_header">
<polygon fill="none" stroke="black" points="157,-38.5 157,-57.5 255,-57.5 255,-38.5 157,-38.5"/>
<text text-anchor="middle" x="206" y="-45.5" font-family="Helvetica,sans-Serif" font-size="10.00">curl_ev_on_header</text>
</a>
</g>
</g>
<!-- Node1&#45;&gt;Node2 -->
<g id="edge1" class="edge"><title>Node1&#45;&gt;Node2</title>
<path fill="none" stroke="midnightblue" d="M121.11,-36.8926C129.541,-38.0089 138.202,-39.1557 146.61,-40.2689"/>
<polygon fill="midnightblue" stroke="midnightblue" points="146.334,-43.7628 156.707,-41.6057 147.252,-36.8234 146.334,-43.7628"/>
</g>
<!-- Node3 -->
<g id="node3" class="node"><title>Node3</title>
<g id="a_node3"><a xlink:href="a00045.html#a87b1ef1482263495bc6743746b5730cd" target="_top" xlink:title="curl_ev_on_body">
<polygon fill="none" stroke="black" points="161,-0.5 161,-19.5 251,-19.5 251,-0.5 161,-0.5"/>
<text text-anchor="middle" x="206" y="-7.5" font-family="Helvetica,sans-Serif" font-size="10.00">curl_ev_on_body</text>
</a>
</g>
</g>
<!-- Node1&#45;&gt;Node3 -->
<g id="edge2" class="edge"><title>Node1&#45;&gt;Node3</title>
<path fill="none" stroke="midnightblue" d="M121.11,-21.1074C130.837,-19.8195 140.87,-18.4911 150.467,-17.2204"/>
<polygon fill="midnightblue" stroke="midnightblue" points="151.219,-20.6514 160.673,-15.869 150.3,-13.712 151.219,-20.6514"/>
</g>
</g>
</svg>
