<?xml version="1.0" encoding="UTF-8" standalone="no"?>
<!DOCTYPE svg PUBLIC "-//W3C//DTD SVG 1.1//EN"
 "http://www.w3.org/Graphics/SVG/1.1/DTD/svg11.dtd">
<!-- Generated by graphviz version 2.38.0 (20140413.2041)
 -->
<!-- Title: on_path_segment Pages: 1 -->
<svg width="260pt" height="104pt"
 viewBox="0.00 0.00 260.00 104.00" xmlns="http://www.w3.org/2000/svg" xmlns:xlink="http://www.w3.org/1999/xlink">
<g id="graph0" class="graph" transform="scale(1 1) rotate(0) translate(4 100)">
<title>on_path_segment</title>
<!-- Node1 -->
<g id="node1" class="node"><title>Node1</title>
<polygon fill="#bfbfbf" stroke="black" points="0,-38.5 0,-57.5 94,-57.5 94,-38.5 0,-38.5"/>
<text text-anchor="middle" x="47" y="-45.5" font-family="Helvetica,sans-Serif" font-size="10.00">on_path_segment</text>
</g>
<!-- Node2 -->
<g id="node2" class="node"><title>Node2</title>
<g id="a_node2"><a xlink:href="a00051.html#a3e22da197083e90a2456a4ccd8a374d0" target="_top" xlink:title="ASSERT_EQUAL">
<polygon fill="none" stroke="black" points="143,-76.5 143,-95.5 239,-95.5 239,-76.5 143,-76.5"/>
<text text-anchor="middle" x="191" y="-83.5" font-family="Helvetica,sans-Serif" font-size="10.00">ASSERT_EQUAL</text>
</a>
</g>
</g>
<!-- Node1&#45;&gt;Node2 -->
<g id="edge1" class="edge"><title>Node1&#45;&gt;Node2</title>
<path fill="none" stroke="midnightblue" d="M83.8326,-57.589C102.163,-62.4944 124.678,-68.5196 144.25,-73.7571"/>
<polygon fill="midnightblue" stroke="midnightblue" points="143.614,-77.2099 154.179,-76.4141 145.424,-70.4479 143.614,-77.2099"/>
</g>
<!-- Node3 -->
<g id="node3" class="node"><title>Node3</title>
<g id="a_node3"><a xlink:href="a00012.html#a51f456ebe77d933182a7f264e8aad6e9" target="_top" xlink:title="ASSERT_STR_EQUAL">
<polygon fill="none" stroke="black" points="130,-38.5 130,-57.5 252,-57.5 252,-38.5 130,-38.5"/>
<text text-anchor="middle" x="191" y="-45.5" font-family="Helvetica,sans-Serif" font-size="10.00">ASSERT_STR_EQUAL</text>
</a>
</g>
</g>
<!-- Node1&#45;&gt;Node3 -->
<g id="edge2" class="edge"><title>Node1&#45;&gt;Node3</title>
<path fill="none" stroke="midnightblue" d="M94.1033,-48C102.31,-48 111.026,-48 119.726,-48"/>
<polygon fill="midnightblue" stroke="midnightblue" points="119.902,-51.5001 129.902,-48 119.902,-44.5001 119.902,-51.5001"/>
</g>
<!-- Node4 -->
<g id="node4" class="node"><title>Node4</title>
<g id="a_node4"><a xlink:href="a00012.html#adf46370d9c211c3be22966b4606ba9b0" target="_top" xlink:title="free">
<polygon fill="none" stroke="black" points="174.5,-0.5 174.5,-19.5 207.5,-19.5 207.5,-0.5 174.5,-0.5"/>
<text text-anchor="middle" x="191" y="-7.5" font-family="Helvetica,sans-Serif" font-size="10.00">free</text>
</a>
</g>
</g>
<!-- Node1&#45;&gt;Node4 -->
<g id="edge3" class="edge"><title>Node1&#45;&gt;Node4</title>
<path fill="none" stroke="midnightblue" d="M83.8326,-38.411C108.941,-31.6918 141.9,-22.8719 164.392,-16.8528"/>
<polygon fill="midnightblue" stroke="midnightblue" points="165.463,-20.1895 174.218,-14.2233 163.653,-13.4274 165.463,-20.1895"/>
</g>
</g>
</svg>
