<?xml version="1.0" encoding="UTF-8" standalone="no"?>
<!DOCTYPE svg PUBLIC "-//W3C//DTD SVG 1.1//EN"
 "http://www.w3.org/Graphics/SVG/1.1/DTD/svg11.dtd">
<!-- Generated by graphviz version 2.38.0 (20140413.2041)
 -->
<!-- Title: hpd_tcpd_conn_kill Pages: 1 -->
<svg width="1229pt" height="598pt"
 viewBox="0.00 0.00 1229.00 598.00" xmlns="http://www.w3.org/2000/svg" xmlns:xlink="http://www.w3.org/1999/xlink">
<g id="graph0" class="graph" transform="scale(1 1) rotate(0) translate(4 594)">
<title>hpd_tcpd_conn_kill</title>
<!-- Node1 -->
<g id="node1" class="node"><title>Node1</title>
<polygon fill="#bfbfbf" stroke="black" points="0,-475.5 0,-494.5 100,-494.5 100,-475.5 0,-475.5"/>
<text text-anchor="middle" x="50" y="-482.5" font-family="Helvetica,sans-Serif" font-size="10.00">hpd_tcpd_conn_kill</text>
</g>
<!-- Node2 -->
<g id="node2" class="node"><title>Node2</title>
<g id="a_node2"><a xlink:href="a00059.html#adf33f6d087797ec03366e58ff1dd3b10" target="_top" xlink:title="Recieve callback for io&#45;watcher. ">
<polygon fill="none" stroke="black" points="146,-456.5 146,-475.5 237,-475.5 237,-456.5 146,-456.5"/>
<text text-anchor="middle" x="191.5" y="-463.5" font-family="Helvetica,sans-Serif" font-size="10.00">tcpd_on_ev_recv</text>
</a>
</g>
</g>
<!-- Node1&#45;&gt;Node2 -->
<g id="edge1" class="edge"><title>Node1&#45;&gt;Node2</title>
<path fill="none" stroke="midnightblue" d="M110.129,-476.947C122.128,-475.312 134.557,-473.62 145.949,-472.068"/>
<polygon fill="midnightblue" stroke="midnightblue" points="109.619,-473.484 100.182,-478.301 110.563,-480.42 109.619,-473.484"/>
</g>
<!-- Node3 -->
<g id="node3" class="node"><title>Node3</title>
<g id="a_node3"><a xlink:href="a00059.html#abb961e40817da63331e90988b5ac71db" target="_top" xlink:title="Initialise and accept connection. ">
<polygon fill="none" stroke="black" points="288.5,-513.5 288.5,-532.5 381.5,-532.5 381.5,-513.5 288.5,-513.5"/>
<text text-anchor="middle" x="335" y="-520.5" font-family="Helvetica,sans-Serif" font-size="10.00">tcpd_on_ev_conn</text>
</a>
</g>
</g>
<!-- Node1&#45;&gt;Node3 -->
<g id="edge12" class="edge"><title>Node1&#45;&gt;Node3</title>
<path fill="none" stroke="midnightblue" d="M110.223,-492.952C163.163,-500.061 239.647,-510.331 288.079,-516.834"/>
<polygon fill="midnightblue" stroke="midnightblue" points="110.672,-489.481 100.295,-491.619 109.74,-496.419 110.672,-489.481"/>
</g>
<!-- Node9 -->
<g id="node9" class="node"><title>Node9</title>
<g id="a_node9"><a xlink:href="a00059.html#a315426573cd6d02c940c3af0e9444962" target="_top" xlink:title="Send callback for io&#45;watcher. ">
<polygon fill="none" stroke="black" points="145,-570.5 145,-589.5 238,-589.5 238,-570.5 145,-570.5"/>
<text text-anchor="middle" x="191.5" y="-577.5" font-family="Helvetica,sans-Serif" font-size="10.00">tcpd_on_ev_send</text>
</a>
</g>
</g>
<!-- Node1&#45;&gt;Node9 -->
<g id="edge8" class="edge"><title>Node1&#45;&gt;Node9</title>
<path fill="none" stroke="midnightblue" d="M66.4294,-502.313C82.3829,-519.303 108.739,-544.936 136,-561 142.302,-564.714 149.442,-567.854 156.428,-570.447"/>
<polygon fill="midnightblue" stroke="midnightblue" points="68.8191,-499.741 59.475,-494.747 63.6653,-504.478 68.8191,-499.741"/>
</g>
<!-- Node10 -->
<g id="node10" class="node"><title>Node10</title>
<g id="a_node10"><a xlink:href="a00059.html#a238701c30010d2d01945727348f6ad1c" target="_top" xlink:title="Timeout callback for timeout watcher. ">
<polygon fill="none" stroke="black" points="139.5,-532.5 139.5,-551.5 243.5,-551.5 243.5,-532.5 139.5,-532.5"/>
<text text-anchor="middle" x="191.5" y="-539.5" font-family="Helvetica,sans-Serif" font-size="10.00">tcpd_on_ev_timeout</text>
</a>
</g>
</g>
<!-- Node1&#45;&gt;Node10 -->
<g id="edge10" class="edge"><title>Node1&#45;&gt;Node10</title>
<path fill="none" stroke="midnightblue" d="M83.6501,-498.341C109.235,-508.795 144.214,-523.087 167.075,-532.428"/>
<polygon fill="midnightblue" stroke="midnightblue" points="84.9301,-495.083 74.3492,-494.541 82.2823,-501.563 84.9301,-495.083"/>
</g>
<!-- Node11 -->
<g id="node11" class="node"><title>Node11</title>
<g id="a_node11"><a xlink:href="a00059.html#ae1b6a900f62d2b677480abfb7163b0d0" target="_top" xlink:title="Stop an already running tcpd. ">
<polygon fill="none" stroke="black" points="295,-437.5 295,-456.5 375,-456.5 375,-437.5 295,-437.5"/>
<text text-anchor="middle" x="335" y="-444.5" font-family="Helvetica,sans-Serif" font-size="10.00">hpd_tcpd_stop</text>
</a>
</g>
</g>
<!-- Node1&#45;&gt;Node11 -->
<g id="edge13" class="edge"><title>Node1&#45;&gt;Node11</title>
<path fill="none" stroke="midnightblue" d="M75.8654,-470.528C92.3255,-461.809 114.724,-451.539 136,-447 190.126,-435.452 254.485,-438.429 294.798,-442.229"/>
<polygon fill="midnightblue" stroke="midnightblue" points="74.0049,-467.557 66.9136,-475.428 77.366,-473.697 74.0049,-467.557"/>
</g>
<!-- Node16 -->
<g id="node16" class="node"><title>Node16</title>
<g id="a_node16"><a xlink:href="a00059.html#a494a1841a6c8963c10f5d3a6b662f014" target="_top" xlink:title="Close a connection, after the remaining data has been sent. ">
<polygon fill="none" stroke="black" points="136,-330.5 136,-349.5 247,-349.5 247,-330.5 136,-330.5"/>
<text text-anchor="middle" x="191.5" y="-337.5" font-family="Helvetica,sans-Serif" font-size="10.00">hpd_tcpd_conn_close</text>
</a>
</g>
</g>
<!-- Node1&#45;&gt;Node16 -->
<g id="edge20" class="edge"><title>Node1&#45;&gt;Node16</title>
<path fill="none" stroke="midnightblue" d="M67.2188,-468.142C96.5992,-437.603 157.748,-374.043 181.13,-349.739"/>
<polygon fill="midnightblue" stroke="midnightblue" points="64.5638,-465.853 60.153,-475.486 69.6083,-470.706 64.5638,-465.853"/>
</g>
<!-- Node2&#45;&gt;Node3 -->
<g id="edge2" class="edge"><title>Node2&#45;&gt;Node3</title>
<path fill="none" stroke="midnightblue" d="M225.618,-479.341C251.57,-489.795 287.05,-504.087 310.239,-513.428"/>
<polygon fill="midnightblue" stroke="midnightblue" points="226.767,-476.031 216.184,-475.541 224.152,-482.524 226.767,-476.031"/>
</g>
<!-- Node4 -->
<g id="node4" class="node"><title>Node4</title>
<g id="a_node4"><a xlink:href="a00059.html#ae77def0ed256affe27ea6ce37bf0ebf7" target="_top" xlink:title="Start the tcpd. ">
<polygon fill="none" stroke="black" points="434.5,-513.5 434.5,-532.5 515.5,-532.5 515.5,-513.5 434.5,-513.5"/>
<text text-anchor="middle" x="475" y="-520.5" font-family="Helvetica,sans-Serif" font-size="10.00">hpd_tcpd_start</text>
</a>
</g>
</g>
<!-- Node3&#45;&gt;Node4 -->
<g id="edge3" class="edge"><title>Node3&#45;&gt;Node4</title>
<path fill="none" stroke="midnightblue" d="M391.81,-523C406.116,-523 421.207,-523 434.499,-523"/>
<polygon fill="midnightblue" stroke="midnightblue" points="391.569,-519.5 381.569,-523 391.569,-526.5 391.569,-519.5"/>
</g>
<!-- Node5 -->
<g id="node5" class="node"><title>Node5</title>
<g id="a_node5"><a xlink:href="a00024.html#ab26dd9acbd2ec17e5863a50f01e70e65" target="_top" xlink:title="Start a httpd instance. ">
<polygon fill="none" stroke="black" points="563,-532.5 563,-551.5 647,-551.5 647,-532.5 563,-532.5"/>
<text text-anchor="middle" x="605" y="-539.5" font-family="Helvetica,sans-Serif" font-size="10.00">hpd_httpd_start</text>
</a>
</g>
</g>
<!-- Node4&#45;&gt;Node5 -->
<g id="edge4" class="edge"><title>Node4&#45;&gt;Node5</title>
<path fill="none" stroke="midnightblue" d="M525.878,-530.404C538.132,-532.223 551.113,-534.15 562.9,-535.899"/>
<polygon fill="midnightblue" stroke="midnightblue" points="526.204,-526.914 515.798,-528.908 525.176,-533.838 526.204,-526.914"/>
</g>
<!-- Node8 -->
<g id="node8" class="node"><title>Node8</title>
<g id="a_node8"><a xlink:href="a00057.html#a0ddf1224851353fc92bfbff6f499fa97" target="_top" xlink:title="main">
<polygon fill="none" stroke="black" points="586,-494.5 586,-513.5 624,-513.5 624,-494.5 586,-494.5"/>
<text text-anchor="middle" x="605" y="-501.5" font-family="Helvetica,sans-Serif" font-size="10.00">main</text>
</a>
</g>
</g>
<!-- Node4&#45;&gt;Node8 -->
<g id="edge7" class="edge"><title>Node4&#45;&gt;Node8</title>
<path fill="none" stroke="midnightblue" d="M525.965,-515.583C547.115,-512.444 570.415,-508.985 586,-506.672"/>
<polygon fill="midnightblue" stroke="midnightblue" points="525.176,-512.162 515.798,-517.092 526.204,-519.086 525.176,-512.162"/>
</g>
<!-- Node6 -->
<g id="node6" class="node"><title>Node6</title>
<g id="a_node6"><a xlink:href="a00047.html#a0ddf1224851353fc92bfbff6f499fa97" target="_top" xlink:title="main">
<polygon fill="none" stroke="black" points="723,-418.5 723,-437.5 761,-437.5 761,-418.5 723,-418.5"/>
<text text-anchor="middle" x="742" y="-425.5" font-family="Helvetica,sans-Serif" font-size="10.00">main</text>
</a>
</g>
</g>
<!-- Node5&#45;&gt;Node6 -->
<g id="edge5" class="edge"><title>Node5&#45;&gt;Node6</title>
<path fill="none" stroke="midnightblue" d="M639.556,-527.686C642.14,-526.214 644.653,-524.649 647,-523 683.644,-497.262 718.463,-456.336 733.381,-437.752"/>
<polygon fill="midnightblue" stroke="midnightblue" points="637.899,-524.603 630.638,-532.318 641.126,-530.815 637.899,-524.603"/>
</g>
<!-- Node7 -->
<g id="node7" class="node"><title>Node7</title>
<g id="a_node7"><a xlink:href="a00034.html#afb0f14177aa99ed8b660835d80f0abff" target="_top" xlink:title="rest_on_start">
<polygon fill="none" stroke="black" points="705,-532.5 705,-551.5 779,-551.5 779,-532.5 705,-532.5"/>
<text text-anchor="middle" x="742" y="-539.5" font-family="Helvetica,sans-Serif" font-size="10.00">rest_on_start</text>
</a>
</g>
</g>
<!-- Node5&#45;&gt;Node7 -->
<g id="edge6" class="edge"><title>Node5&#45;&gt;Node7</title>
<path fill="none" stroke="midnightblue" d="M657.359,-542C673.093,-542 690.069,-542 704.589,-542"/>
<polygon fill="midnightblue" stroke="midnightblue" points="657.238,-538.5 647.238,-542 657.238,-545.5 657.238,-538.5"/>
</g>
<!-- Node9&#45;&gt;Node3 -->
<g id="edge9" class="edge"><title>Node9&#45;&gt;Node3</title>
<path fill="none" stroke="midnightblue" d="M230.861,-567.04C236.303,-565.082 241.811,-563.034 247,-561 270.017,-551.976 295.93,-540.481 313.443,-532.508"/>
<polygon fill="midnightblue" stroke="midnightblue" points="229.481,-563.816 221.219,-570.448 231.814,-570.416 229.481,-563.816"/>
</g>
<!-- Node10&#45;&gt;Node3 -->
<g id="edge11" class="edge"><title>Node10&#45;&gt;Node3</title>
<path fill="none" stroke="midnightblue" d="M253.639,-533.791C265.219,-532.236 277.149,-530.634 288.157,-529.156"/>
<polygon fill="midnightblue" stroke="midnightblue" points="253.03,-530.341 243.585,-535.141 253.962,-537.279 253.03,-530.341"/>
</g>
<!-- Node12 -->
<g id="node12" class="node"><title>Node12</title>
<g id="a_node12"><a xlink:href="a00024.html#a4404f8d3cbdf72597c7cc5ce8ee96a6a" target="_top" xlink:title="Stop a httpd instance. ">
<polygon fill="none" stroke="black" points="433.5,-437.5 433.5,-456.5 516.5,-456.5 516.5,-437.5 433.5,-437.5"/>
<text text-anchor="middle" x="475" y="-444.5" font-family="Helvetica,sans-Serif" font-size="10.00">hpd_httpd_stop</text>
</a>
</g>
</g>
<!-- Node11&#45;&gt;Node12 -->
<g id="edge14" class="edge"><title>Node11&#45;&gt;Node12</title>
<path fill="none" stroke="midnightblue" d="M385.262,-447C400.997,-447 418.227,-447 433.284,-447"/>
<polygon fill="midnightblue" stroke="midnightblue" points="385.176,-443.5 375.176,-447 385.176,-450.5 385.176,-443.5"/>
</g>
<!-- Node15 -->
<g id="node15" class="node"><title>Node15</title>
<g id="a_node15"><a xlink:href="a00057.html#a49f6d3bb9d22d5b9cf5c7eb6175318d1" target="_top" xlink:title="exit_handler">
<polygon fill="none" stroke="black" points="440.5,-475.5 440.5,-494.5 509.5,-494.5 509.5,-475.5 440.5,-475.5"/>
<text text-anchor="middle" x="475" y="-482.5" font-family="Helvetica,sans-Serif" font-size="10.00">exit_handler</text>
</a>
</g>
</g>
<!-- Node11&#45;&gt;Node15 -->
<g id="edge18" class="edge"><title>Node11&#45;&gt;Node15</title>
<path fill="none" stroke="midnightblue" d="M380.625,-459.288C399.952,-464.61 422.208,-470.738 440.142,-475.677"/>
<polygon fill="midnightblue" stroke="midnightblue" points="381.394,-455.869 370.823,-456.589 379.535,-462.618 381.394,-455.869"/>
</g>
<!-- Node13 -->
<g id="node13" class="node"><title>Node13</title>
<g id="a_node13"><a xlink:href="a00047.html#a49f6d3bb9d22d5b9cf5c7eb6175318d1" target="_top" xlink:title="exit_handler">
<polygon fill="none" stroke="black" points="570.5,-418.5 570.5,-437.5 639.5,-437.5 639.5,-418.5 570.5,-418.5"/>
<text text-anchor="middle" x="605" y="-425.5" font-family="Helvetica,sans-Serif" font-size="10.00">exit_handler</text>
</a>
</g>
</g>
<!-- Node12&#45;&gt;Node13 -->
<g id="edge15" class="edge"><title>Node12&#45;&gt;Node13</title>
<path fill="none" stroke="midnightblue" d="M526.799,-439.46C541.446,-437.285 557.058,-434.968 570.383,-432.99"/>
<polygon fill="midnightblue" stroke="midnightblue" points="526.23,-436.006 516.852,-440.936 527.257,-442.93 526.23,-436.006"/>
</g>
<!-- Node14 -->
<g id="node14" class="node"><title>Node14</title>
<g id="a_node14"><a xlink:href="a00034.html#a51a914014e35d07de029f075498a613d" target="_top" xlink:title="rest_on_stop">
<polygon fill="none" stroke="black" points="568.5,-456.5 568.5,-475.5 641.5,-475.5 641.5,-456.5 568.5,-456.5"/>
<text text-anchor="middle" x="605" y="-463.5" font-family="Helvetica,sans-Serif" font-size="10.00">rest_on_stop</text>
</a>
</g>
</g>
<!-- Node12&#45;&gt;Node14 -->
<g id="edge17" class="edge"><title>Node12&#45;&gt;Node14</title>
<path fill="none" stroke="midnightblue" d="M526.773,-454.537C540.664,-456.599 555.425,-458.79 568.28,-460.698"/>
<polygon fill="midnightblue" stroke="midnightblue" points="527.257,-451.07 516.852,-453.064 526.23,-457.994 527.257,-451.07"/>
</g>
<!-- Node13&#45;&gt;Node6 -->
<g id="edge16" class="edge"><title>Node13&#45;&gt;Node6</title>
<path fill="none" stroke="midnightblue" d="M649.943,-428C674.592,-428 704.033,-428 722.626,-428"/>
<polygon fill="midnightblue" stroke="midnightblue" points="649.718,-424.5 639.718,-428 649.718,-431.5 649.718,-424.5"/>
</g>
<!-- Node15&#45;&gt;Node8 -->
<g id="edge19" class="edge"><title>Node15&#45;&gt;Node8</title>
<path fill="none" stroke="midnightblue" d="M519.73,-491.491C542.392,-494.855 568.835,-498.78 585.97,-501.324"/>
<polygon fill="midnightblue" stroke="midnightblue" points="520.036,-487.998 509.63,-489.992 519.008,-494.922 520.036,-487.998"/>
</g>
<!-- Node17 -->
<g id="node17" class="node"><title>Node17</title>
<g id="a_node17"><a xlink:href="a00026.html#a36a5feca39485163b3ef446c9e3171a3" target="_top" xlink:title="Destroy a hpd_httpd_response. ">
<polygon fill="none" stroke="black" points="283,-293 283,-323 387,-323 387,-293 283,-293"/>
<text text-anchor="start" x="291" y="-311" font-family="Helvetica,sans-Serif" font-size="10.00">hpd_httpd_response</text>
<text text-anchor="middle" x="335" y="-300" font-family="Helvetica,sans-Serif" font-size="10.00">_destroy</text>
</a>
</g>
</g>
<!-- Node16&#45;&gt;Node17 -->
<g id="edge21" class="edge"><title>Node16&#45;&gt;Node17</title>
<path fill="none" stroke="midnightblue" d="M244.409,-328.261C256.945,-325.426 270.331,-322.399 282.832,-319.571"/>
<polygon fill="midnightblue" stroke="midnightblue" points="243.553,-324.866 234.572,-330.486 245.097,-331.694 243.553,-324.866"/>
</g>
<!-- Node18 -->
<g id="node18" class="node"><title>Node18</title>
<g id="a_node18"><a xlink:href="a00026.html#a3b100e8d7e1214067cf1b90ad577745c" target="_top" xlink:title="Create the reponse and constructs the status line. ">
<polygon fill="none" stroke="black" points="423,-293 423,-323 527,-323 527,-293 423,-293"/>
<text text-anchor="start" x="431" y="-311" font-family="Helvetica,sans-Serif" font-size="10.00">hpd_httpd_response</text>
<text text-anchor="middle" x="475" y="-300" font-family="Helvetica,sans-Serif" font-size="10.00">_create</text>
</a>
</g>
</g>
<!-- Node17&#45;&gt;Node18 -->
<g id="edge22" class="edge"><title>Node17&#45;&gt;Node18</title>
<path fill="none" stroke="midnightblue" d="M397.496,-308C405.872,-308 414.398,-308 422.571,-308"/>
<polygon fill="midnightblue" stroke="midnightblue" points="397.386,-304.5 387.386,-308 397.386,-311.5 397.386,-304.5"/>
</g>
<!-- Node20 -->
<g id="node20" class="node"><title>Node20</title>
<g id="a_node20"><a xlink:href="a00034.html#a18db249df9c6c163ca09c0d7fadc3c75" target="_top" xlink:title="rest_reply">
<polygon fill="none" stroke="black" points="575.5,-221.5 575.5,-240.5 634.5,-240.5 634.5,-221.5 575.5,-221.5"/>
<text text-anchor="middle" x="605" y="-228.5" font-family="Helvetica,sans-Serif" font-size="10.00">rest_reply</text>
</a>
</g>
</g>
<!-- Node17&#45;&gt;Node20 -->
<g id="edge57" class="edge"><title>Node17&#45;&gt;Node20</title>
<path fill="none" stroke="midnightblue" d="M396.828,-290.523C452.718,-274.465 533.1,-251.37 575.43,-239.208"/>
<polygon fill="midnightblue" stroke="midnightblue" points="395.684,-287.21 387.04,-293.336 397.617,-293.938 395.684,-287.21"/>
</g>
<!-- Node22 -->
<g id="node22" class="node"><title>Node22</title>
<g id="a_node22"><a xlink:href="a00034.html#ac0f2724b4617f1adb53492f1a57a4e4b" target="_top" xlink:title="rest_reply_devices">
<polygon fill="none" stroke="black" points="847,-380.5 847,-399.5 945,-399.5 945,-380.5 847,-380.5"/>
<text text-anchor="middle" x="896" y="-387.5" font-family="Helvetica,sans-Serif" font-size="10.00">rest_reply_devices</text>
</a>
</g>
</g>
<!-- Node17&#45;&gt;Node22 -->
<g id="edge58" class="edge"><title>Node17&#45;&gt;Node22</title>
<path fill="none" stroke="midnightblue" d="M388.977,-326.173C434.528,-340.957 502.288,-360.957 563,-371 662.963,-387.537 781.899,-390.33 846.814,-390.451"/>
<polygon fill="midnightblue" stroke="midnightblue" points="389.913,-322.797 379.32,-323.009 387.733,-329.449 389.913,-322.797"/>
</g>
<!-- Node27 -->
<g id="node27" class="node"><title>Node27</title>
<g id="a_node27"><a xlink:href="a00034.html#abddef3c3a26e983041c0a09be164cb1b" target="_top" xlink:title="rest_on_response">
<polygon fill="none" stroke="black" points="849,-0.5 849,-19.5 943,-19.5 943,-0.5 849,-0.5"/>
<text text-anchor="middle" x="896" y="-7.5" font-family="Helvetica,sans-Serif" font-size="10.00">rest_on_response</text>
</a>
</g>
</g>
<!-- Node17&#45;&gt;Node27 -->
<g id="edge59" class="edge"><title>Node17&#45;&gt;Node27</title>
<path fill="none" stroke="midnightblue" d="M352.975,-284.658C398.23,-224.894 528.882,-67.9753 683,-24 738.511,-8.16083 805.38,-6.45541 848.975,-7.52247"/>
<polygon fill="midnightblue" stroke="midnightblue" points="350.112,-282.641 346.925,-292.745 355.717,-286.834 350.112,-282.641"/>
</g>
<!-- Node19 -->
<g id="node19" class="node"><title>Node19</title>
<g id="a_node19"><a xlink:href="a00047.html#a2eb873ac7e610c2dff8e49d216d3aff8" target="_top" xlink:title="handle_request">
<polygon fill="none" stroke="black" points="563.5,-342.5 563.5,-361.5 646.5,-361.5 646.5,-342.5 563.5,-342.5"/>
<text text-anchor="middle" x="605" y="-349.5" font-family="Helvetica,sans-Serif" font-size="10.00">handle_request</text>
</a>
</g>
</g>
<!-- Node18&#45;&gt;Node19 -->
<g id="edge23" class="edge"><title>Node18&#45;&gt;Node19</title>
<path fill="none" stroke="midnightblue" d="M529.518,-326.397C545.545,-331.906 562.474,-337.726 576.136,-342.422"/>
<polygon fill="midnightblue" stroke="midnightblue" points="530.287,-322.96 519.692,-323.019 528.011,-329.58 530.287,-322.96"/>
</g>
<!-- Node18&#45;&gt;Node20 -->
<g id="edge25" class="edge"><title>Node18&#45;&gt;Node20</title>
<path fill="none" stroke="midnightblue" d="M509.883,-287.617C535.145,-272.421 568.516,-252.346 587.982,-240.636"/>
<polygon fill="midnightblue" stroke="midnightblue" points="507.748,-284.817 500.984,-292.971 511.357,-290.815 507.748,-284.817"/>
</g>
<!-- Node18&#45;&gt;Node22 -->
<g id="edge55" class="edge"><title>Node18&#45;&gt;Node22</title>
<path fill="none" stroke="midnightblue" d="M537.362,-315.75C570.024,-320.182 610.813,-326.208 647,-333 722.333,-347.14 809.467,-368.295 857.804,-380.462"/>
<polygon fill="midnightblue" stroke="midnightblue" points="537.436,-312.228 527.059,-314.368 536.505,-319.166 537.436,-312.228"/>
</g>
<!-- Node18&#45;&gt;Node27 -->
<g id="edge56" class="edge"><title>Node18&#45;&gt;Node27</title>
<path fill="none" stroke="midnightblue" d="M489.113,-283.93C517.502,-234.208 589.686,-119.972 683,-62 710.362,-45.0012 794.871,-27.6481 848.563,-17.9073"/>
<polygon fill="midnightblue" stroke="midnightblue" points="486.028,-282.276 484.176,-292.707 492.129,-285.707 486.028,-282.276"/>
</g>
<!-- Node19&#45;&gt;Node6 -->
<g id="edge24" class="edge"><title>Node19&#45;&gt;Node6</title>
<path fill="none" stroke="midnightblue" d="M632.031,-366.655C659.163,-381.929 700.886,-405.417 724.041,-418.453"/>
<polygon fill="midnightblue" stroke="midnightblue" points="633.529,-363.481 623.098,-361.625 630.095,-369.581 633.529,-363.481"/>
</g>
<!-- Node21 -->
<g id="node21" class="node"><title>Node21</title>
<g id="a_node21"><a xlink:href="a00034.html#a362db74b5ebb509cd4c0032f5704148f" target="_top" xlink:title="rest_reply_internal\l_server_error">
<polygon fill="none" stroke="black" points="694,-203 694,-233 790,-233 790,-203 694,-203"/>
<text text-anchor="start" x="702" y="-221" font-family="Helvetica,sans-Serif" font-size="10.00">rest_reply_internal</text>
<text text-anchor="middle" x="742" y="-210" font-family="Helvetica,sans-Serif" font-size="10.00">_server_error</text>
</a>
</g>
</g>
<!-- Node20&#45;&gt;Node21 -->
<g id="edge26" class="edge"><title>Node20&#45;&gt;Node21</title>
<path fill="none" stroke="midnightblue" d="M644.782,-227.265C660.078,-225.793 677.791,-224.087 693.819,-222.543"/>
<polygon fill="midnightblue" stroke="midnightblue" points="644.248,-223.801 634.63,-228.243 644.919,-230.768 644.248,-223.801"/>
</g>
<!-- Node20&#45;&gt;Node27 -->
<g id="edge54" class="edge"><title>Node20&#45;&gt;Node27</title>
<path fill="none" stroke="midnightblue" d="M613.031,-211.645C623.936,-184.203 647.446,-134.097 683,-105 726.197,-69.6487 750.202,-85.1354 801,-62 829.514,-49.0135 861.086,-30.6772 879.422,-19.6056"/>
<polygon fill="midnightblue" stroke="midnightblue" points="609.652,-210.682 609.356,-221.273 616.192,-213.178 609.652,-210.682"/>
</g>
<!-- Node31 -->
<g id="node31" class="node"><title>Node31</title>
<g id="a_node31"><a xlink:href="a00034.html#a937794ed7b34e2fa7c387dee33514c50" target="_top" xlink:title="rest_reply_not_found">
<polygon fill="none" stroke="black" points="688.5,-252.5 688.5,-271.5 795.5,-271.5 795.5,-252.5 688.5,-252.5"/>
<text text-anchor="middle" x="742" y="-259.5" font-family="Helvetica,sans-Serif" font-size="10.00">rest_reply_not_found</text>
</a>
</g>
</g>
<!-- Node20&#45;&gt;Node31 -->
<g id="edge43" class="edge"><title>Node20&#45;&gt;Node31</title>
<path fill="none" stroke="midnightblue" d="M644.377,-239.813C661.625,-243.773 682.011,-248.454 699.601,-252.494"/>
<polygon fill="midnightblue" stroke="midnightblue" points="645.16,-236.401 634.63,-237.574 643.593,-243.224 645.16,-236.401"/>
</g>
<!-- Node32 -->
<g id="node32" class="node"><title>Node32</title>
<g id="a_node32"><a xlink:href="a00034.html#a463d2bdadd3f81404991033401807537" target="_top" xlink:title="rest_reply_unsupported\l_media_type">
<polygon fill="none" stroke="black" points="683,-115 683,-145 801,-145 801,-115 683,-115"/>
<text text-anchor="start" x="691" y="-133" font-family="Helvetica,sans-Serif" font-size="10.00">rest_reply_unsupported</text>
<text text-anchor="middle" x="742" y="-122" font-family="Helvetica,sans-Serif" font-size="10.00">_media_type</text>
</a>
</g>
</g>
<!-- Node20&#45;&gt;Node32 -->
<g id="edge46" class="edge"><title>Node20&#45;&gt;Node32</title>
<path fill="none" stroke="midnightblue" d="M621.724,-214.113C636.563,-198.784 659.919,-176.17 683,-160 690.799,-154.536 699.725,-149.428 708.198,-145.03"/>
<polygon fill="midnightblue" stroke="midnightblue" points="619.153,-211.738 614.788,-221.392 624.22,-216.567 619.153,-211.738"/>
</g>
<!-- Node33 -->
<g id="node33" class="node"><title>Node33</title>
<g id="a_node33"><a xlink:href="a00034.html#a84fea4d27b81d8ec1426196dc58d4351" target="_top" xlink:title="rest_reply_bad_request">
<polygon fill="none" stroke="black" points="837,-76.5 837,-95.5 955,-95.5 955,-76.5 837,-76.5"/>
<text text-anchor="middle" x="896" y="-83.5" font-family="Helvetica,sans-Serif" font-size="10.00">rest_reply_bad_request</text>
</a>
</g>
</g>
<!-- Node20&#45;&gt;Node33 -->
<g id="edge50" class="edge"><title>Node20&#45;&gt;Node33</title>
<path fill="none" stroke="midnightblue" d="M632.708,-216.675C647.334,-209.123 665.913,-200 683,-193 734.112,-172.061 756.31,-186.46 801,-154 822.865,-138.119 815.114,-120.852 837,-105 842.32,-101.146 848.466,-98.0447 854.724,-95.5571"/>
<polygon fill="midnightblue" stroke="midnightblue" points="630.962,-213.638 623.722,-221.373 634.206,-219.841 630.962,-213.638"/>
</g>
<!-- Node34 -->
<g id="node34" class="node"><title>Node34</title>
<g id="a_node34"><a xlink:href="a00034.html#aacbd35e3827023f6cef47ee2b866d2d9" target="_top" xlink:title="rest_reply_method_not\l_allowed">
<polygon fill="none" stroke="black" points="838,-419 838,-449 954,-449 954,-419 838,-419"/>
<text text-anchor="start" x="846" y="-437" font-family="Helvetica,sans-Serif" font-size="10.00">rest_reply_method_not</text>
<text text-anchor="middle" x="896" y="-426" font-family="Helvetica,sans-Serif" font-size="10.00">_allowed</text>
</a>
</g>
</g>
<!-- Node20&#45;&gt;Node34 -->
<g id="edge52" class="edge"><title>Node20&#45;&gt;Node34</title>
<path fill="none" stroke="midnightblue" d="M623.93,-247.374C661.349,-280.944 751.397,-358.642 837,-409 843.049,-412.558 849.698,-415.9 856.27,-418.911"/>
<polygon fill="midnightblue" stroke="midnightblue" points="626.136,-244.65 616.368,-240.545 621.445,-249.845 626.136,-244.65"/>
</g>
<!-- Node21&#45;&gt;Node22 -->
<g id="edge27" class="edge"><title>Node21&#45;&gt;Node22</title>
<path fill="none" stroke="midnightblue" d="M796.513,-238.901C798.092,-240.192 799.594,-241.557 801,-243 831.057,-273.864 813.128,-297.137 837,-333 849.673,-352.039 869.533,-369.808 882.409,-380.289"/>
<polygon fill="midnightblue" stroke="midnightblue" points="798.297,-235.879 788.086,-233.053 794.306,-241.63 798.297,-235.879"/>
</g>
<!-- Node23 -->
<g id="node23" class="node"><title>Node23</title>
<g id="a_node23"><a xlink:href="a00034.html#a2731aca6e6807e771bcf9c94dbec968c" target="_top" xlink:title="rest_on_req_hdr_cmpl">
<polygon fill="none" stroke="black" points="991,-342.5 991,-361.5 1104,-361.5 1104,-342.5 991,-342.5"/>
<text text-anchor="middle" x="1047.5" y="-349.5" font-family="Helvetica,sans-Serif" font-size="10.00">rest_on_req_hdr_cmpl</text>
</a>
</g>
</g>
<!-- Node21&#45;&gt;Node23 -->
<g id="edge39" class="edge"><title>Node21&#45;&gt;Node23</title>
<path fill="none" stroke="midnightblue" d="M799.6,-234.991C843.076,-248.886 904.094,-270.236 955,-295 984.116,-309.164 1015.67,-330.215 1033.06,-342.377"/>
<polygon fill="midnightblue" stroke="midnightblue" points="800.639,-231.649 790.049,-231.968 798.527,-238.323 800.639,-231.649"/>
</g>
<!-- Node25 -->
<g id="node25" class="node"><title>Node25</title>
<g id="a_node25"><a xlink:href="a00034.html#a5b0ee1ed2f7ec4f1d37f392419f9fdf8" target="_top" xlink:title="rest_on_free">
<polygon fill="none" stroke="black" points="860.5,-114.5 860.5,-133.5 931.5,-133.5 931.5,-114.5 860.5,-114.5"/>
<text text-anchor="middle" x="896" y="-121.5" font-family="Helvetica,sans-Serif" font-size="10.00">rest_on_free</text>
</a>
</g>
</g>
<!-- Node21&#45;&gt;Node25 -->
<g id="edge30" class="edge"><title>Node21&#45;&gt;Node25</title>
<path fill="none" stroke="midnightblue" d="M785.938,-198.056C791.193,-194.967 796.344,-191.596 801,-188 819.929,-173.38 817.467,-161.803 837,-148 845.366,-142.089 855.408,-137.282 864.767,-133.567"/>
<polygon fill="midnightblue" stroke="midnightblue" points="784.112,-195.066 777.067,-202.979 787.509,-201.187 784.112,-195.066"/>
</g>
<!-- Node26 -->
<g id="node26" class="node"><title>Node26</title>
<g id="a_node26"><a xlink:href="a00034.html#a1ef7ff8e866ae31ab0edb443eb4777a1" target="_top" xlink:title="rest_on_req_cmpl">
<polygon fill="none" stroke="black" points="1000.5,-95.5 1000.5,-114.5 1094.5,-114.5 1094.5,-95.5 1000.5,-95.5"/>
<text text-anchor="middle" x="1047.5" y="-102.5" font-family="Helvetica,sans-Serif" font-size="10.00">rest_on_req_cmpl</text>
</a>
</g>
</g>
<!-- Node21&#45;&gt;Node26 -->
<g id="edge42" class="edge"><title>Node21&#45;&gt;Node26</title>
<path fill="none" stroke="midnightblue" d="M797.623,-199.577C840.612,-184.861 901.919,-163.395 955,-143 978.924,-133.808 1006,-122.443 1024.45,-114.549"/>
<polygon fill="midnightblue" stroke="midnightblue" points="796.255,-196.345 787.923,-202.889 798.517,-202.97 796.255,-196.345"/>
</g>
<!-- Node21&#45;&gt;Node27 -->
<g id="edge33" class="edge"><title>Node21&#45;&gt;Node27</title>
<path fill="none" stroke="midnightblue" d="M766.634,-195.809C778.083,-184.158 791.395,-169.175 801,-154 823.38,-118.641 813.607,-101.697 837,-67 849.786,-48.0363 869.616,-30.2478 882.455,-19.7412"/>
<polygon fill="midnightblue" stroke="midnightblue" points="764.07,-193.423 759.438,-202.952 769.001,-198.391 764.07,-193.423"/>
</g>
<!-- Node28 -->
<g id="node28" class="node"><title>Node28</title>
<g id="a_node28"><a xlink:href="a00034.html#a29f312bafc931ecd8a0209f0dd3d7e60" target="_top" xlink:title="rest_on_req_begin">
<polygon fill="none" stroke="black" points="999.5,-228.5 999.5,-247.5 1095.5,-247.5 1095.5,-228.5 999.5,-228.5"/>
<text text-anchor="middle" x="1047.5" y="-235.5" font-family="Helvetica,sans-Serif" font-size="10.00">rest_on_req_begin</text>
</a>
</g>
</g>
<!-- Node21&#45;&gt;Node28 -->
<g id="edge35" class="edge"><title>Node21&#45;&gt;Node28</title>
<path fill="none" stroke="midnightblue" d="M800.12,-221.764C857.702,-225.559 945.537,-231.347 999.301,-234.89"/>
<polygon fill="midnightblue" stroke="midnightblue" points="800.297,-218.268 790.089,-221.103 799.837,-225.253 800.297,-218.268"/>
</g>
<!-- Node29 -->
<g id="node29" class="node"><title>Node29</title>
<g id="a_node29"><a xlink:href="a00034.html#a79a1a85df1eb4e5247b27938ee73e32c" target="_top" xlink:title="rest_on_req_url_cmpl">
<polygon fill="none" stroke="black" points="841,-304.5 841,-323.5 951,-323.5 951,-304.5 841,-304.5"/>
<text text-anchor="middle" x="896" y="-311.5" font-family="Helvetica,sans-Serif" font-size="10.00">rest_on_req_url_cmpl</text>
</a>
</g>
</g>
<!-- Node21&#45;&gt;Node29 -->
<g id="edge37" class="edge"><title>Node21&#45;&gt;Node29</title>
<path fill="none" stroke="midnightblue" d="M793.81,-237.99C796.315,-239.561 798.73,-241.231 801,-243 821.753,-259.176 816.129,-273.977 837,-290 844.866,-296.039 854.468,-300.817 863.579,-304.468"/>
<polygon fill="midnightblue" stroke="midnightblue" points="795.448,-234.895 785.02,-233.023 792.004,-240.99 795.448,-234.895"/>
</g>
<!-- Node30 -->
<g id="node30" class="node"><title>Node30</title>
<g id="a_node30"><a xlink:href="a00034.html#aa7a4e350f3f59e6410ba02d06b1e125f" target="_top" xlink:title="rest_on_req_body">
<polygon fill="none" stroke="black" points="1000.5,-190.5 1000.5,-209.5 1094.5,-209.5 1094.5,-190.5 1000.5,-190.5"/>
<text text-anchor="middle" x="1047.5" y="-197.5" font-family="Helvetica,sans-Serif" font-size="10.00">rest_on_req_body</text>
</a>
</g>
</g>
<!-- Node21&#45;&gt;Node30 -->
<g id="edge40" class="edge"><title>Node21&#45;&gt;Node30</title>
<path fill="none" stroke="midnightblue" d="M800.18,-214.609C858.121,-211.172 946.645,-205.922 1000.3,-202.74"/>
<polygon fill="midnightblue" stroke="midnightblue" points="799.864,-211.121 790.089,-215.207 800.279,-218.109 799.864,-211.121"/>
</g>
<!-- Node22&#45;&gt;Node23 -->
<g id="edge28" class="edge"><title>Node22&#45;&gt;Node23</title>
<path fill="none" stroke="midnightblue" d="M944.652,-377.888C965.473,-372.596 989.538,-366.479 1009.05,-361.52"/>
<polygon fill="midnightblue" stroke="midnightblue" points="943.555,-374.555 934.725,-380.411 945.279,-381.34 943.555,-374.555"/>
</g>
<!-- Node24 -->
<g id="node24" class="node"><title>Node24</title>
<g id="a_node24"><a xlink:href="a00034.html#a02090c3feb19ea4c6e1fa9b5e6392752" target="_top" xlink:title="rest_on_create">
<polygon fill="none" stroke="black" points="1140,-228.5 1140,-247.5 1221,-247.5 1221,-228.5 1140,-228.5"/>
<text text-anchor="middle" x="1180.5" y="-235.5" font-family="Helvetica,sans-Serif" font-size="10.00">rest_on_create</text>
</a>
</g>
</g>
<!-- Node23&#45;&gt;Node24 -->
<g id="edge29" class="edge"><title>Node23&#45;&gt;Node24</title>
<path fill="none" stroke="midnightblue" d="M1069.76,-336.28C1080.26,-328.333 1092.99,-318.401 1104,-309 1128.35,-288.198 1155.34,-261.998 1169.53,-247.964"/>
<polygon fill="midnightblue" stroke="midnightblue" points="1067.46,-333.632 1061.56,-342.434 1071.66,-339.231 1067.46,-333.632"/>
</g>
<!-- Node25&#45;&gt;Node26 -->
<g id="edge31" class="edge"><title>Node25&#45;&gt;Node26</title>
<path fill="none" stroke="midnightblue" d="M941.636,-118.327C960.183,-115.97 981.701,-113.235 1000.4,-110.859"/>
<polygon fill="midnightblue" stroke="midnightblue" points="941.153,-114.86 931.674,-119.593 942.036,-121.804 941.153,-114.86"/>
</g>
<!-- Node26&#45;&gt;Node24 -->
<g id="edge32" class="edge"><title>Node26&#45;&gt;Node24</title>
<path fill="none" stroke="midnightblue" d="M1064.95,-121.697C1092.6,-149.771 1147.56,-205.572 1169.81,-228.163"/>
<polygon fill="midnightblue" stroke="midnightblue" points="1067.43,-119.233 1057.92,-114.565 1062.44,-124.146 1067.43,-119.233"/>
</g>
<!-- Node27&#45;&gt;Node26 -->
<g id="edge34" class="edge"><title>Node27&#45;&gt;Node26</title>
<path fill="none" stroke="midnightblue" d="M933.877,-23.5147C941.052,-26.6264 948.392,-30.1624 955,-34 986.819,-52.4782 1019.9,-80.8195 1036.18,-95.4803"/>
<polygon fill="midnightblue" stroke="midnightblue" points="934.858,-20.1329 924.279,-19.546 932.183,-26.6017 934.858,-20.1329"/>
</g>
<!-- Node28&#45;&gt;Node24 -->
<g id="edge36" class="edge"><title>Node28&#45;&gt;Node24</title>
<path fill="none" stroke="midnightblue" d="M1106.06,-238C1117.39,-238 1129.03,-238 1139.62,-238"/>
<polygon fill="midnightblue" stroke="midnightblue" points="1105.79,-234.5 1095.79,-238 1105.79,-241.5 1105.79,-234.5"/>
</g>
<!-- Node29&#45;&gt;Node24 -->
<g id="edge38" class="edge"><title>Node29&#45;&gt;Node24</title>
<path fill="none" stroke="midnightblue" d="M942.16,-301.851C998.233,-286.766 1092.72,-261.346 1143.93,-247.569"/>
<polygon fill="midnightblue" stroke="midnightblue" points="941.24,-298.474 932.493,-304.452 943.059,-305.233 941.24,-298.474"/>
</g>
<!-- Node30&#45;&gt;Node24 -->
<g id="edge41" class="edge"><title>Node30&#45;&gt;Node24</title>
<path fill="none" stroke="midnightblue" d="M1091.21,-212.391C1109.15,-217.594 1129.7,-223.554 1146.45,-228.414"/>
<polygon fill="midnightblue" stroke="midnightblue" points="1092.14,-209.014 1081.56,-209.589 1090.19,-215.736 1092.14,-209.014"/>
</g>
<!-- Node31&#45;&gt;Node23 -->
<g id="edge45" class="edge"><title>Node31&#45;&gt;Node23</title>
<path fill="none" stroke="midnightblue" d="M783.9,-275.702C789.928,-278.617 795.838,-282.037 801,-286 821.871,-302.023 813.957,-320.297 837,-333 884.175,-359.005 946.537,-361.351 990.924,-358.668"/>
<polygon fill="midnightblue" stroke="midnightblue" points="784.984,-272.355 774.421,-271.532 782.165,-278.763 784.984,-272.355"/>
</g>
<!-- Node31&#45;&gt;Node29 -->
<g id="edge44" class="edge"><title>Node31&#45;&gt;Node29</title>
<path fill="none" stroke="midnightblue" d="M780.673,-274.888C807.43,-284.042 842.773,-296.133 867.041,-304.435"/>
<polygon fill="midnightblue" stroke="midnightblue" points="781.474,-271.463 770.879,-271.538 779.208,-278.086 781.474,-271.463"/>
</g>
<!-- Node32&#45;&gt;Node22 -->
<g id="edge47" class="edge"><title>Node32&#45;&gt;Node22</title>
<path fill="none" stroke="midnightblue" d="M768.292,-151.947C779.797,-163.17 792.671,-177.678 801,-193 831.683,-249.446 804.916,-277.338 837,-333 848.281,-352.571 868.117,-369.944 881.407,-380.221"/>
<polygon fill="midnightblue" stroke="midnightblue" points="770.67,-149.378 760.991,-145.07 765.871,-154.474 770.67,-149.378"/>
</g>
<!-- Node32&#45;&gt;Node26 -->
<g id="edge49" class="edge"><title>Node32&#45;&gt;Node26</title>
<path fill="none" stroke="midnightblue" d="M784.626,-110.183C790.27,-107.006 795.876,-103.578 801,-100 818.795,-87.5722 816.771,-74.8686 837,-67 885.877,-47.9877 903.568,-56.7447 955,-67 982.159,-72.4153 1011.35,-86.0491 1029.27,-95.4221"/>
<polygon fill="midnightblue" stroke="midnightblue" points="782.927,-107.123 775.791,-114.954 786.253,-113.283 782.927,-107.123"/>
</g>
<!-- Node32&#45;&gt;Node27 -->
<g id="edge48" class="edge"><title>Node32&#45;&gt;Node27</title>
<path fill="none" stroke="midnightblue" d="M788.794,-109.744C793.179,-106.821 797.346,-103.575 801,-100 824.885,-76.6346 812.144,-56.3294 837,-34 843.891,-27.8098 852.6,-23.0844 861.16,-19.5336"/>
<polygon fill="midnightblue" stroke="midnightblue" points="786.911,-106.792 780.17,-114.966 790.537,-112.78 786.911,-106.792"/>
</g>
<!-- Node33&#45;&gt;Node26 -->
<g id="edge51" class="edge"><title>Node33&#45;&gt;Node26</title>
<path fill="none" stroke="midnightblue" d="M965.483,-94.7036C977.247,-96.1987 989.22,-97.7203 1000.22,-99.1188"/>
<polygon fill="midnightblue" stroke="midnightblue" points="965.59,-91.1891 955.229,-93.4003 964.708,-98.1332 965.59,-91.1891"/>
</g>
<!-- Node34&#45;&gt;Node23 -->
<g id="edge53" class="edge"><title>Node34&#45;&gt;Node23</title>
<path fill="none" stroke="midnightblue" d="M943.437,-414.728C947.383,-412.866 951.284,-410.944 955,-409 983.523,-394.077 1015.02,-373.476 1032.62,-361.563"/>
<polygon fill="midnightblue" stroke="midnightblue" points="941.847,-411.606 934.208,-418.947 944.758,-417.972 941.847,-411.606"/>
</g>
</g>
</svg>
