<?xml version="1.0" encoding="UTF-8" standalone="no"?>
<!DOCTYPE svg PUBLIC "-//W3C//DTD SVG 1.1//EN"
 "http://www.w3.org/Graphics/SVG/1.1/DTD/svg11.dtd">
<!-- Generated by graphviz version 2.38.0 (20140413.2041)
 -->
<!-- Title: event_inform_adapter_detached Pages: 1 -->
<svg width="584pt" height="39pt"
 viewBox="0.00 0.00 584.00 39.00" xmlns="http://www.w3.org/2000/svg" xmlns:xlink="http://www.w3.org/1999/xlink">
<g id="graph0" class="graph" transform="scale(1 1) rotate(0) translate(4 35)">
<title>event_inform_adapter_detached</title>
<!-- Node1 -->
<g id="node1" class="node"><title>Node1</title>
<polygon fill="#bfbfbf" stroke="black" points="0,-0.5 0,-30.5 110,-30.5 110,-0.5 0,-0.5"/>
<text text-anchor="start" x="8" y="-18.5" font-family="Helvetica,sans-Serif" font-size="10.00">event_inform_adapter</text>
<text text-anchor="middle" x="55" y="-7.5" font-family="Helvetica,sans-Serif" font-size="10.00">_detached</text>
</g>
<!-- Node2 -->
<g id="node2" class="node"><title>Node2</title>
<g id="a_node2"><a xlink:href="a00011.html#adb9f3d73fc28b0ec1c15d72b03db7239" target="_top" xlink:title="discovery_detach_adapter">
<polygon fill="none" stroke="black" points="146,-6 146,-25 277,-25 277,-6 146,-6"/>
<text text-anchor="middle" x="211.5" y="-13" font-family="Helvetica,sans-Serif" font-size="10.00">discovery_detach_adapter</text>
</a>
</g>
</g>
<!-- Node1&#45;&gt;Node2 -->
<g id="edge1" class="edge"><title>Node1&#45;&gt;Node2</title>
<path fill="none" stroke="midnightblue" d="M120.237,-15.5C128.709,-15.5 137.397,-15.5 145.877,-15.5"/>
<polygon fill="midnightblue" stroke="midnightblue" points="120.037,-12.0001 110.037,-15.5 120.037,-19.0001 120.037,-12.0001"/>
</g>
<!-- Node3 -->
<g id="node3" class="node"><title>Node3</title>
<g id="a_node3"><a xlink:href="a00060.html#ace6bdcd24107e5a84d35a2dc90d3c58e" target="_top" xlink:title="hpd_adapter_detach">
<polygon fill="none" stroke="black" points="313,-6 313,-25 417,-25 417,-6 313,-6"/>
<text text-anchor="middle" x="365" y="-13" font-family="Helvetica,sans-Serif" font-size="10.00">hpd_adapter_detach</text>
</a>
</g>
</g>
<!-- Node2&#45;&gt;Node3 -->
<g id="edge2" class="edge"><title>Node2&#45;&gt;Node3</title>
<path fill="none" stroke="midnightblue" d="M287.294,-15.5C295.93,-15.5 304.584,-15.5 312.805,-15.5"/>
<polygon fill="midnightblue" stroke="midnightblue" points="287.189,-12.0001 277.189,-15.5 287.189,-19.0001 287.189,-12.0001"/>
</g>
<!-- Node4 -->
<g id="node4" class="node"><title>Node4</title>
<g id="a_node4"><a xlink:href="a00012.html#a51ee1d39c3be7ad828e223b971bd1a96" target="_top" xlink:title="hpd_demo_adapter_stop">
<polygon fill="none" stroke="black" points="453,-6 453,-25 576,-25 576,-6 453,-6"/>
<text text-anchor="middle" x="514.5" y="-13" font-family="Helvetica,sans-Serif" font-size="10.00">hpd_demo_adapter_stop</text>
</a>
</g>
</g>
<!-- Node3&#45;&gt;Node4 -->
<g id="edge3" class="edge"><title>Node3&#45;&gt;Node4</title>
<path fill="none" stroke="midnightblue" d="M427.304,-15.5C435.724,-15.5 444.367,-15.5 452.776,-15.5"/>
<polygon fill="midnightblue" stroke="midnightblue" points="427.174,-12.0001 417.174,-15.5 427.174,-19.0001 427.174,-12.0001"/>
</g>
</g>
</svg>
