<?xml version="1.0" encoding="UTF-8" standalone="no"?>
<!DOCTYPE svg PUBLIC "-//W3C//DTD SVG 1.1//EN"
 "http://www.w3.org/Graphics/SVG/1.1/DTD/svg11.dtd">
<!-- Generated by graphviz version 2.38.0 (20140413.2041)
 -->
<!-- Title: on_io Pages: 1 -->
<svg width="268pt" height="28pt"
 viewBox="0.00 0.00 268.00 28.00" xmlns="http://www.w3.org/2000/svg" xmlns:xlink="http://www.w3.org/1999/xlink">
<g id="graph0" class="graph" transform="scale(1 1) rotate(0) translate(4 24)">
<title>on_io</title>
<!-- Node1 -->
<g id="node1" class="node"><title>Node1</title>
<polygon fill="#bfbfbf" stroke="black" points="0,-0.5 0,-19.5 40,-19.5 40,-0.5 0,-0.5"/>
<text text-anchor="middle" x="20" y="-7.5" font-family="Helvetica,sans-Serif" font-size="10.00">on_io</text>
</g>
<!-- Node2 -->
<g id="node2" class="node"><title>Node2</title>
<g id="a_node2"><a xlink:href="a00004.html#a2ba2998e37246c16c9707e7e5c2730de" target="_top" xlink:title="on_update_socket">
<polygon fill="none" stroke="black" points="76,-0.5 76,-19.5 172,-19.5 172,-0.5 76,-0.5"/>
<text text-anchor="middle" x="124" y="-7.5" font-family="Helvetica,sans-Serif" font-size="10.00">on_update_socket</text>
</a>
</g>
</g>
<!-- Node1&#45;&gt;Node2 -->
<g id="edge1" class="edge"><title>Node1&#45;&gt;Node2</title>
<path fill="none" stroke="midnightblue" d="M50.4331,-10C58.4103,-10 67.2504,-10 75.9373,-10"/>
<polygon fill="midnightblue" stroke="midnightblue" points="50.1855,-6.5001 40.1854,-10 50.1854,-13.5001 50.1855,-6.5001"/>
</g>
<!-- Node3 -->
<g id="node3" class="node"><title>Node3</title>
<g id="a_node3"><a xlink:href="a00004.html#a665691f420dff4eebb8f4b4af62d7a49" target="_top" xlink:title="on_start">
<polygon fill="none" stroke="black" points="208,-0.5 208,-19.5 260,-19.5 260,-0.5 208,-0.5"/>
<text text-anchor="middle" x="234" y="-7.5" font-family="Helvetica,sans-Serif" font-size="10.00">on_start</text>
</a>
</g>
</g>
<!-- Node2&#45;&gt;Node3 -->
<g id="edge2" class="edge"><title>Node2&#45;&gt;Node3</title>
<path fill="none" stroke="midnightblue" d="M182.184,-10C191.158,-10 200.013,-10 207.755,-10"/>
<polygon fill="midnightblue" stroke="midnightblue" points="182.056,-6.5001 172.056,-10 182.056,-13.5001 182.056,-6.5001"/>
</g>
</g>
</svg>
