<?xml version="1.0" encoding="UTF-8" standalone="no"?>
<!DOCTYPE svg PUBLIC "-//W3C//DTD SVG 1.1//EN"
 "http://www.w3.org/Graphics/SVG/1.1/DTD/svg11.dtd">
<!-- Generated by graphviz version 2.38.0 (20140413.2041)
 -->
<!-- Title: request_set_request_data Pages: 1 -->
<svg width="489pt" height="28pt"
 viewBox="0.00 0.00 489.00 28.00" xmlns="http://www.w3.org/2000/svg" xmlns:xlink="http://www.w3.org/1999/xlink">
<g id="graph0" class="graph" transform="scale(1 1) rotate(0) translate(4 24)">
<title>request_set_request_data</title>
<!-- Node1 -->
<g id="node1" class="node"><title>Node1</title>
<polygon fill="#bfbfbf" stroke="black" points="0,-0.5 0,-19.5 129,-19.5 129,-0.5 0,-0.5"/>
<text text-anchor="middle" x="64.5" y="-7.5" font-family="Helvetica,sans-Serif" font-size="10.00">request_set_request_data</text>
</g>
<!-- Node2 -->
<g id="node2" class="node"><title>Node2</title>
<g id="a_node2"><a xlink:href="a00074.html#ac9eeff8f3e494a62942c2ebed8f05cd9" target="_top" xlink:title="hpd_request_set_data">
<polygon fill="none" stroke="black" points="165,-0.5 165,-19.5 278,-19.5 278,-0.5 165,-0.5"/>
<text text-anchor="middle" x="221.5" y="-7.5" font-family="Helvetica,sans-Serif" font-size="10.00">hpd_request_set_data</text>
</a>
</g>
</g>
<!-- Node1&#45;&gt;Node2 -->
<g id="edge1" class="edge"><title>Node1&#45;&gt;Node2</title>
<path fill="none" stroke="midnightblue" d="M139.643,-10C148.052,-10 156.513,-10 164.63,-10"/>
<polygon fill="midnightblue" stroke="midnightblue" points="139.439,-6.5001 129.439,-10 139.439,-13.5001 139.439,-6.5001"/>
</g>
<!-- Node3 -->
<g id="node3" class="node"><title>Node3</title>
<g id="a_node3"><a xlink:href="a00025.html#a74ba52adbe4c46e9a9c33649e3b75243" target="_top" xlink:title="on_req_cmpl">
<polygon fill="none" stroke="black" points="314,-0.5 314,-19.5 386,-19.5 386,-0.5 314,-0.5"/>
<text text-anchor="middle" x="350" y="-7.5" font-family="Helvetica,sans-Serif" font-size="10.00">on_req_cmpl</text>
</a>
</g>
</g>
<!-- Node2&#45;&gt;Node3 -->
<g id="edge2" class="edge"><title>Node2&#45;&gt;Node3</title>
<path fill="none" stroke="midnightblue" d="M288.563,-10C297.267,-10 305.899,-10 313.799,-10"/>
<polygon fill="midnightblue" stroke="midnightblue" points="288.353,-6.5001 278.353,-10 288.353,-13.5001 288.353,-6.5001"/>
</g>
<!-- Node4 -->
<g id="node4" class="node"><title>Node4</title>
<g id="a_node4"><a xlink:href="a00025.html#ad079431c7eba97c5dd5e4e202cdf6102" target="_top" xlink:title="on_create">
<polygon fill="none" stroke="black" points="422,-0.5 422,-19.5 481,-19.5 481,-0.5 422,-0.5"/>
<text text-anchor="middle" x="451.5" y="-7.5" font-family="Helvetica,sans-Serif" font-size="10.00">on_create</text>
</a>
</g>
</g>
<!-- Node3&#45;&gt;Node4 -->
<g id="edge3" class="edge"><title>Node3&#45;&gt;Node4</title>
<path fill="none" stroke="midnightblue" d="M396.212,-10C404.974,-10 413.925,-10 421.965,-10"/>
<polygon fill="midnightblue" stroke="midnightblue" points="396.08,-6.5001 386.08,-10 396.08,-13.5001 396.08,-6.5001"/>
</g>
</g>
</svg>
