<?xml version="1.0" encoding="UTF-8" standalone="no"?>
<!DOCTYPE svg PUBLIC "-//W3C//DTD SVG 1.1//EN"
 "http://www.w3.org/Graphics/SVG/1.1/DTD/svg11.dtd">
<!-- Generated by graphviz version 2.38.0 (20140413.2041)
 -->
<!-- Title: add_parameter Pages: 1 -->
<!--zoomable 28 -->
<svg id="main" version="1.1" xmlns="http://www.w3.org/2000/svg" xmlns:xlink="http://www.w3.org/1999/xlink" xml:space="preserve" onload="init(evt)">
<style type="text/css"><![CDATA[
.edge:hover path { stroke: red; }
.edge:hover polygon { stroke: red; fill: red; }
]]></style>
<script type="text/javascript"><![CDATA[
var edges = document.getElementsByTagName('g');
if (edges && edges.length) {
  for (var i=0;i<edges.length;i++) {
    if (edges[i].id.substr(0,4)=='edge') {
      edges[i].setAttribute('class','edge');
    }
  }
}
]]></script>
        <defs>
                <circle id="rim" cx="0" cy="0" r="7"/>
                <circle id="rim2" cx="0" cy="0" r="3.5"/>
                <g id="zoomPlus">
                        <use xlink:href="#rim" fill="#404040">
                                <set attributeName="fill" to="#808080" begin="zoomplus.mouseover" end="zoomplus.mouseout"/>
                        </use>
                        <path d="M-4,0h8M0,-4v8" fill="none" stroke="white" stroke-width="1.5" pointer-events="none"/>
                </g>
                <g id="zoomMin">
                        <use xlink:href="#rim" fill="#404040">
                                <set attributeName="fill" to="#808080" begin="zoomminus.mouseover" end="zoomminus.mouseout"/>
                        </use>
                        <path d="M-4,0h8" fill="none" stroke="white" stroke-width="1.5" pointer-events="none"/>
                </g>
                <g id="dirArrow">
                        <path fill="none" stroke="white" stroke-width="1.5" d="M0,-3.0v7 M-2.5,-0.5L0,-3.0L2.5,-0.5"/>
                </g>
               <g id="resetDef">
                       <use xlink:href="#rim2" fill="#404040">
                               <set attributeName="fill" to="#808080" begin="reset.mouseover" end="reset.mouseout"/>
                       </use>
               </g>
        </defs>

<script type="text/javascript">
var viewWidth = 1509;
var viewHeight = 28;
var sectionId = 'dynsection-15';
</script>
<script xlink:href="svgpan.js"/>
<svg id="graph" class="graph">
<g id="viewport">
<title>add_parameter</title>
<!-- Node1 -->
<g id="node1" class="node"><title>Node1</title>
<polygon fill="#bfbfbf" stroke="black" points="0,-0.5 0,-19.5 81,-19.5 81,-0.5 0,-0.5"/>
<text text-anchor="middle" x="40.5" y="-7.5" font-family="Helvetica,sans-Serif" font-size="10.00">add_parameter</text>
</g>
<!-- Node2 -->
<g id="node2" class="node"><title>Node2</title>
<g id="a_node2"><a xlink:href="a00080.html#a6c449fb11af835a61a508faa1a37cb9e" target="_top" xlink:title="add_parameters">
<polygon fill="none" stroke="black" points="117,-0.5 117,-19.5 203,-19.5 203,-0.5 117,-0.5"/>
<text text-anchor="middle" x="160" y="-7.5" font-family="Helvetica,sans-Serif" font-size="10.00">add_parameters</text>
</a>
</g>
</g>
<!-- Node1&#45;&gt;Node2 -->
<g id="edge1" class="edge"><title>Node1&#45;&gt;Node2</title>
<path fill="none" stroke="midnightblue" d="M91.4319,-10C99.896,-10 108.61,-10 116.849,-10"/>
<polygon fill="midnightblue" stroke="midnightblue" points="91.2802,-6.5001 81.2801,-10 91.2801,-13.5001 91.2802,-6.5001"/>
</g>
<!-- Node3 -->
<g id="node3" class="node"><title>Node3</title>
<g id="a_node3"><a xlink:href="a00080.html#aa3eb7c0c809c6c24396cb9321b6b57dc" target="_top" xlink:title="add_service">
<polygon fill="none" stroke="black" points="239,-0.5 239,-19.5 308,-19.5 308,-0.5 239,-0.5"/>
<text text-anchor="middle" x="273.5" y="-7.5" font-family="Helvetica,sans-Serif" font-size="10.00">add_service</text>
</a>
</g>
</g>
<!-- Node2&#45;&gt;Node3 -->
<g id="edge2" class="edge"><title>Node2&#45;&gt;Node3</title>
<path fill="none" stroke="midnightblue" d="M213.299,-10C222.03,-10 230.874,-10 238.971,-10"/>
<polygon fill="midnightblue" stroke="midnightblue" points="213.153,-6.5001 203.153,-10 213.153,-13.5001 213.153,-6.5001"/>
</g>
<!-- Node4 -->
<g id="node4" class="node"><title>Node4</title>
<g id="a_node4"><a xlink:href="a00080.html#a2e3a16674e810068b936c145267184bb" target="_top" xlink:title="add_services">
<polygon fill="none" stroke="black" points="344,-0.5 344,-19.5 418,-19.5 418,-0.5 344,-0.5"/>
<text text-anchor="middle" x="381" y="-7.5" font-family="Helvetica,sans-Serif" font-size="10.00">add_services</text>
</a>
</g>
</g>
<!-- Node3&#45;&gt;Node4 -->
<g id="edge3" class="edge"><title>Node3&#45;&gt;Node4</title>
<path fill="none" stroke="midnightblue" d="M318.282,-10C326.75,-10 335.536,-10 343.732,-10"/>
<polygon fill="midnightblue" stroke="midnightblue" points="318.171,-6.5001 308.171,-10 318.171,-13.5001 318.171,-6.5001"/>
</g>
<!-- Node5 -->
<g id="node5" class="node"><title>Node5</title>
<g id="a_node5"><a xlink:href="a00080.html#a57ebcecdb1a111267049578c1d9c51de" target="_top" xlink:title="add_device">
<polygon fill="none" stroke="black" points="454,-0.5 454,-19.5 520,-19.5 520,-0.5 454,-0.5"/>
<text text-anchor="middle" x="487" y="-7.5" font-family="Helvetica,sans-Serif" font-size="10.00">add_device</text>
</a>
</g>
</g>
<!-- Node4&#45;&gt;Node5 -->
<g id="edge4" class="edge"><title>Node4&#45;&gt;Node5</title>
<path fill="none" stroke="midnightblue" d="M428.103,-10C436.776,-10 445.67,-10 453.805,-10"/>
<polygon fill="midnightblue" stroke="midnightblue" points="428.082,-6.5001 418.082,-10 428.082,-13.5001 428.082,-6.5001"/>
</g>
<!-- Node6 -->
<g id="node6" class="node"><title>Node6</title>
<g id="a_node6"><a xlink:href="a00080.html#a4028efc20daa3dbda3727bcb6fdd0635" target="_top" xlink:title="add_devices">
<polygon fill="none" stroke="black" points="556,-0.5 556,-19.5 627,-19.5 627,-0.5 556,-0.5"/>
<text text-anchor="middle" x="591.5" y="-7.5" font-family="Helvetica,sans-Serif" font-size="10.00">add_devices</text>
</a>
</g>
</g>
<!-- Node5&#45;&gt;Node6 -->
<g id="edge5" class="edge"><title>Node5&#45;&gt;Node6</title>
<path fill="none" stroke="midnightblue" d="M530.329,-10C538.867,-10 547.746,-10 555.978,-10"/>
<polygon fill="midnightblue" stroke="midnightblue" points="530.15,-6.5001 520.15,-10 530.15,-13.5001 530.15,-6.5001"/>
</g>
<!-- Node7 -->
<g id="node7" class="node"><title>Node7</title>
<g id="a_node7"><a xlink:href="a00080.html#aa21890dddb121282884859a2c8bfd134" target="_top" xlink:title="add_adapter">
<polygon fill="none" stroke="black" points="663,-0.5 663,-19.5 733,-19.5 733,-0.5 663,-0.5"/>
<text text-anchor="middle" x="698" y="-7.5" font-family="Helvetica,sans-Serif" font-size="10.00">add_adapter</text>
</a>
</g>
</g>
<!-- Node6&#45;&gt;Node7 -->
<g id="edge6" class="edge"><title>Node6&#45;&gt;Node7</title>
<path fill="none" stroke="midnightblue" d="M637.273,-10C645.853,-10 654.707,-10 662.886,-10"/>
<polygon fill="midnightblue" stroke="midnightblue" points="637.007,-6.5001 627.007,-10 637.007,-13.5001 637.007,-6.5001"/>
</g>
<!-- Node8 -->
<g id="node8" class="node"><title>Node8</title>
<g id="a_node8"><a xlink:href="a00080.html#a9a90e4e11e2111c0d0b29f277b1d24c4" target="_top" xlink:title="add_adapters">
<polygon fill="none" stroke="black" points="769,-0.5 769,-19.5 844,-19.5 844,-0.5 769,-0.5"/>
<text text-anchor="middle" x="806.5" y="-7.5" font-family="Helvetica,sans-Serif" font-size="10.00">add_adapters</text>
</a>
</g>
</g>
<!-- Node7&#45;&gt;Node8 -->
<g id="edge7" class="edge"><title>Node7&#45;&gt;Node8</title>
<path fill="none" stroke="midnightblue" d="M743.362,-10C751.797,-10 760.538,-10 768.707,-10"/>
<polygon fill="midnightblue" stroke="midnightblue" points="743.284,-6.5001 733.283,-10 743.283,-13.5001 743.284,-6.5001"/>
</g>
<!-- Node9 -->
<g id="node9" class="node"><title>Node9</title>
<g id="a_node9"><a xlink:href="a00080.html#ab8e279d4c33ab258d7118b3e2f28400e" target="_top" xlink:title="add_configuration">
<polygon fill="none" stroke="black" points="880,-0.5 880,-19.5 973,-19.5 973,-0.5 880,-0.5"/>
<text text-anchor="middle" x="926.5" y="-7.5" font-family="Helvetica,sans-Serif" font-size="10.00">add_configuration</text>
</a>
</g>
</g>
<!-- Node8&#45;&gt;Node9 -->
<g id="edge8" class="edge"><title>Node8&#45;&gt;Node9</title>
<path fill="none" stroke="midnightblue" d="M854.197,-10C862.582,-10 871.315,-10 879.675,-10"/>
<polygon fill="midnightblue" stroke="midnightblue" points="854.189,-6.5001 844.189,-10 854.189,-13.5001 854.189,-6.5001"/>
</g>
<!-- Node10 -->
<g id="node10" class="node"><title>Node10</title>
<g id="a_node10"><a xlink:href="a00081.html#a0f69305250a2916043c87e8e3865b28d" target="_top" xlink:title="hpd_rest_json_get_configuration">
<polygon fill="none" stroke="black" points="1009,-0.5 1009,-19.5 1166,-19.5 1166,-0.5 1009,-0.5"/>
<text text-anchor="middle" x="1087.5" y="-7.5" font-family="Helvetica,sans-Serif" font-size="10.00">hpd_rest_json_get_configuration</text>
</a>
</g>
</g>
<!-- Node9&#45;&gt;Node10 -->
<g id="edge9" class="edge"><title>Node9&#45;&gt;Node10</title>
<path fill="none" stroke="midnightblue" d="M983.296,-10C991.557,-10 1000.19,-10 1008.8,-10"/>
<polygon fill="midnightblue" stroke="midnightblue" points="983.063,-6.5001 973.063,-10 983.063,-13.5001 983.063,-6.5001"/>
</g>
<!-- Node11 -->
<g id="node11" class="node"><title>Node11</title>
<g id="a_node11"><a xlink:href="a00025.html#a144860c2e3dfe3d8d9fd021968bbd8ff" target="_top" xlink:title="reply_devices">
<polygon fill="none" stroke="black" points="1202,-0.5 1202,-19.5 1279,-19.5 1279,-0.5 1202,-0.5"/>
<text text-anchor="middle" x="1240.5" y="-7.5" font-family="Helvetica,sans-Serif" font-size="10.00">reply_devices</text>
</a>
</g>
</g>
<!-- Node10&#45;&gt;Node11 -->
<g id="edge10" class="edge"><title>Node10&#45;&gt;Node11</title>
<path fill="none" stroke="midnightblue" d="M1176.36,-10C1185.29,-10 1193.98,-10 1201.91,-10"/>
<polygon fill="midnightblue" stroke="midnightblue" points="1176.21,-6.5001 1166.21,-10 1176.21,-13.5001 1176.21,-6.5001"/>
</g>
<!-- Node12 -->
<g id="node12" class="node"><title>Node12</title>
<g id="a_node12"><a xlink:href="a00025.html#abd6f4422cb70766aae33a18dc6b6cb74" target="_top" xlink:title="on_req_hdr_cmpl">
<polygon fill="none" stroke="black" points="1315,-0.5 1315,-19.5 1406,-19.5 1406,-0.5 1315,-0.5"/>
<text text-anchor="middle" x="1360.5" y="-7.5" font-family="Helvetica,sans-Serif" font-size="10.00">on_req_hdr_cmpl</text>
</a>
</g>
</g>
<!-- Node11&#45;&gt;Node12 -->
<g id="edge11" class="edge"><title>Node11&#45;&gt;Node12</title>
<path fill="none" stroke="midnightblue" d="M1289.24,-10C1297.68,-10 1306.43,-10 1314.78,-10"/>
<polygon fill="midnightblue" stroke="midnightblue" points="1289.16,-6.5001 1279.16,-10 1289.16,-13.5001 1289.16,-6.5001"/>
</g>
<!-- Node13 -->
<g id="node13" class="node"><title>Node13</title>
<g id="a_node13"><a xlink:href="a00025.html#ad079431c7eba97c5dd5e4e202cdf6102" target="_top" xlink:title="on_create">
<polygon fill="none" stroke="black" points="1442,-0.5 1442,-19.5 1501,-19.5 1501,-0.5 1442,-0.5"/>
<text text-anchor="middle" x="1471.5" y="-7.5" font-family="Helvetica,sans-Serif" font-size="10.00">on_create</text>
</a>
</g>
</g>
<!-- Node12&#45;&gt;Node13 -->
<g id="edge12" class="edge"><title>Node12&#45;&gt;Node13</title>
<path fill="none" stroke="midnightblue" d="M1416.18,-10C1425.11,-10 1434.04,-10 1442,-10"/>
<polygon fill="midnightblue" stroke="midnightblue" points="1416.15,-6.5001 1406.15,-10 1416.15,-13.5001 1416.15,-6.5001"/>
</g>
</g>
</svg>
        <g id="navigator" transform="translate(0 0)" fill="#404254">
                <rect fill="#f2f5e9" fill-opacity="0.5" stroke="#606060" stroke-width=".5" x="0" y="0" width="60" height="60"/>
                <use id="zoomplus" xlink:href="#zoomPlus" x="17" y="9" onmousedown="handleZoom(evt,'in')"/>
                <use id="zoomminus" xlink:href="#zoomMin" x="42" y="9" onmousedown="handleZoom(evt,'out')"/>
                <use id="reset" xlink:href="#resetDef" x="30" y="36" onmousedown="handleReset()"/>
                <g id="arrowUp" xlink:href="#dirArrow" transform="translate(30 24)" onmousedown="handlePan(0,-1)">
                  <use xlink:href="#rim" fill="#404040">
                        <set attributeName="fill" to="#808080" begin="arrowUp.mouseover" end="arrowUp.mouseout"/>
                  </use>
                  <path fill="none" stroke="white" stroke-width="1.5" d="M0,-3.0v7 M-2.5,-0.5L0,-3.0L2.5,-0.5"/>
                </g>
                <g id="arrowRight" xlink:href="#dirArrow" transform="rotate(90) translate(36 -43)" onmousedown="handlePan(1,0)">
                  <use xlink:href="#rim" fill="#404040">
                        <set attributeName="fill" to="#808080" begin="arrowRight.mouseover" end="arrowRight.mouseout"/>
                  </use>
                  <path fill="none" stroke="white" stroke-width="1.5" d="M0,-3.0v7 M-2.5,-0.5L0,-3.0L2.5,-0.5"/>
                </g>
                <g id="arrowDown" xlink:href="#dirArrow" transform="rotate(180) translate(-30 -48)" onmousedown="handlePan(0,1)">
                  <use xlink:href="#rim" fill="#404040">
                        <set attributeName="fill" to="#808080" begin="arrowDown.mouseover" end="arrowDown.mouseout"/>
                  </use>
                  <path fill="none" stroke="white" stroke-width="1.5" d="M0,-3.0v7 M-2.5,-0.5L0,-3.0L2.5,-0.5"/>
                </g>
                <g id="arrowLeft" xlink:href="#dirArrow" transform="rotate(270) translate(-36 17)" onmousedown="handlePan(-1,0)">
                  <use xlink:href="#rim" fill="#404040">
                        <set attributeName="fill" to="#808080" begin="arrowLeft.mouseover" end="arrowLeft.mouseout"/>
                  </use>
                  <path fill="none" stroke="white" stroke-width="1.5" d="M0,-3.0v7 M-2.5,-0.5L0,-3.0L2.5,-0.5"/>
                </g>
        </g>
        <svg viewBox="0 0 15 15" width="100%" height="30px" preserveAspectRatio="xMaxYMin meet">
         <g id="arrow_out" transform="scale(0.3 0.3)">
          <a xlink:href="a00080_af86403a1e06bf3f39721b1cb53ee156a_icgraph_org.svg" target="_base">
           <rect id="button" ry="5" rx="5" y="6" x="6" height="38" width="38"
                fill="#f2f5e9" fill-opacity="0.5" stroke="#606060" stroke-width="1.0"/>
           <path id="arrow"
             d="M 11.500037,31.436501 C 11.940474,20.09759 22.043105,11.32322 32.158766,21.979434 L 37.068811,17.246167 C 37.068811,17.246167 37.088388,32 37.088388,32 L 22.160133,31.978069 C 22.160133,31.978069 26.997745,27.140456 26.997745,27.140456 C 18.528582,18.264221 13.291696,25.230495 11.500037,31.436501 z"
             style="fill:#404040;"/>
          </a>
         </g>
        </svg>
</svg>
