<?xml version="1.0" encoding="UTF-8" standalone="no"?>
<!DOCTYPE svg PUBLIC "-//W3C//DTD SVG 1.1//EN"
 "http://www.w3.org/Graphics/SVG/1.1/DTD/svg11.dtd">
<!-- Generated by graphviz version 2.38.0 (20140413.2041)
 -->
<!-- Title: construct_body Pages: 1 -->
<svg width="403pt" height="28pt"
 viewBox="0.00 0.00 403.00 28.00" xmlns="http://www.w3.org/2000/svg" xmlns:xlink="http://www.w3.org/1999/xlink">
<g id="graph0" class="graph" transform="scale(1 1) rotate(0) translate(4 24)">
<title>construct_body</title>
<!-- Node1 -->
<g id="node1" class="node"><title>Node1</title>
<polygon fill="#bfbfbf" stroke="black" points="0,-0.5 0,-19.5 83,-19.5 83,-0.5 0,-0.5"/>
<text text-anchor="middle" x="41.5" y="-7.5" font-family="Helvetica,sans-Serif" font-size="10.00">construct_body</text>
</g>
<!-- Node2 -->
<g id="node2" class="node"><title>Node2</title>
<g id="a_node2"><a xlink:href="a00043.html#a9c08f594418e8572a5e5e928ab2be74a" target="_top" xlink:title="on_req_cmpl">
<polygon fill="none" stroke="black" points="119,-0.5 119,-19.5 191,-19.5 191,-0.5 119,-0.5"/>
<text text-anchor="middle" x="155" y="-7.5" font-family="Helvetica,sans-Serif" font-size="10.00">on_req_cmpl</text>
</a>
</g>
</g>
<!-- Node1&#45;&gt;Node2 -->
<g id="edge1" class="edge"><title>Node1&#45;&gt;Node2</title>
<path fill="none" stroke="midnightblue" d="M93.125,-10C101.8,-10 110.641,-10 118.8,-10"/>
<polygon fill="midnightblue" stroke="midnightblue" points="93.0695,-6.5001 83.0695,-10 93.0694,-13.5001 93.0695,-6.5001"/>
</g>
<!-- Node3 -->
<g id="node3" class="node"><title>Node3</title>
<g id="a_node3"><a xlink:href="a00043.html#acc5092ba6e99d5115efd06882999687f" target="_top" xlink:title="Webserver thread. ">
<polygon fill="none" stroke="black" points="227,-0.5 227,-19.5 321,-19.5 321,-0.5 227,-0.5"/>
<text text-anchor="middle" x="274" y="-7.5" font-family="Helvetica,sans-Serif" font-size="10.00">webserver_thread</text>
</a>
</g>
</g>
<!-- Node2&#45;&gt;Node3 -->
<g id="edge2" class="edge"><title>Node2&#45;&gt;Node3</title>
<path fill="none" stroke="midnightblue" d="M201.362,-10C209.66,-10 218.33,-10 226.656,-10"/>
<polygon fill="midnightblue" stroke="midnightblue" points="201.104,-6.5001 191.104,-10 201.104,-13.5001 201.104,-6.5001"/>
</g>
<!-- Node4 -->
<g id="node4" class="node"><title>Node4</title>
<g id="a_node4"><a xlink:href="a00043.html#a0ddf1224851353fc92bfbff6f499fa97" target="_top" xlink:title="Main function. ">
<polygon fill="none" stroke="black" points="357,-0.5 357,-19.5 395,-19.5 395,-0.5 357,-0.5"/>
<text text-anchor="middle" x="376" y="-7.5" font-family="Helvetica,sans-Serif" font-size="10.00">main</text>
</a>
</g>
</g>
<!-- Node3&#45;&gt;Node4 -->
<g id="edge3" class="edge"><title>Node3&#45;&gt;Node4</title>
<path fill="none" stroke="midnightblue" d="M331.316,-10C340.594,-10 349.577,-10 356.96,-10"/>
<polygon fill="midnightblue" stroke="midnightblue" points="331.195,-6.5001 321.195,-10 331.195,-13.5001 331.195,-6.5001"/>
</g>
</g>
</svg>
