<?xml version="1.0" encoding="UTF-8" standalone="no"?>
<!DOCTYPE svg PUBLIC "-//W3C//DTD SVG 1.1//EN"
 "http://www.w3.org/Graphics/SVG/1.1/DTD/svg11.dtd">
<!-- Generated by graphviz version 2.38.0 (20140413.2041)
 -->
<!-- Title: request_on_request Pages: 1 -->
<svg width="1144pt" height="355pt"
 viewBox="0.00 0.00 1144.00 354.95" xmlns="http://www.w3.org/2000/svg" xmlns:xlink="http://www.w3.org/1999/xlink">
<g id="graph0" class="graph" transform="scale(1 1) rotate(0) translate(4 350.954)">
<title>request_on_request</title>
<!-- Node1 -->
<g id="node1" class="node"><title>Node1</title>
<polygon fill="#bfbfbf" stroke="black" points="0,-164.635 0,-183.635 102,-183.635 102,-164.635 0,-164.635"/>
<text text-anchor="middle" x="51" y="-171.635" font-family="Helvetica,sans-Serif" font-size="10.00">request_on_request</text>
</g>
<!-- Node2 -->
<g id="node2" class="node"><title>Node2</title>
<g id="a_node2"><a xlink:href="a00012.html#adf46370d9c211c3be22966b4606ba9b0" target="_top" xlink:title="free">
<polygon fill="none" stroke="black" points="1103,-164.635 1103,-183.635 1136,-183.635 1136,-164.635 1103,-164.635"/>
<text text-anchor="middle" x="1119.5" y="-171.635" font-family="Helvetica,sans-Serif" font-size="10.00">free</text>
</a>
</g>
</g>
<!-- Node1&#45;&gt;Node2 -->
<g id="edge1" class="edge"><title>Node1&#45;&gt;Node2</title>
<path fill="none" stroke="midnightblue" d="M60.6353,-183.819C93.8958,-219.993 218.364,-345.135 348.5,-345.135 348.5,-345.135 348.5,-345.135 889,-345.135 969.988,-345.135 1005.44,-358.756 1067,-306.135 1100.84,-277.209 1112.57,-223.212 1116.54,-194.048"/>
<polygon fill="midnightblue" stroke="midnightblue" points="1120.05,-194.205 1117.75,-183.863 1113.1,-193.383 1120.05,-194.205"/>
</g>
<!-- Node3 -->
<g id="node3" class="node"><title>Node3</title>
<g id="a_node3"><a xlink:href="a00020.html#a6ca3b5d1e545bf48e3f2b57c3e323831" target="_top" xlink:title="discovery_find_service">
<polygon fill="none" stroke="black" points="138,-221.635 138,-240.635 254,-240.635 254,-221.635 138,-221.635"/>
<text text-anchor="middle" x="196" y="-228.635" font-family="Helvetica,sans-Serif" font-size="10.00">discovery_find_service</text>
</a>
</g>
</g>
<!-- Node1&#45;&gt;Node3 -->
<g id="edge2" class="edge"><title>Node1&#45;&gt;Node3</title>
<path fill="none" stroke="midnightblue" d="M75.935,-183.675C99.3417,-193.005 135.195,-207.297 161.443,-217.759"/>
<polygon fill="midnightblue" stroke="midnightblue" points="160.402,-221.112 170.987,-221.563 162.994,-214.609 160.402,-221.112"/>
</g>
<!-- Node4 -->
<g id="node4" class="node"><title>Node4</title>
<g id="a_node4"><a xlink:href="a00087.html#a6bf78b6455bffb23cdea87114d97b5c0" target="_top" xlink:title="request_alloc_response">
<polygon fill="none" stroke="black" points="290,-183.635 290,-202.635 409,-202.635 409,-183.635 290,-183.635"/>
<text text-anchor="middle" x="349.5" y="-190.635" font-family="Helvetica,sans-Serif" font-size="10.00">request_alloc_response</text>
</a>
</g>
</g>
<!-- Node1&#45;&gt;Node4 -->
<g id="edge3" class="edge"><title>Node1&#45;&gt;Node4</title>
<path fill="none" stroke="midnightblue" d="M102.297,-177.358C151.035,-180.481 225.339,-185.243 279.571,-188.718"/>
<polygon fill="midnightblue" stroke="midnightblue" points="279.59,-192.226 289.794,-189.373 280.038,-185.241 279.59,-192.226"/>
</g>
<!-- Node5 -->
<g id="node5" class="node"><title>Node5</title>
<g id="a_node5"><a xlink:href="a00087.html#a2477fb8cf085cc2b61dbfacdcdc54b82" target="_top" xlink:title="request_free_response">
<polygon fill="none" stroke="black" points="445,-145.635 445,-164.635 561,-164.635 561,-145.635 445,-145.635"/>
<text text-anchor="middle" x="503" y="-152.635" font-family="Helvetica,sans-Serif" font-size="10.00">request_free_response</text>
</a>
</g>
</g>
<!-- Node1&#45;&gt;Node5 -->
<g id="edge23" class="edge"><title>Node1&#45;&gt;Node5</title>
<path fill="none" stroke="midnightblue" d="M102.311,-172.011C183.579,-168.579 343.799,-161.815 434.764,-157.974"/>
<polygon fill="midnightblue" stroke="midnightblue" points="435.121,-161.462 444.964,-157.543 434.826,-154.468 435.121,-161.462"/>
</g>
<!-- Node6 -->
<g id="node6" class="node"><title>Node6</title>
<g id="a_node6"><a xlink:href="a00087.html#adc90843b331f5522a8d08d6e4219e126" target="_top" xlink:title="request_free_request">
<polygon fill="none" stroke="black" points="597,-107.635 597,-126.635 705,-126.635 705,-107.635 597,-107.635"/>
<text text-anchor="middle" x="651" y="-114.635" font-family="Helvetica,sans-Serif" font-size="10.00">request_free_request</text>
</a>
</g>
</g>
<!-- Node1&#45;&gt;Node6 -->
<g id="edge24" class="edge"><title>Node1&#45;&gt;Node6</title>
<path fill="none" stroke="midnightblue" d="M102.404,-165.961C114.073,-164.223 126.454,-162.502 138,-161.135 299.135,-142.052 489.736,-127.876 586.607,-121.266"/>
<polygon fill="midnightblue" stroke="midnightblue" points="587.076,-124.742 596.816,-120.574 586.602,-117.758 587.076,-124.742"/>
</g>
<!-- Node11 -->
<g id="node11" class="node"><title>Node11</title>
<g id="a_node11"><a xlink:href="a00087.html#af9377ab613a971acb84c487a139736d4" target="_top" xlink:title="request_respond">
<polygon fill="none" stroke="black" points="151.5,-50.6349 151.5,-69.6349 240.5,-69.6349 240.5,-50.6349 151.5,-50.6349"/>
<text text-anchor="middle" x="196" y="-57.6349" font-family="Helvetica,sans-Serif" font-size="10.00">request_respond</text>
</a>
</g>
</g>
<!-- Node1&#45;&gt;Node11 -->
<g id="edge18" class="edge"><title>Node1&#45;&gt;Node11</title>
<path fill="none" stroke="midnightblue" d="M63.2776,-164.557C79.5898,-150.765 110.797,-124.608 138,-103.135 149.67,-93.9233 162.916,-83.9046 173.7,-75.8571"/>
<polygon fill="midnightblue" stroke="midnightblue" points="175.806,-78.6531 181.744,-69.8788 171.63,-73.0349 175.806,-78.6531"/>
</g>
<!-- Node4&#45;&gt;Node2 -->
<g id="edge4" class="edge"><title>Node4&#45;&gt;Node2</title>
<path fill="none" stroke="midnightblue" d="M364.421,-202.658C405.872,-230.057 532.887,-307.135 650,-307.135 650,-307.135 650,-307.135 889,-307.135 969.302,-307.135 1002.49,-323.951 1067,-276.135 1094.24,-255.944 1108.06,-217.243 1114.24,-193.751"/>
<polygon fill="midnightblue" stroke="midnightblue" points="1117.68,-194.41 1116.63,-183.868 1110.88,-192.769 1117.68,-194.41"/>
</g>
<!-- Node4&#45;&gt;Node5 -->
<g id="edge5" class="edge"><title>Node4&#45;&gt;Node5</title>
<path fill="none" stroke="midnightblue" d="M388.73,-183.546C408.632,-178.554 433.157,-172.403 454.291,-167.102"/>
<polygon fill="midnightblue" stroke="midnightblue" points="455.197,-170.483 464.045,-164.655 453.494,-163.693 455.197,-170.483"/>
</g>
<!-- Node5&#45;&gt;Node2 -->
<g id="edge17" class="edge"><title>Node5&#45;&gt;Node2</title>
<path fill="none" stroke="midnightblue" d="M516.25,-164.658C552.761,-192.057 664.903,-269.135 771,-269.135 771,-269.135 771,-269.135 889,-269.135 968.561,-269.135 998.793,-291.094 1067,-250.135 1088.59,-237.171 1103.15,-211.262 1111.13,-193.323"/>
<polygon fill="midnightblue" stroke="midnightblue" points="1114.46,-194.418 1115.07,-183.841 1108,-191.73 1114.46,-194.418"/>
</g>
<!-- Node5&#45;&gt;Node6 -->
<g id="edge6" class="edge"><title>Node5&#45;&gt;Node6</title>
<path fill="none" stroke="midnightblue" d="M540.842,-145.546C559.848,-140.599 583.229,-134.514 603.469,-129.246"/>
<polygon fill="midnightblue" stroke="midnightblue" points="604.627,-132.561 613.423,-126.655 602.864,-125.787 604.627,-132.561"/>
</g>
<!-- Node8 -->
<g id="node8" class="node"><title>Node8</title>
<g id="a_node8"><a xlink:href="a00090.html#a1ec3b1d4547e5080bcec544c877852da" target="_top" xlink:title="value_free">
<polygon fill="none" stroke="black" points="741,-145.635 741,-164.635 803,-164.635 803,-145.635 741,-145.635"/>
<text text-anchor="middle" x="772" y="-152.635" font-family="Helvetica,sans-Serif" font-size="10.00">value_free</text>
</a>
</g>
</g>
<!-- Node5&#45;&gt;Node8 -->
<g id="edge16" class="edge"><title>Node5&#45;&gt;Node8</title>
<path fill="none" stroke="midnightblue" d="M561.278,-155.135C612.205,-155.135 685.386,-155.135 730.471,-155.135"/>
<polygon fill="midnightblue" stroke="midnightblue" points="730.746,-158.635 740.746,-155.135 730.746,-151.635 730.746,-158.635"/>
</g>
<!-- Node6&#45;&gt;Node2 -->
<g id="edge15" class="edge"><title>Node6&#45;&gt;Node2</title>
<path fill="none" stroke="midnightblue" d="M683.819,-107.613C756.733,-87.7208 939.421,-48.99 1067,-117.135 1083.85,-126.135 1097.97,-142.908 1107.13,-155.938"/>
<polygon fill="midnightblue" stroke="midnightblue" points="1104.45,-158.217 1112.9,-164.6 1110.27,-154.337 1104.45,-158.217"/>
</g>
<!-- Node7 -->
<g id="node7" class="node"><title>Node7</title>
<g id="a_node7"><a xlink:href="a00020.html#a8922de7d42124afa8ab5fd339fe695ee" target="_top" xlink:title="discovery_free_sid">
<polygon fill="none" stroke="black" points="839,-107.635 839,-126.635 937,-126.635 937,-107.635 839,-107.635"/>
<text text-anchor="middle" x="888" y="-114.635" font-family="Helvetica,sans-Serif" font-size="10.00">discovery_free_sid</text>
</a>
</g>
</g>
<!-- Node6&#45;&gt;Node7 -->
<g id="edge7" class="edge"><title>Node6&#45;&gt;Node7</title>
<path fill="none" stroke="midnightblue" d="M705.032,-117.135C741.782,-117.135 790.719,-117.135 828.587,-117.135"/>
<polygon fill="midnightblue" stroke="midnightblue" points="828.955,-120.635 838.955,-117.135 828.955,-113.635 828.955,-120.635"/>
</g>
<!-- Node6&#45;&gt;Node8 -->
<g id="edge9" class="edge"><title>Node6&#45;&gt;Node8</title>
<path fill="none" stroke="midnightblue" d="M682.029,-126.724C696.968,-131.494 715.223,-137.324 731.301,-142.458"/>
<polygon fill="midnightblue" stroke="midnightblue" points="730.39,-145.841 740.981,-145.549 732.519,-139.173 730.39,-145.841"/>
</g>
<!-- Node7&#45;&gt;Node2 -->
<g id="edge8" class="edge"><title>Node7&#45;&gt;Node2</title>
<path fill="none" stroke="midnightblue" d="M937.196,-118.008C973.798,-119.997 1024.85,-125.656 1067,-141.135 1078.06,-145.198 1089.22,-151.942 1098.3,-158.278"/>
<polygon fill="midnightblue" stroke="midnightblue" points="1096.48,-161.281 1106.61,-164.363 1100.61,-155.633 1096.48,-161.281"/>
</g>
<!-- Node8&#45;&gt;Node2 -->
<g id="edge14" class="edge"><title>Node8&#45;&gt;Node2</title>
<path fill="none" stroke="midnightblue" d="M803.056,-156.788C869.963,-160.467 1030.21,-169.28 1092.82,-172.723"/>
<polygon fill="midnightblue" stroke="midnightblue" points="1092.82,-176.228 1103,-173.282 1093.2,-169.239 1092.82,-176.228"/>
</g>
<!-- Node9 -->
<g id="node9" class="node"><title>Node9</title>
<g id="a_node9"><a xlink:href="a00056.html#a195d511a075f2349200563af1c5d1fd7" target="_top" xlink:title="hpd_map_free">
<polygon fill="none" stroke="black" points="849,-183.635 849,-202.635 927,-202.635 927,-183.635 849,-183.635"/>
<text text-anchor="middle" x="888" y="-190.635" font-family="Helvetica,sans-Serif" font-size="10.00">hpd_map_free</text>
</a>
</g>
</g>
<!-- Node8&#45;&gt;Node9 -->
<g id="edge10" class="edge"><title>Node8&#45;&gt;Node9</title>
<path fill="none" stroke="midnightblue" d="M801.767,-164.724C815.943,-169.449 833.237,-175.214 848.532,-180.312"/>
<polygon fill="midnightblue" stroke="midnightblue" points="847.649,-183.707 858.242,-183.549 849.862,-177.066 847.649,-183.707"/>
</g>
<!-- Node9&#45;&gt;Node2 -->
<g id="edge13" class="edge"><title>Node9&#45;&gt;Node2</title>
<path fill="none" stroke="midnightblue" d="M927.155,-189.976C974.09,-186.09 1052.49,-179.6 1092.82,-176.261"/>
<polygon fill="midnightblue" stroke="midnightblue" points="1093.22,-179.74 1102.89,-175.427 1092.64,-172.764 1093.22,-179.74"/>
</g>
<!-- Node10 -->
<g id="node10" class="node"><title>Node10</title>
<g id="a_node10"><a xlink:href="a00031.html#ae1085dd4fd40466d18b02ec077ef4d6d" target="_top" xlink:title="hpd_map_remove">
<polygon fill="none" stroke="black" points="973,-221.635 973,-240.635 1067,-240.635 1067,-221.635 973,-221.635"/>
<text text-anchor="middle" x="1020" y="-228.635" font-family="Helvetica,sans-Serif" font-size="10.00">hpd_map_remove</text>
</a>
</g>
</g>
<!-- Node9&#45;&gt;Node10 -->
<g id="edge11" class="edge"><title>Node9&#45;&gt;Node10</title>
<path fill="none" stroke="midnightblue" d="M921.804,-202.724C938.278,-207.539 958.443,-213.434 976.127,-218.603"/>
<polygon fill="midnightblue" stroke="midnightblue" points="975.626,-222.103 986.206,-221.549 977.59,-215.384 975.626,-222.103"/>
</g>
<!-- Node10&#45;&gt;Node2 -->
<g id="edge12" class="edge"><title>Node10&#45;&gt;Node2</title>
<path fill="none" stroke="midnightblue" d="M1040.46,-221.469C1048.73,-217.234 1058.43,-212.104 1067,-207.135 1076.55,-201.601 1086.83,-195.123 1095.67,-189.379"/>
<polygon fill="midnightblue" stroke="midnightblue" points="1097.84,-192.142 1104.28,-183.729 1094,-186.289 1097.84,-192.142"/>
</g>
<!-- Node11&#45;&gt;Node2 -->
<g id="edge22" class="edge"><title>Node11&#45;&gt;Node2</title>
<path fill="none" stroke="midnightblue" d="M227.386,-50.5944C281.842,-34.3679 399.92,-3.13495 502,-3.13495 502,-3.13495 502,-3.13495 889,-3.13495 969.626,-3.13495 1005.41,13.8969 1067,-38.1349 1102.23,-67.8969 1113.4,-124.428 1116.92,-154.374"/>
<polygon fill="midnightblue" stroke="midnightblue" points="1113.44,-154.836 1117.92,-164.439 1120.41,-154.14 1113.44,-154.836"/>
</g>
<!-- Node12 -->
<g id="node12" class="node"><title>Node12</title>
<g id="a_node12"><a xlink:href="a00087.html#a77e0cdc5022a2b9b9765b46271d52222" target="_top" xlink:title="request_on_respond">
<polygon fill="none" stroke="black" points="297.5,-50.6349 297.5,-69.6349 401.5,-69.6349 401.5,-50.6349 297.5,-50.6349"/>
<text text-anchor="middle" x="349.5" y="-57.6349" font-family="Helvetica,sans-Serif" font-size="10.00">request_on_respond</text>
</a>
</g>
</g>
<!-- Node11&#45;&gt;Node12 -->
<g id="edge19" class="edge"><title>Node11&#45;&gt;Node12</title>
<path fill="none" stroke="midnightblue" d="M240.82,-60.1349C255.301,-60.1349 271.687,-60.1349 287.229,-60.1349"/>
<polygon fill="midnightblue" stroke="midnightblue" points="287.292,-63.635 297.292,-60.1349 287.292,-56.635 287.292,-63.635"/>
</g>
<!-- Node12&#45;&gt;Node2 -->
<g id="edge20" class="edge"><title>Node12&#45;&gt;Node2</title>
<path fill="none" stroke="midnightblue" d="M401.577,-54.918C461.142,-49.2932 562.6,-41.1349 650,-41.1349 650,-41.1349 650,-41.1349 889,-41.1349 970.084,-41.1349 1002.11,-32.5133 1067,-81.1349 1091.64,-99.5967 1106.03,-133.488 1113.07,-154.86"/>
<polygon fill="midnightblue" stroke="midnightblue" points="1109.75,-155.952 1116.03,-164.486 1116.44,-153.9 1109.75,-155.952"/>
</g>
<!-- Node12&#45;&gt;Node5 -->
<g id="edge21" class="edge"><title>Node12&#45;&gt;Node5</title>
<path fill="none" stroke="midnightblue" d="M365.86,-69.7669C392.289,-86.3391 446.547,-120.363 478,-140.085"/>
<polygon fill="midnightblue" stroke="midnightblue" points="476.267,-143.13 486.599,-145.478 479.986,-137.2 476.267,-143.13"/>
</g>
</g>
</svg>
