<?xml version="1.0" encoding="UTF-8" standalone="no"?>
<!DOCTYPE svg PUBLIC "-//W3C//DTD SVG 1.1//EN"
 "http://www.w3.org/Graphics/SVG/1.1/DTD/svg11.dtd">
<!-- Generated by graphviz version 2.38.0 (20140413.2041)
 -->
<!-- Title: hpd_rest_get_timestamp Pages: 1 -->
<svg width="810pt" height="66pt"
 viewBox="0.00 0.00 810.00 66.00" xmlns="http://www.w3.org/2000/svg" xmlns:xlink="http://www.w3.org/1999/xlink">
<g id="graph0" class="graph" transform="scale(1 1) rotate(0) translate(4 62)">
<title>hpd_rest_get_timestamp</title>
<!-- Node1 -->
<g id="node1" class="node"><title>Node1</title>
<polygon fill="#bfbfbf" stroke="black" points="0,-19.5 0,-38.5 124,-38.5 124,-19.5 0,-19.5"/>
<text text-anchor="middle" x="62" y="-26.5" font-family="Helvetica,sans-Serif" font-size="10.00">hpd_rest_get_timestamp</text>
</g>
<!-- Node2 -->
<g id="node2" class="node"><title>Node2</title>
<g id="a_node2"><a xlink:href="a00097.html#a55f9d0e3050023518ad11a5f5516dbee" target="_top" xlink:title="hpd_rest_json_get_value">
<polygon fill="none" stroke="black" points="300,-38.5 300,-57.5 425,-57.5 425,-38.5 300,-38.5"/>
<text text-anchor="middle" x="362.5" y="-45.5" font-family="Helvetica,sans-Serif" font-size="10.00">hpd_rest_json_get_value</text>
</a>
</g>
</g>
<!-- Node1&#45;&gt;Node2 -->
<g id="edge1" class="edge"><title>Node1&#45;&gt;Node2</title>
<path fill="none" stroke="midnightblue" d="M134.312,-33.5391C184.789,-36.7521 251.799,-41.0174 299.943,-44.0818"/>
<polygon fill="midnightblue" stroke="midnightblue" points="134.328,-30.0332 124.126,-32.8908 133.884,-37.019 134.328,-30.0332"/>
</g>
<!-- Node6 -->
<g id="node6" class="node"><title>Node6</title>
<g id="a_node6"><a xlink:href="a00098.html#af94bffd4e36e7a7faeb8de14d15b886f" target="_top" xlink:title="rest_xml_add_value">
<polygon fill="none" stroke="black" points="160,-0.5 160,-19.5 264,-19.5 264,-0.5 160,-0.5"/>
<text text-anchor="middle" x="212" y="-7.5" font-family="Helvetica,sans-Serif" font-size="10.00">rest_xml_add_value</text>
</a>
</g>
</g>
<!-- Node1&#45;&gt;Node6 -->
<g id="edge5" class="edge"><title>Node1&#45;&gt;Node6</title>
<path fill="none" stroke="midnightblue" d="M134.211,-19.8581C142.909,-18.7414 151.659,-17.618 159.979,-16.5499"/>
<polygon fill="midnightblue" stroke="midnightblue" points="133.525,-16.4173 124.052,-21.1623 134.416,-23.3604 133.525,-16.4173"/>
</g>
<!-- Node3 -->
<g id="node3" class="node"><title>Node3</title>
<g id="a_node3"><a xlink:href="a00034.html#abddef3c3a26e983041c0a09be164cb1b" target="_top" xlink:title="rest_on_response">
<polygon fill="none" stroke="black" points="461,-19.5 461,-38.5 555,-38.5 555,-19.5 461,-19.5"/>
<text text-anchor="middle" x="508" y="-26.5" font-family="Helvetica,sans-Serif" font-size="10.00">rest_on_response</text>
</a>
</g>
</g>
<!-- Node2&#45;&gt;Node3 -->
<g id="edge2" class="edge"><title>Node2&#45;&gt;Node3</title>
<path fill="none" stroke="midnightblue" d="M435.377,-38.4832C444.08,-37.3309 452.781,-36.1789 460.967,-35.095"/>
<polygon fill="midnightblue" stroke="midnightblue" points="434.644,-35.0496 425.19,-39.832 435.563,-41.9891 434.644,-35.0496"/>
</g>
<!-- Node4 -->
<g id="node4" class="node"><title>Node4</title>
<g id="a_node4"><a xlink:href="a00034.html#a1ef7ff8e866ae31ab0edb443eb4777a1" target="_top" xlink:title="rest_on_req_cmpl">
<polygon fill="none" stroke="black" points="591,-19.5 591,-38.5 685,-38.5 685,-19.5 591,-19.5"/>
<text text-anchor="middle" x="638" y="-26.5" font-family="Helvetica,sans-Serif" font-size="10.00">rest_on_req_cmpl</text>
</a>
</g>
</g>
<!-- Node3&#45;&gt;Node4 -->
<g id="edge3" class="edge"><title>Node3&#45;&gt;Node4</title>
<path fill="none" stroke="midnightblue" d="M565.442,-29C573.937,-29 582.612,-29 590.857,-29"/>
<polygon fill="midnightblue" stroke="midnightblue" points="565.211,-25.5001 555.211,-29 565.211,-32.5001 565.211,-25.5001"/>
</g>
<!-- Node5 -->
<g id="node5" class="node"><title>Node5</title>
<g id="a_node5"><a xlink:href="a00034.html#a02090c3feb19ea4c6e1fa9b5e6392752" target="_top" xlink:title="rest_on_create">
<polygon fill="none" stroke="black" points="721,-19.5 721,-38.5 802,-38.5 802,-19.5 721,-19.5"/>
<text text-anchor="middle" x="761.5" y="-26.5" font-family="Helvetica,sans-Serif" font-size="10.00">rest_on_create</text>
</a>
</g>
</g>
<!-- Node4&#45;&gt;Node5 -->
<g id="edge4" class="edge"><title>Node4&#45;&gt;Node5</title>
<path fill="none" stroke="midnightblue" d="M695.544,-29C704.04,-29 712.646,-29 720.694,-29"/>
<polygon fill="midnightblue" stroke="midnightblue" points="695.281,-25.5001 685.281,-29 695.281,-32.5001 695.281,-25.5001"/>
</g>
<!-- Node7 -->
<g id="node7" class="node"><title>Node7</title>
<g id="a_node7"><a xlink:href="a00099.html#a45c634d4351275674f38f1618d77567a" target="_top" xlink:title="hpd_rest_xml_get_value">
<polygon fill="none" stroke="black" points="301.5,-0.5 301.5,-19.5 423.5,-19.5 423.5,-0.5 301.5,-0.5"/>
<text text-anchor="middle" x="362.5" y="-7.5" font-family="Helvetica,sans-Serif" font-size="10.00">hpd_rest_xml_get_value</text>
</a>
</g>
</g>
<!-- Node6&#45;&gt;Node7 -->
<g id="edge6" class="edge"><title>Node6&#45;&gt;Node7</title>
<path fill="none" stroke="midnightblue" d="M274.118,-10C283.113,-10 292.374,-10 301.349,-10"/>
<polygon fill="midnightblue" stroke="midnightblue" points="274.105,-6.5001 264.105,-10 274.105,-13.5001 274.105,-6.5001"/>
</g>
<!-- Node7&#45;&gt;Node3 -->
<g id="edge7" class="edge"><title>Node7&#45;&gt;Node3</title>
<path fill="none" stroke="midnightblue" d="M433.513,-19.2701C442.759,-20.4942 452.042,-21.7234 460.75,-22.8763"/>
<polygon fill="midnightblue" stroke="midnightblue" points="433.898,-15.7906 423.525,-17.9476 432.98,-22.73 433.898,-15.7906"/>
</g>
</g>
</svg>
