<?xml version="1.0" encoding="UTF-8" standalone="no"?>
<!DOCTYPE svg PUBLIC "-//W3C//DTD SVG 1.1//EN"
 "http://www.w3.org/Graphics/SVG/1.1/DTD/svg11.dtd">
<!-- Generated by graphviz version 2.38.0 (20140413.2041)
 -->
<!-- Title: hpd_parameter_next_attr Pages: 1 -->
<svg width="436pt" height="28pt"
 viewBox="0.00 0.00 436.00 28.00" xmlns="http://www.w3.org/2000/svg" xmlns:xlink="http://www.w3.org/1999/xlink">
<g id="graph0" class="graph" transform="scale(1 1) rotate(0) translate(4 24)">
<title>hpd_parameter_next_attr</title>
<!-- Node1 -->
<g id="node1" class="node"><title>Node1</title>
<polygon fill="#bfbfbf" stroke="black" points="0,-0.5 0,-19.5 125,-19.5 125,-0.5 0,-0.5"/>
<text text-anchor="middle" x="62.5" y="-7.5" font-family="Helvetica,sans-Serif" font-size="10.00">hpd_parameter_next_attr</text>
</g>
<!-- Node2 -->
<g id="node2" class="node"><title>Node2</title>
<g id="a_node2"><a xlink:href="a00078.html#a8e0d939d976ec6a9d03c5099d71e8e09" target="_top" xlink:title="discovery_next_parameter_attr">
<polygon fill="none" stroke="black" points="161,-0.5 161,-19.5 312,-19.5 312,-0.5 161,-0.5"/>
<text text-anchor="middle" x="236.5" y="-7.5" font-family="Helvetica,sans-Serif" font-size="10.00">discovery_next_parameter_attr</text>
</a>
</g>
</g>
<!-- Node1&#45;&gt;Node2 -->
<g id="edge1" class="edge"><title>Node1&#45;&gt;Node2</title>
<path fill="none" stroke="midnightblue" d="M125.11,-10C133.424,-10 142.07,-10 150.699,-10"/>
<polygon fill="midnightblue" stroke="midnightblue" points="150.801,-13.5001 160.801,-10 150.801,-6.5001 150.801,-13.5001"/>
</g>
<!-- Node3 -->
<g id="node3" class="node"><title>Node3</title>
<g id="a_node3"><a xlink:href="a00056.html#af695ac28accfa977234c1a554db94bb0" target="_top" xlink:title="hpd_map_next">
<polygon fill="none" stroke="black" points="348,-0.5 348,-19.5 428,-19.5 428,-0.5 348,-0.5"/>
<text text-anchor="middle" x="388" y="-7.5" font-family="Helvetica,sans-Serif" font-size="10.00">hpd_map_next</text>
</a>
</g>
</g>
<!-- Node2&#45;&gt;Node3 -->
<g id="edge2" class="edge"><title>Node2&#45;&gt;Node3</title>
<path fill="none" stroke="midnightblue" d="M312.25,-10C320.873,-10 329.496,-10 337.66,-10"/>
<polygon fill="midnightblue" stroke="midnightblue" points="337.721,-13.5001 347.721,-10 337.721,-6.5001 337.721,-13.5001"/>
</g>
</g>
</svg>
