<?xml version="1.0" encoding="UTF-8" standalone="no"?>
<!DOCTYPE svg PUBLIC "-//W3C//DTD SVG 1.1//EN"
 "http://www.w3.org/Graphics/SVG/1.1/DTD/svg11.dtd">
<!-- Generated by graphviz version 2.38.0 (20140413.2041)
 -->
<!-- Title: daemon_runtime_destroy Pages: 1 -->
<svg width="1069pt" height="322pt"
 viewBox="0.00 0.00 1069.00 322.00" xmlns="http://www.w3.org/2000/svg" xmlns:xlink="http://www.w3.org/1999/xlink">
<g id="graph0" class="graph" transform="scale(1 1) rotate(0) translate(4 318)">
<title>daemon_runtime_destroy</title>
<!-- Node1 -->
<g id="node1" class="node"><title>Node1</title>
<polygon fill="#bfbfbf" stroke="black" points="0,-190.5 0,-209.5 126,-209.5 126,-190.5 0,-190.5"/>
<text text-anchor="middle" x="63" y="-197.5" font-family="Helvetica,sans-Serif" font-size="10.00">daemon_runtime_destroy</text>
</g>
<!-- Node2 -->
<g id="node2" class="node"><title>Node2</title>
<g id="a_node2"><a xlink:href="a00078.html#aec714553397f80039bf246b3b0800420" target="_top" xlink:title="discovery_free_adapter">
<polygon fill="none" stroke="black" points="162,-190.5 162,-209.5 280,-209.5 280,-190.5 162,-190.5"/>
<text text-anchor="middle" x="221" y="-197.5" font-family="Helvetica,sans-Serif" font-size="10.00">discovery_free_adapter</text>
</a>
</g>
</g>
<!-- Node1&#45;&gt;Node2 -->
<g id="edge1" class="edge"><title>Node1&#45;&gt;Node2</title>
<path fill="none" stroke="midnightblue" d="M126.104,-200C134.5,-200 143.153,-200 151.651,-200"/>
<polygon fill="midnightblue" stroke="midnightblue" points="151.912,-203.5 161.912,-200 151.912,-196.5 151.912,-203.5"/>
</g>
<!-- Node8 -->
<g id="node8" class="node"><title>Node8</title>
<g id="a_node8"><a xlink:href="a00012.html#adf46370d9c211c3be22966b4606ba9b0" target="_top" xlink:title="free">
<polygon fill="none" stroke="black" points="1028,-133.5 1028,-152.5 1061,-152.5 1061,-133.5 1028,-133.5"/>
<text text-anchor="middle" x="1044.5" y="-140.5" font-family="Helvetica,sans-Serif" font-size="10.00">free</text>
</a>
</g>
</g>
<!-- Node1&#45;&gt;Node8 -->
<g id="edge18" class="edge"><title>Node1&#45;&gt;Node8</title>
<path fill="none" stroke="midnightblue" d="M78.3559,-209.523C121.091,-236.922 251.978,-314 372,-314 372,-314 372,-314 824,-314 907.282,-314 931.069,-287.774 992,-231 1012.97,-211.463 1028.01,-181.44 1036.24,-162.009"/>
<polygon fill="midnightblue" stroke="midnightblue" points="1039.51,-163.264 1040.01,-152.681 1033.02,-160.641 1039.51,-163.264"/>
</g>
<!-- Node9 -->
<g id="node9" class="node"><title>Node9</title>
<g id="a_node9"><a xlink:href="a00081.html#a4cc65f197e3ad3f70ea2559bc95a68e9" target="_top" xlink:title="event_free_listener">
<polygon fill="none" stroke="black" points="323.5,-0.5 323.5,-19.5 422.5,-19.5 422.5,-0.5 323.5,-0.5"/>
<text text-anchor="middle" x="373" y="-7.5" font-family="Helvetica,sans-Serif" font-size="10.00">event_free_listener</text>
</a>
</g>
</g>
<!-- Node1&#45;&gt;Node9 -->
<g id="edge16" class="edge"><title>Node1&#45;&gt;Node9</title>
<path fill="none" stroke="midnightblue" d="M76.8732,-190.322C113.145,-163.322 219.812,-85.7624 316,-34 322.788,-30.3472 330.249,-26.8292 337.45,-23.6653"/>
<polygon fill="midnightblue" stroke="midnightblue" points="339.191,-26.7281 347.021,-19.5909 336.45,-20.2874 339.191,-26.7281"/>
</g>
<!-- Node3 -->
<g id="node3" class="node"><title>Node3</title>
<g id="a_node3"><a xlink:href="a00078.html#a3c72fb9020b183238e0205b722d7ea95" target="_top" xlink:title="discovery_free_device">
<polygon fill="none" stroke="black" points="316,-190.5 316,-209.5 430,-209.5 430,-190.5 316,-190.5"/>
<text text-anchor="middle" x="373" y="-197.5" font-family="Helvetica,sans-Serif" font-size="10.00">discovery_free_device</text>
</a>
</g>
</g>
<!-- Node2&#45;&gt;Node3 -->
<g id="edge2" class="edge"><title>Node2&#45;&gt;Node3</title>
<path fill="none" stroke="midnightblue" d="M280.423,-200C288.728,-200 297.318,-200 305.758,-200"/>
<polygon fill="midnightblue" stroke="midnightblue" points="305.949,-203.5 315.949,-200 305.949,-196.5 305.949,-203.5"/>
</g>
<!-- Node6 -->
<g id="node6" class="node"><title>Node6</title>
<g id="a_node6"><a xlink:href="a00056.html#a195d511a075f2349200563af1c5d1fd7" target="_top" xlink:title="hpd_map_free">
<polygon fill="none" stroke="black" points="784,-171.5 784,-190.5 862,-190.5 862,-171.5 784,-171.5"/>
<text text-anchor="middle" x="823" y="-178.5" font-family="Helvetica,sans-Serif" font-size="10.00">hpd_map_free</text>
</a>
</g>
</g>
<!-- Node2&#45;&gt;Node6 -->
<g id="edge15" class="edge"><title>Node2&#45;&gt;Node6</title>
<path fill="none" stroke="midnightblue" d="M260.154,-209.51C277.134,-213.275 297.445,-217.144 316,-219 431.054,-230.511 723.679,-203.813 748,-200 758.625,-198.334 769.944,-195.818 780.45,-193.156"/>
<polygon fill="midnightblue" stroke="midnightblue" points="781.446,-196.513 790.226,-190.583 779.664,-189.744 781.446,-196.513"/>
</g>
<!-- Node2&#45;&gt;Node8 -->
<g id="edge14" class="edge"><title>Node2&#45;&gt;Node8</title>
<path fill="none" stroke="midnightblue" d="M232.003,-190.492C268.108,-157.215 396.296,-48 523.5,-48 523.5,-48 523.5,-48 824,-48 902.991,-48 921.852,-69.6839 992,-106 1003.38,-111.89 1015.05,-120.071 1024.41,-127.243"/>
<polygon fill="midnightblue" stroke="midnightblue" points="1022.25,-130 1032.27,-133.451 1026.59,-124.506 1022.25,-130"/>
</g>
<!-- Node4 -->
<g id="node4" class="node"><title>Node4</title>
<g id="a_node4"><a xlink:href="a00078.html#a562bd655fd329da0289d21ec36973322" target="_top" xlink:title="discovery_free_service">
<polygon fill="none" stroke="black" points="466,-133.5 466,-152.5 583,-152.5 583,-133.5 466,-133.5"/>
<text text-anchor="middle" x="524.5" y="-140.5" font-family="Helvetica,sans-Serif" font-size="10.00">discovery_free_service</text>
</a>
</g>
</g>
<!-- Node3&#45;&gt;Node4 -->
<g id="edge3" class="edge"><title>Node3&#45;&gt;Node4</title>
<path fill="none" stroke="midnightblue" d="M399.023,-190.459C423.601,-181.088 461.307,-166.712 488.78,-156.238"/>
<polygon fill="midnightblue" stroke="midnightblue" points="490.298,-159.405 498.395,-152.572 487.805,-152.864 490.298,-159.405"/>
</g>
<!-- Node3&#45;&gt;Node6 -->
<g id="edge13" class="edge"><title>Node3&#45;&gt;Node6</title>
<path fill="none" stroke="midnightblue" d="M430.286,-197.613C519.081,-193.847 690.147,-186.592 773.699,-183.048"/>
<polygon fill="midnightblue" stroke="midnightblue" points="774.083,-186.535 783.926,-182.615 773.787,-179.542 774.083,-186.535"/>
</g>
<!-- Node3&#45;&gt;Node8 -->
<g id="edge12" class="edge"><title>Node3&#45;&gt;Node8</title>
<path fill="none" stroke="midnightblue" d="M421.604,-209.54C482.014,-220.796 589.547,-238 682.5,-238 682.5,-238 682.5,-238 824,-238 900.553,-238 925.92,-238.65 992,-200 1008.3,-190.464 1022.33,-174.034 1031.61,-161.256"/>
<polygon fill="midnightblue" stroke="midnightblue" points="1034.68,-162.964 1037.49,-152.748 1028.93,-158.983 1034.68,-162.964"/>
</g>
<!-- Node5 -->
<g id="node5" class="node"><title>Node5</title>
<g id="a_node5"><a xlink:href="a00078.html#ad18143d06649d9220e4fd8d74dbdec79" target="_top" xlink:title="discovery_free_parameter">
<polygon fill="none" stroke="black" points="619,-114.5 619,-133.5 748,-133.5 748,-114.5 619,-114.5"/>
<text text-anchor="middle" x="683.5" y="-121.5" font-family="Helvetica,sans-Serif" font-size="10.00">discovery_free_parameter</text>
</a>
</g>
</g>
<!-- Node4&#45;&gt;Node5 -->
<g id="edge4" class="edge"><title>Node4&#45;&gt;Node5</title>
<path fill="none" stroke="midnightblue" d="M583.07,-136.033C591.435,-135.021 600.143,-133.967 608.774,-132.922"/>
<polygon fill="midnightblue" stroke="midnightblue" points="609.338,-136.38 618.845,-131.703 608.497,-129.43 609.338,-136.38"/>
</g>
<!-- Node4&#45;&gt;Node6 -->
<g id="edge11" class="edge"><title>Node4&#45;&gt;Node6</title>
<path fill="none" stroke="midnightblue" d="M583.02,-150.372C638.594,-157.494 721.807,-168.159 773.944,-174.841"/>
<polygon fill="midnightblue" stroke="midnightblue" points="773.575,-178.322 783.939,-176.122 774.465,-171.379 773.575,-178.322"/>
</g>
<!-- Node4&#45;&gt;Node8 -->
<g id="edge10" class="edge"><title>Node4&#45;&gt;Node8</title>
<path fill="none" stroke="midnightblue" d="M543.133,-133.42C561.47,-124.046 591.313,-110.411 619,-105 768.272,-75.8253 951.518,-118.003 1017.94,-135.757"/>
<polygon fill="midnightblue" stroke="midnightblue" points="1017.35,-139.224 1027.92,-138.479 1019.19,-132.471 1017.35,-139.224"/>
</g>
<!-- Node5&#45;&gt;Node6 -->
<g id="edge5" class="edge"><title>Node5&#45;&gt;Node6</title>
<path fill="none" stroke="midnightblue" d="M710.895,-133.585C722.358,-137.848 735.903,-143.021 748,-148 762.655,-154.031 778.742,-161.145 792.163,-167.22"/>
<polygon fill="midnightblue" stroke="midnightblue" points="790.854,-170.47 801.406,-171.43 793.756,-164.1 790.854,-170.47"/>
</g>
<!-- Node5&#45;&gt;Node8 -->
<g id="edge9" class="edge"><title>Node5&#45;&gt;Node8</title>
<path fill="none" stroke="midnightblue" d="M748.268,-127.375C828.36,-131.614 962.04,-138.689 1017.83,-141.641"/>
<polygon fill="midnightblue" stroke="midnightblue" points="1017.73,-145.141 1027.9,-142.175 1018.1,-138.151 1017.73,-145.141"/>
</g>
<!-- Node7 -->
<g id="node7" class="node"><title>Node7</title>
<g id="a_node7"><a xlink:href="a00031.html#ae1085dd4fd40466d18b02ec077ef4d6d" target="_top" xlink:title="hpd_map_remove">
<polygon fill="none" stroke="black" points="898,-152.5 898,-171.5 992,-171.5 992,-152.5 898,-152.5"/>
<text text-anchor="middle" x="945" y="-159.5" font-family="Helvetica,sans-Serif" font-size="10.00">hpd_map_remove</text>
</a>
</g>
</g>
<!-- Node6&#45;&gt;Node7 -->
<g id="edge6" class="edge"><title>Node6&#45;&gt;Node7</title>
<path fill="none" stroke="midnightblue" d="M862.299,-174.936C870.384,-173.656 879.077,-172.28 887.669,-170.919"/>
<polygon fill="midnightblue" stroke="midnightblue" points="888.337,-174.357 897.667,-169.336 887.242,-167.443 888.337,-174.357"/>
</g>
<!-- Node6&#45;&gt;Node8 -->
<g id="edge8" class="edge"><title>Node6&#45;&gt;Node8</title>
<path fill="none" stroke="midnightblue" d="M862.1,-187.641C896.866,-192.167 949.195,-195.083 992,-181 1005.06,-176.703 1017.53,-167.68 1026.93,-159.505"/>
<polygon fill="midnightblue" stroke="midnightblue" points="1029.35,-162.031 1034.33,-152.679 1024.6,-156.884 1029.35,-162.031"/>
</g>
<!-- Node7&#45;&gt;Node8 -->
<g id="edge7" class="edge"><title>Node7&#45;&gt;Node8</title>
<path fill="none" stroke="midnightblue" d="M992.18,-153.001C1000.98,-151.286 1009.89,-149.55 1017.76,-148.016"/>
<polygon fill="midnightblue" stroke="midnightblue" points="1018.6,-151.419 1027.74,-146.071 1017.26,-144.548 1018.6,-151.419"/>
</g>
<!-- Node9&#45;&gt;Node8 -->
<g id="edge17" class="edge"><title>Node9&#45;&gt;Node8</title>
<path fill="none" stroke="midnightblue" d="M422.623,-10C483.409,-10 590.646,-10 682.5,-10 682.5,-10 682.5,-10 824,-10 899.425,-10 931.307,10.7799 992,-34 1021.34,-55.6483 1034.6,-98.3134 1040.07,-123.364"/>
<polygon fill="midnightblue" stroke="midnightblue" points="1036.65,-124.072 1042.02,-133.202 1043.51,-122.713 1036.65,-124.072"/>
</g>
</g>
</svg>
