<?xml version="1.0" encoding="UTF-8" standalone="no"?>
<!DOCTYPE svg PUBLIC "-//W3C//DTD SVG 1.1//EN"
 "http://www.w3.org/Graphics/SVG/1.1/DTD/svg11.dtd">
<!-- Generated by graphviz version 2.38.0 (20140413.2041)
 -->
<!-- Title: discovery_attach_adapter Pages: 1 -->
<svg width="828pt" height="210pt"
 viewBox="0.00 0.00 828.00 210.37" xmlns="http://www.w3.org/2000/svg" xmlns:xlink="http://www.w3.org/1999/xlink">
<g id="graph0" class="graph" transform="scale(1 1) rotate(0) translate(4 206.37)">
<title>discovery_attach_adapter</title>
<!-- Node1 -->
<g id="node1" class="node"><title>Node1</title>
<polygon fill="#bfbfbf" stroke="black" points="0,-26.8699 0,-45.8699 128,-45.8699 128,-26.8699 0,-26.8699"/>
<text text-anchor="middle" x="64" y="-33.8699" font-family="Helvetica,sans-Serif" font-size="10.00">discovery_attach_adapter</text>
</g>
<!-- Node2 -->
<g id="node2" class="node"><title>Node2</title>
<g id="a_node2"><a xlink:href="a00066.html#a7ef81e99623c1b5b75b3282aa9a25703" target="_top" xlink:title="event_inform_adapter\l_attached">
<polygon fill="none" stroke="black" points="164,-56.3699 164,-86.3699 274,-86.3699 274,-56.3699 164,-56.3699"/>
<text text-anchor="start" x="172" y="-74.3699" font-family="Helvetica,sans-Serif" font-size="10.00">event_inform_adapter</text>
<text text-anchor="middle" x="219" y="-63.3699" font-family="Helvetica,sans-Serif" font-size="10.00">_attached</text>
</a>
</g>
</g>
<!-- Node1&#45;&gt;Node2 -->
<g id="edge1" class="edge"><title>Node1&#45;&gt;Node2</title>
<path fill="none" stroke="midnightblue" d="M106.808,-45.9338C121.389,-49.2693 138.103,-53.0928 154.066,-56.7446"/>
<polygon fill="midnightblue" stroke="midnightblue" points="153.354,-60.172 163.883,-58.9902 154.915,-53.3483 153.354,-60.172"/>
</g>
<!-- Node8 -->
<g id="node8" class="node"><title>Node8</title>
<g id="a_node8"><a xlink:href="a00006.html#adf46370d9c211c3be22966b4606ba9b0" target="_top" xlink:title="free">
<polygon fill="none" stroke="black" points="756,-68.8699 756,-87.8699 789,-87.8699 789,-68.8699 756,-68.8699"/>
<text text-anchor="middle" x="772.5" y="-75.8699" font-family="Helvetica,sans-Serif" font-size="10.00">free</text>
</a>
</g>
</g>
<!-- Node1&#45;&gt;Node8 -->
<g id="edge13" class="edge"><title>Node1&#45;&gt;Node8</title>
<path fill="none" stroke="midnightblue" d="M116.657,-26.8538C175.834,-16.7954 275.814,-2.36993 362.5,-2.36993 362.5,-2.36993 362.5,-2.36993 505,-2.36993 587.213,-2.36993 611.878,7.1098 689,-21.3699 713.527,-30.4274 737.671,-48.4757 753.439,-61.8482"/>
<polygon fill="midnightblue" stroke="midnightblue" points="751.454,-64.7622 761.286,-68.7094 756.062,-59.4924 751.454,-64.7622"/>
</g>
<!-- Node3 -->
<g id="node3" class="node"><title>Node3</title>
<g id="a_node3"><a xlink:href="a00066.html#a8e77eacc816b401e7f31d4cf625edc71" target="_top" xlink:title="event_inform_device\l_attached">
<polygon fill="none" stroke="black" points="310,-82.3699 310,-112.37 417,-112.37 417,-82.3699 310,-82.3699"/>
<text text-anchor="start" x="318" y="-100.37" font-family="Helvetica,sans-Serif" font-size="10.00">event_inform_device</text>
<text text-anchor="middle" x="363.5" y="-89.3699" font-family="Helvetica,sans-Serif" font-size="10.00">_attached</text>
</a>
</g>
</g>
<!-- Node2&#45;&gt;Node3 -->
<g id="edge2" class="edge"><title>Node2&#45;&gt;Node3</title>
<path fill="none" stroke="midnightblue" d="M274.28,-81.2736C282.646,-82.8001 291.345,-84.3872 299.875,-85.9437"/>
<polygon fill="midnightblue" stroke="midnightblue" points="299.317,-89.3996 309.783,-87.7514 300.574,-82.5132 299.317,-89.3996"/>
</g>
<!-- Node4 -->
<g id="node4" class="node"><title>Node4</title>
<g id="a_node4"><a xlink:href="a00011.html#aebd10ac1c18be51340c39d6d5a54e6d1" target="_top" xlink:title="discovery_alloc_did">
<polygon fill="none" stroke="black" points="453,-144.87 453,-163.87 555,-163.87 555,-144.87 453,-144.87"/>
<text text-anchor="middle" x="504" y="-151.87" font-family="Helvetica,sans-Serif" font-size="10.00">discovery_alloc_did</text>
</a>
</g>
</g>
<!-- Node3&#45;&gt;Node4 -->
<g id="edge3" class="edge"><title>Node3&#45;&gt;Node4</title>
<path fill="none" stroke="midnightblue" d="M401.252,-112.495C422.698,-121.322 449.523,-132.361 470.245,-140.889"/>
<polygon fill="midnightblue" stroke="midnightblue" points="469.005,-144.164 479.585,-144.733 471.67,-137.691 469.005,-144.164"/>
</g>
<!-- Node3&#45;&gt;Node8 -->
<g id="edge12" class="edge"><title>Node3&#45;&gt;Node8</title>
<path fill="none" stroke="midnightblue" d="M417.217,-99.3728C481.558,-101.169 593.581,-102.204 689,-92.3699 708.204,-90.3908 729.702,-86.6938 745.937,-83.5958"/>
<polygon fill="midnightblue" stroke="midnightblue" points="746.627,-87.0271 755.768,-81.6706 745.282,-80.1576 746.627,-87.0271"/>
</g>
<!-- Node9 -->
<g id="node9" class="node"><title>Node9</title>
<g id="a_node9"><a xlink:href="a00066.html#ab03ad99da20d6555b77df4bb73a2eb9f" target="_top" xlink:title="on_attached">
<polygon fill="none" stroke="black" points="469,-68.8699 469,-87.8699 539,-87.8699 539,-68.8699 469,-68.8699"/>
<text text-anchor="middle" x="504" y="-75.8699" font-family="Helvetica,sans-Serif" font-size="10.00">on_attached</text>
</a>
</g>
</g>
<!-- Node3&#45;&gt;Node9 -->
<g id="edge8" class="edge"><title>Node3&#45;&gt;Node9</title>
<path fill="none" stroke="midnightblue" d="M417.256,-90.1326C430.888,-88.2625 445.426,-86.2681 458.585,-84.463"/>
<polygon fill="midnightblue" stroke="midnightblue" points="459.367,-87.8885 468.799,-83.0618 458.416,-80.9535 459.367,-87.8885"/>
</g>
<!-- Node5 -->
<g id="node5" class="node"><title>Node5</title>
<g id="a_node5"><a xlink:href="a00065.html#acd5e8c2bf3e761abc7e2fd2294238a74" target="_top" xlink:title="discovery_set_did">
<polygon fill="none" stroke="black" points="592.5,-182.87 592.5,-201.87 687.5,-201.87 687.5,-182.87 592.5,-182.87"/>
<text text-anchor="middle" x="640" y="-189.87" font-family="Helvetica,sans-Serif" font-size="10.00">discovery_set_did</text>
</a>
</g>
</g>
<!-- Node4&#45;&gt;Node5 -->
<g id="edge4" class="edge"><title>Node4&#45;&gt;Node5</title>
<path fill="none" stroke="midnightblue" d="M538.814,-163.959C556.033,-168.842 577.164,-174.834 595.573,-180.055"/>
<polygon fill="midnightblue" stroke="midnightblue" points="594.621,-183.423 605.197,-182.784 596.531,-176.688 594.621,-183.423"/>
</g>
<!-- Node7 -->
<g id="node7" class="node"><title>Node7</title>
<g id="a_node7"><a xlink:href="a00065.html#ae1a000b225c8b3f365c2cec8362b8483" target="_top" xlink:title="discovery_free_did">
<polygon fill="none" stroke="black" points="591,-144.87 591,-163.87 689,-163.87 689,-144.87 591,-144.87"/>
<text text-anchor="middle" x="640" y="-151.87" font-family="Helvetica,sans-Serif" font-size="10.00">discovery_free_did</text>
</a>
</g>
</g>
<!-- Node4&#45;&gt;Node7 -->
<g id="edge6" class="edge"><title>Node4&#45;&gt;Node7</title>
<path fill="none" stroke="midnightblue" d="M555.278,-154.37C563.514,-154.37 572.111,-154.37 580.525,-154.37"/>
<polygon fill="midnightblue" stroke="midnightblue" points="580.661,-157.87 590.661,-154.37 580.661,-150.87 580.661,-157.87"/>
</g>
<!-- Node6 -->
<g id="node6" class="node"><title>Node6</title>
<g id="a_node6"><a xlink:href="a00065.html#af2f553cfc3af4678b87a8fc75f35a5c6" target="_top" xlink:title="discovery_set_aid">
<polygon fill="none" stroke="black" points="725,-182.87 725,-201.87 820,-201.87 820,-182.87 725,-182.87"/>
<text text-anchor="middle" x="772.5" y="-189.87" font-family="Helvetica,sans-Serif" font-size="10.00">discovery_set_aid</text>
</a>
</g>
</g>
<!-- Node5&#45;&gt;Node6 -->
<g id="edge5" class="edge"><title>Node5&#45;&gt;Node6</title>
<path fill="none" stroke="midnightblue" d="M687.745,-192.37C696.459,-192.37 705.654,-192.37 714.634,-192.37"/>
<polygon fill="midnightblue" stroke="midnightblue" points="714.643,-195.87 724.643,-192.37 714.643,-188.87 714.643,-195.87"/>
</g>
<!-- Node7&#45;&gt;Node8 -->
<g id="edge7" class="edge"><title>Node7&#45;&gt;Node8</title>
<path fill="none" stroke="midnightblue" d="M661.316,-144.764C669.953,-140.539 680.071,-135.4 689,-130.37 709.661,-118.731 732.409,-104.262 748.776,-93.544"/>
<polygon fill="midnightblue" stroke="midnightblue" points="750.737,-96.4438 757.159,-88.0172 746.884,-90.5997 750.737,-96.4438"/>
</g>
<!-- Node9&#45;&gt;Node8 -->
<g id="edge9" class="edge"><title>Node9&#45;&gt;Node8</title>
<path fill="none" stroke="midnightblue" d="M539.023,-78.3699C593.049,-78.3699 697.28,-78.3699 745.661,-78.3699"/>
<polygon fill="midnightblue" stroke="midnightblue" points="745.9,-81.87 755.9,-78.3699 745.9,-74.87 745.9,-81.87"/>
</g>
<!-- Node10 -->
<g id="node10" class="node"><title>Node10</title>
<g id="a_node10"><a xlink:href="a00011.html#ae1a000b225c8b3f365c2cec8362b8483" target="_top" xlink:title="discovery_free_did">
<polygon fill="none" stroke="black" points="591,-30.8699 591,-49.8699 689,-49.8699 689,-30.8699 591,-30.8699"/>
<text text-anchor="middle" x="640" y="-37.8699" font-family="Helvetica,sans-Serif" font-size="10.00">discovery_free_did</text>
</a>
</g>
</g>
<!-- Node9&#45;&gt;Node10 -->
<g id="edge10" class="edge"><title>Node9&#45;&gt;Node10</title>
<path fill="none" stroke="midnightblue" d="M538.814,-68.7809C556.033,-63.898 577.164,-57.9056 595.573,-52.685"/>
<polygon fill="midnightblue" stroke="midnightblue" points="596.531,-56.0514 605.197,-49.9559 594.621,-49.317 596.531,-56.0514"/>
</g>
<!-- Node10&#45;&gt;Node8 -->
<g id="edge11" class="edge"><title>Node10&#45;&gt;Node8</title>
<path fill="none" stroke="midnightblue" d="M673.931,-49.9589C696.409,-56.5044 725.734,-65.0435 746.344,-71.0449"/>
<polygon fill="midnightblue" stroke="midnightblue" points="745.389,-74.4121 755.969,-73.8475 747.346,-67.6912 745.389,-74.4121"/>
</g>
</g>
</svg>
