<?xml version="1.0" encoding="UTF-8" standalone="no"?>
<!DOCTYPE svg PUBLIC "-//W3C//DTD SVG 1.1//EN"
 "http://www.w3.org/Graphics/SVG/1.1/DTD/svg11.dtd">
<!-- Generated by graphviz version 2.38.0 (20140413.2041)
 -->
<!-- Title: hpd_action_get_method Pages: 1 -->
<svg width="1862pt" height="66pt"
 viewBox="0.00 0.00 1862.00 66.00" xmlns="http://www.w3.org/2000/svg" xmlns:xlink="http://www.w3.org/1999/xlink">
<g id="graph0" class="graph" transform="scale(1 1) rotate(0) translate(4 62)">
<title>hpd_action_get_method</title>
<!-- Node1 -->
<g id="node1" class="node"><title>Node1</title>
<polygon fill="#bfbfbf" stroke="black" points="0,-19.5 0,-38.5 120,-38.5 120,-19.5 0,-19.5"/>
<text text-anchor="middle" x="60" y="-26.5" font-family="Helvetica,sans-Serif" font-size="10.00">hpd_action_get_method</text>
</g>
<!-- Node2 -->
<g id="node2" class="node"><title>Node2</title>
<g id="a_node2"><a xlink:href="a00096.html#aa6c7dd70ed7b9b3a371a58ed6122b940" target="_top" xlink:title="rest_json_add_service">
<polygon fill="none" stroke="black" points="156,-38.5 156,-57.5 270,-57.5 270,-38.5 156,-38.5"/>
<text text-anchor="middle" x="213" y="-45.5" font-family="Helvetica,sans-Serif" font-size="10.00">rest_json_add_service</text>
</a>
</g>
</g>
<!-- Node1&#45;&gt;Node2 -->
<g id="edge1" class="edge"><title>Node1&#45;&gt;Node2</title>
<path fill="none" stroke="midnightblue" d="M130.249,-37.7134C138.835,-38.7938 147.53,-39.8879 155.886,-40.9392"/>
<polygon fill="midnightblue" stroke="midnightblue" points="130.605,-34.2307 120.246,-36.4548 129.731,-41.1759 130.605,-34.2307"/>
</g>
<!-- Node13 -->
<g id="node13" class="node"><title>Node13</title>
<g id="a_node13"><a xlink:href="a00098.html#a8a91d98306eb64c151d1c19465421c0c" target="_top" xlink:title="rest_xml_add_service">
<polygon fill="none" stroke="black" points="309.5,-0.5 309.5,-19.5 421.5,-19.5 421.5,-0.5 309.5,-0.5"/>
<text text-anchor="middle" x="365.5" y="-7.5" font-family="Helvetica,sans-Serif" font-size="10.00">rest_xml_add_service</text>
</a>
</g>
</g>
<!-- Node1&#45;&gt;Node13 -->
<g id="edge12" class="edge"><title>Node1&#45;&gt;Node13</title>
<path fill="none" stroke="midnightblue" d="M130.478,-24.6505C184.796,-21.25 259.273,-16.5875 309.497,-13.4433"/>
<polygon fill="midnightblue" stroke="midnightblue" points="130,-21.1734 120.238,-25.2915 130.438,-28.1598 130,-21.1734"/>
</g>
<!-- Node3 -->
<g id="node3" class="node"><title>Node3</title>
<g id="a_node3"><a xlink:href="a00096.html#acedf1d82686baa037179bbc8eff51293" target="_top" xlink:title="rest_json_add_services">
<polygon fill="none" stroke="black" points="306,-38.5 306,-57.5 425,-57.5 425,-38.5 306,-38.5"/>
<text text-anchor="middle" x="365.5" y="-45.5" font-family="Helvetica,sans-Serif" font-size="10.00">rest_json_add_services</text>
</a>
</g>
</g>
<!-- Node2&#45;&gt;Node3 -->
<g id="edge2" class="edge"><title>Node2&#45;&gt;Node3</title>
<path fill="none" stroke="midnightblue" d="M280.043,-48C288.65,-48 297.421,-48 305.895,-48"/>
<polygon fill="midnightblue" stroke="midnightblue" points="280.041,-44.5001 270.041,-48 280.041,-51.5001 280.041,-44.5001"/>
</g>
<!-- Node4 -->
<g id="node4" class="node"><title>Node4</title>
<g id="a_node4"><a xlink:href="a00096.html#a41c2f37e46c89b97a3b4f5bb4e8ede49" target="_top" xlink:title="rest_json_add_device">
<polygon fill="none" stroke="black" points="461,-38.5 461,-57.5 572,-57.5 572,-38.5 461,-38.5"/>
<text text-anchor="middle" x="516.5" y="-45.5" font-family="Helvetica,sans-Serif" font-size="10.00">rest_json_add_device</text>
</a>
</g>
</g>
<!-- Node3&#45;&gt;Node4 -->
<g id="edge3" class="edge"><title>Node3&#45;&gt;Node4</title>
<path fill="none" stroke="midnightblue" d="M435.652,-48C444.128,-48 452.697,-48 460.917,-48"/>
<polygon fill="midnightblue" stroke="midnightblue" points="435.389,-44.5001 425.389,-48 435.389,-51.5001 435.389,-44.5001"/>
</g>
<!-- Node5 -->
<g id="node5" class="node"><title>Node5</title>
<g id="a_node5"><a xlink:href="a00096.html#ad6d08cc22d78268f5dc0b229af37c54c" target="_top" xlink:title="rest_json_add_devices">
<polygon fill="none" stroke="black" points="608,-38.5 608,-57.5 724,-57.5 724,-38.5 608,-38.5"/>
<text text-anchor="middle" x="666" y="-45.5" font-family="Helvetica,sans-Serif" font-size="10.00">rest_json_add_devices</text>
</a>
</g>
</g>
<!-- Node4&#45;&gt;Node5 -->
<g id="edge4" class="edge"><title>Node4&#45;&gt;Node5</title>
<path fill="none" stroke="midnightblue" d="M582.252,-48C590.744,-48 599.398,-48 607.753,-48"/>
<polygon fill="midnightblue" stroke="midnightblue" points="582.005,-44.5001 572.004,-48 582.004,-51.5001 582.005,-44.5001"/>
</g>
<!-- Node6 -->
<g id="node6" class="node"><title>Node6</title>
<g id="a_node6"><a xlink:href="a00096.html#a640b87b4cf374466c27940092542bbec" target="_top" xlink:title="rest_json_add_adapter">
<polygon fill="none" stroke="black" points="770.5,-38.5 770.5,-57.5 885.5,-57.5 885.5,-38.5 770.5,-38.5"/>
<text text-anchor="middle" x="828" y="-45.5" font-family="Helvetica,sans-Serif" font-size="10.00">rest_json_add_adapter</text>
</a>
</g>
</g>
<!-- Node5&#45;&gt;Node6 -->
<g id="edge5" class="edge"><title>Node5&#45;&gt;Node6</title>
<path fill="none" stroke="midnightblue" d="M734.641,-48C746.535,-48 758.802,-48 770.357,-48"/>
<polygon fill="midnightblue" stroke="midnightblue" points="734.312,-44.5001 724.312,-48 734.312,-51.5001 734.312,-44.5001"/>
</g>
<!-- Node7 -->
<g id="node7" class="node"><title>Node7</title>
<g id="a_node7"><a xlink:href="a00096.html#a99b3728ca81ef813ed208afd6de9a9b3" target="_top" xlink:title="rest_json_add_adapters">
<polygon fill="none" stroke="black" points="949.5,-38.5 949.5,-57.5 1069.5,-57.5 1069.5,-38.5 949.5,-38.5"/>
<text text-anchor="middle" x="1009.5" y="-45.5" font-family="Helvetica,sans-Serif" font-size="10.00">rest_json_add_adapters</text>
</a>
</g>
</g>
<!-- Node6&#45;&gt;Node7 -->
<g id="edge6" class="edge"><title>Node6&#45;&gt;Node7</title>
<path fill="none" stroke="midnightblue" d="M895.941,-48C913.455,-48 932.21,-48 949.29,-48"/>
<polygon fill="midnightblue" stroke="midnightblue" points="895.795,-44.5001 885.795,-48 895.795,-51.5001 895.795,-44.5001"/>
</g>
<!-- Node8 -->
<g id="node8" class="node"><title>Node8</title>
<g id="a_node8"><a xlink:href="a00096.html#a28e31077cb0239c2f21c335da42223e2" target="_top" xlink:title="rest_json_add_configuration">
<polygon fill="none" stroke="black" points="1123,-38.5 1123,-57.5 1261,-57.5 1261,-38.5 1123,-38.5"/>
<text text-anchor="middle" x="1192" y="-45.5" font-family="Helvetica,sans-Serif" font-size="10.00">rest_json_add_configuration</text>
</a>
</g>
</g>
<!-- Node7&#45;&gt;Node8 -->
<g id="edge7" class="edge"><title>Node7&#45;&gt;Node8</title>
<path fill="none" stroke="midnightblue" d="M1079.78,-48C1093.95,-48 1108.86,-48 1122.99,-48"/>
<polygon fill="midnightblue" stroke="midnightblue" points="1079.6,-44.5001 1069.6,-48 1079.6,-51.5001 1079.6,-44.5001"/>
</g>
<!-- Node9 -->
<g id="node9" class="node"><title>Node9</title>
<g id="a_node9"><a xlink:href="a00097.html#aeb80ec3253d248a129513864cdc53817" target="_top" xlink:title="hpd_rest_json_get_configuration">
<polygon fill="none" stroke="black" points="1297,-38.5 1297,-57.5 1454,-57.5 1454,-38.5 1297,-38.5"/>
<text text-anchor="middle" x="1375.5" y="-45.5" font-family="Helvetica,sans-Serif" font-size="10.00">hpd_rest_json_get_configuration</text>
</a>
</g>
</g>
<!-- Node8&#45;&gt;Node9 -->
<g id="edge8" class="edge"><title>Node8&#45;&gt;Node9</title>
<path fill="none" stroke="midnightblue" d="M1271.33,-48C1279.8,-48 1288.41,-48 1296.87,-48"/>
<polygon fill="midnightblue" stroke="midnightblue" points="1271.1,-44.5001 1261.1,-48 1271.1,-51.5001 1271.1,-44.5001"/>
</g>
<!-- Node10 -->
<g id="node10" class="node"><title>Node10</title>
<g id="a_node10"><a xlink:href="a00034.html#ac0f2724b4617f1adb53492f1a57a4e4b" target="_top" xlink:title="rest_reply_devices">
<polygon fill="none" stroke="black" points="1490,-19.5 1490,-38.5 1588,-38.5 1588,-19.5 1490,-19.5"/>
<text text-anchor="middle" x="1539" y="-26.5" font-family="Helvetica,sans-Serif" font-size="10.00">rest_reply_devices</text>
</a>
</g>
</g>
<!-- Node9&#45;&gt;Node10 -->
<g id="edge9" class="edge"><title>Node9&#45;&gt;Node10</title>
<path fill="none" stroke="midnightblue" d="M1464.62,-37.6334C1473.29,-36.6135 1481.84,-35.6071 1489.88,-34.6616"/>
<polygon fill="midnightblue" stroke="midnightblue" points="1463.93,-34.1894 1454.41,-38.8339 1464.75,-41.1415 1463.93,-34.1894"/>
</g>
<!-- Node11 -->
<g id="node11" class="node"><title>Node11</title>
<g id="a_node11"><a xlink:href="a00034.html#a2731aca6e6807e771bcf9c94dbec968c" target="_top" xlink:title="rest_on_req_hdr_cmpl">
<polygon fill="none" stroke="black" points="1624,-19.5 1624,-38.5 1737,-38.5 1737,-19.5 1624,-19.5"/>
<text text-anchor="middle" x="1680.5" y="-26.5" font-family="Helvetica,sans-Serif" font-size="10.00">rest_on_req_hdr_cmpl</text>
</a>
</g>
</g>
<!-- Node10&#45;&gt;Node11 -->
<g id="edge10" class="edge"><title>Node10&#45;&gt;Node11</title>
<path fill="none" stroke="midnightblue" d="M1598.17,-29C1606.63,-29 1615.32,-29 1623.72,-29"/>
<polygon fill="midnightblue" stroke="midnightblue" points="1598.01,-25.5001 1588.01,-29 1598.01,-32.5001 1598.01,-25.5001"/>
</g>
<!-- Node12 -->
<g id="node12" class="node"><title>Node12</title>
<g id="a_node12"><a xlink:href="a00034.html#a02090c3feb19ea4c6e1fa9b5e6392752" target="_top" xlink:title="rest_on_create">
<polygon fill="none" stroke="black" points="1773,-19.5 1773,-38.5 1854,-38.5 1854,-19.5 1773,-19.5"/>
<text text-anchor="middle" x="1813.5" y="-26.5" font-family="Helvetica,sans-Serif" font-size="10.00">rest_on_create</text>
</a>
</g>
</g>
<!-- Node11&#45;&gt;Node12 -->
<g id="edge11" class="edge"><title>Node11&#45;&gt;Node12</title>
<path fill="none" stroke="midnightblue" d="M1747.25,-29C1755.96,-29 1764.66,-29 1772.75,-29"/>
<polygon fill="midnightblue" stroke="midnightblue" points="1747.06,-25.5001 1737.06,-29 1747.06,-32.5001 1747.06,-25.5001"/>
</g>
<!-- Node14 -->
<g id="node14" class="node"><title>Node14</title>
<g id="a_node14"><a xlink:href="a00098.html#a1225e8ad884c053761d73179e1ee1855" target="_top" xlink:title="rest_xml_add_device">
<polygon fill="none" stroke="black" points="462,-0.5 462,-19.5 571,-19.5 571,-0.5 462,-0.5"/>
<text text-anchor="middle" x="516.5" y="-7.5" font-family="Helvetica,sans-Serif" font-size="10.00">rest_xml_add_device</text>
</a>
</g>
</g>
<!-- Node13&#45;&gt;Node14 -->
<g id="edge13" class="edge"><title>Node13&#45;&gt;Node14</title>
<path fill="none" stroke="midnightblue" d="M431.831,-10C441.794,-10 451.98,-10 461.66,-10"/>
<polygon fill="midnightblue" stroke="midnightblue" points="431.559,-6.5001 421.559,-10 431.559,-13.5001 431.559,-6.5001"/>
</g>
<!-- Node15 -->
<g id="node15" class="node"><title>Node15</title>
<g id="a_node15"><a xlink:href="a00098.html#a8a0a8fd989454b355fdaf3da1f129187" target="_top" xlink:title="rest_xml_add_adapter">
<polygon fill="none" stroke="black" points="609.5,-0.5 609.5,-19.5 722.5,-19.5 722.5,-0.5 609.5,-0.5"/>
<text text-anchor="middle" x="666" y="-7.5" font-family="Helvetica,sans-Serif" font-size="10.00">rest_xml_add_adapter</text>
</a>
</g>
</g>
<!-- Node14&#45;&gt;Node15 -->
<g id="edge14" class="edge"><title>Node14&#45;&gt;Node15</title>
<path fill="none" stroke="midnightblue" d="M581.455,-10C590.672,-10 600.097,-10 609.14,-10"/>
<polygon fill="midnightblue" stroke="midnightblue" points="581.168,-6.5001 571.168,-10 581.168,-13.5001 581.168,-6.5001"/>
</g>
<!-- Node16 -->
<g id="node16" class="node"><title>Node16</title>
<g id="a_node16"><a xlink:href="a00098.html#aca121ba7e7fc75cee1159bd654566d5e" target="_top" xlink:title="rest_xml_add_configuration">
<polygon fill="none" stroke="black" points="760,-0.5 760,-19.5 896,-19.5 896,-0.5 760,-0.5"/>
<text text-anchor="middle" x="828" y="-7.5" font-family="Helvetica,sans-Serif" font-size="10.00">rest_xml_add_configuration</text>
</a>
</g>
</g>
<!-- Node15&#45;&gt;Node16 -->
<g id="edge15" class="edge"><title>Node15&#45;&gt;Node16</title>
<path fill="none" stroke="midnightblue" d="M732.516,-10C741.494,-10 750.724,-10 759.733,-10"/>
<polygon fill="midnightblue" stroke="midnightblue" points="732.511,-6.5001 722.511,-10 732.511,-13.5001 732.511,-6.5001"/>
</g>
<!-- Node17 -->
<g id="node17" class="node"><title>Node17</title>
<g id="a_node17"><a xlink:href="a00099.html#a5f45c0580c596d22c41495ecc83e6e85" target="_top" xlink:title="hpd_rest_xml_get_configuration">
<polygon fill="none" stroke="black" points="932,-0.5 932,-19.5 1087,-19.5 1087,-0.5 932,-0.5"/>
<text text-anchor="middle" x="1009.5" y="-7.5" font-family="Helvetica,sans-Serif" font-size="10.00">hpd_rest_xml_get_configuration</text>
</a>
</g>
</g>
<!-- Node16&#45;&gt;Node17 -->
<g id="edge16" class="edge"><title>Node16&#45;&gt;Node17</title>
<path fill="none" stroke="midnightblue" d="M906.314,-10C914.77,-10 923.376,-10 931.824,-10"/>
<polygon fill="midnightblue" stroke="midnightblue" points="906.094,-6.5001 896.094,-10 906.094,-13.5001 906.094,-6.5001"/>
</g>
<!-- Node17&#45;&gt;Node10 -->
<g id="edge17" class="edge"><title>Node17&#45;&gt;Node10</title>
<path fill="none" stroke="midnightblue" d="M1097.48,-13.1328C1209.69,-17.1746 1401.01,-24.0656 1489.93,-27.2686"/>
<polygon fill="midnightblue" stroke="midnightblue" points="1097.32,-9.62508 1087.2,-12.7628 1097.07,-16.6205 1097.32,-9.62508"/>
</g>
</g>
</svg>
