<?xml version="1.0" encoding="UTF-8" standalone="no"?>
<!DOCTYPE svg PUBLIC "-//W3C//DTD SVG 1.1//EN"
 "http://www.w3.org/Graphics/SVG/1.1/DTD/svg11.dtd">
<!-- Generated by graphviz version 2.38.0 (20140413.2041)
 -->
<!-- Title: reply_unsupported_media_type Pages: 1 -->
<svg width="755pt" height="108pt"
 viewBox="0.00 0.00 755.00 108.29" xmlns="http://www.w3.org/2000/svg" xmlns:xlink="http://www.w3.org/1999/xlink">
<g id="graph0" class="graph" transform="scale(1 1) rotate(0) translate(4 104.285)">
<title>reply_unsupported_media_type</title>
<!-- Node1 -->
<g id="node1" class="node"><title>Node1</title>
<polygon fill="#bfbfbf" stroke="black" points="0,-13.7853 0,-32.7853 152,-32.7853 152,-13.7853 0,-13.7853"/>
<text text-anchor="middle" x="76" y="-20.7853" font-family="Helvetica,sans-Serif" font-size="10.00">reply_unsupported_media_type</text>
</g>
<!-- Node2 -->
<g id="node2" class="node"><title>Node2</title>
<g id="a_node2"><a xlink:href="a00025.html#a144860c2e3dfe3d8d9fd021968bbd8ff" target="_top" xlink:title="reply_devices">
<polygon fill="none" stroke="black" points="188,-70.7853 188,-89.7853 265,-89.7853 265,-70.7853 188,-70.7853"/>
<text text-anchor="middle" x="226.5" y="-77.7853" font-family="Helvetica,sans-Serif" font-size="10.00">reply_devices</text>
</a>
</g>
</g>
<!-- Node1&#45;&gt;Node2 -->
<g id="edge1" class="edge"><title>Node1&#45;&gt;Node2</title>
<path fill="none" stroke="midnightblue" d="M111.397,-36.4883C138.664,-46.9543 176.12,-61.3315 200.563,-70.7137"/>
<polygon fill="midnightblue" stroke="midnightblue" points="112.446,-33.1418 101.856,-32.8258 109.937,-39.6769 112.446,-33.1418"/>
</g>
<!-- Node5 -->
<g id="node5" class="node"><title>Node5</title>
<g id="a_node5"><a xlink:href="a00025.html#abccd0d79ed3acf405337a07b4572d223" target="_top" xlink:title="on_response">
<polygon fill="none" stroke="black" points="190.5,-13.7853 190.5,-32.7853 262.5,-32.7853 262.5,-13.7853 190.5,-13.7853"/>
<text text-anchor="middle" x="226.5" y="-20.7853" font-family="Helvetica,sans-Serif" font-size="10.00">on_response</text>
</a>
</g>
</g>
<!-- Node1&#45;&gt;Node5 -->
<g id="edge4" class="edge"><title>Node1&#45;&gt;Node5</title>
<path fill="none" stroke="midnightblue" d="M162.121,-23.2853C172.061,-23.2853 181.735,-23.2853 190.41,-23.2853"/>
<polygon fill="midnightblue" stroke="midnightblue" points="162.12,-19.7854 152.12,-23.2853 162.12,-26.7854 162.12,-19.7854"/>
</g>
<!-- Node8 -->
<g id="node8" class="node"><title>Node8</title>
<g id="a_node8"><a xlink:href="a00025.html#a74ba52adbe4c46e9a9c33649e3b75243" target="_top" xlink:title="on_req_cmpl">
<polygon fill="none" stroke="black" points="580,-13.7853 580,-32.7853 652,-32.7853 652,-13.7853 580,-13.7853"/>
<text text-anchor="middle" x="616" y="-20.7853" font-family="Helvetica,sans-Serif" font-size="10.00">on_req_cmpl</text>
</a>
</g>
</g>
<!-- Node1&#45;&gt;Node8 -->
<g id="edge10" class="edge"><title>Node1&#45;&gt;Node8</title>
<path fill="none" stroke="midnightblue" d="M132.307,-11.9208C150.016,-8.79252 169.761,-5.83503 188,-4.2853 333.105,8.04394 506.673,-9.69593 579.79,-18.6485"/>
<polygon fill="midnightblue" stroke="midnightblue" points="131.352,-8.53704 122.141,-13.7731 132.607,-15.4236 131.352,-8.53704"/>
</g>
<!-- Node3 -->
<g id="node3" class="node"><title>Node3</title>
<g id="a_node3"><a xlink:href="a00025.html#abd6f4422cb70766aae33a18dc6b6cb74" target="_top" xlink:title="on_req_hdr_cmpl">
<polygon fill="none" stroke="black" points="451,-80.7853 451,-99.7853 542,-99.7853 542,-80.7853 451,-80.7853"/>
<text text-anchor="middle" x="496.5" y="-87.7853" font-family="Helvetica,sans-Serif" font-size="10.00">on_req_hdr_cmpl</text>
</a>
</g>
</g>
<!-- Node2&#45;&gt;Node3 -->
<g id="edge2" class="edge"><title>Node2&#45;&gt;Node3</title>
<path fill="none" stroke="midnightblue" d="M275.205,-82.0653C324.861,-83.9182 402.03,-86.7976 450.613,-88.6104"/>
<polygon fill="midnightblue" stroke="midnightblue" points="275.17,-78.5617 265.046,-81.6863 274.909,-85.5568 275.17,-78.5617"/>
</g>
<!-- Node4 -->
<g id="node4" class="node"><title>Node4</title>
<g id="a_node4"><a xlink:href="a00025.html#ad079431c7eba97c5dd5e4e202cdf6102" target="_top" xlink:title="on_create">
<polygon fill="none" stroke="black" points="688,-41.7853 688,-60.7853 747,-60.7853 747,-41.7853 688,-41.7853"/>
<text text-anchor="middle" x="717.5" y="-48.7853" font-family="Helvetica,sans-Serif" font-size="10.00">on_create</text>
</a>
</g>
</g>
<!-- Node3&#45;&gt;Node4 -->
<g id="edge3" class="edge"><title>Node3&#45;&gt;Node4</title>
<path fill="none" stroke="midnightblue" d="M552.136,-80.5556C595.25,-72.8778 653.665,-62.475 687.994,-56.3618"/>
<polygon fill="midnightblue" stroke="midnightblue" points="551.313,-77.147 542.082,-82.3461 552.541,-84.0385 551.313,-77.147"/>
</g>
<!-- Node6 -->
<g id="node6" class="node"><title>Node6</title>
<g id="a_node6"><a xlink:href="a00069.html#af762dc3db213f4a84ba5fe3ab36a78fe" target="_top" xlink:title="request_alloc_request">
<polygon fill="none" stroke="black" points="301,-42.7853 301,-61.7853 413,-61.7853 413,-42.7853 301,-42.7853"/>
<text text-anchor="middle" x="357" y="-49.7853" font-family="Helvetica,sans-Serif" font-size="10.00">request_alloc_request</text>
</a>
</g>
</g>
<!-- Node5&#45;&gt;Node6 -->
<g id="edge5" class="edge"><title>Node5&#45;&gt;Node6</title>
<path fill="none" stroke="midnightblue" d="M272.537,-33.4493C285.881,-36.4607 300.443,-39.747 313.613,-42.7193"/>
<polygon fill="midnightblue" stroke="midnightblue" points="273.138,-29.9971 262.613,-31.2097 271.597,-36.8253 273.138,-29.9971"/>
</g>
<!-- Node5&#45;&gt;Node8 -->
<g id="edge9" class="edge"><title>Node5&#45;&gt;Node8</title>
<path fill="none" stroke="midnightblue" d="M272.575,-23.2853C350.576,-23.2853 509.135,-23.2853 579.729,-23.2853"/>
<polygon fill="midnightblue" stroke="midnightblue" points="272.572,-19.7854 262.571,-23.2853 272.571,-26.7854 272.572,-19.7854"/>
</g>
<!-- Node7 -->
<g id="node7" class="node"><title>Node7</title>
<g id="a_node7"><a xlink:href="a00070.html#ac8e7c21db1c80443994e79d29eae8286" target="_top" xlink:title="[hpd_request_t functions] ">
<polygon fill="none" stroke="black" points="449,-42.7853 449,-61.7853 544,-61.7853 544,-42.7853 449,-42.7853"/>
<text text-anchor="middle" x="496.5" y="-49.7853" font-family="Helvetica,sans-Serif" font-size="10.00">hpd_request_alloc</text>
</a>
</g>
</g>
<!-- Node6&#45;&gt;Node7 -->
<g id="edge6" class="edge"><title>Node6&#45;&gt;Node7</title>
<path fill="none" stroke="midnightblue" d="M423.194,-52.2853C431.821,-52.2853 440.523,-52.2853 448.754,-52.2853"/>
<polygon fill="midnightblue" stroke="midnightblue" points="423.134,-48.7854 413.134,-52.2853 423.134,-55.7854 423.134,-48.7854"/>
</g>
<!-- Node7&#45;&gt;Node8 -->
<g id="edge7" class="edge"><title>Node7&#45;&gt;Node8</title>
<path fill="none" stroke="midnightblue" d="M546.062,-40.2997C557.374,-37.5079 569.205,-34.5878 579.81,-31.9706"/>
<polygon fill="midnightblue" stroke="midnightblue" points="545.17,-36.915 536.3,-42.7092 546.847,-43.711 545.17,-36.915"/>
</g>
<!-- Node8&#45;&gt;Node4 -->
<g id="edge8" class="edge"><title>Node8&#45;&gt;Node4</title>
<path fill="none" stroke="midnightblue" d="M660.795,-35.6095C670.011,-38.2031 679.504,-40.8745 687.984,-43.2607"/>
<polygon fill="midnightblue" stroke="midnightblue" points="661.538,-32.1828 650.964,-32.843 659.642,-38.9211 661.538,-32.1828"/>
</g>
</g>
</svg>
