<?xml version="1.0" encoding="UTF-8" standalone="no"?>
<!DOCTYPE svg PUBLIC "-//W3C//DTD SVG 1.1//EN"
 "http://www.w3.org/Graphics/SVG/1.1/DTD/svg11.dtd">
<!-- Generated by graphviz version 2.38.0 (20140413.2041)
 -->
<!-- Title: hpd_curl_ev_add_handle Pages: 1 -->
<svg width="624pt" height="78pt"
 viewBox="0.00 0.00 624.00 77.50" xmlns="http://www.w3.org/2000/svg" xmlns:xlink="http://www.w3.org/1999/xlink">
<g id="graph0" class="graph" transform="scale(1 1) rotate(0) translate(4 73.5)">
<title>hpd_curl_ev_add_handle</title>
<!-- Node1 -->
<g id="node1" class="node"><title>Node1</title>
<polygon fill="#bfbfbf" stroke="black" points="0,-25.5 0,-44.5 124,-44.5 124,-25.5 0,-25.5"/>
<text text-anchor="middle" x="62" y="-32.5" font-family="Helvetica,sans-Serif" font-size="10.00">hpd_curl_ev_add_handle</text>
</g>
<!-- Node2 -->
<g id="node2" class="node"><title>Node2</title>
<g id="a_node2"><a xlink:href="a00011.html#a3f36a139b8cf22a41850235ce3a3c88c" target="_top" xlink:title="curl_ev_add_next">
<polygon fill="none" stroke="black" points="160,-25.5 160,-44.5 253,-44.5 253,-25.5 160,-25.5"/>
<text text-anchor="middle" x="206.5" y="-32.5" font-family="Helvetica,sans-Serif" font-size="10.00">curl_ev_add_next</text>
</a>
</g>
</g>
<!-- Node1&#45;&gt;Node2 -->
<g id="edge1" class="edge"><title>Node1&#45;&gt;Node2</title>
<path fill="none" stroke="midnightblue" d="M124.26,-35C132.733,-35 141.399,-35 149.765,-35"/>
<polygon fill="midnightblue" stroke="midnightblue" points="149.787,-38.5001 159.787,-35 149.787,-31.5001 149.787,-38.5001"/>
</g>
<!-- Node3 -->
<g id="node3" class="node"><title>Node3</title>
<g id="a_node3"><a xlink:href="a00011.html#a30f7e7259072d4e929092bf994dd0f7e" target="_top" xlink:title="curl_ev_socket_action">
<polygon fill="none" stroke="black" points="289,-6.5 289,-25.5 403,-25.5 403,-6.5 289,-6.5"/>
<text text-anchor="middle" x="346" y="-13.5" font-family="Helvetica,sans-Serif" font-size="10.00">curl_ev_socket_action</text>
</a>
</g>
</g>
<!-- Node2&#45;&gt;Node3 -->
<g id="edge2" class="edge"><title>Node2&#45;&gt;Node3</title>
<path fill="none" stroke="midnightblue" d="M253.286,-28.6733C261.484,-27.5405 270.174,-26.3396 278.81,-25.1463"/>
<polygon fill="midnightblue" stroke="midnightblue" points="279.464,-28.5892 288.891,-23.7533 278.506,-21.6551 279.464,-28.5892"/>
</g>
<!-- Node4 -->
<g id="node4" class="node"><title>Node4</title>
<g id="a_node4"><a xlink:href="a00011.html#a51a40a6c8c1a8ecd90e288ab02687ad3" target="_top" xlink:title="hpd_curl_ev_remove\l_handle">
<polygon fill="none" stroke="black" points="439.5,-39 439.5,-69 546.5,-69 546.5,-39 439.5,-39"/>
<text text-anchor="start" x="447.5" y="-57" font-family="Helvetica,sans-Serif" font-size="10.00">hpd_curl_ev_remove</text>
<text text-anchor="middle" x="493" y="-46" font-family="Helvetica,sans-Serif" font-size="10.00">_handle</text>
</a>
</g>
</g>
<!-- Node3&#45;&gt;Node4 -->
<g id="edge3" class="edge"><title>Node3&#45;&gt;Node4</title>
<path fill="none" stroke="midnightblue" d="M383.59,-25.589C397.423,-29.2142 413.589,-33.451 429.152,-37.5294"/>
<polygon fill="midnightblue" stroke="midnightblue" points="428.7,-41.0292 439.261,-40.1787 430.475,-34.2579 428.7,-41.0292"/>
</g>
<!-- Node5 -->
<g id="node5" class="node"><title>Node5</title>
<g id="a_node5"><a xlink:href="a00043.html#aad3ddbb29440b4b7b4f1266c0432c60c" target="_top" xlink:title="hpd_curl_ev_cleanup">
<polygon fill="none" stroke="black" points="439,-0.5 439,-19.5 547,-19.5 547,-0.5 439,-0.5"/>
<text text-anchor="middle" x="493" y="-7.5" font-family="Helvetica,sans-Serif" font-size="10.00">hpd_curl_ev_cleanup</text>
</a>
</g>
</g>
<!-- Node3&#45;&gt;Node5 -->
<g id="edge5" class="edge"><title>Node3&#45;&gt;Node5</title>
<path fill="none" stroke="midnightblue" d="M403.061,-13.6802C411.538,-13.3295 420.332,-12.9656 428.945,-12.6092"/>
<polygon fill="midnightblue" stroke="midnightblue" points="429.096,-16.106 438.943,-12.1955 428.807,-9.11199 429.096,-16.106"/>
</g>
<!-- Node4&#45;&gt;Node2 -->
<g id="edge4" class="edge"><title>Node4&#45;&gt;Node2</title>
<path fill="none" stroke="midnightblue" d="M439.147,-50.4703C389.146,-47.131 314.366,-42.1369 263.391,-38.7326"/>
<polygon fill="midnightblue" stroke="midnightblue" points="263.421,-35.2269 253.21,-38.0527 262.954,-42.2113 263.421,-35.2269"/>
</g>
<!-- Node6 -->
<g id="node6" class="node"><title>Node6</title>
<g id="a_node6"><a xlink:href="a00012.html#adf46370d9c211c3be22966b4606ba9b0" target="_top" xlink:title="free">
<polygon fill="none" stroke="black" points="583,-0.5 583,-19.5 616,-19.5 616,-0.5 583,-0.5"/>
<text text-anchor="middle" x="599.5" y="-7.5" font-family="Helvetica,sans-Serif" font-size="10.00">free</text>
</a>
</g>
</g>
<!-- Node5&#45;&gt;Node6 -->
<g id="edge6" class="edge"><title>Node5&#45;&gt;Node6</title>
<path fill="none" stroke="midnightblue" d="M547.168,-10C556.079,-10 564.953,-10 572.755,-10"/>
<polygon fill="midnightblue" stroke="midnightblue" points="572.963,-13.5001 582.963,-10 572.963,-6.5001 572.963,-13.5001"/>
</g>
</g>
</svg>
