<?xml version="1.0" encoding="UTF-8" standalone="no"?>
<!DOCTYPE svg PUBLIC "-//W3C//DTD SVG 1.1//EN"
 "http://www.w3.org/Graphics/SVG/1.1/DTD/svg11.dtd">
<!-- Generated by graphviz version 2.38.0 (20140413.2041)
 -->
<!-- Title: request_get_response_status Pages: 1 -->
<svg width="875pt" height="53pt"
 viewBox="0.00 0.00 875.00 52.50" xmlns="http://www.w3.org/2000/svg" xmlns:xlink="http://www.w3.org/1999/xlink">
<g id="graph0" class="graph" transform="scale(1 1) rotate(0) translate(4 48.5)">
<title>request_get_response_status</title>
<!-- Node1 -->
<g id="node1" class="node"><title>Node1</title>
<polygon fill="#bfbfbf" stroke="black" points="0,-0.5 0,-30.5 113,-30.5 113,-0.5 0,-0.5"/>
<text text-anchor="start" x="8" y="-18.5" font-family="Helvetica,sans-Serif" font-size="10.00">request_get_response</text>
<text text-anchor="middle" x="56.5" y="-7.5" font-family="Helvetica,sans-Serif" font-size="10.00">_status</text>
</g>
<!-- Node2 -->
<g id="node2" class="node"><title>Node2</title>
<g id="a_node2"><a xlink:href="a00070.html#a132befb32dc0261ff781b3f476decbe1" target="_top" xlink:title="[hpd_request_t functions] ">
<polygon fill="none" stroke="black" points="149,-6 149,-25 277,-25 277,-6 149,-6"/>
<text text-anchor="middle" x="213" y="-13" font-family="Helvetica,sans-Serif" font-size="10.00">hpd_response_get_status</text>
</a>
</g>
</g>
<!-- Node1&#45;&gt;Node2 -->
<g id="edge1" class="edge"><title>Node1&#45;&gt;Node2</title>
<path fill="none" stroke="midnightblue" d="M123.469,-15.5C131.922,-15.5 140.559,-15.5 148.964,-15.5"/>
<polygon fill="midnightblue" stroke="midnightblue" points="123.278,-12.0001 113.278,-15.5 123.278,-19.0001 123.278,-12.0001"/>
</g>
<!-- Node3 -->
<g id="node3" class="node"><title>Node3</title>
<g id="a_node3"><a xlink:href="a00025.html#abccd0d79ed3acf405337a07b4572d223" target="_top" xlink:title="on_response">
<polygon fill="none" stroke="black" points="313,-6 313,-25 385,-25 385,-6 313,-6"/>
<text text-anchor="middle" x="349" y="-13" font-family="Helvetica,sans-Serif" font-size="10.00">on_response</text>
</a>
</g>
</g>
<!-- Node2&#45;&gt;Node3 -->
<g id="edge2" class="edge"><title>Node2&#45;&gt;Node3</title>
<path fill="none" stroke="midnightblue" d="M287.216,-15.5C296.172,-15.5 304.978,-15.5 312.987,-15.5"/>
<polygon fill="midnightblue" stroke="midnightblue" points="287.076,-12.0001 277.076,-15.5 287.076,-19.0001 287.076,-12.0001"/>
</g>
<!-- Node4 -->
<g id="node4" class="node"><title>Node4</title>
<g id="a_node4"><a xlink:href="a00069.html#af762dc3db213f4a84ba5fe3ab36a78fe" target="_top" xlink:title="request_alloc_request">
<polygon fill="none" stroke="black" points="421,-25 421,-44 533,-44 533,-25 421,-25"/>
<text text-anchor="middle" x="477" y="-32" font-family="Helvetica,sans-Serif" font-size="10.00">request_alloc_request</text>
</a>
</g>
</g>
<!-- Node3&#45;&gt;Node4 -->
<g id="edge3" class="edge"><title>Node3&#45;&gt;Node4</title>
<path fill="none" stroke="midnightblue" d="M395.013,-22.2877C403.365,-23.5471 412.177,-24.8759 420.792,-26.175"/>
<polygon fill="midnightblue" stroke="midnightblue" points="395.508,-18.8228 385.098,-20.7926 394.464,-25.7446 395.508,-18.8228"/>
</g>
<!-- Node6 -->
<g id="node6" class="node"><title>Node6</title>
<g id="a_node6"><a xlink:href="a00025.html#a74ba52adbe4c46e9a9c33649e3b75243" target="_top" xlink:title="on_req_cmpl">
<polygon fill="none" stroke="black" points="700,-6 700,-25 772,-25 772,-6 700,-6"/>
<text text-anchor="middle" x="736" y="-13" font-family="Helvetica,sans-Serif" font-size="10.00">on_req_cmpl</text>
</a>
</g>
</g>
<!-- Node3&#45;&gt;Node6 -->
<g id="edge7" class="edge"><title>Node3&#45;&gt;Node6</title>
<path fill="none" stroke="midnightblue" d="M395.613,-15.5C473.325,-15.5 629.768,-15.5 699.756,-15.5"/>
<polygon fill="midnightblue" stroke="midnightblue" points="395.187,-12.0001 385.187,-15.5 395.187,-19.0001 395.187,-12.0001"/>
</g>
<!-- Node5 -->
<g id="node5" class="node"><title>Node5</title>
<g id="a_node5"><a xlink:href="a00070.html#ac8e7c21db1c80443994e79d29eae8286" target="_top" xlink:title="[hpd_request_t functions] ">
<polygon fill="none" stroke="black" points="569,-25 569,-44 664,-44 664,-25 569,-25"/>
<text text-anchor="middle" x="616.5" y="-32" font-family="Helvetica,sans-Serif" font-size="10.00">hpd_request_alloc</text>
</a>
</g>
</g>
<!-- Node4&#45;&gt;Node5 -->
<g id="edge4" class="edge"><title>Node4&#45;&gt;Node5</title>
<path fill="none" stroke="midnightblue" d="M543.194,-34.5C551.821,-34.5 560.523,-34.5 568.754,-34.5"/>
<polygon fill="midnightblue" stroke="midnightblue" points="543.134,-31.0001 533.134,-34.5 543.134,-38.0001 543.134,-31.0001"/>
</g>
<!-- Node5&#45;&gt;Node6 -->
<g id="edge5" class="edge"><title>Node5&#45;&gt;Node6</title>
<path fill="none" stroke="midnightblue" d="M674.153,-25.3391C682.961,-23.9148 691.833,-22.4803 699.974,-21.1638"/>
<polygon fill="midnightblue" stroke="midnightblue" points="673.59,-21.8846 664.277,-26.9361 674.707,-28.7949 673.59,-21.8846"/>
</g>
<!-- Node7 -->
<g id="node7" class="node"><title>Node7</title>
<g id="a_node7"><a xlink:href="a00025.html#ad079431c7eba97c5dd5e4e202cdf6102" target="_top" xlink:title="on_create">
<polygon fill="none" stroke="black" points="808,-6 808,-25 867,-25 867,-6 808,-6"/>
<text text-anchor="middle" x="837.5" y="-13" font-family="Helvetica,sans-Serif" font-size="10.00">on_create</text>
</a>
</g>
</g>
<!-- Node6&#45;&gt;Node7 -->
<g id="edge6" class="edge"><title>Node6&#45;&gt;Node7</title>
<path fill="none" stroke="midnightblue" d="M782.212,-15.5C790.974,-15.5 799.925,-15.5 807.965,-15.5"/>
<polygon fill="midnightblue" stroke="midnightblue" points="782.08,-12.0001 772.08,-15.5 782.08,-19.0001 782.08,-12.0001"/>
</g>
</g>
</svg>
