<?xml version="1.0" encoding="UTF-8" standalone="no"?>
<!DOCTYPE svg PUBLIC "-//W3C//DTD SVG 1.1//EN"
 "http://www.w3.org/Graphics/SVG/1.1/DTD/svg11.dtd">
<!-- Generated by graphviz version 2.38.0 (20140413.2041)
 -->
<!-- Title: on_path_complete Pages: 1 -->
<svg width="262pt" height="104pt"
 viewBox="0.00 0.00 262.00 104.00" xmlns="http://www.w3.org/2000/svg" xmlns:xlink="http://www.w3.org/1999/xlink">
<g id="graph0" class="graph" transform="scale(1 1) rotate(0) translate(4 100)">
<title>on_path_complete</title>
<!-- Node1 -->
<g id="node1" class="node"><title>Node1</title>
<polygon fill="#bfbfbf" stroke="black" points="0,-38.5 0,-57.5 96,-57.5 96,-38.5 0,-38.5"/>
<text text-anchor="middle" x="48" y="-45.5" font-family="Helvetica,sans-Serif" font-size="10.00">on_path_complete</text>
</g>
<!-- Node2 -->
<g id="node2" class="node"><title>Node2</title>
<g id="a_node2"><a xlink:href="a00038.html#a3e22da197083e90a2456a4ccd8a374d0" target="_top" xlink:title="ASSERT_EQUAL">
<polygon fill="none" stroke="black" points="145,-76.5 145,-95.5 241,-95.5 241,-76.5 145,-76.5"/>
<text text-anchor="middle" x="193" y="-83.5" font-family="Helvetica,sans-Serif" font-size="10.00">ASSERT_EQUAL</text>
</a>
</g>
</g>
<!-- Node1&#45;&gt;Node2 -->
<g id="edge1" class="edge"><title>Node1&#45;&gt;Node2</title>
<path fill="none" stroke="midnightblue" d="M85.0849,-57.589C103.63,-62.5169 126.426,-68.5749 146.199,-73.8291"/>
<polygon fill="midnightblue" stroke="midnightblue" points="145.363,-77.2284 155.927,-76.4141 147.161,-70.4632 145.363,-77.2284"/>
</g>
<!-- Node3 -->
<g id="node3" class="node"><title>Node3</title>
<g id="a_node3"><a xlink:href="a00006.html#a51f456ebe77d933182a7f264e8aad6e9" target="_top" xlink:title="ASSERT_STR_EQUAL">
<polygon fill="none" stroke="black" points="132,-38.5 132,-57.5 254,-57.5 254,-38.5 132,-38.5"/>
<text text-anchor="middle" x="193" y="-45.5" font-family="Helvetica,sans-Serif" font-size="10.00">ASSERT_STR_EQUAL</text>
</a>
</g>
</g>
<!-- Node1&#45;&gt;Node3 -->
<g id="edge2" class="edge"><title>Node1&#45;&gt;Node3</title>
<path fill="none" stroke="midnightblue" d="M96.2199,-48C104.406,-48 113.074,-48 121.718,-48"/>
<polygon fill="midnightblue" stroke="midnightblue" points="121.825,-51.5001 131.825,-48 121.825,-44.5001 121.825,-51.5001"/>
</g>
<!-- Node4 -->
<g id="node4" class="node"><title>Node4</title>
<g id="a_node4"><a xlink:href="a00006.html#adf46370d9c211c3be22966b4606ba9b0" target="_top" xlink:title="free">
<polygon fill="none" stroke="black" points="176.5,-0.5 176.5,-19.5 209.5,-19.5 209.5,-0.5 176.5,-0.5"/>
<text text-anchor="middle" x="193" y="-7.5" font-family="Helvetica,sans-Serif" font-size="10.00">free</text>
</a>
</g>
</g>
<!-- Node1&#45;&gt;Node4 -->
<g id="edge3" class="edge"><title>Node1&#45;&gt;Node4</title>
<path fill="none" stroke="midnightblue" d="M85.0849,-38.411C110.513,-31.6539 143.936,-22.7722 166.595,-16.7511"/>
<polygon fill="midnightblue" stroke="midnightblue" points="167.71,-20.0763 176.475,-14.1254 165.912,-13.3111 167.71,-20.0763"/>
</g>
</g>
</svg>
