<?xml version="1.0" encoding="UTF-8" standalone="no"?>
<!DOCTYPE svg PUBLIC "-//W3C//DTD SVG 1.1//EN"
 "http://www.w3.org/Graphics/SVG/1.1/DTD/svg11.dtd">
<!-- Generated by graphviz version 2.38.0 (20140413.2041)
 -->
<!-- Title: daemon_watchers_stop Pages: 1 -->
<svg width="411pt" height="66pt"
 viewBox="0.00 0.00 411.00 66.00" xmlns="http://www.w3.org/2000/svg" xmlns:xlink="http://www.w3.org/1999/xlink">
<g id="graph0" class="graph" transform="scale(1 1) rotate(0) translate(4 62)">
<title>daemon_watchers_stop</title>
<!-- Node1 -->
<g id="node1" class="node"><title>Node1</title>
<polygon fill="#bfbfbf" stroke="black" points="0,-19.5 0,-38.5 120,-38.5 120,-19.5 0,-19.5"/>
<text text-anchor="middle" x="60" y="-26.5" font-family="Helvetica,sans-Serif" font-size="10.00">daemon_watchers_stop</text>
</g>
<!-- Node2 -->
<g id="node2" class="node"><title>Node2</title>
<g id="a_node2"><a xlink:href="a00017.html#affd72e7fb83ddd29450361c75672ddd4" target="_top" xlink:title="daemon_start">
<polygon fill="none" stroke="black" points="156,-19.5 156,-38.5 232,-38.5 232,-19.5 156,-19.5"/>
<text text-anchor="middle" x="194" y="-26.5" font-family="Helvetica,sans-Serif" font-size="10.00">daemon_start</text>
</a>
</g>
</g>
<!-- Node1&#45;&gt;Node2 -->
<g id="edge1" class="edge"><title>Node1&#45;&gt;Node2</title>
<path fill="none" stroke="midnightblue" d="M130.111,-29C139.024,-29 147.861,-29 155.97,-29"/>
<polygon fill="midnightblue" stroke="midnightblue" points="130.051,-25.5001 120.051,-29 130.05,-32.5001 130.051,-25.5001"/>
</g>
<!-- Node3 -->
<g id="node3" class="node"><title>Node3</title>
<g id="a_node3"><a xlink:href="a00077.html#a4a5e670df4a5790a7955aaef5483c08a" target="_top" xlink:title="hpd_start">
<polygon fill="none" stroke="black" points="268,-19.5 268,-38.5 325,-38.5 325,-19.5 268,-19.5"/>
<text text-anchor="middle" x="296.5" y="-26.5" font-family="Helvetica,sans-Serif" font-size="10.00">hpd_start</text>
</a>
</g>
</g>
<!-- Node2&#45;&gt;Node3 -->
<g id="edge2" class="edge"><title>Node2&#45;&gt;Node3</title>
<path fill="none" stroke="midnightblue" d="M242.323,-29C251.101,-29 259.999,-29 267.94,-29"/>
<polygon fill="midnightblue" stroke="midnightblue" points="242.137,-25.5001 232.137,-29 242.137,-32.5001 242.137,-25.5001"/>
</g>
<!-- Node4 -->
<g id="node4" class="node"><title>Node4</title>
<g id="a_node4"><a xlink:href="a00065.html#a0ddf1224851353fc92bfbff6f499fa97" target="_top" xlink:title="[file] ">
<polygon fill="none" stroke="black" points="363,-38.5 363,-57.5 401,-57.5 401,-38.5 363,-38.5"/>
<text text-anchor="middle" x="382" y="-45.5" font-family="Helvetica,sans-Serif" font-size="10.00">main</text>
</a>
</g>
</g>
<!-- Node3&#45;&gt;Node4 -->
<g id="edge3" class="edge"><title>Node3&#45;&gt;Node4</title>
<path fill="none" stroke="midnightblue" d="M335.124,-37.5611C344.732,-39.7474 354.635,-42.0007 362.769,-43.8516"/>
<polygon fill="midnightblue" stroke="midnightblue" points="335.832,-34.1328 325.304,-35.3267 334.278,-40.9583 335.832,-34.1328"/>
</g>
<!-- Node5 -->
<g id="node5" class="node"><title>Node5</title>
<g id="a_node5"><a xlink:href="a00039.html#a5de92b31931f2f5155c682379a06da32" target="_top" xlink:title="TEST">
<polygon fill="none" stroke="black" points="361,-0.5 361,-19.5 403,-19.5 403,-0.5 361,-0.5"/>
<text text-anchor="middle" x="382" y="-7.5" font-family="Helvetica,sans-Serif" font-size="10.00">TEST</text>
</a>
</g>
</g>
<!-- Node3&#45;&gt;Node5 -->
<g id="edge4" class="edge"><title>Node3&#45;&gt;Node5</title>
<path fill="none" stroke="midnightblue" d="M335.159,-20.4309C344.059,-18.4057 353.209,-16.3236 360.971,-14.5574"/>
<polygon fill="midnightblue" stroke="midnightblue" points="334.278,-17.0417 325.304,-22.6733 335.832,-23.8672 334.278,-17.0417"/>
</g>
</g>
</svg>
