<?xml version="1.0" encoding="UTF-8" standalone="no"?>
<!DOCTYPE svg PUBLIC "-//W3C//DTD SVG 1.1//EN"
 "http://www.w3.org/Graphics/SVG/1.1/DTD/svg11.dtd">
<!-- Generated by graphviz version 2.38.0 (20140413.2041)
 -->
<!-- Title: hpd_httpd_response_create Pages: 1 -->
<!--zoomable 427 -->
<svg id="main" version="1.1" xmlns="http://www.w3.org/2000/svg" xmlns:xlink="http://www.w3.org/1999/xlink" xml:space="preserve" onload="init(evt)">
<style type="text/css"><![CDATA[
.edge:hover path { stroke: red; }
.edge:hover polygon { stroke: red; fill: red; }
]]></style>
<script type="text/javascript"><![CDATA[
var edges = document.getElementsByTagName('g');
if (edges && edges.length) {
  for (var i=0;i<edges.length;i++) {
    if (edges[i].id.substr(0,4)=='edge') {
      edges[i].setAttribute('class','edge');
    }
  }
}
]]></script>
        <defs>
                <circle id="rim" cx="0" cy="0" r="7"/>
                <circle id="rim2" cx="0" cy="0" r="3.5"/>
                <g id="zoomPlus">
                        <use xlink:href="#rim" fill="#404040">
                                <set attributeName="fill" to="#808080" begin="zoomplus.mouseover" end="zoomplus.mouseout"/>
                        </use>
                        <path d="M-4,0h8M0,-4v8" fill="none" stroke="white" stroke-width="1.5" pointer-events="none"/>
                </g>
                <g id="zoomMin">
                        <use xlink:href="#rim" fill="#404040">
                                <set attributeName="fill" to="#808080" begin="zoomminus.mouseover" end="zoomminus.mouseout"/>
                        </use>
                        <path d="M-4,0h8" fill="none" stroke="white" stroke-width="1.5" pointer-events="none"/>
                </g>
                <g id="dirArrow">
                        <path fill="none" stroke="white" stroke-width="1.5" d="M0,-3.0v7 M-2.5,-0.5L0,-3.0L2.5,-0.5"/>
                </g>
               <g id="resetDef">
                       <use xlink:href="#rim2" fill="#404040">
                               <set attributeName="fill" to="#808080" begin="reset.mouseover" end="reset.mouseout"/>
                       </use>
               </g>
        </defs>

<script type="text/javascript">
var viewWidth = 803;
var viewHeight = 427;
var sectionId = 'dynsection-18';
</script>
<script xlink:href="svgpan.js"/>
<svg id="graph" class="graph">
<g id="viewport">
<title>hpd_httpd_response_create</title>
<!-- Node1 -->
<g id="node1" class="node"><title>Node1</title>
<polygon fill="#bfbfbf" stroke="black" points="0,-240.405 0,-270.405 104,-270.405 104,-240.405 0,-240.405"/>
<text text-anchor="start" x="8" y="-258.405" font-family="Helvetica,sans-Serif" font-size="10.00">hpd_httpd_response</text>
<text text-anchor="middle" x="52" y="-247.405" font-family="Helvetica,sans-Serif" font-size="10.00">_create</text>
</g>
<!-- Node2 -->
<g id="node2" class="node"><title>Node2</title>
<g id="a_node2"><a xlink:href="a00047.html#a2eb873ac7e610c2dff8e49d216d3aff8" target="_top" xlink:title="handle_request">
<polygon fill="none" stroke="black" points="140,-343.905 140,-362.905 223,-362.905 223,-343.905 140,-343.905"/>
<text text-anchor="middle" x="181.5" y="-350.905" font-family="Helvetica,sans-Serif" font-size="10.00">handle_request</text>
</a>
</g>
</g>
<!-- Node1&#45;&gt;Node2 -->
<g id="edge1" class="edge"><title>Node1&#45;&gt;Node2</title>
<path fill="none" stroke="midnightblue" d="M80.5991,-276.619C107.702,-297.451 147.827,-328.292 167.982,-343.784"/>
<polygon fill="midnightblue" stroke="midnightblue" points="82.704,-273.822 72.6425,-270.503 78.4381,-279.372 82.704,-273.822"/>
</g>
<!-- Node4 -->
<g id="node4" class="node"><title>Node4</title>
<g id="a_node4"><a xlink:href="a00034.html#a18db249df9c6c163ca09c0d7fadc3c75" target="_top" xlink:title="rest_reply">
<polygon fill="none" stroke="black" points="152,-204.905 152,-223.905 211,-223.905 211,-204.905 152,-204.905"/>
<text text-anchor="middle" x="181.5" y="-211.905" font-family="Helvetica,sans-Serif" font-size="10.00">rest_reply</text>
</a>
</g>
</g>
<!-- Node1&#45;&gt;Node4 -->
<g id="edge3" class="edge"><title>Node1&#45;&gt;Node4</title>
<path fill="none" stroke="midnightblue" d="M109.322,-237.294C124.052,-232.557 139.319,-227.648 151.919,-223.596"/>
<polygon fill="midnightblue" stroke="midnightblue" points="108.201,-233.978 99.7523,-240.371 110.344,-240.642 108.201,-233.978"/>
</g>
<!-- Node6 -->
<g id="node6" class="node"><title>Node6</title>
<g id="a_node6"><a xlink:href="a00034.html#ac0f2724b4617f1adb53492f1a57a4e4b" target="_top" xlink:title="rest_reply_devices">
<polygon fill="none" stroke="black" points="422,-287.905 422,-306.905 520,-306.905 520,-287.905 422,-287.905"/>
<text text-anchor="middle" x="471" y="-294.905" font-family="Helvetica,sans-Serif" font-size="10.00">rest_reply_devices</text>
</a>
</g>
</g>
<!-- Node1&#45;&gt;Node6 -->
<g id="edge33" class="edge"><title>Node1&#45;&gt;Node6</title>
<path fill="none" stroke="midnightblue" d="M114.246,-261.574C197.842,-269.994 345.951,-284.911 421.999,-292.571"/>
<polygon fill="midnightblue" stroke="midnightblue" points="114.433,-258.075 104.132,-260.555 113.731,-265.04 114.433,-258.075"/>
</g>
<!-- Node11 -->
<g id="node11" class="node"><title>Node11</title>
<g id="a_node11"><a xlink:href="a00034.html#abddef3c3a26e983041c0a09be164cb1b" target="_top" xlink:title="rest_on_response">
<polygon fill="none" stroke="black" points="424,-21.9053 424,-40.9053 518,-40.9053 518,-21.9053 424,-21.9053"/>
<text text-anchor="middle" x="471" y="-28.9053" font-family="Helvetica,sans-Serif" font-size="10.00">rest_on_response</text>
</a>
</g>
</g>
<!-- Node1&#45;&gt;Node11 -->
<g id="edge34" class="edge"><title>Node1&#45;&gt;Node11</title>
<path fill="none" stroke="midnightblue" d="M69.1653,-231.997C100.285,-189.039 173.092,-98.2805 259,-57.4053 311.493,-32.4292 379.261,-28.344 423.64,-28.898"/>
<polygon fill="midnightblue" stroke="midnightblue" points="66.2974,-229.991 63.3364,-240.164 71.9949,-234.058 66.2974,-229.991"/>
</g>
<!-- Node3 -->
<g id="node3" class="node"><title>Node3</title>
<g id="a_node3"><a xlink:href="a00047.html#a0ddf1224851353fc92bfbff6f499fa97" target="_top" xlink:title="main">
<polygon fill="none" stroke="black" points="299,-387.905 299,-406.905 337,-406.905 337,-387.905 299,-387.905"/>
<text text-anchor="middle" x="318" y="-394.905" font-family="Helvetica,sans-Serif" font-size="10.00">main</text>
</a>
</g>
</g>
<!-- Node2&#45;&gt;Node3 -->
<g id="edge2" class="edge"><title>Node2&#45;&gt;Node3</title>
<path fill="none" stroke="midnightblue" d="M221.411,-366.135C246.825,-374.448 278.846,-384.924 298.618,-391.392"/>
<polygon fill="midnightblue" stroke="midnightblue" points="222.277,-362.735 211.684,-362.953 220.101,-369.388 222.277,-362.735"/>
</g>
<!-- Node5 -->
<g id="node5" class="node"><title>Node5</title>
<g id="a_node5"><a xlink:href="a00034.html#a362db74b5ebb509cd4c0032f5704148f" target="_top" xlink:title="rest_reply_internal\l_server_error">
<polygon fill="none" stroke="black" points="270,-199.405 270,-229.405 366,-229.405 366,-199.405 270,-199.405"/>
<text text-anchor="start" x="278" y="-217.405" font-family="Helvetica,sans-Serif" font-size="10.00">rest_reply_internal</text>
<text text-anchor="middle" x="318" y="-206.405" font-family="Helvetica,sans-Serif" font-size="10.00">_server_error</text>
</a>
</g>
</g>
<!-- Node4&#45;&gt;Node5 -->
<g id="edge4" class="edge"><title>Node4&#45;&gt;Node5</title>
<path fill="none" stroke="midnightblue" d="M221.139,-214.405C236.377,-214.405 254.025,-214.405 269.994,-214.405"/>
<polygon fill="midnightblue" stroke="midnightblue" points="221.024,-210.905 211.024,-214.405 221.024,-217.905 221.024,-210.905"/>
</g>
<!-- Node4&#45;&gt;Node11 -->
<g id="edge32" class="edge"><title>Node4&#45;&gt;Node11</title>
<path fill="none" stroke="midnightblue" d="M196.54,-196.902C210.756,-180.167 234.138,-155.208 259,-139.405 306.237,-109.38 328.123,-122.679 377,-95.4053 394.7,-85.5281 396.411,-79.0533 413,-67.4053 426.41,-57.989 442.2,-48.1052 453.756,-41.0813"/>
<polygon fill="midnightblue" stroke="midnightblue" points="193.671,-194.879 189.983,-204.812 199.059,-199.347 193.671,-194.879"/>
</g>
<!-- Node15 -->
<g id="node15" class="node"><title>Node15</title>
<g id="a_node15"><a xlink:href="a00034.html#a937794ed7b34e2fa7c387dee33514c50" target="_top" xlink:title="rest_reply_not_found">
<polygon fill="none" stroke="black" points="264.5,-349.905 264.5,-368.905 371.5,-368.905 371.5,-349.905 264.5,-349.905"/>
<text text-anchor="middle" x="318" y="-356.905" font-family="Helvetica,sans-Serif" font-size="10.00">rest_reply_not_found</text>
</a>
</g>
</g>
<!-- Node4&#45;&gt;Node15 -->
<g id="edge21" class="edge"><title>Node4&#45;&gt;Node15</title>
<path fill="none" stroke="midnightblue" d="M198.137,-231.263C226.465,-261.802 285.422,-325.362 307.966,-349.666"/>
<polygon fill="midnightblue" stroke="midnightblue" points="200.692,-228.87 191.325,-223.919 195.56,-233.631 200.692,-228.87"/>
</g>
<!-- Node16 -->
<g id="node16" class="node"><title>Node16</title>
<g id="a_node16"><a xlink:href="a00034.html#a463d2bdadd3f81404991033401807537" target="_top" xlink:title="rest_reply_unsupported\l_media_type">
<polygon fill="none" stroke="black" points="259,-149.405 259,-179.405 377,-179.405 377,-149.405 259,-149.405"/>
<text text-anchor="start" x="267" y="-167.405" font-family="Helvetica,sans-Serif" font-size="10.00">rest_reply_unsupported</text>
<text text-anchor="middle" x="318" y="-156.405" font-family="Helvetica,sans-Serif" font-size="10.00">_media_type</text>
</a>
</g>
</g>
<!-- Node4&#45;&gt;Node16 -->
<g id="edge24" class="edge"><title>Node4&#45;&gt;Node16</title>
<path fill="none" stroke="midnightblue" d="M217.659,-201.335C235.665,-194.641 257.679,-186.458 276.404,-179.497"/>
<polygon fill="midnightblue" stroke="midnightblue" points="216.269,-198.118 208.115,-204.883 218.708,-204.679 216.269,-198.118"/>
</g>
<!-- Node17 -->
<g id="node17" class="node"><title>Node17</title>
<g id="a_node17"><a xlink:href="a00034.html#a84fea4d27b81d8ec1426196dc58d4351" target="_top" xlink:title="rest_reply_bad_request">
<polygon fill="none" stroke="black" points="259,-66.9053 259,-85.9053 377,-85.9053 377,-66.9053 259,-66.9053"/>
<text text-anchor="middle" x="318" y="-73.9053" font-family="Helvetica,sans-Serif" font-size="10.00">rest_reply_bad_request</text>
</a>
</g>
</g>
<!-- Node4&#45;&gt;Node17 -->
<g id="edge28" class="edge"><title>Node4&#45;&gt;Node17</title>
<path fill="none" stroke="midnightblue" d="M191.703,-195.555C204.145,-171.698 228.344,-130.566 259,-104.405 268.101,-96.639 279.726,-90.4733 290.176,-85.9269"/>
<polygon fill="midnightblue" stroke="midnightblue" points="188.503,-194.126 187.106,-204.629 194.748,-197.29 188.503,-194.126"/>
</g>
<!-- Node18 -->
<g id="node18" class="node"><title>Node18</title>
<g id="a_node18"><a xlink:href="a00034.html#aacbd35e3827023f6cef47ee2b866d2d9" target="_top" xlink:title="rest_reply_method_not\l_allowed">
<polygon fill="none" stroke="black" points="413,-326.405 413,-356.405 529,-356.405 529,-326.405 413,-326.405"/>
<text text-anchor="start" x="421" y="-344.405" font-family="Helvetica,sans-Serif" font-size="10.00">rest_reply_method_not</text>
<text text-anchor="middle" x="471" y="-333.405" font-family="Helvetica,sans-Serif" font-size="10.00">_allowed</text>
</a>
</g>
</g>
<!-- Node4&#45;&gt;Node18 -->
<g id="edge30" class="edge"><title>Node4&#45;&gt;Node18</title>
<path fill="none" stroke="midnightblue" d="M213.43,-228.131C257.655,-247.747 341.517,-284.913 413,-316.405 420.318,-319.629 428.168,-323.078 435.631,-326.353"/>
<polygon fill="midnightblue" stroke="midnightblue" points="214.659,-224.847 204.099,-223.991 211.821,-231.246 214.659,-224.847"/>
</g>
<!-- Node5&#45;&gt;Node6 -->
<g id="edge5" class="edge"><title>Node5&#45;&gt;Node6</title>
<path fill="none" stroke="midnightblue" d="M360.015,-234.304C365.825,-237.499 371.64,-240.911 377,-244.405 394.211,-255.626 395.36,-262.872 413,-273.405 422.403,-279.02 433.362,-283.971 443.144,-287.895"/>
<polygon fill="midnightblue" stroke="midnightblue" points="361.428,-231.091 350.956,-229.479 358.137,-237.269 361.428,-231.091"/>
</g>
<!-- Node7 -->
<g id="node7" class="node"><title>Node7</title>
<g id="a_node7"><a xlink:href="a00034.html#a2731aca6e6807e771bcf9c94dbec968c" target="_top" xlink:title="rest_on_req_hdr_cmpl">
<polygon fill="none" stroke="black" points="565,-287.905 565,-306.905 678,-306.905 678,-287.905 565,-287.905"/>
<text text-anchor="middle" x="621.5" y="-294.905" font-family="Helvetica,sans-Serif" font-size="10.00">rest_on_req_hdr_cmpl</text>
</a>
</g>
</g>
<!-- Node5&#45;&gt;Node7 -->
<g id="edge17" class="edge"><title>Node5&#45;&gt;Node7</title>
<path fill="none" stroke="midnightblue" d="M376.103,-230.125C437.965,-247.155 534.664,-273.775 585.914,-287.884"/>
<polygon fill="midnightblue" stroke="midnightblue" points="376.68,-226.654 366.109,-227.374 374.822,-233.403 376.68,-226.654"/>
</g>
<!-- Node9 -->
<g id="node9" class="node"><title>Node9</title>
<g id="a_node9"><a xlink:href="a00034.html#a5b0ee1ed2f7ec4f1d37f392419f9fdf8" target="_top" xlink:title="rest_on_free">
<polygon fill="none" stroke="black" points="435.5,-97.9053 435.5,-116.905 506.5,-116.905 506.5,-97.9053 435.5,-97.9053"/>
<text text-anchor="middle" x="471" y="-104.905" font-family="Helvetica,sans-Serif" font-size="10.00">rest_on_free</text>
</a>
</g>
</g>
<!-- Node5&#45;&gt;Node9 -->
<g id="edge8" class="edge"><title>Node5&#45;&gt;Node9</title>
<path fill="none" stroke="midnightblue" d="M369.489,-194.105C372.132,-192.335 374.658,-190.436 377,-188.405 399.636,-168.773 390.141,-150.777 413,-131.405 420.209,-125.297 429.197,-120.552 437.889,-116.955"/>
<polygon fill="midnightblue" stroke="midnightblue" points="367.532,-191.198 360.74,-199.33 371.121,-197.208 367.532,-191.198"/>
</g>
<!-- Node10 -->
<g id="node10" class="node"><title>Node10</title>
<g id="a_node10"><a xlink:href="a00034.html#a1ef7ff8e866ae31ab0edb443eb4777a1" target="_top" xlink:title="rest_on_req_cmpl">
<polygon fill="none" stroke="black" points="574.5,-78.9053 574.5,-97.9053 668.5,-97.9053 668.5,-78.9053 574.5,-78.9053"/>
<text text-anchor="middle" x="621.5" y="-85.9053" font-family="Helvetica,sans-Serif" font-size="10.00">rest_on_req_cmpl</text>
</a>
</g>
</g>
<!-- Node5&#45;&gt;Node10 -->
<g id="edge20" class="edge"><title>Node5&#45;&gt;Node10</title>
<path fill="none" stroke="midnightblue" d="M364.318,-195.466C429.717,-168.135 548.136,-118.647 597.71,-97.9294"/>
<polygon fill="midnightblue" stroke="midnightblue" points="362.946,-192.247 355.068,-199.332 365.645,-198.705 362.946,-192.247"/>
</g>
<!-- Node5&#45;&gt;Node11 -->
<g id="edge11" class="edge"><title>Node5&#45;&gt;Node11</title>
<path fill="none" stroke="midnightblue" d="M371.343,-193.663C373.361,-192.032 375.261,-190.282 377,-188.405 409.111,-153.761 387.69,-128.289 413,-88.4053 425.148,-69.2629 444.747,-51.5218 457.502,-41.0741"/>
<polygon fill="midnightblue" stroke="midnightblue" points="369.309,-190.814 363.072,-199.379 373.288,-196.573 369.309,-190.814"/>
</g>
<!-- Node12 -->
<g id="node12" class="node"><title>Node12</title>
<g id="a_node12"><a xlink:href="a00034.html#a29f312bafc931ecd8a0209f0dd3d7e60" target="_top" xlink:title="rest_on_req_begin">
<polygon fill="none" stroke="black" points="573.5,-211.905 573.5,-230.905 669.5,-230.905 669.5,-211.905 573.5,-211.905"/>
<text text-anchor="middle" x="621.5" y="-218.905" font-family="Helvetica,sans-Serif" font-size="10.00">rest_on_req_begin</text>
</a>
</g>
</g>
<!-- Node5&#45;&gt;Node12 -->
<g id="edge13" class="edge"><title>Node5&#45;&gt;Node12</title>
<path fill="none" stroke="midnightblue" d="M376.409,-215.738C433.483,-217.063 519.989,-219.072 573.225,-220.308"/>
<polygon fill="midnightblue" stroke="midnightblue" points="376.188,-212.232 366.109,-215.499 376.025,-219.23 376.188,-212.232"/>
</g>
<!-- Node13 -->
<g id="node13" class="node"><title>Node13</title>
<g id="a_node13"><a xlink:href="a00034.html#a79a1a85df1eb4e5247b27938ee73e32c" target="_top" xlink:title="rest_on_req_url_cmpl">
<polygon fill="none" stroke="black" points="416,-375.905 416,-394.905 526,-394.905 526,-375.905 416,-375.905"/>
<text text-anchor="middle" x="471" y="-382.905" font-family="Helvetica,sans-Serif" font-size="10.00">rest_on_req_url_cmpl</text>
</a>
</g>
</g>
<!-- Node5&#45;&gt;Node13 -->
<g id="edge15" class="edge"><title>Node5&#45;&gt;Node13</title>
<path fill="none" stroke="midnightblue" d="M328.211,-239.061C341.834,-272.309 370.421,-331.274 413,-365.405 418.401,-369.734 424.805,-373.161 431.337,-375.862"/>
<polygon fill="midnightblue" stroke="midnightblue" points="331.408,-237.628 324.465,-229.625 324.902,-240.211 331.408,-237.628"/>
</g>
<!-- Node14 -->
<g id="node14" class="node"><title>Node14</title>
<g id="a_node14"><a xlink:href="a00034.html#aa7a4e350f3f59e6410ba02d06b1e125f" target="_top" xlink:title="rest_on_req_body">
<polygon fill="none" stroke="black" points="574.5,-173.905 574.5,-192.905 668.5,-192.905 668.5,-173.905 574.5,-173.905"/>
<text text-anchor="middle" x="621.5" y="-180.905" font-family="Helvetica,sans-Serif" font-size="10.00">rest_on_req_body</text>
</a>
</g>
</g>
<!-- Node5&#45;&gt;Node14 -->
<g id="edge18" class="edge"><title>Node5&#45;&gt;Node14</title>
<path fill="none" stroke="midnightblue" d="M376.115,-208.533C433.54,-202.628 520.977,-193.638 574.216,-188.164"/>
<polygon fill="midnightblue" stroke="midnightblue" points="375.699,-205.057 366.109,-209.562 376.415,-212.02 375.699,-205.057"/>
</g>
<!-- Node6&#45;&gt;Node7 -->
<g id="edge6" class="edge"><title>Node6&#45;&gt;Node7</title>
<path fill="none" stroke="midnightblue" d="M530.426,-297.405C541.739,-297.405 553.565,-297.405 564.788,-297.405"/>
<polygon fill="midnightblue" stroke="midnightblue" points="530.214,-293.905 520.214,-297.405 530.214,-300.905 530.214,-293.905"/>
</g>
<!-- Node8 -->
<g id="node8" class="node"><title>Node8</title>
<g id="a_node8"><a xlink:href="a00034.html#a02090c3feb19ea4c6e1fa9b5e6392752" target="_top" xlink:title="rest_on_create">
<polygon fill="none" stroke="black" points="714,-211.905 714,-230.905 795,-230.905 795,-211.905 714,-211.905"/>
<text text-anchor="middle" x="754.5" y="-218.905" font-family="Helvetica,sans-Serif" font-size="10.00">rest_on_create</text>
</a>
</g>
</g>
<!-- Node7&#45;&gt;Node8 -->
<g id="edge7" class="edge"><title>Node7&#45;&gt;Node8</title>
<path fill="none" stroke="midnightblue" d="M647.76,-282.75C674.087,-267.477 714.574,-243.988 737.043,-230.953"/>
<polygon fill="midnightblue" stroke="midnightblue" points="645.985,-279.734 639.091,-287.78 649.497,-285.789 645.985,-279.734"/>
</g>
<!-- Node9&#45;&gt;Node10 -->
<g id="edge9" class="edge"><title>Node9&#45;&gt;Node10</title>
<path fill="none" stroke="midnightblue" d="M516.878,-101.663C535.066,-99.3363 556.057,-96.6505 574.37,-94.3075"/>
<polygon fill="midnightblue" stroke="midnightblue" points="516.292,-98.2097 506.817,-102.951 517.18,-105.153 516.292,-98.2097"/>
</g>
<!-- Node10&#45;&gt;Node8 -->
<g id="edge10" class="edge"><title>Node10&#45;&gt;Node8</title>
<path fill="none" stroke="midnightblue" d="M638.946,-105.103C666.598,-133.177 721.559,-188.977 743.811,-211.568"/>
<polygon fill="midnightblue" stroke="midnightblue" points="641.432,-102.639 631.921,-97.9703 636.445,-107.551 641.432,-102.639"/>
</g>
<!-- Node11&#45;&gt;Node10 -->
<g id="edge12" class="edge"><title>Node11&#45;&gt;Node10</title>
<path fill="none" stroke="midnightblue" d="M506.397,-44.6082C533.664,-55.0742 571.12,-69.4515 595.563,-78.8336"/>
<polygon fill="midnightblue" stroke="midnightblue" points="507.446,-41.2618 496.856,-40.9458 504.937,-47.7969 507.446,-41.2618"/>
</g>
<!-- Node12&#45;&gt;Node8 -->
<g id="edge14" class="edge"><title>Node12&#45;&gt;Node8</title>
<path fill="none" stroke="midnightblue" d="M680.063,-221.405C691.387,-221.405 703.032,-221.405 713.618,-221.405"/>
<polygon fill="midnightblue" stroke="midnightblue" points="679.794,-217.905 669.794,-221.405 679.794,-224.905 679.794,-217.905"/>
</g>
<!-- Node13&#45;&gt;Node8 -->
<g id="edge16" class="edge"><title>Node13&#45;&gt;Node8</title>
<path fill="none" stroke="midnightblue" d="M536.002,-373.929C579.033,-363.933 635.446,-346.225 678,-316.405 711.643,-292.829 737.839,-250.049 748.413,-231.001"/>
<polygon fill="midnightblue" stroke="midnightblue" points="535.195,-370.523 526.203,-376.126 536.727,-377.353 535.195,-370.523"/>
</g>
<!-- Node14&#45;&gt;Node8 -->
<g id="edge19" class="edge"><title>Node14&#45;&gt;Node8</title>
<path fill="none" stroke="midnightblue" d="M665.215,-195.796C683.155,-201 703.7,-206.959 720.454,-211.819"/>
<polygon fill="midnightblue" stroke="midnightblue" points="666.136,-192.419 655.557,-192.994 664.186,-199.142 666.136,-192.419"/>
</g>
<!-- Node15&#45;&gt;Node7 -->
<g id="edge23" class="edge"><title>Node15&#45;&gt;Node7</title>
<path fill="none" stroke="midnightblue" d="M363.556,-372.425C368.178,-374.24 372.739,-376.235 377,-378.405 394.587,-387.362 394.221,-398.333 413,-404.405 462.055,-420.267 482.174,-425.975 529,-404.405 573.845,-383.748 604.889,-329.07 615.99,-306.922"/>
<polygon fill="midnightblue" stroke="midnightblue" points="364.65,-369.099 354.057,-368.956 362.249,-375.674 364.65,-369.099"/>
</g>
<!-- Node15&#45;&gt;Node13 -->
<g id="edge22" class="edge"><title>Node15&#45;&gt;Node13</title>
<path fill="none" stroke="midnightblue" d="M381.681,-370.198C393.058,-372.157 404.836,-374.185 415.939,-376.097"/>
<polygon fill="midnightblue" stroke="midnightblue" points="382.261,-366.747 371.812,-368.499 381.074,-373.645 382.261,-366.747"/>
</g>
<!-- Node16&#45;&gt;Node6 -->
<g id="edge25" class="edge"><title>Node16&#45;&gt;Node6</title>
<path fill="none" stroke="midnightblue" d="M369.554,-184.472C372.138,-186.027 374.639,-187.671 377,-189.405 416.488,-218.405 450.526,-267.152 463.923,-287.752"/>
<polygon fill="midnightblue" stroke="midnightblue" points="370.975,-181.26 360.522,-179.533 367.616,-187.402 370.975,-181.26"/>
</g>
<!-- Node16&#45;&gt;Node10 -->
<g id="edge27" class="edge"><title>Node16&#45;&gt;Node10</title>
<path fill="none" stroke="midnightblue" d="M360.083,-144.335C366.005,-140.714 371.835,-136.708 377,-132.405 396.413,-116.232 390.167,-99.2253 413,-88.4053 466.877,-62.8741 537.816,-70.3539 581.238,-78.8331"/>
<polygon fill="midnightblue" stroke="midnightblue" points="358.311,-141.317 351.407,-149.354 361.816,-147.376 358.311,-141.317"/>
</g>
<!-- Node16&#45;&gt;Node11 -->
<g id="edge26" class="edge"><title>Node16&#45;&gt;Node11</title>
<path fill="none" stroke="midnightblue" d="M363.231,-144C368.235,-140.573 372.974,-136.71 377,-132.405 402.806,-104.815 385.774,-81.5947 413,-55.4053 419.423,-49.2271 427.673,-44.5322 435.889,-41.0083"/>
<polygon fill="midnightblue" stroke="midnightblue" points="361.273,-141.096 354.636,-149.355 364.975,-147.037 361.273,-141.096"/>
</g>
<!-- Node17&#45;&gt;Node10 -->
<g id="edge29" class="edge"><title>Node17&#45;&gt;Node10</title>
<path fill="none" stroke="midnightblue" d="M336.344,-59.7794C354.01,-44.0939 383.003,-21.6475 413,-12.4053 462.27,2.77523 480.51,5.10641 529,-12.4053 566.097,-25.8025 598.772,-61.5144 612.974,-78.7856"/>
<polygon fill="midnightblue" stroke="midnightblue" points="333.636,-57.5135 328.626,-66.8491 338.364,-62.6752 333.636,-57.5135"/>
</g>
<!-- Node18&#45;&gt;Node7 -->
<g id="edge31" class="edge"><title>Node18&#45;&gt;Node7</title>
<path fill="none" stroke="midnightblue" d="M532.513,-323.475C551.569,-317.829 571.875,-311.813 588.173,-306.984"/>
<polygon fill="midnightblue" stroke="midnightblue" points="531.284,-320.189 522.69,-326.386 533.272,-326.901 531.284,-320.189"/>
</g>
</g>
</svg>
        <g id="navigator" transform="translate(0 0)" fill="#404254">
                <rect fill="#f2f5e9" fill-opacity="0.5" stroke="#606060" stroke-width=".5" x="0" y="0" width="60" height="60"/>
                <use id="zoomplus" xlink:href="#zoomPlus" x="17" y="9" onmousedown="handleZoom(evt,'in')"/>
                <use id="zoomminus" xlink:href="#zoomMin" x="42" y="9" onmousedown="handleZoom(evt,'out')"/>
                <use id="reset" xlink:href="#resetDef" x="30" y="36" onmousedown="handleReset()"/>
                <g id="arrowUp" xlink:href="#dirArrow" transform="translate(30 24)" onmousedown="handlePan(0,-1)">
                  <use xlink:href="#rim" fill="#404040">
                        <set attributeName="fill" to="#808080" begin="arrowUp.mouseover" end="arrowUp.mouseout"/>
                  </use>
                  <path fill="none" stroke="white" stroke-width="1.5" d="M0,-3.0v7 M-2.5,-0.5L0,-3.0L2.5,-0.5"/>
                </g>
                <g id="arrowRight" xlink:href="#dirArrow" transform="rotate(90) translate(36 -43)" onmousedown="handlePan(1,0)">
                  <use xlink:href="#rim" fill="#404040">
                        <set attributeName="fill" to="#808080" begin="arrowRight.mouseover" end="arrowRight.mouseout"/>
                  </use>
                  <path fill="none" stroke="white" stroke-width="1.5" d="M0,-3.0v7 M-2.5,-0.5L0,-3.0L2.5,-0.5"/>
                </g>
                <g id="arrowDown" xlink:href="#dirArrow" transform="rotate(180) translate(-30 -48)" onmousedown="handlePan(0,1)">
                  <use xlink:href="#rim" fill="#404040">
                        <set attributeName="fill" to="#808080" begin="arrowDown.mouseover" end="arrowDown.mouseout"/>
                  </use>
                  <path fill="none" stroke="white" stroke-width="1.5" d="M0,-3.0v7 M-2.5,-0.5L0,-3.0L2.5,-0.5"/>
                </g>
                <g id="arrowLeft" xlink:href="#dirArrow" transform="rotate(270) translate(-36 17)" onmousedown="handlePan(-1,0)">
                  <use xlink:href="#rim" fill="#404040">
                        <set attributeName="fill" to="#808080" begin="arrowLeft.mouseover" end="arrowLeft.mouseout"/>
                  </use>
                  <path fill="none" stroke="white" stroke-width="1.5" d="M0,-3.0v7 M-2.5,-0.5L0,-3.0L2.5,-0.5"/>
                </g>
        </g>
        <svg viewBox="0 0 15 15" width="100%" height="30px" preserveAspectRatio="xMaxYMin meet">
         <g id="arrow_out" transform="scale(0.3 0.3)">
          <a xlink:href="a00027_a3b100e8d7e1214067cf1b90ad577745c_icgraph_org.svg" target="_base">
           <rect id="button" ry="5" rx="5" y="6" x="6" height="38" width="38"
                fill="#f2f5e9" fill-opacity="0.5" stroke="#606060" stroke-width="1.0"/>
           <path id="arrow"
             d="M 11.500037,31.436501 C 11.940474,20.09759 22.043105,11.32322 32.158766,21.979434 L 37.068811,17.246167 C 37.068811,17.246167 37.088388,32 37.088388,32 L 22.160133,31.978069 C 22.160133,31.978069 26.997745,27.140456 26.997745,27.140456 C 18.528582,18.264221 13.291696,25.230495 11.500037,31.436501 z"
             style="fill:#404040;"/>
          </a>
         </g>
        </svg>
</svg>
