<?xml version="1.0" encoding="UTF-8" standalone="no"?>
<!DOCTYPE svg PUBLIC "-//W3C//DTD SVG 1.1//EN"
 "http://www.w3.org/Graphics/SVG/1.1/DTD/svg11.dtd">
<!-- Generated by graphviz version 2.38.0 (20140413.2041)
 -->
<!-- Title: common/httpd/test/http&#45;webserver_test.c Pages: 1 -->
<svg width="579pt" height="95pt"
 viewBox="0.00 0.00 579.00 95.00" xmlns="http://www.w3.org/2000/svg" xmlns:xlink="http://www.w3.org/1999/xlink">
<g id="graph0" class="graph" transform="scale(1 1) rotate(0) translate(4 91)">
<title>common/httpd/test/http&#45;webserver_test.c</title>
<!-- Node1 -->
<g id="node1" class="node"><title>Node1</title>
<polygon fill="#bfbfbf" stroke="black" points="248.5,-56.5 248.5,-86.5 366.5,-86.5 366.5,-56.5 248.5,-56.5"/>
<text text-anchor="start" x="256.5" y="-74.5" font-family="Helvetica,sans-Serif" font-size="10.00">common/httpd/test/http</text>
<text text-anchor="middle" x="307.5" y="-63.5" font-family="Helvetica,sans-Serif" font-size="10.00">&#45;webserver_test.c</text>
</g>
<!-- Node2 -->
<g id="node2" class="node"><title>Node2</title>
<polygon fill="none" stroke="#bfbfbf" points="0,-0.5 0,-19.5 89,-19.5 89,-0.5 0,-0.5"/>
<text text-anchor="middle" x="44.5" y="-7.5" font-family="Helvetica,sans-Serif" font-size="10.00">http&#45;webserver.h</text>
</g>
<!-- Node1&#45;&gt;Node2 -->
<g id="edge1" class="edge"><title>Node1&#45;&gt;Node2</title>
<path fill="none" stroke="midnightblue" d="M248.478,-57.147C201.269,-46.4667 135.936,-31.686 92.0462,-21.7566"/>
<polygon fill="midnightblue" stroke="midnightblue" points="92.7248,-18.3218 82.199,-19.5289 91.1801,-25.1493 92.7248,-18.3218"/>
</g>
<!-- Node3 -->
<g id="node3" class="node"><title>Node3</title>
<polygon fill="none" stroke="#bfbfbf" points="106.5,-0.5 106.5,-19.5 168.5,-19.5 168.5,-0.5 106.5,-0.5"/>
<text text-anchor="middle" x="137.5" y="-7.5" font-family="Helvetica,sans-Serif" font-size="10.00">unit_test.h</text>
</g>
<!-- Node1&#45;&gt;Node3 -->
<g id="edge2" class="edge"><title>Node1&#45;&gt;Node3</title>
<path fill="none" stroke="midnightblue" d="M267.212,-56.3993C238.18,-46.238 199.419,-32.6716 171.849,-23.0221"/>
<polygon fill="midnightblue" stroke="midnightblue" points="172.831,-19.6578 162.237,-19.6578 170.519,-26.2649 172.831,-19.6578"/>
</g>
<!-- Node4 -->
<g id="node4" class="node"><title>Node4</title>
<polygon fill="none" stroke="#bfbfbf" points="186.5,-0.5 186.5,-19.5 232.5,-19.5 232.5,-0.5 186.5,-0.5"/>
<text text-anchor="middle" x="209.5" y="-7.5" font-family="Helvetica,sans-Serif" font-size="10.00">stdio.h</text>
</g>
<!-- Node1&#45;&gt;Node4 -->
<g id="edge3" class="edge"><title>Node1&#45;&gt;Node4</title>
<path fill="none" stroke="midnightblue" d="M284.275,-56.3993C268.714,-46.9511 248.303,-34.5589 232.738,-25.1089"/>
<polygon fill="midnightblue" stroke="midnightblue" points="234.124,-21.8558 223.76,-19.6578 230.491,-27.8394 234.124,-21.8558"/>
</g>
<!-- Node5 -->
<g id="node5" class="node"><title>Node5</title>
<polygon fill="none" stroke="#bfbfbf" points="250.5,-0.5 250.5,-19.5 298.5,-19.5 298.5,-0.5 250.5,-0.5"/>
<text text-anchor="middle" x="274.5" y="-7.5" font-family="Helvetica,sans-Serif" font-size="10.00">stdlib.h</text>
</g>
<!-- Node1&#45;&gt;Node5 -->
<g id="edge4" class="edge"><title>Node1&#45;&gt;Node5</title>
<path fill="none" stroke="midnightblue" d="M299.679,-56.3993C295.032,-48.0207 289.101,-37.3269 284.163,-28.4229"/>
<polygon fill="midnightblue" stroke="midnightblue" points="287.213,-26.7052 279.302,-19.6578 281.091,-30.1004 287.213,-26.7052"/>
</g>
<!-- Node6 -->
<g id="node6" class="node"><title>Node6</title>
<polygon fill="none" stroke="#bfbfbf" points="317,-0.5 317,-19.5 366,-19.5 366,-0.5 317,-0.5"/>
<text text-anchor="middle" x="341.5" y="-7.5" font-family="Helvetica,sans-Serif" font-size="10.00">string.h</text>
</g>
<!-- Node1&#45;&gt;Node6 -->
<g id="edge5" class="edge"><title>Node1&#45;&gt;Node6</title>
<path fill="none" stroke="midnightblue" d="M315.558,-56.3993C320.345,-48.0207 326.456,-37.3269 331.544,-28.4229"/>
<polygon fill="midnightblue" stroke="midnightblue" points="334.63,-30.0767 336.553,-19.6578 328.552,-26.6037 334.63,-30.0767"/>
</g>
<!-- Node7 -->
<g id="node7" class="node"><title>Node7</title>
<polygon fill="none" stroke="#bfbfbf" points="384,-0.5 384,-19.5 419,-19.5 419,-0.5 384,-0.5"/>
<text text-anchor="middle" x="401.5" y="-7.5" font-family="Helvetica,sans-Serif" font-size="10.00">ev.h</text>
</g>
<!-- Node1&#45;&gt;Node7 -->
<g id="edge6" class="edge"><title>Node1&#45;&gt;Node7</title>
<path fill="none" stroke="midnightblue" d="M329.777,-56.3993C344.703,-46.9511 364.281,-34.5589 379.21,-25.1089"/>
<polygon fill="midnightblue" stroke="midnightblue" points="381.245,-27.9636 387.822,-19.6578 377.501,-22.0489 381.245,-27.9636"/>
</g>
<!-- Node8 -->
<g id="node8" class="node"><title>Node8</title>
<polygon fill="none" stroke="#bfbfbf" points="437,-0.5 437,-19.5 496,-19.5 496,-0.5 437,-0.5"/>
<text text-anchor="middle" x="466.5" y="-7.5" font-family="Helvetica,sans-Serif" font-size="10.00">curl/curl.h</text>
</g>
<!-- Node1&#45;&gt;Node8 -->
<g id="edge7" class="edge"><title>Node1&#45;&gt;Node8</title>
<path fill="none" stroke="midnightblue" d="M345.181,-56.3993C372.096,-46.3271 407.952,-32.9093 433.693,-23.2769"/>
<polygon fill="midnightblue" stroke="midnightblue" points="435.225,-26.4406 443.364,-19.6578 432.772,-19.8846 435.225,-26.4406"/>
</g>
<!-- Node9 -->
<g id="node9" class="node"><title>Node9</title>
<polygon fill="none" stroke="#bfbfbf" points="514,-0.5 514,-19.5 571,-19.5 571,-0.5 514,-0.5"/>
<text text-anchor="middle" x="542.5" y="-7.5" font-family="Helvetica,sans-Serif" font-size="10.00">pthread.h</text>
</g>
<!-- Node1&#45;&gt;Node9 -->
<g id="edge8" class="edge"><title>Node1&#45;&gt;Node9</title>
<path fill="none" stroke="midnightblue" d="M362.894,-56.4747C406.367,-45.4677 465.757,-30.4306 504.124,-20.7165"/>
<polygon fill="midnightblue" stroke="midnightblue" points="505.044,-24.094 513.879,-18.2465 503.326,-17.3081 505.044,-24.094"/>
</g>
</g>
</svg>
