<?xml version="1.0" encoding="UTF-8" standalone="no"?>
<!DOCTYPE svg PUBLIC "-//W3C//DTD SVG 1.1//EN"
 "http://www.w3.org/Graphics/SVG/1.1/DTD/svg11.dtd">
<!-- Generated by graphviz version 2.38.0 (20140413.2041)
 -->
<!-- Title: common/curl_ev/src/curl_ev_module.c Pages: 1 -->
<!--zoomable 218 -->
<svg id="main" version="1.1" xmlns="http://www.w3.org/2000/svg" xmlns:xlink="http://www.w3.org/1999/xlink" xml:space="preserve" onload="init(evt)">
<style type="text/css"><![CDATA[
.edge:hover path { stroke: red; }
.edge:hover polygon { stroke: red; fill: red; }
]]></style>
<script type="text/javascript"><![CDATA[
var edges = document.getElementsByTagName('g');
if (edges && edges.length) {
  for (var i=0;i<edges.length;i++) {
    if (edges[i].id.substr(0,4)=='edge') {
      edges[i].setAttribute('class','edge');
    }
  }
}
]]></script>
        <defs>
                <circle id="rim" cx="0" cy="0" r="7"/>
                <circle id="rim2" cx="0" cy="0" r="3.5"/>
                <g id="zoomPlus">
                        <use xlink:href="#rim" fill="#404040">
                                <set attributeName="fill" to="#808080" begin="zoomplus.mouseover" end="zoomplus.mouseout"/>
                        </use>
                        <path d="M-4,0h8M0,-4v8" fill="none" stroke="white" stroke-width="1.5" pointer-events="none"/>
                </g>
                <g id="zoomMin">
                        <use xlink:href="#rim" fill="#404040">
                                <set attributeName="fill" to="#808080" begin="zoomminus.mouseover" end="zoomminus.mouseout"/>
                        </use>
                        <path d="M-4,0h8" fill="none" stroke="white" stroke-width="1.5" pointer-events="none"/>
                </g>
                <g id="dirArrow">
                        <path fill="none" stroke="white" stroke-width="1.5" d="M0,-3.0v7 M-2.5,-0.5L0,-3.0L2.5,-0.5"/>
                </g>
               <g id="resetDef">
                       <use xlink:href="#rim2" fill="#404040">
                               <set attributeName="fill" to="#808080" begin="reset.mouseover" end="reset.mouseout"/>
                       </use>
               </g>
        </defs>

<script type="text/javascript">
var viewWidth = 745;
var viewHeight = 218;
var sectionId = 'dynsection-0';
</script>
<script xlink:href="svgpan.js"/>
<svg id="graph" class="graph">
<g id="viewport">
<title>common/curl_ev/src/curl_ev_module.c</title>
<!-- Node1 -->
<g id="node1" class="node"><title>Node1</title>
<polygon fill="#bfbfbf" stroke="black" points="307.5,-179.5 307.5,-209.5 412.5,-209.5 412.5,-179.5 307.5,-179.5"/>
<text text-anchor="start" x="315.5" y="-197.5" font-family="Helvetica,sans-Serif" font-size="10.00">common/curl_ev/src</text>
<text text-anchor="middle" x="360" y="-186.5" font-family="Helvetica,sans-Serif" font-size="10.00">/curl_ev_module.c</text>
</g>
<!-- Node2 -->
<g id="node2" class="node"><title>Node2</title>
<g id="a_node2"><a xlink:href="a00044.html" target="_top" xlink:title="hpd/common/hpd_curl\l_ev_module.h">
<polygon fill="none" stroke="black" points="7.5,-112.5 7.5,-142.5 120.5,-142.5 120.5,-112.5 7.5,-112.5"/>
<text text-anchor="start" x="15.5" y="-130.5" font-family="Helvetica,sans-Serif" font-size="10.00">hpd/common/hpd_curl</text>
<text text-anchor="middle" x="64" y="-119.5" font-family="Helvetica,sans-Serif" font-size="10.00">_ev_module.h</text>
</a>
</g>
</g>
<!-- Node1&#45;&gt;Node2 -->
<g id="edge1" class="edge"><title>Node1&#45;&gt;Node2</title>
<path fill="none" stroke="midnightblue" d="M307.422,-181.954C258.104,-171.124 184.141,-154.882 130.692,-143.145"/>
<polygon fill="midnightblue" stroke="midnightblue" points="131.144,-139.661 120.626,-140.935 129.642,-146.498 131.144,-139.661"/>
</g>
<!-- Node4 -->
<g id="node4" class="node"><title>Node4</title>
<g id="a_node4"><a xlink:href="a00046.html" target="_top" xlink:title="curl_ev_intern.h">
<polygon fill="none" stroke="black" points="317,-118 317,-137 403,-137 403,-118 317,-118"/>
<text text-anchor="middle" x="360" y="-125" font-family="Helvetica,sans-Serif" font-size="10.00">curl_ev_intern.h</text>
</a>
</g>
</g>
<!-- Node1&#45;&gt;Node4 -->
<g id="edge3" class="edge"><title>Node1&#45;&gt;Node4</title>
<path fill="none" stroke="midnightblue" d="M360,-179.396C360,-170.064 360,-157.714 360,-147.517"/>
<polygon fill="midnightblue" stroke="midnightblue" points="363.5,-147.195 360,-137.195 356.5,-147.195 363.5,-147.195"/>
</g>
<!-- Node10 -->
<g id="node10" class="node"><title>Node10</title>
<g id="a_node10"><a xlink:href="a00075.html" target="_top" xlink:title="hpd/hpd_shared_api.h">
<polygon fill="none" stroke="black" points="45,-56.5 45,-75.5 157,-75.5 157,-56.5 45,-56.5"/>
<text text-anchor="middle" x="101" y="-63.5" font-family="Helvetica,sans-Serif" font-size="10.00">hpd/hpd_shared_api.h</text>
</a>
</g>
</g>
<!-- Node1&#45;&gt;Node10 -->
<g id="edge10" class="edge"><title>Node1&#45;&gt;Node10</title>
<path fill="none" stroke="midnightblue" d="M331.293,-179.479C280.792,-154.813 176.771,-104.008 127.716,-80.0485"/>
<polygon fill="midnightblue" stroke="midnightblue" points="129.192,-76.8741 118.67,-75.6303 126.119,-83.164 129.192,-76.8741"/>
</g>
<!-- Node12 -->
<g id="node12" class="node"><title>Node12</title>
<g id="a_node12"><a xlink:href="a00053.html" target="_top" xlink:title="hpd/common/hpd_common.h">
<polygon fill="none" stroke="black" points="509.5,-118 509.5,-137 652.5,-137 652.5,-118 509.5,-118"/>
<text text-anchor="middle" x="581" y="-125" font-family="Helvetica,sans-Serif" font-size="10.00">hpd/common/hpd_common.h</text>
</a>
</g>
</g>
<!-- Node1&#45;&gt;Node12 -->
<g id="edge14" class="edge"><title>Node1&#45;&gt;Node12</title>
<path fill="none" stroke="midnightblue" d="M407.682,-179.476C447.813,-167.673 504.497,-151.001 541.972,-139.979"/>
<polygon fill="midnightblue" stroke="midnightblue" points="543.397,-143.208 552.003,-137.029 541.421,-136.493 543.397,-143.208"/>
</g>
<!-- Node16 -->
<g id="node16" class="node"><title>Node16</title>
<polygon fill="none" stroke="#bfbfbf" points="670.5,-118 670.5,-137 705.5,-137 705.5,-118 670.5,-118"/>
<text text-anchor="middle" x="688" y="-125" font-family="Helvetica,sans-Serif" font-size="10.00">ev.h</text>
</g>
<!-- Node1&#45;&gt;Node16 -->
<g id="edge18" class="edge"><title>Node1&#45;&gt;Node16</title>
<path fill="none" stroke="midnightblue" d="M412.647,-190.175C473.999,-185.062 577.723,-172.547 662,-143 663.207,-142.577 664.424,-142.1 665.637,-141.584"/>
<polygon fill="midnightblue" stroke="midnightblue" points="667.26,-144.686 674.65,-137.094 664.138,-138.42 667.26,-144.686"/>
</g>
<!-- Node3 -->
<g id="node3" class="node"><title>Node3</title>
<g id="a_node3"><a xlink:href="a00030.html" target="_top" xlink:title="hpd/hpd_types.h">
<polygon fill="none" stroke="black" points="70.5,-0.5 70.5,-19.5 159.5,-19.5 159.5,-0.5 70.5,-0.5"/>
<text text-anchor="middle" x="115" y="-7.5" font-family="Helvetica,sans-Serif" font-size="10.00">hpd/hpd_types.h</text>
</a>
</g>
</g>
<!-- Node2&#45;&gt;Node3 -->
<g id="edge2" class="edge"><title>Node2&#45;&gt;Node3</title>
<path fill="none" stroke="midnightblue" d="M51.1105,-112.425C39.3394,-97.7776 25.2789,-74.4453 36,-56 44.7362,-40.9696 60.5783,-30.5428 75.7948,-23.5405"/>
<polygon fill="midnightblue" stroke="midnightblue" points="77.2623,-26.7202 85.1193,-19.6125 74.5448,-20.2692 77.2623,-26.7202"/>
</g>
<!-- Node5 -->
<g id="node5" class="node"><title>Node5</title>
<g id="a_node5"><a xlink:href="a00043.html" target="_top" xlink:title="hpd/common/hpd_curl_ev.h">
<polygon fill="none" stroke="black" points="175.5,-56.5 175.5,-75.5 312.5,-75.5 312.5,-56.5 175.5,-56.5"/>
<text text-anchor="middle" x="244" y="-63.5" font-family="Helvetica,sans-Serif" font-size="10.00">hpd/common/hpd_curl_ev.h</text>
</a>
</g>
</g>
<!-- Node4&#45;&gt;Node5 -->
<g id="edge4" class="edge"><title>Node4&#45;&gt;Node5</title>
<path fill="none" stroke="midnightblue" d="M343.38,-117.975C324.085,-108.078 292.041,-91.6416 269.569,-80.1151"/>
<polygon fill="midnightblue" stroke="midnightblue" points="271.084,-76.9589 260.589,-75.5091 267.89,-83.1873 271.084,-76.9589"/>
</g>
<!-- Node7 -->
<g id="node7" class="node"><title>Node7</title>
<polygon fill="none" stroke="#bfbfbf" points="330.5,-56.5 330.5,-75.5 389.5,-75.5 389.5,-56.5 330.5,-56.5"/>
<text text-anchor="middle" x="360" y="-63.5" font-family="Helvetica,sans-Serif" font-size="10.00">curl/curl.h</text>
</g>
<!-- Node4&#45;&gt;Node7 -->
<g id="edge7" class="edge"><title>Node4&#45;&gt;Node7</title>
<path fill="none" stroke="midnightblue" d="M360,-117.975C360,-109.58 360,-96.4806 360,-85.6631"/>
<polygon fill="midnightblue" stroke="midnightblue" points="363.5,-85.5091 360,-75.5091 356.5,-85.5091 363.5,-85.5091"/>
</g>
<!-- Node8 -->
<g id="node8" class="node"><title>Node8</title>
<g id="a_node8"><a xlink:href="a00055.html" target="_top" xlink:title="hpd/common/hpd_queue.h">
<polygon fill="none" stroke="black" points="407.5,-56.5 407.5,-75.5 538.5,-75.5 538.5,-56.5 407.5,-56.5"/>
<text text-anchor="middle" x="473" y="-63.5" font-family="Helvetica,sans-Serif" font-size="10.00">hpd/common/hpd_queue.h</text>
</a>
</g>
</g>
<!-- Node4&#45;&gt;Node8 -->
<g id="edge8" class="edge"><title>Node4&#45;&gt;Node8</title>
<path fill="none" stroke="midnightblue" d="M376.19,-117.975C394.902,-108.122 425.923,-91.7883 447.799,-80.2697"/>
<polygon fill="midnightblue" stroke="midnightblue" points="449.622,-83.2651 456.84,-75.5091 446.361,-77.0713 449.622,-83.2651"/>
</g>
<!-- Node5&#45;&gt;Node3 -->
<g id="edge6" class="edge"><title>Node5&#45;&gt;Node3</title>
<path fill="none" stroke="midnightblue" d="M223.56,-56.4435C202.33,-47.5566 168.901,-33.5632 144.745,-23.4514"/>
<polygon fill="midnightblue" stroke="midnightblue" points="145.921,-20.1493 135.345,-19.5164 143.218,-26.6064 145.921,-20.1493"/>
</g>
<!-- Node6 -->
<g id="node6" class="node"><title>Node6</title>
<polygon fill="none" stroke="#bfbfbf" points="191,-0.5 191,-19.5 243,-19.5 243,-0.5 191,-0.5"/>
<text text-anchor="middle" x="217" y="-7.5" font-family="Helvetica,sans-Serif" font-size="10.00">stddef.h</text>
</g>
<!-- Node5&#45;&gt;Node6 -->
<g id="edge5" class="edge"><title>Node5&#45;&gt;Node6</title>
<path fill="none" stroke="midnightblue" d="M239.541,-56.083C235.846,-48.6913 230.477,-37.9533 225.906,-28.8111"/>
<polygon fill="midnightblue" stroke="midnightblue" points="228.978,-27.1301 221.376,-19.7511 222.717,-30.2606 228.978,-27.1301"/>
</g>
<!-- Node9 -->
<g id="node9" class="node"><title>Node9</title>
<polygon fill="none" stroke="#bfbfbf" points="428.5,-0.5 428.5,-19.5 517.5,-19.5 517.5,-0.5 428.5,-0.5"/>
<text text-anchor="middle" x="473" y="-7.5" font-family="Helvetica,sans-Serif" font-size="10.00">bsd/sys/queue.h</text>
</g>
<!-- Node8&#45;&gt;Node9 -->
<g id="edge9" class="edge"><title>Node8&#45;&gt;Node9</title>
<path fill="none" stroke="midnightblue" d="M473,-56.083C473,-49.0059 473,-38.8611 473,-29.9865"/>
<polygon fill="midnightblue" stroke="midnightblue" points="476.5,-29.751 473,-19.7511 469.5,-29.7511 476.5,-29.751"/>
</g>
<!-- Node10&#45;&gt;Node3 -->
<g id="edge11" class="edge"><title>Node10&#45;&gt;Node3</title>
<path fill="none" stroke="midnightblue" d="M103.312,-56.083C105.167,-48.9272 107.835,-38.6353 110.154,-29.6911"/>
<polygon fill="midnightblue" stroke="midnightblue" points="113.609,-30.3094 112.731,-19.7511 106.834,-28.5527 113.609,-30.3094"/>
</g>
<!-- Node10&#45;&gt;Node6 -->
<g id="edge12" class="edge"><title>Node10&#45;&gt;Node6</title>
<path fill="none" stroke="midnightblue" d="M119.381,-56.4435C138.216,-47.6751 167.731,-33.9355 189.379,-23.8579"/>
<polygon fill="midnightblue" stroke="midnightblue" points="191.117,-26.9098 198.705,-19.5164 188.162,-20.5637 191.117,-26.9098"/>
</g>
<!-- Node11 -->
<g id="node11" class="node"><title>Node11</title>
<polygon fill="none" stroke="#bfbfbf" points="0,-0.5 0,-19.5 52,-19.5 52,-0.5 0,-0.5"/>
<text text-anchor="middle" x="26" y="-7.5" font-family="Helvetica,sans-Serif" font-size="10.00">stdarg.h</text>
</g>
<!-- Node10&#45;&gt;Node11 -->
<g id="edge13" class="edge"><title>Node10&#45;&gt;Node11</title>
<path fill="none" stroke="midnightblue" d="M88.95,-56.324C77.5369,-48.1066 60.169,-35.6017 46.5651,-25.8069"/>
<polygon fill="midnightblue" stroke="midnightblue" points="48.4297,-22.8366 38.2693,-19.8339 44.3396,-28.5174 48.4297,-22.8366"/>
</g>
<!-- Node13 -->
<g id="node13" class="node"><title>Node13</title>
<polygon fill="none" stroke="#bfbfbf" points="557,-56.5 557,-75.5 605,-75.5 605,-56.5 557,-56.5"/>
<text text-anchor="middle" x="581" y="-63.5" font-family="Helvetica,sans-Serif" font-size="10.00">stdlib.h</text>
</g>
<!-- Node12&#45;&gt;Node13 -->
<g id="edge15" class="edge"><title>Node12&#45;&gt;Node13</title>
<path fill="none" stroke="midnightblue" d="M581,-117.975C581,-109.58 581,-96.4806 581,-85.6631"/>
<polygon fill="midnightblue" stroke="midnightblue" points="584.5,-85.5091 581,-75.5091 577.5,-85.5091 584.5,-85.5091"/>
</g>
<!-- Node14 -->
<g id="node14" class="node"><title>Node14</title>
<polygon fill="none" stroke="#bfbfbf" points="623.5,-56.5 623.5,-75.5 672.5,-75.5 672.5,-56.5 623.5,-56.5"/>
<text text-anchor="middle" x="648" y="-63.5" font-family="Helvetica,sans-Serif" font-size="10.00">string.h</text>
</g>
<!-- Node12&#45;&gt;Node14 -->
<g id="edge16" class="edge"><title>Node12&#45;&gt;Node14</title>
<path fill="none" stroke="midnightblue" d="M590.599,-117.975C601.048,-108.697 617.968,-93.6706 630.736,-82.331"/>
<polygon fill="midnightblue" stroke="midnightblue" points="633.265,-84.7663 638.418,-75.5091 628.617,-79.5323 633.265,-84.7663"/>
</g>
<!-- Node15 -->
<g id="node15" class="node"><title>Node15</title>
<polygon fill="none" stroke="#bfbfbf" points="691,-56.5 691,-75.5 737,-75.5 737,-56.5 691,-56.5"/>
<text text-anchor="middle" x="714" y="-63.5" font-family="Helvetica,sans-Serif" font-size="10.00">stdio.h</text>
</g>
<!-- Node12&#45;&gt;Node15 -->
<g id="edge17" class="edge"><title>Node12&#45;&gt;Node15</title>
<path fill="none" stroke="midnightblue" d="M600.056,-117.975C622.475,-107.945 659.905,-91.2002 685.713,-79.6546"/>
<polygon fill="midnightblue" stroke="midnightblue" points="687.281,-82.7877 694.98,-75.5091 684.422,-76.3979 687.281,-82.7877"/>
</g>
</g>
</svg>
        <g id="navigator" transform="translate(0 0)" fill="#404254">
                <rect fill="#f2f5e9" fill-opacity="0.5" stroke="#606060" stroke-width=".5" x="0" y="0" width="60" height="60"/>
                <use id="zoomplus" xlink:href="#zoomPlus" x="17" y="9" onmousedown="handleZoom(evt,'in')"/>
                <use id="zoomminus" xlink:href="#zoomMin" x="42" y="9" onmousedown="handleZoom(evt,'out')"/>
                <use id="reset" xlink:href="#resetDef" x="30" y="36" onmousedown="handleReset()"/>
                <g id="arrowUp" xlink:href="#dirArrow" transform="translate(30 24)" onmousedown="handlePan(0,-1)">
                  <use xlink:href="#rim" fill="#404040">
                        <set attributeName="fill" to="#808080" begin="arrowUp.mouseover" end="arrowUp.mouseout"/>
                  </use>
                  <path fill="none" stroke="white" stroke-width="1.5" d="M0,-3.0v7 M-2.5,-0.5L0,-3.0L2.5,-0.5"/>
                </g>
                <g id="arrowRight" xlink:href="#dirArrow" transform="rotate(90) translate(36 -43)" onmousedown="handlePan(1,0)">
                  <use xlink:href="#rim" fill="#404040">
                        <set attributeName="fill" to="#808080" begin="arrowRight.mouseover" end="arrowRight.mouseout"/>
                  </use>
                  <path fill="none" stroke="white" stroke-width="1.5" d="M0,-3.0v7 M-2.5,-0.5L0,-3.0L2.5,-0.5"/>
                </g>
                <g id="arrowDown" xlink:href="#dirArrow" transform="rotate(180) translate(-30 -48)" onmousedown="handlePan(0,1)">
                  <use xlink:href="#rim" fill="#404040">
                        <set attributeName="fill" to="#808080" begin="arrowDown.mouseover" end="arrowDown.mouseout"/>
                  </use>
                  <path fill="none" stroke="white" stroke-width="1.5" d="M0,-3.0v7 M-2.5,-0.5L0,-3.0L2.5,-0.5"/>
                </g>
                <g id="arrowLeft" xlink:href="#dirArrow" transform="rotate(270) translate(-36 17)" onmousedown="handlePan(-1,0)">
                  <use xlink:href="#rim" fill="#404040">
                        <set attributeName="fill" to="#808080" begin="arrowLeft.mouseover" end="arrowLeft.mouseout"/>
                  </use>
                  <path fill="none" stroke="white" stroke-width="1.5" d="M0,-3.0v7 M-2.5,-0.5L0,-3.0L2.5,-0.5"/>
                </g>
        </g>
        <svg viewBox="0 0 15 15" width="100%" height="30px" preserveAspectRatio="xMaxYMin meet">
         <g id="arrow_out" transform="scale(0.3 0.3)">
          <a xlink:href="a00146_org.svg" target="_base">
           <rect id="button" ry="5" rx="5" y="6" x="6" height="38" width="38"
                fill="#f2f5e9" fill-opacity="0.5" stroke="#606060" stroke-width="1.0"/>
           <path id="arrow"
             d="M 11.500037,31.436501 C 11.940474,20.09759 22.043105,11.32322 32.158766,21.979434 L 37.068811,17.246167 C 37.068811,17.246167 37.088388,32 37.088388,32 L 22.160133,31.978069 C 22.160133,31.978069 26.997745,27.140456 26.997745,27.140456 C 18.528582,18.264221 13.291696,25.230495 11.500037,31.436501 z"
             style="fill:#404040;"/>
          </a>
         </g>
        </svg>
</svg>
