<?xml version="1.0" encoding="UTF-8" standalone="no"?>
<!DOCTYPE svg PUBLIC "-//W3C//DTD SVG 1.1//EN"
 "http://www.w3.org/Graphics/SVG/1.1/DTD/svg11.dtd">
<!-- Generated by graphviz version 2.38.0 (20140413.2041)
 -->
<!-- Title: common/curl_ev/include/hpd/common/hpd_curl_ev.h Pages: 1 -->
<svg width="168pt" height="95pt"
 viewBox="0.00 0.00 167.50 95.00" xmlns="http://www.w3.org/2000/svg" xmlns:xlink="http://www.w3.org/1999/xlink">
<g id="graph0" class="graph" transform="scale(1 1) rotate(0) translate(4 91)">
<title>common/curl_ev/include/hpd/common/hpd_curl_ev.h</title>
<!-- Node1 -->
<g id="node1" class="node"><title>Node1</title>
<polygon fill="#bfbfbf" stroke="black" points="0,-56.5 0,-86.5 140,-86.5 140,-56.5 0,-56.5"/>
<text text-anchor="start" x="8" y="-74.5" font-family="Helvetica,sans-Serif" font-size="10.00">common/curl_ev/include</text>
<text text-anchor="middle" x="70" y="-63.5" font-family="Helvetica,sans-Serif" font-size="10.00">/hpd/common/hpd_curl_ev.h</text>
</g>
<!-- Node2 -->
<g id="node2" class="node"><title>Node2</title>
<polygon fill="none" stroke="#bfbfbf" points="0,-0.5 0,-19.5 52,-19.5 52,-0.5 0,-0.5"/>
<text text-anchor="middle" x="26" y="-7.5" font-family="Helvetica,sans-Serif" font-size="10.00">stddef.h</text>
</g>
<!-- Node1&#45;&gt;Node2 -->
<g id="edge1" class="edge"><title>Node1&#45;&gt;Node2</title>
<path fill="none" stroke="midnightblue" d="M59.5726,-56.3993C53.2448,-47.8424 45.1314,-36.8708 38.4657,-27.857"/>
<polygon fill="midnightblue" stroke="midnightblue" points="41.1624,-25.6171 32.4024,-19.6578 35.5341,-29.7792 41.1624,-25.6171"/>
</g>
<!-- Node3 -->
<g id="node3" class="node"><title>Node3</title>
<g id="a_node3"><a xlink:href="a00030.html" target="_top" xlink:title="hpd/hpd_types.h">
<polygon fill="none" stroke="black" points="70.5,-0.5 70.5,-19.5 159.5,-19.5 159.5,-0.5 70.5,-0.5"/>
<text text-anchor="middle" x="115" y="-7.5" font-family="Helvetica,sans-Serif" font-size="10.00">hpd/hpd_types.h</text>
</a>
</g>
</g>
<!-- Node1&#45;&gt;Node3 -->
<g id="edge2" class="edge"><title>Node1&#45;&gt;Node3</title>
<path fill="none" stroke="midnightblue" d="M80.6644,-56.3993C87.136,-47.8424 95.4338,-36.8708 102.251,-27.857"/>
<polygon fill="midnightblue" stroke="midnightblue" points="105.211,-29.7449 108.452,-19.6578 99.6284,-25.5223 105.211,-29.7449"/>
</g>
</g>
</svg>
