<?xml version="1.0" encoding="UTF-8" standalone="no"?>
<!DOCTYPE svg PUBLIC "-//W3C//DTD SVG 1.1//EN"
 "http://www.w3.org/Graphics/SVG/1.1/DTD/svg11.dtd">
<!-- Generated by graphviz version 2.38.0 (20140413.2041)
 -->
<!-- Title: common/tcpd/include/hpd/common/hpd_tcpd_types.h Pages: 1 -->
<!--zoomable 329 -->
<svg id="main" version="1.1" xmlns="http://www.w3.org/2000/svg" xmlns:xlink="http://www.w3.org/1999/xlink" xml:space="preserve" onload="init(evt)">
<style type="text/css"><![CDATA[
.edge:hover path { stroke: red; }
.edge:hover polygon { stroke: red; fill: red; }
]]></style>
<script type="text/javascript"><![CDATA[
var edges = document.getElementsByTagName('g');
if (edges && edges.length) {
  for (var i=0;i<edges.length;i++) {
    if (edges[i].id.substr(0,4)=='edge') {
      edges[i].setAttribute('class','edge');
    }
  }
}
]]></script>
        <defs>
                <circle id="rim" cx="0" cy="0" r="7"/>
                <circle id="rim2" cx="0" cy="0" r="3.5"/>
                <g id="zoomPlus">
                        <use xlink:href="#rim" fill="#404040">
                                <set attributeName="fill" to="#808080" begin="zoomplus.mouseover" end="zoomplus.mouseout"/>
                        </use>
                        <path d="M-4,0h8M0,-4v8" fill="none" stroke="white" stroke-width="1.5" pointer-events="none"/>
                </g>
                <g id="zoomMin">
                        <use xlink:href="#rim" fill="#404040">
                                <set attributeName="fill" to="#808080" begin="zoomminus.mouseover" end="zoomminus.mouseout"/>
                        </use>
                        <path d="M-4,0h8" fill="none" stroke="white" stroke-width="1.5" pointer-events="none"/>
                </g>
                <g id="dirArrow">
                        <path fill="none" stroke="white" stroke-width="1.5" d="M0,-3.0v7 M-2.5,-0.5L0,-3.0L2.5,-0.5"/>
                </g>
               <g id="resetDef">
                       <use xlink:href="#rim2" fill="#404040">
                               <set attributeName="fill" to="#808080" begin="reset.mouseover" end="reset.mouseout"/>
                       </use>
               </g>
        </defs>

<script type="text/javascript">
var viewWidth = 858;
var viewHeight = 329;
var sectionId = 'dynsection-0';
</script>
<script xlink:href="svgpan.js"/>
<svg id="graph" class="graph">
<g id="viewport">
<title>common/tcpd/include/hpd/common/hpd_tcpd_types.h</title>
<!-- Node1 -->
<g id="node1" class="node"><title>Node1</title>
<polygon fill="#bfbfbf" stroke="black" points="328.5,-279.5 328.5,-320.5 447.5,-320.5 447.5,-279.5 328.5,-279.5"/>
<text text-anchor="start" x="336.5" y="-308.5" font-family="Helvetica,sans-Serif" font-size="10.00">common/tcpd/include</text>
<text text-anchor="start" x="336.5" y="-297.5" font-family="Helvetica,sans-Serif" font-size="10.00">/hpd/common/hpd_tcpd</text>
<text text-anchor="middle" x="388" y="-286.5" font-family="Helvetica,sans-Serif" font-size="10.00">_types.h</text>
</g>
<!-- Node2 -->
<g id="node2" class="node"><title>Node2</title>
<g id="a_node2"><a xlink:href="a00048.html" target="_top" xlink:title="common/httpd/include\l/hpd/common/hpd_httpd\l_types.h">
<polygon fill="none" stroke="black" points="268,-201.5 268,-242.5 390,-242.5 390,-201.5 268,-201.5"/>
<text text-anchor="start" x="276" y="-230.5" font-family="Helvetica,sans-Serif" font-size="10.00">common/httpd/include</text>
<text text-anchor="start" x="276" y="-219.5" font-family="Helvetica,sans-Serif" font-size="10.00">/hpd/common/hpd_httpd</text>
<text text-anchor="middle" x="329" y="-208.5" font-family="Helvetica,sans-Serif" font-size="10.00">_types.h</text>
</a>
</g>
</g>
<!-- Node1&#45;&gt;Node2 -->
<g id="edge1" class="edge"><title>Node1&#45;&gt;Node2</title>
<path fill="none" stroke="midnightblue" d="M366.525,-271.338C359.104,-261.778 350.949,-251.273 344.142,-242.506"/>
<polygon fill="midnightblue" stroke="midnightblue" points="363.909,-273.675 372.806,-279.428 369.438,-269.383 363.909,-273.675"/>
</g>
<!-- Node10 -->
<g id="node10" class="node"><title>Node10</title>
<g id="a_node10"><a xlink:href="a00038.html" target="_top" xlink:title="common/tcpd/include\l/hpd/common/hpd_tcpd.h">
<polygon fill="none" stroke="black" points="398.5,-134.5 398.5,-164.5 525.5,-164.5 525.5,-134.5 398.5,-134.5"/>
<text text-anchor="start" x="406.5" y="-152.5" font-family="Helvetica,sans-Serif" font-size="10.00">common/tcpd/include</text>
<text text-anchor="middle" x="462" y="-141.5" font-family="Helvetica,sans-Serif" font-size="10.00">/hpd/common/hpd_tcpd.h</text>
</a>
</g>
</g>
<!-- Node1&#45;&gt;Node10 -->
<g id="edge10" class="edge"><title>Node1&#45;&gt;Node10</title>
<path fill="none" stroke="midnightblue" d="M402.429,-270.044C418.26,-238.276 443.012,-188.605 455.011,-164.526"/>
<polygon fill="midnightblue" stroke="midnightblue" points="399.154,-268.769 397.827,-279.28 405.419,-271.891 399.154,-268.769"/>
</g>
<!-- Node3 -->
<g id="node3" class="node"><title>Node3</title>
<g id="a_node3"><a xlink:href="a00027.html" target="_top" xlink:title="common/httpd/include\l/hpd/common/hpd_httpd.h">
<polygon fill="none" stroke="black" points="250,-134.5 250,-164.5 380,-164.5 380,-134.5 250,-134.5"/>
<text text-anchor="start" x="258" y="-152.5" font-family="Helvetica,sans-Serif" font-size="10.00">common/httpd/include</text>
<text text-anchor="middle" x="315" y="-141.5" font-family="Helvetica,sans-Serif" font-size="10.00">/hpd/common/hpd_httpd.h</text>
</a>
</g>
</g>
<!-- Node2&#45;&gt;Node3 -->
<g id="edge2" class="edge"><title>Node2&#45;&gt;Node3</title>
<path fill="none" stroke="midnightblue" d="M323.117,-191.376C321.298,-182.214 319.375,-172.532 317.858,-164.892"/>
<polygon fill="midnightblue" stroke="midnightblue" points="319.719,-192.235 325.1,-201.362 326.585,-190.872 319.719,-192.235"/>
</g>
<!-- Node4 -->
<g id="node4" class="node"><title>Node4</title>
<g id="a_node4"><a xlink:href="a00047.html" target="_top" xlink:title="common/httpd/example\l/greeting.c">
<polygon fill="none" stroke="black" points="128.5,-67.5 128.5,-97.5 247.5,-97.5 247.5,-67.5 128.5,-67.5"/>
<text text-anchor="start" x="136.5" y="-85.5" font-family="Helvetica,sans-Serif" font-size="10.00">common/httpd/example</text>
<text text-anchor="middle" x="188" y="-74.5" font-family="Helvetica,sans-Serif" font-size="10.00">/greeting.c</text>
</a>
</g>
</g>
<!-- Node3&#45;&gt;Node4 -->
<g id="edge3" class="edge"><title>Node3&#45;&gt;Node4</title>
<path fill="none" stroke="midnightblue" d="M278.296,-129.714C258.266,-119.463 233.881,-106.983 215.503,-97.5765"/>
<polygon fill="midnightblue" stroke="midnightblue" points="276.946,-132.956 287.443,-134.396 280.136,-126.724 276.946,-132.956"/>
</g>
<!-- Node5 -->
<g id="node5" class="node"><title>Node5</title>
<g id="a_node5"><a xlink:href="a00024.html" target="_top" xlink:title="common/httpd/src/httpd.c">
<polygon fill="none" stroke="black" points="388,-6 388,-25 516,-25 516,-6 388,-6"/>
<text text-anchor="middle" x="452" y="-13" font-family="Helvetica,sans-Serif" font-size="10.00">common/httpd/src/httpd.c</text>
</a>
</g>
</g>
<!-- Node3&#45;&gt;Node5 -->
<g id="edge4" class="edge"><title>Node3&#45;&gt;Node5</title>
<path fill="none" stroke="midnightblue" d="M351.901,-129.379C366.272,-120.908 382.304,-110.111 395,-98 418.864,-75.2376 438.848,-41.0735 447.457,-25.192"/>
<polygon fill="midnightblue" stroke="midnightblue" points="350.158,-126.343 343.212,-134.343 353.631,-132.421 350.158,-126.343"/>
</g>
<!-- Node6 -->
<g id="node6" class="node"><title>Node6</title>
<g id="a_node6"><a xlink:href="a00049.html" target="_top" xlink:title="common/httpd/src/httpd\l_request.h">
<polygon fill="none" stroke="black" points="266,-67.5 266,-97.5 386,-97.5 386,-67.5 266,-67.5"/>
<text text-anchor="start" x="274" y="-85.5" font-family="Helvetica,sans-Serif" font-size="10.00">common/httpd/src/httpd</text>
<text text-anchor="middle" x="326" y="-74.5" font-family="Helvetica,sans-Serif" font-size="10.00">_request.h</text>
</a>
</g>
</g>
<!-- Node3&#45;&gt;Node6 -->
<g id="edge5" class="edge"><title>Node3&#45;&gt;Node6</title>
<path fill="none" stroke="midnightblue" d="M319.078,-124.403C320.607,-115.37 322.293,-105.408 323.618,-97.5765"/>
<polygon fill="midnightblue" stroke="midnightblue" points="315.605,-123.952 317.387,-134.396 322.506,-125.12 315.605,-123.952"/>
</g>
<!-- Node9 -->
<g id="node9" class="node"><title>Node9</title>
<g id="a_node9"><a xlink:href="a00034.html" target="_top" xlink:title="modules/hpd_rest/src\l/rest.c">
<polygon fill="none" stroke="black" points="0,-67.5 0,-97.5 110,-97.5 110,-67.5 0,-67.5"/>
<text text-anchor="start" x="8" y="-85.5" font-family="Helvetica,sans-Serif" font-size="10.00">modules/hpd_rest/src</text>
<text text-anchor="middle" x="55" y="-74.5" font-family="Helvetica,sans-Serif" font-size="10.00">/rest.c</text>
</a>
</g>
</g>
<!-- Node3&#45;&gt;Node9 -->
<g id="edge9" class="edge"><title>Node3&#45;&gt;Node9</title>
<path fill="none" stroke="midnightblue" d="M249.104,-132.026C206.142,-121.285 150.72,-107.43 110.103,-97.2757"/>
<polygon fill="midnightblue" stroke="midnightblue" points="248.354,-135.446 258.904,-134.476 250.051,-128.655 248.354,-135.446"/>
</g>
<!-- Node6&#45;&gt;Node5 -->
<g id="edge6" class="edge"><title>Node6&#45;&gt;Node5</title>
<path fill="none" stroke="midnightblue" d="M362.244,-62.8029C386.399,-50.3418 417,-34.5558 435.51,-25.007"/>
<polygon fill="midnightblue" stroke="midnightblue" points="360.623,-59.7008 353.34,-67.396 363.832,-65.9218 360.623,-59.7008"/>
</g>
<!-- Node7 -->
<g id="node7" class="node"><title>Node7</title>
<g id="a_node7"><a xlink:href="a00025.html" target="_top" xlink:title="common/httpd/src/httpd\l_request.c">
<polygon fill="none" stroke="black" points="112,-0.5 112,-30.5 232,-30.5 232,-0.5 112,-0.5"/>
<text text-anchor="start" x="120" y="-18.5" font-family="Helvetica,sans-Serif" font-size="10.00">common/httpd/src/httpd</text>
<text text-anchor="middle" x="172" y="-7.5" font-family="Helvetica,sans-Serif" font-size="10.00">_request.c</text>
</a>
</g>
</g>
<!-- Node6&#45;&gt;Node7 -->
<g id="edge7" class="edge"><title>Node6&#45;&gt;Node7</title>
<path fill="none" stroke="midnightblue" d="M283.133,-63.4066C258.547,-53.0294 228.14,-40.1954 205.35,-30.5765"/>
<polygon fill="midnightblue" stroke="midnightblue" points="282.01,-66.7319 292.584,-67.396 284.732,-60.2828 282.01,-66.7319"/>
</g>
<!-- Node8 -->
<g id="node8" class="node"><title>Node8</title>
<g id="a_node8"><a xlink:href="a00026.html" target="_top" xlink:title="common/httpd/src/httpd\l_response.c">
<polygon fill="none" stroke="black" points="250,-0.5 250,-30.5 370,-30.5 370,-0.5 250,-0.5"/>
<text text-anchor="start" x="258" y="-18.5" font-family="Helvetica,sans-Serif" font-size="10.00">common/httpd/src/httpd</text>
<text text-anchor="middle" x="310" y="-7.5" font-family="Helvetica,sans-Serif" font-size="10.00">_response.c</text>
</a>
</g>
</g>
<!-- Node6&#45;&gt;Node8 -->
<g id="edge8" class="edge"><title>Node6&#45;&gt;Node8</title>
<path fill="none" stroke="midnightblue" d="M320.068,-57.4029C317.845,-48.3703 315.393,-38.4078 313.465,-30.5765"/>
<polygon fill="midnightblue" stroke="midnightblue" points="316.739,-58.5224 322.528,-67.396 323.537,-56.8492 316.739,-58.5224"/>
</g>
<!-- Node10&#45;&gt;Node5 -->
<g id="edge11" class="edge"><title>Node10&#45;&gt;Node5</title>
<path fill="none" stroke="midnightblue" d="M460.168,-124.317C457.9,-94.3757 454.152,-44.9109 452.651,-25.0973"/>
<polygon fill="midnightblue" stroke="midnightblue" points="456.684,-124.667 460.93,-134.374 463.664,-124.138 456.684,-124.667"/>
</g>
<!-- Node10&#45;&gt;Node6 -->
<g id="edge12" class="edge"><title>Node10&#45;&gt;Node6</title>
<path fill="none" stroke="midnightblue" d="M423.276,-129.992C401.719,-119.689 375.311,-107.068 355.452,-97.5765"/>
<polygon fill="midnightblue" stroke="midnightblue" points="421.958,-133.242 432.49,-134.396 424.977,-126.926 421.958,-133.242"/>
</g>
<!-- Node11 -->
<g id="node11" class="node"><title>Node11</title>
<g id="a_node11"><a xlink:href="a00057.html" target="_top" xlink:title="common/tcpd/example\l/echo.c">
<polygon fill="none" stroke="black" points="480,-67.5 480,-97.5 596,-97.5 596,-67.5 480,-67.5"/>
<text text-anchor="start" x="488" y="-85.5" font-family="Helvetica,sans-Serif" font-size="10.00">common/tcpd/example</text>
<text text-anchor="middle" x="538" y="-74.5" font-family="Helvetica,sans-Serif" font-size="10.00">/echo.c</text>
</a>
</g>
</g>
<!-- Node10&#45;&gt;Node11 -->
<g id="edge13" class="edge"><title>Node10&#45;&gt;Node11</title>
<path fill="none" stroke="midnightblue" d="M486.106,-127.883C497.655,-118.005 511.19,-106.429 521.541,-97.5765"/>
<polygon fill="midnightblue" stroke="midnightblue" points="483.816,-125.236 478.491,-134.396 488.365,-130.556 483.816,-125.236"/>
</g>
<!-- Node12 -->
<g id="node12" class="node"><title>Node12</title>
<g id="a_node12"><a xlink:href="a00036.html" target="_top" xlink:title="common/tcpd/src/tcpd\l_intern.h">
<polygon fill="none" stroke="black" points="614,-67.5 614,-97.5 728,-97.5 728,-67.5 614,-67.5"/>
<text text-anchor="start" x="622" y="-85.5" font-family="Helvetica,sans-Serif" font-size="10.00">common/tcpd/src/tcpd</text>
<text text-anchor="middle" x="671" y="-74.5" font-family="Helvetica,sans-Serif" font-size="10.00">_intern.h</text>
</a>
</g>
</g>
<!-- Node10&#45;&gt;Node12 -->
<g id="edge14" class="edge"><title>Node10&#45;&gt;Node12</title>
<path fill="none" stroke="midnightblue" d="M516.841,-131.444C550.72,-120.908 593.672,-107.549 625.628,-97.6109"/>
<polygon fill="midnightblue" stroke="midnightblue" points="515.602,-128.164 507.093,-134.476 517.681,-134.848 515.602,-128.164"/>
</g>
<!-- Node13 -->
<g id="node13" class="node"><title>Node13</title>
<g id="a_node13"><a xlink:href="a00059.html" target="_top" xlink:title="common/tcpd/src/tcpd.c">
<polygon fill="none" stroke="black" points="728,-6 728,-25 850,-25 850,-6 728,-6"/>
<text text-anchor="middle" x="789" y="-13" font-family="Helvetica,sans-Serif" font-size="10.00">common/tcpd/src/tcpd.c</text>
</a>
</g>
</g>
<!-- Node12&#45;&gt;Node13 -->
<g id="edge15" class="edge"><title>Node12&#45;&gt;Node13</title>
<path fill="none" stroke="midnightblue" d="M705.542,-62.4727C728.068,-50.0641 756.375,-34.4716 773.557,-25.007"/>
<polygon fill="midnightblue" stroke="midnightblue" points="703.675,-59.5054 696.604,-67.396 707.052,-65.6367 703.675,-59.5054"/>
</g>
<!-- Node14 -->
<g id="node14" class="node"><title>Node14</title>
<g id="a_node14"><a xlink:href="a00061.html" target="_top" xlink:title="common/tcpd/test/webserver\l_test.cpp">
<polygon fill="none" stroke="black" points="566.5,-0.5 566.5,-30.5 709.5,-30.5 709.5,-0.5 566.5,-0.5"/>
<text text-anchor="start" x="574.5" y="-18.5" font-family="Helvetica,sans-Serif" font-size="10.00">common/tcpd/test/webserver</text>
<text text-anchor="middle" x="638" y="-7.5" font-family="Helvetica,sans-Serif" font-size="10.00">_test.cpp</text>
</a>
</g>
</g>
<!-- Node12&#45;&gt;Node14 -->
<g id="edge16" class="edge"><title>Node12&#45;&gt;Node14</title>
<path fill="none" stroke="midnightblue" d="M659.213,-58.2835C654.511,-49.0223 649.252,-38.6632 645.147,-30.5765"/>
<polygon fill="midnightblue" stroke="midnightblue" points="656.192,-60.0637 663.839,-67.396 662.433,-56.8948 656.192,-60.0637"/>
</g>
</g>
</svg>
        <g id="navigator" transform="translate(0 0)" fill="#404254">
                <rect fill="#f2f5e9" fill-opacity="0.5" stroke="#606060" stroke-width=".5" x="0" y="0" width="60" height="60"/>
                <use id="zoomplus" xlink:href="#zoomPlus" x="17" y="9" onmousedown="handleZoom(evt,'in')"/>
                <use id="zoomminus" xlink:href="#zoomMin" x="42" y="9" onmousedown="handleZoom(evt,'out')"/>
                <use id="reset" xlink:href="#resetDef" x="30" y="36" onmousedown="handleReset()"/>
                <g id="arrowUp" xlink:href="#dirArrow" transform="translate(30 24)" onmousedown="handlePan(0,-1)">
                  <use xlink:href="#rim" fill="#404040">
                        <set attributeName="fill" to="#808080" begin="arrowUp.mouseover" end="arrowUp.mouseout"/>
                  </use>
                  <path fill="none" stroke="white" stroke-width="1.5" d="M0,-3.0v7 M-2.5,-0.5L0,-3.0L2.5,-0.5"/>
                </g>
                <g id="arrowRight" xlink:href="#dirArrow" transform="rotate(90) translate(36 -43)" onmousedown="handlePan(1,0)">
                  <use xlink:href="#rim" fill="#404040">
                        <set attributeName="fill" to="#808080" begin="arrowRight.mouseover" end="arrowRight.mouseout"/>
                  </use>
                  <path fill="none" stroke="white" stroke-width="1.5" d="M0,-3.0v7 M-2.5,-0.5L0,-3.0L2.5,-0.5"/>
                </g>
                <g id="arrowDown" xlink:href="#dirArrow" transform="rotate(180) translate(-30 -48)" onmousedown="handlePan(0,1)">
                  <use xlink:href="#rim" fill="#404040">
                        <set attributeName="fill" to="#808080" begin="arrowDown.mouseover" end="arrowDown.mouseout"/>
                  </use>
                  <path fill="none" stroke="white" stroke-width="1.5" d="M0,-3.0v7 M-2.5,-0.5L0,-3.0L2.5,-0.5"/>
                </g>
                <g id="arrowLeft" xlink:href="#dirArrow" transform="rotate(270) translate(-36 17)" onmousedown="handlePan(-1,0)">
                  <use xlink:href="#rim" fill="#404040">
                        <set attributeName="fill" to="#808080" begin="arrowLeft.mouseover" end="arrowLeft.mouseout"/>
                  </use>
                  <path fill="none" stroke="white" stroke-width="1.5" d="M0,-3.0v7 M-2.5,-0.5L0,-3.0L2.5,-0.5"/>
                </g>
        </g>
        <svg viewBox="0 0 15 15" width="100%" height="30px" preserveAspectRatio="xMaxYMin meet">
         <g id="arrow_out" transform="scale(0.3 0.3)">
          <a xlink:href="a00191_org.svg" target="_base">
           <rect id="button" ry="5" rx="5" y="6" x="6" height="38" width="38"
                fill="#f2f5e9" fill-opacity="0.5" stroke="#606060" stroke-width="1.0"/>
           <path id="arrow"
             d="M 11.500037,31.436501 C 11.940474,20.09759 22.043105,11.32322 32.158766,21.979434 L 37.068811,17.246167 C 37.068811,17.246167 37.088388,32 37.088388,32 L 22.160133,31.978069 C 22.160133,31.978069 26.997745,27.140456 26.997745,27.140456 C 18.528582,18.264221 13.291696,25.230495 11.500037,31.436501 z"
             style="fill:#404040;"/>
          </a>
         </g>
        </svg>
</svg>
