<?xml version="1.0" encoding="UTF-8" standalone="no"?>
<!DOCTYPE svg PUBLIC "-//W3C//DTD SVG 1.1//EN"
 "http://www.w3.org/Graphics/SVG/1.1/DTD/svg11.dtd">
<!-- Generated by graphviz version 2.38.0 (20140413.2041)
 -->
<!-- Title: common/httpd/src/httpd_request.c Pages: 1 -->
<svg width="759pt" height="341pt"
 viewBox="0.00 0.00 758.57 341.00" xmlns="http://www.w3.org/2000/svg" xmlns:xlink="http://www.w3.org/1999/xlink">
<g id="graph0" class="graph" transform="scale(1 1) rotate(0) translate(4 337)">
<title>common/httpd/src/httpd_request.c</title>
<!-- Node1 -->
<g id="node1" class="node"><title>Node1</title>
<polygon fill="#bfbfbf" stroke="black" points="303.5,-302.5 303.5,-332.5 423.5,-332.5 423.5,-302.5 303.5,-302.5"/>
<text text-anchor="start" x="311.5" y="-320.5" font-family="Helvetica,sans-Serif" font-size="10.00">common/httpd/src/httpd</text>
<text text-anchor="middle" x="363.5" y="-309.5" font-family="Helvetica,sans-Serif" font-size="10.00">_request.c</text>
</g>
<!-- Node2 -->
<g id="node2" class="node"><title>Node2</title>
<g id="a_node2"><a xlink:href="a00049.html" target="_top" xlink:title="httpd_request.h">
<polygon fill="none" stroke="black" points="321.5,-246.5 321.5,-265.5 405.5,-265.5 405.5,-246.5 321.5,-246.5"/>
<text text-anchor="middle" x="363.5" y="-253.5" font-family="Helvetica,sans-Serif" font-size="10.00">httpd_request.h</text>
</a>
</g>
</g>
<!-- Node1&#45;&gt;Node2 -->
<g id="edge1" class="edge"><title>Node1&#45;&gt;Node2</title>
<path fill="none" stroke="midnightblue" d="M363.5,-302.399C363.5,-294.466 363.5,-284.458 363.5,-275.858"/>
<polygon fill="midnightblue" stroke="midnightblue" points="367,-275.658 363.5,-265.658 360,-275.658 367,-275.658"/>
</g>
<!-- Node13 -->
<g id="node13" class="node"><title>Node13</title>
<polygon fill="none" stroke="#bfbfbf" points="423.5,-246.5 423.5,-265.5 497.5,-265.5 497.5,-246.5 423.5,-246.5"/>
<text text-anchor="middle" x="460.5" y="-253.5" font-family="Helvetica,sans-Serif" font-size="10.00">http_parser.h</text>
</g>
<!-- Node1&#45;&gt;Node13 -->
<g id="edge20" class="edge"><title>Node1&#45;&gt;Node13</title>
<path fill="none" stroke="midnightblue" d="M386.488,-302.399C401.891,-292.951 422.093,-280.559 437.499,-271.109"/>
<polygon fill="midnightblue" stroke="midnightblue" points="439.692,-273.87 446.386,-265.658 436.031,-267.903 439.692,-273.87"/>
</g>
<!-- Node14 -->
<g id="node14" class="node"><title>Node14</title>
<g id="a_node14"><a xlink:href="a00042.html" target="_top" xlink:title="httpd_url_parser.h">
<polygon fill="none" stroke="black" points="157,-190.5 157,-209.5 252,-209.5 252,-190.5 157,-190.5"/>
<text text-anchor="middle" x="204.5" y="-197.5" font-family="Helvetica,sans-Serif" font-size="10.00">httpd_url_parser.h</text>
</a>
</g>
</g>
<!-- Node1&#45;&gt;Node14 -->
<g id="edge21" class="edge"><title>Node1&#45;&gt;Node14</title>
<path fill="none" stroke="midnightblue" d="M337.403,-302.361C320.436,-292.796 298.093,-279.491 279.5,-266 258.084,-250.461 235.374,-230.176 220.629,-216.429"/>
<polygon fill="midnightblue" stroke="midnightblue" points="222.993,-213.848 213.315,-209.537 218.192,-218.943 222.993,-213.848"/>
</g>
<!-- Node15 -->
<g id="node15" class="node"><title>Node15</title>
<g id="a_node15"><a xlink:href="a00016.html" target="_top" xlink:title="httpd_header_parser.h">
<polygon fill="none" stroke="black" points="0,-190.5 0,-209.5 113,-209.5 113,-190.5 0,-190.5"/>
<text text-anchor="middle" x="56.5" y="-197.5" font-family="Helvetica,sans-Serif" font-size="10.00">httpd_header_parser.h</text>
</a>
</g>
</g>
<!-- Node1&#45;&gt;Node15 -->
<g id="edge23" class="edge"><title>Node1&#45;&gt;Node15</title>
<path fill="none" stroke="midnightblue" d="M326.163,-302.453C265.412,-279.597 146.202,-234.748 88.8423,-213.168"/>
<polygon fill="midnightblue" stroke="midnightblue" points="89.7975,-209.788 79.2055,-209.542 87.3325,-216.339 89.7975,-209.788"/>
</g>
<!-- Node16 -->
<g id="node16" class="node"><title>Node16</title>
<g id="a_node16"><a xlink:href="a00075.html" target="_top" xlink:title="hpd/hpd_shared_api.h">
<polygon fill="none" stroke="black" points="289.5,-129 289.5,-148 401.5,-148 401.5,-129 289.5,-129"/>
<text text-anchor="middle" x="345.5" y="-136" font-family="Helvetica,sans-Serif" font-size="10.00">hpd/hpd_shared_api.h</text>
</a>
</g>
</g>
<!-- Node1&#45;&gt;Node16 -->
<g id="edge25" class="edge"><title>Node1&#45;&gt;Node16</title>
<path fill="none" stroke="midnightblue" d="M342.867,-302.499C331.589,-293.542 318.688,-280.835 312.5,-266 296.842,-228.46 319.278,-181.486 334.147,-156.684"/>
<polygon fill="midnightblue" stroke="midnightblue" points="337.212,-158.384 339.562,-148.053 331.283,-154.664 337.212,-158.384"/>
</g>
<!-- Node17 -->
<g id="node17" class="node"><title>Node17</title>
<polygon fill="none" stroke="#bfbfbf" points="516,-246.5 516,-265.5 565,-265.5 565,-246.5 516,-246.5"/>
<text text-anchor="middle" x="540.5" y="-253.5" font-family="Helvetica,sans-Serif" font-size="10.00">string.h</text>
</g>
<!-- Node1&#45;&gt;Node17 -->
<g id="edge29" class="edge"><title>Node1&#45;&gt;Node17</title>
<path fill="none" stroke="midnightblue" d="M405.447,-302.399C436.173,-292.07 477.365,-278.223 506.147,-268.548"/>
<polygon fill="midnightblue" stroke="midnightblue" points="507.409,-271.816 515.772,-265.312 505.178,-265.181 507.409,-271.816"/>
</g>
<!-- Node18 -->
<g id="node18" class="node"><title>Node18</title>
<polygon fill="none" stroke="#bfbfbf" points="583.5,-246.5 583.5,-265.5 631.5,-265.5 631.5,-246.5 583.5,-246.5"/>
<text text-anchor="middle" x="607.5" y="-253.5" font-family="Helvetica,sans-Serif" font-size="10.00">stdlib.h</text>
</g>
<!-- Node1&#45;&gt;Node18 -->
<g id="edge30" class="edge"><title>Node1&#45;&gt;Node18</title>
<path fill="none" stroke="midnightblue" d="M423.331,-302.495C465.397,-292.554 522.965,-278.763 573.5,-266 573.6,-265.975 573.7,-265.949 573.8,-265.924"/>
<polygon fill="midnightblue" stroke="midnightblue" points="574.56,-269.343 583.372,-263.459 572.815,-262.564 574.56,-269.343"/>
</g>
<!-- Node3 -->
<g id="node3" class="node"><title>Node3</title>
<g id="a_node3"><a xlink:href="a00027.html" target="_top" xlink:title="hpd/common/hpd_httpd.h">
<polygon fill="none" stroke="black" points="460,-190.5 460,-209.5 587,-209.5 587,-190.5 460,-190.5"/>
<text text-anchor="middle" x="523.5" y="-197.5" font-family="Helvetica,sans-Serif" font-size="10.00">hpd/common/hpd_httpd.h</text>
</a>
</g>
</g>
<!-- Node2&#45;&gt;Node3 -->
<g id="edge2" class="edge"><title>Node2&#45;&gt;Node3</title>
<path fill="none" stroke="midnightblue" d="M388.852,-246.444C415.769,-237.359 458.496,-222.939 488.587,-212.783"/>
<polygon fill="midnightblue" stroke="midnightblue" points="489.91,-216.031 498.266,-209.516 487.672,-209.398 489.91,-216.031"/>
</g>
<!-- Node8 -->
<g id="node8" class="node"><title>Node8</title>
<polygon fill="none" stroke="#bfbfbf" points="676.5,-62 676.5,-81 728.5,-81 728.5,-62 676.5,-62"/>
<text text-anchor="middle" x="702.5" y="-69" font-family="Helvetica,sans-Serif" font-size="10.00">stddef.h</text>
</g>
<!-- Node2&#45;&gt;Node8 -->
<g id="edge19" class="edge"><title>Node2&#45;&gt;Node8</title>
<path fill="none" stroke="midnightblue" d="M405.689,-247.209C467.55,-235.726 577.506,-215.066 595.5,-210 663.998,-190.714 704.924,-212.459 745.5,-154 760.451,-132.46 738.632,-105.095 720.998,-88.1923"/>
<polygon fill="midnightblue" stroke="midnightblue" points="723.089,-85.3629 713.337,-81.2212 718.378,-90.5402 723.089,-85.3629"/>
</g>
<!-- Node12 -->
<g id="node12" class="node"><title>Node12</title>
<g id="a_node12"><a xlink:href="a00038.html" target="_top" xlink:title="hpd/common/hpd_tcpd.h">
<polygon fill="none" stroke="black" points="147.5,-129 147.5,-148 271.5,-148 271.5,-129 147.5,-129"/>
<text text-anchor="middle" x="209.5" y="-136" font-family="Helvetica,sans-Serif" font-size="10.00">hpd/common/hpd_tcpd.h</text>
</a>
</g>
</g>
<!-- Node2&#45;&gt;Node12 -->
<g id="edge14" class="edge"><title>Node2&#45;&gt;Node12</title>
<path fill="none" stroke="midnightblue" d="M351.925,-246.319C325.838,-226.753 262.19,-179.017 229.539,-154.53"/>
<polygon fill="midnightblue" stroke="midnightblue" points="231.309,-151.482 221.209,-148.282 227.109,-157.082 231.309,-151.482"/>
</g>
<!-- Node4 -->
<g id="node4" class="node"><title>Node4</title>
<g id="a_node4"><a xlink:href="a00056.html" target="_top" xlink:title="hpd/common/hpd_map.h">
<polygon fill="none" stroke="black" points="595.5,-129 595.5,-148 719.5,-148 719.5,-129 595.5,-129"/>
<text text-anchor="middle" x="657.5" y="-136" font-family="Helvetica,sans-Serif" font-size="10.00">hpd/common/hpd_map.h</text>
</a>
</g>
</g>
<!-- Node3&#45;&gt;Node4 -->
<g id="edge3" class="edge"><title>Node3&#45;&gt;Node4</title>
<path fill="none" stroke="midnightblue" d="M542.699,-190.475C565.287,-180.445 602.999,-163.7 629.001,-152.155"/>
<polygon fill="midnightblue" stroke="midnightblue" points="630.618,-155.266 638.337,-148.009 627.777,-148.869 630.618,-155.266"/>
</g>
<!-- Node5 -->
<g id="node5" class="node"><title>Node5</title>
<g id="a_node5"><a xlink:href="a00030.html" target="_top" xlink:title="hpd/hpd_types.h">
<polygon fill="none" stroke="black" points="76,-62 76,-81 165,-81 165,-62 76,-62"/>
<text text-anchor="middle" x="120.5" y="-69" font-family="Helvetica,sans-Serif" font-size="10.00">hpd/hpd_types.h</text>
</a>
</g>
</g>
<!-- Node3&#45;&gt;Node5 -->
<g id="edge11" class="edge"><title>Node3&#45;&gt;Node5</title>
<path fill="none" stroke="midnightblue" d="M459.757,-195.552C356.512,-189.383 161.841,-175.095 138.5,-154 121.147,-138.317 118.521,-110.01 118.949,-91.2333"/>
<polygon fill="midnightblue" stroke="midnightblue" points="122.446,-91.3818 119.486,-81.2089 115.456,-91.0074 122.446,-91.3818"/>
</g>
<!-- Node3&#45;&gt;Node8 -->
<g id="edge9" class="edge"><title>Node3&#45;&gt;Node8</title>
<path fill="none" stroke="midnightblue" d="M587.085,-193.644C640.532,-187.668 710.944,-175.827 728.5,-154 743.719,-135.078 728.893,-107.082 716.191,-89.3208"/>
<polygon fill="midnightblue" stroke="midnightblue" points="718.753,-86.908 709.913,-81.0681 713.182,-91.1461 718.753,-86.908"/>
</g>
<!-- Node9 -->
<g id="node9" class="node"><title>Node9</title>
<polygon fill="none" stroke="#bfbfbf" points="387.5,-62 387.5,-81 439.5,-81 439.5,-62 387.5,-62"/>
<text text-anchor="middle" x="413.5" y="-69" font-family="Helvetica,sans-Serif" font-size="10.00">stdarg.h</text>
</g>
<!-- Node3&#45;&gt;Node9 -->
<g id="edge10" class="edge"><title>Node3&#45;&gt;Node9</title>
<path fill="none" stroke="midnightblue" d="M530.813,-190.29C542.419,-175.352 562.299,-144.393 547.5,-123 525.707,-91.4971 481.604,-79.622 449.942,-75.1598"/>
<polygon fill="midnightblue" stroke="midnightblue" points="450.083,-71.651 439.732,-73.9131 449.234,-78.5994 450.083,-71.651"/>
</g>
<!-- Node10 -->
<g id="node10" class="node"><title>Node10</title>
<g id="a_node10"><a xlink:href="a00048.html" target="_top" xlink:title="hpd/common/hpd_httpd\l_types.h">
<polygon fill="none" stroke="black" points="420,-123.5 420,-153.5 539,-153.5 539,-123.5 420,-123.5"/>
<text text-anchor="start" x="428" y="-141.5" font-family="Helvetica,sans-Serif" font-size="10.00">hpd/common/hpd_httpd</text>
<text text-anchor="middle" x="479.5" y="-130.5" font-family="Helvetica,sans-Serif" font-size="10.00">_types.h</text>
</a>
</g>
</g>
<!-- Node3&#45;&gt;Node10 -->
<g id="edge12" class="edge"><title>Node3&#45;&gt;Node10</title>
<path fill="none" stroke="midnightblue" d="M517.196,-190.475C511.627,-182.944 503.257,-171.626 495.818,-161.566"/>
<polygon fill="midnightblue" stroke="midnightblue" points="498.63,-159.482 489.87,-153.523 493.002,-163.644 498.63,-159.482"/>
</g>
<!-- Node4&#45;&gt;Node5 -->
<g id="edge4" class="edge"><title>Node4&#45;&gt;Node5</title>
<path fill="none" stroke="midnightblue" d="M595.877,-128.995C580.119,-126.925 563.193,-124.793 547.5,-123 382.468,-104.143 339.007,-116.267 175.5,-87 170.287,-86.067 164.845,-84.8886 159.499,-83.6086"/>
<polygon fill="midnightblue" stroke="midnightblue" points="159.972,-80.1183 149.419,-81.0596 158.256,-86.9046 159.972,-80.1183"/>
</g>
<!-- Node6 -->
<g id="node6" class="node"><title>Node6</title>
<g id="a_node6"><a xlink:href="a00055.html" target="_top" xlink:title="hpd/common/hpd_queue.h">
<polygon fill="none" stroke="black" points="527,-62 527,-81 658,-81 658,-62 527,-62"/>
<text text-anchor="middle" x="592.5" y="-69" font-family="Helvetica,sans-Serif" font-size="10.00">hpd/common/hpd_queue.h</text>
</a>
</g>
</g>
<!-- Node4&#45;&gt;Node6 -->
<g id="edge5" class="edge"><title>Node4&#45;&gt;Node6</title>
<path fill="none" stroke="midnightblue" d="M648.734,-128.734C638.403,-118.403 621.037,-101.037 608.332,-88.3315"/>
<polygon fill="midnightblue" stroke="midnightblue" points="610.673,-85.7235 601.127,-81.1273 605.724,-90.6733 610.673,-85.7235"/>
</g>
<!-- Node4&#45;&gt;Node8 -->
<g id="edge7" class="edge"><title>Node4&#45;&gt;Node8</title>
<path fill="none" stroke="midnightblue" d="M663.569,-128.734C670.519,-118.695 682.067,-102.014 690.785,-89.4213"/>
<polygon fill="midnightblue" stroke="midnightblue" points="693.713,-91.3415 696.527,-81.1273 687.957,-87.357 693.713,-91.3415"/>
</g>
<!-- Node4&#45;&gt;Node9 -->
<g id="edge8" class="edge"><title>Node4&#45;&gt;Node9</title>
<path fill="none" stroke="midnightblue" d="M625.35,-128.936C579.899,-116.828 497.112,-94.7737 449.603,-82.1175"/>
<polygon fill="midnightblue" stroke="midnightblue" points="450.307,-78.6832 439.743,-79.491 448.505,-85.4473 450.307,-78.6832"/>
</g>
<!-- Node7 -->
<g id="node7" class="node"><title>Node7</title>
<polygon fill="none" stroke="#bfbfbf" points="548,-0.5 548,-19.5 637,-19.5 637,-0.5 548,-0.5"/>
<text text-anchor="middle" x="592.5" y="-7.5" font-family="Helvetica,sans-Serif" font-size="10.00">bsd/sys/queue.h</text>
</g>
<!-- Node6&#45;&gt;Node7 -->
<g id="edge6" class="edge"><title>Node6&#45;&gt;Node7</title>
<path fill="none" stroke="midnightblue" d="M592.5,-61.9751C592.5,-53.5803 592.5,-40.4806 592.5,-29.6631"/>
<polygon fill="midnightblue" stroke="midnightblue" points="596,-29.5091 592.5,-19.5091 589,-29.5091 596,-29.5091"/>
</g>
<!-- Node11 -->
<g id="node11" class="node"><title>Node11</title>
<g id="a_node11"><a xlink:href="a00058.html" target="_top" xlink:title="hpd/common/hpd_tcpd\l_types.h">
<polygon fill="none" stroke="black" points="184.5,-56.5 184.5,-86.5 300.5,-86.5 300.5,-56.5 184.5,-56.5"/>
<text text-anchor="start" x="192.5" y="-74.5" font-family="Helvetica,sans-Serif" font-size="10.00">hpd/common/hpd_tcpd</text>
<text text-anchor="middle" x="242.5" y="-63.5" font-family="Helvetica,sans-Serif" font-size="10.00">_types.h</text>
</a>
</g>
</g>
<!-- Node10&#45;&gt;Node11 -->
<g id="edge13" class="edge"><title>Node10&#45;&gt;Node11</title>
<path fill="none" stroke="midnightblue" d="M428.366,-123.476C391.891,-113.472 342.665,-99.9714 304.036,-89.3769"/>
<polygon fill="midnightblue" stroke="midnightblue" points="304.52,-85.8806 293.951,-86.6109 302.669,-92.6313 304.52,-85.8806"/>
</g>
<!-- Node12&#45;&gt;Node5 -->
<g id="edge17" class="edge"><title>Node12&#45;&gt;Node5</title>
<path fill="none" stroke="midnightblue" d="M197.497,-128.734C182.951,-118.111 158.22,-100.049 140.716,-87.2642"/>
<polygon fill="midnightblue" stroke="midnightblue" points="142.453,-84.1988 132.313,-81.1273 138.324,-89.8517 142.453,-84.1988"/>
</g>
<!-- Node12&#45;&gt;Node8 -->
<g id="edge15" class="edge"><title>Node12&#45;&gt;Node8</title>
<path fill="none" stroke="midnightblue" d="M247.318,-128.985C258.005,-126.795 269.673,-124.606 280.5,-123 450.936,-97.7246 499.055,-127.612 666.5,-87 669.17,-86.3523 671.904,-85.543 674.612,-84.64"/>
<polygon fill="midnightblue" stroke="midnightblue" points="676.008,-87.855 684.154,-81.0806 673.561,-81.2964 676.008,-87.855"/>
</g>
<!-- Node12&#45;&gt;Node9 -->
<g id="edge16" class="edge"><title>Node12&#45;&gt;Node9</title>
<path fill="none" stroke="midnightblue" d="M236.59,-128.869C272.859,-117.312 337.291,-96.7823 377.578,-83.9457"/>
<polygon fill="midnightblue" stroke="midnightblue" points="378.803,-87.2288 387.269,-80.8581 376.678,-80.5592 378.803,-87.2288"/>
</g>
<!-- Node12&#45;&gt;Node11 -->
<g id="edge18" class="edge"><title>Node12&#45;&gt;Node11</title>
<path fill="none" stroke="midnightblue" d="M213.951,-128.734C218.239,-120.287 224.915,-107.138 230.733,-95.6778"/>
<polygon fill="midnightblue" stroke="midnightblue" points="233.941,-97.0901 235.347,-86.589 227.699,-93.9213 233.941,-97.0901"/>
</g>
<!-- Node14&#45;&gt;Node5 -->
<g id="edge22" class="edge"><title>Node14&#45;&gt;Node5</title>
<path fill="none" stroke="midnightblue" d="M160.494,-190.441C140.098,-184.034 117.714,-172.969 105.5,-154 93.0639,-134.687 101.975,-107.762 110.443,-90.2327"/>
<polygon fill="midnightblue" stroke="midnightblue" points="113.673,-91.6084 115.213,-81.126 107.472,-88.3606 113.673,-91.6084"/>
</g>
<!-- Node15&#45;&gt;Node5 -->
<g id="edge24" class="edge"><title>Node15&#45;&gt;Node5</title>
<path fill="none" stroke="midnightblue" d="M55.982,-190.476C55.4586,-175.818 56.0006,-145.27 67.5,-123 74.8417,-108.782 87.7819,-96.3336 99.0378,-87.3539"/>
<polygon fill="midnightblue" stroke="midnightblue" points="101.326,-90.0114 107.196,-81.1912 97.1073,-84.4259 101.326,-90.0114"/>
</g>
<!-- Node16&#45;&gt;Node5 -->
<g id="edge26" class="edge"><title>Node16&#45;&gt;Node5</title>
<path fill="none" stroke="midnightblue" d="M315.622,-128.869C275.586,-117.303 204.439,-96.7489 160.012,-83.9145"/>
<polygon fill="midnightblue" stroke="midnightblue" points="160.722,-80.4766 150.143,-81.0637 158.779,-87.2016 160.722,-80.4766"/>
</g>
<!-- Node16&#45;&gt;Node8 -->
<g id="edge27" class="edge"><title>Node16&#45;&gt;Node8</title>
<path fill="none" stroke="midnightblue" d="M381.496,-128.933C390.906,-126.841 401.058,-124.714 410.5,-123 523.549,-102.476 555.503,-116.683 666.5,-87 669.006,-86.3298 671.573,-85.5333 674.125,-84.6635"/>
<polygon fill="midnightblue" stroke="midnightblue" points="675.603,-87.8471 683.738,-81.0587 673.146,-81.2928 675.603,-87.8471"/>
</g>
<!-- Node16&#45;&gt;Node9 -->
<g id="edge28" class="edge"><title>Node16&#45;&gt;Node9</title>
<path fill="none" stroke="midnightblue" d="M354.671,-128.734C365.478,-118.403 383.646,-101.037 396.938,-88.3315"/>
<polygon fill="midnightblue" stroke="midnightblue" points="399.664,-90.5672 404.475,-81.1273 394.827,-85.5071 399.664,-90.5672"/>
</g>
</g>
</svg>
