<?xml version="1.0" encoding="UTF-8" standalone="no"?>
<!DOCTYPE svg PUBLIC "-//W3C//DTD SVG 1.1//EN"
 "http://www.w3.org/Graphics/SVG/1.1/DTD/svg11.dtd">
<!-- Generated by graphviz version 2.38.0 (20140413.2041)
 -->
<!-- Title: common/include/hpd_common.h Pages: 1 -->
<!--zoomable 173 -->
<svg id="main" version="1.1" xmlns="http://www.w3.org/2000/svg" xmlns:xlink="http://www.w3.org/1999/xlink" xml:space="preserve" onload="init(evt)">
<style type="text/css"><![CDATA[
.edge:hover path { stroke: red; }
.edge:hover polygon { stroke: red; fill: red; }
]]></style>
<script type="text/javascript"><![CDATA[
var edges = document.getElementsByTagName('g');
if (edges && edges.length) {
  for (var i=0;i<edges.length;i++) {
    if (edges[i].id.substr(0,4)=='edge') {
      edges[i].setAttribute('class','edge');
    }
  }
}
]]></script>
        <defs>
                <circle id="rim" cx="0" cy="0" r="7"/>
                <circle id="rim2" cx="0" cy="0" r="3.5"/>
                <g id="zoomPlus">
                        <use xlink:href="#rim" fill="#404040">
                                <set attributeName="fill" to="#808080" begin="zoomplus.mouseover" end="zoomplus.mouseout"/>
                        </use>
                        <path d="M-4,0h8M0,-4v8" fill="none" stroke="white" stroke-width="1.5" pointer-events="none"/>
                </g>
                <g id="zoomMin">
                        <use xlink:href="#rim" fill="#404040">
                                <set attributeName="fill" to="#808080" begin="zoomminus.mouseover" end="zoomminus.mouseout"/>
                        </use>
                        <path d="M-4,0h8" fill="none" stroke="white" stroke-width="1.5" pointer-events="none"/>
                </g>
                <g id="dirArrow">
                        <path fill="none" stroke="white" stroke-width="1.5" d="M0,-3.0v7 M-2.5,-0.5L0,-3.0L2.5,-0.5"/>
                </g>
               <g id="resetDef">
                       <use xlink:href="#rim2" fill="#404040">
                               <set attributeName="fill" to="#808080" begin="reset.mouseover" end="reset.mouseout"/>
                       </use>
               </g>
        </defs>

<script type="text/javascript">
var viewWidth = 1321;
var viewHeight = 173;
var sectionId = 'dynsection-1';
</script>
<script xlink:href="svgpan.js"/>
<svg id="graph" class="graph">
<g id="viewport">
<title>common/include/hpd_common.h</title>
<!-- Node1 -->
<g id="node1" class="node"><title>Node1</title>
<polygon fill="#bfbfbf" stroke="black" points="622.5,-134.5 622.5,-164.5 729.5,-164.5 729.5,-134.5 622.5,-134.5"/>
<text text-anchor="start" x="630.5" y="-152.5" font-family="Helvetica,sans-Serif" font-size="10.00">common/include/hpd</text>
<text text-anchor="middle" x="676" y="-141.5" font-family="Helvetica,sans-Serif" font-size="10.00">_common.h</text>
</g>
<!-- Node2 -->
<g id="node2" class="node"><title>Node2</title>
<g id="a_node2"><a xlink:href="a00022.html" target="_top" xlink:title="common/map/src/map.c">
<polygon fill="none" stroke="black" points="240,-73 240,-92 362,-92 362,-73 240,-73"/>
<text text-anchor="middle" x="301" y="-80" font-family="Helvetica,sans-Serif" font-size="10.00">common/map/src/map.c</text>
</a>
</g>
</g>
<!-- Node1&#45;&gt;Node2 -->
<g id="edge1" class="edge"><title>Node1&#45;&gt;Node2</title>
<path fill="none" stroke="midnightblue" d="M612.454,-138.74C550.667,-129.071 454.22,-113.502 371,-98 361.239,-96.1818 350.743,-94.0839 340.924,-92.0588"/>
<polygon fill="midnightblue" stroke="midnightblue" points="612.023,-142.215 622.443,-140.299 613.102,-135.299 612.023,-142.215"/>
</g>
<!-- Node3 -->
<g id="node3" class="node"><title>Node3</title>
<g id="a_node3"><a xlink:href="a00012.html" target="_top" xlink:title="example/demo/demo_adapter.c">
<polygon fill="none" stroke="black" points="380.5,-73 380.5,-92 533.5,-92 533.5,-73 380.5,-73"/>
<text text-anchor="middle" x="457" y="-80" font-family="Helvetica,sans-Serif" font-size="10.00">example/demo/demo_adapter.c</text>
</a>
</g>
</g>
<!-- Node1&#45;&gt;Node3 -->
<g id="edge2" class="edge"><title>Node1&#45;&gt;Node3</title>
<path fill="none" stroke="midnightblue" d="M619.028,-131.59C576.257,-118.896 519.475,-102.043 485.735,-92.0287"/>
<polygon fill="midnightblue" stroke="midnightblue" points="618.167,-134.986 628.75,-134.476 620.159,-128.275 618.167,-134.986"/>
</g>
<!-- Node4 -->
<g id="node4" class="node"><title>Node4</title>
<g id="a_node4"><a xlink:href="a00009.html" target="_top" xlink:title="hpd/src/daemon.h">
<polygon fill="none" stroke="black" points="628.5,-73 628.5,-92 723.5,-92 723.5,-73 628.5,-73"/>
<text text-anchor="middle" x="676" y="-80" font-family="Helvetica,sans-Serif" font-size="10.00">hpd/src/daemon.h</text>
</a>
</g>
</g>
<!-- Node1&#45;&gt;Node4 -->
<g id="edge3" class="edge"><title>Node1&#45;&gt;Node4</title>
<path fill="none" stroke="midnightblue" d="M676,-124.25C676,-113.017 676,-100.377 676,-92.1945"/>
<polygon fill="midnightblue" stroke="midnightblue" points="672.5,-124.396 676,-134.396 679.5,-124.396 672.5,-124.396"/>
</g>
<!-- Node7 -->
<g id="node7" class="node"><title>Node7</title>
<g id="a_node7"><a xlink:href="a00063.html" target="_top" xlink:title="hpd/src/discovery.c">
<polygon fill="none" stroke="black" points="0,-6 0,-25 102,-25 102,-6 0,-6"/>
<text text-anchor="middle" x="51" y="-13" font-family="Helvetica,sans-Serif" font-size="10.00">hpd/src/discovery.c</text>
</a>
</g>
</g>
<!-- Node1&#45;&gt;Node7 -->
<g id="edge15" class="edge"><title>Node1&#45;&gt;Node7</title>
<path fill="none" stroke="midnightblue" d="M632.971,-130.098C614.72,-121.463 593.637,-110.35 576,-98 559.517,-86.4573 561.386,-75.1788 543,-67 454.781,-27.7565 205.29,-46.5704 110,-31 100.735,-29.4861 90.7814,-27.2724 81.7373,-25.0283"/>
<polygon fill="midnightblue" stroke="midnightblue" points="631.678,-133.357 642.223,-134.382 634.619,-127.004 631.678,-133.357"/>
</g>
<!-- Node9 -->
<g id="node9" class="node"><title>Node9</title>
<g id="a_node9"><a xlink:href="a00065.html" target="_top" xlink:title="hpd/src/discovery_id.c">
<polygon fill="none" stroke="black" points="119.5,-6 119.5,-25 234.5,-25 234.5,-6 119.5,-6"/>
<text text-anchor="middle" x="177" y="-13" font-family="Helvetica,sans-Serif" font-size="10.00">hpd/src/discovery_id.c</text>
</a>
</g>
</g>
<!-- Node1&#45;&gt;Node9 -->
<g id="edge16" class="edge"><title>Node1&#45;&gt;Node9</title>
<path fill="none" stroke="midnightblue" d="M653.283,-127.396C629.402,-105.697 592.987,-74.1005 576,-67 439.061,-9.7611 390.511,-54.7298 244,-31 233.897,-29.3636 223.02,-27.1903 213.03,-25.0254"/>
<polygon fill="midnightblue" stroke="midnightblue" points="651.116,-130.157 660.856,-134.326 655.841,-124.993 651.116,-130.157"/>
</g>
<!-- Node10 -->
<g id="node10" class="node"><title>Node10</title>
<g id="a_node10"><a xlink:href="a00066.html" target="_top" xlink:title="hpd/src/event.c">
<polygon fill="none" stroke="black" points="1119,-6 1119,-25 1203,-25 1203,-6 1119,-6"/>
<text text-anchor="middle" x="1161" y="-13" font-family="Helvetica,sans-Serif" font-size="10.00">hpd/src/event.c</text>
</a>
</g>
</g>
<!-- Node1&#45;&gt;Node10 -->
<g id="edge17" class="edge"><title>Node1&#45;&gt;Node10</title>
<path fill="none" stroke="midnightblue" d="M699.981,-127.745C726.695,-104.819 767.291,-70.637 776,-67 913.773,-9.46449 963.445,-59.518 1110,-31 1117.95,-29.4528 1126.46,-27.2559 1134.21,-25.0388"/>
<polygon fill="midnightblue" stroke="midnightblue" points="697.483,-125.276 692.186,-134.452 702.049,-130.582 697.483,-125.276"/>
</g>
<!-- Node13 -->
<g id="node13" class="node"><title>Node13</title>
<g id="a_node13"><a xlink:href="a00072.html" target="_top" xlink:title="hpd/src/request.c">
<polygon fill="none" stroke="black" points="1221,-6 1221,-25 1313,-25 1313,-6 1221,-6"/>
<text text-anchor="middle" x="1267" y="-13" font-family="Helvetica,sans-Serif" font-size="10.00">hpd/src/request.c</text>
</a>
</g>
</g>
<!-- Node1&#45;&gt;Node13 -->
<g id="edge18" class="edge"><title>Node1&#45;&gt;Node13</title>
<path fill="none" stroke="midnightblue" d="M714.376,-129.722C731.747,-120.76 752.305,-109.496 770,-98 788.861,-85.7465 789.066,-75.2237 810,-67 976.961,-1.41228 1035.31,-61.9743 1212,-31 1220.66,-29.4824 1229.94,-27.2675 1238.37,-25.0235"/>
<polygon fill="midnightblue" stroke="midnightblue" points="712.415,-126.793 705.093,-134.451 715.592,-133.031 712.415,-126.793"/>
</g>
<!-- Node16 -->
<g id="node16" class="node"><title>Node16</title>
<g id="a_node16"><a xlink:href="a00075.html" target="_top" xlink:title="hpd/src/value.c">
<polygon fill="none" stroke="black" points="818.5,-73 818.5,-92 901.5,-92 901.5,-73 818.5,-73"/>
<text text-anchor="middle" x="860" y="-80" font-family="Helvetica,sans-Serif" font-size="10.00">hpd/src/value.c</text>
</a>
</g>
</g>
<!-- Node1&#45;&gt;Node16 -->
<g id="edge19" class="edge"><title>Node1&#45;&gt;Node16</title>
<path fill="none" stroke="midnightblue" d="M725.692,-130.946C761.429,-118.321 808.055,-101.85 835.919,-92.007"/>
<polygon fill="midnightblue" stroke="midnightblue" points="724.188,-127.765 715.925,-134.396 726.52,-134.365 724.188,-127.765"/>
</g>
<!-- Node17 -->
<g id="node17" class="node"><title>Node17</title>
<g id="a_node17"><a xlink:href="a00025.html" target="_top" xlink:title="modules/hpd_rest/src\l/hpd_rest.c">
<polygon fill="none" stroke="black" points="920,-67.5 920,-97.5 1030,-97.5 1030,-67.5 920,-67.5"/>
<text text-anchor="start" x="928" y="-85.5" font-family="Helvetica,sans-Serif" font-size="10.00">modules/hpd_rest/src</text>
<text text-anchor="middle" x="975" y="-74.5" font-family="Helvetica,sans-Serif" font-size="10.00">/hpd_rest.c</text>
</a>
</g>
</g>
<!-- Node1&#45;&gt;Node17 -->
<g id="edge20" class="edge"><title>Node1&#45;&gt;Node17</title>
<path fill="none" stroke="midnightblue" d="M739.503,-135.053C786.814,-124.987 852.984,-110.805 911,-98 913.892,-97.3616 916.858,-96.7033 919.851,-96.0357"/>
<polygon fill="midnightblue" stroke="midnightblue" points="738.757,-131.634 729.704,-137.137 740.213,-138.481 738.757,-131.634"/>
</g>
<!-- Node5 -->
<g id="node5" class="node"><title>Node5</title>
<g id="a_node5"><a xlink:href="a00061.html" target="_top" xlink:title="hpd/src/daemon.c">
<polygon fill="none" stroke="black" points="506.5,-6 506.5,-25 601.5,-25 601.5,-6 506.5,-6"/>
<text text-anchor="middle" x="554" y="-13" font-family="Helvetica,sans-Serif" font-size="10.00">hpd/src/daemon.c</text>
</a>
</g>
</g>
<!-- Node4&#45;&gt;Node5 -->
<g id="edge4" class="edge"><title>Node4&#45;&gt;Node5</title>
<path fill="none" stroke="midnightblue" d="M650.856,-68.1034C626.695,-55.2309 590.9,-36.16 570.268,-25.1672"/>
<polygon fill="midnightblue" stroke="midnightblue" points="649.328,-71.2553 659.799,-72.8685 652.62,-65.0774 649.328,-71.2553"/>
</g>
<!-- Node6 -->
<g id="node6" class="node"><title>Node6</title>
<g id="a_node6"><a xlink:href="a00062.html" target="_top" xlink:title="hpd/src/daemon_api.c">
<polygon fill="none" stroke="black" points="619.5,-6 619.5,-25 732.5,-25 732.5,-6 619.5,-6"/>
<text text-anchor="middle" x="676" y="-13" font-family="Helvetica,sans-Serif" font-size="10.00">hpd/src/daemon_api.c</text>
</a>
</g>
</g>
<!-- Node4&#45;&gt;Node6 -->
<g id="edge5" class="edge"><title>Node4&#45;&gt;Node6</title>
<path fill="none" stroke="midnightblue" d="M676,-62.537C676,-50.1703 676,-34.6198 676,-25.1273"/>
<polygon fill="midnightblue" stroke="midnightblue" points="672.5,-62.7338 676,-72.7338 679.5,-62.7338 672.5,-62.7338"/>
</g>
<!-- Node4&#45;&gt;Node7 -->
<g id="edge6" class="edge"><title>Node4&#45;&gt;Node7</title>
<path fill="none" stroke="midnightblue" d="M618.371,-72.4724C604.517,-70.4881 589.75,-68.5262 576,-67 369.54,-44.0828 315.107,-63.8987 110,-31 100.731,-29.5133 90.7757,-27.3077 81.7317,-25.0629"/>
<polygon fill="midnightblue" stroke="midnightblue" points="617.87,-75.9361 628.27,-73.9153 618.879,-69.0093 617.87,-75.9361"/>
</g>
<!-- Node8 -->
<g id="node8" class="node"><title>Node8</title>
<g id="a_node8"><a xlink:href="a00064.html" target="_top" xlink:title="hpd/src/discovery_api.c">
<polygon fill="none" stroke="black" points="751,-6 751,-25 871,-25 871,-6 751,-6"/>
<text text-anchor="middle" x="811" y="-13" font-family="Helvetica,sans-Serif" font-size="10.00">hpd/src/discovery_api.c</text>
</a>
</g>
</g>
<!-- Node4&#45;&gt;Node8 -->
<g id="edge7" class="edge"><title>Node4&#45;&gt;Node8</title>
<path fill="none" stroke="midnightblue" d="M703.117,-68.4436C729.856,-55.5691 769.966,-36.2573 792.999,-25.1672"/>
<polygon fill="midnightblue" stroke="midnightblue" points="701.419,-65.3768 693.927,-72.8685 704.455,-71.6838 701.419,-65.3768"/>
</g>
<!-- Node4&#45;&gt;Node9 -->
<g id="edge8" class="edge"><title>Node4&#45;&gt;Node9</title>
<path fill="none" stroke="midnightblue" d="M633.154,-70.701C626.761,-69.3163 620.227,-68.0265 614,-67 450.979,-40.1283 407.239,-56.5169 244,-31 233.77,-29.4009 222.755,-27.214 212.671,-25.0236"/>
<polygon fill="midnightblue" stroke="midnightblue" points="632.496,-74.1404 643.021,-72.9308 634.039,-67.3126 632.496,-74.1404"/>
</g>
<!-- Node4&#45;&gt;Node10 -->
<g id="edge9" class="edge"><title>Node4&#45;&gt;Node10</title>
<path fill="none" stroke="midnightblue" d="M718.845,-70.6981C725.239,-69.3138 731.772,-68.0249 738,-67 901.901,-40.0268 946.782,-61.8385 1110,-31 1118.05,-29.479 1126.67,-27.263 1134.48,-25.0192"/>
<polygon fill="midnightblue" stroke="midnightblue" points="717.961,-67.3096 708.978,-72.9275 719.504,-74.1375 717.961,-67.3096"/>
</g>
<!-- Node11 -->
<g id="node11" class="node"><title>Node11</title>
<g id="a_node11"><a xlink:href="a00068.html" target="_top" xlink:title="hpd/src/event_api.c">
<polygon fill="none" stroke="black" points="889,-6 889,-25 991,-25 991,-6 889,-6"/>
<text text-anchor="middle" x="940" y="-13" font-family="Helvetica,sans-Serif" font-size="10.00">hpd/src/event_api.c</text>
</a>
</g>
</g>
<!-- Node4&#45;&gt;Node11 -->
<g id="edge10" class="edge"><title>Node4&#45;&gt;Node11</title>
<path fill="none" stroke="midnightblue" d="M720.741,-70.4841C772.816,-57.6627 857.711,-36.7605 905.138,-25.0834"/>
<polygon fill="midnightblue" stroke="midnightblue" points="719.658,-67.1462 710.785,-72.9355 721.332,-73.9433 719.658,-67.1462"/>
</g>
<!-- Node12 -->
<g id="node12" class="node"><title>Node12</title>
<g id="a_node12"><a xlink:href="a00071.html" target="_top" xlink:title="hpd/src/log_api.c">
<polygon fill="none" stroke="black" points="1009.5,-6 1009.5,-25 1100.5,-25 1100.5,-6 1009.5,-6"/>
<text text-anchor="middle" x="1055" y="-13" font-family="Helvetica,sans-Serif" font-size="10.00">hpd/src/log_api.c</text>
</a>
</g>
</g>
<!-- Node4&#45;&gt;Node12 -->
<g id="edge11" class="edge"><title>Node4&#45;&gt;Node12</title>
<path fill="none" stroke="midnightblue" d="M719.987,-70.6801C726.021,-69.352 732.151,-68.0834 738,-67 853.573,-45.5935 884.739,-54.0241 1000,-31 1008.23,-29.3558 1017.06,-27.2049 1025.18,-25.0651"/>
<polygon fill="midnightblue" stroke="midnightblue" points="718.967,-67.3225 709.99,-72.9492 720.517,-74.1489 718.967,-67.3225"/>
</g>
<!-- Node4&#45;&gt;Node13 -->
<g id="edge12" class="edge"><title>Node4&#45;&gt;Node13</title>
<path fill="none" stroke="midnightblue" d="M733.635,-72.5245C747.488,-70.5383 762.254,-68.5625 776,-67 969.193,-45.0388 1020.37,-63.91 1212,-31 1220.66,-29.5125 1229.95,-27.3067 1238.38,-25.0619"/>
<polygon fill="midnightblue" stroke="midnightblue" points="733.127,-69.0615 723.736,-73.9668 734.136,-75.9883 733.127,-69.0615"/>
</g>
<!-- Node14 -->
<g id="node14" class="node"><title>Node14</title>
<g id="a_node14"><a xlink:href="a00074.html" target="_top" xlink:title="hpd/src/request_api.c">
<polygon fill="none" stroke="black" points="253,-6 253,-25 363,-25 363,-6 253,-6"/>
<text text-anchor="middle" x="308" y="-13" font-family="Helvetica,sans-Serif" font-size="10.00">hpd/src/request_api.c</text>
</a>
</g>
</g>
<!-- Node4&#45;&gt;Node14 -->
<g id="edge13" class="edge"><title>Node4&#45;&gt;Node14</title>
<path fill="none" stroke="midnightblue" d="M631.785,-70.6965C625.823,-69.3755 619.773,-68.1044 614,-67 507.629,-46.6518 479.474,-50.8023 373,-31 363.565,-29.2453 353.416,-27.1042 344.007,-25.0117"/>
<polygon fill="midnightblue" stroke="midnightblue" points="631.145,-74.1403 641.672,-72.9461 632.698,-67.3147 631.145,-74.1403"/>
</g>
<!-- Node15 -->
<g id="node15" class="node"><title>Node15</title>
<g id="a_node15"><a xlink:href="a00030.html" target="_top" xlink:title="hpd/test/daemon_api\l_test.cpp">
<polygon fill="none" stroke="black" points="381.5,-0.5 381.5,-30.5 488.5,-30.5 488.5,-0.5 381.5,-0.5"/>
<text text-anchor="start" x="389.5" y="-18.5" font-family="Helvetica,sans-Serif" font-size="10.00">hpd/test/daemon_api</text>
<text text-anchor="middle" x="435" y="-7.5" font-family="Helvetica,sans-Serif" font-size="10.00">_test.cpp</text>
</a>
</g>
</g>
<!-- Node4&#45;&gt;Node15 -->
<g id="edge14" class="edge"><title>Node4&#45;&gt;Node15</title>
<path fill="none" stroke="midnightblue" d="M634.095,-70.1979C593.241,-59.1792 531.008,-42.3944 487.012,-30.5281"/>
<polygon fill="midnightblue" stroke="midnightblue" points="633.431,-73.6436 643.997,-72.8685 635.254,-66.8851 633.431,-73.6436"/>
</g>
</g>
</svg>
        <g id="navigator" transform="translate(0 0)" fill="#404254">
                <rect fill="#f2f5e9" fill-opacity="0.5" stroke="#606060" stroke-width=".5" x="0" y="0" width="60" height="60"/>
                <use id="zoomplus" xlink:href="#zoomPlus" x="17" y="9" onmousedown="handleZoom(evt,'in')"/>
                <use id="zoomminus" xlink:href="#zoomMin" x="42" y="9" onmousedown="handleZoom(evt,'out')"/>
                <use id="reset" xlink:href="#resetDef" x="30" y="36" onmousedown="handleReset()"/>
                <g id="arrowUp" xlink:href="#dirArrow" transform="translate(30 24)" onmousedown="handlePan(0,-1)">
                  <use xlink:href="#rim" fill="#404040">
                        <set attributeName="fill" to="#808080" begin="arrowUp.mouseover" end="arrowUp.mouseout"/>
                  </use>
                  <path fill="none" stroke="white" stroke-width="1.5" d="M0,-3.0v7 M-2.5,-0.5L0,-3.0L2.5,-0.5"/>
                </g>
                <g id="arrowRight" xlink:href="#dirArrow" transform="rotate(90) translate(36 -43)" onmousedown="handlePan(1,0)">
                  <use xlink:href="#rim" fill="#404040">
                        <set attributeName="fill" to="#808080" begin="arrowRight.mouseover" end="arrowRight.mouseout"/>
                  </use>
                  <path fill="none" stroke="white" stroke-width="1.5" d="M0,-3.0v7 M-2.5,-0.5L0,-3.0L2.5,-0.5"/>
                </g>
                <g id="arrowDown" xlink:href="#dirArrow" transform="rotate(180) translate(-30 -48)" onmousedown="handlePan(0,1)">
                  <use xlink:href="#rim" fill="#404040">
                        <set attributeName="fill" to="#808080" begin="arrowDown.mouseover" end="arrowDown.mouseout"/>
                  </use>
                  <path fill="none" stroke="white" stroke-width="1.5" d="M0,-3.0v7 M-2.5,-0.5L0,-3.0L2.5,-0.5"/>
                </g>
                <g id="arrowLeft" xlink:href="#dirArrow" transform="rotate(270) translate(-36 17)" onmousedown="handlePan(-1,0)">
                  <use xlink:href="#rim" fill="#404040">
                        <set attributeName="fill" to="#808080" begin="arrowLeft.mouseover" end="arrowLeft.mouseout"/>
                  </use>
                  <path fill="none" stroke="white" stroke-width="1.5" d="M0,-3.0v7 M-2.5,-0.5L0,-3.0L2.5,-0.5"/>
                </g>
        </g>
        <svg viewBox="0 0 15 15" width="100%" height="30px" preserveAspectRatio="xMaxYMin meet">
         <g id="arrow_out" transform="scale(0.3 0.3)">
          <a xlink:href="a00151_org.svg" target="_base">
           <rect id="button" ry="5" rx="5" y="6" x="6" height="38" width="38"
                fill="#f2f5e9" fill-opacity="0.5" stroke="#606060" stroke-width="1.0"/>
           <path id="arrow"
             d="M 11.500037,31.436501 C 11.940474,20.09759 22.043105,11.32322 32.158766,21.979434 L 37.068811,17.246167 C 37.068811,17.246167 37.088388,32 37.088388,32 L 22.160133,31.978069 C 22.160133,31.978069 26.997745,27.140456 26.997745,27.140456 C 18.528582,18.264221 13.291696,25.230495 11.500037,31.436501 z"
             style="fill:#404040;"/>
          </a>
         </g>
        </svg>
</svg>
