<?xml version="1.0" encoding="UTF-8" standalone="no"?>
<!DOCTYPE svg PUBLIC "-//W3C//DTD SVG 1.1//EN"
 "http://www.w3.org/Graphics/SVG/1.1/DTD/svg11.dtd">
<!-- Generated by graphviz version 2.38.0 (20140413.2041)
 -->
<!-- Title: common/curl_ev/src/curl_ev_intern.h Pages: 1 -->
<svg width="373pt" height="151pt"
 viewBox="0.00 0.00 372.50 151.00" xmlns="http://www.w3.org/2000/svg" xmlns:xlink="http://www.w3.org/1999/xlink">
<g id="graph0" class="graph" transform="scale(1 1) rotate(0) translate(4 147)">
<title>common/curl_ev/src/curl_ev_intern.h</title>
<!-- Node1 -->
<g id="node1" class="node"><title>Node1</title>
<polygon fill="#bfbfbf" stroke="black" points="133.5,-112.5 133.5,-142.5 238.5,-142.5 238.5,-112.5 133.5,-112.5"/>
<text text-anchor="start" x="141.5" y="-130.5" font-family="Helvetica,sans-Serif" font-size="10.00">common/curl_ev/src</text>
<text text-anchor="middle" x="186" y="-119.5" font-family="Helvetica,sans-Serif" font-size="10.00">/curl_ev_intern.h</text>
</g>
<!-- Node2 -->
<g id="node2" class="node"><title>Node2</title>
<g id="a_node2"><a xlink:href="a00043.html" target="_top" xlink:title="hpd/common/hpd_curl_ev.h">
<polygon fill="none" stroke="black" points="1.5,-56.5 1.5,-75.5 138.5,-75.5 138.5,-56.5 1.5,-56.5"/>
<text text-anchor="middle" x="70" y="-63.5" font-family="Helvetica,sans-Serif" font-size="10.00">hpd/common/hpd_curl_ev.h</text>
</a>
</g>
</g>
<!-- Node1&#45;&gt;Node2 -->
<g id="edge1" class="edge"><title>Node1&#45;&gt;Node2</title>
<path fill="none" stroke="midnightblue" d="M158.51,-112.399C139.568,-102.684 114.558,-89.8551 95.9562,-80.3137"/>
<polygon fill="midnightblue" stroke="midnightblue" points="97.3742,-77.1076 86.879,-75.6578 94.1794,-83.336 97.3742,-77.1076"/>
</g>
<!-- Node5 -->
<g id="node5" class="node"><title>Node5</title>
<polygon fill="none" stroke="#bfbfbf" points="156.5,-56.5 156.5,-75.5 215.5,-75.5 215.5,-56.5 156.5,-56.5"/>
<text text-anchor="middle" x="186" y="-63.5" font-family="Helvetica,sans-Serif" font-size="10.00">curl/curl.h</text>
</g>
<!-- Node1&#45;&gt;Node5 -->
<g id="edge4" class="edge"><title>Node1&#45;&gt;Node5</title>
<path fill="none" stroke="midnightblue" d="M186,-112.399C186,-104.466 186,-94.458 186,-85.8583"/>
<polygon fill="midnightblue" stroke="midnightblue" points="189.5,-85.6577 186,-75.6578 182.5,-85.6578 189.5,-85.6577"/>
</g>
<!-- Node6 -->
<g id="node6" class="node"><title>Node6</title>
<g id="a_node6"><a xlink:href="a00055.html" target="_top" xlink:title="hpd/common/hpd_queue.h">
<polygon fill="none" stroke="black" points="233.5,-56.5 233.5,-75.5 364.5,-75.5 364.5,-56.5 233.5,-56.5"/>
<text text-anchor="middle" x="299" y="-63.5" font-family="Helvetica,sans-Serif" font-size="10.00">hpd/common/hpd_queue.h</text>
</a>
</g>
</g>
<!-- Node1&#45;&gt;Node6 -->
<g id="edge5" class="edge"><title>Node1&#45;&gt;Node6</title>
<path fill="none" stroke="midnightblue" d="M212.779,-112.399C231.062,-102.773 255.148,-90.0902 273.215,-80.5772"/>
<polygon fill="midnightblue" stroke="midnightblue" points="275.34,-83.4138 282.557,-75.6578 272.078,-77.22 275.34,-83.4138"/>
</g>
<!-- Node3 -->
<g id="node3" class="node"><title>Node3</title>
<polygon fill="none" stroke="#bfbfbf" points="0,-0.5 0,-19.5 52,-19.5 52,-0.5 0,-0.5"/>
<text text-anchor="middle" x="26" y="-7.5" font-family="Helvetica,sans-Serif" font-size="10.00">stddef.h</text>
</g>
<!-- Node2&#45;&gt;Node3 -->
<g id="edge2" class="edge"><title>Node2&#45;&gt;Node3</title>
<path fill="none" stroke="midnightblue" d="M62.7343,-56.083C56.4552,-48.3768 47.2124,-37.0333 39.5692,-27.6531"/>
<polygon fill="midnightblue" stroke="midnightblue" points="42.1606,-25.2926 33.1305,-19.7511 36.7339,-29.7143 42.1606,-25.2926"/>
</g>
<!-- Node4 -->
<g id="node4" class="node"><title>Node4</title>
<g id="a_node4"><a xlink:href="a00030.html" target="_top" xlink:title="hpd/hpd_types.h">
<polygon fill="none" stroke="black" points="70.5,-0.5 70.5,-19.5 159.5,-19.5 159.5,-0.5 70.5,-0.5"/>
<text text-anchor="middle" x="115" y="-7.5" font-family="Helvetica,sans-Serif" font-size="10.00">hpd/hpd_types.h</text>
</a>
</g>
</g>
<!-- Node2&#45;&gt;Node4 -->
<g id="edge3" class="edge"><title>Node2&#45;&gt;Node4</title>
<path fill="none" stroke="midnightblue" d="M77.4308,-56.083C83.8527,-48.3768 93.3056,-37.0333 101.122,-27.6531"/>
<polygon fill="midnightblue" stroke="midnightblue" points="103.994,-29.674 107.707,-19.7511 98.6168,-25.1927 103.994,-29.674"/>
</g>
<!-- Node7 -->
<g id="node7" class="node"><title>Node7</title>
<polygon fill="none" stroke="#bfbfbf" points="254.5,-0.5 254.5,-19.5 343.5,-19.5 343.5,-0.5 254.5,-0.5"/>
<text text-anchor="middle" x="299" y="-7.5" font-family="Helvetica,sans-Serif" font-size="10.00">bsd/sys/queue.h</text>
</g>
<!-- Node6&#45;&gt;Node7 -->
<g id="edge6" class="edge"><title>Node6&#45;&gt;Node7</title>
<path fill="none" stroke="midnightblue" d="M299,-56.083C299,-49.0059 299,-38.8611 299,-29.9865"/>
<polygon fill="midnightblue" stroke="midnightblue" points="302.5,-29.751 299,-19.7511 295.5,-29.7511 302.5,-29.751"/>
</g>
</g>
</svg>
