<?xml version="1.0" encoding="UTF-8" standalone="no"?>
<!DOCTYPE svg PUBLIC "-//W3C//DTD SVG 1.1//EN"
 "http://www.w3.org/Graphics/SVG/1.1/DTD/svg11.dtd">
<!-- Generated by graphviz version 2.38.0 (20140413.2041)
 -->
<!-- Title: common/httpd/test/url_parser_test.c Pages: 1 -->
<svg width="366pt" height="207pt"
 viewBox="0.00 0.00 365.50 207.00" xmlns="http://www.w3.org/2000/svg" xmlns:xlink="http://www.w3.org/1999/xlink">
<g id="graph0" class="graph" transform="scale(1 1) rotate(0) translate(4 203)">
<title>common/httpd/test/url_parser_test.c</title>
<!-- Node1 -->
<g id="node1" class="node"><title>Node1</title>
<polygon fill="#bfbfbf" stroke="black" points="35.5,-168.5 35.5,-198.5 147.5,-198.5 147.5,-168.5 35.5,-168.5"/>
<text text-anchor="start" x="43.5" y="-186.5" font-family="Helvetica,sans-Serif" font-size="10.00">common/httpd/test/url</text>
<text text-anchor="middle" x="91.5" y="-175.5" font-family="Helvetica,sans-Serif" font-size="10.00">_parser_test.c</text>
</g>
<!-- Node2 -->
<g id="node2" class="node"><title>Node2</title>
<g id="a_node2"><a xlink:href="a00032.html" target="_top" xlink:title="url_parser.c">
<polygon fill="none" stroke="black" points="57.5,-112.5 57.5,-131.5 125.5,-131.5 125.5,-112.5 57.5,-112.5"/>
<text text-anchor="middle" x="91.5" y="-119.5" font-family="Helvetica,sans-Serif" font-size="10.00">url_parser.c</text>
</a>
</g>
</g>
<!-- Node1&#45;&gt;Node2 -->
<g id="edge1" class="edge"><title>Node1&#45;&gt;Node2</title>
<path fill="none" stroke="midnightblue" d="M91.5,-168.399C91.5,-160.466 91.5,-150.458 91.5,-141.858"/>
<polygon fill="midnightblue" stroke="midnightblue" points="95.0001,-141.658 91.5,-131.658 88.0001,-141.658 95.0001,-141.658"/>
</g>
<!-- Node3 -->
<g id="node3" class="node"><title>Node3</title>
<polygon fill="none" stroke="#bfbfbf" points="0,-56.5 0,-75.5 49,-75.5 49,-56.5 0,-56.5"/>
<text text-anchor="middle" x="24.5" y="-63.5" font-family="Helvetica,sans-Serif" font-size="10.00">string.h</text>
</g>
<!-- Node1&#45;&gt;Node3 -->
<g id="edge11" class="edge"><title>Node1&#45;&gt;Node3</title>
<path fill="none" stroke="midnightblue" d="M76.8211,-168.097C67.7103,-158.529 56.2942,-145.317 48.5,-132 39.9551,-117.4 33.5559,-99.2268 29.5236,-85.8111"/>
<polygon fill="midnightblue" stroke="midnightblue" points="32.7927,-84.51 26.6979,-75.8438 26.0581,-86.4193 32.7927,-84.51"/>
</g>
<!-- Node10 -->
<g id="node10" class="node"><title>Node10</title>
<polygon fill="none" stroke="#bfbfbf" points="143.5,-112.5 143.5,-131.5 205.5,-131.5 205.5,-112.5 143.5,-112.5"/>
<text text-anchor="middle" x="174.5" y="-119.5" font-family="Helvetica,sans-Serif" font-size="10.00">unit_test.h</text>
</g>
<!-- Node1&#45;&gt;Node10 -->
<g id="edge10" class="edge"><title>Node1&#45;&gt;Node10</title>
<path fill="none" stroke="midnightblue" d="M111.17,-168.399C124.101,-159.129 140.986,-147.025 154.068,-137.647"/>
<polygon fill="midnightblue" stroke="midnightblue" points="156.335,-140.329 162.423,-131.658 152.256,-134.639 156.335,-140.329"/>
</g>
<!-- Node2&#45;&gt;Node3 -->
<g id="edge2" class="edge"><title>Node2&#45;&gt;Node3</title>
<path fill="none" stroke="midnightblue" d="M80.7353,-112.324C70.7339,-104.263 55.6135,-92.0765 43.5695,-82.3695"/>
<polygon fill="midnightblue" stroke="midnightblue" points="45.4429,-79.3841 35.4606,-75.8339 41.0502,-84.8343 45.4429,-79.3841"/>
</g>
<!-- Node4 -->
<g id="node4" class="node"><title>Node4</title>
<polygon fill="none" stroke="#bfbfbf" points="67.5,-56.5 67.5,-75.5 115.5,-75.5 115.5,-56.5 67.5,-56.5"/>
<text text-anchor="middle" x="91.5" y="-63.5" font-family="Helvetica,sans-Serif" font-size="10.00">stdlib.h</text>
</g>
<!-- Node2&#45;&gt;Node4 -->
<g id="edge3" class="edge"><title>Node2&#45;&gt;Node4</title>
<path fill="none" stroke="midnightblue" d="M91.5,-112.083C91.5,-105.006 91.5,-94.8611 91.5,-85.9865"/>
<polygon fill="midnightblue" stroke="midnightblue" points="95.0001,-85.751 91.5,-75.7511 88.0001,-85.7511 95.0001,-85.751"/>
</g>
<!-- Node5 -->
<g id="node5" class="node"><title>Node5</title>
<g id="a_node5"><a xlink:href="a00033.html" target="_top" xlink:title="url_parser.h">
<polygon fill="none" stroke="black" points="133.5,-56.5 133.5,-75.5 201.5,-75.5 201.5,-56.5 133.5,-56.5"/>
<text text-anchor="middle" x="167.5" y="-63.5" font-family="Helvetica,sans-Serif" font-size="10.00">url_parser.h</text>
</a>
</g>
</g>
<!-- Node2&#45;&gt;Node5 -->
<g id="edge4" class="edge"><title>Node2&#45;&gt;Node5</title>
<path fill="none" stroke="midnightblue" d="M103.711,-112.324C115.276,-104.107 132.875,-91.6017 146.661,-81.8069"/>
<polygon fill="midnightblue" stroke="midnightblue" points="148.943,-84.4791 155.067,-75.8339 144.888,-78.7729 148.943,-84.4791"/>
</g>
<!-- Node7 -->
<g id="node7" class="node"><title>Node7</title>
<g id="a_node7"><a xlink:href="a00056.html" target="_top" xlink:title="hpd_shared_api.h">
<polygon fill="none" stroke="black" points="220,-56.5 220,-75.5 313,-75.5 313,-56.5 220,-56.5"/>
<text text-anchor="middle" x="266.5" y="-63.5" font-family="Helvetica,sans-Serif" font-size="10.00">hpd_shared_api.h</text>
</a>
</g>
</g>
<!-- Node2&#45;&gt;Node7 -->
<g id="edge6" class="edge"><title>Node2&#45;&gt;Node7</title>
<path fill="none" stroke="midnightblue" d="M119.229,-112.444C148.926,-103.28 196.216,-88.6876 229.169,-78.5192"/>
<polygon fill="midnightblue" stroke="midnightblue" points="230.377,-81.8094 238.9,-75.5164 228.313,-75.1206 230.377,-81.8094"/>
</g>
<!-- Node6 -->
<g id="node6" class="node"><title>Node6</title>
<g id="a_node6"><a xlink:href="a00021.html" target="_top" xlink:title="hpd_types.h">
<polygon fill="none" stroke="black" points="137.5,-0.5 137.5,-19.5 207.5,-19.5 207.5,-0.5 137.5,-0.5"/>
<text text-anchor="middle" x="172.5" y="-7.5" font-family="Helvetica,sans-Serif" font-size="10.00">hpd_types.h</text>
</a>
</g>
</g>
<!-- Node5&#45;&gt;Node6 -->
<g id="edge5" class="edge"><title>Node5&#45;&gt;Node6</title>
<path fill="none" stroke="midnightblue" d="M168.326,-56.083C168.981,-49.0059 169.92,-38.8611 170.742,-29.9865"/>
<polygon fill="midnightblue" stroke="midnightblue" points="174.253,-30.0312 171.69,-19.7511 167.283,-29.3858 174.253,-30.0312"/>
</g>
<!-- Node7&#45;&gt;Node6 -->
<g id="edge7" class="edge"><title>Node7&#45;&gt;Node6</title>
<path fill="none" stroke="midnightblue" d="M251.397,-56.324C236.597,-47.8215 213.806,-34.7288 196.518,-24.7975"/>
<polygon fill="midnightblue" stroke="midnightblue" points="197.98,-21.6009 187.565,-19.6545 194.493,-27.6707 197.98,-21.6009"/>
</g>
<!-- Node8 -->
<g id="node8" class="node"><title>Node8</title>
<polygon fill="none" stroke="#bfbfbf" points="235.5,-0.5 235.5,-19.5 287.5,-19.5 287.5,-0.5 235.5,-0.5"/>
<text text-anchor="middle" x="261.5" y="-7.5" font-family="Helvetica,sans-Serif" font-size="10.00">stddef.h</text>
</g>
<!-- Node7&#45;&gt;Node8 -->
<g id="edge8" class="edge"><title>Node7&#45;&gt;Node8</title>
<path fill="none" stroke="midnightblue" d="M265.674,-56.083C265.019,-49.0059 264.08,-38.8611 263.258,-29.9865"/>
<polygon fill="midnightblue" stroke="midnightblue" points="266.717,-29.3858 262.31,-19.7511 259.747,-30.0312 266.717,-29.3858"/>
</g>
<!-- Node9 -->
<g id="node9" class="node"><title>Node9</title>
<polygon fill="none" stroke="#bfbfbf" points="305.5,-0.5 305.5,-19.5 357.5,-19.5 357.5,-0.5 305.5,-0.5"/>
<text text-anchor="middle" x="331.5" y="-7.5" font-family="Helvetica,sans-Serif" font-size="10.00">stdarg.h</text>
</g>
<!-- Node7&#45;&gt;Node9 -->
<g id="edge9" class="edge"><title>Node7&#45;&gt;Node9</title>
<path fill="none" stroke="midnightblue" d="M276.943,-56.324C286.646,-48.2631 301.315,-36.0765 313,-26.3695"/>
<polygon fill="midnightblue" stroke="midnightblue" points="315.411,-28.9163 320.867,-19.8339 310.938,-23.532 315.411,-28.9163"/>
</g>
</g>
</svg>
