<?xml version="1.0" encoding="UTF-8" standalone="no"?>
<!DOCTYPE svg PUBLIC "-//W3C//DTD SVG 1.1//EN"
 "http://www.w3.org/Graphics/SVG/1.1/DTD/svg11.dtd">
<!-- Generated by graphviz version 2.38.0 (20140413.2041)
 -->
<!-- Title: hpd/include/hpd_daemon_api.h Pages: 1 -->
<!--zoomable 162 -->
<svg id="main" version="1.1" xmlns="http://www.w3.org/2000/svg" xmlns:xlink="http://www.w3.org/1999/xlink" xml:space="preserve" onload="init(evt)">
<style type="text/css"><![CDATA[
.edge:hover path { stroke: red; }
.edge:hover polygon { stroke: red; fill: red; }
]]></style>
<script type="text/javascript"><![CDATA[
var edges = document.getElementsByTagName('g');
if (edges && edges.length) {
  for (var i=0;i<edges.length;i++) {
    if (edges[i].id.substr(0,4)=='edge') {
      edges[i].setAttribute('class','edge');
    }
  }
}
]]></script>
        <defs>
                <circle id="rim" cx="0" cy="0" r="7"/>
                <circle id="rim2" cx="0" cy="0" r="3.5"/>
                <g id="zoomPlus">
                        <use xlink:href="#rim" fill="#404040">
                                <set attributeName="fill" to="#808080" begin="zoomplus.mouseover" end="zoomplus.mouseout"/>
                        </use>
                        <path d="M-4,0h8M0,-4v8" fill="none" stroke="white" stroke-width="1.5" pointer-events="none"/>
                </g>
                <g id="zoomMin">
                        <use xlink:href="#rim" fill="#404040">
                                <set attributeName="fill" to="#808080" begin="zoomminus.mouseover" end="zoomminus.mouseout"/>
                        </use>
                        <path d="M-4,0h8" fill="none" stroke="white" stroke-width="1.5" pointer-events="none"/>
                </g>
                <g id="dirArrow">
                        <path fill="none" stroke="white" stroke-width="1.5" d="M0,-3.0v7 M-2.5,-0.5L0,-3.0L2.5,-0.5"/>
                </g>
               <g id="resetDef">
                       <use xlink:href="#rim2" fill="#404040">
                               <set attributeName="fill" to="#808080" begin="reset.mouseover" end="reset.mouseout"/>
                       </use>
               </g>
        </defs>

<script type="text/javascript">
var viewWidth = 614;
var viewHeight = 162;
var sectionId = 'dynsection-1';
</script>
<script xlink:href="svgpan.js"/>
<svg id="graph" class="graph">
<g id="viewport">
<title>hpd/include/hpd_daemon_api.h</title>
<!-- Node1 -->
<g id="node1" class="node"><title>Node1</title>
<polygon fill="#bfbfbf" stroke="black" points="179,-123.5 179,-153.5 304,-153.5 304,-123.5 179,-123.5"/>
<text text-anchor="start" x="187" y="-141.5" font-family="Helvetica,sans-Serif" font-size="10.00">hpd/include/hpd_daemon</text>
<text text-anchor="middle" x="241.5" y="-130.5" font-family="Helvetica,sans-Serif" font-size="10.00">_api.h</text>
</g>
<!-- Node2 -->
<g id="node2" class="node"><title>Node2</title>
<g id="a_node2"><a xlink:href="a00055.html" target="_top" xlink:title="example/demo/main.c">
<polygon fill="none" stroke="black" points="120,-67.5 120,-86.5 233,-86.5 233,-67.5 120,-67.5"/>
<text text-anchor="middle" x="176.5" y="-74.5" font-family="Helvetica,sans-Serif" font-size="10.00">example/demo/main.c</text>
</a>
</g>
</g>
<!-- Node1&#45;&gt;Node2 -->
<g id="edge1" class="edge"><title>Node1&#45;&gt;Node2</title>
<path fill="none" stroke="midnightblue" d="M218.665,-116.597C207.433,-106.315 194.506,-94.4824 185.958,-86.6578"/>
<polygon fill="midnightblue" stroke="midnightblue" points="216.356,-119.229 226.096,-123.399 221.083,-114.065 216.356,-119.229"/>
</g>
<!-- Node3 -->
<g id="node3" class="node"><title>Node3</title>
<g id="a_node3"><a xlink:href="a00057.html" target="_top" xlink:title="hpd/include/hpd_api.h">
<polygon fill="none" stroke="black" points="251,-67.5 251,-86.5 362,-86.5 362,-67.5 251,-67.5"/>
<text text-anchor="middle" x="306.5" y="-74.5" font-family="Helvetica,sans-Serif" font-size="10.00">hpd/include/hpd_api.h</text>
</a>
</g>
</g>
<!-- Node1&#45;&gt;Node3 -->
<g id="edge2" class="edge"><title>Node1&#45;&gt;Node3</title>
<path fill="none" stroke="midnightblue" d="M264.335,-116.597C275.567,-106.315 288.494,-94.4824 297.042,-86.6578"/>
<polygon fill="midnightblue" stroke="midnightblue" points="261.917,-114.065 256.904,-123.399 266.644,-119.229 261.917,-114.065"/>
</g>
<!-- Node4 -->
<g id="node4" class="node"><title>Node4</title>
<g id="a_node4"><a xlink:href="a00062.html" target="_top" xlink:title="hpd/src/daemon_api.c">
<polygon fill="none" stroke="black" points="0,-6 0,-25 113,-25 113,-6 0,-6"/>
<text text-anchor="middle" x="56.5" y="-13" font-family="Helvetica,sans-Serif" font-size="10.00">hpd/src/daemon_api.c</text>
</a>
</g>
</g>
<!-- Node3&#45;&gt;Node4 -->
<g id="edge3" class="edge"><title>Node3&#45;&gt;Node4</title>
<path fill="none" stroke="midnightblue" d="M260.759,-65.1138C212.236,-53.5653 136.59,-35.5615 92.2525,-25.0091"/>
<polygon fill="midnightblue" stroke="midnightblue" points="260.142,-68.5646 270.681,-67.4751 261.763,-61.7548 260.142,-68.5646"/>
</g>
<!-- Node5 -->
<g id="node5" class="node"><title>Node5</title>
<g id="a_node5"><a xlink:href="a00068.html" target="_top" xlink:title="hpd/src/event_api.c">
<polygon fill="none" stroke="black" points="131.5,-6 131.5,-25 233.5,-25 233.5,-6 131.5,-6"/>
<text text-anchor="middle" x="182.5" y="-13" font-family="Helvetica,sans-Serif" font-size="10.00">hpd/src/event_api.c</text>
</a>
</g>
</g>
<!-- Node3&#45;&gt;Node5 -->
<g id="edge4" class="edge"><title>Node3&#45;&gt;Node5</title>
<path fill="none" stroke="midnightblue" d="M279.451,-63.0207C255.403,-51.4816 220.937,-34.9433 200.233,-25.0091"/>
<polygon fill="midnightblue" stroke="midnightblue" points="278.204,-66.3044 288.734,-67.4751 281.232,-59.9934 278.204,-66.3044"/>
</g>
<!-- Node6 -->
<g id="node6" class="node"><title>Node6</title>
<g id="a_node6"><a xlink:href="a00074.html" target="_top" xlink:title="hpd/src/request_api.c">
<polygon fill="none" stroke="black" points="251.5,-6 251.5,-25 361.5,-25 361.5,-6 251.5,-6"/>
<text text-anchor="middle" x="306.5" y="-13" font-family="Helvetica,sans-Serif" font-size="10.00">hpd/src/request_api.c</text>
</a>
</g>
</g>
<!-- Node3&#45;&gt;Node6 -->
<g id="edge5" class="edge"><title>Node3&#45;&gt;Node6</title>
<path fill="none" stroke="midnightblue" d="M306.5,-57.3165C306.5,-46.4962 306.5,-33.398 306.5,-25.0091"/>
<polygon fill="midnightblue" stroke="midnightblue" points="303,-57.4751 306.5,-67.4751 310,-57.4751 303,-57.4751"/>
</g>
<!-- Node7 -->
<g id="node7" class="node"><title>Node7</title>
<g id="a_node7"><a xlink:href="a00077.html" target="_top" xlink:title="hpd/src/value_api.c">
<polygon fill="none" stroke="black" points="380,-6 380,-25 481,-25 481,-6 380,-6"/>
<text text-anchor="middle" x="430.5" y="-13" font-family="Helvetica,sans-Serif" font-size="10.00">hpd/src/value_api.c</text>
</a>
</g>
</g>
<!-- Node3&#45;&gt;Node7 -->
<g id="edge6" class="edge"><title>Node3&#45;&gt;Node7</title>
<path fill="none" stroke="midnightblue" d="M333.549,-63.0207C357.597,-51.4816 392.063,-34.9433 412.767,-25.0091"/>
<polygon fill="midnightblue" stroke="midnightblue" points="331.768,-59.9934 324.266,-67.4751 334.796,-66.3044 331.768,-59.9934"/>
</g>
<!-- Node8 -->
<g id="node8" class="node"><title>Node8</title>
<g id="a_node8"><a xlink:href="a00030.html" target="_top" xlink:title="hpd/test/daemon_api\l_test.cpp">
<polygon fill="none" stroke="black" points="499,-0.5 499,-30.5 606,-30.5 606,-0.5 499,-0.5"/>
<text text-anchor="start" x="507" y="-18.5" font-family="Helvetica,sans-Serif" font-size="10.00">hpd/test/daemon_api</text>
<text text-anchor="middle" x="552.5" y="-7.5" font-family="Helvetica,sans-Serif" font-size="10.00">_test.cpp</text>
</a>
</g>
</g>
<!-- Node3&#45;&gt;Node8 -->
<g id="edge7" class="edge"><title>Node3&#45;&gt;Node8</title>
<path fill="none" stroke="midnightblue" d="M351.579,-65.0967C393.078,-55.0594 454.694,-40.1564 498.74,-29.5029"/>
<polygon fill="midnightblue" stroke="midnightblue" points="350.643,-61.7222 341.746,-67.4751 352.288,-68.526 350.643,-61.7222"/>
</g>
</g>
</svg>
        <g id="navigator" transform="translate(0 0)" fill="#404254">
                <rect fill="#f2f5e9" fill-opacity="0.5" stroke="#606060" stroke-width=".5" x="0" y="0" width="60" height="60"/>
                <use id="zoomplus" xlink:href="#zoomPlus" x="17" y="9" onmousedown="handleZoom(evt,'in')"/>
                <use id="zoomminus" xlink:href="#zoomMin" x="42" y="9" onmousedown="handleZoom(evt,'out')"/>
                <use id="reset" xlink:href="#resetDef" x="30" y="36" onmousedown="handleReset()"/>
                <g id="arrowUp" xlink:href="#dirArrow" transform="translate(30 24)" onmousedown="handlePan(0,-1)">
                  <use xlink:href="#rim" fill="#404040">
                        <set attributeName="fill" to="#808080" begin="arrowUp.mouseover" end="arrowUp.mouseout"/>
                  </use>
                  <path fill="none" stroke="white" stroke-width="1.5" d="M0,-3.0v7 M-2.5,-0.5L0,-3.0L2.5,-0.5"/>
                </g>
                <g id="arrowRight" xlink:href="#dirArrow" transform="rotate(90) translate(36 -43)" onmousedown="handlePan(1,0)">
                  <use xlink:href="#rim" fill="#404040">
                        <set attributeName="fill" to="#808080" begin="arrowRight.mouseover" end="arrowRight.mouseout"/>
                  </use>
                  <path fill="none" stroke="white" stroke-width="1.5" d="M0,-3.0v7 M-2.5,-0.5L0,-3.0L2.5,-0.5"/>
                </g>
                <g id="arrowDown" xlink:href="#dirArrow" transform="rotate(180) translate(-30 -48)" onmousedown="handlePan(0,1)">
                  <use xlink:href="#rim" fill="#404040">
                        <set attributeName="fill" to="#808080" begin="arrowDown.mouseover" end="arrowDown.mouseout"/>
                  </use>
                  <path fill="none" stroke="white" stroke-width="1.5" d="M0,-3.0v7 M-2.5,-0.5L0,-3.0L2.5,-0.5"/>
                </g>
                <g id="arrowLeft" xlink:href="#dirArrow" transform="rotate(270) translate(-36 17)" onmousedown="handlePan(-1,0)">
                  <use xlink:href="#rim" fill="#404040">
                        <set attributeName="fill" to="#808080" begin="arrowLeft.mouseover" end="arrowLeft.mouseout"/>
                  </use>
                  <path fill="none" stroke="white" stroke-width="1.5" d="M0,-3.0v7 M-2.5,-0.5L0,-3.0L2.5,-0.5"/>
                </g>
        </g>
        <svg viewBox="0 0 15 15" width="100%" height="30px" preserveAspectRatio="xMaxYMin meet">
         <g id="arrow_out" transform="scale(0.3 0.3)">
          <a xlink:href="a00198_org.svg" target="_base">
           <rect id="button" ry="5" rx="5" y="6" x="6" height="38" width="38"
                fill="#f2f5e9" fill-opacity="0.5" stroke="#606060" stroke-width="1.0"/>
           <path id="arrow"
             d="M 11.500037,31.436501 C 11.940474,20.09759 22.043105,11.32322 32.158766,21.979434 L 37.068811,17.246167 C 37.068811,17.246167 37.088388,32 37.088388,32 L 22.160133,31.978069 C 22.160133,31.978069 26.997745,27.140456 26.997745,27.140456 C 18.528582,18.264221 13.291696,25.230495 11.500037,31.436501 z"
             style="fill:#404040;"/>
          </a>
         </g>
        </svg>
</svg>
