<?xml version="1.0" encoding="UTF-8" standalone="no"?>
<!DOCTYPE svg PUBLIC "-//W3C//DTD SVG 1.1//EN"
 "http://www.w3.org/Graphics/SVG/1.1/DTD/svg11.dtd">
<!-- Generated by graphviz version 2.38.0 (20140413.2041)
 -->
<!-- Title: common/curl_ev/src/curl_ev.c Pages: 1 -->
<svg width="700pt" height="207pt"
 viewBox="0.00 0.00 699.50 207.00" xmlns="http://www.w3.org/2000/svg" xmlns:xlink="http://www.w3.org/1999/xlink">
<g id="graph0" class="graph" transform="scale(1 1) rotate(0) translate(4 203)">
<title>common/curl_ev/src/curl_ev.c</title>
<!-- Node1 -->
<g id="node1" class="node"><title>Node1</title>
<polygon fill="#bfbfbf" stroke="black" points="298.5,-168.5 298.5,-198.5 403.5,-198.5 403.5,-168.5 298.5,-168.5"/>
<text text-anchor="start" x="306.5" y="-186.5" font-family="Helvetica,sans-Serif" font-size="10.00">common/curl_ev/src</text>
<text text-anchor="middle" x="351" y="-175.5" font-family="Helvetica,sans-Serif" font-size="10.00">/curl_ev.c</text>
</g>
<!-- Node2 -->
<g id="node2" class="node"><title>Node2</title>
<g id="a_node2"><a xlink:href="a00046.html" target="_top" xlink:title="curl_ev_intern.h">
<polygon fill="none" stroke="black" points="308,-112.5 308,-131.5 394,-131.5 394,-112.5 308,-112.5"/>
<text text-anchor="middle" x="351" y="-119.5" font-family="Helvetica,sans-Serif" font-size="10.00">curl_ev_intern.h</text>
</a>
</g>
</g>
<!-- Node1&#45;&gt;Node2 -->
<g id="edge1" class="edge"><title>Node1&#45;&gt;Node2</title>
<path fill="none" stroke="midnightblue" d="M351,-168.399C351,-160.466 351,-150.458 351,-141.858"/>
<polygon fill="midnightblue" stroke="midnightblue" points="354.5,-141.658 351,-131.658 347.5,-141.658 354.5,-141.658"/>
</g>
<!-- Node9 -->
<g id="node9" class="node"><title>Node9</title>
<g id="a_node9"><a xlink:href="a00053.html" target="_top" xlink:title="hpd/common/hpd_common.h">
<polygon fill="none" stroke="black" points="495.5,-112.5 495.5,-131.5 638.5,-131.5 638.5,-112.5 495.5,-112.5"/>
<text text-anchor="middle" x="567" y="-119.5" font-family="Helvetica,sans-Serif" font-size="10.00">hpd/common/hpd_common.h</text>
</a>
</g>
</g>
<!-- Node1&#45;&gt;Node9 -->
<g id="edge8" class="edge"><title>Node1&#45;&gt;Node9</title>
<path fill="none" stroke="midnightblue" d="M401.915,-168.475C439.831,-158.03 490.919,-143.958 526.171,-134.247"/>
<polygon fill="midnightblue" stroke="midnightblue" points="527.408,-137.536 536.12,-131.506 525.549,-130.788 527.408,-137.536"/>
</g>
<!-- Node13 -->
<g id="node13" class="node"><title>Node13</title>
<g id="a_node13"><a xlink:href="a00075.html" target="_top" xlink:title="hpd/hpd_shared_api.h">
<polygon fill="none" stroke="black" points="0,-56.5 0,-75.5 112,-75.5 112,-56.5 0,-56.5"/>
<text text-anchor="middle" x="56" y="-63.5" font-family="Helvetica,sans-Serif" font-size="10.00">hpd/hpd_shared_api.h</text>
</a>
</g>
</g>
<!-- Node1&#45;&gt;Node13 -->
<g id="edge12" class="edge"><title>Node1&#45;&gt;Node13</title>
<path fill="none" stroke="midnightblue" d="M315.122,-168.453C256.867,-145.645 142.67,-100.933 87.4213,-79.3022"/>
<polygon fill="midnightblue" stroke="midnightblue" points="88.4057,-75.929 77.8179,-75.5423 85.8536,-82.4472 88.4057,-75.929"/>
</g>
<!-- Node3 -->
<g id="node3" class="node"><title>Node3</title>
<g id="a_node3"><a xlink:href="a00043.html" target="_top" xlink:title="hpd/common/hpd_curl_ev.h">
<polygon fill="none" stroke="black" points="130.5,-56.5 130.5,-75.5 267.5,-75.5 267.5,-56.5 130.5,-56.5"/>
<text text-anchor="middle" x="199" y="-63.5" font-family="Helvetica,sans-Serif" font-size="10.00">hpd/common/hpd_curl_ev.h</text>
</a>
</g>
</g>
<!-- Node2&#45;&gt;Node3 -->
<g id="edge2" class="edge"><title>Node2&#45;&gt;Node3</title>
<path fill="none" stroke="midnightblue" d="M326.915,-112.444C301.455,-103.399 261.106,-89.064 232.541,-78.9158"/>
<polygon fill="midnightblue" stroke="midnightblue" points="233.567,-75.5661 222.972,-75.5164 231.223,-82.1622 233.567,-75.5661"/>
</g>
<!-- Node6 -->
<g id="node6" class="node"><title>Node6</title>
<polygon fill="none" stroke="#bfbfbf" points="434.5,-56.5 434.5,-75.5 493.5,-75.5 493.5,-56.5 434.5,-56.5"/>
<text text-anchor="middle" x="464" y="-63.5" font-family="Helvetica,sans-Serif" font-size="10.00">curl/curl.h</text>
</g>
<!-- Node2&#45;&gt;Node6 -->
<g id="edge5" class="edge"><title>Node2&#45;&gt;Node6</title>
<path fill="none" stroke="midnightblue" d="M368.905,-112.444C387.254,-103.675 416.005,-89.9355 437.094,-79.8579"/>
<polygon fill="midnightblue" stroke="midnightblue" points="438.665,-82.9862 446.179,-75.5164 435.647,-76.6703 438.665,-82.9862"/>
</g>
<!-- Node7 -->
<g id="node7" class="node"><title>Node7</title>
<g id="a_node7"><a xlink:href="a00055.html" target="_top" xlink:title="hpd/common/hpd_queue.h">
<polygon fill="none" stroke="black" points="285.5,-56.5 285.5,-75.5 416.5,-75.5 416.5,-56.5 285.5,-56.5"/>
<text text-anchor="middle" x="351" y="-63.5" font-family="Helvetica,sans-Serif" font-size="10.00">hpd/common/hpd_queue.h</text>
</a>
</g>
</g>
<!-- Node2&#45;&gt;Node7 -->
<g id="edge6" class="edge"><title>Node2&#45;&gt;Node7</title>
<path fill="none" stroke="midnightblue" d="M351,-112.083C351,-105.006 351,-94.8611 351,-85.9865"/>
<polygon fill="midnightblue" stroke="midnightblue" points="354.5,-85.751 351,-75.7511 347.5,-85.7511 354.5,-85.751"/>
</g>
<!-- Node4 -->
<g id="node4" class="node"><title>Node4</title>
<polygon fill="none" stroke="#bfbfbf" points="84,-0.5 84,-19.5 136,-19.5 136,-0.5 84,-0.5"/>
<text text-anchor="middle" x="110" y="-7.5" font-family="Helvetica,sans-Serif" font-size="10.00">stddef.h</text>
</g>
<!-- Node3&#45;&gt;Node4 -->
<g id="edge3" class="edge"><title>Node3&#45;&gt;Node4</title>
<path fill="none" stroke="midnightblue" d="M184.701,-56.324C170.817,-47.9002 149.508,-34.9709 133.196,-25.0741"/>
<polygon fill="midnightblue" stroke="midnightblue" points="134.629,-21.8495 124.264,-19.6545 130.998,-27.8341 134.629,-21.8495"/>
</g>
<!-- Node5 -->
<g id="node5" class="node"><title>Node5</title>
<g id="a_node5"><a xlink:href="a00030.html" target="_top" xlink:title="hpd/hpd_types.h">
<polygon fill="none" stroke="black" points="154.5,-0.5 154.5,-19.5 243.5,-19.5 243.5,-0.5 154.5,-0.5"/>
<text text-anchor="middle" x="199" y="-7.5" font-family="Helvetica,sans-Serif" font-size="10.00">hpd/hpd_types.h</text>
</a>
</g>
</g>
<!-- Node3&#45;&gt;Node5 -->
<g id="edge4" class="edge"><title>Node3&#45;&gt;Node5</title>
<path fill="none" stroke="midnightblue" d="M199,-56.083C199,-49.0059 199,-38.8611 199,-29.9865"/>
<polygon fill="midnightblue" stroke="midnightblue" points="202.5,-29.751 199,-19.7511 195.5,-29.7511 202.5,-29.751"/>
</g>
<!-- Node8 -->
<g id="node8" class="node"><title>Node8</title>
<polygon fill="none" stroke="#bfbfbf" points="306.5,-0.5 306.5,-19.5 395.5,-19.5 395.5,-0.5 306.5,-0.5"/>
<text text-anchor="middle" x="351" y="-7.5" font-family="Helvetica,sans-Serif" font-size="10.00">bsd/sys/queue.h</text>
</g>
<!-- Node7&#45;&gt;Node8 -->
<g id="edge7" class="edge"><title>Node7&#45;&gt;Node8</title>
<path fill="none" stroke="midnightblue" d="M351,-56.083C351,-49.0059 351,-38.8611 351,-29.9865"/>
<polygon fill="midnightblue" stroke="midnightblue" points="354.5,-29.751 351,-19.7511 347.5,-29.7511 354.5,-29.751"/>
</g>
<!-- Node10 -->
<g id="node10" class="node"><title>Node10</title>
<polygon fill="none" stroke="#bfbfbf" points="576,-56.5 576,-75.5 624,-75.5 624,-56.5 576,-56.5"/>
<text text-anchor="middle" x="600" y="-63.5" font-family="Helvetica,sans-Serif" font-size="10.00">stdlib.h</text>
</g>
<!-- Node9&#45;&gt;Node10 -->
<g id="edge9" class="edge"><title>Node9&#45;&gt;Node10</title>
<path fill="none" stroke="midnightblue" d="M572.449,-112.083C577.014,-104.613 583.668,-93.7244 589.293,-84.5199"/>
<polygon fill="midnightblue" stroke="midnightblue" points="592.424,-86.109 594.652,-75.7511 586.451,-82.4588 592.424,-86.109"/>
</g>
<!-- Node11 -->
<g id="node11" class="node"><title>Node11</title>
<polygon fill="none" stroke="#bfbfbf" points="642.5,-56.5 642.5,-75.5 691.5,-75.5 691.5,-56.5 642.5,-56.5"/>
<text text-anchor="middle" x="667" y="-63.5" font-family="Helvetica,sans-Serif" font-size="10.00">string.h</text>
</g>
<!-- Node9&#45;&gt;Node11 -->
<g id="edge10" class="edge"><title>Node9&#45;&gt;Node11</title>
<path fill="none" stroke="midnightblue" d="M583.067,-112.324C598.958,-103.743 623.507,-90.486 641.958,-80.5224"/>
<polygon fill="midnightblue" stroke="midnightblue" points="643.837,-83.4857 650.973,-75.6545 640.511,-77.3264 643.837,-83.4857"/>
</g>
<!-- Node12 -->
<g id="node12" class="node"><title>Node12</title>
<polygon fill="none" stroke="#bfbfbf" points="512,-56.5 512,-75.5 558,-75.5 558,-56.5 512,-56.5"/>
<text text-anchor="middle" x="535" y="-63.5" font-family="Helvetica,sans-Serif" font-size="10.00">stdio.h</text>
</g>
<!-- Node9&#45;&gt;Node12 -->
<g id="edge11" class="edge"><title>Node9&#45;&gt;Node12</title>
<path fill="none" stroke="midnightblue" d="M561.716,-112.083C557.289,-104.613 550.837,-93.7244 545.382,-84.5199"/>
<polygon fill="midnightblue" stroke="midnightblue" points="548.295,-82.5697 540.186,-75.7511 542.273,-86.1383 548.295,-82.5697"/>
</g>
<!-- Node13&#45;&gt;Node4 -->
<g id="edge14" class="edge"><title>Node13&#45;&gt;Node4</title>
<path fill="none" stroke="midnightblue" d="M64.917,-56.083C72.7805,-48.2195 84.4312,-36.5688 93.9187,-27.0813"/>
<polygon fill="midnightblue" stroke="midnightblue" points="96.6527,-29.2971 101.249,-19.7511 91.7029,-24.3473 96.6527,-29.2971"/>
</g>
<!-- Node13&#45;&gt;Node5 -->
<g id="edge13" class="edge"><title>Node13&#45;&gt;Node5</title>
<path fill="none" stroke="midnightblue" d="M78.6588,-56.4435C102.402,-47.4776 139.909,-33.314 166.738,-23.1827"/>
<polygon fill="midnightblue" stroke="midnightblue" points="168.329,-26.3235 176.447,-19.5164 165.856,-19.7749 168.329,-26.3235"/>
</g>
<!-- Node14 -->
<g id="node14" class="node"><title>Node14</title>
<polygon fill="none" stroke="#bfbfbf" points="14,-0.5 14,-19.5 66,-19.5 66,-0.5 14,-0.5"/>
<text text-anchor="middle" x="40" y="-7.5" font-family="Helvetica,sans-Serif" font-size="10.00">stdarg.h</text>
</g>
<!-- Node13&#45;&gt;Node14 -->
<g id="edge15" class="edge"><title>Node13&#45;&gt;Node14</title>
<path fill="none" stroke="midnightblue" d="M53.3579,-56.083C51.2144,-48.8486 48.1211,-38.4087 45.4509,-29.3968"/>
<polygon fill="midnightblue" stroke="midnightblue" points="48.7897,-28.3447 42.5929,-19.7511 42.0781,-30.3334 48.7897,-28.3447"/>
</g>
</g>
</svg>
