<?xml version="1.0" encoding="UTF-8" standalone="no"?>
<!DOCTYPE svg PUBLIC "-//W3C//DTD SVG 1.1//EN"
 "http://www.w3.org/Graphics/SVG/1.1/DTD/svg11.dtd">
<!-- Generated by graphviz version 2.38.0 (20140413.2041)
 -->
<!-- Title: common/httpd/src/httpd_request.c Pages: 1 -->
<!--zoomable 319 -->
<svg id="main" version="1.1" xmlns="http://www.w3.org/2000/svg" xmlns:xlink="http://www.w3.org/1999/xlink" xml:space="preserve" onload="init(evt)">
<style type="text/css"><![CDATA[
.edge:hover path { stroke: red; }
.edge:hover polygon { stroke: red; fill: red; }
]]></style>
<script type="text/javascript"><![CDATA[
var edges = document.getElementsByTagName('g');
if (edges && edges.length) {
  for (var i=0;i<edges.length;i++) {
    if (edges[i].id.substr(0,4)=='edge') {
      edges[i].setAttribute('class','edge');
    }
  }
}
]]></script>
        <defs>
                <circle id="rim" cx="0" cy="0" r="7"/>
                <circle id="rim2" cx="0" cy="0" r="3.5"/>
                <g id="zoomPlus">
                        <use xlink:href="#rim" fill="#404040">
                                <set attributeName="fill" to="#808080" begin="zoomplus.mouseover" end="zoomplus.mouseout"/>
                        </use>
                        <path d="M-4,0h8M0,-4v8" fill="none" stroke="white" stroke-width="1.5" pointer-events="none"/>
                </g>
                <g id="zoomMin">
                        <use xlink:href="#rim" fill="#404040">
                                <set attributeName="fill" to="#808080" begin="zoomminus.mouseover" end="zoomminus.mouseout"/>
                        </use>
                        <path d="M-4,0h8" fill="none" stroke="white" stroke-width="1.5" pointer-events="none"/>
                </g>
                <g id="dirArrow">
                        <path fill="none" stroke="white" stroke-width="1.5" d="M0,-3.0v7 M-2.5,-0.5L0,-3.0L2.5,-0.5"/>
                </g>
               <g id="resetDef">
                       <use xlink:href="#rim2" fill="#404040">
                               <set attributeName="fill" to="#808080" begin="reset.mouseover" end="reset.mouseout"/>
                       </use>
               </g>
        </defs>

<script type="text/javascript">
var viewWidth = 573;
var viewHeight = 319;
var sectionId = 'dynsection-0';
</script>
<script xlink:href="svgpan.js"/>
<svg id="graph" class="graph">
<g id="viewport">
<title>common/httpd/src/httpd_request.c</title>
<!-- Node1 -->
<g id="node1" class="node"><title>Node1</title>
<polygon fill="#bfbfbf" stroke="black" points="237,-280.5 237,-310.5 357,-310.5 357,-280.5 237,-280.5"/>
<text text-anchor="start" x="245" y="-298.5" font-family="Helvetica,sans-Serif" font-size="10.00">common/httpd/src/httpd</text>
<text text-anchor="middle" x="297" y="-287.5" font-family="Helvetica,sans-Serif" font-size="10.00">_request.c</text>
</g>
<!-- Node2 -->
<g id="node2" class="node"><title>Node2</title>
<g id="a_node2"><a xlink:href="a00040.html" target="_top" xlink:title="httpd_request.h">
<polygon fill="none" stroke="black" points="255,-224.5 255,-243.5 339,-243.5 339,-224.5 255,-224.5"/>
<text text-anchor="middle" x="297" y="-231.5" font-family="Helvetica,sans-Serif" font-size="10.00">httpd_request.h</text>
</a>
</g>
</g>
<!-- Node1&#45;&gt;Node2 -->
<g id="edge1" class="edge"><title>Node1&#45;&gt;Node2</title>
<path fill="none" stroke="midnightblue" d="M297,-280.399C297,-272.466 297,-262.458 297,-253.858"/>
<polygon fill="midnightblue" stroke="midnightblue" points="300.5,-253.658 297,-243.658 293.5,-253.658 300.5,-253.658"/>
</g>
<!-- Node13 -->
<g id="node13" class="node"><title>Node13</title>
<polygon fill="none" stroke="#bfbfbf" points="357,-224.5 357,-243.5 431,-243.5 431,-224.5 357,-224.5"/>
<text text-anchor="middle" x="394" y="-231.5" font-family="Helvetica,sans-Serif" font-size="10.00">http_parser.h</text>
</g>
<!-- Node1&#45;&gt;Node13 -->
<g id="edge20" class="edge"><title>Node1&#45;&gt;Node13</title>
<path fill="none" stroke="midnightblue" d="M319.988,-280.399C335.391,-270.951 355.593,-258.559 370.999,-249.109"/>
<polygon fill="midnightblue" stroke="midnightblue" points="373.192,-251.87 379.886,-243.658 369.531,-245.903 373.192,-251.87"/>
</g>
<!-- Node14 -->
<g id="node14" class="node"><title>Node14</title>
<g id="a_node14"><a xlink:href="a00033.html" target="_top" xlink:title="url_parser.h">
<polygon fill="none" stroke="black" points="122,-168.5 122,-187.5 190,-187.5 190,-168.5 122,-168.5"/>
<text text-anchor="middle" x="156" y="-175.5" font-family="Helvetica,sans-Serif" font-size="10.00">url_parser.h</text>
</a>
</g>
</g>
<!-- Node1&#45;&gt;Node14 -->
<g id="edge21" class="edge"><title>Node1&#45;&gt;Node14</title>
<path fill="none" stroke="midnightblue" d="M268.711,-280.361C251.7,-271.182 230.105,-258.293 213,-244 195.805,-229.632 179.28,-209.915 168.491,-195.975"/>
<polygon fill="midnightblue" stroke="midnightblue" points="171.104,-193.628 162.28,-187.763 165.521,-197.85 171.104,-193.628"/>
</g>
<!-- Node15 -->
<g id="node15" class="node"><title>Node15</title>
<g id="a_node15"><a xlink:href="a00008.html" target="_top" xlink:title="header_parser.h">
<polygon fill="none" stroke="black" points="0,-168.5 0,-187.5 86,-187.5 86,-168.5 0,-168.5"/>
<text text-anchor="middle" x="43" y="-175.5" font-family="Helvetica,sans-Serif" font-size="10.00">header_parser.h</text>
</a>
</g>
</g>
<!-- Node1&#45;&gt;Node15 -->
<g id="edge23" class="edge"><title>Node1&#45;&gt;Node15</title>
<path fill="none" stroke="midnightblue" d="M266.109,-280.453C216.262,-257.786 118.846,-213.489 70.9483,-191.709"/>
<polygon fill="midnightblue" stroke="midnightblue" points="72.3375,-188.496 61.7856,-187.542 69.4399,-194.868 72.3375,-188.496"/>
</g>
<!-- Node16 -->
<g id="node16" class="node"><title>Node16</title>
<g id="a_node16"><a xlink:href="a00060.html" target="_top" xlink:title="hpd_shared_api.h">
<polygon fill="none" stroke="black" points="186.5,-112.5 186.5,-131.5 279.5,-131.5 279.5,-112.5 186.5,-112.5"/>
<text text-anchor="middle" x="233" y="-119.5" font-family="Helvetica,sans-Serif" font-size="10.00">hpd_shared_api.h</text>
</a>
</g>
</g>
<!-- Node1&#45;&gt;Node16 -->
<g id="edge25" class="edge"><title>Node1&#45;&gt;Node16</title>
<path fill="none" stroke="midnightblue" d="M277.204,-280.449C266.068,-271.39 253.027,-258.595 246,-244 230.018,-210.803 229.777,-166.687 231.248,-141.932"/>
<polygon fill="midnightblue" stroke="midnightblue" points="234.754,-141.983 232.02,-131.747 227.774,-141.454 234.754,-141.983"/>
</g>
<!-- Node17 -->
<g id="node17" class="node"><title>Node17</title>
<polygon fill="none" stroke="#bfbfbf" points="449.5,-224.5 449.5,-243.5 498.5,-243.5 498.5,-224.5 449.5,-224.5"/>
<text text-anchor="middle" x="474" y="-231.5" font-family="Helvetica,sans-Serif" font-size="10.00">string.h</text>
</g>
<!-- Node1&#45;&gt;Node17 -->
<g id="edge29" class="edge"><title>Node1&#45;&gt;Node17</title>
<path fill="none" stroke="midnightblue" d="M338.947,-280.399C369.673,-270.07 410.865,-256.223 439.647,-246.548"/>
<polygon fill="midnightblue" stroke="midnightblue" points="440.909,-249.816 449.272,-243.312 438.678,-243.181 440.909,-249.816"/>
</g>
<!-- Node18 -->
<g id="node18" class="node"><title>Node18</title>
<polygon fill="none" stroke="#bfbfbf" points="517,-224.5 517,-243.5 565,-243.5 565,-224.5 517,-224.5"/>
<text text-anchor="middle" x="541" y="-231.5" font-family="Helvetica,sans-Serif" font-size="10.00">stdlib.h</text>
</g>
<!-- Node1&#45;&gt;Node18 -->
<g id="edge30" class="edge"><title>Node1&#45;&gt;Node18</title>
<path fill="none" stroke="midnightblue" d="M356.831,-280.495C398.897,-270.554 456.465,-256.763 507,-244 507.1,-243.975 507.2,-243.949 507.3,-243.924"/>
<polygon fill="midnightblue" stroke="midnightblue" points="508.06,-247.343 516.872,-241.459 506.315,-240.564 508.06,-247.343"/>
</g>
<!-- Node3 -->
<g id="node3" class="node"><title>Node3</title>
<g id="a_node3"><a xlink:href="a00018.html" target="_top" xlink:title="httpd.h">
<polygon fill="none" stroke="black" points="323.5,-168.5 323.5,-187.5 370.5,-187.5 370.5,-168.5 323.5,-168.5"/>
<text text-anchor="middle" x="347" y="-175.5" font-family="Helvetica,sans-Serif" font-size="10.00">httpd.h</text>
</a>
</g>
</g>
<!-- Node2&#45;&gt;Node3 -->
<g id="edge2" class="edge"><title>Node2&#45;&gt;Node3</title>
<path fill="none" stroke="midnightblue" d="M305.256,-224.083C312.465,-216.298 323.11,-204.801 331.846,-195.367"/>
<polygon fill="midnightblue" stroke="midnightblue" points="334.671,-197.467 338.897,-187.751 329.535,-192.711 334.671,-197.467"/>
</g>
<!-- Node8 -->
<g id="node8" class="node"><title>Node8</title>
<polygon fill="none" stroke="#bfbfbf" points="467,-56.5 467,-75.5 519,-75.5 519,-56.5 467,-56.5"/>
<text text-anchor="middle" x="493" y="-63.5" font-family="Helvetica,sans-Serif" font-size="10.00">stddef.h</text>
</g>
<!-- Node2&#45;&gt;Node8 -->
<g id="edge19" class="edge"><title>Node2&#45;&gt;Node8</title>
<path fill="none" stroke="midnightblue" d="M325.249,-224.48C380.275,-207.251 498.429,-166.936 521,-132 530.939,-116.616 519.81,-97.1093 508.779,-83.4972"/>
<polygon fill="midnightblue" stroke="midnightblue" points="511.329,-81.0968 502.111,-75.8729 506.06,-85.7047 511.329,-81.0968"/>
</g>
<!-- Node12 -->
<g id="node12" class="node"><title>Node12</title>
<g id="a_node12"><a xlink:href="a00029.html" target="_top" xlink:title="tcpd.h">
<polygon fill="none" stroke="black" points="125,-112.5 125,-131.5 169,-131.5 169,-112.5 125,-112.5"/>
<text text-anchor="middle" x="147" y="-119.5" font-family="Helvetica,sans-Serif" font-size="10.00">tcpd.h</text>
</a>
</g>
</g>
<!-- Node2&#45;&gt;Node12 -->
<g id="edge14" class="edge"><title>Node2&#45;&gt;Node12</title>
<path fill="none" stroke="midnightblue" d="M285.23,-224.368C259.599,-205.573 198.502,-160.768 166.818,-137.533"/>
<polygon fill="midnightblue" stroke="midnightblue" points="168.849,-134.683 158.716,-131.591 164.71,-140.328 168.849,-134.683"/>
</g>
<!-- Node4 -->
<g id="node4" class="node"><title>Node4</title>
<g id="a_node4"><a xlink:href="a00046.html" target="_top" xlink:title="hpd_map.h">
<polygon fill="none" stroke="black" points="430.5,-112.5 430.5,-131.5 495.5,-131.5 495.5,-112.5 430.5,-112.5"/>
<text text-anchor="middle" x="463" y="-119.5" font-family="Helvetica,sans-Serif" font-size="10.00">hpd_map.h</text>
</a>
</g>
</g>
<!-- Node3&#45;&gt;Node4 -->
<g id="edge3" class="edge"><title>Node3&#45;&gt;Node4</title>
<path fill="none" stroke="midnightblue" d="M365.381,-168.444C384.216,-159.675 413.731,-145.935 435.379,-135.858"/>
<polygon fill="midnightblue" stroke="midnightblue" points="437.117,-138.91 444.705,-131.516 434.162,-132.564 437.117,-138.91"/>
</g>
<!-- Node5 -->
<g id="node5" class="node"><title>Node5</title>
<g id="a_node5"><a xlink:href="a00021.html" target="_top" xlink:title="hpd_types.h">
<polygon fill="none" stroke="black" points="70,-56.5 70,-75.5 140,-75.5 140,-56.5 70,-56.5"/>
<text text-anchor="middle" x="105" y="-63.5" font-family="Helvetica,sans-Serif" font-size="10.00">hpd_types.h</text>
</a>
</g>
</g>
<!-- Node3&#45;&gt;Node5 -->
<g id="edge11" class="edge"><title>Node3&#45;&gt;Node5</title>
<path fill="none" stroke="midnightblue" d="M323.169,-175.706C270.099,-172.316 144.603,-161.319 116,-132 104.27,-119.976 102.374,-100.375 102.892,-85.8366"/>
<polygon fill="midnightblue" stroke="midnightblue" points="106.41,-85.742 103.683,-75.504 99.4301,-85.2077 106.41,-85.742"/>
</g>
<!-- Node3&#45;&gt;Node8 -->
<g id="edge9" class="edge"><title>Node3&#45;&gt;Node8</title>
<path fill="none" stroke="midnightblue" d="M370.783,-173.739C410.794,-167.712 488.803,-153.454 505,-132 515.237,-118.44 509.619,-98.8219 503.061,-84.6896"/>
<polygon fill="midnightblue" stroke="midnightblue" points="506.031,-82.8131 498.333,-75.5337 499.811,-86.0249 506.031,-82.8131"/>
</g>
<!-- Node9 -->
<g id="node9" class="node"><title>Node9</title>
<polygon fill="none" stroke="#bfbfbf" points="298,-56.5 298,-75.5 350,-75.5 350,-56.5 298,-56.5"/>
<text text-anchor="middle" x="324" y="-63.5" font-family="Helvetica,sans-Serif" font-size="10.00">stdarg.h</text>
</g>
<!-- Node3&#45;&gt;Node9 -->
<g id="edge10" class="edge"><title>Node3&#45;&gt;Node9</title>
<path fill="none" stroke="midnightblue" d="M357.826,-168.306C371.802,-155.965 393.186,-132.579 383,-112 376.397,-98.6595 363.735,-88.1941 351.829,-80.7262"/>
<polygon fill="midnightblue" stroke="midnightblue" points="353.391,-77.5866 342.984,-75.6018 349.882,-83.6435 353.391,-77.5866"/>
</g>
<!-- Node10 -->
<g id="node10" class="node"><title>Node10</title>
<g id="a_node10"><a xlink:href="a00039.html" target="_top" xlink:title="httpd_types.h">
<polygon fill="none" stroke="black" points="298,-112.5 298,-131.5 374,-131.5 374,-112.5 298,-112.5"/>
<text text-anchor="middle" x="336" y="-119.5" font-family="Helvetica,sans-Serif" font-size="10.00">httpd_types.h</text>
</a>
</g>
</g>
<!-- Node3&#45;&gt;Node10 -->
<g id="edge12" class="edge"><title>Node3&#45;&gt;Node10</title>
<path fill="none" stroke="midnightblue" d="M345.184,-168.083C343.726,-160.927 341.629,-150.635 339.807,-141.691"/>
<polygon fill="midnightblue" stroke="midnightblue" points="343.208,-140.851 337.783,-131.751 336.349,-142.248 343.208,-140.851"/>
</g>
<!-- Node4&#45;&gt;Node5 -->
<g id="edge4" class="edge"><title>Node4&#45;&gt;Node5</title>
<path fill="none" stroke="midnightblue" d="M430.281,-116.065C366.118,-106.387 223.668,-84.8996 150.425,-73.8518"/>
<polygon fill="midnightblue" stroke="midnightblue" points="150.548,-70.3309 140.138,-72.3002 149.504,-77.2526 150.548,-70.3309"/>
</g>
<!-- Node6 -->
<g id="node6" class="node"><title>Node6</title>
<g id="a_node6"><a xlink:href="a00045.html" target="_top" xlink:title="hpd_queue.h">
<polygon fill="none" stroke="black" points="377,-56.5 377,-75.5 449,-75.5 449,-56.5 377,-56.5"/>
<text text-anchor="middle" x="413" y="-63.5" font-family="Helvetica,sans-Serif" font-size="10.00">hpd_queue.h</text>
</a>
</g>
</g>
<!-- Node4&#45;&gt;Node6 -->
<g id="edge5" class="edge"><title>Node4&#45;&gt;Node6</title>
<path fill="none" stroke="midnightblue" d="M454.744,-112.083C447.535,-104.298 436.89,-92.8015 428.154,-83.3665"/>
<polygon fill="midnightblue" stroke="midnightblue" points="430.465,-80.7108 421.103,-75.7511 425.329,-85.4666 430.465,-80.7108"/>
</g>
<!-- Node4&#45;&gt;Node8 -->
<g id="edge7" class="edge"><title>Node4&#45;&gt;Node8</title>
<path fill="none" stroke="midnightblue" d="M467.954,-112.083C472.104,-104.613 478.153,-93.7244 483.267,-84.5199"/>
<polygon fill="midnightblue" stroke="midnightblue" points="486.341,-86.1924 488.138,-75.7511 480.222,-82.7929 486.341,-86.1924"/>
</g>
<!-- Node4&#45;&gt;Node9 -->
<g id="edge8" class="edge"><title>Node4&#45;&gt;Node9</title>
<path fill="none" stroke="midnightblue" d="M440.975,-112.444C417.896,-103.478 381.438,-89.314 355.359,-79.1827"/>
<polygon fill="midnightblue" stroke="midnightblue" points="356.511,-75.8753 345.922,-75.5164 353.976,-82.4002 356.511,-75.8753"/>
</g>
<!-- Node7 -->
<g id="node7" class="node"><title>Node7</title>
<polygon fill="none" stroke="#bfbfbf" points="368.5,-0.5 368.5,-19.5 457.5,-19.5 457.5,-0.5 368.5,-0.5"/>
<text text-anchor="middle" x="413" y="-7.5" font-family="Helvetica,sans-Serif" font-size="10.00">bsd/sys/queue.h</text>
</g>
<!-- Node6&#45;&gt;Node7 -->
<g id="edge6" class="edge"><title>Node6&#45;&gt;Node7</title>
<path fill="none" stroke="midnightblue" d="M413,-56.083C413,-49.0059 413,-38.8611 413,-29.9865"/>
<polygon fill="midnightblue" stroke="midnightblue" points="416.5,-29.751 413,-19.7511 409.5,-29.7511 416.5,-29.751"/>
</g>
<!-- Node11 -->
<g id="node11" class="node"><title>Node11</title>
<g id="a_node11"><a xlink:href="a00048.html" target="_top" xlink:title="tcpd_types.h">
<polygon fill="none" stroke="black" points="174.5,-56.5 174.5,-75.5 247.5,-75.5 247.5,-56.5 174.5,-56.5"/>
<text text-anchor="middle" x="211" y="-63.5" font-family="Helvetica,sans-Serif" font-size="10.00">tcpd_types.h</text>
</a>
</g>
</g>
<!-- Node10&#45;&gt;Node11 -->
<g id="edge13" class="edge"><title>Node10&#45;&gt;Node11</title>
<path fill="none" stroke="midnightblue" d="M316.193,-112.444C295.713,-103.596 263.517,-89.6875 240.135,-79.5865"/>
<polygon fill="midnightblue" stroke="midnightblue" points="241.282,-76.2692 230.714,-75.5164 238.506,-82.6953 241.282,-76.2692"/>
</g>
<!-- Node12&#45;&gt;Node5 -->
<g id="edge17" class="edge"><title>Node12&#45;&gt;Node5</title>
<path fill="none" stroke="midnightblue" d="M140.065,-112.083C134.071,-104.377 125.248,-93.0333 117.952,-83.6531"/>
<polygon fill="midnightblue" stroke="midnightblue" points="120.709,-81.4958 111.806,-75.7511 115.183,-85.7934 120.709,-81.4958"/>
</g>
<!-- Node12&#45;&gt;Node8 -->
<g id="edge15" class="edge"><title>Node12&#45;&gt;Node8</title>
<path fill="none" stroke="midnightblue" d="M169.175,-113.905C171.797,-113.198 174.447,-112.543 177,-112 297.031,-86.4867 332.552,-99.044 456.811,-76.009"/>
<polygon fill="midnightblue" stroke="midnightblue" points="457.532,-79.4347 466.706,-74.1349 456.229,-72.5569 457.532,-79.4347"/>
</g>
<!-- Node12&#45;&gt;Node9 -->
<g id="edge16" class="edge"><title>Node12&#45;&gt;Node9</title>
<path fill="none" stroke="midnightblue" d="M169.059,-114.27C198.833,-105.186 252.251,-88.8895 287.915,-78.0089"/>
<polygon fill="midnightblue" stroke="midnightblue" points="289.375,-81.223 297.918,-74.9572 287.332,-74.5277 289.375,-81.223"/>
</g>
<!-- Node12&#45;&gt;Node11 -->
<g id="edge18" class="edge"><title>Node12&#45;&gt;Node11</title>
<path fill="none" stroke="midnightblue" d="M157.283,-112.324C166.836,-104.263 181.28,-92.0765 192.784,-82.3695"/>
<polygon fill="midnightblue" stroke="midnightblue" points="195.144,-84.9577 200.53,-75.8339 190.63,-79.6076 195.144,-84.9577"/>
</g>
<!-- Node14&#45;&gt;Node5 -->
<g id="edge22" class="edge"><title>Node14&#45;&gt;Node5</title>
<path fill="none" stroke="midnightblue" d="M129.789,-168.414C113.15,-161.445 92.9428,-149.809 83,-132 74.5065,-116.787 82.8977,-97.7417 91.6535,-84.2082"/>
<polygon fill="midnightblue" stroke="midnightblue" points="94.6582,-86.0209 97.5704,-75.8341 88.9413,-81.9814 94.6582,-86.0209"/>
</g>
<!-- Node15&#45;&gt;Node5 -->
<g id="edge24" class="edge"><title>Node15&#45;&gt;Node5</title>
<path fill="none" stroke="midnightblue" d="M46.9998,-168.439C52.9514,-155.865 64.6587,-131.757 76,-112 81.3791,-102.63 87.8529,-92.49 93.318,-84.2122"/>
<polygon fill="midnightblue" stroke="midnightblue" points="96.2961,-86.0551 98.9476,-75.7974 90.478,-82.1627 96.2961,-86.0551"/>
</g>
<!-- Node16&#45;&gt;Node5 -->
<g id="edge26" class="edge"><title>Node16&#45;&gt;Node5</title>
<path fill="none" stroke="midnightblue" d="M212.718,-112.444C191.653,-103.557 158.483,-89.5632 134.514,-79.4514"/>
<polygon fill="midnightblue" stroke="midnightblue" points="135.761,-76.1787 125.187,-75.5164 133.04,-82.6283 135.761,-76.1787"/>
</g>
<!-- Node16&#45;&gt;Node8 -->
<g id="edge27" class="edge"><title>Node16&#45;&gt;Node8</title>
<path fill="none" stroke="midnightblue" d="M279.697,-112.427C323.175,-104.272 390.009,-91.3019 456.811,-76.1816"/>
<polygon fill="midnightblue" stroke="midnightblue" points="457.692,-79.5706 466.664,-73.9354 456.136,-72.7457 457.692,-79.5706"/>
</g>
<!-- Node16&#45;&gt;Node9 -->
<g id="edge28" class="edge"><title>Node16&#45;&gt;Node9</title>
<path fill="none" stroke="midnightblue" d="M247.621,-112.324C261.949,-103.822 284.013,-90.7288 300.749,-80.7975"/>
<polygon fill="midnightblue" stroke="midnightblue" points="302.602,-83.7677 309.416,-75.6545 299.03,-77.7478 302.602,-83.7677"/>
</g>
</g>
</svg>
        <g id="navigator" transform="translate(0 0)" fill="#404254">
                <rect fill="#f2f5e9" fill-opacity="0.5" stroke="#606060" stroke-width=".5" x="0" y="0" width="60" height="60"/>
                <use id="zoomplus" xlink:href="#zoomPlus" x="17" y="9" onmousedown="handleZoom(evt,'in')"/>
                <use id="zoomminus" xlink:href="#zoomMin" x="42" y="9" onmousedown="handleZoom(evt,'out')"/>
                <use id="reset" xlink:href="#resetDef" x="30" y="36" onmousedown="handleReset()"/>
                <g id="arrowUp" xlink:href="#dirArrow" transform="translate(30 24)" onmousedown="handlePan(0,-1)">
                  <use xlink:href="#rim" fill="#404040">
                        <set attributeName="fill" to="#808080" begin="arrowUp.mouseover" end="arrowUp.mouseout"/>
                  </use>
                  <path fill="none" stroke="white" stroke-width="1.5" d="M0,-3.0v7 M-2.5,-0.5L0,-3.0L2.5,-0.5"/>
                </g>
                <g id="arrowRight" xlink:href="#dirArrow" transform="rotate(90) translate(36 -43)" onmousedown="handlePan(1,0)">
                  <use xlink:href="#rim" fill="#404040">
                        <set attributeName="fill" to="#808080" begin="arrowRight.mouseover" end="arrowRight.mouseout"/>
                  </use>
                  <path fill="none" stroke="white" stroke-width="1.5" d="M0,-3.0v7 M-2.5,-0.5L0,-3.0L2.5,-0.5"/>
                </g>
                <g id="arrowDown" xlink:href="#dirArrow" transform="rotate(180) translate(-30 -48)" onmousedown="handlePan(0,1)">
                  <use xlink:href="#rim" fill="#404040">
                        <set attributeName="fill" to="#808080" begin="arrowDown.mouseover" end="arrowDown.mouseout"/>
                  </use>
                  <path fill="none" stroke="white" stroke-width="1.5" d="M0,-3.0v7 M-2.5,-0.5L0,-3.0L2.5,-0.5"/>
                </g>
                <g id="arrowLeft" xlink:href="#dirArrow" transform="rotate(270) translate(-36 17)" onmousedown="handlePan(-1,0)">
                  <use xlink:href="#rim" fill="#404040">
                        <set attributeName="fill" to="#808080" begin="arrowLeft.mouseover" end="arrowLeft.mouseout"/>
                  </use>
                  <path fill="none" stroke="white" stroke-width="1.5" d="M0,-3.0v7 M-2.5,-0.5L0,-3.0L2.5,-0.5"/>
                </g>
        </g>
        <svg viewBox="0 0 15 15" width="100%" height="30px" preserveAspectRatio="xMaxYMin meet">
         <g id="arrow_out" transform="scale(0.3 0.3)">
          <a xlink:href="a00134_org.svg" target="_base">
           <rect id="button" ry="5" rx="5" y="6" x="6" height="38" width="38"
                fill="#f2f5e9" fill-opacity="0.5" stroke="#606060" stroke-width="1.0"/>
           <path id="arrow"
             d="M 11.500037,31.436501 C 11.940474,20.09759 22.043105,11.32322 32.158766,21.979434 L 37.068811,17.246167 C 37.068811,17.246167 37.088388,32 37.088388,32 L 22.160133,31.978069 C 22.160133,31.978069 26.997745,27.140456 26.997745,27.140456 C 18.528582,18.264221 13.291696,25.230495 11.500037,31.436501 z"
             style="fill:#404040;"/>
          </a>
         </g>
        </svg>
</svg>
