<?xml version="1.0" encoding="UTF-8" standalone="no"?>
<!DOCTYPE svg PUBLIC "-//W3C//DTD SVG 1.1//EN"
 "http://www.w3.org/Graphics/SVG/1.1/DTD/svg11.dtd">
<!-- Generated by graphviz version 2.38.0 (20140413.2041)
 -->
<!-- Title: hpd_demo_adapter Pages: 1 -->
<svg width="994pt" height="425pt"
 viewBox="0.00 0.00 993.50 425.00" xmlns="http://www.w3.org/2000/svg" xmlns:xlink="http://www.w3.org/1999/xlink">
<g id="graph0" class="graph" transform="scale(1 1) rotate(0) translate(4 421)">
<title>hpd_demo_adapter</title>
<!-- Node1 -->
<g id="node1" class="node"><title>Node1</title>
<polygon fill="#bfbfbf" stroke="black" points="188,-0.5 188,-57.5 287,-57.5 287,-0.5 188,-0.5"/>
<text text-anchor="middle" x="237.5" y="-45.5" font-family="Helvetica,sans-Serif" font-size="10.00">hpd_demo_adapter</text>
<polyline fill="none" stroke="black" points="188,-38.5 287,-38.5 "/>
<text text-anchor="middle" x="237.5" y="-26.5" font-family="Helvetica,sans-Serif" font-size="10.00"> </text>
<polyline fill="none" stroke="black" points="188,-19.5 287,-19.5 "/>
<text text-anchor="middle" x="237.5" y="-7.5" font-family="Helvetica,sans-Serif" font-size="10.00"> </text>
</g>
<!-- Node2 -->
<g id="node2" class="node"><title>Node2</title>
<polygon fill="none" stroke="#bfbfbf" points="221,-210.5 221,-267.5 256,-267.5 256,-210.5 221,-210.5"/>
<text text-anchor="middle" x="238.5" y="-255.5" font-family="Helvetica,sans-Serif" font-size="10.00">char</text>
<polyline fill="none" stroke="#bfbfbf" points="221,-248.5 256,-248.5 "/>
<text text-anchor="middle" x="238.5" y="-236.5" font-family="Helvetica,sans-Serif" font-size="10.00"> </text>
<polyline fill="none" stroke="#bfbfbf" points="221,-229.5 256,-229.5 "/>
<text text-anchor="middle" x="238.5" y="-217.5" font-family="Helvetica,sans-Serif" font-size="10.00"> </text>
</g>
<!-- Node2&#45;&gt;Node1 -->
<g id="edge1" class="edge"><title>Node2&#45;&gt;Node1</title>
<path fill="none" stroke="#404040" d="M238.367,-210.379C238.194,-174.326 237.889,-110.98 237.691,-69.7617"/>
<polygon fill="none" stroke="#404040" points="237.691,-69.7349 233.662,-63.7542 237.633,-57.735 241.662,-63.7157 237.691,-69.7349"/>
<text text-anchor="middle" x="265.5" y="-131.5" font-family="Helvetica,sans-Serif" font-size="10.00"> +module_id</text>
</g>
<!-- Node4 -->
<g id="node4" class="node"><title>Node4</title>
<g id="a_node4"><a xlink:href="a00011.html#a00089" target="_top" xlink:title="{hpd_adapter_id\n||}">
<polygon fill="none" stroke="black" points="310,-105.5 310,-162.5 393,-162.5 393,-105.5 310,-105.5"/>
<text text-anchor="middle" x="351.5" y="-150.5" font-family="Helvetica,sans-Serif" font-size="10.00">hpd_adapter_id</text>
<polyline fill="none" stroke="black" points="310,-143.5 393,-143.5 "/>
<text text-anchor="middle" x="351.5" y="-131.5" font-family="Helvetica,sans-Serif" font-size="10.00"> </text>
<polyline fill="none" stroke="black" points="310,-124.5 393,-124.5 "/>
<text text-anchor="middle" x="351.5" y="-112.5" font-family="Helvetica,sans-Serif" font-size="10.00"> </text>
</a>
</g>
</g>
<!-- Node2&#45;&gt;Node4 -->
<g id="edge4" class="edge"><title>Node2&#45;&gt;Node4</title>
<path fill="none" stroke="#404040" d="M250.68,-210.459C256.053,-200.378 263.079,-189.396 271.5,-181 276.37,-176.144 286.971,-169.372 298.911,-162.515"/>
<polygon fill="none" stroke="#404040" points="299.166,-162.372 302.449,-155.952 309.638,-156.513 306.355,-162.933 299.166,-162.372"/>
<text text-anchor="middle" x="282.5" y="-184" font-family="Helvetica,sans-Serif" font-size="10.00"> +aid</text>
</g>
<!-- Node3 -->
<g id="node3" class="node"><title>Node3</title>
<polygon fill="none" stroke="#bfbfbf" points="169,-359.5 169,-416.5 198,-416.5 198,-359.5 169,-359.5"/>
<text text-anchor="middle" x="183.5" y="-404.5" font-family="Helvetica,sans-Serif" font-size="10.00">int</text>
<polyline fill="none" stroke="#bfbfbf" points="169,-397.5 198,-397.5 "/>
<text text-anchor="middle" x="183.5" y="-385.5" font-family="Helvetica,sans-Serif" font-size="10.00"> </text>
<polyline fill="none" stroke="#bfbfbf" points="169,-378.5 198,-378.5 "/>
<text text-anchor="middle" x="183.5" y="-366.5" font-family="Helvetica,sans-Serif" font-size="10.00"> </text>
</g>
<!-- Node3&#45;&gt;Node1 -->
<g id="edge2" class="edge"><title>Node3&#45;&gt;Node1</title>
<path fill="none" stroke="#404040" d="M178.132,-359.354C171.332,-319.512 161.918,-243.831 174.5,-181 182.536,-140.867 201.485,-98.0739 216.516,-68.3301"/>
<polygon fill="none" stroke="#404040" points="216.549,-68.2652 215.747,-61.0988 222.054,-57.6021 222.856,-64.7685 216.549,-68.2652"/>
<text text-anchor="middle" x="204.5" y="-184" font-family="Helvetica,sans-Serif" font-size="10.00"> +num_lamps</text>
</g>
<!-- Node5 -->
<g id="node5" class="node"><title>Node5</title>
<g id="a_node5"><a xlink:href="a00009.html#a00087" target="_top" xlink:title="{hpd\n||}">
<polygon fill="none" stroke="black" points="492.5,-210.5 492.5,-267.5 524.5,-267.5 524.5,-210.5 492.5,-210.5"/>
<text text-anchor="middle" x="508.5" y="-255.5" font-family="Helvetica,sans-Serif" font-size="10.00">hpd</text>
<polyline fill="none" stroke="black" points="492.5,-248.5 524.5,-248.5 "/>
<text text-anchor="middle" x="508.5" y="-236.5" font-family="Helvetica,sans-Serif" font-size="10.00"> </text>
<polyline fill="none" stroke="black" points="492.5,-229.5 524.5,-229.5 "/>
<text text-anchor="middle" x="508.5" y="-217.5" font-family="Helvetica,sans-Serif" font-size="10.00"> </text>
</a>
</g>
</g>
<!-- Node3&#45;&gt;Node5 -->
<g id="edge13" class="edge"><title>Node3&#45;&gt;Node5</title>
<path fill="none" stroke="#404040" d="M198.241,-370.259C219.973,-346.848 263.079,-305.065 309.5,-286 381.008,-256.632 413.336,-302.53 482.5,-268 482.611,-267.944 482.722,-267.888 482.833,-267.831"/>
<polygon fill="none" stroke="#404040" points="482.629,-267.978 485.171,-261.23 492.377,-260.98 489.836,-267.729 482.629,-267.978"/>
<text text-anchor="middle" x="344.5" y="-311" font-family="Helvetica,sans-Serif" font-size="10.00"> +options_count</text>
</g>
<!-- Node4&#45;&gt;Node1 -->
<g id="edge3" class="edge"><title>Node4&#45;&gt;Node1</title>
<path fill="none" stroke="#404040" d="M320.95,-105.398C307.533,-93.2751 291.603,-78.8824 277.275,-65.9375"/>
<polygon fill="none" stroke="#404040" points="277.038,-65.7232 269.905,-64.6687 268.134,-57.6783 275.268,-58.7327 277.038,-65.7232"/>
<text text-anchor="middle" x="326" y="-79" font-family="Helvetica,sans-Serif" font-size="10.00"> +adapter_id</text>
</g>
<!-- Node5&#45;&gt;Node4 -->
<g id="edge5" class="edge"><title>Node5&#45;&gt;Node4</title>
<path fill="none" stroke="#404040" d="M492.448,-217.717C489.402,-214.796 486.048,-212.081 482.5,-210 453.305,-192.874 438.007,-208.583 408.5,-192 398.927,-186.62 389.867,-179.183 381.905,-171.455"/>
<polygon fill="none" stroke="#404040" points="381.769,-171.314 374.72,-169.792 373.414,-162.701 380.462,-164.222 381.769,-171.314"/>
<text text-anchor="middle" x="421" y="-184" font-family="Helvetica,sans-Serif" font-size="10.00"> +hpd</text>
</g>
<!-- Node8 -->
<g id="node8" class="node"><title>Node8</title>
<g id="a_node8"><a xlink:href="a00005.html#a00083" target="_top" xlink:title="{configuration\n||}">
<polygon fill="none" stroke="black" points="438.5,-105.5 438.5,-162.5 510.5,-162.5 510.5,-105.5 438.5,-105.5"/>
<text text-anchor="middle" x="474.5" y="-150.5" font-family="Helvetica,sans-Serif" font-size="10.00">configuration</text>
<polyline fill="none" stroke="black" points="438.5,-143.5 510.5,-143.5 "/>
<text text-anchor="middle" x="474.5" y="-131.5" font-family="Helvetica,sans-Serif" font-size="10.00"> </text>
<polyline fill="none" stroke="black" points="438.5,-124.5 510.5,-124.5 "/>
<text text-anchor="middle" x="474.5" y="-112.5" font-family="Helvetica,sans-Serif" font-size="10.00"> </text>
</a>
</g>
</g>
<!-- Node5&#45;&gt;Node8 -->
<g id="edge10" class="edge"><title>Node5&#45;&gt;Node8</title>
<path fill="none" stroke="#404040" d="M499.389,-210.398C495.73,-199.314 491.445,-186.333 487.471,-174.296"/>
<polygon fill="none" stroke="#404040" points="487.398,-174.074 481.719,-169.63 483.637,-162.678 489.316,-167.122 487.398,-174.074"/>
<text text-anchor="middle" x="506" y="-184" font-family="Helvetica,sans-Serif" font-size="10.00"> +hpd</text>
</g>
<!-- Node14 -->
<g id="node14" class="node"><title>Node14</title>
<g id="a_node14"><a xlink:href="a00020.html" target="_top" xlink:title="{hpd_module\n||+ TAILQ_ENTRY()\l}">
<polygon fill="none" stroke="black" points="732.5,-105.5 732.5,-162.5 832.5,-162.5 832.5,-105.5 732.5,-105.5"/>
<text text-anchor="middle" x="782.5" y="-150.5" font-family="Helvetica,sans-Serif" font-size="10.00">hpd_module</text>
<polyline fill="none" stroke="black" points="732.5,-143.5 832.5,-143.5 "/>
<text text-anchor="middle" x="782.5" y="-131.5" font-family="Helvetica,sans-Serif" font-size="10.00"> </text>
<polyline fill="none" stroke="black" points="732.5,-124.5 832.5,-124.5 "/>
<text text-anchor="start" x="740.5" y="-112.5" font-family="Helvetica,sans-Serif" font-size="10.00">+ TAILQ_ENTRY()</text>
</a>
</g>
</g>
<!-- Node5&#45;&gt;Node14 -->
<g id="edge19" class="edge"><title>Node5&#45;&gt;Node14</title>
<path fill="none" stroke="#404040" d="M524.679,-229.991C548.563,-218.341 594.827,-196.429 635.5,-181 663.036,-170.554 694.086,-160.583 720.531,-152.611"/>
<polygon fill="none" stroke="#404040" points="720.827,-152.522 725.435,-146.975 732.327,-149.094 727.72,-154.641 720.827,-152.522"/>
<text text-anchor="middle" x="648" y="-184" font-family="Helvetica,sans-Serif" font-size="10.00"> +hpd</text>
</g>
<!-- Node6 -->
<g id="node6" class="node"><title>Node6</title>
<polygon fill="none" stroke="#bfbfbf" points="316.5,-359.5 316.5,-416.5 398.5,-416.5 398.5,-359.5 316.5,-359.5"/>
<text text-anchor="middle" x="357.5" y="-404.5" font-family="Helvetica,sans-Serif" font-size="10.00">argp_option_t *</text>
<polyline fill="none" stroke="#bfbfbf" points="316.5,-397.5 398.5,-397.5 "/>
<text text-anchor="middle" x="357.5" y="-385.5" font-family="Helvetica,sans-Serif" font-size="10.00"> </text>
<polyline fill="none" stroke="#bfbfbf" points="316.5,-378.5 398.5,-378.5 "/>
<text text-anchor="middle" x="357.5" y="-366.5" font-family="Helvetica,sans-Serif" font-size="10.00"> </text>
</g>
<!-- Node6&#45;&gt;Node5 -->
<g id="edge6" class="edge"><title>Node6&#45;&gt;Node5</title>
<path fill="none" stroke="#404040" d="M370.673,-359.266C382.767,-336.574 402.71,-305.198 428.5,-286 448.793,-270.894 461.23,-281.696 482.5,-268 482.608,-267.93 482.716,-267.86 482.824,-267.79"/>
<polygon fill="none" stroke="#404040" points="483.011,-267.636 485.118,-260.74 492.294,-260.032 490.187,-266.929 483.011,-267.636"/>
<text text-anchor="middle" x="449" y="-311" font-family="Helvetica,sans-Serif" font-size="10.00"> +options</text>
</g>
<!-- Node7 -->
<g id="node7" class="node"><title>Node7</title>
<polygon fill="none" stroke="#bfbfbf" points="417,-359.5 417,-416.5 498,-416.5 498,-359.5 417,-359.5"/>
<text text-anchor="middle" x="457.5" y="-404.5" font-family="Helvetica,sans-Serif" font-size="10.00">struct modules</text>
<polyline fill="none" stroke="#bfbfbf" points="417,-397.5 498,-397.5 "/>
<text text-anchor="middle" x="457.5" y="-385.5" font-family="Helvetica,sans-Serif" font-size="10.00"> </text>
<polyline fill="none" stroke="#bfbfbf" points="417,-378.5 498,-378.5 "/>
<text text-anchor="middle" x="457.5" y="-366.5" font-family="Helvetica,sans-Serif" font-size="10.00"> </text>
</g>
<!-- Node7&#45;&gt;Node5 -->
<g id="edge7" class="edge"><title>Node7&#45;&gt;Node5</title>
<path fill="none" stroke="#404040" d="M466.519,-359.49C473.25,-339.14 482.754,-310.774 491.5,-286 492.286,-283.772 493.102,-281.487 493.932,-279.182"/>
<polygon fill="none" stroke="#404040" points="494.013,-278.958 492.308,-271.951 498.12,-267.683 499.825,-274.689 494.013,-278.958"/>
<text text-anchor="middle" x="514.5" y="-311" font-family="Helvetica,sans-Serif" font-size="10.00"> +modules</text>
</g>
<!-- Node8&#45;&gt;Node5 -->
<g id="edge8" class="edge"><title>Node8&#45;&gt;Node5</title>
<path fill="none" stroke="#404040" d="M510.675,-158.142C517.887,-164.602 524.473,-172.279 528.5,-181 531.858,-188.271 531.432,-196.276 529.182,-203.931"/>
<polygon fill="none" stroke="#404040" points="529.145,-204.024 530.587,-211.089 524.62,-215.138 523.177,-208.073 529.145,-204.024"/>
<text text-anchor="middle" x="564" y="-184" font-family="Helvetica,sans-Serif" font-size="10.00"> +configuration</text>
</g>
<!-- Node9 -->
<g id="node9" class="node"><title>Node9</title>
<polygon fill="none" stroke="#bfbfbf" points="274.5,-210.5 274.5,-267.5 356.5,-267.5 356.5,-210.5 274.5,-210.5"/>
<text text-anchor="middle" x="315.5" y="-255.5" font-family="Helvetica,sans-Serif" font-size="10.00">struct adapters</text>
<polyline fill="none" stroke="#bfbfbf" points="274.5,-248.5 356.5,-248.5 "/>
<text text-anchor="middle" x="315.5" y="-236.5" font-family="Helvetica,sans-Serif" font-size="10.00"> </text>
<polyline fill="none" stroke="#bfbfbf" points="274.5,-229.5 356.5,-229.5 "/>
<text text-anchor="middle" x="315.5" y="-217.5" font-family="Helvetica,sans-Serif" font-size="10.00"> </text>
</g>
<!-- Node9&#45;&gt;Node8 -->
<g id="edge9" class="edge"><title>Node9&#45;&gt;Node8</title>
<path fill="none" stroke="#404040" d="M323.803,-210.342C328.172,-199.884 334.535,-188.668 343.5,-181 364.012,-163.457 375.997,-171.838 401.5,-163 409.789,-160.128 418.544,-156.921 427.003,-153.732"/>
<polygon fill="none" stroke="#404040" points="427.071,-153.706 431.251,-147.83 438.283,-149.428 434.103,-155.304 427.071,-153.706"/>
<text text-anchor="middle" x="367" y="-184" font-family="Helvetica,sans-Serif" font-size="10.00"> +adapters</text>
</g>
<!-- Node10 -->
<g id="node10" class="node"><title>Node10</title>
<polygon fill="none" stroke="#bfbfbf" points="393,-210.5 393,-267.5 474,-267.5 474,-210.5 393,-210.5"/>
<text text-anchor="middle" x="433.5" y="-255.5" font-family="Helvetica,sans-Serif" font-size="10.00">struct listeners</text>
<polyline fill="none" stroke="#bfbfbf" points="393,-248.5 474,-248.5 "/>
<text text-anchor="middle" x="433.5" y="-236.5" font-family="Helvetica,sans-Serif" font-size="10.00"> </text>
<polyline fill="none" stroke="#bfbfbf" points="393,-229.5 474,-229.5 "/>
<text text-anchor="middle" x="433.5" y="-217.5" font-family="Helvetica,sans-Serif" font-size="10.00"> </text>
</g>
<!-- Node10&#45;&gt;Node8 -->
<g id="edge11" class="edge"><title>Node10&#45;&gt;Node8</title>
<path fill="none" stroke="#404040" d="M434.045,-210.326C434.97,-200.77 436.845,-190.169 440.5,-181 441.571,-178.315 442.837,-175.645 444.242,-173.023"/>
<polygon fill="none" stroke="#404040" points="444.368,-172.817 444.094,-165.611 450.64,-162.587 450.914,-169.793 444.368,-172.817"/>
<text text-anchor="middle" x="463.5" y="-184" font-family="Helvetica,sans-Serif" font-size="10.00"> +listeners</text>
</g>
<!-- Node11 -->
<g id="node11" class="node"><title>Node11</title>
<polygon fill="none" stroke="#bfbfbf" points="516.5,-359.5 516.5,-416.5 602.5,-416.5 602.5,-359.5 516.5,-359.5"/>
<text text-anchor="middle" x="559.5" y="-404.5" font-family="Helvetica,sans-Serif" font-size="10.00">hpd_ev_loop_t *</text>
<polyline fill="none" stroke="#bfbfbf" points="516.5,-397.5 602.5,-397.5 "/>
<text text-anchor="middle" x="559.5" y="-385.5" font-family="Helvetica,sans-Serif" font-size="10.00"> </text>
<polyline fill="none" stroke="#bfbfbf" points="516.5,-378.5 602.5,-378.5 "/>
<text text-anchor="middle" x="559.5" y="-366.5" font-family="Helvetica,sans-Serif" font-size="10.00"> </text>
</g>
<!-- Node11&#45;&gt;Node5 -->
<g id="edge12" class="edge"><title>Node11&#45;&gt;Node5</title>
<path fill="none" stroke="#404040" d="M556.107,-359.219C552.946,-338.482 547.221,-309.75 537.5,-286 535.662,-281.509 533.392,-276.966 530.939,-272.574"/>
<polygon fill="none" stroke="#404040" points="530.806,-272.354 524.281,-269.286 524.603,-262.082 531.129,-265.15 530.806,-272.354"/>
<text text-anchor="middle" x="567.5" y="-311" font-family="Helvetica,sans-Serif" font-size="10.00"> +loop</text>
</g>
<!-- Node12 -->
<g id="node12" class="node"><title>Node12</title>
<polygon fill="none" stroke="#bfbfbf" points="620.5,-359.5 620.5,-416.5 678.5,-416.5 678.5,-359.5 620.5,-359.5"/>
<text text-anchor="middle" x="649.5" y="-404.5" font-family="Helvetica,sans-Serif" font-size="10.00">ev_signal</text>
<polyline fill="none" stroke="#bfbfbf" points="620.5,-397.5 678.5,-397.5 "/>
<text text-anchor="middle" x="649.5" y="-385.5" font-family="Helvetica,sans-Serif" font-size="10.00"> </text>
<polyline fill="none" stroke="#bfbfbf" points="620.5,-378.5 678.5,-378.5 "/>
<text text-anchor="middle" x="649.5" y="-366.5" font-family="Helvetica,sans-Serif" font-size="10.00"> </text>
</g>
<!-- Node12&#45;&gt;Node5 -->
<g id="edge14" class="edge"><title>Node12&#45;&gt;Node5</title>
<path fill="none" stroke="#404040" d="M636.461,-359.242C625.217,-337.434 607.359,-307.292 585.5,-286 571.1,-271.974 551.643,-260.396 535.89,-252.364"/>
<polygon fill="none" stroke="#404040" points="535.505,-252.177 528.36,-253.152 524.712,-246.932 531.857,-245.957 535.505,-252.177"/>
<text text-anchor="middle" x="667.5" y="-316.5" font-family="Helvetica,sans-Serif" font-size="10.00"> +sigterm_watcher</text>
<text text-anchor="middle" x="667.5" y="-305.5" font-family="Helvetica,sans-Serif" font-size="10.00">+sigint_watcher</text>
</g>
<!-- Node13 -->
<g id="node13" class="node"><title>Node13</title>
<polygon fill="none" stroke="#bfbfbf" points="0,-359.5 0,-416.5 113,-416.5 113,-359.5 0,-359.5"/>
<text text-anchor="middle" x="56.5" y="-404.5" font-family="Helvetica,sans-Serif" font-size="10.00">struct hpd_ev_asyncs</text>
<polyline fill="none" stroke="#bfbfbf" points="0,-397.5 113,-397.5 "/>
<text text-anchor="middle" x="56.5" y="-385.5" font-family="Helvetica,sans-Serif" font-size="10.00"> </text>
<polyline fill="none" stroke="#bfbfbf" points="0,-378.5 113,-378.5 "/>
<text text-anchor="middle" x="56.5" y="-366.5" font-family="Helvetica,sans-Serif" font-size="10.00"> </text>
</g>
<!-- Node13&#45;&gt;Node5 -->
<g id="edge15" class="edge"><title>Node13&#45;&gt;Node5</title>
<path fill="none" stroke="#404040" d="M69.6437,-359.206C82.6725,-335.151 105.082,-301.813 135.5,-286 204.01,-250.383 412.545,-300.688 482.5,-268 482.613,-267.947 482.725,-267.894 482.837,-267.84"/>
<polygon fill="none" stroke="#404040" points="482.608,-268 485.247,-261.289 492.456,-261.144 489.817,-267.855 482.608,-268"/>
<text text-anchor="middle" x="181" y="-333" font-family="Helvetica,sans-Serif" font-size="10.00"> +respond_watchers</text>
<text text-anchor="middle" x="181" y="-322" font-family="Helvetica,sans-Serif" font-size="10.00">+request_watchers</text>
<text text-anchor="middle" x="181" y="-311" font-family="Helvetica,sans-Serif" font-size="10.00">+changed_watchers</text>
<text text-anchor="middle" x="181" y="-300" font-family="Helvetica,sans-Serif" font-size="10.00">+attached_watchers</text>
<text text-anchor="middle" x="181" y="-289" font-family="Helvetica,sans-Serif" font-size="10.00">+detached_watchers</text>
</g>
<!-- Node14&#45;&gt;Node5 -->
<g id="edge16" class="edge"><title>Node14&#45;&gt;Node5</title>
<path fill="none" stroke="#404040" d="M732.48,-161.398C711.778,-171.731 687.317,-183.193 664.5,-192 620.742,-208.89 568.089,-223.229 536.508,-231.216"/>
<polygon fill="none" stroke="#404040" points="536.378,-231.248 531.521,-236.579 524.733,-234.146 529.589,-228.815 536.378,-231.248"/>
<text text-anchor="middle" x="724" y="-184" font-family="Helvetica,sans-Serif" font-size="10.00"> +option2module</text>
</g>
<!-- Node15 -->
<g id="node15" class="node"><title>Node15</title>
<g id="a_node15"><a xlink:href="a00021.html#a00100" target="_top" xlink:title="[Application API Callbacks] ">
<polygon fill="none" stroke="black" points="876.5,-210.5 876.5,-267.5 964.5,-267.5 964.5,-210.5 876.5,-210.5"/>
<text text-anchor="middle" x="920.5" y="-255.5" font-family="Helvetica,sans-Serif" font-size="10.00">hpd_module_def</text>
<polyline fill="none" stroke="black" points="876.5,-248.5 964.5,-248.5 "/>
<text text-anchor="middle" x="920.5" y="-236.5" font-family="Helvetica,sans-Serif" font-size="10.00"> </text>
<polyline fill="none" stroke="black" points="876.5,-229.5 964.5,-229.5 "/>
<text text-anchor="middle" x="920.5" y="-217.5" font-family="Helvetica,sans-Serif" font-size="10.00"> </text>
</a>
</g>
</g>
<!-- Node15&#45;&gt;Node14 -->
<g id="edge17" class="edge"><title>Node15&#45;&gt;Node14</title>
<path fill="none" stroke="#404040" d="M883.519,-210.398C866.967,-198.044 847.257,-183.333 829.66,-170.199"/>
<polygon fill="none" stroke="#404040" points="829.2,-169.856 821.999,-169.473 819.584,-162.678 826.784,-163.062 829.2,-169.856"/>
<text text-anchor="middle" x="867" y="-184" font-family="Helvetica,sans-Serif" font-size="10.00"> +def</text>
</g>
<!-- Node16 -->
<g id="node16" class="node"><title>Node16</title>
<polygon fill="none" stroke="#bfbfbf" points="878.5,-359.5 878.5,-416.5 962.5,-416.5 962.5,-359.5 878.5,-359.5"/>
<text text-anchor="middle" x="920.5" y="-404.5" font-family="Helvetica,sans-Serif" font-size="10.00">enum hpd_error</text>
<polyline fill="none" stroke="#bfbfbf" points="878.5,-397.5 962.5,-397.5 "/>
<text text-anchor="middle" x="920.5" y="-385.5" font-family="Helvetica,sans-Serif" font-size="10.00"> </text>
<polyline fill="none" stroke="#bfbfbf" points="878.5,-378.5 962.5,-378.5 "/>
<text text-anchor="middle" x="920.5" y="-366.5" font-family="Helvetica,sans-Serif" font-size="10.00"> </text>
</g>
<!-- Node16&#45;&gt;Node15 -->
<g id="edge18" class="edge"><title>Node16&#45;&gt;Node15</title>
<path fill="none" stroke="#404040" d="M920.5,-359.35C920.5,-336.868 920.5,-304.855 920.5,-279.643"/>
<polygon fill="none" stroke="#404040" points="920.5,-279.526 916.5,-273.526 920.5,-267.526 924.5,-273.526 920.5,-279.526"/>
<text text-anchor="middle" x="953" y="-333" font-family="Helvetica,sans-Serif" font-size="10.00"> +on_create</text>
<text text-anchor="middle" x="953" y="-322" font-family="Helvetica,sans-Serif" font-size="10.00">+on_stop</text>
<text text-anchor="middle" x="953" y="-311" font-family="Helvetica,sans-Serif" font-size="10.00">+on_destroy</text>
<text text-anchor="middle" x="953" y="-300" font-family="Helvetica,sans-Serif" font-size="10.00">+on_start</text>
<text text-anchor="middle" x="953" y="-289" font-family="Helvetica,sans-Serif" font-size="10.00">+on_parse_opt</text>
</g>
<!-- Node17 -->
<g id="node17" class="node"><title>Node17</title>
<polygon fill="none" stroke="#bfbfbf" points="757,-210.5 757,-267.5 798,-267.5 798,-210.5 757,-210.5"/>
<text text-anchor="middle" x="777.5" y="-255.5" font-family="Helvetica,sans-Serif" font-size="10.00">void *</text>
<polyline fill="none" stroke="#bfbfbf" points="757,-248.5 798,-248.5 "/>
<text text-anchor="middle" x="777.5" y="-236.5" font-family="Helvetica,sans-Serif" font-size="10.00"> </text>
<polyline fill="none" stroke="#bfbfbf" points="757,-229.5 798,-229.5 "/>
<text text-anchor="middle" x="777.5" y="-217.5" font-family="Helvetica,sans-Serif" font-size="10.00"> </text>
</g>
<!-- Node17&#45;&gt;Node14 -->
<g id="edge20" class="edge"><title>Node17&#45;&gt;Node14</title>
<path fill="none" stroke="#404040" d="M778.84,-210.398C779.372,-199.43 779.995,-186.603 780.574,-174.672"/>
<polygon fill="none" stroke="#404040" points="780.574,-174.664 776.87,-168.477 781.156,-162.678 784.861,-168.865 780.574,-174.664"/>
<text text-anchor="middle" x="793.5" y="-184" font-family="Helvetica,sans-Serif" font-size="10.00"> +data</text>
</g>
<!-- Node18 -->
<g id="node18" class="node"><title>Node18</title>
<polygon fill="none" stroke="#bfbfbf" points="816.5,-210.5 816.5,-267.5 858.5,-267.5 858.5,-210.5 816.5,-210.5"/>
<text text-anchor="middle" x="837.5" y="-255.5" font-family="Helvetica,sans-Serif" font-size="10.00">char *</text>
<polyline fill="none" stroke="#bfbfbf" points="816.5,-248.5 858.5,-248.5 "/>
<text text-anchor="middle" x="837.5" y="-236.5" font-family="Helvetica,sans-Serif" font-size="10.00"> </text>
<polyline fill="none" stroke="#bfbfbf" points="816.5,-229.5 858.5,-229.5 "/>
<text text-anchor="middle" x="837.5" y="-217.5" font-family="Helvetica,sans-Serif" font-size="10.00"> </text>
</g>
<!-- Node18&#45;&gt;Node14 -->
<g id="edge21" class="edge"><title>Node18&#45;&gt;Node14</title>
<path fill="none" stroke="#404040" d="M825.802,-210.381C821.563,-200.93 816.566,-190.379 811.5,-181 810.137,-178.477 808.69,-175.905 807.196,-173.331"/>
<polygon fill="none" stroke="#404040" points="807.085,-173.146 800.566,-170.065 800.902,-162.862 807.422,-165.943 807.085,-173.146"/>
<text text-anchor="middle" x="825" y="-184" font-family="Helvetica,sans-Serif" font-size="10.00"> +id</text>
</g>
</g>
</svg>
