<?xml version="1.0" encoding="UTF-8" standalone="no"?>
<!DOCTYPE svg PUBLIC "-//W3C//DTD SVG 1.1//EN"
 "http://www.w3.org/Graphics/SVG/1.1/DTD/svg11.dtd">
<!-- Generated by graphviz version 2.38.0 (20140413.2041)
 -->
<!-- Title: common/httpd/test/header_parser_test.c Pages: 1 -->
<svg width="404pt" height="207pt"
 viewBox="0.00 0.00 403.50 207.00" xmlns="http://www.w3.org/2000/svg" xmlns:xlink="http://www.w3.org/1999/xlink">
<g id="graph0" class="graph" transform="scale(1 1) rotate(0) translate(4 203)">
<title>common/httpd/test/header_parser_test.c</title>
<!-- Node1 -->
<g id="node1" class="node"><title>Node1</title>
<polygon fill="#bfbfbf" stroke="black" points="165,-168.5 165,-198.5 296,-198.5 296,-168.5 165,-168.5"/>
<text text-anchor="start" x="173" y="-186.5" font-family="Helvetica,sans-Serif" font-size="10.00">common/httpd/test/header</text>
<text text-anchor="middle" x="230.5" y="-175.5" font-family="Helvetica,sans-Serif" font-size="10.00">_parser_test.c</text>
</g>
<!-- Node2 -->
<g id="node2" class="node"><title>Node2</title>
<polygon fill="none" stroke="#bfbfbf" points="107.5,-112.5 107.5,-131.5 169.5,-131.5 169.5,-112.5 107.5,-112.5"/>
<text text-anchor="middle" x="138.5" y="-119.5" font-family="Helvetica,sans-Serif" font-size="10.00">unit_test.h</text>
</g>
<!-- Node1&#45;&gt;Node2 -->
<g id="edge1" class="edge"><title>Node1&#45;&gt;Node2</title>
<path fill="none" stroke="midnightblue" d="M208.697,-168.399C194.088,-158.951 174.927,-146.559 160.315,-137.109"/>
<polygon fill="midnightblue" stroke="midnightblue" points="162.184,-134.15 151.887,-131.658 158.383,-140.027 162.184,-134.15"/>
</g>
<!-- Node3 -->
<g id="node3" class="node"><title>Node3</title>
<g id="a_node3"><a xlink:href="a00007.html" target="_top" xlink:title="header_parser.c">
<polygon fill="none" stroke="black" points="187.5,-112.5 187.5,-131.5 273.5,-131.5 273.5,-112.5 187.5,-112.5"/>
<text text-anchor="middle" x="230.5" y="-119.5" font-family="Helvetica,sans-Serif" font-size="10.00">header_parser.c</text>
</a>
</g>
</g>
<!-- Node1&#45;&gt;Node3 -->
<g id="edge2" class="edge"><title>Node1&#45;&gt;Node3</title>
<path fill="none" stroke="midnightblue" d="M230.5,-168.399C230.5,-160.466 230.5,-150.458 230.5,-141.858"/>
<polygon fill="midnightblue" stroke="midnightblue" points="234,-141.658 230.5,-131.658 227,-141.658 234,-141.658"/>
</g>
<!-- Node6 -->
<g id="node6" class="node"><title>Node6</title>
<polygon fill="none" stroke="#bfbfbf" points="349.5,-56.5 349.5,-75.5 395.5,-75.5 395.5,-56.5 349.5,-56.5"/>
<text text-anchor="middle" x="372.5" y="-63.5" font-family="Helvetica,sans-Serif" font-size="10.00">stdio.h</text>
</g>
<!-- Node1&#45;&gt;Node6 -->
<g id="edge12" class="edge"><title>Node1&#45;&gt;Node6</title>
<path fill="none" stroke="midnightblue" d="M247.912,-168.337C274.776,-146.487 326.111,-104.732 353.758,-82.244"/>
<polygon fill="midnightblue" stroke="midnightblue" points="356.292,-84.6948 361.841,-75.6695 351.875,-79.2643 356.292,-84.6948"/>
</g>
<!-- Node4 -->
<g id="node4" class="node"><title>Node4</title>
<polygon fill="none" stroke="#bfbfbf" points="0,-56.5 0,-75.5 49,-75.5 49,-56.5 0,-56.5"/>
<text text-anchor="middle" x="24.5" y="-63.5" font-family="Helvetica,sans-Serif" font-size="10.00">string.h</text>
</g>
<!-- Node3&#45;&gt;Node4 -->
<g id="edge3" class="edge"><title>Node3&#45;&gt;Node4</title>
<path fill="none" stroke="midnightblue" d="M197.839,-112.485C165.196,-103.968 113.306,-90.4112 58.8457,-76.0853"/>
<polygon fill="midnightblue" stroke="midnightblue" points="59.5733,-72.6576 49.0118,-73.4974 57.7918,-79.4272 59.5733,-72.6576"/>
</g>
<!-- Node5 -->
<g id="node5" class="node"><title>Node5</title>
<polygon fill="none" stroke="#bfbfbf" points="67.5,-56.5 67.5,-75.5 115.5,-75.5 115.5,-56.5 67.5,-56.5"/>
<text text-anchor="middle" x="91.5" y="-63.5" font-family="Helvetica,sans-Serif" font-size="10.00">stdlib.h</text>
</g>
<!-- Node3&#45;&gt;Node5 -->
<g id="edge4" class="edge"><title>Node3&#45;&gt;Node5</title>
<path fill="none" stroke="midnightblue" d="M208.475,-112.444C185.396,-103.478 148.938,-89.314 122.859,-79.1827"/>
<polygon fill="midnightblue" stroke="midnightblue" points="124.011,-75.8753 113.422,-75.5164 121.476,-82.4002 124.011,-75.8753"/>
</g>
<!-- Node3&#45;&gt;Node6 -->
<g id="edge5" class="edge"><title>Node3&#45;&gt;Node6</title>
<path fill="none" stroke="midnightblue" d="M253,-112.444C276.577,-103.478 313.822,-89.314 340.464,-79.1827"/>
<polygon fill="midnightblue" stroke="midnightblue" points="342.002,-82.3424 350.105,-75.5164 339.514,-75.7995 342.002,-82.3424"/>
</g>
<!-- Node7 -->
<g id="node7" class="node"><title>Node7</title>
<g id="a_node7"><a xlink:href="a00008.html" target="_top" xlink:title="header_parser.h">
<polygon fill="none" stroke="black" points="133.5,-56.5 133.5,-75.5 219.5,-75.5 219.5,-56.5 133.5,-56.5"/>
<text text-anchor="middle" x="176.5" y="-63.5" font-family="Helvetica,sans-Serif" font-size="10.00">header_parser.h</text>
</a>
</g>
</g>
<!-- Node3&#45;&gt;Node7 -->
<g id="edge6" class="edge"><title>Node3&#45;&gt;Node7</title>
<path fill="none" stroke="midnightblue" d="M221.583,-112.083C213.72,-104.22 202.069,-92.5688 192.581,-83.0813"/>
<polygon fill="midnightblue" stroke="midnightblue" points="194.797,-80.3473 185.251,-75.7511 189.847,-85.2971 194.797,-80.3473"/>
</g>
<!-- Node9 -->
<g id="node9" class="node"><title>Node9</title>
<g id="a_node9"><a xlink:href="a00056.html" target="_top" xlink:title="hpd_shared_api.h">
<polygon fill="none" stroke="black" points="238,-56.5 238,-75.5 331,-75.5 331,-56.5 238,-56.5"/>
<text text-anchor="middle" x="284.5" y="-63.5" font-family="Helvetica,sans-Serif" font-size="10.00">hpd_shared_api.h</text>
</a>
</g>
</g>
<!-- Node3&#45;&gt;Node9 -->
<g id="edge8" class="edge"><title>Node3&#45;&gt;Node9</title>
<path fill="none" stroke="midnightblue" d="M239.417,-112.083C247.28,-104.22 258.931,-92.5688 268.419,-83.0813"/>
<polygon fill="midnightblue" stroke="midnightblue" points="271.153,-85.2971 275.749,-75.7511 266.203,-80.3473 271.153,-85.2971"/>
</g>
<!-- Node8 -->
<g id="node8" class="node"><title>Node8</title>
<g id="a_node8"><a xlink:href="a00021.html" target="_top" xlink:title="hpd_types.h">
<polygon fill="none" stroke="black" points="148.5,-0.5 148.5,-19.5 218.5,-19.5 218.5,-0.5 148.5,-0.5"/>
<text text-anchor="middle" x="183.5" y="-7.5" font-family="Helvetica,sans-Serif" font-size="10.00">hpd_types.h</text>
</a>
</g>
</g>
<!-- Node7&#45;&gt;Node8 -->
<g id="edge7" class="edge"><title>Node7&#45;&gt;Node8</title>
<path fill="none" stroke="midnightblue" d="M177.656,-56.083C178.584,-48.9272 179.918,-38.6353 181.077,-29.6911"/>
<polygon fill="midnightblue" stroke="midnightblue" points="184.551,-30.1181 182.366,-19.7511 177.609,-29.2181 184.551,-30.1181"/>
</g>
<!-- Node9&#45;&gt;Node8 -->
<g id="edge9" class="edge"><title>Node9&#45;&gt;Node8</title>
<path fill="none" stroke="midnightblue" d="M268.273,-56.324C252.149,-47.7034 227.2,-34.3643 208.536,-24.3855"/>
<polygon fill="midnightblue" stroke="midnightblue" points="210.156,-21.283 199.687,-19.6545 206.856,-27.456 210.156,-21.283"/>
</g>
<!-- Node10 -->
<g id="node10" class="node"><title>Node10</title>
<polygon fill="none" stroke="#bfbfbf" points="250.5,-0.5 250.5,-19.5 302.5,-19.5 302.5,-0.5 250.5,-0.5"/>
<text text-anchor="middle" x="276.5" y="-7.5" font-family="Helvetica,sans-Serif" font-size="10.00">stddef.h</text>
</g>
<!-- Node9&#45;&gt;Node10 -->
<g id="edge10" class="edge"><title>Node9&#45;&gt;Node10</title>
<path fill="none" stroke="midnightblue" d="M283.179,-56.083C282.119,-48.9272 280.594,-38.6353 279.269,-29.6911"/>
<polygon fill="midnightblue" stroke="midnightblue" points="282.724,-29.1302 277.796,-19.7511 275.8,-30.1561 282.724,-29.1302"/>
</g>
<!-- Node11 -->
<g id="node11" class="node"><title>Node11</title>
<polygon fill="none" stroke="#bfbfbf" points="320.5,-0.5 320.5,-19.5 372.5,-19.5 372.5,-0.5 320.5,-0.5"/>
<text text-anchor="middle" x="346.5" y="-7.5" font-family="Helvetica,sans-Serif" font-size="10.00">stdarg.h</text>
</g>
<!-- Node9&#45;&gt;Node11 -->
<g id="edge11" class="edge"><title>Node9&#45;&gt;Node11</title>
<path fill="none" stroke="midnightblue" d="M294.461,-56.324C303.627,-48.3414 317.437,-36.3128 328.528,-26.6529"/>
<polygon fill="midnightblue" stroke="midnightblue" points="331.115,-29.041 336.357,-19.8339 326.518,-23.7624 331.115,-29.041"/>
</g>
</g>
</svg>
