<?xml version="1.0" encoding="UTF-8" standalone="no"?>
<!DOCTYPE svg PUBLIC "-//W3C//DTD SVG 1.1//EN"
 "http://www.w3.org/Graphics/SVG/1.1/DTD/svg11.dtd">
<!-- Generated by graphviz version 2.38.0 (20140413.2041)
 -->
<!-- Title: hpd_httpd Pages: 1 -->
<!--zoomable 745 -->
<svg id="main" version="1.1" xmlns="http://www.w3.org/2000/svg" xmlns:xlink="http://www.w3.org/1999/xlink" xml:space="preserve" onload="init(evt)">
<style type="text/css"><![CDATA[
.edge:hover path { stroke: red; }
.edge:hover polygon { stroke: red; fill: red; }
]]></style>
<script type="text/javascript"><![CDATA[
var edges = document.getElementsByTagName('g');
if (edges && edges.length) {
  for (var i=0;i<edges.length;i++) {
    if (edges[i].id.substr(0,4)=='edge') {
      edges[i].setAttribute('class','edge');
    }
  }
}
]]></script>
        <defs>
                <circle id="rim" cx="0" cy="0" r="7"/>
                <circle id="rim2" cx="0" cy="0" r="3.5"/>
                <g id="zoomPlus">
                        <use xlink:href="#rim" fill="#404040">
                                <set attributeName="fill" to="#808080" begin="zoomplus.mouseover" end="zoomplus.mouseout"/>
                        </use>
                        <path d="M-4,0h8M0,-4v8" fill="none" stroke="white" stroke-width="1.5" pointer-events="none"/>
                </g>
                <g id="zoomMin">
                        <use xlink:href="#rim" fill="#404040">
                                <set attributeName="fill" to="#808080" begin="zoomminus.mouseover" end="zoomminus.mouseout"/>
                        </use>
                        <path d="M-4,0h8" fill="none" stroke="white" stroke-width="1.5" pointer-events="none"/>
                </g>
                <g id="dirArrow">
                        <path fill="none" stroke="white" stroke-width="1.5" d="M0,-3.0v7 M-2.5,-0.5L0,-3.0L2.5,-0.5"/>
                </g>
               <g id="resetDef">
                       <use xlink:href="#rim2" fill="#404040">
                               <set attributeName="fill" to="#808080" begin="reset.mouseover" end="reset.mouseout"/>
                       </use>
               </g>
        </defs>

<script type="text/javascript">
var viewWidth = 1273;
var viewHeight = 745;
var sectionId = 'dynsection-1';
</script>
<script xlink:href="svgpan.js"/>
<svg id="graph" class="graph">
<g id="viewport">
<title>hpd_httpd</title>
<!-- Node1 -->
<g id="node1" class="node"><title>Node1</title>
<polygon fill="#bfbfbf" stroke="black" points="459.5,-193.5 459.5,-250.5 518.5,-250.5 518.5,-193.5 459.5,-193.5"/>
<text text-anchor="middle" x="489" y="-238.5" font-family="Helvetica,sans-Serif" font-size="10.00">hpd_httpd</text>
<polyline fill="none" stroke="black" points="459.5,-231.5 518.5,-231.5 "/>
<text text-anchor="middle" x="489" y="-219.5" font-family="Helvetica,sans-Serif" font-size="10.00"> </text>
<polyline fill="none" stroke="black" points="459.5,-212.5 518.5,-212.5 "/>
<text text-anchor="middle" x="489" y="-200.5" font-family="Helvetica,sans-Serif" font-size="10.00"> </text>
</g>
<!-- Node2 -->
<g id="node2" class="node"><title>Node2</title>
<g id="a_node2"><a xlink:href="a00027.html#a00122" target="_top" xlink:title="Settings struct for webserver. ">
<polygon fill="none" stroke="black" points="117.5,-0.5 117.5,-57.5 216.5,-57.5 216.5,-0.5 117.5,-0.5"/>
<text text-anchor="middle" x="167" y="-45.5" font-family="Helvetica,sans-Serif" font-size="10.00">hpd_httpd_settings</text>
<polyline fill="none" stroke="black" points="117.5,-38.5 216.5,-38.5 "/>
<text text-anchor="middle" x="167" y="-26.5" font-family="Helvetica,sans-Serif" font-size="10.00"> </text>
<polyline fill="none" stroke="black" points="117.5,-19.5 216.5,-19.5 "/>
<text text-anchor="middle" x="167" y="-7.5" font-family="Helvetica,sans-Serif" font-size="10.00"> </text>
</a>
</g>
</g>
<!-- Node1&#45;&gt;Node2 -->
<g id="edge4" class="edge"><title>Node1&#45;&gt;Node2</title>
<path fill="none" stroke="#404040" d="M482.046,-193.499C472.122,-160.189 450.56,-104.953 411,-76 382.628,-55.2349 291.341,-42.2556 228.84,-35.5711"/>
<polygon fill="none" stroke="#404040" points="228.686,-35.5553 222.306,-38.9152 216.75,-34.3177 223.131,-30.9578 228.686,-35.5553"/>
<text text-anchor="middle" x="517" y="-167" font-family="Helvetica,sans-Serif" font-size="10.00"> +on_req_hdr_cmpl</text>
<text text-anchor="middle" x="517" y="-156" font-family="Helvetica,sans-Serif" font-size="10.00">+on_req_destroy</text>
<text text-anchor="middle" x="517" y="-145" font-family="Helvetica,sans-Serif" font-size="10.00">+on_req_begin</text>
<text text-anchor="middle" x="517" y="-134" font-family="Helvetica,sans-Serif" font-size="10.00">+on_req_hdr_value</text>
<text text-anchor="middle" x="517" y="-123" font-family="Helvetica,sans-Serif" font-size="10.00">+on_req_url_cmpl</text>
<text text-anchor="middle" x="517" y="-112" font-family="Helvetica,sans-Serif" font-size="10.00">+on_req_url</text>
<text text-anchor="middle" x="517" y="-101" font-family="Helvetica,sans-Serif" font-size="10.00">+on_req_body</text>
<text text-anchor="middle" x="517" y="-90" font-family="Helvetica,sans-Serif" font-size="10.00">+on_req_hdr_field</text>
<text text-anchor="middle" x="517" y="-79" font-family="Helvetica,sans-Serif" font-size="10.00">+on_req_cmpl</text>
</g>
<!-- Node2&#45;&gt;Node1 -->
<g id="edge1" class="edge"><title>Node2&#45;&gt;Node1</title>
<path fill="none" stroke="#404040" d="M199.162,-57.5127C237.253,-89.0693 303.561,-140.841 367,-175 392.745,-188.863 423.572,-200.448 447.796,-208.524"/>
<polygon fill="none" stroke="#404040" points="448.04,-208.603 454.983,-206.653 459.453,-212.311 452.511,-214.261 448.04,-208.603"/>
<text text-anchor="middle" x="389" y="-123" font-family="Helvetica,sans-Serif" font-size="10.00"> +settings</text>
</g>
<!-- Node3 -->
<g id="node3" class="node"><title>Node3</title>
<polygon fill="none" stroke="#bfbfbf" points="266.5,-679.5 266.5,-736.5 295.5,-736.5 295.5,-679.5 266.5,-679.5"/>
<text text-anchor="middle" x="281" y="-724.5" font-family="Helvetica,sans-Serif" font-size="10.00">int</text>
<polyline fill="none" stroke="#bfbfbf" points="266.5,-717.5 295.5,-717.5 "/>
<text text-anchor="middle" x="281" y="-705.5" font-family="Helvetica,sans-Serif" font-size="10.00"> </text>
<polyline fill="none" stroke="#bfbfbf" points="266.5,-698.5 295.5,-698.5 "/>
<text text-anchor="middle" x="281" y="-686.5" font-family="Helvetica,sans-Serif" font-size="10.00"> </text>
</g>
<!-- Node3&#45;&gt;Node2 -->
<g id="edge2" class="edge"><title>Node3&#45;&gt;Node2</title>
<path fill="none" stroke="#404040" d="M266.288,-706.307C208.47,-702.727 0,-681.4 0,-560 0,-560 0,-560 0,-221 0,-151.085 11.8409,-125.714 61,-76 73.4921,-63.3669 90.027,-53.9694 106.312,-47.0806"/>
<polygon fill="none" stroke="#404040" points="106.32,-47.0776 110.449,-41.1657 117.494,-42.7033 113.365,-48.6152 106.32,-47.0776"/>
<text text-anchor="middle" x="21" y="-399" font-family="Helvetica,sans-Serif" font-size="10.00"> +timeout</text>
</g>
<!-- Node9 -->
<g id="node9" class="node"><title>Node9</title>
<g id="a_node9"><a xlink:href="a00017.html#a00110" target="_top" xlink:title="{hpd\n||}">
<polygon fill="none" stroke="black" points="852,-530.5 852,-587.5 884,-587.5 884,-530.5 852,-530.5"/>
<text text-anchor="middle" x="868" y="-575.5" font-family="Helvetica,sans-Serif" font-size="10.00">hpd</text>
<polyline fill="none" stroke="black" points="852,-568.5 884,-568.5 "/>
<text text-anchor="middle" x="868" y="-556.5" font-family="Helvetica,sans-Serif" font-size="10.00"> </text>
<polyline fill="none" stroke="black" points="852,-549.5 884,-549.5 "/>
<text text-anchor="middle" x="868" y="-537.5" font-family="Helvetica,sans-Serif" font-size="10.00"> </text>
</a>
</g>
</g>
<!-- Node3&#45;&gt;Node9 -->
<g id="edge18" class="edge"><title>Node3&#45;&gt;Node9</title>
<path fill="none" stroke="#404040" d="M295.665,-703.611C320.396,-697.504 371.467,-683.185 410,-661 442.796,-642.118 439.823,-619.951 475,-606 545.332,-578.106 742.069,-608.142 815,-588 823.863,-585.552 832.922,-581.458 840.986,-577.147"/>
<polygon fill="none" stroke="#404040" points="841.191,-577.029 844.403,-570.573 851.598,-571.055 848.386,-577.511 841.191,-577.029"/>
<text text-anchor="middle" x="528.5" y="-636.5" font-family="Helvetica,sans-Serif" font-size="10.00"> +module_options_count</text>
<text text-anchor="middle" x="528.5" y="-625.5" font-family="Helvetica,sans-Serif" font-size="10.00">+options_count</text>
</g>
<!-- Node20 -->
<g id="node20" class="node"><title>Node20</title>
<g id="a_node20"><a xlink:href="a00036.html#a00131" target="_top" xlink:title="Instance of a tcpd. ">
<polygon fill="none" stroke="black" points="488,-320.5 488,-377.5 544,-377.5 544,-320.5 488,-320.5"/>
<text text-anchor="middle" x="516" y="-365.5" font-family="Helvetica,sans-Serif" font-size="10.00">hpd_tcpd</text>
<polyline fill="none" stroke="black" points="488,-358.5 544,-358.5 "/>
<text text-anchor="middle" x="516" y="-346.5" font-family="Helvetica,sans-Serif" font-size="10.00"> </text>
<polyline fill="none" stroke="black" points="488,-339.5 544,-339.5 "/>
<text text-anchor="middle" x="516" y="-327.5" font-family="Helvetica,sans-Serif" font-size="10.00"> </text>
</a>
</g>
</g>
<!-- Node3&#45;&gt;Node20 -->
<g id="edge28" class="edge"><title>Node3&#45;&gt;Node20</title>
<path fill="none" stroke="#404040" d="M295.73,-696.976C335.905,-668.735 447.662,-583.959 497,-483 511.19,-453.964 515.585,-417.398 516.632,-389.959"/>
<polygon fill="none" stroke="#404040" points="516.638,-389.672 512.771,-383.585 516.903,-377.675 520.769,-383.762 516.638,-389.672"/>
<text text-anchor="middle" x="506.5" y="-504" font-family="Helvetica,sans-Serif" font-size="10.00"> +sockfd</text>
</g>
<!-- Node22 -->
<g id="node22" class="node"><title>Node22</title>
<g id="a_node22"><a xlink:href="a00038.html#a00132" target="_top" xlink:title="Settings struct for tcpd. ">
<polygon fill="none" stroke="black" points="254,-193.5 254,-250.5 350,-250.5 350,-193.5 254,-193.5"/>
<text text-anchor="middle" x="302" y="-238.5" font-family="Helvetica,sans-Serif" font-size="10.00">hpd_tcpd_settings</text>
<polyline fill="none" stroke="black" points="254,-231.5 350,-231.5 "/>
<text text-anchor="middle" x="302" y="-219.5" font-family="Helvetica,sans-Serif" font-size="10.00"> </text>
<polyline fill="none" stroke="black" points="254,-212.5 350,-212.5 "/>
<text text-anchor="middle" x="302" y="-200.5" font-family="Helvetica,sans-Serif" font-size="10.00"> </text>
</a>
</g>
</g>
<!-- Node3&#45;&gt;Node22 -->
<g id="edge31" class="edge"><title>Node3&#45;&gt;Node22</title>
<path fill="none" stroke="#404040" d="M269.111,-679.415C248.866,-628.971 211.423,-518.44 228,-425 238.48,-365.925 264.946,-301.449 283.209,-261.612"/>
<polygon fill="none" stroke="#404040" points="283.288,-261.442 282.195,-254.315 288.354,-250.564 289.447,-257.692 283.288,-261.442"/>
<text text-anchor="middle" x="257" y="-457" font-family="Helvetica,sans-Serif" font-size="10.00"> +retry_delay</text>
<text text-anchor="middle" x="257" y="-446" font-family="Helvetica,sans-Serif" font-size="10.00">+timeout</text>
</g>
<!-- Node4 -->
<g id="node4" class="node"><title>Node4</title>
<polygon fill="none" stroke="#bfbfbf" points="114.5,-320.5 114.5,-377.5 219.5,-377.5 219.5,-320.5 114.5,-320.5"/>
<text text-anchor="middle" x="167" y="-365.5" font-family="Helvetica,sans-Serif" font-size="10.00">enum hpd_tcpd_port</text>
<polyline fill="none" stroke="#bfbfbf" points="114.5,-358.5 219.5,-358.5 "/>
<text text-anchor="middle" x="167" y="-346.5" font-family="Helvetica,sans-Serif" font-size="10.00"> </text>
<polyline fill="none" stroke="#bfbfbf" points="114.5,-339.5 219.5,-339.5 "/>
<text text-anchor="middle" x="167" y="-327.5" font-family="Helvetica,sans-Serif" font-size="10.00"> </text>
</g>
<!-- Node4&#45;&gt;Node2 -->
<g id="edge3" class="edge"><title>Node4&#45;&gt;Node2</title>
<path fill="none" stroke="#404040" d="M167,-320.336C167,-263.954 167,-135.555 167,-70.0492"/>
<polygon fill="none" stroke="#404040" points="167,-69.8266 163,-63.8266 167,-57.8266 171,-63.8266 167,-69.8266"/>
<text text-anchor="middle" x="180" y="-219.5" font-family="Helvetica,sans-Serif" font-size="10.00"> +port</text>
</g>
<!-- Node4&#45;&gt;Node22 -->
<g id="edge32" class="edge"><title>Node4&#45;&gt;Node22</title>
<path fill="none" stroke="#404040" d="M176.268,-320.382C182.963,-303.81 193.408,-283.252 208,-269 217.953,-259.28 230.361,-251.259 242.866,-244.79"/>
<polygon fill="none" stroke="#404040" points="243.014,-244.719 246.678,-238.508 253.82,-239.502 250.156,-245.713 243.014,-244.719"/>
<text text-anchor="middle" x="221" y="-283" font-family="Helvetica,sans-Serif" font-size="10.00"> +port</text>
</g>
<!-- Node5 -->
<g id="node5" class="node"><title>Node5</title>
<polygon fill="none" stroke="#bfbfbf" points="265.5,-530.5 265.5,-587.5 306.5,-587.5 306.5,-530.5 265.5,-530.5"/>
<text text-anchor="middle" x="286" y="-575.5" font-family="Helvetica,sans-Serif" font-size="10.00">void *</text>
<polyline fill="none" stroke="#bfbfbf" points="265.5,-568.5 306.5,-568.5 "/>
<text text-anchor="middle" x="286" y="-556.5" font-family="Helvetica,sans-Serif" font-size="10.00"> </text>
<polyline fill="none" stroke="#bfbfbf" points="265.5,-549.5 306.5,-549.5 "/>
<text text-anchor="middle" x="286" y="-537.5" font-family="Helvetica,sans-Serif" font-size="10.00"> </text>
</g>
<!-- Node5&#45;&gt;Node2 -->
<g id="edge5" class="edge"><title>Node5&#45;&gt;Node2</title>
<path fill="none" stroke="#404040" d="M282.635,-530.39C277.477,-500.165 264.738,-452.366 234,-425 172.567,-370.306 105.236,-443.129 55,-378 -19.0779,-281.96 79.8529,-135.384 134.773,-67.2388"/>
<polygon fill="none" stroke="#404040" points="134.927,-67.0519 135.635,-59.8756 142.531,-57.7691 141.823,-64.9454 134.927,-67.0519"/>
<text text-anchor="middle" x="80" y="-346.5" font-family="Helvetica,sans-Serif" font-size="10.00"> +httpd_ctx</text>
</g>
<!-- Node6 -->
<g id="node6" class="node"><title>Node6</title>
<g id="a_node6"><a xlink:href="a00029.html" target="_top" xlink:title="{hpd_module\n||+ TAILQ_ENTRY()\l}">
<polygon fill="none" stroke="black" points="882,-425.5 882,-482.5 982,-482.5 982,-425.5 882,-425.5"/>
<text text-anchor="middle" x="932" y="-470.5" font-family="Helvetica,sans-Serif" font-size="10.00">hpd_module</text>
<polyline fill="none" stroke="black" points="882,-463.5 982,-463.5 "/>
<text text-anchor="middle" x="932" y="-451.5" font-family="Helvetica,sans-Serif" font-size="10.00"> </text>
<polyline fill="none" stroke="black" points="882,-444.5 982,-444.5 "/>
<text text-anchor="start" x="890" y="-432.5" font-family="Helvetica,sans-Serif" font-size="10.00">+ TAILQ_ENTRY()</text>
</a>
</g>
</g>
<!-- Node5&#45;&gt;Node6 -->
<g id="edge22" class="edge"><title>Node5&#45;&gt;Node6</title>
<path fill="none" stroke="#404040" d="M306.518,-555.843C353.592,-550.93 472.998,-538.659 573,-530 678.684,-520.849 709.662,-543.363 811,-512 820.321,-509.115 821.319,-505.456 830,-501 843.029,-494.312 857.23,-487.574 870.783,-481.395"/>
<polygon fill="none" stroke="#404040" points="871.036,-481.281 874.862,-475.169 881.976,-476.35 878.149,-482.462 871.036,-481.281"/>
<text text-anchor="middle" x="844" y="-504" font-family="Helvetica,sans-Serif" font-size="10.00"> +data</text>
</g>
<!-- Node5&#45;&gt;Node22 -->
<g id="edge33" class="edge"><title>Node5&#45;&gt;Node22</title>
<path fill="none" stroke="#404040" d="M287.323,-530.301C290.151,-471.098 296.792,-332.037 300.083,-263.139"/>
<polygon fill="none" stroke="#404040" points="300.103,-262.718 296.394,-256.534 300.675,-250.732 304.385,-256.916 300.103,-262.718"/>
<text text-anchor="middle" x="317.5" y="-399" font-family="Helvetica,sans-Serif" font-size="10.00"> +tcpd_ctx</text>
</g>
<!-- Node6&#45;&gt;Node1 -->
<g id="edge6" class="edge"><title>Node6&#45;&gt;Node1</title>
<path fill="none" stroke="#404040" d="M891.507,-425.177C833.838,-386.427 723.839,-315.721 623,-269 592.906,-255.056 557.335,-243.039 530.408,-234.787"/>
<polygon fill="none" stroke="#404040" points="530.187,-234.721 523.29,-236.825 518.695,-231.268 525.592,-229.164 530.187,-234.721"/>
<text text-anchor="middle" x="837" y="-346.5" font-family="Helvetica,sans-Serif" font-size="10.00"> +context</text>
</g>
<!-- Node6&#45;&gt;Node9 -->
<g id="edge21" class="edge"><title>Node6&#45;&gt;Node9</title>
<path fill="none" stroke="#404040" d="M946.09,-482.578C949.103,-492.331 950.059,-503.084 945,-512 934.447,-530.597 913.062,-542.478 895.501,-549.497"/>
<polygon fill="none" stroke="#404040" points="895.421,-549.526 891.137,-555.327 884.134,-553.603 888.419,-547.803 895.421,-549.526"/>
<text text-anchor="middle" x="985.5" y="-504" font-family="Helvetica,sans-Serif" font-size="10.00"> +option2module</text>
</g>
<!-- Node6&#45;&gt;Node20 -->
<g id="edge35" class="edge"><title>Node6&#45;&gt;Node20</title>
<path fill="none" stroke="#404040" d="M881.821,-440.576C798.301,-419.897 632.426,-378.827 556.118,-359.933"/>
<polygon fill="none" stroke="#404040" points="555.884,-359.875 549.098,-362.316 544.236,-356.991 551.021,-354.55 555.884,-359.875"/>
<text text-anchor="middle" x="758" y="-399" font-family="Helvetica,sans-Serif" font-size="10.00"> +context</text>
</g>
<!-- Node7 -->
<g id="node7" class="node"><title>Node7</title>
<g id="a_node7"><a xlink:href="a00030.html#a00123" target="_top" xlink:title="[Application API Callbacks] ">
<polygon fill="none" stroke="black" points="1156,-530.5 1156,-587.5 1244,-587.5 1244,-530.5 1156,-530.5"/>
<text text-anchor="middle" x="1200" y="-575.5" font-family="Helvetica,sans-Serif" font-size="10.00">hpd_module_def</text>
<polyline fill="none" stroke="black" points="1156,-568.5 1244,-568.5 "/>
<text text-anchor="middle" x="1200" y="-556.5" font-family="Helvetica,sans-Serif" font-size="10.00"> </text>
<polyline fill="none" stroke="black" points="1156,-549.5 1244,-549.5 "/>
<text text-anchor="middle" x="1200" y="-537.5" font-family="Helvetica,sans-Serif" font-size="10.00"> </text>
</a>
</g>
</g>
<!-- Node7&#45;&gt;Node6 -->
<g id="edge7" class="edge"><title>Node7&#45;&gt;Node6</title>
<path fill="none" stroke="#404040" d="M1193.85,-530.457C1190.12,-519.758 1184.22,-508.335 1175,-501 1147.64,-479.222 1056.71,-466.534 994.194,-460.186"/>
<polygon fill="none" stroke="#404040" points="994.039,-460.171 987.677,-463.566 982.096,-459 988.457,-455.605 994.039,-460.171"/>
<text text-anchor="middle" x="1195.5" y="-504" font-family="Helvetica,sans-Serif" font-size="10.00"> +def</text>
</g>
<!-- Node8 -->
<g id="node8" class="node"><title>Node8</title>
<polygon fill="none" stroke="#bfbfbf" points="1158,-679.5 1158,-736.5 1242,-736.5 1242,-679.5 1158,-679.5"/>
<text text-anchor="middle" x="1200" y="-724.5" font-family="Helvetica,sans-Serif" font-size="10.00">enum hpd_error</text>
<polyline fill="none" stroke="#bfbfbf" points="1158,-717.5 1242,-717.5 "/>
<text text-anchor="middle" x="1200" y="-705.5" font-family="Helvetica,sans-Serif" font-size="10.00"> </text>
<polyline fill="none" stroke="#bfbfbf" points="1158,-698.5 1242,-698.5 "/>
<text text-anchor="middle" x="1200" y="-686.5" font-family="Helvetica,sans-Serif" font-size="10.00"> </text>
</g>
<!-- Node8&#45;&gt;Node7 -->
<g id="edge8" class="edge"><title>Node8&#45;&gt;Node7</title>
<path fill="none" stroke="#404040" d="M1200,-679.35C1200,-656.868 1200,-624.855 1200,-599.643"/>
<polygon fill="none" stroke="#404040" points="1200,-599.526 1196,-593.526 1200,-587.526 1204,-593.526 1200,-599.526"/>
<text text-anchor="middle" x="1232.5" y="-653" font-family="Helvetica,sans-Serif" font-size="10.00"> +on_create</text>
<text text-anchor="middle" x="1232.5" y="-642" font-family="Helvetica,sans-Serif" font-size="10.00">+on_stop</text>
<text text-anchor="middle" x="1232.5" y="-631" font-family="Helvetica,sans-Serif" font-size="10.00">+on_destroy</text>
<text text-anchor="middle" x="1232.5" y="-620" font-family="Helvetica,sans-Serif" font-size="10.00">+on_start</text>
<text text-anchor="middle" x="1232.5" y="-609" font-family="Helvetica,sans-Serif" font-size="10.00">+on_parse_opt</text>
</g>
<!-- Node9&#45;&gt;Node6 -->
<g id="edge9" class="edge"><title>Node9&#45;&gt;Node6</title>
<path fill="none" stroke="#404040" d="M884.356,-543.017C892.869,-534.552 902.943,-523.403 910,-512 913.401,-506.504 916.43,-500.394 919.071,-494.275"/>
<polygon fill="none" stroke="#404040" points="919.253,-493.813 917.74,-486.763 923.667,-482.654 925.18,-489.705 919.253,-493.813"/>
<text text-anchor="middle" x="928.5" y="-504" font-family="Helvetica,sans-Serif" font-size="10.00"> +hpd</text>
</g>
<!-- Node13 -->
<g id="node13" class="node"><title>Node13</title>
<g id="a_node13"><a xlink:href="a00018.html#a00113" target="_top" xlink:title="{hpd_configuration\n||}">
<polygon fill="none" stroke="black" points="663.5,-425.5 663.5,-482.5 756.5,-482.5 756.5,-425.5 663.5,-425.5"/>
<text text-anchor="middle" x="710" y="-470.5" font-family="Helvetica,sans-Serif" font-size="10.00">hpd_configuration</text>
<polyline fill="none" stroke="black" points="663.5,-463.5 756.5,-463.5 "/>
<text text-anchor="middle" x="710" y="-451.5" font-family="Helvetica,sans-Serif" font-size="10.00"> </text>
<polyline fill="none" stroke="black" points="663.5,-444.5 756.5,-444.5 "/>
<text text-anchor="middle" x="710" y="-432.5" font-family="Helvetica,sans-Serif" font-size="10.00"> </text>
</a>
</g>
</g>
<!-- Node9&#45;&gt;Node13 -->
<g id="edge15" class="edge"><title>Node9&#45;&gt;Node13</title>
<path fill="none" stroke="#404040" d="M871.149,-530.305C870.864,-520.088 868.658,-509.052 862,-501 839.411,-473.68 801.17,-462.2 768.698,-457.539"/>
<polygon fill="none" stroke="#404040" points="768.493,-457.514 762.054,-460.762 756.58,-456.068 763.019,-452.82 768.493,-457.514"/>
<text text-anchor="middle" x="880.5" y="-504" font-family="Helvetica,sans-Serif" font-size="10.00"> +hpd</text>
</g>
<!-- Node10 -->
<g id="node10" class="node"><title>Node10</title>
<polygon fill="none" stroke="#bfbfbf" points="943,-679.5 943,-736.5 1045,-736.5 1045,-679.5 943,-679.5"/>
<text text-anchor="middle" x="994" y="-724.5" font-family="Helvetica,sans-Serif" font-size="10.00">struct hpd_modules</text>
<polyline fill="none" stroke="#bfbfbf" points="943,-717.5 1045,-717.5 "/>
<text text-anchor="middle" x="994" y="-705.5" font-family="Helvetica,sans-Serif" font-size="10.00"> </text>
<polyline fill="none" stroke="#bfbfbf" points="943,-698.5 1045,-698.5 "/>
<text text-anchor="middle" x="994" y="-686.5" font-family="Helvetica,sans-Serif" font-size="10.00"> </text>
</g>
<!-- Node10&#45;&gt;Node9 -->
<g id="edge10" class="edge"><title>Node10&#45;&gt;Node9</title>
<path fill="none" stroke="#404040" d="M987.213,-679.267C980.431,-653.371 969.654,-617.097 960,-606 943.209,-586.698 916.398,-574.593 896.041,-567.675"/>
<polygon fill="none" stroke="#404040" points="895.801,-567.6 888.881,-569.628 884.347,-564.02 891.268,-561.992 895.801,-567.6"/>
<text text-anchor="middle" x="1006" y="-631" font-family="Helvetica,sans-Serif" font-size="10.00"> +modules</text>
</g>
<!-- Node11 -->
<g id="node11" class="node"><title>Node11</title>
<polygon fill="none" stroke="#bfbfbf" points="509,-679.5 509,-736.5 595,-736.5 595,-679.5 509,-679.5"/>
<text text-anchor="middle" x="552" y="-724.5" font-family="Helvetica,sans-Serif" font-size="10.00">hpd_ev_loop_t *</text>
<polyline fill="none" stroke="#bfbfbf" points="509,-717.5 595,-717.5 "/>
<text text-anchor="middle" x="552" y="-705.5" font-family="Helvetica,sans-Serif" font-size="10.00"> </text>
<polyline fill="none" stroke="#bfbfbf" points="509,-698.5 595,-698.5 "/>
<text text-anchor="middle" x="552" y="-686.5" font-family="Helvetica,sans-Serif" font-size="10.00"> </text>
</g>
<!-- Node11&#45;&gt;Node9 -->
<g id="edge11" class="edge"><title>Node11&#45;&gt;Node9</title>
<path fill="none" stroke="#404040" d="M570.002,-679.072C587.009,-655.274 614.819,-622.401 648,-606 714.923,-572.92 743.61,-609.826 815,-588 824.031,-585.239 833.32,-580.917 841.548,-576.487"/>
<polygon fill="none" stroke="#404040" points="841.571,-576.474 844.794,-570.023 851.988,-570.517 848.765,-576.968 841.571,-576.474"/>
<text text-anchor="middle" x="662" y="-631" font-family="Helvetica,sans-Serif" font-size="10.00"> +loop</text>
</g>
<!-- Node11&#45;&gt;Node20 -->
<g id="edge25" class="edge"><title>Node11&#45;&gt;Node20</title>
<path fill="none" stroke="#404040" d="M552.117,-679.28C551.892,-624.615 549.113,-499.254 530,-396 529.624,-393.968 529.19,-391.9 528.712,-389.82"/>
<polygon fill="none" stroke="#404040" points="528.649,-389.579 523.258,-384.79 525.605,-377.971 530.996,-382.761 528.649,-389.579"/>
<text text-anchor="middle" x="559" y="-504" font-family="Helvetica,sans-Serif" font-size="10.00"> +loop</text>
</g>
<!-- Node12 -->
<g id="node12" class="node"><title>Node12</title>
<polygon fill="none" stroke="#bfbfbf" points="1084.5,-679.5 1084.5,-736.5 1119.5,-736.5 1119.5,-679.5 1084.5,-679.5"/>
<text text-anchor="middle" x="1102" y="-724.5" font-family="Helvetica,sans-Serif" font-size="10.00">char</text>
<polyline fill="none" stroke="#bfbfbf" points="1084.5,-717.5 1119.5,-717.5 "/>
<text text-anchor="middle" x="1102" y="-705.5" font-family="Helvetica,sans-Serif" font-size="10.00"> </text>
<polyline fill="none" stroke="#bfbfbf" points="1084.5,-698.5 1119.5,-698.5 "/>
<text text-anchor="middle" x="1102" y="-686.5" font-family="Helvetica,sans-Serif" font-size="10.00"> </text>
</g>
<!-- Node12&#45;&gt;Node9 -->
<g id="edge12" class="edge"><title>Node12&#45;&gt;Node9</title>
<path fill="none" stroke="#404040" d="M1084.46,-694.05C1073.95,-685.579 1060.94,-673.748 1052,-661 1036.79,-639.307 1048.81,-623.6 1029,-606 991.62,-572.782 931.778,-563.436 896.541,-560.879"/>
<polygon fill="none" stroke="#404040" points="896.319,-560.867 890.105,-564.525 884.338,-560.196 890.552,-556.537 896.319,-560.867"/>
<text text-anchor="middle" x="1083" y="-636.5" font-family="Helvetica,sans-Serif" font-size="10.00"> +argv0</text>
<text text-anchor="middle" x="1083" y="-625.5" font-family="Helvetica,sans-Serif" font-size="10.00">+option2name</text>
</g>
<!-- Node12&#45;&gt;Node20 -->
<g id="edge26" class="edge"><title>Node12&#45;&gt;Node20</title>
<path fill="none" stroke="#404040" d="M1110.23,-679.473C1119.48,-643.093 1130.26,-578.01 1106,-530 1074.79,-468.227 1053.37,-454.998 991,-425 971.349,-415.549 667.339,-371.562 556.25,-355.712"/>
<polygon fill="none" stroke="#404040" points="556.172,-355.701 549.668,-358.815 544.292,-354.008 550.797,-350.895 556.172,-355.701"/>
<text text-anchor="middle" x="1118.5" y="-504" font-family="Helvetica,sans-Serif" font-size="10.00"> +port_str</text>
</g>
<!-- Node13&#45;&gt;Node9 -->
<g id="edge13" class="edge"><title>Node13&#45;&gt;Node9</title>
<path fill="none" stroke="#404040" d="M721.953,-482.645C727.794,-493.229 735.796,-504.539 746,-512 771.584,-530.706 785.459,-518.521 815,-530 823.703,-533.382 832.815,-537.832 840.981,-542.187"/>
<polygon fill="none" stroke="#404040" points="841.258,-542.34 848.445,-541.751 851.754,-548.158 844.567,-548.748 841.258,-542.34"/>
<text text-anchor="middle" x="778.5" y="-504" font-family="Helvetica,sans-Serif" font-size="10.00"> +configuration</text>
</g>
<!-- Node14 -->
<g id="node14" class="node"><title>Node14</title>
<polygon fill="none" stroke="#bfbfbf" points="582.5,-530.5 582.5,-587.5 685.5,-587.5 685.5,-530.5 582.5,-530.5"/>
<text text-anchor="middle" x="634" y="-575.5" font-family="Helvetica,sans-Serif" font-size="10.00">struct hpd_adapters</text>
<polyline fill="none" stroke="#bfbfbf" points="582.5,-568.5 685.5,-568.5 "/>
<text text-anchor="middle" x="634" y="-556.5" font-family="Helvetica,sans-Serif" font-size="10.00"> </text>
<polyline fill="none" stroke="#bfbfbf" points="582.5,-549.5 685.5,-549.5 "/>
<text text-anchor="middle" x="634" y="-537.5" font-family="Helvetica,sans-Serif" font-size="10.00"> </text>
</g>
<!-- Node14&#45;&gt;Node13 -->
<g id="edge14" class="edge"><title>Node14&#45;&gt;Node13</title>
<path fill="none" stroke="#404040" d="M621.779,-530.479C619.25,-520.625 618.733,-509.791 624,-501 630.661,-489.883 641.027,-481.302 652.286,-474.734"/>
<polygon fill="none" stroke="#404040" points="652.612,-474.564 656.095,-468.25 663.263,-469.036 659.78,-475.35 652.612,-474.564"/>
<text text-anchor="middle" x="647.5" y="-504" font-family="Helvetica,sans-Serif" font-size="10.00"> +adapters</text>
</g>
<!-- Node15 -->
<g id="node15" class="node"><title>Node15</title>
<polygon fill="none" stroke="#bfbfbf" points="704,-530.5 704,-587.5 806,-587.5 806,-530.5 704,-530.5"/>
<text text-anchor="middle" x="755" y="-575.5" font-family="Helvetica,sans-Serif" font-size="10.00">struct hpd_listeners</text>
<polyline fill="none" stroke="#bfbfbf" points="704,-568.5 806,-568.5 "/>
<text text-anchor="middle" x="755" y="-556.5" font-family="Helvetica,sans-Serif" font-size="10.00"> </text>
<polyline fill="none" stroke="#bfbfbf" points="704,-549.5 806,-549.5 "/>
<text text-anchor="middle" x="755" y="-537.5" font-family="Helvetica,sans-Serif" font-size="10.00"> </text>
</g>
<!-- Node15&#45;&gt;Node13 -->
<g id="edge16" class="edge"><title>Node15&#45;&gt;Node13</title>
<path fill="none" stroke="#404040" d="M703.982,-533.046C691.429,-525.819 680.548,-518.211 677,-512 673.562,-505.981 673.603,-499.615 675.668,-493.406"/>
<polygon fill="none" stroke="#404040" points="675.782,-493.184 674.96,-486.019 681.257,-482.505 682.078,-489.669 675.782,-493.184"/>
<text text-anchor="middle" x="700" y="-504" font-family="Helvetica,sans-Serif" font-size="10.00"> +listeners</text>
</g>
<!-- Node16 -->
<g id="node16" class="node"><title>Node16</title>
<polygon fill="none" stroke="#bfbfbf" points="613.5,-679.5 613.5,-736.5 716.5,-736.5 716.5,-679.5 613.5,-679.5"/>
<text text-anchor="middle" x="665" y="-724.5" font-family="Helvetica,sans-Serif" font-size="10.00">hpd_argp_option_t *</text>
<polyline fill="none" stroke="#bfbfbf" points="613.5,-717.5 716.5,-717.5 "/>
<text text-anchor="middle" x="665" y="-705.5" font-family="Helvetica,sans-Serif" font-size="10.00"> </text>
<polyline fill="none" stroke="#bfbfbf" points="613.5,-698.5 716.5,-698.5 "/>
<text text-anchor="middle" x="665" y="-686.5" font-family="Helvetica,sans-Serif" font-size="10.00"> </text>
</g>
<!-- Node16&#45;&gt;Node9 -->
<g id="edge17" class="edge"><title>Node16&#45;&gt;Node9</title>
<path fill="none" stroke="#404040" d="M672.427,-679.384C680.158,-656.125 694.625,-623.869 719,-606 754.011,-580.335 774.013,-602.3 815,-588 823.917,-584.889 833.172,-580.465 841.405,-576.05"/>
<polygon fill="none" stroke="#404040" points="841.414,-576.045 844.68,-569.616 851.871,-570.159 848.604,-576.588 841.414,-576.045"/>
<text text-anchor="middle" x="739.5" y="-631" font-family="Helvetica,sans-Serif" font-size="10.00"> +options</text>
</g>
<!-- Node17 -->
<g id="node17" class="node"><title>Node17</title>
<polygon fill="none" stroke="#bfbfbf" points="735,-679.5 735,-736.5 793,-736.5 793,-679.5 735,-679.5"/>
<text text-anchor="middle" x="764" y="-724.5" font-family="Helvetica,sans-Serif" font-size="10.00">ev_signal</text>
<polyline fill="none" stroke="#bfbfbf" points="735,-717.5 793,-717.5 "/>
<text text-anchor="middle" x="764" y="-705.5" font-family="Helvetica,sans-Serif" font-size="10.00"> </text>
<polyline fill="none" stroke="#bfbfbf" points="735,-698.5 793,-698.5 "/>
<text text-anchor="middle" x="764" y="-686.5" font-family="Helvetica,sans-Serif" font-size="10.00"> </text>
</g>
<!-- Node17&#45;&gt;Node9 -->
<g id="edge19" class="edge"><title>Node17&#45;&gt;Node9</title>
<path fill="none" stroke="#404040" d="M762.645,-679.184C762.966,-657.344 766.617,-627.187 782,-606 782.499,-605.313 816.147,-587.422 841.2,-574.159"/>
<polygon fill="none" stroke="#404040" points="841.349,-574.08 844.783,-567.739 851.957,-568.469 848.523,-574.811 841.349,-574.08"/>
<text text-anchor="middle" x="823" y="-636.5" font-family="Helvetica,sans-Serif" font-size="10.00"> +sigterm_watcher</text>
<text text-anchor="middle" x="823" y="-625.5" font-family="Helvetica,sans-Serif" font-size="10.00">+sigint_watcher</text>
</g>
<!-- Node18 -->
<g id="node18" class="node"><title>Node18</title>
<polygon fill="none" stroke="#bfbfbf" points="811.5,-679.5 811.5,-736.5 924.5,-736.5 924.5,-679.5 811.5,-679.5"/>
<text text-anchor="middle" x="868" y="-724.5" font-family="Helvetica,sans-Serif" font-size="10.00">struct hpd_ev_asyncs</text>
<polyline fill="none" stroke="#bfbfbf" points="811.5,-717.5 924.5,-717.5 "/>
<text text-anchor="middle" x="868" y="-705.5" font-family="Helvetica,sans-Serif" font-size="10.00"> </text>
<polyline fill="none" stroke="#bfbfbf" points="811.5,-698.5 924.5,-698.5 "/>
<text text-anchor="middle" x="868" y="-686.5" font-family="Helvetica,sans-Serif" font-size="10.00"> </text>
</g>
<!-- Node18&#45;&gt;Node9 -->
<g id="edge20" class="edge"><title>Node18&#45;&gt;Node9</title>
<path fill="none" stroke="#404040" d="M868,-679.35C868,-656.868 868,-624.855 868,-599.643"/>
<polygon fill="none" stroke="#404040" points="868,-599.526 864,-593.526 868,-587.526 872,-593.526 868,-599.526"/>
<text text-anchor="middle" x="913.5" y="-653" font-family="Helvetica,sans-Serif" font-size="10.00"> +respond_watchers</text>
<text text-anchor="middle" x="913.5" y="-642" font-family="Helvetica,sans-Serif" font-size="10.00">+request_watchers</text>
<text text-anchor="middle" x="913.5" y="-631" font-family="Helvetica,sans-Serif" font-size="10.00">+changed_watchers</text>
<text text-anchor="middle" x="913.5" y="-620" font-family="Helvetica,sans-Serif" font-size="10.00">+attached_watchers</text>
<text text-anchor="middle" x="913.5" y="-609" font-family="Helvetica,sans-Serif" font-size="10.00">+detached_watchers</text>
</g>
<!-- Node19 -->
<g id="node19" class="node"><title>Node19</title>
<polygon fill="none" stroke="#bfbfbf" points="1055,-530.5 1055,-587.5 1097,-587.5 1097,-530.5 1055,-530.5"/>
<text text-anchor="middle" x="1076" y="-575.5" font-family="Helvetica,sans-Serif" font-size="10.00">char *</text>
<polyline fill="none" stroke="#bfbfbf" points="1055,-568.5 1097,-568.5 "/>
<text text-anchor="middle" x="1076" y="-556.5" font-family="Helvetica,sans-Serif" font-size="10.00"> </text>
<polyline fill="none" stroke="#bfbfbf" points="1055,-549.5 1097,-549.5 "/>
<text text-anchor="middle" x="1076" y="-537.5" font-family="Helvetica,sans-Serif" font-size="10.00"> </text>
</g>
<!-- Node19&#45;&gt;Node6 -->
<g id="edge23" class="edge"><title>Node19&#45;&gt;Node6</title>
<path fill="none" stroke="#404040" d="M1055.55,-530.374C1047.17,-520.283 1036.87,-509.317 1026,-501 1016.05,-493.388 1004.64,-486.54 993.274,-480.595"/>
<polygon fill="none" stroke="#404040" points="993.176,-480.546 986.021,-481.439 982.444,-475.177 989.6,-474.284 993.176,-480.546"/>
<text text-anchor="middle" x="1047.5" y="-504" font-family="Helvetica,sans-Serif" font-size="10.00"> +id</text>
</g>
<!-- Node20&#45;&gt;Node1 -->
<g id="edge24" class="edge"><title>Node20&#45;&gt;Node1</title>
<path fill="none" stroke="#404040" d="M544.031,-324.692C550.115,-318.055 555.71,-310.338 559,-302 564.384,-288.357 565.963,-281.908 559,-269 552.445,-256.849 541.125,-247.385 529.476,-240.285"/>
<polygon fill="none" stroke="#404040" points="529.326,-240.202 522.141,-240.816 518.812,-234.42 525.997,-233.806 529.326,-240.202"/>
<text text-anchor="middle" x="591.5" y="-283" font-family="Helvetica,sans-Serif" font-size="10.00"> +webserver</text>
</g>
<!-- Node20&#45;&gt;Node22 -->
<g id="edge34" class="edge"><title>Node20&#45;&gt;Node22</title>
<path fill="none" stroke="#404040" d="M487.611,-340.302C465.738,-333.225 435.814,-320.924 415,-302 402.478,-290.615 408.363,-280.558 396,-269 385.94,-259.595 373.597,-251.727 361.204,-245.31"/>
<polygon fill="none" stroke="#404040" points="361.152,-245.285 354.007,-246.262 350.357,-240.042 357.502,-239.065 361.152,-245.285"/>
<text text-anchor="middle" x="451.5" y="-294" font-family="Helvetica,sans-Serif" font-size="10.00"> +on_disconnect</text>
<text text-anchor="middle" x="451.5" y="-283" font-family="Helvetica,sans-Serif" font-size="10.00">+on_connect</text>
<text text-anchor="middle" x="451.5" y="-272" font-family="Helvetica,sans-Serif" font-size="10.00">+on_receive</text>
</g>
<!-- Node21 -->
<g id="node21" class="node"><title>Node21</title>
<polygon fill="none" stroke="#bfbfbf" points="314,-425.5 314,-482.5 430,-482.5 430,-425.5 314,-425.5"/>
<text text-anchor="middle" x="372" y="-470.5" font-family="Helvetica,sans-Serif" font-size="10.00">struct hpd_tcpd_conns</text>
<polyline fill="none" stroke="#bfbfbf" points="314,-463.5 430,-463.5 "/>
<text text-anchor="middle" x="372" y="-451.5" font-family="Helvetica,sans-Serif" font-size="10.00"> </text>
<polyline fill="none" stroke="#bfbfbf" points="314,-444.5 430,-444.5 "/>
<text text-anchor="middle" x="372" y="-432.5" font-family="Helvetica,sans-Serif" font-size="10.00"> </text>
</g>
<!-- Node21&#45;&gt;Node20 -->
<g id="edge27" class="edge"><title>Node21&#45;&gt;Node20</title>
<path fill="none" stroke="#404040" d="M389.146,-425.433C396.482,-415.232 405.73,-404.175 416,-396 433.914,-381.741 456.964,-370.753 476.418,-363.098"/>
<polygon fill="none" stroke="#404040" points="476.454,-363.085 480.667,-357.232 487.689,-358.869 483.477,-364.722 476.454,-363.085"/>
<text text-anchor="middle" x="434" y="-399" font-family="Helvetica,sans-Serif" font-size="10.00"> +conns</text>
</g>
<!-- Node22&#45;&gt;Node20 -->
<g id="edge29" class="edge"><title>Node22&#45;&gt;Node20</title>
<path fill="none" stroke="#404040" d="M350.244,-232.101C403.048,-242.462 481.636,-259.214 492,-269 502.802,-279.199 508.791,-294.088 512.094,-308.198"/>
<polygon fill="none" stroke="#404040" points="512.144,-308.466 517.183,-313.625 514.359,-320.26 509.32,-315.101 512.144,-308.466"/>
<text text-anchor="middle" x="533" y="-283" font-family="Helvetica,sans-Serif" font-size="10.00"> +settings</text>
</g>
<!-- Node23 -->
<g id="node23" class="node"><title>Node23</title>
<polygon fill="none" stroke="#bfbfbf" points="314.5,-320.5 314.5,-377.5 357.5,-377.5 357.5,-320.5 314.5,-320.5"/>
<text text-anchor="middle" x="336" y="-365.5" font-family="Helvetica,sans-Serif" font-size="10.00">size_t</text>
<polyline fill="none" stroke="#bfbfbf" points="314.5,-358.5 357.5,-358.5 "/>
<text text-anchor="middle" x="336" y="-346.5" font-family="Helvetica,sans-Serif" font-size="10.00"> </text>
<polyline fill="none" stroke="#bfbfbf" points="314.5,-339.5 357.5,-339.5 "/>
<text text-anchor="middle" x="336" y="-327.5" font-family="Helvetica,sans-Serif" font-size="10.00"> </text>
</g>
<!-- Node23&#45;&gt;Node22 -->
<g id="edge30" class="edge"><title>Node23&#45;&gt;Node22</title>
<path fill="none" stroke="#404040" d="M325.854,-320.428C323.79,-314.395 321.725,-308.014 320,-302 316.363,-289.324 312.976,-275.337 310.144,-262.7"/>
<polygon fill="none" stroke="#404040" points="310.064,-262.335 304.878,-257.326 307.507,-250.611 312.694,-255.621 310.064,-262.335"/>
<text text-anchor="middle" x="358" y="-283" font-family="Helvetica,sans-Serif" font-size="10.00"> +max_data_size</text>
</g>
<!-- Node24 -->
<g id="node24" class="node"><title>Node24</title>
<polygon fill="none" stroke="#bfbfbf" points="448,-425.5 448,-482.5 488,-482.5 488,-425.5 448,-425.5"/>
<text text-anchor="middle" x="468" y="-470.5" font-family="Helvetica,sans-Serif" font-size="10.00">ev_io</text>
<polyline fill="none" stroke="#bfbfbf" points="448,-463.5 488,-463.5 "/>
<text text-anchor="middle" x="468" y="-451.5" font-family="Helvetica,sans-Serif" font-size="10.00"> </text>
<polyline fill="none" stroke="#bfbfbf" points="448,-444.5 488,-444.5 "/>
<text text-anchor="middle" x="468" y="-432.5" font-family="Helvetica,sans-Serif" font-size="10.00"> </text>
</g>
<!-- Node24&#45;&gt;Node20 -->
<g id="edge36" class="edge"><title>Node24&#45;&gt;Node20</title>
<path fill="none" stroke="#404040" d="M456.516,-425.375C454.198,-415.723 453.629,-405.046 458,-396 462.542,-386.602 470.039,-378.537 478.16,-371.905"/>
<polygon fill="none" stroke="#404040" points="478.174,-371.895 480.637,-365.117 487.84,-364.784 485.377,-371.562 478.174,-371.895"/>
<text text-anchor="middle" x="480" y="-399" font-family="Helvetica,sans-Serif" font-size="10.00"> +watcher</text>
</g>
</g>
</svg>
        <g id="navigator" transform="translate(0 0)" fill="#404254">
                <rect fill="#f2f5e9" fill-opacity="0.5" stroke="#606060" stroke-width=".5" x="0" y="0" width="60" height="60"/>
                <use id="zoomplus" xlink:href="#zoomPlus" x="17" y="9" onmousedown="handleZoom(evt,'in')"/>
                <use id="zoomminus" xlink:href="#zoomMin" x="42" y="9" onmousedown="handleZoom(evt,'out')"/>
                <use id="reset" xlink:href="#resetDef" x="30" y="36" onmousedown="handleReset()"/>
                <g id="arrowUp" xlink:href="#dirArrow" transform="translate(30 24)" onmousedown="handlePan(0,-1)">
                  <use xlink:href="#rim" fill="#404040">
                        <set attributeName="fill" to="#808080" begin="arrowUp.mouseover" end="arrowUp.mouseout"/>
                  </use>
                  <path fill="none" stroke="white" stroke-width="1.5" d="M0,-3.0v7 M-2.5,-0.5L0,-3.0L2.5,-0.5"/>
                </g>
                <g id="arrowRight" xlink:href="#dirArrow" transform="rotate(90) translate(36 -43)" onmousedown="handlePan(1,0)">
                  <use xlink:href="#rim" fill="#404040">
                        <set attributeName="fill" to="#808080" begin="arrowRight.mouseover" end="arrowRight.mouseout"/>
                  </use>
                  <path fill="none" stroke="white" stroke-width="1.5" d="M0,-3.0v7 M-2.5,-0.5L0,-3.0L2.5,-0.5"/>
                </g>
                <g id="arrowDown" xlink:href="#dirArrow" transform="rotate(180) translate(-30 -48)" onmousedown="handlePan(0,1)">
                  <use xlink:href="#rim" fill="#404040">
                        <set attributeName="fill" to="#808080" begin="arrowDown.mouseover" end="arrowDown.mouseout"/>
                  </use>
                  <path fill="none" stroke="white" stroke-width="1.5" d="M0,-3.0v7 M-2.5,-0.5L0,-3.0L2.5,-0.5"/>
                </g>
                <g id="arrowLeft" xlink:href="#dirArrow" transform="rotate(270) translate(-36 17)" onmousedown="handlePan(-1,0)">
                  <use xlink:href="#rim" fill="#404040">
                        <set attributeName="fill" to="#808080" begin="arrowLeft.mouseover" end="arrowLeft.mouseout"/>
                  </use>
                  <path fill="none" stroke="white" stroke-width="1.5" d="M0,-3.0v7 M-2.5,-0.5L0,-3.0L2.5,-0.5"/>
                </g>
        </g>
        <svg viewBox="0 0 15 15" width="100%" height="30px" preserveAspectRatio="xMaxYMin meet">
         <g id="arrow_out" transform="scale(0.3 0.3)">
          <a xlink:href="a00156_org.svg" target="_base">
           <rect id="button" ry="5" rx="5" y="6" x="6" height="38" width="38"
                fill="#f2f5e9" fill-opacity="0.5" stroke="#606060" stroke-width="1.0"/>
           <path id="arrow"
             d="M 11.500037,31.436501 C 11.940474,20.09759 22.043105,11.32322 32.158766,21.979434 L 37.068811,17.246167 C 37.068811,17.246167 37.088388,32 37.088388,32 L 22.160133,31.978069 C 22.160133,31.978069 26.997745,27.140456 26.997745,27.140456 C 18.528582,18.264221 13.291696,25.230495 11.500037,31.436501 z"
             style="fill:#404040;"/>
          </a>
         </g>
        </svg>
</svg>
