<?xml version="1.0" encoding="UTF-8" standalone="no"?>
<!DOCTYPE svg PUBLIC "-//W3C//DTD SVG 1.1//EN"
 "http://www.w3.org/Graphics/SVG/1.1/DTD/svg11.dtd">
<!-- Generated by graphviz version 2.38.0 (20140413.2041)
 -->
<!-- Title: common/httpd/include/hpd/common/hpd_httpd.h Pages: 1 -->
<svg width="521pt" height="229pt"
 viewBox="0.00 0.00 520.50 229.00" xmlns="http://www.w3.org/2000/svg" xmlns:xlink="http://www.w3.org/1999/xlink">
<g id="graph0" class="graph" transform="scale(1 1) rotate(0) translate(4 225)">
<title>common/httpd/include/hpd/common/hpd_httpd.h</title>
<!-- Node1 -->
<g id="node1" class="node"><title>Node1</title>
<polygon fill="#bfbfbf" stroke="black" points="223.5,-190.5 223.5,-220.5 353.5,-220.5 353.5,-190.5 223.5,-190.5"/>
<text text-anchor="start" x="231.5" y="-208.5" font-family="Helvetica,sans-Serif" font-size="10.00">common/httpd/include</text>
<text text-anchor="middle" x="288.5" y="-197.5" font-family="Helvetica,sans-Serif" font-size="10.00">/hpd/common/hpd_httpd.h</text>
</g>
<!-- Node2 -->
<g id="node2" class="node"><title>Node2</title>
<g id="a_node2"><a xlink:href="a00056.html" target="_top" xlink:title="hpd/common/hpd_map.h">
<polygon fill="none" stroke="black" points="136.5,-129 136.5,-148 260.5,-148 260.5,-129 136.5,-129"/>
<text text-anchor="middle" x="198.5" y="-136" font-family="Helvetica,sans-Serif" font-size="10.00">hpd/common/hpd_map.h</text>
</a>
</g>
</g>
<!-- Node1&#45;&gt;Node2 -->
<g id="edge1" class="edge"><title>Node1&#45;&gt;Node2</title>
<path fill="none" stroke="midnightblue" d="M268.971,-190.396C254.018,-179.597 233.47,-164.756 218.421,-153.887"/>
<polygon fill="midnightblue" stroke="midnightblue" points="220.435,-151.025 210.279,-148.007 216.337,-156.699 220.435,-151.025"/>
</g>
<!-- Node3 -->
<g id="node3" class="node"><title>Node3</title>
<g id="a_node3"><a xlink:href="a00030.html" target="_top" xlink:title="hpd/hpd_types.h">
<polygon fill="none" stroke="black" points="0,-62 0,-81 89,-81 89,-62 0,-62"/>
<text text-anchor="middle" x="44.5" y="-69" font-family="Helvetica,sans-Serif" font-size="10.00">hpd/hpd_types.h</text>
</a>
</g>
</g>
<!-- Node1&#45;&gt;Node3 -->
<g id="edge9" class="edge"><title>Node1&#45;&gt;Node3</title>
<path fill="none" stroke="midnightblue" d="M223.255,-191.49C192.742,-183.585 156.77,-171.55 127.5,-154 98.7726,-136.776 72.4295,-107.66 57.4397,-89.2913"/>
<polygon fill="midnightblue" stroke="midnightblue" points="59.9969,-86.8837 51.0324,-81.2365 54.5187,-91.2414 59.9969,-86.8837"/>
</g>
<!-- Node6 -->
<g id="node6" class="node"><title>Node6</title>
<polygon fill="none" stroke="#bfbfbf" points="256.5,-62 256.5,-81 308.5,-81 308.5,-62 256.5,-62"/>
<text text-anchor="middle" x="282.5" y="-69" font-family="Helvetica,sans-Serif" font-size="10.00">stddef.h</text>
</g>
<!-- Node1&#45;&gt;Node6 -->
<g id="edge7" class="edge"><title>Node1&#45;&gt;Node6</title>
<path fill="none" stroke="midnightblue" d="M287.858,-190.374C286.773,-166.504 284.576,-118.181 283.36,-91.4149"/>
<polygon fill="midnightblue" stroke="midnightblue" points="286.841,-90.928 282.891,-81.0973 279.849,-91.2459 286.841,-90.928"/>
</g>
<!-- Node7 -->
<g id="node7" class="node"><title>Node7</title>
<polygon fill="none" stroke="#bfbfbf" points="326.5,-62 326.5,-81 378.5,-81 378.5,-62 326.5,-62"/>
<text text-anchor="middle" x="352.5" y="-69" font-family="Helvetica,sans-Serif" font-size="10.00">stdarg.h</text>
</g>
<!-- Node1&#45;&gt;Node7 -->
<g id="edge8" class="edge"><title>Node1&#45;&gt;Node7</title>
<path fill="none" stroke="midnightblue" d="M295.349,-190.374C307.078,-166.183 330.984,-116.877 343.847,-90.3465"/>
<polygon fill="midnightblue" stroke="midnightblue" points="347.118,-91.6224 348.332,-81.0973 340.819,-88.5684 347.118,-91.6224"/>
</g>
<!-- Node8 -->
<g id="node8" class="node"><title>Node8</title>
<g id="a_node8"><a xlink:href="a00048.html" target="_top" xlink:title="hpd/common/hpd_httpd\l_types.h">
<polygon fill="none" stroke="black" points="389,-123.5 389,-153.5 508,-153.5 508,-123.5 389,-123.5"/>
<text text-anchor="start" x="397" y="-141.5" font-family="Helvetica,sans-Serif" font-size="10.00">hpd/common/hpd_httpd</text>
<text text-anchor="middle" x="448.5" y="-130.5" font-family="Helvetica,sans-Serif" font-size="10.00">_types.h</text>
</a>
</g>
</g>
<!-- Node1&#45;&gt;Node8 -->
<g id="edge10" class="edge"><title>Node1&#45;&gt;Node8</title>
<path fill="none" stroke="midnightblue" d="M323.218,-190.396C347.015,-180.728 378.783,-167.823 404.374,-157.426"/>
<polygon fill="midnightblue" stroke="midnightblue" points="405.903,-160.583 413.85,-153.577 403.268,-154.098 405.903,-160.583"/>
</g>
<!-- Node2&#45;&gt;Node3 -->
<g id="edge2" class="edge"><title>Node2&#45;&gt;Node3</title>
<path fill="none" stroke="midnightblue" d="M178.05,-128.869C151.472,-117.65 104.86,-97.9766 74.3345,-85.0925"/>
<polygon fill="midnightblue" stroke="midnightblue" points="75.6086,-81.8313 65.0346,-81.1672 72.8865,-88.2804 75.6086,-81.8313"/>
</g>
<!-- Node4 -->
<g id="node4" class="node"><title>Node4</title>
<g id="a_node4"><a xlink:href="a00055.html" target="_top" xlink:title="hpd/common/hpd_queue.h">
<polygon fill="none" stroke="black" points="107,-62 107,-81 238,-81 238,-62 107,-62"/>
<text text-anchor="middle" x="172.5" y="-69" font-family="Helvetica,sans-Serif" font-size="10.00">hpd/common/hpd_queue.h</text>
</a>
</g>
</g>
<!-- Node2&#45;&gt;Node4 -->
<g id="edge3" class="edge"><title>Node2&#45;&gt;Node4</title>
<path fill="none" stroke="midnightblue" d="M194.994,-128.734C191.095,-118.988 184.692,-102.981 179.713,-90.5318"/>
<polygon fill="midnightblue" stroke="midnightblue" points="182.915,-89.1122 175.951,-81.1273 176.415,-91.712 182.915,-89.1122"/>
</g>
<!-- Node2&#45;&gt;Node6 -->
<g id="edge5" class="edge"><title>Node2&#45;&gt;Node6</title>
<path fill="none" stroke="midnightblue" d="M209.829,-128.734C223.557,-118.111 246.899,-100.049 263.42,-87.2642"/>
<polygon fill="midnightblue" stroke="midnightblue" points="265.584,-90.0152 271.351,-81.1273 261.3,-84.4791 265.584,-90.0152"/>
</g>
<!-- Node2&#45;&gt;Node7 -->
<g id="edge6" class="edge"><title>Node2&#45;&gt;Node7</title>
<path fill="none" stroke="midnightblue" d="M218.95,-128.869C245.528,-117.65 292.14,-97.9766 322.666,-85.0925"/>
<polygon fill="midnightblue" stroke="midnightblue" points="324.113,-88.2804 331.965,-81.1672 321.391,-81.8313 324.113,-88.2804"/>
</g>
<!-- Node5 -->
<g id="node5" class="node"><title>Node5</title>
<polygon fill="none" stroke="#bfbfbf" points="128,-0.5 128,-19.5 217,-19.5 217,-0.5 128,-0.5"/>
<text text-anchor="middle" x="172.5" y="-7.5" font-family="Helvetica,sans-Serif" font-size="10.00">bsd/sys/queue.h</text>
</g>
<!-- Node4&#45;&gt;Node5 -->
<g id="edge4" class="edge"><title>Node4&#45;&gt;Node5</title>
<path fill="none" stroke="midnightblue" d="M172.5,-61.9751C172.5,-53.5803 172.5,-40.4806 172.5,-29.6631"/>
<polygon fill="midnightblue" stroke="midnightblue" points="176,-29.5091 172.5,-19.5091 169,-29.5091 176,-29.5091"/>
</g>
<!-- Node9 -->
<g id="node9" class="node"><title>Node9</title>
<g id="a_node9"><a xlink:href="a00058.html" target="_top" xlink:title="hpd/common/hpd_tcpd\l_types.h">
<polygon fill="none" stroke="black" points="396.5,-56.5 396.5,-86.5 512.5,-86.5 512.5,-56.5 396.5,-56.5"/>
<text text-anchor="start" x="404.5" y="-74.5" font-family="Helvetica,sans-Serif" font-size="10.00">hpd/common/hpd_tcpd</text>
<text text-anchor="middle" x="454.5" y="-63.5" font-family="Helvetica,sans-Serif" font-size="10.00">_types.h</text>
</a>
</g>
</g>
<!-- Node8&#45;&gt;Node9 -->
<g id="edge11" class="edge"><title>Node8&#45;&gt;Node9</title>
<path fill="none" stroke="midnightblue" d="M449.802,-123.396C450.525,-115.56 451.445,-105.596 452.279,-96.5653"/>
<polygon fill="midnightblue" stroke="midnightblue" points="455.767,-96.8559 453.201,-86.5765 448.796,-96.2124 455.767,-96.8559"/>
</g>
</g>
</svg>
