<?xml version="1.0" encoding="UTF-8" standalone="no"?>
<!DOCTYPE svg PUBLIC "-//W3C//DTD SVG 1.1//EN"
 "http://www.w3.org/Graphics/SVG/1.1/DTD/svg11.dtd">
<!-- Generated by graphviz version 2.38.0 (20140413.2041)
 -->
<!-- Title: hpd_tcpd_settings Pages: 1 -->
<!--zoomable 447 -->
<svg id="main" version="1.1" xmlns="http://www.w3.org/2000/svg" xmlns:xlink="http://www.w3.org/1999/xlink" xml:space="preserve" onload="init(evt)">
<style type="text/css"><![CDATA[
.edge:hover path { stroke: red; }
.edge:hover polygon { stroke: red; fill: red; }
]]></style>
<script type="text/javascript"><![CDATA[
var edges = document.getElementsByTagName('g');
if (edges && edges.length) {
  for (var i=0;i<edges.length;i++) {
    if (edges[i].id.substr(0,4)=='edge') {
      edges[i].setAttribute('class','edge');
    }
  }
}
]]></script>
        <defs>
                <circle id="rim" cx="0" cy="0" r="7"/>
                <circle id="rim2" cx="0" cy="0" r="3.5"/>
                <g id="zoomPlus">
                        <use xlink:href="#rim" fill="#404040">
                                <set attributeName="fill" to="#808080" begin="zoomplus.mouseover" end="zoomplus.mouseout"/>
                        </use>
                        <path d="M-4,0h8M0,-4v8" fill="none" stroke="white" stroke-width="1.5" pointer-events="none"/>
                </g>
                <g id="zoomMin">
                        <use xlink:href="#rim" fill="#404040">
                                <set attributeName="fill" to="#808080" begin="zoomminus.mouseover" end="zoomminus.mouseout"/>
                        </use>
                        <path d="M-4,0h8" fill="none" stroke="white" stroke-width="1.5" pointer-events="none"/>
                </g>
                <g id="dirArrow">
                        <path fill="none" stroke="white" stroke-width="1.5" d="M0,-3.0v7 M-2.5,-0.5L0,-3.0L2.5,-0.5"/>
                </g>
               <g id="resetDef">
                       <use xlink:href="#rim2" fill="#404040">
                               <set attributeName="fill" to="#808080" begin="reset.mouseover" end="reset.mouseout"/>
                       </use>
               </g>
        </defs>

<script type="text/javascript">
var viewWidth = 1023;
var viewHeight = 447;
var sectionId = 'dynsection-2';
</script>
<script xlink:href="svgpan.js"/>
<svg id="graph" class="graph">
<g id="viewport">
<title>hpd_tcpd_settings</title>
<!-- Node1 -->
<g id="node1" class="node"><title>Node1</title>
<polygon fill="#bfbfbf" stroke="black" points="159.366,-127.5 159.366,-184.5 255.366,-184.5 255.366,-127.5 159.366,-127.5"/>
<text text-anchor="middle" x="207.366" y="-172.5" font-family="Helvetica,sans-Serif" font-size="10.00">hpd_tcpd_settings</text>
<polyline fill="none" stroke="black" points="159.366,-165.5 255.366,-165.5 "/>
<text text-anchor="middle" x="207.366" y="-153.5" font-family="Helvetica,sans-Serif" font-size="10.00"> </text>
<polyline fill="none" stroke="black" points="159.366,-146.5 255.366,-146.5 "/>
<text text-anchor="middle" x="207.366" y="-134.5" font-family="Helvetica,sans-Serif" font-size="10.00"> </text>
</g>
<!-- Node6 -->
<g id="node6" class="node"><title>Node6</title>
<g id="a_node6"><a xlink:href="a00027.html#a00108" target="_top" xlink:title="Instance of a tcpd. ">
<polygon fill="none" stroke="black" points="323.366,-0.5 323.366,-57.5 379.366,-57.5 379.366,-0.5 323.366,-0.5"/>
<text text-anchor="middle" x="351.366" y="-45.5" font-family="Helvetica,sans-Serif" font-size="10.00">hpd_tcpd</text>
<polyline fill="none" stroke="black" points="323.366,-38.5 379.366,-38.5 "/>
<text text-anchor="middle" x="351.366" y="-26.5" font-family="Helvetica,sans-Serif" font-size="10.00"> </text>
<polyline fill="none" stroke="black" points="323.366,-19.5 379.366,-19.5 "/>
<text text-anchor="middle" x="351.366" y="-7.5" font-family="Helvetica,sans-Serif" font-size="10.00"> </text>
</a>
</g>
</g>
<!-- Node1&#45;&gt;Node6 -->
<g id="edge10" class="edge"><title>Node1&#45;&gt;Node6</title>
<path fill="none" stroke="#404040" d="M181.857,-127.207C170.297,-111.17 161.572,-91.229 173.366,-76 190.095,-54.3983 264.056,-41.1163 311.219,-34.6874"/>
<polygon fill="none" stroke="#404040" points="311.262,-34.6819 316.693,-29.9382 323.161,-33.127 317.73,-37.8708 311.262,-34.6819"/>
<text text-anchor="middle" x="195.366" y="-90" font-family="Helvetica,sans-Serif" font-size="10.00"> +settings</text>
</g>
<!-- Node2 -->
<g id="node2" class="node"><title>Node2</title>
<polygon fill="none" stroke="#bfbfbf" points="33.8657,-232.5 33.8657,-289.5 76.8657,-289.5 76.8657,-232.5 33.8657,-232.5"/>
<text text-anchor="middle" x="55.3657" y="-277.5" font-family="Helvetica,sans-Serif" font-size="10.00">size_t</text>
<polyline fill="none" stroke="#bfbfbf" points="33.8657,-270.5 76.8657,-270.5 "/>
<text text-anchor="middle" x="55.3657" y="-258.5" font-family="Helvetica,sans-Serif" font-size="10.00"> </text>
<polyline fill="none" stroke="#bfbfbf" points="33.8657,-251.5 76.8657,-251.5 "/>
<text text-anchor="middle" x="55.3657" y="-239.5" font-family="Helvetica,sans-Serif" font-size="10.00"> </text>
</g>
<!-- Node2&#45;&gt;Node1 -->
<g id="edge1" class="edge"><title>Node2&#45;&gt;Node1</title>
<path fill="none" stroke="#404040" d="M49.4484,-232.269C48.8392,-222.165 50.1666,-211.217 56.3657,-203 77.3667,-175.162 114.796,-163.633 147.134,-159.078"/>
<polygon fill="none" stroke="#404040" points="147.316,-159.057 152.808,-154.383 159.234,-157.654 153.743,-162.328 147.316,-159.057"/>
<text text-anchor="middle" x="94.3657" y="-206" font-family="Helvetica,sans-Serif" font-size="10.00"> +max_data_size</text>
</g>
<!-- Node3 -->
<g id="node3" class="node"><title>Node3</title>
<polygon fill="none" stroke="#bfbfbf" points="114.866,-381.5 114.866,-438.5 143.866,-438.5 143.866,-381.5 114.866,-381.5"/>
<text text-anchor="middle" x="129.366" y="-426.5" font-family="Helvetica,sans-Serif" font-size="10.00">int</text>
<polyline fill="none" stroke="#bfbfbf" points="114.866,-419.5 143.866,-419.5 "/>
<text text-anchor="middle" x="129.366" y="-407.5" font-family="Helvetica,sans-Serif" font-size="10.00"> </text>
<polyline fill="none" stroke="#bfbfbf" points="114.866,-400.5 143.866,-400.5 "/>
<text text-anchor="middle" x="129.366" y="-388.5" font-family="Helvetica,sans-Serif" font-size="10.00"> </text>
</g>
<!-- Node3&#45;&gt;Node1 -->
<g id="edge2" class="edge"><title>Node3&#45;&gt;Node1</title>
<path fill="none" stroke="#404040" d="M125.168,-381.349C120.938,-345.396 117.651,-281.368 138.366,-232 144.307,-217.839 154.152,-204.659 164.57,-193.423"/>
<polygon fill="none" stroke="#404040" points="164.58,-193.412 165.927,-186.328 172.984,-184.846 171.637,-191.931 164.58,-193.412"/>
<text text-anchor="middle" x="167.366" y="-264" font-family="Helvetica,sans-Serif" font-size="10.00"> +retry_delay</text>
<text text-anchor="middle" x="167.366" y="-253" font-family="Helvetica,sans-Serif" font-size="10.00">+timeout</text>
</g>
<!-- Node3&#45;&gt;Node6 -->
<g id="edge9" class="edge"><title>Node3&#45;&gt;Node6</title>
<path fill="none" stroke="#404040" d="M114.864,-398.636C75.3486,-369.05 -28.8522,-281.291 8.36571,-203 64.0382,-85.8882 232.991,-46.8765 311.044,-34.8852"/>
<polygon fill="none" stroke="#404040" points="311.324,-34.8448 316.688,-30.0261 323.2,-33.1249 317.835,-37.9436 311.324,-34.8448"/>
<text text-anchor="middle" x="27.8657" y="-206" font-family="Helvetica,sans-Serif" font-size="10.00"> +sockfd</text>
</g>
<!-- Node13 -->
<g id="node13" class="node"><title>Node13</title>
<g id="a_node13"><a xlink:href="a00009.html#a00087" target="_top" xlink:title="{hpd\n||}">
<polygon fill="none" stroke="black" points="610.366,-232.5 610.366,-289.5 642.366,-289.5 642.366,-232.5 610.366,-232.5"/>
<text text-anchor="middle" x="626.366" y="-277.5" font-family="Helvetica,sans-Serif" font-size="10.00">hpd</text>
<polyline fill="none" stroke="black" points="610.366,-270.5 642.366,-270.5 "/>
<text text-anchor="middle" x="626.366" y="-258.5" font-family="Helvetica,sans-Serif" font-size="10.00"> </text>
<polyline fill="none" stroke="black" points="610.366,-251.5 642.366,-251.5 "/>
<text text-anchor="middle" x="626.366" y="-239.5" font-family="Helvetica,sans-Serif" font-size="10.00"> </text>
</a>
</g>
</g>
<!-- Node3&#45;&gt;Node13 -->
<g id="edge22" class="edge"><title>Node3&#45;&gt;Node13</title>
<path fill="none" stroke="#404040" d="M143.881,-382.973C158.992,-358.74 185.096,-324.022 218.366,-308 291.733,-272.668 507.031,-315.505 584.366,-290 589.755,-288.223 595.104,-285.553 600.09,-282.557"/>
<polygon fill="none" stroke="#404040" points="600.339,-282.389 603.086,-275.722 610.297,-275.693 607.55,-282.361 600.339,-282.389"/>
<text text-anchor="middle" x="253.366" y="-333" font-family="Helvetica,sans-Serif" font-size="10.00"> +options_count</text>
</g>
<!-- Node4 -->
<g id="node4" class="node"><title>Node4</title>
<polygon fill="none" stroke="#bfbfbf" points="205.866,-232.5 205.866,-289.5 310.866,-289.5 310.866,-232.5 205.866,-232.5"/>
<text text-anchor="middle" x="258.366" y="-277.5" font-family="Helvetica,sans-Serif" font-size="10.00">enum hpd_tcpd_port</text>
<polyline fill="none" stroke="#bfbfbf" points="205.866,-270.5 310.866,-270.5 "/>
<text text-anchor="middle" x="258.366" y="-258.5" font-family="Helvetica,sans-Serif" font-size="10.00"> </text>
<polyline fill="none" stroke="#bfbfbf" points="205.866,-251.5 310.866,-251.5 "/>
<text text-anchor="middle" x="258.366" y="-239.5" font-family="Helvetica,sans-Serif" font-size="10.00"> </text>
</g>
<!-- Node4&#45;&gt;Node1 -->
<g id="edge3" class="edge"><title>Node4&#45;&gt;Node1</title>
<path fill="none" stroke="#404040" d="M244.699,-232.398C239.096,-221.083 232.515,-207.791 226.451,-195.545"/>
<polygon fill="none" stroke="#404040" points="226.395,-195.432 220.148,-191.83 221.07,-184.678 227.318,-188.28 226.395,-195.432"/>
<text text-anchor="middle" x="248.366" y="-206" font-family="Helvetica,sans-Serif" font-size="10.00"> +port</text>
</g>
<!-- Node5 -->
<g id="node5" class="node"><title>Node5</title>
<polygon fill="none" stroke="#bfbfbf" points="367.866,-232.5 367.866,-289.5 408.866,-289.5 408.866,-232.5 367.866,-232.5"/>
<text text-anchor="middle" x="388.366" y="-277.5" font-family="Helvetica,sans-Serif" font-size="10.00">void *</text>
<polyline fill="none" stroke="#bfbfbf" points="367.866,-270.5 408.866,-270.5 "/>
<text text-anchor="middle" x="388.366" y="-258.5" font-family="Helvetica,sans-Serif" font-size="10.00"> </text>
<polyline fill="none" stroke="#bfbfbf" points="367.866,-251.5 408.866,-251.5 "/>
<text text-anchor="middle" x="388.366" y="-239.5" font-family="Helvetica,sans-Serif" font-size="10.00"> </text>
</g>
<!-- Node5&#45;&gt;Node1 -->
<g id="edge4" class="edge"><title>Node5&#45;&gt;Node1</title>
<path fill="none" stroke="#404040" d="M380.608,-232.305C376.431,-221.841 370.256,-210.631 361.366,-203 335.291,-180.618 298.664,-169.125 267.672,-163.224"/>
<polygon fill="none" stroke="#404040" points="267.492,-163.193 260.901,-166.117 255.666,-161.157 262.258,-158.233 267.492,-163.193"/>
<text text-anchor="middle" x="394.866" y="-206" font-family="Helvetica,sans-Serif" font-size="10.00"> +tcpd_ctx</text>
</g>
<!-- Node10 -->
<g id="node10" class="node"><title>Node10</title>
<g id="a_node10"><a xlink:href="a00020.html" target="_top" xlink:title="{hpd_module\n||+ TAILQ_ENTRY()\l}">
<polygon fill="none" stroke="black" points="544.366,-127.5 544.366,-184.5 644.366,-184.5 644.366,-127.5 544.366,-127.5"/>
<text text-anchor="middle" x="594.366" y="-172.5" font-family="Helvetica,sans-Serif" font-size="10.00">hpd_module</text>
<polyline fill="none" stroke="black" points="544.366,-165.5 644.366,-165.5 "/>
<text text-anchor="middle" x="594.366" y="-153.5" font-family="Helvetica,sans-Serif" font-size="10.00"> </text>
<polyline fill="none" stroke="black" points="544.366,-146.5 644.366,-146.5 "/>
<text text-anchor="start" x="552.366" y="-134.5" font-family="Helvetica,sans-Serif" font-size="10.00">+ TAILQ_ENTRY()</text>
</a>
</g>
</g>
<!-- Node5&#45;&gt;Node10 -->
<g id="edge26" class="edge"><title>Node5&#45;&gt;Node10</title>
<path fill="none" stroke="#404040" d="M409.2,-238.784C412.146,-236.324 415.24,-233.988 418.366,-232 462.604,-203.865 481.539,-206.902 533.108,-185.769"/>
<polygon fill="none" stroke="#404040" points="533.204,-185.729 537.163,-179.702 544.249,-181.039 540.29,-187.066 533.204,-185.729"/>
<text text-anchor="middle" x="498.366" y="-206" font-family="Helvetica,sans-Serif" font-size="10.00"> +data</text>
</g>
<!-- Node6&#45;&gt;Node1 -->
<g id="edge5" class="edge"><title>Node6&#45;&gt;Node1</title>
<path fill="none" stroke="#404040" d="M323.206,-35.528C298.77,-41.6419 263.876,-53.7215 241.366,-76 230.339,-86.9138 222.662,-101.983 217.432,-116.036"/>
<polygon fill="none" stroke="#404040" points="217.407,-116.11 219.294,-123.07 213.595,-127.488 211.708,-120.528 217.407,-116.11"/>
<text text-anchor="middle" x="277.866" y="-101" font-family="Helvetica,sans-Serif" font-size="10.00"> +on_disconnect</text>
<text text-anchor="middle" x="277.866" y="-90" font-family="Helvetica,sans-Serif" font-size="10.00">+on_connect</text>
<text text-anchor="middle" x="277.866" y="-79" font-family="Helvetica,sans-Serif" font-size="10.00">+on_receive</text>
</g>
<!-- Node7 -->
<g id="node7" class="node"><title>Node7</title>
<polygon fill="none" stroke="#bfbfbf" points="353.366,-381.5 353.366,-438.5 439.366,-438.5 439.366,-381.5 353.366,-381.5"/>
<text text-anchor="middle" x="396.366" y="-426.5" font-family="Helvetica,sans-Serif" font-size="10.00">hpd_ev_loop_t *</text>
<polyline fill="none" stroke="#bfbfbf" points="353.366,-419.5 439.366,-419.5 "/>
<text text-anchor="middle" x="396.366" y="-407.5" font-family="Helvetica,sans-Serif" font-size="10.00"> </text>
<polyline fill="none" stroke="#bfbfbf" points="353.366,-400.5 439.366,-400.5 "/>
<text text-anchor="middle" x="396.366" y="-388.5" font-family="Helvetica,sans-Serif" font-size="10.00"> </text>
</g>
<!-- Node7&#45;&gt;Node6 -->
<g id="edge6" class="edge"><title>Node7&#45;&gt;Node6</title>
<path fill="none" stroke="#404040" d="M383.587,-381.345C367.205,-344.224 339.685,-275.789 329.366,-214 321.081,-164.393 331.119,-106.758 340.19,-69.3979"/>
<polygon fill="none" stroke="#404040" points="340.246,-69.1766 337.847,-62.3763 343.202,-57.5462 345.601,-64.3466 340.246,-69.1766"/>
<text text-anchor="middle" x="343.366" y="-206" font-family="Helvetica,sans-Serif" font-size="10.00"> +loop</text>
</g>
<!-- Node7&#45;&gt;Node13 -->
<g id="edge21" class="edge"><title>Node7&#45;&gt;Node13</title>
<path fill="none" stroke="#404040" d="M408.84,-381.049C420.853,-357.575 441.332,-325.192 469.366,-308 513.467,-280.955 536.164,-308.786 584.366,-290 589.653,-287.939 594.952,-285.13 599.919,-282.082"/>
<polygon fill="none" stroke="#404040" points="600.166,-281.917 602.918,-275.251 610.129,-275.228 607.377,-281.893 600.166,-281.917"/>
<text text-anchor="middle" x="483.366" y="-333" font-family="Helvetica,sans-Serif" font-size="10.00"> +loop</text>
</g>
<!-- Node8 -->
<g id="node8" class="node"><title>Node8</title>
<polygon fill="none" stroke="#bfbfbf" points="356.866,-127.5 356.866,-184.5 391.866,-184.5 391.866,-127.5 356.866,-127.5"/>
<text text-anchor="middle" x="374.366" y="-172.5" font-family="Helvetica,sans-Serif" font-size="10.00">char</text>
<polyline fill="none" stroke="#bfbfbf" points="356.866,-165.5 391.866,-165.5 "/>
<text text-anchor="middle" x="374.366" y="-153.5" font-family="Helvetica,sans-Serif" font-size="10.00"> </text>
<polyline fill="none" stroke="#bfbfbf" points="356.866,-146.5 391.866,-146.5 "/>
<text text-anchor="middle" x="374.366" y="-134.5" font-family="Helvetica,sans-Serif" font-size="10.00"> </text>
</g>
<!-- Node8&#45;&gt;Node6 -->
<g id="edge7" class="edge"><title>Node8&#45;&gt;Node6</title>
<path fill="none" stroke="#404040" d="M369.261,-127.258C366.15,-110.347 362.122,-88.457 358.676,-69.7276"/>
<polygon fill="none" stroke="#404040" points="358.628,-69.4659 353.608,-64.2888 356.456,-57.664 361.476,-62.8411 358.628,-69.4659"/>
<text text-anchor="middle" x="387.866" y="-90" font-family="Helvetica,sans-Serif" font-size="10.00"> +port_str</text>
</g>
<!-- Node9 -->
<g id="node9" class="node"><title>Node9</title>
<polygon fill="none" stroke="#bfbfbf" points="410.366,-127.5 410.366,-184.5 526.366,-184.5 526.366,-127.5 410.366,-127.5"/>
<text text-anchor="middle" x="468.366" y="-172.5" font-family="Helvetica,sans-Serif" font-size="10.00">struct hpd_tcpd_conns</text>
<polyline fill="none" stroke="#bfbfbf" points="410.366,-165.5 526.366,-165.5 "/>
<text text-anchor="middle" x="468.366" y="-153.5" font-family="Helvetica,sans-Serif" font-size="10.00"> </text>
<polyline fill="none" stroke="#bfbfbf" points="410.366,-146.5 526.366,-146.5 "/>
<text text-anchor="middle" x="468.366" y="-134.5" font-family="Helvetica,sans-Serif" font-size="10.00"> </text>
</g>
<!-- Node9&#45;&gt;Node6 -->
<g id="edge8" class="edge"><title>Node9&#45;&gt;Node6</title>
<path fill="none" stroke="#404040" d="M452.272,-127.386C442.227,-111.411 428.378,-91.472 413.366,-76 406.121,-68.5332 397.569,-61.3651 389.169,-55.0012"/>
<polygon fill="none" stroke="#404040" points="389.163,-54.9973 381.959,-54.6965 379.465,-47.9302 386.67,-48.231 389.163,-54.9973"/>
<text text-anchor="middle" x="458.366" y="-90" font-family="Helvetica,sans-Serif" font-size="10.00"> +conns</text>
</g>
<!-- Node10&#45;&gt;Node6 -->
<g id="edge11" class="edge"><title>Node10&#45;&gt;Node6</title>
<path fill="none" stroke="#404040" d="M559.691,-127.38C537.845,-110.91 508.535,-90.4607 480.366,-76 451.696,-61.2827 417.225,-49.2552 391.132,-41.1947"/>
<polygon fill="none" stroke="#404040" points="390.912,-41.1285 384.013,-43.2287 379.421,-37.6686 386.32,-35.5684 390.912,-41.1285"/>
<text text-anchor="middle" x="553.366" y="-90" font-family="Helvetica,sans-Serif" font-size="10.00"> +context</text>
</g>
<!-- Node10&#45;&gt;Node13 -->
<g id="edge25" class="edge"><title>Node10&#45;&gt;Node13</title>
<path fill="none" stroke="#404040" d="M612.498,-184.877C615.578,-190.673 618.409,-196.884 620.366,-203 622.084,-208.369 623.335,-214.154 624.242,-219.907"/>
<polygon fill="none" stroke="#404040" points="624.297,-220.363 628.983,-225.844 625.726,-232.278 621.04,-226.797 624.297,-220.363"/>
<text text-anchor="middle" x="659.866" y="-206" font-family="Helvetica,sans-Serif" font-size="10.00"> +option2module</text>
</g>
<!-- Node11 -->
<g id="node11" class="node"><title>Node11</title>
<g id="a_node11"><a xlink:href="a00021.html#a00100" target="_top" xlink:title="[Application API Callbacks] ">
<polygon fill="none" stroke="black" points="427.366,-232.5 427.366,-289.5 515.366,-289.5 515.366,-232.5 427.366,-232.5"/>
<text text-anchor="middle" x="471.366" y="-277.5" font-family="Helvetica,sans-Serif" font-size="10.00">hpd_module_def</text>
<polyline fill="none" stroke="black" points="427.366,-270.5 515.366,-270.5 "/>
<text text-anchor="middle" x="471.366" y="-258.5" font-family="Helvetica,sans-Serif" font-size="10.00"> </text>
<polyline fill="none" stroke="black" points="427.366,-251.5 515.366,-251.5 "/>
<text text-anchor="middle" x="471.366" y="-239.5" font-family="Helvetica,sans-Serif" font-size="10.00"> </text>
</a>
</g>
</g>
<!-- Node11&#45;&gt;Node10 -->
<g id="edge12" class="edge"><title>Node11&#45;&gt;Node10</title>
<path fill="none" stroke="#404040" d="M504.327,-232.398C518.942,-220.16 536.319,-205.608 551.891,-192.568"/>
<polygon fill="none" stroke="#404040" points="552.113,-192.383 554.145,-185.464 561.313,-184.678 559.281,-191.597 552.113,-192.383"/>
<text text-anchor="middle" x="548.866" y="-206" font-family="Helvetica,sans-Serif" font-size="10.00"> +def</text>
</g>
<!-- Node12 -->
<g id="node12" class="node"><title>Node12</title>
<polygon fill="none" stroke="#bfbfbf" points="217.366,-381.5 217.366,-438.5 301.366,-438.5 301.366,-381.5 217.366,-381.5"/>
<text text-anchor="middle" x="259.366" y="-426.5" font-family="Helvetica,sans-Serif" font-size="10.00">enum hpd_error</text>
<polyline fill="none" stroke="#bfbfbf" points="217.366,-419.5 301.366,-419.5 "/>
<text text-anchor="middle" x="259.366" y="-407.5" font-family="Helvetica,sans-Serif" font-size="10.00"> </text>
<polyline fill="none" stroke="#bfbfbf" points="217.366,-400.5 301.366,-400.5 "/>
<text text-anchor="middle" x="259.366" y="-388.5" font-family="Helvetica,sans-Serif" font-size="10.00"> </text>
</g>
<!-- Node12&#45;&gt;Node11 -->
<g id="edge13" class="edge"><title>Node12&#45;&gt;Node11</title>
<path fill="none" stroke="#404040" d="M277.683,-381.399C294.297,-358.474 320.816,-326.693 351.366,-308 374.464,-293.866 386.305,-299.403 415.586,-290.03"/>
<polygon fill="none" stroke="#404040" points="415.927,-289.908 420.215,-284.11 427.216,-285.838 422.928,-291.636 415.927,-289.908"/>
<text text-anchor="middle" x="383.866" y="-355" font-family="Helvetica,sans-Serif" font-size="10.00"> +on_create</text>
<text text-anchor="middle" x="383.866" y="-344" font-family="Helvetica,sans-Serif" font-size="10.00">+on_stop</text>
<text text-anchor="middle" x="383.866" y="-333" font-family="Helvetica,sans-Serif" font-size="10.00">+on_destroy</text>
<text text-anchor="middle" x="383.866" y="-322" font-family="Helvetica,sans-Serif" font-size="10.00">+on_start</text>
<text text-anchor="middle" x="383.866" y="-311" font-family="Helvetica,sans-Serif" font-size="10.00">+on_parse_opt</text>
</g>
<!-- Node13&#45;&gt;Node10 -->
<g id="edge14" class="edge"><title>Node13&#45;&gt;Node10</title>
<path fill="none" stroke="#404040" d="M610.069,-241.157C604.276,-233.296 598.434,-223.736 595.366,-214 593.68,-208.652 592.692,-202.879 592.175,-197.132"/>
<polygon fill="none" stroke="#404040" points="592.161,-196.756 587.937,-190.911 591.707,-184.764 595.931,-190.609 592.161,-196.756"/>
<text text-anchor="middle" x="607.866" y="-206" font-family="Helvetica,sans-Serif" font-size="10.00"> +hpd</text>
</g>
<!-- Node16 -->
<g id="node16" class="node"><title>Node16</title>
<g id="a_node16"><a xlink:href="a00005.html#a00083" target="_top" xlink:title="{configuration\n||}">
<polygon fill="none" stroke="black" points="794.366,-127.5 794.366,-184.5 866.366,-184.5 866.366,-127.5 794.366,-127.5"/>
<text text-anchor="middle" x="830.366" y="-172.5" font-family="Helvetica,sans-Serif" font-size="10.00">configuration</text>
<polyline fill="none" stroke="black" points="794.366,-165.5 866.366,-165.5 "/>
<text text-anchor="middle" x="830.366" y="-153.5" font-family="Helvetica,sans-Serif" font-size="10.00"> </text>
<polyline fill="none" stroke="black" points="794.366,-146.5 866.366,-146.5 "/>
<text text-anchor="middle" x="830.366" y="-134.5" font-family="Helvetica,sans-Serif" font-size="10.00"> </text>
</a>
</g>
</g>
<!-- Node13&#45;&gt;Node16 -->
<g id="edge19" class="edge"><title>Node13&#45;&gt;Node16</title>
<path fill="none" stroke="#404040" d="M642.536,-251.345C663.749,-240.036 702.177,-219.708 735.366,-203 750.907,-195.176 767.99,-186.828 783.331,-179.42"/>
<polygon fill="none" stroke="#404040" points="783.335,-179.418 787.007,-173.212 794.148,-174.214 790.476,-180.42 783.335,-179.418"/>
<text text-anchor="middle" x="747.866" y="-206" font-family="Helvetica,sans-Serif" font-size="10.00"> +hpd</text>
</g>
<!-- Node14 -->
<g id="node14" class="node"><title>Node14</title>
<polygon fill="none" stroke="#bfbfbf" points="682.366,-381.5 682.366,-438.5 764.366,-438.5 764.366,-381.5 682.366,-381.5"/>
<text text-anchor="middle" x="723.366" y="-426.5" font-family="Helvetica,sans-Serif" font-size="10.00">argp_option_t *</text>
<polyline fill="none" stroke="#bfbfbf" points="682.366,-419.5 764.366,-419.5 "/>
<text text-anchor="middle" x="723.366" y="-407.5" font-family="Helvetica,sans-Serif" font-size="10.00"> </text>
<polyline fill="none" stroke="#bfbfbf" points="682.366,-400.5 764.366,-400.5 "/>
<text text-anchor="middle" x="723.366" y="-388.5" font-family="Helvetica,sans-Serif" font-size="10.00"> </text>
</g>
<!-- Node14&#45;&gt;Node13 -->
<g id="edge15" class="edge"><title>Node14&#45;&gt;Node13</title>
<path fill="none" stroke="#404040" d="M723.105,-381.359C721.628,-359.618 716.641,-329.508 701.366,-308 689.622,-291.465 669.886,-279.708 653.606,-272.22"/>
<polygon fill="none" stroke="#404040" points="653.572,-272.206 646.486,-273.543 642.527,-267.516 649.613,-266.179 653.572,-272.206"/>
<text text-anchor="middle" x="741.866" y="-333" font-family="Helvetica,sans-Serif" font-size="10.00"> +options</text>
</g>
<!-- Node15 -->
<g id="node15" class="node"><title>Node15</title>
<polygon fill="none" stroke="#bfbfbf" points="782.866,-381.5 782.866,-438.5 863.866,-438.5 863.866,-381.5 782.866,-381.5"/>
<text text-anchor="middle" x="823.366" y="-426.5" font-family="Helvetica,sans-Serif" font-size="10.00">struct modules</text>
<polyline fill="none" stroke="#bfbfbf" points="782.866,-419.5 863.866,-419.5 "/>
<text text-anchor="middle" x="823.366" y="-407.5" font-family="Helvetica,sans-Serif" font-size="10.00"> </text>
<polyline fill="none" stroke="#bfbfbf" points="782.866,-400.5 863.866,-400.5 "/>
<text text-anchor="middle" x="823.366" y="-388.5" font-family="Helvetica,sans-Serif" font-size="10.00"> </text>
</g>
<!-- Node15&#45;&gt;Node13 -->
<g id="edge16" class="edge"><title>Node15&#45;&gt;Node13</title>
<path fill="none" stroke="#404040" d="M814.149,-381.246C805.269,-358.542 789.712,-327.16 766.366,-308 733.806,-281.279 685.222,-269.902 654.692,-265.185"/>
<polygon fill="none" stroke="#404040" points="654.322,-265.134 647.833,-268.28 642.434,-263.5 648.923,-260.354 654.322,-265.134"/>
<text text-anchor="middle" x="829.366" y="-333" font-family="Helvetica,sans-Serif" font-size="10.00"> +modules</text>
</g>
<!-- Node16&#45;&gt;Node13 -->
<g id="edge17" class="edge"><title>Node16&#45;&gt;Node13</title>
<path fill="none" stroke="#404040" d="M803.31,-184.604C792.03,-194.931 778.316,-206.067 764.366,-214 728.956,-234.136 683.384,-247.159 654.512,-254.039"/>
<polygon fill="none" stroke="#404040" points="654.218,-254.106 649.257,-259.339 642.518,-256.771 647.48,-251.538 654.218,-254.106"/>
<text text-anchor="middle" x="812.866" y="-206" font-family="Helvetica,sans-Serif" font-size="10.00"> +configuration</text>
</g>
<!-- Node17 -->
<g id="node17" class="node"><title>Node17</title>
<polygon fill="none" stroke="#bfbfbf" points="933.366,-232.5 933.366,-289.5 1015.37,-289.5 1015.37,-232.5 933.366,-232.5"/>
<text text-anchor="middle" x="974.366" y="-277.5" font-family="Helvetica,sans-Serif" font-size="10.00">struct adapters</text>
<polyline fill="none" stroke="#bfbfbf" points="933.366,-270.5 1015.37,-270.5 "/>
<text text-anchor="middle" x="974.366" y="-258.5" font-family="Helvetica,sans-Serif" font-size="10.00"> </text>
<polyline fill="none" stroke="#bfbfbf" points="933.366,-251.5 1015.37,-251.5 "/>
<text text-anchor="middle" x="974.366" y="-239.5" font-family="Helvetica,sans-Serif" font-size="10.00"> </text>
</g>
<!-- Node17&#45;&gt;Node16 -->
<g id="edge18" class="edge"><title>Node17&#45;&gt;Node16</title>
<path fill="none" stroke="#404040" d="M943.345,-232.282C932.011,-222.621 918.895,-211.962 906.366,-203 897.154,-196.41 886.973,-189.816 877.137,-183.762"/>
<polygon fill="none" stroke="#404040" points="876.931,-183.637 869.727,-183.957 866.661,-177.43 873.865,-177.11 876.931,-183.637"/>
<text text-anchor="middle" x="942.866" y="-206" font-family="Helvetica,sans-Serif" font-size="10.00"> +adapters</text>
</g>
<!-- Node18 -->
<g id="node18" class="node"><title>Node18</title>
<polygon fill="none" stroke="#bfbfbf" points="833.866,-232.5 833.866,-289.5 914.866,-289.5 914.866,-232.5 833.866,-232.5"/>
<text text-anchor="middle" x="874.366" y="-277.5" font-family="Helvetica,sans-Serif" font-size="10.00">struct listeners</text>
<polyline fill="none" stroke="#bfbfbf" points="833.866,-270.5 914.866,-270.5 "/>
<text text-anchor="middle" x="874.366" y="-258.5" font-family="Helvetica,sans-Serif" font-size="10.00"> </text>
<polyline fill="none" stroke="#bfbfbf" points="833.866,-251.5 914.866,-251.5 "/>
<text text-anchor="middle" x="874.366" y="-239.5" font-family="Helvetica,sans-Serif" font-size="10.00"> </text>
</g>
<!-- Node18&#45;&gt;Node16 -->
<g id="edge20" class="edge"><title>Node18&#45;&gt;Node16</title>
<path fill="none" stroke="#404040" d="M864.164,-232.282C860.586,-222.919 856.441,-212.448 852.366,-203 851.312,-200.556 850.202,-198.052 849.064,-195.536"/>
<polygon fill="none" stroke="#404040" points="849.027,-195.457 842.875,-191.696 843.98,-184.571 850.132,-188.331 849.027,-195.457"/>
<text text-anchor="middle" x="879.366" y="-206" font-family="Helvetica,sans-Serif" font-size="10.00"> +listeners</text>
</g>
<!-- Node19 -->
<g id="node19" class="node"><title>Node19</title>
<polygon fill="none" stroke="#bfbfbf" points="474.366,-381.5 474.366,-438.5 532.366,-438.5 532.366,-381.5 474.366,-381.5"/>
<text text-anchor="middle" x="503.366" y="-426.5" font-family="Helvetica,sans-Serif" font-size="10.00">ev_signal</text>
<polyline fill="none" stroke="#bfbfbf" points="474.366,-419.5 532.366,-419.5 "/>
<text text-anchor="middle" x="503.366" y="-407.5" font-family="Helvetica,sans-Serif" font-size="10.00"> </text>
<polyline fill="none" stroke="#bfbfbf" points="474.366,-400.5 532.366,-400.5 "/>
<text text-anchor="middle" x="503.366" y="-388.5" font-family="Helvetica,sans-Serif" font-size="10.00"> </text>
</g>
<!-- Node19&#45;&gt;Node13 -->
<g id="edge23" class="edge"><title>Node19&#45;&gt;Node13</title>
<path fill="none" stroke="#404040" d="M500.515,-381.148C499.809,-358.694 502.664,-327.713 520.366,-308 540.108,-286.015 557.521,-302.347 584.366,-290 589.613,-287.587 594.942,-284.56 599.963,-281.396"/>
<polygon fill="none" stroke="#404040" points="600.355,-281.132 603.101,-274.465 610.312,-274.434 607.566,-281.102 600.355,-281.132"/>
<text text-anchor="middle" x="561.366" y="-338.5" font-family="Helvetica,sans-Serif" font-size="10.00"> +sigterm_watcher</text>
<text text-anchor="middle" x="561.366" y="-327.5" font-family="Helvetica,sans-Serif" font-size="10.00">+sigint_watcher</text>
</g>
<!-- Node20 -->
<g id="node20" class="node"><title>Node20</title>
<polygon fill="none" stroke="#bfbfbf" points="550.866,-381.5 550.866,-438.5 663.866,-438.5 663.866,-381.5 550.866,-381.5"/>
<text text-anchor="middle" x="607.366" y="-426.5" font-family="Helvetica,sans-Serif" font-size="10.00">struct hpd_ev_asyncs</text>
<polyline fill="none" stroke="#bfbfbf" points="550.866,-419.5 663.866,-419.5 "/>
<text text-anchor="middle" x="607.366" y="-407.5" font-family="Helvetica,sans-Serif" font-size="10.00"> </text>
<polyline fill="none" stroke="#bfbfbf" points="550.866,-400.5 663.866,-400.5 "/>
<text text-anchor="middle" x="607.366" y="-388.5" font-family="Helvetica,sans-Serif" font-size="10.00"> </text>
</g>
<!-- Node20&#45;&gt;Node13 -->
<g id="edge24" class="edge"><title>Node20&#45;&gt;Node13</title>
<path fill="none" stroke="#404040" d="M605.935,-381.326C605.422,-360.894 605.852,-332.498 610.366,-308 610.762,-305.848 611.242,-303.662 611.784,-301.469"/>
<polygon fill="none" stroke="#404040" points="611.811,-301.375 609.645,-294.497 615.16,-289.852 617.327,-296.73 611.811,-301.375"/>
<text text-anchor="middle" x="655.866" y="-355" font-family="Helvetica,sans-Serif" font-size="10.00"> +respond_watchers</text>
<text text-anchor="middle" x="655.866" y="-344" font-family="Helvetica,sans-Serif" font-size="10.00">+request_watchers</text>
<text text-anchor="middle" x="655.866" y="-333" font-family="Helvetica,sans-Serif" font-size="10.00">+changed_watchers</text>
<text text-anchor="middle" x="655.866" y="-322" font-family="Helvetica,sans-Serif" font-size="10.00">+attached_watchers</text>
<text text-anchor="middle" x="655.866" y="-311" font-family="Helvetica,sans-Serif" font-size="10.00">+detached_watchers</text>
</g>
<!-- Node21 -->
<g id="node21" class="node"><title>Node21</title>
<polygon fill="none" stroke="#bfbfbf" points="533.366,-232.5 533.366,-289.5 575.366,-289.5 575.366,-232.5 533.366,-232.5"/>
<text text-anchor="middle" x="554.366" y="-277.5" font-family="Helvetica,sans-Serif" font-size="10.00">char *</text>
<polyline fill="none" stroke="#bfbfbf" points="533.366,-270.5 575.366,-270.5 "/>
<text text-anchor="middle" x="554.366" y="-258.5" font-family="Helvetica,sans-Serif" font-size="10.00"> </text>
<polyline fill="none" stroke="#bfbfbf" points="533.366,-251.5 575.366,-251.5 "/>
<text text-anchor="middle" x="554.366" y="-239.5" font-family="Helvetica,sans-Serif" font-size="10.00"> </text>
</g>
<!-- Node21&#45;&gt;Node10 -->
<g id="edge27" class="edge"><title>Node21&#45;&gt;Node10</title>
<path fill="none" stroke="#404040" d="M562.204,-232.474C565.118,-223.03 568.631,-212.46 572.366,-203 573.28,-200.684 574.259,-198.322 575.277,-195.952"/>
<polygon fill="none" stroke="#404040" points="575.307,-195.884 574.124,-188.771 580.235,-184.943 581.418,-192.056 575.307,-195.884"/>
<text text-anchor="middle" x="580.866" y="-206" font-family="Helvetica,sans-Serif" font-size="10.00"> +id</text>
</g>
<!-- Node22 -->
<g id="node22" class="node"><title>Node22</title>
<polygon fill="none" stroke="#bfbfbf" points="662.366,-127.5 662.366,-184.5 702.366,-184.5 702.366,-127.5 662.366,-127.5"/>
<text text-anchor="middle" x="682.366" y="-172.5" font-family="Helvetica,sans-Serif" font-size="10.00">ev_io</text>
<polyline fill="none" stroke="#bfbfbf" points="662.366,-165.5 702.366,-165.5 "/>
<text text-anchor="middle" x="682.366" y="-153.5" font-family="Helvetica,sans-Serif" font-size="10.00"> </text>
<polyline fill="none" stroke="#bfbfbf" points="662.366,-146.5 702.366,-146.5 "/>
<text text-anchor="middle" x="682.366" y="-134.5" font-family="Helvetica,sans-Serif" font-size="10.00"> </text>
</g>
<!-- Node22&#45;&gt;Node6 -->
<g id="edge28" class="edge"><title>Node22&#45;&gt;Node6</title>
<path fill="none" stroke="#404040" d="M662.079,-134.538C642.453,-116.06 610.965,-89.7273 578.366,-76 516.243,-49.8407 438.146,-38.2164 391.631,-33.3083"/>
<polygon fill="none" stroke="#404040" points="391.611,-33.3065 385.246,-36.6945 379.67,-32.1217 386.036,-28.7336 391.611,-33.3065"/>
<text text-anchor="middle" x="652.366" y="-90" font-family="Helvetica,sans-Serif" font-size="10.00"> +watcher</text>
</g>
</g>
</svg>
        <g id="navigator" transform="translate(0 0)" fill="#404254">
                <rect fill="#f2f5e9" fill-opacity="0.5" stroke="#606060" stroke-width=".5" x="0" y="0" width="60" height="60"/>
                <use id="zoomplus" xlink:href="#zoomPlus" x="17" y="9" onmousedown="handleZoom(evt,'in')"/>
                <use id="zoomminus" xlink:href="#zoomMin" x="42" y="9" onmousedown="handleZoom(evt,'out')"/>
                <use id="reset" xlink:href="#resetDef" x="30" y="36" onmousedown="handleReset()"/>
                <g id="arrowUp" xlink:href="#dirArrow" transform="translate(30 24)" onmousedown="handlePan(0,-1)">
                  <use xlink:href="#rim" fill="#404040">
                        <set attributeName="fill" to="#808080" begin="arrowUp.mouseover" end="arrowUp.mouseout"/>
                  </use>
                  <path fill="none" stroke="white" stroke-width="1.5" d="M0,-3.0v7 M-2.5,-0.5L0,-3.0L2.5,-0.5"/>
                </g>
                <g id="arrowRight" xlink:href="#dirArrow" transform="rotate(90) translate(36 -43)" onmousedown="handlePan(1,0)">
                  <use xlink:href="#rim" fill="#404040">
                        <set attributeName="fill" to="#808080" begin="arrowRight.mouseover" end="arrowRight.mouseout"/>
                  </use>
                  <path fill="none" stroke="white" stroke-width="1.5" d="M0,-3.0v7 M-2.5,-0.5L0,-3.0L2.5,-0.5"/>
                </g>
                <g id="arrowDown" xlink:href="#dirArrow" transform="rotate(180) translate(-30 -48)" onmousedown="handlePan(0,1)">
                  <use xlink:href="#rim" fill="#404040">
                        <set attributeName="fill" to="#808080" begin="arrowDown.mouseover" end="arrowDown.mouseout"/>
                  </use>
                  <path fill="none" stroke="white" stroke-width="1.5" d="M0,-3.0v7 M-2.5,-0.5L0,-3.0L2.5,-0.5"/>
                </g>
                <g id="arrowLeft" xlink:href="#dirArrow" transform="rotate(270) translate(-36 17)" onmousedown="handlePan(-1,0)">
                  <use xlink:href="#rim" fill="#404040">
                        <set attributeName="fill" to="#808080" begin="arrowLeft.mouseover" end="arrowLeft.mouseout"/>
                  </use>
                  <path fill="none" stroke="white" stroke-width="1.5" d="M0,-3.0v7 M-2.5,-0.5L0,-3.0L2.5,-0.5"/>
                </g>
        </g>
        <svg viewBox="0 0 15 15" width="100%" height="30px" preserveAspectRatio="xMaxYMin meet">
         <g id="arrow_out" transform="scale(0.3 0.3)">
          <a xlink:href="a00157_org.svg" target="_base">
           <rect id="button" ry="5" rx="5" y="6" x="6" height="38" width="38"
                fill="#f2f5e9" fill-opacity="0.5" stroke="#606060" stroke-width="1.0"/>
           <path id="arrow"
             d="M 11.500037,31.436501 C 11.940474,20.09759 22.043105,11.32322 32.158766,21.979434 L 37.068811,17.246167 C 37.068811,17.246167 37.088388,32 37.088388,32 L 22.160133,31.978069 C 22.160133,31.978069 26.997745,27.140456 26.997745,27.140456 C 18.528582,18.264221 13.291696,25.230495 11.500037,31.436501 z"
             style="fill:#404040;"/>
          </a>
         </g>
        </svg>
</svg>
