<?xml version="1.0" encoding="UTF-8" standalone="no"?>
<!DOCTYPE svg PUBLIC "-//W3C//DTD SVG 1.1//EN"
 "http://www.w3.org/Graphics/SVG/1.1/DTD/svg11.dtd">
<!-- Generated by graphviz version 2.38.0 (20140413.2041)
 -->
<!-- Title: common/tcpd/src/tcpd_intern.h Pages: 1 -->
<svg width="292pt" height="106pt"
 viewBox="0.00 0.00 291.50 106.00" xmlns="http://www.w3.org/2000/svg" xmlns:xlink="http://www.w3.org/1999/xlink">
<g id="graph0" class="graph" transform="scale(1 1) rotate(0) translate(4 102)">
<title>common/tcpd/src/tcpd_intern.h</title>
<!-- Node1 -->
<g id="node1" class="node"><title>Node1</title>
<polygon fill="#bfbfbf" stroke="black" points="79,-67.5 79,-97.5 193,-97.5 193,-67.5 79,-67.5"/>
<text text-anchor="start" x="87" y="-85.5" font-family="Helvetica,sans-Serif" font-size="10.00">common/tcpd/src/tcpd</text>
<text text-anchor="middle" x="136" y="-74.5" font-family="Helvetica,sans-Serif" font-size="10.00">_intern.h</text>
</g>
<!-- Node2 -->
<g id="node2" class="node"><title>Node2</title>
<g id="a_node2"><a xlink:href="a00045.html" target="_top" xlink:title="common/tcpd/src/tcpd.c">
<polygon fill="none" stroke="black" points="0,-6 0,-25 122,-25 122,-6 0,-6"/>
<text text-anchor="middle" x="61" y="-13" font-family="Helvetica,sans-Serif" font-size="10.00">common/tcpd/src/tcpd.c</text>
</a>
</g>
</g>
<!-- Node1&#45;&gt;Node2 -->
<g id="edge1" class="edge"><title>Node1&#45;&gt;Node2</title>
<path fill="none" stroke="midnightblue" d="M111.968,-60.6722C98.12,-48.6707 81.4465,-34.2203 71.0322,-25.1945"/>
<polygon fill="midnightblue" stroke="midnightblue" points="109.877,-63.4915 119.726,-67.396 114.461,-58.2017 109.877,-63.4915"/>
</g>
<!-- Node3 -->
<g id="node3" class="node"><title>Node3</title>
<g id="a_node3"><a xlink:href="a00047.html" target="_top" xlink:title="common/tcpd/test/webserver\l_test.cpp">
<polygon fill="none" stroke="black" points="140.5,-0.5 140.5,-30.5 283.5,-30.5 283.5,-0.5 140.5,-0.5"/>
<text text-anchor="start" x="148.5" y="-18.5" font-family="Helvetica,sans-Serif" font-size="10.00">common/tcpd/test/webserver</text>
<text text-anchor="middle" x="212" y="-7.5" font-family="Helvetica,sans-Serif" font-size="10.00">_test.cpp</text>
</a>
</g>
</g>
<!-- Node1&#45;&gt;Node3 -->
<g id="edge2" class="edge"><title>Node1&#45;&gt;Node3</title>
<path fill="none" stroke="midnightblue" d="M160.106,-60.8832C171.655,-51.0054 185.19,-39.4293 195.541,-30.5765"/>
<polygon fill="midnightblue" stroke="midnightblue" points="157.816,-58.2364 152.491,-67.396 162.365,-63.5561 157.816,-58.2364"/>
</g>
</g>
</svg>
