<?xml version="1.0" encoding="UTF-8" standalone="no"?>
<!DOCTYPE svg PUBLIC "-//W3C//DTD SVG 1.1//EN"
 "http://www.w3.org/Graphics/SVG/1.1/DTD/svg11.dtd">
<!-- Generated by graphviz version 2.38.0 (20140413.2041)
 -->
<!-- Title: common/map/include/hpd/common/hpd_map.h Pages: 1 -->
<svg width="1195pt" height="240pt"
 viewBox="0.00 0.00 1194.50 240.00" xmlns="http://www.w3.org/2000/svg" xmlns:xlink="http://www.w3.org/1999/xlink">
<g id="graph0" class="graph" transform="scale(1 1) rotate(0) translate(4 236)">
<title>common/map/include/hpd/common/hpd_map.h</title>
<!-- Node1 -->
<g id="node1" class="node"><title>Node1</title>
<polygon fill="#bfbfbf" stroke="black" points="736.5,-201.5 736.5,-231.5 863.5,-231.5 863.5,-201.5 736.5,-201.5"/>
<text text-anchor="start" x="744.5" y="-219.5" font-family="Helvetica,sans-Serif" font-size="10.00">common/map/include</text>
<text text-anchor="middle" x="800" y="-208.5" font-family="Helvetica,sans-Serif" font-size="10.00">/hpd/common/hpd_map.h</text>
</g>
<!-- Node2 -->
<g id="node2" class="node"><title>Node2</title>
<g id="a_node2"><a xlink:href="a00027.html" target="_top" xlink:title="common/httpd/include\l/hpd/common/hpd_httpd.h">
<polygon fill="none" stroke="black" points="399,-134.5 399,-164.5 529,-164.5 529,-134.5 399,-134.5"/>
<text text-anchor="start" x="407" y="-152.5" font-family="Helvetica,sans-Serif" font-size="10.00">common/httpd/include</text>
<text text-anchor="middle" x="464" y="-141.5" font-family="Helvetica,sans-Serif" font-size="10.00">/hpd/common/hpd_httpd.h</text>
</a>
</g>
</g>
<!-- Node1&#45;&gt;Node2 -->
<g id="edge1" class="edge"><title>Node1&#45;&gt;Node2</title>
<path fill="none" stroke="midnightblue" d="M726.418,-201.265C667.488,-189.865 585.605,-174.025 529.052,-163.084"/>
<polygon fill="midnightblue" stroke="midnightblue" points="725.923,-204.734 736.406,-203.198 727.253,-197.862 725.923,-204.734"/>
</g>
<!-- Node9 -->
<g id="node9" class="node"><title>Node9</title>
<g id="a_node9"><a xlink:href="a00031.html" target="_top" xlink:title="common/map/src/map.c">
<polygon fill="none" stroke="black" points="650,-140 650,-159 772,-159 772,-140 650,-140"/>
<text text-anchor="middle" x="711" y="-147" font-family="Helvetica,sans-Serif" font-size="10.00">common/map/src/map.c</text>
</a>
</g>
</g>
<!-- Node1&#45;&gt;Node9 -->
<g id="edge9" class="edge"><title>Node1&#45;&gt;Node9</title>
<path fill="none" stroke="midnightblue" d="M772.349,-195.306C755.637,-183.1 735.204,-168.177 722.648,-159.007"/>
<polygon fill="midnightblue" stroke="midnightblue" points="770.548,-198.324 780.688,-201.396 774.677,-192.672 770.548,-198.324"/>
</g>
<!-- Node10 -->
<g id="node10" class="node"><title>Node10</title>
<g id="a_node10"><a xlink:href="a00033.html" target="_top" xlink:title="hpd/src/comm.h">
<polygon fill="none" stroke="black" points="910.5,-140 910.5,-159 997.5,-159 997.5,-140 910.5,-140"/>
<text text-anchor="middle" x="954" y="-147" font-family="Helvetica,sans-Serif" font-size="10.00">hpd/src/comm.h</text>
</a>
</g>
</g>
<!-- Node1&#45;&gt;Node10 -->
<g id="edge10" class="edge"><title>Node1&#45;&gt;Node10</title>
<path fill="none" stroke="midnightblue" d="M842.745,-197.458C872.498,-184.9 910.823,-168.724 933.845,-159.007"/>
<polygon fill="midnightblue" stroke="midnightblue" points="841.268,-194.283 833.416,-201.396 843.99,-200.732 841.268,-194.283"/>
</g>
<!-- Node11 -->
<g id="node11" class="node"><title>Node11</title>
<g id="a_node11"><a xlink:href="a00018.html" target="_top" xlink:title="hpd/src/model.h">
<polygon fill="none" stroke="black" points="675,-73 675,-92 761,-92 761,-73 675,-73"/>
<text text-anchor="middle" x="718" y="-80" font-family="Helvetica,sans-Serif" font-size="10.00">hpd/src/model.h</text>
</a>
</g>
</g>
<!-- Node1&#45;&gt;Node11 -->
<g id="edge23" class="edge"><title>Node1&#45;&gt;Node11</title>
<path fill="none" stroke="midnightblue" d="M798.521,-191.165C796.524,-174.061 791.861,-151.245 781,-134 769.346,-115.497 748.501,-100.792 733.994,-92.1268"/>
<polygon fill="midnightblue" stroke="midnightblue" points="795.068,-191.835 799.486,-201.464 802.038,-191.181 795.068,-191.835"/>
</g>
<!-- Node20 -->
<g id="node20" class="node"><title>Node20</title>
<g id="a_node20"><a xlink:href="a00090.html" target="_top" xlink:title="hpd/src/value.c">
<polygon fill="none" stroke="black" points="1103.5,-73 1103.5,-92 1186.5,-92 1186.5,-73 1103.5,-73"/>
<text text-anchor="middle" x="1145" y="-80" font-family="Helvetica,sans-Serif" font-size="10.00">hpd/src/value.c</text>
</a>
</g>
</g>
<!-- Node1&#45;&gt;Node20 -->
<g id="edge24" class="edge"><title>Node1&#45;&gt;Node20</title>
<path fill="none" stroke="midnightblue" d="M873.641,-202.846C913.671,-194.638 963.534,-182.226 1006,-165 1056.03,-144.706 1109.63,-108.689 1132.98,-92.1909"/>
<polygon fill="midnightblue" stroke="midnightblue" points="872.802,-199.445 863.686,-204.843 874.179,-206.308 872.802,-199.445"/>
</g>
<!-- Node3 -->
<g id="node3" class="node"><title>Node3</title>
<g id="a_node3"><a xlink:href="a00047.html" target="_top" xlink:title="common/httpd/example\l/greeting.c">
<polygon fill="none" stroke="black" points="404.5,-67.5 404.5,-97.5 523.5,-97.5 523.5,-67.5 404.5,-67.5"/>
<text text-anchor="start" x="412.5" y="-85.5" font-family="Helvetica,sans-Serif" font-size="10.00">common/httpd/example</text>
<text text-anchor="middle" x="464" y="-74.5" font-family="Helvetica,sans-Serif" font-size="10.00">/greeting.c</text>
</a>
</g>
</g>
<!-- Node2&#45;&gt;Node3 -->
<g id="edge2" class="edge"><title>Node2&#45;&gt;Node3</title>
<path fill="none" stroke="midnightblue" d="M464,-124.108C464,-115.154 464,-105.323 464,-97.5765"/>
<polygon fill="midnightblue" stroke="midnightblue" points="460.5,-124.396 464,-134.396 467.5,-124.396 460.5,-124.396"/>
</g>
<!-- Node4 -->
<g id="node4" class="node"><title>Node4</title>
<g id="a_node4"><a xlink:href="a00024.html" target="_top" xlink:title="common/httpd/src/httpd.c">
<polygon fill="none" stroke="black" points="276,-6 276,-25 404,-25 404,-6 276,-6"/>
<text text-anchor="middle" x="340" y="-13" font-family="Helvetica,sans-Serif" font-size="10.00">common/httpd/src/httpd.c</text>
</a>
</g>
</g>
<!-- Node2&#45;&gt;Node4 -->
<g id="edge3" class="edge"><title>Node2&#45;&gt;Node4</title>
<path fill="none" stroke="midnightblue" d="M498.745,-128.918C523.154,-112.622 548.708,-88.6705 532,-67 522.845,-55.1262 437.436,-36.0636 383.66,-25.0699"/>
<polygon fill="midnightblue" stroke="midnightblue" points="496.78,-126.019 490.23,-134.346 500.543,-131.922 496.78,-126.019"/>
</g>
<!-- Node5 -->
<g id="node5" class="node"><title>Node5</title>
<g id="a_node5"><a xlink:href="a00049.html" target="_top" xlink:title="common/httpd/src/httpd\l_request.h">
<polygon fill="none" stroke="black" points="138,-67.5 138,-97.5 258,-97.5 258,-67.5 138,-67.5"/>
<text text-anchor="start" x="146" y="-85.5" font-family="Helvetica,sans-Serif" font-size="10.00">common/httpd/src/httpd</text>
<text text-anchor="middle" x="198" y="-74.5" font-family="Helvetica,sans-Serif" font-size="10.00">_request.h</text>
</a>
</g>
</g>
<!-- Node2&#45;&gt;Node5 -->
<g id="edge4" class="edge"><title>Node2&#45;&gt;Node5</title>
<path fill="none" stroke="midnightblue" d="M396.688,-132.052C353.201,-121.425 297.203,-107.741 255.746,-97.6109"/>
<polygon fill="midnightblue" stroke="midnightblue" points="396.064,-135.502 406.609,-134.476 397.726,-128.702 396.064,-135.502"/>
</g>
<!-- Node8 -->
<g id="node8" class="node"><title>Node8</title>
<g id="a_node8"><a xlink:href="a00034.html" target="_top" xlink:title="modules/hpd_rest/src\l/rest.c">
<polygon fill="none" stroke="black" points="276,-67.5 276,-97.5 386,-97.5 386,-67.5 276,-67.5"/>
<text text-anchor="start" x="284" y="-85.5" font-family="Helvetica,sans-Serif" font-size="10.00">modules/hpd_rest/src</text>
<text text-anchor="middle" x="331" y="-74.5" font-family="Helvetica,sans-Serif" font-size="10.00">/rest.c</text>
</a>
</g>
</g>
<!-- Node2&#45;&gt;Node8 -->
<g id="edge8" class="edge"><title>Node2&#45;&gt;Node8</title>
<path fill="none" stroke="midnightblue" d="M426.13,-129.992C405.049,-119.689 379.223,-107.068 359.803,-97.5765"/>
<polygon fill="midnightblue" stroke="midnightblue" points="424.62,-133.15 435.141,-134.396 427.693,-126.86 424.62,-133.15"/>
</g>
<!-- Node5&#45;&gt;Node4 -->
<g id="edge5" class="edge"><title>Node5&#45;&gt;Node4</title>
<path fill="none" stroke="midnightblue" d="M238.128,-63.1315C265.46,-50.6205 300.371,-34.6399 321.415,-25.007"/>
<polygon fill="midnightblue" stroke="midnightblue" points="236.448,-60.0513 228.812,-67.396 239.361,-66.4162 236.448,-60.0513"/>
</g>
<!-- Node6 -->
<g id="node6" class="node"><title>Node6</title>
<g id="a_node6"><a xlink:href="a00025.html" target="_top" xlink:title="common/httpd/src/httpd\l_request.c">
<polygon fill="none" stroke="black" points="138,-0.5 138,-30.5 258,-30.5 258,-0.5 138,-0.5"/>
<text text-anchor="start" x="146" y="-18.5" font-family="Helvetica,sans-Serif" font-size="10.00">common/httpd/src/httpd</text>
<text text-anchor="middle" x="198" y="-7.5" font-family="Helvetica,sans-Serif" font-size="10.00">_request.c</text>
</a>
</g>
</g>
<!-- Node5&#45;&gt;Node6 -->
<g id="edge6" class="edge"><title>Node5&#45;&gt;Node6</title>
<path fill="none" stroke="midnightblue" d="M198,-57.1081C198,-48.1539 198,-38.3227 198,-30.5765"/>
<polygon fill="midnightblue" stroke="midnightblue" points="194.5,-57.3959 198,-67.396 201.5,-57.396 194.5,-57.3959"/>
</g>
<!-- Node7 -->
<g id="node7" class="node"><title>Node7</title>
<g id="a_node7"><a xlink:href="a00026.html" target="_top" xlink:title="common/httpd/src/httpd\l_response.c">
<polygon fill="none" stroke="black" points="0,-0.5 0,-30.5 120,-30.5 120,-0.5 0,-0.5"/>
<text text-anchor="start" x="8" y="-18.5" font-family="Helvetica,sans-Serif" font-size="10.00">common/httpd/src/httpd</text>
<text text-anchor="middle" x="60" y="-7.5" font-family="Helvetica,sans-Serif" font-size="10.00">_response.c</text>
</a>
</g>
</g>
<!-- Node5&#45;&gt;Node7 -->
<g id="edge7" class="edge"><title>Node5&#45;&gt;Node7</title>
<path fill="none" stroke="midnightblue" d="M159,-63.1305C137.073,-52.8025 110.126,-40.1103 89.8855,-30.5765"/>
<polygon fill="midnightblue" stroke="midnightblue" points="157.518,-66.3011 168.056,-67.396 160.501,-59.9684 157.518,-66.3011"/>
</g>
<!-- Node10&#45;&gt;Node11 -->
<g id="edge11" class="edge"><title>Node10&#45;&gt;Node11</title>
<path fill="none" stroke="midnightblue" d="M912.743,-137.229C875.444,-127.026 819.027,-111.563 770,-98 763.045,-96.0758 755.569,-93.9973 748.515,-92.0315"/>
<polygon fill="midnightblue" stroke="midnightblue" points="912.166,-140.699 922.735,-139.961 914.012,-133.947 912.166,-140.699"/>
</g>
<!-- Node16 -->
<g id="node16" class="node"><title>Node16</title>
<g id="a_node16"><a xlink:href="a00081.html" target="_top" xlink:title="hpd/src/event.c">
<polygon fill="none" stroke="black" points="927,-6 927,-25 1011,-25 1011,-6 927,-6"/>
<text text-anchor="middle" x="969" y="-13" font-family="Helvetica,sans-Serif" font-size="10.00">hpd/src/event.c</text>
</a>
</g>
</g>
<!-- Node10&#45;&gt;Node16 -->
<g id="edge18" class="edge"><title>Node10&#45;&gt;Node16</title>
<path fill="none" stroke="midnightblue" d="M981.166,-134.805C994.92,-126.271 1010.3,-113.88 1018,-98 1024.01,-85.6021 1023.18,-79.7684 1018,-67 1010.75,-49.1125 993.783,-34.0684 981.856,-25.1716"/>
<polygon fill="midnightblue" stroke="midnightblue" points="979.354,-131.809 972.459,-139.853 982.866,-137.865 979.354,-131.809"/>
</g>
<!-- Node17 -->
<g id="node17" class="node"><title>Node17</title>
<g id="a_node17"><a xlink:href="a00087.html" target="_top" xlink:title="hpd/src/request.c">
<polygon fill="none" stroke="black" points="1029,-6 1029,-25 1121,-25 1121,-6 1029,-6"/>
<text text-anchor="middle" x="1075" y="-13" font-family="Helvetica,sans-Serif" font-size="10.00">hpd/src/request.c</text>
</a>
</g>
</g>
<!-- Node10&#45;&gt;Node17 -->
<g id="edge20" class="edge"><title>Node10&#45;&gt;Node17</title>
<path fill="none" stroke="midnightblue" d="M983.547,-135.203C1000.3,-126.508 1020.7,-113.829 1035,-98 1055.29,-75.5461 1067.64,-40.9293 1072.55,-25.0243"/>
<polygon fill="midnightblue" stroke="midnightblue" points="981.58,-132.272 974.181,-139.856 984.694,-138.541 981.58,-132.272"/>
</g>
<!-- Node18 -->
<g id="node18" class="node"><title>Node18</title>
<g id="a_node18"><a xlink:href="a00083.html" target="_top" xlink:title="hpd/src/event_api.c">
<polygon fill="none" stroke="black" points="779,-73 779,-92 881,-92 881,-73 779,-73"/>
<text text-anchor="middle" x="830" y="-80" font-family="Helvetica,sans-Serif" font-size="10.00">hpd/src/event_api.c</text>
</a>
</g>
</g>
<!-- Node10&#45;&gt;Node18 -->
<g id="edge19" class="edge"><title>Node10&#45;&gt;Node18</title>
<path fill="none" stroke="midnightblue" d="M928.443,-135.103C903.887,-122.231 867.505,-103.16 846.534,-92.1672"/>
<polygon fill="midnightblue" stroke="midnightblue" points="927.052,-138.326 937.534,-139.869 930.302,-132.126 927.052,-138.326"/>
</g>
<!-- Node19 -->
<g id="node19" class="node"><title>Node19</title>
<g id="a_node19"><a xlink:href="a00089.html" target="_top" xlink:title="hpd/src/request_api.c">
<polygon fill="none" stroke="black" points="899,-73 899,-92 1009,-92 1009,-73 899,-73"/>
<text text-anchor="middle" x="954" y="-80" font-family="Helvetica,sans-Serif" font-size="10.00">hpd/src/request_api.c</text>
</a>
</g>
</g>
<!-- Node10&#45;&gt;Node19 -->
<g id="edge21" class="edge"><title>Node10&#45;&gt;Node19</title>
<path fill="none" stroke="midnightblue" d="M954,-129.537C954,-117.17 954,-101.62 954,-92.1273"/>
<polygon fill="midnightblue" stroke="midnightblue" points="950.5,-129.734 954,-139.734 957.5,-129.734 950.5,-129.734"/>
</g>
<!-- Node10&#45;&gt;Node20 -->
<g id="edge22" class="edge"><title>Node10&#45;&gt;Node20</title>
<path fill="none" stroke="midnightblue" d="M988.964,-136.601C1026.83,-123.714 1086.31,-103.473 1119.84,-92.0637"/>
<polygon fill="midnightblue" stroke="midnightblue" points="987.703,-133.333 979.363,-139.869 989.958,-139.96 987.703,-133.333"/>
</g>
<!-- Node12 -->
<g id="node12" class="node"><title>Node12</title>
<g id="a_node12"><a xlink:href="a00076.html" target="_top" xlink:title="hpd/src/daemon.c">
<polygon fill="none" stroke="black" points="555.5,-6 555.5,-25 650.5,-25 650.5,-6 555.5,-6"/>
<text text-anchor="middle" x="603" y="-13" font-family="Helvetica,sans-Serif" font-size="10.00">hpd/src/daemon.c</text>
</a>
</g>
</g>
<!-- Node11&#45;&gt;Node12 -->
<g id="edge12" class="edge"><title>Node11&#45;&gt;Node12</title>
<path fill="none" stroke="midnightblue" d="M693.739,-67.7872C670.947,-54.9047 637.543,-36.0243 618.264,-25.1273"/>
<polygon fill="midnightblue" stroke="midnightblue" points="692.063,-70.8602 702.491,-72.7338 695.507,-64.7662 692.063,-70.8602"/>
</g>
<!-- Node13 -->
<g id="node13" class="node"><title>Node13</title>
<g id="a_node13"><a xlink:href="a00078.html" target="_top" xlink:title="hpd/src/discovery.c">
<polygon fill="none" stroke="black" points="669,-6 669,-25 771,-25 771,-6 669,-6"/>
<text text-anchor="middle" x="720" y="-13" font-family="Helvetica,sans-Serif" font-size="10.00">hpd/src/discovery.c</text>
</a>
</g>
</g>
<!-- Node11&#45;&gt;Node13 -->
<g id="edge13" class="edge"><title>Node11&#45;&gt;Node13</title>
<path fill="none" stroke="midnightblue" d="M718.583,-62.537C718.964,-50.1703 719.442,-34.6198 719.735,-25.1273"/>
<polygon fill="midnightblue" stroke="midnightblue" points="715.079,-62.6309 718.27,-72.7338 722.076,-62.8462 715.079,-62.6309"/>
</g>
<!-- Node14 -->
<g id="node14" class="node"><title>Node14</title>
<g id="a_node14"><a xlink:href="a00079.html" target="_top" xlink:title="hpd/src/discovery_api.c">
<polygon fill="none" stroke="black" points="789,-6 789,-25 909,-25 909,-6 789,-6"/>
<text text-anchor="middle" x="849" y="-13" font-family="Helvetica,sans-Serif" font-size="10.00">hpd/src/discovery_api.c</text>
</a>
</g>
</g>
<!-- Node11&#45;&gt;Node14 -->
<g id="edge14" class="edge"><title>Node11&#45;&gt;Node14</title>
<path fill="none" stroke="midnightblue" d="M744.656,-68.2739C770.602,-55.3999 809.28,-36.2086 831.532,-25.1672"/>
<polygon fill="midnightblue" stroke="midnightblue" points="742.798,-65.2884 735.396,-72.8685 745.909,-71.559 742.798,-65.2884"/>
</g>
<!-- Node15 -->
<g id="node15" class="node"><title>Node15</title>
<g id="a_node15"><a xlink:href="a00080.html" target="_top" xlink:title="hpd/src/discovery_id.c">
<polygon fill="none" stroke="black" points="422.5,-6 422.5,-25 537.5,-25 537.5,-6 422.5,-6"/>
<text text-anchor="middle" x="480" y="-13" font-family="Helvetica,sans-Serif" font-size="10.00">hpd/src/discovery_id.c</text>
</a>
</g>
</g>
<!-- Node11&#45;&gt;Node15 -->
<g id="edge15" class="edge"><title>Node11&#45;&gt;Node15</title>
<path fill="none" stroke="midnightblue" d="M676.523,-70.1721C629.459,-57.3186 553.753,-36.6427 511.356,-25.0637"/>
<polygon fill="midnightblue" stroke="midnightblue" points="675.827,-73.6102 686.395,-72.8685 677.671,-66.8575 675.827,-73.6102"/>
</g>
<!-- Node11&#45;&gt;Node16 -->
<g id="edge16" class="edge"><title>Node11&#45;&gt;Node16</title>
<path fill="none" stroke="midnightblue" d="M757.587,-70.3137C761.773,-69.1751 765.97,-68.0516 770,-67 835.502,-49.9061 852.541,-48.2597 918,-31 925.032,-29.1459 932.58,-27.0553 939.657,-25.0507"/>
<polygon fill="midnightblue" stroke="midnightblue" points="756.64,-66.9442 747.926,-72.9715 758.496,-73.6935 756.64,-66.9442"/>
</g>
<!-- Node11&#45;&gt;Node17 -->
<g id="edge17" class="edge"><title>Node11&#45;&gt;Node17</title>
<path fill="none" stroke="midnightblue" d="M756.16,-70.2561C760.801,-69.0675 765.493,-67.9487 770,-67 879.85,-43.8759 909.989,-53.3454 1020,-31 1028.23,-29.3292 1037.05,-27.1694 1045.17,-25.0294"/>
<polygon fill="midnightblue" stroke="midnightblue" points="754.928,-66.9625 746.174,-72.9307 756.739,-73.7241 754.928,-66.9625"/>
</g>
</g>
</svg>
