<?xml version="1.0" encoding="UTF-8" standalone="no"?>
<!DOCTYPE svg PUBLIC "-//W3C//DTD SVG 1.1//EN"
 "http://www.w3.org/Graphics/SVG/1.1/DTD/svg11.dtd">
<!-- Generated by graphviz version 2.38.0 (20140413.2041)
 -->
<!-- Title: common/map/include/hpd/common/hpd_map.h Pages: 1 -->
<svg width="387pt" height="151pt"
 viewBox="0.00 0.00 386.50 151.00" xmlns="http://www.w3.org/2000/svg" xmlns:xlink="http://www.w3.org/1999/xlink">
<g id="graph0" class="graph" transform="scale(1 1) rotate(0) translate(4 147)">
<title>common/map/include/hpd/common/hpd_map.h</title>
<!-- Node1 -->
<g id="node1" class="node"><title>Node1</title>
<polygon fill="#bfbfbf" stroke="black" points="164,-112.5 164,-142.5 291,-142.5 291,-112.5 164,-112.5"/>
<text text-anchor="start" x="172" y="-130.5" font-family="Helvetica,sans-Serif" font-size="10.00">common/map/include</text>
<text text-anchor="middle" x="227.5" y="-119.5" font-family="Helvetica,sans-Serif" font-size="10.00">/hpd/common/hpd_map.h</text>
</g>
<!-- Node2 -->
<g id="node2" class="node"><title>Node2</title>
<g id="a_node2"><a xlink:href="a00030.html" target="_top" xlink:title="hpd/hpd_types.h">
<polygon fill="none" stroke="black" points="-7.10543e-15,-56.5 -7.10543e-15,-75.5 89,-75.5 89,-56.5 -7.10543e-15,-56.5"/>
<text text-anchor="middle" x="44.5" y="-63.5" font-family="Helvetica,sans-Serif" font-size="10.00">hpd/hpd_types.h</text>
</a>
</g>
</g>
<!-- Node1&#45;&gt;Node2 -->
<g id="edge1" class="edge"><title>Node1&#45;&gt;Node2</title>
<path fill="none" stroke="midnightblue" d="M184.132,-112.399C152.51,-102.118 110.167,-88.3506 80.429,-78.6818"/>
<polygon fill="midnightblue" stroke="midnightblue" points="81.4532,-75.3345 70.861,-75.5709 79.2887,-81.9915 81.4532,-75.3345"/>
</g>
<!-- Node3 -->
<g id="node3" class="node"><title>Node3</title>
<g id="a_node3"><a xlink:href="a00055.html" target="_top" xlink:title="hpd/common/hpd_queue.h">
<polygon fill="none" stroke="black" points="107,-56.5 107,-75.5 238,-75.5 238,-56.5 107,-56.5"/>
<text text-anchor="middle" x="172.5" y="-63.5" font-family="Helvetica,sans-Serif" font-size="10.00">hpd/common/hpd_queue.h</text>
</a>
</g>
</g>
<!-- Node1&#45;&gt;Node3 -->
<g id="edge2" class="edge"><title>Node1&#45;&gt;Node3</title>
<path fill="none" stroke="midnightblue" d="M214.466,-112.399C206.309,-103.575 195.778,-92.1827 187.306,-83.0178"/>
<polygon fill="midnightblue" stroke="midnightblue" points="189.861,-80.6253 180.503,-75.6578 184.721,-85.3769 189.861,-80.6253"/>
</g>
<!-- Node5 -->
<g id="node5" class="node"><title>Node5</title>
<polygon fill="none" stroke="#bfbfbf" points="256.5,-56.5 256.5,-75.5 308.5,-75.5 308.5,-56.5 256.5,-56.5"/>
<text text-anchor="middle" x="282.5" y="-63.5" font-family="Helvetica,sans-Serif" font-size="10.00">stddef.h</text>
</g>
<!-- Node1&#45;&gt;Node5 -->
<g id="edge4" class="edge"><title>Node1&#45;&gt;Node5</title>
<path fill="none" stroke="midnightblue" d="M240.534,-112.399C248.691,-103.575 259.222,-92.1827 267.694,-83.0178"/>
<polygon fill="midnightblue" stroke="midnightblue" points="270.279,-85.3769 274.497,-75.6578 265.139,-80.6253 270.279,-85.3769"/>
</g>
<!-- Node6 -->
<g id="node6" class="node"><title>Node6</title>
<polygon fill="none" stroke="#bfbfbf" points="326.5,-56.5 326.5,-75.5 378.5,-75.5 378.5,-56.5 326.5,-56.5"/>
<text text-anchor="middle" x="352.5" y="-63.5" font-family="Helvetica,sans-Serif" font-size="10.00">stdarg.h</text>
</g>
<!-- Node1&#45;&gt;Node6 -->
<g id="edge5" class="edge"><title>Node1&#45;&gt;Node6</title>
<path fill="none" stroke="midnightblue" d="M257.123,-112.399C277.722,-102.595 304.98,-89.6194 325.08,-80.052"/>
<polygon fill="midnightblue" stroke="midnightblue" points="326.786,-83.116 334.311,-75.6578 323.778,-76.7955 326.786,-83.116"/>
</g>
<!-- Node4 -->
<g id="node4" class="node"><title>Node4</title>
<polygon fill="none" stroke="#bfbfbf" points="128,-0.5 128,-19.5 217,-19.5 217,-0.5 128,-0.5"/>
<text text-anchor="middle" x="172.5" y="-7.5" font-family="Helvetica,sans-Serif" font-size="10.00">bsd/sys/queue.h</text>
</g>
<!-- Node3&#45;&gt;Node4 -->
<g id="edge3" class="edge"><title>Node3&#45;&gt;Node4</title>
<path fill="none" stroke="midnightblue" d="M172.5,-56.083C172.5,-49.0059 172.5,-38.8611 172.5,-29.9865"/>
<polygon fill="midnightblue" stroke="midnightblue" points="176,-29.751 172.5,-19.7511 169,-29.7511 176,-29.751"/>
</g>
</g>
</svg>
