<?xml version="1.0" encoding="UTF-8" standalone="no"?>
<!DOCTYPE svg PUBLIC "-//W3C//DTD SVG 1.1//EN"
 "http://www.w3.org/Graphics/SVG/1.1/DTD/svg11.dtd">
<!-- Generated by graphviz version 2.38.0 (20140413.2041)
 -->
<!-- Title: common/httpd/src/httpd_header_parser.c Pages: 1 -->
<svg width="479pt" height="151pt"
 viewBox="0.00 0.00 478.50 151.00" xmlns="http://www.w3.org/2000/svg" xmlns:xlink="http://www.w3.org/1999/xlink">
<g id="graph0" class="graph" transform="scale(1 1) rotate(0) translate(4 147)">
<title>common/httpd/src/httpd_header_parser.c</title>
<!-- Node1 -->
<g id="node1" class="node"><title>Node1</title>
<polygon fill="#bfbfbf" stroke="black" points="96.5,-112.5 96.5,-142.5 216.5,-142.5 216.5,-112.5 96.5,-112.5"/>
<text text-anchor="start" x="104.5" y="-130.5" font-family="Helvetica,sans-Serif" font-size="10.00">common/httpd/src/httpd</text>
<text text-anchor="middle" x="156.5" y="-119.5" font-family="Helvetica,sans-Serif" font-size="10.00">_header_parser.c</text>
</g>
<!-- Node2 -->
<g id="node2" class="node"><title>Node2</title>
<polygon fill="none" stroke="#bfbfbf" points="-3.55271e-15,-56.5 -3.55271e-15,-75.5 49,-75.5 49,-56.5 -3.55271e-15,-56.5"/>
<text text-anchor="middle" x="24.5" y="-63.5" font-family="Helvetica,sans-Serif" font-size="10.00">string.h</text>
</g>
<!-- Node1&#45;&gt;Node2 -->
<g id="edge1" class="edge"><title>Node1&#45;&gt;Node2</title>
<path fill="none" stroke="midnightblue" d="M125.218,-112.399C103.268,-102.505 74.1569,-89.3832 52.8786,-79.7919"/>
<polygon fill="midnightblue" stroke="midnightblue" points="54.2621,-76.5764 43.7072,-75.6578 51.3855,-82.958 54.2621,-76.5764"/>
</g>
<!-- Node3 -->
<g id="node3" class="node"><title>Node3</title>
<polygon fill="none" stroke="#bfbfbf" points="67.5,-56.5 67.5,-75.5 115.5,-75.5 115.5,-56.5 67.5,-56.5"/>
<text text-anchor="middle" x="91.5" y="-63.5" font-family="Helvetica,sans-Serif" font-size="10.00">stdlib.h</text>
</g>
<!-- Node1&#45;&gt;Node3 -->
<g id="edge2" class="edge"><title>Node1&#45;&gt;Node3</title>
<path fill="none" stroke="midnightblue" d="M141.096,-112.399C131.261,-103.397 118.507,-91.7214 108.395,-82.4652"/>
<polygon fill="midnightblue" stroke="midnightblue" points="110.698,-79.8282 100.958,-75.6578 105.971,-84.9916 110.698,-79.8282"/>
</g>
<!-- Node4 -->
<g id="node4" class="node"><title>Node4</title>
<polygon fill="none" stroke="#bfbfbf" points="133.5,-56.5 133.5,-75.5 179.5,-75.5 179.5,-56.5 133.5,-56.5"/>
<text text-anchor="middle" x="156.5" y="-63.5" font-family="Helvetica,sans-Serif" font-size="10.00">stdio.h</text>
</g>
<!-- Node1&#45;&gt;Node4 -->
<g id="edge3" class="edge"><title>Node1&#45;&gt;Node4</title>
<path fill="none" stroke="midnightblue" d="M156.5,-112.399C156.5,-104.466 156.5,-94.458 156.5,-85.8583"/>
<polygon fill="midnightblue" stroke="midnightblue" points="160,-85.6577 156.5,-75.6578 153,-85.6578 160,-85.6577"/>
</g>
<!-- Node5 -->
<g id="node5" class="node"><title>Node5</title>
<g id="a_node5"><a xlink:href="a00016.html" target="_top" xlink:title="httpd_header_parser.h">
<polygon fill="none" stroke="black" points="198,-56.5 198,-75.5 311,-75.5 311,-56.5 198,-56.5"/>
<text text-anchor="middle" x="254.5" y="-63.5" font-family="Helvetica,sans-Serif" font-size="10.00">httpd_header_parser.h</text>
</a>
</g>
</g>
<!-- Node1&#45;&gt;Node5 -->
<g id="edge4" class="edge"><title>Node1&#45;&gt;Node5</title>
<path fill="none" stroke="midnightblue" d="M179.725,-112.399C195.286,-102.951 215.697,-90.5589 231.262,-81.1089"/>
<polygon fill="midnightblue" stroke="midnightblue" points="233.509,-83.8394 240.24,-75.6578 229.876,-77.8558 233.509,-83.8394"/>
</g>
<!-- Node7 -->
<g id="node7" class="node"><title>Node7</title>
<g id="a_node7"><a xlink:href="a00075.html" target="_top" xlink:title="hpd/hpd_shared_api.h">
<polygon fill="none" stroke="black" points="329.5,-56.5 329.5,-75.5 441.5,-75.5 441.5,-56.5 329.5,-56.5"/>
<text text-anchor="middle" x="385.5" y="-63.5" font-family="Helvetica,sans-Serif" font-size="10.00">hpd/hpd_shared_api.h</text>
</a>
</g>
</g>
<!-- Node1&#45;&gt;Node7 -->
<g id="edge6" class="edge"><title>Node1&#45;&gt;Node7</title>
<path fill="none" stroke="midnightblue" d="M210.48,-112.475C250.85,-101.986 305.305,-87.8367 342.694,-78.1221"/>
<polygon fill="midnightblue" stroke="midnightblue" points="343.963,-81.4087 352.761,-75.5064 342.202,-74.6337 343.963,-81.4087"/>
</g>
<!-- Node6 -->
<g id="node6" class="node"><title>Node6</title>
<g id="a_node6"><a xlink:href="a00030.html" target="_top" xlink:title="hpd/hpd_types.h">
<polygon fill="none" stroke="black" points="220,-0.5 220,-19.5 309,-19.5 309,-0.5 220,-0.5"/>
<text text-anchor="middle" x="264.5" y="-7.5" font-family="Helvetica,sans-Serif" font-size="10.00">hpd/hpd_types.h</text>
</a>
</g>
</g>
<!-- Node5&#45;&gt;Node6 -->
<g id="edge5" class="edge"><title>Node5&#45;&gt;Node6</title>
<path fill="none" stroke="midnightblue" d="M256.151,-56.083C257.476,-48.9272 259.382,-38.6353 261.039,-29.6911"/>
<polygon fill="midnightblue" stroke="midnightblue" points="264.5,-30.2212 262.879,-19.7511 257.617,-28.9466 264.5,-30.2212"/>
</g>
<!-- Node7&#45;&gt;Node6 -->
<g id="edge7" class="edge"><title>Node7&#45;&gt;Node6</title>
<path fill="none" stroke="midnightblue" d="M366.327,-56.4435C346.591,-47.6356 315.615,-33.8116 293.007,-23.722"/>
<polygon fill="midnightblue" stroke="midnightblue" points="294.141,-20.3957 283.583,-19.5164 291.289,-26.788 294.141,-20.3957"/>
</g>
<!-- Node8 -->
<g id="node8" class="node"><title>Node8</title>
<polygon fill="none" stroke="#bfbfbf" points="348.5,-0.5 348.5,-19.5 400.5,-19.5 400.5,-0.5 348.5,-0.5"/>
<text text-anchor="middle" x="374.5" y="-7.5" font-family="Helvetica,sans-Serif" font-size="10.00">stddef.h</text>
</g>
<!-- Node7&#45;&gt;Node8 -->
<g id="edge8" class="edge"><title>Node7&#45;&gt;Node8</title>
<path fill="none" stroke="midnightblue" d="M383.684,-56.083C382.226,-48.9272 380.129,-38.6353 378.307,-29.6911"/>
<polygon fill="midnightblue" stroke="midnightblue" points="381.708,-28.8512 376.283,-19.7511 374.849,-30.2485 381.708,-28.8512"/>
</g>
<!-- Node9 -->
<g id="node9" class="node"><title>Node9</title>
<polygon fill="none" stroke="#bfbfbf" points="418.5,-0.5 418.5,-19.5 470.5,-19.5 470.5,-0.5 418.5,-0.5"/>
<text text-anchor="middle" x="444.5" y="-7.5" font-family="Helvetica,sans-Serif" font-size="10.00">stdarg.h</text>
</g>
<!-- Node7&#45;&gt;Node9 -->
<g id="edge9" class="edge"><title>Node7&#45;&gt;Node9</title>
<path fill="none" stroke="midnightblue" d="M394.979,-56.324C403.701,-48.3414 416.843,-36.3128 427.398,-26.6529"/>
<polygon fill="midnightblue" stroke="midnightblue" points="429.834,-29.1674 434.848,-19.8339 425.108,-24.0036 429.834,-29.1674"/>
</g>
</g>
</svg>
