<?xml version="1.0" encoding="UTF-8" standalone="no"?>
<!DOCTYPE svg PUBLIC "-//W3C//DTD SVG 1.1//EN"
 "http://www.w3.org/Graphics/SVG/1.1/DTD/svg11.dtd">
<!-- Generated by graphviz version 2.38.0 (20140413.2041)
 -->
<!-- Title: common/tcpd/include/hpd/common/hpd_tcpd.h Pages: 1 -->
<svg width="371pt" height="106pt"
 viewBox="0.00 0.00 371.00 106.00" xmlns="http://www.w3.org/2000/svg" xmlns:xlink="http://www.w3.org/1999/xlink">
<g id="graph0" class="graph" transform="scale(1 1) rotate(0) translate(4 102)">
<title>common/tcpd/include/hpd/common/hpd_tcpd.h</title>
<!-- Node1 -->
<g id="node1" class="node"><title>Node1</title>
<polygon fill="#bfbfbf" stroke="black" points="76.5,-67.5 76.5,-97.5 203.5,-97.5 203.5,-67.5 76.5,-67.5"/>
<text text-anchor="start" x="84.5" y="-85.5" font-family="Helvetica,sans-Serif" font-size="10.00">common/tcpd/include</text>
<text text-anchor="middle" x="140" y="-74.5" font-family="Helvetica,sans-Serif" font-size="10.00">/hpd/common/hpd_tcpd.h</text>
</g>
<!-- Node2 -->
<g id="node2" class="node"><title>Node2</title>
<polygon fill="none" stroke="#bfbfbf" points="0,-6 0,-25 52,-25 52,-6 0,-6"/>
<text text-anchor="middle" x="26" y="-13" font-family="Helvetica,sans-Serif" font-size="10.00">stddef.h</text>
</g>
<!-- Node1&#45;&gt;Node2 -->
<g id="edge1" class="edge"><title>Node1&#45;&gt;Node2</title>
<path fill="none" stroke="midnightblue" d="M115.264,-67.396C95.7921,-56.2938 68.8308,-40.9211 49.6462,-29.9825"/>
<polygon fill="midnightblue" stroke="midnightblue" points="51.3407,-26.9197 40.92,-25.007 47.8735,-33.0007 51.3407,-26.9197"/>
</g>
<!-- Node3 -->
<g id="node3" class="node"><title>Node3</title>
<polygon fill="none" stroke="#bfbfbf" points="70,-6 70,-25 122,-25 122,-6 70,-6"/>
<text text-anchor="middle" x="96" y="-13" font-family="Helvetica,sans-Serif" font-size="10.00">stdarg.h</text>
</g>
<!-- Node1&#45;&gt;Node3 -->
<g id="edge2" class="edge"><title>Node1&#45;&gt;Node3</title>
<path fill="none" stroke="midnightblue" d="M130.453,-67.396C123.728,-57.4617 114.689,-44.1083 107.556,-33.5719"/>
<polygon fill="midnightblue" stroke="midnightblue" points="110.39,-31.5136 101.886,-25.1945 104.593,-35.4376 110.39,-31.5136"/>
</g>
<!-- Node4 -->
<g id="node4" class="node"><title>Node4</title>
<g id="a_node4"><a xlink:href="a00030.html" target="_top" xlink:title="hpd/hpd_types.h">
<polygon fill="none" stroke="black" points="140.5,-6 140.5,-25 229.5,-25 229.5,-6 140.5,-6"/>
<text text-anchor="middle" x="185" y="-13" font-family="Helvetica,sans-Serif" font-size="10.00">hpd/hpd_types.h</text>
</a>
</g>
</g>
<!-- Node1&#45;&gt;Node4 -->
<g id="edge3" class="edge"><title>Node1&#45;&gt;Node4</title>
<path fill="none" stroke="midnightblue" d="M149.764,-67.396C156.642,-57.4617 165.887,-44.1083 173.181,-33.5719"/>
<polygon fill="midnightblue" stroke="midnightblue" points="176.166,-35.4087 178.981,-25.1945 170.411,-31.4242 176.166,-35.4087"/>
</g>
<!-- Node5 -->
<g id="node5" class="node"><title>Node5</title>
<g id="a_node5"><a xlink:href="a00058.html" target="_top" xlink:title="hpd/common/hpd_tcpd\l_types.h">
<polygon fill="none" stroke="black" points="247,-0.5 247,-30.5 363,-30.5 363,-0.5 247,-0.5"/>
<text text-anchor="start" x="255" y="-18.5" font-family="Helvetica,sans-Serif" font-size="10.00">hpd/common/hpd_tcpd</text>
<text text-anchor="middle" x="305" y="-7.5" font-family="Helvetica,sans-Serif" font-size="10.00">_types.h</text>
</a>
</g>
</g>
<!-- Node1&#45;&gt;Node5 -->
<g id="edge4" class="edge"><title>Node1&#45;&gt;Node5</title>
<path fill="none" stroke="midnightblue" d="M175.803,-67.396C200.452,-57.6858 233.393,-44.7088 259.843,-34.2889"/>
<polygon fill="midnightblue" stroke="midnightblue" points="261.246,-37.4982 269.267,-30.5765 258.68,-30.9854 261.246,-37.4982"/>
</g>
</g>
</svg>
