<?xml version="1.0" encoding="UTF-8" standalone="no"?>
<!DOCTYPE svg PUBLIC "-//W3C//DTD SVG 1.1//EN"
 "http://www.w3.org/Graphics/SVG/1.1/DTD/svg11.dtd">
<!-- Generated by graphviz version 2.38.0 (20140413.2041)
 -->
<!-- Title: common/tcpd/include/tcpd_types.h Pages: 1 -->
<svg width="858pt" height="307pt"
 viewBox="0.00 0.00 858.00 307.00" xmlns="http://www.w3.org/2000/svg" xmlns:xlink="http://www.w3.org/1999/xlink">
<g id="graph0" class="graph" transform="scale(1 1) rotate(0) translate(4 303)">
<title>common/tcpd/include/tcpd_types.h</title>
<!-- Node1 -->
<g id="node1" class="node"><title>Node1</title>
<polygon fill="#bfbfbf" stroke="black" points="333,-268.5 333,-298.5 443,-298.5 443,-268.5 333,-268.5"/>
<text text-anchor="start" x="341" y="-286.5" font-family="Helvetica,sans-Serif" font-size="10.00">common/tcpd/include</text>
<text text-anchor="middle" x="388" y="-275.5" font-family="Helvetica,sans-Serif" font-size="10.00">/tcpd_types.h</text>
</g>
<!-- Node2 -->
<g id="node2" class="node"><title>Node2</title>
<g id="a_node2"><a xlink:href="a00039.html" target="_top" xlink:title="common/httpd/include\l/httpd_types.h">
<polygon fill="none" stroke="black" points="278.5,-201.5 278.5,-231.5 391.5,-231.5 391.5,-201.5 278.5,-201.5"/>
<text text-anchor="start" x="286.5" y="-219.5" font-family="Helvetica,sans-Serif" font-size="10.00">common/httpd/include</text>
<text text-anchor="middle" x="335" y="-208.5" font-family="Helvetica,sans-Serif" font-size="10.00">/httpd_types.h</text>
</a>
</g>
</g>
<!-- Node1&#45;&gt;Node2 -->
<g id="edge1" class="edge"><title>Node1&#45;&gt;Node2</title>
<path fill="none" stroke="midnightblue" d="M370.019,-260.447C362.233,-250.899 353.349,-240.004 346.478,-231.577"/>
<polygon fill="midnightblue" stroke="midnightblue" points="367.468,-262.858 376.5,-268.396 372.893,-258.434 367.468,-262.858"/>
</g>
<!-- Node10 -->
<g id="node10" class="node"><title>Node10</title>
<g id="a_node10"><a xlink:href="a00029.html" target="_top" xlink:title="common/tcpd/include\l/tcpd.h">
<polygon fill="none" stroke="black" points="399,-134.5 399,-164.5 509,-164.5 509,-134.5 399,-134.5"/>
<text text-anchor="start" x="407" y="-152.5" font-family="Helvetica,sans-Serif" font-size="10.00">common/tcpd/include</text>
<text text-anchor="middle" x="454" y="-141.5" font-family="Helvetica,sans-Serif" font-size="10.00">/tcpd.h</text>
</a>
</g>
</g>
<!-- Node1&#45;&gt;Node10 -->
<g id="edge10" class="edge"><title>Node1&#45;&gt;Node10</title>
<path fill="none" stroke="midnightblue" d="M399.692,-259.116C413.409,-231.682 435.707,-187.086 446.988,-164.525"/>
<polygon fill="midnightblue" stroke="midnightblue" points="396.405,-257.864 395.063,-268.374 402.666,-260.995 396.405,-257.864"/>
</g>
<!-- Node3 -->
<g id="node3" class="node"><title>Node3</title>
<g id="a_node3"><a xlink:href="a00018.html" target="_top" xlink:title="common/httpd/include\l/httpd.h">
<polygon fill="none" stroke="black" points="267.5,-134.5 267.5,-164.5 380.5,-164.5 380.5,-134.5 267.5,-134.5"/>
<text text-anchor="start" x="275.5" y="-152.5" font-family="Helvetica,sans-Serif" font-size="10.00">common/httpd/include</text>
<text text-anchor="middle" x="324" y="-141.5" font-family="Helvetica,sans-Serif" font-size="10.00">/httpd.h</text>
</a>
</g>
</g>
<!-- Node2&#45;&gt;Node3 -->
<g id="edge2" class="edge"><title>Node2&#45;&gt;Node3</title>
<path fill="none" stroke="midnightblue" d="M330.922,-191.403C329.393,-182.37 327.707,-172.408 326.382,-164.577"/>
<polygon fill="midnightblue" stroke="midnightblue" points="327.494,-192.12 332.613,-201.396 334.395,-190.952 327.494,-192.12"/>
</g>
<!-- Node4 -->
<g id="node4" class="node"><title>Node4</title>
<g id="a_node4"><a xlink:href="a00038.html" target="_top" xlink:title="common/httpd/example\l/greeting.c">
<polygon fill="none" stroke="black" points="128.5,-67.5 128.5,-97.5 247.5,-97.5 247.5,-67.5 128.5,-67.5"/>
<text text-anchor="start" x="136.5" y="-85.5" font-family="Helvetica,sans-Serif" font-size="10.00">common/httpd/example</text>
<text text-anchor="middle" x="188" y="-74.5" font-family="Helvetica,sans-Serif" font-size="10.00">/greeting.c</text>
</a>
</g>
</g>
<!-- Node3&#45;&gt;Node4 -->
<g id="edge3" class="edge"><title>Node3&#45;&gt;Node4</title>
<path fill="none" stroke="midnightblue" d="M285.276,-129.992C263.719,-119.689 237.311,-107.068 217.452,-97.5765"/>
<polygon fill="midnightblue" stroke="midnightblue" points="283.958,-133.242 294.49,-134.396 286.977,-126.926 283.958,-133.242"/>
</g>
<!-- Node5 -->
<g id="node5" class="node"><title>Node5</title>
<g id="a_node5"><a xlink:href="a00015.html" target="_top" xlink:title="common/httpd/src/httpd.c">
<polygon fill="none" stroke="black" points="388,-6 388,-25 516,-25 516,-6 388,-6"/>
<text text-anchor="middle" x="452" y="-13" font-family="Helvetica,sans-Serif" font-size="10.00">common/httpd/src/httpd.c</text>
</a>
</g>
</g>
<!-- Node3&#45;&gt;Node5 -->
<g id="edge4" class="edge"><title>Node3&#45;&gt;Node5</title>
<path fill="none" stroke="midnightblue" d="M356.484,-128.829C369.26,-120.247 383.574,-109.517 395,-98 418.227,-74.5881 438.524,-40.7437 447.334,-25.0664"/>
<polygon fill="midnightblue" stroke="midnightblue" points="354.397,-126.011 347.938,-134.41 358.225,-131.872 354.397,-126.011"/>
</g>
<!-- Node6 -->
<g id="node6" class="node"><title>Node6</title>
<g id="a_node6"><a xlink:href="a00040.html" target="_top" xlink:title="common/httpd/src/httpd\l_request.h">
<polygon fill="none" stroke="black" points="266,-67.5 266,-97.5 386,-97.5 386,-67.5 266,-67.5"/>
<text text-anchor="start" x="274" y="-85.5" font-family="Helvetica,sans-Serif" font-size="10.00">common/httpd/src/httpd</text>
<text text-anchor="middle" x="326" y="-74.5" font-family="Helvetica,sans-Serif" font-size="10.00">_request.h</text>
</a>
</g>
</g>
<!-- Node3&#45;&gt;Node6 -->
<g id="edge5" class="edge"><title>Node3&#45;&gt;Node6</title>
<path fill="none" stroke="midnightblue" d="M324.751,-124.108C325.026,-115.154 325.329,-105.323 325.567,-97.5765"/>
<polygon fill="midnightblue" stroke="midnightblue" points="321.243,-124.293 324.434,-134.396 328.24,-124.508 321.243,-124.293"/>
</g>
<!-- Node9 -->
<g id="node9" class="node"><title>Node9</title>
<g id="a_node9"><a xlink:href="a00025.html" target="_top" xlink:title="modules/hpd_rest/src\l/hpd_rest.c">
<polygon fill="none" stroke="black" points="0,-67.5 0,-97.5 110,-97.5 110,-67.5 0,-67.5"/>
<text text-anchor="start" x="8" y="-85.5" font-family="Helvetica,sans-Serif" font-size="10.00">modules/hpd_rest/src</text>
<text text-anchor="middle" x="55" y="-74.5" font-family="Helvetica,sans-Serif" font-size="10.00">/hpd_rest.c</text>
</a>
</g>
</g>
<!-- Node3&#45;&gt;Node9 -->
<g id="edge9" class="edge"><title>Node3&#45;&gt;Node9</title>
<path fill="none" stroke="midnightblue" d="M257.547,-132.443C212.249,-121.497 152.971,-107.173 110.261,-96.853"/>
<polygon fill="midnightblue" stroke="midnightblue" points="256.738,-135.848 267.281,-134.795 258.383,-129.044 256.738,-135.848"/>
</g>
<!-- Node6&#45;&gt;Node5 -->
<g id="edge6" class="edge"><title>Node6&#45;&gt;Node5</title>
<path fill="none" stroke="midnightblue" d="M362.244,-62.8029C386.399,-50.3418 417,-34.5558 435.51,-25.007"/>
<polygon fill="midnightblue" stroke="midnightblue" points="360.623,-59.7008 353.34,-67.396 363.832,-65.9218 360.623,-59.7008"/>
</g>
<!-- Node7 -->
<g id="node7" class="node"><title>Node7</title>
<g id="a_node7"><a xlink:href="a00016.html" target="_top" xlink:title="common/httpd/src/httpd\l_request.c">
<polygon fill="none" stroke="black" points="112,-0.5 112,-30.5 232,-30.5 232,-0.5 112,-0.5"/>
<text text-anchor="start" x="120" y="-18.5" font-family="Helvetica,sans-Serif" font-size="10.00">common/httpd/src/httpd</text>
<text text-anchor="middle" x="172" y="-7.5" font-family="Helvetica,sans-Serif" font-size="10.00">_request.c</text>
</a>
</g>
</g>
<!-- Node6&#45;&gt;Node7 -->
<g id="edge7" class="edge"><title>Node6&#45;&gt;Node7</title>
<path fill="none" stroke="midnightblue" d="M283.133,-63.4066C258.547,-53.0294 228.14,-40.1954 205.35,-30.5765"/>
<polygon fill="midnightblue" stroke="midnightblue" points="282.01,-66.7319 292.584,-67.396 284.732,-60.2828 282.01,-66.7319"/>
</g>
<!-- Node8 -->
<g id="node8" class="node"><title>Node8</title>
<g id="a_node8"><a xlink:href="a00017.html" target="_top" xlink:title="common/httpd/src/httpd\l_response.c">
<polygon fill="none" stroke="black" points="250,-0.5 250,-30.5 370,-30.5 370,-0.5 250,-0.5"/>
<text text-anchor="start" x="258" y="-18.5" font-family="Helvetica,sans-Serif" font-size="10.00">common/httpd/src/httpd</text>
<text text-anchor="middle" x="310" y="-7.5" font-family="Helvetica,sans-Serif" font-size="10.00">_response.c</text>
</a>
</g>
</g>
<!-- Node6&#45;&gt;Node8 -->
<g id="edge8" class="edge"><title>Node6&#45;&gt;Node8</title>
<path fill="none" stroke="midnightblue" d="M320.068,-57.4029C317.845,-48.3703 315.393,-38.4078 313.465,-30.5765"/>
<polygon fill="midnightblue" stroke="midnightblue" points="316.739,-58.5224 322.528,-67.396 323.537,-56.8492 316.739,-58.5224"/>
</g>
<!-- Node10&#45;&gt;Node5 -->
<g id="edge11" class="edge"><title>Node10&#45;&gt;Node5</title>
<path fill="none" stroke="midnightblue" d="M453.634,-124.317C453.18,-94.3757 452.43,-44.9109 452.13,-25.0973"/>
<polygon fill="midnightblue" stroke="midnightblue" points="450.135,-124.428 453.786,-134.374 457.134,-124.322 450.135,-124.428"/>
</g>
<!-- Node10&#45;&gt;Node6 -->
<g id="edge12" class="edge"><title>Node10&#45;&gt;Node6</title>
<path fill="none" stroke="midnightblue" d="M417.28,-129.853C397.042,-119.576 372.326,-107.025 353.72,-97.5765"/>
<polygon fill="midnightblue" stroke="midnightblue" points="415.725,-132.989 426.226,-134.396 418.894,-126.747 415.725,-132.989"/>
</g>
<!-- Node11 -->
<g id="node11" class="node"><title>Node11</title>
<g id="a_node11"><a xlink:href="a00047.html" target="_top" xlink:title="common/tcpd/example\l/echo.c">
<polygon fill="none" stroke="black" points="480,-67.5 480,-97.5 596,-97.5 596,-67.5 480,-67.5"/>
<text text-anchor="start" x="488" y="-85.5" font-family="Helvetica,sans-Serif" font-size="10.00">common/tcpd/example</text>
<text text-anchor="middle" x="538" y="-74.5" font-family="Helvetica,sans-Serif" font-size="10.00">/echo.c</text>
</a>
</g>
</g>
<!-- Node10&#45;&gt;Node11 -->
<g id="edge13" class="edge"><title>Node10&#45;&gt;Node11</title>
<path fill="none" stroke="midnightblue" d="M480.276,-128.168C493.12,-118.228 508.258,-106.514 519.809,-97.5765"/>
<polygon fill="midnightblue" stroke="midnightblue" points="477.994,-125.508 472.227,-134.396 482.277,-131.044 477.994,-125.508"/>
</g>
<!-- Node12 -->
<g id="node12" class="node"><title>Node12</title>
<g id="a_node12"><a xlink:href="a00027.html" target="_top" xlink:title="common/tcpd/src/tcpd\l_intern.h">
<polygon fill="none" stroke="black" points="614,-67.5 614,-97.5 728,-97.5 728,-67.5 614,-67.5"/>
<text text-anchor="start" x="622" y="-85.5" font-family="Helvetica,sans-Serif" font-size="10.00">common/tcpd/src/tcpd</text>
<text text-anchor="middle" x="671" y="-74.5" font-family="Helvetica,sans-Serif" font-size="10.00">_intern.h</text>
</a>
</g>
</g>
<!-- Node10&#45;&gt;Node12 -->
<g id="edge14" class="edge"><title>Node10&#45;&gt;Node12</title>
<path fill="none" stroke="midnightblue" d="M510.488,-131.58C545.733,-121.022 590.569,-107.592 623.891,-97.6109"/>
<polygon fill="midnightblue" stroke="midnightblue" points="509.394,-128.254 500.819,-134.476 511.402,-134.959 509.394,-128.254"/>
</g>
<!-- Node13 -->
<g id="node13" class="node"><title>Node13</title>
<g id="a_node13"><a xlink:href="a00049.html" target="_top" xlink:title="common/tcpd/src/tcpd.c">
<polygon fill="none" stroke="black" points="728,-6 728,-25 850,-25 850,-6 728,-6"/>
<text text-anchor="middle" x="789" y="-13" font-family="Helvetica,sans-Serif" font-size="10.00">common/tcpd/src/tcpd.c</text>
</a>
</g>
</g>
<!-- Node12&#45;&gt;Node13 -->
<g id="edge15" class="edge"><title>Node12&#45;&gt;Node13</title>
<path fill="none" stroke="midnightblue" d="M705.542,-62.4727C728.068,-50.0641 756.375,-34.4716 773.557,-25.007"/>
<polygon fill="midnightblue" stroke="midnightblue" points="703.675,-59.5054 696.604,-67.396 707.052,-65.6367 703.675,-59.5054"/>
</g>
<!-- Node14 -->
<g id="node14" class="node"><title>Node14</title>
<g id="a_node14"><a xlink:href="a00051.html" target="_top" xlink:title="common/tcpd/test/webserver\l_test.cpp">
<polygon fill="none" stroke="black" points="566.5,-0.5 566.5,-30.5 709.5,-30.5 709.5,-0.5 566.5,-0.5"/>
<text text-anchor="start" x="574.5" y="-18.5" font-family="Helvetica,sans-Serif" font-size="10.00">common/tcpd/test/webserver</text>
<text text-anchor="middle" x="638" y="-7.5" font-family="Helvetica,sans-Serif" font-size="10.00">_test.cpp</text>
</a>
</g>
</g>
<!-- Node12&#45;&gt;Node14 -->
<g id="edge16" class="edge"><title>Node12&#45;&gt;Node14</title>
<path fill="none" stroke="midnightblue" d="M659.213,-58.2835C654.511,-49.0223 649.252,-38.6632 645.147,-30.5765"/>
<polygon fill="midnightblue" stroke="midnightblue" points="656.192,-60.0637 663.839,-67.396 662.433,-56.8948 656.192,-60.0637"/>
</g>
</g>
</svg>
