<?xml version="1.0" encoding="UTF-8" standalone="no"?>
<!DOCTYPE svg PUBLIC "-//W3C//DTD SVG 1.1//EN"
 "http://www.w3.org/Graphics/SVG/1.1/DTD/svg11.dtd">
<!-- Generated by graphviz version 2.38.0 (20140413.2041)
 -->
<!-- Title: common/tcpd/src/tcpd.c Pages: 1 -->
<svg width="1005pt" height="196pt"
 viewBox="0.00 0.00 1005.00 196.00" xmlns="http://www.w3.org/2000/svg" xmlns:xlink="http://www.w3.org/1999/xlink">
<g id="graph0" class="graph" transform="scale(1 1) rotate(0) translate(4 192)">
<title>common/tcpd/src/tcpd.c</title>
<!-- Node1 -->
<g id="node1" class="node"><title>Node1</title>
<polygon fill="#bfbfbf" stroke="black" points="515,-168.5 515,-187.5 637,-187.5 637,-168.5 515,-168.5"/>
<text text-anchor="middle" x="576" y="-175.5" font-family="Helvetica,sans-Serif" font-size="10.00">common/tcpd/src/tcpd.c</text>
</g>
<!-- Node2 -->
<g id="node2" class="node"><title>Node2</title>
<g id="a_node2"><a xlink:href="a00027.html" target="_top" xlink:title="tcpd_intern.h">
<polygon fill="none" stroke="black" points="252.5,-112.5 252.5,-131.5 325.5,-131.5 325.5,-112.5 252.5,-112.5"/>
<text text-anchor="middle" x="289" y="-119.5" font-family="Helvetica,sans-Serif" font-size="10.00">tcpd_intern.h</text>
</a>
</g>
</g>
<!-- Node1&#45;&gt;Node2 -->
<g id="edge1" class="edge"><title>Node1&#45;&gt;Node2</title>
<path fill="none" stroke="midnightblue" d="M530.524,-168.444C477.216,-158.414 389.339,-141.879 335.565,-131.761"/>
<polygon fill="midnightblue" stroke="midnightblue" points="336.087,-128.298 325.612,-129.889 334.792,-135.177 336.087,-128.298"/>
</g>
<!-- Node10 -->
<g id="node10" class="node"><title>Node10</title>
<polygon fill="none" stroke="#bfbfbf" points="426.5,-56.5 426.5,-75.5 461.5,-75.5 461.5,-56.5 426.5,-56.5"/>
<text text-anchor="middle" x="444" y="-63.5" font-family="Helvetica,sans-Serif" font-size="10.00">ev.h</text>
</g>
<!-- Node1&#45;&gt;Node10 -->
<g id="edge24" class="edge"><title>Node1&#45;&gt;Node10</title>
<path fill="none" stroke="midnightblue" d="M514.829,-171.76C461.693,-165.789 390.568,-153.889 373,-132 355.765,-110.526 390.126,-89.7682 416.807,-77.7002"/>
<polygon fill="midnightblue" stroke="midnightblue" points="418.381,-80.8334 426.18,-73.6621 415.611,-74.4047 418.381,-80.8334"/>
</g>
<!-- Node12 -->
<g id="node12" class="node"><title>Node12</title>
<g id="a_node12"><a xlink:href="a00056.html" target="_top" xlink:title="hpd_shared_api.h">
<polygon fill="none" stroke="black" points="42.5,-56.5 42.5,-75.5 135.5,-75.5 135.5,-56.5 42.5,-56.5"/>
<text text-anchor="middle" x="89" y="-63.5" font-family="Helvetica,sans-Serif" font-size="10.00">hpd_shared_api.h</text>
</a>
</g>
</g>
<!-- Node1&#45;&gt;Node12 -->
<g id="edge12" class="edge"><title>Node1&#45;&gt;Node12</title>
<path fill="none" stroke="midnightblue" d="M514.88,-173.606C447.346,-168.74 335.851,-157.383 243,-132 195.97,-119.143 144.341,-95.1658 114.406,-80.2019"/>
<polygon fill="midnightblue" stroke="midnightblue" points="115.626,-76.8968 105.124,-75.5019 112.464,-83.1418 115.626,-76.8968"/>
</g>
<!-- Node13 -->
<g id="node13" class="node"><title>Node13</title>
<polygon fill="none" stroke="#bfbfbf" points="382,-112.5 382,-131.5 428,-131.5 428,-112.5 382,-112.5"/>
<text text-anchor="middle" x="405" y="-119.5" font-family="Helvetica,sans-Serif" font-size="10.00">stdio.h</text>
</g>
<!-- Node1&#45;&gt;Node13 -->
<g id="edge16" class="edge"><title>Node1&#45;&gt;Node13</title>
<path fill="none" stroke="midnightblue" d="M548.905,-168.444C518.822,-158.944 470.263,-143.609 437.991,-133.418"/>
<polygon fill="midnightblue" stroke="midnightblue" points="438.72,-129.978 428.13,-130.304 436.612,-136.653 438.72,-129.978"/>
</g>
<!-- Node14 -->
<g id="node14" class="node"><title>Node14</title>
<polygon fill="none" stroke="#bfbfbf" points="446,-112.5 446,-131.5 494,-131.5 494,-112.5 446,-112.5"/>
<text text-anchor="middle" x="470" y="-119.5" font-family="Helvetica,sans-Serif" font-size="10.00">stdlib.h</text>
</g>
<!-- Node1&#45;&gt;Node14 -->
<g id="edge17" class="edge"><title>Node1&#45;&gt;Node14</title>
<path fill="none" stroke="midnightblue" d="M558.969,-168.324C541.97,-159.664 515.624,-146.242 496.007,-136.249"/>
<polygon fill="midnightblue" stroke="midnightblue" points="497.488,-133.075 486.988,-131.655 494.31,-139.312 497.488,-133.075"/>
</g>
<!-- Node15 -->
<g id="node15" class="node"><title>Node15</title>
<polygon fill="none" stroke="#bfbfbf" points="512.5,-112.5 512.5,-131.5 561.5,-131.5 561.5,-112.5 512.5,-112.5"/>
<text text-anchor="middle" x="537" y="-119.5" font-family="Helvetica,sans-Serif" font-size="10.00">string.h</text>
</g>
<!-- Node1&#45;&gt;Node15 -->
<g id="edge18" class="edge"><title>Node1&#45;&gt;Node15</title>
<path fill="none" stroke="midnightblue" d="M569.56,-168.083C564.051,-160.455 555.969,-149.264 549.235,-139.941"/>
<polygon fill="midnightblue" stroke="midnightblue" points="552.013,-137.809 543.32,-131.751 546.338,-141.907 552.013,-137.809"/>
</g>
<!-- Node16 -->
<g id="node16" class="node"><title>Node16</title>
<polygon fill="none" stroke="#bfbfbf" points="579.5,-112.5 579.5,-131.5 652.5,-131.5 652.5,-112.5 579.5,-112.5"/>
<text text-anchor="middle" x="616" y="-119.5" font-family="Helvetica,sans-Serif" font-size="10.00">sys/socket.h</text>
</g>
<!-- Node1&#45;&gt;Node16 -->
<g id="edge19" class="edge"><title>Node1&#45;&gt;Node16</title>
<path fill="none" stroke="midnightblue" d="M582.605,-168.083C588.255,-160.455 596.545,-149.264 603.451,-139.941"/>
<polygon fill="midnightblue" stroke="midnightblue" points="606.378,-141.87 609.518,-131.751 600.753,-137.703 606.378,-141.87"/>
</g>
<!-- Node17 -->
<g id="node17" class="node"><title>Node17</title>
<polygon fill="none" stroke="#bfbfbf" points="670.5,-112.5 670.5,-131.5 719.5,-131.5 719.5,-112.5 670.5,-112.5"/>
<text text-anchor="middle" x="695" y="-119.5" font-family="Helvetica,sans-Serif" font-size="10.00">netdb.h</text>
</g>
<!-- Node1&#45;&gt;Node17 -->
<g id="edge20" class="edge"><title>Node1&#45;&gt;Node17</title>
<path fill="none" stroke="midnightblue" d="M594.856,-168.444C614.266,-159.636 644.73,-145.812 666.965,-135.722"/>
<polygon fill="midnightblue" stroke="midnightblue" points="668.572,-138.836 676.232,-131.516 665.68,-132.462 668.572,-138.836"/>
</g>
<!-- Node18 -->
<g id="node18" class="node"><title>Node18</title>
<polygon fill="none" stroke="#bfbfbf" points="737.5,-112.5 737.5,-131.5 788.5,-131.5 788.5,-112.5 737.5,-112.5"/>
<text text-anchor="middle" x="763" y="-119.5" font-family="Helvetica,sans-Serif" font-size="10.00">unistd.h</text>
</g>
<!-- Node1&#45;&gt;Node18 -->
<g id="edge21" class="edge"><title>Node1&#45;&gt;Node18</title>
<path fill="none" stroke="midnightblue" d="M605.631,-168.444C638.719,-158.889 692.248,-143.431 727.535,-133.241"/>
<polygon fill="midnightblue" stroke="midnightblue" points="728.778,-136.525 737.414,-130.388 726.836,-129.8 728.778,-136.525"/>
</g>
<!-- Node19 -->
<g id="node19" class="node"><title>Node19</title>
<polygon fill="none" stroke="#bfbfbf" points="807,-112.5 807,-131.5 869,-131.5 869,-112.5 807,-112.5"/>
<text text-anchor="middle" x="838" y="-119.5" font-family="Helvetica,sans-Serif" font-size="10.00">arpa/inet.h</text>
</g>
<!-- Node1&#45;&gt;Node19 -->
<g id="edge22" class="edge"><title>Node1&#45;&gt;Node19</title>
<path fill="none" stroke="midnightblue" d="M619.446,-168.478C662.142,-160.039 729.41,-146.575 796.653,-132.256"/>
<polygon fill="midnightblue" stroke="midnightblue" points="797.523,-135.65 806.571,-130.138 796.061,-128.804 797.523,-135.65"/>
</g>
<!-- Node20 -->
<g id="node20" class="node"><title>Node20</title>
<polygon fill="none" stroke="#bfbfbf" points="887.5,-112.5 887.5,-131.5 934.5,-131.5 934.5,-112.5 887.5,-112.5"/>
<text text-anchor="middle" x="911" y="-119.5" font-family="Helvetica,sans-Serif" font-size="10.00">errno.h</text>
</g>
<!-- Node1&#45;&gt;Node20 -->
<g id="edge23" class="edge"><title>Node1&#45;&gt;Node20</title>
<path fill="none" stroke="midnightblue" d="M637.113,-170.049C696.173,-162.845 788.303,-150.33 877.295,-131.922"/>
<polygon fill="midnightblue" stroke="midnightblue" points="878.22,-135.305 887.289,-129.827 876.783,-128.454 878.22,-135.305"/>
</g>
<!-- Node21 -->
<g id="node21" class="node"><title>Node21</title>
<polygon fill="none" stroke="#bfbfbf" points="953,-112.5 953,-131.5 997,-131.5 997,-112.5 953,-112.5"/>
<text text-anchor="middle" x="975" y="-119.5" font-family="Helvetica,sans-Serif" font-size="10.00">fcntl.h</text>
</g>
<!-- Node1&#45;&gt;Node21 -->
<g id="edge25" class="edge"><title>Node1&#45;&gt;Node21</title>
<path fill="none" stroke="midnightblue" d="M637.044,-172.56C708.368,-166.698 829.99,-154.611 942.907,-131.932"/>
<polygon fill="midnightblue" stroke="midnightblue" points="943.658,-135.351 952.756,-129.922 942.258,-128.493 943.658,-135.351"/>
</g>
<!-- Node3 -->
<g id="node3" class="node"><title>Node3</title>
<g id="a_node3"><a xlink:href="a00029.html" target="_top" xlink:title="tcpd.h">
<polygon fill="none" stroke="black" points="153,-56.5 153,-75.5 197,-75.5 197,-56.5 153,-56.5"/>
<text text-anchor="middle" x="175" y="-63.5" font-family="Helvetica,sans-Serif" font-size="10.00">tcpd.h</text>
</a>
</g>
</g>
<!-- Node2&#45;&gt;Node3 -->
<g id="edge2" class="edge"><title>Node2&#45;&gt;Node3</title>
<path fill="none" stroke="midnightblue" d="M270.936,-112.444C252.425,-103.675 223.419,-89.9355 202.145,-79.8579"/>
<polygon fill="midnightblue" stroke="midnightblue" points="203.515,-76.6343 192.979,-75.5164 200.518,-82.9604 203.515,-76.6343"/>
</g>
<!-- Node6 -->
<g id="node6" class="node"><title>Node6</title>
<g id="a_node6"><a xlink:href="a00021.html" target="_top" xlink:title="hpd_types.h">
<polygon fill="none" stroke="black" points="140,-0.5 140,-19.5 210,-19.5 210,-0.5 140,-0.5"/>
<text text-anchor="middle" x="175" y="-7.5" font-family="Helvetica,sans-Serif" font-size="10.00">hpd_types.h</text>
</a>
</g>
</g>
<!-- Node2&#45;&gt;Node6 -->
<g id="edge7" class="edge"><title>Node2&#45;&gt;Node6</title>
<path fill="none" stroke="midnightblue" d="M280.055,-112.368C260.908,-93.8941 215.721,-50.2926 191.316,-26.7436"/>
<polygon fill="midnightblue" stroke="midnightblue" points="193.53,-24.0165 183.904,-19.5914 188.67,-29.0538 193.53,-24.0165"/>
</g>
<!-- Node8 -->
<g id="node8" class="node"><title>Node8</title>
<g id="a_node8"><a xlink:href="a00041.html" target="_top" xlink:title="hpd_queue.h">
<polygon fill="none" stroke="black" points="253,-56.5 253,-75.5 325,-75.5 325,-56.5 253,-56.5"/>
<text text-anchor="middle" x="289" y="-63.5" font-family="Helvetica,sans-Serif" font-size="10.00">hpd_queue.h</text>
</a>
</g>
</g>
<!-- Node2&#45;&gt;Node8 -->
<g id="edge8" class="edge"><title>Node2&#45;&gt;Node8</title>
<path fill="none" stroke="midnightblue" d="M289,-112.083C289,-105.006 289,-94.8611 289,-85.9865"/>
<polygon fill="midnightblue" stroke="midnightblue" points="292.5,-85.751 289,-75.7511 285.5,-85.7511 292.5,-85.751"/>
</g>
<!-- Node2&#45;&gt;Node10 -->
<g id="edge10" class="edge"><title>Node2&#45;&gt;Node10</title>
<path fill="none" stroke="midnightblue" d="M313.56,-112.444C341.661,-102.654 387.548,-86.6672 416.734,-76.4991"/>
<polygon fill="midnightblue" stroke="midnightblue" points="418.013,-79.7601 426.304,-73.1649 415.71,-73.1497 418.013,-79.7601"/>
</g>
<!-- Node11 -->
<g id="node11" class="node"><title>Node11</title>
<polygon fill="none" stroke="#bfbfbf" points="343.5,-56.5 343.5,-75.5 408.5,-75.5 408.5,-56.5 343.5,-56.5"/>
<text text-anchor="middle" x="376" y="-63.5" font-family="Helvetica,sans-Serif" font-size="10.00">netinet/in.h</text>
</g>
<!-- Node2&#45;&gt;Node11 -->
<g id="edge11" class="edge"><title>Node2&#45;&gt;Node11</title>
<path fill="none" stroke="midnightblue" d="M302.978,-112.324C316.55,-103.9 337.38,-90.9709 353.325,-81.0741"/>
<polygon fill="midnightblue" stroke="midnightblue" points="355.406,-83.9019 362.057,-75.6545 351.714,-77.9544 355.406,-83.9019"/>
</g>
<!-- Node4 -->
<g id="node4" class="node"><title>Node4</title>
<polygon fill="none" stroke="#bfbfbf" points="0,-0.5 0,-19.5 52,-19.5 52,-0.5 0,-0.5"/>
<text text-anchor="middle" x="26" y="-7.5" font-family="Helvetica,sans-Serif" font-size="10.00">stddef.h</text>
</g>
<!-- Node3&#45;&gt;Node4 -->
<g id="edge3" class="edge"><title>Node3&#45;&gt;Node4</title>
<path fill="none" stroke="midnightblue" d="M152.693,-56.9157C128.002,-47.9672 87.9395,-33.4479 59.4803,-23.1338"/>
<polygon fill="midnightblue" stroke="midnightblue" points="60.5362,-19.7938 49.942,-19.677 58.1511,-26.3749 60.5362,-19.7938"/>
</g>
<!-- Node5 -->
<g id="node5" class="node"><title>Node5</title>
<polygon fill="none" stroke="#bfbfbf" points="70,-0.5 70,-19.5 122,-19.5 122,-0.5 70,-0.5"/>
<text text-anchor="middle" x="96" y="-7.5" font-family="Helvetica,sans-Serif" font-size="10.00">stdarg.h</text>
</g>
<!-- Node3&#45;&gt;Node5 -->
<g id="edge4" class="edge"><title>Node3&#45;&gt;Node5</title>
<path fill="none" stroke="midnightblue" d="M162.307,-56.324C150.099,-47.979 131.422,-35.2122 116.997,-25.3524"/>
<polygon fill="midnightblue" stroke="midnightblue" points="118.892,-22.4082 108.661,-19.6545 114.942,-28.1871 118.892,-22.4082"/>
</g>
<!-- Node3&#45;&gt;Node6 -->
<g id="edge5" class="edge"><title>Node3&#45;&gt;Node6</title>
<path fill="none" stroke="midnightblue" d="M175,-56.083C175,-49.0059 175,-38.8611 175,-29.9865"/>
<polygon fill="midnightblue" stroke="midnightblue" points="178.5,-29.751 175,-19.7511 171.5,-29.7511 178.5,-29.751"/>
</g>
<!-- Node7 -->
<g id="node7" class="node"><title>Node7</title>
<g id="a_node7"><a xlink:href="a00044.html" target="_top" xlink:title="tcpd_types.h">
<polygon fill="none" stroke="black" points="228.5,-0.5 228.5,-19.5 301.5,-19.5 301.5,-0.5 228.5,-0.5"/>
<text text-anchor="middle" x="265" y="-7.5" font-family="Helvetica,sans-Serif" font-size="10.00">tcpd_types.h</text>
</a>
</g>
</g>
<!-- Node3&#45;&gt;Node7 -->
<g id="edge6" class="edge"><title>Node3&#45;&gt;Node7</title>
<path fill="none" stroke="midnightblue" d="M189.46,-56.324C203.5,-47.9002 225.048,-34.9709 241.543,-25.0741"/>
<polygon fill="midnightblue" stroke="midnightblue" points="243.802,-27.8007 250.576,-19.6545 240.2,-21.7983 243.802,-27.8007"/>
</g>
<!-- Node9 -->
<g id="node9" class="node"><title>Node9</title>
<polygon fill="none" stroke="#bfbfbf" points="319.5,-0.5 319.5,-19.5 408.5,-19.5 408.5,-0.5 319.5,-0.5"/>
<text text-anchor="middle" x="364" y="-7.5" font-family="Helvetica,sans-Serif" font-size="10.00">bsd/sys/queue.h</text>
</g>
<!-- Node8&#45;&gt;Node9 -->
<g id="edge9" class="edge"><title>Node8&#45;&gt;Node9</title>
<path fill="none" stroke="midnightblue" d="M301.05,-56.324C312.463,-48.1066 329.831,-35.6017 343.435,-25.8069"/>
<polygon fill="midnightblue" stroke="midnightblue" points="345.66,-28.5174 351.731,-19.8339 341.57,-22.8366 345.66,-28.5174"/>
</g>
<!-- Node12&#45;&gt;Node4 -->
<g id="edge14" class="edge"><title>Node12&#45;&gt;Node4</title>
<path fill="none" stroke="midnightblue" d="M78.878,-56.324C69.4736,-48.2631 55.2559,-36.0765 43.931,-26.3695"/>
<polygon fill="midnightblue" stroke="midnightblue" points="46.1766,-23.6844 36.3062,-19.8339 41.621,-28.9993 46.1766,-23.6844"/>
</g>
<!-- Node12&#45;&gt;Node5 -->
<g id="edge15" class="edge"><title>Node12&#45;&gt;Node5</title>
<path fill="none" stroke="midnightblue" d="M90.1559,-56.083C91.0835,-48.9272 92.4176,-38.6353 93.5771,-29.6911"/>
<polygon fill="midnightblue" stroke="midnightblue" points="97.0509,-30.1181 94.8656,-19.7511 90.109,-29.2181 97.0509,-30.1181"/>
</g>
<!-- Node12&#45;&gt;Node6 -->
<g id="edge13" class="edge"><title>Node12&#45;&gt;Node6</title>
<path fill="none" stroke="midnightblue" d="M102.817,-56.324C116.233,-47.9002 136.824,-34.9709 152.586,-25.0741"/>
<polygon fill="midnightblue" stroke="midnightblue" points="154.609,-27.9364 161.217,-19.6545 150.887,-22.0081 154.609,-27.9364"/>
</g>
</g>
</svg>
