<?xml version="1.0" encoding="UTF-8" standalone="no"?>
<!DOCTYPE svg PUBLIC "-//W3C//DTD SVG 1.1//EN"
 "http://www.w3.org/Graphics/SVG/1.1/DTD/svg11.dtd">
<!-- Generated by graphviz version 2.38.0 (20140413.2041)
 -->
<!-- Title: hpd_httpd_settings Pages: 1 -->
<svg width="1448pt" height="662pt"
 viewBox="0.00 0.00 1447.52 662.00" xmlns="http://www.w3.org/2000/svg" xmlns:xlink="http://www.w3.org/1999/xlink">
<g id="graph0" class="graph" transform="scale(1 1) rotate(0) translate(4 658)">
<title>hpd_httpd_settings</title>
<!-- Node1 -->
<g id="node1" class="node"><title>Node1</title>
<polygon fill="#bfbfbf" stroke="black" points="48.0183,-193.5 48.0183,-250.5 147.018,-250.5 147.018,-193.5 48.0183,-193.5"/>
<text text-anchor="middle" x="97.5183" y="-238.5" font-family="Helvetica,sans-Serif" font-size="10.00">hpd_httpd_settings</text>
<polyline fill="none" stroke="black" points="48.0183,-231.5 147.018,-231.5 "/>
<text text-anchor="middle" x="97.5183" y="-219.5" font-family="Helvetica,sans-Serif" font-size="10.00"> </text>
<polyline fill="none" stroke="black" points="48.0183,-212.5 147.018,-212.5 "/>
<text text-anchor="middle" x="97.5183" y="-200.5" font-family="Helvetica,sans-Serif" font-size="10.00"> </text>
</g>
<!-- Node4 -->
<g id="node4" class="node"><title>Node4</title>
<g id="a_node4"><a xlink:href="a00015.html#a00096" target="_top" xlink:title="httpd instance struct ">
<polygon fill="none" stroke="black" points="156.018,-0.5 156.018,-57.5 215.018,-57.5 215.018,-0.5 156.018,-0.5"/>
<text text-anchor="middle" x="185.518" y="-45.5" font-family="Helvetica,sans-Serif" font-size="10.00">hpd_httpd</text>
<polyline fill="none" stroke="black" points="156.018,-38.5 215.018,-38.5 "/>
<text text-anchor="middle" x="185.518" y="-26.5" font-family="Helvetica,sans-Serif" font-size="10.00"> </text>
<polyline fill="none" stroke="black" points="156.018,-19.5 215.018,-19.5 "/>
<text text-anchor="middle" x="185.518" y="-7.5" font-family="Helvetica,sans-Serif" font-size="10.00"> </text>
</a>
</g>
</g>
<!-- Node1&#45;&gt;Node4 -->
<g id="edge4" class="edge"><title>Node1&#45;&gt;Node4</title>
<path fill="none" stroke="#404040" d="M100.5,-193.302C104.819,-156.878 113.62,-95.245 125.518,-76 130.769,-67.5073 138.197,-60.0001 146.045,-53.6426"/>
<polygon fill="none" stroke="#404040" points="146.072,-53.6221 148.506,-46.8339 155.708,-46.4691 153.274,-53.2573 146.072,-53.6221"/>
<text text-anchor="middle" x="147.518" y="-123" font-family="Helvetica,sans-Serif" font-size="10.00"> +settings</text>
</g>
<!-- Node2 -->
<g id="node2" class="node"><title>Node2</title>
<polygon fill="none" stroke="#bfbfbf" points="282.018,-342.5 282.018,-399.5 311.018,-399.5 311.018,-342.5 282.018,-342.5"/>
<text text-anchor="middle" x="296.518" y="-387.5" font-family="Helvetica,sans-Serif" font-size="10.00">int</text>
<polyline fill="none" stroke="#bfbfbf" points="282.018,-380.5 311.018,-380.5 "/>
<text text-anchor="middle" x="296.518" y="-368.5" font-family="Helvetica,sans-Serif" font-size="10.00"> </text>
<polyline fill="none" stroke="#bfbfbf" points="282.018,-361.5 311.018,-361.5 "/>
<text text-anchor="middle" x="296.518" y="-349.5" font-family="Helvetica,sans-Serif" font-size="10.00"> </text>
</g>
<!-- Node2&#45;&gt;Node1 -->
<g id="edge1" class="edge"><title>Node2&#45;&gt;Node1</title>
<path fill="none" stroke="#404040" d="M281.748,-354.46C277.128,-350.099 271.84,-345.576 266.518,-342 250.673,-331.352 243.127,-334.991 227.518,-324 199.508,-304.277 200.382,-290.258 173.518,-269 168.454,-264.992 163.013,-261.065 157.453,-257.299"/>
<polygon fill="none" stroke="#404040" points="157.42,-257.277 150.209,-257.343 147.376,-250.711 154.586,-250.646 157.42,-257.277"/>
<text text-anchor="middle" x="248.518" y="-294" font-family="Helvetica,sans-Serif" font-size="10.00"> +timeout</text>
</g>
<!-- Node8 -->
<g id="node8" class="node"><title>Node8</title>
<g id="a_node8"><a xlink:href="a00009.html#a00087" target="_top" xlink:title="{hpd\n||}">
<polygon fill="none" stroke="black" points="1027.52,-193.5 1027.52,-250.5 1059.52,-250.5 1059.52,-193.5 1027.52,-193.5"/>
<text text-anchor="middle" x="1043.52" y="-238.5" font-family="Helvetica,sans-Serif" font-size="10.00">hpd</text>
<polyline fill="none" stroke="black" points="1027.52,-231.5 1059.52,-231.5 "/>
<text text-anchor="middle" x="1043.52" y="-219.5" font-family="Helvetica,sans-Serif" font-size="10.00"> </text>
<polyline fill="none" stroke="black" points="1027.52,-212.5 1059.52,-212.5 "/>
<text text-anchor="middle" x="1043.52" y="-200.5" font-family="Helvetica,sans-Serif" font-size="10.00"> </text>
</a>
</g>
</g>
<!-- Node2&#45;&gt;Node8 -->
<g id="edge16" class="edge"><title>Node2&#45;&gt;Node8</title>
<path fill="none" stroke="#404040" d="M311.042,-362.452C324.145,-355.982 344.128,-346.947 362.518,-342 393.66,-333.622 481.468,-344.31 506.518,-324 526.607,-307.713 505.141,-284.925 525.518,-269 564.281,-238.706 912.545,-226.652 1015.18,-223.738"/>
<polygon fill="none" stroke="#404040" points="1015.47,-223.73 1021.36,-219.567 1027.47,-223.4 1021.58,-227.564 1015.47,-223.73"/>
<text text-anchor="middle" x="560.518" y="-294" font-family="Helvetica,sans-Serif" font-size="10.00"> +options_count</text>
</g>
<!-- Node19 -->
<g id="node19" class="node"><title>Node19</title>
<g id="a_node19"><a xlink:href="a00027.html#a00108" target="_top" xlink:title="Instance of a tcpd. ">
<polygon fill="none" stroke="black" points="505.518,-193.5 505.518,-250.5 561.518,-250.5 561.518,-193.5 505.518,-193.5"/>
<text text-anchor="middle" x="533.518" y="-238.5" font-family="Helvetica,sans-Serif" font-size="10.00">hpd_tcpd</text>
<polyline fill="none" stroke="black" points="505.518,-231.5 561.518,-231.5 "/>
<text text-anchor="middle" x="533.518" y="-219.5" font-family="Helvetica,sans-Serif" font-size="10.00"> </text>
<polyline fill="none" stroke="black" points="505.518,-212.5 561.518,-212.5 "/>
<text text-anchor="middle" x="533.518" y="-200.5" font-family="Helvetica,sans-Serif" font-size="10.00"> </text>
</a>
</g>
</g>
<!-- Node2&#45;&gt;Node19 -->
<g id="edge26" class="edge"><title>Node2&#45;&gt;Node19</title>
<path fill="none" stroke="#404040" d="M304.19,-342.33C312.134,-319.036 326.909,-286.76 351.518,-269 388.137,-242.573 407.804,-262.329 451.518,-251 465.455,-247.388 480.431,-242.564 493.722,-237.938"/>
<polygon fill="none" stroke="#404040" points="494.072,-237.814 498.382,-232.032 505.377,-233.786 501.067,-239.568 494.072,-237.814"/>
<text text-anchor="middle" x="371.018" y="-294" font-family="Helvetica,sans-Serif" font-size="10.00"> +sockfd</text>
</g>
<!-- Node22 -->
<g id="node22" class="node"><title>Node22</title>
<g id="a_node22"><a xlink:href="a00029.html#a00109" target="_top" xlink:title="Settings struct for tcpd. ">
<polygon fill="none" stroke="black" points="396.518,-0.5 396.518,-57.5 492.518,-57.5 492.518,-0.5 396.518,-0.5"/>
<text text-anchor="middle" x="444.518" y="-45.5" font-family="Helvetica,sans-Serif" font-size="10.00">hpd_tcpd_settings</text>
<polyline fill="none" stroke="black" points="396.518,-38.5 492.518,-38.5 "/>
<text text-anchor="middle" x="444.518" y="-26.5" font-family="Helvetica,sans-Serif" font-size="10.00"> </text>
<polyline fill="none" stroke="black" points="396.518,-19.5 492.518,-19.5 "/>
<text text-anchor="middle" x="444.518" y="-7.5" font-family="Helvetica,sans-Serif" font-size="10.00"> </text>
</a>
</g>
</g>
<!-- Node2&#45;&gt;Node22 -->
<g id="edge29" class="edge"><title>Node2&#45;&gt;Node22</title>
<path fill="none" stroke="#404040" d="M296.967,-342.26C298.545,-277.227 305.651,-117.319 337.518,-76 349.269,-60.7641 367.068,-50.4991 384.795,-43.6147"/>
<polygon fill="none" stroke="#404040" points="385.044,-43.5275 389.384,-37.7689 396.369,-39.5606 392.029,-45.3192 385.044,-43.5275"/>
<text text-anchor="middle" x="336.518" y="-225" font-family="Helvetica,sans-Serif" font-size="10.00"> +retry_delay</text>
<text text-anchor="middle" x="336.518" y="-214" font-family="Helvetica,sans-Serif" font-size="10.00">+timeout</text>
</g>
<!-- Node3 -->
<g id="node3" class="node"><title>Node3</title>
<polygon fill="none" stroke="#bfbfbf" points="153.018,-342.5 153.018,-399.5 258.018,-399.5 258.018,-342.5 153.018,-342.5"/>
<text text-anchor="middle" x="205.518" y="-387.5" font-family="Helvetica,sans-Serif" font-size="10.00">enum hpd_tcpd_port</text>
<polyline fill="none" stroke="#bfbfbf" points="153.018,-380.5 258.018,-380.5 "/>
<text text-anchor="middle" x="205.518" y="-368.5" font-family="Helvetica,sans-Serif" font-size="10.00"> </text>
<polyline fill="none" stroke="#bfbfbf" points="153.018,-361.5 258.018,-361.5 "/>
<text text-anchor="middle" x="205.518" y="-349.5" font-family="Helvetica,sans-Serif" font-size="10.00"> </text>
</g>
<!-- Node3&#45;&gt;Node1 -->
<g id="edge2" class="edge"><title>Node3&#45;&gt;Node1</title>
<path fill="none" stroke="#404040" d="M162.307,-342.444C155.483,-336.881 148.912,-330.67 143.518,-324 128.802,-305.799 117.695,-282.13 110.084,-262.28"/>
<polygon fill="none" stroke="#404040" points="110.01,-262.076 104.198,-257.808 105.902,-250.801 111.714,-255.069 110.01,-262.076"/>
<text text-anchor="middle" x="156.518" y="-294" font-family="Helvetica,sans-Serif" font-size="10.00"> +port</text>
</g>
<!-- Node3&#45;&gt;Node22 -->
<g id="edge30" class="edge"><title>Node3&#45;&gt;Node22</title>
<path fill="none" stroke="#404040" d="M197.547,-342.483C188.655,-306.675 177.914,-242.804 197.518,-193 223.55,-126.87 246.733,-114.427 306.518,-76 330.085,-60.8524 359.14,-50.195 384.502,-42.9806"/>
<polygon fill="none" stroke="#404040" points="384.653,-42.9398 389.401,-37.5125 396.237,-39.8079 391.489,-45.2352 384.653,-42.9398"/>
<text text-anchor="middle" x="210.518" y="-219.5" font-family="Helvetica,sans-Serif" font-size="10.00"> +port</text>
</g>
<!-- Node4&#45;&gt;Node1 -->
<g id="edge3" class="edge"><title>Node4&#45;&gt;Node1</title>
<path fill="none" stroke="#404040" d="M155.88,-33.8519C112.513,-40.1648 35.1019,-54.2308 18.5183,-76 -8.14515,-111.001 -3.41141,-136.854 18.5183,-175 23.2458,-183.223 30.0717,-190.114 37.7586,-195.846"/>
<polygon fill="none" stroke="#404040" points="37.8408,-195.901 45.0518,-195.86 47.8626,-202.501 40.6516,-202.541 37.8408,-195.901"/>
<text text-anchor="middle" x="60.5183" y="-167" font-family="Helvetica,sans-Serif" font-size="10.00"> +on_req_hdr_cmpl</text>
<text text-anchor="middle" x="60.5183" y="-156" font-family="Helvetica,sans-Serif" font-size="10.00">+on_req_destroy</text>
<text text-anchor="middle" x="60.5183" y="-145" font-family="Helvetica,sans-Serif" font-size="10.00">+on_req_begin</text>
<text text-anchor="middle" x="60.5183" y="-134" font-family="Helvetica,sans-Serif" font-size="10.00">+on_req_hdr_value</text>
<text text-anchor="middle" x="60.5183" y="-123" font-family="Helvetica,sans-Serif" font-size="10.00">+on_req_url_cmpl</text>
<text text-anchor="middle" x="60.5183" y="-112" font-family="Helvetica,sans-Serif" font-size="10.00">+on_req_url</text>
<text text-anchor="middle" x="60.5183" y="-101" font-family="Helvetica,sans-Serif" font-size="10.00">+on_req_body</text>
<text text-anchor="middle" x="60.5183" y="-90" font-family="Helvetica,sans-Serif" font-size="10.00">+on_req_hdr_field</text>
<text text-anchor="middle" x="60.5183" y="-79" font-family="Helvetica,sans-Serif" font-size="10.00">+on_req_cmpl</text>
</g>
<!-- Node5 -->
<g id="node5" class="node"><title>Node5</title>
<g id="a_node5"><a xlink:href="a00020.html" target="_top" xlink:title="{hpd_module\n||+ TAILQ_ENTRY()\l}">
<polygon fill="none" stroke="black" points="722.518,-342.5 722.518,-399.5 822.518,-399.5 822.518,-342.5 722.518,-342.5"/>
<text text-anchor="middle" x="772.518" y="-387.5" font-family="Helvetica,sans-Serif" font-size="10.00">hpd_module</text>
<polyline fill="none" stroke="black" points="722.518,-380.5 822.518,-380.5 "/>
<text text-anchor="middle" x="772.518" y="-368.5" font-family="Helvetica,sans-Serif" font-size="10.00"> </text>
<polyline fill="none" stroke="black" points="722.518,-361.5 822.518,-361.5 "/>
<text text-anchor="start" x="730.518" y="-349.5" font-family="Helvetica,sans-Serif" font-size="10.00">+ TAILQ_ENTRY()</text>
</a>
</g>
</g>
<!-- Node5&#45;&gt;Node4 -->
<g id="edge5" class="edge"><title>Node5&#45;&gt;Node4</title>
<path fill="none" stroke="#404040" d="M722.402,-356.636C700.484,-351.276 674.379,-345.542 650.518,-342 593.23,-333.496 440.1,-353.931 390.518,-324 365.916,-309.148 380.276,-285.17 356.518,-269 319.186,-243.591 290.498,-280.744 256.518,-251 229.102,-227.002 204.993,-126.644 193.198,-69.7717"/>
<polygon fill="none" stroke="#404040" points="193.127,-69.4255 188.012,-64.3427 190.737,-57.6661 195.852,-62.7489 193.127,-69.4255"/>
<text text-anchor="middle" x="277.518" y="-219.5" font-family="Helvetica,sans-Serif" font-size="10.00"> +context</text>
</g>
<!-- Node5&#45;&gt;Node8 -->
<g id="edge19" class="edge"><title>Node5&#45;&gt;Node8</title>
<path fill="none" stroke="#404040" d="M822.8,-348.428C833.749,-341.87 844.454,-333.755 852.518,-324 868.996,-304.067 852.591,-286.624 871.518,-269 911.21,-232.042 977.287,-224.136 1014.94,-222.82"/>
<polygon fill="none" stroke="#404040" points="1015.43,-222.811 1021.35,-218.702 1027.42,-222.591 1021.5,-226.701 1015.43,-222.811"/>
<text text-anchor="middle" x="908.018" y="-294" font-family="Helvetica,sans-Serif" font-size="10.00"> +option2module</text>
</g>
<!-- Node5&#45;&gt;Node19 -->
<g id="edge33" class="edge"><title>Node5&#45;&gt;Node19</title>
<path fill="none" stroke="#404040" d="M764.204,-342.462C755.477,-314.335 742.245,-274.08 736.518,-269 712.73,-247.899 625.711,-234.07 573.641,-227.488"/>
<polygon fill="none" stroke="#404040" points="573.44,-227.463 566.999,-230.706 561.529,-226.007 567.97,-222.765 573.44,-227.463"/>
<text text-anchor="middle" x="779.518" y="-294" font-family="Helvetica,sans-Serif" font-size="10.00"> +context</text>
</g>
<!-- Node6 -->
<g id="node6" class="node"><title>Node6</title>
<g id="a_node6"><a xlink:href="a00021.html#a00100" target="_top" xlink:title="[Application API Callbacks] ">
<polygon fill="none" stroke="black" points="811.518,-447.5 811.518,-504.5 899.518,-504.5 899.518,-447.5 811.518,-447.5"/>
<text text-anchor="middle" x="855.518" y="-492.5" font-family="Helvetica,sans-Serif" font-size="10.00">hpd_module_def</text>
<polyline fill="none" stroke="black" points="811.518,-485.5 899.518,-485.5 "/>
<text text-anchor="middle" x="855.518" y="-473.5" font-family="Helvetica,sans-Serif" font-size="10.00"> </text>
<polyline fill="none" stroke="black" points="811.518,-466.5 899.518,-466.5 "/>
<text text-anchor="middle" x="855.518" y="-454.5" font-family="Helvetica,sans-Serif" font-size="10.00"> </text>
</a>
</g>
</g>
<!-- Node6&#45;&gt;Node5 -->
<g id="edge6" class="edge"><title>Node6&#45;&gt;Node5</title>
<path fill="none" stroke="#404040" d="M833.276,-447.398C823.786,-435.622 812.57,-421.703 802.375,-409.05"/>
<polygon fill="none" stroke="#404040" points="802.352,-409.022 795.472,-406.86 794.822,-399.678 801.702,-401.84 802.352,-409.022"/>
<text text-anchor="middle" x="828.018" y="-421" font-family="Helvetica,sans-Serif" font-size="10.00"> +def</text>
</g>
<!-- Node7 -->
<g id="node7" class="node"><title>Node7</title>
<polygon fill="none" stroke="#bfbfbf" points="813.518,-596.5 813.518,-653.5 897.518,-653.5 897.518,-596.5 813.518,-596.5"/>
<text text-anchor="middle" x="855.518" y="-641.5" font-family="Helvetica,sans-Serif" font-size="10.00">enum hpd_error</text>
<polyline fill="none" stroke="#bfbfbf" points="813.518,-634.5 897.518,-634.5 "/>
<text text-anchor="middle" x="855.518" y="-622.5" font-family="Helvetica,sans-Serif" font-size="10.00"> </text>
<polyline fill="none" stroke="#bfbfbf" points="813.518,-615.5 897.518,-615.5 "/>
<text text-anchor="middle" x="855.518" y="-603.5" font-family="Helvetica,sans-Serif" font-size="10.00"> </text>
</g>
<!-- Node7&#45;&gt;Node6 -->
<g id="edge7" class="edge"><title>Node7&#45;&gt;Node6</title>
<path fill="none" stroke="#404040" d="M855.518,-596.35C855.518,-573.868 855.518,-541.855 855.518,-516.643"/>
<polygon fill="none" stroke="#404040" points="855.518,-516.526 851.518,-510.526 855.518,-504.526 859.518,-510.526 855.518,-516.526"/>
<text text-anchor="middle" x="888.018" y="-570" font-family="Helvetica,sans-Serif" font-size="10.00"> +on_create</text>
<text text-anchor="middle" x="888.018" y="-559" font-family="Helvetica,sans-Serif" font-size="10.00">+on_stop</text>
<text text-anchor="middle" x="888.018" y="-548" font-family="Helvetica,sans-Serif" font-size="10.00">+on_destroy</text>
<text text-anchor="middle" x="888.018" y="-537" font-family="Helvetica,sans-Serif" font-size="10.00">+on_start</text>
<text text-anchor="middle" x="888.018" y="-526" font-family="Helvetica,sans-Serif" font-size="10.00">+on_parse_opt</text>
</g>
<!-- Node8&#45;&gt;Node5 -->
<g id="edge8" class="edge"><title>Node8&#45;&gt;Node5</title>
<path fill="none" stroke="#404040" d="M1027.29,-228.93C1010.13,-235.98 983.414,-249.325 967.518,-269 951.265,-289.117 967.882,-306.857 948.518,-324 919.931,-349.309 901.481,-332.433 864.518,-342 854.76,-344.526 844.487,-347.417 834.486,-350.362"/>
<polygon fill="none" stroke="#404040" points="834.413,-350.384 829.811,-355.936 822.916,-353.824 827.518,-348.272 834.413,-350.384"/>
<text text-anchor="middle" x="980.018" y="-294" font-family="Helvetica,sans-Serif" font-size="10.00"> +hpd</text>
</g>
<!-- Node11 -->
<g id="node11" class="node"><title>Node11</title>
<g id="a_node11"><a xlink:href="a00005.html#a00083" target="_top" xlink:title="{configuration\n||}">
<polygon fill="none" stroke="black" points="1088.52,-0.5 1088.52,-57.5 1160.52,-57.5 1160.52,-0.5 1088.52,-0.5"/>
<text text-anchor="middle" x="1124.52" y="-45.5" font-family="Helvetica,sans-Serif" font-size="10.00">configuration</text>
<polyline fill="none" stroke="black" points="1088.52,-38.5 1160.52,-38.5 "/>
<text text-anchor="middle" x="1124.52" y="-26.5" font-family="Helvetica,sans-Serif" font-size="10.00"> </text>
<polyline fill="none" stroke="black" points="1088.52,-19.5 1160.52,-19.5 "/>
<text text-anchor="middle" x="1124.52" y="-7.5" font-family="Helvetica,sans-Serif" font-size="10.00"> </text>
</a>
</g>
</g>
<!-- Node8&#45;&gt;Node11 -->
<g id="edge13" class="edge"><title>Node8&#45;&gt;Node11</title>
<path fill="none" stroke="#404040" d="M1059.74,-203.365C1066.44,-195.248 1073.74,-185.172 1078.52,-175 1097.73,-134.118 1086.2,-118.495 1101.52,-76 1102.37,-73.6376 1103.31,-71.239 1104.31,-68.8408"/>
<polygon fill="none" stroke="#404040" points="1104.38,-68.6899 1103.21,-61.5742 1109.33,-57.7578 1110.5,-64.8735 1104.38,-68.6899"/>
<text text-anchor="middle" x="1114.02" y="-123" font-family="Helvetica,sans-Serif" font-size="10.00"> +hpd</text>
</g>
<!-- Node9 -->
<g id="node9" class="node"><title>Node9</title>
<polygon fill="none" stroke="#bfbfbf" points="1142.52,-342.5 1142.52,-399.5 1224.52,-399.5 1224.52,-342.5 1142.52,-342.5"/>
<text text-anchor="middle" x="1183.52" y="-387.5" font-family="Helvetica,sans-Serif" font-size="10.00">argp_option_t *</text>
<polyline fill="none" stroke="#bfbfbf" points="1142.52,-380.5 1224.52,-380.5 "/>
<text text-anchor="middle" x="1183.52" y="-368.5" font-family="Helvetica,sans-Serif" font-size="10.00"> </text>
<polyline fill="none" stroke="#bfbfbf" points="1142.52,-361.5 1224.52,-361.5 "/>
<text text-anchor="middle" x="1183.52" y="-349.5" font-family="Helvetica,sans-Serif" font-size="10.00"> </text>
</g>
<!-- Node9&#45;&gt;Node8 -->
<g id="edge9" class="edge"><title>Node9&#45;&gt;Node8</title>
<path fill="none" stroke="#404040" d="M1182.84,-342.492C1180.83,-319.939 1174.47,-288.639 1155.52,-269 1137.07,-249.885 1123.11,-261.061 1098.52,-251 1089.14,-247.163 1079.19,-242.34 1070.36,-237.783"/>
<polygon fill="none" stroke="#404040" points="1070.15,-237.674 1062.98,-238.397 1059.55,-232.052 1066.73,-231.329 1070.15,-237.674"/>
<text text-anchor="middle" x="1201.02" y="-294" font-family="Helvetica,sans-Serif" font-size="10.00"> +options</text>
</g>
<!-- Node10 -->
<g id="node10" class="node"><title>Node10</title>
<polygon fill="none" stroke="#bfbfbf" points="1243.02,-342.5 1243.02,-399.5 1324.02,-399.5 1324.02,-342.5 1243.02,-342.5"/>
<text text-anchor="middle" x="1283.52" y="-387.5" font-family="Helvetica,sans-Serif" font-size="10.00">struct modules</text>
<polyline fill="none" stroke="#bfbfbf" points="1243.02,-380.5 1324.02,-380.5 "/>
<text text-anchor="middle" x="1283.52" y="-368.5" font-family="Helvetica,sans-Serif" font-size="10.00"> </text>
<polyline fill="none" stroke="#bfbfbf" points="1243.02,-361.5 1324.02,-361.5 "/>
<text text-anchor="middle" x="1283.52" y="-349.5" font-family="Helvetica,sans-Serif" font-size="10.00"> </text>
</g>
<!-- Node10&#45;&gt;Node8 -->
<g id="edge10" class="edge"><title>Node10&#45;&gt;Node8</title>
<path fill="none" stroke="#404040" d="M1275.18,-342.068C1266.64,-318.607 1250.97,-286.231 1225.52,-269 1178.31,-237.039 1152.88,-268.165 1098.52,-251 1089,-247.994 1079.12,-243.467 1070.41,-238.925"/>
<polygon fill="none" stroke="#404040" points="1070.27,-238.85 1063.09,-239.466 1059.76,-233.071 1066.94,-232.455 1070.27,-238.85"/>
<text text-anchor="middle" x="1290.52" y="-294" font-family="Helvetica,sans-Serif" font-size="10.00"> +modules</text>
</g>
<!-- Node11&#45;&gt;Node8 -->
<g id="edge11" class="edge"><title>Node11&#45;&gt;Node8</title>
<path fill="none" stroke="#404040" d="M1088.42,-34.4771C1062.78,-39.7494 1030.09,-51.1959 1013.52,-76 989.076,-112.587 1000.98,-132.824 1013.52,-175 1015.2,-180.643 1017.81,-186.241 1020.81,-191.486"/>
<polygon fill="none" stroke="#404040" points="1020.86,-191.559 1027.46,-194.449 1027.34,-201.659 1020.73,-198.769 1020.86,-191.559"/>
<text text-anchor="middle" x="1046.02" y="-123" font-family="Helvetica,sans-Serif" font-size="10.00"> +configuration</text>
</g>
<!-- Node12 -->
<g id="node12" class="node"><title>Node12</title>
<polygon fill="none" stroke="#bfbfbf" points="1107.52,-193.5 1107.52,-250.5 1189.52,-250.5 1189.52,-193.5 1107.52,-193.5"/>
<text text-anchor="middle" x="1148.52" y="-238.5" font-family="Helvetica,sans-Serif" font-size="10.00">struct adapters</text>
<polyline fill="none" stroke="#bfbfbf" points="1107.52,-231.5 1189.52,-231.5 "/>
<text text-anchor="middle" x="1148.52" y="-219.5" font-family="Helvetica,sans-Serif" font-size="10.00"> </text>
<polyline fill="none" stroke="#bfbfbf" points="1107.52,-212.5 1189.52,-212.5 "/>
<text text-anchor="middle" x="1148.52" y="-200.5" font-family="Helvetica,sans-Serif" font-size="10.00"> </text>
</g>
<!-- Node12&#45;&gt;Node11 -->
<g id="edge12" class="edge"><title>Node12&#45;&gt;Node11</title>
<path fill="none" stroke="#404040" d="M1145.03,-193.227C1140.96,-160.834 1134.2,-107.022 1129.56,-70.0995"/>
<polygon fill="none" stroke="#404040" points="1129.51,-69.7129 1124.79,-64.2585 1128.01,-57.8066 1132.73,-63.261 1129.51,-69.7129"/>
<text text-anchor="middle" x="1167.02" y="-123" font-family="Helvetica,sans-Serif" font-size="10.00"> +adapters</text>
</g>
<!-- Node13 -->
<g id="node13" class="node"><title>Node13</title>
<polygon fill="none" stroke="#bfbfbf" points="1208.02,-193.5 1208.02,-250.5 1289.02,-250.5 1289.02,-193.5 1208.02,-193.5"/>
<text text-anchor="middle" x="1248.52" y="-238.5" font-family="Helvetica,sans-Serif" font-size="10.00">struct listeners</text>
<polyline fill="none" stroke="#bfbfbf" points="1208.02,-231.5 1289.02,-231.5 "/>
<text text-anchor="middle" x="1248.52" y="-219.5" font-family="Helvetica,sans-Serif" font-size="10.00"> </text>
<polyline fill="none" stroke="#bfbfbf" points="1208.02,-212.5 1289.02,-212.5 "/>
<text text-anchor="middle" x="1248.52" y="-200.5" font-family="Helvetica,sans-Serif" font-size="10.00"> </text>
</g>
<!-- Node13&#45;&gt;Node11 -->
<g id="edge14" class="edge"><title>Node13&#45;&gt;Node11</title>
<path fill="none" stroke="#404040" d="M1243.62,-193.329C1236.94,-162.097 1222.48,-111.08 1194.52,-76 1188,-67.8267 1179.63,-60.6169 1170.95,-54.4738"/>
<polygon fill="none" stroke="#404040" points="1170.75,-54.3434 1163.54,-54.3949 1160.72,-47.7585 1167.93,-47.7069 1170.75,-54.3434"/>
<text text-anchor="middle" x="1262.52" y="-123" font-family="Helvetica,sans-Serif" font-size="10.00"> +listeners</text>
</g>
<!-- Node14 -->
<g id="node14" class="node"><title>Node14</title>
<polygon fill="none" stroke="#bfbfbf" points="873.518,-342.5 873.518,-399.5 959.518,-399.5 959.518,-342.5 873.518,-342.5"/>
<text text-anchor="middle" x="916.518" y="-387.5" font-family="Helvetica,sans-Serif" font-size="10.00">hpd_ev_loop_t *</text>
<polyline fill="none" stroke="#bfbfbf" points="873.518,-380.5 959.518,-380.5 "/>
<text text-anchor="middle" x="916.518" y="-368.5" font-family="Helvetica,sans-Serif" font-size="10.00"> </text>
<polyline fill="none" stroke="#bfbfbf" points="873.518,-361.5 959.518,-361.5 "/>
<text text-anchor="middle" x="916.518" y="-349.5" font-family="Helvetica,sans-Serif" font-size="10.00"> </text>
</g>
<!-- Node14&#45;&gt;Node8 -->
<g id="edge15" class="edge"><title>Node14&#45;&gt;Node8</title>
<path fill="none" stroke="#404040" d="M959.702,-351.85C972.842,-344.695 986.454,-335.417 996.518,-324 1014.04,-304.124 1008.27,-292.989 1019.52,-269 1020.67,-266.548 1021.88,-264.038 1023.12,-261.517"/>
<polygon fill="none" stroke="#404040" points="1023.25,-261.251 1022.39,-254.091 1028.67,-250.54 1029.53,-257.699 1023.25,-261.251"/>
<text text-anchor="middle" x="1033.52" y="-294" font-family="Helvetica,sans-Serif" font-size="10.00"> +loop</text>
</g>
<!-- Node14&#45;&gt;Node19 -->
<g id="edge23" class="edge"><title>Node14&#45;&gt;Node19</title>
<path fill="none" stroke="#404040" d="M873.131,-357.565C854.752,-350.375 834.418,-339.586 820.518,-324 803.305,-304.699 821.23,-285.741 801.518,-269 767.869,-240.422 640.339,-229.049 574.066,-224.995"/>
<polygon fill="none" stroke="#404040" points="573.654,-224.971 567.433,-228.618 561.674,-224.278 567.895,-220.631 573.654,-224.971"/>
<text text-anchor="middle" x="834.518" y="-294" font-family="Helvetica,sans-Serif" font-size="10.00"> +loop</text>
</g>
<!-- Node15 -->
<g id="node15" class="node"><title>Node15</title>
<polygon fill="none" stroke="#bfbfbf" points="1342.52,-342.5 1342.52,-399.5 1400.52,-399.5 1400.52,-342.5 1342.52,-342.5"/>
<text text-anchor="middle" x="1371.52" y="-387.5" font-family="Helvetica,sans-Serif" font-size="10.00">ev_signal</text>
<polyline fill="none" stroke="#bfbfbf" points="1342.52,-380.5 1400.52,-380.5 "/>
<text text-anchor="middle" x="1371.52" y="-368.5" font-family="Helvetica,sans-Serif" font-size="10.00"> </text>
<polyline fill="none" stroke="#bfbfbf" points="1342.52,-361.5 1400.52,-361.5 "/>
<text text-anchor="middle" x="1371.52" y="-349.5" font-family="Helvetica,sans-Serif" font-size="10.00"> </text>
</g>
<!-- Node15&#45;&gt;Node8 -->
<g id="edge17" class="edge"><title>Node15&#45;&gt;Node8</title>
<path fill="none" stroke="#404040" d="M1364.68,-342.215C1357.27,-318.511 1342.95,-285.695 1317.52,-269 1276.7,-242.202 1145.49,-264.328 1098.52,-251 1088.91,-248.275 1079.02,-243.825 1070.31,-239.266"/>
<polygon fill="none" stroke="#404040" points="1070.16,-239.183 1062.97,-239.76 1059.68,-233.346 1066.86,-232.77 1070.16,-239.183"/>
<text text-anchor="middle" x="1398.52" y="-299.5" font-family="Helvetica,sans-Serif" font-size="10.00"> +sigterm_watcher</text>
<text text-anchor="middle" x="1398.52" y="-288.5" font-family="Helvetica,sans-Serif" font-size="10.00">+sigint_watcher</text>
</g>
<!-- Node16 -->
<g id="node16" class="node"><title>Node16</title>
<polygon fill="none" stroke="#bfbfbf" points="1011.02,-342.5 1011.02,-399.5 1124.02,-399.5 1124.02,-342.5 1011.02,-342.5"/>
<text text-anchor="middle" x="1067.52" y="-387.5" font-family="Helvetica,sans-Serif" font-size="10.00">struct hpd_ev_asyncs</text>
<polyline fill="none" stroke="#bfbfbf" points="1011.02,-380.5 1124.02,-380.5 "/>
<text text-anchor="middle" x="1067.52" y="-368.5" font-family="Helvetica,sans-Serif" font-size="10.00"> </text>
<polyline fill="none" stroke="#bfbfbf" points="1011.02,-361.5 1124.02,-361.5 "/>
<text text-anchor="middle" x="1067.52" y="-349.5" font-family="Helvetica,sans-Serif" font-size="10.00"> </text>
</g>
<!-- Node16&#45;&gt;Node8 -->
<g id="edge18" class="edge"><title>Node16&#45;&gt;Node8</title>
<path fill="none" stroke="#404040" d="M1063,-342.35C1059.33,-319.868 1054.11,-287.855 1049.99,-262.643"/>
<polygon fill="none" stroke="#404040" points="1049.95,-262.369 1045.03,-257.092 1048.01,-250.526 1052.93,-255.803 1049.95,-262.369"/>
<text text-anchor="middle" x="1106.02" y="-316" font-family="Helvetica,sans-Serif" font-size="10.00"> +respond_watchers</text>
<text text-anchor="middle" x="1106.02" y="-305" font-family="Helvetica,sans-Serif" font-size="10.00">+request_watchers</text>
<text text-anchor="middle" x="1106.02" y="-294" font-family="Helvetica,sans-Serif" font-size="10.00">+changed_watchers</text>
<text text-anchor="middle" x="1106.02" y="-283" font-family="Helvetica,sans-Serif" font-size="10.00">+attached_watchers</text>
<text text-anchor="middle" x="1106.02" y="-272" font-family="Helvetica,sans-Serif" font-size="10.00">+detached_watchers</text>
</g>
<!-- Node17 -->
<g id="node17" class="node"><title>Node17</title>
<polygon fill="none" stroke="#bfbfbf" points="668.018,-447.5 668.018,-504.5 709.018,-504.5 709.018,-447.5 668.018,-447.5"/>
<text text-anchor="middle" x="688.518" y="-492.5" font-family="Helvetica,sans-Serif" font-size="10.00">void *</text>
<polyline fill="none" stroke="#bfbfbf" points="668.018,-485.5 709.018,-485.5 "/>
<text text-anchor="middle" x="688.518" y="-473.5" font-family="Helvetica,sans-Serif" font-size="10.00"> </text>
<polyline fill="none" stroke="#bfbfbf" points="668.018,-466.5 709.018,-466.5 "/>
<text text-anchor="middle" x="688.518" y="-454.5" font-family="Helvetica,sans-Serif" font-size="10.00"> </text>
</g>
<!-- Node17&#45;&gt;Node1 -->
<g id="edge35" class="edge"><title>Node17&#45;&gt;Node1</title>
<path fill="none" stroke="#404040" d="M667.858,-473.986C567.316,-468.847 132.469,-444.169 93.5183,-400 60.6315,-362.708 70.904,-301.87 82.9228,-262.134"/>
<polygon fill="none" stroke="#404040" points="82.9819,-261.951 81.0153,-255.013 86.663,-250.529 88.6296,-257.467 82.9819,-261.951"/>
<text text-anchor="middle" x="118.518" y="-368.5" font-family="Helvetica,sans-Serif" font-size="10.00"> +httpd_ctx</text>
</g>
<!-- Node17&#45;&gt;Node5 -->
<g id="edge20" class="edge"><title>Node17&#45;&gt;Node5</title>
<path fill="none" stroke="#404040" d="M709.067,-449.803C718.994,-437.631 731.107,-422.778 742.079,-409.324"/>
<polygon fill="none" stroke="#404040" points="742.235,-409.134 742.927,-401.956 749.819,-399.834 749.126,-407.012 742.235,-409.134"/>
<text text-anchor="middle" x="747.518" y="-421" font-family="Helvetica,sans-Serif" font-size="10.00"> +data</text>
</g>
<!-- Node17&#45;&gt;Node22 -->
<g id="edge31" class="edge"><title>Node17&#45;&gt;Node22</title>
<path fill="none" stroke="#404040" d="M687.79,-447.188C685.392,-357.773 677.547,-83.0606 671.518,-76 650.297,-51.1458 564.503,-39.3084 504.695,-33.9781"/>
<polygon fill="none" stroke="#404040" points="504.691,-33.9778 498.376,-37.4582 492.734,-32.9669 499.049,-29.4866 504.691,-33.9778"/>
<text text-anchor="middle" x="708.018" y="-294" font-family="Helvetica,sans-Serif" font-size="10.00"> +tcpd_ctx</text>
</g>
<!-- Node18 -->
<g id="node18" class="node"><title>Node18</title>
<polygon fill="none" stroke="#bfbfbf" points="751.518,-447.5 751.518,-504.5 793.518,-504.5 793.518,-447.5 751.518,-447.5"/>
<text text-anchor="middle" x="772.518" y="-492.5" font-family="Helvetica,sans-Serif" font-size="10.00">char *</text>
<polyline fill="none" stroke="#bfbfbf" points="751.518,-485.5 793.518,-485.5 "/>
<text text-anchor="middle" x="772.518" y="-473.5" font-family="Helvetica,sans-Serif" font-size="10.00"> </text>
<polyline fill="none" stroke="#bfbfbf" points="751.518,-466.5 793.518,-466.5 "/>
<text text-anchor="middle" x="772.518" y="-454.5" font-family="Helvetica,sans-Serif" font-size="10.00"> </text>
</g>
<!-- Node18&#45;&gt;Node5 -->
<g id="edge21" class="edge"><title>Node18&#45;&gt;Node5</title>
<path fill="none" stroke="#404040" d="M772.518,-447.398C772.518,-436.545 772.518,-423.873 772.518,-412.049"/>
<polygon fill="none" stroke="#404040" points="772.518,-411.678 768.518,-405.678 772.518,-399.678 776.518,-405.678 772.518,-411.678"/>
<text text-anchor="middle" x="781.018" y="-421" font-family="Helvetica,sans-Serif" font-size="10.00"> +id</text>
</g>
<!-- Node19&#45;&gt;Node4 -->
<g id="edge22" class="edge"><title>Node19&#45;&gt;Node4</title>
<path fill="none" stroke="#404040" d="M505.257,-211.936C487.392,-204.74 465.333,-192.875 452.518,-175 426.415,-138.587 465.297,-107.582 433.518,-76 419.038,-61.6093 294.058,-43.7753 227.247,-35.1506"/>
<polygon fill="none" stroke="#404040" points="227.003,-35.1195 220.545,-38.3282 215.099,-33.6012 221.557,-30.3925 227.003,-35.1195"/>
<text text-anchor="middle" x="480.018" y="-123" font-family="Helvetica,sans-Serif" font-size="10.00"> +webserver</text>
</g>
<!-- Node19&#45;&gt;Node22 -->
<g id="edge32" class="edge"><title>Node19&#45;&gt;Node22</title>
<path fill="none" stroke="#404040" d="M561.896,-198.856C568.621,-192.007 574.89,-183.897 578.518,-175 595.133,-134.257 604.086,-111.809 578.518,-76 561.648,-52.3725 531.849,-40.7539 504.628,-35.0932"/>
<polygon fill="none" stroke="#404040" points="504.573,-35.0833 497.958,-37.954 492.764,-32.9519 499.379,-30.0812 504.573,-35.0833"/>
<text text-anchor="middle" x="631.018" y="-134" font-family="Helvetica,sans-Serif" font-size="10.00"> +on_disconnect</text>
<text text-anchor="middle" x="631.018" y="-123" font-family="Helvetica,sans-Serif" font-size="10.00">+on_connect</text>
<text text-anchor="middle" x="631.018" y="-112" font-family="Helvetica,sans-Serif" font-size="10.00">+on_receive</text>
</g>
<!-- Node20 -->
<g id="node20" class="node"><title>Node20</title>
<polygon fill="none" stroke="#bfbfbf" points="372.018,-342.5 372.018,-399.5 407.018,-399.5 407.018,-342.5 372.018,-342.5"/>
<text text-anchor="middle" x="389.518" y="-387.5" font-family="Helvetica,sans-Serif" font-size="10.00">char</text>
<polyline fill="none" stroke="#bfbfbf" points="372.018,-380.5 407.018,-380.5 "/>
<text text-anchor="middle" x="389.518" y="-368.5" font-family="Helvetica,sans-Serif" font-size="10.00"> </text>
<polyline fill="none" stroke="#bfbfbf" points="372.018,-361.5 407.018,-361.5 "/>
<text text-anchor="middle" x="389.518" y="-349.5" font-family="Helvetica,sans-Serif" font-size="10.00"> </text>
</g>
<!-- Node20&#45;&gt;Node19 -->
<g id="edge24" class="edge"><title>Node20&#45;&gt;Node19</title>
<path fill="none" stroke="#404040" d="M390.609,-342.387C392.888,-320.075 399.401,-289.17 417.518,-269 422.99,-262.908 462.456,-247.968 493.857,-236.756"/>
<polygon fill="none" stroke="#404040" points="494.096,-236.671 498.418,-230.898 505.408,-232.667 501.087,-238.44 494.096,-236.671"/>
<text text-anchor="middle" x="439.018" y="-294" font-family="Helvetica,sans-Serif" font-size="10.00"> +port_str</text>
</g>
<!-- Node21 -->
<g id="node21" class="node"><title>Node21</title>
<polygon fill="none" stroke="#bfbfbf" points="425.518,-342.5 425.518,-399.5 541.518,-399.5 541.518,-342.5 425.518,-342.5"/>
<text text-anchor="middle" x="483.518" y="-387.5" font-family="Helvetica,sans-Serif" font-size="10.00">struct hpd_tcpd_conns</text>
<polyline fill="none" stroke="#bfbfbf" points="425.518,-380.5 541.518,-380.5 "/>
<text text-anchor="middle" x="483.518" y="-368.5" font-family="Helvetica,sans-Serif" font-size="10.00"> </text>
<polyline fill="none" stroke="#bfbfbf" points="425.518,-361.5 541.518,-361.5 "/>
<text text-anchor="middle" x="483.518" y="-349.5" font-family="Helvetica,sans-Serif" font-size="10.00"> </text>
</g>
<!-- Node21&#45;&gt;Node19 -->
<g id="edge25" class="edge"><title>Node21&#45;&gt;Node19</title>
<path fill="none" stroke="#404040" d="M471.757,-342.392C464.62,-321.222 458.907,-291.855 470.518,-269 475.981,-258.247 485.268,-249.408 495.058,-242.453"/>
<polygon fill="none" stroke="#404040" points="495.199,-242.362 498.091,-235.757 505.301,-235.886 502.409,-242.492 495.199,-242.362"/>
<text text-anchor="middle" x="488.518" y="-294" font-family="Helvetica,sans-Serif" font-size="10.00"> +conns</text>
</g>
<!-- Node22&#45;&gt;Node19 -->
<g id="edge27" class="edge"><title>Node22&#45;&gt;Node19</title>
<path fill="none" stroke="#404040" d="M492.62,-55.6319C499.931,-61.4386 506.648,-68.2289 511.518,-76 522.193,-93.0314 528.069,-144.208 531.005,-180.934"/>
<polygon fill="none" stroke="#404040" points="531.03,-181.276 535.466,-186.961 531.923,-193.243 527.488,-187.557 531.03,-181.276"/>
<text text-anchor="middle" x="552.518" y="-123" font-family="Helvetica,sans-Serif" font-size="10.00"> +settings</text>
</g>
<!-- Node23 -->
<g id="node23" class="node"><title>Node23</title>
<polygon fill="none" stroke="#bfbfbf" points="400.018,-193.5 400.018,-250.5 443.018,-250.5 443.018,-193.5 400.018,-193.5"/>
<text text-anchor="middle" x="421.518" y="-238.5" font-family="Helvetica,sans-Serif" font-size="10.00">size_t</text>
<polyline fill="none" stroke="#bfbfbf" points="400.018,-231.5 443.018,-231.5 "/>
<text text-anchor="middle" x="421.518" y="-219.5" font-family="Helvetica,sans-Serif" font-size="10.00"> </text>
<polyline fill="none" stroke="#bfbfbf" points="400.018,-212.5 443.018,-212.5 "/>
<text text-anchor="middle" x="421.518" y="-200.5" font-family="Helvetica,sans-Serif" font-size="10.00"> </text>
</g>
<!-- Node23&#45;&gt;Node22 -->
<g id="edge28" class="edge"><title>Node23&#45;&gt;Node22</title>
<path fill="none" stroke="#404040" d="M399.67,-203.505C395.054,-199.951 390.171,-196.295 385.518,-193 373.445,-184.45 364.607,-187.985 357.518,-175 336.434,-136.381 334.813,-113.689 357.518,-76 364.133,-65.0204 374.342,-56.5255 385.472,-50.0019"/>
<polygon fill="none" stroke="#404040" points="385.697,-49.8844 389.167,-43.563 396.337,-44.3346 392.867,-50.6561 385.697,-49.8844"/>
<text text-anchor="middle" x="395.518" y="-123" font-family="Helvetica,sans-Serif" font-size="10.00"> +max_data_size</text>
</g>
<!-- Node24 -->
<g id="node24" class="node"><title>Node24</title>
<polygon fill="none" stroke="#bfbfbf" points="601.518,-342.5 601.518,-399.5 641.518,-399.5 641.518,-342.5 601.518,-342.5"/>
<text text-anchor="middle" x="621.518" y="-387.5" font-family="Helvetica,sans-Serif" font-size="10.00">ev_io</text>
<polyline fill="none" stroke="#bfbfbf" points="601.518,-380.5 641.518,-380.5 "/>
<text text-anchor="middle" x="621.518" y="-368.5" font-family="Helvetica,sans-Serif" font-size="10.00"> </text>
<polyline fill="none" stroke="#bfbfbf" points="601.518,-361.5 641.518,-361.5 "/>
<text text-anchor="middle" x="621.518" y="-349.5" font-family="Helvetica,sans-Serif" font-size="10.00"> </text>
</g>
<!-- Node24&#45;&gt;Node19 -->
<g id="edge34" class="edge"><title>Node24&#45;&gt;Node19</title>
<path fill="none" stroke="#404040" d="M620.877,-342.155C619.169,-320.582 614.058,-290.796 599.518,-269 592.543,-258.543 582.314,-249.753 571.983,-242.751"/>
<polygon fill="none" stroke="#404040" points="571.911,-242.706 564.703,-242.92 561.733,-236.349 568.941,-236.135 571.911,-242.706"/>
<text text-anchor="middle" x="641.518" y="-294" font-family="Helvetica,sans-Serif" font-size="10.00"> +watcher</text>
</g>
</g>
</svg>
