<?xml version="1.0" encoding="UTF-8" standalone="no"?>
<!DOCTYPE svg PUBLIC "-//W3C//DTD SVG 1.1//EN"
 "http://www.w3.org/Graphics/SVG/1.1/DTD/svg11.dtd">
<!-- Generated by graphviz version 2.38.0 (20140413.2041)
 -->
<!-- Title: hpd_response Pages: 1 -->
<svg width="974pt" height="751pt"
 viewBox="0.00 0.00 974.00 751.00" xmlns="http://www.w3.org/2000/svg" xmlns:xlink="http://www.w3.org/1999/xlink">
<g id="graph0" class="graph" transform="scale(1 1) rotate(0) translate(4 747)">
<title>hpd_response</title>
<!-- Node1 -->
<g id="node1" class="node"><title>Node1</title>
<polygon fill="#bfbfbf" stroke="black" points="580.5,-0.5 580.5,-57.5 657.5,-57.5 657.5,-0.5 580.5,-0.5"/>
<text text-anchor="middle" x="619" y="-45.5" font-family="Helvetica,sans-Serif" font-size="10.00">hpd_response</text>
<polyline fill="none" stroke="black" points="580.5,-38.5 657.5,-38.5 "/>
<text text-anchor="middle" x="619" y="-26.5" font-family="Helvetica,sans-Serif" font-size="10.00"> </text>
<polyline fill="none" stroke="black" points="580.5,-19.5 657.5,-19.5 "/>
<text text-anchor="middle" x="619" y="-7.5" font-family="Helvetica,sans-Serif" font-size="10.00"> </text>
</g>
<!-- Node2 -->
<g id="node2" class="node"><title>Node2</title>
<g id="a_node2"><a xlink:href="a00024.html#a00110" target="_top" xlink:title="{hpd_value\n||}">
<polygon fill="none" stroke="black" points="582.5,-210.5 582.5,-267.5 643.5,-267.5 643.5,-210.5 582.5,-210.5"/>
<text text-anchor="middle" x="613" y="-255.5" font-family="Helvetica,sans-Serif" font-size="10.00">hpd_value</text>
<polyline fill="none" stroke="black" points="582.5,-248.5 643.5,-248.5 "/>
<text text-anchor="middle" x="613" y="-236.5" font-family="Helvetica,sans-Serif" font-size="10.00"> </text>
<polyline fill="none" stroke="black" points="582.5,-229.5 643.5,-229.5 "/>
<text text-anchor="middle" x="613" y="-217.5" font-family="Helvetica,sans-Serif" font-size="10.00"> </text>
</a>
</g>
</g>
<!-- Node2&#45;&gt;Node1 -->
<g id="edge1" class="edge"><title>Node2&#45;&gt;Node1</title>
<path fill="none" stroke="#404040" d="M582.398,-219.547C563.73,-206.388 541.501,-186.835 531,-163 520.607,-139.41 520.196,-128.404 531,-105 539.5,-86.5867 554.997,-71.0258 570.645,-58.9337"/>
<polygon fill="none" stroke="#404040" points="570.65,-58.9297 573.141,-52.1624 580.346,-51.8585 577.855,-58.6259 570.65,-58.9297"/>
<text text-anchor="middle" x="547.5" y="-131.5" font-family="Helvetica,sans-Serif" font-size="10.00"> +value</text>
</g>
<!-- Node7 -->
<g id="node7" class="node"><title>Node7</title>
<g id="a_node7"><a xlink:href="a00024.html#a00103" target="_top" xlink:title="{hpd_request\n||}">
<polygon fill="none" stroke="black" points="683,-105.5 683,-162.5 753,-162.5 753,-105.5 683,-105.5"/>
<text text-anchor="middle" x="718" y="-150.5" font-family="Helvetica,sans-Serif" font-size="10.00">hpd_request</text>
<polyline fill="none" stroke="black" points="683,-143.5 753,-143.5 "/>
<text text-anchor="middle" x="718" y="-131.5" font-family="Helvetica,sans-Serif" font-size="10.00"> </text>
<polyline fill="none" stroke="black" points="683,-124.5 753,-124.5 "/>
<text text-anchor="middle" x="718" y="-112.5" font-family="Helvetica,sans-Serif" font-size="10.00"> </text>
</a>
</g>
</g>
<!-- Node2&#45;&gt;Node7 -->
<g id="edge7" class="edge"><title>Node2&#45;&gt;Node7</title>
<path fill="none" stroke="#404040" d="M641.138,-210.398C653.379,-198.391 667.889,-184.156 680.987,-171.308"/>
<polygon fill="none" stroke="#404040" points="681.218,-171.082 682.7,-164.024 689.784,-162.678 688.302,-169.735 681.218,-171.082"/>
<text text-anchor="middle" x="685.5" y="-184" font-family="Helvetica,sans-Serif" font-size="10.00"> +value</text>
</g>
<!-- Node3 -->
<g id="node3" class="node"><title>Node3</title>
<polygon fill="none" stroke="#bfbfbf" points="582.5,-315.5 582.5,-372.5 653.5,-372.5 653.5,-315.5 582.5,-315.5"/>
<text text-anchor="middle" x="618" y="-360.5" font-family="Helvetica,sans-Serif" font-size="10.00">hpd_map_t *</text>
<polyline fill="none" stroke="#bfbfbf" points="582.5,-353.5 653.5,-353.5 "/>
<text text-anchor="middle" x="618" y="-341.5" font-family="Helvetica,sans-Serif" font-size="10.00"> </text>
<polyline fill="none" stroke="#bfbfbf" points="582.5,-334.5 653.5,-334.5 "/>
<text text-anchor="middle" x="618" y="-322.5" font-family="Helvetica,sans-Serif" font-size="10.00"> </text>
</g>
<!-- Node3&#45;&gt;Node2 -->
<g id="edge2" class="edge"><title>Node3&#45;&gt;Node2</title>
<path fill="none" stroke="#404040" d="M616.66,-315.398C616.128,-304.43 615.505,-291.603 614.926,-279.672"/>
<polygon fill="none" stroke="#404040" points="614.926,-279.664 610.639,-273.865 614.344,-267.678 618.63,-273.477 614.926,-279.664"/>
<text text-anchor="middle" x="638" y="-289" font-family="Helvetica,sans-Serif" font-size="10.00"> +headers</text>
</g>
<!-- Node4 -->
<g id="node4" class="node"><title>Node4</title>
<polygon fill="none" stroke="#bfbfbf" points="862.5,-536.5 862.5,-593.5 897.5,-593.5 897.5,-536.5 862.5,-536.5"/>
<text text-anchor="middle" x="880" y="-581.5" font-family="Helvetica,sans-Serif" font-size="10.00">char</text>
<polyline fill="none" stroke="#bfbfbf" points="862.5,-574.5 897.5,-574.5 "/>
<text text-anchor="middle" x="880" y="-562.5" font-family="Helvetica,sans-Serif" font-size="10.00"> </text>
<polyline fill="none" stroke="#bfbfbf" points="862.5,-555.5 897.5,-555.5 "/>
<text text-anchor="middle" x="880" y="-543.5" font-family="Helvetica,sans-Serif" font-size="10.00"> </text>
</g>
<!-- Node4&#45;&gt;Node2 -->
<g id="edge3" class="edge"><title>Node4&#45;&gt;Node2</title>
<path fill="none" stroke="#404040" d="M884.959,-536.439C894.677,-478.641 912.958,-347.414 885,-315 818.495,-237.894 753.705,-304.962 655.048,-268.401"/>
<polygon fill="none" stroke="#404040" points="654.927,-268.352 647.864,-269.802 643.808,-263.839 650.872,-262.389 654.927,-268.352"/>
<text text-anchor="middle" x="915.5" y="-399.5" font-family="Helvetica,sans-Serif" font-size="10.00"> +body</text>
</g>
<!-- Node8 -->
<g id="node8" class="node"><title>Node8</title>
<g id="a_node8"><a xlink:href="a00011.html#a00107" target="_top" xlink:title="{hpd_service_id\n||}">
<polygon fill="none" stroke="black" points="881,-210.5 881,-267.5 963,-267.5 963,-210.5 881,-210.5"/>
<text text-anchor="middle" x="922" y="-255.5" font-family="Helvetica,sans-Serif" font-size="10.00">hpd_service_id</text>
<polyline fill="none" stroke="black" points="881,-248.5 963,-248.5 "/>
<text text-anchor="middle" x="922" y="-236.5" font-family="Helvetica,sans-Serif" font-size="10.00"> </text>
<polyline fill="none" stroke="black" points="881,-229.5 963,-229.5 "/>
<text text-anchor="middle" x="922" y="-217.5" font-family="Helvetica,sans-Serif" font-size="10.00"> </text>
</a>
</g>
</g>
<!-- Node4&#45;&gt;Node8 -->
<g id="edge9" class="edge"><title>Node4&#45;&gt;Node8</title>
<path fill="none" stroke="#404040" d="M897.891,-547.161C905.503,-539.043 913.805,-528.746 919,-518 956.499,-440.433 943.163,-335.878 931.652,-279.682"/>
<polygon fill="none" stroke="#404040" points="931.618,-279.525 926.446,-274.501 929.094,-267.794 934.267,-272.818 931.618,-279.525"/>
<text text-anchor="middle" x="955" y="-399.5" font-family="Helvetica,sans-Serif" font-size="10.00"> +sid</text>
</g>
<!-- Node9 -->
<g id="node9" class="node"><title>Node9</title>
<g id="a_node9"><a xlink:href="a00011.html#a00091" target="_top" xlink:title="{hpd_device_id\n||}">
<polygon fill="none" stroke="black" points="797.5,-315.5 797.5,-372.5 876.5,-372.5 876.5,-315.5 797.5,-315.5"/>
<text text-anchor="middle" x="837" y="-360.5" font-family="Helvetica,sans-Serif" font-size="10.00">hpd_device_id</text>
<polyline fill="none" stroke="black" points="797.5,-353.5 876.5,-353.5 "/>
<text text-anchor="middle" x="837" y="-341.5" font-family="Helvetica,sans-Serif" font-size="10.00"> </text>
<polyline fill="none" stroke="black" points="797.5,-334.5 876.5,-334.5 "/>
<text text-anchor="middle" x="837" y="-322.5" font-family="Helvetica,sans-Serif" font-size="10.00"> </text>
</a>
</g>
</g>
<!-- Node4&#45;&gt;Node9 -->
<g id="edge11" class="edge"><title>Node4&#45;&gt;Node9</title>
<path fill="none" stroke="#404040" d="M874.554,-536.263C867.01,-497.84 853.338,-428.211 844.737,-384.405"/>
<polygon fill="none" stroke="#404040" points="844.714,-384.286 839.633,-379.17 842.402,-372.511 847.483,-377.628 844.714,-384.286"/>
<text text-anchor="middle" x="876" y="-457.5" font-family="Helvetica,sans-Serif" font-size="10.00"> +did</text>
</g>
<!-- Node10 -->
<g id="node10" class="node"><title>Node10</title>
<g id="a_node10"><a xlink:href="a00011.html#a00089" target="_top" xlink:title="{hpd_adapter_id\n||}">
<polygon fill="none" stroke="black" points="735.5,-431.5 735.5,-488.5 818.5,-488.5 818.5,-431.5 735.5,-431.5"/>
<text text-anchor="middle" x="777" y="-476.5" font-family="Helvetica,sans-Serif" font-size="10.00">hpd_adapter_id</text>
<polyline fill="none" stroke="black" points="735.5,-469.5 818.5,-469.5 "/>
<text text-anchor="middle" x="777" y="-457.5" font-family="Helvetica,sans-Serif" font-size="10.00"> </text>
<polyline fill="none" stroke="black" points="735.5,-450.5 818.5,-450.5 "/>
<text text-anchor="middle" x="777" y="-438.5" font-family="Helvetica,sans-Serif" font-size="10.00"> </text>
</a>
</g>
</g>
<!-- Node4&#45;&gt;Node10 -->
<g id="edge13" class="edge"><title>Node4&#45;&gt;Node10</title>
<path fill="none" stroke="#404040" d="M862.363,-552.725C849.564,-544.08 832.244,-531.392 819,-518 813.135,-512.069 807.428,-505.277 802.207,-498.498"/>
<polygon fill="none" stroke="#404040" points="802.079,-498.325 795.296,-495.878 794.945,-488.676 801.728,-491.122 802.079,-498.325"/>
<text text-anchor="middle" x="830" y="-510" font-family="Helvetica,sans-Serif" font-size="10.00"> +aid</text>
</g>
<!-- Node5 -->
<g id="node5" class="node"><title>Node5</title>
<polygon fill="none" stroke="#bfbfbf" points="671.5,-315.5 671.5,-372.5 714.5,-372.5 714.5,-315.5 671.5,-315.5"/>
<text text-anchor="middle" x="693" y="-360.5" font-family="Helvetica,sans-Serif" font-size="10.00">size_t</text>
<polyline fill="none" stroke="#bfbfbf" points="671.5,-353.5 714.5,-353.5 "/>
<text text-anchor="middle" x="693" y="-341.5" font-family="Helvetica,sans-Serif" font-size="10.00"> </text>
<polyline fill="none" stroke="#bfbfbf" points="671.5,-334.5 714.5,-334.5 "/>
<text text-anchor="middle" x="693" y="-322.5" font-family="Helvetica,sans-Serif" font-size="10.00"> </text>
</g>
<!-- Node5&#45;&gt;Node2 -->
<g id="edge4" class="edge"><title>Node5&#45;&gt;Node2</title>
<path fill="none" stroke="#404040" d="M681.481,-315.406C676.773,-305.652 670.82,-294.902 664,-286 660.512,-281.448 656.535,-276.983 652.375,-272.732"/>
<polygon fill="none" stroke="#404040" points="652.319,-272.678 645.223,-271.395 643.679,-264.351 650.775,-265.634 652.319,-272.678"/>
<text text-anchor="middle" x="682" y="-289" font-family="Helvetica,sans-Serif" font-size="10.00"> +len</text>
</g>
<!-- Node6 -->
<g id="node6" class="node"><title>Node6</title>
<polygon fill="none" stroke="#bfbfbf" points="573,-105.5 573,-162.5 665,-162.5 665,-105.5 573,-105.5"/>
<text text-anchor="middle" x="619" y="-150.5" font-family="Helvetica,sans-Serif" font-size="10.00">enum hpd_status</text>
<polyline fill="none" stroke="#bfbfbf" points="573,-143.5 665,-143.5 "/>
<text text-anchor="middle" x="619" y="-131.5" font-family="Helvetica,sans-Serif" font-size="10.00"> </text>
<polyline fill="none" stroke="#bfbfbf" points="573,-124.5 665,-124.5 "/>
<text text-anchor="middle" x="619" y="-112.5" font-family="Helvetica,sans-Serif" font-size="10.00"> </text>
</g>
<!-- Node6&#45;&gt;Node1 -->
<g id="edge5" class="edge"><title>Node6&#45;&gt;Node1</title>
<path fill="none" stroke="#404040" d="M619,-105.398C619,-94.5451 619,-81.8731 619,-70.0493"/>
<polygon fill="none" stroke="#404040" points="619,-69.6783 615,-63.6783 619,-57.6783 623,-63.6783 619,-69.6783"/>
<text text-anchor="middle" x="637.5" y="-79" font-family="Helvetica,sans-Serif" font-size="10.00"> +status</text>
</g>
<!-- Node7&#45;&gt;Node1 -->
<g id="edge6" class="edge"><title>Node7&#45;&gt;Node1</title>
<path fill="none" stroke="#404040" d="M691.47,-105.398C680.04,-93.5061 666.51,-79.4299 654.254,-66.6787"/>
<polygon fill="none" stroke="#404040" points="653.919,-66.3299 646.877,-64.776 645.603,-57.6783 652.645,-59.2322 653.919,-66.3299"/>
<text text-anchor="middle" x="693" y="-79" font-family="Helvetica,sans-Serif" font-size="10.00"> +request</text>
</g>
<!-- Node8&#45;&gt;Node7 -->
<g id="edge8" class="edge"><title>Node8&#45;&gt;Node7</title>
<path fill="none" stroke="#404040" d="M880.718,-217.156C846.89,-200.077 799.054,-175.924 764.002,-158.227"/>
<polygon fill="none" stroke="#404040" points="763.817,-158.133 756.658,-159 753.105,-152.725 760.264,-151.858 763.817,-158.133"/>
<text text-anchor="middle" x="847.5" y="-184" font-family="Helvetica,sans-Serif" font-size="10.00"> +service</text>
</g>
<!-- Node9&#45;&gt;Node8 -->
<g id="edge10" class="edge"><title>Node9&#45;&gt;Node8</title>
<path fill="none" stroke="#404040" d="M859.778,-315.398C869.497,-303.622 880.983,-289.703 891.424,-277.05"/>
<polygon fill="none" stroke="#404040" points="891.521,-276.934 892.255,-269.76 899.159,-267.678 898.425,-274.852 891.521,-276.934"/>
<text text-anchor="middle" x="902" y="-289" font-family="Helvetica,sans-Serif" font-size="10.00"> +device</text>
</g>
<!-- Node10&#45;&gt;Node9 -->
<g id="edge12" class="edge"><title>Node10&#45;&gt;Node9</title>
<path fill="none" stroke="#404040" d="M783.425,-431.224C787.002,-418.504 792.138,-403.511 799,-391 800.557,-388.16 802.301,-385.328 804.163,-382.544"/>
<polygon fill="none" stroke="#404040" points="804.234,-382.447 804.531,-375.242 811.296,-372.745 810.999,-379.95 804.234,-382.447"/>
<text text-anchor="middle" x="820" y="-399.5" font-family="Helvetica,sans-Serif" font-size="10.00"> +adapter</text>
</g>
<!-- Node11 -->
<g id="node11" class="node"><title>Node11</title>
<g id="a_node11"><a xlink:href="a00009.html#a00087" target="_top" xlink:title="{hpd\n||}">
<polygon fill="none" stroke="black" points="332,-536.5 332,-593.5 364,-593.5 364,-536.5 332,-536.5"/>
<text text-anchor="middle" x="348" y="-581.5" font-family="Helvetica,sans-Serif" font-size="10.00">hpd</text>
<polyline fill="none" stroke="black" points="332,-574.5 364,-574.5 "/>
<text text-anchor="middle" x="348" y="-562.5" font-family="Helvetica,sans-Serif" font-size="10.00"> </text>
<polyline fill="none" stroke="black" points="332,-555.5 364,-555.5 "/>
<text text-anchor="middle" x="348" y="-543.5" font-family="Helvetica,sans-Serif" font-size="10.00"> </text>
</a>
</g>
</g>
<!-- Node11&#45;&gt;Node10 -->
<g id="edge14" class="edge"><title>Node11&#45;&gt;Node10</title>
<path fill="none" stroke="#404040" d="M364.084,-560.822C393.711,-554.668 458.582,-539.784 510,-518 518.985,-514.194 519.848,-510.383 529,-507 593.506,-483.154 672.202,-471.253 723.401,-465.617"/>
<polygon fill="none" stroke="#404040" points="723.547,-465.601 729.096,-460.996 735.481,-464.347 729.932,-468.952 723.547,-465.601"/>
<text text-anchor="middle" x="541.5" y="-510" font-family="Helvetica,sans-Serif" font-size="10.00"> +hpd</text>
</g>
<!-- Node14 -->
<g id="node14" class="node"><title>Node14</title>
<g id="a_node14"><a xlink:href="a00005.html#a00083" target="_top" xlink:title="{configuration\n||}">
<polygon fill="none" stroke="black" points="141,-431.5 141,-488.5 213,-488.5 213,-431.5 141,-431.5"/>
<text text-anchor="middle" x="177" y="-476.5" font-family="Helvetica,sans-Serif" font-size="10.00">configuration</text>
<polyline fill="none" stroke="black" points="141,-469.5 213,-469.5 "/>
<text text-anchor="middle" x="177" y="-457.5" font-family="Helvetica,sans-Serif" font-size="10.00"> </text>
<polyline fill="none" stroke="black" points="141,-450.5 213,-450.5 "/>
<text text-anchor="middle" x="177" y="-438.5" font-family="Helvetica,sans-Serif" font-size="10.00"> </text>
</a>
</g>
</g>
<!-- Node11&#45;&gt;Node14 -->
<g id="edge19" class="edge"><title>Node11&#45;&gt;Node14</title>
<path fill="none" stroke="#404040" d="M331.935,-548.904C318.3,-536.602 297.842,-519.313 278,-507 261.213,-496.583 241.669,-487.131 224.271,-479.542"/>
<polygon fill="none" stroke="#404040" points="224.241,-479.529 217.154,-480.862 213.199,-474.832 220.286,-473.5 224.241,-479.529"/>
<text text-anchor="middle" x="305.5" y="-510" font-family="Helvetica,sans-Serif" font-size="10.00"> +hpd</text>
</g>
<!-- Node21 -->
<g id="node21" class="node"><title>Node21</title>
<g id="a_node21"><a xlink:href="a00020.html" target="_top" xlink:title="{hpd_module\n||+ TAILQ_ENTRY()\l}">
<polygon fill="none" stroke="black" points="442,-431.5 442,-488.5 542,-488.5 542,-431.5 442,-431.5"/>
<text text-anchor="middle" x="492" y="-476.5" font-family="Helvetica,sans-Serif" font-size="10.00">hpd_module</text>
<polyline fill="none" stroke="black" points="442,-469.5 542,-469.5 "/>
<text text-anchor="middle" x="492" y="-457.5" font-family="Helvetica,sans-Serif" font-size="10.00"> </text>
<polyline fill="none" stroke="black" points="442,-450.5 542,-450.5 "/>
<text text-anchor="start" x="450" y="-438.5" font-family="Helvetica,sans-Serif" font-size="10.00">+ TAILQ_ENTRY()</text>
</a>
</g>
</g>
<!-- Node11&#45;&gt;Node21 -->
<g id="edge28" class="edge"><title>Node11&#45;&gt;Node21</title>
<path fill="none" stroke="#404040" d="M355.165,-536.379C359.014,-526.051 364.723,-514.917 373,-507 388.722,-491.962 409.898,-481.692 430.028,-474.745"/>
<polygon fill="none" stroke="#404040" points="430.275,-474.666 434.779,-469.035 441.71,-471.027 437.205,-476.659 430.275,-474.666"/>
<text text-anchor="middle" x="385.5" y="-510" font-family="Helvetica,sans-Serif" font-size="10.00"> +hpd</text>
</g>
<!-- Node12 -->
<g id="node12" class="node"><title>Node12</title>
<polygon fill="none" stroke="#bfbfbf" points="0,-685.5 0,-742.5 82,-742.5 82,-685.5 0,-685.5"/>
<text text-anchor="middle" x="41" y="-730.5" font-family="Helvetica,sans-Serif" font-size="10.00">argp_option_t *</text>
<polyline fill="none" stroke="#bfbfbf" points="0,-723.5 82,-723.5 "/>
<text text-anchor="middle" x="41" y="-711.5" font-family="Helvetica,sans-Serif" font-size="10.00"> </text>
<polyline fill="none" stroke="#bfbfbf" points="0,-704.5 82,-704.5 "/>
<text text-anchor="middle" x="41" y="-692.5" font-family="Helvetica,sans-Serif" font-size="10.00"> </text>
</g>
<!-- Node12&#45;&gt;Node11 -->
<g id="edge15" class="edge"><title>Node12&#45;&gt;Node11</title>
<path fill="none" stroke="#404040" d="M44.9624,-685.414C49.813,-662.174 60.378,-629.929 83,-612 121.48,-581.502 143.612,-602.337 192,-594 236.607,-586.314 288.3,-576.944 319.555,-571.228"/>
<polygon fill="none" stroke="#404040" points="319.814,-571.181 324.995,-566.165 331.618,-569.018 326.437,-574.034 319.814,-571.181"/>
<text text-anchor="middle" x="103.5" y="-637" font-family="Helvetica,sans-Serif" font-size="10.00"> +options</text>
</g>
<!-- Node13 -->
<g id="node13" class="node"><title>Node13</title>
<polygon fill="none" stroke="#bfbfbf" points="412.5,-685.5 412.5,-742.5 493.5,-742.5 493.5,-685.5 412.5,-685.5"/>
<text text-anchor="middle" x="453" y="-730.5" font-family="Helvetica,sans-Serif" font-size="10.00">struct modules</text>
<polyline fill="none" stroke="#bfbfbf" points="412.5,-723.5 493.5,-723.5 "/>
<text text-anchor="middle" x="453" y="-711.5" font-family="Helvetica,sans-Serif" font-size="10.00"> </text>
<polyline fill="none" stroke="#bfbfbf" points="412.5,-704.5 493.5,-704.5 "/>
<text text-anchor="middle" x="453" y="-692.5" font-family="Helvetica,sans-Serif" font-size="10.00"> </text>
</g>
<!-- Node13&#45;&gt;Node11 -->
<g id="edge16" class="edge"><title>Node13&#45;&gt;Node11</title>
<path fill="none" stroke="#404040" d="M434.312,-685.334C420.395,-664.905 400.805,-636.51 383,-612 379.334,-606.954 375.385,-601.646 371.507,-596.501"/>
<polygon fill="none" stroke="#404040" points="371.487,-596.476 364.673,-594.118 364.228,-586.921 371.043,-589.279 371.487,-596.476"/>
<text text-anchor="middle" x="445" y="-637" font-family="Helvetica,sans-Serif" font-size="10.00"> +modules</text>
</g>
<!-- Node14&#45;&gt;Node11 -->
<g id="edge17" class="edge"><title>Node14&#45;&gt;Node11</title>
<path fill="none" stroke="#404040" d="M189.398,-488.568C195.266,-499.013 203.168,-510.243 213,-518 244.524,-542.87 290.281,-554.69 319.589,-560.014"/>
<polygon fill="none" stroke="#404040" points="319.947,-560.073 326.519,-557.103 331.787,-562.026 325.216,-564.996 319.947,-560.073"/>
<text text-anchor="middle" x="245.5" y="-510" font-family="Helvetica,sans-Serif" font-size="10.00"> +configuration</text>
</g>
<!-- Node15 -->
<g id="node15" class="node"><title>Node15</title>
<polygon fill="none" stroke="#bfbfbf" points="101,-536.5 101,-593.5 183,-593.5 183,-536.5 101,-536.5"/>
<text text-anchor="middle" x="142" y="-581.5" font-family="Helvetica,sans-Serif" font-size="10.00">struct adapters</text>
<polyline fill="none" stroke="#bfbfbf" points="101,-574.5 183,-574.5 "/>
<text text-anchor="middle" x="142" y="-562.5" font-family="Helvetica,sans-Serif" font-size="10.00"> </text>
<polyline fill="none" stroke="#bfbfbf" points="101,-555.5 183,-555.5 "/>
<text text-anchor="middle" x="142" y="-543.5" font-family="Helvetica,sans-Serif" font-size="10.00"> </text>
</g>
<!-- Node15&#45;&gt;Node14 -->
<g id="edge18" class="edge"><title>Node15&#45;&gt;Node14</title>
<path fill="none" stroke="#404040" d="M139.116,-536.45C138.99,-526.906 139.852,-516.279 143,-507 143.915,-504.302 145.052,-501.631 146.35,-499.015"/>
<polygon fill="none" stroke="#404040" points="146.363,-498.993 145.947,-491.794 152.432,-488.641 152.848,-495.84 146.363,-498.993"/>
<text text-anchor="middle" x="166.5" y="-510" font-family="Helvetica,sans-Serif" font-size="10.00"> +adapters</text>
</g>
<!-- Node16 -->
<g id="node16" class="node"><title>Node16</title>
<polygon fill="none" stroke="#bfbfbf" points="1.5,-536.5 1.5,-593.5 82.5,-593.5 82.5,-536.5 1.5,-536.5"/>
<text text-anchor="middle" x="42" y="-581.5" font-family="Helvetica,sans-Serif" font-size="10.00">struct listeners</text>
<polyline fill="none" stroke="#bfbfbf" points="1.5,-574.5 82.5,-574.5 "/>
<text text-anchor="middle" x="42" y="-562.5" font-family="Helvetica,sans-Serif" font-size="10.00"> </text>
<polyline fill="none" stroke="#bfbfbf" points="1.5,-555.5 82.5,-555.5 "/>
<text text-anchor="middle" x="42" y="-543.5" font-family="Helvetica,sans-Serif" font-size="10.00"> </text>
</g>
<!-- Node16&#45;&gt;Node14 -->
<g id="edge20" class="edge"><title>Node16&#45;&gt;Node14</title>
<path fill="none" stroke="#404040" d="M62.3502,-536.268C70.5341,-526.279 80.5143,-515.409 91,-507 102.764,-497.565 116.752,-489.128 129.992,-482.135"/>
<polygon fill="none" stroke="#404040" points="130.173,-482.044 133.712,-475.761 140.873,-476.611 137.334,-482.894 130.173,-482.044"/>
<text text-anchor="middle" x="114" y="-510" font-family="Helvetica,sans-Serif" font-size="10.00"> +listeners</text>
</g>
<!-- Node17 -->
<g id="node17" class="node"><title>Node17</title>
<polygon fill="none" stroke="#bfbfbf" points="308,-685.5 308,-742.5 394,-742.5 394,-685.5 308,-685.5"/>
<text text-anchor="middle" x="351" y="-730.5" font-family="Helvetica,sans-Serif" font-size="10.00">hpd_ev_loop_t *</text>
<polyline fill="none" stroke="#bfbfbf" points="308,-723.5 394,-723.5 "/>
<text text-anchor="middle" x="351" y="-711.5" font-family="Helvetica,sans-Serif" font-size="10.00"> </text>
<polyline fill="none" stroke="#bfbfbf" points="308,-704.5 394,-704.5 "/>
<text text-anchor="middle" x="351" y="-692.5" font-family="Helvetica,sans-Serif" font-size="10.00"> </text>
</g>
<!-- Node17&#45;&gt;Node11 -->
<g id="edge21" class="edge"><title>Node17&#45;&gt;Node11</title>
<path fill="none" stroke="#404040" d="M350.436,-685.35C349.977,-662.868 349.324,-630.855 348.809,-605.643"/>
<polygon fill="none" stroke="#404040" points="348.807,-605.523 344.685,-599.606 348.562,-593.526 352.683,-599.443 348.807,-605.523"/>
<text text-anchor="middle" x="365" y="-637" font-family="Helvetica,sans-Serif" font-size="10.00"> +loop</text>
</g>
<!-- Node18 -->
<g id="node18" class="node"><title>Node18</title>
<polygon fill="none" stroke="#bfbfbf" points="511.5,-685.5 511.5,-742.5 540.5,-742.5 540.5,-685.5 511.5,-685.5"/>
<text text-anchor="middle" x="526" y="-730.5" font-family="Helvetica,sans-Serif" font-size="10.00">int</text>
<polyline fill="none" stroke="#bfbfbf" points="511.5,-723.5 540.5,-723.5 "/>
<text text-anchor="middle" x="526" y="-711.5" font-family="Helvetica,sans-Serif" font-size="10.00"> </text>
<polyline fill="none" stroke="#bfbfbf" points="511.5,-704.5 540.5,-704.5 "/>
<text text-anchor="middle" x="526" y="-692.5" font-family="Helvetica,sans-Serif" font-size="10.00"> </text>
</g>
<!-- Node18&#45;&gt;Node11 -->
<g id="edge22" class="edge"><title>Node18&#45;&gt;Node11</title>
<path fill="none" stroke="#404040" d="M517.45,-685.478C509.149,-662.916 494.472,-631.611 472,-612 444.52,-588.019 403.402,-576.087 376.15,-570.485"/>
<polygon fill="none" stroke="#404040" points="376.15,-570.485 369.516,-573.313 364.355,-568.277 370.988,-565.449 376.15,-570.485"/>
<text text-anchor="middle" x="544" y="-637" font-family="Helvetica,sans-Serif" font-size="10.00"> +options_count</text>
</g>
<!-- Node19 -->
<g id="node19" class="node"><title>Node19</title>
<polygon fill="none" stroke="#bfbfbf" points="100,-685.5 100,-742.5 158,-742.5 158,-685.5 100,-685.5"/>
<text text-anchor="middle" x="129" y="-730.5" font-family="Helvetica,sans-Serif" font-size="10.00">ev_signal</text>
<polyline fill="none" stroke="#bfbfbf" points="100,-723.5 158,-723.5 "/>
<text text-anchor="middle" x="129" y="-711.5" font-family="Helvetica,sans-Serif" font-size="10.00"> </text>
<polyline fill="none" stroke="#bfbfbf" points="100,-704.5 158,-704.5 "/>
<text text-anchor="middle" x="129" y="-692.5" font-family="Helvetica,sans-Serif" font-size="10.00"> </text>
</g>
<!-- Node19&#45;&gt;Node11 -->
<g id="edge23" class="edge"><title>Node19&#45;&gt;Node11</title>
<path fill="none" stroke="#404040" d="M126.851,-685.296C126.683,-662.623 130.343,-631.257 149,-612 160.913,-599.703 268.113,-579.779 320.046,-570.735"/>
<polygon fill="none" stroke="#404040" points="320.141,-570.719 325.375,-565.758 331.967,-568.681 326.733,-573.642 320.141,-570.719"/>
<text text-anchor="middle" x="190" y="-642.5" font-family="Helvetica,sans-Serif" font-size="10.00"> +sigterm_watcher</text>
<text text-anchor="middle" x="190" y="-631.5" font-family="Helvetica,sans-Serif" font-size="10.00">+sigint_watcher</text>
</g>
<!-- Node20 -->
<g id="node20" class="node"><title>Node20</title>
<polygon fill="none" stroke="#bfbfbf" points="176.5,-685.5 176.5,-742.5 289.5,-742.5 289.5,-685.5 176.5,-685.5"/>
<text text-anchor="middle" x="233" y="-730.5" font-family="Helvetica,sans-Serif" font-size="10.00">struct hpd_ev_asyncs</text>
<polyline fill="none" stroke="#bfbfbf" points="176.5,-723.5 289.5,-723.5 "/>
<text text-anchor="middle" x="233" y="-711.5" font-family="Helvetica,sans-Serif" font-size="10.00"> </text>
<polyline fill="none" stroke="#bfbfbf" points="176.5,-704.5 289.5,-704.5 "/>
<text text-anchor="middle" x="233" y="-692.5" font-family="Helvetica,sans-Serif" font-size="10.00"> </text>
</g>
<!-- Node20&#45;&gt;Node11 -->
<g id="edge24" class="edge"><title>Node20&#45;&gt;Node11</title>
<path fill="none" stroke="#404040" d="M232.378,-685.417C233.263,-663.42 237.741,-632.934 254,-612 270.396,-590.889 298.994,-578.85 320.352,-572.428"/>
<polygon fill="none" stroke="#404040" points="320.367,-572.424 325.104,-566.988 331.945,-569.27 327.207,-574.707 320.367,-572.424"/>
<text text-anchor="middle" x="299.5" y="-659" font-family="Helvetica,sans-Serif" font-size="10.00"> +respond_watchers</text>
<text text-anchor="middle" x="299.5" y="-648" font-family="Helvetica,sans-Serif" font-size="10.00">+request_watchers</text>
<text text-anchor="middle" x="299.5" y="-637" font-family="Helvetica,sans-Serif" font-size="10.00">+changed_watchers</text>
<text text-anchor="middle" x="299.5" y="-626" font-family="Helvetica,sans-Serif" font-size="10.00">+attached_watchers</text>
<text text-anchor="middle" x="299.5" y="-615" font-family="Helvetica,sans-Serif" font-size="10.00">+detached_watchers</text>
</g>
<!-- Node21&#45;&gt;Node11 -->
<g id="edge25" class="edge"><title>Node21&#45;&gt;Node11</title>
<path fill="none" stroke="#404040" d="M443.155,-488.509C433.633,-494.335 423.861,-500.651 415,-507 400.601,-517.317 385.495,-529.987 373.279,-540.759"/>
<polygon fill="none" stroke="#404040" points="373.113,-540.908 371.309,-547.89 364.171,-548.91 365.974,-541.928 373.113,-540.908"/>
<text text-anchor="middle" x="451.5" y="-510" font-family="Helvetica,sans-Serif" font-size="10.00"> +option2module</text>
</g>
<!-- Node22 -->
<g id="node22" class="node"><title>Node22</title>
<g id="a_node22"><a xlink:href="a00021.html#a00100" target="_top" xlink:title="[Application API Callbacks] ">
<polygon fill="none" stroke="black" points="531,-536.5 531,-593.5 619,-593.5 619,-536.5 531,-536.5"/>
<text text-anchor="middle" x="575" y="-581.5" font-family="Helvetica,sans-Serif" font-size="10.00">hpd_module_def</text>
<polyline fill="none" stroke="black" points="531,-574.5 619,-574.5 "/>
<text text-anchor="middle" x="575" y="-562.5" font-family="Helvetica,sans-Serif" font-size="10.00"> </text>
<polyline fill="none" stroke="black" points="531,-555.5 619,-555.5 "/>
<text text-anchor="middle" x="575" y="-543.5" font-family="Helvetica,sans-Serif" font-size="10.00"> </text>
</a>
</g>
</g>
<!-- Node22&#45;&gt;Node21 -->
<g id="edge26" class="edge"><title>Node22&#45;&gt;Node21</title>
<path fill="none" stroke="#404040" d="M570.719,-536.493C568.201,-526.53 564.232,-515.62 558,-507 555.392,-503.392 552.41,-499.97 549.187,-496.742"/>
<polygon fill="none" stroke="#404040" points="549.117,-496.679 541.98,-495.646 540.189,-488.661 547.326,-489.694 549.117,-496.679"/>
<text text-anchor="middle" x="575.5" y="-510" font-family="Helvetica,sans-Serif" font-size="10.00"> +def</text>
</g>
<!-- Node23 -->
<g id="node23" class="node"><title>Node23</title>
<polygon fill="none" stroke="#bfbfbf" points="622,-685.5 622,-742.5 706,-742.5 706,-685.5 622,-685.5"/>
<text text-anchor="middle" x="664" y="-730.5" font-family="Helvetica,sans-Serif" font-size="10.00">enum hpd_error</text>
<polyline fill="none" stroke="#bfbfbf" points="622,-723.5 706,-723.5 "/>
<text text-anchor="middle" x="664" y="-711.5" font-family="Helvetica,sans-Serif" font-size="10.00"> </text>
<polyline fill="none" stroke="#bfbfbf" points="622,-704.5 706,-704.5 "/>
<text text-anchor="middle" x="664" y="-692.5" font-family="Helvetica,sans-Serif" font-size="10.00"> </text>
</g>
<!-- Node23&#45;&gt;Node7 -->
<g id="edge32" class="edge"><title>Node23&#45;&gt;Node7</title>
<path fill="none" stroke="#404040" d="M684.776,-685.492C688.166,-679.665 691.166,-673.349 693,-667 709.177,-611.007 706.686,-590.858 687,-536 657.14,-452.791 599.56,-457.32 573,-373 551.235,-303.903 534.052,-271.084 573,-210 597.695,-171.27 626.125,-184.422 671.725,-163.56"/>
<polygon fill="none" stroke="#404040" points="671.985,-163.429 675.541,-157.155 682.7,-158.025 679.144,-164.298 671.985,-163.429"/>
<text text-anchor="middle" x="623" y="-405" font-family="Helvetica,sans-Serif" font-size="10.00"> +on_free</text>
<text text-anchor="middle" x="623" y="-394" font-family="Helvetica,sans-Serif" font-size="10.00">+on_response</text>
</g>
<!-- Node23&#45;&gt;Node22 -->
<g id="edge27" class="edge"><title>Node23&#45;&gt;Node22</title>
<path fill="none" stroke="#404040" d="M641.023,-685.412C636.489,-679.49 631.925,-673.157 628,-667 613.256,-643.869 612.772,-636.275 600,-612 598.679,-609.489 597.308,-606.906 595.919,-604.306"/>
<polygon fill="none" stroke="#404040" points="595.879,-604.232 589.513,-600.845 590.192,-593.666 596.558,-597.053 595.879,-604.232"/>
<text text-anchor="middle" x="660.5" y="-659" font-family="Helvetica,sans-Serif" font-size="10.00"> +on_create</text>
<text text-anchor="middle" x="660.5" y="-648" font-family="Helvetica,sans-Serif" font-size="10.00">+on_stop</text>
<text text-anchor="middle" x="660.5" y="-637" font-family="Helvetica,sans-Serif" font-size="10.00">+on_destroy</text>
<text text-anchor="middle" x="660.5" y="-626" font-family="Helvetica,sans-Serif" font-size="10.00">+on_start</text>
<text text-anchor="middle" x="660.5" y="-615" font-family="Helvetica,sans-Serif" font-size="10.00">+on_parse_opt</text>
</g>
<!-- Node24 -->
<g id="node24" class="node"><title>Node24</title>
<polygon fill="none" stroke="#bfbfbf" points="637.5,-536.5 637.5,-593.5 678.5,-593.5 678.5,-536.5 637.5,-536.5"/>
<text text-anchor="middle" x="658" y="-581.5" font-family="Helvetica,sans-Serif" font-size="10.00">void *</text>
<polyline fill="none" stroke="#bfbfbf" points="637.5,-574.5 678.5,-574.5 "/>
<text text-anchor="middle" x="658" y="-562.5" font-family="Helvetica,sans-Serif" font-size="10.00"> </text>
<polyline fill="none" stroke="#bfbfbf" points="637.5,-555.5 678.5,-555.5 "/>
<text text-anchor="middle" x="658" y="-543.5" font-family="Helvetica,sans-Serif" font-size="10.00"> </text>
</g>
<!-- Node24&#45;&gt;Node7 -->
<g id="edge33" class="edge"><title>Node24&#45;&gt;Node7</title>
<path fill="none" stroke="#404040" d="M671.962,-536.358C697.003,-485.061 748.643,-370.973 767,-268 773.802,-229.843 778.824,-215.417 761,-181 759.421,-177.951 757.582,-174.958 755.571,-172.053"/>
<polygon fill="none" stroke="#404040" points="755.56,-172.038 748.72,-169.754 748.198,-162.562 755.038,-164.846 755.56,-172.038"/>
<text text-anchor="middle" x="771" y="-341.5" font-family="Helvetica,sans-Serif" font-size="10.00"> +data</text>
</g>
<!-- Node24&#45;&gt;Node21 -->
<g id="edge29" class="edge"><title>Node24&#45;&gt;Node21</title>
<path fill="none" stroke="#404040" d="M637.229,-544.183C634.172,-541.393 631.031,-538.594 628,-536 612.126,-522.415 608.814,-517.919 591,-507 579.127,-499.723 565.914,-492.834 553.109,-486.709"/>
<polygon fill="none" stroke="#404040" points="552.88,-486.603 545.752,-487.694 542.004,-481.533 549.132,-480.442 552.88,-486.603"/>
<text text-anchor="middle" x="621" y="-510" font-family="Helvetica,sans-Serif" font-size="10.00"> +data</text>
</g>
<!-- Node25 -->
<g id="node25" class="node"><title>Node25</title>
<polygon fill="none" stroke="#bfbfbf" points="471,-536.5 471,-593.5 513,-593.5 513,-536.5 471,-536.5"/>
<text text-anchor="middle" x="492" y="-581.5" font-family="Helvetica,sans-Serif" font-size="10.00">char *</text>
<polyline fill="none" stroke="#bfbfbf" points="471,-574.5 513,-574.5 "/>
<text text-anchor="middle" x="492" y="-562.5" font-family="Helvetica,sans-Serif" font-size="10.00"> </text>
<polyline fill="none" stroke="#bfbfbf" points="471,-555.5 513,-555.5 "/>
<text text-anchor="middle" x="492" y="-543.5" font-family="Helvetica,sans-Serif" font-size="10.00"> </text>
</g>
<!-- Node25&#45;&gt;Node21 -->
<g id="edge30" class="edge"><title>Node25&#45;&gt;Node21</title>
<path fill="none" stroke="#404040" d="M492,-536.398C492,-525.545 492,-512.873 492,-501.049"/>
<polygon fill="none" stroke="#404040" points="492,-500.678 488,-494.678 492,-488.678 496,-494.678 492,-500.678"/>
<text text-anchor="middle" x="500.5" y="-510" font-family="Helvetica,sans-Serif" font-size="10.00"> +id</text>
</g>
<!-- Node26 -->
<g id="node26" class="node"><title>Node26</title>
<polygon fill="none" stroke="#bfbfbf" points="661.5,-210.5 661.5,-267.5 758.5,-267.5 758.5,-210.5 661.5,-210.5"/>
<text text-anchor="middle" x="710" y="-255.5" font-family="Helvetica,sans-Serif" font-size="10.00">enum hpd_method</text>
<polyline fill="none" stroke="#bfbfbf" points="661.5,-248.5 758.5,-248.5 "/>
<text text-anchor="middle" x="710" y="-236.5" font-family="Helvetica,sans-Serif" font-size="10.00"> </text>
<polyline fill="none" stroke="#bfbfbf" points="661.5,-229.5 758.5,-229.5 "/>
<text text-anchor="middle" x="710" y="-217.5" font-family="Helvetica,sans-Serif" font-size="10.00"> </text>
</g>
<!-- Node26&#45;&gt;Node7 -->
<g id="edge31" class="edge"><title>Node26&#45;&gt;Node7</title>
<path fill="none" stroke="#404040" d="M712.144,-210.398C712.996,-199.43 713.992,-186.603 714.919,-174.672"/>
<polygon fill="none" stroke="#404040" points="714.921,-174.642 711.398,-168.351 715.85,-162.678 719.374,-168.97 714.921,-174.642"/>
<text text-anchor="middle" x="736" y="-184" font-family="Helvetica,sans-Serif" font-size="10.00"> +method</text>
</g>
</g>
</svg>
