<?xml version="1.0" encoding="UTF-8" standalone="no"?>
<!DOCTYPE svg PUBLIC "-//W3C//DTD SVG 1.1//EN"
 "http://www.w3.org/Graphics/SVG/1.1/DTD/svg11.dtd">
<!-- Generated by graphviz version 2.38.0 (20140413.2041)
 -->
<!-- Title: common/httpd/src/httpd.c Pages: 1 -->
<svg width="587pt" height="308pt"
 viewBox="0.00 0.00 587.00 308.00" xmlns="http://www.w3.org/2000/svg" xmlns:xlink="http://www.w3.org/1999/xlink">
<g id="graph0" class="graph" transform="scale(1 1) rotate(0) translate(4 304)">
<title>common/httpd/src/httpd.c</title>
<!-- Node1 -->
<g id="node1" class="node"><title>Node1</title>
<polygon fill="#bfbfbf" stroke="black" points="307.5,-280.5 307.5,-299.5 435.5,-299.5 435.5,-280.5 307.5,-280.5"/>
<text text-anchor="middle" x="371.5" y="-287.5" font-family="Helvetica,sans-Serif" font-size="10.00">common/httpd/src/httpd.c</text>
</g>
<!-- Node2 -->
<g id="node2" class="node"><title>Node2</title>
<g id="a_node2"><a xlink:href="a00018.html" target="_top" xlink:title="httpd.h">
<polygon fill="none" stroke="black" points="258,-168.5 258,-187.5 305,-187.5 305,-168.5 258,-168.5"/>
<text text-anchor="middle" x="281.5" y="-175.5" font-family="Helvetica,sans-Serif" font-size="10.00">httpd.h</text>
</a>
</g>
</g>
<!-- Node1&#45;&gt;Node2 -->
<g id="edge1" class="edge"><title>Node1&#45;&gt;Node2</title>
<path fill="none" stroke="midnightblue" d="M308.253,-280.489C286.267,-274.156 263.803,-263.14 250.5,-244 239.764,-228.552 252.358,-208.808 264.566,-195.155"/>
<polygon fill="midnightblue" stroke="midnightblue" points="267.131,-197.537 271.53,-187.899 262.08,-192.69 267.131,-197.537"/>
</g>
<!-- Node11 -->
<g id="node11" class="node"><title>Node11</title>
<g id="a_node11"><a xlink:href="a00029.html" target="_top" xlink:title="tcpd.h">
<polygon fill="none" stroke="black" points="349.5,-112.5 349.5,-131.5 393.5,-131.5 393.5,-112.5 349.5,-112.5"/>
<text text-anchor="middle" x="371.5" y="-119.5" font-family="Helvetica,sans-Serif" font-size="10.00">tcpd.h</text>
</a>
</g>
</g>
<!-- Node1&#45;&gt;Node11 -->
<g id="edge13" class="edge"><title>Node1&#45;&gt;Node11</title>
<path fill="none" stroke="midnightblue" d="M371.5,-280.075C371.5,-253.945 371.5,-177.211 371.5,-141.577"/>
<polygon fill="midnightblue" stroke="midnightblue" points="375,-141.568 371.5,-131.568 368,-141.568 375,-141.568"/>
</g>
<!-- Node12 -->
<g id="node12" class="node"><title>Node12</title>
<g id="a_node12"><a xlink:href="a00040.html" target="_top" xlink:title="httpd_request.h">
<polygon fill="none" stroke="black" points="259.5,-224.5 259.5,-243.5 343.5,-243.5 343.5,-224.5 259.5,-224.5"/>
<text text-anchor="middle" x="301.5" y="-231.5" font-family="Helvetica,sans-Serif" font-size="10.00">httpd_request.h</text>
</a>
</g>
</g>
<!-- Node1&#45;&gt;Node12 -->
<g id="edge18" class="edge"><title>Node1&#45;&gt;Node12</title>
<path fill="none" stroke="midnightblue" d="M360.253,-280.324C349.703,-272.185 333.699,-259.839 321.058,-250.087"/>
<polygon fill="midnightblue" stroke="midnightblue" points="323.007,-247.171 312.951,-243.834 318.731,-252.713 323.007,-247.171"/>
</g>
<!-- Node13 -->
<g id="node13" class="node"><title>Node13</title>
<g id="a_node13"><a xlink:href="a00060.html" target="_top" xlink:title="hpd_shared_api.h">
<polygon fill="none" stroke="black" points="162,-112.5 162,-131.5 255,-131.5 255,-112.5 162,-112.5"/>
<text text-anchor="middle" x="208.5" y="-119.5" font-family="Helvetica,sans-Serif" font-size="10.00">hpd_shared_api.h</text>
</a>
</g>
</g>
<!-- Node1&#45;&gt;Node13 -->
<g id="edge22" class="edge"><title>Node1&#45;&gt;Node13</title>
<path fill="none" stroke="midnightblue" d="M311.253,-280.421C286.942,-274.091 260.453,-263.096 242.5,-244 215.81,-215.61 209.812,-167.951 208.625,-141.719"/>
<polygon fill="midnightblue" stroke="midnightblue" points="212.121,-141.519 208.362,-131.613 205.123,-141.7 212.121,-141.519"/>
</g>
<!-- Node14 -->
<g id="node14" class="node"><title>Node14</title>
<polygon fill="none" stroke="#bfbfbf" points="399.5,-224.5 399.5,-243.5 447.5,-243.5 447.5,-224.5 399.5,-224.5"/>
<text text-anchor="middle" x="423.5" y="-231.5" font-family="Helvetica,sans-Serif" font-size="10.00">stdlib.h</text>
</g>
<!-- Node1&#45;&gt;Node14 -->
<g id="edge26" class="edge"><title>Node1&#45;&gt;Node14</title>
<path fill="none" stroke="midnightblue" d="M380.087,-280.083C387.659,-272.22 398.878,-260.569 408.014,-251.081"/>
<polygon fill="midnightblue" stroke="midnightblue" points="410.658,-253.382 415.073,-243.751 405.615,-248.527 410.658,-253.382"/>
</g>
<!-- Node15 -->
<g id="node15" class="node"><title>Node15</title>
<polygon fill="none" stroke="#bfbfbf" points="465.5,-224.5 465.5,-243.5 511.5,-243.5 511.5,-224.5 465.5,-224.5"/>
<text text-anchor="middle" x="488.5" y="-231.5" font-family="Helvetica,sans-Serif" font-size="10.00">stdio.h</text>
</g>
<!-- Node1&#45;&gt;Node15 -->
<g id="edge27" class="edge"><title>Node1&#45;&gt;Node15</title>
<path fill="none" stroke="midnightblue" d="M390.039,-280.444C409.123,-271.636 439.075,-257.812 460.936,-247.722"/>
<polygon fill="midnightblue" stroke="midnightblue" points="462.435,-250.885 470.048,-243.516 459.501,-244.529 462.435,-250.885"/>
</g>
<!-- Node16 -->
<g id="node16" class="node"><title>Node16</title>
<polygon fill="none" stroke="#bfbfbf" points="530,-224.5 530,-243.5 579,-243.5 579,-224.5 530,-224.5"/>
<text text-anchor="middle" x="554.5" y="-231.5" font-family="Helvetica,sans-Serif" font-size="10.00">string.h</text>
</g>
<!-- Node1&#45;&gt;Node16 -->
<g id="edge28" class="edge"><title>Node1&#45;&gt;Node16</title>
<path fill="none" stroke="midnightblue" d="M400.497,-280.444C432.969,-270.862 485.558,-255.344 520.086,-245.155"/>
<polygon fill="midnightblue" stroke="midnightblue" points="521.146,-248.491 529.747,-242.304 519.165,-241.778 521.146,-248.491"/>
</g>
<!-- Node3 -->
<g id="node3" class="node"><title>Node3</title>
<g id="a_node3"><a xlink:href="a00046.html" target="_top" xlink:title="hpd_map.h">
<polygon fill="none" stroke="black" points="79,-112.5 79,-131.5 144,-131.5 144,-112.5 79,-112.5"/>
<text text-anchor="middle" x="111.5" y="-119.5" font-family="Helvetica,sans-Serif" font-size="10.00">hpd_map.h</text>
</a>
</g>
</g>
<!-- Node2&#45;&gt;Node3 -->
<g id="edge2" class="edge"><title>Node2&#45;&gt;Node3</title>
<path fill="none" stroke="midnightblue" d="M257.862,-169.492C229.42,-160.457 181.351,-145.188 148.101,-134.626"/>
<polygon fill="midnightblue" stroke="midnightblue" points="148.887,-131.203 138.296,-131.512 146.767,-137.875 148.887,-131.203"/>
</g>
<!-- Node4 -->
<g id="node4" class="node"><title>Node4</title>
<g id="a_node4"><a xlink:href="a00021.html" target="_top" xlink:title="hpd_types.h">
<polygon fill="none" stroke="black" points="182.5,-56.5 182.5,-75.5 252.5,-75.5 252.5,-56.5 182.5,-56.5"/>
<text text-anchor="middle" x="217.5" y="-63.5" font-family="Helvetica,sans-Serif" font-size="10.00">hpd_types.h</text>
</a>
</g>
</g>
<!-- Node2&#45;&gt;Node4 -->
<g id="edge10" class="edge"><title>Node2&#45;&gt;Node4</title>
<path fill="none" stroke="midnightblue" d="M280.573,-168.447C278.861,-155.463 274.334,-130.352 263.5,-112 256.804,-100.657 246.518,-90.2164 237.369,-82.2536"/>
<polygon fill="midnightblue" stroke="midnightblue" points="239.36,-79.3581 229.423,-75.6826 234.899,-84.7526 239.36,-79.3581"/>
</g>
<!-- Node7 -->
<g id="node7" class="node"><title>Node7</title>
<polygon fill="none" stroke="#bfbfbf" points="98.5,-56.5 98.5,-75.5 150.5,-75.5 150.5,-56.5 98.5,-56.5"/>
<text text-anchor="middle" x="124.5" y="-63.5" font-family="Helvetica,sans-Serif" font-size="10.00">stddef.h</text>
</g>
<!-- Node2&#45;&gt;Node7 -->
<g id="edge8" class="edge"><title>Node2&#45;&gt;Node7</title>
<path fill="none" stroke="midnightblue" d="M257.776,-175.601C207.52,-172.091 93.005,-161.018 69.5,-132 54.9919,-114.089 78.5613,-93.8827 99.2056,-80.8218"/>
<polygon fill="midnightblue" stroke="midnightblue" points="101.267,-83.6666 108.045,-75.5235 97.6688,-77.6624 101.267,-83.6666"/>
</g>
<!-- Node8 -->
<g id="node8" class="node"><title>Node8</title>
<polygon fill="none" stroke="#bfbfbf" points="279.5,-56.5 279.5,-75.5 331.5,-75.5 331.5,-56.5 279.5,-56.5"/>
<text text-anchor="middle" x="305.5" y="-63.5" font-family="Helvetica,sans-Serif" font-size="10.00">stdarg.h</text>
</g>
<!-- Node2&#45;&gt;Node8 -->
<g id="edge9" class="edge"><title>Node2&#45;&gt;Node8</title>
<path fill="none" stroke="midnightblue" d="M285.275,-168.209C288.962,-159.261 294.449,-144.911 297.5,-132 301.14,-116.595 303.187,-98.7221 304.297,-85.6211"/>
<polygon fill="midnightblue" stroke="midnightblue" points="307.797,-85.7505 305.048,-75.5186 300.816,-85.2317 307.797,-85.7505"/>
</g>
<!-- Node9 -->
<g id="node9" class="node"><title>Node9</title>
<g id="a_node9"><a xlink:href="a00039.html" target="_top" xlink:title="httpd_types.h">
<polygon fill="none" stroke="black" points="411.5,-112.5 411.5,-131.5 487.5,-131.5 487.5,-112.5 411.5,-112.5"/>
<text text-anchor="middle" x="449.5" y="-119.5" font-family="Helvetica,sans-Serif" font-size="10.00">httpd_types.h</text>
</a>
</g>
</g>
<!-- Node2&#45;&gt;Node9 -->
<g id="edge11" class="edge"><title>Node2&#45;&gt;Node9</title>
<path fill="none" stroke="midnightblue" d="M305.214,-169.378C333.329,-160.341 380.488,-145.182 413.205,-134.666"/>
<polygon fill="midnightblue" stroke="midnightblue" points="414.408,-137.956 422.857,-131.564 412.266,-131.292 414.408,-137.956"/>
</g>
<!-- Node3&#45;&gt;Node4 -->
<g id="edge3" class="edge"><title>Node3&#45;&gt;Node4</title>
<path fill="none" stroke="midnightblue" d="M128.531,-112.324C145.53,-103.664 171.876,-90.2424 191.493,-80.249"/>
<polygon fill="midnightblue" stroke="midnightblue" points="193.19,-83.3125 200.512,-75.6545 190.012,-77.0752 193.19,-83.3125"/>
</g>
<!-- Node5 -->
<g id="node5" class="node"><title>Node5</title>
<g id="a_node5"><a xlink:href="a00045.html" target="_top" xlink:title="hpd_queue.h">
<polygon fill="none" stroke="black" points="8.5,-56.5 8.5,-75.5 80.5,-75.5 80.5,-56.5 8.5,-56.5"/>
<text text-anchor="middle" x="44.5" y="-63.5" font-family="Helvetica,sans-Serif" font-size="10.00">hpd_queue.h</text>
</a>
</g>
</g>
<!-- Node3&#45;&gt;Node5 -->
<g id="edge4" class="edge"><title>Node3&#45;&gt;Node5</title>
<path fill="none" stroke="midnightblue" d="M100.735,-112.324C90.7339,-104.263 75.6135,-92.0765 63.5695,-82.3695"/>
<polygon fill="midnightblue" stroke="midnightblue" points="65.4429,-79.3841 55.4606,-75.8339 61.0502,-84.8343 65.4429,-79.3841"/>
</g>
<!-- Node3&#45;&gt;Node7 -->
<g id="edge6" class="edge"><title>Node3&#45;&gt;Node7</title>
<path fill="none" stroke="midnightblue" d="M113.647,-112.083C115.369,-104.927 117.847,-94.6353 120,-85.6911"/>
<polygon fill="midnightblue" stroke="midnightblue" points="123.455,-86.2925 122.393,-75.7511 116.65,-84.6541 123.455,-86.2925"/>
</g>
<!-- Node3&#45;&gt;Node8 -->
<g id="edge7" class="edge"><title>Node3&#45;&gt;Node8</title>
<path fill="none" stroke="midnightblue" d="M142.24,-112.444C176.811,-102.821 232.893,-87.2102 269.488,-77.0239"/>
<polygon fill="midnightblue" stroke="midnightblue" points="270.564,-80.3576 279.259,-74.3042 268.687,-73.614 270.564,-80.3576"/>
</g>
<!-- Node6 -->
<g id="node6" class="node"><title>Node6</title>
<polygon fill="none" stroke="#bfbfbf" points="0,-0.5 0,-19.5 89,-19.5 89,-0.5 0,-0.5"/>
<text text-anchor="middle" x="44.5" y="-7.5" font-family="Helvetica,sans-Serif" font-size="10.00">bsd/sys/queue.h</text>
</g>
<!-- Node5&#45;&gt;Node6 -->
<g id="edge5" class="edge"><title>Node5&#45;&gt;Node6</title>
<path fill="none" stroke="midnightblue" d="M44.5,-56.083C44.5,-49.0059 44.5,-38.8611 44.5,-29.9865"/>
<polygon fill="midnightblue" stroke="midnightblue" points="48.0001,-29.751 44.5,-19.7511 41.0001,-29.7511 48.0001,-29.751"/>
</g>
<!-- Node10 -->
<g id="node10" class="node"><title>Node10</title>
<g id="a_node10"><a xlink:href="a00048.html" target="_top" xlink:title="tcpd_types.h">
<polygon fill="none" stroke="black" points="351,-56.5 351,-75.5 424,-75.5 424,-56.5 351,-56.5"/>
<text text-anchor="middle" x="387.5" y="-63.5" font-family="Helvetica,sans-Serif" font-size="10.00">tcpd_types.h</text>
</a>
</g>
</g>
<!-- Node9&#45;&gt;Node10 -->
<g id="edge12" class="edge"><title>Node9&#45;&gt;Node10</title>
<path fill="none" stroke="midnightblue" d="M439.539,-112.324C430.373,-104.341 416.563,-92.3128 405.472,-82.6529"/>
<polygon fill="midnightblue" stroke="midnightblue" points="407.482,-79.7624 397.643,-75.8339 402.885,-85.041 407.482,-79.7624"/>
</g>
<!-- Node11&#45;&gt;Node4 -->
<g id="edge16" class="edge"><title>Node11&#45;&gt;Node4</title>
<path fill="none" stroke="midnightblue" d="M349.436,-113.263C323.806,-104.276 281.233,-89.3479 251.397,-78.886"/>
<polygon fill="midnightblue" stroke="midnightblue" points="252.405,-75.5305 241.81,-75.5243 250.089,-82.1362 252.405,-75.5305"/>
</g>
<!-- Node11&#45;&gt;Node7 -->
<g id="edge14" class="edge"><title>Node11&#45;&gt;Node7</title>
<path fill="none" stroke="midnightblue" d="M349.145,-116.113C306.372,-106.761 212.604,-86.2616 160.758,-74.9268"/>
<polygon fill="midnightblue" stroke="midnightblue" points="161.186,-71.4379 150.669,-72.7212 159.691,-78.2764 161.186,-71.4379"/>
</g>
<!-- Node11&#45;&gt;Node8 -->
<g id="edge15" class="edge"><title>Node11&#45;&gt;Node8</title>
<path fill="none" stroke="midnightblue" d="M360.896,-112.324C351.044,-104.263 336.149,-92.0765 324.285,-82.3695"/>
<polygon fill="midnightblue" stroke="midnightblue" points="326.253,-79.4575 316.297,-75.8339 321.82,-84.8752 326.253,-79.4575"/>
</g>
<!-- Node11&#45;&gt;Node10 -->
<g id="edge17" class="edge"><title>Node11&#45;&gt;Node10</title>
<path fill="none" stroke="midnightblue" d="M374.142,-112.083C376.286,-104.849 379.379,-94.4087 382.049,-85.3968"/>
<polygon fill="midnightblue" stroke="midnightblue" points="385.422,-86.3334 384.907,-75.7511 378.71,-84.3447 385.422,-86.3334"/>
</g>
<!-- Node12&#45;&gt;Node2 -->
<g id="edge19" class="edge"><title>Node12&#45;&gt;Node2</title>
<path fill="none" stroke="midnightblue" d="M298.197,-224.083C295.518,-216.849 291.651,-206.409 288.314,-197.397"/>
<polygon fill="midnightblue" stroke="midnightblue" points="291.496,-195.913 284.741,-187.751 284.932,-198.344 291.496,-195.913"/>
</g>
<!-- Node12&#45;&gt;Node7 -->
<g id="edge21" class="edge"><title>Node12&#45;&gt;Node7</title>
<path fill="none" stroke="midnightblue" d="M259.21,-229.058C202.999,-221.292 105.641,-198.466 61.5,-132 48.1277,-111.864 73.5656,-92.4606 96.0053,-80.1779"/>
<polygon fill="midnightblue" stroke="midnightblue" points="97.7275,-83.2277 105,-75.5233 94.5104,-77.0107 97.7275,-83.2277"/>
</g>
<!-- Node12&#45;&gt;Node11 -->
<g id="edge20" class="edge"><title>Node12&#45;&gt;Node11</title>
<path fill="none" stroke="midnightblue" d="M306.993,-224.368C318.494,-206.296 345.297,-164.176 360.486,-140.307"/>
<polygon fill="midnightblue" stroke="midnightblue" points="363.617,-141.907 366.033,-131.591 357.711,-138.149 363.617,-141.907"/>
</g>
<!-- Node13&#45;&gt;Node4 -->
<g id="edge23" class="edge"><title>Node13&#45;&gt;Node4</title>
<path fill="none" stroke="midnightblue" d="M209.986,-112.083C211.179,-104.927 212.894,-94.6353 214.385,-85.6911"/>
<polygon fill="midnightblue" stroke="midnightblue" points="217.85,-86.1904 216.041,-75.7511 210.945,-85.0396 217.85,-86.1904"/>
</g>
<!-- Node13&#45;&gt;Node7 -->
<g id="edge24" class="edge"><title>Node13&#45;&gt;Node7</title>
<path fill="none" stroke="midnightblue" d="M195.004,-112.324C181.9,-103.9 161.788,-90.9709 146.393,-81.0741"/>
<polygon fill="midnightblue" stroke="midnightblue" points="148.267,-78.118 137.963,-75.6545 144.482,-84.0063 148.267,-78.118"/>
</g>
<!-- Node13&#45;&gt;Node8 -->
<g id="edge25" class="edge"><title>Node13&#45;&gt;Node8</title>
<path fill="none" stroke="midnightblue" d="M224.085,-112.324C239.499,-103.743 263.312,-90.486 281.21,-80.5224"/>
<polygon fill="midnightblue" stroke="midnightblue" points="282.919,-83.5767 289.954,-75.6545 279.514,-77.4606 282.919,-83.5767"/>
</g>
</g>
</svg>
