<?xml version="1.0" encoding="UTF-8" standalone="no"?>
<!DOCTYPE svg PUBLIC "-//W3C//DTD SVG 1.1//EN"
 "http://www.w3.org/Graphics/SVG/1.1/DTD/svg11.dtd">
<!-- Generated by graphviz version 2.38.0 (20140413.2041)
 -->
<!-- Title: common/curl_ev/include/curl_ev.h Pages: 1 -->
<svg width="236pt" height="173pt"
 viewBox="0.00 0.00 236.00 173.00" xmlns="http://www.w3.org/2000/svg" xmlns:xlink="http://www.w3.org/1999/xlink">
<g id="graph0" class="graph" transform="scale(1 1) rotate(0) translate(4 169)">
<title>common/curl_ev/include/curl_ev.h</title>
<!-- Node1 -->
<g id="node1" class="node"><title>Node1</title>
<polygon fill="#bfbfbf" stroke="black" points="52.5,-134.5 52.5,-164.5 174.5,-164.5 174.5,-134.5 52.5,-134.5"/>
<text text-anchor="start" x="60.5" y="-152.5" font-family="Helvetica,sans-Serif" font-size="10.00">common/curl_ev/include</text>
<text text-anchor="middle" x="113.5" y="-141.5" font-family="Helvetica,sans-Serif" font-size="10.00">/curl_ev.h</text>
</g>
<!-- Node2 -->
<g id="node2" class="node"><title>Node2</title>
<g id="a_node2"><a xlink:href="a00037.html" target="_top" xlink:title="common/curl_ev/src\l/curl_ev_intern.h">
<polygon fill="none" stroke="black" points="61,-67.5 61,-97.5 166,-97.5 166,-67.5 61,-67.5"/>
<text text-anchor="start" x="69" y="-85.5" font-family="Helvetica,sans-Serif" font-size="10.00">common/curl_ev/src</text>
<text text-anchor="middle" x="113.5" y="-74.5" font-family="Helvetica,sans-Serif" font-size="10.00">/curl_ev_intern.h</text>
</a>
</g>
</g>
<!-- Node1&#45;&gt;Node2 -->
<g id="edge1" class="edge"><title>Node1&#45;&gt;Node2</title>
<path fill="none" stroke="midnightblue" d="M113.5,-124.108C113.5,-115.154 113.5,-105.323 113.5,-97.5765"/>
<polygon fill="midnightblue" stroke="midnightblue" points="110,-124.396 113.5,-134.396 117,-124.396 110,-124.396"/>
</g>
<!-- Node3 -->
<g id="node3" class="node"><title>Node3</title>
<g id="a_node3"><a xlink:href="a00036.html" target="_top" xlink:title="common/curl_ev/src\l/curl_ev.c">
<polygon fill="none" stroke="black" points="0,-0.5 0,-30.5 105,-30.5 105,-0.5 0,-0.5"/>
<text text-anchor="start" x="8" y="-18.5" font-family="Helvetica,sans-Serif" font-size="10.00">common/curl_ev/src</text>
<text text-anchor="middle" x="52.5" y="-7.5" font-family="Helvetica,sans-Serif" font-size="10.00">/curl_ev.c</text>
</a>
</g>
</g>
<!-- Node2&#45;&gt;Node3 -->
<g id="edge2" class="edge"><title>Node2&#45;&gt;Node3</title>
<path fill="none" stroke="midnightblue" d="M93.3458,-60.0243C84.2574,-50.3398 73.7786,-39.1739 65.7103,-30.5765"/>
<polygon fill="midnightblue" stroke="midnightblue" points="90.8686,-62.4992 100.264,-67.396 95.9729,-57.709 90.8686,-62.4992"/>
</g>
<!-- Node4 -->
<g id="node4" class="node"><title>Node4</title>
<g id="a_node4"><a xlink:href="a00004.html" target="_top" xlink:title="common/curl_ev/src\l/hpd_curl_ev.c">
<polygon fill="none" stroke="black" points="123,-0.5 123,-30.5 228,-30.5 228,-0.5 123,-0.5"/>
<text text-anchor="start" x="131" y="-18.5" font-family="Helvetica,sans-Serif" font-size="10.00">common/curl_ev/src</text>
<text text-anchor="middle" x="175.5" y="-7.5" font-family="Helvetica,sans-Serif" font-size="10.00">/hpd_curl_ev.c</text>
</a>
</g>
</g>
<!-- Node2&#45;&gt;Node4 -->
<g id="edge3" class="edge"><title>Node2&#45;&gt;Node4</title>
<path fill="none" stroke="midnightblue" d="M133.985,-60.0243C143.222,-50.3398 153.873,-39.1739 162.073,-30.5765"/>
<polygon fill="midnightblue" stroke="midnightblue" points="131.323,-57.7441 126.953,-67.396 136.388,-62.5756 131.323,-57.7441"/>
</g>
</g>
</svg>
