<?xml version="1.0" encoding="UTF-8" standalone="no"?>
<!DOCTYPE svg PUBLIC "-//W3C//DTD SVG 1.1//EN"
 "http://www.w3.org/Graphics/SVG/1.1/DTD/svg11.dtd">
<!-- Generated by graphviz version 2.38.0 (20140413.2041)
 -->
<!-- Title: hpd/include/hpd_application_api.h Pages: 1 -->
<!--zoomable 173 -->
<svg id="main" version="1.1" xmlns="http://www.w3.org/2000/svg" xmlns:xlink="http://www.w3.org/1999/xlink" xml:space="preserve" onload="init(evt)">
<style type="text/css"><![CDATA[
.edge:hover path { stroke: red; }
.edge:hover polygon { stroke: red; fill: red; }
]]></style>
<script type="text/javascript"><![CDATA[
var edges = document.getElementsByTagName('g');
if (edges && edges.length) {
  for (var i=0;i<edges.length;i++) {
    if (edges[i].id.substr(0,4)=='edge') {
      edges[i].setAttribute('class','edge');
    }
  }
}
]]></script>
        <defs>
                <circle id="rim" cx="0" cy="0" r="7"/>
                <circle id="rim2" cx="0" cy="0" r="3.5"/>
                <g id="zoomPlus">
                        <use xlink:href="#rim" fill="#404040">
                                <set attributeName="fill" to="#808080" begin="zoomplus.mouseover" end="zoomplus.mouseout"/>
                        </use>
                        <path d="M-4,0h8M0,-4v8" fill="none" stroke="white" stroke-width="1.5" pointer-events="none"/>
                </g>
                <g id="zoomMin">
                        <use xlink:href="#rim" fill="#404040">
                                <set attributeName="fill" to="#808080" begin="zoomminus.mouseover" end="zoomminus.mouseout"/>
                        </use>
                        <path d="M-4,0h8" fill="none" stroke="white" stroke-width="1.5" pointer-events="none"/>
                </g>
                <g id="dirArrow">
                        <path fill="none" stroke="white" stroke-width="1.5" d="M0,-3.0v7 M-2.5,-0.5L0,-3.0L2.5,-0.5"/>
                </g>
               <g id="resetDef">
                       <use xlink:href="#rim2" fill="#404040">
                               <set attributeName="fill" to="#808080" begin="reset.mouseover" end="reset.mouseout"/>
                       </use>
               </g>
        </defs>

<script type="text/javascript">
var viewWidth = 755;
var viewHeight = 173;
var sectionId = 'dynsection-1';
</script>
<script xlink:href="svgpan.js"/>
<svg id="graph" class="graph">
<g id="viewport">
<title>hpd/include/hpd_application_api.h</title>
<!-- Node1 -->
<g id="node1" class="node"><title>Node1</title>
<polygon fill="#bfbfbf" stroke="black" points="367,-134.5 367,-164.5 504,-164.5 504,-134.5 367,-134.5"/>
<text text-anchor="start" x="375" y="-152.5" font-family="Helvetica,sans-Serif" font-size="10.00">hpd/include/hpd_application</text>
<text text-anchor="middle" x="435.5" y="-141.5" font-family="Helvetica,sans-Serif" font-size="10.00">_api.h</text>
</g>
<!-- Node2 -->
<g id="node2" class="node"><title>Node2</title>
<g id="a_node2"><a xlink:href="a00049.html" target="_top" xlink:title="example/demo/demo_application.c">
<polygon fill="none" stroke="black" points="66,-73 66,-92 233,-92 233,-73 66,-73"/>
<text text-anchor="middle" x="149.5" y="-80" font-family="Helvetica,sans-Serif" font-size="10.00">example/demo/demo_application.c</text>
</a>
</g>
</g>
<!-- Node1&#45;&gt;Node2 -->
<g id="edge1" class="edge"><title>Node1&#45;&gt;Node2</title>
<path fill="none" stroke="midnightblue" d="M363.904,-132.228C307.749,-119.466 231.831,-102.212 187.026,-92.0287"/>
<polygon fill="midnightblue" stroke="midnightblue" points="363.267,-135.673 373.794,-134.476 364.819,-128.847 363.267,-135.673"/>
</g>
<!-- Node3 -->
<g id="node3" class="node"><title>Node3</title>
<g id="a_node3"><a xlink:href="a00053.html" target="_top" xlink:title="hpd/include/hpd_api.h">
<polygon fill="none" stroke="black" points="251,-73 251,-92 362,-92 362,-73 251,-73"/>
<text text-anchor="middle" x="306.5" y="-80" font-family="Helvetica,sans-Serif" font-size="10.00">hpd/include/hpd_api.h</text>
</a>
</g>
</g>
<!-- Node1&#45;&gt;Node3 -->
<g id="edge2" class="edge"><title>Node1&#45;&gt;Node3</title>
<path fill="none" stroke="midnightblue" d="M398.393,-129.803C373.663,-117.342 342.334,-101.556 323.383,-92.007"/>
<polygon fill="midnightblue" stroke="midnightblue" points="397.004,-133.022 407.509,-134.396 400.153,-126.77 397.004,-133.022"/>
</g>
<!-- Node9 -->
<g id="node9" class="node"><title>Node9</title>
<g id="a_node9"><a xlink:href="a00025.html" target="_top" xlink:title="modules/hpd_rest/src\l/hpd_rest.c">
<polygon fill="none" stroke="black" points="380.5,-67.5 380.5,-97.5 490.5,-97.5 490.5,-67.5 380.5,-67.5"/>
<text text-anchor="start" x="388.5" y="-85.5" font-family="Helvetica,sans-Serif" font-size="10.00">modules/hpd_rest/src</text>
<text text-anchor="middle" x="435.5" y="-74.5" font-family="Helvetica,sans-Serif" font-size="10.00">/hpd_rest.c</text>
</a>
</g>
</g>
<!-- Node1&#45;&gt;Node9 -->
<g id="edge8" class="edge"><title>Node1&#45;&gt;Node9</title>
<path fill="none" stroke="midnightblue" d="M435.5,-124.108C435.5,-115.154 435.5,-105.323 435.5,-97.5765"/>
<polygon fill="midnightblue" stroke="midnightblue" points="432,-124.396 435.5,-134.396 439,-124.396 432,-124.396"/>
</g>
<!-- Node10 -->
<g id="node10" class="node"><title>Node10</title>
<g id="a_node10"><a xlink:href="a00076.html" target="_top" xlink:title="modules/hpd_rest/src\l/json.c">
<polygon fill="none" stroke="black" points="508.5,-67.5 508.5,-97.5 618.5,-97.5 618.5,-67.5 508.5,-67.5"/>
<text text-anchor="start" x="516.5" y="-85.5" font-family="Helvetica,sans-Serif" font-size="10.00">modules/hpd_rest/src</text>
<text text-anchor="middle" x="563.5" y="-74.5" font-family="Helvetica,sans-Serif" font-size="10.00">/json.c</text>
</a>
</g>
</g>
<!-- Node1&#45;&gt;Node10 -->
<g id="edge9" class="edge"><title>Node1&#45;&gt;Node10</title>
<path fill="none" stroke="midnightblue" d="M472.22,-129.853C492.458,-119.576 517.174,-107.025 535.78,-97.5765"/>
<polygon fill="midnightblue" stroke="midnightblue" points="470.606,-126.747 463.274,-134.396 473.775,-132.989 470.606,-126.747"/>
</g>
<!-- Node11 -->
<g id="node11" class="node"><title>Node11</title>
<g id="a_node11"><a xlink:href="a00078.html" target="_top" xlink:title="modules/hpd_rest/src\l/xml.c">
<polygon fill="none" stroke="black" points="636.5,-67.5 636.5,-97.5 746.5,-97.5 746.5,-67.5 636.5,-67.5"/>
<text text-anchor="start" x="644.5" y="-85.5" font-family="Helvetica,sans-Serif" font-size="10.00">modules/hpd_rest/src</text>
<text text-anchor="middle" x="691.5" y="-74.5" font-family="Helvetica,sans-Serif" font-size="10.00">/xml.c</text>
</a>
</g>
</g>
<!-- Node1&#45;&gt;Node11 -->
<g id="edge10" class="edge"><title>Node1&#45;&gt;Node11</title>
<path fill="none" stroke="midnightblue" d="M500.581,-131.976C542.545,-121.321 596.519,-107.616 636.366,-97.4989"/>
<polygon fill="midnightblue" stroke="midnightblue" points="499.564,-128.623 490.733,-134.476 501.287,-135.407 499.564,-128.623"/>
</g>
<!-- Node4 -->
<g id="node4" class="node"><title>Node4</title>
<g id="a_node4"><a xlink:href="a00058.html" target="_top" xlink:title="hpd/src/daemon_api.c">
<polygon fill="none" stroke="black" points="0,-6 0,-25 113,-25 113,-6 0,-6"/>
<text text-anchor="middle" x="56.5" y="-13" font-family="Helvetica,sans-Serif" font-size="10.00">hpd/src/daemon_api.c</text>
</a>
</g>
</g>
<!-- Node3&#45;&gt;Node4 -->
<g id="edge3" class="edge"><title>Node3&#45;&gt;Node4</title>
<path fill="none" stroke="midnightblue" d="M263.823,-70.4039C214.483,-57.5757 134.331,-36.7361 89.5132,-25.0834"/>
<polygon fill="midnightblue" stroke="midnightblue" points="263.001,-73.8065 273.56,-72.9355 264.762,-67.0318 263.001,-73.8065"/>
</g>
<!-- Node5 -->
<g id="node5" class="node"><title>Node5</title>
<g id="a_node5"><a xlink:href="a00064.html" target="_top" xlink:title="hpd/src/event_api.c">
<polygon fill="none" stroke="black" points="131.5,-6 131.5,-25 233.5,-25 233.5,-6 131.5,-6"/>
<text text-anchor="middle" x="182.5" y="-13" font-family="Helvetica,sans-Serif" font-size="10.00">hpd/src/event_api.c</text>
</a>
</g>
</g>
<!-- Node3&#45;&gt;Node5 -->
<g id="edge4" class="edge"><title>Node3&#45;&gt;Node5</title>
<path fill="none" stroke="midnightblue" d="M280.943,-68.1034C256.387,-55.2309 220.005,-36.16 199.034,-25.1672"/>
<polygon fill="midnightblue" stroke="midnightblue" points="279.552,-71.3256 290.034,-72.8685 282.802,-65.1258 279.552,-71.3256"/>
</g>
<!-- Node6 -->
<g id="node6" class="node"><title>Node6</title>
<g id="a_node6"><a xlink:href="a00070.html" target="_top" xlink:title="hpd/src/request_api.c">
<polygon fill="none" stroke="black" points="251.5,-6 251.5,-25 361.5,-25 361.5,-6 251.5,-6"/>
<text text-anchor="middle" x="306.5" y="-13" font-family="Helvetica,sans-Serif" font-size="10.00">hpd/src/request_api.c</text>
</a>
</g>
</g>
<!-- Node3&#45;&gt;Node6 -->
<g id="edge5" class="edge"><title>Node3&#45;&gt;Node6</title>
<path fill="none" stroke="midnightblue" d="M306.5,-62.537C306.5,-50.1703 306.5,-34.6198 306.5,-25.1273"/>
<polygon fill="midnightblue" stroke="midnightblue" points="303,-62.7338 306.5,-72.7338 310,-62.7338 303,-62.7338"/>
</g>
<!-- Node7 -->
<g id="node7" class="node"><title>Node7</title>
<g id="a_node7"><a xlink:href="a00073.html" target="_top" xlink:title="hpd/src/value_api.c">
<polygon fill="none" stroke="black" points="380,-6 380,-25 481,-25 481,-6 380,-6"/>
<text text-anchor="middle" x="430.5" y="-13" font-family="Helvetica,sans-Serif" font-size="10.00">hpd/src/value_api.c</text>
</a>
</g>
</g>
<!-- Node3&#45;&gt;Node7 -->
<g id="edge6" class="edge"><title>Node3&#45;&gt;Node7</title>
<path fill="none" stroke="midnightblue" d="M332.057,-68.1034C356.613,-55.2309 392.995,-36.16 413.966,-25.1672"/>
<polygon fill="midnightblue" stroke="midnightblue" points="330.198,-65.1258 322.966,-72.8685 333.448,-71.3256 330.198,-65.1258"/>
</g>
<!-- Node8 -->
<g id="node8" class="node"><title>Node8</title>
<g id="a_node8"><a xlink:href="a00030.html" target="_top" xlink:title="hpd/test/daemon_api\l_test.cpp">
<polygon fill="none" stroke="black" points="499,-0.5 499,-30.5 606,-30.5 606,-0.5 499,-0.5"/>
<text text-anchor="start" x="507" y="-18.5" font-family="Helvetica,sans-Serif" font-size="10.00">hpd/test/daemon_api</text>
<text text-anchor="middle" x="552.5" y="-7.5" font-family="Helvetica,sans-Serif" font-size="10.00">_test.cpp</text>
</a>
</g>
</g>
<!-- Node3&#45;&gt;Node8 -->
<g id="edge7" class="edge"><title>Node3&#45;&gt;Node8</title>
<path fill="none" stroke="midnightblue" d="M348.742,-70.3384C390.398,-59.3319 454.197,-42.4743 499.292,-30.5592"/>
<polygon fill="midnightblue" stroke="midnightblue" points="347.687,-66.997 338.913,-72.9355 349.476,-73.7647 347.687,-66.997"/>
</g>
</g>
</svg>
        <g id="navigator" transform="translate(0 0)" fill="#404254">
                <rect fill="#f2f5e9" fill-opacity="0.5" stroke="#606060" stroke-width=".5" x="0" y="0" width="60" height="60"/>
                <use id="zoomplus" xlink:href="#zoomPlus" x="17" y="9" onmousedown="handleZoom(evt,'in')"/>
                <use id="zoomminus" xlink:href="#zoomMin" x="42" y="9" onmousedown="handleZoom(evt,'out')"/>
                <use id="reset" xlink:href="#resetDef" x="30" y="36" onmousedown="handleReset()"/>
                <g id="arrowUp" xlink:href="#dirArrow" transform="translate(30 24)" onmousedown="handlePan(0,-1)">
                  <use xlink:href="#rim" fill="#404040">
                        <set attributeName="fill" to="#808080" begin="arrowUp.mouseover" end="arrowUp.mouseout"/>
                  </use>
                  <path fill="none" stroke="white" stroke-width="1.5" d="M0,-3.0v7 M-2.5,-0.5L0,-3.0L2.5,-0.5"/>
                </g>
                <g id="arrowRight" xlink:href="#dirArrow" transform="rotate(90) translate(36 -43)" onmousedown="handlePan(1,0)">
                  <use xlink:href="#rim" fill="#404040">
                        <set attributeName="fill" to="#808080" begin="arrowRight.mouseover" end="arrowRight.mouseout"/>
                  </use>
                  <path fill="none" stroke="white" stroke-width="1.5" d="M0,-3.0v7 M-2.5,-0.5L0,-3.0L2.5,-0.5"/>
                </g>
                <g id="arrowDown" xlink:href="#dirArrow" transform="rotate(180) translate(-30 -48)" onmousedown="handlePan(0,1)">
                  <use xlink:href="#rim" fill="#404040">
                        <set attributeName="fill" to="#808080" begin="arrowDown.mouseover" end="arrowDown.mouseout"/>
                  </use>
                  <path fill="none" stroke="white" stroke-width="1.5" d="M0,-3.0v7 M-2.5,-0.5L0,-3.0L2.5,-0.5"/>
                </g>
                <g id="arrowLeft" xlink:href="#dirArrow" transform="rotate(270) translate(-36 17)" onmousedown="handlePan(-1,0)">
                  <use xlink:href="#rim" fill="#404040">
                        <set attributeName="fill" to="#808080" begin="arrowLeft.mouseover" end="arrowLeft.mouseout"/>
                  </use>
                  <path fill="none" stroke="white" stroke-width="1.5" d="M0,-3.0v7 M-2.5,-0.5L0,-3.0L2.5,-0.5"/>
                </g>
        </g>
        <svg viewBox="0 0 15 15" width="100%" height="30px" preserveAspectRatio="xMaxYMin meet">
         <g id="arrow_out" transform="scale(0.3 0.3)">
          <a xlink:href="a00180_org.svg" target="_base">
           <rect id="button" ry="5" rx="5" y="6" x="6" height="38" width="38"
                fill="#f2f5e9" fill-opacity="0.5" stroke="#606060" stroke-width="1.0"/>
           <path id="arrow"
             d="M 11.500037,31.436501 C 11.940474,20.09759 22.043105,11.32322 32.158766,21.979434 L 37.068811,17.246167 C 37.068811,17.246167 37.088388,32 37.088388,32 L 22.160133,31.978069 C 22.160133,31.978069 26.997745,27.140456 26.997745,27.140456 C 18.528582,18.264221 13.291696,25.230495 11.500037,31.436501 z"
             style="fill:#404040;"/>
          </a>
         </g>
        </svg>
</svg>
