<?xml version="1.0" encoding="UTF-8" standalone="no"?>
<!DOCTYPE svg PUBLIC "-//W3C//DTD SVG 1.1//EN"
 "http://www.w3.org/Graphics/SVG/1.1/DTD/svg11.dtd">
<!-- Generated by graphviz version 2.38.0 (20140413.2041)
 -->
<!-- Title: hpd_tcpd_settings Pages: 1 -->
<!--zoomable 447 -->
<svg id="main" version="1.1" xmlns="http://www.w3.org/2000/svg" xmlns:xlink="http://www.w3.org/1999/xlink" xml:space="preserve" onload="init(evt)">
<style type="text/css"><![CDATA[
.edge:hover path { stroke: red; }
.edge:hover polygon { stroke: red; fill: red; }
]]></style>
<script type="text/javascript"><![CDATA[
var edges = document.getElementsByTagName('g');
if (edges && edges.length) {
  for (var i=0;i<edges.length;i++) {
    if (edges[i].id.substr(0,4)=='edge') {
      edges[i].setAttribute('class','edge');
    }
  }
}
]]></script>
        <defs>
                <circle id="rim" cx="0" cy="0" r="7"/>
                <circle id="rim2" cx="0" cy="0" r="3.5"/>
                <g id="zoomPlus">
                        <use xlink:href="#rim" fill="#404040">
                                <set attributeName="fill" to="#808080" begin="zoomplus.mouseover" end="zoomplus.mouseout"/>
                        </use>
                        <path d="M-4,0h8M0,-4v8" fill="none" stroke="white" stroke-width="1.5" pointer-events="none"/>
                </g>
                <g id="zoomMin">
                        <use xlink:href="#rim" fill="#404040">
                                <set attributeName="fill" to="#808080" begin="zoomminus.mouseover" end="zoomminus.mouseout"/>
                        </use>
                        <path d="M-4,0h8" fill="none" stroke="white" stroke-width="1.5" pointer-events="none"/>
                </g>
                <g id="dirArrow">
                        <path fill="none" stroke="white" stroke-width="1.5" d="M0,-3.0v7 M-2.5,-0.5L0,-3.0L2.5,-0.5"/>
                </g>
               <g id="resetDef">
                       <use xlink:href="#rim2" fill="#404040">
                               <set attributeName="fill" to="#808080" begin="reset.mouseover" end="reset.mouseout"/>
                       </use>
               </g>
        </defs>

<script type="text/javascript">
var viewWidth = 1285;
var viewHeight = 447;
var sectionId = 'dynsection-2';
</script>
<script xlink:href="svgpan.js"/>
<svg id="graph" class="graph">
<g id="viewport">
<title>hpd_tcpd_settings</title>
<!-- Node1 -->
<g id="node1" class="node"><title>Node1</title>
<polygon fill="#bfbfbf" stroke="black" points="188.575,-127.5 188.575,-184.5 284.575,-184.5 284.575,-127.5 188.575,-127.5"/>
<text text-anchor="middle" x="236.575" y="-172.5" font-family="Helvetica,sans-Serif" font-size="10.00">hpd_tcpd_settings</text>
<polyline fill="none" stroke="black" points="188.575,-165.5 284.575,-165.5 "/>
<text text-anchor="middle" x="236.575" y="-153.5" font-family="Helvetica,sans-Serif" font-size="10.00"> </text>
<polyline fill="none" stroke="black" points="188.575,-146.5 284.575,-146.5 "/>
<text text-anchor="middle" x="236.575" y="-134.5" font-family="Helvetica,sans-Serif" font-size="10.00"> </text>
</g>
<!-- Node6 -->
<g id="node6" class="node"><title>Node6</title>
<g id="a_node6"><a xlink:href="a00036.html#a00131" target="_top" xlink:title="Instance of a tcpd. ">
<polygon fill="none" stroke="black" points="488.575,-0.5 488.575,-57.5 544.575,-57.5 544.575,-0.5 488.575,-0.5"/>
<text text-anchor="middle" x="516.575" y="-45.5" font-family="Helvetica,sans-Serif" font-size="10.00">hpd_tcpd</text>
<polyline fill="none" stroke="black" points="488.575,-38.5 544.575,-38.5 "/>
<text text-anchor="middle" x="516.575" y="-26.5" font-family="Helvetica,sans-Serif" font-size="10.00"> </text>
<polyline fill="none" stroke="black" points="488.575,-19.5 544.575,-19.5 "/>
<text text-anchor="middle" x="516.575" y="-7.5" font-family="Helvetica,sans-Serif" font-size="10.00"> </text>
</a>
</g>
</g>
<!-- Node1&#45;&gt;Node6 -->
<g id="edge10" class="edge"><title>Node1&#45;&gt;Node6</title>
<path fill="none" stroke="#404040" d="M243.463,-127.117C249.195,-109.789 259.142,-88.5033 275.575,-76 306.59,-52.402 416.397,-39.0368 476.512,-33.3326"/>
<polygon fill="none" stroke="#404040" points="476.59,-33.3255 482.2,-28.7948 488.54,-32.2307 482.93,-36.7614 476.59,-33.3255"/>
<text text-anchor="middle" x="297.575" y="-90" font-family="Helvetica,sans-Serif" font-size="10.00"> +settings</text>
</g>
<!-- Node2 -->
<g id="node2" class="node"><title>Node2</title>
<polygon fill="none" stroke="#bfbfbf" points="140.075,-232.5 140.075,-289.5 183.075,-289.5 183.075,-232.5 140.075,-232.5"/>
<text text-anchor="middle" x="161.575" y="-277.5" font-family="Helvetica,sans-Serif" font-size="10.00">size_t</text>
<polyline fill="none" stroke="#bfbfbf" points="140.075,-270.5 183.075,-270.5 "/>
<text text-anchor="middle" x="161.575" y="-258.5" font-family="Helvetica,sans-Serif" font-size="10.00"> </text>
<polyline fill="none" stroke="#bfbfbf" points="140.075,-251.5 183.075,-251.5 "/>
<text text-anchor="middle" x="161.575" y="-239.5" font-family="Helvetica,sans-Serif" font-size="10.00"> </text>
</g>
<!-- Node2&#45;&gt;Node1 -->
<g id="edge1" class="edge"><title>Node2&#45;&gt;Node1</title>
<path fill="none" stroke="#404040" d="M140.053,-241.122C129.839,-229.827 121.46,-215.321 129.575,-203 140.437,-186.506 158.586,-175.903 176.88,-169.095"/>
<polygon fill="none" stroke="#404040" points="177.144,-169.008 181.583,-163.325 188.536,-165.237 184.097,-170.92 177.144,-169.008"/>
<text text-anchor="middle" x="167.575" y="-206" font-family="Helvetica,sans-Serif" font-size="10.00"> +max_data_size</text>
</g>
<!-- Node3 -->
<g id="node3" class="node"><title>Node3</title>
<polygon fill="none" stroke="#bfbfbf" points="205.075,-381.5 205.075,-438.5 234.075,-438.5 234.075,-381.5 205.075,-381.5"/>
<text text-anchor="middle" x="219.575" y="-426.5" font-family="Helvetica,sans-Serif" font-size="10.00">int</text>
<polyline fill="none" stroke="#bfbfbf" points="205.075,-419.5 234.075,-419.5 "/>
<text text-anchor="middle" x="219.575" y="-407.5" font-family="Helvetica,sans-Serif" font-size="10.00"> </text>
<polyline fill="none" stroke="#bfbfbf" points="205.075,-400.5 234.075,-400.5 "/>
<text text-anchor="middle" x="219.575" y="-388.5" font-family="Helvetica,sans-Serif" font-size="10.00"> </text>
</g>
<!-- Node3&#45;&gt;Node1 -->
<g id="edge2" class="edge"><title>Node3&#45;&gt;Node1</title>
<path fill="none" stroke="#404040" d="M220.505,-381.377C221.788,-346.524 224.423,-284.759 228.575,-232 229.471,-220.618 230.684,-208.29 231.895,-196.98"/>
<polygon fill="none" stroke="#404040" points="231.929,-196.675 228.611,-190.273 233.244,-184.748 236.562,-191.15 231.929,-196.675"/>
<text text-anchor="middle" x="257.575" y="-264" font-family="Helvetica,sans-Serif" font-size="10.00"> +retry_delay</text>
<text text-anchor="middle" x="257.575" y="-253" font-family="Helvetica,sans-Serif" font-size="10.00">+timeout</text>
</g>
<!-- Node3&#45;&gt;Node6 -->
<g id="edge9" class="edge"><title>Node3&#45;&gt;Node6</title>
<path fill="none" stroke="#404040" d="M205.029,-404.984C150.123,-389.024 -39.0973,-326.329 7.57499,-232 94.5929,-56.1284 372.143,-32.541 476.444,-30.0036"/>
<polygon fill="none" stroke="#404040" points="476.567,-30.0015 482.494,-25.8947 488.565,-29.7865 482.637,-33.8934 476.567,-30.0015"/>
<text text-anchor="middle" x="44.075" y="-206" font-family="Helvetica,sans-Serif" font-size="10.00"> +sockfd</text>
</g>
<!-- Node13 -->
<g id="node13" class="node"><title>Node13</title>
<g id="a_node13"><a xlink:href="a00017.html#a00110" target="_top" xlink:title="{hpd\n||}">
<polygon fill="none" stroke="black" points="660.575,-232.5 660.575,-289.5 692.575,-289.5 692.575,-232.5 660.575,-232.5"/>
<text text-anchor="middle" x="676.575" y="-277.5" font-family="Helvetica,sans-Serif" font-size="10.00">hpd</text>
<polyline fill="none" stroke="black" points="660.575,-270.5 692.575,-270.5 "/>
<text text-anchor="middle" x="676.575" y="-258.5" font-family="Helvetica,sans-Serif" font-size="10.00"> </text>
<polyline fill="none" stroke="black" points="660.575,-251.5 692.575,-251.5 "/>
<text text-anchor="middle" x="676.575" y="-239.5" font-family="Helvetica,sans-Serif" font-size="10.00"> </text>
</a>
</g>
</g>
<!-- Node3&#45;&gt;Node13 -->
<g id="edge23" class="edge"><title>Node3&#45;&gt;Node13</title>
<path fill="none" stroke="#404040" d="M234.241,-397.204C242.181,-391.42 252.422,-384.879 262.575,-381 311.722,-362.224 334.032,-389.34 379.575,-363 406.673,-347.327 396.692,-324.04 423.575,-308 428.417,-305.111 583.259,-278.12 648.274,-266.878"/>
<polygon fill="none" stroke="#404040" points="648.529,-266.834 653.761,-261.872 660.354,-264.792 655.122,-269.755 648.529,-266.834"/>
<text text-anchor="middle" x="477.075" y="-338.5" font-family="Helvetica,sans-Serif" font-size="10.00"> +module_options_count</text>
<text text-anchor="middle" x="477.075" y="-327.5" font-family="Helvetica,sans-Serif" font-size="10.00">+options_count</text>
</g>
<!-- Node4 -->
<g id="node4" class="node"><title>Node4</title>
<polygon fill="none" stroke="#bfbfbf" points="17.075,-232.5 17.075,-289.5 122.075,-289.5 122.075,-232.5 17.075,-232.5"/>
<text text-anchor="middle" x="69.575" y="-277.5" font-family="Helvetica,sans-Serif" font-size="10.00">enum hpd_tcpd_port</text>
<polyline fill="none" stroke="#bfbfbf" points="17.075,-270.5 122.075,-270.5 "/>
<text text-anchor="middle" x="69.575" y="-258.5" font-family="Helvetica,sans-Serif" font-size="10.00"> </text>
<polyline fill="none" stroke="#bfbfbf" points="17.075,-251.5 122.075,-251.5 "/>
<text text-anchor="middle" x="69.575" y="-239.5" font-family="Helvetica,sans-Serif" font-size="10.00"> </text>
</g>
<!-- Node4&#45;&gt;Node1 -->
<g id="edge3" class="edge"><title>Node4&#45;&gt;Node1</title>
<path fill="none" stroke="#404040" d="M77.4387,-232.427C81.6311,-221.981 87.7893,-210.751 96.575,-203 118.702,-183.478 149.308,-172.21 176.262,-165.72"/>
<polygon fill="none" stroke="#404040" points="176.625,-165.64 181.626,-160.445 188.345,-163.062 183.344,-168.258 176.625,-165.64"/>
<text text-anchor="middle" x="109.575" y="-206" font-family="Helvetica,sans-Serif" font-size="10.00"> +port</text>
</g>
<!-- Node5 -->
<g id="node5" class="node"><title>Node5</title>
<polygon fill="none" stroke="#bfbfbf" points="296.075,-232.5 296.075,-289.5 337.075,-289.5 337.075,-232.5 296.075,-232.5"/>
<text text-anchor="middle" x="316.575" y="-277.5" font-family="Helvetica,sans-Serif" font-size="10.00">void *</text>
<polyline fill="none" stroke="#bfbfbf" points="296.075,-270.5 337.075,-270.5 "/>
<text text-anchor="middle" x="316.575" y="-258.5" font-family="Helvetica,sans-Serif" font-size="10.00"> </text>
<polyline fill="none" stroke="#bfbfbf" points="296.075,-251.5 337.075,-251.5 "/>
<text text-anchor="middle" x="316.575" y="-239.5" font-family="Helvetica,sans-Serif" font-size="10.00"> </text>
</g>
<!-- Node5&#45;&gt;Node1 -->
<g id="edge4" class="edge"><title>Node5&#45;&gt;Node1</title>
<path fill="none" stroke="#404040" d="M295.749,-242.761C291.149,-239.117 286.251,-235.36 281.575,-232 269.561,-223.368 262.465,-225.825 253.575,-214 249.68,-208.819 246.673,-202.753 244.353,-196.546"/>
<polygon fill="none" stroke="#404040" points="244.216,-196.102 238.628,-191.545 240.684,-184.633 246.273,-189.19 244.216,-196.102"/>
<text text-anchor="middle" x="277.075" y="-206" font-family="Helvetica,sans-Serif" font-size="10.00"> +tcpd_ctx</text>
</g>
<!-- Node10 -->
<g id="node10" class="node"><title>Node10</title>
<g id="a_node10"><a xlink:href="a00029.html" target="_top" xlink:title="{hpd_module\n||+ TAILQ_ENTRY()\l}">
<polygon fill="none" stroke="black" points="389.575,-127.5 389.575,-184.5 489.575,-184.5 489.575,-127.5 389.575,-127.5"/>
<text text-anchor="middle" x="439.575" y="-172.5" font-family="Helvetica,sans-Serif" font-size="10.00">hpd_module</text>
<polyline fill="none" stroke="black" points="389.575,-165.5 489.575,-165.5 "/>
<text text-anchor="middle" x="439.575" y="-153.5" font-family="Helvetica,sans-Serif" font-size="10.00"> </text>
<polyline fill="none" stroke="black" points="389.575,-146.5 489.575,-146.5 "/>
<text text-anchor="start" x="397.575" y="-134.5" font-family="Helvetica,sans-Serif" font-size="10.00">+ TAILQ_ENTRY()</text>
</a>
</g>
</g>
<!-- Node5&#45;&gt;Node10 -->
<g id="edge27" class="edge"><title>Node5&#45;&gt;Node10</title>
<path fill="none" stroke="#404040" d="M323.607,-232.372C327.306,-222.163 332.75,-211.116 340.575,-203 351.111,-192.073 364.744,-183.481 378.505,-176.832"/>
<polygon fill="none" stroke="#404040" points="378.558,-176.809 382.402,-170.707 389.512,-171.909 385.668,-178.01 378.558,-176.809"/>
<text text-anchor="middle" x="354.575" y="-206" font-family="Helvetica,sans-Serif" font-size="10.00"> +data</text>
</g>
<!-- Node6&#45;&gt;Node1 -->
<g id="edge5" class="edge"><title>Node6&#45;&gt;Node1</title>
<path fill="none" stroke="#404040" d="M488.141,-39.5155C462.771,-48.2489 424.766,-61.9322 392.575,-76 359.892,-90.2828 324.35,-108.095 295.457,-123.189"/>
<polygon fill="none" stroke="#404040" points="295.351,-123.245 291.901,-129.577 284.729,-128.828 288.179,-122.496 295.351,-123.245"/>
<text text-anchor="middle" x="429.075" y="-101" font-family="Helvetica,sans-Serif" font-size="10.00"> +on_disconnect</text>
<text text-anchor="middle" x="429.075" y="-90" font-family="Helvetica,sans-Serif" font-size="10.00">+on_connect</text>
<text text-anchor="middle" x="429.075" y="-79" font-family="Helvetica,sans-Serif" font-size="10.00">+on_receive</text>
</g>
<!-- Node7 -->
<g id="node7" class="node"><title>Node7</title>
<polygon fill="none" stroke="#bfbfbf" points="400.575,-381.5 400.575,-438.5 486.575,-438.5 486.575,-381.5 400.575,-381.5"/>
<text text-anchor="middle" x="443.575" y="-426.5" font-family="Helvetica,sans-Serif" font-size="10.00">hpd_ev_loop_t *</text>
<polyline fill="none" stroke="#bfbfbf" points="400.575,-419.5 486.575,-419.5 "/>
<text text-anchor="middle" x="443.575" y="-407.5" font-family="Helvetica,sans-Serif" font-size="10.00"> </text>
<polyline fill="none" stroke="#bfbfbf" points="400.575,-400.5 486.575,-400.5 "/>
<text text-anchor="middle" x="443.575" y="-388.5" font-family="Helvetica,sans-Serif" font-size="10.00"> </text>
</g>
<!-- Node7&#45;&gt;Node6 -->
<g id="edge6" class="edge"><title>Node7&#45;&gt;Node6</title>
<path fill="none" stroke="#404040" d="M486.863,-386.338C495.604,-379.897 503.854,-372.107 509.575,-363 543.62,-308.806 544.844,-139 533.575,-76 533.187,-73.8314 532.704,-71.6313 532.149,-69.4281"/>
<polygon fill="none" stroke="#404040" points="532.099,-69.2646 526.533,-64.68 528.624,-57.7787 534.191,-62.3633 532.099,-69.2646"/>
<text text-anchor="middle" x="553.575" y="-206" font-family="Helvetica,sans-Serif" font-size="10.00"> +loop</text>
</g>
<!-- Node7&#45;&gt;Node13 -->
<g id="edge16" class="edge"><title>Node7&#45;&gt;Node13</title>
<path fill="none" stroke="#404040" d="M486.598,-385.57C489.626,-384.003 492.64,-382.466 495.575,-381 512.654,-372.471 521.431,-376.845 534.575,-363 552.702,-343.907 537.825,-326.481 556.575,-308 581.701,-283.234 621.571,-271.513 648.384,-266.17"/>
<polygon fill="none" stroke="#404040" points="648.563,-266.138 653.767,-261.147 660.376,-264.03 655.172,-269.022 648.563,-266.138"/>
<text text-anchor="middle" x="570.575" y="-333" font-family="Helvetica,sans-Serif" font-size="10.00"> +loop</text>
</g>
<!-- Node8 -->
<g id="node8" class="node"><title>Node8</title>
<polygon fill="none" stroke="#bfbfbf" points="986.075,-381.5 986.075,-438.5 1021.07,-438.5 1021.07,-381.5 986.075,-381.5"/>
<text text-anchor="middle" x="1003.57" y="-426.5" font-family="Helvetica,sans-Serif" font-size="10.00">char</text>
<polyline fill="none" stroke="#bfbfbf" points="986.075,-419.5 1021.07,-419.5 "/>
<text text-anchor="middle" x="1003.57" y="-407.5" font-family="Helvetica,sans-Serif" font-size="10.00"> </text>
<polyline fill="none" stroke="#bfbfbf" points="986.075,-400.5 1021.07,-400.5 "/>
<text text-anchor="middle" x="1003.57" y="-388.5" font-family="Helvetica,sans-Serif" font-size="10.00"> </text>
</g>
<!-- Node8&#45;&gt;Node6 -->
<g id="edge7" class="edge"><title>Node8&#45;&gt;Node6</title>
<path fill="none" stroke="#404040" d="M1017.04,-381.327C1019.33,-375.411 1021.36,-369.102 1022.57,-363 1036.84,-291.102 1034.62,-254.612 982.575,-203 860.361,-81.8103 645.736,-44.4488 556.866,-33.8555"/>
<polygon fill="none" stroke="#404040" points="556.617,-33.8274 550.205,-37.1284 544.692,-32.48 551.104,-29.179 556.617,-33.8274"/>
<text text-anchor="middle" x="1014.07" y="-206" font-family="Helvetica,sans-Serif" font-size="10.00"> +port_str</text>
</g>
<!-- Node8&#45;&gt;Node13 -->
<g id="edge17" class="edge"><title>Node8&#45;&gt;Node13</title>
<path fill="none" stroke="#404040" d="M985.666,-392.754C977.261,-384.453 967.578,-373.833 960.575,-363 946.19,-340.749 958.267,-324.549 937.575,-308 901.914,-279.48 764.649,-267.532 704.775,-263.604"/>
<polygon fill="none" stroke="#404040" points="704.572,-263.591 698.335,-267.211 692.595,-262.846 698.832,-259.226 704.572,-263.591"/>
<text text-anchor="middle" x="991.575" y="-338.5" font-family="Helvetica,sans-Serif" font-size="10.00"> +argv0</text>
<text text-anchor="middle" x="991.575" y="-327.5" font-family="Helvetica,sans-Serif" font-size="10.00">+option2name</text>
</g>
<!-- Node9 -->
<g id="node9" class="node"><title>Node9</title>
<polygon fill="none" stroke="#bfbfbf" points="583.575,-127.5 583.575,-184.5 699.575,-184.5 699.575,-127.5 583.575,-127.5"/>
<text text-anchor="middle" x="641.575" y="-172.5" font-family="Helvetica,sans-Serif" font-size="10.00">struct hpd_tcpd_conns</text>
<polyline fill="none" stroke="#bfbfbf" points="583.575,-165.5 699.575,-165.5 "/>
<text text-anchor="middle" x="641.575" y="-153.5" font-family="Helvetica,sans-Serif" font-size="10.00"> </text>
<polyline fill="none" stroke="#bfbfbf" points="583.575,-146.5 699.575,-146.5 "/>
<text text-anchor="middle" x="641.575" y="-134.5" font-family="Helvetica,sans-Serif" font-size="10.00"> </text>
</g>
<!-- Node9&#45;&gt;Node6 -->
<g id="edge8" class="edge"><title>Node9&#45;&gt;Node6</title>
<path fill="none" stroke="#404040" d="M617.676,-127.209C604.011,-111.724 586.308,-92.3316 569.575,-76 564.548,-71.0934 559.097,-66.0637 553.668,-61.2151"/>
<polygon fill="none" stroke="#404040" points="553.648,-61.1977 546.5,-60.2446 544.631,-53.2801 551.778,-54.2331 553.648,-61.1977"/>
<text text-anchor="middle" x="618.575" y="-90" font-family="Helvetica,sans-Serif" font-size="10.00"> +conns</text>
</g>
<!-- Node10&#45;&gt;Node6 -->
<g id="edge11" class="edge"><title>Node10&#45;&gt;Node6</title>
<path fill="none" stroke="#404040" d="M456.664,-127.258C467.38,-109.861 481.342,-87.196 493.092,-68.1225"/>
<polygon fill="none" stroke="#404040" points="493.24,-67.8811 492.981,-60.6746 499.534,-57.664 499.793,-64.8705 493.24,-67.8811"/>
<text text-anchor="middle" x="508.575" y="-90" font-family="Helvetica,sans-Serif" font-size="10.00"> +context</text>
</g>
<!-- Node10&#45;&gt;Node13 -->
<g id="edge26" class="edge"><title>Node10&#45;&gt;Node13</title>
<path fill="none" stroke="#404040" d="M443.884,-184.648C446.883,-195.233 451.966,-206.543 460.575,-214 474.728,-226.259 593.046,-246.593 648.323,-255.541"/>
<polygon fill="none" stroke="#404040" points="648.467,-255.564 655.025,-252.564 660.316,-257.463 653.758,-260.463 648.467,-255.564"/>
<text text-anchor="middle" x="497.075" y="-206" font-family="Helvetica,sans-Serif" font-size="10.00"> +option2module</text>
</g>
<!-- Node11 -->
<g id="node11" class="node"><title>Node11</title>
<g id="a_node11"><a xlink:href="a00030.html#a00123" target="_top" xlink:title="[Application API Callbacks] ">
<polygon fill="none" stroke="black" points="355.575,-232.5 355.575,-289.5 443.575,-289.5 443.575,-232.5 355.575,-232.5"/>
<text text-anchor="middle" x="399.575" y="-277.5" font-family="Helvetica,sans-Serif" font-size="10.00">hpd_module_def</text>
<polyline fill="none" stroke="black" points="355.575,-270.5 443.575,-270.5 "/>
<text text-anchor="middle" x="399.575" y="-258.5" font-family="Helvetica,sans-Serif" font-size="10.00"> </text>
<polyline fill="none" stroke="black" points="355.575,-251.5 443.575,-251.5 "/>
<text text-anchor="middle" x="399.575" y="-239.5" font-family="Helvetica,sans-Serif" font-size="10.00"> </text>
</a>
</g>
</g>
<!-- Node11&#45;&gt;Node10 -->
<g id="edge12" class="edge"><title>Node11&#45;&gt;Node10</title>
<path fill="none" stroke="#404040" d="M377.2,-232.412C372.232,-222.963 369.709,-212.405 374.575,-203 376.329,-199.61 378.461,-196.416 380.868,-193.416"/>
<polygon fill="none" stroke="#404040" points="381.096,-193.176 382.337,-186.073 389.372,-184.487 388.13,-191.59 381.096,-193.176"/>
<text text-anchor="middle" x="386.075" y="-206" font-family="Helvetica,sans-Serif" font-size="10.00"> +def</text>
</g>
<!-- Node12 -->
<g id="node12" class="node"><title>Node12</title>
<polygon fill="none" stroke="#bfbfbf" points="271.575,-381.5 271.575,-438.5 355.575,-438.5 355.575,-381.5 271.575,-381.5"/>
<text text-anchor="middle" x="313.575" y="-426.5" font-family="Helvetica,sans-Serif" font-size="10.00">enum hpd_error</text>
<polyline fill="none" stroke="#bfbfbf" points="271.575,-419.5 355.575,-419.5 "/>
<text text-anchor="middle" x="313.575" y="-407.5" font-family="Helvetica,sans-Serif" font-size="10.00"> </text>
<polyline fill="none" stroke="#bfbfbf" points="271.575,-400.5 355.575,-400.5 "/>
<text text-anchor="middle" x="313.575" y="-388.5" font-family="Helvetica,sans-Serif" font-size="10.00"> </text>
</g>
<!-- Node12&#45;&gt;Node11 -->
<g id="edge13" class="edge"><title>Node12&#45;&gt;Node11</title>
<path fill="none" stroke="#404040" d="M306.651,-381.228C302.894,-359.696 301.361,-329.928 314.575,-308 315.121,-307.094 328.441,-299.756 344.38,-291.198"/>
<polygon fill="none" stroke="#404040" points="344.543,-291.111 347.948,-284.754 355.125,-285.452 351.72,-291.809 344.543,-291.111"/>
<text text-anchor="middle" x="347.075" y="-355" font-family="Helvetica,sans-Serif" font-size="10.00"> +on_create</text>
<text text-anchor="middle" x="347.075" y="-344" font-family="Helvetica,sans-Serif" font-size="10.00">+on_stop</text>
<text text-anchor="middle" x="347.075" y="-333" font-family="Helvetica,sans-Serif" font-size="10.00">+on_destroy</text>
<text text-anchor="middle" x="347.075" y="-322" font-family="Helvetica,sans-Serif" font-size="10.00">+on_start</text>
<text text-anchor="middle" x="347.075" y="-311" font-family="Helvetica,sans-Serif" font-size="10.00">+on_parse_opt</text>
</g>
<!-- Node13&#45;&gt;Node10 -->
<g id="edge14" class="edge"><title>Node13&#45;&gt;Node10</title>
<path fill="none" stroke="#404040" d="M660.289,-247.66C643.007,-235.034 614.525,-215.54 587.575,-203 560.268,-190.294 528.545,-179.905 501.489,-172.236"/>
<polygon fill="none" stroke="#404040" points="501.38,-172.206 494.532,-174.464 489.814,-169.011 496.662,-166.753 501.38,-172.206"/>
<text text-anchor="middle" x="621.075" y="-206" font-family="Helvetica,sans-Serif" font-size="10.00"> +hpd</text>
</g>
<!-- Node15 -->
<g id="node15" class="node"><title>Node15</title>
<g id="a_node15"><a xlink:href="a00018.html#a00113" target="_top" xlink:title="{hpd_configuration\n||}">
<polygon fill="none" stroke="black" points="1084.07,-127.5 1084.07,-184.5 1177.07,-184.5 1177.07,-127.5 1084.07,-127.5"/>
<text text-anchor="middle" x="1130.57" y="-172.5" font-family="Helvetica,sans-Serif" font-size="10.00">hpd_configuration</text>
<polyline fill="none" stroke="black" points="1084.07,-165.5 1177.07,-165.5 "/>
<text text-anchor="middle" x="1130.57" y="-153.5" font-family="Helvetica,sans-Serif" font-size="10.00"> </text>
<polyline fill="none" stroke="black" points="1084.07,-146.5 1177.07,-146.5 "/>
<text text-anchor="middle" x="1130.57" y="-134.5" font-family="Helvetica,sans-Serif" font-size="10.00"> </text>
</a>
</g>
</g>
<!-- Node13&#45;&gt;Node15 -->
<g id="edge20" class="edge"><title>Node13&#45;&gt;Node15</title>
<path fill="none" stroke="#404040" d="M692.748,-252.497C720.883,-239.827 780.963,-214.457 834.575,-203 935.4,-181.453 969.035,-211.155 1072.15,-185.082"/>
<polygon fill="none" stroke="#404040" points="1072.46,-185.001 1077.22,-179.59 1084.05,-181.908 1079.28,-187.32 1072.46,-185.001"/>
<text text-anchor="middle" x="847.075" y="-206" font-family="Helvetica,sans-Serif" font-size="10.00"> +hpd</text>
</g>
<!-- Node14 -->
<g id="node14" class="node"><title>Node14</title>
<polygon fill="none" stroke="#bfbfbf" points="504.575,-381.5 504.575,-438.5 606.575,-438.5 606.575,-381.5 504.575,-381.5"/>
<text text-anchor="middle" x="555.575" y="-426.5" font-family="Helvetica,sans-Serif" font-size="10.00">struct hpd_modules</text>
<polyline fill="none" stroke="#bfbfbf" points="504.575,-419.5 606.575,-419.5 "/>
<text text-anchor="middle" x="555.575" y="-407.5" font-family="Helvetica,sans-Serif" font-size="10.00"> </text>
<polyline fill="none" stroke="#bfbfbf" points="504.575,-400.5 606.575,-400.5 "/>
<text text-anchor="middle" x="555.575" y="-388.5" font-family="Helvetica,sans-Serif" font-size="10.00"> </text>
</g>
<!-- Node14&#45;&gt;Node13 -->
<g id="edge15" class="edge"><title>Node14&#45;&gt;Node13</title>
<path fill="none" stroke="#404040" d="M574.24,-381.044C591.291,-355.772 615.482,-320.651 626.575,-308 634.065,-299.458 642.996,-290.833 651.224,-283.396"/>
<polygon fill="none" stroke="#404040" points="651.426,-283.218 653.285,-276.251 660.431,-275.287 658.572,-282.254 651.426,-283.218"/>
<text text-anchor="middle" x="649.575" y="-333" font-family="Helvetica,sans-Serif" font-size="10.00"> +modules</text>
</g>
<!-- Node15&#45;&gt;Node13 -->
<g id="edge18" class="edge"><title>Node15&#45;&gt;Node13</title>
<path fill="none" stroke="#404040" d="M1084.01,-181.764C1080.86,-182.975 1077.7,-184.071 1074.57,-185 1007.25,-205.01 986.759,-190.896 917.575,-203 839.711,-216.622 749.386,-240.077 704.658,-252.216"/>
<polygon fill="none" stroke="#404040" points="704.376,-252.293 699.644,-257.734 692.801,-255.459 697.533,-250.018 704.376,-252.293"/>
<text text-anchor="middle" x="950.075" y="-206" font-family="Helvetica,sans-Serif" font-size="10.00"> +configuration</text>
</g>
<!-- Node16 -->
<g id="node16" class="node"><title>Node16</title>
<polygon fill="none" stroke="#bfbfbf" points="1053.07,-232.5 1053.07,-289.5 1156.07,-289.5 1156.07,-232.5 1053.07,-232.5"/>
<text text-anchor="middle" x="1104.57" y="-277.5" font-family="Helvetica,sans-Serif" font-size="10.00">struct hpd_adapters</text>
<polyline fill="none" stroke="#bfbfbf" points="1053.07,-270.5 1156.07,-270.5 "/>
<text text-anchor="middle" x="1104.57" y="-258.5" font-family="Helvetica,sans-Serif" font-size="10.00"> </text>
<polyline fill="none" stroke="#bfbfbf" points="1053.07,-251.5 1156.07,-251.5 "/>
<text text-anchor="middle" x="1104.57" y="-239.5" font-family="Helvetica,sans-Serif" font-size="10.00"> </text>
</g>
<!-- Node16&#45;&gt;Node15 -->
<g id="edge19" class="edge"><title>Node16&#45;&gt;Node15</title>
<path fill="none" stroke="#404040" d="M1111.54,-232.398C1114.31,-221.43 1117.55,-208.603 1120.56,-196.672"/>
<polygon fill="none" stroke="#404040" points="1120.65,-196.313 1118.24,-189.517 1123.59,-184.678 1126,-191.475 1120.65,-196.313"/>
<text text-anchor="middle" x="1141.07" y="-206" font-family="Helvetica,sans-Serif" font-size="10.00"> +adapters</text>
</g>
<!-- Node17 -->
<g id="node17" class="node"><title>Node17</title>
<polygon fill="none" stroke="#bfbfbf" points="1174.57,-232.5 1174.57,-289.5 1276.57,-289.5 1276.57,-232.5 1174.57,-232.5"/>
<text text-anchor="middle" x="1225.57" y="-277.5" font-family="Helvetica,sans-Serif" font-size="10.00">struct hpd_listeners</text>
<polyline fill="none" stroke="#bfbfbf" points="1174.57,-270.5 1276.57,-270.5 "/>
<text text-anchor="middle" x="1225.57" y="-258.5" font-family="Helvetica,sans-Serif" font-size="10.00"> </text>
<polyline fill="none" stroke="#bfbfbf" points="1174.57,-251.5 1276.57,-251.5 "/>
<text text-anchor="middle" x="1225.57" y="-239.5" font-family="Helvetica,sans-Serif" font-size="10.00"> </text>
</g>
<!-- Node17&#45;&gt;Node15 -->
<g id="edge21" class="edge"><title>Node17&#45;&gt;Node15</title>
<path fill="none" stroke="#404040" d="M1200.12,-232.398C1189.15,-220.506 1176.17,-206.43 1164.4,-193.679"/>
<polygon fill="none" stroke="#404040" points="1164.24,-193.499 1157.23,-191.801 1156.1,-184.678 1163.11,-186.377 1164.24,-193.499"/>
<text text-anchor="middle" x="1203.57" y="-206" font-family="Helvetica,sans-Serif" font-size="10.00"> +listeners</text>
</g>
<!-- Node18 -->
<g id="node18" class="node"><title>Node18</title>
<polygon fill="none" stroke="#bfbfbf" points="625.075,-381.5 625.075,-438.5 728.075,-438.5 728.075,-381.5 625.075,-381.5"/>
<text text-anchor="middle" x="676.575" y="-426.5" font-family="Helvetica,sans-Serif" font-size="10.00">hpd_argp_option_t *</text>
<polyline fill="none" stroke="#bfbfbf" points="625.075,-419.5 728.075,-419.5 "/>
<text text-anchor="middle" x="676.575" y="-407.5" font-family="Helvetica,sans-Serif" font-size="10.00"> </text>
<polyline fill="none" stroke="#bfbfbf" points="625.075,-400.5 728.075,-400.5 "/>
<text text-anchor="middle" x="676.575" y="-388.5" font-family="Helvetica,sans-Serif" font-size="10.00"> </text>
</g>
<!-- Node18&#45;&gt;Node13 -->
<g id="edge22" class="edge"><title>Node18&#45;&gt;Node13</title>
<path fill="none" stroke="#404040" d="M676.575,-381.35C676.575,-358.868 676.575,-326.855 676.575,-301.643"/>
<polygon fill="none" stroke="#404040" points="676.575,-301.526 672.575,-295.526 676.575,-289.526 680.575,-295.526 676.575,-301.526"/>
<text text-anchor="middle" x="697.075" y="-333" font-family="Helvetica,sans-Serif" font-size="10.00"> +options</text>
</g>
<!-- Node19 -->
<g id="node19" class="node"><title>Node19</title>
<polygon fill="none" stroke="#bfbfbf" points="746.575,-381.5 746.575,-438.5 804.575,-438.5 804.575,-381.5 746.575,-381.5"/>
<text text-anchor="middle" x="775.575" y="-426.5" font-family="Helvetica,sans-Serif" font-size="10.00">ev_signal</text>
<polyline fill="none" stroke="#bfbfbf" points="746.575,-419.5 804.575,-419.5 "/>
<text text-anchor="middle" x="775.575" y="-407.5" font-family="Helvetica,sans-Serif" font-size="10.00"> </text>
<polyline fill="none" stroke="#bfbfbf" points="746.575,-400.5 804.575,-400.5 "/>
<text text-anchor="middle" x="775.575" y="-388.5" font-family="Helvetica,sans-Serif" font-size="10.00"> </text>
</g>
<!-- Node19&#45;&gt;Node13 -->
<g id="edge24" class="edge"><title>Node19&#45;&gt;Node13</title>
<path fill="none" stroke="#404040" d="M753.246,-381.011C749.104,-375.224 745.007,-369.045 741.575,-363 728.495,-339.958 732.829,-330.335 718.575,-308 713.728,-300.405 707.588,-292.882 701.509,-286.188"/>
<polygon fill="none" stroke="#404040" points="701.087,-285.746 694.052,-284.164 692.805,-277.062 699.841,-278.643 701.087,-285.746"/>
<text text-anchor="middle" x="782.575" y="-338.5" font-family="Helvetica,sans-Serif" font-size="10.00"> +sigterm_watcher</text>
<text text-anchor="middle" x="782.575" y="-327.5" font-family="Helvetica,sans-Serif" font-size="10.00">+sigint_watcher</text>
</g>
<!-- Node20 -->
<g id="node20" class="node"><title>Node20</title>
<polygon fill="none" stroke="#bfbfbf" points="823.075,-381.5 823.075,-438.5 936.075,-438.5 936.075,-381.5 823.075,-381.5"/>
<text text-anchor="middle" x="879.575" y="-426.5" font-family="Helvetica,sans-Serif" font-size="10.00">struct hpd_ev_asyncs</text>
<polyline fill="none" stroke="#bfbfbf" points="823.075,-419.5 936.075,-419.5 "/>
<text text-anchor="middle" x="879.575" y="-407.5" font-family="Helvetica,sans-Serif" font-size="10.00"> </text>
<polyline fill="none" stroke="#bfbfbf" points="823.075,-400.5 936.075,-400.5 "/>
<text text-anchor="middle" x="879.575" y="-388.5" font-family="Helvetica,sans-Serif" font-size="10.00"> </text>
</g>
<!-- Node20&#45;&gt;Node13 -->
<g id="edge25" class="edge"><title>Node20&#45;&gt;Node13</title>
<path fill="none" stroke="#404040" d="M858.284,-381.445C854.144,-375.521 850.025,-369.179 846.575,-363 833.659,-339.866 843.159,-325.846 823.575,-308 790.394,-277.764 737.519,-267.402 705.047,-263.851"/>
<polygon fill="none" stroke="#404040" points="704.841,-263.833 698.501,-267.268 692.892,-262.737 699.232,-259.302 704.841,-263.833"/>
<text text-anchor="middle" x="892.075" y="-355" font-family="Helvetica,sans-Serif" font-size="10.00"> +respond_watchers</text>
<text text-anchor="middle" x="892.075" y="-344" font-family="Helvetica,sans-Serif" font-size="10.00">+request_watchers</text>
<text text-anchor="middle" x="892.075" y="-333" font-family="Helvetica,sans-Serif" font-size="10.00">+changed_watchers</text>
<text text-anchor="middle" x="892.075" y="-322" font-family="Helvetica,sans-Serif" font-size="10.00">+attached_watchers</text>
<text text-anchor="middle" x="892.075" y="-311" font-family="Helvetica,sans-Serif" font-size="10.00">+detached_watchers</text>
</g>
<!-- Node21 -->
<g id="node21" class="node"><title>Node21</title>
<polygon fill="none" stroke="#bfbfbf" points="461.575,-232.5 461.575,-289.5 503.575,-289.5 503.575,-232.5 461.575,-232.5"/>
<text text-anchor="middle" x="482.575" y="-277.5" font-family="Helvetica,sans-Serif" font-size="10.00">char *</text>
<polyline fill="none" stroke="#bfbfbf" points="461.575,-270.5 503.575,-270.5 "/>
<text text-anchor="middle" x="482.575" y="-258.5" font-family="Helvetica,sans-Serif" font-size="10.00"> </text>
<polyline fill="none" stroke="#bfbfbf" points="461.575,-251.5 503.575,-251.5 "/>
<text text-anchor="middle" x="482.575" y="-239.5" font-family="Helvetica,sans-Serif" font-size="10.00"> </text>
</g>
<!-- Node21&#45;&gt;Node10 -->
<g id="edge28" class="edge"><title>Node21&#45;&gt;Node10</title>
<path fill="none" stroke="#404040" d="M461.481,-239.164C458.578,-236.642 455.565,-234.188 452.575,-232 439.406,-222.365 428.813,-228.086 420.575,-214 417.366,-208.513 416.761,-202.409 417.703,-196.291"/>
<polygon fill="none" stroke="#404040" points="417.736,-196.178 415.603,-189.29 421.141,-184.672 423.274,-191.56 417.736,-196.178"/>
<text text-anchor="middle" x="429.075" y="-206" font-family="Helvetica,sans-Serif" font-size="10.00"> +id</text>
</g>
<!-- Node22 -->
<g id="node22" class="node"><title>Node22</title>
<polygon fill="none" stroke="#bfbfbf" points="1025.57,-127.5 1025.57,-184.5 1065.57,-184.5 1065.57,-127.5 1025.57,-127.5"/>
<text text-anchor="middle" x="1045.57" y="-172.5" font-family="Helvetica,sans-Serif" font-size="10.00">ev_io</text>
<polyline fill="none" stroke="#bfbfbf" points="1025.57,-165.5 1065.57,-165.5 "/>
<text text-anchor="middle" x="1045.57" y="-153.5" font-family="Helvetica,sans-Serif" font-size="10.00"> </text>
<polyline fill="none" stroke="#bfbfbf" points="1025.57,-146.5 1065.57,-146.5 "/>
<text text-anchor="middle" x="1045.57" y="-134.5" font-family="Helvetica,sans-Serif" font-size="10.00"> </text>
</g>
<!-- Node22&#45;&gt;Node6 -->
<g id="edge29" class="edge"><title>Node22&#45;&gt;Node6</title>
<path fill="none" stroke="#404040" d="M1041.09,-127.456C1036.7,-109.807 1028.12,-88.0272 1011.57,-76 975.106,-49.4927 668.409,-35.6115 556.899,-31.4043"/>
<polygon fill="none" stroke="#404040" points="556.894,-31.4042 550.751,-35.1798 544.902,-30.9608 551.046,-27.1852 556.894,-31.4042"/>
<text text-anchor="middle" x="1055.57" y="-90" font-family="Helvetica,sans-Serif" font-size="10.00"> +watcher</text>
</g>
</g>
</svg>
        <g id="navigator" transform="translate(0 0)" fill="#404254">
                <rect fill="#f2f5e9" fill-opacity="0.5" stroke="#606060" stroke-width=".5" x="0" y="0" width="60" height="60"/>
                <use id="zoomplus" xlink:href="#zoomPlus" x="17" y="9" onmousedown="handleZoom(evt,'in')"/>
                <use id="zoomminus" xlink:href="#zoomMin" x="42" y="9" onmousedown="handleZoom(evt,'out')"/>
                <use id="reset" xlink:href="#resetDef" x="30" y="36" onmousedown="handleReset()"/>
                <g id="arrowUp" xlink:href="#dirArrow" transform="translate(30 24)" onmousedown="handlePan(0,-1)">
                  <use xlink:href="#rim" fill="#404040">
                        <set attributeName="fill" to="#808080" begin="arrowUp.mouseover" end="arrowUp.mouseout"/>
                  </use>
                  <path fill="none" stroke="white" stroke-width="1.5" d="M0,-3.0v7 M-2.5,-0.5L0,-3.0L2.5,-0.5"/>
                </g>
                <g id="arrowRight" xlink:href="#dirArrow" transform="rotate(90) translate(36 -43)" onmousedown="handlePan(1,0)">
                  <use xlink:href="#rim" fill="#404040">
                        <set attributeName="fill" to="#808080" begin="arrowRight.mouseover" end="arrowRight.mouseout"/>
                  </use>
                  <path fill="none" stroke="white" stroke-width="1.5" d="M0,-3.0v7 M-2.5,-0.5L0,-3.0L2.5,-0.5"/>
                </g>
                <g id="arrowDown" xlink:href="#dirArrow" transform="rotate(180) translate(-30 -48)" onmousedown="handlePan(0,1)">
                  <use xlink:href="#rim" fill="#404040">
                        <set attributeName="fill" to="#808080" begin="arrowDown.mouseover" end="arrowDown.mouseout"/>
                  </use>
                  <path fill="none" stroke="white" stroke-width="1.5" d="M0,-3.0v7 M-2.5,-0.5L0,-3.0L2.5,-0.5"/>
                </g>
                <g id="arrowLeft" xlink:href="#dirArrow" transform="rotate(270) translate(-36 17)" onmousedown="handlePan(-1,0)">
                  <use xlink:href="#rim" fill="#404040">
                        <set attributeName="fill" to="#808080" begin="arrowLeft.mouseover" end="arrowLeft.mouseout"/>
                  </use>
                  <path fill="none" stroke="white" stroke-width="1.5" d="M0,-3.0v7 M-2.5,-0.5L0,-3.0L2.5,-0.5"/>
                </g>
        </g>
        <svg viewBox="0 0 15 15" width="100%" height="30px" preserveAspectRatio="xMaxYMin meet">
         <g id="arrow_out" transform="scale(0.3 0.3)">
          <a xlink:href="a00190_org.svg" target="_base">
           <rect id="button" ry="5" rx="5" y="6" x="6" height="38" width="38"
                fill="#f2f5e9" fill-opacity="0.5" stroke="#606060" stroke-width="1.0"/>
           <path id="arrow"
             d="M 11.500037,31.436501 C 11.940474,20.09759 22.043105,11.32322 32.158766,21.979434 L 37.068811,17.246167 C 37.068811,17.246167 37.088388,32 37.088388,32 L 22.160133,31.978069 C 22.160133,31.978069 26.997745,27.140456 26.997745,27.140456 C 18.528582,18.264221 13.291696,25.230495 11.500037,31.436501 z"
             style="fill:#404040;"/>
          </a>
         </g>
        </svg>
</svg>
