<?xml version="1.0" encoding="UTF-8" standalone="no"?>
<!DOCTYPE svg PUBLIC "-//W3C//DTD SVG 1.1//EN"
 "http://www.w3.org/Graphics/SVG/1.1/DTD/svg11.dtd">
<!-- Generated by graphviz version 2.38.0 (20140413.2041)
 -->
<!-- Title: common/tcpd/example/echo.c Pages: 1 -->
<svg width="371pt" height="162pt"
 viewBox="0.00 0.00 371.00 162.00" xmlns="http://www.w3.org/2000/svg" xmlns:xlink="http://www.w3.org/1999/xlink">
<g id="graph0" class="graph" transform="scale(1 1) rotate(0) translate(4 158)">
<title>common/tcpd/example/echo.c</title>
<!-- Node1 -->
<g id="node1" class="node"><title>Node1</title>
<polygon fill="#bfbfbf" stroke="black" points="188,-123.5 188,-153.5 304,-153.5 304,-123.5 188,-123.5"/>
<text text-anchor="start" x="196" y="-141.5" font-family="Helvetica,sans-Serif" font-size="10.00">common/tcpd/example</text>
<text text-anchor="middle" x="246" y="-130.5" font-family="Helvetica,sans-Serif" font-size="10.00">/echo.c</text>
</g>
<!-- Node2 -->
<g id="node2" class="node"><title>Node2</title>
<g id="a_node2"><a xlink:href="a00038.html" target="_top" xlink:title="hpd_tcpd.h">
<polygon fill="none" stroke="black" points="107.5,-67.5 107.5,-86.5 172.5,-86.5 172.5,-67.5 107.5,-67.5"/>
<text text-anchor="middle" x="140" y="-74.5" font-family="Helvetica,sans-Serif" font-size="10.00">hpd_tcpd.h</text>
</a>
</g>
</g>
<!-- Node1&#45;&gt;Node2 -->
<g id="edge1" class="edge"><title>Node1&#45;&gt;Node2</title>
<path fill="none" stroke="midnightblue" d="M220.879,-123.399C203.73,-113.773 181.135,-101.09 164.188,-91.5772"/>
<polygon fill="midnightblue" stroke="midnightblue" points="165.857,-88.5006 155.424,-86.6578 162.431,-94.6047 165.857,-88.5006"/>
</g>
<!-- Node7 -->
<g id="node7" class="node"><title>Node7</title>
<polygon fill="none" stroke="#bfbfbf" points="191,-67.5 191,-86.5 237,-86.5 237,-67.5 191,-67.5"/>
<text text-anchor="middle" x="214" y="-74.5" font-family="Helvetica,sans-Serif" font-size="10.00">stdio.h</text>
</g>
<!-- Node1&#45;&gt;Node7 -->
<g id="edge6" class="edge"><title>Node1&#45;&gt;Node7</title>
<path fill="none" stroke="midnightblue" d="M238.416,-123.399C233.958,-115.11 228.281,-104.554 223.523,-95.7077"/>
<polygon fill="midnightblue" stroke="midnightblue" points="226.475,-93.8071 218.656,-86.6578 220.31,-97.1227 226.475,-93.8071"/>
</g>
<!-- Node8 -->
<g id="node8" class="node"><title>Node8</title>
<polygon fill="none" stroke="#bfbfbf" points="255,-67.5 255,-86.5 303,-86.5 303,-67.5 255,-67.5"/>
<text text-anchor="middle" x="279" y="-74.5" font-family="Helvetica,sans-Serif" font-size="10.00">stdlib.h</text>
</g>
<!-- Node1&#45;&gt;Node8 -->
<g id="edge7" class="edge"><title>Node1&#45;&gt;Node8</title>
<path fill="none" stroke="midnightblue" d="M253.821,-123.399C258.468,-115.021 264.399,-104.327 269.337,-95.4229"/>
<polygon fill="midnightblue" stroke="midnightblue" points="272.409,-97.1004 274.198,-86.6578 266.287,-93.7052 272.409,-97.1004"/>
</g>
<!-- Node9 -->
<g id="node9" class="node"><title>Node9</title>
<polygon fill="none" stroke="#bfbfbf" points="321.5,-67.5 321.5,-86.5 356.5,-86.5 356.5,-67.5 321.5,-67.5"/>
<text text-anchor="middle" x="339" y="-74.5" font-family="Helvetica,sans-Serif" font-size="10.00">ev.h</text>
</g>
<!-- Node1&#45;&gt;Node9 -->
<g id="edge8" class="edge"><title>Node1&#45;&gt;Node9</title>
<path fill="none" stroke="midnightblue" d="M268.04,-123.399C282.808,-113.951 302.177,-101.559 316.947,-92.1089"/>
<polygon fill="midnightblue" stroke="midnightblue" points="318.93,-94.9953 325.468,-86.6578 315.158,-89.0988 318.93,-94.9953"/>
</g>
<!-- Node3 -->
<g id="node3" class="node"><title>Node3</title>
<polygon fill="none" stroke="#bfbfbf" points="0,-6 0,-25 52,-25 52,-6 0,-6"/>
<text text-anchor="middle" x="26" y="-13" font-family="Helvetica,sans-Serif" font-size="10.00">stddef.h</text>
</g>
<!-- Node2&#45;&gt;Node3 -->
<g id="edge2" class="edge"><title>Node2&#45;&gt;Node3</title>
<path fill="none" stroke="midnightblue" d="M123.667,-67.4751C104.789,-57.6222 73.4935,-41.2883 51.4244,-29.7697"/>
<polygon fill="midnightblue" stroke="midnightblue" points="52.7878,-26.5333 42.3031,-25.0091 49.5488,-32.7389 52.7878,-26.5333"/>
</g>
<!-- Node4 -->
<g id="node4" class="node"><title>Node4</title>
<polygon fill="none" stroke="#bfbfbf" points="70,-6 70,-25 122,-25 122,-6 70,-6"/>
<text text-anchor="middle" x="96" y="-13" font-family="Helvetica,sans-Serif" font-size="10.00">stdarg.h</text>
</g>
<!-- Node2&#45;&gt;Node4 -->
<g id="edge3" class="edge"><title>Node2&#45;&gt;Node4</title>
<path fill="none" stroke="midnightblue" d="M133.696,-67.4751C127.096,-58.5501 116.563,-44.3071 108.307,-33.1425"/>
<polygon fill="midnightblue" stroke="midnightblue" points="111.052,-30.9684 102.292,-25.0091 105.424,-35.1305 111.052,-30.9684"/>
</g>
<!-- Node5 -->
<g id="node5" class="node"><title>Node5</title>
<g id="a_node5"><a xlink:href="a00030.html" target="_top" xlink:title="hpd/hpd_types.h">
<polygon fill="none" stroke="black" points="140.5,-6 140.5,-25 229.5,-25 229.5,-6 140.5,-6"/>
<text text-anchor="middle" x="185" y="-13" font-family="Helvetica,sans-Serif" font-size="10.00">hpd/hpd_types.h</text>
</a>
</g>
</g>
<!-- Node2&#45;&gt;Node5 -->
<g id="edge4" class="edge"><title>Node2&#45;&gt;Node5</title>
<path fill="none" stroke="midnightblue" d="M146.447,-67.4751C153.197,-58.5501 163.969,-44.3071 172.413,-33.1425"/>
<polygon fill="midnightblue" stroke="midnightblue" points="175.324,-35.0962 178.565,-25.0091 169.741,-30.8737 175.324,-35.0962"/>
</g>
<!-- Node6 -->
<g id="node6" class="node"><title>Node6</title>
<g id="a_node6"><a xlink:href="a00058.html" target="_top" xlink:title="hpd/common/hpd_tcpd\l_types.h">
<polygon fill="none" stroke="black" points="247,-0.5 247,-30.5 363,-30.5 363,-0.5 247,-0.5"/>
<text text-anchor="start" x="255" y="-18.5" font-family="Helvetica,sans-Serif" font-size="10.00">hpd/common/hpd_tcpd</text>
<text text-anchor="middle" x="305" y="-7.5" font-family="Helvetica,sans-Serif" font-size="10.00">_types.h</text>
</a>
</g>
</g>
<!-- Node2&#45;&gt;Node6 -->
<g id="edge5" class="edge"><title>Node2&#45;&gt;Node6</title>
<path fill="none" stroke="midnightblue" d="M163.64,-67.4751C187.763,-58.7765 225.893,-45.0264 256.476,-33.9981"/>
<polygon fill="midnightblue" stroke="midnightblue" points="257.893,-37.2078 266.113,-30.523 255.518,-30.6228 257.893,-37.2078"/>
</g>
</g>
</svg>
