<?xml version="1.0" encoding="UTF-8" standalone="no"?>
<!DOCTYPE svg PUBLIC "-//W3C//DTD SVG 1.1//EN"
 "http://www.w3.org/Graphics/SVG/1.1/DTD/svg11.dtd">
<!-- Generated by graphviz version 2.38.0 (20140413.2041)
 -->
<!-- Title: hpd/include/hpd/hpd_adapter_api.h Pages: 1 -->
<svg width="238pt" height="151pt"
 viewBox="0.00 0.00 237.50 151.00" xmlns="http://www.w3.org/2000/svg" xmlns:xlink="http://www.w3.org/1999/xlink">
<g id="graph0" class="graph" transform="scale(1 1) rotate(0) translate(4 147)">
<title>hpd/include/hpd/hpd_adapter_api.h</title>
<!-- Node1 -->
<g id="node1" class="node"><title>Node1</title>
<polygon fill="#bfbfbf" stroke="black" points="81.5,-112.5 81.5,-142.5 185.5,-142.5 185.5,-112.5 81.5,-112.5"/>
<text text-anchor="start" x="89.5" y="-130.5" font-family="Helvetica,sans-Serif" font-size="10.00">hpd/include/hpd/hpd</text>
<text text-anchor="middle" x="133.5" y="-119.5" font-family="Helvetica,sans-Serif" font-size="10.00">_adapter_api.h</text>
</g>
<!-- Node2 -->
<g id="node2" class="node"><title>Node2</title>
<g id="a_node2"><a xlink:href="a00075.html" target="_top" xlink:title="hpd/hpd_shared_api.h">
<polygon fill="none" stroke="black" points="77.5,-56.5 77.5,-75.5 189.5,-75.5 189.5,-56.5 77.5,-56.5"/>
<text text-anchor="middle" x="133.5" y="-63.5" font-family="Helvetica,sans-Serif" font-size="10.00">hpd/hpd_shared_api.h</text>
</a>
</g>
</g>
<!-- Node1&#45;&gt;Node2 -->
<g id="edge1" class="edge"><title>Node1&#45;&gt;Node2</title>
<path fill="none" stroke="midnightblue" d="M133.5,-112.399C133.5,-104.466 133.5,-94.458 133.5,-85.8583"/>
<polygon fill="midnightblue" stroke="midnightblue" points="137,-85.6577 133.5,-75.6578 130,-85.6578 137,-85.6577"/>
</g>
<!-- Node3 -->
<g id="node3" class="node"><title>Node3</title>
<g id="a_node3"><a xlink:href="a00030.html" target="_top" xlink:title="hpd/hpd_types.h">
<polygon fill="none" stroke="black" points="0,-0.5 0,-19.5 89,-19.5 89,-0.5 0,-0.5"/>
<text text-anchor="middle" x="44.5" y="-7.5" font-family="Helvetica,sans-Serif" font-size="10.00">hpd/hpd_types.h</text>
</a>
</g>
</g>
<!-- Node2&#45;&gt;Node3 -->
<g id="edge2" class="edge"><title>Node2&#45;&gt;Node3</title>
<path fill="none" stroke="midnightblue" d="M119.201,-56.324C105.317,-47.9002 84.0076,-34.9709 67.6963,-25.0741"/>
<polygon fill="midnightblue" stroke="midnightblue" points="69.1289,-21.8495 58.7639,-19.6545 65.4978,-27.8341 69.1289,-21.8495"/>
</g>
<!-- Node4 -->
<g id="node4" class="node"><title>Node4</title>
<polygon fill="none" stroke="#bfbfbf" points="107.5,-0.5 107.5,-19.5 159.5,-19.5 159.5,-0.5 107.5,-0.5"/>
<text text-anchor="middle" x="133.5" y="-7.5" font-family="Helvetica,sans-Serif" font-size="10.00">stddef.h</text>
</g>
<!-- Node2&#45;&gt;Node4 -->
<g id="edge3" class="edge"><title>Node2&#45;&gt;Node4</title>
<path fill="none" stroke="midnightblue" d="M133.5,-56.083C133.5,-49.0059 133.5,-38.8611 133.5,-29.9865"/>
<polygon fill="midnightblue" stroke="midnightblue" points="137,-29.751 133.5,-19.7511 130,-29.7511 137,-29.751"/>
</g>
<!-- Node5 -->
<g id="node5" class="node"><title>Node5</title>
<polygon fill="none" stroke="#bfbfbf" points="177.5,-0.5 177.5,-19.5 229.5,-19.5 229.5,-0.5 177.5,-0.5"/>
<text text-anchor="middle" x="203.5" y="-7.5" font-family="Helvetica,sans-Serif" font-size="10.00">stdarg.h</text>
</g>
<!-- Node2&#45;&gt;Node5 -->
<g id="edge4" class="edge"><title>Node2&#45;&gt;Node5</title>
<path fill="none" stroke="midnightblue" d="M144.747,-56.324C155.297,-48.1849 171.301,-35.8395 183.942,-26.0874"/>
<polygon fill="midnightblue" stroke="midnightblue" points="186.269,-28.7132 192.049,-19.8339 181.993,-23.1707 186.269,-28.7132"/>
</g>
</g>
</svg>
