<?xml version="1.0" encoding="UTF-8" standalone="no"?>
<!DOCTYPE svg PUBLIC "-//W3C//DTD SVG 1.1//EN"
 "http://www.w3.org/Graphics/SVG/1.1/DTD/svg11.dtd">
<!-- Generated by graphviz version 2.38.0 (20140413.2041)
 -->
<!-- Title: hpd Pages: 1 -->
<!--zoomable 320 -->
<svg id="main" version="1.1" xmlns="http://www.w3.org/2000/svg" xmlns:xlink="http://www.w3.org/1999/xlink" xml:space="preserve" onload="init(evt)">
<style type="text/css"><![CDATA[
.edge:hover path { stroke: red; }
.edge:hover polygon { stroke: red; fill: red; }
]]></style>
<script type="text/javascript"><![CDATA[
var edges = document.getElementsByTagName('g');
if (edges && edges.length) {
  for (var i=0;i<edges.length;i++) {
    if (edges[i].id.substr(0,4)=='edge') {
      edges[i].setAttribute('class','edge');
    }
  }
}
]]></script>
        <defs>
                <circle id="rim" cx="0" cy="0" r="7"/>
                <circle id="rim2" cx="0" cy="0" r="3.5"/>
                <g id="zoomPlus">
                        <use xlink:href="#rim" fill="#404040">
                                <set attributeName="fill" to="#808080" begin="zoomplus.mouseover" end="zoomplus.mouseout"/>
                        </use>
                        <path d="M-4,0h8M0,-4v8" fill="none" stroke="white" stroke-width="1.5" pointer-events="none"/>
                </g>
                <g id="zoomMin">
                        <use xlink:href="#rim" fill="#404040">
                                <set attributeName="fill" to="#808080" begin="zoomminus.mouseover" end="zoomminus.mouseout"/>
                        </use>
                        <path d="M-4,0h8" fill="none" stroke="white" stroke-width="1.5" pointer-events="none"/>
                </g>
                <g id="dirArrow">
                        <path fill="none" stroke="white" stroke-width="1.5" d="M0,-3.0v7 M-2.5,-0.5L0,-3.0L2.5,-0.5"/>
                </g>
               <g id="resetDef">
                       <use xlink:href="#rim2" fill="#404040">
                               <set attributeName="fill" to="#808080" begin="reset.mouseover" end="reset.mouseout"/>
                       </use>
               </g>
        </defs>

<script type="text/javascript">
var viewWidth = 794;
var viewHeight = 320;
var sectionId = 'dynsection-2';
</script>
<script xlink:href="svgpan.js"/>
<svg id="graph" class="graph">
<g id="viewport">
<title>hpd</title>
<!-- Node1 -->
<g id="node1" class="node"><title>Node1</title>
<polygon fill="#bfbfbf" stroke="black" points="322,-105.5 322,-162.5 354,-162.5 354,-105.5 322,-105.5"/>
<text text-anchor="middle" x="338" y="-150.5" font-family="Helvetica,sans-Serif" font-size="10.00">hpd</text>
<polyline fill="none" stroke="black" points="322,-143.5 354,-143.5 "/>
<text text-anchor="middle" x="338" y="-131.5" font-family="Helvetica,sans-Serif" font-size="10.00"> </text>
<polyline fill="none" stroke="black" points="322,-124.5 354,-124.5 "/>
<text text-anchor="middle" x="338" y="-112.5" font-family="Helvetica,sans-Serif" font-size="10.00"> </text>
</g>
<!-- Node5 -->
<g id="node5" class="node"><title>Node5</title>
<g id="a_node5"><a xlink:href="a00018.html#a00113" target="_top" xlink:title="{hpd_configuration\n||}">
<polygon fill="none" stroke="black" points="208.5,-0.5 208.5,-57.5 301.5,-57.5 301.5,-0.5 208.5,-0.5"/>
<text text-anchor="middle" x="255" y="-45.5" font-family="Helvetica,sans-Serif" font-size="10.00">hpd_configuration</text>
<polyline fill="none" stroke="black" points="208.5,-38.5 301.5,-38.5 "/>
<text text-anchor="middle" x="255" y="-26.5" font-family="Helvetica,sans-Serif" font-size="10.00"> </text>
<polyline fill="none" stroke="black" points="208.5,-19.5 301.5,-19.5 "/>
<text text-anchor="middle" x="255" y="-7.5" font-family="Helvetica,sans-Serif" font-size="10.00"> </text>
</a>
</g>
</g>
<!-- Node1&#45;&gt;Node5 -->
<g id="edge6" class="edge"><title>Node1&#45;&gt;Node5</title>
<path fill="none" stroke="#404040" d="M321.561,-120.504C310.885,-111.859 297.124,-99.6679 287,-87 282.416,-81.2638 278.105,-74.786 274.222,-68.3079"/>
<polygon fill="none" stroke="#404040" points="274.034,-67.9766 267.596,-64.7285 268.118,-57.5363 274.556,-60.7844 274.034,-67.9766"/>
<text text-anchor="middle" x="299.5" y="-79" font-family="Helvetica,sans-Serif" font-size="10.00"> +hpd</text>
</g>
<!-- Node12 -->
<g id="node12" class="node"><title>Node12</title>
<g id="a_node12"><a xlink:href="a00029.html" target="_top" xlink:title="{hpd_module\n||+ TAILQ_ENTRY()\l}">
<polygon fill="none" stroke="black" points="520,-0.5 520,-57.5 620,-57.5 620,-0.5 520,-0.5"/>
<text text-anchor="middle" x="570" y="-45.5" font-family="Helvetica,sans-Serif" font-size="10.00">hpd_module</text>
<polyline fill="none" stroke="black" points="520,-38.5 620,-38.5 "/>
<text text-anchor="middle" x="570" y="-26.5" font-family="Helvetica,sans-Serif" font-size="10.00"> </text>
<polyline fill="none" stroke="black" points="520,-19.5 620,-19.5 "/>
<text text-anchor="start" x="528" y="-7.5" font-family="Helvetica,sans-Serif" font-size="10.00">+ TAILQ_ENTRY()</text>
</a>
</g>
</g>
<!-- Node1&#45;&gt;Node12 -->
<g id="edge15" class="edge"><title>Node1&#45;&gt;Node12</title>
<path fill="none" stroke="#404040" d="M354.449,-130.597C384.669,-125.702 450.469,-112.788 500,-87 511.156,-81.1919 522.196,-73.424 532.097,-65.4956"/>
<polygon fill="none" stroke="#404040" points="532.367,-65.2698 534.411,-58.3542 541.58,-57.5805 539.537,-64.4961 532.367,-65.2698"/>
<text text-anchor="middle" x="529.5" y="-79" font-family="Helvetica,sans-Serif" font-size="10.00"> +hpd</text>
</g>
<!-- Node2 -->
<g id="node2" class="node"><title>Node2</title>
<polygon fill="none" stroke="#bfbfbf" points="582,-254.5 582,-311.5 684,-311.5 684,-254.5 582,-254.5"/>
<text text-anchor="middle" x="633" y="-299.5" font-family="Helvetica,sans-Serif" font-size="10.00">struct hpd_modules</text>
<polyline fill="none" stroke="#bfbfbf" points="582,-292.5 684,-292.5 "/>
<text text-anchor="middle" x="633" y="-280.5" font-family="Helvetica,sans-Serif" font-size="10.00"> </text>
<polyline fill="none" stroke="#bfbfbf" points="582,-273.5 684,-273.5 "/>
<text text-anchor="middle" x="633" y="-261.5" font-family="Helvetica,sans-Serif" font-size="10.00"> </text>
</g>
<!-- Node2&#45;&gt;Node1 -->
<g id="edge1" class="edge"><title>Node2&#45;&gt;Node1</title>
<path fill="none" stroke="#404040" d="M631.818,-254.193C629.284,-231.138 621.907,-199.284 601,-181 583.413,-165.62 430.409,-145.935 366.189,-138.264"/>
<polygon fill="none" stroke="#404040" points="366.17,-138.262 359.743,-141.531 354.253,-136.855 360.681,-133.586 366.17,-138.262"/>
<text text-anchor="middle" x="652" y="-206" font-family="Helvetica,sans-Serif" font-size="10.00"> +modules</text>
</g>
<!-- Node3 -->
<g id="node3" class="node"><title>Node3</title>
<polygon fill="none" stroke="#bfbfbf" points="0,-254.5 0,-311.5 86,-311.5 86,-254.5 0,-254.5"/>
<text text-anchor="middle" x="43" y="-299.5" font-family="Helvetica,sans-Serif" font-size="10.00">hpd_ev_loop_t *</text>
<polyline fill="none" stroke="#bfbfbf" points="0,-292.5 86,-292.5 "/>
<text text-anchor="middle" x="43" y="-280.5" font-family="Helvetica,sans-Serif" font-size="10.00"> </text>
<polyline fill="none" stroke="#bfbfbf" points="0,-273.5 86,-273.5 "/>
<text text-anchor="middle" x="43" y="-261.5" font-family="Helvetica,sans-Serif" font-size="10.00"> </text>
</g>
<!-- Node3&#45;&gt;Node1 -->
<g id="edge2" class="edge"><title>Node3&#45;&gt;Node1</title>
<path fill="none" stroke="#404040" d="M47.1239,-254.439C52.2073,-230.882 63.2937,-198.157 87,-181 121.895,-155.746 238.501,-174.547 280,-163 290.569,-160.059 301.555,-155.26 311.087,-150.459"/>
<polygon fill="none" stroke="#404040" points="311.272,-150.361 314.691,-144.012 321.867,-144.726 318.447,-151.075 311.272,-150.361"/>
<text text-anchor="middle" x="101" y="-206" font-family="Helvetica,sans-Serif" font-size="10.00"> +loop</text>
</g>
<!-- Node4 -->
<g id="node4" class="node"><title>Node4</title>
<polygon fill="none" stroke="#bfbfbf" points="104.5,-254.5 104.5,-311.5 139.5,-311.5 139.5,-254.5 104.5,-254.5"/>
<text text-anchor="middle" x="122" y="-299.5" font-family="Helvetica,sans-Serif" font-size="10.00">char</text>
<polyline fill="none" stroke="#bfbfbf" points="104.5,-292.5 139.5,-292.5 "/>
<text text-anchor="middle" x="122" y="-280.5" font-family="Helvetica,sans-Serif" font-size="10.00"> </text>
<polyline fill="none" stroke="#bfbfbf" points="104.5,-273.5 139.5,-273.5 "/>
<text text-anchor="middle" x="122" y="-261.5" font-family="Helvetica,sans-Serif" font-size="10.00"> </text>
</g>
<!-- Node4&#45;&gt;Node1 -->
<g id="edge3" class="edge"><title>Node4&#45;&gt;Node1</title>
<path fill="none" stroke="#404040" d="M118.773,-254.327C117.764,-231.357 120.527,-199.551 140,-181 162.711,-159.364 249.932,-171.934 280,-163 290.516,-159.876 301.49,-155.034 311.027,-150.249"/>
<polygon fill="none" stroke="#404040" points="311.203,-150.156 314.646,-143.82 321.819,-144.561 318.376,-150.898 311.203,-150.156"/>
<text text-anchor="middle" x="171" y="-211.5" font-family="Helvetica,sans-Serif" font-size="10.00"> +argv0</text>
<text text-anchor="middle" x="171" y="-200.5" font-family="Helvetica,sans-Serif" font-size="10.00">+option2name</text>
</g>
<!-- Node5&#45;&gt;Node1 -->
<g id="edge4" class="edge"><title>Node5&#45;&gt;Node1</title>
<path fill="none" stroke="#404040" d="M298.152,-57.6406C304.716,-63.1572 310.966,-69.3301 316,-76 320.074,-81.3975 323.483,-87.6415 326.305,-93.9757"/>
<polygon fill="none" stroke="#404040" points="326.373,-94.1462 332.293,-98.2628 330.77,-105.311 324.85,-101.195 326.373,-94.1462"/>
<text text-anchor="middle" x="355.5" y="-79" font-family="Helvetica,sans-Serif" font-size="10.00"> +configuration</text>
</g>
<!-- Node6 -->
<g id="node6" class="node"><title>Node6</title>
<polygon fill="none" stroke="#bfbfbf" points="168.5,-105.5 168.5,-162.5 271.5,-162.5 271.5,-105.5 168.5,-105.5"/>
<text text-anchor="middle" x="220" y="-150.5" font-family="Helvetica,sans-Serif" font-size="10.00">struct hpd_adapters</text>
<polyline fill="none" stroke="#bfbfbf" points="168.5,-143.5 271.5,-143.5 "/>
<text text-anchor="middle" x="220" y="-131.5" font-family="Helvetica,sans-Serif" font-size="10.00"> </text>
<polyline fill="none" stroke="#bfbfbf" points="168.5,-124.5 271.5,-124.5 "/>
<text text-anchor="middle" x="220" y="-112.5" font-family="Helvetica,sans-Serif" font-size="10.00"> </text>
</g>
<!-- Node6&#45;&gt;Node5 -->
<g id="edge5" class="edge"><title>Node6&#45;&gt;Node5</title>
<path fill="none" stroke="#404040" d="M217.116,-105.45C216.99,-95.9058 217.852,-85.2791 221,-76 221.915,-73.3021 223.052,-70.6312 224.35,-68.0151"/>
<polygon fill="none" stroke="#404040" points="224.363,-67.9928 223.947,-60.7937 230.432,-57.6407 230.848,-64.8398 224.363,-67.9928"/>
<text text-anchor="middle" x="244.5" y="-79" font-family="Helvetica,sans-Serif" font-size="10.00"> +adapters</text>
</g>
<!-- Node7 -->
<g id="node7" class="node"><title>Node7</title>
<polygon fill="none" stroke="#bfbfbf" points="48,-105.5 48,-162.5 150,-162.5 150,-105.5 48,-105.5"/>
<text text-anchor="middle" x="99" y="-150.5" font-family="Helvetica,sans-Serif" font-size="10.00">struct hpd_listeners</text>
<polyline fill="none" stroke="#bfbfbf" points="48,-143.5 150,-143.5 "/>
<text text-anchor="middle" x="99" y="-131.5" font-family="Helvetica,sans-Serif" font-size="10.00"> </text>
<polyline fill="none" stroke="#bfbfbf" points="48,-124.5 150,-124.5 "/>
<text text-anchor="middle" x="99" y="-112.5" font-family="Helvetica,sans-Serif" font-size="10.00"> </text>
</g>
<!-- Node7&#45;&gt;Node5 -->
<g id="edge7" class="edge"><title>Node7&#45;&gt;Node5</title>
<path fill="none" stroke="#404040" d="M130.418,-105.262C142.148,-95.4932 155.823,-84.7707 169,-76 177.91,-70.0695 187.663,-64.2631 197.3,-58.8812"/>
<polygon fill="none" stroke="#404040" points="197.544,-58.7476 200.896,-52.3629 208.079,-53.0012 204.727,-59.386 197.544,-58.7476"/>
<text text-anchor="middle" x="192" y="-79" font-family="Helvetica,sans-Serif" font-size="10.00"> +listeners</text>
</g>
<!-- Node8 -->
<g id="node8" class="node"><title>Node8</title>
<polygon fill="none" stroke="#bfbfbf" points="157.5,-254.5 157.5,-311.5 260.5,-311.5 260.5,-254.5 157.5,-254.5"/>
<text text-anchor="middle" x="209" y="-299.5" font-family="Helvetica,sans-Serif" font-size="10.00">hpd_argp_option_t *</text>
<polyline fill="none" stroke="#bfbfbf" points="157.5,-292.5 260.5,-292.5 "/>
<text text-anchor="middle" x="209" y="-280.5" font-family="Helvetica,sans-Serif" font-size="10.00"> </text>
<polyline fill="none" stroke="#bfbfbf" points="157.5,-273.5 260.5,-273.5 "/>
<text text-anchor="middle" x="209" y="-261.5" font-family="Helvetica,sans-Serif" font-size="10.00"> </text>
</g>
<!-- Node8&#45;&gt;Node1 -->
<g id="edge8" class="edge"><title>Node8&#45;&gt;Node1</title>
<path fill="none" stroke="#404040" d="M205.373,-254.377C204.031,-232.06 205.981,-201.151 223,-181 240.142,-160.704 255.307,-172.8 280,-163 290.196,-158.953 301.096,-153.896 310.662,-149.197"/>
<polygon fill="none" stroke="#404040" points="310.81,-149.122 314.376,-142.854 321.533,-143.735 317.968,-150.003 310.81,-149.122"/>
<text text-anchor="middle" x="243.5" y="-206" font-family="Helvetica,sans-Serif" font-size="10.00"> +options</text>
</g>
<!-- Node9 -->
<g id="node9" class="node"><title>Node9</title>
<polygon fill="none" stroke="#bfbfbf" points="278.5,-254.5 278.5,-311.5 307.5,-311.5 307.5,-254.5 278.5,-254.5"/>
<text text-anchor="middle" x="293" y="-299.5" font-family="Helvetica,sans-Serif" font-size="10.00">int</text>
<polyline fill="none" stroke="#bfbfbf" points="278.5,-292.5 307.5,-292.5 "/>
<text text-anchor="middle" x="293" y="-280.5" font-family="Helvetica,sans-Serif" font-size="10.00"> </text>
<polyline fill="none" stroke="#bfbfbf" points="278.5,-273.5 307.5,-273.5 "/>
<text text-anchor="middle" x="293" y="-261.5" font-family="Helvetica,sans-Serif" font-size="10.00"> </text>
</g>
<!-- Node9&#45;&gt;Node1 -->
<g id="edge9" class="edge"><title>Node9&#45;&gt;Node1</title>
<path fill="none" stroke="#404040" d="M278.724,-254.486C269.859,-233.366 262.196,-204.021 274,-181 281.804,-165.78 297.246,-154.456 311.006,-146.852"/>
<polygon fill="none" stroke="#404040" points="311.246,-146.731 314.806,-140.461 321.964,-141.336 318.403,-147.607 311.246,-146.731"/>
<text text-anchor="middle" x="327.5" y="-211.5" font-family="Helvetica,sans-Serif" font-size="10.00"> +module_options_count</text>
<text text-anchor="middle" x="327.5" y="-200.5" font-family="Helvetica,sans-Serif" font-size="10.00">+options_count</text>
</g>
<!-- Node10 -->
<g id="node10" class="node"><title>Node10</title>
<polygon fill="none" stroke="#bfbfbf" points="374,-254.5 374,-311.5 432,-311.5 432,-254.5 374,-254.5"/>
<text text-anchor="middle" x="403" y="-299.5" font-family="Helvetica,sans-Serif" font-size="10.00">ev_signal</text>
<polyline fill="none" stroke="#bfbfbf" points="374,-292.5 432,-292.5 "/>
<text text-anchor="middle" x="403" y="-280.5" font-family="Helvetica,sans-Serif" font-size="10.00"> </text>
<polyline fill="none" stroke="#bfbfbf" points="374,-273.5 432,-273.5 "/>
<text text-anchor="middle" x="403" y="-261.5" font-family="Helvetica,sans-Serif" font-size="10.00"> </text>
</g>
<!-- Node10&#45;&gt;Node1 -->
<g id="edge10" class="edge"><title>Node10&#45;&gt;Node1</title>
<path fill="none" stroke="#404040" d="M400.996,-254.498C398.54,-233.386 393.087,-204.044 381,-181 376.461,-172.348 369.851,-164.13 363.168,-157.098"/>
<polygon fill="none" stroke="#404040" points="362.772,-156.711 355.687,-155.371 354.199,-148.315 361.284,-149.655 362.772,-156.711"/>
<text text-anchor="middle" x="439" y="-211.5" font-family="Helvetica,sans-Serif" font-size="10.00"> +sigterm_watcher</text>
<text text-anchor="middle" x="439" y="-200.5" font-family="Helvetica,sans-Serif" font-size="10.00">+sigint_watcher</text>
</g>
<!-- Node11 -->
<g id="node11" class="node"><title>Node11</title>
<polygon fill="none" stroke="#bfbfbf" points="450.5,-254.5 450.5,-311.5 563.5,-311.5 563.5,-254.5 450.5,-254.5"/>
<text text-anchor="middle" x="507" y="-299.5" font-family="Helvetica,sans-Serif" font-size="10.00">struct hpd_ev_asyncs</text>
<polyline fill="none" stroke="#bfbfbf" points="450.5,-292.5 563.5,-292.5 "/>
<text text-anchor="middle" x="507" y="-280.5" font-family="Helvetica,sans-Serif" font-size="10.00"> </text>
<polyline fill="none" stroke="#bfbfbf" points="450.5,-273.5 563.5,-273.5 "/>
<text text-anchor="middle" x="507" y="-261.5" font-family="Helvetica,sans-Serif" font-size="10.00"> </text>
</g>
<!-- Node11&#45;&gt;Node1 -->
<g id="edge11" class="edge"><title>Node11&#45;&gt;Node1</title>
<path fill="none" stroke="#404040" d="M507.823,-254.142C506.973,-231.684 502.162,-200.702 484,-181 453.604,-148.026 399.841,-138.536 366.725,-135.897"/>
<polygon fill="none" stroke="#404040" points="366.306,-135.872 360.078,-139.505 354.328,-135.153 360.557,-131.52 366.306,-135.872"/>
<text text-anchor="middle" x="551.5" y="-228" font-family="Helvetica,sans-Serif" font-size="10.00"> +respond_watchers</text>
<text text-anchor="middle" x="551.5" y="-217" font-family="Helvetica,sans-Serif" font-size="10.00">+request_watchers</text>
<text text-anchor="middle" x="551.5" y="-206" font-family="Helvetica,sans-Serif" font-size="10.00">+changed_watchers</text>
<text text-anchor="middle" x="551.5" y="-195" font-family="Helvetica,sans-Serif" font-size="10.00">+attached_watchers</text>
<text text-anchor="middle" x="551.5" y="-184" font-family="Helvetica,sans-Serif" font-size="10.00">+detached_watchers</text>
</g>
<!-- Node12&#45;&gt;Node1 -->
<g id="edge12" class="edge"><title>Node12&#45;&gt;Node1</title>
<path fill="none" stroke="#404040" d="M519.819,-42.7013C491.83,-50.6286 456.724,-61.991 427,-76 404.733,-86.4944 381.362,-101.643 364.16,-113.686"/>
<polygon fill="none" stroke="#404040" points="364.079,-113.744 361.518,-120.485 354.311,-120.714 356.872,-113.973 364.079,-113.744"/>
<text text-anchor="middle" x="463.5" y="-79" font-family="Helvetica,sans-Serif" font-size="10.00"> +option2module</text>
</g>
<!-- Node13 -->
<g id="node13" class="node"><title>Node13</title>
<g id="a_node13"><a xlink:href="a00030.html#a00123" target="_top" xlink:title="[Application API Callbacks] ">
<polygon fill="none" stroke="black" points="609,-105.5 609,-162.5 697,-162.5 697,-105.5 609,-105.5"/>
<text text-anchor="middle" x="653" y="-150.5" font-family="Helvetica,sans-Serif" font-size="10.00">hpd_module_def</text>
<polyline fill="none" stroke="black" points="609,-143.5 697,-143.5 "/>
<text text-anchor="middle" x="653" y="-131.5" font-family="Helvetica,sans-Serif" font-size="10.00"> </text>
<polyline fill="none" stroke="black" points="609,-124.5 697,-124.5 "/>
<text text-anchor="middle" x="653" y="-112.5" font-family="Helvetica,sans-Serif" font-size="10.00"> </text>
</a>
</g>
</g>
<!-- Node13&#45;&gt;Node12 -->
<g id="edge13" class="edge"><title>Node13&#45;&gt;Node12</title>
<path fill="none" stroke="#404040" d="M630.758,-105.398C621.268,-93.6215 610.052,-79.703 599.856,-67.0505"/>
<polygon fill="none" stroke="#404040" points="599.833,-67.0221 592.954,-64.8601 592.304,-57.6783 599.183,-59.8404 599.833,-67.0221"/>
<text text-anchor="middle" x="625.5" y="-79" font-family="Helvetica,sans-Serif" font-size="10.00"> +def</text>
</g>
<!-- Node14 -->
<g id="node14" class="node"><title>Node14</title>
<polygon fill="none" stroke="#bfbfbf" points="702,-254.5 702,-311.5 786,-311.5 786,-254.5 702,-254.5"/>
<text text-anchor="middle" x="744" y="-299.5" font-family="Helvetica,sans-Serif" font-size="10.00">enum hpd_error</text>
<polyline fill="none" stroke="#bfbfbf" points="702,-292.5 786,-292.5 "/>
<text text-anchor="middle" x="744" y="-280.5" font-family="Helvetica,sans-Serif" font-size="10.00"> </text>
<polyline fill="none" stroke="#bfbfbf" points="702,-273.5 786,-273.5 "/>
<text text-anchor="middle" x="744" y="-261.5" font-family="Helvetica,sans-Serif" font-size="10.00"> </text>
</g>
<!-- Node14&#45;&gt;Node13 -->
<g id="edge14" class="edge"><title>Node14&#45;&gt;Node13</title>
<path fill="none" stroke="#404040" d="M727.685,-254.408C715.543,-234.017 698.466,-205.636 683,-181 681.359,-178.386 679.653,-175.697 677.925,-172.994"/>
<polygon fill="none" stroke="#404040" points="677.745,-172.715 671.131,-169.841 671.241,-162.631 677.854,-165.505 677.745,-172.715"/>
<text text-anchor="middle" x="749.5" y="-228" font-family="Helvetica,sans-Serif" font-size="10.00"> +on_create</text>
<text text-anchor="middle" x="749.5" y="-217" font-family="Helvetica,sans-Serif" font-size="10.00">+on_stop</text>
<text text-anchor="middle" x="749.5" y="-206" font-family="Helvetica,sans-Serif" font-size="10.00">+on_destroy</text>
<text text-anchor="middle" x="749.5" y="-195" font-family="Helvetica,sans-Serif" font-size="10.00">+on_start</text>
<text text-anchor="middle" x="749.5" y="-184" font-family="Helvetica,sans-Serif" font-size="10.00">+on_parse_opt</text>
</g>
<!-- Node15 -->
<g id="node15" class="node"><title>Node15</title>
<polygon fill="none" stroke="#bfbfbf" points="715.5,-105.5 715.5,-162.5 756.5,-162.5 756.5,-105.5 715.5,-105.5"/>
<text text-anchor="middle" x="736" y="-150.5" font-family="Helvetica,sans-Serif" font-size="10.00">void *</text>
<polyline fill="none" stroke="#bfbfbf" points="715.5,-143.5 756.5,-143.5 "/>
<text text-anchor="middle" x="736" y="-131.5" font-family="Helvetica,sans-Serif" font-size="10.00"> </text>
<polyline fill="none" stroke="#bfbfbf" points="715.5,-124.5 756.5,-124.5 "/>
<text text-anchor="middle" x="736" y="-112.5" font-family="Helvetica,sans-Serif" font-size="10.00"> </text>
</g>
<!-- Node15&#45;&gt;Node12 -->
<g id="edge16" class="edge"><title>Node15&#45;&gt;Node12</title>
<path fill="none" stroke="#404040" d="M715.259,-112.431C712.25,-109.81 709.114,-107.259 706,-105 682.718,-88.1153 655.227,-72.2807 631.077,-59.5523"/>
<polygon fill="none" stroke="#404040" points="630.894,-59.4575 623.726,-60.2442 620.243,-53.9301 627.411,-53.1434 630.894,-59.4575"/>
<text text-anchor="middle" x="692" y="-79" font-family="Helvetica,sans-Serif" font-size="10.00"> +data</text>
</g>
<!-- Node16 -->
<g id="node16" class="node"><title>Node16</title>
<polygon fill="none" stroke="#bfbfbf" points="549,-105.5 549,-162.5 591,-162.5 591,-105.5 549,-105.5"/>
<text text-anchor="middle" x="570" y="-150.5" font-family="Helvetica,sans-Serif" font-size="10.00">char *</text>
<polyline fill="none" stroke="#bfbfbf" points="549,-143.5 591,-143.5 "/>
<text text-anchor="middle" x="570" y="-131.5" font-family="Helvetica,sans-Serif" font-size="10.00"> </text>
<polyline fill="none" stroke="#bfbfbf" points="549,-124.5 591,-124.5 "/>
<text text-anchor="middle" x="570" y="-112.5" font-family="Helvetica,sans-Serif" font-size="10.00"> </text>
</g>
<!-- Node16&#45;&gt;Node12 -->
<g id="edge17" class="edge"><title>Node16&#45;&gt;Node12</title>
<path fill="none" stroke="#404040" d="M570,-105.398C570,-94.5451 570,-81.8731 570,-70.0493"/>
<polygon fill="none" stroke="#404040" points="570,-69.6783 566,-63.6783 570,-57.6783 574,-63.6783 570,-69.6783"/>
<text text-anchor="middle" x="578.5" y="-79" font-family="Helvetica,sans-Serif" font-size="10.00"> +id</text>
</g>
</g>
</svg>
        <g id="navigator" transform="translate(0 0)" fill="#404254">
                <rect fill="#f2f5e9" fill-opacity="0.5" stroke="#606060" stroke-width=".5" x="0" y="0" width="60" height="60"/>
                <use id="zoomplus" xlink:href="#zoomPlus" x="17" y="9" onmousedown="handleZoom(evt,'in')"/>
                <use id="zoomminus" xlink:href="#zoomMin" x="42" y="9" onmousedown="handleZoom(evt,'out')"/>
                <use id="reset" xlink:href="#resetDef" x="30" y="36" onmousedown="handleReset()"/>
                <g id="arrowUp" xlink:href="#dirArrow" transform="translate(30 24)" onmousedown="handlePan(0,-1)">
                  <use xlink:href="#rim" fill="#404040">
                        <set attributeName="fill" to="#808080" begin="arrowUp.mouseover" end="arrowUp.mouseout"/>
                  </use>
                  <path fill="none" stroke="white" stroke-width="1.5" d="M0,-3.0v7 M-2.5,-0.5L0,-3.0L2.5,-0.5"/>
                </g>
                <g id="arrowRight" xlink:href="#dirArrow" transform="rotate(90) translate(36 -43)" onmousedown="handlePan(1,0)">
                  <use xlink:href="#rim" fill="#404040">
                        <set attributeName="fill" to="#808080" begin="arrowRight.mouseover" end="arrowRight.mouseout"/>
                  </use>
                  <path fill="none" stroke="white" stroke-width="1.5" d="M0,-3.0v7 M-2.5,-0.5L0,-3.0L2.5,-0.5"/>
                </g>
                <g id="arrowDown" xlink:href="#dirArrow" transform="rotate(180) translate(-30 -48)" onmousedown="handlePan(0,1)">
                  <use xlink:href="#rim" fill="#404040">
                        <set attributeName="fill" to="#808080" begin="arrowDown.mouseover" end="arrowDown.mouseout"/>
                  </use>
                  <path fill="none" stroke="white" stroke-width="1.5" d="M0,-3.0v7 M-2.5,-0.5L0,-3.0L2.5,-0.5"/>
                </g>
                <g id="arrowLeft" xlink:href="#dirArrow" transform="rotate(270) translate(-36 17)" onmousedown="handlePan(-1,0)">
                  <use xlink:href="#rim" fill="#404040">
                        <set attributeName="fill" to="#808080" begin="arrowLeft.mouseover" end="arrowLeft.mouseout"/>
                  </use>
                  <path fill="none" stroke="white" stroke-width="1.5" d="M0,-3.0v7 M-2.5,-0.5L0,-3.0L2.5,-0.5"/>
                </g>
        </g>
        <svg viewBox="0 0 15 15" width="100%" height="30px" preserveAspectRatio="xMaxYMin meet">
         <g id="arrow_out" transform="scale(0.3 0.3)">
          <a xlink:href="a00237_org.svg" target="_base">
           <rect id="button" ry="5" rx="5" y="6" x="6" height="38" width="38"
                fill="#f2f5e9" fill-opacity="0.5" stroke="#606060" stroke-width="1.0"/>
           <path id="arrow"
             d="M 11.500037,31.436501 C 11.940474,20.09759 22.043105,11.32322 32.158766,21.979434 L 37.068811,17.246167 C 37.068811,17.246167 37.088388,32 37.088388,32 L 22.160133,31.978069 C 22.160133,31.978069 26.997745,27.140456 26.997745,27.140456 C 18.528582,18.264221 13.291696,25.230495 11.500037,31.436501 z"
             style="fill:#404040;"/>
          </a>
         </g>
        </svg>
</svg>
