<?xml version="1.0" encoding="UTF-8" standalone="no"?>
<!DOCTYPE svg PUBLIC "-//W3C//DTD SVG 1.1//EN"
 "http://www.w3.org/Graphics/SVG/1.1/DTD/svg11.dtd">
<!-- Generated by graphviz version 2.38.0 (20140413.2041)
 -->
<!-- Title: hpd_module Pages: 1 -->
<!--zoomable 574 -->
<svg id="main" version="1.1" xmlns="http://www.w3.org/2000/svg" xmlns:xlink="http://www.w3.org/1999/xlink" xml:space="preserve" onload="init(evt)">
<style type="text/css"><![CDATA[
.edge:hover path { stroke: red; }
.edge:hover polygon { stroke: red; fill: red; }
]]></style>
<script type="text/javascript"><![CDATA[
var edges = document.getElementsByTagName('g');
if (edges && edges.length) {
  for (var i=0;i<edges.length;i++) {
    if (edges[i].id.substr(0,4)=='edge') {
      edges[i].setAttribute('class','edge');
    }
  }
}
]]></script>
        <defs>
                <circle id="rim" cx="0" cy="0" r="7"/>
                <circle id="rim2" cx="0" cy="0" r="3.5"/>
                <g id="zoomPlus">
                        <use xlink:href="#rim" fill="#404040">
                                <set attributeName="fill" to="#808080" begin="zoomplus.mouseover" end="zoomplus.mouseout"/>
                        </use>
                        <path d="M-4,0h8M0,-4v8" fill="none" stroke="white" stroke-width="1.5" pointer-events="none"/>
                </g>
                <g id="zoomMin">
                        <use xlink:href="#rim" fill="#404040">
                                <set attributeName="fill" to="#808080" begin="zoomminus.mouseover" end="zoomminus.mouseout"/>
                        </use>
                        <path d="M-4,0h8" fill="none" stroke="white" stroke-width="1.5" pointer-events="none"/>
                </g>
                <g id="dirArrow">
                        <path fill="none" stroke="white" stroke-width="1.5" d="M0,-3.0v7 M-2.5,-0.5L0,-3.0L2.5,-0.5"/>
                </g>
               <g id="resetDef">
                       <use xlink:href="#rim2" fill="#404040">
                               <set attributeName="fill" to="#808080" begin="reset.mouseover" end="reset.mouseout"/>
                       </use>
               </g>
        </defs>

<script type="text/javascript">
var viewWidth = 884;
var viewHeight = 574;
var sectionId = 'dynsection-0';
</script>
<script xlink:href="svgpan.js"/>
<svg id="graph" class="graph">
<g id="viewport">
<title>hpd_module</title>
<!-- Node1 -->
<g id="node1" class="node"><title>Node1</title>
<polygon fill="#bfbfbf" stroke="black" points="745,-254.5 745,-311.5 845,-311.5 845,-254.5 745,-254.5"/>
<text text-anchor="middle" x="795" y="-299.5" font-family="Helvetica,sans-Serif" font-size="10.00">hpd_module</text>
<polyline fill="none" stroke="black" points="745,-292.5 845,-292.5 "/>
<text text-anchor="middle" x="795" y="-280.5" font-family="Helvetica,sans-Serif" font-size="10.00"> </text>
<polyline fill="none" stroke="black" points="745,-273.5 845,-273.5 "/>
<text text-anchor="start" x="753" y="-261.5" font-family="Helvetica,sans-Serif" font-size="10.00">+ TAILQ_ENTRY()</text>
</g>
<!-- Node4 -->
<g id="node4" class="node"><title>Node4</title>
<g id="a_node4"><a xlink:href="a00017.html#a00110" target="_top" xlink:title="{hpd\n||}">
<polygon fill="none" stroke="black" points="377,-105.5 377,-162.5 409,-162.5 409,-105.5 377,-105.5"/>
<text text-anchor="middle" x="393" y="-150.5" font-family="Helvetica,sans-Serif" font-size="10.00">hpd</text>
<polyline fill="none" stroke="black" points="377,-143.5 409,-143.5 "/>
<text text-anchor="middle" x="393" y="-131.5" font-family="Helvetica,sans-Serif" font-size="10.00"> </text>
<polyline fill="none" stroke="black" points="377,-124.5 409,-124.5 "/>
<text text-anchor="middle" x="393" y="-112.5" font-family="Helvetica,sans-Serif" font-size="10.00"> </text>
</a>
</g>
</g>
<!-- Node1&#45;&gt;Node4 -->
<g id="edge15" class="edge"><title>Node1&#45;&gt;Node4</title>
<path fill="none" stroke="#404040" d="M755.511,-254.342C749.398,-248.79 743.599,-242.61 739,-236 724.23,-214.771 739.963,-197.441 720,-181 674.685,-143.678 492.593,-136.631 421.569,-135.305"/>
<polygon fill="none" stroke="#404040" points="421.286,-135.301 415.224,-139.207 409.288,-135.114 415.349,-131.208 421.286,-135.301"/>
<text text-anchor="middle" x="775.5" y="-206" font-family="Helvetica,sans-Serif" font-size="10.00"> +option2module</text>
</g>
<!-- Node2 -->
<g id="node2" class="node"><title>Node2</title>
<g id="a_node2"><a xlink:href="a00030.html#a00123" target="_top" xlink:title="[Application API Callbacks] ">
<polygon fill="none" stroke="black" points="668,-359.5 668,-416.5 756,-416.5 756,-359.5 668,-359.5"/>
<text text-anchor="middle" x="712" y="-404.5" font-family="Helvetica,sans-Serif" font-size="10.00">hpd_module_def</text>
<polyline fill="none" stroke="black" points="668,-397.5 756,-397.5 "/>
<text text-anchor="middle" x="712" y="-385.5" font-family="Helvetica,sans-Serif" font-size="10.00"> </text>
<polyline fill="none" stroke="black" points="668,-378.5 756,-378.5 "/>
<text text-anchor="middle" x="712" y="-366.5" font-family="Helvetica,sans-Serif" font-size="10.00"> </text>
</a>
</g>
</g>
<!-- Node2&#45;&gt;Node1 -->
<g id="edge1" class="edge"><title>Node2&#45;&gt;Node1</title>
<path fill="none" stroke="#404040" d="M734.242,-359.398C743.732,-347.622 754.948,-333.703 765.144,-321.05"/>
<polygon fill="none" stroke="#404040" points="765.167,-321.022 765.817,-313.84 772.696,-311.678 772.046,-318.86 765.167,-321.022"/>
<text text-anchor="middle" x="767.5" y="-333" font-family="Helvetica,sans-Serif" font-size="10.00"> +def</text>
</g>
<!-- Node3 -->
<g id="node3" class="node"><title>Node3</title>
<polygon fill="none" stroke="#bfbfbf" points="670,-508.5 670,-565.5 754,-565.5 754,-508.5 670,-508.5"/>
<text text-anchor="middle" x="712" y="-553.5" font-family="Helvetica,sans-Serif" font-size="10.00">enum hpd_error</text>
<polyline fill="none" stroke="#bfbfbf" points="670,-546.5 754,-546.5 "/>
<text text-anchor="middle" x="712" y="-534.5" font-family="Helvetica,sans-Serif" font-size="10.00"> </text>
<polyline fill="none" stroke="#bfbfbf" points="670,-527.5 754,-527.5 "/>
<text text-anchor="middle" x="712" y="-515.5" font-family="Helvetica,sans-Serif" font-size="10.00"> </text>
</g>
<!-- Node3&#45;&gt;Node2 -->
<g id="edge2" class="edge"><title>Node3&#45;&gt;Node2</title>
<path fill="none" stroke="#404040" d="M712,-508.35C712,-485.868 712,-453.855 712,-428.643"/>
<polygon fill="none" stroke="#404040" points="712,-428.526 708,-422.526 712,-416.526 716,-422.526 712,-428.526"/>
<text text-anchor="middle" x="744.5" y="-482" font-family="Helvetica,sans-Serif" font-size="10.00"> +on_create</text>
<text text-anchor="middle" x="744.5" y="-471" font-family="Helvetica,sans-Serif" font-size="10.00">+on_stop</text>
<text text-anchor="middle" x="744.5" y="-460" font-family="Helvetica,sans-Serif" font-size="10.00">+on_destroy</text>
<text text-anchor="middle" x="744.5" y="-449" font-family="Helvetica,sans-Serif" font-size="10.00">+on_start</text>
<text text-anchor="middle" x="744.5" y="-438" font-family="Helvetica,sans-Serif" font-size="10.00">+on_parse_opt</text>
</g>
<!-- Node4&#45;&gt;Node1 -->
<g id="edge3" class="edge"><title>Node4&#45;&gt;Node1</title>
<path fill="none" stroke="#404040" d="M409.38,-135.516C483.88,-138.029 788.314,-150.139 816,-181 831.036,-197.76 826.239,-222.416 817.463,-243.172"/>
<polygon fill="none" stroke="#404040" points="817.374,-243.362 818.448,-250.493 812.279,-254.226 811.205,-247.096 817.374,-243.362"/>
<text text-anchor="middle" x="838.5" y="-206" font-family="Helvetica,sans-Serif" font-size="10.00"> +hpd</text>
</g>
<!-- Node8 -->
<g id="node8" class="node"><title>Node8</title>
<g id="a_node8"><a xlink:href="a00018.html#a00113" target="_top" xlink:title="{hpd_configuration\n||}">
<polygon fill="none" stroke="black" points="279.5,-0.5 279.5,-57.5 372.5,-57.5 372.5,-0.5 279.5,-0.5"/>
<text text-anchor="middle" x="326" y="-45.5" font-family="Helvetica,sans-Serif" font-size="10.00">hpd_configuration</text>
<polyline fill="none" stroke="black" points="279.5,-38.5 372.5,-38.5 "/>
<text text-anchor="middle" x="326" y="-26.5" font-family="Helvetica,sans-Serif" font-size="10.00"> </text>
<polyline fill="none" stroke="black" points="279.5,-19.5 372.5,-19.5 "/>
<text text-anchor="middle" x="326" y="-7.5" font-family="Helvetica,sans-Serif" font-size="10.00"> </text>
</a>
</g>
</g>
<!-- Node4&#45;&gt;Node8 -->
<g id="edge9" class="edge"><title>Node4&#45;&gt;Node8</title>
<path fill="none" stroke="#404040" d="M376.694,-112.834C370.578,-104.952 363.728,-95.724 358,-87 354.09,-81.0442 350.173,-74.5815 346.487,-68.2187"/>
<polygon fill="none" stroke="#404040" points="346.453,-68.1578 340.018,-64.9037 340.546,-57.712 346.982,-60.9661 346.453,-68.1578"/>
<text text-anchor="middle" x="370.5" y="-79" font-family="Helvetica,sans-Serif" font-size="10.00"> +hpd</text>
</g>
<!-- Node5 -->
<g id="node5" class="node"><title>Node5</title>
<polygon fill="none" stroke="#bfbfbf" points="0,-254.5 0,-311.5 102,-311.5 102,-254.5 0,-254.5"/>
<text text-anchor="middle" x="51" y="-299.5" font-family="Helvetica,sans-Serif" font-size="10.00">struct hpd_modules</text>
<polyline fill="none" stroke="#bfbfbf" points="0,-292.5 102,-292.5 "/>
<text text-anchor="middle" x="51" y="-280.5" font-family="Helvetica,sans-Serif" font-size="10.00"> </text>
<polyline fill="none" stroke="#bfbfbf" points="0,-273.5 102,-273.5 "/>
<text text-anchor="middle" x="51" y="-261.5" font-family="Helvetica,sans-Serif" font-size="10.00"> </text>
</g>
<!-- Node5&#45;&gt;Node4 -->
<g id="edge4" class="edge"><title>Node5&#45;&gt;Node4</title>
<path fill="none" stroke="#404040" d="M62.9581,-254.441C74.9242,-230.544 95.7647,-197.307 125,-181 169.193,-156.35 304.28,-179.835 352,-163 357.03,-161.226 362.023,-158.673 366.704,-155.823"/>
<polygon fill="none" stroke="#404040" points="367.012,-155.613 369.718,-148.929 376.929,-148.856 374.223,-155.54 367.012,-155.613"/>
<text text-anchor="middle" x="148" y="-206" font-family="Helvetica,sans-Serif" font-size="10.00"> +modules</text>
</g>
<!-- Node6 -->
<g id="node6" class="node"><title>Node6</title>
<polygon fill="none" stroke="#bfbfbf" points="120,-254.5 120,-311.5 206,-311.5 206,-254.5 120,-254.5"/>
<text text-anchor="middle" x="163" y="-299.5" font-family="Helvetica,sans-Serif" font-size="10.00">hpd_ev_loop_t *</text>
<polyline fill="none" stroke="#bfbfbf" points="120,-292.5 206,-292.5 "/>
<text text-anchor="middle" x="163" y="-280.5" font-family="Helvetica,sans-Serif" font-size="10.00"> </text>
<polyline fill="none" stroke="#bfbfbf" points="120,-273.5 206,-273.5 "/>
<text text-anchor="middle" x="163" y="-261.5" font-family="Helvetica,sans-Serif" font-size="10.00"> </text>
</g>
<!-- Node6&#45;&gt;Node4 -->
<g id="edge5" class="edge"><title>Node6&#45;&gt;Node4</title>
<path fill="none" stroke="#404040" d="M168.213,-254.12C174.14,-230.691 186.258,-198.335 210,-181 261.378,-143.486 292.521,-185.567 352,-163 356.987,-161.108 361.958,-158.495 366.63,-155.62"/>
<polygon fill="none" stroke="#404040" points="366.938,-155.41 369.644,-148.725 376.854,-148.652 374.149,-155.336 366.938,-155.41"/>
<text text-anchor="middle" x="224" y="-206" font-family="Helvetica,sans-Serif" font-size="10.00"> +loop</text>
</g>
<!-- Node7 -->
<g id="node7" class="node"><title>Node7</title>
<polygon fill="none" stroke="#bfbfbf" points="224.5,-254.5 224.5,-311.5 259.5,-311.5 259.5,-254.5 224.5,-254.5"/>
<text text-anchor="middle" x="242" y="-299.5" font-family="Helvetica,sans-Serif" font-size="10.00">char</text>
<polyline fill="none" stroke="#bfbfbf" points="224.5,-292.5 259.5,-292.5 "/>
<text text-anchor="middle" x="242" y="-280.5" font-family="Helvetica,sans-Serif" font-size="10.00"> </text>
<polyline fill="none" stroke="#bfbfbf" points="224.5,-273.5 259.5,-273.5 "/>
<text text-anchor="middle" x="242" y="-261.5" font-family="Helvetica,sans-Serif" font-size="10.00"> </text>
</g>
<!-- Node7&#45;&gt;Node4 -->
<g id="edge6" class="edge"><title>Node7&#45;&gt;Node4</title>
<path fill="none" stroke="#404040" d="M240.656,-254.104C241.151,-231.314 245.737,-199.884 265,-181 293.197,-153.358 315.656,-178.434 352,-163 356.909,-160.915 361.84,-158.203 366.496,-155.287"/>
<polygon fill="none" stroke="#404040" points="366.805,-155.077 369.509,-148.392 376.72,-148.317 374.016,-155.002 366.805,-155.077"/>
<text text-anchor="middle" x="296" y="-211.5" font-family="Helvetica,sans-Serif" font-size="10.00"> +argv0</text>
<text text-anchor="middle" x="296" y="-200.5" font-family="Helvetica,sans-Serif" font-size="10.00">+option2name</text>
</g>
<!-- Node8&#45;&gt;Node4 -->
<g id="edge7" class="edge"><title>Node8&#45;&gt;Node4</title>
<path fill="none" stroke="#404040" d="M371.928,-57.6953C377.83,-63.0733 383.147,-69.1885 387,-76 389.938,-81.1939 391.829,-87.0822 393.002,-93.0547"/>
<polygon fill="none" stroke="#404040" points="393.035,-93.3271 397.741,-98.7913 394.507,-105.237 389.801,-99.7723 393.035,-93.3271"/>
<text text-anchor="middle" x="424.5" y="-79" font-family="Helvetica,sans-Serif" font-size="10.00"> +configuration</text>
</g>
<!-- Node9 -->
<g id="node9" class="node"><title>Node9</title>
<polygon fill="none" stroke="#bfbfbf" points="119.5,-105.5 119.5,-162.5 222.5,-162.5 222.5,-105.5 119.5,-105.5"/>
<text text-anchor="middle" x="171" y="-150.5" font-family="Helvetica,sans-Serif" font-size="10.00">struct hpd_adapters</text>
<polyline fill="none" stroke="#bfbfbf" points="119.5,-143.5 222.5,-143.5 "/>
<text text-anchor="middle" x="171" y="-131.5" font-family="Helvetica,sans-Serif" font-size="10.00"> </text>
<polyline fill="none" stroke="#bfbfbf" points="119.5,-124.5 222.5,-124.5 "/>
<text text-anchor="middle" x="171" y="-112.5" font-family="Helvetica,sans-Serif" font-size="10.00"> </text>
</g>
<!-- Node9&#45;&gt;Node8 -->
<g id="edge8" class="edge"><title>Node9&#45;&gt;Node8</title>
<path fill="none" stroke="#404040" d="M201.921,-105.23C213.477,-95.4579 226.967,-84.7417 240,-76 249.088,-69.9047 259.068,-63.9554 268.91,-58.4668"/>
<polygon fill="none" stroke="#404040" points="268.949,-58.4457 272.305,-52.0634 279.488,-52.7069 276.131,-59.0892 268.949,-58.4457"/>
<text text-anchor="middle" x="263.5" y="-79" font-family="Helvetica,sans-Serif" font-size="10.00"> +adapters</text>
</g>
<!-- Node10 -->
<g id="node10" class="node"><title>Node10</title>
<polygon fill="none" stroke="#bfbfbf" points="241,-105.5 241,-162.5 343,-162.5 343,-105.5 241,-105.5"/>
<text text-anchor="middle" x="292" y="-150.5" font-family="Helvetica,sans-Serif" font-size="10.00">struct hpd_listeners</text>
<polyline fill="none" stroke="#bfbfbf" points="241,-143.5 343,-143.5 "/>
<text text-anchor="middle" x="292" y="-131.5" font-family="Helvetica,sans-Serif" font-size="10.00"> </text>
<polyline fill="none" stroke="#bfbfbf" points="241,-124.5 343,-124.5 "/>
<text text-anchor="middle" x="292" y="-112.5" font-family="Helvetica,sans-Serif" font-size="10.00"> </text>
</g>
<!-- Node10&#45;&gt;Node8 -->
<g id="edge10" class="edge"><title>Node10&#45;&gt;Node8</title>
<path fill="none" stroke="#404040" d="M289.19,-105.475C289.071,-95.9329 289.918,-85.3012 293,-76 293.854,-73.4226 294.908,-70.8658 296.109,-68.3552"/>
<polygon fill="none" stroke="#404040" points="296.221,-68.1566 295.707,-60.9639 302.149,-57.7228 302.663,-64.9156 296.221,-68.1566"/>
<text text-anchor="middle" x="316" y="-79" font-family="Helvetica,sans-Serif" font-size="10.00"> +listeners</text>
</g>
<!-- Node11 -->
<g id="node11" class="node"><title>Node11</title>
<polygon fill="none" stroke="#bfbfbf" points="277.5,-254.5 277.5,-311.5 380.5,-311.5 380.5,-254.5 277.5,-254.5"/>
<text text-anchor="middle" x="329" y="-299.5" font-family="Helvetica,sans-Serif" font-size="10.00">hpd_argp_option_t *</text>
<polyline fill="none" stroke="#bfbfbf" points="277.5,-292.5 380.5,-292.5 "/>
<text text-anchor="middle" x="329" y="-280.5" font-family="Helvetica,sans-Serif" font-size="10.00"> </text>
<polyline fill="none" stroke="#bfbfbf" points="277.5,-273.5 380.5,-273.5 "/>
<text text-anchor="middle" x="329" y="-261.5" font-family="Helvetica,sans-Serif" font-size="10.00"> </text>
</g>
<!-- Node11&#45;&gt;Node4 -->
<g id="edge11" class="edge"><title>Node11&#45;&gt;Node4</title>
<path fill="none" stroke="#404040" d="M328.687,-254.367C329.521,-233.184 333.07,-203.811 345,-181 350.441,-170.596 359.137,-161.198 367.641,-153.648"/>
<polygon fill="none" stroke="#404040" points="367.717,-153.586 369.804,-146.683 376.978,-145.955 374.891,-152.858 367.717,-153.586"/>
<text text-anchor="middle" x="365.5" y="-206" font-family="Helvetica,sans-Serif" font-size="10.00"> +options</text>
</g>
<!-- Node12 -->
<g id="node12" class="node"><title>Node12</title>
<polygon fill="none" stroke="#bfbfbf" points="398.5,-254.5 398.5,-311.5 427.5,-311.5 427.5,-254.5 398.5,-254.5"/>
<text text-anchor="middle" x="413" y="-299.5" font-family="Helvetica,sans-Serif" font-size="10.00">int</text>
<polyline fill="none" stroke="#bfbfbf" points="398.5,-292.5 427.5,-292.5 "/>
<text text-anchor="middle" x="413" y="-280.5" font-family="Helvetica,sans-Serif" font-size="10.00"> </text>
<polyline fill="none" stroke="#bfbfbf" points="398.5,-273.5 427.5,-273.5 "/>
<text text-anchor="middle" x="413" y="-261.5" font-family="Helvetica,sans-Serif" font-size="10.00"> </text>
</g>
<!-- Node12&#45;&gt;Node4 -->
<g id="edge12" class="edge"><title>Node12&#45;&gt;Node4</title>
<path fill="none" stroke="#404040" d="M399.586,-254.317C397.287,-248.402 395.241,-242.096 394,-236 389.945,-216.08 389.358,-193.489 389.929,-174.731"/>
<polygon fill="none" stroke="#404040" points="389.929,-174.72 386.2,-168.548 390.464,-162.732 394.193,-168.904 389.929,-174.72"/>
<text text-anchor="middle" x="447.5" y="-211.5" font-family="Helvetica,sans-Serif" font-size="10.00"> +module_options_count</text>
<text text-anchor="middle" x="447.5" y="-200.5" font-family="Helvetica,sans-Serif" font-size="10.00">+options_count</text>
</g>
<!-- Node13 -->
<g id="node13" class="node"><title>Node13</title>
<polygon fill="none" stroke="#bfbfbf" points="494,-254.5 494,-311.5 552,-311.5 552,-254.5 494,-254.5"/>
<text text-anchor="middle" x="523" y="-299.5" font-family="Helvetica,sans-Serif" font-size="10.00">ev_signal</text>
<polyline fill="none" stroke="#bfbfbf" points="494,-292.5 552,-292.5 "/>
<text text-anchor="middle" x="523" y="-280.5" font-family="Helvetica,sans-Serif" font-size="10.00"> </text>
<polyline fill="none" stroke="#bfbfbf" points="494,-273.5 552,-273.5 "/>
<text text-anchor="middle" x="523" y="-261.5" font-family="Helvetica,sans-Serif" font-size="10.00"> </text>
</g>
<!-- Node13&#45;&gt;Node4 -->
<g id="edge13" class="edge"><title>Node13&#45;&gt;Node4</title>
<path fill="none" stroke="#404040" d="M523.598,-254.165C522.64,-232.022 517.933,-201.462 501,-181 480.973,-156.8 445.912,-145.065 421.18,-139.559"/>
<polygon fill="none" stroke="#404040" points="421.094,-139.542 414.432,-142.302 409.322,-137.214 415.984,-134.454 421.094,-139.542"/>
<text text-anchor="middle" x="563" y="-211.5" font-family="Helvetica,sans-Serif" font-size="10.00"> +sigterm_watcher</text>
<text text-anchor="middle" x="563" y="-200.5" font-family="Helvetica,sans-Serif" font-size="10.00">+sigint_watcher</text>
</g>
<!-- Node14 -->
<g id="node14" class="node"><title>Node14</title>
<polygon fill="none" stroke="#bfbfbf" points="571.5,-254.5 571.5,-311.5 684.5,-311.5 684.5,-254.5 571.5,-254.5"/>
<text text-anchor="middle" x="628" y="-299.5" font-family="Helvetica,sans-Serif" font-size="10.00">struct hpd_ev_asyncs</text>
<polyline fill="none" stroke="#bfbfbf" points="571.5,-292.5 684.5,-292.5 "/>
<text text-anchor="middle" x="628" y="-280.5" font-family="Helvetica,sans-Serif" font-size="10.00"> </text>
<polyline fill="none" stroke="#bfbfbf" points="571.5,-273.5 684.5,-273.5 "/>
<text text-anchor="middle" x="628" y="-261.5" font-family="Helvetica,sans-Serif" font-size="10.00"> </text>
</g>
<!-- Node14&#45;&gt;Node4 -->
<g id="edge14" class="edge"><title>Node14&#45;&gt;Node4</title>
<path fill="none" stroke="#404040" d="M629.607,-254.173C629.33,-231.425 625.051,-200.018 606,-181 580.261,-155.307 473.042,-142.26 421.248,-137.356"/>
<polygon fill="none" stroke="#404040" points="421.024,-137.336 414.689,-140.781 409.073,-136.258 415.408,-132.813 421.024,-137.336"/>
<text text-anchor="middle" x="674.5" y="-228" font-family="Helvetica,sans-Serif" font-size="10.00"> +respond_watchers</text>
<text text-anchor="middle" x="674.5" y="-217" font-family="Helvetica,sans-Serif" font-size="10.00">+request_watchers</text>
<text text-anchor="middle" x="674.5" y="-206" font-family="Helvetica,sans-Serif" font-size="10.00">+changed_watchers</text>
<text text-anchor="middle" x="674.5" y="-195" font-family="Helvetica,sans-Serif" font-size="10.00">+attached_watchers</text>
<text text-anchor="middle" x="674.5" y="-184" font-family="Helvetica,sans-Serif" font-size="10.00">+detached_watchers</text>
</g>
<!-- Node15 -->
<g id="node15" class="node"><title>Node15</title>
<polygon fill="none" stroke="#bfbfbf" points="774.5,-359.5 774.5,-416.5 815.5,-416.5 815.5,-359.5 774.5,-359.5"/>
<text text-anchor="middle" x="795" y="-404.5" font-family="Helvetica,sans-Serif" font-size="10.00">void *</text>
<polyline fill="none" stroke="#bfbfbf" points="774.5,-397.5 815.5,-397.5 "/>
<text text-anchor="middle" x="795" y="-385.5" font-family="Helvetica,sans-Serif" font-size="10.00"> </text>
<polyline fill="none" stroke="#bfbfbf" points="774.5,-378.5 815.5,-378.5 "/>
<text text-anchor="middle" x="795" y="-366.5" font-family="Helvetica,sans-Serif" font-size="10.00"> </text>
</g>
<!-- Node15&#45;&gt;Node1 -->
<g id="edge16" class="edge"><title>Node15&#45;&gt;Node1</title>
<path fill="none" stroke="#404040" d="M795,-359.398C795,-348.545 795,-335.873 795,-324.049"/>
<polygon fill="none" stroke="#404040" points="795,-323.678 791,-317.678 795,-311.678 799,-317.678 795,-323.678"/>
<text text-anchor="middle" x="809" y="-333" font-family="Helvetica,sans-Serif" font-size="10.00"> +data</text>
</g>
<!-- Node16 -->
<g id="node16" class="node"><title>Node16</title>
<polygon fill="none" stroke="#bfbfbf" points="834,-359.5 834,-416.5 876,-416.5 876,-359.5 834,-359.5"/>
<text text-anchor="middle" x="855" y="-404.5" font-family="Helvetica,sans-Serif" font-size="10.00">char *</text>
<polyline fill="none" stroke="#bfbfbf" points="834,-397.5 876,-397.5 "/>
<text text-anchor="middle" x="855" y="-385.5" font-family="Helvetica,sans-Serif" font-size="10.00"> </text>
<polyline fill="none" stroke="#bfbfbf" points="834,-378.5 876,-378.5 "/>
<text text-anchor="middle" x="855" y="-366.5" font-family="Helvetica,sans-Serif" font-size="10.00"> </text>
</g>
<!-- Node16&#45;&gt;Node1 -->
<g id="edge17" class="edge"><title>Node16&#45;&gt;Node1</title>
<path fill="none" stroke="#404040" d="M842.434,-359.304C837.871,-349.846 832.483,-339.31 827,-330 825.445,-327.359 823.788,-324.672 822.078,-321.99"/>
<polygon fill="none" stroke="#404040" points="821.943,-321.785 815.296,-318.988 815.322,-311.777 821.968,-314.574 821.943,-321.785"/>
<text text-anchor="middle" x="841.5" y="-333" font-family="Helvetica,sans-Serif" font-size="10.00"> +id</text>
</g>
</g>
</svg>
        <g id="navigator" transform="translate(0 0)" fill="#404254">
                <rect fill="#f2f5e9" fill-opacity="0.5" stroke="#606060" stroke-width=".5" x="0" y="0" width="60" height="60"/>
                <use id="zoomplus" xlink:href="#zoomPlus" x="17" y="9" onmousedown="handleZoom(evt,'in')"/>
                <use id="zoomminus" xlink:href="#zoomMin" x="42" y="9" onmousedown="handleZoom(evt,'out')"/>
                <use id="reset" xlink:href="#resetDef" x="30" y="36" onmousedown="handleReset()"/>
                <g id="arrowUp" xlink:href="#dirArrow" transform="translate(30 24)" onmousedown="handlePan(0,-1)">
                  <use xlink:href="#rim" fill="#404040">
                        <set attributeName="fill" to="#808080" begin="arrowUp.mouseover" end="arrowUp.mouseout"/>
                  </use>
                  <path fill="none" stroke="white" stroke-width="1.5" d="M0,-3.0v7 M-2.5,-0.5L0,-3.0L2.5,-0.5"/>
                </g>
                <g id="arrowRight" xlink:href="#dirArrow" transform="rotate(90) translate(36 -43)" onmousedown="handlePan(1,0)">
                  <use xlink:href="#rim" fill="#404040">
                        <set attributeName="fill" to="#808080" begin="arrowRight.mouseover" end="arrowRight.mouseout"/>
                  </use>
                  <path fill="none" stroke="white" stroke-width="1.5" d="M0,-3.0v7 M-2.5,-0.5L0,-3.0L2.5,-0.5"/>
                </g>
                <g id="arrowDown" xlink:href="#dirArrow" transform="rotate(180) translate(-30 -48)" onmousedown="handlePan(0,1)">
                  <use xlink:href="#rim" fill="#404040">
                        <set attributeName="fill" to="#808080" begin="arrowDown.mouseover" end="arrowDown.mouseout"/>
                  </use>
                  <path fill="none" stroke="white" stroke-width="1.5" d="M0,-3.0v7 M-2.5,-0.5L0,-3.0L2.5,-0.5"/>
                </g>
                <g id="arrowLeft" xlink:href="#dirArrow" transform="rotate(270) translate(-36 17)" onmousedown="handlePan(-1,0)">
                  <use xlink:href="#rim" fill="#404040">
                        <set attributeName="fill" to="#808080" begin="arrowLeft.mouseover" end="arrowLeft.mouseout"/>
                  </use>
                  <path fill="none" stroke="white" stroke-width="1.5" d="M0,-3.0v7 M-2.5,-0.5L0,-3.0L2.5,-0.5"/>
                </g>
        </g>
        <svg viewBox="0 0 15 15" width="100%" height="30px" preserveAspectRatio="xMaxYMin meet">
         <g id="arrow_out" transform="scale(0.3 0.3)">
          <a xlink:href="a00295_org.svg" target="_base">
           <rect id="button" ry="5" rx="5" y="6" x="6" height="38" width="38"
                fill="#f2f5e9" fill-opacity="0.5" stroke="#606060" stroke-width="1.0"/>
           <path id="arrow"
             d="M 11.500037,31.436501 C 11.940474,20.09759 22.043105,11.32322 32.158766,21.979434 L 37.068811,17.246167 C 37.068811,17.246167 37.088388,32 37.088388,32 L 22.160133,31.978069 C 22.160133,31.978069 26.997745,27.140456 26.997745,27.140456 C 18.528582,18.264221 13.291696,25.230495 11.500037,31.436501 z"
             style="fill:#404040;"/>
          </a>
         </g>
        </svg>
</svg>
