<?xml version="1.0" encoding="UTF-8" standalone="no"?>
<!DOCTYPE svg PUBLIC "-//W3C//DTD SVG 1.1//EN"
 "http://www.w3.org/Graphics/SVG/1.1/DTD/svg11.dtd">
<!-- Generated by graphviz version 2.38.0 (20140413.2041)
 -->
<!-- Title: hpd/src/discovery_id.c Pages: 1 -->
<!--zoomable 308 -->
<svg id="main" version="1.1" xmlns="http://www.w3.org/2000/svg" xmlns:xlink="http://www.w3.org/1999/xlink" xml:space="preserve" onload="init(evt)">
<style type="text/css"><![CDATA[
.edge:hover path { stroke: red; }
.edge:hover polygon { stroke: red; fill: red; }
]]></style>
<script type="text/javascript"><![CDATA[
var edges = document.getElementsByTagName('g');
if (edges && edges.length) {
  for (var i=0;i<edges.length;i++) {
    if (edges[i].id.substr(0,4)=='edge') {
      edges[i].setAttribute('class','edge');
    }
  }
}
]]></script>
        <defs>
                <circle id="rim" cx="0" cy="0" r="7"/>
                <circle id="rim2" cx="0" cy="0" r="3.5"/>
                <g id="zoomPlus">
                        <use xlink:href="#rim" fill="#404040">
                                <set attributeName="fill" to="#808080" begin="zoomplus.mouseover" end="zoomplus.mouseout"/>
                        </use>
                        <path d="M-4,0h8M0,-4v8" fill="none" stroke="white" stroke-width="1.5" pointer-events="none"/>
                </g>
                <g id="zoomMin">
                        <use xlink:href="#rim" fill="#404040">
                                <set attributeName="fill" to="#808080" begin="zoomminus.mouseover" end="zoomminus.mouseout"/>
                        </use>
                        <path d="M-4,0h8" fill="none" stroke="white" stroke-width="1.5" pointer-events="none"/>
                </g>
                <g id="dirArrow">
                        <path fill="none" stroke="white" stroke-width="1.5" d="M0,-3.0v7 M-2.5,-0.5L0,-3.0L2.5,-0.5"/>
                </g>
               <g id="resetDef">
                       <use xlink:href="#rim2" fill="#404040">
                               <set attributeName="fill" to="#808080" begin="reset.mouseover" end="reset.mouseout"/>
                       </use>
               </g>
        </defs>

<script type="text/javascript">
var viewWidth = 642;
var viewHeight = 308;
var sectionId = 'dynsection-0';
</script>
<script xlink:href="svgpan.js"/>
<svg id="graph" class="graph">
<g id="viewport">
<title>hpd/src/discovery_id.c</title>
<!-- Node1 -->
<g id="node1" class="node"><title>Node1</title>
<polygon fill="#bfbfbf" stroke="black" points="175.5,-280.5 175.5,-299.5 290.5,-299.5 290.5,-280.5 175.5,-280.5"/>
<text text-anchor="middle" x="233" y="-287.5" font-family="Helvetica,sans-Serif" font-size="10.00">hpd/src/discovery_id.c</text>
</g>
<!-- Node2 -->
<g id="node2" class="node"><title>Node2</title>
<g id="a_node2"><a xlink:href="a00011.html" target="_top" xlink:title="discovery.h">
<polygon fill="none" stroke="black" points="56.5,-112.5 56.5,-131.5 123.5,-131.5 123.5,-112.5 56.5,-112.5"/>
<text text-anchor="middle" x="90" y="-119.5" font-family="Helvetica,sans-Serif" font-size="10.00">discovery.h</text>
</a>
</g>
</g>
<!-- Node1&#45;&gt;Node2 -->
<g id="edge1" class="edge"><title>Node1&#45;&gt;Node2</title>
<path fill="none" stroke="midnightblue" d="M225.312,-280.075C202.315,-253.38 133.817,-173.865 104.06,-139.322"/>
<polygon fill="midnightblue" stroke="midnightblue" points="106.559,-136.86 97.381,-131.568 101.256,-141.429 106.559,-136.86"/>
</g>
<!-- Node5 -->
<g id="node5" class="node"><title>Node5</title>
<g id="a_node5"><a xlink:href="a00044.html" target="_top" xlink:title="hpd_common.h">
<polygon fill="none" stroke="black" points="342.5,-168.5 342.5,-187.5 425.5,-187.5 425.5,-168.5 342.5,-168.5"/>
<text text-anchor="middle" x="384" y="-175.5" font-family="Helvetica,sans-Serif" font-size="10.00">hpd_common.h</text>
</a>
</g>
</g>
<!-- Node1&#45;&gt;Node5 -->
<g id="edge4" class="edge"><title>Node1&#45;&gt;Node5</title>
<path fill="none" stroke="midnightblue" d="M244.849,-280.368C270.65,-261.573 332.154,-216.768 364.05,-193.533"/>
<polygon fill="midnightblue" stroke="midnightblue" points="366.184,-196.309 372.206,-187.591 362.063,-190.651 366.184,-196.309"/>
</g>
<!-- Node8 -->
<g id="node8" class="node"><title>Node8</title>
<g id="a_node8"><a xlink:href="a00009.html" target="_top" xlink:title="daemon.h">
<polygon fill="none" stroke="black" points="465.5,-224.5 465.5,-243.5 524.5,-243.5 524.5,-224.5 465.5,-224.5"/>
<text text-anchor="middle" x="495" y="-231.5" font-family="Helvetica,sans-Serif" font-size="10.00">daemon.h</text>
</a>
</g>
</g>
<!-- Node1&#45;&gt;Node8 -->
<g id="edge7" class="edge"><title>Node1&#45;&gt;Node8</title>
<path fill="none" stroke="midnightblue" d="M274.515,-280.444C324.222,-270.198 406.857,-253.167 455.605,-243.119"/>
<polygon fill="midnightblue" stroke="midnightblue" points="456.382,-246.533 465.469,-241.086 454.969,-239.677 456.382,-246.533"/>
</g>
<!-- Node13 -->
<g id="node13" class="node"><title>Node13</title>
<g id="a_node13"><a xlink:href="a00070.html" target="_top" xlink:title="log.h">
<polygon fill="none" stroke="black" points="0,-112.5 0,-131.5 38,-131.5 38,-112.5 0,-112.5"/>
<text text-anchor="middle" x="19" y="-119.5" font-family="Helvetica,sans-Serif" font-size="10.00">log.h</text>
</a>
</g>
</g>
<!-- Node1&#45;&gt;Node13 -->
<g id="edge14" class="edge"><title>Node1&#45;&gt;Node13</title>
<path fill="none" stroke="midnightblue" d="M221.796,-280.309C187.199,-253.472 81.7736,-171.694 38.1796,-137.878"/>
<polygon fill="midnightblue" stroke="midnightblue" points="40.1401,-134.969 30.0934,-131.605 35.8496,-140.5 40.1401,-134.969"/>
</g>
<!-- Node14 -->
<g id="node14" class="node"><title>Node14</title>
<g id="a_node14"><a xlink:href="a00005.html" target="_top" xlink:title="model.h">
<polygon fill="none" stroke="black" points="207.5,-224.5 207.5,-243.5 258.5,-243.5 258.5,-224.5 207.5,-224.5"/>
<text text-anchor="middle" x="233" y="-231.5" font-family="Helvetica,sans-Serif" font-size="10.00">model.h</text>
</a>
</g>
</g>
<!-- Node1&#45;&gt;Node14 -->
<g id="edge17" class="edge"><title>Node1&#45;&gt;Node14</title>
<path fill="none" stroke="midnightblue" d="M233,-280.083C233,-273.006 233,-262.861 233,-253.986"/>
<polygon fill="midnightblue" stroke="midnightblue" points="236.5,-253.751 233,-243.751 229.5,-253.751 236.5,-253.751"/>
</g>
<!-- Node3 -->
<g id="node3" class="node"><title>Node3</title>
<g id="a_node3"><a xlink:href="a00021.html" target="_top" xlink:title="hpd_types.h">
<polygon fill="none" stroke="black" points="110,-56.5 110,-75.5 180,-75.5 180,-56.5 110,-56.5"/>
<text text-anchor="middle" x="145" y="-63.5" font-family="Helvetica,sans-Serif" font-size="10.00">hpd_types.h</text>
</a>
</g>
</g>
<!-- Node2&#45;&gt;Node3 -->
<g id="edge2" class="edge"><title>Node2&#45;&gt;Node3</title>
<path fill="none" stroke="midnightblue" d="M99.0821,-112.083C107.171,-104.141 119.195,-92.3354 128.91,-82.7973"/>
<polygon fill="midnightblue" stroke="midnightblue" points="131.403,-85.2545 136.087,-75.7511 126.499,-80.2595 131.403,-85.2545"/>
</g>
<!-- Node4 -->
<g id="node4" class="node"><title>Node4</title>
<polygon fill="none" stroke="#bfbfbf" points="40,-56.5 40,-75.5 92,-75.5 92,-56.5 40,-56.5"/>
<text text-anchor="middle" x="66" y="-63.5" font-family="Helvetica,sans-Serif" font-size="10.00">stdarg.h</text>
</g>
<!-- Node2&#45;&gt;Node4 -->
<g id="edge3" class="edge"><title>Node2&#45;&gt;Node4</title>
<path fill="none" stroke="midnightblue" d="M86.0369,-112.083C82.7867,-104.77 78.0806,-94.1814 74.046,-85.1034"/>
<polygon fill="midnightblue" stroke="midnightblue" points="77.1492,-83.4677 69.8894,-75.7511 70.7525,-86.3107 77.1492,-83.4677"/>
</g>
<!-- Node6 -->
<g id="node6" class="node"><title>Node6</title>
<polygon fill="none" stroke="#bfbfbf" points="394,-112.5 394,-131.5 442,-131.5 442,-112.5 394,-112.5"/>
<text text-anchor="middle" x="418" y="-119.5" font-family="Helvetica,sans-Serif" font-size="10.00">stdlib.h</text>
</g>
<!-- Node5&#45;&gt;Node6 -->
<g id="edge5" class="edge"><title>Node5&#45;&gt;Node6</title>
<path fill="none" stroke="midnightblue" d="M389.614,-168.083C394.367,-160.534 401.318,-149.495 407.152,-140.23"/>
<polygon fill="midnightblue" stroke="midnightblue" points="410.124,-142.078 412.49,-131.751 404.2,-138.349 410.124,-142.078"/>
</g>
<!-- Node7 -->
<g id="node7" class="node"><title>Node7</title>
<polygon fill="none" stroke="#bfbfbf" points="326.5,-112.5 326.5,-131.5 375.5,-131.5 375.5,-112.5 326.5,-112.5"/>
<text text-anchor="middle" x="351" y="-119.5" font-family="Helvetica,sans-Serif" font-size="10.00">string.h</text>
</g>
<!-- Node5&#45;&gt;Node7 -->
<g id="edge6" class="edge"><title>Node5&#45;&gt;Node7</title>
<path fill="none" stroke="midnightblue" d="M378.551,-168.083C373.986,-160.613 367.332,-149.724 361.707,-140.52"/>
<polygon fill="midnightblue" stroke="midnightblue" points="364.549,-138.459 356.348,-131.751 358.576,-142.109 364.549,-138.459"/>
</g>
<!-- Node8&#45;&gt;Node3 -->
<g id="edge8" class="edge"><title>Node8&#45;&gt;Node3</title>
<path fill="none" stroke="midnightblue" d="M493.1,-224.471C487.341,-199.408 469.347,-126.815 451,-112 407.42,-76.8095 261.528,-84.9848 190.016,-75.8581"/>
<polygon fill="midnightblue" stroke="midnightblue" points="190.431,-72.3815 180.026,-74.3788 189.405,-79.306 190.431,-72.3815"/>
</g>
<!-- Node8&#45;&gt;Node5 -->
<g id="edge9" class="edge"><title>Node8&#45;&gt;Node5</title>
<path fill="none" stroke="midnightblue" d="M477.166,-224.324C459.284,-215.625 431.525,-202.12 410.954,-192.113"/>
<polygon fill="midnightblue" stroke="midnightblue" points="412.313,-188.882 401.79,-187.655 409.251,-195.177 412.313,-188.882"/>
</g>
<!-- Node9 -->
<g id="node9" class="node"><title>Node9</title>
<g id="a_node9"><a xlink:href="a00045.html" target="_top" xlink:title="hpd_queue.h">
<polygon fill="none" stroke="black" points="268,-56.5 268,-75.5 340,-75.5 340,-56.5 268,-56.5"/>
<text text-anchor="middle" x="304" y="-63.5" font-family="Helvetica,sans-Serif" font-size="10.00">hpd_queue.h</text>
</a>
</g>
</g>
<!-- Node8&#45;&gt;Node9 -->
<g id="edge10" class="edge"><title>Node8&#45;&gt;Node9</title>
<path fill="none" stroke="midnightblue" d="M511.934,-224.492C532.161,-213.069 561.976,-191.479 551,-168 516.318,-93.81 411.759,-73.9208 350.363,-68.7159"/>
<polygon fill="midnightblue" stroke="midnightblue" points="350.396,-65.2087 340.163,-67.9523 349.873,-72.1891 350.396,-65.2087"/>
</g>
<!-- Node11 -->
<g id="node11" class="node"><title>Node11</title>
<polygon fill="none" stroke="#bfbfbf" points="598.5,-168.5 598.5,-187.5 633.5,-187.5 633.5,-168.5 598.5,-168.5"/>
<text text-anchor="middle" x="616" y="-175.5" font-family="Helvetica,sans-Serif" font-size="10.00">ev.h</text>
</g>
<!-- Node8&#45;&gt;Node11 -->
<g id="edge12" class="edge"><title>Node8&#45;&gt;Node11</title>
<path fill="none" stroke="midnightblue" d="M514.173,-224.444C534.374,-215.428 566.349,-201.158 589.075,-191.016"/>
<polygon fill="midnightblue" stroke="midnightblue" points="590.783,-194.087 598.488,-186.815 587.93,-187.694 590.783,-194.087"/>
</g>
<!-- Node12 -->
<g id="node12" class="node"><title>Node12</title>
<polygon fill="none" stroke="#bfbfbf" points="498,-168.5 498,-187.5 542,-187.5 542,-168.5 498,-168.5"/>
<text text-anchor="middle" x="520" y="-175.5" font-family="Helvetica,sans-Serif" font-size="10.00">argp.h</text>
</g>
<!-- Node8&#45;&gt;Node12 -->
<g id="edge13" class="edge"><title>Node8&#45;&gt;Node12</title>
<path fill="none" stroke="midnightblue" d="M499.128,-224.083C502.514,-216.77 507.416,-206.181 511.619,-197.103"/>
<polygon fill="midnightblue" stroke="midnightblue" points="514.923,-198.296 515.949,-187.751 508.571,-195.355 514.923,-198.296"/>
</g>
<!-- Node10 -->
<g id="node10" class="node"><title>Node10</title>
<polygon fill="none" stroke="#bfbfbf" points="259.5,-0.5 259.5,-19.5 348.5,-19.5 348.5,-0.5 259.5,-0.5"/>
<text text-anchor="middle" x="304" y="-7.5" font-family="Helvetica,sans-Serif" font-size="10.00">bsd/sys/queue.h</text>
</g>
<!-- Node9&#45;&gt;Node10 -->
<g id="edge11" class="edge"><title>Node9&#45;&gt;Node10</title>
<path fill="none" stroke="midnightblue" d="M304,-56.083C304,-49.0059 304,-38.8611 304,-29.9865"/>
<polygon fill="midnightblue" stroke="midnightblue" points="307.5,-29.751 304,-19.7511 300.5,-29.7511 307.5,-29.751"/>
</g>
<!-- Node13&#45;&gt;Node3 -->
<g id="edge15" class="edge"><title>Node13&#45;&gt;Node3</title>
<path fill="none" stroke="midnightblue" d="M38.1367,-112.799C58.7092,-103.982 91.67,-89.8557 115.55,-79.6213"/>
<polygon fill="midnightblue" stroke="midnightblue" points="117.035,-82.793 124.848,-75.6367 114.277,-76.359 117.035,-82.793"/>
</g>
<!-- Node13&#45;&gt;Node4 -->
<g id="edge16" class="edge"><title>Node13&#45;&gt;Node4</title>
<path fill="none" stroke="midnightblue" d="M26.7611,-112.083C33.5368,-104.298 43.5432,-92.8015 51.7551,-83.3665"/>
<polygon fill="midnightblue" stroke="midnightblue" points="54.4581,-85.592 58.3833,-75.7511 49.178,-80.9963 54.4581,-85.592"/>
</g>
<!-- Node14&#45;&gt;Node3 -->
<g id="edge18" class="edge"><title>Node14&#45;&gt;Node3</title>
<path fill="none" stroke="midnightblue" d="M214.655,-224.383C200.53,-216.789 181.671,-204.383 171,-188 150.356,-156.306 145.81,-110.984 144.983,-85.7637"/>
<polygon fill="midnightblue" stroke="midnightblue" points="148.482,-85.6539 144.821,-75.7118 141.483,-85.7671 148.482,-85.6539"/>
</g>
<!-- Node14&#45;&gt;Node9 -->
<g id="edge19" class="edge"><title>Node14&#45;&gt;Node9</title>
<path fill="none" stroke="midnightblue" d="M237.655,-224.491C242.485,-215.53 250.138,-200.949 256,-188 272.245,-152.114 288.621,-109.001 297.418,-85.1389"/>
<polygon fill="midnightblue" stroke="midnightblue" points="300.75,-86.2189 300.899,-75.6251 294.176,-83.8135 300.75,-86.2189"/>
</g>
<!-- Node15 -->
<g id="node15" class="node"><title>Node15</title>
<g id="a_node15"><a xlink:href="a00046.html" target="_top" xlink:title="hpd_map.h">
<polygon fill="none" stroke="black" points="186.5,-112.5 186.5,-131.5 251.5,-131.5 251.5,-112.5 186.5,-112.5"/>
<text text-anchor="middle" x="219" y="-119.5" font-family="Helvetica,sans-Serif" font-size="10.00">hpd_map.h</text>
</a>
</g>
</g>
<!-- Node14&#45;&gt;Node15 -->
<g id="edge20" class="edge"><title>Node14&#45;&gt;Node15</title>
<path fill="none" stroke="midnightblue" d="M235.916,-224.487C239.784,-211.974 245.613,-187.939 241,-168 238.77,-158.363 234.179,-148.405 229.764,-140.315"/>
<polygon fill="midnightblue" stroke="midnightblue" points="232.697,-138.397 224.638,-131.519 226.649,-141.922 232.697,-138.397"/>
</g>
<!-- Node17 -->
<g id="node17" class="node"><title>Node17</title>
<g id="a_node17"><a xlink:href="a00024.html" target="_top" xlink:title="comm.h">
<polygon fill="none" stroke="black" points="180,-168.5 180,-187.5 232,-187.5 232,-168.5 180,-168.5"/>
<text text-anchor="middle" x="206" y="-175.5" font-family="Helvetica,sans-Serif" font-size="10.00">comm.h</text>
</a>
</g>
</g>
<!-- Node14&#45;&gt;Node17 -->
<g id="edge25" class="edge"><title>Node14&#45;&gt;Node17</title>
<path fill="none" stroke="midnightblue" d="M228.541,-224.083C224.846,-216.691 219.477,-205.953 214.906,-196.811"/>
<polygon fill="midnightblue" stroke="midnightblue" points="217.978,-195.13 210.376,-187.751 211.717,-198.261 217.978,-195.13"/>
</g>
<!-- Node15&#45;&gt;Node3 -->
<g id="edge21" class="edge"><title>Node15&#45;&gt;Node3</title>
<path fill="none" stroke="midnightblue" d="M207.111,-112.324C195.85,-104.107 178.713,-91.6017 165.291,-81.8069"/>
<polygon fill="midnightblue" stroke="midnightblue" points="167.247,-78.9014 157.106,-75.8339 163.12,-84.5559 167.247,-78.9014"/>
</g>
<!-- Node15&#45;&gt;Node4 -->
<g id="edge24" class="edge"><title>Node15&#45;&gt;Node4</title>
<path fill="none" stroke="midnightblue" d="M194.757,-112.444C169.129,-103.399 128.515,-89.064 99.7616,-78.9158"/>
<polygon fill="midnightblue" stroke="midnightblue" points="100.725,-75.5442 90.1299,-75.5164 98.3949,-82.1452 100.725,-75.5442"/>
</g>
<!-- Node15&#45;&gt;Node9 -->
<g id="edge22" class="edge"><title>Node15&#45;&gt;Node9</title>
<path fill="none" stroke="midnightblue" d="M232.657,-112.324C245.916,-103.9 266.268,-90.9709 281.846,-81.0741"/>
<polygon fill="midnightblue" stroke="midnightblue" points="283.813,-83.9711 290.377,-75.6545 280.06,-78.0626 283.813,-83.9711"/>
</g>
<!-- Node16 -->
<g id="node16" class="node"><title>Node16</title>
<polygon fill="none" stroke="#bfbfbf" points="198,-56.5 198,-75.5 250,-75.5 250,-56.5 198,-56.5"/>
<text text-anchor="middle" x="224" y="-63.5" font-family="Helvetica,sans-Serif" font-size="10.00">stddef.h</text>
</g>
<!-- Node15&#45;&gt;Node16 -->
<g id="edge23" class="edge"><title>Node15&#45;&gt;Node16</title>
<path fill="none" stroke="midnightblue" d="M219.826,-112.083C220.481,-105.006 221.42,-94.8611 222.242,-85.9865"/>
<polygon fill="midnightblue" stroke="midnightblue" points="225.753,-86.0312 223.19,-75.7511 218.783,-85.3858 225.753,-86.0312"/>
</g>
<!-- Node17&#45;&gt;Node15 -->
<g id="edge26" class="edge"><title>Node17&#45;&gt;Node15</title>
<path fill="none" stroke="midnightblue" d="M208.147,-168.083C209.869,-160.927 212.347,-150.635 214.5,-141.691"/>
<polygon fill="midnightblue" stroke="midnightblue" points="217.955,-142.293 216.893,-131.751 211.15,-140.654 217.955,-142.293"/>
</g>
</g>
</svg>
        <g id="navigator" transform="translate(0 0)" fill="#404254">
                <rect fill="#f2f5e9" fill-opacity="0.5" stroke="#606060" stroke-width=".5" x="0" y="0" width="60" height="60"/>
                <use id="zoomplus" xlink:href="#zoomPlus" x="17" y="9" onmousedown="handleZoom(evt,'in')"/>
                <use id="zoomminus" xlink:href="#zoomMin" x="42" y="9" onmousedown="handleZoom(evt,'out')"/>
                <use id="reset" xlink:href="#resetDef" x="30" y="36" onmousedown="handleReset()"/>
                <g id="arrowUp" xlink:href="#dirArrow" transform="translate(30 24)" onmousedown="handlePan(0,-1)">
                  <use xlink:href="#rim" fill="#404040">
                        <set attributeName="fill" to="#808080" begin="arrowUp.mouseover" end="arrowUp.mouseout"/>
                  </use>
                  <path fill="none" stroke="white" stroke-width="1.5" d="M0,-3.0v7 M-2.5,-0.5L0,-3.0L2.5,-0.5"/>
                </g>
                <g id="arrowRight" xlink:href="#dirArrow" transform="rotate(90) translate(36 -43)" onmousedown="handlePan(1,0)">
                  <use xlink:href="#rim" fill="#404040">
                        <set attributeName="fill" to="#808080" begin="arrowRight.mouseover" end="arrowRight.mouseout"/>
                  </use>
                  <path fill="none" stroke="white" stroke-width="1.5" d="M0,-3.0v7 M-2.5,-0.5L0,-3.0L2.5,-0.5"/>
                </g>
                <g id="arrowDown" xlink:href="#dirArrow" transform="rotate(180) translate(-30 -48)" onmousedown="handlePan(0,1)">
                  <use xlink:href="#rim" fill="#404040">
                        <set attributeName="fill" to="#808080" begin="arrowDown.mouseover" end="arrowDown.mouseout"/>
                  </use>
                  <path fill="none" stroke="white" stroke-width="1.5" d="M0,-3.0v7 M-2.5,-0.5L0,-3.0L2.5,-0.5"/>
                </g>
                <g id="arrowLeft" xlink:href="#dirArrow" transform="rotate(270) translate(-36 17)" onmousedown="handlePan(-1,0)">
                  <use xlink:href="#rim" fill="#404040">
                        <set attributeName="fill" to="#808080" begin="arrowLeft.mouseover" end="arrowLeft.mouseout"/>
                  </use>
                  <path fill="none" stroke="white" stroke-width="1.5" d="M0,-3.0v7 M-2.5,-0.5L0,-3.0L2.5,-0.5"/>
                </g>
        </g>
        <svg viewBox="0 0 15 15" width="100%" height="30px" preserveAspectRatio="xMaxYMin meet">
         <g id="arrow_out" transform="scale(0.3 0.3)">
          <a xlink:href="a00213_org.svg" target="_base">
           <rect id="button" ry="5" rx="5" y="6" x="6" height="38" width="38"
                fill="#f2f5e9" fill-opacity="0.5" stroke="#606060" stroke-width="1.0"/>
           <path id="arrow"
             d="M 11.500037,31.436501 C 11.940474,20.09759 22.043105,11.32322 32.158766,21.979434 L 37.068811,17.246167 C 37.068811,17.246167 37.088388,32 37.088388,32 L 22.160133,31.978069 C 22.160133,31.978069 26.997745,27.140456 26.997745,27.140456 C 18.528582,18.264221 13.291696,25.230495 11.500037,31.436501 z"
             style="fill:#404040;"/>
          </a>
         </g>
        </svg>
</svg>
