<?xml version="1.0" encoding="UTF-8" standalone="no"?>
<!DOCTYPE svg PUBLIC "-//W3C//DTD SVG 1.1//EN"
 "http://www.w3.org/Graphics/SVG/1.1/DTD/svg11.dtd">
<!-- Generated by graphviz version 2.38.0 (20140413.2041)
 -->
<!-- Title: hpd/src/value.c Pages: 1 -->
<!--zoomable 252 -->
<svg id="main" version="1.1" xmlns="http://www.w3.org/2000/svg" xmlns:xlink="http://www.w3.org/1999/xlink" xml:space="preserve" onload="init(evt)">
<style type="text/css"><![CDATA[
.edge:hover path { stroke: red; }
.edge:hover polygon { stroke: red; fill: red; }
]]></style>
<script type="text/javascript"><![CDATA[
var edges = document.getElementsByTagName('g');
if (edges && edges.length) {
  for (var i=0;i<edges.length;i++) {
    if (edges[i].id.substr(0,4)=='edge') {
      edges[i].setAttribute('class','edge');
    }
  }
}
]]></script>
        <defs>
                <circle id="rim" cx="0" cy="0" r="7"/>
                <circle id="rim2" cx="0" cy="0" r="3.5"/>
                <g id="zoomPlus">
                        <use xlink:href="#rim" fill="#404040">
                                <set attributeName="fill" to="#808080" begin="zoomplus.mouseover" end="zoomplus.mouseout"/>
                        </use>
                        <path d="M-4,0h8M0,-4v8" fill="none" stroke="white" stroke-width="1.5" pointer-events="none"/>
                </g>
                <g id="zoomMin">
                        <use xlink:href="#rim" fill="#404040">
                                <set attributeName="fill" to="#808080" begin="zoomminus.mouseover" end="zoomminus.mouseout"/>
                        </use>
                        <path d="M-4,0h8" fill="none" stroke="white" stroke-width="1.5" pointer-events="none"/>
                </g>
                <g id="dirArrow">
                        <path fill="none" stroke="white" stroke-width="1.5" d="M0,-3.0v7 M-2.5,-0.5L0,-3.0L2.5,-0.5"/>
                </g>
               <g id="resetDef">
                       <use xlink:href="#rim2" fill="#404040">
                               <set attributeName="fill" to="#808080" begin="reset.mouseover" end="reset.mouseout"/>
                       </use>
               </g>
        </defs>

<script type="text/javascript">
var viewWidth = 566;
var viewHeight = 252;
var sectionId = 'dynsection-0';
</script>
<script xlink:href="svgpan.js"/>
<svg id="graph" class="graph">
<g id="viewport">
<title>hpd/src/value.c</title>
<!-- Node1 -->
<g id="node1" class="node"><title>Node1</title>
<polygon fill="#bfbfbf" stroke="black" points="238,-224.5 238,-243.5 321,-243.5 321,-224.5 238,-224.5"/>
<text text-anchor="middle" x="279.5" y="-231.5" font-family="Helvetica,sans-Serif" font-size="10.00">hpd/src/value.c</text>
</g>
<!-- Node2 -->
<g id="node2" class="node"><title>Node2</title>
<g id="a_node2"><a xlink:href="a00091.html" target="_top" xlink:title="value.h">
<polygon fill="none" stroke="black" points="255.5,-112.5 255.5,-131.5 303.5,-131.5 303.5,-112.5 255.5,-112.5"/>
<text text-anchor="middle" x="279.5" y="-119.5" font-family="Helvetica,sans-Serif" font-size="10.00">value.h</text>
</a>
</g>
</g>
<!-- Node1&#45;&gt;Node2 -->
<g id="edge1" class="edge"><title>Node1&#45;&gt;Node2</title>
<path fill="none" stroke="midnightblue" d="M279.5,-224.368C279.5,-206.617 279.5,-165.666 279.5,-141.597"/>
<polygon fill="midnightblue" stroke="midnightblue" points="283,-141.591 279.5,-131.591 276,-141.591 283,-141.591"/>
</g>
<!-- Node6 -->
<g id="node6" class="node"><title>Node6</title>
<g id="a_node6"><a xlink:href="a00053.html" target="_top" xlink:title="hpd/common/hpd_common.h">
<polygon fill="none" stroke="black" points="382,-168.5 382,-187.5 525,-187.5 525,-168.5 382,-168.5"/>
<text text-anchor="middle" x="453.5" y="-175.5" font-family="Helvetica,sans-Serif" font-size="10.00">hpd/common/hpd_common.h</text>
</a>
</g>
</g>
<!-- Node1&#45;&gt;Node6 -->
<g id="edge5" class="edge"><title>Node1&#45;&gt;Node6</title>
<path fill="none" stroke="midnightblue" d="M307.071,-224.444C336.597,-215.28 383.618,-200.688 416.383,-190.519"/>
<polygon fill="midnightblue" stroke="midnightblue" points="417.545,-193.823 426.058,-187.516 415.47,-187.138 417.545,-193.823"/>
</g>
<!-- Node10 -->
<g id="node10" class="node"><title>Node10</title>
<g id="a_node10"><a xlink:href="a00056.html" target="_top" xlink:title="hpd/common/hpd_map.h">
<polygon fill="none" stroke="black" points="113.5,-112.5 113.5,-131.5 237.5,-131.5 237.5,-112.5 113.5,-112.5"/>
<text text-anchor="middle" x="175.5" y="-119.5" font-family="Helvetica,sans-Serif" font-size="10.00">hpd/common/hpd_map.h</text>
</a>
</g>
</g>
<!-- Node1&#45;&gt;Node10 -->
<g id="edge9" class="edge"><title>Node1&#45;&gt;Node10</title>
<path fill="none" stroke="midnightblue" d="M271.339,-224.368C253.948,-205.974 213.007,-162.671 190.676,-139.052"/>
<polygon fill="midnightblue" stroke="midnightblue" points="193.036,-136.453 183.623,-131.591 187.95,-141.262 193.036,-136.453"/>
</g>
<!-- Node13 -->
<g id="node13" class="node"><title>Node13</title>
<g id="a_node13"><a xlink:href="a00033.html" target="_top" xlink:title="comm.h">
<polygon fill="none" stroke="black" points="152.5,-168.5 152.5,-187.5 204.5,-187.5 204.5,-168.5 152.5,-168.5"/>
<text text-anchor="middle" x="178.5" y="-175.5" font-family="Helvetica,sans-Serif" font-size="10.00">comm.h</text>
</a>
</g>
</g>
<!-- Node1&#45;&gt;Node13 -->
<g id="edge15" class="edge"><title>Node1&#45;&gt;Node13</title>
<path fill="none" stroke="midnightblue" d="M263.273,-224.324C247.149,-215.703 222.2,-202.364 203.536,-192.386"/>
<polygon fill="midnightblue" stroke="midnightblue" points="205.156,-189.283 194.687,-187.655 201.856,-195.456 205.156,-189.283"/>
</g>
<!-- Node14 -->
<g id="node14" class="node"><title>Node14</title>
<g id="a_node14"><a xlink:href="a00085.html" target="_top" xlink:title="log.h">
<polygon fill="none" stroke="black" points="321.5,-112.5 321.5,-131.5 359.5,-131.5 359.5,-112.5 321.5,-112.5"/>
<text text-anchor="middle" x="340.5" y="-119.5" font-family="Helvetica,sans-Serif" font-size="10.00">log.h</text>
</a>
</g>
</g>
<!-- Node1&#45;&gt;Node14 -->
<g id="edge17" class="edge"><title>Node1&#45;&gt;Node14</title>
<path fill="none" stroke="midnightblue" d="M284.287,-224.368C294.264,-206.376 317.458,-164.55 330.725,-140.627"/>
<polygon fill="midnightblue" stroke="midnightblue" points="333.947,-142.034 335.736,-131.591 327.825,-138.639 333.947,-142.034"/>
</g>
<!-- Node3 -->
<g id="node3" class="node"><title>Node3</title>
<g id="a_node3"><a xlink:href="a00030.html" target="_top" xlink:title="hpd/hpd_types.h">
<polygon fill="none" stroke="black" points="220,-56.5 220,-75.5 309,-75.5 309,-56.5 220,-56.5"/>
<text text-anchor="middle" x="264.5" y="-63.5" font-family="Helvetica,sans-Serif" font-size="10.00">hpd/hpd_types.h</text>
</a>
</g>
</g>
<!-- Node2&#45;&gt;Node3 -->
<g id="edge2" class="edge"><title>Node2&#45;&gt;Node3</title>
<path fill="none" stroke="midnightblue" d="M277.023,-112.083C275.014,-104.849 272.114,-94.4087 269.61,-85.3968"/>
<polygon fill="midnightblue" stroke="midnightblue" points="272.98,-84.4495 266.931,-75.7511 266.235,-86.323 272.98,-84.4495"/>
</g>
<!-- Node4 -->
<g id="node4" class="node"><title>Node4</title>
<polygon fill="none" stroke="#bfbfbf" points="149.5,-56.5 149.5,-75.5 201.5,-75.5 201.5,-56.5 149.5,-56.5"/>
<text text-anchor="middle" x="175.5" y="-63.5" font-family="Helvetica,sans-Serif" font-size="10.00">stddef.h</text>
</g>
<!-- Node2&#45;&gt;Node4 -->
<g id="edge3" class="edge"><title>Node2&#45;&gt;Node4</title>
<path fill="none" stroke="midnightblue" d="M262.791,-112.324C246.188,-103.703 220.498,-90.3643 201.28,-80.3855"/>
<polygon fill="midnightblue" stroke="midnightblue" points="202.656,-77.1565 192.168,-75.6545 199.43,-83.3689 202.656,-77.1565"/>
</g>
<!-- Node5 -->
<g id="node5" class="node"><title>Node5</title>
<polygon fill="none" stroke="#bfbfbf" points="327.5,-56.5 327.5,-75.5 379.5,-75.5 379.5,-56.5 327.5,-56.5"/>
<text text-anchor="middle" x="353.5" y="-63.5" font-family="Helvetica,sans-Serif" font-size="10.00">stdarg.h</text>
</g>
<!-- Node2&#45;&gt;Node5 -->
<g id="edge4" class="edge"><title>Node2&#45;&gt;Node5</title>
<path fill="none" stroke="midnightblue" d="M291.389,-112.324C302.65,-104.107 319.787,-91.6017 333.209,-81.8069"/>
<polygon fill="midnightblue" stroke="midnightblue" points="335.38,-84.5559 341.394,-75.8339 331.253,-78.9014 335.38,-84.5559"/>
</g>
<!-- Node7 -->
<g id="node7" class="node"><title>Node7</title>
<polygon fill="none" stroke="#bfbfbf" points="377.5,-112.5 377.5,-131.5 425.5,-131.5 425.5,-112.5 377.5,-112.5"/>
<text text-anchor="middle" x="401.5" y="-119.5" font-family="Helvetica,sans-Serif" font-size="10.00">stdlib.h</text>
</g>
<!-- Node6&#45;&gt;Node7 -->
<g id="edge6" class="edge"><title>Node6&#45;&gt;Node7</title>
<path fill="none" stroke="midnightblue" d="M444.913,-168.083C437.341,-160.22 426.122,-148.569 416.986,-139.081"/>
<polygon fill="midnightblue" stroke="midnightblue" points="419.385,-136.527 409.927,-131.751 414.342,-141.382 419.385,-136.527"/>
</g>
<!-- Node8 -->
<g id="node8" class="node"><title>Node8</title>
<polygon fill="none" stroke="#bfbfbf" points="444,-112.5 444,-131.5 493,-131.5 493,-112.5 444,-112.5"/>
<text text-anchor="middle" x="468.5" y="-119.5" font-family="Helvetica,sans-Serif" font-size="10.00">string.h</text>
</g>
<!-- Node6&#45;&gt;Node8 -->
<g id="edge7" class="edge"><title>Node6&#45;&gt;Node8</title>
<path fill="none" stroke="midnightblue" d="M455.977,-168.083C457.986,-160.849 460.886,-150.409 463.39,-141.397"/>
<polygon fill="midnightblue" stroke="midnightblue" points="466.765,-142.323 466.069,-131.751 460.02,-140.449 466.765,-142.323"/>
</g>
<!-- Node9 -->
<g id="node9" class="node"><title>Node9</title>
<polygon fill="none" stroke="#bfbfbf" points="511.5,-112.5 511.5,-131.5 557.5,-131.5 557.5,-112.5 511.5,-112.5"/>
<text text-anchor="middle" x="534.5" y="-119.5" font-family="Helvetica,sans-Serif" font-size="10.00">stdio.h</text>
</g>
<!-- Node6&#45;&gt;Node9 -->
<g id="edge8" class="edge"><title>Node6&#45;&gt;Node9</title>
<path fill="none" stroke="midnightblue" d="M466.514,-168.324C479.032,-159.979 498.182,-147.212 512.971,-137.352"/>
<polygon fill="midnightblue" stroke="midnightblue" points="515.139,-140.114 521.518,-131.655 511.256,-134.289 515.139,-140.114"/>
</g>
<!-- Node10&#45;&gt;Node3 -->
<g id="edge10" class="edge"><title>Node10&#45;&gt;Node3</title>
<path fill="none" stroke="midnightblue" d="M189.799,-112.324C203.683,-103.9 224.992,-90.9709 241.304,-81.0741"/>
<polygon fill="midnightblue" stroke="midnightblue" points="243.502,-83.8341 250.236,-75.6545 239.871,-77.8495 243.502,-83.8341"/>
</g>
<!-- Node10&#45;&gt;Node4 -->
<g id="edge13" class="edge"><title>Node10&#45;&gt;Node4</title>
<path fill="none" stroke="midnightblue" d="M175.5,-112.083C175.5,-105.006 175.5,-94.8611 175.5,-85.9865"/>
<polygon fill="midnightblue" stroke="midnightblue" points="179,-85.751 175.5,-75.7511 172,-85.7511 179,-85.751"/>
</g>
<!-- Node10&#45;&gt;Node5 -->
<g id="edge14" class="edge"><title>Node10&#45;&gt;Node5</title>
<path fill="none" stroke="midnightblue" d="M203.705,-112.444C234.532,-103.091 284,-88.0844 317.581,-77.8969"/>
<polygon fill="midnightblue" stroke="midnightblue" points="318.901,-81.1539 327.454,-74.9015 316.869,-74.4554 318.901,-81.1539"/>
</g>
<!-- Node11 -->
<g id="node11" class="node"><title>Node11</title>
<g id="a_node11"><a xlink:href="a00055.html" target="_top" xlink:title="hpd/common/hpd_queue.h">
<polygon fill="none" stroke="black" points="0,-56.5 0,-75.5 131,-75.5 131,-56.5 0,-56.5"/>
<text text-anchor="middle" x="65.5" y="-63.5" font-family="Helvetica,sans-Serif" font-size="10.00">hpd/common/hpd_queue.h</text>
</a>
</g>
</g>
<!-- Node10&#45;&gt;Node11 -->
<g id="edge11" class="edge"><title>Node10&#45;&gt;Node11</title>
<path fill="none" stroke="midnightblue" d="M157.827,-112.324C140.106,-103.625 112.597,-90.1202 92.2116,-80.113"/>
<polygon fill="midnightblue" stroke="midnightblue" points="93.6486,-76.9195 83.1295,-75.6545 90.5639,-83.2031 93.6486,-76.9195"/>
</g>
<!-- Node12 -->
<g id="node12" class="node"><title>Node12</title>
<polygon fill="none" stroke="#bfbfbf" points="21,-0.5 21,-19.5 110,-19.5 110,-0.5 21,-0.5"/>
<text text-anchor="middle" x="65.5" y="-7.5" font-family="Helvetica,sans-Serif" font-size="10.00">bsd/sys/queue.h</text>
</g>
<!-- Node11&#45;&gt;Node12 -->
<g id="edge12" class="edge"><title>Node11&#45;&gt;Node12</title>
<path fill="none" stroke="midnightblue" d="M65.5,-56.083C65.5,-49.0059 65.5,-38.8611 65.5,-29.9865"/>
<polygon fill="midnightblue" stroke="midnightblue" points="69.0001,-29.751 65.5,-19.7511 62.0001,-29.7511 69.0001,-29.751"/>
</g>
<!-- Node13&#45;&gt;Node10 -->
<g id="edge16" class="edge"><title>Node13&#45;&gt;Node10</title>
<path fill="none" stroke="midnightblue" d="M178.005,-168.083C177.611,-161.006 177.048,-150.861 176.555,-141.986"/>
<polygon fill="midnightblue" stroke="midnightblue" points="180.036,-141.542 175.986,-131.751 173.046,-141.93 180.036,-141.542"/>
</g>
<!-- Node14&#45;&gt;Node3 -->
<g id="edge18" class="edge"><title>Node14&#45;&gt;Node3</title>
<path fill="none" stroke="midnightblue" d="M328.289,-112.324C316.724,-104.107 299.125,-91.6017 285.339,-81.8069"/>
<polygon fill="midnightblue" stroke="midnightblue" points="287.112,-78.7729 276.933,-75.8339 283.057,-84.4791 287.112,-78.7729"/>
</g>
<!-- Node14&#45;&gt;Node5 -->
<g id="edge19" class="edge"><title>Node14&#45;&gt;Node5</title>
<path fill="none" stroke="midnightblue" d="M342.647,-112.083C344.369,-104.927 346.847,-94.6353 349,-85.6911"/>
<polygon fill="midnightblue" stroke="midnightblue" points="352.455,-86.2925 351.393,-75.7511 345.65,-84.6541 352.455,-86.2925"/>
</g>
</g>
</svg>
        <g id="navigator" transform="translate(0 0)" fill="#404254">
                <rect fill="#f2f5e9" fill-opacity="0.5" stroke="#606060" stroke-width=".5" x="0" y="0" width="60" height="60"/>
                <use id="zoomplus" xlink:href="#zoomPlus" x="17" y="9" onmousedown="handleZoom(evt,'in')"/>
                <use id="zoomminus" xlink:href="#zoomMin" x="42" y="9" onmousedown="handleZoom(evt,'out')"/>
                <use id="reset" xlink:href="#resetDef" x="30" y="36" onmousedown="handleReset()"/>
                <g id="arrowUp" xlink:href="#dirArrow" transform="translate(30 24)" onmousedown="handlePan(0,-1)">
                  <use xlink:href="#rim" fill="#404040">
                        <set attributeName="fill" to="#808080" begin="arrowUp.mouseover" end="arrowUp.mouseout"/>
                  </use>
                  <path fill="none" stroke="white" stroke-width="1.5" d="M0,-3.0v7 M-2.5,-0.5L0,-3.0L2.5,-0.5"/>
                </g>
                <g id="arrowRight" xlink:href="#dirArrow" transform="rotate(90) translate(36 -43)" onmousedown="handlePan(1,0)">
                  <use xlink:href="#rim" fill="#404040">
                        <set attributeName="fill" to="#808080" begin="arrowRight.mouseover" end="arrowRight.mouseout"/>
                  </use>
                  <path fill="none" stroke="white" stroke-width="1.5" d="M0,-3.0v7 M-2.5,-0.5L0,-3.0L2.5,-0.5"/>
                </g>
                <g id="arrowDown" xlink:href="#dirArrow" transform="rotate(180) translate(-30 -48)" onmousedown="handlePan(0,1)">
                  <use xlink:href="#rim" fill="#404040">
                        <set attributeName="fill" to="#808080" begin="arrowDown.mouseover" end="arrowDown.mouseout"/>
                  </use>
                  <path fill="none" stroke="white" stroke-width="1.5" d="M0,-3.0v7 M-2.5,-0.5L0,-3.0L2.5,-0.5"/>
                </g>
                <g id="arrowLeft" xlink:href="#dirArrow" transform="rotate(270) translate(-36 17)" onmousedown="handlePan(-1,0)">
                  <use xlink:href="#rim" fill="#404040">
                        <set attributeName="fill" to="#808080" begin="arrowLeft.mouseover" end="arrowLeft.mouseout"/>
                  </use>
                  <path fill="none" stroke="white" stroke-width="1.5" d="M0,-3.0v7 M-2.5,-0.5L0,-3.0L2.5,-0.5"/>
                </g>
        </g>
        <svg viewBox="0 0 15 15" width="100%" height="30px" preserveAspectRatio="xMaxYMin meet">
         <g id="arrow_out" transform="scale(0.3 0.3)">
          <a xlink:href="a00268_org.svg" target="_base">
           <rect id="button" ry="5" rx="5" y="6" x="6" height="38" width="38"
                fill="#f2f5e9" fill-opacity="0.5" stroke="#606060" stroke-width="1.0"/>
           <path id="arrow"
             d="M 11.500037,31.436501 C 11.940474,20.09759 22.043105,11.32322 32.158766,21.979434 L 37.068811,17.246167 C 37.068811,17.246167 37.088388,32 37.088388,32 L 22.160133,31.978069 C 22.160133,31.978069 26.997745,27.140456 26.997745,27.140456 C 18.528582,18.264221 13.291696,25.230495 11.500037,31.436501 z"
             style="fill:#404040;"/>
          </a>
         </g>
        </svg>
</svg>
