<?xml version="1.0" encoding="UTF-8" standalone="no"?>
<!DOCTYPE svg PUBLIC "-//W3C//DTD SVG 1.1//EN"
 "http://www.w3.org/Graphics/SVG/1.1/DTD/svg11.dtd">
<!-- Generated by graphviz version 2.38.0 (20140413.2041)
 -->
<!-- Title: hpd/src/event.c Pages: 1 -->
<!--zoomable 308 -->
<svg id="main" version="1.1" xmlns="http://www.w3.org/2000/svg" xmlns:xlink="http://www.w3.org/1999/xlink" xml:space="preserve" onload="init(evt)">
<style type="text/css"><![CDATA[
.edge:hover path { stroke: red; }
.edge:hover polygon { stroke: red; fill: red; }
]]></style>
<script type="text/javascript"><![CDATA[
var edges = document.getElementsByTagName('g');
if (edges && edges.length) {
  for (var i=0;i<edges.length;i++) {
    if (edges[i].id.substr(0,4)=='edge') {
      edges[i].setAttribute('class','edge');
    }
  }
}
]]></script>
        <defs>
                <circle id="rim" cx="0" cy="0" r="7"/>
                <circle id="rim2" cx="0" cy="0" r="3.5"/>
                <g id="zoomPlus">
                        <use xlink:href="#rim" fill="#404040">
                                <set attributeName="fill" to="#808080" begin="zoomplus.mouseover" end="zoomplus.mouseout"/>
                        </use>
                        <path d="M-4,0h8M0,-4v8" fill="none" stroke="white" stroke-width="1.5" pointer-events="none"/>
                </g>
                <g id="zoomMin">
                        <use xlink:href="#rim" fill="#404040">
                                <set attributeName="fill" to="#808080" begin="zoomminus.mouseover" end="zoomminus.mouseout"/>
                        </use>
                        <path d="M-4,0h8" fill="none" stroke="white" stroke-width="1.5" pointer-events="none"/>
                </g>
                <g id="dirArrow">
                        <path fill="none" stroke="white" stroke-width="1.5" d="M0,-3.0v7 M-2.5,-0.5L0,-3.0L2.5,-0.5"/>
                </g>
               <g id="resetDef">
                       <use xlink:href="#rim2" fill="#404040">
                               <set attributeName="fill" to="#808080" begin="reset.mouseover" end="reset.mouseout"/>
                       </use>
               </g>
        </defs>

<script type="text/javascript">
var viewWidth = 729;
var viewHeight = 308;
var sectionId = 'dynsection-0';
</script>
<script xlink:href="svgpan.js"/>
<svg id="graph" class="graph">
<g id="viewport">
<title>hpd/src/event.c</title>
<!-- Node1 -->
<g id="node1" class="node"><title>Node1</title>
<polygon fill="#bfbfbf" stroke="black" points="217.5,-280.5 217.5,-299.5 301.5,-299.5 301.5,-280.5 217.5,-280.5"/>
<text text-anchor="middle" x="259.5" y="-287.5" font-family="Helvetica,sans-Serif" font-size="10.00">hpd/src/event.c</text>
</g>
<!-- Node2 -->
<g id="node2" class="node"><title>Node2</title>
<g id="a_node2"><a xlink:href="a00009.html" target="_top" xlink:title="daemon.h">
<polygon fill="none" stroke="black" points="471,-224.5 471,-243.5 530,-243.5 530,-224.5 471,-224.5"/>
<text text-anchor="middle" x="500.5" y="-231.5" font-family="Helvetica,sans-Serif" font-size="10.00">daemon.h</text>
</a>
</g>
</g>
<!-- Node1&#45;&gt;Node2 -->
<g id="edge1" class="edge"><title>Node1&#45;&gt;Node2</title>
<path fill="none" stroke="midnightblue" d="M297.687,-280.444C342.262,-270.456 415.621,-254.019 460.825,-243.89"/>
<polygon fill="midnightblue" stroke="midnightblue" points="461.856,-247.246 470.849,-241.644 460.325,-240.415 461.856,-247.246"/>
</g>
<!-- Node4 -->
<g id="node4" class="node"><title>Node4</title>
<g id="a_node4"><a xlink:href="a00044.html" target="_top" xlink:title="hpd_common.h">
<polygon fill="none" stroke="black" points="622,-168.5 622,-187.5 705,-187.5 705,-168.5 622,-168.5"/>
<text text-anchor="middle" x="663.5" y="-175.5" font-family="Helvetica,sans-Serif" font-size="10.00">hpd_common.h</text>
</a>
</g>
</g>
<!-- Node1&#45;&gt;Node4 -->
<g id="edge12" class="edge"><title>Node1&#45;&gt;Node4</title>
<path fill="none" stroke="midnightblue" d="M301.614,-286.403C357.116,-282.042 457.223,-270.909 538.5,-244 576.629,-231.377 617.272,-208.205 641.517,-193.21"/>
<polygon fill="midnightblue" stroke="midnightblue" points="643.656,-195.999 650.261,-187.715 639.932,-190.072 643.656,-195.999"/>
</g>
<!-- Node11 -->
<g id="node11" class="node"><title>Node11</title>
<g id="a_node11"><a xlink:href="a00067.html" target="_top" xlink:title="event.h">
<polygon fill="none" stroke="black" points="199,-224.5 199,-243.5 248,-243.5 248,-224.5 199,-224.5"/>
<text text-anchor="middle" x="223.5" y="-231.5" font-family="Helvetica,sans-Serif" font-size="10.00">event.h</text>
</a>
</g>
</g>
<!-- Node1&#45;&gt;Node11 -->
<g id="edge10" class="edge"><title>Node1&#45;&gt;Node11</title>
<path fill="none" stroke="midnightblue" d="M253.555,-280.083C248.523,-272.534 241.163,-261.495 234.987,-252.23"/>
<polygon fill="midnightblue" stroke="midnightblue" points="237.793,-250.13 229.334,-243.751 231.969,-254.013 237.793,-250.13"/>
</g>
<!-- Node12 -->
<g id="node12" class="node"><title>Node12</title>
<g id="a_node12"><a xlink:href="a00011.html" target="_top" xlink:title="discovery.h">
<polygon fill="none" stroke="black" points="0,-112.5 0,-131.5 67,-131.5 67,-112.5 0,-112.5"/>
<text text-anchor="middle" x="33.5" y="-119.5" font-family="Helvetica,sans-Serif" font-size="10.00">discovery.h</text>
</a>
</g>
</g>
<!-- Node1&#45;&gt;Node12 -->
<g id="edge13" class="edge"><title>Node1&#45;&gt;Node12</title>
<path fill="none" stroke="midnightblue" d="M232.464,-280.442C210.607,-272.807 179.616,-260.316 155.5,-244 110.412,-213.495 67.6129,-164.997 46.7497,-139.658"/>
<polygon fill="midnightblue" stroke="midnightblue" points="49.3353,-137.289 40.3172,-131.728 43.8991,-141.699 49.3353,-137.289"/>
</g>
<!-- Node14 -->
<g id="node14" class="node"><title>Node14</title>
<g id="a_node14"><a xlink:href="a00076.html" target="_top" xlink:title="value.h">
<polygon fill="none" stroke="black" points="141.5,-112.5 141.5,-131.5 189.5,-131.5 189.5,-112.5 141.5,-112.5"/>
<text text-anchor="middle" x="165.5" y="-119.5" font-family="Helvetica,sans-Serif" font-size="10.00">value.h</text>
</a>
</g>
</g>
<!-- Node1&#45;&gt;Node14 -->
<g id="edge16" class="edge"><title>Node1&#45;&gt;Node14</title>
<path fill="none" stroke="midnightblue" d="M237.419,-280.42C221.605,-273.119 201.125,-261.079 189.5,-244 168.286,-212.834 164.899,-167.314 164.853,-141.918"/>
<polygon fill="midnightblue" stroke="midnightblue" points="168.354,-141.845 165.015,-131.79 161.355,-141.733 168.354,-141.845"/>
</g>
<!-- Node16 -->
<g id="node16" class="node"><title>Node16</title>
<g id="a_node16"><a xlink:href="a00070.html" target="_top" xlink:title="log.h">
<polygon fill="none" stroke="black" points="85.5,-112.5 85.5,-131.5 123.5,-131.5 123.5,-112.5 85.5,-112.5"/>
<text text-anchor="middle" x="104.5" y="-119.5" font-family="Helvetica,sans-Serif" font-size="10.00">log.h</text>
</a>
</g>
</g>
<!-- Node1&#45;&gt;Node16 -->
<g id="edge20" class="edge"><title>Node1&#45;&gt;Node16</title>
<path fill="none" stroke="midnightblue" d="M235.943,-280.49C217.782,-273.027 192.908,-260.745 175.5,-244 144.167,-213.86 122.01,-166.924 111.466,-141.267"/>
<polygon fill="midnightblue" stroke="midnightblue" points="114.606,-139.691 107.666,-131.686 108.099,-142.271 114.606,-139.691"/>
</g>
<!-- Node17 -->
<g id="node17" class="node"><title>Node17</title>
<g id="a_node17"><a xlink:href="a00024.html" target="_top" xlink:title="comm.h">
<polygon fill="none" stroke="black" points="359.5,-168.5 359.5,-187.5 411.5,-187.5 411.5,-168.5 359.5,-168.5"/>
<text text-anchor="middle" x="385.5" y="-175.5" font-family="Helvetica,sans-Serif" font-size="10.00">comm.h</text>
</a>
</g>
</g>
<!-- Node1&#45;&gt;Node17 -->
<g id="edge23" class="edge"><title>Node1&#45;&gt;Node17</title>
<path fill="none" stroke="midnightblue" d="M274.878,-280.381C289.203,-272.001 310.802,-258.452 327.5,-244 344.573,-229.223 361.459,-209.574 372.569,-195.762"/>
<polygon fill="midnightblue" stroke="midnightblue" points="375.533,-197.657 378.98,-187.638 370.038,-193.32 375.533,-197.657"/>
</g>
<!-- Node19 -->
<g id="node19" class="node"><title>Node19</title>
<g id="a_node19"><a xlink:href="a00005.html" target="_top" xlink:title="model.h">
<polygon fill="none" stroke="black" points="268,-224.5 268,-243.5 319,-243.5 319,-224.5 268,-224.5"/>
<text text-anchor="middle" x="293.5" y="-231.5" font-family="Helvetica,sans-Serif" font-size="10.00">model.h</text>
</a>
</g>
</g>
<!-- Node1&#45;&gt;Node19 -->
<g id="edge29" class="edge"><title>Node1&#45;&gt;Node19</title>
<path fill="none" stroke="midnightblue" d="M265.114,-280.083C269.867,-272.534 276.818,-261.495 282.652,-252.23"/>
<polygon fill="midnightblue" stroke="midnightblue" points="285.624,-254.078 287.99,-243.751 279.7,-250.349 285.624,-254.078"/>
</g>
<!-- Node3 -->
<g id="node3" class="node"><title>Node3</title>
<g id="a_node3"><a xlink:href="a00021.html" target="_top" xlink:title="hpd_types.h">
<polygon fill="none" stroke="black" points="182.5,-56.5 182.5,-75.5 252.5,-75.5 252.5,-56.5 182.5,-56.5"/>
<text text-anchor="middle" x="217.5" y="-63.5" font-family="Helvetica,sans-Serif" font-size="10.00">hpd_types.h</text>
</a>
</g>
</g>
<!-- Node2&#45;&gt;Node3 -->
<g id="edge2" class="edge"><title>Node2&#45;&gt;Node3</title>
<path fill="none" stroke="midnightblue" d="M492.676,-224.358C472.425,-202.481 415.794,-144.35 357.5,-112 327.777,-95.5055 291.1,-83.9957 262.744,-76.7475"/>
<polygon fill="midnightblue" stroke="midnightblue" points="263.249,-73.2672 252.701,-74.2686 261.571,-80.0632 263.249,-73.2672"/>
</g>
<!-- Node2&#45;&gt;Node4 -->
<g id="edge3" class="edge"><title>Node2&#45;&gt;Node4</title>
<path fill="none" stroke="midnightblue" d="M526.328,-224.444C553.749,-215.359 597.277,-200.939 627.932,-190.783"/>
<polygon fill="midnightblue" stroke="midnightblue" points="629.401,-193.984 637.793,-187.516 627.2,-187.339 629.401,-193.984"/>
</g>
<!-- Node7 -->
<g id="node7" class="node"><title>Node7</title>
<g id="a_node7"><a xlink:href="a00045.html" target="_top" xlink:title="hpd_queue.h">
<polygon fill="none" stroke="black" points="379.5,-56.5 379.5,-75.5 451.5,-75.5 451.5,-56.5 379.5,-56.5"/>
<text text-anchor="middle" x="415.5" y="-63.5" font-family="Helvetica,sans-Serif" font-size="10.00">hpd_queue.h</text>
</a>
</g>
</g>
<!-- Node2&#45;&gt;Node7 -->
<g id="edge6" class="edge"><title>Node2&#45;&gt;Node7</title>
<path fill="none" stroke="midnightblue" d="M495.93,-224.075C482.434,-197.719 442.576,-119.878 424.543,-84.6608"/>
<polygon fill="midnightblue" stroke="midnightblue" points="427.56,-82.8739 419.887,-75.5681 421.33,-86.0643 427.56,-82.8739"/>
</g>
<!-- Node9 -->
<g id="node9" class="node"><title>Node9</title>
<polygon fill="none" stroke="#bfbfbf" points="506,-168.5 506,-187.5 541,-187.5 541,-168.5 506,-168.5"/>
<text text-anchor="middle" x="523.5" y="-175.5" font-family="Helvetica,sans-Serif" font-size="10.00">ev.h</text>
</g>
<!-- Node2&#45;&gt;Node9 -->
<g id="edge8" class="edge"><title>Node2&#45;&gt;Node9</title>
<path fill="none" stroke="midnightblue" d="M504.298,-224.083C507.413,-216.77 511.923,-206.181 515.789,-197.103"/>
<polygon fill="midnightblue" stroke="midnightblue" points="519.074,-198.323 519.773,-187.751 512.634,-195.58 519.074,-198.323"/>
</g>
<!-- Node10 -->
<g id="node10" class="node"><title>Node10</title>
<polygon fill="none" stroke="#bfbfbf" points="559.5,-168.5 559.5,-187.5 603.5,-187.5 603.5,-168.5 559.5,-168.5"/>
<text text-anchor="middle" x="581.5" y="-175.5" font-family="Helvetica,sans-Serif" font-size="10.00">argp.h</text>
</g>
<!-- Node2&#45;&gt;Node10 -->
<g id="edge9" class="edge"><title>Node2&#45;&gt;Node10</title>
<path fill="none" stroke="midnightblue" d="M513.514,-224.324C526.032,-215.979 545.182,-203.212 559.971,-193.352"/>
<polygon fill="midnightblue" stroke="midnightblue" points="562.139,-196.114 568.518,-187.655 558.256,-190.289 562.139,-196.114"/>
</g>
<!-- Node5 -->
<g id="node5" class="node"><title>Node5</title>
<polygon fill="none" stroke="#bfbfbf" points="672.5,-112.5 672.5,-131.5 720.5,-131.5 720.5,-112.5 672.5,-112.5"/>
<text text-anchor="middle" x="696.5" y="-119.5" font-family="Helvetica,sans-Serif" font-size="10.00">stdlib.h</text>
</g>
<!-- Node4&#45;&gt;Node5 -->
<g id="edge4" class="edge"><title>Node4&#45;&gt;Node5</title>
<path fill="none" stroke="midnightblue" d="M668.949,-168.083C673.514,-160.613 680.168,-149.724 685.793,-140.52"/>
<polygon fill="midnightblue" stroke="midnightblue" points="688.924,-142.109 691.152,-131.751 682.951,-138.459 688.924,-142.109"/>
</g>
<!-- Node6 -->
<g id="node6" class="node"><title>Node6</title>
<polygon fill="none" stroke="#bfbfbf" points="605,-112.5 605,-131.5 654,-131.5 654,-112.5 605,-112.5"/>
<text text-anchor="middle" x="629.5" y="-119.5" font-family="Helvetica,sans-Serif" font-size="10.00">string.h</text>
</g>
<!-- Node4&#45;&gt;Node6 -->
<g id="edge5" class="edge"><title>Node4&#45;&gt;Node6</title>
<path fill="none" stroke="midnightblue" d="M657.886,-168.083C653.133,-160.534 646.182,-149.495 640.348,-140.23"/>
<polygon fill="midnightblue" stroke="midnightblue" points="643.3,-138.349 635.01,-131.751 637.376,-142.078 643.3,-138.349"/>
</g>
<!-- Node8 -->
<g id="node8" class="node"><title>Node8</title>
<polygon fill="none" stroke="#bfbfbf" points="371,-0.5 371,-19.5 460,-19.5 460,-0.5 371,-0.5"/>
<text text-anchor="middle" x="415.5" y="-7.5" font-family="Helvetica,sans-Serif" font-size="10.00">bsd/sys/queue.h</text>
</g>
<!-- Node7&#45;&gt;Node8 -->
<g id="edge7" class="edge"><title>Node7&#45;&gt;Node8</title>
<path fill="none" stroke="midnightblue" d="M415.5,-56.083C415.5,-49.0059 415.5,-38.8611 415.5,-29.9865"/>
<polygon fill="midnightblue" stroke="midnightblue" points="419,-29.751 415.5,-19.7511 412,-29.7511 419,-29.751"/>
</g>
<!-- Node11&#45;&gt;Node3 -->
<g id="edge11" class="edge"><title>Node11&#45;&gt;Node3</title>
<path fill="none" stroke="midnightblue" d="M223.177,-224.075C222.233,-197.945 219.459,-121.211 218.171,-85.577"/>
<polygon fill="midnightblue" stroke="midnightblue" points="221.669,-85.4351 217.81,-75.5681 214.673,-85.688 221.669,-85.4351"/>
</g>
<!-- Node12&#45;&gt;Node3 -->
<g id="edge14" class="edge"><title>Node12&#45;&gt;Node3</title>
<path fill="none" stroke="midnightblue" d="M62.6553,-112.444C94.0135,-103.241 144.031,-88.5617 178.697,-78.3879"/>
<polygon fill="midnightblue" stroke="midnightblue" points="179.871,-81.6909 188.481,-75.5164 177.9,-74.9742 179.871,-81.6909"/>
</g>
<!-- Node13 -->
<g id="node13" class="node"><title>Node13</title>
<polygon fill="none" stroke="#bfbfbf" points="95.5,-56.5 95.5,-75.5 147.5,-75.5 147.5,-56.5 95.5,-56.5"/>
<text text-anchor="middle" x="121.5" y="-63.5" font-family="Helvetica,sans-Serif" font-size="10.00">stdarg.h</text>
</g>
<!-- Node12&#45;&gt;Node13 -->
<g id="edge15" class="edge"><title>Node12&#45;&gt;Node13</title>
<path fill="none" stroke="midnightblue" d="M47.6387,-112.324C61.3663,-103.9 82.4363,-90.9709 98.5643,-81.0741"/>
<polygon fill="midnightblue" stroke="midnightblue" points="100.704,-83.8678 107.396,-75.6545 97.0426,-77.9016 100.704,-83.8678"/>
</g>
<!-- Node14&#45;&gt;Node3 -->
<g id="edge17" class="edge"><title>Node14&#45;&gt;Node3</title>
<path fill="none" stroke="midnightblue" d="M174.087,-112.083C181.659,-104.22 192.878,-92.5688 202.014,-83.0813"/>
<polygon fill="midnightblue" stroke="midnightblue" points="204.658,-85.3821 209.073,-75.7511 199.615,-80.5266 204.658,-85.3821"/>
</g>
<!-- Node14&#45;&gt;Node13 -->
<g id="edge19" class="edge"><title>Node14&#45;&gt;Node13</title>
<path fill="none" stroke="midnightblue" d="M158.234,-112.083C151.955,-104.377 142.712,-93.0333 135.069,-83.6531"/>
<polygon fill="midnightblue" stroke="midnightblue" points="137.661,-81.2926 128.631,-75.7511 132.234,-85.7143 137.661,-81.2926"/>
</g>
<!-- Node15 -->
<g id="node15" class="node"><title>Node15</title>
<polygon fill="none" stroke="#bfbfbf" points="280.5,-56.5 280.5,-75.5 332.5,-75.5 332.5,-56.5 280.5,-56.5"/>
<text text-anchor="middle" x="306.5" y="-63.5" font-family="Helvetica,sans-Serif" font-size="10.00">stddef.h</text>
</g>
<!-- Node14&#45;&gt;Node15 -->
<g id="edge18" class="edge"><title>Node14&#45;&gt;Node15</title>
<path fill="none" stroke="midnightblue" d="M187.842,-112.444C211.253,-103.478 248.236,-89.314 274.69,-79.1827"/>
<polygon fill="midnightblue" stroke="midnightblue" points="276.176,-82.3615 284.263,-75.5164 273.672,-75.8245 276.176,-82.3615"/>
</g>
<!-- Node16&#45;&gt;Node3 -->
<g id="edge21" class="edge"><title>Node16&#45;&gt;Node3</title>
<path fill="none" stroke="midnightblue" d="M122.405,-112.444C140.754,-103.675 169.505,-89.9355 190.594,-79.8579"/>
<polygon fill="midnightblue" stroke="midnightblue" points="192.165,-82.9862 199.679,-75.5164 189.147,-76.6703 192.165,-82.9862"/>
</g>
<!-- Node16&#45;&gt;Node13 -->
<g id="edge22" class="edge"><title>Node16&#45;&gt;Node13</title>
<path fill="none" stroke="midnightblue" d="M107.307,-112.083C109.585,-104.849 112.871,-94.4087 115.708,-85.3968"/>
<polygon fill="midnightblue" stroke="midnightblue" points="119.081,-86.3406 118.745,-75.7511 112.404,-84.2385 119.081,-86.3406"/>
</g>
<!-- Node18 -->
<g id="node18" class="node"><title>Node18</title>
<g id="a_node18"><a xlink:href="a00046.html" target="_top" xlink:title="hpd_map.h">
<polygon fill="none" stroke="black" points="284,-112.5 284,-131.5 349,-131.5 349,-112.5 284,-112.5"/>
<text text-anchor="middle" x="316.5" y="-119.5" font-family="Helvetica,sans-Serif" font-size="10.00">hpd_map.h</text>
</a>
</g>
</g>
<!-- Node17&#45;&gt;Node18 -->
<g id="edge24" class="edge"><title>Node17&#45;&gt;Node18</title>
<path fill="none" stroke="midnightblue" d="M374.414,-168.324C364.014,-160.185 348.239,-147.839 335.778,-138.087"/>
<polygon fill="midnightblue" stroke="midnightblue" points="337.82,-135.241 327.788,-131.834 333.506,-140.753 337.82,-135.241"/>
</g>
<!-- Node18&#45;&gt;Node3 -->
<g id="edge25" class="edge"><title>Node18&#45;&gt;Node3</title>
<path fill="none" stroke="midnightblue" d="M300.594,-112.324C284.862,-103.743 260.558,-90.486 242.291,-80.5224"/>
<polygon fill="midnightblue" stroke="midnightblue" points="243.822,-77.3704 233.367,-75.6545 240.47,-83.5157 243.822,-77.3704"/>
</g>
<!-- Node18&#45;&gt;Node7 -->
<g id="edge26" class="edge"><title>Node18&#45;&gt;Node7</title>
<path fill="none" stroke="midnightblue" d="M332.406,-112.324C348.138,-103.743 372.442,-90.486 390.709,-80.5224"/>
<polygon fill="midnightblue" stroke="midnightblue" points="392.53,-83.5157 399.633,-75.6545 389.178,-77.3704 392.53,-83.5157"/>
</g>
<!-- Node18&#45;&gt;Node13 -->
<g id="edge28" class="edge"><title>Node18&#45;&gt;Node13</title>
<path fill="none" stroke="midnightblue" d="M285.602,-112.444C250.754,-102.793 194.163,-87.122 157.386,-76.9377"/>
<polygon fill="midnightblue" stroke="midnightblue" points="158.145,-73.5161 147.573,-74.2203 156.277,-80.2622 158.145,-73.5161"/>
</g>
<!-- Node18&#45;&gt;Node15 -->
<g id="edge27" class="edge"><title>Node18&#45;&gt;Node15</title>
<path fill="none" stroke="midnightblue" d="M314.849,-112.083C313.524,-104.927 311.618,-94.6353 309.961,-85.6911"/>
<polygon fill="midnightblue" stroke="midnightblue" points="313.383,-84.9466 308.121,-75.7511 306.5,-86.2212 313.383,-84.9466"/>
</g>
<!-- Node19&#45;&gt;Node3 -->
<g id="edge30" class="edge"><title>Node19&#45;&gt;Node3</title>
<path fill="none" stroke="midnightblue" d="M289.414,-224.075C277.347,-197.719 241.709,-119.878 225.586,-84.6608"/>
<polygon fill="midnightblue" stroke="midnightblue" points="228.768,-83.2035 221.423,-75.5681 222.403,-86.1175 228.768,-83.2035"/>
</g>
<!-- Node19&#45;&gt;Node7 -->
<g id="edge31" class="edge"><title>Node19&#45;&gt;Node7</title>
<path fill="none" stroke="midnightblue" d="M300.059,-224.075C319.596,-197.493 377.623,-118.538 403.18,-83.7633"/>
<polygon fill="midnightblue" stroke="midnightblue" points="406.101,-85.6987 409.203,-75.5681 400.461,-81.5533 406.101,-85.6987"/>
</g>
<!-- Node19&#45;&gt;Node17 -->
<g id="edge33" class="edge"><title>Node19&#45;&gt;Node17</title>
<path fill="none" stroke="midnightblue" d="M308.281,-224.324C322.767,-215.822 345.073,-202.729 361.993,-192.797"/>
<polygon fill="midnightblue" stroke="midnightblue" points="363.903,-195.735 370.755,-187.655 360.359,-189.698 363.903,-195.735"/>
</g>
<!-- Node19&#45;&gt;Node18 -->
<g id="edge32" class="edge"><title>Node19&#45;&gt;Node18</title>
<path fill="none" stroke="midnightblue" d="M295.305,-224.368C299.016,-206.617 307.579,-165.666 312.611,-141.597"/>
<polygon fill="midnightblue" stroke="midnightblue" points="316.083,-142.096 314.704,-131.591 309.231,-140.663 316.083,-142.096"/>
</g>
</g>
</svg>
        <g id="navigator" transform="translate(0 0)" fill="#404254">
                <rect fill="#f2f5e9" fill-opacity="0.5" stroke="#606060" stroke-width=".5" x="0" y="0" width="60" height="60"/>
                <use id="zoomplus" xlink:href="#zoomPlus" x="17" y="9" onmousedown="handleZoom(evt,'in')"/>
                <use id="zoomminus" xlink:href="#zoomMin" x="42" y="9" onmousedown="handleZoom(evt,'out')"/>
                <use id="reset" xlink:href="#resetDef" x="30" y="36" onmousedown="handleReset()"/>
                <g id="arrowUp" xlink:href="#dirArrow" transform="translate(30 24)" onmousedown="handlePan(0,-1)">
                  <use xlink:href="#rim" fill="#404040">
                        <set attributeName="fill" to="#808080" begin="arrowUp.mouseover" end="arrowUp.mouseout"/>
                  </use>
                  <path fill="none" stroke="white" stroke-width="1.5" d="M0,-3.0v7 M-2.5,-0.5L0,-3.0L2.5,-0.5"/>
                </g>
                <g id="arrowRight" xlink:href="#dirArrow" transform="rotate(90) translate(36 -43)" onmousedown="handlePan(1,0)">
                  <use xlink:href="#rim" fill="#404040">
                        <set attributeName="fill" to="#808080" begin="arrowRight.mouseover" end="arrowRight.mouseout"/>
                  </use>
                  <path fill="none" stroke="white" stroke-width="1.5" d="M0,-3.0v7 M-2.5,-0.5L0,-3.0L2.5,-0.5"/>
                </g>
                <g id="arrowDown" xlink:href="#dirArrow" transform="rotate(180) translate(-30 -48)" onmousedown="handlePan(0,1)">
                  <use xlink:href="#rim" fill="#404040">
                        <set attributeName="fill" to="#808080" begin="arrowDown.mouseover" end="arrowDown.mouseout"/>
                  </use>
                  <path fill="none" stroke="white" stroke-width="1.5" d="M0,-3.0v7 M-2.5,-0.5L0,-3.0L2.5,-0.5"/>
                </g>
                <g id="arrowLeft" xlink:href="#dirArrow" transform="rotate(270) translate(-36 17)" onmousedown="handlePan(-1,0)">
                  <use xlink:href="#rim" fill="#404040">
                        <set attributeName="fill" to="#808080" begin="arrowLeft.mouseover" end="arrowLeft.mouseout"/>
                  </use>
                  <path fill="none" stroke="white" stroke-width="1.5" d="M0,-3.0v7 M-2.5,-0.5L0,-3.0L2.5,-0.5"/>
                </g>
        </g>
        <svg viewBox="0 0 15 15" width="100%" height="30px" preserveAspectRatio="xMaxYMin meet">
         <g id="arrow_out" transform="scale(0.3 0.3)">
          <a xlink:href="a00214_org.svg" target="_base">
           <rect id="button" ry="5" rx="5" y="6" x="6" height="38" width="38"
                fill="#f2f5e9" fill-opacity="0.5" stroke="#606060" stroke-width="1.0"/>
           <path id="arrow"
             d="M 11.500037,31.436501 C 11.940474,20.09759 22.043105,11.32322 32.158766,21.979434 L 37.068811,17.246167 C 37.068811,17.246167 37.088388,32 37.088388,32 L 22.160133,31.978069 C 22.160133,31.978069 26.997745,27.140456 26.997745,27.140456 C 18.528582,18.264221 13.291696,25.230495 11.500037,31.436501 z"
             style="fill:#404040;"/>
          </a>
         </g>
        </svg>
</svg>
