<?xml version="1.0" encoding="UTF-8" standalone="no"?>
<!DOCTYPE svg PUBLIC "-//W3C//DTD SVG 1.1//EN"
 "http://www.w3.org/Graphics/SVG/1.1/DTD/svg11.dtd">
<!-- Generated by graphviz version 2.38.0 (20140413.2041)
 -->
<!-- Title: hpd/include/hpd/hpd_shared_api.h Pages: 1 -->
<!--zoomable 240 -->
<svg id="main" version="1.1" xmlns="http://www.w3.org/2000/svg" xmlns:xlink="http://www.w3.org/1999/xlink" xml:space="preserve" onload="init(evt)">
<style type="text/css"><![CDATA[
.edge:hover path { stroke: red; }
.edge:hover polygon { stroke: red; fill: red; }
]]></style>
<script type="text/javascript"><![CDATA[
var edges = document.getElementsByTagName('g');
if (edges && edges.length) {
  for (var i=0;i<edges.length;i++) {
    if (edges[i].id.substr(0,4)=='edge') {
      edges[i].setAttribute('class','edge');
    }
  }
}
]]></script>
        <defs>
                <circle id="rim" cx="0" cy="0" r="7"/>
                <circle id="rim2" cx="0" cy="0" r="3.5"/>
                <g id="zoomPlus">
                        <use xlink:href="#rim" fill="#404040">
                                <set attributeName="fill" to="#808080" begin="zoomplus.mouseover" end="zoomplus.mouseout"/>
                        </use>
                        <path d="M-4,0h8M0,-4v8" fill="none" stroke="white" stroke-width="1.5" pointer-events="none"/>
                </g>
                <g id="zoomMin">
                        <use xlink:href="#rim" fill="#404040">
                                <set attributeName="fill" to="#808080" begin="zoomminus.mouseover" end="zoomminus.mouseout"/>
                        </use>
                        <path d="M-4,0h8" fill="none" stroke="white" stroke-width="1.5" pointer-events="none"/>
                </g>
                <g id="dirArrow">
                        <path fill="none" stroke="white" stroke-width="1.5" d="M0,-3.0v7 M-2.5,-0.5L0,-3.0L2.5,-0.5"/>
                </g>
               <g id="resetDef">
                       <use xlink:href="#rim2" fill="#404040">
                               <set attributeName="fill" to="#808080" begin="reset.mouseover" end="reset.mouseout"/>
                       </use>
               </g>
        </defs>

<script type="text/javascript">
var viewWidth = 1919;
var viewHeight = 240;
var sectionId = 'dynsection-1';
</script>
<script xlink:href="svgpan.js"/>
<svg id="graph" class="graph">
<g id="viewport">
<title>hpd/include/hpd/hpd_shared_api.h</title>
<!-- Node1 -->
<g id="node1" class="node"><title>Node1</title>
<polygon fill="#bfbfbf" stroke="black" points="676.5,-201.5 676.5,-231.5 780.5,-231.5 780.5,-201.5 676.5,-201.5"/>
<text text-anchor="start" x="684.5" y="-219.5" font-family="Helvetica,sans-Serif" font-size="10.00">hpd/include/hpd/hpd</text>
<text text-anchor="middle" x="728.5" y="-208.5" font-family="Helvetica,sans-Serif" font-size="10.00">_shared_api.h</text>
</g>
<!-- Node2 -->
<g id="node2" class="node"><title>Node2</title>
<g id="a_node2"><a xlink:href="a00045.html" target="_top" xlink:title="common/curl_ev/src\l/curl_ev.c">
<polygon fill="none" stroke="black" points="0,-134.5 0,-164.5 105,-164.5 105,-134.5 0,-134.5"/>
<text text-anchor="start" x="8" y="-152.5" font-family="Helvetica,sans-Serif" font-size="10.00">common/curl_ev/src</text>
<text text-anchor="middle" x="52.5" y="-141.5" font-family="Helvetica,sans-Serif" font-size="10.00">/curl_ev.c</text>
</a>
</g>
</g>
<!-- Node1&#45;&gt;Node2 -->
<g id="edge1" class="edge"><title>Node1&#45;&gt;Node2</title>
<path fill="none" stroke="midnightblue" d="M666.294,-213.505C554.857,-209.241 314.08,-196.886 113.5,-165 110.812,-164.573 108.068,-164.091 105.303,-163.569"/>
<polygon fill="midnightblue" stroke="midnightblue" points="666.223,-217.005 676.347,-213.881 666.485,-210.01 666.223,-217.005"/>
</g>
<!-- Node3 -->
<g id="node3" class="node"><title>Node3</title>
<g id="a_node3"><a xlink:href="a00011.html" target="_top" xlink:title="common/curl_ev/src\l/curl_ev_module.c">
<polygon fill="none" stroke="black" points="123,-134.5 123,-164.5 228,-164.5 228,-134.5 123,-134.5"/>
<text text-anchor="start" x="131" y="-152.5" font-family="Helvetica,sans-Serif" font-size="10.00">common/curl_ev/src</text>
<text text-anchor="middle" x="175.5" y="-141.5" font-family="Helvetica,sans-Serif" font-size="10.00">/curl_ev_module.c</text>
</a>
</g>
</g>
<!-- Node1&#45;&gt;Node3 -->
<g id="edge2" class="edge"><title>Node1&#45;&gt;Node3</title>
<path fill="none" stroke="midnightblue" d="M666.1,-211.637C572.509,-205.267 390.44,-190.642 237.5,-165 234.447,-164.488 231.321,-163.915 228.173,-163.3"/>
<polygon fill="midnightblue" stroke="midnightblue" points="666.034,-215.14 676.246,-212.318 666.503,-208.156 666.034,-215.14"/>
</g>
<!-- Node4 -->
<g id="node4" class="node"><title>Node4</title>
<g id="a_node4"><a xlink:href="a00024.html" target="_top" xlink:title="common/httpd/src/httpd.c">
<polygon fill="none" stroke="black" points="246.5,-140 246.5,-159 374.5,-159 374.5,-140 246.5,-140"/>
<text text-anchor="middle" x="310.5" y="-147" font-family="Helvetica,sans-Serif" font-size="10.00">common/httpd/src/httpd.c</text>
</a>
</g>
</g>
<!-- Node1&#45;&gt;Node4 -->
<g id="edge3" class="edge"><title>Node1&#45;&gt;Node4</title>
<path fill="none" stroke="midnightblue" d="M666.059,-207.33C596.837,-198.048 481.946,-181.971 383.5,-165 373.186,-163.222 362.091,-161.117 351.741,-159.071"/>
<polygon fill="midnightblue" stroke="midnightblue" points="665.975,-210.85 676.351,-208.705 666.902,-203.912 665.975,-210.85"/>
</g>
<!-- Node5 -->
<g id="node5" class="node"><title>Node5</title>
<g id="a_node5"><a xlink:href="a00015.html" target="_top" xlink:title="common/httpd/src/httpd\l_header_parser.c">
<polygon fill="none" stroke="black" points="392.5,-134.5 392.5,-164.5 512.5,-164.5 512.5,-134.5 392.5,-134.5"/>
<text text-anchor="start" x="400.5" y="-152.5" font-family="Helvetica,sans-Serif" font-size="10.00">common/httpd/src/httpd</text>
<text text-anchor="middle" x="452.5" y="-141.5" font-family="Helvetica,sans-Serif" font-size="10.00">_header_parser.c</text>
</a>
</g>
</g>
<!-- Node1&#45;&gt;Node5 -->
<g id="edge4" class="edge"><title>Node1&#45;&gt;Node5</title>
<path fill="none" stroke="midnightblue" d="M666.388,-200.872C620.266,-190.01 557.731,-175.283 512.196,-164.559"/>
<polygon fill="midnightblue" stroke="midnightblue" points="665.726,-204.312 676.262,-203.198 667.331,-197.498 665.726,-204.312"/>
</g>
<!-- Node6 -->
<g id="node6" class="node"><title>Node6</title>
<g id="a_node6"><a xlink:href="a00025.html" target="_top" xlink:title="common/httpd/src/httpd\l_request.c">
<polygon fill="none" stroke="black" points="530.5,-134.5 530.5,-164.5 650.5,-164.5 650.5,-134.5 530.5,-134.5"/>
<text text-anchor="start" x="538.5" y="-152.5" font-family="Helvetica,sans-Serif" font-size="10.00">common/httpd/src/httpd</text>
<text text-anchor="middle" x="590.5" y="-141.5" font-family="Helvetica,sans-Serif" font-size="10.00">_request.c</text>
</a>
</g>
</g>
<!-- Node1&#45;&gt;Node6 -->
<g id="edge5" class="edge"><title>Node1&#45;&gt;Node6</title>
<path fill="none" stroke="midnightblue" d="M689.5,-197.131C667.573,-186.802 640.626,-174.11 620.386,-164.577"/>
<polygon fill="midnightblue" stroke="midnightblue" points="688.018,-200.301 698.556,-201.396 691.001,-193.968 688.018,-200.301"/>
</g>
<!-- Node7 -->
<g id="node7" class="node"><title>Node7</title>
<g id="a_node7"><a xlink:href="a00026.html" target="_top" xlink:title="common/httpd/src/httpd\l_response.c">
<polygon fill="none" stroke="black" points="668.5,-134.5 668.5,-164.5 788.5,-164.5 788.5,-134.5 668.5,-134.5"/>
<text text-anchor="start" x="676.5" y="-152.5" font-family="Helvetica,sans-Serif" font-size="10.00">common/httpd/src/httpd</text>
<text text-anchor="middle" x="728.5" y="-141.5" font-family="Helvetica,sans-Serif" font-size="10.00">_response.c</text>
</a>
</g>
</g>
<!-- Node1&#45;&gt;Node7 -->
<g id="edge6" class="edge"><title>Node1&#45;&gt;Node7</title>
<path fill="none" stroke="midnightblue" d="M728.5,-191.108C728.5,-182.154 728.5,-172.323 728.5,-164.577"/>
<polygon fill="midnightblue" stroke="midnightblue" points="725,-191.396 728.5,-201.396 732,-191.396 725,-191.396"/>
</g>
<!-- Node8 -->
<g id="node8" class="node"><title>Node8</title>
<g id="a_node8"><a xlink:href="a00041.html" target="_top" xlink:title="common/httpd/src/httpd\l_url_parser.c">
<polygon fill="none" stroke="black" points="806.5,-134.5 806.5,-164.5 926.5,-164.5 926.5,-134.5 806.5,-134.5"/>
<text text-anchor="start" x="814.5" y="-152.5" font-family="Helvetica,sans-Serif" font-size="10.00">common/httpd/src/httpd</text>
<text text-anchor="middle" x="866.5" y="-141.5" font-family="Helvetica,sans-Serif" font-size="10.00">_url_parser.c</text>
</a>
</g>
</g>
<!-- Node1&#45;&gt;Node8 -->
<g id="edge7" class="edge"><title>Node1&#45;&gt;Node8</title>
<path fill="none" stroke="midnightblue" d="M767.5,-197.131C789.427,-186.802 816.374,-174.11 836.614,-164.577"/>
<polygon fill="midnightblue" stroke="midnightblue" points="765.999,-193.968 758.444,-201.396 768.982,-200.301 765.999,-193.968"/>
</g>
<!-- Node9 -->
<g id="node9" class="node"><title>Node9</title>
<g id="a_node9"><a xlink:href="a00059.html" target="_top" xlink:title="common/tcpd/src/tcpd.c">
<polygon fill="none" stroke="black" points="944.5,-140 944.5,-159 1066.5,-159 1066.5,-140 944.5,-140"/>
<text text-anchor="middle" x="1005.5" y="-147" font-family="Helvetica,sans-Serif" font-size="10.00">common/tcpd/src/tcpd.c</text>
</a>
</g>
</g>
<!-- Node1&#45;&gt;Node9 -->
<g id="edge8" class="edge"><title>Node1&#45;&gt;Node9</title>
<path fill="none" stroke="midnightblue" d="M790.569,-200.935C845.477,-188.051 923.717,-169.691 969.089,-159.044"/>
<polygon fill="midnightblue" stroke="midnightblue" points="789.538,-197.582 780.602,-203.274 791.137,-204.397 789.538,-197.582"/>
</g>
<!-- Node10 -->
<g id="node10" class="node"><title>Node10</title>
<g id="a_node10"><a xlink:href="a00071.html" target="_top" xlink:title="hpd/include/hpd/hpd\l_adapter_api.h">
<polygon fill="none" stroke="black" points="1084.5,-134.5 1084.5,-164.5 1188.5,-164.5 1188.5,-134.5 1084.5,-134.5"/>
<text text-anchor="start" x="1092.5" y="-152.5" font-family="Helvetica,sans-Serif" font-size="10.00">hpd/include/hpd/hpd</text>
<text text-anchor="middle" x="1136.5" y="-141.5" font-family="Helvetica,sans-Serif" font-size="10.00">_adapter_api.h</text>
</a>
</g>
</g>
<!-- Node1&#45;&gt;Node10 -->
<g id="edge9" class="edge"><title>Node1&#45;&gt;Node10</title>
<path fill="none" stroke="midnightblue" d="M790.701,-208.14C860.359,-199.506 976.477,-183.936 1075.5,-165 1078.39,-164.448 1081.34,-163.851 1084.32,-163.225"/>
<polygon fill="midnightblue" stroke="midnightblue" points="790.266,-204.667 780.769,-209.363 791.121,-211.615 790.266,-204.667"/>
</g>
<!-- Node19 -->
<g id="node19" class="node"><title>Node19</title>
<g id="a_node19"><a xlink:href="a00073.html" target="_top" xlink:title="hpd/include/hpd/hpd\l_application_api.h">
<polygon fill="none" stroke="black" points="1323.5,-134.5 1323.5,-164.5 1427.5,-164.5 1427.5,-134.5 1323.5,-134.5"/>
<text text-anchor="start" x="1331.5" y="-152.5" font-family="Helvetica,sans-Serif" font-size="10.00">hpd/include/hpd/hpd</text>
<text text-anchor="middle" x="1375.5" y="-141.5" font-family="Helvetica,sans-Serif" font-size="10.00">_application_api.h</text>
</a>
</g>
</g>
<!-- Node1&#45;&gt;Node19 -->
<g id="edge18" class="edge"><title>Node1&#45;&gt;Node19</title>
<path fill="none" stroke="midnightblue" d="M790.59,-209.262C917.676,-196.495 1205.39,-167.589 1323.46,-155.728"/>
<polygon fill="midnightblue" stroke="midnightblue" points="790.226,-205.781 780.626,-210.263 790.925,-212.746 790.226,-205.781"/>
</g>
<!-- Node25 -->
<g id="node25" class="node"><title>Node25</title>
<g id="a_node25"><a xlink:href="a00079.html" target="_top" xlink:title="hpd/src/discovery_api.c">
<polygon fill="none" stroke="black" points="1445.5,-140 1445.5,-159 1565.5,-159 1565.5,-140 1445.5,-140"/>
<text text-anchor="middle" x="1505.5" y="-147" font-family="Helvetica,sans-Serif" font-size="10.00">hpd/src/discovery_api.c</text>
</a>
</g>
</g>
<!-- Node1&#45;&gt;Node25 -->
<g id="edge25" class="edge"><title>Node1&#45;&gt;Node25</title>
<path fill="none" stroke="midnightblue" d="M790.757,-213.901C914.388,-210.1 1199.4,-198.212 1436.5,-165 1447.29,-163.489 1458.92,-161.276 1469.49,-159.032"/>
<polygon fill="midnightblue" stroke="midnightblue" points="790.608,-210.404 780.717,-214.203 790.818,-217.401 790.608,-210.404"/>
</g>
<!-- Node11 -->
<g id="node11" class="node"><title>Node11</title>
<g id="a_node11"><a xlink:href="a00013.html" target="_top" xlink:title="example/demo/demo_adapter.c">
<polygon fill="none" stroke="black" points="761,-73 761,-92 914,-92 914,-73 761,-73"/>
<text text-anchor="middle" x="837.5" y="-80" font-family="Helvetica,sans-Serif" font-size="10.00">example/demo/demo_adapter.c</text>
</a>
</g>
</g>
<!-- Node10&#45;&gt;Node11 -->
<g id="edge10" class="edge"><title>Node10&#45;&gt;Node11</title>
<path fill="none" stroke="midnightblue" d="M1074.29,-133.756C1000.07,-117.144 924.803,-101.426 879.27,-92.0428"/>
<polygon fill="midnightblue" stroke="midnightblue" points="1073.75,-137.222 1084.28,-135.998 1075.29,-130.392 1073.75,-137.222"/>
</g>
<!-- Node12 -->
<g id="node12" class="node"><title>Node12</title>
<g id="a_node12"><a xlink:href="a00066.html" target="_top" xlink:title="example/template/template\l_adapter.c">
<polygon fill="none" stroke="black" points="932.5,-67.5 932.5,-97.5 1066.5,-97.5 1066.5,-67.5 932.5,-67.5"/>
<text text-anchor="start" x="940.5" y="-85.5" font-family="Helvetica,sans-Serif" font-size="10.00">example/template/template</text>
<text text-anchor="middle" x="999.5" y="-74.5" font-family="Helvetica,sans-Serif" font-size="10.00">_adapter.c</text>
</a>
</g>
</g>
<!-- Node10&#45;&gt;Node12 -->
<g id="edge11" class="edge"><title>Node10&#45;&gt;Node12</title>
<path fill="none" stroke="midnightblue" d="M1097.49,-129.992C1075.78,-119.689 1049.17,-107.068 1029.17,-97.5765"/>
<polygon fill="midnightblue" stroke="midnightblue" points="1096.24,-133.272 1106.77,-134.396 1099.24,-126.947 1096.24,-133.272"/>
</g>
<!-- Node13 -->
<g id="node13" class="node"><title>Node13</title>
<g id="a_node13"><a xlink:href="a00072.html" target="_top" xlink:title="hpd/include/hpd/hpd\l_api.h">
<polygon fill="none" stroke="black" points="1084.5,-67.5 1084.5,-97.5 1188.5,-97.5 1188.5,-67.5 1084.5,-67.5"/>
<text text-anchor="start" x="1092.5" y="-85.5" font-family="Helvetica,sans-Serif" font-size="10.00">hpd/include/hpd/hpd</text>
<text text-anchor="middle" x="1136.5" y="-74.5" font-family="Helvetica,sans-Serif" font-size="10.00">_api.h</text>
</a>
</g>
</g>
<!-- Node10&#45;&gt;Node13 -->
<g id="edge12" class="edge"><title>Node10&#45;&gt;Node13</title>
<path fill="none" stroke="midnightblue" d="M1136.5,-124.108C1136.5,-115.154 1136.5,-105.323 1136.5,-97.5765"/>
<polygon fill="midnightblue" stroke="midnightblue" points="1133,-124.396 1136.5,-134.396 1140,-124.396 1133,-124.396"/>
</g>
<!-- Node14 -->
<g id="node14" class="node"><title>Node14</title>
<g id="a_node14"><a xlink:href="a00077.html" target="_top" xlink:title="hpd/src/daemon_api.c">
<polygon fill="none" stroke="black" points="830,-6 830,-25 943,-25 943,-6 830,-6"/>
<text text-anchor="middle" x="886.5" y="-13" font-family="Helvetica,sans-Serif" font-size="10.00">hpd/src/daemon_api.c</text>
</a>
</g>
</g>
<!-- Node13&#45;&gt;Node14 -->
<g id="edge13" class="edge"><title>Node13&#45;&gt;Node14</title>
<path fill="none" stroke="midnightblue" d="M1074.52,-65.384C1025.43,-52.6212 958.782,-35.2934 919.44,-25.0643"/>
<polygon fill="midnightblue" stroke="midnightblue" points="1073.84,-68.824 1084.4,-67.953 1075.6,-62.0492 1073.84,-68.824"/>
</g>
<!-- Node15 -->
<g id="node15" class="node"><title>Node15</title>
<g id="a_node15"><a xlink:href="a00083.html" target="_top" xlink:title="hpd/src/event_api.c">
<polygon fill="none" stroke="black" points="961.5,-6 961.5,-25 1063.5,-25 1063.5,-6 961.5,-6"/>
<text text-anchor="middle" x="1012.5" y="-13" font-family="Helvetica,sans-Serif" font-size="10.00">hpd/src/event_api.c</text>
</a>
</g>
</g>
<!-- Node13&#45;&gt;Node15 -->
<g id="edge14" class="edge"><title>Node13&#45;&gt;Node15</title>
<path fill="none" stroke="midnightblue" d="M1100.52,-62.638C1076.79,-50.2028 1046.86,-34.5137 1028.73,-25.007"/>
<polygon fill="midnightblue" stroke="midnightblue" points="1099.11,-65.8531 1109.59,-67.396 1102.36,-59.6533 1099.11,-65.8531"/>
</g>
<!-- Node16 -->
<g id="node16" class="node"><title>Node16</title>
<g id="a_node16"><a xlink:href="a00089.html" target="_top" xlink:title="hpd/src/request_api.c">
<polygon fill="none" stroke="black" points="1081.5,-6 1081.5,-25 1191.5,-25 1191.5,-6 1081.5,-6"/>
<text text-anchor="middle" x="1136.5" y="-13" font-family="Helvetica,sans-Serif" font-size="10.00">hpd/src/request_api.c</text>
</a>
</g>
</g>
<!-- Node13&#45;&gt;Node16 -->
<g id="edge15" class="edge"><title>Node13&#45;&gt;Node16</title>
<path fill="none" stroke="midnightblue" d="M1136.5,-57.2495C1136.5,-46.017 1136.5,-33.3767 1136.5,-25.1945"/>
<polygon fill="midnightblue" stroke="midnightblue" points="1133,-57.3959 1136.5,-67.396 1140,-57.396 1133,-57.3959"/>
</g>
<!-- Node17 -->
<g id="node17" class="node"><title>Node17</title>
<g id="a_node17"><a xlink:href="a00092.html" target="_top" xlink:title="hpd/src/value_api.c">
<polygon fill="none" stroke="black" points="1210,-6 1210,-25 1311,-25 1311,-6 1210,-6"/>
<text text-anchor="middle" x="1260.5" y="-13" font-family="Helvetica,sans-Serif" font-size="10.00">hpd/src/value_api.c</text>
</a>
</g>
</g>
<!-- Node13&#45;&gt;Node17 -->
<g id="edge16" class="edge"><title>Node13&#45;&gt;Node17</title>
<path fill="none" stroke="midnightblue" d="M1172.48,-62.638C1196.21,-50.2028 1226.14,-34.5137 1244.27,-25.007"/>
<polygon fill="midnightblue" stroke="midnightblue" points="1170.64,-59.6533 1163.41,-67.396 1173.89,-65.8531 1170.64,-59.6533"/>
</g>
<!-- Node18 -->
<g id="node18" class="node"><title>Node18</title>
<g id="a_node18"><a xlink:href="a00039.html" target="_top" xlink:title="hpd/test/daemon_api\l_test.cpp">
<polygon fill="none" stroke="black" points="1329,-0.5 1329,-30.5 1436,-30.5 1436,-0.5 1329,-0.5"/>
<text text-anchor="start" x="1337" y="-18.5" font-family="Helvetica,sans-Serif" font-size="10.00">hpd/test/daemon_api</text>
<text text-anchor="middle" x="1382.5" y="-7.5" font-family="Helvetica,sans-Serif" font-size="10.00">_test.cpp</text>
</a>
</g>
</g>
<!-- Node13&#45;&gt;Node18 -->
<g id="edge17" class="edge"><title>Node13&#45;&gt;Node18</title>
<path fill="none" stroke="midnightblue" d="M1198.38,-65.1494C1238.66,-54.5058 1290.67,-40.7641 1329.13,-30.6015"/>
<polygon fill="midnightblue" stroke="midnightblue" points="1197.44,-61.7766 1188.67,-67.7152 1199.23,-68.5444 1197.44,-61.7766"/>
</g>
<!-- Node19&#45;&gt;Node13 -->
<g id="edge21" class="edge"><title>Node19&#45;&gt;Node13</title>
<path fill="none" stroke="midnightblue" d="M1314.28,-131.85C1275.31,-121.252 1225.4,-107.677 1188.38,-97.6109"/>
<polygon fill="midnightblue" stroke="midnightblue" points="1313.37,-135.229 1323.93,-134.476 1315.2,-128.474 1313.37,-135.229"/>
</g>
<!-- Node20 -->
<g id="node20" class="node"><title>Node20</title>
<g id="a_node20"><a xlink:href="a00014.html" target="_top" xlink:title="example/demo/demo_application.c">
<polygon fill="none" stroke="black" points="1207,-73 1207,-92 1374,-92 1374,-73 1207,-73"/>
<text text-anchor="middle" x="1290.5" y="-80" font-family="Helvetica,sans-Serif" font-size="10.00">example/demo/demo_application.c</text>
</a>
</g>
</g>
<!-- Node19&#45;&gt;Node20 -->
<g id="edge19" class="edge"><title>Node19&#45;&gt;Node20</title>
<path fill="none" stroke="midnightblue" d="M1348.7,-128.008C1332.92,-115.941 1313.78,-101.305 1301.87,-92.1945"/>
<polygon fill="midnightblue" stroke="midnightblue" points="1346.99,-131.102 1357.06,-134.396 1351.24,-125.541 1346.99,-131.102"/>
</g>
<!-- Node21 -->
<g id="node21" class="node"><title>Node21</title>
<g id="a_node21"><a xlink:href="a00068.html" target="_top" xlink:title="example/template/template\l_application.c">
<polygon fill="none" stroke="black" points="1392.5,-67.5 1392.5,-97.5 1526.5,-97.5 1526.5,-67.5 1392.5,-67.5"/>
<text text-anchor="start" x="1400.5" y="-85.5" font-family="Helvetica,sans-Serif" font-size="10.00">example/template/template</text>
<text text-anchor="middle" x="1459.5" y="-74.5" font-family="Helvetica,sans-Serif" font-size="10.00">_application.c</text>
</a>
</g>
</g>
<!-- Node19&#45;&gt;Node21 -->
<g id="edge20" class="edge"><title>Node19&#45;&gt;Node21</title>
<path fill="none" stroke="midnightblue" d="M1401.78,-128.168C1414.62,-118.228 1429.76,-106.514 1441.31,-97.5765"/>
<polygon fill="midnightblue" stroke="midnightblue" points="1399.49,-125.508 1393.73,-134.396 1403.78,-131.044 1399.49,-125.508"/>
</g>
<!-- Node22 -->
<g id="node22" class="node"><title>Node22</title>
<g id="a_node22"><a xlink:href="a00034.html" target="_top" xlink:title="modules/hpd_rest/src\l/rest.c">
<polygon fill="none" stroke="black" points="1544.5,-67.5 1544.5,-97.5 1654.5,-97.5 1654.5,-67.5 1544.5,-67.5"/>
<text text-anchor="start" x="1552.5" y="-85.5" font-family="Helvetica,sans-Serif" font-size="10.00">modules/hpd_rest/src</text>
<text text-anchor="middle" x="1599.5" y="-74.5" font-family="Helvetica,sans-Serif" font-size="10.00">/rest.c</text>
</a>
</g>
</g>
<!-- Node19&#45;&gt;Node22 -->
<g id="edge22" class="edge"><title>Node19&#45;&gt;Node22</title>
<path fill="none" stroke="midnightblue" d="M1433.81,-131.58C1470.19,-121.022 1516.47,-107.592 1550.87,-97.6109"/>
<polygon fill="midnightblue" stroke="midnightblue" points="1432.46,-128.328 1423.83,-134.476 1434.41,-135.05 1432.46,-128.328"/>
</g>
<!-- Node23 -->
<g id="node23" class="node"><title>Node23</title>
<g id="a_node23"><a xlink:href="a00096.html" target="_top" xlink:title="modules/hpd_rest/src\l/rest_json.c">
<polygon fill="none" stroke="black" points="1672.5,-67.5 1672.5,-97.5 1782.5,-97.5 1782.5,-67.5 1672.5,-67.5"/>
<text text-anchor="start" x="1680.5" y="-85.5" font-family="Helvetica,sans-Serif" font-size="10.00">modules/hpd_rest/src</text>
<text text-anchor="middle" x="1727.5" y="-74.5" font-family="Helvetica,sans-Serif" font-size="10.00">/rest_json.c</text>
</a>
</g>
</g>
<!-- Node19&#45;&gt;Node23 -->
<g id="edge23" class="edge"><title>Node19&#45;&gt;Node23</title>
<path fill="none" stroke="midnightblue" d="M1437.67,-133.861C1538.43,-114.347 1566.32,-116.693 1663.5,-98 1666.41,-97.4405 1669.39,-96.845 1672.39,-96.2267"/>
<polygon fill="midnightblue" stroke="midnightblue" points="1436.83,-130.46 1427.69,-135.819 1438.17,-137.329 1436.83,-130.46"/>
</g>
<!-- Node24 -->
<g id="node24" class="node"><title>Node24</title>
<g id="a_node24"><a xlink:href="a00098.html" target="_top" xlink:title="modules/hpd_rest/src\l/rest_xml.c">
<polygon fill="none" stroke="black" points="1800.5,-67.5 1800.5,-97.5 1910.5,-97.5 1910.5,-67.5 1800.5,-67.5"/>
<text text-anchor="start" x="1808.5" y="-85.5" font-family="Helvetica,sans-Serif" font-size="10.00">modules/hpd_rest/src</text>
<text text-anchor="middle" x="1855.5" y="-74.5" font-family="Helvetica,sans-Serif" font-size="10.00">/rest_xml.c</text>
</a>
</g>
</g>
<!-- Node19&#45;&gt;Node24 -->
<g id="edge24" class="edge"><title>Node19&#45;&gt;Node24</title>
<path fill="none" stroke="midnightblue" d="M1437.66,-133.955C1594.65,-108.242 1638.2,-123.044 1791.5,-98 1794.42,-97.5224 1797.41,-96.9923 1800.43,-96.4252"/>
<polygon fill="midnightblue" stroke="midnightblue" points="1436.94,-130.527 1427.65,-135.624 1438.09,-137.432 1436.94,-130.527"/>
</g>
</g>
</svg>
        <g id="navigator" transform="translate(0 0)" fill="#404254">
                <rect fill="#f2f5e9" fill-opacity="0.5" stroke="#606060" stroke-width=".5" x="0" y="0" width="60" height="60"/>
                <use id="zoomplus" xlink:href="#zoomPlus" x="17" y="9" onmousedown="handleZoom(evt,'in')"/>
                <use id="zoomminus" xlink:href="#zoomMin" x="42" y="9" onmousedown="handleZoom(evt,'out')"/>
                <use id="reset" xlink:href="#resetDef" x="30" y="36" onmousedown="handleReset()"/>
                <g id="arrowUp" xlink:href="#dirArrow" transform="translate(30 24)" onmousedown="handlePan(0,-1)">
                  <use xlink:href="#rim" fill="#404040">
                        <set attributeName="fill" to="#808080" begin="arrowUp.mouseover" end="arrowUp.mouseout"/>
                  </use>
                  <path fill="none" stroke="white" stroke-width="1.5" d="M0,-3.0v7 M-2.5,-0.5L0,-3.0L2.5,-0.5"/>
                </g>
                <g id="arrowRight" xlink:href="#dirArrow" transform="rotate(90) translate(36 -43)" onmousedown="handlePan(1,0)">
                  <use xlink:href="#rim" fill="#404040">
                        <set attributeName="fill" to="#808080" begin="arrowRight.mouseover" end="arrowRight.mouseout"/>
                  </use>
                  <path fill="none" stroke="white" stroke-width="1.5" d="M0,-3.0v7 M-2.5,-0.5L0,-3.0L2.5,-0.5"/>
                </g>
                <g id="arrowDown" xlink:href="#dirArrow" transform="rotate(180) translate(-30 -48)" onmousedown="handlePan(0,1)">
                  <use xlink:href="#rim" fill="#404040">
                        <set attributeName="fill" to="#808080" begin="arrowDown.mouseover" end="arrowDown.mouseout"/>
                  </use>
                  <path fill="none" stroke="white" stroke-width="1.5" d="M0,-3.0v7 M-2.5,-0.5L0,-3.0L2.5,-0.5"/>
                </g>
                <g id="arrowLeft" xlink:href="#dirArrow" transform="rotate(270) translate(-36 17)" onmousedown="handlePan(-1,0)">
                  <use xlink:href="#rim" fill="#404040">
                        <set attributeName="fill" to="#808080" begin="arrowLeft.mouseover" end="arrowLeft.mouseout"/>
                  </use>
                  <path fill="none" stroke="white" stroke-width="1.5" d="M0,-3.0v7 M-2.5,-0.5L0,-3.0L2.5,-0.5"/>
                </g>
        </g>
        <svg viewBox="0 0 15 15" width="100%" height="30px" preserveAspectRatio="xMaxYMin meet">
         <g id="arrow_out" transform="scale(0.3 0.3)">
          <a xlink:href="a00226_org.svg" target="_base">
           <rect id="button" ry="5" rx="5" y="6" x="6" height="38" width="38"
                fill="#f2f5e9" fill-opacity="0.5" stroke="#606060" stroke-width="1.0"/>
           <path id="arrow"
             d="M 11.500037,31.436501 C 11.940474,20.09759 22.043105,11.32322 32.158766,21.979434 L 37.068811,17.246167 C 37.068811,17.246167 37.088388,32 37.088388,32 L 22.160133,31.978069 C 22.160133,31.978069 26.997745,27.140456 26.997745,27.140456 C 18.528582,18.264221 13.291696,25.230495 11.500037,31.436501 z"
             style="fill:#404040;"/>
          </a>
         </g>
        </svg>
</svg>
