<?xml version="1.0" encoding="UTF-8" standalone="no"?>
<!DOCTYPE svg PUBLIC "-//W3C//DTD SVG 1.1//EN"
 "http://www.w3.org/Graphics/SVG/1.1/DTD/svg11.dtd">
<!-- Generated by graphviz version 2.38.0 (20140413.2041)
 -->
<!-- Title: hpd/src/event_api.c Pages: 1 -->
<!--zoomable 319 -->
<svg id="main" version="1.1" xmlns="http://www.w3.org/2000/svg" xmlns:xlink="http://www.w3.org/1999/xlink" xml:space="preserve" onload="init(evt)">
<style type="text/css"><![CDATA[
.edge:hover path { stroke: red; }
.edge:hover polygon { stroke: red; fill: red; }
]]></style>
<script type="text/javascript"><![CDATA[
var edges = document.getElementsByTagName('g');
if (edges && edges.length) {
  for (var i=0;i<edges.length;i++) {
    if (edges[i].id.substr(0,4)=='edge') {
      edges[i].setAttribute('class','edge');
    }
  }
}
]]></script>
        <defs>
                <circle id="rim" cx="0" cy="0" r="7"/>
                <circle id="rim2" cx="0" cy="0" r="3.5"/>
                <g id="zoomPlus">
                        <use xlink:href="#rim" fill="#404040">
                                <set attributeName="fill" to="#808080" begin="zoomplus.mouseover" end="zoomplus.mouseout"/>
                        </use>
                        <path d="M-4,0h8M0,-4v8" fill="none" stroke="white" stroke-width="1.5" pointer-events="none"/>
                </g>
                <g id="zoomMin">
                        <use xlink:href="#rim" fill="#404040">
                                <set attributeName="fill" to="#808080" begin="zoomminus.mouseover" end="zoomminus.mouseout"/>
                        </use>
                        <path d="M-4,0h8" fill="none" stroke="white" stroke-width="1.5" pointer-events="none"/>
                </g>
                <g id="dirArrow">
                        <path fill="none" stroke="white" stroke-width="1.5" d="M0,-3.0v7 M-2.5,-0.5L0,-3.0L2.5,-0.5"/>
                </g>
               <g id="resetDef">
                       <use xlink:href="#rim2" fill="#404040">
                               <set attributeName="fill" to="#808080" begin="reset.mouseover" end="reset.mouseout"/>
                       </use>
               </g>
        </defs>

<script type="text/javascript">
var viewWidth = 887;
var viewHeight = 319;
var sectionId = 'dynsection-0';
</script>
<script xlink:href="svgpan.js"/>
<svg id="graph" class="graph">
<g id="viewport">
<title>hpd/src/event_api.c</title>
<!-- Node1 -->
<g id="node1" class="node"><title>Node1</title>
<polygon fill="#bfbfbf" stroke="black" points="361,-291.5 361,-310.5 463,-310.5 463,-291.5 361,-291.5"/>
<text text-anchor="middle" x="412" y="-298.5" font-family="Helvetica,sans-Serif" font-size="10.00">hpd/src/event_api.c</text>
</g>
<!-- Node2 -->
<g id="node2" class="node"><title>Node2</title>
<g id="a_node2"><a xlink:href="a00020.html" target="_top" xlink:title="discovery.h">
<polygon fill="none" stroke="black" points="465.5,-112.5 465.5,-131.5 532.5,-131.5 532.5,-112.5 465.5,-112.5"/>
<text text-anchor="middle" x="499" y="-119.5" font-family="Helvetica,sans-Serif" font-size="10.00">discovery.h</text>
</a>
</g>
</g>
<!-- Node1&#45;&gt;Node2 -->
<g id="edge1" class="edge"><title>Node1&#45;&gt;Node2</title>
<path fill="none" stroke="midnightblue" d="M414.485,-291.277C420.869,-269.555 439.114,-211.651 464,-168 469.748,-157.917 477.574,-147.63 484.368,-139.44"/>
<polygon fill="midnightblue" stroke="midnightblue" points="487.098,-141.634 490.945,-131.762 481.781,-137.08 487.098,-141.634"/>
</g>
<!-- Node5 -->
<g id="node5" class="node"><title>Node5</title>
<g id="a_node5"><a xlink:href="a00017.html" target="_top" xlink:title="daemon.h">
<polygon fill="none" stroke="black" points="207.5,-112.5 207.5,-131.5 266.5,-131.5 266.5,-112.5 207.5,-112.5"/>
<text text-anchor="middle" x="237" y="-119.5" font-family="Helvetica,sans-Serif" font-size="10.00">daemon.h</text>
</a>
</g>
</g>
<!-- Node1&#45;&gt;Node5 -->
<g id="edge4" class="edge"><title>Node1&#45;&gt;Node5</title>
<path fill="none" stroke="midnightblue" d="M360.758,-295.15C331.636,-289.793 296.587,-278.554 274,-255 244.031,-223.747 237.971,-170.247 236.973,-141.906"/>
<polygon fill="midnightblue" stroke="midnightblue" points="240.47,-141.687 236.8,-131.748 233.471,-141.807 240.47,-141.687"/>
</g>
<!-- Node14 -->
<g id="node14" class="node"><title>Node14</title>
<g id="a_node14"><a xlink:href="a00072.html" target="_top" xlink:title="hpd/hpd_api.h">
<polygon fill="none" stroke="black" points="594.5,-235.5 594.5,-254.5 671.5,-254.5 671.5,-235.5 594.5,-235.5"/>
<text text-anchor="middle" x="633" y="-242.5" font-family="Helvetica,sans-Serif" font-size="10.00">hpd/hpd_api.h</text>
</a>
</g>
</g>
<!-- Node1&#45;&gt;Node14 -->
<g id="edge14" class="edge"><title>Node1&#45;&gt;Node14</title>
<path fill="none" stroke="midnightblue" d="M447.018,-291.444C485.248,-282.102 546.567,-267.119 588.257,-256.933"/>
<polygon fill="midnightblue" stroke="midnightblue" points="589.262,-260.29 598.146,-254.516 587.601,-253.49 589.262,-260.29"/>
</g>
<!-- Node20 -->
<g id="node20" class="node"><title>Node20</title>
<g id="a_node20"><a xlink:href="a00082.html" target="_top" xlink:title="event.h">
<polygon fill="none" stroke="black" points="283.5,-235.5 283.5,-254.5 332.5,-254.5 332.5,-235.5 283.5,-235.5"/>
<text text-anchor="middle" x="308" y="-242.5" font-family="Helvetica,sans-Serif" font-size="10.00">event.h</text>
</a>
</g>
</g>
<!-- Node1&#45;&gt;Node20 -->
<g id="edge24" class="edge"><title>Node1&#45;&gt;Node20</title>
<path fill="none" stroke="midnightblue" d="M395.291,-291.324C378.688,-282.703 352.998,-269.364 333.78,-259.386"/>
<polygon fill="midnightblue" stroke="midnightblue" points="335.156,-256.156 324.668,-254.655 331.93,-262.369 335.156,-256.156"/>
</g>
<!-- Node21 -->
<g id="node21" class="node"><title>Node21</title>
<g id="a_node21"><a xlink:href="a00085.html" target="_top" xlink:title="log.h">
<polygon fill="none" stroke="black" points="551,-112.5 551,-131.5 589,-131.5 589,-112.5 551,-112.5"/>
<text text-anchor="middle" x="570" y="-119.5" font-family="Helvetica,sans-Serif" font-size="10.00">log.h</text>
</a>
</g>
</g>
<!-- Node1&#45;&gt;Node21 -->
<g id="edge26" class="edge"><title>Node1&#45;&gt;Node21</title>
<path fill="none" stroke="midnightblue" d="M418.297,-291.485C424.871,-282.517 435.401,-267.932 444,-255 469.199,-217.104 465.87,-200.23 498,-168 510.891,-155.069 528.163,-144.116 542.56,-136.255"/>
<polygon fill="midnightblue" stroke="midnightblue" points="544.303,-139.293 551.53,-131.545 541.049,-133.095 544.303,-139.293"/>
</g>
<!-- Node22 -->
<g id="node22" class="node"><title>Node22</title>
<g id="a_node22"><a xlink:href="a00033.html" target="_top" xlink:title="comm.h">
<polygon fill="none" stroke="black" points="359,-235.5 359,-254.5 411,-254.5 411,-235.5 359,-235.5"/>
<text text-anchor="middle" x="385" y="-242.5" font-family="Helvetica,sans-Serif" font-size="10.00">comm.h</text>
</a>
</g>
</g>
<!-- Node1&#45;&gt;Node22 -->
<g id="edge29" class="edge"><title>Node1&#45;&gt;Node22</title>
<path fill="none" stroke="midnightblue" d="M407.541,-291.083C403.846,-283.691 398.477,-272.953 393.906,-263.811"/>
<polygon fill="midnightblue" stroke="midnightblue" points="396.978,-262.13 389.376,-254.751 390.717,-265.261 396.978,-262.13"/>
</g>
<!-- Node3 -->
<g id="node3" class="node"><title>Node3</title>
<g id="a_node3"><a xlink:href="a00030.html" target="_top" xlink:title="hpd/hpd_types.h">
<polygon fill="none" stroke="black" points="445.5,-56.5 445.5,-75.5 534.5,-75.5 534.5,-56.5 445.5,-56.5"/>
<text text-anchor="middle" x="490" y="-63.5" font-family="Helvetica,sans-Serif" font-size="10.00">hpd/hpd_types.h</text>
</a>
</g>
</g>
<!-- Node2&#45;&gt;Node3 -->
<g id="edge2" class="edge"><title>Node2&#45;&gt;Node3</title>
<path fill="none" stroke="midnightblue" d="M497.514,-112.083C496.321,-104.927 494.606,-94.6353 493.115,-85.6911"/>
<polygon fill="midnightblue" stroke="midnightblue" points="496.555,-85.0396 491.459,-75.7511 489.65,-86.1904 496.555,-85.0396"/>
</g>
<!-- Node4 -->
<g id="node4" class="node"><title>Node4</title>
<polygon fill="none" stroke="#bfbfbf" points="553,-56.5 553,-75.5 605,-75.5 605,-56.5 553,-56.5"/>
<text text-anchor="middle" x="579" y="-63.5" font-family="Helvetica,sans-Serif" font-size="10.00">stdarg.h</text>
</g>
<!-- Node2&#45;&gt;Node4 -->
<g id="edge3" class="edge"><title>Node2&#45;&gt;Node4</title>
<path fill="none" stroke="midnightblue" d="M511.853,-112.324C524.216,-103.979 543.13,-91.2122 557.737,-81.3524"/>
<polygon fill="midnightblue" stroke="midnightblue" points="559.848,-84.1503 566.179,-75.6545 555.932,-78.3483 559.848,-84.1503"/>
</g>
<!-- Node5&#45;&gt;Node3 -->
<g id="edge5" class="edge"><title>Node5&#45;&gt;Node3</title>
<path fill="none" stroke="midnightblue" d="M266.517,-114.7C309.044,-105.623 388.115,-88.7462 439.891,-77.6952"/>
<polygon fill="midnightblue" stroke="midnightblue" points="440.814,-81.0771 449.863,-75.5667 439.353,-74.2313 440.814,-81.0771"/>
</g>
<!-- Node6 -->
<g id="node6" class="node"><title>Node6</title>
<g id="a_node6"><a xlink:href="a00053.html" target="_top" xlink:title="hpd/common/hpd_common.h">
<polygon fill="none" stroke="black" points="19.5,-56.5 19.5,-75.5 162.5,-75.5 162.5,-56.5 19.5,-56.5"/>
<text text-anchor="middle" x="91" y="-63.5" font-family="Helvetica,sans-Serif" font-size="10.00">hpd/common/hpd_common.h</text>
</a>
</g>
</g>
<!-- Node5&#45;&gt;Node6 -->
<g id="edge6" class="edge"><title>Node5&#45;&gt;Node6</title>
<path fill="none" stroke="midnightblue" d="M213.866,-112.444C189.518,-103.438 150.993,-89.1891 123.577,-79.049"/>
<polygon fill="midnightblue" stroke="midnightblue" points="124.619,-75.7028 114.026,-75.5164 122.191,-82.2681 124.619,-75.7028"/>
</g>
<!-- Node10 -->
<g id="node10" class="node"><title>Node10</title>
<g id="a_node10"><a xlink:href="a00055.html" target="_top" xlink:title="hpd/common/hpd_queue.h">
<polygon fill="none" stroke="black" points="296.5,-56.5 296.5,-75.5 427.5,-75.5 427.5,-56.5 296.5,-56.5"/>
<text text-anchor="middle" x="362" y="-63.5" font-family="Helvetica,sans-Serif" font-size="10.00">hpd/common/hpd_queue.h</text>
</a>
</g>
</g>
<!-- Node5&#45;&gt;Node10 -->
<g id="edge10" class="edge"><title>Node5&#45;&gt;Node10</title>
<path fill="none" stroke="midnightblue" d="M256.807,-112.444C277.287,-103.596 309.483,-89.6875 332.865,-79.5865"/>
<polygon fill="midnightblue" stroke="midnightblue" points="334.494,-82.6953 342.286,-75.5164 331.718,-76.2692 334.494,-82.6953"/>
</g>
<!-- Node12 -->
<g id="node12" class="node"><title>Node12</title>
<polygon fill="none" stroke="#bfbfbf" points="180.5,-56.5 180.5,-75.5 215.5,-75.5 215.5,-56.5 180.5,-56.5"/>
<text text-anchor="middle" x="198" y="-63.5" font-family="Helvetica,sans-Serif" font-size="10.00">ev.h</text>
</g>
<!-- Node5&#45;&gt;Node12 -->
<g id="edge12" class="edge"><title>Node5&#45;&gt;Node12</title>
<path fill="none" stroke="midnightblue" d="M230.56,-112.083C225.051,-104.455 216.969,-93.2645 210.235,-83.9408"/>
<polygon fill="midnightblue" stroke="midnightblue" points="213.013,-81.8087 204.32,-75.7511 207.338,-85.9071 213.013,-81.8087"/>
</g>
<!-- Node13 -->
<g id="node13" class="node"><title>Node13</title>
<polygon fill="none" stroke="#bfbfbf" points="234,-56.5 234,-75.5 278,-75.5 278,-56.5 234,-56.5"/>
<text text-anchor="middle" x="256" y="-63.5" font-family="Helvetica,sans-Serif" font-size="10.00">argp.h</text>
</g>
<!-- Node5&#45;&gt;Node13 -->
<g id="edge13" class="edge"><title>Node5&#45;&gt;Node13</title>
<path fill="none" stroke="midnightblue" d="M240.137,-112.083C242.683,-104.849 246.356,-94.4087 249.527,-85.3968"/>
<polygon fill="midnightblue" stroke="midnightblue" points="252.903,-86.3459 252.921,-75.7511 246.3,-84.0225 252.903,-86.3459"/>
</g>
<!-- Node7 -->
<g id="node7" class="node"><title>Node7</title>
<polygon fill="none" stroke="#bfbfbf" points="0,-0.5 0,-19.5 48,-19.5 48,-0.5 0,-0.5"/>
<text text-anchor="middle" x="24" y="-7.5" font-family="Helvetica,sans-Serif" font-size="10.00">stdlib.h</text>
</g>
<!-- Node6&#45;&gt;Node7 -->
<g id="edge7" class="edge"><title>Node6&#45;&gt;Node7</title>
<path fill="none" stroke="midnightblue" d="M80.2353,-56.324C70.2339,-48.2631 55.1135,-36.0765 43.0695,-26.3695"/>
<polygon fill="midnightblue" stroke="midnightblue" points="44.9429,-23.3841 34.9606,-19.8339 40.5502,-28.8343 44.9429,-23.3841"/>
</g>
<!-- Node8 -->
<g id="node8" class="node"><title>Node8</title>
<polygon fill="none" stroke="#bfbfbf" points="66.5,-0.5 66.5,-19.5 115.5,-19.5 115.5,-0.5 66.5,-0.5"/>
<text text-anchor="middle" x="91" y="-7.5" font-family="Helvetica,sans-Serif" font-size="10.00">string.h</text>
</g>
<!-- Node6&#45;&gt;Node8 -->
<g id="edge8" class="edge"><title>Node6&#45;&gt;Node8</title>
<path fill="none" stroke="midnightblue" d="M91,-56.083C91,-49.0059 91,-38.8611 91,-29.9865"/>
<polygon fill="midnightblue" stroke="midnightblue" points="94.5001,-29.751 91,-19.7511 87.5001,-29.7511 94.5001,-29.751"/>
</g>
<!-- Node9 -->
<g id="node9" class="node"><title>Node9</title>
<polygon fill="none" stroke="#bfbfbf" points="134,-0.5 134,-19.5 180,-19.5 180,-0.5 134,-0.5"/>
<text text-anchor="middle" x="157" y="-7.5" font-family="Helvetica,sans-Serif" font-size="10.00">stdio.h</text>
</g>
<!-- Node6&#45;&gt;Node9 -->
<g id="edge9" class="edge"><title>Node6&#45;&gt;Node9</title>
<path fill="none" stroke="midnightblue" d="M101.604,-56.324C111.456,-48.2631 126.351,-36.0765 138.215,-26.3695"/>
<polygon fill="midnightblue" stroke="midnightblue" points="140.68,-28.8752 146.203,-19.8339 136.247,-23.4575 140.68,-28.8752"/>
</g>
<!-- Node11 -->
<g id="node11" class="node"><title>Node11</title>
<polygon fill="none" stroke="#bfbfbf" points="317.5,-0.5 317.5,-19.5 406.5,-19.5 406.5,-0.5 317.5,-0.5"/>
<text text-anchor="middle" x="362" y="-7.5" font-family="Helvetica,sans-Serif" font-size="10.00">bsd/sys/queue.h</text>
</g>
<!-- Node10&#45;&gt;Node11 -->
<g id="edge11" class="edge"><title>Node10&#45;&gt;Node11</title>
<path fill="none" stroke="midnightblue" d="M362,-56.083C362,-49.0059 362,-38.8611 362,-29.9865"/>
<polygon fill="midnightblue" stroke="midnightblue" points="365.5,-29.751 362,-19.7511 358.5,-29.7511 365.5,-29.751"/>
</g>
<!-- Node15 -->
<g id="node15" class="node"><title>Node15</title>
<g id="a_node15"><a xlink:href="a00071.html" target="_top" xlink:title="hpd/hpd_adapter_api.h">
<polygon fill="none" stroke="black" points="642.5,-174 642.5,-193 757.5,-193 757.5,-174 642.5,-174"/>
<text text-anchor="middle" x="700" y="-181" font-family="Helvetica,sans-Serif" font-size="10.00">hpd/hpd_adapter_api.h</text>
</a>
</g>
</g>
<!-- Node14&#45;&gt;Node15 -->
<g id="edge15" class="edge"><title>Node14&#45;&gt;Node15</title>
<path fill="none" stroke="midnightblue" d="M642.599,-235.475C653.048,-226.197 669.968,-211.171 682.736,-199.831"/>
<polygon fill="midnightblue" stroke="midnightblue" points="685.265,-202.266 690.418,-193.009 680.617,-197.032 685.265,-202.266"/>
</g>
<!-- Node18 -->
<g id="node18" class="node"><title>Node18</title>
<g id="a_node18"><a xlink:href="a00073.html" target="_top" xlink:title="hpd/hpd_application\l_api.h">
<polygon fill="none" stroke="black" points="775.5,-168.5 775.5,-198.5 878.5,-198.5 878.5,-168.5 775.5,-168.5"/>
<text text-anchor="start" x="783.5" y="-186.5" font-family="Helvetica,sans-Serif" font-size="10.00">hpd/hpd_application</text>
<text text-anchor="middle" x="827" y="-175.5" font-family="Helvetica,sans-Serif" font-size="10.00">_api.h</text>
</a>
</g>
</g>
<!-- Node14&#45;&gt;Node18 -->
<g id="edge20" class="edge"><title>Node14&#45;&gt;Node18</title>
<path fill="none" stroke="midnightblue" d="M660.795,-235.475C689.526,-226.664 735.157,-212.668 771.344,-201.57"/>
<polygon fill="midnightblue" stroke="midnightblue" points="772.744,-204.801 781.278,-198.523 770.691,-198.109 772.744,-204.801"/>
</g>
<!-- Node19 -->
<g id="node19" class="node"><title>Node19</title>
<g id="a_node19"><a xlink:href="a00074.html" target="_top" xlink:title="hpd/hpd_daemon_api.h">
<polygon fill="none" stroke="black" points="507.5,-174 507.5,-193 624.5,-193 624.5,-174 507.5,-174"/>
<text text-anchor="middle" x="566" y="-181" font-family="Helvetica,sans-Serif" font-size="10.00">hpd/hpd_daemon_api.h</text>
</a>
</g>
</g>
<!-- Node14&#45;&gt;Node19 -->
<g id="edge22" class="edge"><title>Node14&#45;&gt;Node19</title>
<path fill="none" stroke="midnightblue" d="M623.401,-235.475C612.952,-226.197 596.032,-211.171 583.264,-199.831"/>
<polygon fill="midnightblue" stroke="midnightblue" points="585.383,-197.032 575.582,-193.009 580.735,-202.266 585.383,-197.032"/>
</g>
<!-- Node16 -->
<g id="node16" class="node"><title>Node16</title>
<g id="a_node16"><a xlink:href="a00075.html" target="_top" xlink:title="hpd/hpd_shared_api.h">
<polygon fill="none" stroke="black" points="645,-112.5 645,-131.5 757,-131.5 757,-112.5 645,-112.5"/>
<text text-anchor="middle" x="701" y="-119.5" font-family="Helvetica,sans-Serif" font-size="10.00">hpd/hpd_shared_api.h</text>
</a>
</g>
</g>
<!-- Node15&#45;&gt;Node16 -->
<g id="edge16" class="edge"><title>Node15&#45;&gt;Node16</title>
<path fill="none" stroke="midnightblue" d="M700.143,-173.975C700.284,-165.58 700.505,-152.481 700.686,-141.663"/>
<polygon fill="midnightblue" stroke="midnightblue" points="704.188,-141.567 700.857,-131.509 697.189,-141.449 704.188,-141.567"/>
</g>
<!-- Node16&#45;&gt;Node3 -->
<g id="edge17" class="edge"><title>Node16&#45;&gt;Node3</title>
<path fill="none" stroke="midnightblue" d="M667.566,-112.444C631.144,-103.122 572.77,-88.1828 532.971,-77.9972"/>
<polygon fill="midnightblue" stroke="midnightblue" points="533.833,-74.6051 523.277,-75.5164 532.097,-81.3866 533.833,-74.6051"/>
</g>
<!-- Node16&#45;&gt;Node4 -->
<g id="edge19" class="edge"><title>Node16&#45;&gt;Node4</title>
<path fill="none" stroke="midnightblue" d="M681.669,-112.444C661.68,-103.596 630.257,-89.6875 607.436,-79.5865"/>
<polygon fill="midnightblue" stroke="midnightblue" points="608.802,-76.3635 598.241,-75.5164 605.968,-82.7645 608.802,-76.3635"/>
</g>
<!-- Node17 -->
<g id="node17" class="node"><title>Node17</title>
<polygon fill="none" stroke="#bfbfbf" points="649,-56.5 649,-75.5 701,-75.5 701,-56.5 649,-56.5"/>
<text text-anchor="middle" x="675" y="-63.5" font-family="Helvetica,sans-Serif" font-size="10.00">stddef.h</text>
</g>
<!-- Node16&#45;&gt;Node17 -->
<g id="edge18" class="edge"><title>Node16&#45;&gt;Node17</title>
<path fill="none" stroke="midnightblue" d="M696.707,-112.083C693.148,-104.691 687.978,-93.9533 683.576,-84.8111"/>
<polygon fill="midnightblue" stroke="midnightblue" points="686.705,-83.2427 679.213,-75.7511 680.398,-86.2795 686.705,-83.2427"/>
</g>
<!-- Node18&#45;&gt;Node16 -->
<g id="edge21" class="edge"><title>Node18&#45;&gt;Node16</title>
<path fill="none" stroke="midnightblue" d="M797.14,-168.399C776.377,-158.595 748.9,-145.619 728.639,-136.052"/>
<polygon fill="midnightblue" stroke="midnightblue" points="729.871,-132.763 719.334,-131.658 726.882,-139.093 729.871,-132.763"/>
</g>
<!-- Node19&#45;&gt;Node3 -->
<g id="edge23" class="edge"><title>Node19&#45;&gt;Node3</title>
<path fill="none" stroke="midnightblue" d="M575.425,-173.79C589.186,-159.996 611.719,-132.578 598,-112 585.848,-93.772 564.766,-82.9157 544.436,-76.455"/>
<polygon fill="midnightblue" stroke="midnightblue" points="545.135,-73.0147 534.558,-73.6235 543.206,-79.7437 545.135,-73.0147"/>
</g>
<!-- Node20&#45;&gt;Node3 -->
<g id="edge25" class="edge"><title>Node20&#45;&gt;Node3</title>
<path fill="none" stroke="midnightblue" d="M305.282,-235.392C298.605,-212.406 284.032,-148.836 314,-112 321.844,-102.358 386.764,-87.5277 435.493,-77.5545"/>
<polygon fill="midnightblue" stroke="midnightblue" points="436.204,-80.9817 445.31,-75.5657 434.814,-74.121 436.204,-80.9817"/>
</g>
<!-- Node21&#45;&gt;Node3 -->
<g id="edge27" class="edge"><title>Node21&#45;&gt;Node3</title>
<path fill="none" stroke="midnightblue" d="M557.147,-112.324C544.784,-103.979 525.87,-91.2122 511.263,-81.3524"/>
<polygon fill="midnightblue" stroke="midnightblue" points="513.068,-78.3483 502.821,-75.6545 509.152,-84.1503 513.068,-78.3483"/>
</g>
<!-- Node21&#45;&gt;Node4 -->
<g id="edge28" class="edge"><title>Node21&#45;&gt;Node4</title>
<path fill="none" stroke="midnightblue" d="M571.486,-112.083C572.679,-104.927 574.394,-94.6353 575.885,-85.6911"/>
<polygon fill="midnightblue" stroke="midnightblue" points="579.35,-86.1904 577.541,-75.7511 572.445,-85.0396 579.35,-86.1904"/>
</g>
<!-- Node23 -->
<g id="node23" class="node"><title>Node23</title>
<g id="a_node23"><a xlink:href="a00056.html" target="_top" xlink:title="hpd/common/hpd_map.h">
<polygon fill="none" stroke="black" points="323,-112.5 323,-131.5 447,-131.5 447,-112.5 323,-112.5"/>
<text text-anchor="middle" x="385" y="-119.5" font-family="Helvetica,sans-Serif" font-size="10.00">hpd/common/hpd_map.h</text>
</a>
</g>
</g>
<!-- Node22&#45;&gt;Node23 -->
<g id="edge30" class="edge"><title>Node22&#45;&gt;Node23</title>
<path fill="none" stroke="midnightblue" d="M385,-235.298C385,-215.85 385,-168.49 385,-141.904"/>
<polygon fill="midnightblue" stroke="midnightblue" points="388.5,-141.623 385,-131.623 381.5,-141.623 388.5,-141.623"/>
</g>
<!-- Node23&#45;&gt;Node3 -->
<g id="edge31" class="edge"><title>Node23&#45;&gt;Node3</title>
<path fill="none" stroke="midnightblue" d="M401.87,-112.324C418.709,-103.664 444.807,-90.2424 464.238,-80.249"/>
<polygon fill="midnightblue" stroke="midnightblue" points="465.88,-83.3405 473.172,-75.6545 462.678,-77.1155 465.88,-83.3405"/>
</g>
<!-- Node23&#45;&gt;Node4 -->
<g id="edge34" class="edge"><title>Node23&#45;&gt;Node4</title>
<path fill="none" stroke="midnightblue" d="M415.74,-112.444C450.311,-102.821 506.393,-87.2102 542.988,-77.0239"/>
<polygon fill="midnightblue" stroke="midnightblue" points="544.064,-80.3576 552.759,-74.3042 542.187,-73.614 544.064,-80.3576"/>
</g>
<!-- Node23&#45;&gt;Node10 -->
<g id="edge32" class="edge"><title>Node23&#45;&gt;Node10</title>
<path fill="none" stroke="midnightblue" d="M381.202,-112.083C378.087,-104.77 373.577,-94.1814 369.711,-85.1034"/>
<polygon fill="midnightblue" stroke="midnightblue" points="372.866,-83.5798 365.727,-75.7511 366.426,-86.3229 372.866,-83.5798"/>
</g>
<!-- Node23&#45;&gt;Node17 -->
<g id="edge33" class="edge"><title>Node23&#45;&gt;Node17</title>
<path fill="none" stroke="midnightblue" d="M430.951,-112.444C488.597,-101.71 586.251,-83.5258 638.857,-73.7302"/>
<polygon fill="midnightblue" stroke="midnightblue" points="639.562,-77.1591 648.752,-71.8876 638.28,-70.2774 639.562,-77.1591"/>
</g>
</g>
</svg>
        <g id="navigator" transform="translate(0 0)" fill="#404254">
                <rect fill="#f2f5e9" fill-opacity="0.5" stroke="#606060" stroke-width=".5" x="0" y="0" width="60" height="60"/>
                <use id="zoomplus" xlink:href="#zoomPlus" x="17" y="9" onmousedown="handleZoom(evt,'in')"/>
                <use id="zoomminus" xlink:href="#zoomMin" x="42" y="9" onmousedown="handleZoom(evt,'out')"/>
                <use id="reset" xlink:href="#resetDef" x="30" y="36" onmousedown="handleReset()"/>
                <g id="arrowUp" xlink:href="#dirArrow" transform="translate(30 24)" onmousedown="handlePan(0,-1)">
                  <use xlink:href="#rim" fill="#404040">
                        <set attributeName="fill" to="#808080" begin="arrowUp.mouseover" end="arrowUp.mouseout"/>
                  </use>
                  <path fill="none" stroke="white" stroke-width="1.5" d="M0,-3.0v7 M-2.5,-0.5L0,-3.0L2.5,-0.5"/>
                </g>
                <g id="arrowRight" xlink:href="#dirArrow" transform="rotate(90) translate(36 -43)" onmousedown="handlePan(1,0)">
                  <use xlink:href="#rim" fill="#404040">
                        <set attributeName="fill" to="#808080" begin="arrowRight.mouseover" end="arrowRight.mouseout"/>
                  </use>
                  <path fill="none" stroke="white" stroke-width="1.5" d="M0,-3.0v7 M-2.5,-0.5L0,-3.0L2.5,-0.5"/>
                </g>
                <g id="arrowDown" xlink:href="#dirArrow" transform="rotate(180) translate(-30 -48)" onmousedown="handlePan(0,1)">
                  <use xlink:href="#rim" fill="#404040">
                        <set attributeName="fill" to="#808080" begin="arrowDown.mouseover" end="arrowDown.mouseout"/>
                  </use>
                  <path fill="none" stroke="white" stroke-width="1.5" d="M0,-3.0v7 M-2.5,-0.5L0,-3.0L2.5,-0.5"/>
                </g>
                <g id="arrowLeft" xlink:href="#dirArrow" transform="rotate(270) translate(-36 17)" onmousedown="handlePan(-1,0)">
                  <use xlink:href="#rim" fill="#404040">
                        <set attributeName="fill" to="#808080" begin="arrowLeft.mouseover" end="arrowLeft.mouseout"/>
                  </use>
                  <path fill="none" stroke="white" stroke-width="1.5" d="M0,-3.0v7 M-2.5,-0.5L0,-3.0L2.5,-0.5"/>
                </g>
        </g>
        <svg viewBox="0 0 15 15" width="100%" height="30px" preserveAspectRatio="xMaxYMin meet">
         <g id="arrow_out" transform="scale(0.3 0.3)">
          <a xlink:href="a00255_org.svg" target="_base">
           <rect id="button" ry="5" rx="5" y="6" x="6" height="38" width="38"
                fill="#f2f5e9" fill-opacity="0.5" stroke="#606060" stroke-width="1.0"/>
           <path id="arrow"
             d="M 11.500037,31.436501 C 11.940474,20.09759 22.043105,11.32322 32.158766,21.979434 L 37.068811,17.246167 C 37.068811,17.246167 37.088388,32 37.088388,32 L 22.160133,31.978069 C 22.160133,31.978069 26.997745,27.140456 26.997745,27.140456 C 18.528582,18.264221 13.291696,25.230495 11.500037,31.436501 z"
             style="fill:#404040;"/>
          </a>
         </g>
        </svg>
</svg>
