<?xml version="1.0" encoding="UTF-8" standalone="no"?>
<!DOCTYPE svg PUBLIC "-//W3C//DTD SVG 1.1//EN"
 "http://www.w3.org/Graphics/SVG/1.1/DTD/svg11.dtd">
<!-- Generated by graphviz version 2.38.0 (20140413.2041)
 -->
<!-- Title: hpd/src/request.c Pages: 1 -->
<!--zoomable 308 -->
<svg id="main" version="1.1" xmlns="http://www.w3.org/2000/svg" xmlns:xlink="http://www.w3.org/1999/xlink" xml:space="preserve" onload="init(evt)">
<style type="text/css"><![CDATA[
.edge:hover path { stroke: red; }
.edge:hover polygon { stroke: red; fill: red; }
]]></style>
<script type="text/javascript"><![CDATA[
var edges = document.getElementsByTagName('g');
if (edges && edges.length) {
  for (var i=0;i<edges.length;i++) {
    if (edges[i].id.substr(0,4)=='edge') {
      edges[i].setAttribute('class','edge');
    }
  }
}
]]></script>
        <defs>
                <circle id="rim" cx="0" cy="0" r="7"/>
                <circle id="rim2" cx="0" cy="0" r="3.5"/>
                <g id="zoomPlus">
                        <use xlink:href="#rim" fill="#404040">
                                <set attributeName="fill" to="#808080" begin="zoomplus.mouseover" end="zoomplus.mouseout"/>
                        </use>
                        <path d="M-4,0h8M0,-4v8" fill="none" stroke="white" stroke-width="1.5" pointer-events="none"/>
                </g>
                <g id="zoomMin">
                        <use xlink:href="#rim" fill="#404040">
                                <set attributeName="fill" to="#808080" begin="zoomminus.mouseover" end="zoomminus.mouseout"/>
                        </use>
                        <path d="M-4,0h8" fill="none" stroke="white" stroke-width="1.5" pointer-events="none"/>
                </g>
                <g id="dirArrow">
                        <path fill="none" stroke="white" stroke-width="1.5" d="M0,-3.0v7 M-2.5,-0.5L0,-3.0L2.5,-0.5"/>
                </g>
               <g id="resetDef">
                       <use xlink:href="#rim2" fill="#404040">
                               <set attributeName="fill" to="#808080" begin="reset.mouseover" end="reset.mouseout"/>
                       </use>
               </g>
        </defs>

<script type="text/javascript">
var viewWidth = 688;
var viewHeight = 308;
var sectionId = 'dynsection-0';
</script>
<script xlink:href="svgpan.js"/>
<svg id="graph" class="graph">
<g id="viewport">
<title>hpd/src/request.c</title>
<!-- Node1 -->
<g id="node1" class="node"><title>Node1</title>
<polygon fill="#bfbfbf" stroke="black" points="232,-280.5 232,-299.5 324,-299.5 324,-280.5 232,-280.5"/>
<text text-anchor="middle" x="278" y="-287.5" font-family="Helvetica,sans-Serif" font-size="10.00">hpd/src/request.c</text>
</g>
<!-- Node2 -->
<g id="node2" class="node"><title>Node2</title>
<g id="a_node2"><a xlink:href="a00072.html" target="_top" xlink:title="value.h">
<polygon fill="none" stroke="black" points="0,-112.5 0,-131.5 48,-131.5 48,-112.5 0,-112.5"/>
<text text-anchor="middle" x="24" y="-119.5" font-family="Helvetica,sans-Serif" font-size="10.00">value.h</text>
</a>
</g>
</g>
<!-- Node1&#45;&gt;Node2 -->
<g id="edge1" class="edge"><title>Node1&#45;&gt;Node2</title>
<path fill="none" stroke="midnightblue" d="M252.172,-280.377C230.076,-272.461 197.84,-259.609 172,-244 119.707,-212.411 66.0953,-163.689 40.0987,-138.805"/>
<polygon fill="midnightblue" stroke="midnightblue" points="42.2867,-136.052 32.6653,-131.616 37.4202,-141.084 42.2867,-136.052"/>
</g>
<!-- Node6 -->
<g id="node6" class="node"><title>Node6</title>
<g id="a_node6"><a xlink:href="a00011.html" target="_top" xlink:title="discovery.h">
<polygon fill="none" stroke="black" points="122.5,-112.5 122.5,-131.5 189.5,-131.5 189.5,-112.5 122.5,-112.5"/>
<text text-anchor="middle" x="156" y="-119.5" font-family="Helvetica,sans-Serif" font-size="10.00">discovery.h</text>
</a>
</g>
</g>
<!-- Node1&#45;&gt;Node6 -->
<g id="edge5" class="edge"><title>Node1&#45;&gt;Node6</title>
<path fill="none" stroke="midnightblue" d="M265.204,-280.356C243.03,-264.675 197.582,-229.312 174,-188 165.746,-173.541 161.108,-155.091 158.616,-141.545"/>
<polygon fill="midnightblue" stroke="midnightblue" points="162.045,-140.828 156.994,-131.514 155.135,-141.945 162.045,-140.828"/>
</g>
<!-- Node7 -->
<g id="node7" class="node"><title>Node7</title>
<g id="a_node7"><a xlink:href="a00069.html" target="_top" xlink:title="request.h">
<polygon fill="none" stroke="black" points="342.5,-224.5 342.5,-243.5 399.5,-243.5 399.5,-224.5 342.5,-224.5"/>
<text text-anchor="middle" x="371" y="-231.5" font-family="Helvetica,sans-Serif" font-size="10.00">request.h</text>
</a>
</g>
</g>
<!-- Node1&#45;&gt;Node7 -->
<g id="edge8" class="edge"><title>Node1&#45;&gt;Node7</title>
<path fill="none" stroke="midnightblue" d="M292.942,-280.324C307.585,-271.822 330.134,-258.729 347.238,-248.797"/>
<polygon fill="midnightblue" stroke="midnightblue" points="349.205,-251.703 356.095,-243.655 345.69,-245.649 349.205,-251.703"/>
</g>
<!-- Node8 -->
<g id="node8" class="node"><title>Node8</title>
<g id="a_node8"><a xlink:href="a00040.html" target="_top" xlink:title="hpd_common.h">
<polygon fill="none" stroke="black" points="543.5,-168.5 543.5,-187.5 626.5,-187.5 626.5,-168.5 543.5,-168.5"/>
<text text-anchor="middle" x="585" y="-175.5" font-family="Helvetica,sans-Serif" font-size="10.00">hpd_common.h</text>
</a>
</g>
</g>
<!-- Node1&#45;&gt;Node8 -->
<g id="edge10" class="edge"><title>Node1&#45;&gt;Node8</title>
<path fill="none" stroke="midnightblue" d="M324.009,-286.933C372.252,-283.226 449.215,-272.877 509,-244 533.535,-232.149 556.55,-210.4 570.688,-195.343"/>
<polygon fill="midnightblue" stroke="midnightblue" points="573.438,-197.522 577.583,-187.772 568.262,-192.809 573.438,-197.522"/>
</g>
<!-- Node11 -->
<g id="node11" class="node"><title>Node11</title>
<polygon fill="none" stroke="#bfbfbf" points="644.5,-168.5 644.5,-187.5 679.5,-187.5 679.5,-168.5 644.5,-168.5"/>
<text text-anchor="middle" x="662" y="-175.5" font-family="Helvetica,sans-Serif" font-size="10.00">ev.h</text>
</g>
<!-- Node1&#45;&gt;Node11 -->
<g id="edge13" class="edge"><title>Node1&#45;&gt;Node11</title>
<path fill="none" stroke="midnightblue" d="M324.156,-285.378C376.983,-280.241 465.554,-268.58 538,-244 575.795,-231.177 616.121,-208.061 640.182,-193.133"/>
<polygon fill="midnightblue" stroke="midnightblue" points="642.266,-195.957 648.859,-187.664 638.533,-190.035 642.266,-195.957"/>
</g>
<!-- Node12 -->
<g id="node12" class="node"><title>Node12</title>
<g id="a_node12"><a xlink:href="a00009.html" target="_top" xlink:title="daemon.h">
<polygon fill="none" stroke="black" points="441.5,-224.5 441.5,-243.5 500.5,-243.5 500.5,-224.5 441.5,-224.5"/>
<text text-anchor="middle" x="471" y="-231.5" font-family="Helvetica,sans-Serif" font-size="10.00">daemon.h</text>
</a>
</g>
</g>
<!-- Node1&#45;&gt;Node12 -->
<g id="edge14" class="edge"><title>Node1&#45;&gt;Node12</title>
<path fill="none" stroke="midnightblue" d="M308.581,-280.444C341.809,-271.147 395.009,-256.262 431.406,-246.078"/>
<polygon fill="midnightblue" stroke="midnightblue" points="432.509,-249.404 441.196,-243.339 430.623,-242.663 432.509,-249.404"/>
</g>
<!-- Node16 -->
<g id="node16" class="node"><title>Node16</title>
<g id="a_node16"><a xlink:href="a00066.html" target="_top" xlink:title="log.h">
<polygon fill="none" stroke="black" points="66,-112.5 66,-131.5 104,-131.5 104,-112.5 66,-112.5"/>
<text text-anchor="middle" x="85" y="-119.5" font-family="Helvetica,sans-Serif" font-size="10.00">log.h</text>
</a>
</g>
</g>
<!-- Node1&#45;&gt;Node16 -->
<g id="edge21" class="edge"><title>Node1&#45;&gt;Node16</title>
<path fill="none" stroke="midnightblue" d="M258.616,-280.389C241.511,-272.304 216.36,-259.198 197,-244 156.293,-212.043 117.221,-164.873 97.7783,-139.917"/>
<polygon fill="midnightblue" stroke="midnightblue" points="100.406,-137.593 91.5367,-131.798 94.8562,-141.859 100.406,-137.593"/>
</g>
<!-- Node17 -->
<g id="node17" class="node"><title>Node17</title>
<g id="a_node17"><a xlink:href="a00024.html" target="_top" xlink:title="comm.h">
<polygon fill="none" stroke="black" points="183,-168.5 183,-187.5 235,-187.5 235,-168.5 183,-168.5"/>
<text text-anchor="middle" x="209" y="-175.5" font-family="Helvetica,sans-Serif" font-size="10.00">comm.h</text>
</a>
</g>
</g>
<!-- Node1&#45;&gt;Node17 -->
<g id="edge24" class="edge"><title>Node1&#45;&gt;Node17</title>
<path fill="none" stroke="midnightblue" d="M270.539,-280.381C263.096,-271.568 251.565,-257.319 243,-244 233.12,-228.636 223.637,-210.083 217.209,-196.738"/>
<polygon fill="midnightblue" stroke="midnightblue" points="220.369,-195.233 212.932,-187.687 214.04,-198.224 220.369,-195.233"/>
</g>
<!-- Node19 -->
<g id="node19" class="node"><title>Node19</title>
<g id="a_node19"><a xlink:href="a00005.html" target="_top" xlink:title="model.h">
<polygon fill="none" stroke="black" points="252.5,-224.5 252.5,-243.5 303.5,-243.5 303.5,-224.5 252.5,-224.5"/>
<text text-anchor="middle" x="278" y="-231.5" font-family="Helvetica,sans-Serif" font-size="10.00">model.h</text>
</a>
</g>
</g>
<!-- Node1&#45;&gt;Node19 -->
<g id="edge30" class="edge"><title>Node1&#45;&gt;Node19</title>
<path fill="none" stroke="midnightblue" d="M278,-280.083C278,-273.006 278,-262.861 278,-253.986"/>
<polygon fill="midnightblue" stroke="midnightblue" points="281.5,-253.751 278,-243.751 274.5,-253.751 281.5,-253.751"/>
</g>
<!-- Node3 -->
<g id="node3" class="node"><title>Node3</title>
<g id="a_node3"><a xlink:href="a00021.html" target="_top" xlink:title="hpd_types.h">
<polygon fill="none" stroke="black" points="205,-56.5 205,-75.5 275,-75.5 275,-56.5 205,-56.5"/>
<text text-anchor="middle" x="240" y="-63.5" font-family="Helvetica,sans-Serif" font-size="10.00">hpd_types.h</text>
</a>
</g>
</g>
<!-- Node2&#45;&gt;Node3 -->
<g id="edge2" class="edge"><title>Node2&#45;&gt;Node3</title>
<path fill="none" stroke="midnightblue" d="M48.1319,-114.343C51.1155,-113.543 54.1258,-112.745 57,-112 103.897,-99.8411 157.769,-86.6922 194.856,-77.7667"/>
<polygon fill="midnightblue" stroke="midnightblue" points="195.946,-81.1046 204.852,-75.3656 194.311,-74.2982 195.946,-81.1046"/>
</g>
<!-- Node4 -->
<g id="node4" class="node"><title>Node4</title>
<polygon fill="none" stroke="#bfbfbf" points="14,-56.5 14,-75.5 66,-75.5 66,-56.5 14,-56.5"/>
<text text-anchor="middle" x="40" y="-63.5" font-family="Helvetica,sans-Serif" font-size="10.00">stddef.h</text>
</g>
<!-- Node2&#45;&gt;Node4 -->
<g id="edge3" class="edge"><title>Node2&#45;&gt;Node4</title>
<path fill="none" stroke="midnightblue" d="M26.6421,-112.083C28.7856,-104.849 31.8789,-94.4087 34.5491,-85.3968"/>
<polygon fill="midnightblue" stroke="midnightblue" points="37.9219,-86.3334 37.4071,-75.7511 31.2103,-84.3447 37.9219,-86.3334"/>
</g>
<!-- Node5 -->
<g id="node5" class="node"><title>Node5</title>
<polygon fill="none" stroke="#bfbfbf" points="99,-56.5 99,-75.5 151,-75.5 151,-56.5 99,-56.5"/>
<text text-anchor="middle" x="125" y="-63.5" font-family="Helvetica,sans-Serif" font-size="10.00">stdarg.h</text>
</g>
<!-- Node2&#45;&gt;Node5 -->
<g id="edge4" class="edge"><title>Node2&#45;&gt;Node5</title>
<path fill="none" stroke="midnightblue" d="M40.2274,-112.324C56.351,-103.703 81.3002,-90.3643 99.9641,-80.3855"/>
<polygon fill="midnightblue" stroke="midnightblue" points="101.644,-83.456 108.813,-75.6545 98.3439,-77.283 101.644,-83.456"/>
</g>
<!-- Node6&#45;&gt;Node3 -->
<g id="edge6" class="edge"><title>Node6&#45;&gt;Node3</title>
<path fill="none" stroke="midnightblue" d="M169.496,-112.324C182.6,-103.9 202.712,-90.9709 218.107,-81.0741"/>
<polygon fill="midnightblue" stroke="midnightblue" points="220.018,-84.0063 226.537,-75.6545 216.233,-78.118 220.018,-84.0063"/>
</g>
<!-- Node6&#45;&gt;Node5 -->
<g id="edge7" class="edge"><title>Node6&#45;&gt;Node5</title>
<path fill="none" stroke="midnightblue" d="M150.881,-112.083C146.592,-104.613 140.342,-93.7244 135.058,-84.5199"/>
<polygon fill="midnightblue" stroke="midnightblue" points="138.038,-82.6811 130.024,-75.7511 131.967,-86.1662 138.038,-82.6811"/>
</g>
<!-- Node7&#45;&gt;Node3 -->
<g id="edge9" class="edge"><title>Node7&#45;&gt;Node3</title>
<path fill="none" stroke="midnightblue" d="M367.165,-224.374C357.607,-203.494 331.097,-149.215 298,-112 287.606,-100.313 273.849,-89.49 262.342,-81.3883"/>
<polygon fill="midnightblue" stroke="midnightblue" points="264.308,-78.4929 254.074,-75.754 260.367,-84.2776 264.308,-78.4929"/>
</g>
<!-- Node9 -->
<g id="node9" class="node"><title>Node9</title>
<polygon fill="none" stroke="#bfbfbf" points="527,-112.5 527,-131.5 575,-131.5 575,-112.5 527,-112.5"/>
<text text-anchor="middle" x="551" y="-119.5" font-family="Helvetica,sans-Serif" font-size="10.00">stdlib.h</text>
</g>
<!-- Node8&#45;&gt;Node9 -->
<g id="edge11" class="edge"><title>Node8&#45;&gt;Node9</title>
<path fill="none" stroke="midnightblue" d="M579.386,-168.083C574.633,-160.534 567.682,-149.495 561.848,-140.23"/>
<polygon fill="midnightblue" stroke="midnightblue" points="564.8,-138.349 556.51,-131.751 558.876,-142.078 564.8,-138.349"/>
</g>
<!-- Node10 -->
<g id="node10" class="node"><title>Node10</title>
<polygon fill="none" stroke="#bfbfbf" points="593.5,-112.5 593.5,-131.5 642.5,-131.5 642.5,-112.5 593.5,-112.5"/>
<text text-anchor="middle" x="618" y="-119.5" font-family="Helvetica,sans-Serif" font-size="10.00">string.h</text>
</g>
<!-- Node8&#45;&gt;Node10 -->
<g id="edge12" class="edge"><title>Node8&#45;&gt;Node10</title>
<path fill="none" stroke="midnightblue" d="M590.449,-168.083C595.014,-160.613 601.668,-149.724 607.293,-140.52"/>
<polygon fill="midnightblue" stroke="midnightblue" points="610.424,-142.109 612.652,-131.751 604.451,-138.459 610.424,-142.109"/>
</g>
<!-- Node12&#45;&gt;Node3 -->
<g id="edge15" class="edge"><title>Node12&#45;&gt;Node3</title>
<path fill="none" stroke="midnightblue" d="M461.53,-224.496C438.349,-203.888 376.515,-150.166 320,-112 302.721,-100.331 282.206,-88.8348 266.277,-80.3831"/>
<polygon fill="midnightblue" stroke="midnightblue" points="267.505,-77.0752 257.022,-75.5398 264.259,-83.2774 267.505,-77.0752"/>
</g>
<!-- Node12&#45;&gt;Node8 -->
<g id="edge16" class="edge"><title>Node12&#45;&gt;Node8</title>
<path fill="none" stroke="midnightblue" d="M489.064,-224.444C507.575,-215.675 536.581,-201.935 557.855,-191.858"/>
<polygon fill="midnightblue" stroke="midnightblue" points="559.482,-194.96 567.021,-187.516 556.485,-188.634 559.482,-194.96"/>
</g>
<!-- Node12&#45;&gt;Node11 -->
<g id="edge19" class="edge"><title>Node12&#45;&gt;Node11</title>
<path fill="none" stroke="midnightblue" d="M500.765,-225.349C531.8,-217.259 582.055,-203.844 634.509,-188.024"/>
<polygon fill="midnightblue" stroke="midnightblue" points="635.774,-191.298 644.325,-185.043 633.739,-184.6 635.774,-191.298"/>
</g>
<!-- Node13 -->
<g id="node13" class="node"><title>Node13</title>
<g id="a_node13"><a xlink:href="a00041.html" target="_top" xlink:title="hpd_queue.h">
<polygon fill="none" stroke="black" points="379,-56.5 379,-75.5 451,-75.5 451,-56.5 379,-56.5"/>
<text text-anchor="middle" x="415" y="-63.5" font-family="Helvetica,sans-Serif" font-size="10.00">hpd_queue.h</text>
</a>
</g>
</g>
<!-- Node12&#45;&gt;Node13 -->
<g id="edge17" class="edge"><title>Node12&#45;&gt;Node13</title>
<path fill="none" stroke="midnightblue" d="M467.989,-224.075C459.136,-197.832 433.063,-120.545 421.112,-85.1165"/>
<polygon fill="midnightblue" stroke="midnightblue" points="424.403,-83.9247 417.89,-75.5681 417.771,-86.1623 424.403,-83.9247"/>
</g>
<!-- Node15 -->
<g id="node15" class="node"><title>Node15</title>
<polygon fill="none" stroke="#bfbfbf" points="481,-168.5 481,-187.5 525,-187.5 525,-168.5 481,-168.5"/>
<text text-anchor="middle" x="503" y="-175.5" font-family="Helvetica,sans-Serif" font-size="10.00">argp.h</text>
</g>
<!-- Node12&#45;&gt;Node15 -->
<g id="edge20" class="edge"><title>Node12&#45;&gt;Node15</title>
<path fill="none" stroke="midnightblue" d="M476.284,-224.083C480.711,-216.613 487.163,-205.724 492.618,-196.52"/>
<polygon fill="midnightblue" stroke="midnightblue" points="495.727,-198.138 497.814,-187.751 489.705,-194.57 495.727,-198.138"/>
</g>
<!-- Node14 -->
<g id="node14" class="node"><title>Node14</title>
<polygon fill="none" stroke="#bfbfbf" points="370.5,-0.5 370.5,-19.5 459.5,-19.5 459.5,-0.5 370.5,-0.5"/>
<text text-anchor="middle" x="415" y="-7.5" font-family="Helvetica,sans-Serif" font-size="10.00">bsd/sys/queue.h</text>
</g>
<!-- Node13&#45;&gt;Node14 -->
<g id="edge18" class="edge"><title>Node13&#45;&gt;Node14</title>
<path fill="none" stroke="midnightblue" d="M415,-56.083C415,-49.0059 415,-38.8611 415,-29.9865"/>
<polygon fill="midnightblue" stroke="midnightblue" points="418.5,-29.751 415,-19.7511 411.5,-29.7511 418.5,-29.751"/>
</g>
<!-- Node16&#45;&gt;Node3 -->
<g id="edge22" class="edge"><title>Node16&#45;&gt;Node3</title>
<path fill="none" stroke="midnightblue" d="M104.006,-114.379C129.318,-105.56 174.531,-89.8084 205.839,-78.9014"/>
<polygon fill="midnightblue" stroke="midnightblue" points="207.18,-82.1404 215.472,-75.5453 204.877,-75.5301 207.18,-82.1404"/>
</g>
<!-- Node16&#45;&gt;Node5 -->
<g id="edge23" class="edge"><title>Node16&#45;&gt;Node5</title>
<path fill="none" stroke="midnightblue" d="M91.6052,-112.083C97.2552,-104.455 105.545,-93.2645 112.451,-83.9408"/>
<polygon fill="midnightblue" stroke="midnightblue" points="115.378,-85.87 118.518,-75.7511 109.753,-81.7034 115.378,-85.87"/>
</g>
<!-- Node18 -->
<g id="node18" class="node"><title>Node18</title>
<g id="a_node18"><a xlink:href="a00042.html" target="_top" xlink:title="hpd_map.h">
<polygon fill="none" stroke="black" points="207.5,-112.5 207.5,-131.5 272.5,-131.5 272.5,-112.5 207.5,-112.5"/>
<text text-anchor="middle" x="240" y="-119.5" font-family="Helvetica,sans-Serif" font-size="10.00">hpd_map.h</text>
</a>
</g>
</g>
<!-- Node17&#45;&gt;Node18 -->
<g id="edge25" class="edge"><title>Node17&#45;&gt;Node18</title>
<path fill="none" stroke="midnightblue" d="M214.119,-168.083C218.408,-160.613 224.658,-149.724 229.942,-140.52"/>
<polygon fill="midnightblue" stroke="midnightblue" points="233.033,-142.166 234.976,-131.751 226.962,-138.681 233.033,-142.166"/>
</g>
<!-- Node18&#45;&gt;Node3 -->
<g id="edge26" class="edge"><title>Node18&#45;&gt;Node3</title>
<path fill="none" stroke="midnightblue" d="M240,-112.083C240,-105.006 240,-94.8611 240,-85.9865"/>
<polygon fill="midnightblue" stroke="midnightblue" points="243.5,-85.751 240,-75.7511 236.5,-85.7511 243.5,-85.751"/>
</g>
<!-- Node18&#45;&gt;Node4 -->
<g id="edge28" class="edge"><title>Node18&#45;&gt;Node4</title>
<path fill="none" stroke="midnightblue" d="M208.309,-112.444C172.367,-102.739 113.871,-86.9452 76.1708,-76.7661"/>
<polygon fill="midnightblue" stroke="midnightblue" points="76.6915,-73.2814 66.1249,-74.0537 74.8668,-80.0394 76.6915,-73.2814"/>
</g>
<!-- Node18&#45;&gt;Node5 -->
<g id="edge29" class="edge"><title>Node18&#45;&gt;Node5</title>
<path fill="none" stroke="midnightblue" d="M221.778,-112.444C203.104,-103.675 173.844,-89.9355 152.383,-79.8579"/>
<polygon fill="midnightblue" stroke="midnightblue" points="153.676,-76.5988 143.137,-75.5164 150.701,-82.935 153.676,-76.5988"/>
</g>
<!-- Node18&#45;&gt;Node13 -->
<g id="edge27" class="edge"><title>Node18&#45;&gt;Node13</title>
<path fill="none" stroke="midnightblue" d="M267.729,-112.444C297.426,-103.28 344.716,-88.6876 377.669,-78.5192"/>
<polygon fill="midnightblue" stroke="midnightblue" points="378.877,-81.8094 387.4,-75.5164 376.813,-75.1206 378.877,-81.8094"/>
</g>
<!-- Node19&#45;&gt;Node3 -->
<g id="edge31" class="edge"><title>Node19&#45;&gt;Node3</title>
<path fill="none" stroke="midnightblue" d="M280.39,-224.403C285.599,-204.036 296.328,-151.583 281,-112 276.546,-100.498 267.632,-90.1311 259.251,-82.2546"/>
<polygon fill="midnightblue" stroke="midnightblue" points="261.372,-79.4599 251.541,-75.5103 256.763,-84.7286 261.372,-79.4599"/>
</g>
<!-- Node19&#45;&gt;Node13 -->
<g id="edge32" class="edge"><title>Node19&#45;&gt;Node13</title>
<path fill="none" stroke="midnightblue" d="M285.366,-224.075C307.397,-197.38 373.021,-117.865 401.53,-83.3218"/>
<polygon fill="midnightblue" stroke="midnightblue" points="404.263,-85.5086 407.929,-75.5681 398.864,-81.0529 404.263,-85.5086"/>
</g>
<!-- Node19&#45;&gt;Node17 -->
<g id="edge34" class="edge"><title>Node19&#45;&gt;Node17</title>
<path fill="none" stroke="midnightblue" d="M266.914,-224.324C256.514,-216.185 240.739,-203.839 228.278,-194.087"/>
<polygon fill="midnightblue" stroke="midnightblue" points="230.32,-191.241 220.288,-187.834 226.006,-196.753 230.32,-191.241"/>
</g>
<!-- Node19&#45;&gt;Node18 -->
<g id="edge33" class="edge"><title>Node19&#45;&gt;Node18</title>
<path fill="none" stroke="midnightblue" d="M275.018,-224.368C268.858,-206.537 254.611,-165.295 246.312,-141.272"/>
<polygon fill="midnightblue" stroke="midnightblue" points="249.541,-139.9 242.968,-131.591 242.925,-142.186 249.541,-139.9"/>
</g>
</g>
</svg>
        <g id="navigator" transform="translate(0 0)" fill="#404254">
                <rect fill="#f2f5e9" fill-opacity="0.5" stroke="#606060" stroke-width=".5" x="0" y="0" width="60" height="60"/>
                <use id="zoomplus" xlink:href="#zoomPlus" x="17" y="9" onmousedown="handleZoom(evt,'in')"/>
                <use id="zoomminus" xlink:href="#zoomMin" x="42" y="9" onmousedown="handleZoom(evt,'out')"/>
                <use id="reset" xlink:href="#resetDef" x="30" y="36" onmousedown="handleReset()"/>
                <g id="arrowUp" xlink:href="#dirArrow" transform="translate(30 24)" onmousedown="handlePan(0,-1)">
                  <use xlink:href="#rim" fill="#404040">
                        <set attributeName="fill" to="#808080" begin="arrowUp.mouseover" end="arrowUp.mouseout"/>
                  </use>
                  <path fill="none" stroke="white" stroke-width="1.5" d="M0,-3.0v7 M-2.5,-0.5L0,-3.0L2.5,-0.5"/>
                </g>
                <g id="arrowRight" xlink:href="#dirArrow" transform="rotate(90) translate(36 -43)" onmousedown="handlePan(1,0)">
                  <use xlink:href="#rim" fill="#404040">
                        <set attributeName="fill" to="#808080" begin="arrowRight.mouseover" end="arrowRight.mouseout"/>
                  </use>
                  <path fill="none" stroke="white" stroke-width="1.5" d="M0,-3.0v7 M-2.5,-0.5L0,-3.0L2.5,-0.5"/>
                </g>
                <g id="arrowDown" xlink:href="#dirArrow" transform="rotate(180) translate(-30 -48)" onmousedown="handlePan(0,1)">
                  <use xlink:href="#rim" fill="#404040">
                        <set attributeName="fill" to="#808080" begin="arrowDown.mouseover" end="arrowDown.mouseout"/>
                  </use>
                  <path fill="none" stroke="white" stroke-width="1.5" d="M0,-3.0v7 M-2.5,-0.5L0,-3.0L2.5,-0.5"/>
                </g>
                <g id="arrowLeft" xlink:href="#dirArrow" transform="rotate(270) translate(-36 17)" onmousedown="handlePan(-1,0)">
                  <use xlink:href="#rim" fill="#404040">
                        <set attributeName="fill" to="#808080" begin="arrowLeft.mouseover" end="arrowLeft.mouseout"/>
                  </use>
                  <path fill="none" stroke="white" stroke-width="1.5" d="M0,-3.0v7 M-2.5,-0.5L0,-3.0L2.5,-0.5"/>
                </g>
        </g>
        <svg viewBox="0 0 15 15" width="100%" height="30px" preserveAspectRatio="xMaxYMin meet">
         <g id="arrow_out" transform="scale(0.3 0.3)">
          <a xlink:href="a00222_org.svg" target="_base">
           <rect id="button" ry="5" rx="5" y="6" x="6" height="38" width="38"
                fill="#f2f5e9" fill-opacity="0.5" stroke="#606060" stroke-width="1.0"/>
           <path id="arrow"
             d="M 11.500037,31.436501 C 11.940474,20.09759 22.043105,11.32322 32.158766,21.979434 L 37.068811,17.246167 C 37.068811,17.246167 37.088388,32 37.088388,32 L 22.160133,31.978069 C 22.160133,31.978069 26.997745,27.140456 26.997745,27.140456 C 18.528582,18.264221 13.291696,25.230495 11.500037,31.436501 z"
             style="fill:#404040;"/>
          </a>
         </g>
        </svg>
</svg>
