<?xml version="1.0" encoding="UTF-8" standalone="no"?>
<!DOCTYPE svg PUBLIC "-//W3C//DTD SVG 1.1//EN"
 "http://www.w3.org/Graphics/SVG/1.1/DTD/svg11.dtd">
<!-- Generated by graphviz version 2.38.0 (20140413.2041)
 -->
<!-- Title: hpd/include/hpd_shared_api.h Pages: 1 -->
<!--zoomable 240 -->
<svg id="main" version="1.1" xmlns="http://www.w3.org/2000/svg" xmlns:xlink="http://www.w3.org/1999/xlink" xml:space="preserve" onload="init(evt)">
<style type="text/css"><![CDATA[
.edge:hover path { stroke: red; }
.edge:hover polygon { stroke: red; fill: red; }
]]></style>
<script type="text/javascript"><![CDATA[
var edges = document.getElementsByTagName('g');
if (edges && edges.length) {
  for (var i=0;i<edges.length;i++) {
    if (edges[i].id.substr(0,4)=='edge') {
      edges[i].setAttribute('class','edge');
    }
  }
}
]]></script>
        <defs>
                <circle id="rim" cx="0" cy="0" r="7"/>
                <circle id="rim2" cx="0" cy="0" r="3.5"/>
                <g id="zoomPlus">
                        <use xlink:href="#rim" fill="#404040">
                                <set attributeName="fill" to="#808080" begin="zoomplus.mouseover" end="zoomplus.mouseout"/>
                        </use>
                        <path d="M-4,0h8M0,-4v8" fill="none" stroke="white" stroke-width="1.5" pointer-events="none"/>
                </g>
                <g id="zoomMin">
                        <use xlink:href="#rim" fill="#404040">
                                <set attributeName="fill" to="#808080" begin="zoomminus.mouseover" end="zoomminus.mouseout"/>
                        </use>
                        <path d="M-4,0h8" fill="none" stroke="white" stroke-width="1.5" pointer-events="none"/>
                </g>
                <g id="dirArrow">
                        <path fill="none" stroke="white" stroke-width="1.5" d="M0,-3.0v7 M-2.5,-0.5L0,-3.0L2.5,-0.5"/>
                </g>
               <g id="resetDef">
                       <use xlink:href="#rim2" fill="#404040">
                               <set attributeName="fill" to="#808080" begin="reset.mouseover" end="reset.mouseout"/>
                       </use>
               </g>
        </defs>

<script type="text/javascript">
var viewWidth = 1777;
var viewHeight = 240;
var sectionId = 'dynsection-1';
</script>
<script xlink:href="svgpan.js"/>
<svg id="graph" class="graph">
<g id="viewport">
<title>hpd/include/hpd_shared_api.h</title>
<!-- Node1 -->
<g id="node1" class="node"><title>Node1</title>
<polygon fill="#bfbfbf" stroke="black" points="677,-201.5 677,-231.5 796,-231.5 796,-201.5 677,-201.5"/>
<text text-anchor="start" x="685" y="-219.5" font-family="Helvetica,sans-Serif" font-size="10.00">hpd/include/hpd_shared</text>
<text text-anchor="middle" x="736.5" y="-208.5" font-family="Helvetica,sans-Serif" font-size="10.00">_api.h</text>
</g>
<!-- Node2 -->
<g id="node2" class="node"><title>Node2</title>
<g id="a_node2"><a xlink:href="a00036.html" target="_top" xlink:title="common/curl_ev/src\l/curl_ev.c">
<polygon fill="none" stroke="black" points="0,-134.5 0,-164.5 105,-164.5 105,-134.5 0,-134.5"/>
<text text-anchor="start" x="8" y="-152.5" font-family="Helvetica,sans-Serif" font-size="10.00">common/curl_ev/src</text>
<text text-anchor="middle" x="52.5" y="-141.5" font-family="Helvetica,sans-Serif" font-size="10.00">/curl_ev.c</text>
</a>
</g>
</g>
<!-- Node1&#45;&gt;Node2 -->
<g id="edge1" class="edge"><title>Node1&#45;&gt;Node2</title>
<path fill="none" stroke="midnightblue" d="M666.866,-213.224C551.443,-208.698 313.469,-196.166 114.5,-165 111.442,-164.521 108.311,-163.973 105.16,-163.378"/>
<polygon fill="midnightblue" stroke="midnightblue" points="666.851,-216.726 676.978,-213.613 667.12,-209.731 666.851,-216.726"/>
</g>
<!-- Node3 -->
<g id="node3" class="node"><title>Node3</title>
<g id="a_node3"><a xlink:href="a00004.html" target="_top" xlink:title="common/curl_ev/src\l/hpd_curl_ev.c">
<polygon fill="none" stroke="black" points="123,-134.5 123,-164.5 228,-164.5 228,-134.5 123,-134.5"/>
<text text-anchor="start" x="131" y="-152.5" font-family="Helvetica,sans-Serif" font-size="10.00">common/curl_ev/src</text>
<text text-anchor="middle" x="175.5" y="-141.5" font-family="Helvetica,sans-Serif" font-size="10.00">/hpd_curl_ev.c</text>
</a>
</g>
</g>
<!-- Node1&#45;&gt;Node3 -->
<g id="edge2" class="edge"><title>Node1&#45;&gt;Node3</title>
<path fill="none" stroke="midnightblue" d="M666.384,-211.265C569.477,-204.762 389.356,-190.333 237.5,-165 234.447,-164.491 231.32,-163.919 228.172,-163.306"/>
<polygon fill="midnightblue" stroke="midnightblue" points="666.431,-214.776 676.64,-211.944 666.894,-207.791 666.431,-214.776"/>
</g>
<!-- Node4 -->
<g id="node4" class="node"><title>Node4</title>
<g id="a_node4"><a xlink:href="a00007.html" target="_top" xlink:title="common/httpd/src/header\l_parser.c">
<polygon fill="none" stroke="black" points="246.5,-134.5 246.5,-164.5 374.5,-164.5 374.5,-134.5 246.5,-134.5"/>
<text text-anchor="start" x="254.5" y="-152.5" font-family="Helvetica,sans-Serif" font-size="10.00">common/httpd/src/header</text>
<text text-anchor="middle" x="310.5" y="-141.5" font-family="Helvetica,sans-Serif" font-size="10.00">_parser.c</text>
</a>
</g>
</g>
<!-- Node1&#45;&gt;Node4 -->
<g id="edge3" class="edge"><title>Node1&#45;&gt;Node4</title>
<path fill="none" stroke="midnightblue" d="M666.487,-206.617C595.137,-197.299 481.363,-181.707 383.5,-165 380.571,-164.5 377.578,-163.973 374.558,-163.427"/>
<polygon fill="midnightblue" stroke="midnightblue" points="666.331,-210.126 676.699,-207.946 667.234,-203.185 666.331,-210.126"/>
</g>
<!-- Node6 -->
<g id="node6" class="node"><title>Node6</title>
<g id="a_node6"><a xlink:href="a00015.html" target="_top" xlink:title="common/httpd/src/httpd.c">
<polygon fill="none" stroke="black" points="392.5,-140 392.5,-159 520.5,-159 520.5,-140 392.5,-140"/>
<text text-anchor="middle" x="456.5" y="-147" font-family="Helvetica,sans-Serif" font-size="10.00">common/httpd/src/httpd.c</text>
</a>
</g>
</g>
<!-- Node1&#45;&gt;Node6 -->
<g id="edge5" class="edge"><title>Node1&#45;&gt;Node6</title>
<path fill="none" stroke="midnightblue" d="M666.758,-199.31C611.824,-186.557 537.408,-169.282 493.426,-159.072"/>
<polygon fill="midnightblue" stroke="midnightblue" points="666.244,-202.784 676.776,-201.636 667.827,-195.965 666.244,-202.784"/>
</g>
<!-- Node7 -->
<g id="node7" class="node"><title>Node7</title>
<g id="a_node7"><a xlink:href="a00016.html" target="_top" xlink:title="common/httpd/src/httpd\l_request.c">
<polygon fill="none" stroke="black" points="538.5,-134.5 538.5,-164.5 658.5,-164.5 658.5,-134.5 538.5,-134.5"/>
<text text-anchor="start" x="546.5" y="-152.5" font-family="Helvetica,sans-Serif" font-size="10.00">common/httpd/src/httpd</text>
<text text-anchor="middle" x="598.5" y="-141.5" font-family="Helvetica,sans-Serif" font-size="10.00">_request.c</text>
</a>
</g>
</g>
<!-- Node1&#45;&gt;Node7 -->
<g id="edge6" class="edge"><title>Node1&#45;&gt;Node7</title>
<path fill="none" stroke="midnightblue" d="M697.5,-197.131C675.573,-186.802 648.626,-174.11 628.386,-164.577"/>
<polygon fill="midnightblue" stroke="midnightblue" points="696.018,-200.301 706.556,-201.396 699.001,-193.968 696.018,-200.301"/>
</g>
<!-- Node8 -->
<g id="node8" class="node"><title>Node8</title>
<g id="a_node8"><a xlink:href="a00017.html" target="_top" xlink:title="common/httpd/src/httpd\l_response.c">
<polygon fill="none" stroke="black" points="676.5,-134.5 676.5,-164.5 796.5,-164.5 796.5,-134.5 676.5,-134.5"/>
<text text-anchor="start" x="684.5" y="-152.5" font-family="Helvetica,sans-Serif" font-size="10.00">common/httpd/src/httpd</text>
<text text-anchor="middle" x="736.5" y="-141.5" font-family="Helvetica,sans-Serif" font-size="10.00">_response.c</text>
</a>
</g>
</g>
<!-- Node1&#45;&gt;Node8 -->
<g id="edge7" class="edge"><title>Node1&#45;&gt;Node8</title>
<path fill="none" stroke="midnightblue" d="M736.5,-191.108C736.5,-182.154 736.5,-172.323 736.5,-164.577"/>
<polygon fill="midnightblue" stroke="midnightblue" points="733,-191.396 736.5,-201.396 740,-191.396 733,-191.396"/>
</g>
<!-- Node9 -->
<g id="node9" class="node"><title>Node9</title>
<g id="a_node9"><a xlink:href="a00032.html" target="_top" xlink:title="common/httpd/src/url\l_parser.c">
<polygon fill="none" stroke="black" points="815,-134.5 815,-164.5 924,-164.5 924,-134.5 815,-134.5"/>
<text text-anchor="start" x="823" y="-152.5" font-family="Helvetica,sans-Serif" font-size="10.00">common/httpd/src/url</text>
<text text-anchor="middle" x="869.5" y="-141.5" font-family="Helvetica,sans-Serif" font-size="10.00">_parser.c</text>
</a>
</g>
</g>
<!-- Node1&#45;&gt;Node9 -->
<g id="edge8" class="edge"><title>Node1&#45;&gt;Node9</title>
<path fill="none" stroke="midnightblue" d="M774.37,-196.992C795.451,-186.689 821.277,-174.068 840.697,-164.577"/>
<polygon fill="midnightblue" stroke="midnightblue" points="772.807,-193.86 765.359,-201.396 775.88,-200.15 772.807,-193.86"/>
</g>
<!-- Node11 -->
<g id="node11" class="node"><title>Node11</title>
<g id="a_node11"><a xlink:href="a00049.html" target="_top" xlink:title="common/tcpd/src/tcpd.c">
<polygon fill="none" stroke="black" points="942.5,-140 942.5,-159 1064.5,-159 1064.5,-140 942.5,-140"/>
<text text-anchor="middle" x="1003.5" y="-147" font-family="Helvetica,sans-Serif" font-size="10.00">common/tcpd/src/tcpd.c</text>
</a>
</g>
</g>
<!-- Node1&#45;&gt;Node11 -->
<g id="edge10" class="edge"><title>Node1&#45;&gt;Node11</title>
<path fill="none" stroke="midnightblue" d="M803.992,-199.069C856.351,-186.323 926.812,-169.169 968.467,-159.029"/>
<polygon fill="midnightblue" stroke="midnightblue" points="802.995,-195.71 794.106,-201.476 804.65,-202.511 802.995,-195.71"/>
</g>
<!-- Node12 -->
<g id="node12" class="node"><title>Node12</title>
<g id="a_node12"><a xlink:href="a00056.html" target="_top" xlink:title="hpd/include/hpd_adapter\l_api.h">
<polygon fill="none" stroke="black" points="1082.5,-134.5 1082.5,-164.5 1204.5,-164.5 1204.5,-134.5 1082.5,-134.5"/>
<text text-anchor="start" x="1090.5" y="-152.5" font-family="Helvetica,sans-Serif" font-size="10.00">hpd/include/hpd_adapter</text>
<text text-anchor="middle" x="1143.5" y="-141.5" font-family="Helvetica,sans-Serif" font-size="10.00">_api.h</text>
</a>
</g>
</g>
<!-- Node1&#45;&gt;Node12 -->
<g id="edge11" class="edge"><title>Node1&#45;&gt;Node12</title>
<path fill="none" stroke="midnightblue" d="M806.219,-206.203C874.497,-196.828 981.402,-181.426 1073.5,-165 1076.43,-164.477 1079.43,-163.925 1082.46,-163.353"/>
<polygon fill="midnightblue" stroke="midnightblue" points="805.45,-202.776 796.017,-207.599 806.399,-209.711 805.45,-202.776"/>
</g>
<!-- Node20 -->
<g id="node20" class="node"><title>Node20</title>
<g id="a_node20"><a xlink:href="a00058.html" target="_top" xlink:title="hpd/include/hpd_application\l_api.h">
<polygon fill="none" stroke="black" points="1232,-134.5 1232,-164.5 1369,-164.5 1369,-134.5 1232,-134.5"/>
<text text-anchor="start" x="1240" y="-152.5" font-family="Helvetica,sans-Serif" font-size="10.00">hpd/include/hpd_application</text>
<text text-anchor="middle" x="1300.5" y="-141.5" font-family="Helvetica,sans-Serif" font-size="10.00">_api.h</text>
</a>
</g>
</g>
<!-- Node1&#45;&gt;Node20 -->
<g id="edge19" class="edge"><title>Node1&#45;&gt;Node20</title>
<path fill="none" stroke="midnightblue" d="M806.266,-209.428C899.333,-201.028 1069.15,-184.653 1213.5,-165 1219.42,-164.194 1225.55,-163.298 1231.7,-162.356"/>
<polygon fill="midnightblue" stroke="midnightblue" points="805.775,-205.958 796.129,-210.339 806.402,-212.93 805.775,-205.958"/>
</g>
<!-- Node25 -->
<g id="node25" class="node"><title>Node25</title>
<g id="a_node25"><a xlink:href="a00064.html" target="_top" xlink:title="hpd/src/discovery_api.c">
<polygon fill="none" stroke="black" points="1387.5,-140 1387.5,-159 1507.5,-159 1507.5,-140 1387.5,-140"/>
<text text-anchor="middle" x="1447.5" y="-147" font-family="Helvetica,sans-Serif" font-size="10.00">hpd/src/discovery_api.c</text>
</a>
</g>
</g>
<!-- Node1&#45;&gt;Node25 -->
<g id="edge25" class="edge"><title>Node1&#45;&gt;Node25</title>
<path fill="none" stroke="midnightblue" d="M806.084,-212.961C924.256,-207.994 1171.5,-194.765 1378.5,-165 1389.16,-163.467 1400.65,-161.274 1411.13,-159.057"/>
<polygon fill="midnightblue" stroke="midnightblue" points="805.931,-209.464 796.084,-213.374 806.22,-216.458 805.931,-209.464"/>
</g>
<!-- Node5 -->
<g id="node5" class="node"><title>Node5</title>
<g id="a_node5"><a xlink:href="a00042.html" target="_top" xlink:title="common/httpd/test/header\l_parser_test.c">
<polygon fill="none" stroke="black" points="245,-67.5 245,-97.5 376,-97.5 376,-67.5 245,-67.5"/>
<text text-anchor="start" x="253" y="-85.5" font-family="Helvetica,sans-Serif" font-size="10.00">common/httpd/test/header</text>
<text text-anchor="middle" x="310.5" y="-74.5" font-family="Helvetica,sans-Serif" font-size="10.00">_parser_test.c</text>
</a>
</g>
</g>
<!-- Node4&#45;&gt;Node5 -->
<g id="edge4" class="edge"><title>Node4&#45;&gt;Node5</title>
<path fill="none" stroke="midnightblue" d="M310.5,-124.108C310.5,-115.154 310.5,-105.323 310.5,-97.5765"/>
<polygon fill="midnightblue" stroke="midnightblue" points="307,-124.396 310.5,-134.396 314,-124.396 307,-124.396"/>
</g>
<!-- Node10 -->
<g id="node10" class="node"><title>Node10</title>
<g id="a_node10"><a xlink:href="a00006.html" target="_top" xlink:title="common/httpd/test/url\l_parser_test.c">
<polygon fill="none" stroke="black" points="786.5,-67.5 786.5,-97.5 898.5,-97.5 898.5,-67.5 786.5,-67.5"/>
<text text-anchor="start" x="794.5" y="-85.5" font-family="Helvetica,sans-Serif" font-size="10.00">common/httpd/test/url</text>
<text text-anchor="middle" x="842.5" y="-74.5" font-family="Helvetica,sans-Serif" font-size="10.00">_parser_test.c</text>
</a>
</g>
</g>
<!-- Node9&#45;&gt;Node10 -->
<g id="edge9" class="edge"><title>Node9&#45;&gt;Node10</title>
<path fill="none" stroke="midnightblue" d="M859.735,-124.991C855.919,-115.804 851.671,-105.578 848.347,-97.5765"/>
<polygon fill="midnightblue" stroke="midnightblue" points="856.573,-126.504 863.641,-134.396 863.038,-123.818 856.573,-126.504"/>
</g>
<!-- Node13 -->
<g id="node13" class="node"><title>Node13</title>
<g id="a_node13"><a xlink:href="a00012.html" target="_top" xlink:title="example/demo/demo_adapter.c">
<polygon fill="none" stroke="black" points="917,-73 917,-92 1070,-92 1070,-73 917,-73"/>
<text text-anchor="middle" x="993.5" y="-80" font-family="Helvetica,sans-Serif" font-size="10.00">example/demo/demo_adapter.c</text>
</a>
</g>
</g>
<!-- Node12&#45;&gt;Node13 -->
<g id="edge12" class="edge"><title>Node12&#45;&gt;Node13</title>
<path fill="none" stroke="midnightblue" d="M1101.49,-130.295C1072.56,-117.76 1035.46,-101.682 1013.13,-92.007"/>
<polygon fill="midnightblue" stroke="midnightblue" points="1100.39,-133.631 1110.95,-134.396 1103.17,-127.208 1100.39,-133.631"/>
</g>
<!-- Node14 -->
<g id="node14" class="node"><title>Node14</title>
<g id="a_node14"><a xlink:href="a00057.html" target="_top" xlink:title="hpd/include/hpd_api.h">
<polygon fill="none" stroke="black" points="1088,-73 1088,-92 1199,-92 1199,-73 1088,-73"/>
<text text-anchor="middle" x="1143.5" y="-80" font-family="Helvetica,sans-Serif" font-size="10.00">hpd/include/hpd_api.h</text>
</a>
</g>
</g>
<!-- Node12&#45;&gt;Node14 -->
<g id="edge13" class="edge"><title>Node12&#45;&gt;Node14</title>
<path fill="none" stroke="midnightblue" d="M1143.5,-124.25C1143.5,-113.017 1143.5,-100.377 1143.5,-92.1945"/>
<polygon fill="midnightblue" stroke="midnightblue" points="1140,-124.396 1143.5,-134.396 1147,-124.396 1140,-124.396"/>
</g>
<!-- Node15 -->
<g id="node15" class="node"><title>Node15</title>
<g id="a_node15"><a xlink:href="a00062.html" target="_top" xlink:title="hpd/src/daemon_api.c">
<polygon fill="none" stroke="black" points="837,-6 837,-25 950,-25 950,-6 837,-6"/>
<text text-anchor="middle" x="893.5" y="-13" font-family="Helvetica,sans-Serif" font-size="10.00">hpd/src/daemon_api.c</text>
</a>
</g>
</g>
<!-- Node14&#45;&gt;Node15 -->
<g id="edge14" class="edge"><title>Node14&#45;&gt;Node15</title>
<path fill="none" stroke="midnightblue" d="M1100.82,-70.4039C1051.48,-57.5757 971.331,-36.7361 926.513,-25.0834"/>
<polygon fill="midnightblue" stroke="midnightblue" points="1100,-73.8065 1110.56,-72.9355 1101.76,-67.0318 1100,-73.8065"/>
</g>
<!-- Node16 -->
<g id="node16" class="node"><title>Node16</title>
<g id="a_node16"><a xlink:href="a00068.html" target="_top" xlink:title="hpd/src/event_api.c">
<polygon fill="none" stroke="black" points="968.5,-6 968.5,-25 1070.5,-25 1070.5,-6 968.5,-6"/>
<text text-anchor="middle" x="1019.5" y="-13" font-family="Helvetica,sans-Serif" font-size="10.00">hpd/src/event_api.c</text>
</a>
</g>
</g>
<!-- Node14&#45;&gt;Node16 -->
<g id="edge15" class="edge"><title>Node14&#45;&gt;Node16</title>
<path fill="none" stroke="midnightblue" d="M1117.94,-68.1034C1093.39,-55.2309 1057.01,-36.16 1036.03,-25.1672"/>
<polygon fill="midnightblue" stroke="midnightblue" points="1116.55,-71.3256 1127.03,-72.8685 1119.8,-65.1258 1116.55,-71.3256"/>
</g>
<!-- Node17 -->
<g id="node17" class="node"><title>Node17</title>
<g id="a_node17"><a xlink:href="a00074.html" target="_top" xlink:title="hpd/src/request_api.c">
<polygon fill="none" stroke="black" points="1088.5,-6 1088.5,-25 1198.5,-25 1198.5,-6 1088.5,-6"/>
<text text-anchor="middle" x="1143.5" y="-13" font-family="Helvetica,sans-Serif" font-size="10.00">hpd/src/request_api.c</text>
</a>
</g>
</g>
<!-- Node14&#45;&gt;Node17 -->
<g id="edge16" class="edge"><title>Node14&#45;&gt;Node17</title>
<path fill="none" stroke="midnightblue" d="M1143.5,-62.537C1143.5,-50.1703 1143.5,-34.6198 1143.5,-25.1273"/>
<polygon fill="midnightblue" stroke="midnightblue" points="1140,-62.7338 1143.5,-72.7338 1147,-62.7338 1140,-62.7338"/>
</g>
<!-- Node18 -->
<g id="node18" class="node"><title>Node18</title>
<g id="a_node18"><a xlink:href="a00077.html" target="_top" xlink:title="hpd/src/value_api.c">
<polygon fill="none" stroke="black" points="1217,-6 1217,-25 1318,-25 1318,-6 1217,-6"/>
<text text-anchor="middle" x="1267.5" y="-13" font-family="Helvetica,sans-Serif" font-size="10.00">hpd/src/value_api.c</text>
</a>
</g>
</g>
<!-- Node14&#45;&gt;Node18 -->
<g id="edge17" class="edge"><title>Node14&#45;&gt;Node18</title>
<path fill="none" stroke="midnightblue" d="M1169.06,-68.1034C1193.61,-55.2309 1229.99,-36.16 1250.97,-25.1672"/>
<polygon fill="midnightblue" stroke="midnightblue" points="1167.2,-65.1258 1159.97,-72.8685 1170.45,-71.3256 1167.2,-65.1258"/>
</g>
<!-- Node19 -->
<g id="node19" class="node"><title>Node19</title>
<g id="a_node19"><a xlink:href="a00030.html" target="_top" xlink:title="hpd/test/daemon_api\l_test.cpp">
<polygon fill="none" stroke="black" points="1336,-0.5 1336,-30.5 1443,-30.5 1443,-0.5 1336,-0.5"/>
<text text-anchor="start" x="1344" y="-18.5" font-family="Helvetica,sans-Serif" font-size="10.00">hpd/test/daemon_api</text>
<text text-anchor="middle" x="1389.5" y="-7.5" font-family="Helvetica,sans-Serif" font-size="10.00">_test.cpp</text>
</a>
</g>
</g>
<!-- Node14&#45;&gt;Node19 -->
<g id="edge18" class="edge"><title>Node14&#45;&gt;Node19</title>
<path fill="none" stroke="midnightblue" d="M1185.74,-70.3384C1227.4,-59.3319 1291.2,-42.4743 1336.29,-30.5592"/>
<polygon fill="midnightblue" stroke="midnightblue" points="1184.69,-66.997 1175.91,-72.9355 1186.48,-73.7647 1184.69,-66.997"/>
</g>
<!-- Node20&#45;&gt;Node14 -->
<g id="edge21" class="edge"><title>Node20&#45;&gt;Node14</title>
<path fill="none" stroke="midnightblue" d="M1256.92,-130.458C1226.59,-117.9 1187.52,-101.724 1164.05,-92.007"/>
<polygon fill="midnightblue" stroke="midnightblue" points="1255.86,-133.804 1266.43,-134.396 1258.53,-127.337 1255.86,-133.804"/>
</g>
<!-- Node21 -->
<g id="node21" class="node"><title>Node21</title>
<g id="a_node21"><a xlink:href="a00053.html" target="_top" xlink:title="example/demo/demo_application.c">
<polygon fill="none" stroke="black" points="1217,-73 1217,-92 1384,-92 1384,-73 1217,-73"/>
<text text-anchor="middle" x="1300.5" y="-80" font-family="Helvetica,sans-Serif" font-size="10.00">example/demo/demo_application.c</text>
</a>
</g>
</g>
<!-- Node20&#45;&gt;Node21 -->
<g id="edge20" class="edge"><title>Node20&#45;&gt;Node21</title>
<path fill="none" stroke="midnightblue" d="M1300.5,-124.25C1300.5,-113.017 1300.5,-100.377 1300.5,-92.1945"/>
<polygon fill="midnightblue" stroke="midnightblue" points="1297,-124.396 1300.5,-134.396 1304,-124.396 1297,-124.396"/>
</g>
<!-- Node22 -->
<g id="node22" class="node"><title>Node22</title>
<g id="a_node22"><a xlink:href="a00025.html" target="_top" xlink:title="modules/hpd_rest/src\l/hpd_rest.c">
<polygon fill="none" stroke="black" points="1402.5,-67.5 1402.5,-97.5 1512.5,-97.5 1512.5,-67.5 1402.5,-67.5"/>
<text text-anchor="start" x="1410.5" y="-85.5" font-family="Helvetica,sans-Serif" font-size="10.00">modules/hpd_rest/src</text>
<text text-anchor="middle" x="1457.5" y="-74.5" font-family="Helvetica,sans-Serif" font-size="10.00">/hpd_rest.c</text>
</a>
</g>
</g>
<!-- Node20&#45;&gt;Node22 -->
<g id="edge22" class="edge"><title>Node20&#45;&gt;Node22</title>
<path fill="none" stroke="midnightblue" d="M1343.87,-130.544C1368.99,-120.143 1400.16,-107.238 1423.5,-97.5765"/>
<polygon fill="midnightblue" stroke="midnightblue" points="1342.47,-127.337 1334.57,-134.396 1345.14,-133.804 1342.47,-127.337"/>
</g>
<!-- Node23 -->
<g id="node23" class="node"><title>Node23</title>
<g id="a_node23"><a xlink:href="a00080.html" target="_top" xlink:title="modules/hpd_rest/src\l/json.c">
<polygon fill="none" stroke="black" points="1530.5,-67.5 1530.5,-97.5 1640.5,-97.5 1640.5,-67.5 1530.5,-67.5"/>
<text text-anchor="start" x="1538.5" y="-85.5" font-family="Helvetica,sans-Serif" font-size="10.00">modules/hpd_rest/src</text>
<text text-anchor="middle" x="1585.5" y="-74.5" font-family="Helvetica,sans-Serif" font-size="10.00">/json.c</text>
</a>
</g>
</g>
<!-- Node20&#45;&gt;Node23 -->
<g id="edge23" class="edge"><title>Node20&#45;&gt;Node23</title>
<path fill="none" stroke="midnightblue" d="M1371.91,-132.214C1421,-121.017 1485.23,-106.369 1530.39,-96.0697"/>
<polygon fill="midnightblue" stroke="midnightblue" points="1370.96,-128.84 1361.99,-134.476 1372.52,-135.665 1370.96,-128.84"/>
</g>
<!-- Node24 -->
<g id="node24" class="node"><title>Node24</title>
<g id="a_node24"><a xlink:href="a00082.html" target="_top" xlink:title="modules/hpd_rest/src\l/xml.c">
<polygon fill="none" stroke="black" points="1658.5,-67.5 1658.5,-97.5 1768.5,-97.5 1768.5,-67.5 1658.5,-67.5"/>
<text text-anchor="start" x="1666.5" y="-85.5" font-family="Helvetica,sans-Serif" font-size="10.00">modules/hpd_rest/src</text>
<text text-anchor="middle" x="1713.5" y="-74.5" font-family="Helvetica,sans-Serif" font-size="10.00">/xml.c</text>
</a>
</g>
</g>
<!-- Node20&#45;&gt;Node24 -->
<g id="edge24" class="edge"><title>Node20&#45;&gt;Node24</title>
<path fill="none" stroke="midnightblue" d="M1379.38,-133.919C1500.21,-115.112 1533.06,-118.88 1649.5,-98 1652.42,-97.4772 1655.4,-96.911 1658.41,-96.3156"/>
<polygon fill="midnightblue" stroke="midnightblue" points="1378.7,-130.483 1369.37,-135.497 1379.79,-137.397 1378.7,-130.483"/>
</g>
</g>
</svg>
        <g id="navigator" transform="translate(0 0)" fill="#404254">
                <rect fill="#f2f5e9" fill-opacity="0.5" stroke="#606060" stroke-width=".5" x="0" y="0" width="60" height="60"/>
                <use id="zoomplus" xlink:href="#zoomPlus" x="17" y="9" onmousedown="handleZoom(evt,'in')"/>
                <use id="zoomminus" xlink:href="#zoomMin" x="42" y="9" onmousedown="handleZoom(evt,'out')"/>
                <use id="reset" xlink:href="#resetDef" x="30" y="36" onmousedown="handleReset()"/>
                <g id="arrowUp" xlink:href="#dirArrow" transform="translate(30 24)" onmousedown="handlePan(0,-1)">
                  <use xlink:href="#rim" fill="#404040">
                        <set attributeName="fill" to="#808080" begin="arrowUp.mouseover" end="arrowUp.mouseout"/>
                  </use>
                  <path fill="none" stroke="white" stroke-width="1.5" d="M0,-3.0v7 M-2.5,-0.5L0,-3.0L2.5,-0.5"/>
                </g>
                <g id="arrowRight" xlink:href="#dirArrow" transform="rotate(90) translate(36 -43)" onmousedown="handlePan(1,0)">
                  <use xlink:href="#rim" fill="#404040">
                        <set attributeName="fill" to="#808080" begin="arrowRight.mouseover" end="arrowRight.mouseout"/>
                  </use>
                  <path fill="none" stroke="white" stroke-width="1.5" d="M0,-3.0v7 M-2.5,-0.5L0,-3.0L2.5,-0.5"/>
                </g>
                <g id="arrowDown" xlink:href="#dirArrow" transform="rotate(180) translate(-30 -48)" onmousedown="handlePan(0,1)">
                  <use xlink:href="#rim" fill="#404040">
                        <set attributeName="fill" to="#808080" begin="arrowDown.mouseover" end="arrowDown.mouseout"/>
                  </use>
                  <path fill="none" stroke="white" stroke-width="1.5" d="M0,-3.0v7 M-2.5,-0.5L0,-3.0L2.5,-0.5"/>
                </g>
                <g id="arrowLeft" xlink:href="#dirArrow" transform="rotate(270) translate(-36 17)" onmousedown="handlePan(-1,0)">
                  <use xlink:href="#rim" fill="#404040">
                        <set attributeName="fill" to="#808080" begin="arrowLeft.mouseover" end="arrowLeft.mouseout"/>
                  </use>
                  <path fill="none" stroke="white" stroke-width="1.5" d="M0,-3.0v7 M-2.5,-0.5L0,-3.0L2.5,-0.5"/>
                </g>
        </g>
        <svg viewBox="0 0 15 15" width="100%" height="30px" preserveAspectRatio="xMaxYMin meet">
         <g id="arrow_out" transform="scale(0.3 0.3)">
          <a xlink:href="a00200_org.svg" target="_base">
           <rect id="button" ry="5" rx="5" y="6" x="6" height="38" width="38"
                fill="#f2f5e9" fill-opacity="0.5" stroke="#606060" stroke-width="1.0"/>
           <path id="arrow"
             d="M 11.500037,31.436501 C 11.940474,20.09759 22.043105,11.32322 32.158766,21.979434 L 37.068811,17.246167 C 37.068811,17.246167 37.088388,32 37.088388,32 L 22.160133,31.978069 C 22.160133,31.978069 26.997745,27.140456 26.997745,27.140456 C 18.528582,18.264221 13.291696,25.230495 11.500037,31.436501 z"
             style="fill:#404040;"/>
          </a>
         </g>
        </svg>
</svg>
