<?xml version="1.0" encoding="UTF-8" standalone="no"?>
<!DOCTYPE svg PUBLIC "-//W3C//DTD SVG 1.1//EN"
 "http://www.w3.org/Graphics/SVG/1.1/DTD/svg11.dtd">
<!-- Generated by graphviz version 2.38.0 (20140413.2041)
 -->
<!-- Title: hpd_ev_async Pages: 1 -->
<svg width="119pt" height="172pt"
 viewBox="0.00 0.00 118.50 172.00" xmlns="http://www.w3.org/2000/svg" xmlns:xlink="http://www.w3.org/1999/xlink">
<g id="graph0" class="graph" transform="scale(1 1) rotate(0) translate(4 168)">
<title>hpd_ev_async</title>
<!-- Node1 -->
<g id="node1" class="node"><title>Node1</title>
<polygon fill="#bfbfbf" stroke="black" points="0,-0.5 0,-57.5 100,-57.5 100,-0.5 0,-0.5"/>
<text text-anchor="middle" x="50" y="-45.5" font-family="Helvetica,sans-Serif" font-size="10.00">hpd_ev_async</text>
<polyline fill="none" stroke="black" points="0,-38.5 100,-38.5 "/>
<text text-anchor="middle" x="50" y="-26.5" font-family="Helvetica,sans-Serif" font-size="10.00"> </text>
<polyline fill="none" stroke="black" points="0,-19.5 100,-19.5 "/>
<text text-anchor="start" x="8" y="-7.5" font-family="Helvetica,sans-Serif" font-size="10.00">+ TAILQ_ENTRY()</text>
</g>
<!-- Node2 -->
<g id="node2" class="node"><title>Node2</title>
<polygon fill="none" stroke="#bfbfbf" points="4.5,-105.5 4.5,-163.5 33.5,-163.5 33.5,-105.5 4.5,-105.5"/>
<polyline fill="none" stroke="#bfbfbf" points="4.5,-143.5 33.5,-143.5 "/>
<text text-anchor="middle" x="19" y="-131.5" font-family="Helvetica,sans-Serif" font-size="10.00"> </text>
<polyline fill="none" stroke="#bfbfbf" points="4.5,-124.5 33.5,-124.5 "/>
<text text-anchor="middle" x="19" y="-112.5" font-family="Helvetica,sans-Serif" font-size="10.00"> </text>
</g>
<!-- Node2&#45;&gt;Node1 -->
<g id="edge1" class="edge"><title>Node2&#45;&gt;Node1</title>
<path fill="none" stroke="#404040" d="M25.8799,-105.298C28.2917,-95.9314 31.1209,-85.4763 34,-76 34.6821,-73.755 35.4043,-71.4561 36.15,-69.1415"/>
<polygon fill="none" stroke="#404040" points="36.1982,-68.9967 34.3026,-62.0392 39.9959,-57.6135 41.8914,-64.571 36.1982,-68.9967"/>
<text text-anchor="middle" x="46.5" y="-79" font-family="Helvetica,sans-Serif" font-size="10.00"> +@1</text>
</g>
<!-- Node3 -->
<g id="node3" class="node"><title>Node3</title>
<polygon fill="none" stroke="#bfbfbf" points="51.5,-106 51.5,-163 110.5,-163 110.5,-106 51.5,-106"/>
<text text-anchor="middle" x="81" y="-151" font-family="Helvetica,sans-Serif" font-size="10.00">ev_async</text>
<polyline fill="none" stroke="#bfbfbf" points="51.5,-144 110.5,-144 "/>
<text text-anchor="middle" x="81" y="-132" font-family="Helvetica,sans-Serif" font-size="10.00"> </text>
<polyline fill="none" stroke="#bfbfbf" points="51.5,-125 110.5,-125 "/>
<text text-anchor="middle" x="81" y="-113" font-family="Helvetica,sans-Serif" font-size="10.00"> </text>
</g>
<!-- Node3&#45;&gt;Node1 -->
<g id="edge2" class="edge"><title>Node3&#45;&gt;Node1</title>
<path fill="none" stroke="#404040" d="M72.6926,-105.764C69.3567,-94.6264 65.4498,-81.5822 61.8269,-69.4865"/>
<polygon fill="none" stroke="#404040" points="61.7735,-69.3081 56.2201,-64.7081 58.3304,-57.8127 63.8838,-62.4127 61.7735,-69.3081"/>
<text text-anchor="middle" x="88" y="-79" font-family="Helvetica,sans-Serif" font-size="10.00"> +watcher</text>
</g>
</g>
</svg>
