<?xml version="1.0" encoding="UTF-8" standalone="no"?>
<!DOCTYPE svg PUBLIC "-//W3C//DTD SVG 1.1//EN"
 "http://www.w3.org/Graphics/SVG/1.1/DTD/svg11.dtd">
<!-- Generated by graphviz version 2.38.0 (20140413.2041)
 -->
<!-- Title: hpd/src/discovery_id.c Pages: 1 -->
<!--zoomable 308 -->
<svg id="main" version="1.1" xmlns="http://www.w3.org/2000/svg" xmlns:xlink="http://www.w3.org/1999/xlink" xml:space="preserve" onload="init(evt)">
<style type="text/css"><![CDATA[
.edge:hover path { stroke: red; }
.edge:hover polygon { stroke: red; fill: red; }
]]></style>
<script type="text/javascript"><![CDATA[
var edges = document.getElementsByTagName('g');
if (edges && edges.length) {
  for (var i=0;i<edges.length;i++) {
    if (edges[i].id.substr(0,4)=='edge') {
      edges[i].setAttribute('class','edge');
    }
  }
}
]]></script>
        <defs>
                <circle id="rim" cx="0" cy="0" r="7"/>
                <circle id="rim2" cx="0" cy="0" r="3.5"/>
                <g id="zoomPlus">
                        <use xlink:href="#rim" fill="#404040">
                                <set attributeName="fill" to="#808080" begin="zoomplus.mouseover" end="zoomplus.mouseout"/>
                        </use>
                        <path d="M-4,0h8M0,-4v8" fill="none" stroke="white" stroke-width="1.5" pointer-events="none"/>
                </g>
                <g id="zoomMin">
                        <use xlink:href="#rim" fill="#404040">
                                <set attributeName="fill" to="#808080" begin="zoomminus.mouseover" end="zoomminus.mouseout"/>
                        </use>
                        <path d="M-4,0h8" fill="none" stroke="white" stroke-width="1.5" pointer-events="none"/>
                </g>
                <g id="dirArrow">
                        <path fill="none" stroke="white" stroke-width="1.5" d="M0,-3.0v7 M-2.5,-0.5L0,-3.0L2.5,-0.5"/>
                </g>
               <g id="resetDef">
                       <use xlink:href="#rim2" fill="#404040">
                               <set attributeName="fill" to="#808080" begin="reset.mouseover" end="reset.mouseout"/>
                       </use>
               </g>
        </defs>

<script type="text/javascript">
var viewWidth = 740;
var viewHeight = 308;
var sectionId = 'dynsection-0';
</script>
<script xlink:href="svgpan.js"/>
<svg id="graph" class="graph">
<g id="viewport">
<title>hpd/src/discovery_id.c</title>
<!-- Node1 -->
<g id="node1" class="node"><title>Node1</title>
<polygon fill="#bfbfbf" stroke="black" points="192,-280.5 192,-299.5 307,-299.5 307,-280.5 192,-280.5"/>
<text text-anchor="middle" x="249.5" y="-287.5" font-family="Helvetica,sans-Serif" font-size="10.00">hpd/src/discovery_id.c</text>
</g>
<!-- Node2 -->
<g id="node2" class="node"><title>Node2</title>
<g id="a_node2"><a xlink:href="a00020.html" target="_top" xlink:title="discovery.h">
<polygon fill="none" stroke="black" points="0,-112.5 0,-131.5 67,-131.5 67,-112.5 0,-112.5"/>
<text text-anchor="middle" x="33.5" y="-119.5" font-family="Helvetica,sans-Serif" font-size="10.00">discovery.h</text>
</a>
</g>
</g>
<!-- Node1&#45;&gt;Node2 -->
<g id="edge1" class="edge"><title>Node1&#45;&gt;Node2</title>
<path fill="none" stroke="midnightblue" d="M238.191,-280.309C203.271,-253.472 96.8602,-171.694 52.8588,-137.878"/>
<polygon fill="midnightblue" stroke="midnightblue" points="54.7588,-134.924 44.697,-131.605 50.4933,-140.474 54.7588,-134.924"/>
</g>
<!-- Node5 -->
<g id="node5" class="node"><title>Node5</title>
<g id="a_node5"><a xlink:href="a00053.html" target="_top" xlink:title="hpd/common/hpd_common.h">
<polygon fill="none" stroke="black" points="379,-168.5 379,-187.5 522,-187.5 522,-168.5 379,-168.5"/>
<text text-anchor="middle" x="450.5" y="-175.5" font-family="Helvetica,sans-Serif" font-size="10.00">hpd/common/hpd_common.h</text>
</a>
</g>
</g>
<!-- Node1&#45;&gt;Node5 -->
<g id="edge4" class="edge"><title>Node1&#45;&gt;Node5</title>
<path fill="none" stroke="midnightblue" d="M265.272,-280.368C300.131,-261.292 383.947,-215.422 425.822,-192.505"/>
<polygon fill="midnightblue" stroke="midnightblue" points="427.709,-195.463 434.801,-187.591 424.349,-189.322 427.709,-195.463"/>
</g>
<!-- Node9 -->
<g id="node9" class="node"><title>Node9</title>
<g id="a_node9"><a xlink:href="a00017.html" target="_top" xlink:title="daemon.h">
<polygon fill="none" stroke="black" points="557,-224.5 557,-243.5 616,-243.5 616,-224.5 557,-224.5"/>
<text text-anchor="middle" x="586.5" y="-231.5" font-family="Helvetica,sans-Serif" font-size="10.00">daemon.h</text>
</a>
</g>
</g>
<!-- Node1&#45;&gt;Node9 -->
<g id="edge8" class="edge"><title>Node1&#45;&gt;Node9</title>
<path fill="none" stroke="midnightblue" d="M302.899,-280.444C370.796,-269.564 486.456,-251.031 546.959,-241.336"/>
<polygon fill="midnightblue" stroke="midnightblue" points="547.565,-244.784 556.885,-239.745 546.458,-237.872 547.565,-244.784"/>
</g>
<!-- Node14 -->
<g id="node14" class="node"><title>Node14</title>
<g id="a_node14"><a xlink:href="a00085.html" target="_top" xlink:title="log.h">
<polygon fill="none" stroke="black" points="85.5,-112.5 85.5,-131.5 123.5,-131.5 123.5,-112.5 85.5,-112.5"/>
<text text-anchor="middle" x="104.5" y="-119.5" font-family="Helvetica,sans-Serif" font-size="10.00">log.h</text>
</a>
</g>
</g>
<!-- Node1&#45;&gt;Node14 -->
<g id="edge15" class="edge"><title>Node1&#45;&gt;Node14</title>
<path fill="none" stroke="midnightblue" d="M241.704,-280.075C218.386,-253.38 148.93,-173.865 118.757,-139.322"/>
<polygon fill="midnightblue" stroke="midnightblue" points="121.199,-136.797 111.984,-131.568 115.927,-141.402 121.199,-136.797"/>
</g>
<!-- Node15 -->
<g id="node15" class="node"><title>Node15</title>
<g id="a_node15"><a xlink:href="a00018.html" target="_top" xlink:title="model.h">
<polygon fill="none" stroke="black" points="224,-224.5 224,-243.5 275,-243.5 275,-224.5 224,-224.5"/>
<text text-anchor="middle" x="249.5" y="-231.5" font-family="Helvetica,sans-Serif" font-size="10.00">model.h</text>
</a>
</g>
</g>
<!-- Node1&#45;&gt;Node15 -->
<g id="edge18" class="edge"><title>Node1&#45;&gt;Node15</title>
<path fill="none" stroke="midnightblue" d="M249.5,-280.083C249.5,-273.006 249.5,-262.861 249.5,-253.986"/>
<polygon fill="midnightblue" stroke="midnightblue" points="253,-253.751 249.5,-243.751 246,-253.751 253,-253.751"/>
</g>
<!-- Node3 -->
<g id="node3" class="node"><title>Node3</title>
<g id="a_node3"><a xlink:href="a00030.html" target="_top" xlink:title="hpd/hpd_types.h">
<polygon fill="none" stroke="black" points="107,-56.5 107,-75.5 196,-75.5 196,-56.5 107,-56.5"/>
<text text-anchor="middle" x="151.5" y="-63.5" font-family="Helvetica,sans-Serif" font-size="10.00">hpd/hpd_types.h</text>
</a>
</g>
</g>
<!-- Node2&#45;&gt;Node3 -->
<g id="edge2" class="edge"><title>Node2&#45;&gt;Node3</title>
<path fill="none" stroke="midnightblue" d="M52.1975,-112.444C71.4445,-103.636 101.652,-89.8116 123.7,-79.722"/>
<polygon fill="midnightblue" stroke="midnightblue" points="125.253,-82.8603 132.89,-75.5164 122.34,-76.4951 125.253,-82.8603"/>
</g>
<!-- Node4 -->
<g id="node4" class="node"><title>Node4</title>
<polygon fill="none" stroke="#bfbfbf" points="36.5,-56.5 36.5,-75.5 88.5,-75.5 88.5,-56.5 36.5,-56.5"/>
<text text-anchor="middle" x="62.5" y="-63.5" font-family="Helvetica,sans-Serif" font-size="10.00">stdarg.h</text>
</g>
<!-- Node2&#45;&gt;Node4 -->
<g id="edge3" class="edge"><title>Node2&#45;&gt;Node4</title>
<path fill="none" stroke="midnightblue" d="M38.2888,-112.083C42.2584,-104.691 48.0251,-93.9533 52.9348,-84.8111"/>
<polygon fill="midnightblue" stroke="midnightblue" points="56.1525,-86.217 57.8003,-75.7511 49.9855,-82.9051 56.1525,-86.217"/>
</g>
<!-- Node6 -->
<g id="node6" class="node"><title>Node6</title>
<polygon fill="none" stroke="#bfbfbf" points="491.5,-112.5 491.5,-131.5 539.5,-131.5 539.5,-112.5 491.5,-112.5"/>
<text text-anchor="middle" x="515.5" y="-119.5" font-family="Helvetica,sans-Serif" font-size="10.00">stdlib.h</text>
</g>
<!-- Node5&#45;&gt;Node6 -->
<g id="edge5" class="edge"><title>Node5&#45;&gt;Node6</title>
<path fill="none" stroke="midnightblue" d="M460.943,-168.324C470.646,-160.263 485.315,-148.077 497,-138.369"/>
<polygon fill="midnightblue" stroke="midnightblue" points="499.411,-140.916 504.867,-131.834 494.938,-135.532 499.411,-140.916"/>
</g>
<!-- Node7 -->
<g id="node7" class="node"><title>Node7</title>
<polygon fill="none" stroke="#bfbfbf" points="360,-112.5 360,-131.5 409,-131.5 409,-112.5 360,-112.5"/>
<text text-anchor="middle" x="384.5" y="-119.5" font-family="Helvetica,sans-Serif" font-size="10.00">string.h</text>
</g>
<!-- Node5&#45;&gt;Node7 -->
<g id="edge6" class="edge"><title>Node5&#45;&gt;Node7</title>
<path fill="none" stroke="midnightblue" d="M439.896,-168.324C430.044,-160.263 415.149,-148.077 403.285,-138.369"/>
<polygon fill="midnightblue" stroke="midnightblue" points="405.253,-135.457 395.297,-131.834 400.82,-140.875 405.253,-135.457"/>
</g>
<!-- Node8 -->
<g id="node8" class="node"><title>Node8</title>
<polygon fill="none" stroke="#bfbfbf" points="427.5,-112.5 427.5,-131.5 473.5,-131.5 473.5,-112.5 427.5,-112.5"/>
<text text-anchor="middle" x="450.5" y="-119.5" font-family="Helvetica,sans-Serif" font-size="10.00">stdio.h</text>
</g>
<!-- Node5&#45;&gt;Node8 -->
<g id="edge7" class="edge"><title>Node5&#45;&gt;Node8</title>
<path fill="none" stroke="midnightblue" d="M450.5,-168.083C450.5,-161.006 450.5,-150.861 450.5,-141.986"/>
<polygon fill="midnightblue" stroke="midnightblue" points="454,-141.751 450.5,-131.751 447,-141.751 454,-141.751"/>
</g>
<!-- Node9&#45;&gt;Node3 -->
<g id="edge9" class="edge"><title>Node9&#45;&gt;Node3</title>
<path fill="none" stroke="midnightblue" d="M586.736,-224.242C586.821,-201.567 583.611,-140.716 548.5,-112 491.375,-65.2801 296.658,-84.7088 206.234,-75.8319"/>
<polygon fill="midnightblue" stroke="midnightblue" points="206.594,-72.3504 196.257,-74.674 205.787,-79.3037 206.594,-72.3504"/>
</g>
<!-- Node9&#45;&gt;Node5 -->
<g id="edge10" class="edge"><title>Node9&#45;&gt;Node5</title>
<path fill="none" stroke="midnightblue" d="M564.95,-224.444C542.469,-215.517 507.012,-201.439 481.52,-191.317"/>
<polygon fill="midnightblue" stroke="midnightblue" points="482.535,-187.954 471.949,-187.516 479.951,-194.46 482.535,-187.954"/>
</g>
<!-- Node10 -->
<g id="node10" class="node"><title>Node10</title>
<g id="a_node10"><a xlink:href="a00055.html" target="_top" xlink:title="hpd/common/hpd_queue.h">
<polygon fill="none" stroke="black" points="285,-56.5 285,-75.5 416,-75.5 416,-56.5 285,-56.5"/>
<text text-anchor="middle" x="350.5" y="-63.5" font-family="Helvetica,sans-Serif" font-size="10.00">hpd/common/hpd_queue.h</text>
</a>
</g>
</g>
<!-- Node9&#45;&gt;Node10 -->
<g id="edge11" class="edge"><title>Node9&#45;&gt;Node10</title>
<path fill="none" stroke="midnightblue" d="M589.328,-224.399C595.898,-202.616 609.59,-144.69 581.5,-112 561.52,-88.7475 485.585,-77.2929 426.163,-71.7945"/>
<polygon fill="midnightblue" stroke="midnightblue" points="426.299,-68.293 416.03,-70.8989 425.683,-75.2658 426.299,-68.293"/>
</g>
<!-- Node12 -->
<g id="node12" class="node"><title>Node12</title>
<polygon fill="none" stroke="#bfbfbf" points="634,-168.5 634,-187.5 669,-187.5 669,-168.5 634,-168.5"/>
<text text-anchor="middle" x="651.5" y="-175.5" font-family="Helvetica,sans-Serif" font-size="10.00">ev.h</text>
</g>
<!-- Node9&#45;&gt;Node12 -->
<g id="edge13" class="edge"><title>Node9&#45;&gt;Node12</title>
<path fill="none" stroke="midnightblue" d="M596.943,-224.324C606.646,-216.263 621.315,-204.077 633,-194.369"/>
<polygon fill="midnightblue" stroke="midnightblue" points="635.411,-196.916 640.867,-187.834 630.938,-191.532 635.411,-196.916"/>
</g>
<!-- Node13 -->
<g id="node13" class="node"><title>Node13</title>
<polygon fill="none" stroke="#bfbfbf" points="687.5,-168.5 687.5,-187.5 731.5,-187.5 731.5,-168.5 687.5,-168.5"/>
<text text-anchor="middle" x="709.5" y="-175.5" font-family="Helvetica,sans-Serif" font-size="10.00">argp.h</text>
</g>
<!-- Node9&#45;&gt;Node13 -->
<g id="edge14" class="edge"><title>Node9&#45;&gt;Node13</title>
<path fill="none" stroke="midnightblue" d="M605.99,-224.444C626.142,-215.596 657.823,-201.687 680.831,-191.586"/>
<polygon fill="midnightblue" stroke="midnightblue" points="682.352,-194.741 690.101,-187.516 679.538,-188.332 682.352,-194.741"/>
</g>
<!-- Node11 -->
<g id="node11" class="node"><title>Node11</title>
<polygon fill="none" stroke="#bfbfbf" points="306,-0.5 306,-19.5 395,-19.5 395,-0.5 306,-0.5"/>
<text text-anchor="middle" x="350.5" y="-7.5" font-family="Helvetica,sans-Serif" font-size="10.00">bsd/sys/queue.h</text>
</g>
<!-- Node10&#45;&gt;Node11 -->
<g id="edge12" class="edge"><title>Node10&#45;&gt;Node11</title>
<path fill="none" stroke="midnightblue" d="M350.5,-56.083C350.5,-49.0059 350.5,-38.8611 350.5,-29.9865"/>
<polygon fill="midnightblue" stroke="midnightblue" points="354,-29.751 350.5,-19.7511 347,-29.7511 354,-29.751"/>
</g>
<!-- Node14&#45;&gt;Node3 -->
<g id="edge16" class="edge"><title>Node14&#45;&gt;Node3</title>
<path fill="none" stroke="midnightblue" d="M112.261,-112.083C119.037,-104.298 129.043,-92.8015 137.255,-83.3665"/>
<polygon fill="midnightblue" stroke="midnightblue" points="139.958,-85.592 143.883,-75.7511 134.678,-80.9963 139.958,-85.592"/>
</g>
<!-- Node14&#45;&gt;Node4 -->
<g id="edge17" class="edge"><title>Node14&#45;&gt;Node4</title>
<path fill="none" stroke="midnightblue" d="M97.5646,-112.083C91.5708,-104.377 82.7482,-93.0333 75.4524,-83.6531"/>
<polygon fill="midnightblue" stroke="midnightblue" points="78.2086,-81.4958 69.3064,-75.7511 72.6831,-85.7934 78.2086,-81.4958"/>
</g>
<!-- Node15&#45;&gt;Node3 -->
<g id="edge19" class="edge"><title>Node15&#45;&gt;Node3</title>
<path fill="none" stroke="midnightblue" d="M232.085,-224.447C218.113,-216.738 198.996,-204.142 187.5,-188 165.119,-156.573 156.495,-111.151 153.292,-85.8419"/>
<polygon fill="midnightblue" stroke="midnightblue" points="156.754,-85.3041 152.171,-75.7514 149.796,-86.0766 156.754,-85.3041"/>
</g>
<!-- Node15&#45;&gt;Node10 -->
<g id="edge20" class="edge"><title>Node15&#45;&gt;Node10</title>
<path fill="none" stroke="midnightblue" d="M254.977,-224.405C266.017,-207.041 291.664,-166.495 312.5,-132 322.086,-116.129 332.716,-97.8906 340.289,-84.7804"/>
<polygon fill="midnightblue" stroke="midnightblue" points="343.458,-86.291 345.417,-75.8788 337.392,-82.7968 343.458,-86.291"/>
</g>
<!-- Node16 -->
<g id="node16" class="node"><title>Node16</title>
<g id="a_node16"><a xlink:href="a00056.html" target="_top" xlink:title="hpd/common/hpd_map.h">
<polygon fill="none" stroke="black" points="179.5,-112.5 179.5,-131.5 303.5,-131.5 303.5,-112.5 179.5,-112.5"/>
<text text-anchor="middle" x="241.5" y="-119.5" font-family="Helvetica,sans-Serif" font-size="10.00">hpd/common/hpd_map.h</text>
</a>
</g>
</g>
<!-- Node15&#45;&gt;Node16 -->
<g id="edge21" class="edge"><title>Node15&#45;&gt;Node16</title>
<path fill="none" stroke="midnightblue" d="M252.234,-224.129C255.729,-211.578 260.94,-187.944 257.5,-168 255.932,-158.91 252.705,-149.222 249.557,-141.173"/>
<polygon fill="midnightblue" stroke="midnightblue" points="252.694,-139.602 245.611,-131.723 246.235,-142.299 252.694,-139.602"/>
</g>
<!-- Node18 -->
<g id="node18" class="node"><title>Node18</title>
<g id="a_node18"><a xlink:href="a00033.html" target="_top" xlink:title="comm.h">
<polygon fill="none" stroke="black" points="196.5,-168.5 196.5,-187.5 248.5,-187.5 248.5,-168.5 196.5,-168.5"/>
<text text-anchor="middle" x="222.5" y="-175.5" font-family="Helvetica,sans-Serif" font-size="10.00">comm.h</text>
</a>
</g>
</g>
<!-- Node15&#45;&gt;Node18 -->
<g id="edge26" class="edge"><title>Node15&#45;&gt;Node18</title>
<path fill="none" stroke="midnightblue" d="M245.041,-224.083C241.346,-216.691 235.977,-205.953 231.406,-196.811"/>
<polygon fill="midnightblue" stroke="midnightblue" points="234.478,-195.13 226.876,-187.751 228.217,-198.261 234.478,-195.13"/>
</g>
<!-- Node16&#45;&gt;Node3 -->
<g id="edge22" class="edge"><title>Node16&#45;&gt;Node3</title>
<path fill="none" stroke="midnightblue" d="M227.04,-112.324C213,-103.9 191.452,-90.9709 174.957,-81.0741"/>
<polygon fill="midnightblue" stroke="midnightblue" points="176.3,-77.7983 165.924,-75.6545 172.698,-83.8007 176.3,-77.7983"/>
</g>
<!-- Node16&#45;&gt;Node4 -->
<g id="edge25" class="edge"><title>Node16&#45;&gt;Node4</title>
<path fill="none" stroke="midnightblue" d="M213.137,-112.444C182.136,-103.091 132.391,-88.0844 98.621,-77.8969"/>
<polygon fill="midnightblue" stroke="midnightblue" points="99.2768,-74.4389 88.6921,-74.9015 97.255,-81.1406 99.2768,-74.4389"/>
</g>
<!-- Node16&#45;&gt;Node10 -->
<g id="edge23" class="edge"><title>Node16&#45;&gt;Node10</title>
<path fill="none" stroke="midnightblue" d="M259.013,-112.324C276.572,-103.625 303.831,-90.1202 324.031,-80.113"/>
<polygon fill="midnightblue" stroke="midnightblue" points="325.624,-83.23 333.031,-75.6545 322.516,-76.9575 325.624,-83.23"/>
</g>
<!-- Node17 -->
<g id="node17" class="node"><title>Node17</title>
<polygon fill="none" stroke="#bfbfbf" points="214.5,-56.5 214.5,-75.5 266.5,-75.5 266.5,-56.5 214.5,-56.5"/>
<text text-anchor="middle" x="240.5" y="-63.5" font-family="Helvetica,sans-Serif" font-size="10.00">stddef.h</text>
</g>
<!-- Node16&#45;&gt;Node17 -->
<g id="edge24" class="edge"><title>Node16&#45;&gt;Node17</title>
<path fill="none" stroke="midnightblue" d="M241.335,-112.083C241.204,-105.006 241.016,-94.8611 240.852,-85.9865"/>
<polygon fill="midnightblue" stroke="midnightblue" points="244.347,-85.6845 240.662,-75.7511 237.348,-85.8142 244.347,-85.6845"/>
</g>
<!-- Node18&#45;&gt;Node16 -->
<g id="edge27" class="edge"><title>Node18&#45;&gt;Node16</title>
<path fill="none" stroke="midnightblue" d="M225.637,-168.083C228.183,-160.849 231.856,-150.409 235.027,-141.397"/>
<polygon fill="midnightblue" stroke="midnightblue" points="238.403,-142.346 238.421,-131.751 231.8,-140.023 238.403,-142.346"/>
</g>
</g>
</svg>
        <g id="navigator" transform="translate(0 0)" fill="#404254">
                <rect fill="#f2f5e9" fill-opacity="0.5" stroke="#606060" stroke-width=".5" x="0" y="0" width="60" height="60"/>
                <use id="zoomplus" xlink:href="#zoomPlus" x="17" y="9" onmousedown="handleZoom(evt,'in')"/>
                <use id="zoomminus" xlink:href="#zoomMin" x="42" y="9" onmousedown="handleZoom(evt,'out')"/>
                <use id="reset" xlink:href="#resetDef" x="30" y="36" onmousedown="handleReset()"/>
                <g id="arrowUp" xlink:href="#dirArrow" transform="translate(30 24)" onmousedown="handlePan(0,-1)">
                  <use xlink:href="#rim" fill="#404040">
                        <set attributeName="fill" to="#808080" begin="arrowUp.mouseover" end="arrowUp.mouseout"/>
                  </use>
                  <path fill="none" stroke="white" stroke-width="1.5" d="M0,-3.0v7 M-2.5,-0.5L0,-3.0L2.5,-0.5"/>
                </g>
                <g id="arrowRight" xlink:href="#dirArrow" transform="rotate(90) translate(36 -43)" onmousedown="handlePan(1,0)">
                  <use xlink:href="#rim" fill="#404040">
                        <set attributeName="fill" to="#808080" begin="arrowRight.mouseover" end="arrowRight.mouseout"/>
                  </use>
                  <path fill="none" stroke="white" stroke-width="1.5" d="M0,-3.0v7 M-2.5,-0.5L0,-3.0L2.5,-0.5"/>
                </g>
                <g id="arrowDown" xlink:href="#dirArrow" transform="rotate(180) translate(-30 -48)" onmousedown="handlePan(0,1)">
                  <use xlink:href="#rim" fill="#404040">
                        <set attributeName="fill" to="#808080" begin="arrowDown.mouseover" end="arrowDown.mouseout"/>
                  </use>
                  <path fill="none" stroke="white" stroke-width="1.5" d="M0,-3.0v7 M-2.5,-0.5L0,-3.0L2.5,-0.5"/>
                </g>
                <g id="arrowLeft" xlink:href="#dirArrow" transform="rotate(270) translate(-36 17)" onmousedown="handlePan(-1,0)">
                  <use xlink:href="#rim" fill="#404040">
                        <set attributeName="fill" to="#808080" begin="arrowLeft.mouseover" end="arrowLeft.mouseout"/>
                  </use>
                  <path fill="none" stroke="white" stroke-width="1.5" d="M0,-3.0v7 M-2.5,-0.5L0,-3.0L2.5,-0.5"/>
                </g>
        </g>
        <svg viewBox="0 0 15 15" width="100%" height="30px" preserveAspectRatio="xMaxYMin meet">
         <g id="arrow_out" transform="scale(0.3 0.3)">
          <a xlink:href="a00251_org.svg" target="_base">
           <rect id="button" ry="5" rx="5" y="6" x="6" height="38" width="38"
                fill="#f2f5e9" fill-opacity="0.5" stroke="#606060" stroke-width="1.0"/>
           <path id="arrow"
             d="M 11.500037,31.436501 C 11.940474,20.09759 22.043105,11.32322 32.158766,21.979434 L 37.068811,17.246167 C 37.068811,17.246167 37.088388,32 37.088388,32 L 22.160133,31.978069 C 22.160133,31.978069 26.997745,27.140456 26.997745,27.140456 C 18.528582,18.264221 13.291696,25.230495 11.500037,31.436501 z"
             style="fill:#404040;"/>
          </a>
         </g>
        </svg>
</svg>
