<?xml version="1.0" encoding="UTF-8" standalone="no"?>
<!DOCTYPE svg PUBLIC "-//W3C//DTD SVG 1.1//EN"
 "http://www.w3.org/Graphics/SVG/1.1/DTD/svg11.dtd">
<!-- Generated by graphviz version 2.38.0 (20140413.2041)
 -->
<!-- Title: demo_adapter Pages: 1 -->
<svg width="852pt" height="425pt"
 viewBox="0.00 0.00 852.37 425.00" xmlns="http://www.w3.org/2000/svg" xmlns:xlink="http://www.w3.org/1999/xlink">
<g id="graph0" class="graph" transform="scale(1 1) rotate(0) translate(4 421)">
<title>demo_adapter</title>
<!-- Node1 -->
<g id="node1" class="node"><title>Node1</title>
<polygon fill="#bfbfbf" stroke="black" points="168.368,-0.5 168.368,-57.5 246.368,-57.5 246.368,-0.5 168.368,-0.5"/>
<text text-anchor="middle" x="207.368" y="-45.5" font-family="Helvetica,sans-Serif" font-size="10.00">demo_adapter</text>
<polyline fill="none" stroke="black" points="168.368,-38.5 246.368,-38.5 "/>
<text text-anchor="middle" x="207.368" y="-26.5" font-family="Helvetica,sans-Serif" font-size="10.00"> </text>
<polyline fill="none" stroke="black" points="168.368,-19.5 246.368,-19.5 "/>
<text text-anchor="middle" x="207.368" y="-7.5" font-family="Helvetica,sans-Serif" font-size="10.00"> </text>
</g>
<!-- Node2 -->
<g id="node2" class="node"><title>Node2</title>
<polygon fill="none" stroke="#bfbfbf" points="13.8676,-359.5 13.8676,-416.5 48.8676,-416.5 48.8676,-359.5 13.8676,-359.5"/>
<text text-anchor="middle" x="31.3676" y="-404.5" font-family="Helvetica,sans-Serif" font-size="10.00">char</text>
<polyline fill="none" stroke="#bfbfbf" points="13.8676,-397.5 48.8676,-397.5 "/>
<text text-anchor="middle" x="31.3676" y="-385.5" font-family="Helvetica,sans-Serif" font-size="10.00"> </text>
<polyline fill="none" stroke="#bfbfbf" points="13.8676,-378.5 48.8676,-378.5 "/>
<text text-anchor="middle" x="31.3676" y="-366.5" font-family="Helvetica,sans-Serif" font-size="10.00"> </text>
</g>
<!-- Node2&#45;&gt;Node1 -->
<g id="edge1" class="edge"><title>Node2&#45;&gt;Node1</title>
<path fill="none" stroke="#404040" d="M20.7594,-359.466C6.74179,-318.452 -13.1507,-239.835 14.3676,-181 42.985,-119.815 110.343,-76.4417 157.379,-52.3215"/>
<polygon fill="none" stroke="#404040" points="157.53,-52.2463 161.115,-45.9895 168.27,-46.8924 164.685,-53.1492 157.53,-52.2463"/>
<text text-anchor="middle" x="41.3676" y="-184" font-family="Helvetica,sans-Serif" font-size="10.00"> +module_id</text>
</g>
<!-- Node7 -->
<g id="node7" class="node"><title>Node7</title>
<g id="a_node7"><a xlink:href="a00017.html#a00110" target="_top" xlink:title="{hpd\n||}">
<polygon fill="none" stroke="black" points="407.368,-210.5 407.368,-267.5 439.368,-267.5 439.368,-210.5 407.368,-210.5"/>
<text text-anchor="middle" x="423.368" y="-255.5" font-family="Helvetica,sans-Serif" font-size="10.00">hpd</text>
<polyline fill="none" stroke="black" points="407.368,-248.5 439.368,-248.5 "/>
<text text-anchor="middle" x="423.368" y="-236.5" font-family="Helvetica,sans-Serif" font-size="10.00"> </text>
<polyline fill="none" stroke="black" points="407.368,-229.5 439.368,-229.5 "/>
<text text-anchor="middle" x="423.368" y="-217.5" font-family="Helvetica,sans-Serif" font-size="10.00"> </text>
</a>
</g>
</g>
<!-- Node2&#45;&gt;Node7 -->
<g id="edge9" class="edge"><title>Node2&#45;&gt;Node7</title>
<path fill="none" stroke="#404040" d="M38.7129,-359.309C46.4734,-331.049 58.3967,-290.68 64.3676,-286 85.5019,-269.435 278.832,-272.113 305.368,-268 336.585,-263.162 371.742,-254.377 395.498,-247.934"/>
<polygon fill="none" stroke="#404040" points="395.547,-247.92 400.264,-242.466 407.113,-244.723 402.396,-250.177 395.547,-247.92"/>
<text text-anchor="middle" x="95.3676" y="-316.5" font-family="Helvetica,sans-Serif" font-size="10.00"> +argv0</text>
<text text-anchor="middle" x="95.3676" y="-305.5" font-family="Helvetica,sans-Serif" font-size="10.00">+option2name</text>
</g>
<!-- Node18 -->
<g id="node18" class="node"><title>Node18</title>
<g id="a_node18"><a xlink:href="a00020.html#a00112" target="_top" xlink:title="{hpd_adapter_id\n||}">
<polygon fill="none" stroke="black" points="114.868,-105.5 114.868,-162.5 197.868,-162.5 197.868,-105.5 114.868,-105.5"/>
<text text-anchor="middle" x="156.368" y="-150.5" font-family="Helvetica,sans-Serif" font-size="10.00">hpd_adapter_id</text>
<polyline fill="none" stroke="black" points="114.868,-143.5 197.868,-143.5 "/>
<text text-anchor="middle" x="156.368" y="-131.5" font-family="Helvetica,sans-Serif" font-size="10.00"> </text>
<polyline fill="none" stroke="black" points="114.868,-124.5 197.868,-124.5 "/>
<text text-anchor="middle" x="156.368" y="-112.5" font-family="Helvetica,sans-Serif" font-size="10.00"> </text>
</a>
</g>
</g>
<!-- Node2&#45;&gt;Node18 -->
<g id="edge22" class="edge"><title>Node2&#45;&gt;Node18</title>
<path fill="none" stroke="#404040" d="M29.1566,-359.374C27.537,-322.597 29.3647,-256.765 57.3676,-210 68.7113,-191.056 86.8205,-175.267 104.468,-163.14"/>
<polygon fill="none" stroke="#404040" points="104.702,-162.987 107.539,-156.358 114.75,-156.427 111.913,-163.056 104.702,-162.987"/>
<text text-anchor="middle" x="68.3676" y="-236.5" font-family="Helvetica,sans-Serif" font-size="10.00"> +aid</text>
</g>
<!-- Node3 -->
<g id="node3" class="node"><title>Node3</title>
<polygon fill="none" stroke="#bfbfbf" points="770.868,-359.5 770.868,-416.5 799.868,-416.5 799.868,-359.5 770.868,-359.5"/>
<text text-anchor="middle" x="785.368" y="-404.5" font-family="Helvetica,sans-Serif" font-size="10.00">int</text>
<polyline fill="none" stroke="#bfbfbf" points="770.868,-397.5 799.868,-397.5 "/>
<text text-anchor="middle" x="785.368" y="-385.5" font-family="Helvetica,sans-Serif" font-size="10.00"> </text>
<polyline fill="none" stroke="#bfbfbf" points="770.868,-378.5 799.868,-378.5 "/>
<text text-anchor="middle" x="785.368" y="-366.5" font-family="Helvetica,sans-Serif" font-size="10.00"> </text>
</g>
<!-- Node3&#45;&gt;Node1 -->
<g id="edge2" class="edge"><title>Node3&#45;&gt;Node1</title>
<path fill="none" stroke="#404040" d="M796.004,-359.126C797.816,-353.225 799.418,-346.973 800.368,-341 809.513,-283.458 822.197,-261.72 795.368,-210 761.168,-144.073 733.157,-135.343 665.368,-105 527.632,-43.3481 346.293,-31.7623 258.871,-29.9844"/>
<polygon fill="none" stroke="#404040" points="258.669,-29.9813 252.606,-33.8844 246.671,-29.7885 252.734,-25.8854 258.669,-29.9813"/>
<text text-anchor="middle" x="814.368" y="-184" font-family="Helvetica,sans-Serif" font-size="10.00"> +num_lamps</text>
</g>
<!-- Node3&#45;&gt;Node7 -->
<g id="edge15" class="edge"><title>Node3&#45;&gt;Node7</title>
<path fill="none" stroke="#404040" d="M770.819,-378.565C760.714,-372.817 746.871,-365.162 734.368,-359 716.517,-350.203 707.315,-355.195 693.368,-341 674.798,-322.1 691.239,-302.322 670.368,-286 628.924,-253.59 605.107,-277.543 553.368,-268 518.213,-261.516 478.026,-252.632 451.755,-246.624"/>
<polygon fill="none" stroke="#404040" points="451.416,-246.546 444.67,-249.095 439.722,-243.85 446.467,-241.3 451.416,-246.546"/>
<text text-anchor="middle" x="746.868" y="-316.5" font-family="Helvetica,sans-Serif" font-size="10.00"> +module_options_count</text>
<text text-anchor="middle" x="746.868" y="-305.5" font-family="Helvetica,sans-Serif" font-size="10.00">+options_count</text>
</g>
<!-- Node4 -->
<g id="node4" class="node"><title>Node4</title>
<g id="a_node4"><a xlink:href="a00029.html" target="_top" xlink:title="{hpd_module\n||+ TAILQ_ENTRY()\l}">
<polygon fill="none" stroke="black" points="216.368,-105.5 216.368,-162.5 316.368,-162.5 316.368,-105.5 216.368,-105.5"/>
<text text-anchor="middle" x="266.368" y="-150.5" font-family="Helvetica,sans-Serif" font-size="10.00">hpd_module</text>
<polyline fill="none" stroke="black" points="216.368,-143.5 316.368,-143.5 "/>
<text text-anchor="middle" x="266.368" y="-131.5" font-family="Helvetica,sans-Serif" font-size="10.00"> </text>
<polyline fill="none" stroke="black" points="216.368,-124.5 316.368,-124.5 "/>
<text text-anchor="start" x="224.368" y="-112.5" font-family="Helvetica,sans-Serif" font-size="10.00">+ TAILQ_ENTRY()</text>
</a>
</g>
</g>
<!-- Node4&#45;&gt;Node1 -->
<g id="edge3" class="edge"><title>Node4&#45;&gt;Node1</title>
<path fill="none" stroke="#404040" d="M250.557,-105.398C244.009,-93.9679 236.306,-80.5199 229.232,-68.1701"/>
<polygon fill="none" stroke="#404040" points="229.187,-68.091 222.734,-64.8729 223.222,-57.6783 229.675,-60.8965 229.187,-68.091"/>
<text text-anchor="middle" x="260.368" y="-79" font-family="Helvetica,sans-Serif" font-size="10.00"> +context</text>
</g>
<!-- Node4&#45;&gt;Node7 -->
<g id="edge18" class="edge"><title>Node4&#45;&gt;Node7</title>
<path fill="none" stroke="#404040" d="M316.608,-149.061C337.348,-156.424 360.819,-166.9 379.368,-181 386.91,-186.734 393.843,-194.069 399.866,-201.554"/>
<polygon fill="none" stroke="#404040" points="400.026,-201.765 406.828,-204.159 407.235,-211.358 400.433,-208.965 400.026,-201.765"/>
<text text-anchor="middle" x="427.868" y="-184" font-family="Helvetica,sans-Serif" font-size="10.00"> +option2module</text>
</g>
<!-- Node5 -->
<g id="node5" class="node"><title>Node5</title>
<g id="a_node5"><a xlink:href="a00030.html#a00123" target="_top" xlink:title="[Application API Callbacks] ">
<polygon fill="none" stroke="black" points="88.3676,-210.5 88.3676,-267.5 176.368,-267.5 176.368,-210.5 88.3676,-210.5"/>
<text text-anchor="middle" x="132.368" y="-255.5" font-family="Helvetica,sans-Serif" font-size="10.00">hpd_module_def</text>
<polyline fill="none" stroke="black" points="88.3676,-248.5 176.368,-248.5 "/>
<text text-anchor="middle" x="132.368" y="-236.5" font-family="Helvetica,sans-Serif" font-size="10.00"> </text>
<polyline fill="none" stroke="black" points="88.3676,-229.5 176.368,-229.5 "/>
<text text-anchor="middle" x="132.368" y="-217.5" font-family="Helvetica,sans-Serif" font-size="10.00"> </text>
</a>
</g>
</g>
<!-- Node5&#45;&gt;Node4 -->
<g id="edge4" class="edge"><title>Node5&#45;&gt;Node4</title>
<path fill="none" stroke="#404040" d="M166.986,-210.236C178.784,-200.87 192.094,-190.408 204.368,-181 209.164,-177.323 214.195,-173.514 219.228,-169.734"/>
<polygon fill="none" stroke="#404040" points="219.238,-169.727 221.649,-162.931 228.85,-162.542 226.439,-169.338 219.238,-169.727"/>
<text text-anchor="middle" x="215.868" y="-184" font-family="Helvetica,sans-Serif" font-size="10.00"> +def</text>
</g>
<!-- Node6 -->
<g id="node6" class="node"><title>Node6</title>
<polygon fill="none" stroke="#bfbfbf" points="87.3676,-359.5 87.3676,-416.5 171.368,-416.5 171.368,-359.5 87.3676,-359.5"/>
<text text-anchor="middle" x="129.368" y="-404.5" font-family="Helvetica,sans-Serif" font-size="10.00">enum hpd_error</text>
<polyline fill="none" stroke="#bfbfbf" points="87.3676,-397.5 171.368,-397.5 "/>
<text text-anchor="middle" x="129.368" y="-385.5" font-family="Helvetica,sans-Serif" font-size="10.00"> </text>
<polyline fill="none" stroke="#bfbfbf" points="87.3676,-378.5 171.368,-378.5 "/>
<text text-anchor="middle" x="129.368" y="-366.5" font-family="Helvetica,sans-Serif" font-size="10.00"> </text>
</g>
<!-- Node6&#45;&gt;Node5 -->
<g id="edge5" class="edge"><title>Node6&#45;&gt;Node5</title>
<path fill="none" stroke="#404040" d="M129.932,-359.35C130.391,-336.868 131.044,-304.855 131.559,-279.643"/>
<polygon fill="none" stroke="#404040" points="131.561,-279.523 127.684,-273.443 131.806,-267.526 135.683,-273.606 131.561,-279.523"/>
<text text-anchor="middle" x="164.868" y="-333" font-family="Helvetica,sans-Serif" font-size="10.00"> +on_create</text>
<text text-anchor="middle" x="164.868" y="-322" font-family="Helvetica,sans-Serif" font-size="10.00">+on_stop</text>
<text text-anchor="middle" x="164.868" y="-311" font-family="Helvetica,sans-Serif" font-size="10.00">+on_destroy</text>
<text text-anchor="middle" x="164.868" y="-300" font-family="Helvetica,sans-Serif" font-size="10.00">+on_start</text>
<text text-anchor="middle" x="164.868" y="-289" font-family="Helvetica,sans-Serif" font-size="10.00">+on_parse_opt</text>
</g>
<!-- Node7&#45;&gt;Node4 -->
<g id="edge6" class="edge"><title>Node7&#45;&gt;Node4</title>
<path fill="none" stroke="#404040" d="M407.157,-227.365C386.392,-213.742 349.399,-189.473 318.542,-169.229"/>
<polygon fill="none" stroke="#404040" points="318.379,-169.122 311.168,-169.175 308.346,-162.54 315.557,-162.486 318.379,-169.122"/>
<text text-anchor="middle" x="362.868" y="-184" font-family="Helvetica,sans-Serif" font-size="10.00"> +hpd</text>
</g>
<!-- Node10 -->
<g id="node10" class="node"><title>Node10</title>
<g id="a_node10"><a xlink:href="a00018.html#a00113" target="_top" xlink:title="{hpd_configuration\n||}">
<polygon fill="none" stroke="black" points="563.868,-105.5 563.868,-162.5 656.868,-162.5 656.868,-105.5 563.868,-105.5"/>
<text text-anchor="middle" x="610.368" y="-150.5" font-family="Helvetica,sans-Serif" font-size="10.00">hpd_configuration</text>
<polyline fill="none" stroke="black" points="563.868,-143.5 656.868,-143.5 "/>
<text text-anchor="middle" x="610.368" y="-131.5" font-family="Helvetica,sans-Serif" font-size="10.00"> </text>
<polyline fill="none" stroke="black" points="563.868,-124.5 656.868,-124.5 "/>
<text text-anchor="middle" x="610.368" y="-112.5" font-family="Helvetica,sans-Serif" font-size="10.00"> </text>
</a>
</g>
</g>
<!-- Node7&#45;&gt;Node10 -->
<g id="edge12" class="edge"><title>Node7&#45;&gt;Node10</title>
<path fill="none" stroke="#404040" d="M439.492,-235.803C467.152,-231.405 524.513,-219.476 564.368,-192 572.069,-186.691 579.143,-179.726 585.314,-172.496"/>
<polygon fill="none" stroke="#404040" points="585.696,-172.012 586.283,-164.825 593.143,-162.602 592.556,-169.789 585.696,-172.012"/>
<text text-anchor="middle" x="589.868" y="-184" font-family="Helvetica,sans-Serif" font-size="10.00"> +hpd</text>
</g>
<!-- Node7&#45;&gt;Node18 -->
<g id="edge23" class="edge"><title>Node7&#45;&gt;Node18</title>
<path fill="none" stroke="#404040" d="M407.363,-231.418C371.15,-216.527 285.932,-181.5 284.368,-181 254.161,-171.344 242.494,-174.696 209.478,-163.273"/>
<polygon fill="none" stroke="#404040" points="209.212,-163.174 202.197,-164.843 197.958,-159.01 204.973,-157.34 209.212,-163.174"/>
<text text-anchor="middle" x="321.868" y="-184" font-family="Helvetica,sans-Serif" font-size="10.00"> +hpd</text>
</g>
<!-- Node8 -->
<g id="node8" class="node"><title>Node8</title>
<polygon fill="none" stroke="#bfbfbf" points="519.368,-359.5 519.368,-416.5 621.368,-416.5 621.368,-359.5 519.368,-359.5"/>
<text text-anchor="middle" x="570.368" y="-404.5" font-family="Helvetica,sans-Serif" font-size="10.00">struct hpd_modules</text>
<polyline fill="none" stroke="#bfbfbf" points="519.368,-397.5 621.368,-397.5 "/>
<text text-anchor="middle" x="570.368" y="-385.5" font-family="Helvetica,sans-Serif" font-size="10.00"> </text>
<polyline fill="none" stroke="#bfbfbf" points="519.368,-378.5 621.368,-378.5 "/>
<text text-anchor="middle" x="570.368" y="-366.5" font-family="Helvetica,sans-Serif" font-size="10.00"> </text>
</g>
<!-- Node8&#45;&gt;Node7 -->
<g id="edge7" class="edge"><title>Node8&#45;&gt;Node7</title>
<path fill="none" stroke="#404040" d="M566.457,-359.357C561.975,-337.027 552.596,-306.112 533.368,-286 511.32,-262.939 475.946,-250.972 451.285,-245.1"/>
<polygon fill="none" stroke="#404040" points="451.224,-245.086 444.515,-247.732 439.493,-242.558 446.201,-239.912 451.224,-245.086"/>
<text text-anchor="middle" x="585.368" y="-311" font-family="Helvetica,sans-Serif" font-size="10.00"> +modules</text>
</g>
<!-- Node9 -->
<g id="node9" class="node"><title>Node9</title>
<polygon fill="none" stroke="#bfbfbf" points="639.368,-359.5 639.368,-416.5 725.368,-416.5 725.368,-359.5 639.368,-359.5"/>
<text text-anchor="middle" x="682.368" y="-404.5" font-family="Helvetica,sans-Serif" font-size="10.00">hpd_ev_loop_t *</text>
<polyline fill="none" stroke="#bfbfbf" points="639.368,-397.5 725.368,-397.5 "/>
<text text-anchor="middle" x="682.368" y="-385.5" font-family="Helvetica,sans-Serif" font-size="10.00"> </text>
<polyline fill="none" stroke="#bfbfbf" points="639.368,-378.5 725.368,-378.5 "/>
<text text-anchor="middle" x="682.368" y="-366.5" font-family="Helvetica,sans-Serif" font-size="10.00"> </text>
</g>
<!-- Node9&#45;&gt;Node7 -->
<g id="edge8" class="edge"><title>Node9&#45;&gt;Node7</title>
<path fill="none" stroke="#404040" d="M656.402,-359.07C651.504,-353.278 646.597,-347.083 642.368,-341 626.473,-318.138 634.448,-302.964 612.368,-286 605.918,-281.045 502.119,-257.492 451.159,-246.142"/>
<polygon fill="none" stroke="#404040" points="451.147,-246.14 444.423,-248.744 439.433,-243.539 446.157,-240.934 451.147,-246.14"/>
<text text-anchor="middle" x="656.368" y="-311" font-family="Helvetica,sans-Serif" font-size="10.00"> +loop</text>
</g>
<!-- Node10&#45;&gt;Node7 -->
<g id="edge10" class="edge"><title>Node10&#45;&gt;Node7</title>
<path fill="none" stroke="#404040" d="M563.781,-151.306C543.447,-159.177 519.664,-169.428 499.368,-181 481.612,-191.123 463.238,-204.802 449.004,-216.222"/>
<polygon fill="none" stroke="#404040" points="448.724,-216.452 446.617,-223.349 439.44,-224.056 441.548,-217.159 448.724,-216.452"/>
<text text-anchor="middle" x="531.868" y="-184" font-family="Helvetica,sans-Serif" font-size="10.00"> +configuration</text>
</g>
<!-- Node11 -->
<g id="node11" class="node"><title>Node11</title>
<polygon fill="none" stroke="#bfbfbf" points="562.868,-210.5 562.868,-267.5 665.868,-267.5 665.868,-210.5 562.868,-210.5"/>
<text text-anchor="middle" x="614.368" y="-255.5" font-family="Helvetica,sans-Serif" font-size="10.00">struct hpd_adapters</text>
<polyline fill="none" stroke="#bfbfbf" points="562.868,-248.5 665.868,-248.5 "/>
<text text-anchor="middle" x="614.368" y="-236.5" font-family="Helvetica,sans-Serif" font-size="10.00"> </text>
<polyline fill="none" stroke="#bfbfbf" points="562.868,-229.5 665.868,-229.5 "/>
<text text-anchor="middle" x="614.368" y="-217.5" font-family="Helvetica,sans-Serif" font-size="10.00"> </text>
</g>
<!-- Node11&#45;&gt;Node10 -->
<g id="edge11" class="edge"><title>Node11&#45;&gt;Node10</title>
<path fill="none" stroke="#404040" d="M613.448,-210.456C613.123,-201.105 612.745,-190.597 612.368,-181 612.288,-178.968 612.204,-176.886 612.118,-174.783"/>
<polygon fill="none" stroke="#404040" points="612.115,-174.718 607.867,-168.892 611.611,-162.729 615.86,-168.555 612.115,-174.718"/>
<text text-anchor="middle" x="636.868" y="-184" font-family="Helvetica,sans-Serif" font-size="10.00"> +adapters</text>
</g>
<!-- Node12 -->
<g id="node12" class="node"><title>Node12</title>
<polygon fill="none" stroke="#bfbfbf" points="684.368,-210.5 684.368,-267.5 786.368,-267.5 786.368,-210.5 684.368,-210.5"/>
<text text-anchor="middle" x="735.368" y="-255.5" font-family="Helvetica,sans-Serif" font-size="10.00">struct hpd_listeners</text>
<polyline fill="none" stroke="#bfbfbf" points="684.368,-248.5 786.368,-248.5 "/>
<text text-anchor="middle" x="735.368" y="-236.5" font-family="Helvetica,sans-Serif" font-size="10.00"> </text>
<polyline fill="none" stroke="#bfbfbf" points="684.368,-229.5 786.368,-229.5 "/>
<text text-anchor="middle" x="735.368" y="-217.5" font-family="Helvetica,sans-Serif" font-size="10.00"> </text>
</g>
<!-- Node12&#45;&gt;Node10 -->
<g id="edge13" class="edge"><title>Node12&#45;&gt;Node10</title>
<path fill="none" stroke="#404040" d="M701.87,-210.398C687.018,-198.16 669.358,-183.608 653.533,-170.568"/>
<polygon fill="none" stroke="#404040" points="653.219,-170.309 646.045,-169.581 643.958,-162.678 651.132,-163.407 653.219,-170.309"/>
<text text-anchor="middle" x="700.368" y="-184" font-family="Helvetica,sans-Serif" font-size="10.00"> +listeners</text>
</g>
<!-- Node13 -->
<g id="node13" class="node"><title>Node13</title>
<polygon fill="none" stroke="#bfbfbf" points="189.868,-359.5 189.868,-416.5 292.868,-416.5 292.868,-359.5 189.868,-359.5"/>
<text text-anchor="middle" x="241.368" y="-404.5" font-family="Helvetica,sans-Serif" font-size="10.00">hpd_argp_option_t *</text>
<polyline fill="none" stroke="#bfbfbf" points="189.868,-397.5 292.868,-397.5 "/>
<text text-anchor="middle" x="241.368" y="-385.5" font-family="Helvetica,sans-Serif" font-size="10.00"> </text>
<polyline fill="none" stroke="#bfbfbf" points="189.868,-378.5 292.868,-378.5 "/>
<text text-anchor="middle" x="241.368" y="-366.5" font-family="Helvetica,sans-Serif" font-size="10.00"> </text>
</g>
<!-- Node13&#45;&gt;Node7 -->
<g id="edge14" class="edge"><title>Node13&#45;&gt;Node7</title>
<path fill="none" stroke="#404040" d="M247.768,-359.362C254.358,-336.729 266.785,-305.386 288.368,-286 318.535,-258.904 365.351,-247.65 395.17,-243.059"/>
<polygon fill="none" stroke="#404040" points="395.292,-243.042 400.699,-238.272 407.183,-241.428 401.775,-246.199 395.292,-243.042"/>
<text text-anchor="middle" x="308.868" y="-311" font-family="Helvetica,sans-Serif" font-size="10.00"> +options</text>
</g>
<!-- Node14 -->
<g id="node14" class="node"><title>Node14</title>
<polygon fill="none" stroke="#bfbfbf" points="311.368,-359.5 311.368,-416.5 369.368,-416.5 369.368,-359.5 311.368,-359.5"/>
<text text-anchor="middle" x="340.368" y="-404.5" font-family="Helvetica,sans-Serif" font-size="10.00">ev_signal</text>
<polyline fill="none" stroke="#bfbfbf" points="311.368,-397.5 369.368,-397.5 "/>
<text text-anchor="middle" x="340.368" y="-385.5" font-family="Helvetica,sans-Serif" font-size="10.00"> </text>
<polyline fill="none" stroke="#bfbfbf" points="311.368,-378.5 369.368,-378.5 "/>
<text text-anchor="middle" x="340.368" y="-366.5" font-family="Helvetica,sans-Serif" font-size="10.00"> </text>
</g>
<!-- Node14&#45;&gt;Node7 -->
<g id="edge16" class="edge"><title>Node14&#45;&gt;Node7</title>
<path fill="none" stroke="#404040" d="M334.633,-359.243C331.717,-337.718 331.161,-307.955 344.368,-286 355.722,-267.125 377.984,-255.195 395.99,-248.228"/>
<polygon fill="none" stroke="#404040" points="395.995,-248.227 400.335,-242.468 407.32,-244.258 402.98,-250.018 395.995,-248.227"/>
<text text-anchor="middle" x="385.368" y="-316.5" font-family="Helvetica,sans-Serif" font-size="10.00"> +sigterm_watcher</text>
<text text-anchor="middle" x="385.368" y="-305.5" font-family="Helvetica,sans-Serif" font-size="10.00">+sigint_watcher</text>
</g>
<!-- Node15 -->
<g id="node15" class="node"><title>Node15</title>
<polygon fill="none" stroke="#bfbfbf" points="387.868,-359.5 387.868,-416.5 500.868,-416.5 500.868,-359.5 387.868,-359.5"/>
<text text-anchor="middle" x="444.368" y="-404.5" font-family="Helvetica,sans-Serif" font-size="10.00">struct hpd_ev_asyncs</text>
<polyline fill="none" stroke="#bfbfbf" points="387.868,-397.5 500.868,-397.5 "/>
<text text-anchor="middle" x="444.368" y="-385.5" font-family="Helvetica,sans-Serif" font-size="10.00"> </text>
<polyline fill="none" stroke="#bfbfbf" points="387.868,-378.5 500.868,-378.5 "/>
<text text-anchor="middle" x="444.368" y="-366.5" font-family="Helvetica,sans-Serif" font-size="10.00"> </text>
</g>
<!-- Node15&#45;&gt;Node7 -->
<g id="edge17" class="edge"><title>Node15&#45;&gt;Node7</title>
<path fill="none" stroke="#404040" d="M440.418,-359.35C437.206,-336.868 432.633,-304.855 429.031,-279.643"/>
<polygon fill="none" stroke="#404040" points="428.997,-279.405 424.189,-274.031 427.3,-267.526 432.108,-272.9 428.997,-279.405"/>
<text text-anchor="middle" x="483.868" y="-333" font-family="Helvetica,sans-Serif" font-size="10.00"> +respond_watchers</text>
<text text-anchor="middle" x="483.868" y="-322" font-family="Helvetica,sans-Serif" font-size="10.00">+request_watchers</text>
<text text-anchor="middle" x="483.868" y="-311" font-family="Helvetica,sans-Serif" font-size="10.00">+changed_watchers</text>
<text text-anchor="middle" x="483.868" y="-300" font-family="Helvetica,sans-Serif" font-size="10.00">+attached_watchers</text>
<text text-anchor="middle" x="483.868" y="-289" font-family="Helvetica,sans-Serif" font-size="10.00">+detached_watchers</text>
</g>
<!-- Node16 -->
<g id="node16" class="node"><title>Node16</title>
<polygon fill="none" stroke="#bfbfbf" points="194.868,-210.5 194.868,-267.5 235.868,-267.5 235.868,-210.5 194.868,-210.5"/>
<text text-anchor="middle" x="215.368" y="-255.5" font-family="Helvetica,sans-Serif" font-size="10.00">void *</text>
<polyline fill="none" stroke="#bfbfbf" points="194.868,-248.5 235.868,-248.5 "/>
<text text-anchor="middle" x="215.368" y="-236.5" font-family="Helvetica,sans-Serif" font-size="10.00"> </text>
<polyline fill="none" stroke="#bfbfbf" points="194.868,-229.5 235.868,-229.5 "/>
<text text-anchor="middle" x="215.368" y="-217.5" font-family="Helvetica,sans-Serif" font-size="10.00"> </text>
</g>
<!-- Node16&#45;&gt;Node4 -->
<g id="edge19" class="edge"><title>Node16&#45;&gt;Node4</title>
<path fill="none" stroke="#404040" d="M223.452,-210.45C226.663,-200.906 230.71,-190.279 235.368,-181 236.729,-178.289 238.224,-175.548 239.8,-172.827"/>
<polygon fill="none" stroke="#404040" points="239.857,-172.735 239.609,-165.528 246.166,-162.527 246.414,-169.734 239.857,-172.735"/>
<text text-anchor="middle" x="249.368" y="-184" font-family="Helvetica,sans-Serif" font-size="10.00"> +data</text>
</g>
<!-- Node17 -->
<g id="node17" class="node"><title>Node17</title>
<polygon fill="none" stroke="#bfbfbf" points="254.368,-210.5 254.368,-267.5 296.368,-267.5 296.368,-210.5 254.368,-210.5"/>
<text text-anchor="middle" x="275.368" y="-255.5" font-family="Helvetica,sans-Serif" font-size="10.00">char *</text>
<polyline fill="none" stroke="#bfbfbf" points="254.368,-248.5 296.368,-248.5 "/>
<text text-anchor="middle" x="275.368" y="-236.5" font-family="Helvetica,sans-Serif" font-size="10.00"> </text>
<polyline fill="none" stroke="#bfbfbf" points="254.368,-229.5 296.368,-229.5 "/>
<text text-anchor="middle" x="275.368" y="-217.5" font-family="Helvetica,sans-Serif" font-size="10.00"> </text>
</g>
<!-- Node17&#45;&gt;Node4 -->
<g id="edge20" class="edge"><title>Node17&#45;&gt;Node4</title>
<path fill="none" stroke="#404040" d="M269.848,-210.363C268.844,-204.334 267.936,-197.971 267.368,-192 266.842,-186.475 266.498,-180.635 266.283,-174.884"/>
<polygon fill="none" stroke="#404040" points="266.276,-174.587 262.136,-168.683 265.993,-162.591 270.133,-168.495 266.276,-174.587"/>
<text text-anchor="middle" x="275.868" y="-184" font-family="Helvetica,sans-Serif" font-size="10.00"> +id</text>
</g>
<!-- Node18&#45;&gt;Node1 -->
<g id="edge21" class="edge"><title>Node18&#45;&gt;Node1</title>
<path fill="none" stroke="#404040" d="M162.553,-105.3C165.223,-95.7428 168.8,-85.1462 173.368,-76 174.726,-73.2791 176.247,-70.5509 177.87,-67.8561"/>
<polygon fill="none" stroke="#404040" points="177.941,-67.7481 177.887,-60.5372 184.522,-57.7138 184.577,-64.9247 177.941,-67.7481"/>
<text text-anchor="middle" x="200.868" y="-79" font-family="Helvetica,sans-Serif" font-size="10.00"> +adapter_id</text>
</g>
</g>
</svg>
