<?xml version="1.0" encoding="UTF-8" standalone="no"?>
<!DOCTYPE svg PUBLIC "-//W3C//DTD SVG 1.1//EN"
 "http://www.w3.org/Graphics/SVG/1.1/DTD/svg11.dtd">
<!-- Generated by graphviz version 2.38.0 (20140413.2041)
 -->
<!-- Title: hpd_module Pages: 1 -->
<svg width="748pt" height="574pt"
 viewBox="0.00 0.00 748.00 574.00" xmlns="http://www.w3.org/2000/svg" xmlns:xlink="http://www.w3.org/1999/xlink">
<g id="graph0" class="graph" transform="scale(1 1) rotate(0) translate(4 570)">
<title>hpd_module</title>
<!-- Node1 -->
<g id="node1" class="node"><title>Node1</title>
<polygon fill="#bfbfbf" stroke="black" points="609,-254.5 609,-311.5 709,-311.5 709,-254.5 609,-254.5"/>
<text text-anchor="middle" x="659" y="-299.5" font-family="Helvetica,sans-Serif" font-size="10.00">hpd_module</text>
<polyline fill="none" stroke="black" points="609,-292.5 709,-292.5 "/>
<text text-anchor="middle" x="659" y="-280.5" font-family="Helvetica,sans-Serif" font-size="10.00"> </text>
<polyline fill="none" stroke="black" points="609,-273.5 709,-273.5 "/>
<text text-anchor="start" x="617" y="-261.5" font-family="Helvetica,sans-Serif" font-size="10.00">+ TAILQ_ENTRY()</text>
</g>
<!-- Node4 -->
<g id="node4" class="node"><title>Node4</title>
<g id="a_node4"><a xlink:href="a00009.html#a00091" target="_top" xlink:title="{hpd\n||}">
<polygon fill="none" stroke="black" points="325,-105.5 325,-162.5 357,-162.5 357,-105.5 325,-105.5"/>
<text text-anchor="middle" x="341" y="-150.5" font-family="Helvetica,sans-Serif" font-size="10.00">hpd</text>
<polyline fill="none" stroke="black" points="325,-143.5 357,-143.5 "/>
<text text-anchor="middle" x="341" y="-131.5" font-family="Helvetica,sans-Serif" font-size="10.00"> </text>
<polyline fill="none" stroke="black" points="325,-124.5 357,-124.5 "/>
<text text-anchor="middle" x="341" y="-112.5" font-family="Helvetica,sans-Serif" font-size="10.00"> </text>
</a>
</g>
</g>
<!-- Node1&#45;&gt;Node4 -->
<g id="edge14" class="edge"><title>Node1&#45;&gt;Node4</title>
<path fill="none" stroke="#404040" d="M619.511,-254.342C613.398,-248.79 607.599,-242.61 603,-236 588.23,-214.771 603.568,-197.909 584,-181 552.119,-153.451 426.293,-141.106 369.31,-136.845"/>
<polygon fill="none" stroke="#404040" points="368.986,-136.822 362.718,-140.387 357.016,-135.972 363.284,-132.407 368.986,-136.822"/>
<text text-anchor="middle" x="639.5" y="-206" font-family="Helvetica,sans-Serif" font-size="10.00"> +option2module</text>
</g>
<!-- Node2 -->
<g id="node2" class="node"><title>Node2</title>
<g id="a_node2"><a xlink:href="a00021.html#a00104" target="_top" xlink:title="[Application API Callbacks] ">
<polygon fill="none" stroke="black" points="532,-359.5 532,-416.5 620,-416.5 620,-359.5 532,-359.5"/>
<text text-anchor="middle" x="576" y="-404.5" font-family="Helvetica,sans-Serif" font-size="10.00">hpd_module_def</text>
<polyline fill="none" stroke="black" points="532,-397.5 620,-397.5 "/>
<text text-anchor="middle" x="576" y="-385.5" font-family="Helvetica,sans-Serif" font-size="10.00"> </text>
<polyline fill="none" stroke="black" points="532,-378.5 620,-378.5 "/>
<text text-anchor="middle" x="576" y="-366.5" font-family="Helvetica,sans-Serif" font-size="10.00"> </text>
</a>
</g>
</g>
<!-- Node2&#45;&gt;Node1 -->
<g id="edge1" class="edge"><title>Node2&#45;&gt;Node1</title>
<path fill="none" stroke="#404040" d="M598.242,-359.398C607.732,-347.622 618.948,-333.703 629.144,-321.05"/>
<polygon fill="none" stroke="#404040" points="629.167,-321.022 629.817,-313.84 636.696,-311.678 636.046,-318.86 629.167,-321.022"/>
<text text-anchor="middle" x="631.5" y="-333" font-family="Helvetica,sans-Serif" font-size="10.00"> +def</text>
</g>
<!-- Node3 -->
<g id="node3" class="node"><title>Node3</title>
<polygon fill="none" stroke="#bfbfbf" points="534,-508.5 534,-565.5 618,-565.5 618,-508.5 534,-508.5"/>
<text text-anchor="middle" x="576" y="-553.5" font-family="Helvetica,sans-Serif" font-size="10.00">enum hpd_error</text>
<polyline fill="none" stroke="#bfbfbf" points="534,-546.5 618,-546.5 "/>
<text text-anchor="middle" x="576" y="-534.5" font-family="Helvetica,sans-Serif" font-size="10.00"> </text>
<polyline fill="none" stroke="#bfbfbf" points="534,-527.5 618,-527.5 "/>
<text text-anchor="middle" x="576" y="-515.5" font-family="Helvetica,sans-Serif" font-size="10.00"> </text>
</g>
<!-- Node3&#45;&gt;Node2 -->
<g id="edge2" class="edge"><title>Node3&#45;&gt;Node2</title>
<path fill="none" stroke="#404040" d="M576,-508.35C576,-485.868 576,-453.855 576,-428.643"/>
<polygon fill="none" stroke="#404040" points="576,-428.526 572,-422.526 576,-416.526 580,-422.526 576,-428.526"/>
<text text-anchor="middle" x="608.5" y="-482" font-family="Helvetica,sans-Serif" font-size="10.00"> +on_create</text>
<text text-anchor="middle" x="608.5" y="-471" font-family="Helvetica,sans-Serif" font-size="10.00">+on_stop</text>
<text text-anchor="middle" x="608.5" y="-460" font-family="Helvetica,sans-Serif" font-size="10.00">+on_destroy</text>
<text text-anchor="middle" x="608.5" y="-449" font-family="Helvetica,sans-Serif" font-size="10.00">+on_start</text>
<text text-anchor="middle" x="608.5" y="-438" font-family="Helvetica,sans-Serif" font-size="10.00">+on_parse_opt</text>
</g>
<!-- Node4&#45;&gt;Node1 -->
<g id="edge3" class="edge"><title>Node4&#45;&gt;Node1</title>
<path fill="none" stroke="#404040" d="M357.094,-134.545C418.549,-133.183 637.118,-131.907 680,-181 694.812,-197.958 690.012,-222.618 681.289,-243.326"/>
<polygon fill="none" stroke="#404040" points="681.219,-243.477 682.303,-250.606 676.14,-254.35 675.055,-247.22 681.219,-243.477"/>
<text text-anchor="middle" x="702.5" y="-206" font-family="Helvetica,sans-Serif" font-size="10.00"> +hpd</text>
</g>
<!-- Node7 -->
<g id="node7" class="node"><title>Node7</title>
<g id="a_node7"><a xlink:href="a00005.html#a00087" target="_top" xlink:title="{configuration\n||}">
<polygon fill="none" stroke="black" points="243,-0.5 243,-57.5 315,-57.5 315,-0.5 243,-0.5"/>
<text text-anchor="middle" x="279" y="-45.5" font-family="Helvetica,sans-Serif" font-size="10.00">configuration</text>
<polyline fill="none" stroke="black" points="243,-38.5 315,-38.5 "/>
<text text-anchor="middle" x="279" y="-26.5" font-family="Helvetica,sans-Serif" font-size="10.00"> </text>
<polyline fill="none" stroke="black" points="243,-19.5 315,-19.5 "/>
<text text-anchor="middle" x="279" y="-7.5" font-family="Helvetica,sans-Serif" font-size="10.00"> </text>
</a>
</g>
</g>
<!-- Node4&#45;&gt;Node7 -->
<g id="edge8" class="edge"><title>Node4&#45;&gt;Node7</title>
<path fill="none" stroke="#404040" d="M324.815,-108.841C320.251,-101.854 315.348,-94.1759 311,-87 307.435,-81.1157 303.764,-74.8217 300.237,-68.642"/>
<polygon fill="none" stroke="#404040" points="299.992,-68.208 293.56,-64.9465 294.097,-57.7554 300.529,-61.0169 299.992,-68.208"/>
<text text-anchor="middle" x="323.5" y="-79" font-family="Helvetica,sans-Serif" font-size="10.00"> +hpd</text>
</g>
<!-- Node5 -->
<g id="node5" class="node"><title>Node5</title>
<polygon fill="none" stroke="#bfbfbf" points="0,-254.5 0,-311.5 82,-311.5 82,-254.5 0,-254.5"/>
<text text-anchor="middle" x="41" y="-299.5" font-family="Helvetica,sans-Serif" font-size="10.00">argp_option_t *</text>
<polyline fill="none" stroke="#bfbfbf" points="0,-292.5 82,-292.5 "/>
<text text-anchor="middle" x="41" y="-280.5" font-family="Helvetica,sans-Serif" font-size="10.00"> </text>
<polyline fill="none" stroke="#bfbfbf" points="0,-273.5 82,-273.5 "/>
<text text-anchor="middle" x="41" y="-261.5" font-family="Helvetica,sans-Serif" font-size="10.00"> </text>
</g>
<!-- Node5&#45;&gt;Node4 -->
<g id="edge4" class="edge"><title>Node5&#45;&gt;Node4</title>
<path fill="none" stroke="#404040" d="M51.6748,-254.15C62.357,-230.404 81.2204,-197.562 109,-181 179.957,-138.696 215.509,-188.762 294,-163 301.053,-160.685 308.18,-157.174 314.679,-153.413"/>
<polygon fill="none" stroke="#404040" points="314.728,-153.382 317.69,-146.808 324.898,-147.013 321.936,-153.588 314.728,-153.382"/>
<text text-anchor="middle" x="129.5" y="-206" font-family="Helvetica,sans-Serif" font-size="10.00"> +options</text>
</g>
<!-- Node6 -->
<g id="node6" class="node"><title>Node6</title>
<polygon fill="none" stroke="#bfbfbf" points="100.5,-254.5 100.5,-311.5 181.5,-311.5 181.5,-254.5 100.5,-254.5"/>
<text text-anchor="middle" x="141" y="-299.5" font-family="Helvetica,sans-Serif" font-size="10.00">struct modules</text>
<polyline fill="none" stroke="#bfbfbf" points="100.5,-292.5 181.5,-292.5 "/>
<text text-anchor="middle" x="141" y="-280.5" font-family="Helvetica,sans-Serif" font-size="10.00"> </text>
<polyline fill="none" stroke="#bfbfbf" points="100.5,-273.5 181.5,-273.5 "/>
<text text-anchor="middle" x="141" y="-261.5" font-family="Helvetica,sans-Serif" font-size="10.00"> </text>
</g>
<!-- Node6&#45;&gt;Node4 -->
<g id="edge5" class="edge"><title>Node6&#45;&gt;Node4</title>
<path fill="none" stroke="#404040" d="M147.259,-254.355C154.021,-231.077 167.182,-198.81 191,-181 228.217,-153.171 250.428,-179.159 294,-163 300.96,-160.419 308.051,-156.804 314.544,-153.027"/>
<polygon fill="none" stroke="#404040" points="314.584,-153.002 317.572,-146.439 324.779,-146.672 321.792,-153.235 314.584,-153.002"/>
<text text-anchor="middle" x="214" y="-206" font-family="Helvetica,sans-Serif" font-size="10.00"> +modules</text>
</g>
<!-- Node7&#45;&gt;Node4 -->
<g id="edge6" class="edge"><title>Node7&#45;&gt;Node4</title>
<path fill="none" stroke="#404040" d="M315.209,-49.0598C325.026,-56.1274 334.461,-65.1265 340,-76 342.694,-81.2888 344.181,-87.2275 344.878,-93.2216"/>
<polygon fill="none" stroke="#404040" points="344.885,-93.4207 349.107,-99.2669 345.334,-105.412 341.112,-99.5661 344.885,-93.4207"/>
<text text-anchor="middle" x="376.5" y="-79" font-family="Helvetica,sans-Serif" font-size="10.00"> +configuration</text>
</g>
<!-- Node8 -->
<g id="node8" class="node"><title>Node8</title>
<polygon fill="none" stroke="#bfbfbf" points="104,-105.5 104,-162.5 186,-162.5 186,-105.5 104,-105.5"/>
<text text-anchor="middle" x="145" y="-150.5" font-family="Helvetica,sans-Serif" font-size="10.00">struct adapters</text>
<polyline fill="none" stroke="#bfbfbf" points="104,-143.5 186,-143.5 "/>
<text text-anchor="middle" x="145" y="-131.5" font-family="Helvetica,sans-Serif" font-size="10.00"> </text>
<polyline fill="none" stroke="#bfbfbf" points="104,-124.5 186,-124.5 "/>
<text text-anchor="middle" x="145" y="-112.5" font-family="Helvetica,sans-Serif" font-size="10.00"> </text>
</g>
<!-- Node8&#45;&gt;Node7 -->
<g id="edge7" class="edge"><title>Node8&#45;&gt;Node7</title>
<path fill="none" stroke="#404040" d="M164.848,-105.247C172.855,-95.2554 182.647,-84.3896 193,-76 204.716,-66.5055 218.689,-58.0497 231.931,-51.059"/>
<polygon fill="none" stroke="#404040" points="232.113,-50.9668 235.656,-44.6861 242.816,-45.5408 239.273,-51.8216 232.113,-50.9668"/>
<text text-anchor="middle" x="216.5" y="-79" font-family="Helvetica,sans-Serif" font-size="10.00"> +adapters</text>
</g>
<!-- Node9 -->
<g id="node9" class="node"><title>Node9</title>
<polygon fill="none" stroke="#bfbfbf" points="204.5,-105.5 204.5,-162.5 285.5,-162.5 285.5,-105.5 204.5,-105.5"/>
<text text-anchor="middle" x="245" y="-150.5" font-family="Helvetica,sans-Serif" font-size="10.00">struct listeners</text>
<polyline fill="none" stroke="#bfbfbf" points="204.5,-143.5 285.5,-143.5 "/>
<text text-anchor="middle" x="245" y="-131.5" font-family="Helvetica,sans-Serif" font-size="10.00"> </text>
<polyline fill="none" stroke="#bfbfbf" points="204.5,-124.5 285.5,-124.5 "/>
<text text-anchor="middle" x="245" y="-112.5" font-family="Helvetica,sans-Serif" font-size="10.00"> </text>
</g>
<!-- Node9&#45;&gt;Node7 -->
<g id="edge9" class="edge"><title>Node9&#45;&gt;Node7</title>
<path fill="none" stroke="#404040" d="M242.19,-105.475C242.071,-95.9329 242.918,-85.3012 246,-76 246.854,-73.4226 247.908,-70.8658 249.109,-68.3552"/>
<polygon fill="none" stroke="#404040" points="249.221,-68.1566 248.707,-60.9639 255.149,-57.7228 255.663,-64.9156 249.221,-68.1566"/>
<text text-anchor="middle" x="269" y="-79" font-family="Helvetica,sans-Serif" font-size="10.00"> +listeners</text>
</g>
<!-- Node10 -->
<g id="node10" class="node"><title>Node10</title>
<polygon fill="none" stroke="#bfbfbf" points="200,-254.5 200,-311.5 286,-311.5 286,-254.5 200,-254.5"/>
<text text-anchor="middle" x="243" y="-299.5" font-family="Helvetica,sans-Serif" font-size="10.00">hpd_ev_loop_t *</text>
<polyline fill="none" stroke="#bfbfbf" points="200,-292.5 286,-292.5 "/>
<text text-anchor="middle" x="243" y="-280.5" font-family="Helvetica,sans-Serif" font-size="10.00"> </text>
<polyline fill="none" stroke="#bfbfbf" points="200,-273.5 286,-273.5 "/>
<text text-anchor="middle" x="243" y="-261.5" font-family="Helvetica,sans-Serif" font-size="10.00"> </text>
</g>
<!-- Node10&#45;&gt;Node4 -->
<g id="edge10" class="edge"><title>Node10&#45;&gt;Node4</title>
<path fill="none" stroke="#404040" d="M240.524,-254.136C240.029,-232.268 242.705,-202.098 258,-181 268.5,-166.517 278.305,-171.584 294,-163 300.62,-159.38 307.657,-155.31 314.215,-151.419"/>
<polygon fill="none" stroke="#404040" points="314.357,-151.333 317.437,-144.813 324.641,-145.149 321.56,-151.669 314.357,-151.333"/>
<text text-anchor="middle" x="272" y="-206" font-family="Helvetica,sans-Serif" font-size="10.00"> +loop</text>
</g>
<!-- Node11 -->
<g id="node11" class="node"><title>Node11</title>
<polygon fill="none" stroke="#bfbfbf" points="304.5,-254.5 304.5,-311.5 333.5,-311.5 333.5,-254.5 304.5,-254.5"/>
<text text-anchor="middle" x="319" y="-299.5" font-family="Helvetica,sans-Serif" font-size="10.00">int</text>
<polyline fill="none" stroke="#bfbfbf" points="304.5,-292.5 333.5,-292.5 "/>
<text text-anchor="middle" x="319" y="-280.5" font-family="Helvetica,sans-Serif" font-size="10.00"> </text>
<polyline fill="none" stroke="#bfbfbf" points="304.5,-273.5 333.5,-273.5 "/>
<text text-anchor="middle" x="319" y="-261.5" font-family="Helvetica,sans-Serif" font-size="10.00"> </text>
</g>
<!-- Node11&#45;&gt;Node4 -->
<g id="edge11" class="edge"><title>Node11&#45;&gt;Node4</title>
<path fill="none" stroke="#404040" d="M304.248,-258.991C300.47,-251.897 296.931,-243.874 295,-236 289.179,-212.259 285.646,-203.584 295,-181 299.349,-170.5 307.386,-161.148 315.54,-153.663"/>
<polygon fill="none" stroke="#404040" points="315.754,-153.484 317.784,-146.564 324.952,-145.777 322.922,-152.696 315.754,-153.484"/>
<text text-anchor="middle" x="330" y="-206" font-family="Helvetica,sans-Serif" font-size="10.00"> +options_count</text>
</g>
<!-- Node12 -->
<g id="node12" class="node"><title>Node12</title>
<polygon fill="none" stroke="#bfbfbf" points="358,-254.5 358,-311.5 416,-311.5 416,-254.5 358,-254.5"/>
<text text-anchor="middle" x="387" y="-299.5" font-family="Helvetica,sans-Serif" font-size="10.00">ev_signal</text>
<polyline fill="none" stroke="#bfbfbf" points="358,-292.5 416,-292.5 "/>
<text text-anchor="middle" x="387" y="-280.5" font-family="Helvetica,sans-Serif" font-size="10.00"> </text>
<polyline fill="none" stroke="#bfbfbf" points="358,-273.5 416,-273.5 "/>
<text text-anchor="middle" x="387" y="-261.5" font-family="Helvetica,sans-Serif" font-size="10.00"> </text>
</g>
<!-- Node12&#45;&gt;Node4 -->
<g id="edge12" class="edge"><title>Node12&#45;&gt;Node4</title>
<path fill="none" stroke="#404040" d="M383.036,-254.439C379.584,-233.814 373.744,-205.127 365,-181 364.137,-178.618 363.174,-176.204 362.143,-173.795"/>
<polygon fill="none" stroke="#404040" points="362.029,-173.552 355.865,-169.81 356.948,-162.681 363.112,-166.422 362.029,-173.552"/>
<text text-anchor="middle" x="421" y="-211.5" font-family="Helvetica,sans-Serif" font-size="10.00"> +sigterm_watcher</text>
<text text-anchor="middle" x="421" y="-200.5" font-family="Helvetica,sans-Serif" font-size="10.00">+sigint_watcher</text>
</g>
<!-- Node13 -->
<g id="node13" class="node"><title>Node13</title>
<polygon fill="none" stroke="#bfbfbf" points="435.5,-254.5 435.5,-311.5 548.5,-311.5 548.5,-254.5 435.5,-254.5"/>
<text text-anchor="middle" x="492" y="-299.5" font-family="Helvetica,sans-Serif" font-size="10.00">struct hpd_ev_asyncs</text>
<polyline fill="none" stroke="#bfbfbf" points="435.5,-292.5 548.5,-292.5 "/>
<text text-anchor="middle" x="492" y="-280.5" font-family="Helvetica,sans-Serif" font-size="10.00"> </text>
<polyline fill="none" stroke="#bfbfbf" points="435.5,-273.5 548.5,-273.5 "/>
<text text-anchor="middle" x="492" y="-261.5" font-family="Helvetica,sans-Serif" font-size="10.00"> </text>
</g>
<!-- Node13&#45;&gt;Node4 -->
<g id="edge13" class="edge"><title>Node13&#45;&gt;Node4</title>
<path fill="none" stroke="#404040" d="M491.653,-254.305C489.932,-231.944 484.093,-201.012 466,-181 440.852,-153.184 397.406,-142.15 368.935,-137.798"/>
<polygon fill="none" stroke="#404040" points="368.925,-137.797 362.455,-140.981 357.027,-136.233 363.497,-133.049 368.925,-137.797"/>
<text text-anchor="middle" x="535.5" y="-228" font-family="Helvetica,sans-Serif" font-size="10.00"> +respond_watchers</text>
<text text-anchor="middle" x="535.5" y="-217" font-family="Helvetica,sans-Serif" font-size="10.00">+request_watchers</text>
<text text-anchor="middle" x="535.5" y="-206" font-family="Helvetica,sans-Serif" font-size="10.00">+changed_watchers</text>
<text text-anchor="middle" x="535.5" y="-195" font-family="Helvetica,sans-Serif" font-size="10.00">+attached_watchers</text>
<text text-anchor="middle" x="535.5" y="-184" font-family="Helvetica,sans-Serif" font-size="10.00">+detached_watchers</text>
</g>
<!-- Node14 -->
<g id="node14" class="node"><title>Node14</title>
<polygon fill="none" stroke="#bfbfbf" points="638.5,-359.5 638.5,-416.5 679.5,-416.5 679.5,-359.5 638.5,-359.5"/>
<text text-anchor="middle" x="659" y="-404.5" font-family="Helvetica,sans-Serif" font-size="10.00">void *</text>
<polyline fill="none" stroke="#bfbfbf" points="638.5,-397.5 679.5,-397.5 "/>
<text text-anchor="middle" x="659" y="-385.5" font-family="Helvetica,sans-Serif" font-size="10.00"> </text>
<polyline fill="none" stroke="#bfbfbf" points="638.5,-378.5 679.5,-378.5 "/>
<text text-anchor="middle" x="659" y="-366.5" font-family="Helvetica,sans-Serif" font-size="10.00"> </text>
</g>
<!-- Node14&#45;&gt;Node1 -->
<g id="edge15" class="edge"><title>Node14&#45;&gt;Node1</title>
<path fill="none" stroke="#404040" d="M659,-359.398C659,-348.545 659,-335.873 659,-324.049"/>
<polygon fill="none" stroke="#404040" points="659,-323.678 655,-317.678 659,-311.678 663,-317.678 659,-323.678"/>
<text text-anchor="middle" x="673" y="-333" font-family="Helvetica,sans-Serif" font-size="10.00"> +data</text>
</g>
<!-- Node15 -->
<g id="node15" class="node"><title>Node15</title>
<polygon fill="none" stroke="#bfbfbf" points="698,-359.5 698,-416.5 740,-416.5 740,-359.5 698,-359.5"/>
<text text-anchor="middle" x="719" y="-404.5" font-family="Helvetica,sans-Serif" font-size="10.00">char *</text>
<polyline fill="none" stroke="#bfbfbf" points="698,-397.5 740,-397.5 "/>
<text text-anchor="middle" x="719" y="-385.5" font-family="Helvetica,sans-Serif" font-size="10.00"> </text>
<polyline fill="none" stroke="#bfbfbf" points="698,-378.5 740,-378.5 "/>
<text text-anchor="middle" x="719" y="-366.5" font-family="Helvetica,sans-Serif" font-size="10.00"> </text>
</g>
<!-- Node15&#45;&gt;Node1 -->
<g id="edge16" class="edge"><title>Node15&#45;&gt;Node1</title>
<path fill="none" stroke="#404040" d="M706.434,-359.304C701.871,-349.846 696.483,-339.31 691,-330 689.445,-327.359 687.788,-324.672 686.078,-321.99"/>
<polygon fill="none" stroke="#404040" points="685.943,-321.785 679.296,-318.988 679.322,-311.777 685.968,-314.574 685.943,-321.785"/>
<text text-anchor="middle" x="705.5" y="-333" font-family="Helvetica,sans-Serif" font-size="10.00"> +id</text>
</g>
</g>
</svg>
