<?xml version="1.0" encoding="UTF-8" standalone="no"?>
<!DOCTYPE svg PUBLIC "-//W3C//DTD SVG 1.1//EN"
 "http://www.w3.org/Graphics/SVG/1.1/DTD/svg11.dtd">
<!-- Generated by graphviz version 2.38.0 (20140413.2041)
 -->
<!-- Title: hpd/test/daemon_api_test.cpp Pages: 1 -->
<svg width="779pt" height="274pt"
 viewBox="0.00 0.00 778.50 274.00" xmlns="http://www.w3.org/2000/svg" xmlns:xlink="http://www.w3.org/1999/xlink">
<g id="graph0" class="graph" transform="scale(1 1) rotate(0) translate(4 270)">
<title>hpd/test/daemon_api_test.cpp</title>
<!-- Node1 -->
<g id="node1" class="node"><title>Node1</title>
<polygon fill="#bfbfbf" stroke="black" points="171,-235.5 171,-265.5 278,-265.5 278,-235.5 171,-235.5"/>
<text text-anchor="start" x="179" y="-253.5" font-family="Helvetica,sans-Serif" font-size="10.00">hpd/test/daemon_api</text>
<text text-anchor="middle" x="224.5" y="-242.5" font-family="Helvetica,sans-Serif" font-size="10.00">_test.cpp</text>
</g>
<!-- Node2 -->
<g id="node2" class="node"><title>Node2</title>
<polygon fill="none" stroke="#bfbfbf" points="97,-179.5 97,-198.5 168,-198.5 168,-179.5 97,-179.5"/>
<text text-anchor="middle" x="132.5" y="-186.5" font-family="Helvetica,sans-Serif" font-size="10.00">gtest/gtest.h</text>
</g>
<!-- Node1&#45;&gt;Node2 -->
<g id="edge1" class="edge"><title>Node1&#45;&gt;Node2</title>
<path fill="none" stroke="midnightblue" d="M202.697,-235.399C188.088,-225.951 168.927,-213.559 154.315,-204.109"/>
<polygon fill="midnightblue" stroke="midnightblue" points="156.184,-201.15 145.887,-198.658 152.383,-207.027 156.184,-201.15"/>
</g>
<!-- Node3 -->
<g id="node3" class="node"><title>Node3</title>
<g id="a_node3"><a xlink:href="a00072.html" target="_top" xlink:title="hpd/hpd_api.h">
<polygon fill="none" stroke="black" points="186,-179.5 186,-198.5 263,-198.5 263,-179.5 186,-179.5"/>
<text text-anchor="middle" x="224.5" y="-186.5" font-family="Helvetica,sans-Serif" font-size="10.00">hpd/hpd_api.h</text>
</a>
</g>
</g>
<!-- Node1&#45;&gt;Node3 -->
<g id="edge2" class="edge"><title>Node1&#45;&gt;Node3</title>
<path fill="none" stroke="midnightblue" d="M224.5,-235.399C224.5,-227.466 224.5,-217.458 224.5,-208.858"/>
<polygon fill="midnightblue" stroke="midnightblue" points="228,-208.658 224.5,-198.658 221,-208.658 228,-208.658"/>
</g>
<!-- Node11 -->
<g id="node11" class="node"><title>Node11</title>
<g id="a_node11"><a xlink:href="a00017.html" target="_top" xlink:title="daemon.h">
<polygon fill="none" stroke="black" points="482,-179.5 482,-198.5 541,-198.5 541,-179.5 482,-179.5"/>
<text text-anchor="middle" x="511.5" y="-186.5" font-family="Helvetica,sans-Serif" font-size="10.00">daemon.h</text>
</a>
</g>
</g>
<!-- Node1&#45;&gt;Node11 -->
<g id="edge12" class="edge"><title>Node1&#45;&gt;Node11</title>
<path fill="none" stroke="midnightblue" d="M278.146,-238.378C334.458,-226.704 421.661,-208.625 471.994,-198.19"/>
<polygon fill="midnightblue" stroke="midnightblue" points="472.768,-201.604 481.85,-196.147 471.347,-194.75 472.768,-201.604"/>
</g>
<!-- Node4 -->
<g id="node4" class="node"><title>Node4</title>
<g id="a_node4"><a xlink:href="a00071.html" target="_top" xlink:title="hpd/hpd_adapter_api.h">
<polygon fill="none" stroke="black" points="0,-118 0,-137 115,-137 115,-118 0,-118"/>
<text text-anchor="middle" x="57.5" y="-125" font-family="Helvetica,sans-Serif" font-size="10.00">hpd/hpd_adapter_api.h</text>
</a>
</g>
</g>
<!-- Node3&#45;&gt;Node4 -->
<g id="edge3" class="edge"><title>Node3&#45;&gt;Node4</title>
<path fill="none" stroke="midnightblue" d="M200.573,-179.475C171.803,-169.225 123.344,-151.959 90.8983,-140.399"/>
<polygon fill="midnightblue" stroke="midnightblue" points="91.9773,-137.068 81.3826,-137.009 89.6279,-143.662 91.9773,-137.068"/>
</g>
<!-- Node9 -->
<g id="node9" class="node"><title>Node9</title>
<g id="a_node9"><a xlink:href="a00073.html" target="_top" xlink:title="hpd/hpd_application\l_api.h">
<polygon fill="none" stroke="black" points="133,-112.5 133,-142.5 236,-142.5 236,-112.5 133,-112.5"/>
<text text-anchor="start" x="141" y="-130.5" font-family="Helvetica,sans-Serif" font-size="10.00">hpd/hpd_application</text>
<text text-anchor="middle" x="184.5" y="-119.5" font-family="Helvetica,sans-Serif" font-size="10.00">_api.h</text>
</a>
</g>
</g>
<!-- Node3&#45;&gt;Node9 -->
<g id="edge8" class="edge"><title>Node3&#45;&gt;Node9</title>
<path fill="none" stroke="midnightblue" d="M218.769,-179.475C213.757,-172.019 206.249,-160.852 199.538,-150.869"/>
<polygon fill="midnightblue" stroke="midnightblue" points="202.411,-148.869 193.927,-142.523 196.602,-152.775 202.411,-148.869"/>
</g>
<!-- Node10 -->
<g id="node10" class="node"><title>Node10</title>
<g id="a_node10"><a xlink:href="a00074.html" target="_top" xlink:title="hpd/hpd_daemon_api.h">
<polygon fill="none" stroke="black" points="181,-56.5 181,-75.5 298,-75.5 298,-56.5 181,-56.5"/>
<text text-anchor="middle" x="239.5" y="-63.5" font-family="Helvetica,sans-Serif" font-size="10.00">hpd/hpd_daemon_api.h</text>
</a>
</g>
</g>
<!-- Node3&#45;&gt;Node10 -->
<g id="edge10" class="edge"><title>Node3&#45;&gt;Node10</title>
<path fill="none" stroke="midnightblue" d="M229.63,-179.407C234.558,-170.614 241.66,-156.381 244.5,-143 248.608,-123.64 246.204,-100.939 243.497,-85.4221"/>
<polygon fill="midnightblue" stroke="midnightblue" points="246.919,-84.6837 241.562,-75.5431 240.05,-86.0294 246.919,-84.6837"/>
</g>
<!-- Node5 -->
<g id="node5" class="node"><title>Node5</title>
<g id="a_node5"><a xlink:href="a00075.html" target="_top" xlink:title="hpd/hpd_shared_api.h">
<polygon fill="none" stroke="black" points="50.5,-56.5 50.5,-75.5 162.5,-75.5 162.5,-56.5 50.5,-56.5"/>
<text text-anchor="middle" x="106.5" y="-63.5" font-family="Helvetica,sans-Serif" font-size="10.00">hpd/hpd_shared_api.h</text>
</a>
</g>
</g>
<!-- Node4&#45;&gt;Node5 -->
<g id="edge4" class="edge"><title>Node4&#45;&gt;Node5</title>
<path fill="none" stroke="midnightblue" d="M64.5205,-117.975C71.9433,-108.962 83.8327,-94.5246 93.0667,-83.3118"/>
<polygon fill="midnightblue" stroke="midnightblue" points="95.8372,-85.4534 99.4925,-75.5091 90.4336,-81.0034 95.8372,-85.4534"/>
</g>
<!-- Node6 -->
<g id="node6" class="node"><title>Node6</title>
<g id="a_node6"><a xlink:href="a00030.html" target="_top" xlink:title="hpd/hpd_types.h">
<polygon fill="none" stroke="black" points="195,-0.5 195,-19.5 284,-19.5 284,-0.5 195,-0.5"/>
<text text-anchor="middle" x="239.5" y="-7.5" font-family="Helvetica,sans-Serif" font-size="10.00">hpd/hpd_types.h</text>
</a>
</g>
</g>
<!-- Node5&#45;&gt;Node6 -->
<g id="edge5" class="edge"><title>Node5&#45;&gt;Node6</title>
<path fill="none" stroke="midnightblue" d="M127.574,-56.4435C149.56,-47.5171 184.234,-33.4387 209.164,-23.3168"/>
<polygon fill="midnightblue" stroke="midnightblue" points="210.576,-26.5213 218.524,-19.5164 207.942,-20.0355 210.576,-26.5213"/>
</g>
<!-- Node7 -->
<g id="node7" class="node"><title>Node7</title>
<polygon fill="none" stroke="#bfbfbf" points="32.5,-0.5 32.5,-19.5 84.5,-19.5 84.5,-0.5 32.5,-0.5"/>
<text text-anchor="middle" x="58.5" y="-7.5" font-family="Helvetica,sans-Serif" font-size="10.00">stddef.h</text>
</g>
<!-- Node5&#45;&gt;Node7 -->
<g id="edge6" class="edge"><title>Node5&#45;&gt;Node7</title>
<path fill="none" stroke="midnightblue" d="M98.5738,-56.083C91.6539,-48.2982 81.4346,-36.8015 73.048,-27.3665"/>
<polygon fill="midnightblue" stroke="midnightblue" points="75.5383,-24.8999 66.2787,-19.7511 70.3065,-29.5505 75.5383,-24.8999"/>
</g>
<!-- Node8 -->
<g id="node8" class="node"><title>Node8</title>
<polygon fill="none" stroke="#bfbfbf" points="102.5,-0.5 102.5,-19.5 154.5,-19.5 154.5,-0.5 102.5,-0.5"/>
<text text-anchor="middle" x="128.5" y="-7.5" font-family="Helvetica,sans-Serif" font-size="10.00">stdarg.h</text>
</g>
<!-- Node5&#45;&gt;Node8 -->
<g id="edge7" class="edge"><title>Node5&#45;&gt;Node8</title>
<path fill="none" stroke="midnightblue" d="M110.133,-56.083C113.112,-48.77 117.426,-38.1814 121.125,-29.1034"/>
<polygon fill="midnightblue" stroke="midnightblue" points="124.403,-30.3326 124.935,-19.7511 117.92,-27.6914 124.403,-30.3326"/>
</g>
<!-- Node9&#45;&gt;Node5 -->
<g id="edge9" class="edge"><title>Node9&#45;&gt;Node5</title>
<path fill="none" stroke="midnightblue" d="M166.015,-112.399C153.98,-103.218 138.3,-91.2579 126.057,-81.9182"/>
<polygon fill="midnightblue" stroke="midnightblue" points="127.923,-78.9401 117.85,-75.6578 123.678,-84.5056 127.923,-78.9401"/>
</g>
<!-- Node10&#45;&gt;Node6 -->
<g id="edge11" class="edge"><title>Node10&#45;&gt;Node6</title>
<path fill="none" stroke="midnightblue" d="M239.5,-56.083C239.5,-49.0059 239.5,-38.8611 239.5,-29.9865"/>
<polygon fill="midnightblue" stroke="midnightblue" points="243,-29.751 239.5,-19.7511 236,-29.7511 243,-29.751"/>
</g>
<!-- Node11&#45;&gt;Node6 -->
<g id="edge13" class="edge"><title>Node11&#45;&gt;Node6</title>
<path fill="none" stroke="midnightblue" d="M481.877,-186.367C447.568,-183.063 390.975,-173.087 353.5,-143 319.23,-115.486 336.047,-88.5333 306.5,-56 294.942,-43.2741 279.074,-32.4104 265.682,-24.5468"/>
<polygon fill="midnightblue" stroke="midnightblue" points="267.32,-21.4526 256.889,-19.5961 263.885,-27.5522 267.32,-21.4526"/>
</g>
<!-- Node12 -->
<g id="node12" class="node"><title>Node12</title>
<g id="a_node12"><a xlink:href="a00053.html" target="_top" xlink:title="hpd/common/hpd_common.h">
<polygon fill="none" stroke="black" points="363,-118 363,-137 506,-137 506,-118 363,-118"/>
<text text-anchor="middle" x="434.5" y="-125" font-family="Helvetica,sans-Serif" font-size="10.00">hpd/common/hpd_common.h</text>
</a>
</g>
</g>
<!-- Node11&#45;&gt;Node12 -->
<g id="edge14" class="edge"><title>Node11&#45;&gt;Node12</title>
<path fill="none" stroke="midnightblue" d="M500.468,-179.475C488.232,-170.02 468.271,-154.596 453.507,-143.187"/>
<polygon fill="midnightblue" stroke="midnightblue" points="455.565,-140.354 445.512,-137.009 451.285,-145.893 455.565,-140.354"/>
</g>
<!-- Node16 -->
<g id="node16" class="node"><title>Node16</title>
<g id="a_node16"><a xlink:href="a00055.html" target="_top" xlink:title="hpd/common/hpd_queue.h">
<polygon fill="none" stroke="black" points="524,-118 524,-137 655,-137 655,-118 524,-118"/>
<text text-anchor="middle" x="589.5" y="-125" font-family="Helvetica,sans-Serif" font-size="10.00">hpd/common/hpd_queue.h</text>
</a>
</g>
</g>
<!-- Node11&#45;&gt;Node16 -->
<g id="edge18" class="edge"><title>Node11&#45;&gt;Node16</title>
<path fill="none" stroke="midnightblue" d="M522.675,-179.475C535.071,-170.02 555.29,-154.596 570.246,-143.187"/>
<polygon fill="midnightblue" stroke="midnightblue" points="572.517,-145.857 578.345,-137.009 568.272,-140.291 572.517,-145.857"/>
</g>
<!-- Node18 -->
<g id="node18" class="node"><title>Node18</title>
<polygon fill="none" stroke="#bfbfbf" points="673,-118 673,-137 708,-137 708,-118 673,-118"/>
<text text-anchor="middle" x="690.5" y="-125" font-family="Helvetica,sans-Serif" font-size="10.00">ev.h</text>
</g>
<!-- Node11&#45;&gt;Node18 -->
<g id="edge20" class="edge"><title>Node11&#45;&gt;Node18</title>
<path fill="none" stroke="midnightblue" d="M541.218,-181.345C572.548,-173.851 623.014,-160.413 664.5,-143 665.501,-142.58 666.512,-142.131 667.526,-141.661"/>
<polygon fill="midnightblue" stroke="midnightblue" points="669.183,-144.745 676.482,-137.066 665.987,-138.517 669.183,-144.745"/>
</g>
<!-- Node19 -->
<g id="node19" class="node"><title>Node19</title>
<polygon fill="none" stroke="#bfbfbf" points="726.5,-118 726.5,-137 770.5,-137 770.5,-118 726.5,-118"/>
<text text-anchor="middle" x="748.5" y="-125" font-family="Helvetica,sans-Serif" font-size="10.00">argp.h</text>
</g>
<!-- Node11&#45;&gt;Node19 -->
<g id="edge21" class="edge"><title>Node11&#45;&gt;Node19</title>
<path fill="none" stroke="midnightblue" d="M541.053,-183.668C581.566,-177.253 656.297,-163.71 717.5,-143 719.164,-142.437 720.857,-141.811 722.55,-141.143"/>
<polygon fill="midnightblue" stroke="midnightblue" points="724.267,-144.214 732.048,-137.024 721.481,-137.792 724.267,-144.214"/>
</g>
<!-- Node13 -->
<g id="node13" class="node"><title>Node13</title>
<polygon fill="none" stroke="#bfbfbf" points="354.5,-56.5 354.5,-75.5 402.5,-75.5 402.5,-56.5 354.5,-56.5"/>
<text text-anchor="middle" x="378.5" y="-63.5" font-family="Helvetica,sans-Serif" font-size="10.00">stdlib.h</text>
</g>
<!-- Node12&#45;&gt;Node13 -->
<g id="edge15" class="edge"><title>Node12&#45;&gt;Node13</title>
<path fill="none" stroke="midnightblue" d="M426.477,-117.975C417.91,-108.873 404.139,-94.241 393.543,-82.983"/>
<polygon fill="midnightblue" stroke="midnightblue" points="395.911,-80.3923 386.509,-75.5091 390.814,-85.1899 395.911,-80.3923"/>
</g>
<!-- Node14 -->
<g id="node14" class="node"><title>Node14</title>
<polygon fill="none" stroke="#bfbfbf" points="421,-56.5 421,-75.5 470,-75.5 470,-56.5 421,-56.5"/>
<text text-anchor="middle" x="445.5" y="-63.5" font-family="Helvetica,sans-Serif" font-size="10.00">string.h</text>
</g>
<!-- Node12&#45;&gt;Node14 -->
<g id="edge16" class="edge"><title>Node12&#45;&gt;Node14</title>
<path fill="none" stroke="midnightblue" d="M436.076,-117.975C437.628,-109.58 440.05,-96.4806 442.05,-85.6631"/>
<polygon fill="midnightblue" stroke="midnightblue" points="445.551,-85.9788 443.927,-75.5091 438.667,-84.7062 445.551,-85.9788"/>
</g>
<!-- Node15 -->
<g id="node15" class="node"><title>Node15</title>
<polygon fill="none" stroke="#bfbfbf" points="488.5,-56.5 488.5,-75.5 534.5,-75.5 534.5,-56.5 488.5,-56.5"/>
<text text-anchor="middle" x="511.5" y="-63.5" font-family="Helvetica,sans-Serif" font-size="10.00">stdio.h</text>
</g>
<!-- Node12&#45;&gt;Node15 -->
<g id="edge17" class="edge"><title>Node12&#45;&gt;Node15</title>
<path fill="none" stroke="midnightblue" d="M445.532,-117.975C457.768,-108.52 477.729,-93.0961 492.493,-81.6871"/>
<polygon fill="midnightblue" stroke="midnightblue" points="494.715,-84.3931 500.488,-75.5091 490.435,-78.8541 494.715,-84.3931"/>
</g>
<!-- Node17 -->
<g id="node17" class="node"><title>Node17</title>
<polygon fill="none" stroke="#bfbfbf" points="553,-56.5 553,-75.5 642,-75.5 642,-56.5 553,-56.5"/>
<text text-anchor="middle" x="597.5" y="-63.5" font-family="Helvetica,sans-Serif" font-size="10.00">bsd/sys/queue.h</text>
</g>
<!-- Node16&#45;&gt;Node17 -->
<g id="edge19" class="edge"><title>Node16&#45;&gt;Node17</title>
<path fill="none" stroke="midnightblue" d="M590.646,-117.975C591.775,-109.58 593.536,-96.4806 594.991,-85.6631"/>
<polygon fill="midnightblue" stroke="midnightblue" points="598.492,-85.8863 596.356,-75.5091 591.555,-84.9535 598.492,-85.8863"/>
</g>
</g>
</svg>
