<?xml version="1.0" encoding="UTF-8" standalone="no"?>
<!DOCTYPE svg PUBLIC "-//W3C//DTD SVG 1.1//EN"
 "http://www.w3.org/Graphics/SVG/1.1/DTD/svg11.dtd">
<!-- Generated by graphviz version 2.38.0 (20140413.2041)
 -->
<!-- Title: hpd_adapter Pages: 1 -->
<svg width="1090pt" height="502pt"
 viewBox="0.00 0.00 1089.50 502.00" xmlns="http://www.w3.org/2000/svg" xmlns:xlink="http://www.w3.org/1999/xlink">
<g id="graph0" class="graph" transform="scale(1 1) rotate(0) translate(4 498)">
<title>hpd_adapter</title>
<!-- Node1 -->
<g id="node1" class="node"><title>Node1</title>
<polygon fill="#bfbfbf" stroke="black" points="194.5,-0.5 194.5,-57.5 294.5,-57.5 294.5,-0.5 194.5,-0.5"/>
<text text-anchor="middle" x="244.5" y="-45.5" font-family="Helvetica,sans-Serif" font-size="10.00">hpd_adapter</text>
<polyline fill="none" stroke="black" points="194.5,-38.5 294.5,-38.5 "/>
<text text-anchor="middle" x="244.5" y="-26.5" font-family="Helvetica,sans-Serif" font-size="10.00"> </text>
<polyline fill="none" stroke="black" points="194.5,-19.5 294.5,-19.5 "/>
<text text-anchor="start" x="202.5" y="-7.5" font-family="Helvetica,sans-Serif" font-size="10.00">+ TAILQ_ENTRY()</text>
</g>
<!-- Node2 -->
<g id="node2" class="node"><title>Node2</title>
<polygon fill="none" stroke="#bfbfbf" points="0,-105.5 0,-162.5 71,-162.5 71,-105.5 0,-105.5"/>
<text text-anchor="middle" x="35.5" y="-150.5" font-family="Helvetica,sans-Serif" font-size="10.00">hpd_map_t *</text>
<polyline fill="none" stroke="#bfbfbf" points="0,-143.5 71,-143.5 "/>
<text text-anchor="middle" x="35.5" y="-131.5" font-family="Helvetica,sans-Serif" font-size="10.00"> </text>
<polyline fill="none" stroke="#bfbfbf" points="0,-124.5 71,-124.5 "/>
<text text-anchor="middle" x="35.5" y="-112.5" font-family="Helvetica,sans-Serif" font-size="10.00"> </text>
</g>
<!-- Node2&#45;&gt;Node1 -->
<g id="edge1" class="edge"><title>Node2&#45;&gt;Node1</title>
<path fill="none" stroke="#404040" d="M29.2679,-105.299C28.5722,-95.0804 29.9224,-84.0457 36.5,-76 54.7261,-53.7061 127.743,-41.5137 182.148,-35.3827"/>
<polygon fill="none" stroke="#404040" points="182.21,-35.3762 187.748,-30.7579 194.141,-34.0939 188.603,-38.7121 182.21,-35.3762"/>
<text text-anchor="middle" x="61.5" y="-79" font-family="Helvetica,sans-Serif" font-size="10.00"> +attributes</text>
</g>
<!-- Node3 -->
<g id="node3" class="node"><title>Node3</title>
<polygon fill="none" stroke="#bfbfbf" points="116,-436.5 116,-493.5 151,-493.5 151,-436.5 116,-436.5"/>
<text text-anchor="middle" x="133.5" y="-481.5" font-family="Helvetica,sans-Serif" font-size="10.00">char</text>
<polyline fill="none" stroke="#bfbfbf" points="116,-474.5 151,-474.5 "/>
<text text-anchor="middle" x="133.5" y="-462.5" font-family="Helvetica,sans-Serif" font-size="10.00"> </text>
<polyline fill="none" stroke="#bfbfbf" points="116,-455.5 151,-455.5 "/>
<text text-anchor="middle" x="133.5" y="-443.5" font-family="Helvetica,sans-Serif" font-size="10.00"> </text>
</g>
<!-- Node3&#45;&gt;Node1 -->
<g id="edge2" class="edge"><title>Node3&#45;&gt;Node1</title>
<path fill="none" stroke="#404040" d="M125.107,-436.494C123.608,-430.457 122.277,-424.058 121.5,-418 109.706,-326.069 106.112,-297.561 136.5,-210 154.933,-156.886 190.37,-102.419 215.624,-67.5193"/>
<polygon fill="none" stroke="#404040" points="215.676,-67.4485 216.003,-60.2448 222.778,-57.7762 222.451,-64.9799 215.676,-67.4485"/>
<text text-anchor="middle" x="157" y="-184" font-family="Helvetica,sans-Serif" font-size="10.00"> +id</text>
</g>
<!-- Node7 -->
<g id="node7" class="node"><title>Node7</title>
<g id="a_node7"><a xlink:href="a00017.html#a00110" target="_top" xlink:title="{hpd\n||}">
<polygon fill="none" stroke="black" points="543.5,-216 543.5,-273 575.5,-273 575.5,-216 543.5,-216"/>
<text text-anchor="middle" x="559.5" y="-261" font-family="Helvetica,sans-Serif" font-size="10.00">hpd</text>
<polyline fill="none" stroke="black" points="543.5,-254 575.5,-254 "/>
<text text-anchor="middle" x="559.5" y="-242" font-family="Helvetica,sans-Serif" font-size="10.00"> </text>
<polyline fill="none" stroke="black" points="543.5,-235 575.5,-235 "/>
<text text-anchor="middle" x="559.5" y="-223" font-family="Helvetica,sans-Serif" font-size="10.00"> </text>
</a>
</g>
</g>
<!-- Node3&#45;&gt;Node7 -->
<g id="edge9" class="edge"><title>Node3&#45;&gt;Node7</title>
<path fill="none" stroke="#404040" d="M151.17,-452.477C162.292,-444.242 175.931,-432.144 183.5,-418 209.186,-370.005 162.494,-333.917 202.5,-297 221.99,-279.015 414.385,-283.616 440.5,-279 472.21,-273.395 507.626,-262.853 531.512,-255.087"/>
<polygon fill="none" stroke="#404040" points="531.795,-254.992 536.23,-249.306 543.184,-251.213 538.75,-256.899 531.795,-254.992"/>
<text text-anchor="middle" x="233.5" y="-360.5" font-family="Helvetica,sans-Serif" font-size="10.00"> +argv0</text>
<text text-anchor="middle" x="233.5" y="-349.5" font-family="Helvetica,sans-Serif" font-size="10.00">+option2name</text>
</g>
<!-- Node20 -->
<g id="node20" class="node"><title>Node20</title>
<g id="a_node20"><a xlink:href="a00012.html#a00104" target="_top" xlink:title="{data\n|+ key\l+ path\l|}">
<polygon fill="none" stroke="black" points="145.5,-210.5 145.5,-278.5 189.5,-278.5 189.5,-210.5 145.5,-210.5"/>
<text text-anchor="middle" x="167.5" y="-266.5" font-family="Helvetica,sans-Serif" font-size="10.00">data</text>
<polyline fill="none" stroke="black" points="145.5,-259.5 189.5,-259.5 "/>
<text text-anchor="start" x="153.5" y="-247.5" font-family="Helvetica,sans-Serif" font-size="10.00">+ key</text>
<text text-anchor="start" x="153.5" y="-236.5" font-family="Helvetica,sans-Serif" font-size="10.00">+ path</text>
<polyline fill="none" stroke="black" points="145.5,-229.5 189.5,-229.5 "/>
<text text-anchor="middle" x="167.5" y="-217.5" font-family="Helvetica,sans-Serif" font-size="10.00"> </text>
</a>
</g>
</g>
<!-- Node3&#45;&gt;Node20 -->
<g id="edge23" class="edge"><title>Node3&#45;&gt;Node20</title>
<path fill="none" stroke="#404040" d="M129.063,-436.42C124.68,-402.738 120.463,-344.399 134.5,-297 135.766,-292.727 137.503,-288.471 139.524,-284.341"/>
<polygon fill="none" stroke="#404040" points="139.567,-284.263 138.991,-277.075 145.405,-273.778 145.981,-280.966 139.567,-284.263"/>
<text text-anchor="middle" x="159" y="-410" font-family="Helvetica,sans-Serif" font-size="10.00"> +host</text>
<text text-anchor="middle" x="159" y="-399" font-family="Helvetica,sans-Serif" font-size="10.00">+url</text>
<text text-anchor="middle" x="159" y="-388" font-family="Helvetica,sans-Serif" font-size="10.00">+value</text>
<text text-anchor="middle" x="159" y="-377" font-family="Helvetica,sans-Serif" font-size="10.00">+hdr_field</text>
<text text-anchor="middle" x="159" y="-366" font-family="Helvetica,sans-Serif" font-size="10.00">+body</text>
<text text-anchor="middle" x="159" y="-355" font-family="Helvetica,sans-Serif" font-size="10.00">+port</text>
<text text-anchor="middle" x="159" y="-344" font-family="Helvetica,sans-Serif" font-size="10.00">+hdr_value</text>
<text text-anchor="middle" x="159" y="-333" font-family="Helvetica,sans-Serif" font-size="10.00">+protocol</text>
<text text-anchor="middle" x="159" y="-322" font-family="Helvetica,sans-Serif" font-size="10.00">+field</text>
<text text-anchor="middle" x="159" y="-311" font-family="Helvetica,sans-Serif" font-size="10.00">+method</text>
<text text-anchor="middle" x="159" y="-300" font-family="Helvetica,sans-Serif" font-size="10.00">...</text>
</g>
<!-- Node4 -->
<g id="node4" class="node"><title>Node4</title>
<polygon fill="none" stroke="#bfbfbf" points="878.5,-105.5 878.5,-162.5 964.5,-162.5 964.5,-105.5 878.5,-105.5"/>
<text text-anchor="middle" x="921.5" y="-150.5" font-family="Helvetica,sans-Serif" font-size="10.00">hpd_devices_t *</text>
<polyline fill="none" stroke="#bfbfbf" points="878.5,-143.5 964.5,-143.5 "/>
<text text-anchor="middle" x="921.5" y="-131.5" font-family="Helvetica,sans-Serif" font-size="10.00"> </text>
<polyline fill="none" stroke="#bfbfbf" points="878.5,-124.5 964.5,-124.5 "/>
<text text-anchor="middle" x="921.5" y="-112.5" font-family="Helvetica,sans-Serif" font-size="10.00"> </text>
</g>
<!-- Node4&#45;&gt;Node1 -->
<g id="edge3" class="edge"><title>Node4&#45;&gt;Node1</title>
<path fill="none" stroke="#404040" d="M893.259,-105.359C880.119,-94.2285 863.623,-82.5052 846.5,-76 749.203,-39.0362 440.581,-31.7395 307.061,-30.3258"/>
<polygon fill="none" stroke="#404040" points="306.698,-30.3224 300.66,-34.2642 294.699,-30.2065 300.737,-26.2646 306.698,-30.3224"/>
<text text-anchor="middle" x="889" y="-79" font-family="Helvetica,sans-Serif" font-size="10.00"> +devices</text>
</g>
<!-- Node5 -->
<g id="node5" class="node"><title>Node5</title>
<g id="a_node5"><a xlink:href="a00018.html#a00113" target="_top" xlink:title="{hpd_configuration\n||}">
<polygon fill="none" stroke="black" points="308,-105.5 308,-162.5 401,-162.5 401,-105.5 308,-105.5"/>
<text text-anchor="middle" x="354.5" y="-150.5" font-family="Helvetica,sans-Serif" font-size="10.00">hpd_configuration</text>
<polyline fill="none" stroke="black" points="308,-143.5 401,-143.5 "/>
<text text-anchor="middle" x="354.5" y="-131.5" font-family="Helvetica,sans-Serif" font-size="10.00"> </text>
<polyline fill="none" stroke="black" points="308,-124.5 401,-124.5 "/>
<text text-anchor="middle" x="354.5" y="-112.5" font-family="Helvetica,sans-Serif" font-size="10.00"> </text>
</a>
</g>
</g>
<!-- Node5&#45;&gt;Node1 -->
<g id="edge4" class="edge"><title>Node5&#45;&gt;Node1</title>
<path fill="none" stroke="#404040" d="M325.022,-105.398C312.075,-93.2751 296.704,-78.8824 282.88,-65.9375"/>
<polygon fill="none" stroke="#404040" points="282.819,-65.8803 275.705,-64.6991 274.059,-57.6783 281.173,-58.8595 282.819,-65.8803"/>
<text text-anchor="middle" x="336" y="-79" font-family="Helvetica,sans-Serif" font-size="10.00"> +configuration</text>
</g>
<!-- Node5&#45;&gt;Node7 -->
<g id="edge10" class="edge"><title>Node5&#45;&gt;Node7</title>
<path fill="none" stroke="#404040" d="M382.013,-162.66C393.25,-172.872 406.813,-183.914 420.5,-192 456.4,-213.208 502.537,-228.2 531.572,-236.349"/>
<polygon fill="none" stroke="#404040" points="531.668,-236.375 538.505,-234.084 543.25,-239.515 536.412,-241.806 531.668,-236.375"/>
<text text-anchor="middle" x="453" y="-184" font-family="Helvetica,sans-Serif" font-size="10.00"> +configuration</text>
</g>
<!-- Node6 -->
<g id="node6" class="node"><title>Node6</title>
<polygon fill="none" stroke="#bfbfbf" points="208,-216 208,-273 311,-273 311,-216 208,-216"/>
<text text-anchor="middle" x="259.5" y="-261" font-family="Helvetica,sans-Serif" font-size="10.00">struct hpd_adapters</text>
<polyline fill="none" stroke="#bfbfbf" points="208,-254 311,-254 "/>
<text text-anchor="middle" x="259.5" y="-242" font-family="Helvetica,sans-Serif" font-size="10.00"> </text>
<polyline fill="none" stroke="#bfbfbf" points="208,-235 311,-235 "/>
<text text-anchor="middle" x="259.5" y="-223" font-family="Helvetica,sans-Serif" font-size="10.00"> </text>
</g>
<!-- Node6&#45;&gt;Node5 -->
<g id="edge5" class="edge"><title>Node6&#45;&gt;Node5</title>
<path fill="none" stroke="#404040" d="M277.083,-215.74C284.678,-204.525 293.995,-191.726 303.5,-181 306.441,-177.682 309.604,-174.356 312.862,-171.097"/>
<polygon fill="none" stroke="#404040" points="312.973,-170.99 314.524,-163.947 321.621,-162.67 320.07,-169.713 312.973,-170.99"/>
<text text-anchor="middle" x="327" y="-184" font-family="Helvetica,sans-Serif" font-size="10.00"> +adapters</text>
</g>
<!-- Node7&#45;&gt;Node5 -->
<g id="edge6" class="edge"><title>Node7&#45;&gt;Node5</title>
<path fill="none" stroke="#404040" d="M543.483,-225.726C530.191,-211.894 510.18,-193.079 489.5,-181 465.889,-167.209 437.528,-156.757 412.908,-149.329"/>
<polygon fill="none" stroke="#404040" points="412.685,-149.264 405.809,-151.436 401.159,-145.924 408.036,-143.752 412.685,-149.264"/>
<text text-anchor="middle" x="517" y="-184" font-family="Helvetica,sans-Serif" font-size="10.00"> +hpd</text>
</g>
<!-- Node14 -->
<g id="node14" class="node"><title>Node14</title>
<g id="a_node14"><a xlink:href="a00029.html" target="_top" xlink:title="{hpd_module\n||+ TAILQ_ENTRY()\l}">
<polygon fill="none" stroke="black" points="653.5,-105.5 653.5,-162.5 753.5,-162.5 753.5,-105.5 653.5,-105.5"/>
<text text-anchor="middle" x="703.5" y="-150.5" font-family="Helvetica,sans-Serif" font-size="10.00">hpd_module</text>
<polyline fill="none" stroke="black" points="653.5,-143.5 753.5,-143.5 "/>
<text text-anchor="middle" x="703.5" y="-131.5" font-family="Helvetica,sans-Serif" font-size="10.00"> </text>
<polyline fill="none" stroke="black" points="653.5,-124.5 753.5,-124.5 "/>
<text text-anchor="start" x="661.5" y="-112.5" font-family="Helvetica,sans-Serif" font-size="10.00">+ TAILQ_ENTRY()</text>
</a>
</g>
</g>
<!-- Node7&#45;&gt;Node14 -->
<g id="edge18" class="edge"><title>Node7&#45;&gt;Node14</title>
<path fill="none" stroke="#404040" d="M575.626,-232.791C590.785,-222.603 613.998,-206.693 633.5,-192 642.508,-185.213 651.984,-177.737 660.952,-170.496"/>
<polygon fill="none" stroke="#404040" points="661.132,-170.35 663.26,-163.46 670.439,-162.774 668.31,-169.664 661.132,-170.35"/>
<text text-anchor="middle" x="660" y="-184" font-family="Helvetica,sans-Serif" font-size="10.00"> +hpd</text>
</g>
<!-- Node8 -->
<g id="node8" class="node"><title>Node8</title>
<polygon fill="none" stroke="#bfbfbf" points="756.5,-436.5 756.5,-493.5 858.5,-493.5 858.5,-436.5 756.5,-436.5"/>
<text text-anchor="middle" x="807.5" y="-481.5" font-family="Helvetica,sans-Serif" font-size="10.00">struct hpd_modules</text>
<polyline fill="none" stroke="#bfbfbf" points="756.5,-474.5 858.5,-474.5 "/>
<text text-anchor="middle" x="807.5" y="-462.5" font-family="Helvetica,sans-Serif" font-size="10.00"> </text>
<polyline fill="none" stroke="#bfbfbf" points="756.5,-455.5 858.5,-455.5 "/>
<text text-anchor="middle" x="807.5" y="-443.5" font-family="Helvetica,sans-Serif" font-size="10.00"> </text>
</g>
<!-- Node8&#45;&gt;Node7 -->
<g id="edge7" class="edge"><title>Node8&#45;&gt;Node7</title>
<path fill="none" stroke="#404040" d="M812.701,-436.402C817.974,-399.078 820.767,-333.042 783.5,-297 757.146,-271.512 654.424,-290.159 619.5,-279 608.023,-275.333 596.263,-269.345 586.231,-263.439"/>
<polygon fill="none" stroke="#404040" points="585.941,-263.26 578.734,-263.495 575.744,-256.933 582.951,-256.697 585.941,-263.26"/>
<text text-anchor="middle" x="839.5" y="-355" font-family="Helvetica,sans-Serif" font-size="10.00"> +modules</text>
</g>
<!-- Node9 -->
<g id="node9" class="node"><title>Node9</title>
<polygon fill="none" stroke="#bfbfbf" points="876.5,-436.5 876.5,-493.5 962.5,-493.5 962.5,-436.5 876.5,-436.5"/>
<text text-anchor="middle" x="919.5" y="-481.5" font-family="Helvetica,sans-Serif" font-size="10.00">hpd_ev_loop_t *</text>
<polyline fill="none" stroke="#bfbfbf" points="876.5,-474.5 962.5,-474.5 "/>
<text text-anchor="middle" x="919.5" y="-462.5" font-family="Helvetica,sans-Serif" font-size="10.00"> </text>
<polyline fill="none" stroke="#bfbfbf" points="876.5,-455.5 962.5,-455.5 "/>
<text text-anchor="middle" x="919.5" y="-443.5" font-family="Helvetica,sans-Serif" font-size="10.00"> </text>
</g>
<!-- Node9&#45;&gt;Node7 -->
<g id="edge8" class="edge"><title>Node9&#45;&gt;Node7</title>
<path fill="none" stroke="#404040" d="M919.575,-436.279C918.023,-398.178 909.003,-330.543 866.5,-297 823.298,-262.906 672.221,-294.789 619.5,-279 607.958,-275.543 596.185,-269.6 586.159,-263.671"/>
<polygon fill="none" stroke="#404040" points="585.859,-263.483 578.651,-263.689 575.688,-257.115 582.896,-256.908 585.859,-263.483"/>
<text text-anchor="middle" x="932.5" y="-355" font-family="Helvetica,sans-Serif" font-size="10.00"> +loop</text>
</g>
<!-- Node10 -->
<g id="node10" class="node"><title>Node10</title>
<polygon fill="none" stroke="#bfbfbf" points="427,-436.5 427,-493.5 530,-493.5 530,-436.5 427,-436.5"/>
<text text-anchor="middle" x="478.5" y="-481.5" font-family="Helvetica,sans-Serif" font-size="10.00">hpd_argp_option_t *</text>
<polyline fill="none" stroke="#bfbfbf" points="427,-474.5 530,-474.5 "/>
<text text-anchor="middle" x="478.5" y="-462.5" font-family="Helvetica,sans-Serif" font-size="10.00"> </text>
<polyline fill="none" stroke="#bfbfbf" points="427,-455.5 530,-455.5 "/>
<text text-anchor="middle" x="478.5" y="-443.5" font-family="Helvetica,sans-Serif" font-size="10.00"> </text>
</g>
<!-- Node10&#45;&gt;Node7 -->
<g id="edge11" class="edge"><title>Node10&#45;&gt;Node7</title>
<path fill="none" stroke="#404040" d="M486.553,-436.328C488.241,-430.301 489.972,-423.948 491.5,-418 505.232,-364.537 495.795,-346.85 519.5,-297 523.692,-288.185 529.597,-279.466 535.587,-271.778"/>
<polygon fill="none" stroke="#404040" points="535.734,-271.6 536.467,-264.427 543.371,-262.345 542.638,-269.519 535.734,-271.6"/>
<text text-anchor="middle" x="540" y="-355" font-family="Helvetica,sans-Serif" font-size="10.00"> +options</text>
</g>
<!-- Node11 -->
<g id="node11" class="node"><title>Node11</title>
<polygon fill="none" stroke="#bfbfbf" points="322,-436.5 322,-493.5 351,-493.5 351,-436.5 322,-436.5"/>
<text text-anchor="middle" x="336.5" y="-481.5" font-family="Helvetica,sans-Serif" font-size="10.00">int</text>
<polyline fill="none" stroke="#bfbfbf" points="322,-474.5 351,-474.5 "/>
<text text-anchor="middle" x="336.5" y="-462.5" font-family="Helvetica,sans-Serif" font-size="10.00"> </text>
<polyline fill="none" stroke="#bfbfbf" points="322,-455.5 351,-455.5 "/>
<text text-anchor="middle" x="336.5" y="-443.5" font-family="Helvetica,sans-Serif" font-size="10.00"> </text>
</g>
<!-- Node11&#45;&gt;Node7 -->
<g id="edge12" class="edge"><title>Node11&#45;&gt;Node7</title>
<path fill="none" stroke="#404040" d="M351.09,-440.831C355.005,-433.733 358.874,-425.747 361.5,-418 378.974,-366.444 344.474,-337.811 380.5,-297 381.783,-295.547 481.625,-267.362 531.619,-253.317"/>
<polygon fill="none" stroke="#404040" points="531.89,-253.241 536.585,-247.768 543.443,-249.998 538.748,-255.471 531.89,-253.241"/>
<text text-anchor="middle" x="434" y="-360.5" font-family="Helvetica,sans-Serif" font-size="10.00"> +module_options_count</text>
<text text-anchor="middle" x="434" y="-349.5" font-family="Helvetica,sans-Serif" font-size="10.00">+options_count</text>
</g>
<!-- Node11&#45;&gt;Node20 -->
<g id="edge24" class="edge"><title>Node11&#45;&gt;Node20</title>
<path fill="none" stroke="#404040" d="M321.613,-452.765C311.518,-444.323 298.738,-431.865 291.5,-418 266.167,-369.474 305.952,-336.923 268.5,-297 248.754,-275.951 230.254,-291.48 200.194,-278.11"/>
<polygon fill="none" stroke="#404040" points="200.104,-278.062 192.925,-278.74 189.538,-272.374 196.717,-271.696 200.104,-278.062"/>
<text text-anchor="middle" x="326.5" y="-410" font-family="Helvetica,sans-Serif" font-size="10.00"> +count</text>
<text text-anchor="middle" x="326.5" y="-399" font-family="Helvetica,sans-Serif" font-size="10.00">+hdr_count</text>
<text text-anchor="middle" x="326.5" y="-388" font-family="Helvetica,sans-Serif" font-size="10.00">+state</text>
<text text-anchor="middle" x="326.5" y="-377" font-family="Helvetica,sans-Serif" font-size="10.00">+cur_path</text>
<text text-anchor="middle" x="326.5" y="-366" font-family="Helvetica,sans-Serif" font-size="10.00">+errors</text>
<text text-anchor="middle" x="326.5" y="-355" font-family="Helvetica,sans-Serif" font-size="10.00">+call_order</text>
<text text-anchor="middle" x="326.5" y="-344" font-family="Helvetica,sans-Serif" font-size="10.00">+_errors</text>
<text text-anchor="middle" x="326.5" y="-333" font-family="Helvetica,sans-Serif" font-size="10.00">+hdr_field_l</text>
<text text-anchor="middle" x="326.5" y="-322" font-family="Helvetica,sans-Serif" font-size="10.00">+cur_key_value</text>
<text text-anchor="middle" x="326.5" y="-311" font-family="Helvetica,sans-Serif" font-size="10.00">+hdr_value_l</text>
<text text-anchor="middle" x="326.5" y="-300" font-family="Helvetica,sans-Serif" font-size="10.00">...</text>
</g>
<!-- Node12 -->
<g id="node12" class="node"><title>Node12</title>
<polygon fill="none" stroke="#bfbfbf" points="548.5,-436.5 548.5,-493.5 606.5,-493.5 606.5,-436.5 548.5,-436.5"/>
<text text-anchor="middle" x="577.5" y="-481.5" font-family="Helvetica,sans-Serif" font-size="10.00">ev_signal</text>
<polyline fill="none" stroke="#bfbfbf" points="548.5,-474.5 606.5,-474.5 "/>
<text text-anchor="middle" x="577.5" y="-462.5" font-family="Helvetica,sans-Serif" font-size="10.00"> </text>
<polyline fill="none" stroke="#bfbfbf" points="548.5,-455.5 606.5,-455.5 "/>
<text text-anchor="middle" x="577.5" y="-443.5" font-family="Helvetica,sans-Serif" font-size="10.00"> </text>
</g>
<!-- Node12&#45;&gt;Node7 -->
<g id="edge13" class="edge"><title>Node12&#45;&gt;Node7</title>
<path fill="none" stroke="#404040" d="M575.22,-436.327C572.078,-398.178 566.395,-329.197 562.791,-285.455"/>
<polygon fill="none" stroke="#404040" points="562.775,-285.252 558.296,-279.601 561.79,-273.293 566.269,-278.944 562.775,-285.252"/>
<text text-anchor="middle" x="615.5" y="-360.5" font-family="Helvetica,sans-Serif" font-size="10.00"> +sigterm_watcher</text>
<text text-anchor="middle" x="615.5" y="-349.5" font-family="Helvetica,sans-Serif" font-size="10.00">+sigint_watcher</text>
</g>
<!-- Node13 -->
<g id="node13" class="node"><title>Node13</title>
<polygon fill="none" stroke="#bfbfbf" points="625,-436.5 625,-493.5 738,-493.5 738,-436.5 625,-436.5"/>
<text text-anchor="middle" x="681.5" y="-481.5" font-family="Helvetica,sans-Serif" font-size="10.00">struct hpd_ev_asyncs</text>
<polyline fill="none" stroke="#bfbfbf" points="625,-474.5 738,-474.5 "/>
<text text-anchor="middle" x="681.5" y="-462.5" font-family="Helvetica,sans-Serif" font-size="10.00"> </text>
<polyline fill="none" stroke="#bfbfbf" points="625,-455.5 738,-455.5 "/>
<text text-anchor="middle" x="681.5" y="-443.5" font-family="Helvetica,sans-Serif" font-size="10.00"> </text>
</g>
<!-- Node13&#45;&gt;Node7 -->
<g id="edge14" class="edge"><title>Node13&#45;&gt;Node7</title>
<path fill="none" stroke="#404040" d="M685.743,-436.425C689.675,-400.614 690.997,-337.866 660.5,-297 648.598,-281.051 637.319,-287.861 619.5,-279 608.36,-273.461 596.34,-266.875 586.005,-261.016"/>
<polygon fill="none" stroke="#404040" points="585.98,-261.001 578.785,-261.482 575.573,-255.026 582.769,-254.545 585.98,-261.001"/>
<text text-anchor="middle" x="734" y="-377" font-family="Helvetica,sans-Serif" font-size="10.00"> +respond_watchers</text>
<text text-anchor="middle" x="734" y="-366" font-family="Helvetica,sans-Serif" font-size="10.00">+request_watchers</text>
<text text-anchor="middle" x="734" y="-355" font-family="Helvetica,sans-Serif" font-size="10.00">+changed_watchers</text>
<text text-anchor="middle" x="734" y="-344" font-family="Helvetica,sans-Serif" font-size="10.00">+attached_watchers</text>
<text text-anchor="middle" x="734" y="-333" font-family="Helvetica,sans-Serif" font-size="10.00">+detached_watchers</text>
</g>
<!-- Node14&#45;&gt;Node7 -->
<g id="edge15" class="edge"><title>Node14&#45;&gt;Node7</title>
<path fill="none" stroke="#404040" d="M653.319,-136.971C621.232,-141.139 581.773,-152.295 560.5,-181 555.694,-187.485 553.596,-195.477 553.039,-203.553"/>
<polygon fill="none" stroke="#404040" points="553.041,-203.692 557.132,-209.63 553.224,-215.69 549.133,-209.752 553.041,-203.692"/>
<text text-anchor="middle" x="597" y="-184" font-family="Helvetica,sans-Serif" font-size="10.00"> +option2module</text>
</g>
<!-- Node15 -->
<g id="node15" class="node"><title>Node15</title>
<g id="a_node15"><a xlink:href="a00030.html#a00123" target="_top" xlink:title="[Application API Callbacks] ">
<polygon fill="none" stroke="black" points="628.5,-216 628.5,-273 716.5,-273 716.5,-216 628.5,-216"/>
<text text-anchor="middle" x="672.5" y="-261" font-family="Helvetica,sans-Serif" font-size="10.00">hpd_module_def</text>
<polyline fill="none" stroke="black" points="628.5,-254 716.5,-254 "/>
<text text-anchor="middle" x="672.5" y="-242" font-family="Helvetica,sans-Serif" font-size="10.00"> </text>
<polyline fill="none" stroke="black" points="628.5,-235 716.5,-235 "/>
<text text-anchor="middle" x="672.5" y="-223" font-family="Helvetica,sans-Serif" font-size="10.00"> </text>
</a>
</g>
</g>
<!-- Node15&#45;&gt;Node14 -->
<g id="edge16" class="edge"><title>Node15&#45;&gt;Node14</title>
<path fill="none" stroke="#404040" d="M680.403,-215.84C684.01,-203.214 688.347,-188.036 692.283,-174.258"/>
<polygon fill="none" stroke="#404040" points="692.315,-174.148 690.117,-167.28 695.612,-162.609 697.809,-169.477 692.315,-174.148"/>
<text text-anchor="middle" x="702" y="-184" font-family="Helvetica,sans-Serif" font-size="10.00"> +def</text>
</g>
<!-- Node16 -->
<g id="node16" class="node"><title>Node16</title>
<polygon fill="none" stroke="#bfbfbf" points="980.5,-436.5 980.5,-493.5 1064.5,-493.5 1064.5,-436.5 980.5,-436.5"/>
<text text-anchor="middle" x="1022.5" y="-481.5" font-family="Helvetica,sans-Serif" font-size="10.00">enum hpd_error</text>
<polyline fill="none" stroke="#bfbfbf" points="980.5,-474.5 1064.5,-474.5 "/>
<text text-anchor="middle" x="1022.5" y="-462.5" font-family="Helvetica,sans-Serif" font-size="10.00"> </text>
<polyline fill="none" stroke="#bfbfbf" points="980.5,-455.5 1064.5,-455.5 "/>
<text text-anchor="middle" x="1022.5" y="-443.5" font-family="Helvetica,sans-Serif" font-size="10.00"> </text>
</g>
<!-- Node16&#45;&gt;Node15 -->
<g id="edge17" class="edge"><title>Node16&#45;&gt;Node15</title>
<path fill="none" stroke="#404040" d="M1019.47,-436.387C1013.65,-398.09 997.133,-329.864 951.5,-297 910.617,-267.557 773.299,-294.924 725.5,-279 724.629,-278.71 723.757,-278.402 722.886,-278.079"/>
<polygon fill="none" stroke="#404040" points="722.657,-277.977 715.55,-279.195 711.692,-273.103 718.799,-271.885 722.657,-277.977"/>
<text text-anchor="middle" x="1049" y="-377" font-family="Helvetica,sans-Serif" font-size="10.00"> +on_create</text>
<text text-anchor="middle" x="1049" y="-366" font-family="Helvetica,sans-Serif" font-size="10.00">+on_stop</text>
<text text-anchor="middle" x="1049" y="-355" font-family="Helvetica,sans-Serif" font-size="10.00">+on_destroy</text>
<text text-anchor="middle" x="1049" y="-344" font-family="Helvetica,sans-Serif" font-size="10.00">+on_start</text>
<text text-anchor="middle" x="1049" y="-333" font-family="Helvetica,sans-Serif" font-size="10.00">+on_parse_opt</text>
</g>
<!-- Node17 -->
<g id="node17" class="node"><title>Node17</title>
<polygon fill="none" stroke="#bfbfbf" points="806,-216 806,-273 847,-273 847,-216 806,-216"/>
<text text-anchor="middle" x="826.5" y="-261" font-family="Helvetica,sans-Serif" font-size="10.00">void *</text>
<polyline fill="none" stroke="#bfbfbf" points="806,-254 847,-254 "/>
<text text-anchor="middle" x="826.5" y="-242" font-family="Helvetica,sans-Serif" font-size="10.00"> </text>
<polyline fill="none" stroke="#bfbfbf" points="806,-235 847,-235 "/>
<text text-anchor="middle" x="826.5" y="-223" font-family="Helvetica,sans-Serif" font-size="10.00"> </text>
</g>
<!-- Node17&#45;&gt;Node1 -->
<g id="edge25" class="edge"><title>Node17&#45;&gt;Node1</title>
<path fill="none" stroke="#404040" d="M821.844,-215.942C814.878,-183.857 798.489,-131.844 762.5,-105 691.464,-52.0155 427.966,-36.2318 306.524,-31.7194"/>
<polygon fill="none" stroke="#404040" points="306.521,-31.7194 300.383,-35.5039 294.528,-31.2934 300.667,-27.5089 306.521,-31.7194"/>
<text text-anchor="middle" x="818.5" y="-131.5" font-family="Helvetica,sans-Serif" font-size="10.00"> +data</text>
</g>
<!-- Node17&#45;&gt;Node14 -->
<g id="edge19" class="edge"><title>Node17&#45;&gt;Node14</title>
<path fill="none" stroke="#404040" d="M805.913,-225.34C789.07,-210.482 764.734,-189.016 744.011,-170.736"/>
<polygon fill="none" stroke="#404040" points="743.783,-170.534 736.638,-169.565 734.784,-162.596 741.93,-163.566 743.783,-170.534"/>
<text text-anchor="middle" x="779.5" y="-184" font-family="Helvetica,sans-Serif" font-size="10.00"> +data</text>
</g>
<!-- Node18 -->
<g id="node18" class="node"><title>Node18</title>
<polygon fill="none" stroke="#bfbfbf" points="734.5,-216 734.5,-273 776.5,-273 776.5,-216 734.5,-216"/>
<text text-anchor="middle" x="755.5" y="-261" font-family="Helvetica,sans-Serif" font-size="10.00">char *</text>
<polyline fill="none" stroke="#bfbfbf" points="734.5,-254 776.5,-254 "/>
<text text-anchor="middle" x="755.5" y="-242" font-family="Helvetica,sans-Serif" font-size="10.00"> </text>
<polyline fill="none" stroke="#bfbfbf" points="734.5,-235 776.5,-235 "/>
<text text-anchor="middle" x="755.5" y="-223" font-family="Helvetica,sans-Serif" font-size="10.00"> </text>
</g>
<!-- Node18&#45;&gt;Node14 -->
<g id="edge20" class="edge"><title>Node18&#45;&gt;Node14</title>
<path fill="none" stroke="#404040" d="M742.244,-215.84C736.132,-203.087 728.771,-187.729 722.115,-173.841"/>
<polygon fill="none" stroke="#404040" points="721.918,-173.431 715.718,-169.749 716.732,-162.609 722.932,-166.291 721.918,-173.431"/>
<text text-anchor="middle" x="738" y="-184" font-family="Helvetica,sans-Serif" font-size="10.00"> +id</text>
</g>
<!-- Node19 -->
<g id="node19" class="node"><title>Node19</title>
<polygon fill="none" stroke="#bfbfbf" points="329.5,-216 329.5,-273 431.5,-273 431.5,-216 329.5,-216"/>
<text text-anchor="middle" x="380.5" y="-261" font-family="Helvetica,sans-Serif" font-size="10.00">struct hpd_listeners</text>
<polyline fill="none" stroke="#bfbfbf" points="329.5,-254 431.5,-254 "/>
<text text-anchor="middle" x="380.5" y="-242" font-family="Helvetica,sans-Serif" font-size="10.00"> </text>
<polyline fill="none" stroke="#bfbfbf" points="329.5,-235 431.5,-235 "/>
<text text-anchor="middle" x="380.5" y="-223" font-family="Helvetica,sans-Serif" font-size="10.00"> </text>
</g>
<!-- Node19&#45;&gt;Node5 -->
<g id="edge21" class="edge"><title>Node19&#45;&gt;Node5</title>
<path fill="none" stroke="#404040" d="M364.438,-215.992C360.801,-208.456 357.442,-200.12 355.5,-192 354.196,-186.546 353.42,-180.715 353.002,-174.94"/>
<polygon fill="none" stroke="#404040" points="352.99,-174.549 348.794,-168.684 352.595,-162.556 356.79,-168.421 352.99,-174.549"/>
<text text-anchor="middle" x="378.5" y="-184" font-family="Helvetica,sans-Serif" font-size="10.00"> +listeners</text>
</g>
<!-- Node20&#45;&gt;Node1 -->
<g id="edge22" class="edge"><title>Node20&#45;&gt;Node1</title>
<path fill="none" stroke="#404040" d="M179.531,-210.141C193.284,-172.009 215.769,-109.662 230.351,-69.2325"/>
<polygon fill="none" stroke="#404040" points="230.441,-68.9808 228.714,-61.9796 234.513,-57.6925 236.24,-64.6938 230.441,-68.9808"/>
<text text-anchor="middle" x="238.5" y="-131.5" font-family="Helvetica,sans-Serif" font-size="10.00"> +on_free</text>
</g>
</g>
</svg>
