<?xml version="1.0" encoding="UTF-8" standalone="no"?>
<!DOCTYPE svg PUBLIC "-//W3C//DTD SVG 1.1//EN"
 "http://www.w3.org/Graphics/SVG/1.1/DTD/svg11.dtd">
<!-- Generated by graphviz version 2.38.0 (20140413.2041)
 -->
<!-- Title: modules/hpd_rest/src/rest_intern.h Pages: 1 -->
<svg width="374pt" height="173pt"
 viewBox="0.00 0.00 374.00 173.00" xmlns="http://www.w3.org/2000/svg" xmlns:xlink="http://www.w3.org/1999/xlink">
<g id="graph0" class="graph" transform="scale(1 1) rotate(0) translate(4 169)">
<title>modules/hpd_rest/src/rest_intern.h</title>
<!-- Node1 -->
<g id="node1" class="node"><title>Node1</title>
<polygon fill="#bfbfbf" stroke="black" points="128,-134.5 128,-164.5 238,-164.5 238,-134.5 128,-134.5"/>
<text text-anchor="start" x="136" y="-152.5" font-family="Helvetica,sans-Serif" font-size="10.00">modules/hpd_rest/src</text>
<text text-anchor="middle" x="183" y="-141.5" font-family="Helvetica,sans-Serif" font-size="10.00">/rest_intern.h</text>
</g>
<!-- Node2 -->
<g id="node2" class="node"><title>Node2</title>
<g id="a_node2"><a xlink:href="a00034.html" target="_top" xlink:title="modules/hpd_rest/src\l/rest.c">
<polygon fill="none" stroke="black" points="128,-0.5 128,-30.5 238,-30.5 238,-0.5 128,-0.5"/>
<text text-anchor="start" x="136" y="-18.5" font-family="Helvetica,sans-Serif" font-size="10.00">modules/hpd_rest/src</text>
<text text-anchor="middle" x="183" y="-7.5" font-family="Helvetica,sans-Serif" font-size="10.00">/rest.c</text>
</a>
</g>
</g>
<!-- Node1&#45;&gt;Node2 -->
<g id="edge1" class="edge"><title>Node1&#45;&gt;Node2</title>
<path fill="none" stroke="midnightblue" d="M183,-124.024C183,-96.5121 183,-52.7894 183,-30.5247"/>
<polygon fill="midnightblue" stroke="midnightblue" points="179.5,-124.374 183,-134.374 186.5,-124.374 179.5,-124.374"/>
</g>
<!-- Node3 -->
<g id="node3" class="node"><title>Node3</title>
<g id="a_node3"><a xlink:href="a00097.html" target="_top" xlink:title="modules/hpd_rest/src\l/rest_json.h">
<polygon fill="none" stroke="black" points="45,-67.5 45,-97.5 155,-97.5 155,-67.5 45,-67.5"/>
<text text-anchor="start" x="53" y="-85.5" font-family="Helvetica,sans-Serif" font-size="10.00">modules/hpd_rest/src</text>
<text text-anchor="middle" x="100" y="-74.5" font-family="Helvetica,sans-Serif" font-size="10.00">/rest_json.h</text>
</a>
</g>
</g>
<!-- Node1&#45;&gt;Node3 -->
<g id="edge2" class="edge"><title>Node1&#45;&gt;Node3</title>
<path fill="none" stroke="midnightblue" d="M157.037,-128.168C144.345,-118.228 129.388,-106.514 117.975,-97.5765"/>
<polygon fill="midnightblue" stroke="midnightblue" points="154.959,-130.986 164.99,-134.396 159.275,-125.475 154.959,-130.986"/>
</g>
<!-- Node5 -->
<g id="node5" class="node"><title>Node5</title>
<g id="a_node5"><a xlink:href="a00099.html" target="_top" xlink:title="modules/hpd_rest/src\l/rest_xml.h">
<polygon fill="none" stroke="black" points="211,-67.5 211,-97.5 321,-97.5 321,-67.5 211,-67.5"/>
<text text-anchor="start" x="219" y="-85.5" font-family="Helvetica,sans-Serif" font-size="10.00">modules/hpd_rest/src</text>
<text text-anchor="middle" x="266" y="-74.5" font-family="Helvetica,sans-Serif" font-size="10.00">/rest_xml.h</text>
</a>
</g>
</g>
<!-- Node1&#45;&gt;Node5 -->
<g id="edge5" class="edge"><title>Node1&#45;&gt;Node5</title>
<path fill="none" stroke="midnightblue" d="M208.963,-128.168C221.655,-118.228 236.612,-106.514 248.025,-97.5765"/>
<polygon fill="midnightblue" stroke="midnightblue" points="206.725,-125.475 201.01,-134.396 211.041,-130.986 206.725,-125.475"/>
</g>
<!-- Node3&#45;&gt;Node2 -->
<g id="edge3" class="edge"><title>Node3&#45;&gt;Node2</title>
<path fill="none" stroke="midnightblue" d="M125.963,-61.1677C138.655,-51.2283 153.612,-39.5144 165.025,-30.5765"/>
<polygon fill="midnightblue" stroke="midnightblue" points="123.725,-58.4747 118.01,-67.396 128.041,-63.9859 123.725,-58.4747"/>
</g>
<!-- Node4 -->
<g id="node4" class="node"><title>Node4</title>
<g id="a_node4"><a xlink:href="a00096.html" target="_top" xlink:title="modules/hpd_rest/src\l/rest_json.c">
<polygon fill="none" stroke="black" points="0,-0.5 0,-30.5 110,-30.5 110,-0.5 0,-0.5"/>
<text text-anchor="start" x="8" y="-18.5" font-family="Helvetica,sans-Serif" font-size="10.00">modules/hpd_rest/src</text>
<text text-anchor="middle" x="55" y="-7.5" font-family="Helvetica,sans-Serif" font-size="10.00">/rest_json.c</text>
</a>
</g>
</g>
<!-- Node3&#45;&gt;Node4 -->
<g id="edge4" class="edge"><title>Node3&#45;&gt;Node4</title>
<path fill="none" stroke="midnightblue" d="M84.5321,-59.1575C77.9699,-49.6788 70.5205,-38.9186 64.7453,-30.5765"/>
<polygon fill="midnightblue" stroke="midnightblue" points="81.6658,-61.1663 90.2357,-67.396 87.4212,-57.1818 81.6658,-61.1663"/>
</g>
<!-- Node5&#45;&gt;Node2 -->
<g id="edge6" class="edge"><title>Node5&#45;&gt;Node2</title>
<path fill="none" stroke="midnightblue" d="M240.037,-61.1677C227.345,-51.2283 212.388,-39.5144 200.975,-30.5765"/>
<polygon fill="midnightblue" stroke="midnightblue" points="237.959,-63.9859 247.99,-67.396 242.275,-58.4747 237.959,-63.9859"/>
</g>
<!-- Node6 -->
<g id="node6" class="node"><title>Node6</title>
<g id="a_node6"><a xlink:href="a00098.html" target="_top" xlink:title="modules/hpd_rest/src\l/rest_xml.c">
<polygon fill="none" stroke="black" points="256,-0.5 256,-30.5 366,-30.5 366,-0.5 256,-0.5"/>
<text text-anchor="start" x="264" y="-18.5" font-family="Helvetica,sans-Serif" font-size="10.00">modules/hpd_rest/src</text>
<text text-anchor="middle" x="311" y="-7.5" font-family="Helvetica,sans-Serif" font-size="10.00">/rest_xml.c</text>
</a>
</g>
</g>
<!-- Node5&#45;&gt;Node6 -->
<g id="edge7" class="edge"><title>Node5&#45;&gt;Node6</title>
<path fill="none" stroke="midnightblue" d="M281.468,-59.1575C288.03,-49.6788 295.479,-38.9186 301.255,-30.5765"/>
<polygon fill="midnightblue" stroke="midnightblue" points="278.579,-57.1818 275.764,-67.396 284.334,-61.1663 278.579,-57.1818"/>
</g>
</g>
</svg>
