<?xml version="1.0" encoding="UTF-8" standalone="no"?>
<!DOCTYPE svg PUBLIC "-//W3C//DTD SVG 1.1//EN"
 "http://www.w3.org/Graphics/SVG/1.1/DTD/svg11.dtd">
<!-- Generated by graphviz version 2.38.0 (20140413.2041)
 -->
<!-- Title: hpd_action Pages: 1 -->
<!--zoomable 651 -->
<svg id="main" version="1.1" xmlns="http://www.w3.org/2000/svg" xmlns:xlink="http://www.w3.org/1999/xlink" xml:space="preserve" onload="init(evt)">
<style type="text/css"><![CDATA[
.edge:hover path { stroke: red; }
.edge:hover polygon { stroke: red; fill: red; }
]]></style>
<script type="text/javascript"><![CDATA[
var edges = document.getElementsByTagName('g');
if (edges && edges.length) {
  for (var i=0;i<edges.length;i++) {
    if (edges[i].id.substr(0,4)=='edge') {
      edges[i].setAttribute('class','edge');
    }
  }
}
]]></script>
        <defs>
                <circle id="rim" cx="0" cy="0" r="7"/>
                <circle id="rim2" cx="0" cy="0" r="3.5"/>
                <g id="zoomPlus">
                        <use xlink:href="#rim" fill="#404040">
                                <set attributeName="fill" to="#808080" begin="zoomplus.mouseover" end="zoomplus.mouseout"/>
                        </use>
                        <path d="M-4,0h8M0,-4v8" fill="none" stroke="white" stroke-width="1.5" pointer-events="none"/>
                </g>
                <g id="zoomMin">
                        <use xlink:href="#rim" fill="#404040">
                                <set attributeName="fill" to="#808080" begin="zoomminus.mouseover" end="zoomminus.mouseout"/>
                        </use>
                        <path d="M-4,0h8" fill="none" stroke="white" stroke-width="1.5" pointer-events="none"/>
                </g>
                <g id="dirArrow">
                        <path fill="none" stroke="white" stroke-width="1.5" d="M0,-3.0v7 M-2.5,-0.5L0,-3.0L2.5,-0.5"/>
                </g>
               <g id="resetDef">
                       <use xlink:href="#rim2" fill="#404040">
                               <set attributeName="fill" to="#808080" begin="reset.mouseover" end="reset.mouseout"/>
                       </use>
               </g>
        </defs>

<script type="text/javascript">
var viewWidth = 1635;
var viewHeight = 651;
var sectionId = 'dynsection-3';
</script>
<script xlink:href="svgpan.js"/>
<svg id="graph" class="graph">
<g id="viewport">
<title>hpd_action</title>
<!-- Node1 -->
<g id="node1" class="node"><title>Node1</title>
<polygon fill="#bfbfbf" stroke="black" points="673,-105.5 673,-162.5 737,-162.5 737,-105.5 673,-105.5"/>
<text text-anchor="middle" x="705" y="-150.5" font-family="Helvetica,sans-Serif" font-size="10.00">hpd_action</text>
<polyline fill="none" stroke="black" points="673,-143.5 737,-143.5 "/>
<text text-anchor="middle" x="705" y="-131.5" font-family="Helvetica,sans-Serif" font-size="10.00"> </text>
<polyline fill="none" stroke="black" points="673,-124.5 737,-124.5 "/>
<text text-anchor="middle" x="705" y="-112.5" font-family="Helvetica,sans-Serif" font-size="10.00"> </text>
</g>
<!-- Node2 -->
<g id="node2" class="node"><title>Node2</title>
<g id="a_node2"><a xlink:href="a00026.html" target="_top" xlink:title="{hpd_service\n||+ TAILQ_ENTRY()\l}">
<polygon fill="none" stroke="black" points="277,-0.5 277,-57.5 377,-57.5 377,-0.5 277,-0.5"/>
<text text-anchor="middle" x="327" y="-45.5" font-family="Helvetica,sans-Serif" font-size="10.00">hpd_service</text>
<polyline fill="none" stroke="black" points="277,-38.5 377,-38.5 "/>
<text text-anchor="middle" x="327" y="-26.5" font-family="Helvetica,sans-Serif" font-size="10.00"> </text>
<polyline fill="none" stroke="black" points="277,-19.5 377,-19.5 "/>
<text text-anchor="start" x="285" y="-7.5" font-family="Helvetica,sans-Serif" font-size="10.00">+ TAILQ_ENTRY()</text>
</a>
</g>
</g>
<!-- Node1&#45;&gt;Node2 -->
<g id="edge37" class="edge"><title>Node1&#45;&gt;Node2</title>
<path fill="none" stroke="#404040" d="M674.368,-105.36C659.786,-92.7735 643.674,-79.8301 635,-76 555.249,-40.7841 453.766,-31.6814 389.569,-29.7673"/>
<polygon fill="none" stroke="#404040" points="389.241,-29.7597 383.148,-33.6161 377.245,-29.4748 383.338,-25.6183 389.241,-29.7597"/>
<text text-anchor="middle" x="672.5" y="-79" font-family="Helvetica,sans-Serif" font-size="10.00"> +actions</text>
</g>
<!-- Node2&#45;&gt;Node1 -->
<g id="edge1" class="edge"><title>Node2&#45;&gt;Node1</title>
<path fill="none" stroke="#404040" d="M377.253,-32.7799C473.613,-38.5992 676.829,-53.423 699,-76 703.546,-80.6292 706.165,-86.598 707.545,-92.9237"/>
<polygon fill="none" stroke="#404040" points="707.588,-93.336 712.197,-98.8823 708.85,-105.27 704.241,-99.7233 707.588,-93.336"/>
<text text-anchor="middle" x="726.5" y="-79" font-family="Helvetica,sans-Serif" font-size="10.00"> +service</text>
</g>
<!-- Node3 -->
<g id="node3" class="node"><title>Node3</title>
<polygon fill="none" stroke="#bfbfbf" points="55.5,-365 55.5,-422 126.5,-422 126.5,-365 55.5,-365"/>
<text text-anchor="middle" x="91" y="-410" font-family="Helvetica,sans-Serif" font-size="10.00">hpd_map_t *</text>
<polyline fill="none" stroke="#bfbfbf" points="55.5,-403 126.5,-403 "/>
<text text-anchor="middle" x="91" y="-391" font-family="Helvetica,sans-Serif" font-size="10.00"> </text>
<polyline fill="none" stroke="#bfbfbf" points="55.5,-384 126.5,-384 "/>
<text text-anchor="middle" x="91" y="-372" font-family="Helvetica,sans-Serif" font-size="10.00"> </text>
</g>
<!-- Node3&#45;&gt;Node2 -->
<g id="edge2" class="edge"><title>Node3&#45;&gt;Node2</title>
<path fill="none" stroke="#404040" d="M81.9295,-364.908C69.746,-322.62 52.9814,-240.442 84,-181 120.73,-110.614 206.329,-69.2553 265.45,-48.1162"/>
<polygon fill="none" stroke="#404040" points="265.559,-48.0787 269.921,-42.3368 276.899,-44.1553 272.537,-49.8972 265.559,-48.0787"/>
<text text-anchor="middle" x="109" y="-184" font-family="Helvetica,sans-Serif" font-size="10.00"> +attributes</text>
</g>
<!-- Node8 -->
<g id="node8" class="node"><title>Node8</title>
<g id="a_node8"><a xlink:href="a00013.html" target="_top" xlink:title="{hpd_device\n||+ TAILQ_ENTRY()\l}">
<polygon fill="none" stroke="black" points="338,-105.5 338,-162.5 438,-162.5 438,-105.5 338,-105.5"/>
<text text-anchor="middle" x="388" y="-150.5" font-family="Helvetica,sans-Serif" font-size="10.00">hpd_device</text>
<polyline fill="none" stroke="black" points="338,-143.5 438,-143.5 "/>
<text text-anchor="middle" x="388" y="-131.5" font-family="Helvetica,sans-Serif" font-size="10.00"> </text>
<polyline fill="none" stroke="black" points="338,-124.5 438,-124.5 "/>
<text text-anchor="start" x="346" y="-112.5" font-family="Helvetica,sans-Serif" font-size="10.00">+ TAILQ_ENTRY()</text>
</a>
</g>
</g>
<!-- Node3&#45;&gt;Node8 -->
<g id="edge9" class="edge"><title>Node3&#45;&gt;Node8</title>
<path fill="none" stroke="#404040" d="M89.0112,-364.823C87.3813,-318.495 91.7303,-225.917 147,-181 176.137,-157.32 273.347,-171.31 325.889,-162.771"/>
<polygon fill="none" stroke="#404040" points="326.184,-162.707 331.2,-157.527 337.911,-160.165 332.895,-165.345 326.184,-162.707"/>
<text text-anchor="middle" x="145" y="-236.5" font-family="Helvetica,sans-Serif" font-size="10.00"> +attributes</text>
</g>
<!-- Node10 -->
<g id="node10" class="node"><title>Node10</title>
<g id="a_node10"><a xlink:href="a00010.html" target="_top" xlink:title="{hpd_adapter\n||+ TAILQ_ENTRY()\l}">
<polygon fill="none" stroke="black" points="286,-210.5 286,-267.5 386,-267.5 386,-210.5 286,-210.5"/>
<text text-anchor="middle" x="336" y="-255.5" font-family="Helvetica,sans-Serif" font-size="10.00">hpd_adapter</text>
<polyline fill="none" stroke="black" points="286,-248.5 386,-248.5 "/>
<text text-anchor="middle" x="336" y="-236.5" font-family="Helvetica,sans-Serif" font-size="10.00"> </text>
<polyline fill="none" stroke="black" points="286,-229.5 386,-229.5 "/>
<text text-anchor="start" x="294" y="-217.5" font-family="Helvetica,sans-Serif" font-size="10.00">+ TAILQ_ENTRY()</text>
</a>
</g>
</g>
<!-- Node3&#45;&gt;Node10 -->
<g id="edge29" class="edge"><title>Node3&#45;&gt;Node10</title>
<path fill="none" stroke="#404040" d="M108.429,-364.847C125.431,-340.247 153.573,-305.27 187,-286 220.455,-266.714 235.232,-279.8 272,-268 272.704,-267.774 273.41,-267.543 274.119,-267.308"/>
<polygon fill="none" stroke="#404040" points="274.421,-267.199 278.711,-261.402 285.711,-263.133 281.422,-268.929 274.421,-267.199"/>
<text text-anchor="middle" x="212" y="-311" font-family="Helvetica,sans-Serif" font-size="10.00"> +attributes</text>
</g>
<!-- Node4 -->
<g id="node4" class="node"><title>Node4</title>
<polygon fill="none" stroke="#bfbfbf" points="221.5,-585.5 221.5,-642.5 256.5,-642.5 256.5,-585.5 221.5,-585.5"/>
<text text-anchor="middle" x="239" y="-630.5" font-family="Helvetica,sans-Serif" font-size="10.00">char</text>
<polyline fill="none" stroke="#bfbfbf" points="221.5,-623.5 256.5,-623.5 "/>
<text text-anchor="middle" x="239" y="-611.5" font-family="Helvetica,sans-Serif" font-size="10.00"> </text>
<polyline fill="none" stroke="#bfbfbf" points="221.5,-604.5 256.5,-604.5 "/>
<text text-anchor="middle" x="239" y="-592.5" font-family="Helvetica,sans-Serif" font-size="10.00"> </text>
</g>
<!-- Node4&#45;&gt;Node2 -->
<g id="edge3" class="edge"><title>Node4&#45;&gt;Node2</title>
<path fill="none" stroke="#404040" d="M221.426,-606.858C166.232,-586.327 0,-514.529 0,-394.5 0,-394.5 0,-394.5 0,-133 0,-78.0459 170.135,-48.7799 264.965,-36.7359"/>
<polygon fill="none" stroke="#404040" points="265.07,-36.7229 270.534,-32.017 276.98,-35.2507 271.516,-39.9566 265.07,-36.7229"/>
<text text-anchor="middle" x="8.5" y="-236.5" font-family="Helvetica,sans-Serif" font-size="10.00"> +id</text>
</g>
<!-- Node6 -->
<g id="node6" class="node"><title>Node6</title>
<g id="a_node6"><a xlink:href="a00006.html#a00084" target="_top" xlink:title="{data\n|+ key\l+ path\l|}">
<polygon fill="none" stroke="black" points="217,-359.5 217,-427.5 261,-427.5 261,-359.5 217,-359.5"/>
<text text-anchor="middle" x="239" y="-415.5" font-family="Helvetica,sans-Serif" font-size="10.00">data</text>
<polyline fill="none" stroke="black" points="217,-408.5 261,-408.5 "/>
<text text-anchor="start" x="225" y="-396.5" font-family="Helvetica,sans-Serif" font-size="10.00">+ key</text>
<text text-anchor="start" x="225" y="-385.5" font-family="Helvetica,sans-Serif" font-size="10.00">+ path</text>
<polyline fill="none" stroke="black" points="217,-378.5 261,-378.5 "/>
<text text-anchor="middle" x="239" y="-366.5" font-family="Helvetica,sans-Serif" font-size="10.00"> </text>
</a>
</g>
</g>
<!-- Node4&#45;&gt;Node6 -->
<g id="edge6" class="edge"><title>Node4&#45;&gt;Node6</title>
<path fill="none" stroke="#404040" d="M239,-585.327C239,-548.667 239,-483.536 239,-439.69"/>
<polygon fill="none" stroke="#404040" points="239,-439.652 235,-433.652 239,-427.652 243,-433.652 239,-439.652"/>
<text text-anchor="middle" x="263.5" y="-559" font-family="Helvetica,sans-Serif" font-size="10.00"> +host</text>
<text text-anchor="middle" x="263.5" y="-548" font-family="Helvetica,sans-Serif" font-size="10.00">+url</text>
<text text-anchor="middle" x="263.5" y="-537" font-family="Helvetica,sans-Serif" font-size="10.00">+value</text>
<text text-anchor="middle" x="263.5" y="-526" font-family="Helvetica,sans-Serif" font-size="10.00">+hdr_field</text>
<text text-anchor="middle" x="263.5" y="-515" font-family="Helvetica,sans-Serif" font-size="10.00">+body</text>
<text text-anchor="middle" x="263.5" y="-504" font-family="Helvetica,sans-Serif" font-size="10.00">+port</text>
<text text-anchor="middle" x="263.5" y="-493" font-family="Helvetica,sans-Serif" font-size="10.00">+hdr_value</text>
<text text-anchor="middle" x="263.5" y="-482" font-family="Helvetica,sans-Serif" font-size="10.00">+protocol</text>
<text text-anchor="middle" x="263.5" y="-471" font-family="Helvetica,sans-Serif" font-size="10.00">+field</text>
<text text-anchor="middle" x="263.5" y="-460" font-family="Helvetica,sans-Serif" font-size="10.00">+method</text>
<text text-anchor="middle" x="263.5" y="-449" font-family="Helvetica,sans-Serif" font-size="10.00">...</text>
</g>
<!-- Node4&#45;&gt;Node10 -->
<g id="edge30" class="edge"><title>Node4&#45;&gt;Node10</title>
<path fill="none" stroke="#404040" d="M256.538,-602.644C268.592,-594.537 283.841,-582.118 292,-567 305.426,-542.122 324.309,-361.176 332.25,-279.644"/>
<polygon fill="none" stroke="#404040" points="332.252,-279.624 328.847,-273.267 333.406,-267.68 336.81,-274.036 332.252,-279.624"/>
<text text-anchor="middle" x="332.5" y="-391" font-family="Helvetica,sans-Serif" font-size="10.00"> +id</text>
</g>
<!-- Node5 -->
<g id="node5" class="node"><title>Node5</title>
<polygon fill="none" stroke="#bfbfbf" points="240,-105.5 240,-162.5 320,-162.5 320,-105.5 240,-105.5"/>
<text text-anchor="middle" x="280" y="-150.5" font-family="Helvetica,sans-Serif" font-size="10.00">parameters_t *</text>
<polyline fill="none" stroke="#bfbfbf" points="240,-143.5 320,-143.5 "/>
<text text-anchor="middle" x="280" y="-131.5" font-family="Helvetica,sans-Serif" font-size="10.00"> </text>
<polyline fill="none" stroke="#bfbfbf" points="240,-124.5 320,-124.5 "/>
<text text-anchor="middle" x="280" y="-112.5" font-family="Helvetica,sans-Serif" font-size="10.00"> </text>
</g>
<!-- Node5&#45;&gt;Node2 -->
<g id="edge4" class="edge"><title>Node5&#45;&gt;Node2</title>
<path fill="none" stroke="#404040" d="M285.214,-105.358C287.548,-95.8056 290.753,-85.1974 295,-76 296.204,-73.3917 297.557,-70.773 299.007,-68.1811"/>
<polygon fill="none" stroke="#404040" points="299.117,-68.0013 298.844,-60.7953 305.39,-57.7715 305.664,-64.9775 299.117,-68.0013"/>
<text text-anchor="middle" x="324" y="-79" font-family="Helvetica,sans-Serif" font-size="10.00"> +parameters</text>
</g>
<!-- Node6&#45;&gt;Node2 -->
<g id="edge5" class="edge"><title>Node6&#45;&gt;Node2</title>
<path fill="none" stroke="#404040" d="M216.664,-387.71C193.39,-381.397 158.113,-367.798 142,-341 129.404,-320.051 134.479,-309.259 142,-286 145.036,-276.61 150.004,-276.51 155,-268 195.47,-199.07 181.242,-167.556 231,-105 242.88,-90.0642 258.313,-76.3394 273.317,-64.8276"/>
<polygon fill="none" stroke="#404040" points="273.435,-64.7401 275.871,-57.9531 283.073,-57.5917 280.637,-64.3788 273.435,-64.7401"/>
<text text-anchor="middle" x="212" y="-184" font-family="Helvetica,sans-Serif" font-size="10.00"> +on_free</text>
</g>
<!-- Node6&#45;&gt;Node8 -->
<g id="edge34" class="edge"><title>Node6&#45;&gt;Node8</title>
<path fill="none" stroke="#404040" d="M228.11,-359.34C217.483,-320.426 206.663,-255.449 235,-210 236.41,-207.739 284.724,-184.253 326.684,-164.157"/>
<polygon fill="none" stroke="#404040" points="326.917,-164.046 330.604,-157.849 337.742,-158.869 334.055,-165.066 326.917,-164.046"/>
<text text-anchor="middle" x="256" y="-236.5" font-family="Helvetica,sans-Serif" font-size="10.00"> +on_free</text>
</g>
<!-- Node6&#45;&gt;Node10 -->
<g id="edge31" class="edge"><title>Node6&#45;&gt;Node10</title>
<path fill="none" stroke="#404040" d="M238.768,-359.059C240.151,-336.591 245.089,-307.308 260,-286 264.352,-279.781 269.84,-274.252 275.867,-269.379"/>
<polygon fill="none" stroke="#404040" points="275.978,-269.299 278.488,-262.539 285.693,-262.256 283.183,-269.016 275.978,-269.299"/>
<text text-anchor="middle" x="281" y="-311" font-family="Helvetica,sans-Serif" font-size="10.00"> +on_free</text>
</g>
<!-- Node7 -->
<g id="node7" class="node"><title>Node7</title>
<polygon fill="none" stroke="#bfbfbf" points="908.5,-585.5 908.5,-642.5 937.5,-642.5 937.5,-585.5 908.5,-585.5"/>
<text text-anchor="middle" x="923" y="-630.5" font-family="Helvetica,sans-Serif" font-size="10.00">int</text>
<polyline fill="none" stroke="#bfbfbf" points="908.5,-623.5 937.5,-623.5 "/>
<text text-anchor="middle" x="923" y="-611.5" font-family="Helvetica,sans-Serif" font-size="10.00"> </text>
<polyline fill="none" stroke="#bfbfbf" points="908.5,-604.5 937.5,-604.5 "/>
<text text-anchor="middle" x="923" y="-592.5" font-family="Helvetica,sans-Serif" font-size="10.00"> </text>
</g>
<!-- Node7&#45;&gt;Node6 -->
<g id="edge7" class="edge"><title>Node7&#45;&gt;Node6</title>
<path fill="none" stroke="#404040" d="M908.338,-610.17C837.981,-596.291 528.729,-531.858 294,-428 286.464,-424.665 278.707,-420.474 271.483,-416.195"/>
<polygon fill="none" stroke="#404040" points="271.233,-416.041 264.026,-416.291 261.023,-409.734 268.23,-409.485 271.233,-416.041"/>
<text text-anchor="middle" x="744" y="-559" font-family="Helvetica,sans-Serif" font-size="10.00"> +count</text>
<text text-anchor="middle" x="744" y="-548" font-family="Helvetica,sans-Serif" font-size="10.00">+hdr_count</text>
<text text-anchor="middle" x="744" y="-537" font-family="Helvetica,sans-Serif" font-size="10.00">+state</text>
<text text-anchor="middle" x="744" y="-526" font-family="Helvetica,sans-Serif" font-size="10.00">+cur_path</text>
<text text-anchor="middle" x="744" y="-515" font-family="Helvetica,sans-Serif" font-size="10.00">+errors</text>
<text text-anchor="middle" x="744" y="-504" font-family="Helvetica,sans-Serif" font-size="10.00">+call_order</text>
<text text-anchor="middle" x="744" y="-493" font-family="Helvetica,sans-Serif" font-size="10.00">+_errors</text>
<text text-anchor="middle" x="744" y="-482" font-family="Helvetica,sans-Serif" font-size="10.00">+hdr_field_l</text>
<text text-anchor="middle" x="744" y="-471" font-family="Helvetica,sans-Serif" font-size="10.00">+cur_key_value</text>
<text text-anchor="middle" x="744" y="-460" font-family="Helvetica,sans-Serif" font-size="10.00">+hdr_value_l</text>
<text text-anchor="middle" x="744" y="-449" font-family="Helvetica,sans-Serif" font-size="10.00">...</text>
</g>
<!-- Node13 -->
<g id="node13" class="node"><title>Node13</title>
<g id="a_node13"><a xlink:href="a00009.html#a00087" target="_top" xlink:title="{hpd\n||}">
<polygon fill="none" stroke="black" points="1220,-210.5 1220,-267.5 1252,-267.5 1252,-210.5 1220,-210.5"/>
<text text-anchor="middle" x="1236" y="-255.5" font-family="Helvetica,sans-Serif" font-size="10.00">hpd</text>
<polyline fill="none" stroke="black" points="1220,-248.5 1252,-248.5 "/>
<text text-anchor="middle" x="1236" y="-236.5" font-family="Helvetica,sans-Serif" font-size="10.00"> </text>
<polyline fill="none" stroke="black" points="1220,-229.5 1252,-229.5 "/>
<text text-anchor="middle" x="1236" y="-217.5" font-family="Helvetica,sans-Serif" font-size="10.00"> </text>
</a>
</g>
</g>
<!-- Node7&#45;&gt;Node13 -->
<g id="edge19" class="edge"><title>Node7&#45;&gt;Node13</title>
<path fill="none" stroke="#404040" d="M937.532,-601.529C970.848,-574.559 1053.58,-503.665 1102,-428 1138.48,-370.992 1113.06,-337.479 1157,-286 1170.76,-269.875 1191.67,-258.053 1208.52,-250.435"/>
<polygon fill="none" stroke="#404040" points="1208.86,-250.293 1212.83,-244.275 1219.91,-245.628 1215.94,-251.646 1208.86,-250.293"/>
<text text-anchor="middle" x="1161" y="-391" font-family="Helvetica,sans-Serif" font-size="10.00"> +options_count</text>
</g>
<!-- Node8&#45;&gt;Node2 -->
<g id="edge8" class="edge"><title>Node8&#45;&gt;Node2</title>
<path fill="none" stroke="#404040" d="M371.653,-105.398C364.884,-93.9679 356.92,-80.5199 349.606,-68.1701"/>
<polygon fill="none" stroke="#404040" points="349.507,-68.0034 343.008,-64.8792 343.392,-57.6783 349.891,-60.8026 349.507,-68.0034"/>
<text text-anchor="middle" x="379" y="-79" font-family="Helvetica,sans-Serif" font-size="10.00"> +device</text>
</g>
<!-- Node9 -->
<g id="node9" class="node"><title>Node9</title>
<polygon fill="none" stroke="#bfbfbf" points="468,-210.5 468,-267.5 536,-267.5 536,-210.5 468,-210.5"/>
<text text-anchor="middle" x="502" y="-255.5" font-family="Helvetica,sans-Serif" font-size="10.00">services_t *</text>
<polyline fill="none" stroke="#bfbfbf" points="468,-248.5 536,-248.5 "/>
<text text-anchor="middle" x="502" y="-236.5" font-family="Helvetica,sans-Serif" font-size="10.00"> </text>
<polyline fill="none" stroke="#bfbfbf" points="468,-229.5 536,-229.5 "/>
<text text-anchor="middle" x="502" y="-217.5" font-family="Helvetica,sans-Serif" font-size="10.00"> </text>
</g>
<!-- Node9&#45;&gt;Node8 -->
<g id="edge10" class="edge"><title>Node9&#45;&gt;Node8</title>
<path fill="none" stroke="#404040" d="M471.45,-210.398C458.033,-198.275 442.103,-183.882 427.775,-170.937"/>
<polygon fill="none" stroke="#404040" points="427.538,-170.723 420.405,-169.669 418.634,-162.678 425.768,-163.733 427.538,-170.723"/>
<text text-anchor="middle" x="472" y="-184" font-family="Helvetica,sans-Serif" font-size="10.00"> +services</text>
</g>
<!-- Node10&#45;&gt;Node8 -->
<g id="edge11" class="edge"><title>Node10&#45;&gt;Node8</title>
<path fill="none" stroke="#404040" d="M349.935,-210.398C355.647,-199.083 362.358,-185.791 368.541,-173.545"/>
<polygon fill="none" stroke="#404040" points="368.618,-173.391 367.752,-166.232 374.026,-162.678 374.893,-169.837 368.618,-173.391"/>
<text text-anchor="middle" x="385" y="-184" font-family="Helvetica,sans-Serif" font-size="10.00"> +adapter</text>
</g>
<!-- Node11 -->
<g id="node11" class="node"><title>Node11</title>
<g id="a_node11"><a xlink:href="a00005.html#a00083" target="_top" xlink:title="{configuration\n||}">
<polygon fill="none" stroke="black" points="1231,-365 1231,-422 1303,-422 1303,-365 1231,-365"/>
<text text-anchor="middle" x="1267" y="-410" font-family="Helvetica,sans-Serif" font-size="10.00">configuration</text>
<polyline fill="none" stroke="black" points="1231,-403 1303,-403 "/>
<text text-anchor="middle" x="1267" y="-391" font-family="Helvetica,sans-Serif" font-size="10.00"> </text>
<polyline fill="none" stroke="black" points="1231,-384 1303,-384 "/>
<text text-anchor="middle" x="1267" y="-372" font-family="Helvetica,sans-Serif" font-size="10.00"> </text>
</a>
</g>
</g>
<!-- Node11&#45;&gt;Node10 -->
<g id="edge12" class="edge"><title>Node11&#45;&gt;Node10</title>
<path fill="none" stroke="#404040" d="M1230.83,-367.301C1226.24,-364.392 1221.56,-361.557 1217,-359 1200.35,-349.658 1193.1,-352.686 1178,-341 1153.02,-321.667 1161.37,-299.874 1133,-286 1059.81,-250.211 479.532,-285.658 400,-268 399.279,-267.84 398.555,-267.671 397.83,-267.495"/>
<polygon fill="none" stroke="#404040" points="397.558,-267.416 390.675,-269.565 386.043,-264.039 392.926,-261.889 397.558,-267.416"/>
<text text-anchor="middle" x="1210.5" y="-311" font-family="Helvetica,sans-Serif" font-size="10.00"> +configuration</text>
</g>
<!-- Node11&#45;&gt;Node13 -->
<g id="edge17" class="edge"><title>Node11&#45;&gt;Node13</title>
<path fill="none" stroke="#404040" d="M1261.39,-364.883C1256.55,-341.098 1249.51,-306.477 1244.07,-279.717"/>
<polygon fill="none" stroke="#404040" points="1244.01,-279.428 1238.9,-274.345 1241.62,-267.668 1246.74,-272.751 1244.01,-279.428"/>
<text text-anchor="middle" x="1289.5" y="-311" font-family="Helvetica,sans-Serif" font-size="10.00"> +configuration</text>
</g>
<!-- Node12 -->
<g id="node12" class="node"><title>Node12</title>
<polygon fill="none" stroke="#bfbfbf" points="1180,-585.5 1180,-642.5 1262,-642.5 1262,-585.5 1180,-585.5"/>
<text text-anchor="middle" x="1221" y="-630.5" font-family="Helvetica,sans-Serif" font-size="10.00">struct adapters</text>
<polyline fill="none" stroke="#bfbfbf" points="1180,-623.5 1262,-623.5 "/>
<text text-anchor="middle" x="1221" y="-611.5" font-family="Helvetica,sans-Serif" font-size="10.00"> </text>
<polyline fill="none" stroke="#bfbfbf" points="1180,-604.5 1262,-604.5 "/>
<text text-anchor="middle" x="1221" y="-592.5" font-family="Helvetica,sans-Serif" font-size="10.00"> </text>
</g>
<!-- Node12&#45;&gt;Node11 -->
<g id="edge13" class="edge"><title>Node12&#45;&gt;Node11</title>
<path fill="none" stroke="#404040" d="M1225.27,-585.341C1230.6,-552.072 1240.44,-494.627 1252,-446 1252.93,-442.104 1253.96,-438.064 1255.05,-434.038"/>
<polygon fill="none" stroke="#404040" points="1255.14,-433.713 1252.92,-426.854 1258.39,-422.161 1260.62,-429.02 1255.14,-433.713"/>
<text text-anchor="middle" x="1275.5" y="-504" font-family="Helvetica,sans-Serif" font-size="10.00"> +adapters</text>
</g>
<!-- Node13&#45;&gt;Node11 -->
<g id="edge14" class="edge"><title>Node13&#45;&gt;Node11</title>
<path fill="none" stroke="#404040" d="M1252.09,-242.567C1274.12,-247.041 1312.88,-258.563 1330,-286 1342.94,-306.739 1340.47,-318.913 1330,-341 1325.91,-349.616 1319.6,-357.269 1312.52,-363.868"/>
<polygon fill="none" stroke="#404040" points="1312.44,-363.935 1310.42,-370.858 1303.26,-371.655 1305.28,-364.733 1312.44,-363.935"/>
<text text-anchor="middle" x="1351.5" y="-311" font-family="Helvetica,sans-Serif" font-size="10.00"> +hpd</text>
</g>
<!-- Node19 -->
<g id="node19" class="node"><title>Node19</title>
<g id="a_node19"><a xlink:href="a00020.html" target="_top" xlink:title="{hpd_module\n||+ TAILQ_ENTRY()\l}">
<polygon fill="none" stroke="black" points="898,-105.5 898,-162.5 998,-162.5 998,-105.5 898,-105.5"/>
<text text-anchor="middle" x="948" y="-150.5" font-family="Helvetica,sans-Serif" font-size="10.00">hpd_module</text>
<polyline fill="none" stroke="black" points="898,-143.5 998,-143.5 "/>
<text text-anchor="middle" x="948" y="-131.5" font-family="Helvetica,sans-Serif" font-size="10.00"> </text>
<polyline fill="none" stroke="black" points="898,-124.5 998,-124.5 "/>
<text text-anchor="start" x="906" y="-112.5" font-family="Helvetica,sans-Serif" font-size="10.00">+ TAILQ_ENTRY()</text>
</a>
</g>
</g>
<!-- Node13&#45;&gt;Node19 -->
<g id="edge25" class="edge"><title>Node13&#45;&gt;Node19</title>
<path fill="none" stroke="#404040" d="M1219.85,-232.389C1195.1,-223.779 1146.32,-206.753 1105,-192 1073.56,-180.772 1038.64,-168.114 1009.73,-157.583"/>
<polygon fill="none" stroke="#404040" points="1009.43,-157.471 1002.42,-159.174 998.153,-153.361 1005.16,-151.658 1009.43,-157.471"/>
<text text-anchor="middle" x="1117.5" y="-184" font-family="Helvetica,sans-Serif" font-size="10.00"> +hpd</text>
</g>
<!-- Node14 -->
<g id="node14" class="node"><title>Node14</title>
<polygon fill="none" stroke="#bfbfbf" points="1341,-365 1341,-422 1423,-422 1423,-365 1341,-365"/>
<text text-anchor="middle" x="1382" y="-410" font-family="Helvetica,sans-Serif" font-size="10.00">argp_option_t *</text>
<polyline fill="none" stroke="#bfbfbf" points="1341,-403 1423,-403 "/>
<text text-anchor="middle" x="1382" y="-391" font-family="Helvetica,sans-Serif" font-size="10.00"> </text>
<polyline fill="none" stroke="#bfbfbf" points="1341,-384 1423,-384 "/>
<text text-anchor="middle" x="1382" y="-372" font-family="Helvetica,sans-Serif" font-size="10.00"> </text>
</g>
<!-- Node14&#45;&gt;Node13 -->
<g id="edge15" class="edge"><title>Node14&#45;&gt;Node13</title>
<path fill="none" stroke="#404040" d="M1385.8,-364.937C1387.47,-341.409 1385.89,-307.986 1368,-286 1342.78,-255.01 1295.4,-244.855 1264.8,-241.553"/>
<polygon fill="none" stroke="#404040" points="1264.4,-241.519 1258.08,-244.991 1252.44,-240.493 1258.76,-237.021 1264.4,-241.519"/>
<text text-anchor="middle" x="1405.5" y="-311" font-family="Helvetica,sans-Serif" font-size="10.00"> +options</text>
</g>
<!-- Node15 -->
<g id="node15" class="node"><title>Node15</title>
<polygon fill="none" stroke="#bfbfbf" points="1441.5,-365 1441.5,-422 1522.5,-422 1522.5,-365 1441.5,-365"/>
<text text-anchor="middle" x="1482" y="-410" font-family="Helvetica,sans-Serif" font-size="10.00">struct modules</text>
<polyline fill="none" stroke="#bfbfbf" points="1441.5,-403 1522.5,-403 "/>
<text text-anchor="middle" x="1482" y="-391" font-family="Helvetica,sans-Serif" font-size="10.00"> </text>
<polyline fill="none" stroke="#bfbfbf" points="1441.5,-384 1522.5,-384 "/>
<text text-anchor="middle" x="1482" y="-372" font-family="Helvetica,sans-Serif" font-size="10.00"> </text>
</g>
<!-- Node15&#45;&gt;Node13 -->
<g id="edge16" class="edge"><title>Node15&#45;&gt;Node13</title>
<path fill="none" stroke="#404040" d="M1475.6,-364.678C1468.54,-340.313 1454.74,-305.794 1430,-286 1381.32,-247.063 1305.13,-240.143 1264.22,-239.464"/>
<polygon fill="none" stroke="#404040" points="1264.03,-239.463 1258.02,-243.448 1252.03,-239.433 1258.04,-235.448 1264.03,-239.463"/>
<text text-anchor="middle" x="1490" y="-311" font-family="Helvetica,sans-Serif" font-size="10.00"> +modules</text>
</g>
<!-- Node16 -->
<g id="node16" class="node"><title>Node16</title>
<polygon fill="none" stroke="#bfbfbf" points="1541,-365 1541,-422 1627,-422 1627,-365 1541,-365"/>
<text text-anchor="middle" x="1584" y="-410" font-family="Helvetica,sans-Serif" font-size="10.00">hpd_ev_loop_t *</text>
<polyline fill="none" stroke="#bfbfbf" points="1541,-403 1627,-403 "/>
<text text-anchor="middle" x="1584" y="-391" font-family="Helvetica,sans-Serif" font-size="10.00"> </text>
<polyline fill="none" stroke="#bfbfbf" points="1541,-384 1627,-384 "/>
<text text-anchor="middle" x="1584" y="-372" font-family="Helvetica,sans-Serif" font-size="10.00"> </text>
</g>
<!-- Node16&#45;&gt;Node13 -->
<g id="edge18" class="edge"><title>Node16&#45;&gt;Node13</title>
<path fill="none" stroke="#404040" d="M1574.12,-364.589C1563.82,-339.812 1545.21,-304.718 1517,-286 1475.75,-258.636 1327.09,-245.935 1264.3,-241.701"/>
<polygon fill="none" stroke="#404040" points="1264.25,-241.698 1258.01,-245.303 1252.28,-240.924 1258.52,-237.319 1264.25,-241.698"/>
<text text-anchor="middle" x="1576" y="-311" font-family="Helvetica,sans-Serif" font-size="10.00"> +loop</text>
</g>
<!-- Node17 -->
<g id="node17" class="node"><title>Node17</title>
<polygon fill="none" stroke="#bfbfbf" points="903,-365 903,-422 961,-422 961,-365 903,-365"/>
<text text-anchor="middle" x="932" y="-410" font-family="Helvetica,sans-Serif" font-size="10.00">ev_signal</text>
<polyline fill="none" stroke="#bfbfbf" points="903,-403 961,-403 "/>
<text text-anchor="middle" x="932" y="-391" font-family="Helvetica,sans-Serif" font-size="10.00"> </text>
<polyline fill="none" stroke="#bfbfbf" points="903,-384 961,-384 "/>
<text text-anchor="middle" x="932" y="-372" font-family="Helvetica,sans-Serif" font-size="10.00"> </text>
</g>
<!-- Node17&#45;&gt;Node13 -->
<g id="edge20" class="edge"><title>Node17&#45;&gt;Node13</title>
<path fill="none" stroke="#404040" d="M925.19,-364.807C921.094,-340.866 919.855,-306.909 939,-286 948.081,-276.083 1135.16,-252.304 1207.65,-243.423"/>
<polygon fill="none" stroke="#404040" points="1207.87,-243.396 1213.35,-238.7 1219.79,-241.945 1214.31,-246.641 1207.87,-243.396"/>
<text text-anchor="middle" x="980" y="-316.5" font-family="Helvetica,sans-Serif" font-size="10.00"> +sigterm_watcher</text>
<text text-anchor="middle" x="980" y="-305.5" font-family="Helvetica,sans-Serif" font-size="10.00">+sigint_watcher</text>
</g>
<!-- Node18 -->
<g id="node18" class="node"><title>Node18</title>
<polygon fill="none" stroke="#bfbfbf" points="980.5,-365 980.5,-422 1093.5,-422 1093.5,-365 980.5,-365"/>
<text text-anchor="middle" x="1037" y="-410" font-family="Helvetica,sans-Serif" font-size="10.00">struct hpd_ev_asyncs</text>
<polyline fill="none" stroke="#bfbfbf" points="980.5,-403 1093.5,-403 "/>
<text text-anchor="middle" x="1037" y="-391" font-family="Helvetica,sans-Serif" font-size="10.00"> </text>
<polyline fill="none" stroke="#bfbfbf" points="980.5,-384 1093.5,-384 "/>
<text text-anchor="middle" x="1037" y="-372" font-family="Helvetica,sans-Serif" font-size="10.00"> </text>
</g>
<!-- Node18&#45;&gt;Node13 -->
<g id="edge21" class="edge"><title>Node18&#45;&gt;Node13</title>
<path fill="none" stroke="#404040" d="M1028.65,-364.907C1023.36,-341.36 1020.42,-307.925 1038,-286 1059.03,-259.78 1158.38,-247.112 1207.86,-242.345"/>
<polygon fill="none" stroke="#404040" points="1207.89,-242.342 1213.5,-237.814 1219.84,-241.252 1214.23,-245.781 1207.89,-242.342"/>
<text text-anchor="middle" x="1083.5" y="-333" font-family="Helvetica,sans-Serif" font-size="10.00"> +respond_watchers</text>
<text text-anchor="middle" x="1083.5" y="-322" font-family="Helvetica,sans-Serif" font-size="10.00">+request_watchers</text>
<text text-anchor="middle" x="1083.5" y="-311" font-family="Helvetica,sans-Serif" font-size="10.00">+changed_watchers</text>
<text text-anchor="middle" x="1083.5" y="-300" font-family="Helvetica,sans-Serif" font-size="10.00">+attached_watchers</text>
<text text-anchor="middle" x="1083.5" y="-289" font-family="Helvetica,sans-Serif" font-size="10.00">+detached_watchers</text>
</g>
<!-- Node19&#45;&gt;Node13 -->
<g id="edge22" class="edge"><title>Node19&#45;&gt;Node13</title>
<path fill="none" stroke="#404040" d="M998.069,-143.609C1036.16,-151.054 1089.45,-163.41 1134,-181 1160.91,-191.622 1189.48,-208.096 1209.52,-220.607"/>
<polygon fill="none" stroke="#404040" points="1209.59,-220.648 1216.8,-220.492 1219.71,-227.087 1212.5,-227.243 1209.59,-220.648"/>
<text text-anchor="middle" x="1194.5" y="-184" font-family="Helvetica,sans-Serif" font-size="10.00"> +option2module</text>
</g>
<!-- Node20 -->
<g id="node20" class="node"><title>Node20</title>
<g id="a_node20"><a xlink:href="a00021.html#a00100" target="_top" xlink:title="[Application API Callbacks] ">
<polygon fill="none" stroke="black" points="904,-210.5 904,-267.5 992,-267.5 992,-210.5 904,-210.5"/>
<text text-anchor="middle" x="948" y="-255.5" font-family="Helvetica,sans-Serif" font-size="10.00">hpd_module_def</text>
<polyline fill="none" stroke="black" points="904,-248.5 992,-248.5 "/>
<text text-anchor="middle" x="948" y="-236.5" font-family="Helvetica,sans-Serif" font-size="10.00"> </text>
<polyline fill="none" stroke="black" points="904,-229.5 992,-229.5 "/>
<text text-anchor="middle" x="948" y="-217.5" font-family="Helvetica,sans-Serif" font-size="10.00"> </text>
</a>
</g>
</g>
<!-- Node20&#45;&gt;Node19 -->
<g id="edge23" class="edge"><title>Node20&#45;&gt;Node19</title>
<path fill="none" stroke="#404040" d="M948,-210.398C948,-199.545 948,-186.873 948,-175.049"/>
<polygon fill="none" stroke="#404040" points="948,-174.678 944,-168.678 948,-162.678 952,-168.678 948,-174.678"/>
<text text-anchor="middle" x="959.5" y="-184" font-family="Helvetica,sans-Serif" font-size="10.00"> +def</text>
</g>
<!-- Node21 -->
<g id="node21" class="node"><title>Node21</title>
<polygon fill="none" stroke="#bfbfbf" points="773,-365 773,-422 857,-422 857,-365 773,-365"/>
<text text-anchor="middle" x="815" y="-410" font-family="Helvetica,sans-Serif" font-size="10.00">enum hpd_error</text>
<polyline fill="none" stroke="#bfbfbf" points="773,-403 857,-403 "/>
<text text-anchor="middle" x="815" y="-391" font-family="Helvetica,sans-Serif" font-size="10.00"> </text>
<polyline fill="none" stroke="#bfbfbf" points="773,-384 857,-384 "/>
<text text-anchor="middle" x="815" y="-372" font-family="Helvetica,sans-Serif" font-size="10.00"> </text>
</g>
<!-- Node21&#45;&gt;Node1 -->
<g id="edge40" class="edge"><title>Node21&#45;&gt;Node1</title>
<path fill="none" stroke="#404040" d="M811.959,-364.684C806.043,-314.424 791.807,-210.914 772,-181 765.707,-171.497 756.715,-163.41 747.353,-156.793"/>
<polygon fill="none" stroke="#404040" points="747.231,-156.715 740.021,-156.811 737.159,-150.192 744.369,-150.096 747.231,-156.715"/>
<text text-anchor="middle" x="816" y="-236.5" font-family="Helvetica,sans-Serif" font-size="10.00"> +action</text>
</g>
<!-- Node21&#45;&gt;Node20 -->
<g id="edge24" class="edge"><title>Node21&#45;&gt;Node20</title>
<path fill="none" stroke="#404040" d="M819.906,-364.902C825.289,-337.389 834.564,-297.605 845,-286 859.404,-269.983 870.289,-276.688 890,-268 890.844,-267.628 891.694,-267.251 892.549,-266.869"/>
<polygon fill="none" stroke="#404040" points="892.899,-266.709 896.694,-260.577 903.813,-261.721 900.019,-267.853 892.899,-266.709"/>
<text text-anchor="middle" x="877.5" y="-333" font-family="Helvetica,sans-Serif" font-size="10.00"> +on_create</text>
<text text-anchor="middle" x="877.5" y="-322" font-family="Helvetica,sans-Serif" font-size="10.00">+on_stop</text>
<text text-anchor="middle" x="877.5" y="-311" font-family="Helvetica,sans-Serif" font-size="10.00">+on_destroy</text>
<text text-anchor="middle" x="877.5" y="-300" font-family="Helvetica,sans-Serif" font-size="10.00">+on_start</text>
<text text-anchor="middle" x="877.5" y="-289" font-family="Helvetica,sans-Serif" font-size="10.00">+on_parse_opt</text>
</g>
<!-- Node22 -->
<g id="node22" class="node"><title>Node22</title>
<polygon fill="none" stroke="#bfbfbf" points="520.5,-365 520.5,-422 561.5,-422 561.5,-365 520.5,-365"/>
<text text-anchor="middle" x="541" y="-410" font-family="Helvetica,sans-Serif" font-size="10.00">void *</text>
<polyline fill="none" stroke="#bfbfbf" points="520.5,-403 561.5,-403 "/>
<text text-anchor="middle" x="541" y="-391" font-family="Helvetica,sans-Serif" font-size="10.00"> </text>
<polyline fill="none" stroke="#bfbfbf" points="520.5,-384 561.5,-384 "/>
<text text-anchor="middle" x="541" y="-372" font-family="Helvetica,sans-Serif" font-size="10.00"> </text>
</g>
<!-- Node22&#45;&gt;Node2 -->
<g id="edge38" class="edge"><title>Node22&#45;&gt;Node2</title>
<path fill="none" stroke="#404040" d="M561.655,-368.477C589.832,-332.614 633.715,-263.56 605,-210 559.829,-125.745 456.066,-75.0057 388.874,-49.7871"/>
<polygon fill="none" stroke="#404040" points="388.459,-49.6356 381.451,-51.3345 377.187,-45.5189 384.195,-43.82 388.459,-49.6356"/>
<text text-anchor="middle" x="607" y="-184" font-family="Helvetica,sans-Serif" font-size="10.00"> +data</text>
</g>
<!-- Node22&#45;&gt;Node8 -->
<g id="edge35" class="edge"><title>Node22&#45;&gt;Node8</title>
<path fill="none" stroke="#404040" d="M520.291,-370.207C490.175,-337.617 437.188,-279.573 431,-268 412.14,-232.731 421.122,-218.781 408,-181 407.229,-178.779 406.397,-176.515 405.528,-174.241"/>
<polygon fill="none" stroke="#404040" points="405.46,-174.074 399.5,-170.014 400.956,-162.951 406.915,-167.011 405.46,-174.074"/>
<text text-anchor="middle" x="445" y="-236.5" font-family="Helvetica,sans-Serif" font-size="10.00"> +data</text>
</g>
<!-- Node22&#45;&gt;Node10 -->
<g id="edge32" class="edge"><title>Node22&#45;&gt;Node10</title>
<path fill="none" stroke="#404040" d="M520.123,-388.995C492.84,-383.397 445.12,-369.967 416,-341 397.215,-322.314 408.907,-307.19 393,-286 390.441,-282.592 387.576,-279.287 384.527,-276.118"/>
<polygon fill="none" stroke="#404040" points="384.243,-275.848 377.14,-274.605 375.555,-267.57 382.658,-268.813 384.243,-275.848"/>
<text text-anchor="middle" x="430" y="-311" font-family="Helvetica,sans-Serif" font-size="10.00"> +data</text>
</g>
<!-- Node22&#45;&gt;Node19 -->
<g id="edge26" class="edge"><title>Node22&#45;&gt;Node19</title>
<path fill="none" stroke="#404040" d="M561.817,-388.715C613.965,-378.276 752.024,-344.624 836,-268 857.591,-248.299 849.141,-233.138 867,-210 877.742,-196.083 891.187,-182.509 904.017,-170.82"/>
<polygon fill="none" stroke="#404040" points="904.23,-170.631 906.062,-163.656 913.204,-162.664 911.373,-169.638 904.23,-170.631"/>
<text text-anchor="middle" x="881" y="-236.5" font-family="Helvetica,sans-Serif" font-size="10.00"> +data</text>
</g>
<!-- Node23 -->
<g id="node23" class="node"><title>Node23</title>
<polygon fill="none" stroke="#bfbfbf" points="554,-210.5 554,-267.5 596,-267.5 596,-210.5 554,-210.5"/>
<text text-anchor="middle" x="575" y="-255.5" font-family="Helvetica,sans-Serif" font-size="10.00">char *</text>
<polyline fill="none" stroke="#bfbfbf" points="554,-248.5 596,-248.5 "/>
<text text-anchor="middle" x="575" y="-236.5" font-family="Helvetica,sans-Serif" font-size="10.00"> </text>
<polyline fill="none" stroke="#bfbfbf" points="554,-229.5 596,-229.5 "/>
<text text-anchor="middle" x="575" y="-217.5" font-family="Helvetica,sans-Serif" font-size="10.00"> </text>
</g>
<!-- Node23&#45;&gt;Node8 -->
<g id="edge36" class="edge"><title>Node23&#45;&gt;Node8</title>
<path fill="none" stroke="#404040" d="M553.8,-217.305C550.914,-214.76 547.934,-212.262 545,-210 516.255,-187.842 479.908,-169.962 449.428,-157.226"/>
<polygon fill="none" stroke="#404040" points="449.175,-157.123 442.11,-158.565 438.061,-152.598 445.127,-151.156 449.175,-157.123"/>
<text text-anchor="middle" x="526.5" y="-184" font-family="Helvetica,sans-Serif" font-size="10.00"> +id</text>
</g>
<!-- Node23&#45;&gt;Node19 -->
<g id="edge27" class="edge"><title>Node23&#45;&gt;Node19</title>
<path fill="none" stroke="#404040" d="M596.058,-228.106C609.3,-222.192 626.876,-214.901 643,-210 681.612,-198.264 692.695,-201.152 732,-192 784.136,-179.86 842.842,-164.241 885.878,-152.424"/>
<polygon fill="none" stroke="#404040" points="886.013,-152.387 890.735,-146.936 897.582,-149.198 892.861,-154.649 886.013,-152.387"/>
<text text-anchor="middle" x="782.5" y="-184" font-family="Helvetica,sans-Serif" font-size="10.00"> +id</text>
</g>
<!-- Node24 -->
<g id="node24" class="node"><title>Node24</title>
<polygon fill="none" stroke="#bfbfbf" points="1280.5,-585.5 1280.5,-642.5 1361.5,-642.5 1361.5,-585.5 1280.5,-585.5"/>
<text text-anchor="middle" x="1321" y="-630.5" font-family="Helvetica,sans-Serif" font-size="10.00">struct listeners</text>
<polyline fill="none" stroke="#bfbfbf" points="1280.5,-623.5 1361.5,-623.5 "/>
<text text-anchor="middle" x="1321" y="-611.5" font-family="Helvetica,sans-Serif" font-size="10.00"> </text>
<polyline fill="none" stroke="#bfbfbf" points="1280.5,-604.5 1361.5,-604.5 "/>
<text text-anchor="middle" x="1321" y="-592.5" font-family="Helvetica,sans-Serif" font-size="10.00"> </text>
</g>
<!-- Node24&#45;&gt;Node11 -->
<g id="edge28" class="edge"><title>Node24&#45;&gt;Node11</title>
<path fill="none" stroke="#404040" d="M1320.9,-585.269C1319.97,-551.437 1315.79,-492.948 1299,-446 1297.41,-441.555 1295.4,-437.087 1293.15,-432.741"/>
<polygon fill="none" stroke="#404040" points="1293.14,-432.712 1286.7,-429.461 1287.23,-422.269 1293.66,-425.52 1293.14,-432.712"/>
<text text-anchor="middle" x="1343" y="-504" font-family="Helvetica,sans-Serif" font-size="10.00"> +listeners</text>
</g>
<!-- Node25 -->
<g id="node25" class="node"><title>Node25</title>
<polygon fill="none" stroke="#bfbfbf" points="351.5,-365 351.5,-422 416.5,-422 416.5,-365 351.5,-365"/>
<text text-anchor="middle" x="384" y="-410" font-family="Helvetica,sans-Serif" font-size="10.00">devices_t *</text>
<polyline fill="none" stroke="#bfbfbf" points="351.5,-403 416.5,-403 "/>
<text text-anchor="middle" x="384" y="-391" font-family="Helvetica,sans-Serif" font-size="10.00"> </text>
<polyline fill="none" stroke="#bfbfbf" points="351.5,-384 416.5,-384 "/>
<text text-anchor="middle" x="384" y="-372" font-family="Helvetica,sans-Serif" font-size="10.00"> </text>
</g>
<!-- Node25&#45;&gt;Node10 -->
<g id="edge33" class="edge"><title>Node25&#45;&gt;Node10</title>
<path fill="none" stroke="#404040" d="M362.527,-364.859C357.702,-357.458 353.1,-349.22 350,-341 342.708,-321.663 339.155,-298.957 337.447,-279.977"/>
<polygon fill="none" stroke="#404040" points="337.434,-279.786 333.005,-274.096 336.554,-267.819 340.983,-273.509 337.434,-279.786"/>
<text text-anchor="middle" x="371.5" y="-311" font-family="Helvetica,sans-Serif" font-size="10.00"> +devices</text>
</g>
<!-- Node26 -->
<g id="node26" class="node"><title>Node26</title>
<polygon fill="none" stroke="#bfbfbf" points="652.5,-210.5 652.5,-267.5 749.5,-267.5 749.5,-210.5 652.5,-210.5"/>
<text text-anchor="middle" x="701" y="-255.5" font-family="Helvetica,sans-Serif" font-size="10.00">enum hpd_method</text>
<polyline fill="none" stroke="#bfbfbf" points="652.5,-248.5 749.5,-248.5 "/>
<text text-anchor="middle" x="701" y="-236.5" font-family="Helvetica,sans-Serif" font-size="10.00"> </text>
<polyline fill="none" stroke="#bfbfbf" points="652.5,-229.5 749.5,-229.5 "/>
<text text-anchor="middle" x="701" y="-217.5" font-family="Helvetica,sans-Serif" font-size="10.00"> </text>
</g>
<!-- Node26&#45;&gt;Node1 -->
<g id="edge39" class="edge"><title>Node26&#45;&gt;Node1</title>
<path fill="none" stroke="#404040" d="M691.701,-210.233C689.649,-200.96 688.481,-190.555 690,-181 690.341,-178.853 690.767,-176.671 691.256,-174.482"/>
<polygon fill="none" stroke="#404040" points="691.26,-174.466 688.948,-167.635 694.363,-162.874 696.676,-169.704 691.26,-174.466"/>
<text text-anchor="middle" x="711" y="-184" font-family="Helvetica,sans-Serif" font-size="10.00"> +method</text>
</g>
</g>
</svg>
        <g id="navigator" transform="translate(0 0)" fill="#404254">
                <rect fill="#f2f5e9" fill-opacity="0.5" stroke="#606060" stroke-width=".5" x="0" y="0" width="60" height="60"/>
                <use id="zoomplus" xlink:href="#zoomPlus" x="17" y="9" onmousedown="handleZoom(evt,'in')"/>
                <use id="zoomminus" xlink:href="#zoomMin" x="42" y="9" onmousedown="handleZoom(evt,'out')"/>
                <use id="reset" xlink:href="#resetDef" x="30" y="36" onmousedown="handleReset()"/>
                <g id="arrowUp" xlink:href="#dirArrow" transform="translate(30 24)" onmousedown="handlePan(0,-1)">
                  <use xlink:href="#rim" fill="#404040">
                        <set attributeName="fill" to="#808080" begin="arrowUp.mouseover" end="arrowUp.mouseout"/>
                  </use>
                  <path fill="none" stroke="white" stroke-width="1.5" d="M0,-3.0v7 M-2.5,-0.5L0,-3.0L2.5,-0.5"/>
                </g>
                <g id="arrowRight" xlink:href="#dirArrow" transform="rotate(90) translate(36 -43)" onmousedown="handlePan(1,0)">
                  <use xlink:href="#rim" fill="#404040">
                        <set attributeName="fill" to="#808080" begin="arrowRight.mouseover" end="arrowRight.mouseout"/>
                  </use>
                  <path fill="none" stroke="white" stroke-width="1.5" d="M0,-3.0v7 M-2.5,-0.5L0,-3.0L2.5,-0.5"/>
                </g>
                <g id="arrowDown" xlink:href="#dirArrow" transform="rotate(180) translate(-30 -48)" onmousedown="handlePan(0,1)">
                  <use xlink:href="#rim" fill="#404040">
                        <set attributeName="fill" to="#808080" begin="arrowDown.mouseover" end="arrowDown.mouseout"/>
                  </use>
                  <path fill="none" stroke="white" stroke-width="1.5" d="M0,-3.0v7 M-2.5,-0.5L0,-3.0L2.5,-0.5"/>
                </g>
                <g id="arrowLeft" xlink:href="#dirArrow" transform="rotate(270) translate(-36 17)" onmousedown="handlePan(-1,0)">
                  <use xlink:href="#rim" fill="#404040">
                        <set attributeName="fill" to="#808080" begin="arrowLeft.mouseover" end="arrowLeft.mouseout"/>
                  </use>
                  <path fill="none" stroke="white" stroke-width="1.5" d="M0,-3.0v7 M-2.5,-0.5L0,-3.0L2.5,-0.5"/>
                </g>
        </g>
        <svg viewBox="0 0 15 15" width="100%" height="30px" preserveAspectRatio="xMaxYMin meet">
         <g id="arrow_out" transform="scale(0.3 0.3)">
          <a xlink:href="a00221_org.svg" target="_base">
           <rect id="button" ry="5" rx="5" y="6" x="6" height="38" width="38"
                fill="#f2f5e9" fill-opacity="0.5" stroke="#606060" stroke-width="1.0"/>
           <path id="arrow"
             d="M 11.500037,31.436501 C 11.940474,20.09759 22.043105,11.32322 32.158766,21.979434 L 37.068811,17.246167 C 37.068811,17.246167 37.088388,32 37.088388,32 L 22.160133,31.978069 C 22.160133,31.978069 26.997745,27.140456 26.997745,27.140456 C 18.528582,18.264221 13.291696,25.230495 11.500037,31.436501 z"
             style="fill:#404040;"/>
          </a>
         </g>
        </svg>
</svg>
