<?xml version="1.0" encoding="UTF-8" standalone="no"?>
<!DOCTYPE svg PUBLIC "-//W3C//DTD SVG 1.1//EN"
 "http://www.w3.org/Graphics/SVG/1.1/DTD/svg11.dtd">
<!-- Generated by graphviz version 2.38.0 (20140413.2041)
 -->
<!-- Title: hpd_tcpd_conn Pages: 1 -->
<svg width="1334pt" height="552pt"
 viewBox="0.00 0.00 1334.00 552.00" xmlns="http://www.w3.org/2000/svg" xmlns:xlink="http://www.w3.org/1999/xlink">
<g id="graph0" class="graph" transform="scale(1 1) rotate(0) translate(4 548)">
<title>hpd_tcpd_conn</title>
<!-- Node1 -->
<g id="node1" class="node"><title>Node1</title>
<polygon fill="#bfbfbf" stroke="black" points="211,-0.5 211,-57.5 311,-57.5 311,-0.5 211,-0.5"/>
<text text-anchor="middle" x="261" y="-45.5" font-family="Helvetica,sans-Serif" font-size="10.00">hpd_tcpd_conn</text>
<polyline fill="none" stroke="black" points="211,-38.5 311,-38.5 "/>
<text text-anchor="middle" x="261" y="-26.5" font-family="Helvetica,sans-Serif" font-size="10.00"> </text>
<polyline fill="none" stroke="black" points="211,-19.5 311,-19.5 "/>
<text text-anchor="start" x="219" y="-7.5" font-family="Helvetica,sans-Serif" font-size="10.00">+ TAILQ_ENTRY()</text>
</g>
<!-- Node2 -->
<g id="node2" class="node"><title>Node2</title>
<polygon fill="none" stroke="#bfbfbf" points="238.5,-232.5 238.5,-289.5 273.5,-289.5 273.5,-232.5 238.5,-232.5"/>
<text text-anchor="middle" x="256" y="-277.5" font-family="Helvetica,sans-Serif" font-size="10.00">char</text>
<polyline fill="none" stroke="#bfbfbf" points="238.5,-270.5 273.5,-270.5 "/>
<text text-anchor="middle" x="256" y="-258.5" font-family="Helvetica,sans-Serif" font-size="10.00"> </text>
<polyline fill="none" stroke="#bfbfbf" points="238.5,-251.5 273.5,-251.5 "/>
<text text-anchor="middle" x="256" y="-239.5" font-family="Helvetica,sans-Serif" font-size="10.00"> </text>
</g>
<!-- Node2&#45;&gt;Node1 -->
<g id="edge1" class="edge"><title>Node2&#45;&gt;Node1</title>
<path fill="none" stroke="#404040" d="M238.421,-248.063C220.847,-234.956 194.914,-212.127 184,-185 174.379,-161.085 175.513,-151.341 184,-127 191.824,-104.559 207.246,-83.4141 222.247,-66.6291"/>
<polygon fill="none" stroke="#404040" points="222.312,-66.5582 223.47,-59.4407 230.486,-57.7721 229.328,-64.8896 222.312,-66.5582"/>
<text text-anchor="middle" x="211.5" y="-159" font-family="Helvetica,sans-Serif" font-size="10.00"> +send_msg</text>
<text text-anchor="middle" x="211.5" y="-148" font-family="Helvetica,sans-Serif" font-size="10.00">+ip</text>
</g>
<!-- Node8 -->
<g id="node8" class="node"><title>Node8</title>
<g id="a_node8"><a xlink:href="a00027.html#a00114" target="_top" xlink:title="Instance of a tcpd. ">
<polygon fill="none" stroke="black" points="538,-127.5 538,-184.5 594,-184.5 594,-127.5 538,-127.5"/>
<text text-anchor="middle" x="566" y="-172.5" font-family="Helvetica,sans-Serif" font-size="10.00">hpd_tcpd</text>
<polyline fill="none" stroke="black" points="538,-165.5 594,-165.5 "/>
<text text-anchor="middle" x="566" y="-153.5" font-family="Helvetica,sans-Serif" font-size="10.00"> </text>
<polyline fill="none" stroke="black" points="538,-146.5 594,-146.5 "/>
<text text-anchor="middle" x="566" y="-134.5" font-family="Helvetica,sans-Serif" font-size="10.00"> </text>
</a>
</g>
</g>
<!-- Node2&#45;&gt;Node8 -->
<g id="edge9" class="edge"><title>Node2&#45;&gt;Node8</title>
<path fill="none" stroke="#404040" d="M273.032,-232.381C281.287,-221.396 292.199,-209.78 305,-203 367.457,-169.92 393.588,-198.308 463,-185 484.15,-180.945 507.324,-174.801 526.326,-169.301"/>
<polygon fill="none" stroke="#404040" points="526.345,-169.295 530.966,-163.759 537.854,-165.896 533.233,-171.432 526.345,-169.295"/>
<text text-anchor="middle" x="326.5" y="-206" font-family="Helvetica,sans-Serif" font-size="10.00"> +port_str</text>
</g>
<!-- Node3 -->
<g id="node3" class="node"><title>Node3</title>
<polygon fill="none" stroke="#bfbfbf" points="411.5,-127.5 411.5,-184.5 454.5,-184.5 454.5,-127.5 411.5,-127.5"/>
<text text-anchor="middle" x="433" y="-172.5" font-family="Helvetica,sans-Serif" font-size="10.00">size_t</text>
<polyline fill="none" stroke="#bfbfbf" points="411.5,-165.5 454.5,-165.5 "/>
<text text-anchor="middle" x="433" y="-153.5" font-family="Helvetica,sans-Serif" font-size="10.00"> </text>
<polyline fill="none" stroke="#bfbfbf" points="411.5,-146.5 454.5,-146.5 "/>
<text text-anchor="middle" x="433" y="-134.5" font-family="Helvetica,sans-Serif" font-size="10.00"> </text>
</g>
<!-- Node3&#45;&gt;Node1 -->
<g id="edge2" class="edge"><title>Node3&#45;&gt;Node1</title>
<path fill="none" stroke="#404040" d="M411.366,-139.347C404.467,-134.88 396.637,-130.328 389,-127 359.946,-114.339 346.002,-127.121 320,-109 305.333,-98.7784 307.624,-90.3782 297,-76 294.84,-73.0766 292.579,-70.07 290.288,-67.0609"/>
<polygon fill="none" stroke="#404040" points="290.276,-67.0459 283.446,-64.7339 282.953,-57.5397 289.783,-59.8517 290.276,-67.0459"/>
<text text-anchor="middle" x="344.5" y="-90" font-family="Helvetica,sans-Serif" font-size="10.00"> +send_len</text>
</g>
<!-- Node11 -->
<g id="node11" class="node"><title>Node11</title>
<g id="a_node11"><a xlink:href="a00029.html#a00115" target="_top" xlink:title="Settings struct for tcpd. ">
<polygon fill="none" stroke="black" points="566,-0.5 566,-57.5 662,-57.5 662,-0.5 566,-0.5"/>
<text text-anchor="middle" x="614" y="-45.5" font-family="Helvetica,sans-Serif" font-size="10.00">hpd_tcpd_settings</text>
<polyline fill="none" stroke="black" points="566,-38.5 662,-38.5 "/>
<text text-anchor="middle" x="614" y="-26.5" font-family="Helvetica,sans-Serif" font-size="10.00"> </text>
<polyline fill="none" stroke="black" points="566,-19.5 662,-19.5 "/>
<text text-anchor="middle" x="614" y="-7.5" font-family="Helvetica,sans-Serif" font-size="10.00"> </text>
</a>
</g>
</g>
<!-- Node3&#45;&gt;Node11 -->
<g id="edge13" class="edge"><title>Node3&#45;&gt;Node11</title>
<path fill="none" stroke="#404040" d="M429.34,-127.412C428.691,-110.642 430.918,-89.8601 443,-76 457.68,-59.1598 510.806,-46.6146 553.993,-38.9153"/>
<polygon fill="none" stroke="#404040" points="554.044,-38.9067 559.279,-33.9476 565.87,-36.8727 560.635,-41.8318 554.044,-38.9067"/>
<text text-anchor="middle" x="481" y="-90" font-family="Helvetica,sans-Serif" font-size="10.00"> +max_data_size</text>
</g>
<!-- Node4 -->
<g id="node4" class="node"><title>Node4</title>
<polygon fill="none" stroke="#bfbfbf" points="0,-127.5 0,-184.5 54,-184.5 54,-127.5 0,-127.5"/>
<text text-anchor="middle" x="27" y="-172.5" font-family="Helvetica,sans-Serif" font-size="10.00">ev_timer</text>
<polyline fill="none" stroke="#bfbfbf" points="0,-165.5 54,-165.5 "/>
<text text-anchor="middle" x="27" y="-153.5" font-family="Helvetica,sans-Serif" font-size="10.00"> </text>
<polyline fill="none" stroke="#bfbfbf" points="0,-146.5 54,-146.5 "/>
<text text-anchor="middle" x="27" y="-134.5" font-family="Helvetica,sans-Serif" font-size="10.00"> </text>
</g>
<!-- Node4&#45;&gt;Node1 -->
<g id="edge3" class="edge"><title>Node4&#45;&gt;Node1</title>
<path fill="none" stroke="#404040" d="M19.3228,-127.145C16.5118,-110.483 16.4156,-89.9146 28,-76 49.3799,-50.3196 137.088,-38.7179 198.565,-33.6618"/>
<polygon fill="none" stroke="#404040" points="198.903,-33.6357 204.575,-29.1836 210.867,-32.7075 205.194,-37.1596 198.903,-33.6357"/>
<text text-anchor="middle" x="69" y="-90" font-family="Helvetica,sans-Serif" font-size="10.00"> +timeout_watcher</text>
</g>
<!-- Node5 -->
<g id="node5" class="node"><title>Node5</title>
<polygon fill="none" stroke="#bfbfbf" points="479.5,-486.5 479.5,-543.5 508.5,-543.5 508.5,-486.5 479.5,-486.5"/>
<text text-anchor="middle" x="494" y="-531.5" font-family="Helvetica,sans-Serif" font-size="10.00">int</text>
<polyline fill="none" stroke="#bfbfbf" points="479.5,-524.5 508.5,-524.5 "/>
<text text-anchor="middle" x="494" y="-512.5" font-family="Helvetica,sans-Serif" font-size="10.00"> </text>
<polyline fill="none" stroke="#bfbfbf" points="479.5,-505.5 508.5,-505.5 "/>
<text text-anchor="middle" x="494" y="-493.5" font-family="Helvetica,sans-Serif" font-size="10.00"> </text>
</g>
<!-- Node5&#45;&gt;Node1 -->
<g id="edge4" class="edge"><title>Node5&#45;&gt;Node1</title>
<path fill="none" stroke="#404040" d="M479.496,-511.556C411.088,-499.629 124,-444.933 124,-367 124,-367 124,-367 124,-155 124,-110.75 163.484,-77.9854 200.059,-57.1273"/>
<polygon fill="none" stroke="#404040" points="200.225,-57.037 203.582,-50.6549 210.764,-51.2989 207.407,-57.681 200.225,-57.037"/>
<text text-anchor="middle" x="153.5" y="-264" font-family="Helvetica,sans-Serif" font-size="10.00"> +send_close</text>
<text text-anchor="middle" x="153.5" y="-253" font-family="Helvetica,sans-Serif" font-size="10.00">+timeout</text>
</g>
<!-- Node5&#45;&gt;Node8 -->
<g id="edge11" class="edge"><title>Node5&#45;&gt;Node8</title>
<path fill="none" stroke="#404040" d="M499.59,-486.284C512.271,-423.408 543.257,-269.77 557.979,-196.771"/>
<polygon fill="none" stroke="#404040" points="557.992,-196.708 555.257,-190.035 560.364,-184.945 563.099,-191.617 557.992,-196.708"/>
<text text-anchor="middle" x="554.5" y="-311" font-family="Helvetica,sans-Serif" font-size="10.00"> +sockfd</text>
</g>
<!-- Node5&#45;&gt;Node11 -->
<g id="edge14" class="edge"><title>Node5&#45;&gt;Node11</title>
<path fill="none" stroke="#404040" d="M487.369,-486.345C476.245,-435.329 457.005,-323.277 478,-232 495.288,-156.839 505.132,-135.665 554,-76 556.872,-72.4935 560.061,-69.0961 563.429,-65.842"/>
<polygon fill="none" stroke="#404040" points="563.719,-65.5823 565.529,-58.6017 572.668,-57.5868 570.859,-64.5673 563.719,-65.5823"/>
<text text-anchor="middle" x="507" y="-264" font-family="Helvetica,sans-Serif" font-size="10.00"> +retry_delay</text>
<text text-anchor="middle" x="507" y="-253" font-family="Helvetica,sans-Serif" font-size="10.00">+timeout</text>
</g>
<!-- Node16 -->
<g id="node16" class="node"><title>Node16</title>
<g id="a_node16"><a xlink:href="a00009.html#a00093" target="_top" xlink:title="{hpd\n||}">
<polygon fill="none" stroke="black" points="963,-337.5 963,-394.5 995,-394.5 995,-337.5 963,-337.5"/>
<text text-anchor="middle" x="979" y="-382.5" font-family="Helvetica,sans-Serif" font-size="10.00">hpd</text>
<polyline fill="none" stroke="black" points="963,-375.5 995,-375.5 "/>
<text text-anchor="middle" x="979" y="-363.5" font-family="Helvetica,sans-Serif" font-size="10.00"> </text>
<polyline fill="none" stroke="black" points="963,-356.5 995,-356.5 "/>
<text text-anchor="middle" x="979" y="-344.5" font-family="Helvetica,sans-Serif" font-size="10.00"> </text>
</a>
</g>
</g>
<!-- Node5&#45;&gt;Node16 -->
<g id="edge29" class="edge"><title>Node5&#45;&gt;Node16</title>
<path fill="none" stroke="#404040" d="M508.641,-510.498C532.5,-504.863 581.298,-493.645 623,-486 676.046,-476.275 692.362,-486.554 743,-468 786.661,-452.003 789.703,-432.317 832,-413 871.801,-394.823 920.777,-381.09 950.939,-373.546"/>
<polygon fill="none" stroke="#404040" points="950.974,-373.537 955.856,-368.231 962.633,-370.696 957.75,-376.003 950.974,-373.537"/>
<text text-anchor="middle" x="867" y="-438" font-family="Helvetica,sans-Serif" font-size="10.00"> +options_count</text>
</g>
<!-- Node6 -->
<g id="node6" class="node"><title>Node6</title>
<polygon fill="none" stroke="#bfbfbf" points="570.5,-337.5 570.5,-394.5 611.5,-394.5 611.5,-337.5 570.5,-337.5"/>
<text text-anchor="middle" x="591" y="-382.5" font-family="Helvetica,sans-Serif" font-size="10.00">void *</text>
<polyline fill="none" stroke="#bfbfbf" points="570.5,-375.5 611.5,-375.5 "/>
<text text-anchor="middle" x="591" y="-363.5" font-family="Helvetica,sans-Serif" font-size="10.00"> </text>
<polyline fill="none" stroke="#bfbfbf" points="570.5,-356.5 611.5,-356.5 "/>
<text text-anchor="middle" x="591" y="-344.5" font-family="Helvetica,sans-Serif" font-size="10.00"> </text>
</g>
<!-- Node6&#45;&gt;Node1 -->
<g id="edge5" class="edge"><title>Node6&#45;&gt;Node1</title>
<path fill="none" stroke="#404040" d="M579.512,-337.216C573.705,-326.478 565.605,-315.092 555,-308 516.006,-281.924 488.962,-317.557 451,-290 415.604,-264.306 428.259,-240.042 405,-203 382.688,-167.467 382.555,-152.188 349,-127 330.445,-113.072 317.255,-124.509 300,-109 288.18,-98.3762 279.53,-83.3618 273.424,-69.2713"/>
<polygon fill="none" stroke="#404040" points="273.289,-68.9297 267.364,-64.8192 268.88,-57.7691 274.804,-61.8796 273.289,-68.9297"/>
<text text-anchor="middle" x="422.5" y="-206" font-family="Helvetica,sans-Serif" font-size="10.00"> +ctx</text>
</g>
<!-- Node6&#45;&gt;Node11 -->
<g id="edge16" class="edge"><title>Node6&#45;&gt;Node11</title>
<path fill="none" stroke="#404040" d="M587.717,-337.312C585.804,-307.015 588.004,-259.154 616,-232 653.135,-195.982 681.619,-229.424 731,-214 759.271,-205.17 775.26,-210.09 791,-185 819.036,-140.31 788.037,-105.05 744,-76 722.898,-62.0796 697.086,-51.8166 674.041,-44.5621"/>
<polygon fill="none" stroke="#404040" points="673.776,-44.483 666.881,-46.5929 662.281,-41.0394 669.176,-38.9294 673.776,-44.483"/>
<text text-anchor="middle" x="796.5" y="-206" font-family="Helvetica,sans-Serif" font-size="10.00"> +tcpd_ctx</text>
</g>
<!-- Node13 -->
<g id="node13" class="node"><title>Node13</title>
<g id="a_node13"><a xlink:href="a00020.html" target="_top" xlink:title="{hpd_module\n||+ TAILQ_ENTRY()\l}">
<polygon fill="none" stroke="black" points="625,-232.5 625,-289.5 725,-289.5 725,-232.5 625,-232.5"/>
<text text-anchor="middle" x="675" y="-277.5" font-family="Helvetica,sans-Serif" font-size="10.00">hpd_module</text>
<polyline fill="none" stroke="black" points="625,-270.5 725,-270.5 "/>
<text text-anchor="middle" x="675" y="-258.5" font-family="Helvetica,sans-Serif" font-size="10.00"> </text>
<polyline fill="none" stroke="black" points="625,-251.5 725,-251.5 "/>
<text text-anchor="start" x="633" y="-239.5" font-family="Helvetica,sans-Serif" font-size="10.00">+ TAILQ_ENTRY()</text>
</a>
</g>
</g>
<!-- Node6&#45;&gt;Node13 -->
<g id="edge33" class="edge"><title>Node6&#45;&gt;Node13</title>
<path fill="none" stroke="#404040" d="M611.549,-339.803C621.476,-327.631 633.589,-312.778 644.561,-299.324"/>
<polygon fill="none" stroke="#404040" points="644.716,-299.134 645.408,-291.956 652.3,-289.834 651.608,-297.012 644.716,-299.134"/>
<text text-anchor="middle" x="650" y="-311" font-family="Helvetica,sans-Serif" font-size="10.00"> +data</text>
</g>
<!-- Node7 -->
<g id="node7" class="node"><title>Node7</title>
<polygon fill="none" stroke="#bfbfbf" points="316,-232.5 316,-289.5 356,-289.5 356,-232.5 316,-232.5"/>
<text text-anchor="middle" x="336" y="-277.5" font-family="Helvetica,sans-Serif" font-size="10.00">ev_io</text>
<polyline fill="none" stroke="#bfbfbf" points="316,-270.5 356,-270.5 "/>
<text text-anchor="middle" x="336" y="-258.5" font-family="Helvetica,sans-Serif" font-size="10.00"> </text>
<polyline fill="none" stroke="#bfbfbf" points="316,-251.5 356,-251.5 "/>
<text text-anchor="middle" x="336" y="-239.5" font-family="Helvetica,sans-Serif" font-size="10.00"> </text>
</g>
<!-- Node7&#45;&gt;Node1 -->
<g id="edge6" class="edge"><title>Node7&#45;&gt;Node1</title>
<path fill="none" stroke="#404040" d="M315.667,-246.165C305.369,-238.036 293.664,-226.842 287,-214 263.385,-168.492 259.07,-108.578 259.193,-69.6805"/>
<polygon fill="none" stroke="#404040" points="259.194,-69.5892 255.286,-63.529 259.377,-57.5905 263.285,-63.6507 259.194,-69.5892"/>
<text text-anchor="middle" x="310" y="-159" font-family="Helvetica,sans-Serif" font-size="10.00"> +send_watcher</text>
<text text-anchor="middle" x="310" y="-148" font-family="Helvetica,sans-Serif" font-size="10.00">+recv_watcher</text>
</g>
<!-- Node7&#45;&gt;Node8 -->
<g id="edge35" class="edge"><title>Node7&#45;&gt;Node8</title>
<path fill="none" stroke="#404040" d="M342.102,-232.4C345.832,-221.692 351.739,-210.278 361,-203 397.194,-174.556 418.076,-195.048 463,-185 484.016,-180.299 507.178,-174.096 526.206,-168.723"/>
<polygon fill="none" stroke="#404040" points="526.218,-168.72 530.887,-163.225 537.755,-165.422 533.086,-170.917 526.218,-168.72"/>
<text text-anchor="middle" x="383" y="-206" font-family="Helvetica,sans-Serif" font-size="10.00"> +watcher</text>
</g>
<!-- Node8&#45;&gt;Node1 -->
<g id="edge7" class="edge"><title>Node8&#45;&gt;Node1</title>
<path fill="none" stroke="#404040" d="M537.982,-147.388C490.817,-134.559 400.513,-109.93 399,-109 382.111,-98.6247 385.157,-87.4817 369,-76 354.964,-66.0255 338.428,-57.6243 322.572,-50.8444"/>
<polygon fill="none" stroke="#404040" points="322.3,-50.7335 315.233,-52.167 311.192,-46.1948 318.259,-44.7612 322.3,-50.7335"/>
<text text-anchor="middle" x="413" y="-90" font-family="Helvetica,sans-Serif" font-size="10.00"> +tcpd</text>
</g>
<!-- Node8&#45;&gt;Node11 -->
<g id="edge17" class="edge"><title>Node8&#45;&gt;Node11</title>
<path fill="none" stroke="#404040" d="M559.087,-127.17C556.6,-111.494 555.917,-91.927 563,-76 564.361,-72.9392 566.038,-69.9962 567.944,-67.1821"/>
<polygon fill="none" stroke="#404040" points="568.162,-66.9119 568.819,-59.7307 575.701,-57.575 575.044,-64.7562 568.162,-66.9119"/>
<text text-anchor="middle" x="599.5" y="-101" font-family="Helvetica,sans-Serif" font-size="10.00"> +on_disconnect</text>
<text text-anchor="middle" x="599.5" y="-90" font-family="Helvetica,sans-Serif" font-size="10.00">+on_connect</text>
<text text-anchor="middle" x="599.5" y="-79" font-family="Helvetica,sans-Serif" font-size="10.00">+on_receive</text>
</g>
<!-- Node9 -->
<g id="node9" class="node"><title>Node9</title>
<polygon fill="none" stroke="#bfbfbf" points="832,-486.5 832,-543.5 918,-543.5 918,-486.5 832,-486.5"/>
<text text-anchor="middle" x="875" y="-531.5" font-family="Helvetica,sans-Serif" font-size="10.00">hpd_ev_loop_t *</text>
<polyline fill="none" stroke="#bfbfbf" points="832,-524.5 918,-524.5 "/>
<text text-anchor="middle" x="875" y="-512.5" font-family="Helvetica,sans-Serif" font-size="10.00"> </text>
<polyline fill="none" stroke="#bfbfbf" points="832,-505.5 918,-505.5 "/>
<text text-anchor="middle" x="875" y="-493.5" font-family="Helvetica,sans-Serif" font-size="10.00"> </text>
</g>
<!-- Node9&#45;&gt;Node8 -->
<g id="edge8" class="edge"><title>Node9&#45;&gt;Node8</title>
<path fill="none" stroke="#404040" d="M876.205,-486.216C878.86,-418.934 883.79,-251.352 868,-232 868,-232 667,-185 667,-185 646.753,-179.828 624.346,-173.662 605.791,-168.434"/>
<polygon fill="none" stroke="#404040" points="605.761,-168.425 598.898,-170.638 594.216,-165.154 601.079,-162.941 605.761,-168.425"/>
<text text-anchor="middle" x="892" y="-311" font-family="Helvetica,sans-Serif" font-size="10.00"> +loop</text>
</g>
<!-- Node9&#45;&gt;Node16 -->
<g id="edge28" class="edge"><title>Node9&#45;&gt;Node16</title>
<path fill="none" stroke="#404040" d="M893.79,-486.407C907.757,-466.015 927.366,-437.634 945,-413 948.432,-408.205 952.101,-403.16 955.713,-398.239"/>
<polygon fill="none" stroke="#404040" points="955.825,-398.087 956.169,-390.884 962.95,-388.431 962.606,-395.634 955.825,-398.087"/>
<text text-anchor="middle" x="959" y="-438" font-family="Helvetica,sans-Serif" font-size="10.00"> +loop</text>
</g>
<!-- Node10 -->
<g id="node10" class="node"><title>Node10</title>
<polygon fill="none" stroke="#bfbfbf" points="743,-232.5 743,-289.5 859,-289.5 859,-232.5 743,-232.5"/>
<text text-anchor="middle" x="801" y="-277.5" font-family="Helvetica,sans-Serif" font-size="10.00">struct hpd_tcpd_conns</text>
<polyline fill="none" stroke="#bfbfbf" points="743,-270.5 859,-270.5 "/>
<text text-anchor="middle" x="801" y="-258.5" font-family="Helvetica,sans-Serif" font-size="10.00"> </text>
<polyline fill="none" stroke="#bfbfbf" points="743,-251.5 859,-251.5 "/>
<text text-anchor="middle" x="801" y="-239.5" font-family="Helvetica,sans-Serif" font-size="10.00"> </text>
</g>
<!-- Node10&#45;&gt;Node8 -->
<g id="edge10" class="edge"><title>Node10&#45;&gt;Node8</title>
<path fill="none" stroke="#404040" d="M742.91,-234.539C700.045,-215.752 642.864,-190.689 605.268,-174.211"/>
<polygon fill="none" stroke="#404040" points="605.257,-174.206 598.156,-175.461 594.266,-169.389 601.367,-168.134 605.257,-174.206"/>
<text text-anchor="middle" x="709" y="-206" font-family="Helvetica,sans-Serif" font-size="10.00"> +conns</text>
</g>
<!-- Node11&#45;&gt;Node8 -->
<g id="edge12" class="edge"><title>Node11&#45;&gt;Node8</title>
<path fill="none" stroke="#404040" d="M633.939,-57.7534C642.58,-73.4042 648.909,-92.9721 640,-109 632.364,-122.738 618.735,-132.902 605.237,-140.131"/>
<polygon fill="none" stroke="#404040" points="604.87,-140.308 601.206,-146.519 594.064,-145.526 597.728,-139.315 604.87,-140.308"/>
<text text-anchor="middle" x="667" y="-90" font-family="Helvetica,sans-Serif" font-size="10.00"> +settings</text>
</g>
<!-- Node12 -->
<g id="node12" class="node"><title>Node12</title>
<polygon fill="none" stroke="#bfbfbf" points="676.5,-127.5 676.5,-184.5 781.5,-184.5 781.5,-127.5 676.5,-127.5"/>
<text text-anchor="middle" x="729" y="-172.5" font-family="Helvetica,sans-Serif" font-size="10.00">enum hpd_tcpd_port</text>
<polyline fill="none" stroke="#bfbfbf" points="676.5,-165.5 781.5,-165.5 "/>
<text text-anchor="middle" x="729" y="-153.5" font-family="Helvetica,sans-Serif" font-size="10.00"> </text>
<polyline fill="none" stroke="#bfbfbf" points="676.5,-146.5 781.5,-146.5 "/>
<text text-anchor="middle" x="729" y="-134.5" font-family="Helvetica,sans-Serif" font-size="10.00"> </text>
</g>
<!-- Node12&#45;&gt;Node11 -->
<g id="edge15" class="edge"><title>Node12&#45;&gt;Node11</title>
<path fill="none" stroke="#404040" d="M721.109,-127.36C715.365,-110.983 706.248,-90.6399 693,-76 687.07,-69.4468 679.981,-63.568 672.519,-58.3802"/>
<polygon fill="none" stroke="#404040" points="672.279,-58.2259 665.069,-58.3454 662.185,-51.7359 669.396,-51.6164 672.279,-58.2259"/>
<text text-anchor="middle" x="727" y="-90" font-family="Helvetica,sans-Serif" font-size="10.00"> +port</text>
</g>
<!-- Node13&#45;&gt;Node8 -->
<g id="edge18" class="edge"><title>Node13&#45;&gt;Node8</title>
<path fill="none" stroke="#404040" d="M645.79,-232.398C632.651,-219.982 616.992,-205.185 603.039,-192.001"/>
<polygon fill="none" stroke="#404040" points="602.883,-191.853 595.775,-190.639 594.161,-183.611 601.269,-184.824 602.883,-191.853"/>
<text text-anchor="middle" x="645" y="-206" font-family="Helvetica,sans-Serif" font-size="10.00"> +context</text>
</g>
<!-- Node13&#45;&gt;Node16 -->
<g id="edge32" class="edge"><title>Node13&#45;&gt;Node16</title>
<path fill="none" stroke="#404040" d="M725.238,-289.38C745.549,-299.675 769.479,-310.849 792,-319 846.738,-338.812 913.522,-352.953 950.644,-359.973"/>
<polygon fill="none" stroke="#404040" points="951.101,-360.057 957.727,-357.212 962.902,-362.234 956.276,-365.079 951.101,-360.057"/>
<text text-anchor="middle" x="828.5" y="-311" font-family="Helvetica,sans-Serif" font-size="10.00"> +option2module</text>
</g>
<!-- Node14 -->
<g id="node14" class="node"><title>Node14</title>
<g id="a_node14"><a xlink:href="a00021.html#a00106" target="_top" xlink:title="[Application API Callbacks] ">
<polygon fill="none" stroke="black" points="630,-337.5 630,-394.5 718,-394.5 718,-337.5 630,-337.5"/>
<text text-anchor="middle" x="674" y="-382.5" font-family="Helvetica,sans-Serif" font-size="10.00">hpd_module_def</text>
<polyline fill="none" stroke="black" points="630,-375.5 718,-375.5 "/>
<text text-anchor="middle" x="674" y="-363.5" font-family="Helvetica,sans-Serif" font-size="10.00"> </text>
<polyline fill="none" stroke="black" points="630,-356.5 718,-356.5 "/>
<text text-anchor="middle" x="674" y="-344.5" font-family="Helvetica,sans-Serif" font-size="10.00"> </text>
</a>
</g>
</g>
<!-- Node14&#45;&gt;Node13 -->
<g id="edge19" class="edge"><title>Node14&#45;&gt;Node13</title>
<path fill="none" stroke="#404040" d="M674.268,-337.398C674.373,-326.545 674.496,-313.873 674.611,-302.049"/>
<polygon fill="none" stroke="#404040" points="674.615,-301.678 670.673,-295.639 674.731,-289.678 678.673,-295.717 674.615,-301.678"/>
<text text-anchor="middle" x="686.5" y="-311" font-family="Helvetica,sans-Serif" font-size="10.00"> +def</text>
</g>
<!-- Node15 -->
<g id="node15" class="node"><title>Node15</title>
<polygon fill="none" stroke="#bfbfbf" points="632,-486.5 632,-543.5 716,-543.5 716,-486.5 632,-486.5"/>
<text text-anchor="middle" x="674" y="-531.5" font-family="Helvetica,sans-Serif" font-size="10.00">enum hpd_error</text>
<polyline fill="none" stroke="#bfbfbf" points="632,-524.5 716,-524.5 "/>
<text text-anchor="middle" x="674" y="-512.5" font-family="Helvetica,sans-Serif" font-size="10.00"> </text>
<polyline fill="none" stroke="#bfbfbf" points="632,-505.5 716,-505.5 "/>
<text text-anchor="middle" x="674" y="-493.5" font-family="Helvetica,sans-Serif" font-size="10.00"> </text>
</g>
<!-- Node15&#45;&gt;Node14 -->
<g id="edge20" class="edge"><title>Node15&#45;&gt;Node14</title>
<path fill="none" stroke="#404040" d="M674,-486.35C674,-463.868 674,-431.855 674,-406.643"/>
<polygon fill="none" stroke="#404040" points="674,-406.526 670,-400.526 674,-394.526 678,-400.526 674,-406.526"/>
<text text-anchor="middle" x="706.5" y="-460" font-family="Helvetica,sans-Serif" font-size="10.00"> +on_create</text>
<text text-anchor="middle" x="706.5" y="-449" font-family="Helvetica,sans-Serif" font-size="10.00">+on_stop</text>
<text text-anchor="middle" x="706.5" y="-438" font-family="Helvetica,sans-Serif" font-size="10.00">+on_destroy</text>
<text text-anchor="middle" x="706.5" y="-427" font-family="Helvetica,sans-Serif" font-size="10.00">+on_start</text>
<text text-anchor="middle" x="706.5" y="-416" font-family="Helvetica,sans-Serif" font-size="10.00">+on_parse_opt</text>
</g>
<!-- Node16&#45;&gt;Node13 -->
<g id="edge21" class="edge"><title>Node16&#45;&gt;Node13</title>
<path fill="none" stroke="#404040" d="M962.793,-344.806C951.219,-331.933 934.476,-316.185 916,-308 845.166,-276.621 815.172,-308.462 736.985,-290.232"/>
<polygon fill="none" stroke="#404040" points="736.709,-290.161 729.9,-292.536 725.089,-287.165 731.897,-284.79 736.709,-290.161"/>
<text text-anchor="middle" x="945.5" y="-311" font-family="Helvetica,sans-Serif" font-size="10.00"> +hpd</text>
</g>
<!-- Node19 -->
<g id="node19" class="node"><title>Node19</title>
<g id="a_node19"><a xlink:href="a00003.html#a00087" target="_top" xlink:title="{configuration\n||}">
<polygon fill="none" stroke="black" points="1042,-232.5 1042,-289.5 1114,-289.5 1114,-232.5 1042,-232.5"/>
<text text-anchor="middle" x="1078" y="-277.5" font-family="Helvetica,sans-Serif" font-size="10.00">configuration</text>
<polyline fill="none" stroke="black" points="1042,-270.5 1114,-270.5 "/>
<text text-anchor="middle" x="1078" y="-258.5" font-family="Helvetica,sans-Serif" font-size="10.00"> </text>
<polyline fill="none" stroke="black" points="1042,-251.5 1114,-251.5 "/>
<text text-anchor="middle" x="1078" y="-239.5" font-family="Helvetica,sans-Serif" font-size="10.00"> </text>
</a>
</g>
</g>
<!-- Node16&#45;&gt;Node19 -->
<g id="edge26" class="edge"><title>Node16&#45;&gt;Node19</title>
<path fill="none" stroke="#404040" d="M979.972,-337.46C981.501,-327.38 984.669,-316.398 991,-308 1001,-294.736 1015.95,-284.913 1030.65,-277.829"/>
<polygon fill="none" stroke="#404040" points="1030.78,-277.774 1034.65,-271.694 1041.76,-272.935 1037.88,-279.015 1030.78,-277.774"/>
<text text-anchor="middle" x="1003.5" y="-311" font-family="Helvetica,sans-Serif" font-size="10.00"> +hpd</text>
</g>
<!-- Node17 -->
<g id="node17" class="node"><title>Node17</title>
<polygon fill="none" stroke="#bfbfbf" points="1244,-486.5 1244,-543.5 1326,-543.5 1326,-486.5 1244,-486.5"/>
<text text-anchor="middle" x="1285" y="-531.5" font-family="Helvetica,sans-Serif" font-size="10.00">argp_option_t *</text>
<polyline fill="none" stroke="#bfbfbf" points="1244,-524.5 1326,-524.5 "/>
<text text-anchor="middle" x="1285" y="-512.5" font-family="Helvetica,sans-Serif" font-size="10.00"> </text>
<polyline fill="none" stroke="#bfbfbf" points="1244,-505.5 1326,-505.5 "/>
<text text-anchor="middle" x="1285" y="-493.5" font-family="Helvetica,sans-Serif" font-size="10.00"> </text>
</g>
<!-- Node17&#45;&gt;Node16 -->
<g id="edge22" class="edge"><title>Node17&#45;&gt;Node16</title>
<path fill="none" stroke="#404040" d="M1285.97,-486.395C1285.16,-463.143 1279.91,-430.891 1259,-413 1227.44,-386.006 1113.76,-402.964 1073,-395 1050.21,-390.547 1025.04,-382.896 1006.48,-376.715"/>
<polygon fill="none" stroke="#404040" points="1006.42,-376.696 999.452,-378.545 995.065,-372.822 1002.03,-370.973 1006.42,-376.696"/>
<text text-anchor="middle" x="1304.5" y="-438" font-family="Helvetica,sans-Serif" font-size="10.00"> +options</text>
</g>
<!-- Node18 -->
<g id="node18" class="node"><title>Node18</title>
<polygon fill="none" stroke="#bfbfbf" points="936.5,-486.5 936.5,-543.5 1017.5,-543.5 1017.5,-486.5 936.5,-486.5"/>
<text text-anchor="middle" x="977" y="-531.5" font-family="Helvetica,sans-Serif" font-size="10.00">struct modules</text>
<polyline fill="none" stroke="#bfbfbf" points="936.5,-524.5 1017.5,-524.5 "/>
<text text-anchor="middle" x="977" y="-512.5" font-family="Helvetica,sans-Serif" font-size="10.00"> </text>
<polyline fill="none" stroke="#bfbfbf" points="936.5,-505.5 1017.5,-505.5 "/>
<text text-anchor="middle" x="977" y="-493.5" font-family="Helvetica,sans-Serif" font-size="10.00"> </text>
</g>
<!-- Node18&#45;&gt;Node16 -->
<g id="edge23" class="edge"><title>Node18&#45;&gt;Node16</title>
<path fill="none" stroke="#404040" d="M977.376,-486.35C977.682,-463.868 978.118,-431.855 978.461,-406.643"/>
<polygon fill="none" stroke="#404040" points="978.462,-406.524 974.544,-400.471 978.626,-394.526 982.543,-400.579 978.462,-406.524"/>
<text text-anchor="middle" x="1001" y="-438" font-family="Helvetica,sans-Serif" font-size="10.00"> +modules</text>
</g>
<!-- Node19&#45;&gt;Node16 -->
<g id="edge24" class="edge"><title>Node19&#45;&gt;Node16</title>
<path fill="none" stroke="#404040" d="M1048.91,-289.965C1042.93,-295.86 1036.71,-302.086 1031,-308 1021.79,-317.54 1011.93,-328.226 1003.29,-337.745"/>
<polygon fill="none" stroke="#404040" points="1003.17,-337.876 1002.13,-345.011 995.137,-346.789 996.184,-339.654 1003.17,-337.876"/>
<text text-anchor="middle" x="1063.5" y="-311" font-family="Helvetica,sans-Serif" font-size="10.00"> +configuration</text>
</g>
<!-- Node20 -->
<g id="node20" class="node"><title>Node20</title>
<polygon fill="none" stroke="#bfbfbf" points="1181,-337.5 1181,-394.5 1263,-394.5 1263,-337.5 1181,-337.5"/>
<text text-anchor="middle" x="1222" y="-382.5" font-family="Helvetica,sans-Serif" font-size="10.00">struct adapters</text>
<polyline fill="none" stroke="#bfbfbf" points="1181,-375.5 1263,-375.5 "/>
<text text-anchor="middle" x="1222" y="-363.5" font-family="Helvetica,sans-Serif" font-size="10.00"> </text>
<polyline fill="none" stroke="#bfbfbf" points="1181,-356.5 1263,-356.5 "/>
<text text-anchor="middle" x="1222" y="-344.5" font-family="Helvetica,sans-Serif" font-size="10.00"> </text>
</g>
<!-- Node20&#45;&gt;Node19 -->
<g id="edge25" class="edge"><title>Node20&#45;&gt;Node19</title>
<path fill="none" stroke="#404040" d="M1190.98,-337.282C1179.65,-327.621 1166.53,-316.962 1154,-308 1144.79,-301.41 1134.61,-294.816 1124.77,-288.762"/>
<polygon fill="none" stroke="#404040" points="1124.57,-288.637 1117.36,-288.957 1114.3,-282.43 1121.5,-282.11 1124.57,-288.637"/>
<text text-anchor="middle" x="1190.5" y="-311" font-family="Helvetica,sans-Serif" font-size="10.00"> +adapters</text>
</g>
<!-- Node21 -->
<g id="node21" class="node"><title>Node21</title>
<polygon fill="none" stroke="#bfbfbf" points="1081.5,-337.5 1081.5,-394.5 1162.5,-394.5 1162.5,-337.5 1081.5,-337.5"/>
<text text-anchor="middle" x="1122" y="-382.5" font-family="Helvetica,sans-Serif" font-size="10.00">struct listeners</text>
<polyline fill="none" stroke="#bfbfbf" points="1081.5,-375.5 1162.5,-375.5 "/>
<text text-anchor="middle" x="1122" y="-363.5" font-family="Helvetica,sans-Serif" font-size="10.00"> </text>
<polyline fill="none" stroke="#bfbfbf" points="1081.5,-356.5 1162.5,-356.5 "/>
<text text-anchor="middle" x="1122" y="-344.5" font-family="Helvetica,sans-Serif" font-size="10.00"> </text>
</g>
<!-- Node21&#45;&gt;Node19 -->
<g id="edge27" class="edge"><title>Node21&#45;&gt;Node19</title>
<path fill="none" stroke="#404040" d="M1111.8,-337.282C1108.22,-327.919 1104.08,-317.448 1100,-308 1098.95,-305.556 1097.84,-303.052 1096.7,-300.536"/>
<polygon fill="none" stroke="#404040" points="1096.66,-300.457 1090.51,-296.696 1091.61,-289.571 1097.77,-293.331 1096.66,-300.457"/>
<text text-anchor="middle" x="1127" y="-311" font-family="Helvetica,sans-Serif" font-size="10.00"> +listeners</text>
</g>
<!-- Node22 -->
<g id="node22" class="node"><title>Node22</title>
<polygon fill="none" stroke="#bfbfbf" points="1036,-486.5 1036,-543.5 1094,-543.5 1094,-486.5 1036,-486.5"/>
<text text-anchor="middle" x="1065" y="-531.5" font-family="Helvetica,sans-Serif" font-size="10.00">ev_signal</text>
<polyline fill="none" stroke="#bfbfbf" points="1036,-524.5 1094,-524.5 "/>
<text text-anchor="middle" x="1065" y="-512.5" font-family="Helvetica,sans-Serif" font-size="10.00"> </text>
<polyline fill="none" stroke="#bfbfbf" points="1036,-505.5 1094,-505.5 "/>
<text text-anchor="middle" x="1065" y="-493.5" font-family="Helvetica,sans-Serif" font-size="10.00"> </text>
</g>
<!-- Node22&#45;&gt;Node16 -->
<g id="edge30" class="edge"><title>Node22&#45;&gt;Node16</title>
<path fill="none" stroke="#404040" d="M1058.59,-486.242C1052.82,-464.991 1042.93,-435.589 1028,-413 1021.71,-403.485 1013.08,-394.53 1004.81,-387.094"/>
<polygon fill="none" stroke="#404040" points="1004.58,-386.895 997.417,-386.054 995.438,-379.12 1002.6,-379.96 1004.58,-386.895"/>
<text text-anchor="middle" x="1093" y="-443.5" font-family="Helvetica,sans-Serif" font-size="10.00"> +sigterm_watcher</text>
<text text-anchor="middle" x="1093" y="-432.5" font-family="Helvetica,sans-Serif" font-size="10.00">+sigint_watcher</text>
</g>
<!-- Node23 -->
<g id="node23" class="node"><title>Node23</title>
<polygon fill="none" stroke="#bfbfbf" points="1112.5,-486.5 1112.5,-543.5 1225.5,-543.5 1225.5,-486.5 1112.5,-486.5"/>
<text text-anchor="middle" x="1169" y="-531.5" font-family="Helvetica,sans-Serif" font-size="10.00">struct hpd_ev_asyncs</text>
<polyline fill="none" stroke="#bfbfbf" points="1112.5,-524.5 1225.5,-524.5 "/>
<text text-anchor="middle" x="1169" y="-512.5" font-family="Helvetica,sans-Serif" font-size="10.00"> </text>
<polyline fill="none" stroke="#bfbfbf" points="1112.5,-505.5 1225.5,-505.5 "/>
<text text-anchor="middle" x="1169" y="-493.5" font-family="Helvetica,sans-Serif" font-size="10.00"> </text>
</g>
<!-- Node23&#45;&gt;Node16 -->
<g id="edge31" class="edge"><title>Node23&#45;&gt;Node16</title>
<path fill="none" stroke="#404040" d="M1167.6,-486.258C1164.98,-463.562 1157.72,-432.184 1138,-413 1116.51,-392.099 1101.81,-403.279 1073,-395 1050.69,-388.588 1025.48,-381.064 1006.79,-375.431"/>
<polygon fill="none" stroke="#404040" points="1006.76,-375.423 999.861,-377.516 995.274,-371.952 1002.17,-369.858 1006.76,-375.423"/>
<text text-anchor="middle" x="1209.5" y="-460" font-family="Helvetica,sans-Serif" font-size="10.00"> +respond_watchers</text>
<text text-anchor="middle" x="1209.5" y="-449" font-family="Helvetica,sans-Serif" font-size="10.00">+request_watchers</text>
<text text-anchor="middle" x="1209.5" y="-438" font-family="Helvetica,sans-Serif" font-size="10.00">+changed_watchers</text>
<text text-anchor="middle" x="1209.5" y="-427" font-family="Helvetica,sans-Serif" font-size="10.00">+attached_watchers</text>
<text text-anchor="middle" x="1209.5" y="-416" font-family="Helvetica,sans-Serif" font-size="10.00">+detached_watchers</text>
</g>
<!-- Node24 -->
<g id="node24" class="node"><title>Node24</title>
<polygon fill="none" stroke="#bfbfbf" points="736,-337.5 736,-394.5 778,-394.5 778,-337.5 736,-337.5"/>
<text text-anchor="middle" x="757" y="-382.5" font-family="Helvetica,sans-Serif" font-size="10.00">char *</text>
<polyline fill="none" stroke="#bfbfbf" points="736,-375.5 778,-375.5 "/>
<text text-anchor="middle" x="757" y="-363.5" font-family="Helvetica,sans-Serif" font-size="10.00"> </text>
<polyline fill="none" stroke="#bfbfbf" points="736,-356.5 778,-356.5 "/>
<text text-anchor="middle" x="757" y="-344.5" font-family="Helvetica,sans-Serif" font-size="10.00"> </text>
</g>
<!-- Node24&#45;&gt;Node13 -->
<g id="edge34" class="edge"><title>Node24&#45;&gt;Node13</title>
<path fill="none" stroke="#404040" d="M735.883,-338.475C726.354,-326.505 714.934,-312.161 704.572,-299.146"/>
<polygon fill="none" stroke="#404040" points="704.378,-298.902 697.511,-296.699 696.904,-289.513 703.77,-291.716 704.378,-298.902"/>
<text text-anchor="middle" x="727.5" y="-311" font-family="Helvetica,sans-Serif" font-size="10.00"> +id</text>
</g>
</g>
</svg>
