<?xml version="1.0" encoding="UTF-8" standalone="no"?>
<!DOCTYPE svg PUBLIC "-//W3C//DTD SVG 1.1//EN"
 "http://www.w3.org/Graphics/SVG/1.1/DTD/svg11.dtd">
<!-- Generated by graphviz version 2.38.0 (20140413.2041)
 -->
<!-- Title: hpd/src/event_api.c Pages: 1 -->
<!--zoomable 308 -->
<svg id="main" version="1.1" xmlns="http://www.w3.org/2000/svg" xmlns:xlink="http://www.w3.org/1999/xlink" xml:space="preserve" onload="init(evt)">
<style type="text/css"><![CDATA[
.edge:hover path { stroke: red; }
.edge:hover polygon { stroke: red; fill: red; }
]]></style>
<script type="text/javascript"><![CDATA[
var edges = document.getElementsByTagName('g');
if (edges && edges.length) {
  for (var i=0;i<edges.length;i++) {
    if (edges[i].id.substr(0,4)=='edge') {
      edges[i].setAttribute('class','edge');
    }
  }
}
]]></script>
        <defs>
                <circle id="rim" cx="0" cy="0" r="7"/>
                <circle id="rim2" cx="0" cy="0" r="3.5"/>
                <g id="zoomPlus">
                        <use xlink:href="#rim" fill="#404040">
                                <set attributeName="fill" to="#808080" begin="zoomplus.mouseover" end="zoomplus.mouseout"/>
                        </use>
                        <path d="M-4,0h8M0,-4v8" fill="none" stroke="white" stroke-width="1.5" pointer-events="none"/>
                </g>
                <g id="zoomMin">
                        <use xlink:href="#rim" fill="#404040">
                                <set attributeName="fill" to="#808080" begin="zoomminus.mouseover" end="zoomminus.mouseout"/>
                        </use>
                        <path d="M-4,0h8" fill="none" stroke="white" stroke-width="1.5" pointer-events="none"/>
                </g>
                <g id="dirArrow">
                        <path fill="none" stroke="white" stroke-width="1.5" d="M0,-3.0v7 M-2.5,-0.5L0,-3.0L2.5,-0.5"/>
                </g>
               <g id="resetDef">
                       <use xlink:href="#rim2" fill="#404040">
                               <set attributeName="fill" to="#808080" begin="reset.mouseover" end="reset.mouseout"/>
                       </use>
               </g>
        </defs>

<script type="text/javascript">
var viewWidth = 752;
var viewHeight = 308;
var sectionId = 'dynsection-0';
</script>
<script xlink:href="svgpan.js"/>
<svg id="graph" class="graph">
<g id="viewport">
<title>hpd/src/event_api.c</title>
<!-- Node1 -->
<g id="node1" class="node"><title>Node1</title>
<polygon fill="#bfbfbf" stroke="black" points="259.5,-280.5 259.5,-299.5 361.5,-299.5 361.5,-280.5 259.5,-280.5"/>
<text text-anchor="middle" x="310.5" y="-287.5" font-family="Helvetica,sans-Serif" font-size="10.00">hpd/src/event_api.c</text>
</g>
<!-- Node2 -->
<g id="node2" class="node"><title>Node2</title>
<g id="a_node2"><a xlink:href="a00011.html" target="_top" xlink:title="discovery.h">
<polygon fill="none" stroke="black" points="328,-112.5 328,-131.5 395,-131.5 395,-112.5 328,-112.5"/>
<text text-anchor="middle" x="361.5" y="-119.5" font-family="Helvetica,sans-Serif" font-size="10.00">discovery.h</text>
</a>
</g>
</g>
<!-- Node1&#45;&gt;Node2 -->
<g id="edge1" class="edge"><title>Node1&#45;&gt;Node2</title>
<path fill="none" stroke="midnightblue" d="M313.242,-280.075C321.27,-253.945 344.845,-177.211 355.793,-141.577"/>
<polygon fill="midnightblue" stroke="midnightblue" points="359.276,-142.155 358.868,-131.568 352.585,-140.099 359.276,-142.155"/>
</g>
<!-- Node5 -->
<g id="node5" class="node"><title>Node5</title>
<g id="a_node5"><a xlink:href="a00009.html" target="_top" xlink:title="daemon.h">
<polygon fill="none" stroke="black" points="129,-112.5 129,-131.5 188,-131.5 188,-112.5 129,-112.5"/>
<text text-anchor="middle" x="158.5" y="-119.5" font-family="Helvetica,sans-Serif" font-size="10.00">daemon.h</text>
</a>
</g>
</g>
<!-- Node1&#45;&gt;Node5 -->
<g id="edge4" class="edge"><title>Node1&#45;&gt;Node5</title>
<path fill="none" stroke="midnightblue" d="M259.453,-283.713C232.137,-278.194 200.164,-266.938 180.5,-244 155.684,-215.053 154.784,-167.614 156.51,-141.566"/>
<polygon fill="midnightblue" stroke="midnightblue" points="160.003,-141.802 157.38,-131.537 153.029,-141.197 160.003,-141.802"/>
</g>
<!-- Node13 -->
<g id="node13" class="node"><title>Node13</title>
<g id="a_node13"><a xlink:href="a00057.html" target="_top" xlink:title="hpd_api.h">
<polygon fill="none" stroke="black" points="480,-224.5 480,-243.5 539,-243.5 539,-224.5 480,-224.5"/>
<text text-anchor="middle" x="509.5" y="-231.5" font-family="Helvetica,sans-Serif" font-size="10.00">hpd_api.h</text>
</a>
</g>
</g>
<!-- Node1&#45;&gt;Node13 -->
<g id="edge13" class="edge"><title>Node1&#45;&gt;Node13</title>
<path fill="none" stroke="midnightblue" d="M342.032,-280.444C376.593,-271.065 432.111,-256 469.659,-245.811"/>
<polygon fill="midnightblue" stroke="midnightblue" points="471.006,-249.072 479.74,-243.075 469.173,-242.317 471.006,-249.072"/>
</g>
<!-- Node19 -->
<g id="node19" class="node"><title>Node19</title>
<g id="a_node19"><a xlink:href="a00067.html" target="_top" xlink:title="event.h">
<polygon fill="none" stroke="black" points="190,-224.5 190,-243.5 239,-243.5 239,-224.5 190,-224.5"/>
<text text-anchor="middle" x="214.5" y="-231.5" font-family="Helvetica,sans-Serif" font-size="10.00">event.h</text>
</a>
</g>
</g>
<!-- Node1&#45;&gt;Node19 -->
<g id="edge23" class="edge"><title>Node1&#45;&gt;Node19</title>
<path fill="none" stroke="midnightblue" d="M295.076,-280.324C279.96,-271.822 256.685,-258.729 239.029,-248.797"/>
<polygon fill="midnightblue" stroke="midnightblue" points="240.317,-245.507 229.886,-243.655 236.886,-251.608 240.317,-245.507"/>
</g>
<!-- Node20 -->
<g id="node20" class="node"><title>Node20</title>
<g id="a_node20"><a xlink:href="a00070.html" target="_top" xlink:title="log.h">
<polygon fill="none" stroke="black" points="413.5,-112.5 413.5,-131.5 451.5,-131.5 451.5,-112.5 413.5,-112.5"/>
<text text-anchor="middle" x="432.5" y="-119.5" font-family="Helvetica,sans-Serif" font-size="10.00">log.h</text>
</a>
</g>
</g>
<!-- Node1&#45;&gt;Node20 -->
<g id="edge25" class="edge"><title>Node1&#45;&gt;Node20</title>
<path fill="none" stroke="midnightblue" d="M316.463,-280.363C334.957,-253.581 390.358,-173.404 394.5,-168 401.965,-158.262 410.782,-147.765 418.042,-139.362"/>
<polygon fill="midnightblue" stroke="midnightblue" points="420.737,-141.596 424.676,-131.761 415.463,-136.993 420.737,-141.596"/>
</g>
<!-- Node21 -->
<g id="node21" class="node"><title>Node21</title>
<g id="a_node21"><a xlink:href="a00024.html" target="_top" xlink:title="comm.h">
<polygon fill="none" stroke="black" points="257.5,-224.5 257.5,-243.5 309.5,-243.5 309.5,-224.5 257.5,-224.5"/>
<text text-anchor="middle" x="283.5" y="-231.5" font-family="Helvetica,sans-Serif" font-size="10.00">comm.h</text>
</a>
</g>
</g>
<!-- Node1&#45;&gt;Node21 -->
<g id="edge28" class="edge"><title>Node1&#45;&gt;Node21</title>
<path fill="none" stroke="midnightblue" d="M306.041,-280.083C302.346,-272.691 296.977,-261.953 292.406,-252.811"/>
<polygon fill="midnightblue" stroke="midnightblue" points="295.478,-251.13 287.876,-243.751 289.217,-254.261 295.478,-251.13"/>
</g>
<!-- Node3 -->
<g id="node3" class="node"><title>Node3</title>
<g id="a_node3"><a xlink:href="a00021.html" target="_top" xlink:title="hpd_types.h">
<polygon fill="none" stroke="black" points="322.5,-56.5 322.5,-75.5 392.5,-75.5 392.5,-56.5 322.5,-56.5"/>
<text text-anchor="middle" x="357.5" y="-63.5" font-family="Helvetica,sans-Serif" font-size="10.00">hpd_types.h</text>
</a>
</g>
</g>
<!-- Node2&#45;&gt;Node3 -->
<g id="edge2" class="edge"><title>Node2&#45;&gt;Node3</title>
<path fill="none" stroke="midnightblue" d="M360.839,-112.083C360.315,-105.006 359.564,-94.8611 358.906,-85.9865"/>
<polygon fill="midnightblue" stroke="midnightblue" points="362.377,-85.4652 358.148,-75.7511 355.397,-85.9823 362.377,-85.4652"/>
</g>
<!-- Node4 -->
<g id="node4" class="node"><title>Node4</title>
<polygon fill="none" stroke="#bfbfbf" points="410.5,-56.5 410.5,-75.5 462.5,-75.5 462.5,-56.5 410.5,-56.5"/>
<text text-anchor="middle" x="436.5" y="-63.5" font-family="Helvetica,sans-Serif" font-size="10.00">stdarg.h</text>
</g>
<!-- Node2&#45;&gt;Node4 -->
<g id="edge3" class="edge"><title>Node2&#45;&gt;Node4</title>
<path fill="none" stroke="midnightblue" d="M373.55,-112.324C384.963,-104.107 402.331,-91.6017 415.935,-81.8069"/>
<polygon fill="midnightblue" stroke="midnightblue" points="418.16,-84.5174 424.231,-75.8339 414.07,-78.8366 418.16,-84.5174"/>
</g>
<!-- Node5&#45;&gt;Node3 -->
<g id="edge5" class="edge"><title>Node5&#45;&gt;Node3</title>
<path fill="none" stroke="midnightblue" d="M188.292,-112.916C222.233,-103.706 277.92,-88.5946 316.076,-78.2407"/>
<polygon fill="midnightblue" stroke="midnightblue" points="317.123,-81.5833 325.857,-75.5865 315.289,-74.8276 317.123,-81.5833"/>
</g>
<!-- Node6 -->
<g id="node6" class="node"><title>Node6</title>
<g id="a_node6"><a xlink:href="a00044.html" target="_top" xlink:title="hpd_common.h">
<polygon fill="none" stroke="black" points="16,-56.5 16,-75.5 99,-75.5 99,-56.5 16,-56.5"/>
<text text-anchor="middle" x="57.5" y="-63.5" font-family="Helvetica,sans-Serif" font-size="10.00">hpd_common.h</text>
</a>
</g>
</g>
<!-- Node5&#45;&gt;Node6 -->
<g id="edge6" class="edge"><title>Node5&#45;&gt;Node6</title>
<path fill="none" stroke="midnightblue" d="M142.273,-112.324C126.149,-103.703 101.2,-90.3643 82.5359,-80.3855"/>
<polygon fill="midnightblue" stroke="midnightblue" points="84.1561,-77.283 73.6871,-75.6545 80.8556,-83.456 84.1561,-77.283"/>
</g>
<!-- Node9 -->
<g id="node9" class="node"><title>Node9</title>
<g id="a_node9"><a xlink:href="a00045.html" target="_top" xlink:title="hpd_queue.h">
<polygon fill="none" stroke="black" points="232.5,-56.5 232.5,-75.5 304.5,-75.5 304.5,-56.5 232.5,-56.5"/>
<text text-anchor="middle" x="268.5" y="-63.5" font-family="Helvetica,sans-Serif" font-size="10.00">hpd_queue.h</text>
</a>
</g>
</g>
<!-- Node5&#45;&gt;Node9 -->
<g id="edge9" class="edge"><title>Node5&#45;&gt;Node9</title>
<path fill="none" stroke="midnightblue" d="M176.173,-112.324C193.894,-103.625 221.403,-90.1202 241.788,-80.113"/>
<polygon fill="midnightblue" stroke="midnightblue" points="243.436,-83.2031 250.87,-75.6545 240.351,-76.9195 243.436,-83.2031"/>
</g>
<!-- Node11 -->
<g id="node11" class="node"><title>Node11</title>
<polygon fill="none" stroke="#bfbfbf" points="117,-56.5 117,-75.5 152,-75.5 152,-56.5 117,-56.5"/>
<text text-anchor="middle" x="134.5" y="-63.5" font-family="Helvetica,sans-Serif" font-size="10.00">ev.h</text>
</g>
<!-- Node5&#45;&gt;Node11 -->
<g id="edge11" class="edge"><title>Node5&#45;&gt;Node11</title>
<path fill="none" stroke="midnightblue" d="M154.537,-112.083C151.287,-104.77 146.581,-94.1814 142.546,-85.1034"/>
<polygon fill="midnightblue" stroke="midnightblue" points="145.649,-83.4677 138.389,-75.7511 139.252,-86.3107 145.649,-83.4677"/>
</g>
<!-- Node12 -->
<g id="node12" class="node"><title>Node12</title>
<polygon fill="none" stroke="#bfbfbf" points="170.5,-56.5 170.5,-75.5 214.5,-75.5 214.5,-56.5 170.5,-56.5"/>
<text text-anchor="middle" x="192.5" y="-63.5" font-family="Helvetica,sans-Serif" font-size="10.00">argp.h</text>
</g>
<!-- Node5&#45;&gt;Node12 -->
<g id="edge12" class="edge"><title>Node5&#45;&gt;Node12</title>
<path fill="none" stroke="midnightblue" d="M164.114,-112.083C168.867,-104.534 175.818,-93.4948 181.652,-84.2298"/>
<polygon fill="midnightblue" stroke="midnightblue" points="184.624,-86.0783 186.99,-75.7511 178.7,-82.3486 184.624,-86.0783"/>
</g>
<!-- Node7 -->
<g id="node7" class="node"><title>Node7</title>
<polygon fill="none" stroke="#bfbfbf" points="67.5,-0.5 67.5,-19.5 115.5,-19.5 115.5,-0.5 67.5,-0.5"/>
<text text-anchor="middle" x="91.5" y="-7.5" font-family="Helvetica,sans-Serif" font-size="10.00">stdlib.h</text>
</g>
<!-- Node6&#45;&gt;Node7 -->
<g id="edge7" class="edge"><title>Node6&#45;&gt;Node7</title>
<path fill="none" stroke="midnightblue" d="M63.1144,-56.083C67.8674,-48.5341 74.8181,-37.4948 80.6516,-28.2298"/>
<polygon fill="midnightblue" stroke="midnightblue" points="83.6237,-30.0783 85.9901,-19.7511 77.7001,-26.3486 83.6237,-30.0783"/>
</g>
<!-- Node8 -->
<g id="node8" class="node"><title>Node8</title>
<polygon fill="none" stroke="#bfbfbf" points="0,-0.5 0,-19.5 49,-19.5 49,-0.5 0,-0.5"/>
<text text-anchor="middle" x="24.5" y="-7.5" font-family="Helvetica,sans-Serif" font-size="10.00">string.h</text>
</g>
<!-- Node6&#45;&gt;Node8 -->
<g id="edge8" class="edge"><title>Node6&#45;&gt;Node8</title>
<path fill="none" stroke="midnightblue" d="M52.0507,-56.083C47.4855,-48.6127 40.8316,-37.7244 35.2066,-28.5199"/>
<polygon fill="midnightblue" stroke="midnightblue" points="38.0489,-26.4588 29.8479,-19.7511 32.0759,-30.109 38.0489,-26.4588"/>
</g>
<!-- Node10 -->
<g id="node10" class="node"><title>Node10</title>
<polygon fill="none" stroke="#bfbfbf" points="224,-0.5 224,-19.5 313,-19.5 313,-0.5 224,-0.5"/>
<text text-anchor="middle" x="268.5" y="-7.5" font-family="Helvetica,sans-Serif" font-size="10.00">bsd/sys/queue.h</text>
</g>
<!-- Node9&#45;&gt;Node10 -->
<g id="edge10" class="edge"><title>Node9&#45;&gt;Node10</title>
<path fill="none" stroke="midnightblue" d="M268.5,-56.083C268.5,-49.0059 268.5,-38.8611 268.5,-29.9865"/>
<polygon fill="midnightblue" stroke="midnightblue" points="272,-29.751 268.5,-19.7511 265,-29.7511 272,-29.751"/>
</g>
<!-- Node14 -->
<g id="node14" class="node"><title>Node14</title>
<g id="a_node14"><a xlink:href="a00056.html" target="_top" xlink:title="hpd_adapter_api.h">
<polygon fill="none" stroke="black" points="519.5,-168.5 519.5,-187.5 615.5,-187.5 615.5,-168.5 519.5,-168.5"/>
<text text-anchor="middle" x="567.5" y="-175.5" font-family="Helvetica,sans-Serif" font-size="10.00">hpd_adapter_api.h</text>
</a>
</g>
</g>
<!-- Node13&#45;&gt;Node14 -->
<g id="edge14" class="edge"><title>Node13&#45;&gt;Node14</title>
<path fill="none" stroke="midnightblue" d="M518.819,-224.324C527.393,-216.341 540.312,-204.313 550.688,-194.653"/>
<polygon fill="midnightblue" stroke="midnightblue" points="553.078,-197.21 558.012,-187.834 548.308,-192.086 553.078,-197.21"/>
</g>
<!-- Node17 -->
<g id="node17" class="node"><title>Node17</title>
<g id="a_node17"><a xlink:href="a00058.html" target="_top" xlink:title="hpd_application_api.h">
<polygon fill="none" stroke="black" points="633.5,-168.5 633.5,-187.5 743.5,-187.5 743.5,-168.5 633.5,-168.5"/>
<text text-anchor="middle" x="688.5" y="-175.5" font-family="Helvetica,sans-Serif" font-size="10.00">hpd_application_api.h</text>
</a>
</g>
</g>
<!-- Node13&#45;&gt;Node17 -->
<g id="edge19" class="edge"><title>Node13&#45;&gt;Node17</title>
<path fill="none" stroke="midnightblue" d="M537.863,-224.444C568.238,-215.28 616.61,-200.688 650.316,-190.519"/>
<polygon fill="midnightblue" stroke="midnightblue" points="651.707,-193.756 660.27,-187.516 649.685,-187.054 651.707,-193.756"/>
</g>
<!-- Node18 -->
<g id="node18" class="node"><title>Node18</title>
<g id="a_node18"><a xlink:href="a00059.html" target="_top" xlink:title="hpd_daemon_api.h">
<polygon fill="none" stroke="black" points="403.5,-168.5 403.5,-187.5 501.5,-187.5 501.5,-168.5 403.5,-168.5"/>
<text text-anchor="middle" x="452.5" y="-175.5" font-family="Helvetica,sans-Serif" font-size="10.00">hpd_daemon_api.h</text>
</a>
</g>
</g>
<!-- Node13&#45;&gt;Node18 -->
<g id="edge21" class="edge"><title>Node13&#45;&gt;Node18</title>
<path fill="none" stroke="midnightblue" d="M500.342,-224.324C491.999,-216.42 479.468,-204.548 469.323,-194.938"/>
<polygon fill="midnightblue" stroke="midnightblue" points="471.491,-192.171 461.825,-187.834 466.677,-197.252 471.491,-192.171"/>
</g>
<!-- Node15 -->
<g id="node15" class="node"><title>Node15</title>
<g id="a_node15"><a xlink:href="a00060.html" target="_top" xlink:title="hpd_shared_api.h">
<polygon fill="none" stroke="black" points="508,-112.5 508,-131.5 601,-131.5 601,-112.5 508,-112.5"/>
<text text-anchor="middle" x="554.5" y="-119.5" font-family="Helvetica,sans-Serif" font-size="10.00">hpd_shared_api.h</text>
</a>
</g>
</g>
<!-- Node14&#45;&gt;Node15 -->
<g id="edge15" class="edge"><title>Node14&#45;&gt;Node15</title>
<path fill="none" stroke="midnightblue" d="M565.353,-168.083C563.631,-160.927 561.153,-150.635 559,-141.691"/>
<polygon fill="midnightblue" stroke="midnightblue" points="562.35,-140.654 556.607,-131.751 555.545,-142.293 562.35,-140.654"/>
</g>
<!-- Node15&#45;&gt;Node3 -->
<g id="edge16" class="edge"><title>Node15&#45;&gt;Node3</title>
<path fill="none" stroke="midnightblue" d="M523.285,-112.444C489.567,-103.201 435.7,-88.4356 398.568,-78.2572"/>
<polygon fill="midnightblue" stroke="midnightblue" points="399.139,-74.7846 388.569,-75.5164 397.288,-81.5356 399.139,-74.7846"/>
</g>
<!-- Node15&#45;&gt;Node4 -->
<g id="edge18" class="edge"><title>Node15&#45;&gt;Node4</title>
<path fill="none" stroke="midnightblue" d="M535.803,-112.444C516.556,-103.636 486.348,-89.8116 464.3,-79.722"/>
<polygon fill="midnightblue" stroke="midnightblue" points="465.66,-76.4951 455.11,-75.5164 462.747,-82.8603 465.66,-76.4951"/>
</g>
<!-- Node16 -->
<g id="node16" class="node"><title>Node16</title>
<polygon fill="none" stroke="#bfbfbf" points="504.5,-56.5 504.5,-75.5 556.5,-75.5 556.5,-56.5 504.5,-56.5"/>
<text text-anchor="middle" x="530.5" y="-63.5" font-family="Helvetica,sans-Serif" font-size="10.00">stddef.h</text>
</g>
<!-- Node15&#45;&gt;Node16 -->
<g id="edge17" class="edge"><title>Node15&#45;&gt;Node16</title>
<path fill="none" stroke="midnightblue" d="M550.537,-112.083C547.287,-104.77 542.581,-94.1814 538.546,-85.1034"/>
<polygon fill="midnightblue" stroke="midnightblue" points="541.649,-83.4677 534.389,-75.7511 535.252,-86.3107 541.649,-83.4677"/>
</g>
<!-- Node17&#45;&gt;Node15 -->
<g id="edge20" class="edge"><title>Node17&#45;&gt;Node15</title>
<path fill="none" stroke="midnightblue" d="M667.267,-168.444C645.116,-159.517 610.181,-145.439 585.064,-135.317"/>
<polygon fill="midnightblue" stroke="midnightblue" points="586.217,-132.008 575.633,-131.516 583.6,-138.501 586.217,-132.008"/>
</g>
<!-- Node18&#45;&gt;Node3 -->
<g id="edge22" class="edge"><title>Node18&#45;&gt;Node3</title>
<path fill="none" stroke="midnightblue" d="M456.959,-168.187C463.007,-154.864 471.831,-129.315 460.5,-112 452.873,-100.344 421.721,-87.6942 395.654,-78.7834"/>
<polygon fill="midnightblue" stroke="midnightblue" points="396.565,-75.3981 385.972,-75.5612 394.355,-82.0399 396.565,-75.3981"/>
</g>
<!-- Node19&#45;&gt;Node3 -->
<g id="edge24" class="edge"><title>Node19&#45;&gt;Node3</title>
<path fill="none" stroke="midnightblue" d="M213.301,-224.187C210.854,-202.412 207.659,-145.417 235.5,-112 245.866,-99.5577 282.933,-86.9276 313.515,-78.2281"/>
<polygon fill="midnightblue" stroke="midnightblue" points="314.475,-81.5941 323.175,-75.547 312.603,-74.8491 314.475,-81.5941"/>
</g>
<!-- Node20&#45;&gt;Node3 -->
<g id="edge26" class="edge"><title>Node20&#45;&gt;Node3</title>
<path fill="none" stroke="midnightblue" d="M420.45,-112.324C409.037,-104.107 391.669,-91.6017 378.065,-81.8069"/>
<polygon fill="midnightblue" stroke="midnightblue" points="379.93,-78.8366 369.769,-75.8339 375.84,-84.5174 379.93,-78.8366"/>
</g>
<!-- Node20&#45;&gt;Node4 -->
<g id="edge27" class="edge"><title>Node20&#45;&gt;Node4</title>
<path fill="none" stroke="midnightblue" d="M433.161,-112.083C433.685,-105.006 434.436,-94.8611 435.094,-85.9865"/>
<polygon fill="midnightblue" stroke="midnightblue" points="438.603,-85.9823 435.852,-75.7511 431.623,-85.4652 438.603,-85.9823"/>
</g>
<!-- Node22 -->
<g id="node22" class="node"><title>Node22</title>
<g id="a_node22"><a xlink:href="a00046.html" target="_top" xlink:title="hpd_map.h">
<polygon fill="none" stroke="black" points="245,-112.5 245,-131.5 310,-131.5 310,-112.5 245,-112.5"/>
<text text-anchor="middle" x="277.5" y="-119.5" font-family="Helvetica,sans-Serif" font-size="10.00">hpd_map.h</text>
</a>
</g>
</g>
<!-- Node21&#45;&gt;Node22 -->
<g id="edge29" class="edge"><title>Node21&#45;&gt;Node22</title>
<path fill="none" stroke="midnightblue" d="M283.029,-224.368C282.061,-206.617 279.827,-165.666 278.514,-141.597"/>
<polygon fill="midnightblue" stroke="midnightblue" points="282.008,-141.386 277.969,-131.591 275.019,-141.767 282.008,-141.386"/>
</g>
<!-- Node22&#45;&gt;Node3 -->
<g id="edge30" class="edge"><title>Node22&#45;&gt;Node3</title>
<path fill="none" stroke="midnightblue" d="M290.353,-112.324C302.716,-103.979 321.63,-91.2122 336.237,-81.3524"/>
<polygon fill="midnightblue" stroke="midnightblue" points="338.348,-84.1503 344.679,-75.6545 334.432,-78.3483 338.348,-84.1503"/>
</g>
<!-- Node22&#45;&gt;Node4 -->
<g id="edge33" class="edge"><title>Node22&#45;&gt;Node4</title>
<path fill="none" stroke="midnightblue" d="M302.694,-112.444C329.443,-103.359 371.903,-88.9388 401.805,-78.7831"/>
<polygon fill="midnightblue" stroke="midnightblue" points="403.081,-82.0464 411.424,-75.5164 400.829,-75.4182 403.081,-82.0464"/>
</g>
<!-- Node22&#45;&gt;Node9 -->
<g id="edge31" class="edge"><title>Node22&#45;&gt;Node9</title>
<path fill="none" stroke="midnightblue" d="M276.014,-112.083C274.821,-104.927 273.106,-94.6353 271.615,-85.6911"/>
<polygon fill="midnightblue" stroke="midnightblue" points="275.055,-85.0396 269.959,-75.7511 268.15,-86.1904 275.055,-85.0396"/>
</g>
<!-- Node22&#45;&gt;Node16 -->
<g id="edge32" class="edge"><title>Node22&#45;&gt;Node16</title>
<path fill="none" stroke="midnightblue" d="M310.169,-113.807C312.986,-113.194 315.793,-112.584 318.5,-112 380.338,-98.6501 452.397,-83.4248 494.576,-74.5462"/>
<polygon fill="midnightblue" stroke="midnightblue" points="495.313,-77.968 504.378,-72.4841 493.871,-71.1179 495.313,-77.968"/>
</g>
</g>
</svg>
        <g id="navigator" transform="translate(0 0)" fill="#404254">
                <rect fill="#f2f5e9" fill-opacity="0.5" stroke="#606060" stroke-width=".5" x="0" y="0" width="60" height="60"/>
                <use id="zoomplus" xlink:href="#zoomPlus" x="17" y="9" onmousedown="handleZoom(evt,'in')"/>
                <use id="zoomminus" xlink:href="#zoomMin" x="42" y="9" onmousedown="handleZoom(evt,'out')"/>
                <use id="reset" xlink:href="#resetDef" x="30" y="36" onmousedown="handleReset()"/>
                <g id="arrowUp" xlink:href="#dirArrow" transform="translate(30 24)" onmousedown="handlePan(0,-1)">
                  <use xlink:href="#rim" fill="#404040">
                        <set attributeName="fill" to="#808080" begin="arrowUp.mouseover" end="arrowUp.mouseout"/>
                  </use>
                  <path fill="none" stroke="white" stroke-width="1.5" d="M0,-3.0v7 M-2.5,-0.5L0,-3.0L2.5,-0.5"/>
                </g>
                <g id="arrowRight" xlink:href="#dirArrow" transform="rotate(90) translate(36 -43)" onmousedown="handlePan(1,0)">
                  <use xlink:href="#rim" fill="#404040">
                        <set attributeName="fill" to="#808080" begin="arrowRight.mouseover" end="arrowRight.mouseout"/>
                  </use>
                  <path fill="none" stroke="white" stroke-width="1.5" d="M0,-3.0v7 M-2.5,-0.5L0,-3.0L2.5,-0.5"/>
                </g>
                <g id="arrowDown" xlink:href="#dirArrow" transform="rotate(180) translate(-30 -48)" onmousedown="handlePan(0,1)">
                  <use xlink:href="#rim" fill="#404040">
                        <set attributeName="fill" to="#808080" begin="arrowDown.mouseover" end="arrowDown.mouseout"/>
                  </use>
                  <path fill="none" stroke="white" stroke-width="1.5" d="M0,-3.0v7 M-2.5,-0.5L0,-3.0L2.5,-0.5"/>
                </g>
                <g id="arrowLeft" xlink:href="#dirArrow" transform="rotate(270) translate(-36 17)" onmousedown="handlePan(-1,0)">
                  <use xlink:href="#rim" fill="#404040">
                        <set attributeName="fill" to="#808080" begin="arrowLeft.mouseover" end="arrowLeft.mouseout"/>
                  </use>
                  <path fill="none" stroke="white" stroke-width="1.5" d="M0,-3.0v7 M-2.5,-0.5L0,-3.0L2.5,-0.5"/>
                </g>
        </g>
        <svg viewBox="0 0 15 15" width="100%" height="30px" preserveAspectRatio="xMaxYMin meet">
         <g id="arrow_out" transform="scale(0.3 0.3)">
          <a xlink:href="a00229_org.svg" target="_base">
           <rect id="button" ry="5" rx="5" y="6" x="6" height="38" width="38"
                fill="#f2f5e9" fill-opacity="0.5" stroke="#606060" stroke-width="1.0"/>
           <path id="arrow"
             d="M 11.500037,31.436501 C 11.940474,20.09759 22.043105,11.32322 32.158766,21.979434 L 37.068811,17.246167 C 37.068811,17.246167 37.088388,32 37.088388,32 L 22.160133,31.978069 C 22.160133,31.978069 26.997745,27.140456 26.997745,27.140456 C 18.528582,18.264221 13.291696,25.230495 11.500037,31.436501 z"
             style="fill:#404040;"/>
          </a>
         </g>
        </svg>
</svg>
