<?xml version="1.0" encoding="UTF-8" standalone="no"?>
<!DOCTYPE svg PUBLIC "-//W3C//DTD SVG 1.1//EN"
 "http://www.w3.org/Graphics/SVG/1.1/DTD/svg11.dtd">
<!-- Generated by graphviz version 2.38.0 (20140413.2041)
 -->
<!-- Title: modules/hpd_rest/src/xml.c Pages: 1 -->
<svg width="404pt" height="207pt"
 viewBox="0.00 0.00 403.50 207.00" xmlns="http://www.w3.org/2000/svg" xmlns:xlink="http://www.w3.org/1999/xlink">
<g id="graph0" class="graph" transform="scale(1 1) rotate(0) translate(4 203)">
<title>modules/hpd_rest/src/xml.c</title>
<!-- Node1 -->
<g id="node1" class="node"><title>Node1</title>
<polygon fill="#bfbfbf" stroke="black" points="96.5,-168.5 96.5,-198.5 206.5,-198.5 206.5,-168.5 96.5,-168.5"/>
<text text-anchor="start" x="104.5" y="-186.5" font-family="Helvetica,sans-Serif" font-size="10.00">modules/hpd_rest/src</text>
<text text-anchor="middle" x="151.5" y="-175.5" font-family="Helvetica,sans-Serif" font-size="10.00">/xml.c</text>
</g>
<!-- Node2 -->
<g id="node2" class="node"><title>Node2</title>
<g id="a_node2"><a xlink:href="a00079.html" target="_top" xlink:title="xml.h">
<polygon fill="none" stroke="black" points="0,-112.5 0,-131.5 41,-131.5 41,-112.5 0,-112.5"/>
<text text-anchor="middle" x="20.5" y="-119.5" font-family="Helvetica,sans-Serif" font-size="10.00">xml.h</text>
</a>
</g>
</g>
<!-- Node1&#45;&gt;Node2 -->
<g id="edge1" class="edge"><title>Node1&#45;&gt;Node2</title>
<path fill="none" stroke="midnightblue" d="M120.455,-168.399C98.7697,-158.55 70.0409,-145.501 48.9495,-135.922"/>
<polygon fill="midnightblue" stroke="midnightblue" points="50.1139,-132.607 39.5617,-131.658 47.2191,-138.98 50.1139,-132.607"/>
</g>
<!-- Node4 -->
<g id="node4" class="node"><title>Node4</title>
<g id="a_node4"><a xlink:href="a00075.html" target="_top" xlink:title="hpd_rest_intern.h">
<polygon fill="none" stroke="black" points="36.5,-56.5 36.5,-75.5 128.5,-75.5 128.5,-56.5 36.5,-56.5"/>
<text text-anchor="middle" x="82.5" y="-63.5" font-family="Helvetica,sans-Serif" font-size="10.00">hpd_rest_intern.h</text>
</a>
</g>
</g>
<!-- Node1&#45;&gt;Node4 -->
<g id="edge13" class="edge"><title>Node1&#45;&gt;Node4</title>
<path fill="none" stroke="midnightblue" d="M125.414,-168.484C112.016,-159.833 96.8015,-147.431 88.5,-132 80.8658,-117.81 79.861,-99.3305 80.4765,-85.7044"/>
<polygon fill="midnightblue" stroke="midnightblue" points="83.9763,-85.8425 81.2647,-75.6006 76.9975,-85.2981 83.9763,-85.8425"/>
</g>
<!-- Node5 -->
<g id="node5" class="node"><title>Node5</title>
<polygon fill="none" stroke="#bfbfbf" points="97.5,-112.5 97.5,-131.5 141.5,-131.5 141.5,-112.5 97.5,-112.5"/>
<text text-anchor="middle" x="119.5" y="-119.5" font-family="Helvetica,sans-Serif" font-size="10.00">time.h</text>
</g>
<!-- Node1&#45;&gt;Node5 -->
<g id="edge5" class="edge"><title>Node1&#45;&gt;Node5</title>
<path fill="none" stroke="midnightblue" d="M143.916,-168.399C139.458,-160.11 133.781,-149.554 129.023,-140.708"/>
<polygon fill="midnightblue" stroke="midnightblue" points="131.975,-138.807 124.156,-131.658 125.81,-142.123 131.975,-138.807"/>
</g>
<!-- Node6 -->
<g id="node6" class="node"><title>Node6</title>
<polygon fill="none" stroke="#bfbfbf" points="160,-112.5 160,-131.5 209,-131.5 209,-112.5 160,-112.5"/>
<text text-anchor="middle" x="184.5" y="-119.5" font-family="Helvetica,sans-Serif" font-size="10.00">mxml.h</text>
</g>
<!-- Node1&#45;&gt;Node6 -->
<g id="edge6" class="edge"><title>Node1&#45;&gt;Node6</title>
<path fill="none" stroke="midnightblue" d="M159.321,-168.399C163.968,-160.021 169.899,-149.327 174.837,-140.423"/>
<polygon fill="midnightblue" stroke="midnightblue" points="177.909,-142.1 179.698,-131.658 171.787,-138.705 177.909,-142.1"/>
</g>
<!-- Node7 -->
<g id="node7" class="node"><title>Node7</title>
<polygon fill="none" stroke="#bfbfbf" points="227.5,-112.5 227.5,-131.5 267.5,-131.5 267.5,-112.5 227.5,-112.5"/>
<text text-anchor="middle" x="247.5" y="-119.5" font-family="Helvetica,sans-Serif" font-size="10.00">zlib.h</text>
</g>
<!-- Node1&#45;&gt;Node7 -->
<g id="edge7" class="edge"><title>Node1&#45;&gt;Node7</title>
<path fill="none" stroke="midnightblue" d="M174.251,-168.399C189.495,-158.951 209.489,-146.559 224.736,-137.109"/>
<polygon fill="midnightblue" stroke="midnightblue" points="226.875,-139.901 233.531,-131.658 223.187,-133.951 226.875,-139.901"/>
</g>
<!-- Node8 -->
<g id="node8" class="node"><title>Node8</title>
<g id="a_node8"><a xlink:href="a00054.html" target="_top" xlink:title="hpd_application_api.h">
<polygon fill="none" stroke="black" points="285.5,-112.5 285.5,-131.5 395.5,-131.5 395.5,-112.5 285.5,-112.5"/>
<text text-anchor="middle" x="340.5" y="-119.5" font-family="Helvetica,sans-Serif" font-size="10.00">hpd_application_api.h</text>
</a>
</g>
</g>
<!-- Node1&#45;&gt;Node8 -->
<g id="edge8" class="edge"><title>Node1&#45;&gt;Node8</title>
<path fill="none" stroke="midnightblue" d="M196.29,-168.399C228.949,-158.118 272.68,-144.351 303.393,-134.682"/>
<polygon fill="midnightblue" stroke="midnightblue" points="304.787,-137.912 313.275,-131.571 302.685,-131.235 304.787,-137.912"/>
</g>
<!-- Node3 -->
<g id="node3" class="node"><title>Node3</title>
<g id="a_node3"><a xlink:href="a00021.html" target="_top" xlink:title="hpd_types.h">
<polygon fill="none" stroke="black" points="47.5,-0.5 47.5,-19.5 117.5,-19.5 117.5,-0.5 47.5,-0.5"/>
<text text-anchor="middle" x="82.5" y="-7.5" font-family="Helvetica,sans-Serif" font-size="10.00">hpd_types.h</text>
</a>
</g>
</g>
<!-- Node2&#45;&gt;Node3 -->
<g id="edge2" class="edge"><title>Node2&#45;&gt;Node3</title>
<path fill="none" stroke="midnightblue" d="M19.4514,-112.4C18.2767,-99.3553 17.666,-74.1659 27.5,-56 34.4053,-43.2441 46.5685,-32.7133 57.7037,-25.0544"/>
<polygon fill="midnightblue" stroke="midnightblue" points="59.769,-27.8877 66.2934,-19.5401 55.9874,-21.9971 59.769,-27.8877"/>
</g>
<!-- Node2&#45;&gt;Node4 -->
<g id="edge3" class="edge"><title>Node2&#45;&gt;Node4</title>
<path fill="none" stroke="midnightblue" d="M30.4614,-112.324C39.6266,-104.341 53.4372,-92.3128 64.5282,-82.6529"/>
<polygon fill="midnightblue" stroke="midnightblue" points="67.1153,-85.041 72.3574,-75.8339 62.5178,-79.7624 67.1153,-85.041"/>
</g>
<!-- Node4&#45;&gt;Node3 -->
<g id="edge4" class="edge"><title>Node4&#45;&gt;Node3</title>
<path fill="none" stroke="midnightblue" d="M82.5,-56.083C82.5,-49.0059 82.5,-38.8611 82.5,-29.9865"/>
<polygon fill="midnightblue" stroke="midnightblue" points="86.0001,-29.751 82.5,-19.7511 79.0001,-29.7511 86.0001,-29.751"/>
</g>
<!-- Node9 -->
<g id="node9" class="node"><title>Node9</title>
<g id="a_node9"><a xlink:href="a00056.html" target="_top" xlink:title="hpd_shared_api.h">
<polygon fill="none" stroke="black" points="204,-56.5 204,-75.5 297,-75.5 297,-56.5 204,-56.5"/>
<text text-anchor="middle" x="250.5" y="-63.5" font-family="Helvetica,sans-Serif" font-size="10.00">hpd_shared_api.h</text>
</a>
</g>
</g>
<!-- Node8&#45;&gt;Node9 -->
<g id="edge9" class="edge"><title>Node8&#45;&gt;Node9</title>
<path fill="none" stroke="midnightblue" d="M326.04,-112.324C312,-103.9 290.452,-90.9709 273.957,-81.0741"/>
<polygon fill="midnightblue" stroke="midnightblue" points="275.3,-77.7983 264.924,-75.6545 271.698,-83.8007 275.3,-77.7983"/>
</g>
<!-- Node9&#45;&gt;Node3 -->
<g id="edge10" class="edge"><title>Node9&#45;&gt;Node3</title>
<path fill="none" stroke="midnightblue" d="M223.88,-56.4435C195.494,-47.3196 150.363,-32.8133 118.747,-22.6509"/>
<polygon fill="midnightblue" stroke="midnightblue" points="119.587,-19.2445 108.996,-19.5164 117.445,-25.9087 119.587,-19.2445"/>
</g>
<!-- Node10 -->
<g id="node10" class="node"><title>Node10</title>
<polygon fill="none" stroke="#bfbfbf" points="189.5,-0.5 189.5,-19.5 241.5,-19.5 241.5,-0.5 189.5,-0.5"/>
<text text-anchor="middle" x="215.5" y="-7.5" font-family="Helvetica,sans-Serif" font-size="10.00">stddef.h</text>
</g>
<!-- Node9&#45;&gt;Node10 -->
<g id="edge11" class="edge"><title>Node9&#45;&gt;Node10</title>
<path fill="none" stroke="midnightblue" d="M244.72,-56.083C239.828,-48.5341 232.673,-37.4948 226.667,-28.2298"/>
<polygon fill="midnightblue" stroke="midnightblue" points="229.548,-26.239 221.172,-19.7511 223.674,-30.0463 229.548,-26.239"/>
</g>
<!-- Node11 -->
<g id="node11" class="node"><title>Node11</title>
<polygon fill="none" stroke="#bfbfbf" points="259.5,-0.5 259.5,-19.5 311.5,-19.5 311.5,-0.5 259.5,-0.5"/>
<text text-anchor="middle" x="285.5" y="-7.5" font-family="Helvetica,sans-Serif" font-size="10.00">stdarg.h</text>
</g>
<!-- Node9&#45;&gt;Node11 -->
<g id="edge12" class="edge"><title>Node9&#45;&gt;Node11</title>
<path fill="none" stroke="midnightblue" d="M256.28,-56.083C261.172,-48.5341 268.327,-37.4948 274.333,-28.2298"/>
<polygon fill="midnightblue" stroke="midnightblue" points="277.326,-30.0463 279.828,-19.7511 271.452,-26.239 277.326,-30.0463"/>
</g>
</g>
</svg>
