<?xml version="1.0" encoding="UTF-8" standalone="no"?>
<!DOCTYPE svg PUBLIC "-//W3C//DTD SVG 1.1//EN"
 "http://www.w3.org/Graphics/SVG/1.1/DTD/svg11.dtd">
<!-- Generated by graphviz version 2.38.0 (20140413.2041)
 -->
<!-- Title: demo_app Pages: 1 -->
<svg width="1028pt" height="535pt"
 viewBox="0.00 0.00 1028.40 535.00" xmlns="http://www.w3.org/2000/svg" xmlns:xlink="http://www.w3.org/1999/xlink">
<g id="graph0" class="graph" transform="scale(1 1) rotate(0) translate(4 531)">
<title>demo_app</title>
<!-- Node1 -->
<g id="node1" class="node"><title>Node1</title>
<polygon fill="#bfbfbf" stroke="black" points="390.399,-0.5 390.399,-57.5 452.399,-57.5 452.399,-0.5 390.399,-0.5"/>
<text text-anchor="middle" x="421.399" y="-45.5" font-family="Helvetica,sans-Serif" font-size="10.00">demo_app</text>
<polyline fill="none" stroke="black" points="390.399,-38.5 452.399,-38.5 "/>
<text text-anchor="middle" x="421.399" y="-26.5" font-family="Helvetica,sans-Serif" font-size="10.00"> </text>
<polyline fill="none" stroke="black" points="390.399,-19.5 452.399,-19.5 "/>
<text text-anchor="middle" x="421.399" y="-7.5" font-family="Helvetica,sans-Serif" font-size="10.00"> </text>
</g>
<!-- Node2 -->
<g id="node2" class="node"><title>Node2</title>
<g id="a_node2"><a xlink:href="a00028.html" target="_top" xlink:title="{hpd_listener\n||+ TAILQ_ENTRY()\l}">
<polygon fill="none" stroke="black" points="271.399,-105.5 271.399,-162.5 371.399,-162.5 371.399,-105.5 271.399,-105.5"/>
<text text-anchor="middle" x="321.399" y="-150.5" font-family="Helvetica,sans-Serif" font-size="10.00">hpd_listener</text>
<polyline fill="none" stroke="black" points="271.399,-143.5 371.399,-143.5 "/>
<text text-anchor="middle" x="321.399" y="-131.5" font-family="Helvetica,sans-Serif" font-size="10.00"> </text>
<polyline fill="none" stroke="black" points="271.399,-124.5 371.399,-124.5 "/>
<text text-anchor="start" x="279.399" y="-112.5" font-family="Helvetica,sans-Serif" font-size="10.00">+ TAILQ_ENTRY()</text>
</a>
</g>
</g>
<!-- Node2&#45;&gt;Node1 -->
<g id="edge1" class="edge"><title>Node2&#45;&gt;Node1</title>
<path fill="none" stroke="#404040" d="M348.197,-105.398C359.854,-93.3906 373.674,-79.1563 386.148,-66.3077"/>
<polygon fill="none" stroke="#404040" points="386.168,-66.2881 387.477,-59.1969 394.527,-57.6783 393.217,-64.7695 386.168,-66.2881"/>
<text text-anchor="middle" x="394.899" y="-79" font-family="Helvetica,sans-Serif" font-size="10.00"> +listener</text>
</g>
<!-- Node3 -->
<g id="node3" class="node"><title>Node3</title>
<g id="a_node3"><a xlink:href="a00017.html#a00110" target="_top" xlink:title="{hpd\n||}">
<polygon fill="none" stroke="black" points="465.399,-249 465.399,-306 497.399,-306 497.399,-249 465.399,-249"/>
<text text-anchor="middle" x="481.399" y="-294" font-family="Helvetica,sans-Serif" font-size="10.00">hpd</text>
<polyline fill="none" stroke="black" points="465.399,-287 497.399,-287 "/>
<text text-anchor="middle" x="481.399" y="-275" font-family="Helvetica,sans-Serif" font-size="10.00"> </text>
<polyline fill="none" stroke="black" points="465.399,-268 497.399,-268 "/>
<text text-anchor="middle" x="481.399" y="-256" font-family="Helvetica,sans-Serif" font-size="10.00"> </text>
</a>
</g>
</g>
<!-- Node3&#45;&gt;Node2 -->
<g id="edge2" class="edge"><title>Node3&#45;&gt;Node2</title>
<path fill="none" stroke="#404040" d="M465.167,-263.682C452.901,-253.682 435.923,-239.157 422.399,-225 405.138,-206.932 405.618,-198.101 387.399,-181 383.454,-177.298 379.192,-173.662 374.8,-170.159"/>
<polygon fill="none" stroke="#404040" points="374.59,-169.999 367.393,-169.543 365.046,-162.725 372.243,-163.181 374.59,-169.999"/>
<text text-anchor="middle" x="434.899" y="-200.5" font-family="Helvetica,sans-Serif" font-size="10.00"> +hpd</text>
</g>
<!-- Node7 -->
<g id="node7" class="node"><title>Node7</title>
<g id="a_node7"><a xlink:href="a00018.html#a00113" target="_top" xlink:title="{hpd_configuration\n||}">
<polygon fill="none" stroke="black" points="744.899,-105.5 744.899,-162.5 837.899,-162.5 837.899,-105.5 744.899,-105.5"/>
<text text-anchor="middle" x="791.399" y="-150.5" font-family="Helvetica,sans-Serif" font-size="10.00">hpd_configuration</text>
<polyline fill="none" stroke="black" points="744.899,-143.5 837.899,-143.5 "/>
<text text-anchor="middle" x="791.399" y="-131.5" font-family="Helvetica,sans-Serif" font-size="10.00"> </text>
<polyline fill="none" stroke="black" points="744.899,-124.5 837.899,-124.5 "/>
<text text-anchor="middle" x="791.399" y="-112.5" font-family="Helvetica,sans-Serif" font-size="10.00"> </text>
</a>
</g>
</g>
<!-- Node3&#45;&gt;Node7 -->
<g id="edge8" class="edge"><title>Node3&#45;&gt;Node7</title>
<path fill="none" stroke="#404040" d="M497.749,-271.063C520.056,-263.811 561.375,-250.963 597.399,-243 648.342,-231.739 672.137,-256.928 713.399,-225 730.245,-211.964 719.371,-197.852 732.399,-181 735.1,-177.506 738.124,-174.129 741.338,-170.899"/>
<polygon fill="none" stroke="#404040" points="741.383,-170.858 743.075,-163.848 750.197,-162.715 748.504,-169.724 741.383,-170.858"/>
<text text-anchor="middle" x="744.899" y="-200.5" font-family="Helvetica,sans-Serif" font-size="10.00"> +hpd</text>
</g>
<!-- Node14 -->
<g id="node14" class="node"><title>Node14</title>
<g id="a_node14"><a xlink:href="a00029.html" target="_top" xlink:title="{hpd_module\n||+ TAILQ_ENTRY()\l}">
<polygon fill="none" stroke="black" points="431.399,-105.5 431.399,-162.5 531.399,-162.5 531.399,-105.5 431.399,-105.5"/>
<text text-anchor="middle" x="481.399" y="-150.5" font-family="Helvetica,sans-Serif" font-size="10.00">hpd_module</text>
<polyline fill="none" stroke="black" points="431.399,-143.5 531.399,-143.5 "/>
<text text-anchor="middle" x="481.399" y="-131.5" font-family="Helvetica,sans-Serif" font-size="10.00"> </text>
<polyline fill="none" stroke="black" points="431.399,-124.5 531.399,-124.5 "/>
<text text-anchor="start" x="439.399" y="-112.5" font-family="Helvetica,sans-Serif" font-size="10.00">+ TAILQ_ENTRY()</text>
</a>
</g>
</g>
<!-- Node3&#45;&gt;Node14 -->
<g id="edge17" class="edge"><title>Node3&#45;&gt;Node14</title>
<path fill="none" stroke="#404040" d="M465.372,-251.801C460.911,-243.605 456.668,-234.214 454.399,-225 449.723,-206.012 449.27,-199.871 454.399,-181 455.063,-178.557 455.893,-176.11 456.846,-173.69"/>
<polygon fill="none" stroke="#404040" points="456.93,-173.513 455.868,-166.38 462.043,-162.657 463.105,-169.789 456.93,-173.513"/>
<text text-anchor="middle" x="466.899" y="-200.5" font-family="Helvetica,sans-Serif" font-size="10.00"> +hpd</text>
</g>
<!-- Node4 -->
<g id="node4" class="node"><title>Node4</title>
<polygon fill="none" stroke="#bfbfbf" points="124.399,-469.5 124.399,-526.5 226.399,-526.5 226.399,-469.5 124.399,-469.5"/>
<text text-anchor="middle" x="175.399" y="-514.5" font-family="Helvetica,sans-Serif" font-size="10.00">struct hpd_modules</text>
<polyline fill="none" stroke="#bfbfbf" points="124.399,-507.5 226.399,-507.5 "/>
<text text-anchor="middle" x="175.399" y="-495.5" font-family="Helvetica,sans-Serif" font-size="10.00"> </text>
<polyline fill="none" stroke="#bfbfbf" points="124.399,-488.5 226.399,-488.5 "/>
<text text-anchor="middle" x="175.399" y="-476.5" font-family="Helvetica,sans-Serif" font-size="10.00"> </text>
</g>
<!-- Node4&#45;&gt;Node3 -->
<g id="edge3" class="edge"><title>Node4&#45;&gt;Node3</title>
<path fill="none" stroke="#404040" d="M165.551,-469.308C154.423,-432.488 141.995,-367.687 176.399,-330 204.247,-299.494 320.795,-319.582 361.399,-312 393.628,-305.982 429.761,-295.346 453.876,-287.67"/>
<polygon fill="none" stroke="#404040" points="453.892,-287.665 458.366,-282.011 465.307,-283.966 460.832,-289.621 453.892,-287.665"/>
<text text-anchor="middle" x="199.399" y="-388" font-family="Helvetica,sans-Serif" font-size="10.00"> +modules</text>
</g>
<!-- Node5 -->
<g id="node5" class="node"><title>Node5</title>
<polygon fill="none" stroke="#bfbfbf" points="362.399,-469.5 362.399,-526.5 448.399,-526.5 448.399,-469.5 362.399,-469.5"/>
<text text-anchor="middle" x="405.399" y="-514.5" font-family="Helvetica,sans-Serif" font-size="10.00">hpd_ev_loop_t *</text>
<polyline fill="none" stroke="#bfbfbf" points="362.399,-507.5 448.399,-507.5 "/>
<text text-anchor="middle" x="405.399" y="-495.5" font-family="Helvetica,sans-Serif" font-size="10.00"> </text>
<polyline fill="none" stroke="#bfbfbf" points="362.399,-488.5 448.399,-488.5 "/>
<text text-anchor="middle" x="405.399" y="-476.5" font-family="Helvetica,sans-Serif" font-size="10.00"> </text>
</g>
<!-- Node5&#45;&gt;Node3 -->
<g id="edge4" class="edge"><title>Node5&#45;&gt;Node3</title>
<path fill="none" stroke="#404040" d="M433.719,-469.314C438.24,-463.642 442.406,-457.428 445.399,-451 468.376,-401.65 451.602,-382.911 464.399,-330 465.38,-325.942 466.532,-321.744 467.765,-317.577"/>
<polygon fill="none" stroke="#404040" points="467.787,-317.505 465.769,-310.583 471.383,-306.057 473.402,-312.98 467.787,-317.505"/>
<text text-anchor="middle" x="478.399" y="-388" font-family="Helvetica,sans-Serif" font-size="10.00"> +loop</text>
</g>
<!-- Node6 -->
<g id="node6" class="node"><title>Node6</title>
<polygon fill="none" stroke="#bfbfbf" points="35.8987,-469.5 35.8987,-526.5 70.8987,-526.5 70.8987,-469.5 35.8987,-469.5"/>
<text text-anchor="middle" x="53.3987" y="-514.5" font-family="Helvetica,sans-Serif" font-size="10.00">char</text>
<polyline fill="none" stroke="#bfbfbf" points="35.8987,-507.5 70.8987,-507.5 "/>
<text text-anchor="middle" x="53.3987" y="-495.5" font-family="Helvetica,sans-Serif" font-size="10.00"> </text>
<polyline fill="none" stroke="#bfbfbf" points="35.8987,-488.5 70.8987,-488.5 "/>
<text text-anchor="middle" x="53.3987" y="-476.5" font-family="Helvetica,sans-Serif" font-size="10.00"> </text>
</g>
<!-- Node6&#45;&gt;Node3 -->
<g id="edge5" class="edge"><title>Node6&#45;&gt;Node3</title>
<path fill="none" stroke="#404040" d="M63.1272,-469.465C65.0486,-463.43 66.9241,-457.039 68.3987,-451 74.864,-424.524 68.2069,-348.305 88.3987,-330 110.921,-309.583 331.433,-317.114 361.399,-312 393.718,-306.484 429.834,-295.756 453.921,-287.921"/>
<polygon fill="none" stroke="#404040" points="453.948,-287.912 458.382,-282.225 465.337,-284.131 460.903,-289.818 453.948,-287.912"/>
<text text-anchor="middle" x="119.399" y="-393.5" font-family="Helvetica,sans-Serif" font-size="10.00"> +argv0</text>
<text text-anchor="middle" x="119.399" y="-382.5" font-family="Helvetica,sans-Serif" font-size="10.00">+option2name</text>
</g>
<!-- Node19 -->
<g id="node19" class="node"><title>Node19</title>
<g id="a_node19"><a xlink:href="a00012.html#a00104" target="_top" xlink:title="{data\n|+ key\l+ path\l|}">
<polygon fill="none" stroke="black" points="208.399,-243.5 208.399,-311.5 252.399,-311.5 252.399,-243.5 208.399,-243.5"/>
<text text-anchor="middle" x="230.399" y="-299.5" font-family="Helvetica,sans-Serif" font-size="10.00">data</text>
<polyline fill="none" stroke="black" points="208.399,-292.5 252.399,-292.5 "/>
<text text-anchor="start" x="216.399" y="-280.5" font-family="Helvetica,sans-Serif" font-size="10.00">+ key</text>
<text text-anchor="start" x="216.399" y="-269.5" font-family="Helvetica,sans-Serif" font-size="10.00">+ path</text>
<polyline fill="none" stroke="black" points="208.399,-262.5 252.399,-262.5 "/>
<text text-anchor="middle" x="230.399" y="-250.5" font-family="Helvetica,sans-Serif" font-size="10.00"> </text>
</a>
</g>
</g>
<!-- Node6&#45;&gt;Node19 -->
<g id="edge21" class="edge"><title>Node6&#45;&gt;Node19</title>
<path fill="none" stroke="#404040" d="M35.8117,-478.867C29.3303,-470.965 22.7547,-461.187 19.3987,-451 2.57112,-399.923 -13.8151,-372.295 19.3987,-330 41.0125,-302.476 142.213,-287.791 196.224,-281.796"/>
<polygon fill="none" stroke="#404040" points="196.306,-281.788 201.85,-277.176 208.239,-280.52 202.695,-285.131 196.306,-281.788"/>
<text text-anchor="middle" x="43.8987" y="-443" font-family="Helvetica,sans-Serif" font-size="10.00"> +host</text>
<text text-anchor="middle" x="43.8987" y="-432" font-family="Helvetica,sans-Serif" font-size="10.00">+url</text>
<text text-anchor="middle" x="43.8987" y="-421" font-family="Helvetica,sans-Serif" font-size="10.00">+value</text>
<text text-anchor="middle" x="43.8987" y="-410" font-family="Helvetica,sans-Serif" font-size="10.00">+hdr_field</text>
<text text-anchor="middle" x="43.8987" y="-399" font-family="Helvetica,sans-Serif" font-size="10.00">+body</text>
<text text-anchor="middle" x="43.8987" y="-388" font-family="Helvetica,sans-Serif" font-size="10.00">+port</text>
<text text-anchor="middle" x="43.8987" y="-377" font-family="Helvetica,sans-Serif" font-size="10.00">+hdr_value</text>
<text text-anchor="middle" x="43.8987" y="-366" font-family="Helvetica,sans-Serif" font-size="10.00">+protocol</text>
<text text-anchor="middle" x="43.8987" y="-355" font-family="Helvetica,sans-Serif" font-size="10.00">+field</text>
<text text-anchor="middle" x="43.8987" y="-344" font-family="Helvetica,sans-Serif" font-size="10.00">+method</text>
<text text-anchor="middle" x="43.8987" y="-333" font-family="Helvetica,sans-Serif" font-size="10.00">...</text>
</g>
<!-- Node7&#45;&gt;Node3 -->
<g id="edge6" class="edge"><title>Node7&#45;&gt;Node3</title>
<path fill="none" stroke="#404040" d="M744.806,-140.718C714.469,-146.507 675.622,-158.062 648.399,-181 631.524,-195.218 642.042,-210.511 625.399,-225 607.709,-240.4 545.854,-259.072 509.216,-269.165"/>
<polygon fill="none" stroke="#404040" points="509.006,-269.222 504.26,-274.651 497.423,-272.358 502.169,-266.929 509.006,-269.222"/>
<text text-anchor="middle" x="680.899" y="-200.5" font-family="Helvetica,sans-Serif" font-size="10.00"> +configuration</text>
</g>
<!-- Node8 -->
<g id="node8" class="node"><title>Node8</title>
<polygon fill="none" stroke="#bfbfbf" points="796.899,-249 796.899,-306 899.899,-306 899.899,-249 796.899,-249"/>
<text text-anchor="middle" x="848.399" y="-294" font-family="Helvetica,sans-Serif" font-size="10.00">struct hpd_adapters</text>
<polyline fill="none" stroke="#bfbfbf" points="796.899,-287 899.899,-287 "/>
<text text-anchor="middle" x="848.399" y="-275" font-family="Helvetica,sans-Serif" font-size="10.00"> </text>
<polyline fill="none" stroke="#bfbfbf" points="796.899,-268 899.899,-268 "/>
<text text-anchor="middle" x="848.399" y="-256" font-family="Helvetica,sans-Serif" font-size="10.00"> </text>
</g>
<!-- Node8&#45;&gt;Node7 -->
<g id="edge7" class="edge"><title>Node8&#45;&gt;Node7</title>
<path fill="none" stroke="#404040" d="M837.273,-248.881C828.642,-227.455 816.573,-197.494 806.98,-173.681"/>
<polygon fill="none" stroke="#404040" points="806.98,-173.68 801.028,-169.609 802.496,-162.549 808.448,-166.62 806.98,-173.68"/>
<text text-anchor="middle" x="850.899" y="-200.5" font-family="Helvetica,sans-Serif" font-size="10.00"> +adapters</text>
</g>
<!-- Node9 -->
<g id="node9" class="node"><title>Node9</title>
<polygon fill="none" stroke="#bfbfbf" points="918.399,-249 918.399,-306 1020.4,-306 1020.4,-249 918.399,-249"/>
<text text-anchor="middle" x="969.399" y="-294" font-family="Helvetica,sans-Serif" font-size="10.00">struct hpd_listeners</text>
<polyline fill="none" stroke="#bfbfbf" points="918.399,-287 1020.4,-287 "/>
<text text-anchor="middle" x="969.399" y="-275" font-family="Helvetica,sans-Serif" font-size="10.00"> </text>
<polyline fill="none" stroke="#bfbfbf" points="918.399,-268 1020.4,-268 "/>
<text text-anchor="middle" x="969.399" y="-256" font-family="Helvetica,sans-Serif" font-size="10.00"> </text>
</g>
<!-- Node9&#45;&gt;Node7 -->
<g id="edge9" class="edge"><title>Node9&#45;&gt;Node7</title>
<path fill="none" stroke="#404040" d="M947.123,-248.659C929.845,-228.248 904.511,-200.766 878.399,-181 869.299,-174.112 859.025,-167.687 848.809,-161.952"/>
<polygon fill="none" stroke="#404040" points="848.791,-161.942 841.611,-162.607 838.235,-156.234 845.416,-155.57 848.791,-161.942"/>
<text text-anchor="middle" x="948.399" y="-200.5" font-family="Helvetica,sans-Serif" font-size="10.00"> +listeners</text>
</g>
<!-- Node10 -->
<g id="node10" class="node"><title>Node10</title>
<polygon fill="none" stroke="#bfbfbf" points="466.899,-469.5 466.899,-526.5 569.899,-526.5 569.899,-469.5 466.899,-469.5"/>
<text text-anchor="middle" x="518.399" y="-514.5" font-family="Helvetica,sans-Serif" font-size="10.00">hpd_argp_option_t *</text>
<polyline fill="none" stroke="#bfbfbf" points="466.899,-507.5 569.899,-507.5 "/>
<text text-anchor="middle" x="518.399" y="-495.5" font-family="Helvetica,sans-Serif" font-size="10.00"> </text>
<polyline fill="none" stroke="#bfbfbf" points="466.899,-488.5 569.899,-488.5 "/>
<text text-anchor="middle" x="518.399" y="-476.5" font-family="Helvetica,sans-Serif" font-size="10.00"> </text>
</g>
<!-- Node10&#45;&gt;Node3 -->
<g id="edge10" class="edge"><title>Node10&#45;&gt;Node3</title>
<path fill="none" stroke="#404040" d="M516.053,-469.3C512.934,-435.991 506.596,-378.508 496.399,-330 495.575,-326.081 494.605,-322.026 493.56,-317.991"/>
<polygon fill="none" stroke="#404040" points="493.471,-317.668 488.019,-312.949 490.278,-306.101 495.73,-310.82 493.471,-317.668"/>
<text text-anchor="middle" x="534.899" y="-388" font-family="Helvetica,sans-Serif" font-size="10.00"> +options</text>
</g>
<!-- Node11 -->
<g id="node11" class="node"><title>Node11</title>
<polygon fill="none" stroke="#bfbfbf" points="278.899,-469.5 278.899,-526.5 307.899,-526.5 307.899,-469.5 278.899,-469.5"/>
<text text-anchor="middle" x="293.399" y="-514.5" font-family="Helvetica,sans-Serif" font-size="10.00">int</text>
<polyline fill="none" stroke="#bfbfbf" points="278.899,-507.5 307.899,-507.5 "/>
<text text-anchor="middle" x="293.399" y="-495.5" font-family="Helvetica,sans-Serif" font-size="10.00"> </text>
<polyline fill="none" stroke="#bfbfbf" points="278.899,-488.5 307.899,-488.5 "/>
<text text-anchor="middle" x="293.399" y="-476.5" font-family="Helvetica,sans-Serif" font-size="10.00"> </text>
</g>
<!-- Node11&#45;&gt;Node3 -->
<g id="edge11" class="edge"><title>Node11&#45;&gt;Node3</title>
<path fill="none" stroke="#404040" d="M308.002,-469.795C310.8,-463.74 313.457,-457.256 315.399,-451 331.534,-399.01 299.547,-371.818 334.399,-330 349.875,-311.43 415.434,-293.679 453.572,-284.661"/>
<polygon fill="none" stroke="#404040" points="453.649,-284.643 458.598,-279.398 465.343,-281.948 460.394,-287.194 453.649,-284.643"/>
<text text-anchor="middle" x="387.899" y="-393.5" font-family="Helvetica,sans-Serif" font-size="10.00"> +module_options_count</text>
<text text-anchor="middle" x="387.899" y="-382.5" font-family="Helvetica,sans-Serif" font-size="10.00">+options_count</text>
</g>
<!-- Node11&#45;&gt;Node19 -->
<g id="edge22" class="edge"><title>Node11&#45;&gt;Node19</title>
<path fill="none" stroke="#404040" d="M278.46,-487.238C267.267,-479.023 252.678,-466.198 245.399,-451 226.289,-411.106 224.192,-360.08 225.864,-323.901"/>
<polygon fill="none" stroke="#404040" points="225.873,-323.744 222.239,-317.516 226.59,-311.766 230.225,-317.994 225.873,-323.744"/>
<text text-anchor="middle" x="280.399" y="-443" font-family="Helvetica,sans-Serif" font-size="10.00"> +count</text>
<text text-anchor="middle" x="280.399" y="-432" font-family="Helvetica,sans-Serif" font-size="10.00">+hdr_count</text>
<text text-anchor="middle" x="280.399" y="-421" font-family="Helvetica,sans-Serif" font-size="10.00">+state</text>
<text text-anchor="middle" x="280.399" y="-410" font-family="Helvetica,sans-Serif" font-size="10.00">+cur_path</text>
<text text-anchor="middle" x="280.399" y="-399" font-family="Helvetica,sans-Serif" font-size="10.00">+errors</text>
<text text-anchor="middle" x="280.399" y="-388" font-family="Helvetica,sans-Serif" font-size="10.00">+call_order</text>
<text text-anchor="middle" x="280.399" y="-377" font-family="Helvetica,sans-Serif" font-size="10.00">+_errors</text>
<text text-anchor="middle" x="280.399" y="-366" font-family="Helvetica,sans-Serif" font-size="10.00">+hdr_field_l</text>
<text text-anchor="middle" x="280.399" y="-355" font-family="Helvetica,sans-Serif" font-size="10.00">+cur_key_value</text>
<text text-anchor="middle" x="280.399" y="-344" font-family="Helvetica,sans-Serif" font-size="10.00">+hdr_value_l</text>
<text text-anchor="middle" x="280.399" y="-333" font-family="Helvetica,sans-Serif" font-size="10.00">...</text>
</g>
<!-- Node12 -->
<g id="node12" class="node"><title>Node12</title>
<polygon fill="none" stroke="#bfbfbf" points="588.399,-469.5 588.399,-526.5 646.399,-526.5 646.399,-469.5 588.399,-469.5"/>
<text text-anchor="middle" x="617.399" y="-514.5" font-family="Helvetica,sans-Serif" font-size="10.00">ev_signal</text>
<polyline fill="none" stroke="#bfbfbf" points="588.399,-507.5 646.399,-507.5 "/>
<text text-anchor="middle" x="617.399" y="-495.5" font-family="Helvetica,sans-Serif" font-size="10.00"> </text>
<polyline fill="none" stroke="#bfbfbf" points="588.399,-488.5 646.399,-488.5 "/>
<text text-anchor="middle" x="617.399" y="-476.5" font-family="Helvetica,sans-Serif" font-size="10.00"> </text>
</g>
<!-- Node12&#45;&gt;Node3 -->
<g id="edge12" class="edge"><title>Node12&#45;&gt;Node3</title>
<path fill="none" stroke="#404040" d="M613.392,-469.246C607.103,-433.805 592.079,-372.043 559.399,-330 545.967,-312.72 525.037,-299.353 508.239,-290.572"/>
<polygon fill="none" stroke="#404040" points="508.175,-290.541 501.025,-291.475 497.412,-285.234 504.562,-284.3 508.175,-290.541"/>
<text text-anchor="middle" x="650.399" y="-393.5" font-family="Helvetica,sans-Serif" font-size="10.00"> +sigterm_watcher</text>
<text text-anchor="middle" x="650.399" y="-382.5" font-family="Helvetica,sans-Serif" font-size="10.00">+sigint_watcher</text>
</g>
<!-- Node13 -->
<g id="node13" class="node"><title>Node13</title>
<polygon fill="none" stroke="#bfbfbf" points="664.899,-469.5 664.899,-526.5 777.899,-526.5 777.899,-469.5 664.899,-469.5"/>
<text text-anchor="middle" x="721.399" y="-514.5" font-family="Helvetica,sans-Serif" font-size="10.00">struct hpd_ev_asyncs</text>
<polyline fill="none" stroke="#bfbfbf" points="664.899,-507.5 777.899,-507.5 "/>
<text text-anchor="middle" x="721.399" y="-495.5" font-family="Helvetica,sans-Serif" font-size="10.00"> </text>
<polyline fill="none" stroke="#bfbfbf" points="664.899,-488.5 777.899,-488.5 "/>
<text text-anchor="middle" x="721.399" y="-476.5" font-family="Helvetica,sans-Serif" font-size="10.00"> </text>
</g>
<!-- Node13&#45;&gt;Node3 -->
<g id="edge13" class="edge"><title>Node13&#45;&gt;Node3</title>
<path fill="none" stroke="#404040" d="M720.853,-469.392C719.42,-427.155 714.226,-349.346 695.399,-330 664.514,-298.263 640.503,-322.156 597.399,-312 566.928,-304.821 532.531,-294.617 509.159,-287.361"/>
<polygon fill="none" stroke="#404040" points="508.853,-287.265 501.93,-289.284 497.404,-283.671 504.326,-281.651 508.853,-287.265"/>
<text text-anchor="middle" x="765.899" y="-410" font-family="Helvetica,sans-Serif" font-size="10.00"> +respond_watchers</text>
<text text-anchor="middle" x="765.899" y="-399" font-family="Helvetica,sans-Serif" font-size="10.00">+request_watchers</text>
<text text-anchor="middle" x="765.899" y="-388" font-family="Helvetica,sans-Serif" font-size="10.00">+changed_watchers</text>
<text text-anchor="middle" x="765.899" y="-377" font-family="Helvetica,sans-Serif" font-size="10.00">+attached_watchers</text>
<text text-anchor="middle" x="765.899" y="-366" font-family="Helvetica,sans-Serif" font-size="10.00">+detached_watchers</text>
</g>
<!-- Node14&#45;&gt;Node1 -->
<g id="edge24" class="edge"><title>Node14&#45;&gt;Node1</title>
<path fill="none" stroke="#404040" d="M465.32,-105.398C458.661,-93.9679 450.828,-80.5199 443.634,-68.1701"/>
<polygon fill="none" stroke="#404040" points="443.562,-68.0473 437.086,-64.8762 437.522,-57.6783 443.998,-60.8494 443.562,-68.0473"/>
<text text-anchor="middle" x="474.399" y="-79" font-family="Helvetica,sans-Serif" font-size="10.00"> +context</text>
</g>
<!-- Node14&#45;&gt;Node3 -->
<g id="edge14" class="edge"><title>Node14&#45;&gt;Node3</title>
<path fill="none" stroke="#404040" d="M482.799,-162.724C483.049,-168.748 483.27,-175.086 483.399,-181 483.823,-200.551 483.778,-205.448 483.399,-225 483.325,-228.77 483.222,-232.694 483.101,-236.62"/>
<polygon fill="none" stroke="#404040" points="483.088,-236.984 486.874,-243.121 482.665,-248.977 478.879,-242.84 483.088,-236.984"/>
<text text-anchor="middle" x="520.899" y="-200.5" font-family="Helvetica,sans-Serif" font-size="10.00"> +option2module</text>
</g>
<!-- Node15 -->
<g id="node15" class="node"><title>Node15</title>
<g id="a_node15"><a xlink:href="a00030.html#a00123" target="_top" xlink:title="[Application API Callbacks] ">
<polygon fill="none" stroke="black" points="606.399,-249 606.399,-306 694.399,-306 694.399,-249 606.399,-249"/>
<text text-anchor="middle" x="650.399" y="-294" font-family="Helvetica,sans-Serif" font-size="10.00">hpd_module_def</text>
<polyline fill="none" stroke="black" points="606.399,-287 694.399,-287 "/>
<text text-anchor="middle" x="650.399" y="-275" font-family="Helvetica,sans-Serif" font-size="10.00"> </text>
<polyline fill="none" stroke="black" points="606.399,-268 694.399,-268 "/>
<text text-anchor="middle" x="650.399" y="-256" font-family="Helvetica,sans-Serif" font-size="10.00"> </text>
</a>
</g>
</g>
<!-- Node15&#45;&gt;Node14 -->
<g id="edge15" class="edge"><title>Node15&#45;&gt;Node14</title>
<path fill="none" stroke="#404040" d="M624.74,-248.972C617.514,-241.219 609.648,-232.779 602.399,-225 584.175,-205.446 582.329,-197.625 561.399,-181 555.389,-176.226 548.827,-171.628 542.129,-167.308"/>
<polygon fill="none" stroke="#404040" points="541.757,-167.077 534.55,-167.32 531.554,-160.76 538.761,-160.518 541.757,-167.077"/>
<text text-anchor="middle" x="613.899" y="-200.5" font-family="Helvetica,sans-Serif" font-size="10.00"> +def</text>
</g>
<!-- Node16 -->
<g id="node16" class="node"><title>Node16</title>
<polygon fill="none" stroke="#bfbfbf" points="796.399,-469.5 796.399,-526.5 880.399,-526.5 880.399,-469.5 796.399,-469.5"/>
<text text-anchor="middle" x="838.399" y="-514.5" font-family="Helvetica,sans-Serif" font-size="10.00">enum hpd_error</text>
<polyline fill="none" stroke="#bfbfbf" points="796.399,-507.5 880.399,-507.5 "/>
<text text-anchor="middle" x="838.399" y="-495.5" font-family="Helvetica,sans-Serif" font-size="10.00"> </text>
<polyline fill="none" stroke="#bfbfbf" points="796.399,-488.5 880.399,-488.5 "/>
<text text-anchor="middle" x="838.399" y="-476.5" font-family="Helvetica,sans-Serif" font-size="10.00"> </text>
</g>
<!-- Node16&#45;&gt;Node15 -->
<g id="edge16" class="edge"><title>Node16&#45;&gt;Node15</title>
<path fill="none" stroke="#404040" d="M843.587,-469.289C848.75,-432.446 851.524,-367.62 816.399,-330 788.857,-300.502 765.893,-324.117 727.399,-312 720.281,-309.759 712.931,-307.075 705.726,-304.215"/>
<polygon fill="none" stroke="#404040" points="705.67,-304.192 698.598,-305.6 694.578,-299.613 701.651,-298.205 705.67,-304.192"/>
<text text-anchor="middle" x="878.899" y="-410" font-family="Helvetica,sans-Serif" font-size="10.00"> +on_create</text>
<text text-anchor="middle" x="878.899" y="-399" font-family="Helvetica,sans-Serif" font-size="10.00">+on_stop</text>
<text text-anchor="middle" x="878.899" y="-388" font-family="Helvetica,sans-Serif" font-size="10.00">+on_destroy</text>
<text text-anchor="middle" x="878.899" y="-377" font-family="Helvetica,sans-Serif" font-size="10.00">+on_start</text>
<text text-anchor="middle" x="878.899" y="-366" font-family="Helvetica,sans-Serif" font-size="10.00">+on_parse_opt</text>
</g>
<!-- Node17 -->
<g id="node17" class="node"><title>Node17</title>
<polygon fill="none" stroke="#bfbfbf" points="311.899,-249 311.899,-306 352.899,-306 352.899,-249 311.899,-249"/>
<text text-anchor="middle" x="332.399" y="-294" font-family="Helvetica,sans-Serif" font-size="10.00">void *</text>
<polyline fill="none" stroke="#bfbfbf" points="311.899,-287 352.899,-287 "/>
<text text-anchor="middle" x="332.399" y="-275" font-family="Helvetica,sans-Serif" font-size="10.00"> </text>
<polyline fill="none" stroke="#bfbfbf" points="311.899,-268 352.899,-268 "/>
<text text-anchor="middle" x="332.399" y="-256" font-family="Helvetica,sans-Serif" font-size="10.00"> </text>
</g>
<!-- Node17&#45;&gt;Node2 -->
<g id="edge23" class="edge"><title>Node17&#45;&gt;Node2</title>
<path fill="none" stroke="#404040" d="M316.882,-248.951C313.391,-241.415 310.191,-233.09 308.399,-225 304.788,-208.703 306.377,-190.515 309.487,-174.778"/>
<polygon fill="none" stroke="#404040" points="309.559,-174.463 306.999,-167.722 312.237,-162.766 314.797,-169.507 309.559,-174.463"/>
<text text-anchor="middle" x="322.399" y="-200.5" font-family="Helvetica,sans-Serif" font-size="10.00"> +data</text>
</g>
<!-- Node17&#45;&gt;Node14 -->
<g id="edge18" class="edge"><title>Node17&#45;&gt;Node14</title>
<path fill="none" stroke="#404040" d="M333.694,-248.585C336.082,-227.595 342.5,-199.401 359.399,-181 375.095,-163.909 397.784,-153.129 419.349,-146.347"/>
<polygon fill="none" stroke="#404040" points="419.622,-146.269 424.294,-140.776 431.162,-142.976 426.49,-148.469 419.622,-146.269"/>
<text text-anchor="middle" x="373.399" y="-200.5" font-family="Helvetica,sans-Serif" font-size="10.00"> +data</text>
</g>
<!-- Node18 -->
<g id="node18" class="node"><title>Node18</title>
<polygon fill="none" stroke="#bfbfbf" points="736.399,-249 736.399,-306 778.399,-306 778.399,-249 736.399,-249"/>
<text text-anchor="middle" x="757.399" y="-294" font-family="Helvetica,sans-Serif" font-size="10.00">char *</text>
<polyline fill="none" stroke="#bfbfbf" points="736.399,-287 778.399,-287 "/>
<text text-anchor="middle" x="757.399" y="-275" font-family="Helvetica,sans-Serif" font-size="10.00"> </text>
<polyline fill="none" stroke="#bfbfbf" points="736.399,-268 778.399,-268 "/>
<text text-anchor="middle" x="757.399" y="-256" font-family="Helvetica,sans-Serif" font-size="10.00"> </text>
</g>
<!-- Node18&#45;&gt;Node14 -->
<g id="edge19" class="edge"><title>Node18&#45;&gt;Node14</title>
<path fill="none" stroke="#404040" d="M767.666,-248.985C773.574,-227.933 777.08,-199.468 761.399,-181 734.082,-148.83 617.906,-139.116 544.052,-136.21"/>
<polygon fill="none" stroke="#404040" points="543.677,-136.197 537.539,-139.981 531.684,-135.771 537.822,-131.986 543.677,-136.197"/>
<text text-anchor="middle" x="781.899" y="-200.5" font-family="Helvetica,sans-Serif" font-size="10.00"> +id</text>
</g>
<!-- Node19&#45;&gt;Node2 -->
<g id="edge20" class="edge"><title>Node19&#45;&gt;Node2</title>
<path fill="none" stroke="#404040" d="M230.19,-243.499C231.544,-223.853 235.966,-199.274 248.399,-181 252.085,-175.581 256.644,-170.671 261.668,-166.254"/>
<polygon fill="none" stroke="#404040" points="261.687,-166.239 263.939,-159.389 271.129,-158.833 268.877,-165.683 261.687,-166.239"/>
<text text-anchor="middle" x="275.399" y="-217" font-family="Helvetica,sans-Serif" font-size="10.00"> +on_free</text>
<text text-anchor="middle" x="275.399" y="-206" font-family="Helvetica,sans-Serif" font-size="10.00">+on_change</text>
<text text-anchor="middle" x="275.399" y="-195" font-family="Helvetica,sans-Serif" font-size="10.00">+on_attach</text>
<text text-anchor="middle" x="275.399" y="-184" font-family="Helvetica,sans-Serif" font-size="10.00">+on_detach</text>
</g>
</g>
</svg>
