<?xml version="1.0" encoding="UTF-8" standalone="no"?>
<!DOCTYPE svg PUBLIC "-//W3C//DTD SVG 1.1//EN"
 "http://www.w3.org/Graphics/SVG/1.1/DTD/svg11.dtd">
<!-- Generated by graphviz version 2.38.0 (20140413.2041)
 -->
<!-- Title: hpd/src/daemon_api.c Pages: 1 -->
<svg width="715pt" height="252pt"
 viewBox="0.00 0.00 714.60 252.00" xmlns="http://www.w3.org/2000/svg" xmlns:xlink="http://www.w3.org/1999/xlink">
<g id="graph0" class="graph" transform="scale(1 1) rotate(0) translate(4 248)">
<title>hpd/src/daemon_api.c</title>
<!-- Node1 -->
<g id="node1" class="node"><title>Node1</title>
<polygon fill="#bfbfbf" stroke="black" points="281.5,-224.5 281.5,-243.5 394.5,-243.5 394.5,-224.5 281.5,-224.5"/>
<text text-anchor="middle" x="338" y="-231.5" font-family="Helvetica,sans-Serif" font-size="10.00">hpd/src/daemon_api.c</text>
</g>
<!-- Node2 -->
<g id="node2" class="node"><title>Node2</title>
<g id="a_node2"><a xlink:href="a00057.html" target="_top" xlink:title="hpd_api.h">
<polygon fill="none" stroke="black" points="176.5,-168.5 176.5,-187.5 235.5,-187.5 235.5,-168.5 176.5,-168.5"/>
<text text-anchor="middle" x="206" y="-175.5" font-family="Helvetica,sans-Serif" font-size="10.00">hpd_api.h</text>
</a>
</g>
</g>
<!-- Node1&#45;&gt;Node2 -->
<g id="edge1" class="edge"><title>Node1&#45;&gt;Node2</title>
<path fill="none" stroke="midnightblue" d="M317.084,-224.444C295.264,-215.517 260.85,-201.439 236.108,-191.317"/>
<polygon fill="midnightblue" stroke="midnightblue" points="237.399,-188.063 226.818,-187.516 234.748,-194.542 237.399,-188.063"/>
</g>
<!-- Node10 -->
<g id="node10" class="node"><title>Node10</title>
<g id="a_node10"><a xlink:href="a00009.html" target="_top" xlink:title="daemon.h">
<polygon fill="none" stroke="black" points="544.5,-168.5 544.5,-187.5 603.5,-187.5 603.5,-168.5 544.5,-168.5"/>
<text text-anchor="middle" x="574" y="-175.5" font-family="Helvetica,sans-Serif" font-size="10.00">daemon.h</text>
</a>
</g>
</g>
<!-- Node1&#45;&gt;Node10 -->
<g id="edge11" class="edge"><title>Node1&#45;&gt;Node10</title>
<path fill="none" stroke="midnightblue" d="M375.395,-224.444C418.803,-214.511 490.089,-198.2 534.412,-188.058"/>
<polygon fill="midnightblue" stroke="midnightblue" points="535.285,-191.449 544.252,-185.807 533.724,-184.625 535.285,-191.449"/>
</g>
<!-- Node13 -->
<g id="node13" class="node"><title>Node13</title>
<polygon fill="none" stroke="#bfbfbf" points="468.5,-56.5 468.5,-75.5 517.5,-75.5 517.5,-56.5 468.5,-56.5"/>
<text text-anchor="middle" x="493" y="-63.5" font-family="Helvetica,sans-Serif" font-size="10.00">string.h</text>
</g>
<!-- Node1&#45;&gt;Node13 -->
<g id="edge20" class="edge"><title>Node1&#45;&gt;Node13</title>
<path fill="none" stroke="midnightblue" d="M341.698,-224.273C352.904,-197.958 386.255,-120.66 395,-112 412.606,-94.5657 438.199,-83.1309 458.816,-76.1518"/>
<polygon fill="midnightblue" stroke="midnightblue" points="460.013,-79.4441 468.481,-73.0769 457.891,-72.7735 460.013,-79.4441"/>
</g>
<!-- Node15 -->
<g id="node15" class="node"><title>Node15</title>
<polygon fill="none" stroke="#bfbfbf" points="361.5,-56.5 361.5,-75.5 450.5,-75.5 450.5,-56.5 361.5,-56.5"/>
<text text-anchor="middle" x="406" y="-63.5" font-family="Helvetica,sans-Serif" font-size="10.00">bsd/sys/queue.h</text>
</g>
<!-- Node1&#45;&gt;Node15 -->
<g id="edge24" class="edge"><title>Node1&#45;&gt;Node15</title>
<path fill="none" stroke="midnightblue" d="M338.061,-224.228C338.549,-203.483 341.832,-150.272 362,-112 368.006,-100.603 377.813,-90.1582 386.646,-82.2066"/>
<polygon fill="midnightblue" stroke="midnightblue" points="389.002,-84.7971 394.347,-75.6491 384.464,-79.4675 389.002,-84.7971"/>
</g>
<!-- Node18 -->
<g id="node18" class="node"><title>Node18</title>
<g id="a_node18"><a xlink:href="a00070.html" target="_top" xlink:title="log.h">
<polygon fill="none" stroke="black" points="305,-56.5 305,-75.5 343,-75.5 343,-56.5 305,-56.5"/>
<text text-anchor="middle" x="324" y="-63.5" font-family="Helvetica,sans-Serif" font-size="10.00">log.h</text>
</a>
</g>
</g>
<!-- Node1&#45;&gt;Node18 -->
<g id="edge21" class="edge"><title>Node1&#45;&gt;Node18</title>
<path fill="none" stroke="midnightblue" d="M334.4,-224.222C330.944,-215.285 325.967,-200.942 324,-188 318.548,-152.126 320.454,-109.575 322.27,-85.6897"/>
<polygon fill="midnightblue" stroke="midnightblue" points="325.77,-85.8334 323.122,-75.5749 318.795,-85.2459 325.77,-85.8334"/>
</g>
<!-- Node3 -->
<g id="node3" class="node"><title>Node3</title>
<g id="a_node3"><a xlink:href="a00056.html" target="_top" xlink:title="hpd_adapter_api.h">
<polygon fill="none" stroke="black" points="0,-112.5 0,-131.5 96,-131.5 96,-112.5 0,-112.5"/>
<text text-anchor="middle" x="48" y="-119.5" font-family="Helvetica,sans-Serif" font-size="10.00">hpd_adapter_api.h</text>
</a>
</g>
</g>
<!-- Node2&#45;&gt;Node3 -->
<g id="edge2" class="edge"><title>Node2&#45;&gt;Node3</title>
<path fill="none" stroke="midnightblue" d="M180.964,-168.444C154.384,-159.359 112.191,-144.939 82.4766,-134.783"/>
<polygon fill="midnightblue" stroke="midnightblue" points="83.513,-131.439 72.9184,-131.516 81.2491,-138.062 83.513,-131.439"/>
</g>
<!-- Node8 -->
<g id="node8" class="node"><title>Node8</title>
<g id="a_node8"><a xlink:href="a00058.html" target="_top" xlink:title="hpd_application_api.h">
<polygon fill="none" stroke="black" points="114,-112.5 114,-131.5 224,-131.5 224,-112.5 114,-112.5"/>
<text text-anchor="middle" x="169" y="-119.5" font-family="Helvetica,sans-Serif" font-size="10.00">hpd_application_api.h</text>
</a>
</g>
</g>
<!-- Node2&#45;&gt;Node8 -->
<g id="edge7" class="edge"><title>Node2&#45;&gt;Node8</title>
<path fill="none" stroke="midnightblue" d="M199.89,-168.083C194.718,-160.534 187.154,-149.495 180.806,-140.23"/>
<polygon fill="midnightblue" stroke="midnightblue" points="183.536,-138.022 174.996,-131.751 177.761,-141.979 183.536,-138.022"/>
</g>
<!-- Node9 -->
<g id="node9" class="node"><title>Node9</title>
<g id="a_node9"><a xlink:href="a00059.html" target="_top" xlink:title="hpd_daemon_api.h">
<polygon fill="none" stroke="black" points="189,-56.5 189,-75.5 287,-75.5 287,-56.5 189,-56.5"/>
<text text-anchor="middle" x="238" y="-63.5" font-family="Helvetica,sans-Serif" font-size="10.00">hpd_daemon_api.h</text>
</a>
</g>
</g>
<!-- Node2&#45;&gt;Node9 -->
<g id="edge9" class="edge"><title>Node2&#45;&gt;Node9</title>
<path fill="none" stroke="midnightblue" d="M212.919,-168.295C219.368,-159.642 228.628,-145.715 233,-132 237.786,-116.987 238.845,-99.0799 238.815,-85.866"/>
<polygon fill="midnightblue" stroke="midnightblue" points="242.31,-85.5677 238.576,-75.6527 235.311,-85.7322 242.31,-85.5677"/>
</g>
<!-- Node4 -->
<g id="node4" class="node"><title>Node4</title>
<g id="a_node4"><a xlink:href="a00060.html" target="_top" xlink:title="hpd_shared_api.h">
<polygon fill="none" stroke="black" points="78.5,-56.5 78.5,-75.5 171.5,-75.5 171.5,-56.5 78.5,-56.5"/>
<text text-anchor="middle" x="125" y="-63.5" font-family="Helvetica,sans-Serif" font-size="10.00">hpd_shared_api.h</text>
</a>
</g>
</g>
<!-- Node3&#45;&gt;Node4 -->
<g id="edge3" class="edge"><title>Node3&#45;&gt;Node4</title>
<path fill="none" stroke="midnightblue" d="M60.3714,-112.324C72.1585,-104.058 90.1323,-91.4527 104.136,-81.6322"/>
<polygon fill="midnightblue" stroke="midnightblue" points="106.482,-84.2619 112.659,-75.6545 102.462,-78.5307 106.482,-84.2619"/>
</g>
<!-- Node5 -->
<g id="node5" class="node"><title>Node5</title>
<g id="a_node5"><a xlink:href="a00021.html" target="_top" xlink:title="hpd_types.h">
<polygon fill="none" stroke="black" points="276,-0.5 276,-19.5 346,-19.5 346,-0.5 276,-0.5"/>
<text text-anchor="middle" x="311" y="-7.5" font-family="Helvetica,sans-Serif" font-size="10.00">hpd_types.h</text>
</a>
</g>
</g>
<!-- Node4&#45;&gt;Node5 -->
<g id="edge4" class="edge"><title>Node4&#45;&gt;Node5</title>
<path fill="none" stroke="midnightblue" d="M154.472,-56.4435C186.171,-47.2406 236.732,-32.5617 271.775,-22.3879"/>
<polygon fill="midnightblue" stroke="midnightblue" points="273.038,-25.6658 281.666,-19.5164 271.086,-18.9434 273.038,-25.6658"/>
</g>
<!-- Node6 -->
<g id="node6" class="node"><title>Node6</title>
<polygon fill="none" stroke="#bfbfbf" points="99,-0.5 99,-19.5 151,-19.5 151,-0.5 99,-0.5"/>
<text text-anchor="middle" x="125" y="-7.5" font-family="Helvetica,sans-Serif" font-size="10.00">stddef.h</text>
</g>
<!-- Node4&#45;&gt;Node6 -->
<g id="edge5" class="edge"><title>Node4&#45;&gt;Node6</title>
<path fill="none" stroke="midnightblue" d="M125,-56.083C125,-49.0059 125,-38.8611 125,-29.9865"/>
<polygon fill="midnightblue" stroke="midnightblue" points="128.5,-29.751 125,-19.7511 121.5,-29.7511 128.5,-29.751"/>
</g>
<!-- Node7 -->
<g id="node7" class="node"><title>Node7</title>
<polygon fill="none" stroke="#bfbfbf" points="194,-0.5 194,-19.5 246,-19.5 246,-0.5 194,-0.5"/>
<text text-anchor="middle" x="220" y="-7.5" font-family="Helvetica,sans-Serif" font-size="10.00">stdarg.h</text>
</g>
<!-- Node4&#45;&gt;Node7 -->
<g id="edge6" class="edge"><title>Node4&#45;&gt;Node7</title>
<path fill="none" stroke="midnightblue" d="M140.263,-56.324C155.221,-47.8215 178.255,-34.7288 195.727,-24.7975"/>
<polygon fill="midnightblue" stroke="midnightblue" points="197.81,-27.639 204.774,-19.6545 194.351,-21.5534 197.81,-27.639"/>
</g>
<!-- Node8&#45;&gt;Node4 -->
<g id="edge8" class="edge"><title>Node8&#45;&gt;Node4</title>
<path fill="none" stroke="midnightblue" d="M161.734,-112.083C155.455,-104.377 146.212,-93.0333 138.569,-83.6531"/>
<polygon fill="midnightblue" stroke="midnightblue" points="141.161,-81.2926 132.131,-75.7511 135.734,-85.7143 141.161,-81.2926"/>
</g>
<!-- Node9&#45;&gt;Node5 -->
<g id="edge10" class="edge"><title>Node9&#45;&gt;Node5</title>
<path fill="none" stroke="midnightblue" d="M249.729,-56.324C260.837,-48.1066 277.742,-35.6017 290.983,-25.8069"/>
<polygon fill="midnightblue" stroke="midnightblue" points="293.1,-28.5948 299.058,-19.8339 288.937,-22.9671 293.1,-28.5948"/>
</g>
<!-- Node10&#45;&gt;Node5 -->
<g id="edge12" class="edge"><title>Node10&#45;&gt;Node5</title>
<path fill="none" stroke="midnightblue" d="M603.62,-173.855C648.481,-167.774 726.025,-151.354 702,-112 665.82,-52.736 451.552,-24.7162 356.439,-15.0703"/>
<polygon fill="midnightblue" stroke="midnightblue" points="356.557,-11.565 346.261,-14.0623 355.867,-18.5309 356.557,-11.565"/>
</g>
<!-- Node11 -->
<g id="node11" class="node"><title>Node11</title>
<g id="a_node11"><a xlink:href="a00044.html" target="_top" xlink:title="hpd_common.h">
<polygon fill="none" stroke="black" points="494.5,-112.5 494.5,-131.5 577.5,-131.5 577.5,-112.5 494.5,-112.5"/>
<text text-anchor="middle" x="536" y="-119.5" font-family="Helvetica,sans-Serif" font-size="10.00">hpd_common.h</text>
</a>
</g>
</g>
<!-- Node10&#45;&gt;Node11 -->
<g id="edge13" class="edge"><title>Node10&#45;&gt;Node11</title>
<path fill="none" stroke="midnightblue" d="M567.725,-168.083C562.358,-160.455 554.482,-149.264 547.921,-139.941"/>
<polygon fill="midnightblue" stroke="midnightblue" points="550.775,-137.915 542.158,-131.751 545.051,-141.943 550.775,-137.915"/>
</g>
<!-- Node14 -->
<g id="node14" class="node"><title>Node14</title>
<g id="a_node14"><a xlink:href="a00045.html" target="_top" xlink:title="hpd_queue.h">
<polygon fill="none" stroke="black" points="404,-112.5 404,-131.5 476,-131.5 476,-112.5 404,-112.5"/>
<text text-anchor="middle" x="440" y="-119.5" font-family="Helvetica,sans-Serif" font-size="10.00">hpd_queue.h</text>
</a>
</g>
</g>
<!-- Node10&#45;&gt;Node14 -->
<g id="edge16" class="edge"><title>Node10&#45;&gt;Node14</title>
<path fill="none" stroke="midnightblue" d="M552.767,-168.444C530.616,-159.517 495.681,-145.439 470.564,-135.317"/>
<polygon fill="midnightblue" stroke="midnightblue" points="471.717,-132.008 461.133,-131.516 469.1,-138.501 471.717,-132.008"/>
</g>
<!-- Node16 -->
<g id="node16" class="node"><title>Node16</title>
<polygon fill="none" stroke="#bfbfbf" points="595.5,-112.5 595.5,-131.5 630.5,-131.5 630.5,-112.5 595.5,-112.5"/>
<text text-anchor="middle" x="613" y="-119.5" font-family="Helvetica,sans-Serif" font-size="10.00">ev.h</text>
</g>
<!-- Node10&#45;&gt;Node16 -->
<g id="edge18" class="edge"><title>Node10&#45;&gt;Node16</title>
<path fill="none" stroke="midnightblue" d="M580.44,-168.083C585.949,-160.455 594.031,-149.264 600.765,-139.941"/>
<polygon fill="midnightblue" stroke="midnightblue" points="603.662,-141.907 606.68,-131.751 597.987,-137.809 603.662,-141.907"/>
</g>
<!-- Node17 -->
<g id="node17" class="node"><title>Node17</title>
<polygon fill="none" stroke="#bfbfbf" points="649,-112.5 649,-131.5 693,-131.5 693,-112.5 649,-112.5"/>
<text text-anchor="middle" x="671" y="-119.5" font-family="Helvetica,sans-Serif" font-size="10.00">argp.h</text>
</g>
<!-- Node10&#45;&gt;Node17 -->
<g id="edge19" class="edge"><title>Node10&#45;&gt;Node17</title>
<path fill="none" stroke="midnightblue" d="M589.585,-168.324C604.999,-159.743 628.812,-146.486 646.71,-136.522"/>
<polygon fill="midnightblue" stroke="midnightblue" points="648.419,-139.577 655.454,-131.655 645.014,-133.461 648.419,-139.577"/>
</g>
<!-- Node12 -->
<g id="node12" class="node"><title>Node12</title>
<polygon fill="none" stroke="#bfbfbf" points="536,-56.5 536,-75.5 584,-75.5 584,-56.5 536,-56.5"/>
<text text-anchor="middle" x="560" y="-63.5" font-family="Helvetica,sans-Serif" font-size="10.00">stdlib.h</text>
</g>
<!-- Node11&#45;&gt;Node12 -->
<g id="edge14" class="edge"><title>Node11&#45;&gt;Node12</title>
<path fill="none" stroke="midnightblue" d="M539.963,-112.083C543.213,-104.77 547.919,-94.1814 551.954,-85.1034"/>
<polygon fill="midnightblue" stroke="midnightblue" points="555.248,-86.3107 556.111,-75.7511 548.851,-83.4677 555.248,-86.3107"/>
</g>
<!-- Node11&#45;&gt;Node13 -->
<g id="edge15" class="edge"><title>Node11&#45;&gt;Node13</title>
<path fill="none" stroke="midnightblue" d="M528.899,-112.083C522.763,-104.377 513.73,-93.0333 506.261,-83.6531"/>
<polygon fill="midnightblue" stroke="midnightblue" points="508.936,-81.3936 499.968,-75.7511 503.46,-85.7542 508.936,-81.3936"/>
</g>
<!-- Node14&#45;&gt;Node15 -->
<g id="edge17" class="edge"><title>Node14&#45;&gt;Node15</title>
<path fill="none" stroke="midnightblue" d="M434.386,-112.083C429.633,-104.534 422.682,-93.4948 416.848,-84.2298"/>
<polygon fill="midnightblue" stroke="midnightblue" points="419.8,-82.3486 411.51,-75.7511 413.876,-86.0783 419.8,-82.3486"/>
</g>
<!-- Node18&#45;&gt;Node5 -->
<g id="edge22" class="edge"><title>Node18&#45;&gt;Node5</title>
<path fill="none" stroke="midnightblue" d="M321.853,-56.083C320.131,-48.9272 317.653,-38.6353 315.5,-29.6911"/>
<polygon fill="midnightblue" stroke="midnightblue" points="318.85,-28.6541 313.107,-19.7511 312.045,-30.2925 318.85,-28.6541"/>
</g>
<!-- Node18&#45;&gt;Node7 -->
<g id="edge23" class="edge"><title>Node18&#45;&gt;Node7</title>
<path fill="none" stroke="midnightblue" d="M307.291,-56.324C290.688,-47.7034 264.998,-34.3643 245.78,-24.3855"/>
<polygon fill="midnightblue" stroke="midnightblue" points="247.156,-21.1565 236.668,-19.6545 243.93,-27.3689 247.156,-21.1565"/>
</g>
</g>
</svg>
