<?xml version="1.0" encoding="UTF-8" standalone="no"?>
<!DOCTYPE svg PUBLIC "-//W3C//DTD SVG 1.1//EN"
 "http://www.w3.org/Graphics/SVG/1.1/DTD/svg11.dtd">
<!-- Generated by graphviz version 2.38.0 (20140413.2041)
 -->
<!-- Title: common Pages: 1 -->
<svg width="222pt" height="220pt"
 viewBox="0.00 0.00 222.00 220.00" xmlns="http://www.w3.org/2000/svg" xmlns:xlink="http://www.w3.org/1999/xlink">
<g id="graph0" class="graph" transform="scale(1 1) rotate(0) translate(4 216)">
<title>common</title>
<g id="clust1" class="cluster"><title>clusterdir_92c8123cc8c952444b1cbf20f3d9ebba</title>
<g id="a_clust1"><a xlink:href="dir_92c8123cc8c952444b1cbf20f3d9ebba.html" target="_top">
<polygon fill="#eeeeff" stroke="black" points="8,-8 8,-204 150,-204 150,-8 8,-8"/>
</a>
</g>
</g>
<!-- dir_92c8123cc8c952444b1cbf20f3d9ebba -->
<g id="node1" class="node"><title>dir_92c8123cc8c952444b1cbf20f3d9ebba</title>
<text text-anchor="middle" x="115" y="-175.5" font-family="Helvetica,sans-Serif" font-size="10.00">common</text>
</g>
<!-- dir_b8866f0152409874d07ad7858b53b19d -->
<g id="node2" class="node"><title>dir_b8866f0152409874d07ad7858b53b19d</title>
<g id="a_node2"><a xlink:href="dir_b8866f0152409874d07ad7858b53b19d.html" target="_top" xlink:title="httpd">
<polygon fill="white" stroke="red" points="70,-196 16,-196 16,-160 70,-160 70,-196"/>
<text text-anchor="middle" x="43" y="-175.5" font-family="Helvetica,sans-Serif" font-size="10.00">httpd</text>
</a>
</g>
</g>
<!-- dir_7cd67a6f33b1a87cbf0a128a05e7bee9 -->
<g id="node4" class="node"><title>dir_7cd67a6f33b1a87cbf0a128a05e7bee9</title>
<g id="a_node4"><a xlink:href="dir_7cd67a6f33b1a87cbf0a128a05e7bee9.html" target="_top" xlink:title="map">
<polygon fill="white" stroke="red" points="70,-124 16,-124 16,-88 70,-88 70,-124"/>
<text text-anchor="middle" x="43" y="-103.5" font-family="Helvetica,sans-Serif" font-size="10.00">map</text>
</a>
</g>
</g>
<!-- dir_b8866f0152409874d07ad7858b53b19d&#45;&gt;dir_7cd67a6f33b1a87cbf0a128a05e7bee9 -->
<g id="edge5" class="edge"><title>dir_b8866f0152409874d07ad7858b53b19d&#45;&gt;dir_7cd67a6f33b1a87cbf0a128a05e7bee9</title>
<path fill="none" stroke="black" d="M43,-159.697C43,-151.983 43,-142.712 43,-134.112"/>
<polygon fill="black" stroke="black" points="46.5001,-134.104 43,-124.104 39.5001,-134.104 46.5001,-134.104"/>
<g id="a_edge5&#45;headlabel"><a xlink:href="dir_000006_000012.html" target="_top" xlink:title="1">
<text text-anchor="middle" x="49.3393" y="-135.199" font-family="Helvetica,sans-Serif" font-size="10.00">1</text>
</a>
</g>
</g>
<!-- dir_0c64c1e896f11c77daa4863b37a3d7fe -->
<g id="node5" class="node"><title>dir_0c64c1e896f11c77daa4863b37a3d7fe</title>
<g id="a_node5"><a xlink:href="dir_0c64c1e896f11c77daa4863b37a3d7fe.html" target="_top" xlink:title="tcpd">
<polygon fill="white" stroke="red" points="142,-124 88,-124 88,-88 142,-88 142,-124"/>
<text text-anchor="middle" x="115" y="-103.5" font-family="Helvetica,sans-Serif" font-size="10.00">tcpd</text>
</a>
</g>
</g>
<!-- dir_b8866f0152409874d07ad7858b53b19d&#45;&gt;dir_0c64c1e896f11c77daa4863b37a3d7fe -->
<g id="edge7" class="edge"><title>dir_b8866f0152409874d07ad7858b53b19d&#45;&gt;dir_0c64c1e896f11c77daa4863b37a3d7fe</title>
<path fill="none" stroke="black" d="M60.7978,-159.697C69.604,-151.135 80.3821,-140.656 90.0011,-131.304"/>
<polygon fill="black" stroke="black" points="92.6768,-133.585 97.407,-124.104 87.7972,-128.566 92.6768,-133.585"/>
<g id="a_edge7&#45;headlabel"><a xlink:href="dir_000006_000015.html" target="_top" xlink:title="3">
<text text-anchor="middle" x="92.0787" y="-135.626" font-family="Helvetica,sans-Serif" font-size="10.00">3</text>
</a>
</g>
</g>
<!-- dir_2cad9915d3465dafc0c8c8572bece9a6 -->
<g id="node6" class="node"><title>dir_2cad9915d3465dafc0c8c8572bece9a6</title>
<g id="a_node6"><a xlink:href="dir_2cad9915d3465dafc0c8c8572bece9a6.html" target="_top" xlink:title="hpd">
<polygon fill="none" stroke="red" points="214,-124 160,-124 160,-88 214,-88 214,-124"/>
<text text-anchor="middle" x="187" y="-103.5" font-family="Helvetica,sans-Serif" font-size="10.00">hpd</text>
</a>
</g>
</g>
<!-- dir_b8866f0152409874d07ad7858b53b19d&#45;&gt;dir_2cad9915d3465dafc0c8c8572bece9a6 -->
<g id="edge6" class="edge"><title>dir_b8866f0152409874d07ad7858b53b19d&#45;&gt;dir_2cad9915d3465dafc0c8c8572bece9a6</title>
<path fill="none" stroke="black" d="M70.131,-164.161C94.1217,-152.79 128.126,-136.625 150.541,-125.659"/>
<polygon fill="black" stroke="black" points="152.239,-128.724 159.661,-121.164 149.144,-122.445 152.239,-128.724"/>
<g id="a_edge6&#45;headlabel"><a xlink:href="dir_000006_000022.html" target="_top" xlink:title="8">
<text text-anchor="middle" x="150.269" y="-130.36" font-family="Helvetica,sans-Serif" font-size="10.00">8</text>
</a>
</g>
</g>
<!-- dir_d2e6b41d166f572270851fabf54c5ec2 -->
<g id="node3" class="node"><title>dir_d2e6b41d166f572270851fabf54c5ec2</title>
<g id="a_node3"><a xlink:href="dir_d2e6b41d166f572270851fabf54c5ec2.html" target="_top" xlink:title="include">
<polygon fill="white" stroke="black" points="142,-52 88,-52 88,-16 142,-16 142,-52"/>
<text text-anchor="middle" x="115" y="-31.5" font-family="Helvetica,sans-Serif" font-size="10.00">include</text>
</a>
</g>
</g>
<!-- dir_7cd67a6f33b1a87cbf0a128a05e7bee9&#45;&gt;dir_d2e6b41d166f572270851fabf54c5ec2 -->
<g id="edge1" class="edge"><title>dir_7cd67a6f33b1a87cbf0a128a05e7bee9&#45;&gt;dir_d2e6b41d166f572270851fabf54c5ec2</title>
<path fill="none" stroke="black" d="M60.7978,-87.6966C69.604,-79.135 80.3821,-68.6562 90.0011,-59.3045"/>
<polygon fill="black" stroke="black" points="92.6768,-61.5846 97.407,-52.1043 87.7972,-56.5657 92.6768,-61.5846"/>
<g id="a_edge1&#45;headlabel"><a xlink:href="dir_000012_000011.html" target="_top" xlink:title="2">
<text text-anchor="middle" x="92.0787" y="-63.6261" font-family="Helvetica,sans-Serif" font-size="10.00">2</text>
</a>
</g>
</g>
<!-- dir_7cd67a6f33b1a87cbf0a128a05e7bee9&#45;&gt;dir_2cad9915d3465dafc0c8c8572bece9a6 -->
<g id="edge2" class="edge"><title>dir_7cd67a6f33b1a87cbf0a128a05e7bee9&#45;&gt;dir_2cad9915d3465dafc0c8c8572bece9a6</title>
<path fill="none" stroke="black" d="M60.0815,-124.217C67.8462,-131.198 77.615,-138.357 88,-142 111.905,-150.386 121.24,-150.789 145,-142 151.657,-139.537 157.971,-135.496 163.585,-130.993"/>
<polygon fill="black" stroke="black" points="166.097,-133.443 171.267,-124.195 161.459,-128.201 166.097,-133.443"/>
<g id="a_edge2&#45;headlabel"><a xlink:href="dir_000012_000022.html" target="_top" xlink:title="2">
<text text-anchor="middle" x="165.287" y="-135.452" font-family="Helvetica,sans-Serif" font-size="10.00">2</text>
</a>
</g>
</g>
<!-- dir_0c64c1e896f11c77daa4863b37a3d7fe&#45;&gt;dir_d2e6b41d166f572270851fabf54c5ec2 -->
<g id="edge8" class="edge"><title>dir_0c64c1e896f11c77daa4863b37a3d7fe&#45;&gt;dir_d2e6b41d166f572270851fabf54c5ec2</title>
<path fill="none" stroke="black" d="M115,-87.6966C115,-79.9827 115,-70.7125 115,-62.1124"/>
<polygon fill="black" stroke="black" points="118.5,-62.1043 115,-52.1043 111.5,-62.1044 118.5,-62.1043"/>
<g id="a_edge8&#45;headlabel"><a xlink:href="dir_000015_000011.html" target="_top" xlink:title="1">
<text text-anchor="middle" x="121.339" y="-63.199" font-family="Helvetica,sans-Serif" font-size="10.00">1</text>
</a>
</g>
</g>
<!-- dir_0c64c1e896f11c77daa4863b37a3d7fe&#45;&gt;dir_2cad9915d3465dafc0c8c8572bece9a6 -->
<g id="edge9" class="edge"><title>dir_0c64c1e896f11c77daa4863b37a3d7fe&#45;&gt;dir_2cad9915d3465dafc0c8c8572bece9a6</title>
<path fill="none" stroke="black" d="M142.281,-106C144.738,-106 147.194,-106 149.651,-106"/>
<polygon fill="black" stroke="black" points="149.75,-109.5 159.75,-106 149.749,-102.5 149.75,-109.5"/>
<g id="a_edge9&#45;headlabel"><a xlink:href="dir_000015_000022.html" target="_top" xlink:title="3">
<text text-anchor="middle" x="146.155" y="-109.839" font-family="Helvetica,sans-Serif" font-size="10.00">3</text>
</a>
</g>
</g>
<!-- dir_2cad9915d3465dafc0c8c8572bece9a6&#45;&gt;dir_d2e6b41d166f572270851fabf54c5ec2 -->
<g id="edge3" class="edge"><title>dir_2cad9915d3465dafc0c8c8572bece9a6&#45;&gt;dir_d2e6b41d166f572270851fabf54c5ec2</title>
<path fill="none" stroke="black" d="M169.202,-87.6966C160.396,-79.135 149.618,-68.6562 139.999,-59.3045"/>
<polygon fill="black" stroke="black" points="142.203,-56.5657 132.593,-52.1043 137.323,-61.5846 142.203,-56.5657"/>
<g id="a_edge3&#45;headlabel"><a xlink:href="dir_000022_000011.html" target="_top" xlink:title="8">
<text text-anchor="middle" x="146.759" y="-54.5356" font-family="Helvetica,sans-Serif" font-size="10.00">8</text>
</a>
</g>
</g>
<!-- dir_2cad9915d3465dafc0c8c8572bece9a6&#45;&gt;dir_7cd67a6f33b1a87cbf0a128a05e7bee9 -->
<g id="edge4" class="edge"><title>dir_2cad9915d3465dafc0c8c8572bece9a6&#45;&gt;dir_7cd67a6f33b1a87cbf0a128a05e7bee9</title>
<path fill="none" stroke="black" d="M171.267,-124.195C164.056,-131.173 154.908,-138.335 145,-142 121.24,-150.789 111.905,-150.386 88,-142 80.8603,-139.496 74.0119,-135.329 67.9057,-130.701"/>
<polygon fill="black" stroke="black" points="70.0145,-127.903 60.0815,-124.217 65.5479,-133.293 70.0145,-127.903"/>
<g id="a_edge4&#45;headlabel"><a xlink:href="dir_000022_000012.html" target="_top" xlink:title="3">
<text text-anchor="middle" x="74.5939" y="-125.511" font-family="Helvetica,sans-Serif" font-size="10.00">3</text>
</a>
</g>
</g>
</g>
</svg>
