<?xml version="1.0" encoding="UTF-8" standalone="no"?>
<!DOCTYPE svg PUBLIC "-//W3C//DTD SVG 1.1//EN"
 "http://www.w3.org/Graphics/SVG/1.1/DTD/svg11.dtd">
<!-- Generated by graphviz version 2.38.0 (20140413.2041)
 -->
<!-- Title: common Pages: 1 -->
<svg width="292pt" height="220pt"
 viewBox="0.00 0.00 292.00 220.00" xmlns="http://www.w3.org/2000/svg" xmlns:xlink="http://www.w3.org/1999/xlink">
<g id="graph0" class="graph" transform="scale(1 1) rotate(0) translate(4 216)">
<title>common</title>
<g id="clust1" class="cluster"><title>clusterdir_bdd9a5d540de89e9fe90efdfc6973a4f</title>
<g id="a_clust1"><a xlink:href="dir_bdd9a5d540de89e9fe90efdfc6973a4f.html" target="_top">
<polygon fill="#eeeeff" stroke="black" points="8,-8 8,-204 222,-204 222,-8 8,-8"/>
</a>
</g>
</g>
<!-- dir_bdd9a5d540de89e9fe90efdfc6973a4f -->
<g id="node1" class="node"><title>dir_bdd9a5d540de89e9fe90efdfc6973a4f</title>
<text text-anchor="middle" x="187" y="-175.5" font-family="Helvetica,sans-Serif" font-size="10.00">common</text>
</g>
<!-- dir_6dfd4494962228c0e294eec4d0b1c98e -->
<g id="node2" class="node"><title>dir_6dfd4494962228c0e294eec4d0b1c98e</title>
<g id="a_node2"><a xlink:href="dir_6dfd4494962228c0e294eec4d0b1c98e.html" target="_top" xlink:title="curl_ev">
<polygon fill="white" stroke="red" points="70,-124 16,-124 16,-88 70,-88 70,-124"/>
<text text-anchor="middle" x="43" y="-103.5" font-family="Helvetica,sans-Serif" font-size="10.00">curl_ev</text>
</a>
</g>
</g>
<!-- dir_11fbc4217d50ab21044e5ad6614aede5 -->
<g id="node4" class="node"><title>dir_11fbc4217d50ab21044e5ad6614aede5</title>
<g id="a_node4"><a xlink:href="dir_11fbc4217d50ab21044e5ad6614aede5.html" target="_top" xlink:title="include">
<polygon fill="white" stroke="black" points="177,-52 123,-52 123,-16 177,-16 177,-52"/>
<text text-anchor="middle" x="150" y="-31.5" font-family="Helvetica,sans-Serif" font-size="10.00">include</text>
</a>
</g>
</g>
<!-- dir_6dfd4494962228c0e294eec4d0b1c98e&#45;&gt;dir_11fbc4217d50ab21044e5ad6614aede5 -->
<g id="edge4" class="edge"><title>dir_6dfd4494962228c0e294eec4d0b1c98e&#45;&gt;dir_11fbc4217d50ab21044e5ad6614aede5</title>
<path fill="none" stroke="black" d="M69.1751,-87.8761C83.0359,-78.8083 100.241,-67.5523 115.211,-57.7592"/>
<polygon fill="black" stroke="black" points="117.272,-60.5933 123.724,-52.1898 113.44,-54.7355 117.272,-60.5933"/>
<g id="a_edge4&#45;headlabel"><a xlink:href="dir_000001_000009.html" target="_top" xlink:title="3">
<text text-anchor="middle" x="115.818" y="-62.4372" font-family="Helvetica,sans-Serif" font-size="10.00">3</text>
</a>
</g>
</g>
<!-- dir_ab00a9b86cff89a0b86b44294c0aada6 -->
<g id="node7" class="node"><title>dir_ab00a9b86cff89a0b86b44294c0aada6</title>
<g id="a_node7"><a xlink:href="dir_ab00a9b86cff89a0b86b44294c0aada6.html" target="_top" xlink:title="hpd">
<polygon fill="none" stroke="red" points="284,-52 230,-52 230,-16 284,-16 284,-52"/>
<text text-anchor="middle" x="257" y="-31.5" font-family="Helvetica,sans-Serif" font-size="10.00">hpd</text>
</a>
</g>
</g>
<!-- dir_6dfd4494962228c0e294eec4d0b1c98e&#45;&gt;dir_ab00a9b86cff89a0b86b44294c0aada6 -->
<g id="edge5" class="edge"><title>dir_6dfd4494962228c0e294eec4d0b1c98e&#45;&gt;dir_ab00a9b86cff89a0b86b44294c0aada6</title>
<path fill="none" stroke="black" d="M70.2778,-91.4245C73.189,-90.1852 76.1336,-89.0161 79,-88 139.303,-66.6229 161.166,-75.3989 220.378,-53.9659"/>
<polygon fill="black" stroke="black" points="221.676,-57.2169 229.802,-50.4181 219.21,-50.6657 221.676,-57.2169"/>
<g id="a_edge5&#45;headlabel"><a xlink:href="dir_000001_000020.html" target="_top" xlink:title="4">
<text text-anchor="middle" x="219.313" y="-58.6405" font-family="Helvetica,sans-Serif" font-size="10.00">4</text>
</a>
</g>
</g>
<!-- dir_de836088bc1383ea19051eab00d43ec5 -->
<g id="node3" class="node"><title>dir_de836088bc1383ea19051eab00d43ec5</title>
<g id="a_node3"><a xlink:href="dir_de836088bc1383ea19051eab00d43ec5.html" target="_top" xlink:title="httpd">
<polygon fill="white" stroke="red" points="142,-196 88,-196 88,-160 142,-160 142,-196"/>
<text text-anchor="middle" x="115" y="-175.5" font-family="Helvetica,sans-Serif" font-size="10.00">httpd</text>
</a>
</g>
</g>
<!-- dir_92f05f95fbe0269de6fcdae1822ddb36 -->
<g id="node5" class="node"><title>dir_92f05f95fbe0269de6fcdae1822ddb36</title>
<g id="a_node5"><a xlink:href="dir_92f05f95fbe0269de6fcdae1822ddb36.html" target="_top" xlink:title="map">
<polygon fill="white" stroke="red" points="214,-124 160,-124 160,-88 214,-88 214,-124"/>
<text text-anchor="middle" x="187" y="-103.5" font-family="Helvetica,sans-Serif" font-size="10.00">map</text>
</a>
</g>
</g>
<!-- dir_de836088bc1383ea19051eab00d43ec5&#45;&gt;dir_92f05f95fbe0269de6fcdae1822ddb36 -->
<g id="edge2" class="edge"><title>dir_de836088bc1383ea19051eab00d43ec5&#45;&gt;dir_92f05f95fbe0269de6fcdae1822ddb36</title>
<path fill="none" stroke="black" d="M132.798,-159.697C141.604,-151.135 152.382,-140.656 162.001,-131.304"/>
<polygon fill="black" stroke="black" points="164.677,-133.585 169.407,-124.104 159.797,-128.566 164.677,-133.585"/>
<g id="a_edge2&#45;headlabel"><a xlink:href="dir_000004_000010.html" target="_top" xlink:title="1">
<text text-anchor="middle" x="164.079" y="-135.626" font-family="Helvetica,sans-Serif" font-size="10.00">1</text>
</a>
</g>
</g>
<!-- dir_82dcf8865025af0993941f3b37463150 -->
<g id="node6" class="node"><title>dir_82dcf8865025af0993941f3b37463150</title>
<g id="a_node6"><a xlink:href="dir_82dcf8865025af0993941f3b37463150.html" target="_top" xlink:title="tcpd">
<polygon fill="white" stroke="red" points="142,-124 88,-124 88,-88 142,-88 142,-124"/>
<text text-anchor="middle" x="115" y="-103.5" font-family="Helvetica,sans-Serif" font-size="10.00">tcpd</text>
</a>
</g>
</g>
<!-- dir_de836088bc1383ea19051eab00d43ec5&#45;&gt;dir_82dcf8865025af0993941f3b37463150 -->
<g id="edge3" class="edge"><title>dir_de836088bc1383ea19051eab00d43ec5&#45;&gt;dir_82dcf8865025af0993941f3b37463150</title>
<path fill="none" stroke="black" d="M115,-159.697C115,-151.983 115,-142.712 115,-134.112"/>
<polygon fill="black" stroke="black" points="118.5,-134.104 115,-124.104 111.5,-134.104 118.5,-134.104"/>
<g id="a_edge3&#45;headlabel"><a xlink:href="dir_000004_000013.html" target="_top" xlink:title="3">
<text text-anchor="middle" x="121.339" y="-135.199" font-family="Helvetica,sans-Serif" font-size="10.00">3</text>
</a>
</g>
</g>
<!-- dir_de836088bc1383ea19051eab00d43ec5&#45;&gt;dir_ab00a9b86cff89a0b86b44294c0aada6 -->
<g id="edge1" class="edge"><title>dir_de836088bc1383ea19051eab00d43ec5&#45;&gt;dir_ab00a9b86cff89a0b86b44294c0aada6</title>
<path fill="none" stroke="black" d="M142.039,-164.029C173.534,-148.878 221.491,-125.654 223,-124 238.805,-106.682 247.532,-81.2551 252.173,-62.0092"/>
<polygon fill="black" stroke="black" points="255.635,-62.5602 254.35,-52.0436 248.796,-61.0662 255.635,-62.5602"/>
<g id="a_edge1&#45;headlabel"><a xlink:href="dir_000004_000020.html" target="_top" xlink:title="8">
<text text-anchor="middle" x="257.641" y="-64.1779" font-family="Helvetica,sans-Serif" font-size="10.00">8</text>
</a>
</g>
</g>
<!-- dir_92f05f95fbe0269de6fcdae1822ddb36&#45;&gt;dir_11fbc4217d50ab21044e5ad6614aede5 -->
<g id="edge8" class="edge"><title>dir_92f05f95fbe0269de6fcdae1822ddb36&#45;&gt;dir_11fbc4217d50ab21044e5ad6614aede5</title>
<path fill="none" stroke="black" d="M177.854,-87.6966C173.597,-79.6436 168.444,-69.8945 163.734,-60.9824"/>
<polygon fill="black" stroke="black" points="166.808,-59.3097 159.041,-52.1043 160.62,-62.5809 166.808,-59.3097"/>
<g id="a_edge8&#45;headlabel"><a xlink:href="dir_000010_000009.html" target="_top" xlink:title="2">
<text text-anchor="middle" x="170.998" y="-58.6609" font-family="Helvetica,sans-Serif" font-size="10.00">2</text>
</a>
</g>
</g>
<!-- dir_92f05f95fbe0269de6fcdae1822ddb36&#45;&gt;dir_ab00a9b86cff89a0b86b44294c0aada6 -->
<g id="edge9" class="edge"><title>dir_92f05f95fbe0269de6fcdae1822ddb36&#45;&gt;dir_ab00a9b86cff89a0b86b44294c0aada6</title>
<path fill="none" stroke="black" d="M198.388,-87.6966C206.142,-79.0503 216.567,-68.4486 226.527,-59.027"/>
<polygon fill="black" stroke="black" points="229.043,-61.4675 234.001,-52.1043 224.286,-56.3321 229.043,-61.4675"/>
<g id="a_edge9&#45;headlabel"><a xlink:href="dir_000010_000020.html" target="_top" xlink:title="2">
<text text-anchor="middle" x="228.335" y="-63.4932" font-family="Helvetica,sans-Serif" font-size="10.00">2</text>
</a>
</g>
</g>
<!-- dir_82dcf8865025af0993941f3b37463150&#45;&gt;dir_11fbc4217d50ab21044e5ad6614aede5 -->
<g id="edge10" class="edge"><title>dir_82dcf8865025af0993941f3b37463150&#45;&gt;dir_11fbc4217d50ab21044e5ad6614aede5</title>
<path fill="none" stroke="black" d="M123.652,-87.6966C127.636,-79.7284 132.45,-70.0995 136.868,-61.2641"/>
<polygon fill="black" stroke="black" points="140.106,-62.6139 141.448,-52.1043 133.845,-59.4833 140.106,-62.6139"/>
<g id="a_edge10&#45;headlabel"><a xlink:href="dir_000013_000009.html" target="_top" xlink:title="1">
<text text-anchor="middle" x="141.038" y="-64.5987" font-family="Helvetica,sans-Serif" font-size="10.00">1</text>
</a>
</g>
</g>
<!-- dir_82dcf8865025af0993941f3b37463150&#45;&gt;dir_ab00a9b86cff89a0b86b44294c0aada6 -->
<g id="edge11" class="edge"><title>dir_82dcf8865025af0993941f3b37463150&#45;&gt;dir_ab00a9b86cff89a0b86b44294c0aada6</title>
<path fill="none" stroke="black" d="M142.232,-92.0952C167.129,-80.2845 202.453,-63.4918 220.822,-54.4939"/>
<polygon fill="black" stroke="black" points="222.606,-57.5158 229.997,-49.9245 219.485,-51.25 222.606,-57.5158"/>
<g id="a_edge11&#45;headlabel"><a xlink:href="dir_000013_000020.html" target="_top" xlink:title="3">
<text text-anchor="middle" x="220.654" y="-59.1599" font-family="Helvetica,sans-Serif" font-size="10.00">3</text>
</a>
</g>
</g>
<!-- dir_ab00a9b86cff89a0b86b44294c0aada6&#45;&gt;dir_11fbc4217d50ab21044e5ad6614aede5 -->
<g id="edge6" class="edge"><title>dir_ab00a9b86cff89a0b86b44294c0aada6&#45;&gt;dir_11fbc4217d50ab21044e5ad6614aede5</title>
<path fill="none" stroke="black" d="M229.87,-34C215.733,-34 201.597,-34 187.461,-34"/>
<polygon fill="black" stroke="black" points="187.168,-30.5001 177.168,-34 187.168,-37.5001 187.168,-30.5001"/>
<g id="a_edge6&#45;headlabel"><a xlink:href="dir_000020_000009.html" target="_top" xlink:title="8">
<text text-anchor="middle" x="190.763" y="-25.1607" font-family="Helvetica,sans-Serif" font-size="10.00">8</text>
</a>
</g>
</g>
<!-- dir_ab00a9b86cff89a0b86b44294c0aada6&#45;&gt;dir_92f05f95fbe0269de6fcdae1822ddb36 -->
<g id="edge7" class="edge"><title>dir_ab00a9b86cff89a0b86b44294c0aada6&#45;&gt;dir_92f05f95fbe0269de6fcdae1822ddb36</title>
<path fill="none" stroke="black" d="M245.791,-52.1043C238.077,-60.7205 227.67,-71.316 217.703,-80.7555"/>
<polygon fill="black" stroke="black" points="215.171,-78.3302 210.219,-87.6966 219.931,-83.4625 215.171,-78.3302"/>
<g id="a_edge7&#45;headlabel"><a xlink:href="dir_000020_000010.html" target="_top" xlink:title="3">
<text text-anchor="middle" x="215.876" y="-71.3041" font-family="Helvetica,sans-Serif" font-size="10.00">3</text>
</a>
</g>
</g>
</g>
</svg>
