<?xml version="1.0" encoding="UTF-8" standalone="no"?>
<!DOCTYPE svg PUBLIC "-//W3C//DTD SVG 1.1//EN"
 "http://www.w3.org/Graphics/SVG/1.1/DTD/svg11.dtd">
<!-- Generated by graphviz version 2.38.0 (20140413.2041)
 -->
<!-- Title: example Pages: 1 -->
<svg width="238pt" height="276pt"
 viewBox="0.00 0.00 238.00 276.00" xmlns="http://www.w3.org/2000/svg" xmlns:xlink="http://www.w3.org/1999/xlink">
<g id="graph0" class="graph" transform="scale(1 1) rotate(0) translate(4 272)">
<title>example</title>
<g id="clust1" class="cluster"><title>clusterdir_cfafba98a580ce4b62f8a6fa96d7cbb0</title>
<g id="a_clust1"><a xlink:href="dir_cfafba98a580ce4b62f8a6fa96d7cbb0.html" target="_top">
<polygon fill="#eeeeff" stroke="black" points="8,-208 8,-260 222,-260 222,-208 8,-208"/>
</a>
</g>
</g>
<!-- dir_cfafba98a580ce4b62f8a6fa96d7cbb0 -->
<g id="node1" class="node"><title>dir_cfafba98a580ce4b62f8a6fa96d7cbb0</title>
<text text-anchor="middle" x="187" y="-231.5" font-family="Helvetica,sans-Serif" font-size="10.00">example</text>
</g>
<!-- dir_6ca2dda541dd7f06e7e7dc7dd0524cb8 -->
<g id="node2" class="node"><title>dir_6ca2dda541dd7f06e7e7dc7dd0524cb8</title>
<g id="a_node2"><a xlink:href="dir_6ca2dda541dd7f06e7e7dc7dd0524cb8.html" target="_top" xlink:title="demo">
<polygon fill="white" stroke="black" points="142,-252 88,-252 88,-216 142,-216 142,-252"/>
<text text-anchor="middle" x="115" y="-231.5" font-family="Helvetica,sans-Serif" font-size="10.00">demo</text>
</a>
</g>
</g>
<!-- dir_ab00a9b86cff89a0b86b44294c0aada6 -->
<g id="node4" class="node"><title>dir_ab00a9b86cff89a0b86b44294c0aada6</title>
<g id="a_node4"><a xlink:href="dir_ab00a9b86cff89a0b86b44294c0aada6.html" target="_top" xlink:title="hpd">
<polygon fill="none" stroke="red" points="98,-108 44,-108 44,-72 98,-72 98,-108"/>
<text text-anchor="middle" x="71" y="-87.5" font-family="Helvetica,sans-Serif" font-size="10.00">hpd</text>
</a>
</g>
</g>
<!-- dir_6ca2dda541dd7f06e7e7dc7dd0524cb8&#45;&gt;dir_ab00a9b86cff89a0b86b44294c0aada6 -->
<g id="edge1" class="edge"><title>dir_6ca2dda541dd7f06e7e7dc7dd0524cb8&#45;&gt;dir_ab00a9b86cff89a0b86b44294c0aada6</title>
<path fill="none" stroke="black" d="M105.624,-215.754C100.415,-205.588 94.1648,-192.338 90,-180 83.1471,-159.698 78.2226,-135.928 75.1067,-118.063"/>
<polygon fill="black" stroke="black" points="78.5333,-117.332 73.4397,-108.042 71.6282,-118.481 78.5333,-117.332"/>
<g id="a_edge1&#45;headlabel"><a xlink:href="dir_000029_000031.html" target="_top" xlink:title="5">
<text text-anchor="middle" x="81.9239" y="-117.912" font-family="Helvetica,sans-Serif" font-size="10.00">5</text>
</a>
</g>
</g>
<!-- dir_e05d7e2b1ecd646af5bb94391405f3b5 -->
<g id="node5" class="node"><title>dir_e05d7e2b1ecd646af5bb94391405f3b5</title>
<g id="a_node5"><a xlink:href="dir_e05d7e2b1ecd646af5bb94391405f3b5.html" target="_top" xlink:title="modules">
<polygon fill="none" stroke="red" points="153,-180 99,-180 99,-144 153,-144 153,-180"/>
<text text-anchor="middle" x="126" y="-159.5" font-family="Helvetica,sans-Serif" font-size="10.00">modules</text>
</a>
</g>
</g>
<!-- dir_6ca2dda541dd7f06e7e7dc7dd0524cb8&#45;&gt;dir_e05d7e2b1ecd646af5bb94391405f3b5 -->
<g id="edge2" class="edge"><title>dir_6ca2dda541dd7f06e7e7dc7dd0524cb8&#45;&gt;dir_e05d7e2b1ecd646af5bb94391405f3b5</title>
<path fill="none" stroke="black" d="M117.719,-215.697C118.931,-207.983 120.388,-198.712 121.739,-190.112"/>
<polygon fill="black" stroke="black" points="125.217,-190.526 123.312,-180.104 118.302,-189.44 125.217,-190.526"/>
<g id="a_edge2&#45;headlabel"><a xlink:href="dir_000029_000036.html" target="_top" xlink:title="1">
<text text-anchor="middle" x="127.464" y="-192.018" font-family="Helvetica,sans-Serif" font-size="10.00">1</text>
</a>
</g>
</g>
<!-- dir_bdd9a5d540de89e9fe90efdfc6973a4f -->
<g id="node6" class="node"><title>dir_bdd9a5d540de89e9fe90efdfc6973a4f</title>
<g id="a_node6"><a xlink:href="dir_bdd9a5d540de89e9fe90efdfc6973a4f.html" target="_top" xlink:title="common">
<polygon fill="none" stroke="red" points="125,-36 71,-36 71,-0 125,-0 125,-36"/>
<text text-anchor="middle" x="98" y="-15.5" font-family="Helvetica,sans-Serif" font-size="10.00">common</text>
</a>
</g>
</g>
<!-- dir_6ca2dda541dd7f06e7e7dc7dd0524cb8&#45;&gt;dir_bdd9a5d540de89e9fe90efdfc6973a4f -->
<g id="edge3" class="edge"><title>dir_6ca2dda541dd7f06e7e7dc7dd0524cb8&#45;&gt;dir_bdd9a5d540de89e9fe90efdfc6973a4f</title>
<path fill="none" stroke="black" d="M136.267,-215.701C146.109,-206.305 156.763,-193.798 162,-180 167.677,-165.041 165.676,-159.572 162,-144 153.308,-107.179 131.638,-69.0688 115.917,-44.7608"/>
<polygon fill="black" stroke="black" points="118.659,-42.5615 110.223,-36.1519 112.821,-46.4233 118.659,-42.5615"/>
<g id="a_edge3&#45;headlabel"><a xlink:href="dir_000029_000000.html" target="_top" xlink:title="2">
<text text-anchor="middle" x="123.01" y="-41.4932" font-family="Helvetica,sans-Serif" font-size="10.00">2</text>
</a>
</g>
</g>
<!-- dir_1ef88aeded6ac5f4d6081793163879de -->
<g id="node3" class="node"><title>dir_1ef88aeded6ac5f4d6081793163879de</title>
<g id="a_node3"><a xlink:href="dir_1ef88aeded6ac5f4d6081793163879de.html" target="_top" xlink:title="template">
<polygon fill="white" stroke="black" points="70,-252 16,-252 16,-216 70,-216 70,-252"/>
<text text-anchor="middle" x="43" y="-231.5" font-family="Helvetica,sans-Serif" font-size="10.00">template</text>
</a>
</g>
</g>
<!-- dir_1ef88aeded6ac5f4d6081793163879de&#45;&gt;dir_ab00a9b86cff89a0b86b44294c0aada6 -->
<g id="edge7" class="edge"><title>dir_1ef88aeded6ac5f4d6081793163879de&#45;&gt;dir_ab00a9b86cff89a0b86b44294c0aada6</title>
<path fill="none" stroke="black" d="M45.1687,-215.844C47.5667,-197.851 51.7888,-168.797 57,-144 58.7891,-135.487 61.0854,-126.296 63.2986,-117.997"/>
<polygon fill="black" stroke="black" points="66.7488,-118.649 66.0132,-108.08 59.9972,-116.801 66.7488,-118.649"/>
<g id="a_edge7&#45;headlabel"><a xlink:href="dir_000030_000031.html" target="_top" xlink:title="5">
<text text-anchor="middle" x="68.5384" y="-120.366" font-family="Helvetica,sans-Serif" font-size="10.00">5</text>
</a>
</g>
</g>
<!-- dir_ab00a9b86cff89a0b86b44294c0aada6&#45;&gt;dir_bdd9a5d540de89e9fe90efdfc6973a4f -->
<g id="edge4" class="edge"><title>dir_ab00a9b86cff89a0b86b44294c0aada6&#45;&gt;dir_bdd9a5d540de89e9fe90efdfc6973a4f</title>
<path fill="none" stroke="black" d="M71.7584,-71.6966C74.01,-63.7284 77.5093,-54.0995 81.31,-45.2641"/>
<polygon fill="black" stroke="black" points="84.5233,-46.6534 85.5076,-36.1043 78.1597,-43.7371 84.5233,-46.6534"/>
<g id="a_edge4&#45;headlabel"><a xlink:href="dir_000031_000000.html" target="_top" xlink:title="9">
<text text-anchor="middle" x="85.607" y="-48.604" font-family="Helvetica,sans-Serif" font-size="10.00">9</text>
</a>
</g>
</g>
<!-- dir_e05d7e2b1ecd646af5bb94391405f3b5&#45;&gt;dir_ab00a9b86cff89a0b86b44294c0aada6 -->
<g id="edge5" class="edge"><title>dir_e05d7e2b1ecd646af5bb94391405f3b5&#45;&gt;dir_ab00a9b86cff89a0b86b44294c0aada6</title>
<path fill="none" stroke="black" d="M112.404,-143.697C105.877,-135.389 97.932,-125.277 90.7534,-116.141"/>
<polygon fill="black" stroke="black" points="93.3695,-113.805 84.4391,-108.104 87.8653,-118.13 93.3695,-113.805"/>
<g id="a_edge5&#45;headlabel"><a xlink:href="dir_000036_000031.html" target="_top" xlink:title="7">
<text text-anchor="middle" x="97.8229" y="-112.377" font-family="Helvetica,sans-Serif" font-size="10.00">7</text>
</a>
</g>
</g>
<!-- dir_e05d7e2b1ecd646af5bb94391405f3b5&#45;&gt;dir_bdd9a5d540de89e9fe90efdfc6973a4f -->
<g id="edge6" class="edge"><title>dir_e05d7e2b1ecd646af5bb94391405f3b5&#45;&gt;dir_bdd9a5d540de89e9fe90efdfc6973a4f</title>
<path fill="none" stroke="black" d="M122.623,-143.871C117.829,-119.564 109.007,-74.8187 103.327,-46.0132"/>
<polygon fill="black" stroke="black" points="106.758,-45.3232 101.389,-36.1893 99.8902,-46.6775 106.758,-45.3232"/>
<g id="a_edge6&#45;headlabel"><a xlink:href="dir_000036_000000.html" target="_top" xlink:title="4">
<text text-anchor="middle" x="110.239" y="-45.8007" font-family="Helvetica,sans-Serif" font-size="10.00">4</text>
</a>
</g>
</g>
<!-- dir_bdd9a5d540de89e9fe90efdfc6973a4f&#45;&gt;dir_ab00a9b86cff89a0b86b44294c0aada6 -->
<g id="edge8" class="edge"><title>dir_bdd9a5d540de89e9fe90efdfc6973a4f&#45;&gt;dir_ab00a9b86cff89a0b86b44294c0aada6</title>
<path fill="none" stroke="black" d="M97.2976,-36.1043C95.067,-44.0447 91.5806,-53.6661 87.785,-62.5146"/>
<polygon fill="black" stroke="black" points="84.5621,-61.1465 83.5899,-71.6966 90.9291,-64.0555 84.5621,-61.1465"/>
<g id="a_edge8&#45;headlabel"><a xlink:href="dir_000000_000031.html" target="_top" xlink:title="17">
<text text-anchor="middle" x="83.4734" y="-54.1971" font-family="Helvetica,sans-Serif" font-size="10.00">17</text>
</a>
</g>
</g>
</g>
</svg>
