<?xml version="1.0" encoding="UTF-8" standalone="no"?>
<!DOCTYPE svg PUBLIC "-//W3C//DTD SVG 1.1//EN"
 "http://www.w3.org/Graphics/SVG/1.1/DTD/svg11.dtd">
<!-- Generated by graphviz version 2.38.0 (20140413.2041)
 -->
<!-- Title: hpd Pages: 1 -->
<svg width="220pt" height="220pt"
 viewBox="0.00 0.00 220.00 220.00" xmlns="http://www.w3.org/2000/svg" xmlns:xlink="http://www.w3.org/1999/xlink">
<g id="graph0" class="graph" transform="scale(1 1) rotate(0) translate(4 216)">
<title>hpd</title>
<g id="clust1" class="cluster"><title>clusterdir_ab00a9b86cff89a0b86b44294c0aada6</title>
<g id="a_clust1"><a xlink:href="dir_ab00a9b86cff89a0b86b44294c0aada6.html" target="_top">
<polygon fill="#eeeeff" stroke="black" points="8,-8 8,-204 150,-204 150,-8 8,-8"/>
</a>
</g>
</g>
<!-- dir_ab00a9b86cff89a0b86b44294c0aada6 -->
<g id="node1" class="node"><title>dir_ab00a9b86cff89a0b86b44294c0aada6</title>
<text text-anchor="middle" x="115" y="-175.5" font-family="Helvetica,sans-Serif" font-size="10.00">hpd</text>
</g>
<!-- dir_aba8a382290fd93b3200a2cfbb5130ed -->
<g id="node2" class="node"><title>dir_aba8a382290fd93b3200a2cfbb5130ed</title>
<g id="a_node2"><a xlink:href="dir_aba8a382290fd93b3200a2cfbb5130ed.html" target="_top" xlink:title="include">
<polygon fill="white" stroke="red" points="134,-52 80,-52 80,-16 134,-16 134,-52"/>
<text text-anchor="middle" x="107" y="-31.5" font-family="Helvetica,sans-Serif" font-size="10.00">include</text>
</a>
</g>
</g>
<!-- dir_3128ee3f19d8356fe970e43f9e882e44 -->
<g id="node3" class="node"><title>dir_3128ee3f19d8356fe970e43f9e882e44</title>
<g id="a_node3"><a xlink:href="dir_3128ee3f19d8356fe970e43f9e882e44.html" target="_top" xlink:title="src">
<polygon fill="white" stroke="black" points="134,-124 80,-124 80,-88 134,-88 134,-124"/>
<text text-anchor="middle" x="107" y="-103.5" font-family="Helvetica,sans-Serif" font-size="10.00">src</text>
</a>
</g>
</g>
<!-- dir_3128ee3f19d8356fe970e43f9e882e44&#45;&gt;dir_aba8a382290fd93b3200a2cfbb5130ed -->
<g id="edge1" class="edge"><title>dir_3128ee3f19d8356fe970e43f9e882e44&#45;&gt;dir_aba8a382290fd93b3200a2cfbb5130ed</title>
<path fill="none" stroke="black" d="M107,-87.6966C107,-79.9827 107,-70.7125 107,-62.1124"/>
<polygon fill="black" stroke="black" points="110.5,-62.1043 107,-52.1043 103.5,-62.1044 110.5,-62.1043"/>
<g id="a_edge1&#45;headlabel"><a xlink:href="dir_000034_000032.html" target="_top" xlink:title="12">
<text text-anchor="middle" x="113.339" y="-63.199" font-family="Helvetica,sans-Serif" font-size="10.00">12</text>
</a>
</g>
</g>
<!-- dir_bdd9a5d540de89e9fe90efdfc6973a4f -->
<g id="node5" class="node"><title>dir_bdd9a5d540de89e9fe90efdfc6973a4f</title>
<g id="a_node5"><a xlink:href="dir_bdd9a5d540de89e9fe90efdfc6973a4f.html" target="_top" xlink:title="common">
<polygon fill="none" stroke="red" points="212,-52 158,-52 158,-16 212,-16 212,-52"/>
<text text-anchor="middle" x="185" y="-31.5" font-family="Helvetica,sans-Serif" font-size="10.00">common</text>
</a>
</g>
</g>
<!-- dir_3128ee3f19d8356fe970e43f9e882e44&#45;&gt;dir_bdd9a5d540de89e9fe90efdfc6973a4f -->
<g id="edge2" class="edge"><title>dir_3128ee3f19d8356fe970e43f9e882e44&#45;&gt;dir_bdd9a5d540de89e9fe90efdfc6973a4f</title>
<path fill="none" stroke="black" d="M126.281,-87.6966C135.915,-79.0503 147.729,-68.4486 158.227,-59.027"/>
<polygon fill="black" stroke="black" points="160.836,-61.3883 165.941,-52.1043 156.161,-56.1786 160.836,-61.3883"/>
<g id="a_edge2&#45;headlabel"><a xlink:href="dir_000034_000000.html" target="_top" xlink:title="9">
<text text-anchor="middle" x="160.057" y="-63.4023" font-family="Helvetica,sans-Serif" font-size="10.00">9</text>
</a>
</g>
</g>
<!-- dir_c8b67b8ec08b29a99cff9703ce7947a1 -->
<g id="node4" class="node"><title>dir_c8b67b8ec08b29a99cff9703ce7947a1</title>
<g id="a_node4"><a xlink:href="dir_c8b67b8ec08b29a99cff9703ce7947a1.html" target="_top" xlink:title="test">
<polygon fill="white" stroke="black" points="70,-196 16,-196 16,-160 70,-160 70,-196"/>
<text text-anchor="middle" x="43" y="-175.5" font-family="Helvetica,sans-Serif" font-size="10.00">test</text>
</a>
</g>
</g>
<!-- dir_c8b67b8ec08b29a99cff9703ce7947a1&#45;&gt;dir_aba8a382290fd93b3200a2cfbb5130ed -->
<g id="edge4" class="edge"><title>dir_c8b67b8ec08b29a99cff9703ce7947a1&#45;&gt;dir_aba8a382290fd93b3200a2cfbb5130ed</title>
<path fill="none" stroke="black" d="M46.8472,-159.706C51.2918,-141.349 59.4983,-111.766 71,-88 75.5314,-78.6368 81.556,-69.0419 87.3783,-60.6341"/>
<polygon fill="black" stroke="black" points="90.3257,-62.5297 93.3015,-52.3613 84.6341,-58.4546 90.3257,-62.5297"/>
<g id="a_edge4&#45;headlabel"><a xlink:href="dir_000035_000032.html" target="_top" xlink:title="1">
<text text-anchor="middle" x="90.5417" y="-64.6053" font-family="Helvetica,sans-Serif" font-size="10.00">1</text>
</a>
</g>
</g>
<!-- dir_c8b67b8ec08b29a99cff9703ce7947a1&#45;&gt;dir_3128ee3f19d8356fe970e43f9e882e44 -->
<g id="edge3" class="edge"><title>dir_c8b67b8ec08b29a99cff9703ce7947a1&#45;&gt;dir_3128ee3f19d8356fe970e43f9e882e44</title>
<path fill="none" stroke="black" d="M58.8202,-159.697C66.5705,-151.22 76.039,-140.864 84.5245,-131.583"/>
<polygon fill="black" stroke="black" points="87.1971,-133.846 91.3618,-124.104 82.0309,-129.123 87.1971,-133.846"/>
<g id="a_edge3&#45;headlabel"><a xlink:href="dir_000035_000034.html" target="_top" xlink:title="1">
<text text-anchor="middle" x="86.8671" y="-135.915" font-family="Helvetica,sans-Serif" font-size="10.00">1</text>
</a>
</g>
</g>
<!-- dir_bdd9a5d540de89e9fe90efdfc6973a4f&#45;&gt;dir_aba8a382290fd93b3200a2cfbb5130ed -->
<g id="edge5" class="edge"><title>dir_bdd9a5d540de89e9fe90efdfc6973a4f&#45;&gt;dir_aba8a382290fd93b3200a2cfbb5130ed</title>
<path fill="none" stroke="black" d="M157.969,-34C153.372,-34 148.776,-34 144.179,-34"/>
<polygon fill="black" stroke="black" points="144.117,-30.5001 134.117,-34 144.117,-37.5001 144.117,-30.5001"/>
<g id="a_edge5&#45;headlabel"><a xlink:href="dir_000000_000032.html" target="_top" xlink:title="17">
<text text-anchor="middle" x="147.712" y="-25.1607" font-family="Helvetica,sans-Serif" font-size="10.00">17</text>
</a>
</g>
</g>
</g>
</svg>
