<?xml version="1.0" encoding="UTF-8" standalone="no"?>
<!DOCTYPE svg PUBLIC "-//W3C//DTD SVG 1.1//EN"
 "http://www.w3.org/Graphics/SVG/1.1/DTD/svg11.dtd">
<!-- Generated by graphviz version 2.38.0 (20140413.2041)
 -->
<!-- Title: request_states Pages: 1 -->
<svg width="370pt" height="638pt"
 viewBox="0.00 0.00 370.20 638.00" xmlns="http://www.w3.org/2000/svg" xmlns:xlink="http://www.w3.org/1999/xlink">
<g id="graph0" class="graph" transform="scale(1 1) rotate(0) translate(4 634)">
<title>request_states</title>
<polygon fill="white" stroke="none" points="-4,4 -4,-634 366.2,-634 366.2,4 -4,4"/>
<!-- S_START -->
<g id="node1" class="node"><title>S_START</title>
<ellipse fill="none" stroke="black" cx="197.2" cy="-612" rx="34.9638" ry="18"/>
<text text-anchor="middle" x="197.2" y="-609.5" font-family="Times,serif" font-size="10.00">S_START</text>
</g>
<!-- S_BEGIN -->
<g id="node2" class="node"><title>S_BEGIN</title>
<ellipse fill="none" stroke="black" cx="197.2" cy="-531" rx="34.2855" ry="18"/>
<text text-anchor="middle" x="197.2" y="-528.5" font-family="Times,serif" font-size="10.00">S_BEGIN</text>
</g>
<!-- S_START&#45;&gt;S_BEGIN -->
<g id="edge1" class="edge"><title>S_START&#45;&gt;S_BEGIN</title>
<path fill="none" stroke="black" d="M197.2,-593.858C197.2,-583.713 197.2,-570.634 197.2,-559.117"/>
<polygon fill="black" stroke="black" points="200.7,-559.108 197.2,-549.108 193.7,-559.108 200.7,-559.108"/>
<text text-anchor="middle" x="227.7" y="-569.6" font-family="Times,serif" font-size="8.00">on_requst_begin();</text>
</g>
<!-- S_URL -->
<g id="node3" class="node"><title>S_URL</title>
<ellipse fill="none" stroke="black" cx="197.2" cy="-441" rx="27.8353" ry="18"/>
<text text-anchor="middle" x="197.2" y="-438.5" font-family="Times,serif" font-size="10.00">S_URL</text>
</g>
<!-- S_BEGIN&#45;&gt;S_URL -->
<g id="edge2" class="edge"><title>S_BEGIN&#45;&gt;S_URL</title>
<path fill="none" stroke="black" d="M197.2,-512.614C197.2,-500.24 197.2,-483.369 197.2,-469.22"/>
<polygon fill="black" stroke="black" points="200.7,-469.05 197.2,-459.05 193.7,-469.05 200.7,-469.05"/>
<text text-anchor="middle" x="232.2" y="-488.6" font-family="Times,serif" font-size="8.00">on_request_method();</text>
<text text-anchor="middle" x="232.2" y="-479.6" font-family="Times,serif" font-size="8.00">on_request_url();</text>
</g>
<!-- S_URL&#45;&gt;S_URL -->
<g id="edge3" class="edge"><title>S_URL&#45;&gt;S_URL</title>
<path fill="none" stroke="black" d="M222.097,-449.121C233.235,-449.895 242.868,-447.188 242.868,-441 242.868,-436.843 238.519,-434.257 232.287,-433.242"/>
<polygon fill="black" stroke="black" points="232.215,-429.737 222.097,-432.879 231.966,-436.733 232.215,-429.737"/>
<text text-anchor="middle" x="270.868" y="-439.1" font-family="Times,serif" font-size="8.00">on_request_url();</text>
</g>
<!-- S_HEADER_FIELD -->
<g id="node4" class="node"><title>S_HEADER_FIELD</title>
<ellipse fill="none" stroke="black" cx="78.2003" cy="-351" rx="59.4099" ry="18"/>
<text text-anchor="middle" x="78.2003" y="-348.5" font-family="Times,serif" font-size="10.00">S_HEADER_FIELD</text>
</g>
<!-- S_URL&#45;&gt;S_HEADER_FIELD -->
<g id="edge4" class="edge"><title>S_URL&#45;&gt;S_HEADER_FIELD</title>
<path fill="none" stroke="black" d="M179.641,-427.015C160.838,-413.11 130.664,-390.796 108.105,-374.114"/>
<polygon fill="black" stroke="black" points="109.993,-371.157 99.8711,-368.025 105.83,-376.785 109.993,-371.157"/>
<text text-anchor="middle" x="193.7" y="-398.6" font-family="Times,serif" font-size="8.00">on_request_url_complete();</text>
<text text-anchor="middle" x="193.7" y="-389.6" font-family="Times,serif" font-size="8.00">on_request_header_field();</text>
</g>
<!-- S_HEADER_COMPLETE -->
<g id="node6" class="node"><title>S_HEADER_COMPLETE</title>
<ellipse fill="none" stroke="black" cx="193.2" cy="-180" rx="74.3435" ry="18"/>
<text text-anchor="middle" x="193.2" y="-177.5" font-family="Times,serif" font-size="10.00">S_HEADER_COMPLETE</text>
</g>
<!-- S_URL&#45;&gt;S_HEADER_COMPLETE -->
<g id="edge9" class="edge"><title>S_URL&#45;&gt;S_HEADER_COMPLETE</title>
<path fill="none" stroke="black" d="M217.58,-428.292C226.309,-422.339 235.92,-414.373 242.2,-405 271.484,-361.297 255.446,-254.844 252.2,-243 247.988,-227.631 236.95,-214.257 225.545,-203.905"/>
<polygon fill="black" stroke="black" points="227.562,-201.027 217.669,-197.233 223.037,-206.368 227.562,-201.027"/>
<text text-anchor="middle" x="311.2" y="-308.6" font-family="Times,serif" font-size="8.00">on_request_url_complete();</text>
<text text-anchor="middle" x="311.2" y="-299.6" font-family="Times,serif" font-size="8.00">on_request_header_complete();</text>
</g>
<!-- S_HEADER_FIELD&#45;&gt;S_HEADER_FIELD -->
<g id="edge6" class="edge"><title>S_HEADER_FIELD&#45;&gt;S_HEADER_FIELD</title>
<path fill="none" stroke="black" d="M131.416,-359.165C145.235,-358.663 155.655,-355.941 155.655,-351 155.655,-347.371 150.036,-344.939 141.577,-343.705"/>
<polygon fill="black" stroke="black" points="141.678,-340.201 131.416,-342.835 141.081,-347.175 141.678,-340.201"/>
<text text-anchor="middle" x="199.655" y="-349.1" font-family="Times,serif" font-size="8.00">on_request_header_field();</text>
</g>
<!-- S_HEADER_VALUE -->
<g id="node5" class="node"><title>S_HEADER_VALUE</title>
<ellipse fill="none" stroke="black" cx="71.2003" cy="-261" rx="63.6513" ry="18"/>
<text text-anchor="middle" x="71.2003" y="-258.5" font-family="Times,serif" font-size="10.00">S_HEADER_VALUE</text>
</g>
<!-- S_HEADER_FIELD&#45;&gt;S_HEADER_VALUE -->
<g id="edge7" class="edge"><title>S_HEADER_FIELD&#45;&gt;S_HEADER_VALUE</title>
<path fill="none" stroke="black" d="M33.6471,-338.868C21.7315,-333.64 10.2243,-326.029 3.20034,-315 -5.82245,-300.832 6.13164,-288.902 22.4058,-279.969"/>
<polygon fill="black" stroke="black" points="24.3803,-282.896 31.7856,-275.319 21.2715,-276.625 24.3803,-282.896"/>
<text text-anchor="middle" x="48.2003" y="-304.1" font-family="Times,serif" font-size="8.00">on_request_header_value();</text>
</g>
<!-- S_HEADER_VALUE&#45;&gt;S_HEADER_FIELD -->
<g id="edge5" class="edge"><title>S_HEADER_VALUE&#45;&gt;S_HEADER_FIELD</title>
<path fill="none" stroke="black" d="M86.8474,-278.548C91.0403,-284.009 95.0133,-290.388 97.2003,-297 100.144,-305.9 98.216,-315.571 94.6526,-324.185"/>
<polygon fill="black" stroke="black" points="91.4082,-322.849 90.1073,-333.364 97.6813,-325.956 91.4082,-322.849"/>
<text text-anchor="middle" x="143.2" y="-304.1" font-family="Times,serif" font-size="8.00">on_request_header_field();</text>
</g>
<!-- S_HEADER_VALUE&#45;&gt;S_HEADER_VALUE -->
<g id="edge8" class="edge"><title>S_HEADER_VALUE&#45;&gt;S_HEADER_VALUE</title>
<path fill="none" stroke="black" d="M129.495,-268.335C142.917,-267.703 152.776,-265.258 152.776,-261 152.776,-257.906 147.571,-255.77 139.577,-254.59"/>
<polygon fill="black" stroke="black" points="139.773,-251.094 129.495,-253.665 139.133,-258.064 139.773,-251.094"/>
<text text-anchor="middle" x="197.776" y="-259.1" font-family="Times,serif" font-size="8.00">on_request_header_value();</text>
</g>
<!-- S_HEADER_VALUE&#45;&gt;S_HEADER_COMPLETE -->
<g id="edge10" class="edge"><title>S_HEADER_VALUE&#45;&gt;S_HEADER_COMPLETE</title>
<path fill="none" stroke="black" d="M95.5956,-244.203C114.01,-232.279 139.486,-215.782 159.793,-202.633"/>
<polygon fill="black" stroke="black" points="161.938,-205.414 168.429,-197.04 158.133,-199.538 161.938,-205.414"/>
<text text-anchor="middle" x="184.2" y="-218.6" font-family="Times,serif" font-size="8.00">on_request_header_complete;</text>
</g>
<!-- S_BODY -->
<g id="node7" class="node"><title>S_BODY</title>
<ellipse fill="none" stroke="black" cx="83.2003" cy="-99" rx="32.9303" ry="18"/>
<text text-anchor="middle" x="83.2003" y="-96.5" font-family="Times,serif" font-size="10.00">S_BODY</text>
</g>
<!-- S_HEADER_COMPLETE&#45;&gt;S_BODY -->
<g id="edge11" class="edge"><title>S_HEADER_COMPLETE&#45;&gt;S_BODY</title>
<path fill="none" stroke="black" d="M170.675,-162.823C153.311,-150.352 129.219,-133.05 110.715,-119.76"/>
<polygon fill="black" stroke="black" points="112.556,-116.774 102.392,-113.783 108.473,-122.46 112.556,-116.774"/>
<text text-anchor="middle" x="173.2" y="-137.6" font-family="Times,serif" font-size="8.00">on_request_body();</text>
</g>
<!-- S_COMPLETE -->
<g id="node8" class="node"><title>S_COMPLETE</title>
<ellipse fill="none" stroke="black" cx="172.2" cy="-18" rx="47.1863" ry="18"/>
<text text-anchor="middle" x="172.2" y="-15.5" font-family="Times,serif" font-size="10.00">S_COMPLETE</text>
</g>
<!-- S_HEADER_COMPLETE&#45;&gt;S_COMPLETE -->
<g id="edge13" class="edge"><title>S_HEADER_COMPLETE&#45;&gt;S_COMPLETE</title>
<path fill="none" stroke="black" d="M201.982,-161.975C204.454,-156.393 206.838,-150.063 208.2,-144 216.972,-104.951 227.509,-90.5487 211.2,-54 209.077,-49.241 205.951,-44.8595 202.378,-40.9246"/>
<polygon fill="black" stroke="black" points="204.735,-38.3354 195.101,-33.9266 199.883,-43.3809 204.735,-38.3354"/>
<text text-anchor="middle" x="258.2" y="-97.1" font-family="Times,serif" font-size="8.00">on_request_complete();</text>
</g>
<!-- S_BODY&#45;&gt;S_BODY -->
<g id="edge12" class="edge"><title>S_BODY&#45;&gt;S_BODY</title>
<path fill="none" stroke="black" d="M113.294,-106.478C124.717,-106.766 134.165,-104.273 134.165,-99 134.165,-95.4569 129.9,-93.1692 123.636,-92.1368"/>
<polygon fill="black" stroke="black" points="123.484,-88.6216 113.294,-91.5224 123.068,-95.6093 123.484,-88.6216"/>
<text text-anchor="middle" x="165.165" y="-97.1" font-family="Times,serif" font-size="8.00">on_request_body();</text>
</g>
<!-- S_BODY&#45;&gt;S_COMPLETE -->
<g id="edge14" class="edge"><title>S_BODY&#45;&gt;S_COMPLETE</title>
<path fill="none" stroke="black" d="M99.9406,-83.1407C113.147,-71.4178 131.786,-54.8737 146.825,-41.5242"/>
<polygon fill="black" stroke="black" points="149.158,-44.133 154.314,-34.877 144.511,-38.8979 149.158,-44.133"/>
<text text-anchor="middle" x="169.2" y="-56.6" font-family="Times,serif" font-size="8.00">on_request_complete();</text>
</g>
</g>
</svg>
